<svg xmlns="http://www.w3.org/2000/svg" xmlns:xlink= "http://www.w3.org/1999/xlink" width="32" height="32" viewBox ="0 0 32 32"><rect shape-rendering="crispEdges" fill="rgb(8, 8, 57)"  x="0" y="13" width="1" height="1" /><rect shape-rendering="crispEdges" fill="rgb(8, 8, 57)"  x="0" y="14" width="1" height="1" /><rect shape-rendering="crispEdges" fill="rgb(8, 8, 57)"  x="0" y="15" width="1" height="1" /><rect shape-rendering="crispEdges" fill="rgb(24, 41, 222)"  x="1" y="12" width="1" height="1" /><rect shape-rendering="crispEdges" fill="rgb(139, 148, 238)"  x="1" y="13" width="1" height="1" /><rect shape-rendering="crispEdges" fill="rgb(74, 65, 222)"  x="1" y="14" width="1" height="1" /><rect shape-rendering="crispEdges" fill="rgb(24, 41, 222)"  x="1" y="15" width="1" height="1" /><rect shape-rendering="crispEdges" fill="rgb(8, 8, 57)"  x="1" y="16" width="1" height="1" /><rect shape-rendering="crispEdges" fill="rgb(16, 24, 139)"  x="2" y="11" width="1" height="1" /><rect shape-rendering="crispEdges" fill="rgb(139, 148, 238)"  x="2" y="12" width="1" height="1" /><rect shape-rendering="crispEdges" fill="rgb(8, 8, 57)"  x="2" y="13" width="1" height="1" /><rect shape-rendering="crispEdges" fill="rgb(8, 8, 57)"  x="2" y="14" width="1" height="1" /><rect shape-rendering="crispEdges" fill="rgb(8, 8, 57)"  x="2" y="15" width="1" height="1" /><rect shape-rendering="crispEdges" fill="rgb(24, 41, 222)"  x="2" y="16" width="1" height="1" /><rect shape-rendering="crispEdges" fill="rgb(8, 8, 57)"  x="2" y="17" width="1" height="1" /><rect shape-rendering="crispEdges" fill="rgb(74, 65, 222)"  x="3" y="11" width="1" height="1" /><rect shape-rendering="crispEdges" fill="rgb(74, 65, 222)"  x="3" y="12" width="1" height="1" /><rect shape-rendering="crispEdges" fill="rgb(8, 8, 57)"  x="3" y="13" width="1" height="1" /><rect shape-rendering="crispEdges" fill="rgb(8, 8, 57)"  x="3" y="14" width="1" height="1" /><rect shape-rendering="crispEdges" fill="rgb(8, 8, 57)"  x="3" y="15" width="1" height="1" /><rect shape-rendering="crispEdges" fill="rgb(8, 8, 57)"  x="3" y="16" width="1" height="1" /><rect shape-rendering="crispEdges" fill="rgb(16, 24, 139)"  x="3" y="17" width="1" height="1" /><rect shape-rendering="crispEdges" fill="rgb(8, 8, 57)"  x="3" y="18" width="1" height="1" /><rect shape-rendering="crispEdges" fill="rgb(139, 148, 238)"  x="4" y="11" width="1" height="1" /><rect shape-rendering="crispEdges" fill="rgb(16, 24, 139)"  x="4" y="12" width="1" height="1" /><rect shape-rendering="crispEdges" fill="rgb(24, 41, 222)"  x="4" y="13" width="1" height="1" /><rect shape-rendering="crispEdges" fill="rgb(8, 8, 57)"  x="4" y="14" width="1" height="1" /><rect shape-rendering="crispEdges" fill="rgb(8, 8, 57)"  x="4" y="15" width="1" height="1" /><rect shape-rendering="crispEdges" fill="rgb(8, 8, 57)"  x="4" y="16" width="1" height="1" /><rect shape-rendering="crispEdges" fill="rgb(24, 41, 222)"  x="4" y="17" width="1" height="1" /><rect shape-rendering="crispEdges" fill="rgb(8, 8, 57)"  x="4" y="18" width="1" height="1" /><rect shape-rendering="crispEdges" fill="rgb(139, 148, 238)"  x="5" y="11" width="1" height="1" /><rect shape-rendering="crispEdges" fill="rgb(16, 24, 139)"  x="5" y="12" width="1" height="1" /><rect shape-rendering="crispEdges" fill="rgb(74, 65, 222)"  x="5" y="13" width="1" height="1" /><rect shape-rendering="crispEdges" fill="rgb(24, 41, 222)"  x="5" y="14" width="1" height="1" /><rect shape-rendering="crispEdges" fill="rgb(8, 8, 57)"  x="5" y="15" width="1" height="1" /><rect shape-rendering="crispEdges" fill="rgb(8, 8, 57)"  x="5" y="16" width="1" height="1" /><rect shape-rendering="crispEdges" fill="rgb(8, 8, 57)"  x="5" y="17" width="1" height="1" /><rect shape-rendering="crispEdges" fill="rgb(24, 41, 222)"  x="5" y="18" width="1" height="1" /><rect shape-rendering="crispEdges" fill="rgb(8, 8, 57)"  x="5" y="19" width="1" height="1" /><rect shape-rendering="crispEdges" fill="rgb(139, 148, 238)"  x="6" y="11" width="1" height="1" /><rect shape-rendering="crispEdges" fill="rgb(16, 24, 139)"  x="6" y="12" width="1" height="1" /><rect shape-rendering="crispEdges" fill="rgb(74, 65, 222)"  x="6" y="13" width="1" height="1" /><rect shape-rendering="crispEdges" fill="rgb(74, 65, 222)"  x="6" y="14" width="1" height="1" /><rect shape-rendering="crispEdges" fill="rgb(74, 65, 222)"  x="6" y="15" width="1" height="1" /><rect shape-rendering="crispEdges" fill="rgb(24, 41, 222)"  x="6" y="16" width="1" height="1" /><rect shape-rendering="crispEdges" fill="rgb(8, 8, 57)"  x="6" y="17" width="1" height="1" /><rect shape-rendering="crispEdges" fill="rgb(24, 41, 222)"  x="6" y="18" width="1" height="1" /><rect shape-rendering="crispEdges" fill="rgb(8, 8, 57)"  x="6" y="19" width="1" height="1" /><rect shape-rendering="crispEdges" fill="rgb(24, 41, 222)"  x="7" y="11" width="1" height="1" /><rect shape-rendering="crispEdges" fill="rgb(74, 65, 222)"  x="7" y="12" width="1" height="1" /><rect shape-rendering="crispEdges" fill="rgb(8, 8, 57)"  x="7" y="13" width="1" height="1" /><rect shape-rendering="crispEdges" fill="rgb(8, 8, 57)"  x="7" y="14" width="1" height="1" /><rect shape-rendering="crispEdges" fill="rgb(8, 8, 57)"  x="7" y="15" width="1" height="1" /><rect shape-rendering="crispEdges" fill="rgb(8, 8, 57)"  x="7" y="16" width="1" height="1" /><rect shape-rendering="crispEdges" fill="rgb(8, 8, 57)"  x="7" y="17" width="1" height="1" /><rect shape-rendering="crispEdges" fill="rgb(24, 41, 222)"  x="7" y="18" width="1" height="1" /><rect shape-rendering="crispEdges" fill="rgb(8, 8, 57)"  x="7" y="19" width="1" height="1" /><rect shape-rendering="crispEdges" fill="rgb(139, 148, 238)"  x="8" y="12" width="1" height="1" /><rect shape-rendering="crispEdges" fill="rgb(16, 24, 139)"  x="8" y="13" width="1" height="1" /><rect shape-rendering="crispEdges" fill="rgb(8, 8, 57)"  x="8" y="14" width="1" height="1" /><rect shape-rendering="crispEdges" fill="rgb(8, 8, 57)"  x="8" y="15" width="1" height="1" /><rect shape-rendering="crispEdges" fill="rgb(8, 8, 57)"  x="8" y="16" width="1" height="1" /><rect shape-rendering="crispEdges" fill="rgb(8, 8, 57)"  x="8" y="17" width="1" height="1" /><rect shape-rendering="crispEdges" fill="rgb(16, 24, 139)"  x="8" y="18" width="1" height="1" /><rect shape-rendering="crispEdges" fill="rgb(8, 8, 57)"  x="8" y="19" width="1" height="1" /><rect shape-rendering="crispEdges" fill="rgb(24, 41, 222)"  x="9" y="12" width="1" height="1" /><rect shape-rendering="crispEdges" fill="rgb(74, 65, 222)"  x="9" y="13" width="1" height="1" /><rect shape-rendering="crispEdges" fill="rgb(16, 24, 139)"  x="9" y="14" width="1" height="1" /><rect shape-rendering="crispEdges" fill="rgb(8, 8, 57)"  x="9" y="15" width="1" height="1" /><rect shape-rendering="crispEdges" fill="rgb(8, 8, 57)"  x="9" y="16" width="1" height="1" /><rect shape-rendering="crispEdges" fill="rgb(16, 24, 139)"  x="9" y="17" width="1" height="1" /><rect shape-rendering="crispEdges" fill="rgb(8, 8, 57)"  x="9" y="18" width="1" height="1" /><rect shape-rendering="crispEdges" fill="rgb(24, 41, 222)"  x="10" y="13" width="1" height="1" /><rect shape-rendering="crispEdges" fill="rgb(139, 148, 238)"  x="10" y="14" width="1" height="1" /><rect shape-rendering="crispEdges" fill="rgb(74, 65, 222)"  x="10" y="15" width="1" height="1" /><rect shape-rendering="crispEdges" fill="rgb(24, 41, 222)"  x="10" y="16" width="1" height="1" /><rect shape-rendering="crispEdges" fill="rgb(8, 8, 57)"  x="10" y="17" width="1" height="1" /><rect shape-rendering="crispEdges" fill="rgb(24, 41, 222)"  x="11" y="15" width="1" height="1" /><rect shape-rendering="crispEdges" fill="rgb(16, 24, 139)"  x="11" y="16" width="1" height="1" /><rect shape-rendering="crispEdges" fill="rgb(74, 65, 222)"  x="12" y="15" width="1" height="1" /><rect shape-rendering="crispEdges" fill="rgb(16, 24, 139)"  x="12" y="16" width="1" height="1" /><rect shape-rendering="crispEdges" fill="rgb(74, 65, 222)"  x="13" y="15" width="1" height="1" /><rect shape-rendering="crispEdges" fill="rgb(24, 41, 222)"  x="13" y="16" width="1" height="1" /><rect shape-rendering="crispEdges" fill="rgb(139, 148, 238)"  x="14" y="15" width="1" height="1" /><rect shape-rendering="crispEdges" fill="rgb(24, 41, 222)"  x="14" y="16" width="1" height="1" /><rect shape-rendering="crispEdges" fill="rgb(16, 24, 139)"  x="14" y="17" width="1" height="1" /><rect shape-rendering="crispEdges" fill="rgb(74, 65, 222)"  x="15" y="15" width="1" height="1" /><rect shape-rendering="crispEdges" fill="rgb(24, 41, 222)"  x="15" y="16" width="1" height="1" /><rect shape-rendering="crispEdges" fill="rgb(16, 24, 139)"  x="15" y="17" width="1" height="1" /><rect shape-rendering="crispEdges" fill="rgb(24, 41, 222)"  x="16" y="16" width="1" height="1" /><rect shape-rendering="crispEdges" fill="rgb(16, 24, 139)"  x="16" y="17" width="1" height="1" /><rect shape-rendering="crispEdges" fill="rgb(24, 41, 222)"  x="17" y="16" width="1" height="1" /><rect shape-rendering="crispEdges" fill="rgb(16, 24, 139)"  x="17" y="17" width="1" height="1" /><rect shape-rendering="crispEdges" fill="rgb(74, 65, 222)"  x="18" y="16" width="1" height="1" /><rect shape-rendering="crispEdges" fill="rgb(24, 41, 222)"  x="18" y="17" width="1" height="1" /><rect shape-rendering="crispEdges" fill="rgb(16, 24, 139)"  x="18" y="18" width="1" height="1" /><rect shape-rendering="crispEdges" fill="rgb(74, 65, 222)"  x="19" y="15" width="1" height="1" /><rect shape-rendering="crispEdges" fill="rgb(139, 148, 238)"  x="19" y="16" width="1" height="1" /><rect shape-rendering="crispEdges" fill="rgb(139, 148, 238)"  x="19" y="17" width="1" height="1" /><rect shape-rendering="crispEdges" fill="rgb(74, 65, 222)"  x="19" y="18" width="1" height="1" /><rect shape-rendering="crispEdges" fill="rgb(16, 24, 139)"  x="19" y="19" width="1" height="1" /><rect shape-rendering="crispEdges" fill="rgb(24, 41, 222)"  x="20" y="14" width="1" height="1" /><rect shape-rendering="crispEdges" fill="rgb(139, 148, 238)"  x="20" y="15" width="1" height="1" /><rect shape-rendering="crispEdges" fill="rgb(16, 24, 139)"  x="20" y="16" width="1" height="1" /><rect shape-rendering="crispEdges" fill="rgb(8, 8, 57)"  x="20" y="17" width="1" height="1" /><rect shape-rendering="crispEdges" fill="rgb(8, 8, 57)"  x="20" y="18" width="1" height="1" /><rect shape-rendering="crispEdges" fill="rgb(24, 41, 222)"  x="20" y="19" width="1" height="1" /><rect shape-rendering="crispEdges" fill="rgb(16, 24, 139)"  x="20" y="20" width="1" height="1" /><rect shape-rendering="crispEdges" fill="rgb(74, 65, 222)"  x="21" y="14" width="1" height="1" /><rect shape-rendering="crispEdges" fill="rgb(74, 65, 222)"  x="21" y="15" width="1" height="1" /><rect shape-rendering="crispEdges" fill="rgb(8, 8, 57)"  x="21" y="16" width="1" height="1" /><rect shape-rendering="crispEdges" fill="rgb(8, 8, 57)"  x="21" y="17" width="1" height="1" /><rect shape-rendering="crispEdges" fill="rgb(8, 8, 57)"  x="21" y="18" width="1" height="1" /><rect shape-rendering="crispEdges" fill="rgb(8, 8, 57)"  x="21" y="19" width="1" height="1" /><rect shape-rendering="crispEdges" fill="rgb(24, 41, 222)"  x="21" y="20" width="1" height="1" /><rect shape-rendering="crispEdges" fill="rgb(16, 24, 139)"  x="21" y="21" width="1" height="1" /><rect shape-rendering="crispEdges" fill="rgb(139, 148, 238)"  x="22" y="14" width="1" height="1" /><rect shape-rendering="crispEdges" fill="rgb(24, 41, 222)"  x="22" y="15" width="1" height="1" /><rect shape-rendering="crispEdges" fill="rgb(8, 8, 57)"  x="22" y="16" width="1" height="1" /><rect shape-rendering="crispEdges" fill="rgb(8, 8, 57)"  x="22" y="17" width="1" height="1" /><rect shape-rendering="crispEdges" fill="rgb(8, 8, 57)"  x="22" y="18" width="1" height="1" /><rect shape-rendering="crispEdges" fill="rgb(8, 8, 57)"  x="22" y="19" width="1" height="1" /><rect shape-rendering="crispEdges" fill="rgb(24, 41, 222)"  x="22" y="20" width="1" height="1" /><rect shape-rendering="crispEdges" fill="rgb(16, 24, 139)"  x="22" y="21" width="1" height="1" /><rect shape-rendering="crispEdges" fill="rgb(139, 148, 238)"  x="23" y="14" width="1" height="1" /><rect shape-rendering="crispEdges" fill="rgb(24, 41, 222)"  x="23" y="15" width="1" height="1" /><rect shape-rendering="crispEdges" fill="rgb(8, 8, 57)"  x="23" y="16" width="1" height="1" /><rect shape-rendering="crispEdges" fill="rgb(8, 8, 57)"  x="23" y="17" width="1" height="1" /><rect shape-rendering="crispEdges" fill="rgb(8, 8, 57)"  x="23" y="18" width="1" height="1" /><rect shape-rendering="crispEdges" fill="rgb(8, 8, 57)"  x="23" y="19" width="1" height="1" /><rect shape-rendering="crispEdges" fill="rgb(8, 8, 57)"  x="23" y="20" width="1" height="1" /><rect shape-rendering="crispEdges" fill="rgb(24, 41, 222)"  x="23" y="21" width="1" height="1" /><rect shape-rendering="crispEdges" fill="rgb(16, 24, 139)"  x="23" y="22" width="1" height="1" /><rect shape-rendering="crispEdges" fill="rgb(139, 148, 238)"  x="24" y="14" width="1" height="1" /><rect shape-rendering="crispEdges" fill="rgb(24, 41, 222)"  x="24" y="15" width="1" height="1" /><rect shape-rendering="crispEdges" fill="rgb(24, 41, 222)"  x="24" y="16" width="1" height="1" /><rect shape-rendering="crispEdges" fill="rgb(8, 8, 57)"  x="24" y="17" width="1" height="1" /><rect shape-rendering="crispEdges" fill="rgb(8, 8, 57)"  x="24" y="18" width="1" height="1" /><rect shape-rendering="crispEdges" fill="rgb(8, 8, 57)"  x="24" y="19" width="1" height="1" /><rect shape-rendering="crispEdges" fill="rgb(8, 8, 57)"  x="24" y="20" width="1" height="1" /><rect shape-rendering="crispEdges" fill="rgb(24, 41, 222)"  x="24" y="21" width="1" height="1" /><rect shape-rendering="crispEdges" fill="rgb(16, 24, 139)"  x="24" y="22" width="1" height="1" /><rect shape-rendering="crispEdges" fill="rgb(139, 148, 238)"  x="25" y="14" width="1" height="1" /><rect shape-rendering="crispEdges" fill="rgb(74, 65, 222)"  x="25" y="15" width="1" height="1" /><rect shape-rendering="crispEdges" fill="rgb(74, 65, 222)"  x="25" y="16" width="1" height="1" /><rect shape-rendering="crispEdges" fill="rgb(24, 41, 222)"  x="25" y="17" width="1" height="1" /><rect shape-rendering="crispEdges" fill="rgb(8, 8, 57)"  x="25" y="18" width="1" height="1" /><rect shape-rendering="crispEdges" fill="rgb(8, 8, 57)"  x="25" y="19" width="1" height="1" /><rect shape-rendering="crispEdges" fill="rgb(8, 8, 57)"  x="25" y="20" width="1" height="1" /><rect shape-rendering="crispEdges" fill="rgb(24, 41, 222)"  x="25" y="21" width="1" height="1" /><rect shape-rendering="crispEdges" fill="rgb(16, 24, 139)"  x="25" y="22" width="1" height="1" /><rect shape-rendering="crispEdges" fill="rgb(74, 65, 222)"  x="26" y="14" width="1" height="1" /><rect shape-rendering="crispEdges" fill="rgb(139, 148, 238)"  x="26" y="15" width="1" height="1" /><rect shape-rendering="crispEdges" fill="rgb(74, 65, 222)"  x="26" y="16" width="1" height="1" /><rect shape-rendering="crispEdges" fill="rgb(74, 65, 222)"  x="26" y="17" width="1" height="1" /><rect shape-rendering="crispEdges" fill="rgb(74, 65, 222)"  x="26" y="18" width="1" height="1" /><rect shape-rendering="crispEdges" fill="rgb(24, 41, 222)"  x="26" y="19" width="1" height="1" /><rect shape-rendering="crispEdges" fill="rgb(8, 8, 57)"  x="26" y="20" width="1" height="1" /><rect shape-rendering="crispEdges" fill="rgb(24, 41, 222)"  x="26" y="21" width="1" height="1" /><rect shape-rendering="crispEdges" fill="rgb(16, 24, 139)"  x="26" y="22" width="1" height="1" /><rect shape-rendering="crispEdges" fill="rgb(139, 148, 238)"  x="27" y="15" width="1" height="1" /><rect shape-rendering="crispEdges" fill="rgb(8, 8, 57)"  x="27" y="16" width="1" height="1" /><rect shape-rendering="crispEdges" fill="rgb(8, 8, 57)"  x="27" y="17" width="1" height="1" /><rect shape-rendering="crispEdges" fill="rgb(8, 8, 57)"  x="27" y="18" width="1" height="1" /><rect shape-rendering="crispEdges" fill="rgb(8, 8, 57)"  x="27" y="19" width="1" height="1" /><rect shape-rendering="crispEdges" fill="rgb(8, 8, 57)"  x="27" y="20" width="1" height="1" /><rect shape-rendering="crispEdges" fill="rgb(24, 41, 222)"  x="27" y="21" width="1" height="1" /><rect shape-rendering="crispEdges" fill="rgb(16, 24, 139)"  x="27" y="22" width="1" height="1" /><rect shape-rendering="crispEdges" fill="rgb(24, 41, 222)"  x="28" y="15" width="1" height="1" /><rect shape-rendering="crispEdges" fill="rgb(24, 41, 222)"  x="28" y="16" width="1" height="1" /><rect shape-rendering="crispEdges" fill="rgb(8, 8, 57)"  x="28" y="17" width="1" height="1" /><rect shape-rendering="crispEdges" fill="rgb(8, 8, 57)"  x="28" y="18" width="1" height="1" /><rect shape-rendering="crispEdges" fill="rgb(8, 8, 57)"  x="28" y="19" width="1" height="1" /><rect shape-rendering="crispEdges" fill="rgb(8, 8, 57)"  x="28" y="20" width="1" height="1" /><rect shape-rendering="crispEdges" fill="rgb(24, 41, 222)"  x="28" y="21" width="1" height="1" /><rect shape-rendering="crispEdges" fill="rgb(16, 24, 139)"  x="28" y="22" width="1" height="1" /><rect shape-rendering="crispEdges" fill="rgb(74, 65, 222)"  x="29" y="16" width="1" height="1" /><rect shape-rendering="crispEdges" fill="rgb(16, 24, 139)"  x="29" y="17" width="1" height="1" /><rect shape-rendering="crispEdges" fill="rgb(8, 8, 57)"  x="29" y="18" width="1" height="1" /><rect shape-rendering="crispEdges" fill="rgb(8, 8, 57)"  x="29" y="19" width="1" height="1" /><rect shape-rendering="crispEdges" fill="rgb(24, 41, 222)"  x="29" y="20" width="1" height="1" /><rect shape-rendering="crispEdges" fill="rgb(16, 24, 139)"  x="29" y="21" width="1" height="1" /><rect shape-rendering="crispEdges" fill="rgb(74, 65, 222)"  x="30" y="17" width="1" height="1" /><rect shape-rendering="crispEdges" fill="rgb(139, 148, 238)"  x="30" y="18" width="1" height="1" /><rect shape-rendering="crispEdges" fill="rgb(74, 65, 222)"  x="30" y="19" width="1" height="1" /><rect shape-rendering="crispEdges" fill="rgb(24, 41, 222)"  x="30" y="20" width="1" height="1" /><rect shape-rendering="crispEdges" fill="rgb(16, 24, 139)"  x="30" y="21" width="1" height="1" /><rect shape-rendering="crispEdges" fill="rgb(16, 24, 139)"  x="31" y="18" width="1" height="1" /><rect shape-rendering="crispEdges" fill="rgb(16, 24, 139)"  x="31" y="19" width="1" height="1" /><rect shape-rendering="crispEdges" fill="rgb(16, 24, 139)"  x="31" y="20" width="1" height="1" /></svg>