<svg xmlns="http://www.w3.org/2000/svg" xmlns:xlink= "http://www.w3.org/1999/xlink" width="32" height="32" viewBox ="0 0 32 32"><rect shape-rendering="crispEdges" fill="rgb(32, 205, 213)"  x="6" y="21" width="1" height="1" /><rect shape-rendering="crispEdges" fill="rgb(32, 205, 213)"  x="6" y="22" width="1" height="1" /><rect shape-rendering="crispEdges" fill="rgb(32, 205, 213)"  x="6" y="23" width="1" height="1" /><rect shape-rendering="crispEdges" fill="rgb(32, 205, 213)"  x="6" y="24" width="1" height="1" /><rect shape-rendering="crispEdges" fill="rgb(32, 205, 213)"  x="6" y="25" width="1" height="1" /><rect shape-rendering="crispEdges" fill="rgb(32, 205, 213)"  x="6" y="26" width="1" height="1" /><rect shape-rendering="crispEdges" fill="rgb(32, 205, 213)"  x="6" y="27" width="1" height="1" /><rect shape-rendering="crispEdges" fill="rgb(32, 205, 213)"  x="6" y="28" width="1" height="1" /><rect shape-rendering="crispEdges" fill="rgb(32, 205, 213)"  x="7" y="16" width="1" height="1" /><rect shape-rendering="crispEdges" fill="rgb(32, 205, 213)"  x="7" y="17" width="1" height="1" /><rect shape-rendering="crispEdges" fill="rgb(32, 205, 213)"  x="7" y="18" width="1" height="1" /><rect shape-rendering="crispEdges" fill="rgb(32, 205, 213)"  x="7" y="19" width="1" height="1" /><rect shape-rendering="crispEdges" fill="rgb(32, 205, 213)"  x="7" y="20" width="1" height="1" /><rect shape-rendering="crispEdges" fill="rgb(41, 98, 123)"  x="7" y="21" width="1" height="1" /><rect shape-rendering="crispEdges" fill="rgb(41, 98, 123)"  x="7" y="22" width="1" height="1" /><rect shape-rendering="crispEdges" fill="rgb(49, 98, 123)"  x="7" y="23" width="1" height="1" /><rect shape-rendering="crispEdges" fill="rgb(49, 74, 131)"  x="7" y="24" width="1" height="1" /><rect shape-rendering="crispEdges" fill="rgb(49, 74, 131)"  x="7" y="25" width="1" height="1" /><rect shape-rendering="crispEdges" fill="rgb(49, 74, 131)"  x="7" y="26" width="1" height="1" /><rect shape-rendering="crispEdges" fill="rgb(49, 98, 139)"  x="7" y="27" width="1" height="1" /><rect shape-rendering="crispEdges" fill="rgb(32, 205, 213)"  x="7" y="28" width="1" height="1" /><rect shape-rendering="crispEdges" fill="rgb(32, 205, 213)"  x="8" y="13" width="1" height="1" /><rect shape-rendering="crispEdges" fill="rgb(32, 205, 213)"  x="8" y="14" width="1" height="1" /><rect shape-rendering="crispEdges" fill="rgb(32, 205, 213)"  x="8" y="15" width="1" height="1" /><rect shape-rendering="crispEdges" fill="rgb(32, 205, 213)"  x="8" y="16" width="1" height="1" /><rect shape-rendering="crispEdges" fill="rgb(90, 123, 139)"  x="8" y="17" width="1" height="1" /><rect shape-rendering="crispEdges" fill="rgb(90, 123, 139)"  x="8" y="18" width="1" height="1" /><rect shape-rendering="crispEdges" fill="rgb(57, 164, 164)"  x="8" y="19" width="1" height="1" /><rect shape-rendering="crispEdges" fill="rgb(82, 156, 156)"  x="8" y="20" width="1" height="1" /><rect shape-rendering="crispEdges" fill="rgb(90, 123, 139)"  x="8" y="21" width="1" height="1" /><rect shape-rendering="crispEdges" fill="rgb(90, 123, 139)"  x="8" y="22" width="1" height="1" /><rect shape-rendering="crispEdges" fill="rgb(90, 123, 139)"  x="8" y="23" width="1" height="1" /><rect shape-rendering="crispEdges" fill="rgb(32, 205, 213)"  x="8" y="24" width="1" height="1" /><rect shape-rendering="crispEdges" fill="rgb(41, 123, 164)"  x="8" y="25" width="1" height="1" /><rect shape-rendering="crispEdges" fill="rgb(41, 123, 164)"  x="8" y="26" width="1" height="1" /><rect shape-rendering="crispEdges" fill="rgb(49, 82, 131)"  x="8" y="27" width="1" height="1" /><rect shape-rendering="crispEdges" fill="rgb(32, 205, 213)"  x="8" y="28" width="1" height="1" /><rect shape-rendering="crispEdges" fill="rgb(32, 205, 213)"  x="9" y="10" width="1" height="1" /><rect shape-rendering="crispEdges" fill="rgb(32, 205, 213)"  x="9" y="11" width="1" height="1" /><rect shape-rendering="crispEdges" fill="rgb(32, 205, 213)"  x="9" y="12" width="1" height="1" /><rect shape-rendering="crispEdges" fill="rgb(16, 115, 115)"  x="9" y="13" width="1" height="1" /><rect shape-rendering="crispEdges" fill="rgb(49, 131, 131)"  x="9" y="14" width="1" height="1" /><rect shape-rendering="crispEdges" fill="rgb(24, 131, 172)"  x="9" y="15" width="1" height="1" /><rect shape-rendering="crispEdges" fill="rgb(24, 131, 172)"  x="9" y="16" width="1" height="1" /><rect shape-rendering="crispEdges" fill="rgb(32, 205, 213)"  x="9" y="17" width="1" height="1" /><rect shape-rendering="crispEdges" fill="rgb(57, 222, 205)"  x="9" y="18" width="1" height="1" /><rect shape-rendering="crispEdges" fill="rgb(57, 222, 205)"  x="9" y="19" width="1" height="1" /><rect shape-rendering="crispEdges" fill="rgb(57, 222, 205)"  x="9" y="20" width="1" height="1" /><rect shape-rendering="crispEdges" fill="rgb(57, 180, 180)"  x="9" y="21" width="1" height="1" /><rect shape-rendering="crispEdges" fill="rgb(57, 180, 180)"  x="9" y="22" width="1" height="1" /><rect shape-rendering="crispEdges" fill="rgb(49, 164, 172)"  x="9" y="23" width="1" height="1" /><rect shape-rendering="crispEdges" fill="rgb(32, 205, 213)"  x="9" y="24" width="1" height="1" /><rect shape-rendering="crispEdges" fill="rgb(32, 205, 213)"  x="9" y="25" width="1" height="1" /><rect shape-rendering="crispEdges" fill="rgb(49, 123, 139)"  x="9" y="26" width="1" height="1" /><rect shape-rendering="crispEdges" fill="rgb(49, 82, 131)"  x="9" y="27" width="1" height="1" /><rect shape-rendering="crispEdges" fill="rgb(32, 205, 213)"  x="9" y="28" width="1" height="1" /><rect shape-rendering="crispEdges" fill="rgb(32, 205, 213)"  x="9" y="29" width="1" height="1" /><rect shape-rendering="crispEdges" fill="rgb(32, 205, 213)"  x="10" y="8" width="1" height="1" /><rect shape-rendering="crispEdges" fill="rgb(32, 205, 213)"  x="10" y="9" width="1" height="1" /><rect shape-rendering="crispEdges" fill="rgb(24, 106, 106)"  x="10" y="10" width="1" height="1" /><rect shape-rendering="crispEdges" fill="rgb(41, 123, 131)"  x="10" y="11" width="1" height="1" /><rect shape-rendering="crispEdges" fill="rgb(16, 115, 106)"  x="10" y="12" width="1" height="1" /><rect shape-rendering="crispEdges" fill="rgb(8, 123, 106)"  x="10" y="13" width="1" height="1" /><rect shape-rendering="crispEdges" fill="rgb(32, 205, 213)"  x="10" y="14" width="1" height="1" /><rect shape-rendering="crispEdges" fill="rgb(32, 205, 213)"  x="10" y="15" width="1" height="1" /><rect shape-rendering="crispEdges" fill="rgb(32, 205, 213)"  x="10" y="16" width="1" height="1" /><rect shape-rendering="crispEdges" fill="rgb(32, 205, 213)"  x="10" y="17" width="1" height="1" /><rect shape-rendering="crispEdges" fill="rgb(49, 82, 172)"  x="10" y="18" width="1" height="1" /><rect shape-rendering="crispEdges" fill="rgb(49, 82, 172)"  x="10" y="19" width="1" height="1" /><rect shape-rendering="crispEdges" fill="rgb(49, 82, 172)"  x="10" y="20" width="1" height="1" /><rect shape-rendering="crispEdges" fill="rgb(49, 82, 172)"  x="10" y="21" width="1" height="1" /><rect shape-rendering="crispEdges" fill="rgb(49, 82, 172)"  x="10" y="22" width="1" height="1" /><rect shape-rendering="crispEdges" fill="rgb(24, 164, 197)"  x="10" y="23" width="1" height="1" /><rect shape-rendering="crispEdges" fill="rgb(41, 123, 172)"  x="10" y="24" width="1" height="1" /><rect shape-rendering="crispEdges" fill="rgb(32, 131, 164)"  x="10" y="25" width="1" height="1" /><rect shape-rendering="crispEdges" fill="rgb(32, 131, 164)"  x="10" y="26" width="1" height="1" /><rect shape-rendering="crispEdges" fill="rgb(32, 131, 164)"  x="10" y="27" width="1" height="1" /><rect shape-rendering="crispEdges" fill="rgb(49, 82, 131)"  x="10" y="28" width="1" height="1" /><rect shape-rendering="crispEdges" fill="rgb(32, 205, 213)"  x="10" y="29" width="1" height="1" /><rect shape-rendering="crispEdges" fill="rgb(32, 205, 213)"  x="11" y="1" width="1" height="1" /><rect shape-rendering="crispEdges" fill="rgb(32, 205, 213)"  x="11" y="6" width="1" height="1" /><rect shape-rendering="crispEdges" fill="rgb(32, 205, 213)"  x="11" y="7" width="1" height="1" /><rect shape-rendering="crispEdges" fill="rgb(24, 115, 106)"  x="11" y="8" width="1" height="1" /><rect shape-rendering="crispEdges" fill="rgb(16, 123, 98)"  x="11" y="9" width="1" height="1" /><rect shape-rendering="crispEdges" fill="rgb(16, 156, 123)"  x="11" y="10" width="1" height="1" /><rect shape-rendering="crispEdges" fill="rgb(32, 131, 156)"  x="11" y="11" width="1" height="1" /><rect shape-rendering="crispEdges" fill="rgb(49, 90, 156)"  x="11" y="12" width="1" height="1" /><rect shape-rendering="crispEdges" fill="rgb(32, 205, 213)"  x="11" y="13" width="1" height="1" /><rect shape-rendering="crispEdges" fill="rgb(65, 148, 180)"  x="11" y="14" width="1" height="1" /><rect shape-rendering="crispEdges" fill="rgb(49, 74, 148)"  x="11" y="15" width="1" height="1" /><rect shape-rendering="crispEdges" fill="rgb(197, 230, 156)"  x="11" y="16" width="1" height="1" /><rect shape-rendering="crispEdges" fill="rgb(197, 230, 156)"  x="11" y="17" width="1" height="1" /><rect shape-rendering="crispEdges" fill="rgb(41, 148, 180)"  x="11" y="18" width="1" height="1" /><rect shape-rendering="crispEdges" fill="rgb(74, 180, 180)"  x="11" y="19" width="1" height="1" /><rect shape-rendering="crispEdges" fill="rgb(65, 189, 189)"  x="11" y="20" width="1" height="1" /><rect shape-rendering="crispEdges" fill="rgb(41, 106, 180)"  x="11" y="21" width="1" height="1" /><rect shape-rendering="crispEdges" fill="rgb(41, 106, 180)"  x="11" y="22" width="1" height="1" /><rect shape-rendering="crispEdges" fill="rgb(49, 82, 172)"  x="11" y="23" width="1" height="1" /><rect shape-rendering="crispEdges" fill="rgb(49, 57, 131)"  x="11" y="24" width="1" height="1" /><rect shape-rendering="crispEdges" fill="rgb(49, 57, 131)"  x="11" y="25" width="1" height="1" /><rect shape-rendering="crispEdges" fill="rgb(32, 123, 172)"  x="11" y="26" width="1" height="1" /><rect shape-rendering="crispEdges" fill="rgb(16, 123, 148)"  x="11" y="27" width="1" height="1" /><rect shape-rendering="crispEdges" fill="rgb(65, 123, 139)"  x="11" y="28" width="1" height="1" /><rect shape-rendering="crispEdges" fill="rgb(32, 205, 213)"  x="11" y="29" width="1" height="1" /><rect shape-rendering="crispEdges" fill="rgb(24, 115, 106)"  x="12" y="1" width="1" height="1" /><rect shape-rendering="crispEdges" fill="rgb(32, 205, 213)"  x="12" y="2" width="1" height="1" /><rect shape-rendering="crispEdges" fill="rgb(32, 205, 213)"  x="12" y="4" width="1" height="1" /><rect shape-rendering="crispEdges" fill="rgb(32, 205, 213)"  x="12" y="5" width="1" height="1" /><rect shape-rendering="crispEdges" fill="rgb(24, 115, 106)"  x="12" y="6" width="1" height="1" /><rect shape-rendering="crispEdges" fill="rgb(16, 131, 115)"  x="12" y="7" width="1" height="1" /><rect shape-rendering="crispEdges" fill="rgb(32, 205, 213)"  x="12" y="8" width="1" height="1" /><rect shape-rendering="crispEdges" fill="rgb(32, 123, 172)"  x="12" y="9" width="1" height="1" /><rect shape-rendering="crispEdges" fill="rgb(32, 205, 213)"  x="12" y="10" width="1" height="1" /><rect shape-rendering="crispEdges" fill="rgb(32, 205, 213)"  x="12" y="11" width="1" height="1" /><rect shape-rendering="crispEdges" fill="rgb(49, 90, 156)"  x="12" y="12" width="1" height="1" /><rect shape-rendering="crispEdges" fill="rgb(65, 115, 172)"  x="12" y="13" width="1" height="1" /><rect shape-rendering="crispEdges" fill="rgb(49, 74, 148)"  x="12" y="14" width="1" height="1" /><rect shape-rendering="crispEdges" fill="rgb(32, 115, 172)"  x="12" y="15" width="1" height="1" /><rect shape-rendering="crispEdges" fill="rgb(32, 197, 213)"  x="12" y="16" width="1" height="1" /><rect shape-rendering="crispEdges" fill="rgb(255, 255, 131)"  x="12" y="17" width="1" height="1" /><rect shape-rendering="crispEdges" fill="rgb(131, 205, 180)"  x="12" y="18" width="1" height="1" /><rect shape-rendering="crispEdges" fill="rgb(90, 180, 189)"  x="12" y="19" width="1" height="1" /><rect shape-rendering="crispEdges" fill="rgb(74, 189, 189)"  x="12" y="20" width="1" height="1" /><rect shape-rendering="crispEdges" fill="rgb(24, 180, 205)"  x="12" y="21" width="1" height="1" /><rect shape-rendering="crispEdges" fill="rgb(41, 106, 180)"  x="12" y="22" width="1" height="1" /><rect shape-rendering="crispEdges" fill="rgb(246, 246, 238)"  x="12" y="23" width="1" height="1" /><rect shape-rendering="crispEdges" fill="rgb(32, 156, 180)"  x="12" y="24" width="1" height="1" /><rect shape-rendering="crispEdges" fill="rgb(32, 156, 180)"  x="12" y="25" width="1" height="1" /><rect shape-rendering="crispEdges" fill="rgb(24, 115, 148)"  x="12" y="26" width="1" height="1" /><rect shape-rendering="crispEdges" fill="rgb(82, 131, 139)"  x="12" y="27" width="1" height="1" /><rect shape-rendering="crispEdges" fill="rgb(230, 238, 156)"  x="12" y="28" width="1" height="1" /><rect shape-rendering="crispEdges" fill="rgb(32, 205, 213)"  x="12" y="29" width="1" height="1" /><rect shape-rendering="crispEdges" fill="rgb(74, 164, 180)"  x="13" y="1" width="1" height="1" /><rect shape-rendering="crispEdges" fill="rgb(24, 115, 106)"  x="13" y="2" width="1" height="1" /><rect shape-rendering="crispEdges" fill="rgb(32, 205, 213)"  x="13" y="3" width="1" height="1" /><rect shape-rendering="crispEdges" fill="rgb(24, 98, 115)"  x="13" y="4" width="1" height="1" /><rect shape-rendering="crispEdges" fill="rgb(24, 115, 106)"  x="13" y="5" width="1" height="1" /><rect shape-rendering="crispEdges" fill="rgb(24, 148, 98)"  x="13" y="6" width="1" height="1" /><rect shape-rendering="crispEdges" fill="rgb(16, 164, 123)"  x="13" y="7" width="1" height="1" /><rect shape-rendering="crispEdges" fill="rgb(16, 172, 139)"  x="13" y="8" width="1" height="1" /><rect shape-rendering="crispEdges" fill="rgb(32, 205, 213)"  x="13" y="9" width="1" height="1" /><rect shape-rendering="crispEdges" fill="rgb(41, 123, 172)"  x="13" y="10" width="1" height="1" /><rect shape-rendering="crispEdges" fill="rgb(24, 148, 180)"  x="13" y="11" width="1" height="1" /><rect shape-rendering="crispEdges" fill="rgb(41, 90, 148)"  x="13" y="12" width="1" height="1" /><rect shape-rendering="crispEdges" fill="rgb(41, 90, 148)"  x="13" y="13" width="1" height="1" /><rect shape-rendering="crispEdges" fill="rgb(41, 90, 148)"  x="13" y="14" width="1" height="1" /><rect shape-rendering="crispEdges" fill="rgb(32, 197, 213)"  x="13" y="15" width="1" height="1" /><rect shape-rendering="crispEdges" fill="rgb(65, 180, 189)"  x="13" y="16" width="1" height="1" /><rect shape-rendering="crispEdges" fill="rgb(106, 189, 180)"  x="13" y="17" width="1" height="1" /><rect shape-rendering="crispEdges" fill="rgb(255, 255, 131)"  x="13" y="18" width="1" height="1" /><rect shape-rendering="crispEdges" fill="rgb(98, 180, 189)"  x="13" y="19" width="1" height="1" /><rect shape-rendering="crispEdges" fill="rgb(82, 189, 197)"  x="13" y="20" width="1" height="1" /><rect shape-rendering="crispEdges" fill="rgb(246, 246, 238)"  x="13" y="21" width="1" height="1" /><rect shape-rendering="crispEdges" fill="rgb(246, 246, 238)"  x="13" y="22" width="1" height="1" /><rect shape-rendering="crispEdges" fill="rgb(246, 230, 82)"  x="13" y="23" width="1" height="1" /><rect shape-rendering="crispEdges" fill="rgb(246, 246, 238)"  x="13" y="24" width="1" height="1" /><rect shape-rendering="crispEdges" fill="rgb(41, 123, 139)"  x="13" y="25" width="1" height="1" /><rect shape-rendering="crispEdges" fill="rgb(82, 148, 131)"  x="13" y="26" width="1" height="1" /><rect shape-rendering="crispEdges" fill="rgb(255, 255, 131)"  x="13" y="27" width="1" height="1" /><rect shape-rendering="crispEdges" fill="rgb(197, 230, 156)"  x="13" y="28" width="1" height="1" /><rect shape-rendering="crispEdges" fill="rgb(197, 230, 156)"  x="13" y="29" width="1" height="1" /><rect shape-rendering="crispEdges" fill="rgb(32, 205, 213)"  x="13" y="30" width="1" height="1" /><rect shape-rendering="crispEdges" fill="rgb(74, 164, 180)"  x="14" y="1" width="1" height="1" /><rect shape-rendering="crispEdges" fill="rgb(24, 74, 123)"  x="14" y="2" width="1" height="1" /><rect shape-rendering="crispEdges" fill="rgb(16, 115, 131)"  x="14" y="3" width="1" height="1" /><rect shape-rendering="crispEdges" fill="rgb(16, 131, 148)"  x="14" y="4" width="1" height="1" /><rect shape-rendering="crispEdges" fill="rgb(32, 57, 131)"  x="14" y="5" width="1" height="1" /><rect shape-rendering="crispEdges" fill="rgb(32, 205, 213)"  x="14" y="6" width="1" height="1" /><rect shape-rendering="crispEdges" fill="rgb(32, 205, 213)"  x="14" y="7" width="1" height="1" /><rect shape-rendering="crispEdges" fill="rgb(49, 74, 189)"  x="14" y="8" width="1" height="1" /><rect shape-rendering="crispEdges" fill="rgb(49, 90, 205)"  x="14" y="9" width="1" height="1" /><rect shape-rendering="crispEdges" fill="rgb(57, 164, 205)"  x="14" y="10" width="1" height="1" /><rect shape-rendering="crispEdges" fill="rgb(123, 205, 197)"  x="14" y="11" width="1" height="1" /><rect shape-rendering="crispEdges" fill="rgb(98, 164, 156)"  x="14" y="12" width="1" height="1" /><rect shape-rendering="crispEdges" fill="rgb(41, 213, 180)"  x="14" y="13" width="1" height="1" /><rect shape-rendering="crispEdges" fill="rgb(49, 189, 180)"  x="14" y="14" width="1" height="1" /><rect shape-rendering="crispEdges" fill="rgb(74, 180, 180)"  x="14" y="15" width="1" height="1" /><rect shape-rendering="crispEdges" fill="rgb(82, 172, 180)"  x="14" y="16" width="1" height="1" /><rect shape-rendering="crispEdges" fill="rgb(106, 189, 189)"  x="14" y="17" width="1" height="1" /><rect shape-rendering="crispEdges" fill="rgb(172, 213, 213)"  x="14" y="18" width="1" height="1" /><rect shape-rendering="crispEdges" fill="rgb(246, 246, 238)"  x="14" y="19" width="1" height="1" /><rect shape-rendering="crispEdges" fill="rgb(246, 246, 238)"  x="14" y="20" width="1" height="1" /><rect shape-rendering="crispEdges" fill="rgb(246, 230, 82)"  x="14" y="21" width="1" height="1" /><rect shape-rendering="crispEdges" fill="rgb(246, 230, 82)"  x="14" y="22" width="1" height="1" /><rect shape-rendering="crispEdges" fill="rgb(246, 246, 238)"  x="14" y="23" width="1" height="1" /><rect shape-rendering="crispEdges" fill="rgb(172, 213, 213)"  x="14" y="24" width="1" height="1" /><rect shape-rendering="crispEdges" fill="rgb(180, 213, 172)"  x="14" y="25" width="1" height="1" /><rect shape-rendering="crispEdges" fill="rgb(222, 238, 213)"  x="14" y="26" width="1" height="1" /><rect shape-rendering="crispEdges" fill="rgb(172, 213, 213)"  x="14" y="27" width="1" height="1" /><rect shape-rendering="crispEdges" fill="rgb(74, 164, 164)"  x="14" y="28" width="1" height="1" /><rect shape-rendering="crispEdges" fill="rgb(65, 106, 131)"  x="14" y="29" width="1" height="1" /><rect shape-rendering="crispEdges" fill="rgb(32, 205, 213)"  x="14" y="30" width="1" height="1" /><rect shape-rendering="crispEdges" fill="rgb(180, 230, 230)"  x="15" y="1" width="1" height="1" /><rect shape-rendering="crispEdges" fill="rgb(24, 131, 106)"  x="15" y="2" width="1" height="1" /><rect shape-rendering="crispEdges" fill="rgb(16, 41, 106)"  x="15" y="3" width="1" height="1" /><rect shape-rendering="crispEdges" fill="rgb(32, 57, 139)"  x="15" y="4" width="1" height="1" /><rect shape-rendering="crispEdges" fill="rgb(16, 74, 123)"  x="15" y="5" width="1" height="1" /><rect shape-rendering="crispEdges" fill="rgb(24, 65, 131)"  x="15" y="6" width="1" height="1" /><rect shape-rendering="crispEdges" fill="rgb(49, 106, 156)"  x="15" y="7" width="1" height="1" /><rect shape-rendering="crispEdges" fill="rgb(49, 106, 156)"  x="15" y="8" width="1" height="1" /><rect shape-rendering="crispEdges" fill="rgb(115, 172, 189)"  x="15" y="9" width="1" height="1" /><rect shape-rendering="crispEdges" fill="rgb(197, 230, 156)"  x="15" y="10" width="1" height="1" /><rect shape-rendering="crispEdges" fill="rgb(32, 205, 213)"  x="15" y="11" width="1" height="1" /><rect shape-rendering="crispEdges" fill="rgb(123, 205, 197)"  x="15" y="12" width="1" height="1" /><rect shape-rendering="crispEdges" fill="rgb(98, 164, 156)"  x="15" y="13" width="1" height="1" /><rect shape-rendering="crispEdges" fill="rgb(41, 213, 180)"  x="15" y="14" width="1" height="1" /><rect shape-rendering="crispEdges" fill="rgb(49, 189, 180)"  x="15" y="15" width="1" height="1" /><rect shape-rendering="crispEdges" fill="rgb(131, 197, 189)"  x="15" y="16" width="1" height="1" /><rect shape-rendering="crispEdges" fill="rgb(172, 213, 213)"  x="15" y="17" width="1" height="1" /><rect shape-rendering="crispEdges" fill="rgb(246, 246, 238)"  x="15" y="18" width="1" height="1" /><rect shape-rendering="crispEdges" fill="rgb(246, 230, 82)"  x="15" y="19" width="1" height="1" /><rect shape-rendering="crispEdges" fill="rgb(246, 230, 82)"  x="15" y="20" width="1" height="1" /><rect shape-rendering="crispEdges" fill="rgb(255, 246, 106)"  x="15" y="21" width="1" height="1" /><rect shape-rendering="crispEdges" fill="rgb(246, 230, 82)"  x="15" y="22" width="1" height="1" /><rect shape-rendering="crispEdges" fill="rgb(246, 246, 238)"  x="15" y="23" width="1" height="1" /><rect shape-rendering="crispEdges" fill="rgb(246, 246, 238)"  x="15" y="24" width="1" height="1" /><rect shape-rendering="crispEdges" fill="rgb(246, 246, 238)"  x="15" y="25" width="1" height="1" /><rect shape-rendering="crispEdges" fill="rgb(172, 213, 213)"  x="15" y="26" width="1" height="1" /><rect shape-rendering="crispEdges" fill="rgb(74, 164, 164)"  x="15" y="27" width="1" height="1" /><rect shape-rendering="crispEdges" fill="rgb(74, 164, 164)"  x="15" y="28" width="1" height="1" /><rect shape-rendering="crispEdges" fill="rgb(74, 123, 148)"  x="15" y="29" width="1" height="1" /><rect shape-rendering="crispEdges" fill="rgb(32, 205, 213)"  x="15" y="30" width="1" height="1" /><rect shape-rendering="crispEdges" fill="rgb(180, 230, 230)"  x="16" y="1" width="1" height="1" /><rect shape-rendering="crispEdges" fill="rgb(24, 123, 90)"  x="16" y="2" width="1" height="1" /><rect shape-rendering="crispEdges" fill="rgb(16, 74, 74)"  x="16" y="3" width="1" height="1" /><rect shape-rendering="crispEdges" fill="rgb(16, 41, 106)"  x="16" y="4" width="1" height="1" /><rect shape-rendering="crispEdges" fill="rgb(16, 82, 123)"  x="16" y="5" width="1" height="1" /><rect shape-rendering="crispEdges" fill="rgb(24, 98, 139)"  x="16" y="6" width="1" height="1" /><rect shape-rendering="crispEdges" fill="rgb(57, 156, 164)"  x="16" y="7" width="1" height="1" /><rect shape-rendering="crispEdges" fill="rgb(106, 205, 189)"  x="16" y="8" width="1" height="1" /><rect shape-rendering="crispEdges" fill="rgb(197, 230, 156)"  x="16" y="9" width="1" height="1" /><rect shape-rendering="crispEdges" fill="rgb(255, 246, 106)"  x="16" y="10" width="1" height="1" /><rect shape-rendering="crispEdges" fill="rgb(246, 230, 82)"  x="16" y="11" width="1" height="1" /><rect shape-rendering="crispEdges" fill="rgb(32, 205, 213)"  x="16" y="12" width="1" height="1" /><rect shape-rendering="crispEdges" fill="rgb(74, 197, 172)"  x="16" y="13" width="1" height="1" /><rect shape-rendering="crispEdges" fill="rgb(98, 164, 156)"  x="16" y="14" width="1" height="1" /><rect shape-rendering="crispEdges" fill="rgb(41, 213, 180)"  x="16" y="15" width="1" height="1" /><rect shape-rendering="crispEdges" fill="rgb(246, 246, 238)"  x="16" y="16" width="1" height="1" /><rect shape-rendering="crispEdges" fill="rgb(246, 246, 238)"  x="16" y="17" width="1" height="1" /><rect shape-rendering="crispEdges" fill="rgb(246, 230, 82)"  x="16" y="18" width="1" height="1" /><rect shape-rendering="crispEdges" fill="rgb(255, 246, 106)"  x="16" y="19" width="1" height="1" /><rect shape-rendering="crispEdges" fill="rgb(255, 246, 106)"  x="16" y="20" width="1" height="1" /><rect shape-rendering="crispEdges" fill="rgb(255, 246, 106)"  x="16" y="21" width="1" height="1" /><rect shape-rendering="crispEdges" fill="rgb(255, 246, 106)"  x="16" y="22" width="1" height="1" /><rect shape-rendering="crispEdges" fill="rgb(246, 230, 82)"  x="16" y="23" width="1" height="1" /><rect shape-rendering="crispEdges" fill="rgb(246, 230, 82)"  x="16" y="24" width="1" height="1" /><rect shape-rendering="crispEdges" fill="rgb(246, 246, 238)"  x="16" y="25" width="1" height="1" /><rect shape-rendering="crispEdges" fill="rgb(172, 213, 213)"  x="16" y="26" width="1" height="1" /><rect shape-rendering="crispEdges" fill="rgb(74, 164, 164)"  x="16" y="27" width="1" height="1" /><rect shape-rendering="crispEdges" fill="rgb(82, 164, 172)"  x="16" y="28" width="1" height="1" /><rect shape-rendering="crispEdges" fill="rgb(74, 123, 148)"  x="16" y="29" width="1" height="1" /><rect shape-rendering="crispEdges" fill="rgb(32, 205, 213)"  x="16" y="30" width="1" height="1" /><rect shape-rendering="crispEdges" fill="rgb(180, 230, 230)"  x="17" y="1" width="1" height="1" /><rect shape-rendering="crispEdges" fill="rgb(24, 74, 98)"  x="17" y="2" width="1" height="1" /><rect shape-rendering="crispEdges" fill="rgb(16, 41, 106)"  x="17" y="3" width="1" height="1" /><rect shape-rendering="crispEdges" fill="rgb(32, 57, 139)"  x="17" y="4" width="1" height="1" /><rect shape-rendering="crispEdges" fill="rgb(32, 57, 139)"  x="17" y="5" width="1" height="1" /><rect shape-rendering="crispEdges" fill="rgb(32, 57, 139)"  x="17" y="6" width="1" height="1" /><rect shape-rendering="crispEdges" fill="rgb(49, 74, 189)"  x="17" y="7" width="1" height="1" /><rect shape-rendering="crispEdges" fill="rgb(49, 74, 189)"  x="17" y="8" width="1" height="1" /><rect shape-rendering="crispEdges" fill="rgb(115, 172, 189)"  x="17" y="9" width="1" height="1" /><rect shape-rendering="crispEdges" fill="rgb(246, 230, 82)"  x="17" y="10" width="1" height="1" /><rect shape-rendering="crispEdges" fill="rgb(32, 205, 213)"  x="17" y="11" width="1" height="1" /><rect shape-rendering="crispEdges" fill="rgb(106, 197, 189)"  x="17" y="12" width="1" height="1" /><rect shape-rendering="crispEdges" fill="rgb(98, 164, 156)"  x="17" y="13" width="1" height="1" /><rect shape-rendering="crispEdges" fill="rgb(41, 213, 180)"  x="17" y="14" width="1" height="1" /><rect shape-rendering="crispEdges" fill="rgb(49, 189, 180)"  x="17" y="15" width="1" height="1" /><rect shape-rendering="crispEdges" fill="rgb(115, 189, 180)"  x="17" y="16" width="1" height="1" /><rect shape-rendering="crispEdges" fill="rgb(172, 213, 213)"  x="17" y="17" width="1" height="1" /><rect shape-rendering="crispEdges" fill="rgb(246, 246, 238)"  x="17" y="18" width="1" height="1" /><rect shape-rendering="crispEdges" fill="rgb(246, 246, 238)"  x="17" y="19" width="1" height="1" /><rect shape-rendering="crispEdges" fill="rgb(246, 246, 238)"  x="17" y="20" width="1" height="1" /><rect shape-rendering="crispEdges" fill="rgb(255, 246, 106)"  x="17" y="21" width="1" height="1" /><rect shape-rendering="crispEdges" fill="rgb(255, 246, 106)"  x="17" y="22" width="1" height="1" /><rect shape-rendering="crispEdges" fill="rgb(246, 230, 82)"  x="17" y="23" width="1" height="1" /><rect shape-rendering="crispEdges" fill="rgb(246, 246, 238)"  x="17" y="24" width="1" height="1" /><rect shape-rendering="crispEdges" fill="rgb(115, 180, 164)"  x="17" y="25" width="1" height="1" /><rect shape-rendering="crispEdges" fill="rgb(57, 148, 156)"  x="17" y="26" width="1" height="1" /><rect shape-rendering="crispEdges" fill="rgb(74, 164, 172)"  x="17" y="27" width="1" height="1" /><rect shape-rendering="crispEdges" fill="rgb(90, 164, 180)"  x="17" y="28" width="1" height="1" /><rect shape-rendering="crispEdges" fill="rgb(65, 98, 131)"  x="17" y="29" width="1" height="1" /><rect shape-rendering="crispEdges" fill="rgb(32, 205, 213)"  x="17" y="30" width="1" height="1" /><rect shape-rendering="crispEdges" fill="rgb(74, 164, 180)"  x="18" y="1" width="1" height="1" /><rect shape-rendering="crispEdges" fill="rgb(24, 90, 131)"  x="18" y="2" width="1" height="1" /><rect shape-rendering="crispEdges" fill="rgb(16, 115, 131)"  x="18" y="3" width="1" height="1" /><rect shape-rendering="crispEdges" fill="rgb(16, 131, 148)"  x="18" y="4" width="1" height="1" /><rect shape-rendering="crispEdges" fill="rgb(24, 90, 148)"  x="18" y="5" width="1" height="1" /><rect shape-rendering="crispEdges" fill="rgb(32, 205, 213)"  x="18" y="6" width="1" height="1" /><rect shape-rendering="crispEdges" fill="rgb(32, 205, 213)"  x="18" y="7" width="1" height="1" /><rect shape-rendering="crispEdges" fill="rgb(32, 131, 189)"  x="18" y="8" width="1" height="1" /><rect shape-rendering="crispEdges" fill="rgb(74, 131, 197)"  x="18" y="9" width="1" height="1" /><rect shape-rendering="crispEdges" fill="rgb(57, 148, 213)"  x="18" y="10" width="1" height="1" /><rect shape-rendering="crispEdges" fill="rgb(106, 197, 189)"  x="18" y="11" width="1" height="1" /><rect shape-rendering="crispEdges" fill="rgb(98, 164, 156)"  x="18" y="12" width="1" height="1" /><rect shape-rendering="crispEdges" fill="rgb(41, 213, 180)"  x="18" y="13" width="1" height="1" /><rect shape-rendering="crispEdges" fill="rgb(49, 189, 180)"  x="18" y="14" width="1" height="1" /><rect shape-rendering="crispEdges" fill="rgb(74, 197, 189)"  x="18" y="15" width="1" height="1" /><rect shape-rendering="crispEdges" fill="rgb(106, 180, 189)"  x="18" y="16" width="1" height="1" /><rect shape-rendering="crispEdges" fill="rgb(123, 197, 197)"  x="18" y="17" width="1" height="1" /><rect shape-rendering="crispEdges" fill="rgb(123, 197, 205)"  x="18" y="18" width="1" height="1" /><rect shape-rendering="crispEdges" fill="rgb(246, 246, 238)"  x="18" y="19" width="1" height="1" /><rect shape-rendering="crispEdges" fill="rgb(238, 246, 148)"  x="18" y="20" width="1" height="1" /><rect shape-rendering="crispEdges" fill="rgb(246, 230, 82)"  x="18" y="21" width="1" height="1" /><rect shape-rendering="crispEdges" fill="rgb(246, 230, 82)"  x="18" y="22" width="1" height="1" /><rect shape-rendering="crispEdges" fill="rgb(246, 246, 238)"  x="18" y="23" width="1" height="1" /><rect shape-rendering="crispEdges" fill="rgb(172, 213, 213)"  x="18" y="24" width="1" height="1" /><rect shape-rendering="crispEdges" fill="rgb(115, 180, 156)"  x="18" y="25" width="1" height="1" /><rect shape-rendering="crispEdges" fill="rgb(57, 148, 156)"  x="18" y="26" width="1" height="1" /><rect shape-rendering="crispEdges" fill="rgb(57, 148, 156)"  x="18" y="27" width="1" height="1" /><rect shape-rendering="crispEdges" fill="rgb(82, 148, 172)"  x="18" y="28" width="1" height="1" /><rect shape-rendering="crispEdges" fill="rgb(65, 98, 131)"  x="18" y="29" width="1" height="1" /><rect shape-rendering="crispEdges" fill="rgb(32, 205, 213)"  x="18" y="30" width="1" height="1" /><rect shape-rendering="crispEdges" fill="rgb(74, 164, 180)"  x="19" y="1" width="1" height="1" /><rect shape-rendering="crispEdges" fill="rgb(24, 74, 98)"  x="19" y="2" width="1" height="1" /><rect shape-rendering="crispEdges" fill="rgb(32, 205, 213)"  x="19" y="3" width="1" height="1" /><rect shape-rendering="crispEdges" fill="rgb(24, 98, 115)"  x="19" y="4" width="1" height="1" /><rect shape-rendering="crispEdges" fill="rgb(24, 131, 123)"  x="19" y="5" width="1" height="1" /><rect shape-rendering="crispEdges" fill="rgb(24, 139, 98)"  x="19" y="6" width="1" height="1" /><rect shape-rendering="crispEdges" fill="rgb(24, 164, 123)"  x="19" y="7" width="1" height="1" /><rect shape-rendering="crispEdges" fill="rgb(16, 172, 139)"  x="19" y="8" width="1" height="1" /><rect shape-rendering="crispEdges" fill="rgb(32, 205, 213)"  x="19" y="9" width="1" height="1" /><rect shape-rendering="crispEdges" fill="rgb(49, 115, 189)"  x="19" y="10" width="1" height="1" /><rect shape-rendering="crispEdges" fill="rgb(32, 139, 172)"  x="19" y="11" width="1" height="1" /><rect shape-rendering="crispEdges" fill="rgb(49, 164, 172)"  x="19" y="12" width="1" height="1" /><rect shape-rendering="crispEdges" fill="rgb(49, 164, 172)"  x="19" y="13" width="1" height="1" /><rect shape-rendering="crispEdges" fill="rgb(41, 148, 180)"  x="19" y="14" width="1" height="1" /><rect shape-rendering="crispEdges" fill="rgb(32, 197, 213)"  x="19" y="15" width="1" height="1" /><rect shape-rendering="crispEdges" fill="rgb(82, 197, 197)"  x="19" y="16" width="1" height="1" /><rect shape-rendering="crispEdges" fill="rgb(98, 189, 197)"  x="19" y="17" width="1" height="1" /><rect shape-rendering="crispEdges" fill="rgb(255, 255, 131)"  x="19" y="18" width="1" height="1" /><rect shape-rendering="crispEdges" fill="rgb(246, 246, 238)"  x="19" y="19" width="1" height="1" /><rect shape-rendering="crispEdges" fill="rgb(246, 230, 82)"  x="19" y="20" width="1" height="1" /><rect shape-rendering="crispEdges" fill="rgb(246, 246, 238)"  x="19" y="21" width="1" height="1" /><rect shape-rendering="crispEdges" fill="rgb(246, 246, 238)"  x="19" y="22" width="1" height="1" /><rect shape-rendering="crispEdges" fill="rgb(172, 213, 213)"  x="19" y="23" width="1" height="1" /><rect shape-rendering="crispEdges" fill="rgb(65, 148, 164)"  x="19" y="24" width="1" height="1" /><rect shape-rendering="crispEdges" fill="rgb(82, 148, 148)"  x="19" y="25" width="1" height="1" /><rect shape-rendering="crispEdges" fill="rgb(255, 255, 131)"  x="19" y="26" width="1" height="1" /><rect shape-rendering="crispEdges" fill="rgb(57, 148, 156)"  x="19" y="27" width="1" height="1" /><rect shape-rendering="crispEdges" fill="rgb(65, 123, 148)"  x="19" y="28" width="1" height="1" /><rect shape-rendering="crispEdges" fill="rgb(65, 98, 131)"  x="19" y="29" width="1" height="1" /><rect shape-rendering="crispEdges" fill="rgb(32, 205, 213)"  x="19" y="30" width="1" height="1" /><rect shape-rendering="crispEdges" fill="rgb(24, 74, 98)"  x="20" y="1" width="1" height="1" /><rect shape-rendering="crispEdges" fill="rgb(32, 205, 213)"  x="20" y="2" width="1" height="1" /><rect shape-rendering="crispEdges" fill="rgb(32, 205, 213)"  x="20" y="4" width="1" height="1" /><rect shape-rendering="crispEdges" fill="rgb(32, 205, 213)"  x="20" y="5" width="1" height="1" /><rect shape-rendering="crispEdges" fill="rgb(24, 98, 115)"  x="20" y="6" width="1" height="1" /><rect shape-rendering="crispEdges" fill="rgb(24, 148, 106)"  x="20" y="7" width="1" height="1" /><rect shape-rendering="crispEdges" fill="rgb(32, 205, 213)"  x="20" y="8" width="1" height="1" /><rect shape-rendering="crispEdges" fill="rgb(32, 123, 172)"  x="20" y="9" width="1" height="1" /><rect shape-rendering="crispEdges" fill="rgb(32, 205, 213)"  x="20" y="10" width="1" height="1" /><rect shape-rendering="crispEdges" fill="rgb(32, 205, 213)"  x="20" y="11" width="1" height="1" /><rect shape-rendering="crispEdges" fill="rgb(41, 90, 148)"  x="20" y="12" width="1" height="1" /><rect shape-rendering="crispEdges" fill="rgb(41, 90, 148)"  x="20" y="13" width="1" height="1" /><rect shape-rendering="crispEdges" fill="rgb(41, 90, 148)"  x="20" y="14" width="1" height="1" /><rect shape-rendering="crispEdges" fill="rgb(41, 148, 180)"  x="20" y="15" width="1" height="1" /><rect shape-rendering="crispEdges" fill="rgb(49, 205, 205)"  x="20" y="16" width="1" height="1" /><rect shape-rendering="crispEdges" fill="rgb(255, 255, 131)"  x="20" y="17" width="1" height="1" /><rect shape-rendering="crispEdges" fill="rgb(197, 230, 156)"  x="20" y="18" width="1" height="1" /><rect shape-rendering="crispEdges" fill="rgb(246, 246, 238)"  x="20" y="19" width="1" height="1" /><rect shape-rendering="crispEdges" fill="rgb(246, 246, 238)"  x="20" y="20" width="1" height="1" /><rect shape-rendering="crispEdges" fill="rgb(74, 197, 222)"  x="20" y="21" width="1" height="1" /><rect shape-rendering="crispEdges" fill="rgb(74, 197, 222)"  x="20" y="22" width="1" height="1" /><rect shape-rendering="crispEdges" fill="rgb(32, 172, 180)"  x="20" y="23" width="1" height="1" /><rect shape-rendering="crispEdges" fill="rgb(57, 148, 148)"  x="20" y="24" width="1" height="1" /><rect shape-rendering="crispEdges" fill="rgb(41, 123, 139)"  x="20" y="25" width="1" height="1" /><rect shape-rendering="crispEdges" fill="rgb(82, 139, 131)"  x="20" y="26" width="1" height="1" /><rect shape-rendering="crispEdges" fill="rgb(255, 255, 131)"  x="20" y="27" width="1" height="1" /><rect shape-rendering="crispEdges" fill="rgb(197, 230, 156)"  x="20" y="28" width="1" height="1" /><rect shape-rendering="crispEdges" fill="rgb(65, 115, 148)"  x="20" y="29" width="1" height="1" /><rect shape-rendering="crispEdges" fill="rgb(32, 205, 213)"  x="20" y="30" width="1" height="1" /><rect shape-rendering="crispEdges" fill="rgb(32, 205, 213)"  x="21" y="1" width="1" height="1" /><rect shape-rendering="crispEdges" fill="rgb(32, 205, 213)"  x="21" y="6" width="1" height="1" /><rect shape-rendering="crispEdges" fill="rgb(32, 205, 213)"  x="21" y="7" width="1" height="1" /><rect shape-rendering="crispEdges" fill="rgb(24, 115, 106)"  x="21" y="8" width="1" height="1" /><rect shape-rendering="crispEdges" fill="rgb(16, 123, 98)"  x="21" y="9" width="1" height="1" /><rect shape-rendering="crispEdges" fill="rgb(16, 156, 123)"  x="21" y="10" width="1" height="1" /><rect shape-rendering="crispEdges" fill="rgb(32, 131, 156)"  x="21" y="11" width="1" height="1" /><rect shape-rendering="crispEdges" fill="rgb(49, 90, 156)"  x="21" y="12" width="1" height="1" /><rect shape-rendering="crispEdges" fill="rgb(32, 205, 213)"  x="21" y="13" width="1" height="1" /><rect shape-rendering="crispEdges" fill="rgb(49, 90, 156)"  x="21" y="14" width="1" height="1" /><rect shape-rendering="crispEdges" fill="rgb(24, 123, 180)"  x="21" y="15" width="1" height="1" /><rect shape-rendering="crispEdges" fill="rgb(197, 230, 156)"  x="21" y="16" width="1" height="1" /><rect shape-rendering="crispEdges" fill="rgb(197, 230, 156)"  x="21" y="17" width="1" height="1" /><rect shape-rendering="crispEdges" fill="rgb(74, 197, 189)"  x="21" y="18" width="1" height="1" /><rect shape-rendering="crispEdges" fill="rgb(74, 189, 189)"  x="21" y="19" width="1" height="1" /><rect shape-rendering="crispEdges" fill="rgb(65, 189, 189)"  x="21" y="20" width="1" height="1" /><rect shape-rendering="crispEdges" fill="rgb(32, 180, 197)"  x="21" y="21" width="1" height="1" /><rect shape-rendering="crispEdges" fill="rgb(41, 106, 180)"  x="21" y="22" width="1" height="1" /><rect shape-rendering="crispEdges" fill="rgb(32, 156, 180)"  x="21" y="23" width="1" height="1" /><rect shape-rendering="crispEdges" fill="rgb(32, 156, 180)"  x="21" y="24" width="1" height="1" /><rect shape-rendering="crispEdges" fill="rgb(32, 156, 180)"  x="21" y="25" width="1" height="1" /><rect shape-rendering="crispEdges" fill="rgb(16, 148, 172)"  x="21" y="26" width="1" height="1" /><rect shape-rendering="crispEdges" fill="rgb(57, 139, 148)"  x="21" y="27" width="1" height="1" /><rect shape-rendering="crispEdges" fill="rgb(197, 230, 156)"  x="21" y="28" width="1" height="1" /><rect shape-rendering="crispEdges" fill="rgb(197, 230, 156)"  x="21" y="29" width="1" height="1" /><rect shape-rendering="crispEdges" fill="rgb(32, 205, 213)"  x="21" y="30" width="1" height="1" /><rect shape-rendering="crispEdges" fill="rgb(32, 205, 213)"  x="22" y="7" width="1" height="1" /><rect shape-rendering="crispEdges" fill="rgb(32, 205, 213)"  x="22" y="8" width="1" height="1" /><rect shape-rendering="crispEdges" fill="rgb(24, 98, 115)"  x="22" y="9" width="1" height="1" /><rect shape-rendering="crispEdges" fill="rgb(16, 106, 82)"  x="22" y="10" width="1" height="1" /><rect shape-rendering="crispEdges" fill="rgb(65, 115, 172)"  x="22" y="11" width="1" height="1" /><rect shape-rendering="crispEdges" fill="rgb(49, 90, 156)"  x="22" y="12" width="1" height="1" /><rect shape-rendering="crispEdges" fill="rgb(16, 139, 131)"  x="22" y="13" width="1" height="1" /><rect shape-rendering="crispEdges" fill="rgb(32, 205, 213)"  x="22" y="14" width="1" height="1" /><rect shape-rendering="crispEdges" fill="rgb(49, 90, 156)"  x="22" y="15" width="1" height="1" /><rect shape-rendering="crispEdges" fill="rgb(197, 230, 156)"  x="22" y="16" width="1" height="1" /><rect shape-rendering="crispEdges" fill="rgb(41, 148, 180)"  x="22" y="17" width="1" height="1" /><rect shape-rendering="crispEdges" fill="rgb(41, 148, 180)"  x="22" y="18" width="1" height="1" /><rect shape-rendering="crispEdges" fill="rgb(41, 180, 205)"  x="22" y="19" width="1" height="1" /><rect shape-rendering="crispEdges" fill="rgb(32, 172, 197)"  x="22" y="20" width="1" height="1" /><rect shape-rendering="crispEdges" fill="rgb(41, 106, 180)"  x="22" y="21" width="1" height="1" /><rect shape-rendering="crispEdges" fill="rgb(41, 106, 180)"  x="22" y="22" width="1" height="1" /><rect shape-rendering="crispEdges" fill="rgb(41, 115, 164)"  x="22" y="23" width="1" height="1" /><rect shape-rendering="crispEdges" fill="rgb(49, 57, 131)"  x="22" y="24" width="1" height="1" /><rect shape-rendering="crispEdges" fill="rgb(49, 57, 131)"  x="22" y="25" width="1" height="1" /><rect shape-rendering="crispEdges" fill="rgb(32, 139, 164)"  x="22" y="26" width="1" height="1" /><rect shape-rendering="crispEdges" fill="rgb(24, 115, 139)"  x="22" y="27" width="1" height="1" /><rect shape-rendering="crispEdges" fill="rgb(197, 230, 156)"  x="22" y="28" width="1" height="1" /><rect shape-rendering="crispEdges" fill="rgb(32, 205, 213)"  x="22" y="29" width="1" height="1" /><rect shape-rendering="crispEdges" fill="rgb(32, 205, 213)"  x="23" y="9" width="1" height="1" /><rect shape-rendering="crispEdges" fill="rgb(32, 205, 213)"  x="23" y="10" width="1" height="1" /><rect shape-rendering="crispEdges" fill="rgb(41, 123, 131)"  x="23" y="11" width="1" height="1" /><rect shape-rendering="crispEdges" fill="rgb(16, 98, 90)"  x="23" y="12" width="1" height="1" /><rect shape-rendering="crispEdges" fill="rgb(16, 98, 82)"  x="23" y="13" width="1" height="1" /><rect shape-rendering="crispEdges" fill="rgb(74, 156, 148)"  x="23" y="14" width="1" height="1" /><rect shape-rendering="crispEdges" fill="rgb(32, 205, 213)"  x="23" y="15" width="1" height="1" /><rect shape-rendering="crispEdges" fill="rgb(32, 205, 213)"  x="23" y="16" width="1" height="1" /><rect shape-rendering="crispEdges" fill="rgb(32, 205, 213)"  x="23" y="17" width="1" height="1" /><rect shape-rendering="crispEdges" fill="rgb(41, 106, 180)"  x="23" y="18" width="1" height="1" /><rect shape-rendering="crispEdges" fill="rgb(41, 106, 180)"  x="23" y="19" width="1" height="1" /><rect shape-rendering="crispEdges" fill="rgb(41, 106, 180)"  x="23" y="20" width="1" height="1" /><rect shape-rendering="crispEdges" fill="rgb(41, 106, 180)"  x="23" y="21" width="1" height="1" /><rect shape-rendering="crispEdges" fill="rgb(41, 106, 180)"  x="23" y="22" width="1" height="1" /><rect shape-rendering="crispEdges" fill="rgb(24, 164, 197)"  x="23" y="23" width="1" height="1" /><rect shape-rendering="crispEdges" fill="rgb(32, 205, 213)"  x="23" y="24" width="1" height="1" /><rect shape-rendering="crispEdges" fill="rgb(32, 205, 213)"  x="23" y="25" width="1" height="1" /><rect shape-rendering="crispEdges" fill="rgb(24, 115, 139)"  x="23" y="26" width="1" height="1" /><rect shape-rendering="crispEdges" fill="rgb(49, 98, 139)"  x="23" y="27" width="1" height="1" /><rect shape-rendering="crispEdges" fill="rgb(49, 98, 139)"  x="23" y="28" width="1" height="1" /><rect shape-rendering="crispEdges" fill="rgb(32, 205, 213)"  x="23" y="29" width="1" height="1" /><rect shape-rendering="crispEdges" fill="rgb(32, 205, 213)"  x="24" y="11" width="1" height="1" /><rect shape-rendering="crispEdges" fill="rgb(32, 205, 213)"  x="24" y="12" width="1" height="1" /><rect shape-rendering="crispEdges" fill="rgb(24, 98, 115)"  x="24" y="13" width="1" height="1" /><rect shape-rendering="crispEdges" fill="rgb(16, 115, 115)"  x="24" y="14" width="1" height="1" /><rect shape-rendering="crispEdges" fill="rgb(41, 131, 148)"  x="24" y="15" width="1" height="1" /><rect shape-rendering="crispEdges" fill="rgb(41, 131, 148)"  x="24" y="16" width="1" height="1" /><rect shape-rendering="crispEdges" fill="rgb(32, 205, 213)"  x="24" y="17" width="1" height="1" /><rect shape-rendering="crispEdges" fill="rgb(57, 222, 205)"  x="24" y="18" width="1" height="1" /><rect shape-rendering="crispEdges" fill="rgb(57, 222, 205)"  x="24" y="19" width="1" height="1" /><rect shape-rendering="crispEdges" fill="rgb(57, 222, 205)"  x="24" y="20" width="1" height="1" /><rect shape-rendering="crispEdges" fill="rgb(57, 180, 180)"  x="24" y="21" width="1" height="1" /><rect shape-rendering="crispEdges" fill="rgb(57, 180, 180)"  x="24" y="22" width="1" height="1" /><rect shape-rendering="crispEdges" fill="rgb(49, 164, 172)"  x="24" y="23" width="1" height="1" /><rect shape-rendering="crispEdges" fill="rgb(32, 205, 213)"  x="24" y="24" width="1" height="1" /><rect shape-rendering="crispEdges" fill="rgb(32, 131, 164)"  x="24" y="25" width="1" height="1" /><rect shape-rendering="crispEdges" fill="rgb(32, 131, 164)"  x="24" y="26" width="1" height="1" /><rect shape-rendering="crispEdges" fill="rgb(32, 131, 164)"  x="24" y="27" width="1" height="1" /><rect shape-rendering="crispEdges" fill="rgb(49, 82, 131)"  x="24" y="28" width="1" height="1" /><rect shape-rendering="crispEdges" fill="rgb(32, 205, 213)"  x="24" y="29" width="1" height="1" /><rect shape-rendering="crispEdges" fill="rgb(32, 205, 213)"  x="25" y="13" width="1" height="1" /><rect shape-rendering="crispEdges" fill="rgb(32, 205, 213)"  x="25" y="14" width="1" height="1" /><rect shape-rendering="crispEdges" fill="rgb(32, 205, 213)"  x="25" y="15" width="1" height="1" /><rect shape-rendering="crispEdges" fill="rgb(32, 205, 213)"  x="25" y="16" width="1" height="1" /><rect shape-rendering="crispEdges" fill="rgb(90, 123, 139)"  x="25" y="17" width="1" height="1" /><rect shape-rendering="crispEdges" fill="rgb(90, 123, 139)"  x="25" y="18" width="1" height="1" /><rect shape-rendering="crispEdges" fill="rgb(57, 164, 164)"  x="25" y="19" width="1" height="1" /><rect shape-rendering="crispEdges" fill="rgb(82, 156, 156)"  x="25" y="20" width="1" height="1" /><rect shape-rendering="crispEdges" fill="rgb(90, 123, 139)"  x="25" y="21" width="1" height="1" /><rect shape-rendering="crispEdges" fill="rgb(90, 123, 139)"  x="25" y="22" width="1" height="1" /><rect shape-rendering="crispEdges" fill="rgb(90, 123, 139)"  x="25" y="23" width="1" height="1" /><rect shape-rendering="crispEdges" fill="rgb(90, 123, 139)"  x="25" y="24" width="1" height="1" /><rect shape-rendering="crispEdges" fill="rgb(49, 98, 148)"  x="25" y="25" width="1" height="1" /><rect shape-rendering="crispEdges" fill="rgb(41, 98, 148)"  x="25" y="26" width="1" height="1" /><rect shape-rendering="crispEdges" fill="rgb(49, 82, 131)"  x="25" y="27" width="1" height="1" /><rect shape-rendering="crispEdges" fill="rgb(32, 205, 213)"  x="25" y="28" width="1" height="1" /><rect shape-rendering="crispEdges" fill="rgb(32, 205, 213)"  x="25" y="29" width="1" height="1" /><rect shape-rendering="crispEdges" fill="rgb(32, 205, 213)"  x="26" y="16" width="1" height="1" /><rect shape-rendering="crispEdges" fill="rgb(32, 205, 213)"  x="26" y="17" width="1" height="1" /><rect shape-rendering="crispEdges" fill="rgb(32, 205, 213)"  x="26" y="18" width="1" height="1" /><rect shape-rendering="crispEdges" fill="rgb(32, 205, 213)"  x="26" y="19" width="1" height="1" /><rect shape-rendering="crispEdges" fill="rgb(32, 205, 213)"  x="26" y="20" width="1" height="1" /><rect shape-rendering="crispEdges" fill="rgb(41, 115, 139)"  x="26" y="21" width="1" height="1" /><rect shape-rendering="crispEdges" fill="rgb(49, 98, 123)"  x="26" y="22" width="1" height="1" /><rect shape-rendering="crispEdges" fill="rgb(49, 98, 123)"  x="26" y="23" width="1" height="1" /><rect shape-rendering="crispEdges" fill="rgb(49, 98, 123)"  x="26" y="24" width="1" height="1" /><rect shape-rendering="crispEdges" fill="rgb(49, 74, 131)"  x="26" y="25" width="1" height="1" /><rect shape-rendering="crispEdges" fill="rgb(49, 74, 131)"  x="26" y="26" width="1" height="1" /><rect shape-rendering="crispEdges" fill="rgb(49, 74, 131)"  x="26" y="27" width="1" height="1" /><rect shape-rendering="crispEdges" fill="rgb(32, 205, 213)"  x="26" y="28" width="1" height="1" /><rect shape-rendering="crispEdges" fill="rgb(32, 205, 213)"  x="27" y="21" width="1" height="1" /><rect shape-rendering="crispEdges" fill="rgb(32, 205, 213)"  x="27" y="22" width="1" height="1" /><rect shape-rendering="crispEdges" fill="rgb(32, 205, 213)"  x="27" y="23" width="1" height="1" /><rect shape-rendering="crispEdges" fill="rgb(32, 205, 213)"  x="27" y="24" width="1" height="1" /><rect shape-rendering="crispEdges" fill="rgb(32, 205, 213)"  x="27" y="25" width="1" height="1" /><rect shape-rendering="crispEdges" fill="rgb(32, 205, 213)"  x="27" y="26" width="1" height="1" /><rect shape-rendering="crispEdges" fill="rgb(32, 205, 213)"  x="27" y="27" width="1" height="1" /><rect shape-rendering="crispEdges" fill="rgb(32, 205, 213)"  x="27" y="28" width="1" height="1" /></svg>