<svg xmlns="http://www.w3.org/2000/svg" xmlns:xlink= "http://www.w3.org/1999/xlink" width="32" height="32" viewBox ="0 0 32 32"><rect shape-rendering="crispEdges" fill="rgb(0, 0, 0)"  x="1" y="12" width="1" height="1" /><rect shape-rendering="crispEdges" fill="rgb(131, 16, 16)"  x="1" y="13" width="1" height="1" /><rect shape-rendering="crispEdges" fill="rgb(131, 16, 16)"  x="1" y="14" width="1" height="1" /><rect shape-rendering="crispEdges" fill="rgb(82, 8, 8)"  x="1" y="15" width="1" height="1" /><rect shape-rendering="crispEdges" fill="rgb(82, 8, 8)"  x="2" y="11" width="1" height="1" /><rect shape-rendering="crispEdges" fill="rgb(131, 16, 16)"  x="2" y="12" width="1" height="1" /><rect shape-rendering="crispEdges" fill="rgb(82, 8, 8)"  x="2" y="13" width="1" height="1" /><rect shape-rendering="crispEdges" fill="rgb(82, 8, 8)"  x="2" y="14" width="1" height="1" /><rect shape-rendering="crispEdges" fill="rgb(255, 24, 32)"  x="2" y="15" width="1" height="1" /><rect shape-rendering="crispEdges" fill="rgb(213, 24, 24)"  x="2" y="16" width="1" height="1" /><rect shape-rendering="crispEdges" fill="rgb(0, 0, 0)"  x="2" y="17" width="1" height="1" /><rect shape-rendering="crispEdges" fill="rgb(213, 24, 24)"  x="2" y="18" width="1" height="1" /><rect shape-rendering="crispEdges" fill="rgb(0, 0, 0)"  x="2" y="19" width="1" height="1" /><rect shape-rendering="crispEdges" fill="rgb(82, 8, 8)"  x="3" y="10" width="1" height="1" /><rect shape-rendering="crispEdges" fill="rgb(213, 24, 24)"  x="3" y="11" width="1" height="1" /><rect shape-rendering="crispEdges" fill="rgb(90, 8, 8)"  x="3" y="12" width="1" height="1" /><rect shape-rendering="crispEdges" fill="rgb(255, 24, 32)"  x="3" y="14" width="1" height="1" /><rect shape-rendering="crispEdges" fill="rgb(0, 0, 0)"  x="3" y="15" width="1" height="1" /><rect shape-rendering="crispEdges" fill="rgb(8, 8, 8)"  x="3" y="16" width="1" height="1" /><rect shape-rendering="crispEdges" fill="rgb(8, 8, 8)"  x="3" y="17" width="1" height="1" /><rect shape-rendering="crispEdges" fill="rgb(90, 8, 8)"  x="3" y="18" width="1" height="1" /><rect shape-rendering="crispEdges" fill="rgb(90, 8, 8)"  x="3" y="19" width="1" height="1" /><rect shape-rendering="crispEdges" fill="rgb(172, 16, 16)"  x="3" y="20" width="1" height="1" /><rect shape-rendering="crispEdges" fill="rgb(255, 24, 32)"  x="4" y="10" width="1" height="1" /><rect shape-rendering="crispEdges" fill="rgb(90, 8, 8)"  x="4" y="11" width="1" height="1" /><rect shape-rendering="crispEdges" fill="rgb(82, 8, 8)"  x="4" y="15" width="1" height="1" /><rect shape-rendering="crispEdges" fill="rgb(8, 8, 8)"  x="4" y="16" width="1" height="1" /><rect shape-rendering="crispEdges" fill="rgb(8, 8, 8)"  x="4" y="17" width="1" height="1" /><rect shape-rendering="crispEdges" fill="rgb(8, 8, 8)"  x="4" y="18" width="1" height="1" /><rect shape-rendering="crispEdges" fill="rgb(8, 8, 8)"  x="4" y="19" width="1" height="1" /><rect shape-rendering="crispEdges" fill="rgb(90, 8, 8)"  x="4" y="20" width="1" height="1" /><rect shape-rendering="crispEdges" fill="rgb(0, 0, 0)"  x="4" y="21" width="1" height="1" /><rect shape-rendering="crispEdges" fill="rgb(255, 24, 32)"  x="5" y="9" width="1" height="1" /><rect shape-rendering="crispEdges" fill="rgb(0, 0, 0)"  x="5" y="10" width="1" height="1" /><rect shape-rendering="crispEdges" fill="rgb(255, 24, 32)"  x="5" y="16" width="1" height="1" /><rect shape-rendering="crispEdges" fill="rgb(8, 8, 8)"  x="5" y="17" width="1" height="1" /><rect shape-rendering="crispEdges" fill="rgb(8, 8, 8)"  x="5" y="18" width="1" height="1" /><rect shape-rendering="crispEdges" fill="rgb(8, 8, 8)"  x="5" y="19" width="1" height="1" /><rect shape-rendering="crispEdges" fill="rgb(0, 0, 0)"  x="5" y="20" width="1" height="1" /><rect shape-rendering="crispEdges" fill="rgb(90, 8, 8)"  x="5" y="21" width="1" height="1" /><rect shape-rendering="crispEdges" fill="rgb(0, 0, 0)"  x="6" y="9" width="1" height="1" /><rect shape-rendering="crispEdges" fill="rgb(90, 8, 8)"  x="6" y="10" width="1" height="1" /><rect shape-rendering="crispEdges" fill="rgb(255, 24, 32)"  x="6" y="17" width="1" height="1" /><rect shape-rendering="crispEdges" fill="rgb(255, 24, 32)"  x="6" y="18" width="1" height="1" /><rect shape-rendering="crispEdges" fill="rgb(172, 16, 16)"  x="6" y="19" width="1" height="1" /><rect shape-rendering="crispEdges" fill="rgb(90, 8, 8)"  x="6" y="20" width="1" height="1" /><rect shape-rendering="crispEdges" fill="rgb(255, 24, 32)"  x="7" y="8" width="1" height="1" /><rect shape-rendering="crispEdges" fill="rgb(90, 8, 8)"  x="7" y="9" width="1" height="1" /><rect shape-rendering="crispEdges" fill="rgb(213, 24, 24)"  x="7" y="18" width="1" height="1" /><rect shape-rendering="crispEdges" fill="rgb(172, 16, 16)"  x="7" y="19" width="1" height="1" /><rect shape-rendering="crispEdges" fill="rgb(90, 8, 8)"  x="7" y="20" width="1" height="1" /><rect shape-rendering="crispEdges" fill="rgb(0, 0, 0)"  x="8" y="8" width="1" height="1" /><rect shape-rendering="crispEdges" fill="rgb(255, 24, 32)"  x="8" y="19" width="1" height="1" /><rect shape-rendering="crispEdges" fill="rgb(90, 8, 8)"  x="8" y="20" width="1" height="1" /><rect shape-rendering="crispEdges" fill="rgb(213, 24, 24)"  x="9" y="8" width="1" height="1" /><rect shape-rendering="crispEdges" fill="rgb(90, 8, 8)"  x="9" y="9" width="1" height="1" /><rect shape-rendering="crispEdges" fill="rgb(255, 24, 32)"  x="9" y="19" width="1" height="1" /><rect shape-rendering="crispEdges" fill="rgb(172, 16, 16)"  x="9" y="20" width="1" height="1" /><rect shape-rendering="crispEdges" fill="rgb(172, 16, 16)"  x="10" y="8" width="1" height="1" /><rect shape-rendering="crispEdges" fill="rgb(90, 8, 8)"  x="10" y="9" width="1" height="1" /><rect shape-rendering="crispEdges" fill="rgb(82, 8, 8)"  x="10" y="19" width="1" height="1" /><rect shape-rendering="crispEdges" fill="rgb(0, 0, 0)"  x="10" y="20" width="1" height="1" /><rect shape-rendering="crispEdges" fill="rgb(213, 24, 24)"  x="10" y="21" width="1" height="1" /><rect shape-rendering="crispEdges" fill="rgb(0, 0, 0)"  x="10" y="22" width="1" height="1" /><rect shape-rendering="crispEdges" fill="rgb(213, 24, 24)"  x="11" y="18" width="1" height="1" /><rect shape-rendering="crispEdges" fill="rgb(255, 24, 32)"  x="11" y="19" width="1" height="1" /><rect shape-rendering="crispEdges" fill="rgb(8, 8, 8)"  x="11" y="20" width="1" height="1" /><rect shape-rendering="crispEdges" fill="rgb(90, 8, 8)"  x="11" y="21" width="1" height="1" /><rect shape-rendering="crispEdges" fill="rgb(131, 16, 16)"  x="11" y="22" width="1" height="1" /><rect shape-rendering="crispEdges" fill="rgb(90, 8, 8)"  x="11" y="23" width="1" height="1" /><rect shape-rendering="crispEdges" fill="rgb(82, 8, 8)"  x="12" y="18" width="1" height="1" /><rect shape-rendering="crispEdges" fill="rgb(82, 8, 8)"  x="12" y="19" width="1" height="1" /><rect shape-rendering="crispEdges" fill="rgb(8, 8, 8)"  x="12" y="20" width="1" height="1" /><rect shape-rendering="crispEdges" fill="rgb(8, 8, 8)"  x="12" y="21" width="1" height="1" /><rect shape-rendering="crispEdges" fill="rgb(90, 8, 8)"  x="12" y="22" width="1" height="1" /><rect shape-rendering="crispEdges" fill="rgb(0, 0, 0)"  x="12" y="23" width="1" height="1" /><rect shape-rendering="crispEdges" fill="rgb(0, 0, 0)"  x="12" y="24" width="1" height="1" /><rect shape-rendering="crispEdges" fill="rgb(255, 24, 32)"  x="13" y="18" width="1" height="1" /><rect shape-rendering="crispEdges" fill="rgb(8, 8, 8)"  x="13" y="19" width="1" height="1" /><rect shape-rendering="crispEdges" fill="rgb(8, 8, 8)"  x="13" y="20" width="1" height="1" /><rect shape-rendering="crispEdges" fill="rgb(90, 8, 8)"  x="13" y="21" width="1" height="1" /><rect shape-rendering="crispEdges" fill="rgb(8, 8, 8)"  x="13" y="22" width="1" height="1" /><rect shape-rendering="crispEdges" fill="rgb(131, 16, 16)"  x="13" y="23" width="1" height="1" /><rect shape-rendering="crispEdges" fill="rgb(172, 16, 16)"  x="13" y="24" width="1" height="1" /><rect shape-rendering="crispEdges" fill="rgb(82, 8, 8)"  x="14" y="18" width="1" height="1" /><rect shape-rendering="crispEdges" fill="rgb(8, 8, 8)"  x="14" y="19" width="1" height="1" /><rect shape-rendering="crispEdges" fill="rgb(8, 8, 8)"  x="14" y="20" width="1" height="1" /><rect shape-rendering="crispEdges" fill="rgb(8, 8, 8)"  x="14" y="21" width="1" height="1" /><rect shape-rendering="crispEdges" fill="rgb(90, 8, 8)"  x="14" y="22" width="1" height="1" /><rect shape-rendering="crispEdges" fill="rgb(131, 16, 16)"  x="14" y="23" width="1" height="1" /><rect shape-rendering="crispEdges" fill="rgb(0, 0, 0)"  x="14" y="24" width="1" height="1" /><rect shape-rendering="crispEdges" fill="rgb(255, 24, 32)"  x="15" y="18" width="1" height="1" /><rect shape-rendering="crispEdges" fill="rgb(8, 8, 8)"  x="15" y="19" width="1" height="1" /><rect shape-rendering="crispEdges" fill="rgb(8, 8, 8)"  x="15" y="20" width="1" height="1" /><rect shape-rendering="crispEdges" fill="rgb(90, 8, 8)"  x="15" y="21" width="1" height="1" /><rect shape-rendering="crispEdges" fill="rgb(8, 8, 8)"  x="15" y="22" width="1" height="1" /><rect shape-rendering="crispEdges" fill="rgb(131, 16, 16)"  x="15" y="23" width="1" height="1" /><rect shape-rendering="crispEdges" fill="rgb(213, 24, 24)"  x="15" y="24" width="1" height="1" /><rect shape-rendering="crispEdges" fill="rgb(82, 8, 8)"  x="16" y="18" width="1" height="1" /><rect shape-rendering="crispEdges" fill="rgb(8, 8, 8)"  x="16" y="19" width="1" height="1" /><rect shape-rendering="crispEdges" fill="rgb(8, 8, 8)"  x="16" y="20" width="1" height="1" /><rect shape-rendering="crispEdges" fill="rgb(8, 8, 8)"  x="16" y="21" width="1" height="1" /><rect shape-rendering="crispEdges" fill="rgb(90, 8, 8)"  x="16" y="22" width="1" height="1" /><rect shape-rendering="crispEdges" fill="rgb(131, 16, 16)"  x="16" y="23" width="1" height="1" /><rect shape-rendering="crispEdges" fill="rgb(0, 0, 0)"  x="16" y="24" width="1" height="1" /><rect shape-rendering="crispEdges" fill="rgb(213, 24, 24)"  x="17" y="18" width="1" height="1" /><rect shape-rendering="crispEdges" fill="rgb(255, 24, 32)"  x="17" y="19" width="1" height="1" /><rect shape-rendering="crispEdges" fill="rgb(8, 8, 8)"  x="17" y="20" width="1" height="1" /><rect shape-rendering="crispEdges" fill="rgb(8, 8, 8)"  x="17" y="21" width="1" height="1" /><rect shape-rendering="crispEdges" fill="rgb(8, 8, 8)"  x="17" y="22" width="1" height="1" /><rect shape-rendering="crispEdges" fill="rgb(131, 16, 16)"  x="17" y="23" width="1" height="1" /><rect shape-rendering="crispEdges" fill="rgb(172, 16, 16)"  x="17" y="24" width="1" height="1" /><rect shape-rendering="crispEdges" fill="rgb(255, 98, 98)"  x="18" y="19" width="1" height="1" /><rect shape-rendering="crispEdges" fill="rgb(8, 8, 8)"  x="18" y="20" width="1" height="1" /><rect shape-rendering="crispEdges" fill="rgb(8, 8, 8)"  x="18" y="21" width="1" height="1" /><rect shape-rendering="crispEdges" fill="rgb(90, 8, 8)"  x="18" y="22" width="1" height="1" /><rect shape-rendering="crispEdges" fill="rgb(0, 0, 0)"  x="18" y="23" width="1" height="1" /><rect shape-rendering="crispEdges" fill="rgb(0, 0, 0)"  x="18" y="24" width="1" height="1" /><rect shape-rendering="crispEdges" fill="rgb(255, 98, 98)"  x="19" y="19" width="1" height="1" /><rect shape-rendering="crispEdges" fill="rgb(90, 0, 0)"  x="19" y="20" width="1" height="1" /><rect shape-rendering="crispEdges" fill="rgb(255, 24, 32)"  x="19" y="21" width="1" height="1" /><rect shape-rendering="crispEdges" fill="rgb(0, 0, 0)"  x="19" y="22" width="1" height="1" /><rect shape-rendering="crispEdges" fill="rgb(172, 16, 16)"  x="19" y="23" width="1" height="1" /><rect shape-rendering="crispEdges" fill="rgb(0, 0, 0)"  x="20" y="19" width="1" height="1" /><rect shape-rendering="crispEdges" fill="rgb(255, 164, 172)"  x="20" y="20" width="1" height="1" /><rect shape-rendering="crispEdges" fill="rgb(255, 98, 98)"  x="20" y="21" width="1" height="1" /><rect shape-rendering="crispEdges" fill="rgb(0, 0, 0)"  x="20" y="22" width="1" height="1" /><rect shape-rendering="crispEdges" fill="rgb(90, 8, 8)"  x="20" y="23" width="1" height="1" /><rect shape-rendering="crispEdges" fill="rgb(255, 164, 172)"  x="21" y="20" width="1" height="1" /><rect shape-rendering="crispEdges" fill="rgb(0, 0, 0)"  x="21" y="21" width="1" height="1" /><rect shape-rendering="crispEdges" fill="rgb(90, 8, 8)"  x="21" y="22" width="1" height="1" /><rect shape-rendering="crispEdges" fill="rgb(131, 16, 16)"  x="22" y="20" width="1" height="1" /><rect shape-rendering="crispEdges" fill="rgb(0, 0, 0)"  x="22" y="21" width="1" height="1" /><rect shape-rendering="crispEdges" fill="rgb(255, 24, 32)"  x="23" y="19" width="1" height="1" /><rect shape-rendering="crispEdges" fill="rgb(213, 24, 24)"  x="23" y="20" width="1" height="1" /><rect shape-rendering="crispEdges" fill="rgb(0, 0, 0)"  x="24" y="19" width="1" height="1" /><rect shape-rendering="crispEdges" fill="rgb(90, 8, 8)"  x="24" y="20" width="1" height="1" /><rect shape-rendering="crispEdges" fill="rgb(255, 24, 32)"  x="25" y="18" width="1" height="1" /><rect shape-rendering="crispEdges" fill="rgb(213, 24, 24)"  x="25" y="19" width="1" height="1" /><rect shape-rendering="crispEdges" fill="rgb(213, 24, 24)"  x="26" y="18" width="1" height="1" /><rect shape-rendering="crispEdges" fill="rgb(90, 8, 8)"  x="26" y="19" width="1" height="1" /><rect shape-rendering="crispEdges" fill="rgb(82, 8, 8)"  x="27" y="17" width="1" height="1" /><rect shape-rendering="crispEdges" fill="rgb(172, 16, 16)"  x="27" y="18" width="1" height="1" /><rect shape-rendering="crispEdges" fill="rgb(255, 24, 32)"  x="28" y="17" width="1" height="1" /><rect shape-rendering="crispEdges" fill="rgb(0, 0, 0)"  x="28" y="18" width="1" height="1" /><rect shape-rendering="crispEdges" fill="rgb(213, 24, 24)"  x="29" y="16" width="1" height="1" /><rect shape-rendering="crispEdges" fill="rgb(0, 0, 0)"  x="29" y="17" width="1" height="1" /><rect shape-rendering="crispEdges" fill="rgb(131, 16, 16)"  x="30" y="16" width="1" height="1" /><rect shape-rendering="crispEdges" fill="rgb(90, 8, 8)"  x="30" y="17" width="1" height="1" /><rect shape-rendering="crispEdges" fill="rgb(90, 8, 8)"  x="31" y="17" width="1" height="1" /><rect shape-rendering="crispEdges" fill="rgb(90, 8, 8)"  x="31" y="18" width="1" height="1" /></svg>