<svg xmlns="http://www.w3.org/2000/svg" xmlns:xlink= "http://www.w3.org/1999/xlink" width="32" height="32" viewBox ="0 0 32 32"><rect shape-rendering="crispEdges" fill="rgb(172, 74, 16)"  x="2" y="17" width="1" height="1" /><rect shape-rendering="crispEdges" fill="rgb(222, 90, 74)"  x="3" y="16" width="1" height="1" /><rect shape-rendering="crispEdges" fill="rgb(255, 180, 74)"  x="3" y="17" width="1" height="1" /><rect shape-rendering="crispEdges" fill="rgb(172, 74, 16)"  x="3" y="18" width="1" height="1" /><rect shape-rendering="crispEdges" fill="rgb(255, 222, 139)"  x="4" y="8" width="1" height="1" /><rect shape-rendering="crispEdges" fill="rgb(255, 222, 139)"  x="4" y="9" width="1" height="1" /><rect shape-rendering="crispEdges" fill="rgb(255, 222, 139)"  x="4" y="10" width="1" height="1" /><rect shape-rendering="crispEdges" fill="rgb(222, 90, 74)"  x="4" y="15" width="1" height="1" /><rect shape-rendering="crispEdges" fill="rgb(255, 180, 90)"  x="4" y="16" width="1" height="1" /><rect shape-rendering="crispEdges" fill="rgb(255, 180, 90)"  x="4" y="17" width="1" height="1" /><rect shape-rendering="crispEdges" fill="rgb(255, 180, 90)"  x="4" y="18" width="1" height="1" /><rect shape-rendering="crispEdges" fill="rgb(172, 74, 16)"  x="4" y="19" width="1" height="1" /><rect shape-rendering="crispEdges" fill="rgb(172, 74, 16)"  x="4" y="20" width="1" height="1" /><rect shape-rendering="crispEdges" fill="rgb(172, 74, 16)"  x="4" y="22" width="1" height="1" /><rect shape-rendering="crispEdges" fill="rgb(255, 222, 139)"  x="5" y="7" width="1" height="1" /><rect shape-rendering="crispEdges" fill="rgb(255, 246, 180)"  x="5" y="8" width="1" height="1" /><rect shape-rendering="crispEdges" fill="rgb(255, 246, 180)"  x="5" y="9" width="1" height="1" /><rect shape-rendering="crispEdges" fill="rgb(255, 246, 180)"  x="5" y="10" width="1" height="1" /><rect shape-rendering="crispEdges" fill="rgb(255, 222, 139)"  x="5" y="11" width="1" height="1" /><rect shape-rendering="crispEdges" fill="rgb(255, 222, 139)"  x="5" y="12" width="1" height="1" /><rect shape-rendering="crispEdges" fill="rgb(222, 90, 74)"  x="5" y="15" width="1" height="1" /><rect shape-rendering="crispEdges" fill="rgb(255, 213, 82)"  x="5" y="16" width="1" height="1" /><rect shape-rendering="crispEdges" fill="rgb(255, 213, 82)"  x="5" y="17" width="1" height="1" /><rect shape-rendering="crispEdges" fill="rgb(172, 74, 16)"  x="5" y="18" width="1" height="1" /><rect shape-rendering="crispEdges" fill="rgb(172, 74, 16)"  x="5" y="24" width="1" height="1" /><rect shape-rendering="crispEdges" fill="rgb(172, 74, 16)"  x="5" y="25" width="1" height="1" /><rect shape-rendering="crispEdges" fill="rgb(0, 131, 189)"  x="5" y="29" width="1" height="1" /><rect shape-rendering="crispEdges" fill="rgb(0, 98, 156)"  x="5" y="30" width="1" height="1" /><rect shape-rendering="crispEdges" fill="rgb(255, 222, 139)"  x="6" y="3" width="1" height="1" /><rect shape-rendering="crispEdges" fill="rgb(255, 246, 180)"  x="6" y="7" width="1" height="1" /><rect shape-rendering="crispEdges" fill="rgb(255, 246, 180)"  x="6" y="8" width="1" height="1" /><rect shape-rendering="crispEdges" fill="rgb(255, 205, 123)"  x="6" y="9" width="1" height="1" /><rect shape-rendering="crispEdges" fill="rgb(205, 148, 16)"  x="6" y="10" width="1" height="1" /><rect shape-rendering="crispEdges" fill="rgb(255, 222, 139)"  x="6" y="13" width="1" height="1" /><rect shape-rendering="crispEdges" fill="rgb(222, 90, 74)"  x="6" y="15" width="1" height="1" /><rect shape-rendering="crispEdges" fill="rgb(255, 230, 131)"  x="6" y="16" width="1" height="1" /><rect shape-rendering="crispEdges" fill="rgb(115, 49, 32)"  x="6" y="17" width="1" height="1" /><rect shape-rendering="crispEdges" fill="rgb(172, 74, 16)"  x="6" y="18" width="1" height="1" /><rect shape-rendering="crispEdges" fill="rgb(222, 90, 74)"  x="6" y="19" width="1" height="1" /><rect shape-rendering="crispEdges" fill="rgb(222, 90, 74)"  x="6" y="20" width="1" height="1" /><rect shape-rendering="crispEdges" fill="rgb(172, 74, 16)"  x="6" y="21" width="1" height="1" /><rect shape-rendering="crispEdges" fill="rgb(172, 74, 16)"  x="6" y="22" width="1" height="1" /><rect shape-rendering="crispEdges" fill="rgb(172, 74, 16)"  x="6" y="23" width="1" height="1" /><rect shape-rendering="crispEdges" fill="rgb(255, 180, 90)"  x="6" y="24" width="1" height="1" /><rect shape-rendering="crispEdges" fill="rgb(255, 180, 90)"  x="6" y="25" width="1" height="1" /><rect shape-rendering="crispEdges" fill="rgb(131, 24, 16)"  x="6" y="26" width="1" height="1" /><rect shape-rendering="crispEdges" fill="rgb(0, 131, 189)"  x="6" y="28" width="1" height="1" /><rect shape-rendering="crispEdges" fill="rgb(246, 238, 246)"  x="6" y="29" width="1" height="1" /><rect shape-rendering="crispEdges" fill="rgb(90, 205, 238)"  x="6" y="30" width="1" height="1" /><rect shape-rendering="crispEdges" fill="rgb(0, 98, 156)"  x="6" y="31" width="1" height="1" /><rect shape-rendering="crispEdges" fill="rgb(255, 222, 139)"  x="7" y="2" width="1" height="1" /><rect shape-rendering="crispEdges" fill="rgb(255, 222, 139)"  x="7" y="6" width="1" height="1" /><rect shape-rendering="crispEdges" fill="rgb(255, 246, 180)"  x="7" y="7" width="1" height="1" /><rect shape-rendering="crispEdges" fill="rgb(255, 205, 123)"  x="7" y="8" width="1" height="1" /><rect shape-rendering="crispEdges" fill="rgb(205, 148, 16)"  x="7" y="9" width="1" height="1" /><rect shape-rendering="crispEdges" fill="rgb(222, 90, 74)"  x="7" y="15" width="1" height="1" /><rect shape-rendering="crispEdges" fill="rgb(255, 246, 180)"  x="7" y="16" width="1" height="1" /><rect shape-rendering="crispEdges" fill="rgb(246, 238, 246)"  x="7" y="17" width="1" height="1" /><rect shape-rendering="crispEdges" fill="rgb(115, 49, 32)"  x="7" y="18" width="1" height="1" /><rect shape-rendering="crispEdges" fill="rgb(255, 230, 131)"  x="7" y="19" width="1" height="1" /><rect shape-rendering="crispEdges" fill="rgb(255, 230, 131)"  x="7" y="20" width="1" height="1" /><rect shape-rendering="crispEdges" fill="rgb(255, 230, 131)"  x="7" y="21" width="1" height="1" /><rect shape-rendering="crispEdges" fill="rgb(255, 230, 131)"  x="7" y="22" width="1" height="1" /><rect shape-rendering="crispEdges" fill="rgb(255, 230, 131)"  x="7" y="23" width="1" height="1" /><rect shape-rendering="crispEdges" fill="rgb(255, 213, 82)"  x="7" y="24" width="1" height="1" /><rect shape-rendering="crispEdges" fill="rgb(255, 213, 82)"  x="7" y="25" width="1" height="1" /><rect shape-rendering="crispEdges" fill="rgb(131, 24, 16)"  x="7" y="26" width="1" height="1" /><rect shape-rendering="crispEdges" fill="rgb(131, 24, 16)"  x="7" y="27" width="1" height="1" /><rect shape-rendering="crispEdges" fill="rgb(172, 74, 16)"  x="7" y="28" width="1" height="1" /><rect shape-rendering="crispEdges" fill="rgb(90, 205, 238)"  x="7" y="29" width="1" height="1" /><rect shape-rendering="crispEdges" fill="rgb(90, 205, 238)"  x="7" y="30" width="1" height="1" /><rect shape-rendering="crispEdges" fill="rgb(0, 98, 156)"  x="7" y="31" width="1" height="1" /><rect shape-rendering="crispEdges" fill="rgb(255, 222, 139)"  x="8" y="1" width="1" height="1" /><rect shape-rendering="crispEdges" fill="rgb(255, 222, 139)"  x="8" y="4" width="1" height="1" /><rect shape-rendering="crispEdges" fill="rgb(255, 222, 139)"  x="8" y="6" width="1" height="1" /><rect shape-rendering="crispEdges" fill="rgb(255, 246, 180)"  x="8" y="7" width="1" height="1" /><rect shape-rendering="crispEdges" fill="rgb(255, 205, 123)"  x="8" y="8" width="1" height="1" /><rect shape-rendering="crispEdges" fill="rgb(205, 148, 16)"  x="8" y="9" width="1" height="1" /><rect shape-rendering="crispEdges" fill="rgb(222, 90, 74)"  x="8" y="15" width="1" height="1" /><rect shape-rendering="crispEdges" fill="rgb(246, 238, 246)"  x="8" y="16" width="1" height="1" /><rect shape-rendering="crispEdges" fill="rgb(246, 238, 246)"  x="8" y="17" width="1" height="1" /><rect shape-rendering="crispEdges" fill="rgb(16, 0, 0)"  x="8" y="18" width="1" height="1" /><rect shape-rendering="crispEdges" fill="rgb(74, 8, 32)"  x="8" y="19" width="1" height="1" /><rect shape-rendering="crispEdges" fill="rgb(74, 8, 32)"  x="8" y="20" width="1" height="1" /><rect shape-rendering="crispEdges" fill="rgb(115, 49, 32)"  x="8" y="21" width="1" height="1" /><rect shape-rendering="crispEdges" fill="rgb(246, 238, 246)"  x="8" y="22" width="1" height="1" /><rect shape-rendering="crispEdges" fill="rgb(255, 246, 180)"  x="8" y="23" width="1" height="1" /><rect shape-rendering="crispEdges" fill="rgb(255, 246, 180)"  x="8" y="24" width="1" height="1" /><rect shape-rendering="crispEdges" fill="rgb(255, 213, 82)"  x="8" y="25" width="1" height="1" /><rect shape-rendering="crispEdges" fill="rgb(131, 24, 16)"  x="8" y="26" width="1" height="1" /><rect shape-rendering="crispEdges" fill="rgb(0, 131, 189)"  x="8" y="29" width="1" height="1" /><rect shape-rendering="crispEdges" fill="rgb(0, 98, 156)"  x="8" y="30" width="1" height="1" /><rect shape-rendering="crispEdges" fill="rgb(255, 222, 139)"  x="9" y="0" width="1" height="1" /><rect shape-rendering="crispEdges" fill="rgb(255, 222, 139)"  x="9" y="1" width="1" height="1" /><rect shape-rendering="crispEdges" fill="rgb(255, 222, 139)"  x="9" y="4" width="1" height="1" /><rect shape-rendering="crispEdges" fill="rgb(255, 156, 49)"  x="9" y="5" width="1" height="1" /><rect shape-rendering="crispEdges" fill="rgb(255, 156, 49)"  x="9" y="6" width="1" height="1" /><rect shape-rendering="crispEdges" fill="rgb(255, 205, 123)"  x="9" y="7" width="1" height="1" /><rect shape-rendering="crispEdges" fill="rgb(255, 205, 123)"  x="9" y="8" width="1" height="1" /><rect shape-rendering="crispEdges" fill="rgb(205, 148, 16)"  x="9" y="9" width="1" height="1" /><rect shape-rendering="crispEdges" fill="rgb(255, 156, 49)"  x="9" y="16" width="1" height="1" /><rect shape-rendering="crispEdges" fill="rgb(255, 246, 180)"  x="9" y="17" width="1" height="1" /><rect shape-rendering="crispEdges" fill="rgb(16, 0, 0)"  x="9" y="18" width="1" height="1" /><rect shape-rendering="crispEdges" fill="rgb(98, 49, 0)"  x="9" y="19" width="1" height="1" /><rect shape-rendering="crispEdges" fill="rgb(131, 82, 16)"  x="9" y="20" width="1" height="1" /><rect shape-rendering="crispEdges" fill="rgb(131, 82, 16)"  x="9" y="21" width="1" height="1" /><rect shape-rendering="crispEdges" fill="rgb(74, 8, 32)"  x="9" y="22" width="1" height="1" /><rect shape-rendering="crispEdges" fill="rgb(255, 246, 180)"  x="9" y="23" width="1" height="1" /><rect shape-rendering="crispEdges" fill="rgb(255, 213, 82)"  x="9" y="24" width="1" height="1" /><rect shape-rendering="crispEdges" fill="rgb(131, 24, 16)"  x="9" y="25" width="1" height="1" /><rect shape-rendering="crispEdges" fill="rgb(255, 222, 139)"  x="10" y="0" width="1" height="1" /><rect shape-rendering="crispEdges" fill="rgb(255, 246, 156)"  x="10" y="1" width="1" height="1" /><rect shape-rendering="crispEdges" fill="rgb(255, 205, 98)"  x="10" y="2" width="1" height="1" /><rect shape-rendering="crispEdges" fill="rgb(255, 222, 139)"  x="10" y="4" width="1" height="1" /><rect shape-rendering="crispEdges" fill="rgb(255, 246, 156)"  x="10" y="5" width="1" height="1" /><rect shape-rendering="crispEdges" fill="rgb(255, 246, 156)"  x="10" y="6" width="1" height="1" /><rect shape-rendering="crispEdges" fill="rgb(255, 156, 49)"  x="10" y="7" width="1" height="1" /><rect shape-rendering="crispEdges" fill="rgb(255, 205, 123)"  x="10" y="8" width="1" height="1" /><rect shape-rendering="crispEdges" fill="rgb(205, 148, 16)"  x="10" y="9" width="1" height="1" /><rect shape-rendering="crispEdges" fill="rgb(205, 148, 16)"  x="10" y="10" width="1" height="1" /><rect shape-rendering="crispEdges" fill="rgb(222, 90, 74)"  x="10" y="16" width="1" height="1" /><rect shape-rendering="crispEdges" fill="rgb(255, 213, 82)"  x="10" y="17" width="1" height="1" /><rect shape-rendering="crispEdges" fill="rgb(16, 0, 0)"  x="10" y="18" width="1" height="1" /><rect shape-rendering="crispEdges" fill="rgb(98, 49, 0)"  x="10" y="19" width="1" height="1" /><rect shape-rendering="crispEdges" fill="rgb(98, 49, 0)"  x="10" y="20" width="1" height="1" /><rect shape-rendering="crispEdges" fill="rgb(131, 82, 16)"  x="10" y="21" width="1" height="1" /><rect shape-rendering="crispEdges" fill="rgb(74, 8, 32)"  x="10" y="22" width="1" height="1" /><rect shape-rendering="crispEdges" fill="rgb(255, 213, 82)"  x="10" y="23" width="1" height="1" /><rect shape-rendering="crispEdges" fill="rgb(255, 180, 74)"  x="10" y="24" width="1" height="1" /><rect shape-rendering="crispEdges" fill="rgb(131, 24, 16)"  x="10" y="25" width="1" height="1" /><rect shape-rendering="crispEdges" fill="rgb(255, 222, 139)"  x="11" y="0" width="1" height="1" /><rect shape-rendering="crispEdges" fill="rgb(255, 246, 156)"  x="11" y="1" width="1" height="1" /><rect shape-rendering="crispEdges" fill="rgb(255, 205, 98)"  x="11" y="2" width="1" height="1" /><rect shape-rendering="crispEdges" fill="rgb(255, 156, 49)"  x="11" y="3" width="1" height="1" /><rect shape-rendering="crispEdges" fill="rgb(255, 222, 139)"  x="11" y="5" width="1" height="1" /><rect shape-rendering="crispEdges" fill="rgb(255, 205, 123)"  x="11" y="6" width="1" height="1" /><rect shape-rendering="crispEdges" fill="rgb(197, 246, 205)"  x="11" y="7" width="1" height="1" /><rect shape-rendering="crispEdges" fill="rgb(205, 148, 16)"  x="11" y="8" width="1" height="1" /><rect shape-rendering="crispEdges" fill="rgb(90, 205, 238)"  x="11" y="9" width="1" height="1" /><rect shape-rendering="crispEdges" fill="rgb(0, 131, 189)"  x="11" y="10" width="1" height="1" /><rect shape-rendering="crispEdges" fill="rgb(222, 90, 74)"  x="11" y="15" width="1" height="1" /><rect shape-rendering="crispEdges" fill="rgb(255, 213, 82)"  x="11" y="16" width="1" height="1" /><rect shape-rendering="crispEdges" fill="rgb(222, 131, 74)"  x="11" y="17" width="1" height="1" /><rect shape-rendering="crispEdges" fill="rgb(255, 213, 82)"  x="11" y="18" width="1" height="1" /><rect shape-rendering="crispEdges" fill="rgb(16, 0, 0)"  x="11" y="19" width="1" height="1" /><rect shape-rendering="crispEdges" fill="rgb(98, 49, 0)"  x="11" y="20" width="1" height="1" /><rect shape-rendering="crispEdges" fill="rgb(98, 49, 0)"  x="11" y="21" width="1" height="1" /><rect shape-rendering="crispEdges" fill="rgb(74, 8, 32)"  x="11" y="22" width="1" height="1" /><rect shape-rendering="crispEdges" fill="rgb(255, 213, 82)"  x="11" y="23" width="1" height="1" /><rect shape-rendering="crispEdges" fill="rgb(255, 180, 74)"  x="11" y="24" width="1" height="1" /><rect shape-rendering="crispEdges" fill="rgb(131, 24, 16)"  x="11" y="25" width="1" height="1" /><rect shape-rendering="crispEdges" fill="rgb(255, 222, 139)"  x="12" y="1" width="1" height="1" /><rect shape-rendering="crispEdges" fill="rgb(255, 246, 156)"  x="12" y="2" width="1" height="1" /><rect shape-rendering="crispEdges" fill="rgb(255, 246, 156)"  x="12" y="3" width="1" height="1" /><rect shape-rendering="crispEdges" fill="rgb(255, 156, 49)"  x="12" y="4" width="1" height="1" /><rect shape-rendering="crispEdges" fill="rgb(255, 205, 123)"  x="12" y="6" width="1" height="1" /><rect shape-rendering="crispEdges" fill="rgb(197, 246, 205)"  x="12" y="7" width="1" height="1" /><rect shape-rendering="crispEdges" fill="rgb(131, 230, 255)"  x="12" y="8" width="1" height="1" /><rect shape-rendering="crispEdges" fill="rgb(90, 205, 238)"  x="12" y="9" width="1" height="1" /><rect shape-rendering="crispEdges" fill="rgb(0, 164, 213)"  x="12" y="10" width="1" height="1" /><rect shape-rendering="crispEdges" fill="rgb(222, 90, 74)"  x="12" y="14" width="1" height="1" /><rect shape-rendering="crispEdges" fill="rgb(255, 180, 74)"  x="12" y="15" width="1" height="1" /><rect shape-rendering="crispEdges" fill="rgb(222, 131, 74)"  x="12" y="16" width="1" height="1" /><rect shape-rendering="crispEdges" fill="rgb(131, 24, 16)"  x="12" y="17" width="1" height="1" /><rect shape-rendering="crispEdges" fill="rgb(222, 131, 74)"  x="12" y="18" width="1" height="1" /><rect shape-rendering="crispEdges" fill="rgb(255, 180, 74)"  x="12" y="19" width="1" height="1" /><rect shape-rendering="crispEdges" fill="rgb(16, 0, 0)"  x="12" y="20" width="1" height="1" /><rect shape-rendering="crispEdges" fill="rgb(74, 8, 32)"  x="12" y="21" width="1" height="1" /><rect shape-rendering="crispEdges" fill="rgb(255, 180, 74)"  x="12" y="22" width="1" height="1" /><rect shape-rendering="crispEdges" fill="rgb(255, 180, 74)"  x="12" y="23" width="1" height="1" /><rect shape-rendering="crispEdges" fill="rgb(255, 180, 74)"  x="12" y="24" width="1" height="1" /><rect shape-rendering="crispEdges" fill="rgb(131, 24, 16)"  x="12" y="25" width="1" height="1" /><rect shape-rendering="crispEdges" fill="rgb(255, 222, 139)"  x="13" y="2" width="1" height="1" /><rect shape-rendering="crispEdges" fill="rgb(255, 205, 123)"  x="13" y="3" width="1" height="1" /><rect shape-rendering="crispEdges" fill="rgb(255, 205, 123)"  x="13" y="4" width="1" height="1" /><rect shape-rendering="crispEdges" fill="rgb(255, 156, 49)"  x="13" y="5" width="1" height="1" /><rect shape-rendering="crispEdges" fill="rgb(205, 148, 16)"  x="13" y="7" width="1" height="1" /><rect shape-rendering="crispEdges" fill="rgb(90, 205, 238)"  x="13" y="8" width="1" height="1" /><rect shape-rendering="crispEdges" fill="rgb(90, 205, 238)"  x="13" y="9" width="1" height="1" /><rect shape-rendering="crispEdges" fill="rgb(0, 164, 213)"  x="13" y="10" width="1" height="1" /><rect shape-rendering="crispEdges" fill="rgb(0, 131, 189)"  x="13" y="11" width="1" height="1" /><rect shape-rendering="crispEdges" fill="rgb(255, 213, 82)"  x="13" y="15" width="1" height="1" /><rect shape-rendering="crispEdges" fill="rgb(131, 24, 16)"  x="13" y="16" width="1" height="1" /><rect shape-rendering="crispEdges" fill="rgb(246, 57, 222)"  x="13" y="17" width="1" height="1" /><rect shape-rendering="crispEdges" fill="rgb(131, 24, 16)"  x="13" y="18" width="1" height="1" /><rect shape-rendering="crispEdges" fill="rgb(222, 131, 74)"  x="13" y="19" width="1" height="1" /><rect shape-rendering="crispEdges" fill="rgb(222, 131, 74)"  x="13" y="20" width="1" height="1" /><rect shape-rendering="crispEdges" fill="rgb(222, 131, 74)"  x="13" y="21" width="1" height="1" /><rect shape-rendering="crispEdges" fill="rgb(222, 131, 74)"  x="13" y="22" width="1" height="1" /><rect shape-rendering="crispEdges" fill="rgb(255, 180, 90)"  x="13" y="23" width="1" height="1" /><rect shape-rendering="crispEdges" fill="rgb(131, 24, 16)"  x="13" y="24" width="1" height="1" /><rect shape-rendering="crispEdges" fill="rgb(255, 222, 139)"  x="14" y="3" width="1" height="1" /><rect shape-rendering="crispEdges" fill="rgb(255, 205, 123)"  x="14" y="4" width="1" height="1" /><rect shape-rendering="crispEdges" fill="rgb(197, 246, 205)"  x="14" y="5" width="1" height="1" /><rect shape-rendering="crispEdges" fill="rgb(197, 246, 205)"  x="14" y="6" width="1" height="1" /><rect shape-rendering="crispEdges" fill="rgb(131, 230, 255)"  x="14" y="7" width="1" height="1" /><rect shape-rendering="crispEdges" fill="rgb(131, 230, 255)"  x="14" y="8" width="1" height="1" /><rect shape-rendering="crispEdges" fill="rgb(90, 205, 238)"  x="14" y="9" width="1" height="1" /><rect shape-rendering="crispEdges" fill="rgb(0, 164, 213)"  x="14" y="10" width="1" height="1" /><rect shape-rendering="crispEdges" fill="rgb(0, 131, 189)"  x="14" y="11" width="1" height="1" /><rect shape-rendering="crispEdges" fill="rgb(0, 98, 156)"  x="14" y="12" width="1" height="1" /><rect shape-rendering="crispEdges" fill="rgb(189, 106, 32)"  x="14" y="13" width="1" height="1" /><rect shape-rendering="crispEdges" fill="rgb(197, 131, 106)"  x="14" y="14" width="1" height="1" /><rect shape-rendering="crispEdges" fill="rgb(246, 238, 246)"  x="14" y="15" width="1" height="1" /><rect shape-rendering="crispEdges" fill="rgb(131, 24, 16)"  x="14" y="17" width="1" height="1" /><rect shape-rendering="crispEdges" fill="rgb(115, 0, 131)"  x="14" y="18" width="1" height="1" /><rect shape-rendering="crispEdges" fill="rgb(115, 0, 131)"  x="14" y="19" width="1" height="1" /><rect shape-rendering="crispEdges" fill="rgb(115, 0, 131)"  x="14" y="20" width="1" height="1" /><rect shape-rendering="crispEdges" fill="rgb(115, 0, 131)"  x="14" y="21" width="1" height="1" /><rect shape-rendering="crispEdges" fill="rgb(115, 0, 131)"  x="14" y="22" width="1" height="1" /><rect shape-rendering="crispEdges" fill="rgb(131, 24, 16)"  x="14" y="23" width="1" height="1" /><rect shape-rendering="crispEdges" fill="rgb(246, 8, 222)"  x="14" y="24" width="1" height="1" /><rect shape-rendering="crispEdges" fill="rgb(255, 222, 139)"  x="15" y="4" width="1" height="1" /><rect shape-rendering="crispEdges" fill="rgb(131, 230, 255)"  x="15" y="5" width="1" height="1" /><rect shape-rendering="crispEdges" fill="rgb(131, 230, 255)"  x="15" y="6" width="1" height="1" /><rect shape-rendering="crispEdges" fill="rgb(90, 205, 238)"  x="15" y="7" width="1" height="1" /><rect shape-rendering="crispEdges" fill="rgb(90, 205, 238)"  x="15" y="8" width="1" height="1" /><rect shape-rendering="crispEdges" fill="rgb(90, 205, 238)"  x="15" y="9" width="1" height="1" /><rect shape-rendering="crispEdges" fill="rgb(90, 205, 238)"  x="15" y="10" width="1" height="1" /><rect shape-rendering="crispEdges" fill="rgb(0, 164, 213)"  x="15" y="11" width="1" height="1" /><rect shape-rendering="crispEdges" fill="rgb(0, 98, 156)"  x="15" y="12" width="1" height="1" /><rect shape-rendering="crispEdges" fill="rgb(205, 148, 255)"  x="15" y="13" width="1" height="1" /><rect shape-rendering="crispEdges" fill="rgb(197, 123, 24)"  x="15" y="14" width="1" height="1" /><rect shape-rendering="crispEdges" fill="rgb(189, 98, 0)"  x="15" y="15" width="1" height="1" /><rect shape-rendering="crispEdges" fill="rgb(172, 49, 49)"  x="15" y="16" width="1" height="1" /><rect shape-rendering="crispEdges" fill="rgb(156, 24, 172)"  x="15" y="17" width="1" height="1" /><rect shape-rendering="crispEdges" fill="rgb(255, 238, 255)"  x="15" y="18" width="1" height="1" /><rect shape-rendering="crispEdges" fill="rgb(246, 139, 255)"  x="15" y="19" width="1" height="1" /><rect shape-rendering="crispEdges" fill="rgb(205, 115, 255)"  x="15" y="20" width="1" height="1" /><rect shape-rendering="crispEdges" fill="rgb(205, 115, 255)"  x="15" y="21" width="1" height="1" /><rect shape-rendering="crispEdges" fill="rgb(197, 82, 255)"  x="15" y="22" width="1" height="1" /><rect shape-rendering="crispEdges" fill="rgb(123, 8, 123)"  x="15" y="23" width="1" height="1" /><rect shape-rendering="crispEdges" fill="rgb(115, 0, 115)"  x="15" y="24" width="1" height="1" /><rect shape-rendering="crispEdges" fill="rgb(131, 230, 255)"  x="16" y="7" width="1" height="1" /><rect shape-rendering="crispEdges" fill="rgb(131, 230, 255)"  x="16" y="8" width="1" height="1" /><rect shape-rendering="crispEdges" fill="rgb(90, 205, 238)"  x="16" y="9" width="1" height="1" /><rect shape-rendering="crispEdges" fill="rgb(90, 205, 238)"  x="16" y="10" width="1" height="1" /><rect shape-rendering="crispEdges" fill="rgb(0, 164, 213)"  x="16" y="11" width="1" height="1" /><rect shape-rendering="crispEdges" fill="rgb(0, 98, 156)"  x="16" y="12" width="1" height="1" /><rect shape-rendering="crispEdges" fill="rgb(205, 148, 255)"  x="16" y="13" width="1" height="1" /><rect shape-rendering="crispEdges" fill="rgb(189, 106, 115)"  x="16" y="14" width="1" height="1" /><rect shape-rendering="crispEdges" fill="rgb(246, 238, 246)"  x="16" y="15" width="1" height="1" /><rect shape-rendering="crispEdges" fill="rgb(131, 24, 16)"  x="16" y="17" width="1" height="1" /><rect shape-rendering="crispEdges" fill="rgb(148, 16, 156)"  x="16" y="18" width="1" height="1" /><rect shape-rendering="crispEdges" fill="rgb(148, 16, 156)"  x="16" y="19" width="1" height="1" /><rect shape-rendering="crispEdges" fill="rgb(115, 0, 131)"  x="16" y="20" width="1" height="1" /><rect shape-rendering="crispEdges" fill="rgb(115, 0, 131)"  x="16" y="21" width="1" height="1" /><rect shape-rendering="crispEdges" fill="rgb(115, 0, 131)"  x="16" y="22" width="1" height="1" /><rect shape-rendering="crispEdges" fill="rgb(131, 24, 16)"  x="16" y="23" width="1" height="1" /><rect shape-rendering="crispEdges" fill="rgb(197, 246, 205)"  x="17" y="5" width="1" height="1" /><rect shape-rendering="crispEdges" fill="rgb(131, 230, 255)"  x="17" y="6" width="1" height="1" /><rect shape-rendering="crispEdges" fill="rgb(131, 230, 255)"  x="17" y="7" width="1" height="1" /><rect shape-rendering="crispEdges" fill="rgb(90, 205, 238)"  x="17" y="8" width="1" height="1" /><rect shape-rendering="crispEdges" fill="rgb(90, 205, 238)"  x="17" y="9" width="1" height="1" /><rect shape-rendering="crispEdges" fill="rgb(0, 164, 213)"  x="17" y="10" width="1" height="1" /><rect shape-rendering="crispEdges" fill="rgb(0, 131, 189)"  x="17" y="11" width="1" height="1" /><rect shape-rendering="crispEdges" fill="rgb(0, 98, 156)"  x="17" y="12" width="1" height="1" /><rect shape-rendering="crispEdges" fill="rgb(0, 164, 213)"  x="17" y="13" width="1" height="1" /><rect shape-rendering="crispEdges" fill="rgb(222, 90, 74)"  x="17" y="14" width="1" height="1" /><rect shape-rendering="crispEdges" fill="rgb(255, 213, 82)"  x="17" y="15" width="1" height="1" /><rect shape-rendering="crispEdges" fill="rgb(131, 24, 16)"  x="17" y="16" width="1" height="1" /><rect shape-rendering="crispEdges" fill="rgb(246, 41, 230)"  x="17" y="17" width="1" height="1" /><rect shape-rendering="crispEdges" fill="rgb(131, 24, 16)"  x="17" y="18" width="1" height="1" /><rect shape-rendering="crispEdges" fill="rgb(222, 131, 74)"  x="17" y="19" width="1" height="1" /><rect shape-rendering="crispEdges" fill="rgb(222, 131, 74)"  x="17" y="20" width="1" height="1" /><rect shape-rendering="crispEdges" fill="rgb(222, 131, 74)"  x="17" y="21" width="1" height="1" /><rect shape-rendering="crispEdges" fill="rgb(222, 131, 74)"  x="17" y="22" width="1" height="1" /><rect shape-rendering="crispEdges" fill="rgb(222, 131, 74)"  x="17" y="23" width="1" height="1" /><rect shape-rendering="crispEdges" fill="rgb(131, 24, 16)"  x="17" y="24" width="1" height="1" /><rect shape-rendering="crispEdges" fill="rgb(255, 205, 123)"  x="18" y="4" width="1" height="1" /><rect shape-rendering="crispEdges" fill="rgb(255, 205, 123)"  x="18" y="5" width="1" height="1" /><rect shape-rendering="crispEdges" fill="rgb(197, 246, 205)"  x="18" y="6" width="1" height="1" /><rect shape-rendering="crispEdges" fill="rgb(197, 246, 205)"  x="18" y="7" width="1" height="1" /><rect shape-rendering="crispEdges" fill="rgb(90, 205, 238)"  x="18" y="8" width="1" height="1" /><rect shape-rendering="crispEdges" fill="rgb(90, 205, 238)"  x="18" y="9" width="1" height="1" /><rect shape-rendering="crispEdges" fill="rgb(0, 164, 213)"  x="18" y="10" width="1" height="1" /><rect shape-rendering="crispEdges" fill="rgb(0, 131, 189)"  x="18" y="11" width="1" height="1" /><rect shape-rendering="crispEdges" fill="rgb(222, 90, 74)"  x="18" y="14" width="1" height="1" /><rect shape-rendering="crispEdges" fill="rgb(255, 180, 74)"  x="18" y="15" width="1" height="1" /><rect shape-rendering="crispEdges" fill="rgb(222, 131, 74)"  x="18" y="16" width="1" height="1" /><rect shape-rendering="crispEdges" fill="rgb(131, 24, 16)"  x="18" y="17" width="1" height="1" /><rect shape-rendering="crispEdges" fill="rgb(222, 131, 74)"  x="18" y="18" width="1" height="1" /><rect shape-rendering="crispEdges" fill="rgb(255, 180, 74)"  x="18" y="19" width="1" height="1" /><rect shape-rendering="crispEdges" fill="rgb(16, 0, 0)"  x="18" y="20" width="1" height="1" /><rect shape-rendering="crispEdges" fill="rgb(74, 8, 32)"  x="18" y="21" width="1" height="1" /><rect shape-rendering="crispEdges" fill="rgb(255, 180, 74)"  x="18" y="22" width="1" height="1" /><rect shape-rendering="crispEdges" fill="rgb(255, 180, 74)"  x="18" y="23" width="1" height="1" /><rect shape-rendering="crispEdges" fill="rgb(131, 24, 16)"  x="18" y="24" width="1" height="1" /><rect shape-rendering="crispEdges" fill="rgb(255, 222, 139)"  x="19" y="3" width="1" height="1" /><rect shape-rendering="crispEdges" fill="rgb(255, 205, 123)"  x="19" y="4" width="1" height="1" /><rect shape-rendering="crispEdges" fill="rgb(255, 205, 123)"  x="19" y="5" width="1" height="1" /><rect shape-rendering="crispEdges" fill="rgb(205, 148, 16)"  x="19" y="6" width="1" height="1" /><rect shape-rendering="crispEdges" fill="rgb(205, 148, 16)"  x="19" y="7" width="1" height="1" /><rect shape-rendering="crispEdges" fill="rgb(189, 106, 24)"  x="19" y="8" width="1" height="1" /><rect shape-rendering="crispEdges" fill="rgb(131, 230, 255)"  x="19" y="9" width="1" height="1" /><rect shape-rendering="crispEdges" fill="rgb(0, 164, 213)"  x="19" y="10" width="1" height="1" /><rect shape-rendering="crispEdges" fill="rgb(222, 90, 74)"  x="19" y="15" width="1" height="1" /><rect shape-rendering="crispEdges" fill="rgb(255, 180, 74)"  x="19" y="16" width="1" height="1" /><rect shape-rendering="crispEdges" fill="rgb(255, 213, 82)"  x="19" y="17" width="1" height="1" /><rect shape-rendering="crispEdges" fill="rgb(255, 213, 82)"  x="19" y="18" width="1" height="1" /><rect shape-rendering="crispEdges" fill="rgb(16, 0, 0)"  x="19" y="19" width="1" height="1" /><rect shape-rendering="crispEdges" fill="rgb(131, 82, 16)"  x="19" y="20" width="1" height="1" /><rect shape-rendering="crispEdges" fill="rgb(131, 82, 16)"  x="19" y="21" width="1" height="1" /><rect shape-rendering="crispEdges" fill="rgb(74, 8, 32)"  x="19" y="22" width="1" height="1" /><rect shape-rendering="crispEdges" fill="rgb(255, 230, 131)"  x="19" y="23" width="1" height="1" /><rect shape-rendering="crispEdges" fill="rgb(255, 180, 74)"  x="19" y="24" width="1" height="1" /><rect shape-rendering="crispEdges" fill="rgb(131, 24, 16)"  x="19" y="25" width="1" height="1" /><rect shape-rendering="crispEdges" fill="rgb(255, 222, 139)"  x="20" y="2" width="1" height="1" /><rect shape-rendering="crispEdges" fill="rgb(255, 246, 180)"  x="20" y="3" width="1" height="1" /><rect shape-rendering="crispEdges" fill="rgb(255, 205, 123)"  x="20" y="4" width="1" height="1" /><rect shape-rendering="crispEdges" fill="rgb(205, 148, 16)"  x="20" y="5" width="1" height="1" /><rect shape-rendering="crispEdges" fill="rgb(255, 222, 139)"  x="20" y="8" width="1" height="1" /><rect shape-rendering="crispEdges" fill="rgb(131, 230, 255)"  x="20" y="9" width="1" height="1" /><rect shape-rendering="crispEdges" fill="rgb(0, 164, 213)"  x="20" y="10" width="1" height="1" /><rect shape-rendering="crispEdges" fill="rgb(222, 90, 74)"  x="20" y="16" width="1" height="1" /><rect shape-rendering="crispEdges" fill="rgb(246, 238, 246)"  x="20" y="17" width="1" height="1" /><rect shape-rendering="crispEdges" fill="rgb(16, 0, 0)"  x="20" y="18" width="1" height="1" /><rect shape-rendering="crispEdges" fill="rgb(98, 49, 0)"  x="20" y="19" width="1" height="1" /><rect shape-rendering="crispEdges" fill="rgb(131, 82, 16)"  x="20" y="20" width="1" height="1" /><rect shape-rendering="crispEdges" fill="rgb(131, 82, 16)"  x="20" y="21" width="1" height="1" /><rect shape-rendering="crispEdges" fill="rgb(74, 8, 32)"  x="20" y="22" width="1" height="1" /><rect shape-rendering="crispEdges" fill="rgb(246, 238, 246)"  x="20" y="23" width="1" height="1" /><rect shape-rendering="crispEdges" fill="rgb(255, 213, 82)"  x="20" y="24" width="1" height="1" /><rect shape-rendering="crispEdges" fill="rgb(131, 24, 16)"  x="20" y="25" width="1" height="1" /><rect shape-rendering="crispEdges" fill="rgb(255, 222, 139)"  x="21" y="2" width="1" height="1" /><rect shape-rendering="crispEdges" fill="rgb(255, 246, 180)"  x="21" y="3" width="1" height="1" /><rect shape-rendering="crispEdges" fill="rgb(205, 148, 16)"  x="21" y="4" width="1" height="1" /><rect shape-rendering="crispEdges" fill="rgb(255, 222, 139)"  x="21" y="7" width="1" height="1" /><rect shape-rendering="crispEdges" fill="rgb(255, 205, 123)"  x="21" y="8" width="1" height="1" /><rect shape-rendering="crispEdges" fill="rgb(197, 246, 205)"  x="21" y="9" width="1" height="1" /><rect shape-rendering="crispEdges" fill="rgb(222, 90, 74)"  x="21" y="16" width="1" height="1" /><rect shape-rendering="crispEdges" fill="rgb(255, 246, 180)"  x="21" y="17" width="1" height="1" /><rect shape-rendering="crispEdges" fill="rgb(16, 0, 0)"  x="21" y="18" width="1" height="1" /><rect shape-rendering="crispEdges" fill="rgb(98, 49, 0)"  x="21" y="19" width="1" height="1" /><rect shape-rendering="crispEdges" fill="rgb(98, 49, 0)"  x="21" y="20" width="1" height="1" /><rect shape-rendering="crispEdges" fill="rgb(123, 57, 8)"  x="21" y="21" width="1" height="1" /><rect shape-rendering="crispEdges" fill="rgb(74, 8, 32)"  x="21" y="22" width="1" height="1" /><rect shape-rendering="crispEdges" fill="rgb(255, 230, 131)"  x="21" y="23" width="1" height="1" /><rect shape-rendering="crispEdges" fill="rgb(255, 230, 131)"  x="21" y="24" width="1" height="1" /><rect shape-rendering="crispEdges" fill="rgb(255, 213, 82)"  x="21" y="25" width="1" height="1" /><rect shape-rendering="crispEdges" fill="rgb(131, 24, 16)"  x="21" y="26" width="1" height="1" /><rect shape-rendering="crispEdges" fill="rgb(255, 222, 139)"  x="22" y="2" width="1" height="1" /><rect shape-rendering="crispEdges" fill="rgb(255, 246, 180)"  x="22" y="3" width="1" height="1" /><rect shape-rendering="crispEdges" fill="rgb(205, 148, 16)"  x="22" y="4" width="1" height="1" /><rect shape-rendering="crispEdges" fill="rgb(255, 205, 123)"  x="22" y="7" width="1" height="1" /><rect shape-rendering="crispEdges" fill="rgb(255, 205, 123)"  x="22" y="8" width="1" height="1" /><rect shape-rendering="crispEdges" fill="rgb(197, 246, 205)"  x="22" y="9" width="1" height="1" /><rect shape-rendering="crispEdges" fill="rgb(222, 90, 74)"  x="22" y="15" width="1" height="1" /><rect shape-rendering="crispEdges" fill="rgb(255, 230, 131)"  x="22" y="16" width="1" height="1" /><rect shape-rendering="crispEdges" fill="rgb(172, 74, 16)"  x="22" y="17" width="1" height="1" /><rect shape-rendering="crispEdges" fill="rgb(74, 8, 32)"  x="22" y="18" width="1" height="1" /><rect shape-rendering="crispEdges" fill="rgb(74, 8, 32)"  x="22" y="19" width="1" height="1" /><rect shape-rendering="crispEdges" fill="rgb(74, 8, 32)"  x="22" y="20" width="1" height="1" /><rect shape-rendering="crispEdges" fill="rgb(74, 8, 32)"  x="22" y="21" width="1" height="1" /><rect shape-rendering="crispEdges" fill="rgb(255, 180, 74)"  x="22" y="22" width="1" height="1" /><rect shape-rendering="crispEdges" fill="rgb(255, 213, 82)"  x="22" y="23" width="1" height="1" /><rect shape-rendering="crispEdges" fill="rgb(255, 213, 82)"  x="22" y="24" width="1" height="1" /><rect shape-rendering="crispEdges" fill="rgb(255, 213, 82)"  x="22" y="25" width="1" height="1" /><rect shape-rendering="crispEdges" fill="rgb(131, 24, 16)"  x="22" y="26" width="1" height="1" /><rect shape-rendering="crispEdges" fill="rgb(0, 131, 189)"  x="22" y="29" width="1" height="1" /><rect shape-rendering="crispEdges" fill="rgb(0, 98, 156)"  x="22" y="30" width="1" height="1" /><rect shape-rendering="crispEdges" fill="rgb(255, 222, 139)"  x="23" y="2" width="1" height="1" /><rect shape-rendering="crispEdges" fill="rgb(255, 246, 180)"  x="23" y="3" width="1" height="1" /><rect shape-rendering="crispEdges" fill="rgb(255, 205, 123)"  x="23" y="4" width="1" height="1" /><rect shape-rendering="crispEdges" fill="rgb(255, 156, 49)"  x="23" y="5" width="1" height="1" /><rect shape-rendering="crispEdges" fill="rgb(255, 222, 139)"  x="23" y="6" width="1" height="1" /><rect shape-rendering="crispEdges" fill="rgb(255, 246, 180)"  x="23" y="7" width="1" height="1" /><rect shape-rendering="crispEdges" fill="rgb(255, 205, 123)"  x="23" y="8" width="1" height="1" /><rect shape-rendering="crispEdges" fill="rgb(255, 156, 49)"  x="23" y="9" width="1" height="1" /><rect shape-rendering="crispEdges" fill="rgb(222, 90, 74)"  x="23" y="15" width="1" height="1" /><rect shape-rendering="crispEdges" fill="rgb(255, 230, 131)"  x="23" y="16" width="1" height="1" /><rect shape-rendering="crispEdges" fill="rgb(115, 49, 32)"  x="23" y="17" width="1" height="1" /><rect shape-rendering="crispEdges" fill="rgb(255, 213, 82)"  x="23" y="18" width="1" height="1" /><rect shape-rendering="crispEdges" fill="rgb(255, 213, 82)"  x="23" y="19" width="1" height="1" /><rect shape-rendering="crispEdges" fill="rgb(255, 180, 74)"  x="23" y="20" width="1" height="1" /><rect shape-rendering="crispEdges" fill="rgb(255, 180, 74)"  x="23" y="21" width="1" height="1" /><rect shape-rendering="crispEdges" fill="rgb(255, 180, 74)"  x="23" y="22" width="1" height="1" /><rect shape-rendering="crispEdges" fill="rgb(255, 180, 74)"  x="23" y="23" width="1" height="1" /><rect shape-rendering="crispEdges" fill="rgb(255, 180, 74)"  x="23" y="24" width="1" height="1" /><rect shape-rendering="crispEdges" fill="rgb(255, 180, 74)"  x="23" y="25" width="1" height="1" /><rect shape-rendering="crispEdges" fill="rgb(131, 24, 16)"  x="23" y="26" width="1" height="1" /><rect shape-rendering="crispEdges" fill="rgb(131, 24, 16)"  x="23" y="27" width="1" height="1" /><rect shape-rendering="crispEdges" fill="rgb(131, 24, 16)"  x="23" y="28" width="1" height="1" /><rect shape-rendering="crispEdges" fill="rgb(246, 238, 246)"  x="23" y="29" width="1" height="1" /><rect shape-rendering="crispEdges" fill="rgb(90, 205, 238)"  x="23" y="30" width="1" height="1" /><rect shape-rendering="crispEdges" fill="rgb(0, 98, 156)"  x="23" y="31" width="1" height="1" /><rect shape-rendering="crispEdges" fill="rgb(255, 222, 139)"  x="24" y="3" width="1" height="1" /><rect shape-rendering="crispEdges" fill="rgb(255, 246, 180)"  x="24" y="4" width="1" height="1" /><rect shape-rendering="crispEdges" fill="rgb(255, 205, 123)"  x="24" y="5" width="1" height="1" /><rect shape-rendering="crispEdges" fill="rgb(255, 222, 139)"  x="24" y="6" width="1" height="1" /><rect shape-rendering="crispEdges" fill="rgb(255, 246, 180)"  x="24" y="7" width="1" height="1" /><rect shape-rendering="crispEdges" fill="rgb(255, 246, 180)"  x="24" y="8" width="1" height="1" /><rect shape-rendering="crispEdges" fill="rgb(255, 156, 49)"  x="24" y="9" width="1" height="1" /><rect shape-rendering="crispEdges" fill="rgb(222, 90, 74)"  x="24" y="15" width="1" height="1" /><rect shape-rendering="crispEdges" fill="rgb(255, 213, 82)"  x="24" y="16" width="1" height="1" /><rect shape-rendering="crispEdges" fill="rgb(255, 213, 82)"  x="24" y="17" width="1" height="1" /><rect shape-rendering="crispEdges" fill="rgb(255, 213, 82)"  x="24" y="18" width="1" height="1" /><rect shape-rendering="crispEdges" fill="rgb(172, 74, 16)"  x="24" y="19" width="1" height="1" /><rect shape-rendering="crispEdges" fill="rgb(172, 74, 16)"  x="24" y="20" width="1" height="1" /><rect shape-rendering="crispEdges" fill="rgb(172, 74, 16)"  x="24" y="21" width="1" height="1" /><rect shape-rendering="crispEdges" fill="rgb(172, 74, 16)"  x="24" y="22" width="1" height="1" /><rect shape-rendering="crispEdges" fill="rgb(131, 24, 16)"  x="24" y="23" width="1" height="1" /><rect shape-rendering="crispEdges" fill="rgb(131, 24, 16)"  x="24" y="24" width="1" height="1" /><rect shape-rendering="crispEdges" fill="rgb(131, 24, 16)"  x="24" y="25" width="1" height="1" /><rect shape-rendering="crispEdges" fill="rgb(0, 131, 189)"  x="24" y="28" width="1" height="1" /><rect shape-rendering="crispEdges" fill="rgb(90, 205, 238)"  x="24" y="29" width="1" height="1" /><rect shape-rendering="crispEdges" fill="rgb(90, 205, 238)"  x="24" y="30" width="1" height="1" /><rect shape-rendering="crispEdges" fill="rgb(0, 98, 156)"  x="24" y="31" width="1" height="1" /><rect shape-rendering="crispEdges" fill="rgb(255, 222, 139)"  x="25" y="4" width="1" height="1" /><rect shape-rendering="crispEdges" fill="rgb(255, 222, 139)"  x="25" y="5" width="1" height="1" /><rect shape-rendering="crispEdges" fill="rgb(255, 222, 139)"  x="25" y="6" width="1" height="1" /><rect shape-rendering="crispEdges" fill="rgb(255, 246, 180)"  x="25" y="7" width="1" height="1" /><rect shape-rendering="crispEdges" fill="rgb(255, 246, 180)"  x="25" y="8" width="1" height="1" /><rect shape-rendering="crispEdges" fill="rgb(255, 156, 49)"  x="25" y="9" width="1" height="1" /><rect shape-rendering="crispEdges" fill="rgb(189, 106, 24)"  x="25" y="13" width="1" height="1" /><rect shape-rendering="crispEdges" fill="rgb(222, 90, 74)"  x="25" y="15" width="1" height="1" /><rect shape-rendering="crispEdges" fill="rgb(255, 213, 82)"  x="25" y="16" width="1" height="1" /><rect shape-rendering="crispEdges" fill="rgb(255, 213, 82)"  x="25" y="17" width="1" height="1" /><rect shape-rendering="crispEdges" fill="rgb(172, 74, 16)"  x="25" y="18" width="1" height="1" /><rect shape-rendering="crispEdges" fill="rgb(0, 131, 189)"  x="25" y="29" width="1" height="1" /><rect shape-rendering="crispEdges" fill="rgb(0, 98, 156)"  x="25" y="30" width="1" height="1" /><rect shape-rendering="crispEdges" fill="rgb(255, 222, 139)"  x="26" y="7" width="1" height="1" /><rect shape-rendering="crispEdges" fill="rgb(255, 246, 180)"  x="26" y="8" width="1" height="1" /><rect shape-rendering="crispEdges" fill="rgb(255, 222, 139)"  x="26" y="9" width="1" height="1" /><rect shape-rendering="crispEdges" fill="rgb(255, 156, 49)"  x="26" y="10" width="1" height="1" /><rect shape-rendering="crispEdges" fill="rgb(189, 106, 24)"  x="26" y="11" width="1" height="1" /><rect shape-rendering="crispEdges" fill="rgb(189, 106, 24)"  x="26" y="12" width="1" height="1" /><rect shape-rendering="crispEdges" fill="rgb(255, 222, 139)"  x="26" y="13" width="1" height="1" /><rect shape-rendering="crispEdges" fill="rgb(222, 90, 74)"  x="26" y="15" width="1" height="1" /><rect shape-rendering="crispEdges" fill="rgb(255, 180, 90)"  x="26" y="16" width="1" height="1" /><rect shape-rendering="crispEdges" fill="rgb(255, 180, 90)"  x="26" y="17" width="1" height="1" /><rect shape-rendering="crispEdges" fill="rgb(172, 74, 16)"  x="26" y="18" width="1" height="1" /><rect shape-rendering="crispEdges" fill="rgb(255, 246, 180)"  x="27" y="8" width="1" height="1" /><rect shape-rendering="crispEdges" fill="rgb(255, 246, 180)"  x="27" y="9" width="1" height="1" /><rect shape-rendering="crispEdges" fill="rgb(255, 246, 180)"  x="27" y="10" width="1" height="1" /><rect shape-rendering="crispEdges" fill="rgb(255, 246, 180)"  x="27" y="11" width="1" height="1" /><rect shape-rendering="crispEdges" fill="rgb(255, 222, 139)"  x="27" y="12" width="1" height="1" /><rect shape-rendering="crispEdges" fill="rgb(222, 90, 74)"  x="27" y="16" width="1" height="1" /><rect shape-rendering="crispEdges" fill="rgb(255, 180, 90)"  x="27" y="17" width="1" height="1" /><rect shape-rendering="crispEdges" fill="rgb(255, 180, 90)"  x="27" y="18" width="1" height="1" /><rect shape-rendering="crispEdges" fill="rgb(172, 74, 16)"  x="27" y="19" width="1" height="1" /><rect shape-rendering="crispEdges" fill="rgb(172, 74, 16)"  x="27" y="20" width="1" height="1" /><rect shape-rendering="crispEdges" fill="rgb(172, 74, 16)"  x="27" y="22" width="1" height="1" /><rect shape-rendering="crispEdges" fill="rgb(255, 222, 139)"  x="28" y="9" width="1" height="1" /><rect shape-rendering="crispEdges" fill="rgb(255, 222, 139)"  x="28" y="10" width="1" height="1" /><rect shape-rendering="crispEdges" fill="rgb(222, 90, 74)"  x="28" y="17" width="1" height="1" /><rect shape-rendering="crispEdges" fill="rgb(222, 90, 74)"  x="28" y="18" width="1" height="1" /></svg>