<svg xmlns="http://www.w3.org/2000/svg" xmlns:xlink= "http://www.w3.org/1999/xlink" width="32" height="32" viewBox ="0 0 32 32"><rect shape-rendering="crispEdges" fill="rgb(254, 255, 168)"  x="4" y="22" width="1" height="1" /><rect shape-rendering="crispEdges" fill="rgb(254, 255, 168)"  x="5" y="23" width="1" height="1" /><rect shape-rendering="crispEdges" fill="rgb(254, 255, 168)"  x="6" y="24" width="1" height="1" /><rect shape-rendering="crispEdges" fill="rgb(254, 255, 168)"  x="7" y="8" width="1" height="1" /><rect shape-rendering="crispEdges" fill="rgb(254, 255, 168)"  x="7" y="20" width="1" height="1" /><rect shape-rendering="crispEdges" fill="rgb(254, 255, 168)"  x="7" y="25" width="1" height="1" /><rect shape-rendering="crispEdges" fill="rgb(254, 255, 168)"  x="9" y="15" width="1" height="1" /><rect shape-rendering="crispEdges" fill="rgb(254, 255, 168)"  x="9" y="18" width="1" height="1" /><rect shape-rendering="crispEdges" fill="rgb(254, 255, 168)"  x="9" y="26" width="1" height="1" /><rect shape-rendering="crispEdges" fill="rgb(255, 196, 188)"  x="11" y="15" width="1" height="1" /><rect shape-rendering="crispEdges" fill="rgb(255, 195, 187)"  x="11" y="16" width="1" height="1" /><rect shape-rendering="crispEdges" fill="rgb(255, 187, 179)"  x="11" y="17" width="1" height="1" /><rect shape-rendering="crispEdges" fill="rgb(255, 175, 142)"  x="11" y="19" width="1" height="1" /><rect shape-rendering="crispEdges" fill="rgb(254, 255, 168)"  x="11" y="23" width="1" height="1" /><rect shape-rendering="crispEdges" fill="rgb(254, 247, 168)"  x="12" y="10" width="1" height="1" /><rect shape-rendering="crispEdges" fill="rgb(255, 204, 184)"  x="12" y="11" width="1" height="1" /><rect shape-rendering="crispEdges" fill="rgb(254, 249, 170)"  x="12" y="12" width="1" height="1" /><rect shape-rendering="crispEdges" fill="rgb(236, 192, 162)"  x="12" y="13" width="1" height="1" /><rect shape-rendering="crispEdges" fill="rgb(164, 53, 92)"  x="12" y="14" width="1" height="1" /><rect shape-rendering="crispEdges" fill="rgb(167, 59, 99)"  x="12" y="15" width="1" height="1" /><rect shape-rendering="crispEdges" fill="rgb(155, 38, 81)"  x="12" y="16" width="1" height="1" /><rect shape-rendering="crispEdges" fill="rgb(152, 33, 74)"  x="12" y="17" width="1" height="1" /><rect shape-rendering="crispEdges" fill="rgb(159, 37, 74)"  x="12" y="18" width="1" height="1" /><rect shape-rendering="crispEdges" fill="rgb(166, 44, 76)"  x="12" y="19" width="1" height="1" /><rect shape-rendering="crispEdges" fill="rgb(233, 178, 132)"  x="12" y="20" width="1" height="1" /><rect shape-rendering="crispEdges" fill="rgb(254, 246, 165)"  x="12" y="21" width="1" height="1" /><rect shape-rendering="crispEdges" fill="rgb(255, 191, 184)"  x="13" y="9" width="1" height="1" /><rect shape-rendering="crispEdges" fill="rgb(243, 119, 118)"  x="13" y="10" width="1" height="1" /><rect shape-rendering="crispEdges" fill="rgb(196, 129, 114)"  x="13" y="11" width="1" height="1" /><rect shape-rendering="crispEdges" fill="rgb(247, 240, 162)"  x="13" y="12" width="1" height="1" /><rect shape-rendering="crispEdges" fill="rgb(167, 73, 92)"  x="13" y="13" width="1" height="1" /><rect shape-rendering="crispEdges" fill="rgb(141, 19, 70)"  x="13" y="14" width="1" height="1" /><rect shape-rendering="crispEdges" fill="rgb(144, 25, 75)"  x="13" y="15" width="1" height="1" /><rect shape-rendering="crispEdges" fill="rgb(158, 42, 94)"  x="13" y="16" width="1" height="1" /><rect shape-rendering="crispEdges" fill="rgb(160, 46, 96)"  x="13" y="17" width="1" height="1" /><rect shape-rendering="crispEdges" fill="rgb(160, 46, 96)"  x="13" y="18" width="1" height="1" /><rect shape-rendering="crispEdges" fill="rgb(143, 25, 74)"  x="13" y="19" width="1" height="1" /><rect shape-rendering="crispEdges" fill="rgb(166, 72, 92)"  x="13" y="20" width="1" height="1" /><rect shape-rendering="crispEdges" fill="rgb(247, 240, 162)"  x="13" y="21" width="1" height="1" /><rect shape-rendering="crispEdges" fill="rgb(203, 143, 121)"  x="13" y="22" width="1" height="1" /><rect shape-rendering="crispEdges" fill="rgb(250, 122, 115)"  x="13" y="23" width="1" height="1" /><rect shape-rendering="crispEdges" fill="rgb(255, 146, 135)"  x="13" y="24" width="1" height="1" /><rect shape-rendering="crispEdges" fill="rgb(255, 195, 187)"  x="14" y="8" width="1" height="1" /><rect shape-rendering="crispEdges" fill="rgb(233, 115, 126)"  x="14" y="9" width="1" height="1" /><rect shape-rendering="crispEdges" fill="rgb(142, 23, 73)"  x="14" y="10" width="1" height="1" /><rect shape-rendering="crispEdges" fill="rgb(142, 20, 71)"  x="14" y="11" width="1" height="1" /><rect shape-rendering="crispEdges" fill="rgb(141, 19, 70)"  x="14" y="12" width="1" height="1" /><rect shape-rendering="crispEdges" fill="rgb(151, 35, 84)"  x="14" y="13" width="1" height="1" /><rect shape-rendering="crispEdges" fill="rgb(169, 56, 108)"  x="14" y="14" width="1" height="1" /><rect shape-rendering="crispEdges" fill="rgb(170, 62, 111)"  x="14" y="15" width="1" height="1" /><rect shape-rendering="crispEdges" fill="rgb(209, 82, 62)"  x="14" y="16" width="1" height="1" /><rect shape-rendering="crispEdges" fill="rgb(249, 123, 43)"  x="14" y="17" width="1" height="1" /><rect shape-rendering="crispEdges" fill="rgb(210, 83, 63)"  x="14" y="18" width="1" height="1" /><rect shape-rendering="crispEdges" fill="rgb(160, 46, 96)"  x="14" y="19" width="1" height="1" /><rect shape-rendering="crispEdges" fill="rgb(146, 28, 79)"  x="14" y="20" width="1" height="1" /><rect shape-rendering="crispEdges" fill="rgb(142, 24, 73)"  x="14" y="21" width="1" height="1" /><rect shape-rendering="crispEdges" fill="rgb(141, 21, 71)"  x="14" y="22" width="1" height="1" /><rect shape-rendering="crispEdges" fill="rgb(141, 19, 70)"  x="14" y="23" width="1" height="1" /><rect shape-rendering="crispEdges" fill="rgb(242, 115, 119)"  x="14" y="24" width="1" height="1" /><rect shape-rendering="crispEdges" fill="rgb(255, 175, 168)"  x="15" y="8" width="1" height="1" /><rect shape-rendering="crispEdges" fill="rgb(219, 111, 120)"  x="15" y="9" width="1" height="1" /><rect shape-rendering="crispEdges" fill="rgb(145, 25, 75)"  x="15" y="10" width="1" height="1" /><rect shape-rendering="crispEdges" fill="rgb(142, 23, 73)"  x="15" y="11" width="1" height="1" /><rect shape-rendering="crispEdges" fill="rgb(142, 23, 73)"  x="15" y="12" width="1" height="1" /><rect shape-rendering="crispEdges" fill="rgb(172, 64, 113)"  x="15" y="13" width="1" height="1" /><rect shape-rendering="crispEdges" fill="rgb(172, 64, 113)"  x="15" y="14" width="1" height="1" /><rect shape-rendering="crispEdges" fill="rgb(176, 65, 114)"  x="15" y="15" width="1" height="1" /><rect shape-rendering="crispEdges" fill="rgb(255, 154, 50)"  x="15" y="16" width="1" height="1" /><rect shape-rendering="crispEdges" fill="rgb(255, 154, 50)"  x="15" y="17" width="1" height="1" /><rect shape-rendering="crispEdges" fill="rgb(255, 154, 50)"  x="15" y="18" width="1" height="1" /><rect shape-rendering="crispEdges" fill="rgb(173, 65, 112)"  x="15" y="19" width="1" height="1" /><rect shape-rendering="crispEdges" fill="rgb(167, 54, 103)"  x="15" y="20" width="1" height="1" /><rect shape-rendering="crispEdges" fill="rgb(157, 44, 92)"  x="15" y="21" width="1" height="1" /><rect shape-rendering="crispEdges" fill="rgb(145, 26, 76)"  x="15" y="22" width="1" height="1" /><rect shape-rendering="crispEdges" fill="rgb(149, 31, 77)"  x="15" y="23" width="1" height="1" /><rect shape-rendering="crispEdges" fill="rgb(150, 31, 75)"  x="15" y="24" width="1" height="1" /><rect shape-rendering="crispEdges" fill="rgb(255, 151, 146)"  x="15" y="25" width="1" height="1" /><rect shape-rendering="crispEdges" fill="rgb(255, 62, 41)"  x="16" y="8" width="1" height="1" /><rect shape-rendering="crispEdges" fill="rgb(255, 170, 159)"  x="16" y="9" width="1" height="1" /><rect shape-rendering="crispEdges" fill="rgb(236, 118, 124)"  x="16" y="10" width="1" height="1" /><rect shape-rendering="crispEdges" fill="rgb(148, 28, 77)"  x="16" y="11" width="1" height="1" /><rect shape-rendering="crispEdges" fill="rgb(145, 27, 76)"  x="16" y="12" width="1" height="1" /><rect shape-rendering="crispEdges" fill="rgb(171, 59, 111)"  x="16" y="13" width="1" height="1" /><rect shape-rendering="crispEdges" fill="rgb(178, 65, 117)"  x="16" y="14" width="1" height="1" /><rect shape-rendering="crispEdges" fill="rgb(179, 67, 118)"  x="16" y="15" width="1" height="1" /><rect shape-rendering="crispEdges" fill="rgb(234, 108, 50)"  x="16" y="16" width="1" height="1" /><rect shape-rendering="crispEdges" fill="rgb(255, 149, 46)"  x="16" y="17" width="1" height="1" /><rect shape-rendering="crispEdges" fill="rgb(223, 94, 54)"  x="16" y="18" width="1" height="1" /><rect shape-rendering="crispEdges" fill="rgb(178, 65, 117)"  x="16" y="19" width="1" height="1" /><rect shape-rendering="crispEdges" fill="rgb(169, 57, 109)"  x="16" y="20" width="1" height="1" /><rect shape-rendering="crispEdges" fill="rgb(161, 47, 97)"  x="16" y="21" width="1" height="1" /><rect shape-rendering="crispEdges" fill="rgb(160, 46, 90)"  x="16" y="22" width="1" height="1" /><rect shape-rendering="crispEdges" fill="rgb(178, 72, 105)"  x="16" y="23" width="1" height="1" /><rect shape-rendering="crispEdges" fill="rgb(255, 161, 154)"  x="16" y="24" width="1" height="1" /><rect shape-rendering="crispEdges" fill="rgb(255, 96, 80)"  x="16" y="25" width="1" height="1" /><rect shape-rendering="crispEdges" fill="rgb(253, 60, 41)"  x="17" y="9" width="1" height="1" /><rect shape-rendering="crispEdges" fill="rgb(255, 169, 158)"  x="17" y="10" width="1" height="1" /><rect shape-rendering="crispEdges" fill="rgb(255, 150, 141)"  x="17" y="11" width="1" height="1" /><rect shape-rendering="crispEdges" fill="rgb(174, 65, 96)"  x="17" y="12" width="1" height="1" /><rect shape-rendering="crispEdges" fill="rgb(160, 46, 96)"  x="17" y="13" width="1" height="1" /><rect shape-rendering="crispEdges" fill="rgb(178, 67, 116)"  x="17" y="14" width="1" height="1" /><rect shape-rendering="crispEdges" fill="rgb(180, 71, 120)"  x="17" y="15" width="1" height="1" /><rect shape-rendering="crispEdges" fill="rgb(151, 34, 83)"  x="17" y="16" width="1" height="1" /><rect shape-rendering="crispEdges" fill="rgb(155, 39, 91)"  x="17" y="17" width="1" height="1" /><rect shape-rendering="crispEdges" fill="rgb(144, 26, 74)"  x="17" y="18" width="1" height="1" /><rect shape-rendering="crispEdges" fill="rgb(176, 65, 114)"  x="17" y="19" width="1" height="1" /><rect shape-rendering="crispEdges" fill="rgb(174, 62, 111)"  x="17" y="20" width="1" height="1" /><rect shape-rendering="crispEdges" fill="rgb(176, 68, 109)"  x="17" y="21" width="1" height="1" /><rect shape-rendering="crispEdges" fill="rgb(190, 89, 116)"  x="17" y="22" width="1" height="1" /><rect shape-rendering="crispEdges" fill="rgb(255, 158, 151)"  x="17" y="23" width="1" height="1" /><rect shape-rendering="crispEdges" fill="rgb(255, 95, 79)"  x="17" y="24" width="1" height="1" /><rect shape-rendering="crispEdges" fill="rgb(255, 41, 19)"  x="18" y="10" width="1" height="1" /><rect shape-rendering="crispEdges" fill="rgb(255, 92, 73)"  x="18" y="11" width="1" height="1" /><rect shape-rendering="crispEdges" fill="rgb(255, 169, 159)"  x="18" y="12" width="1" height="1" /><rect shape-rendering="crispEdges" fill="rgb(255, 172, 161)"  x="18" y="13" width="1" height="1" /><rect shape-rendering="crispEdges" fill="rgb(255, 182, 173)"  x="18" y="14" width="1" height="1" /><rect shape-rendering="crispEdges" fill="rgb(255, 182, 172)"  x="18" y="15" width="1" height="1" /><rect shape-rendering="crispEdges" fill="rgb(255, 175, 166)"  x="18" y="16" width="1" height="1" /><rect shape-rendering="crispEdges" fill="rgb(255, 165, 155)"  x="18" y="17" width="1" height="1" /><rect shape-rendering="crispEdges" fill="rgb(255, 151, 141)"  x="18" y="18" width="1" height="1" /><rect shape-rendering="crispEdges" fill="rgb(255, 145, 135)"  x="18" y="19" width="1" height="1" /><rect shape-rendering="crispEdges" fill="rgb(255, 141, 128)"  x="18" y="20" width="1" height="1" /><rect shape-rendering="crispEdges" fill="rgb(255, 135, 122)"  x="18" y="21" width="1" height="1" /><rect shape-rendering="crispEdges" fill="rgb(255, 134, 120)"  x="18" y="22" width="1" height="1" /><rect shape-rendering="crispEdges" fill="rgb(251, 60, 44)"  x="18" y="23" width="1" height="1" /><rect shape-rendering="crispEdges" fill="rgb(238, 27, 6)"  x="18" y="24" width="1" height="1" /><rect shape-rendering="crispEdges" fill="rgb(255, 53, 29)"  x="19" y="11" width="1" height="1" /><rect shape-rendering="crispEdges" fill="rgb(255, 85, 65)"  x="19" y="12" width="1" height="1" /><rect shape-rendering="crispEdges" fill="rgb(255, 112, 94)"  x="19" y="13" width="1" height="1" /><rect shape-rendering="crispEdges" fill="rgb(255, 112, 94)"  x="19" y="14" width="1" height="1" /><rect shape-rendering="crispEdges" fill="rgb(255, 91, 71)"  x="19" y="15" width="1" height="1" /><rect shape-rendering="crispEdges" fill="rgb(255, 88, 69)"  x="19" y="16" width="1" height="1" /><rect shape-rendering="crispEdges" fill="rgb(255, 81, 63)"  x="19" y="17" width="1" height="1" /><rect shape-rendering="crispEdges" fill="rgb(255, 69, 50)"  x="19" y="18" width="1" height="1" /><rect shape-rendering="crispEdges" fill="rgb(255, 37, 17)"  x="19" y="19" width="1" height="1" /><rect shape-rendering="crispEdges" fill="rgb(246, 26, 4)"  x="19" y="20" width="1" height="1" /><rect shape-rendering="crispEdges" fill="rgb(243, 24, 3)"  x="19" y="21" width="1" height="1" /><rect shape-rendering="crispEdges" fill="rgb(243, 25, 3)"  x="19" y="22" width="1" height="1" /><rect shape-rendering="crispEdges" fill="rgb(240, 23, 3)"  x="19" y="23" width="1" height="1" /><rect shape-rendering="crispEdges" fill="rgb(255, 58, 35)"  x="20" y="12" width="1" height="1" /><rect shape-rendering="crispEdges" fill="rgb(255, 80, 60)"  x="20" y="13" width="1" height="1" /><rect shape-rendering="crispEdges" fill="rgb(255, 99, 80)"  x="20" y="14" width="1" height="1" /><rect shape-rendering="crispEdges" fill="rgb(255, 93, 74)"  x="20" y="15" width="1" height="1" /><rect shape-rendering="crispEdges" fill="rgb(255, 68, 48)"  x="20" y="16" width="1" height="1" /><rect shape-rendering="crispEdges" fill="rgb(255, 68, 49)"  x="20" y="17" width="1" height="1" /><rect shape-rendering="crispEdges" fill="rgb(255, 61, 40)"  x="20" y="18" width="1" height="1" /><rect shape-rendering="crispEdges" fill="rgb(255, 33, 10)"  x="20" y="19" width="1" height="1" /><rect shape-rendering="crispEdges" fill="rgb(250, 25, 4)"  x="20" y="20" width="1" height="1" /><rect shape-rendering="crispEdges" fill="rgb(242, 23, 2)"  x="20" y="21" width="1" height="1" /><rect shape-rendering="crispEdges" fill="rgb(241, 23, 3)"  x="20" y="22" width="1" height="1" /><rect shape-rendering="crispEdges" fill="rgb(255, 39, 15)"  x="21" y="12" width="1" height="1" /><rect shape-rendering="crispEdges" fill="rgb(255, 49, 26)"  x="21" y="13" width="1" height="1" /><rect shape-rendering="crispEdges" fill="rgb(255, 87, 66)"  x="21" y="14" width="1" height="1" /><rect shape-rendering="crispEdges" fill="rgb(255, 98, 79)"  x="21" y="15" width="1" height="1" /><rect shape-rendering="crispEdges" fill="rgb(255, 77, 55)"  x="21" y="16" width="1" height="1" /><rect shape-rendering="crispEdges" fill="rgb(255, 64, 42)"  x="21" y="17" width="1" height="1" /><rect shape-rendering="crispEdges" fill="rgb(255, 38, 14)"  x="21" y="18" width="1" height="1" /><rect shape-rendering="crispEdges" fill="rgb(255, 27, 5)"  x="21" y="19" width="1" height="1" /><rect shape-rendering="crispEdges" fill="rgb(250, 28, 5)"  x="21" y="20" width="1" height="1" /><rect shape-rendering="crispEdges" fill="rgb(240, 22, 3)"  x="21" y="21" width="1" height="1" /><rect shape-rendering="crispEdges" fill="rgb(243, 24, 3)"  x="21" y="22" width="1" height="1" /><rect shape-rendering="crispEdges" fill="rgb(255, 49, 25)"  x="22" y="13" width="1" height="1" /><rect shape-rendering="crispEdges" fill="rgb(255, 56, 32)"  x="22" y="14" width="1" height="1" /><rect shape-rendering="crispEdges" fill="rgb(255, 91, 72)"  x="22" y="15" width="1" height="1" /><rect shape-rendering="crispEdges" fill="rgb(255, 88, 68)"  x="22" y="16" width="1" height="1" /><rect shape-rendering="crispEdges" fill="rgb(255, 72, 48)"  x="22" y="17" width="1" height="1" /><rect shape-rendering="crispEdges" fill="rgb(255, 41, 20)"  x="22" y="18" width="1" height="1" /><rect shape-rendering="crispEdges" fill="rgb(255, 30, 6)"  x="22" y="19" width="1" height="1" /><rect shape-rendering="crispEdges" fill="rgb(246, 26, 3)"  x="22" y="20" width="1" height="1" /><rect shape-rendering="crispEdges" fill="rgb(243, 24, 3)"  x="22" y="21" width="1" height="1" /><rect shape-rendering="crispEdges" fill="rgb(255, 47, 24)"  x="23" y="14" width="1" height="1" /><rect shape-rendering="crispEdges" fill="rgb(255, 71, 49)"  x="23" y="15" width="1" height="1" /><rect shape-rendering="crispEdges" fill="rgb(255, 83, 64)"  x="23" y="16" width="1" height="1" /><rect shape-rendering="crispEdges" fill="rgb(255, 73, 51)"  x="23" y="17" width="1" height="1" /><rect shape-rendering="crispEdges" fill="rgb(255, 43, 19)"  x="23" y="18" width="1" height="1" /><rect shape-rendering="crispEdges" fill="rgb(246, 26, 4)"  x="23" y="19" width="1" height="1" /><rect shape-rendering="crispEdges" fill="rgb(244, 24, 3)"  x="23" y="20" width="1" height="1" /><rect shape-rendering="crispEdges" fill="rgb(255, 46, 21)"  x="24" y="15" width="1" height="1" /><rect shape-rendering="crispEdges" fill="rgb(255, 81, 61)"  x="24" y="16" width="1" height="1" /><rect shape-rendering="crispEdges" fill="rgb(255, 75, 55)"  x="24" y="17" width="1" height="1" /><rect shape-rendering="crispEdges" fill="rgb(255, 37, 13)"  x="24" y="18" width="1" height="1" /><rect shape-rendering="crispEdges" fill="rgb(242, 23, 2)"  x="24" y="19" width="1" height="1" /><rect shape-rendering="crispEdges" fill="rgb(255, 48, 25)"  x="25" y="15" width="1" height="1" /><rect shape-rendering="crispEdges" fill="rgb(255, 75, 55)"  x="25" y="16" width="1" height="1" /><rect shape-rendering="crispEdges" fill="rgb(255, 74, 51)"  x="25" y="17" width="1" height="1" /><rect shape-rendering="crispEdges" fill="rgb(255, 29, 6)"  x="25" y="18" width="1" height="1" /><rect shape-rendering="crispEdges" fill="rgb(242, 24, 2)"  x="25" y="19" width="1" height="1" /><rect shape-rendering="crispEdges" fill="rgb(255, 53, 29)"  x="26" y="15" width="1" height="1" /><rect shape-rendering="crispEdges" fill="rgb(255, 110, 92)"  x="26" y="16" width="1" height="1" /><rect shape-rendering="crispEdges" fill="rgb(255, 69, 47)"  x="26" y="17" width="1" height="1" /><rect shape-rendering="crispEdges" fill="rgb(246, 26, 3)"  x="26" y="18" width="1" height="1" /><rect shape-rendering="crispEdges" fill="rgb(246, 25, 3)"  x="26" y="19" width="1" height="1" /><rect shape-rendering="crispEdges" fill="rgb(255, 47, 24)"  x="27" y="14" width="1" height="1" /><rect shape-rendering="crispEdges" fill="rgb(255, 109, 93)"  x="27" y="15" width="1" height="1" /><rect shape-rendering="crispEdges" fill="rgb(255, 143, 131)"  x="27" y="16" width="1" height="1" /><rect shape-rendering="crispEdges" fill="rgb(255, 83, 63)"  x="27" y="17" width="1" height="1" /><rect shape-rendering="crispEdges" fill="rgb(255, 31, 8)"  x="27" y="18" width="1" height="1" /><rect shape-rendering="crispEdges" fill="rgb(244, 24, 3)"  x="27" y="19" width="1" height="1" /><rect shape-rendering="crispEdges" fill="rgb(255, 163, 154)"  x="28" y="15" width="1" height="1" /><rect shape-rendering="crispEdges" fill="rgb(255, 119, 104)"  x="28" y="16" width="1" height="1" /><rect shape-rendering="crispEdges" fill="rgb(255, 78, 57)"  x="28" y="17" width="1" height="1" /><rect shape-rendering="crispEdges" fill="rgb(255, 44, 20)"  x="28" y="18" width="1" height="1" /><rect shape-rendering="crispEdges" fill="rgb(247, 22, 2)"  x="28" y="19" width="1" height="1" /><rect shape-rendering="crispEdges" fill="rgb(251, 28, 3)"  x="28" y="20" width="1" height="1" /><rect shape-rendering="crispEdges" fill="rgb(255, 53, 28)"  x="29" y="18" width="1" height="1" /></svg>