<svg xmlns="http://www.w3.org/2000/svg" xmlns:xlink= "http://www.w3.org/1999/xlink" width="32" height="32" viewBox ="0 0 32 32"><rect shape-rendering="crispEdges" fill="rgb(177, 177, 177)"  x="1" y="13" width="1" height="1" /><rect shape-rendering="crispEdges" fill="rgb(177, 177, 177)"  x="1" y="14" width="1" height="1" /><rect shape-rendering="crispEdges" fill="rgb(177, 177, 177)"  x="2" y="10" width="1" height="1" /><rect shape-rendering="crispEdges" fill="rgb(177, 177, 177)"  x="2" y="11" width="1" height="1" /><rect shape-rendering="crispEdges" fill="rgb(177, 177, 177)"  x="2" y="12" width="1" height="1" /><rect shape-rendering="crispEdges" fill="rgb(207, 207, 207)"  x="2" y="13" width="1" height="1" /><rect shape-rendering="crispEdges" fill="rgb(181, 181, 181)"  x="2" y="14" width="1" height="1" /><rect shape-rendering="crispEdges" fill="rgb(177, 177, 177)"  x="2" y="15" width="1" height="1" /><rect shape-rendering="crispEdges" fill="rgb(177, 177, 177)"  x="2" y="16" width="1" height="1" /><rect shape-rendering="crispEdges" fill="rgb(177, 177, 177)"  x="2" y="17" width="1" height="1" /><rect shape-rendering="crispEdges" fill="rgb(177, 177, 177)"  x="2" y="18" width="1" height="1" /><rect shape-rendering="crispEdges" fill="rgb(177, 177, 177)"  x="2" y="19" width="1" height="1" /><rect shape-rendering="crispEdges" fill="rgb(177, 177, 177)"  x="2" y="20" width="1" height="1" /><rect shape-rendering="crispEdges" fill="rgb(177, 177, 177)"  x="2" y="21" width="1" height="1" /><rect shape-rendering="crispEdges" fill="rgb(177, 177, 177)"  x="2" y="22" width="1" height="1" /><rect shape-rendering="crispEdges" fill="rgb(177, 177, 177)"  x="3" y="8" width="1" height="1" /><rect shape-rendering="crispEdges" fill="rgb(177, 177, 177)"  x="3" y="9" width="1" height="1" /><rect shape-rendering="crispEdges" fill="rgb(207, 207, 207)"  x="3" y="10" width="1" height="1" /><rect shape-rendering="crispEdges" fill="rgb(255, 255, 255)"  x="3" y="11" width="1" height="1" /><rect shape-rendering="crispEdges" fill="rgb(244, 244, 244)"  x="3" y="12" width="1" height="1" /><rect shape-rendering="crispEdges" fill="rgb(217, 217, 217)"  x="3" y="13" width="1" height="1" /><rect shape-rendering="crispEdges" fill="rgb(220, 220, 220)"  x="3" y="14" width="1" height="1" /><rect shape-rendering="crispEdges" fill="rgb(255, 255, 255)"  x="3" y="15" width="1" height="1" /><rect shape-rendering="crispEdges" fill="rgb(255, 255, 255)"  x="3" y="16" width="1" height="1" /><rect shape-rendering="crispEdges" fill="rgb(254, 254, 254)"  x="3" y="17" width="1" height="1" /><rect shape-rendering="crispEdges" fill="rgb(251, 251, 251)"  x="3" y="18" width="1" height="1" /><rect shape-rendering="crispEdges" fill="rgb(255, 255, 255)"  x="3" y="19" width="1" height="1" /><rect shape-rendering="crispEdges" fill="rgb(255, 255, 255)"  x="3" y="20" width="1" height="1" /><rect shape-rendering="crispEdges" fill="rgb(250, 250, 250)"  x="3" y="21" width="1" height="1" /><rect shape-rendering="crispEdges" fill="rgb(183, 183, 183)"  x="3" y="22" width="1" height="1" /><rect shape-rendering="crispEdges" fill="rgb(177, 177, 177)"  x="3" y="23" width="1" height="1" /><rect shape-rendering="crispEdges" fill="rgb(177, 177, 177)"  x="4" y="4" width="1" height="1" /><rect shape-rendering="crispEdges" fill="rgb(177, 177, 177)"  x="4" y="5" width="1" height="1" /><rect shape-rendering="crispEdges" fill="rgb(177, 177, 177)"  x="4" y="6" width="1" height="1" /><rect shape-rendering="crispEdges" fill="rgb(177, 177, 177)"  x="4" y="7" width="1" height="1" /><rect shape-rendering="crispEdges" fill="rgb(209, 209, 209)"  x="4" y="8" width="1" height="1" /><rect shape-rendering="crispEdges" fill="rgb(243, 243, 243)"  x="4" y="9" width="1" height="1" /><rect shape-rendering="crispEdges" fill="rgb(238, 238, 238)"  x="4" y="10" width="1" height="1" /><rect shape-rendering="crispEdges" fill="rgb(231, 231, 231)"  x="4" y="11" width="1" height="1" /><rect shape-rendering="crispEdges" fill="rgb(232, 232, 232)"  x="4" y="12" width="1" height="1" /><rect shape-rendering="crispEdges" fill="rgb(244, 244, 244)"  x="4" y="13" width="1" height="1" /><rect shape-rendering="crispEdges" fill="rgb(231, 231, 231)"  x="4" y="14" width="1" height="1" /><rect shape-rendering="crispEdges" fill="rgb(235, 235, 235)"  x="4" y="15" width="1" height="1" /><rect shape-rendering="crispEdges" fill="rgb(245, 245, 245)"  x="4" y="16" width="1" height="1" /><rect shape-rendering="crispEdges" fill="rgb(243, 243, 243)"  x="4" y="17" width="1" height="1" /><rect shape-rendering="crispEdges" fill="rgb(235, 235, 235)"  x="4" y="18" width="1" height="1" /><rect shape-rendering="crispEdges" fill="rgb(230, 230, 230)"  x="4" y="19" width="1" height="1" /><rect shape-rendering="crispEdges" fill="rgb(245, 245, 245)"  x="4" y="20" width="1" height="1" /><rect shape-rendering="crispEdges" fill="rgb(255, 255, 255)"  x="4" y="21" width="1" height="1" /><rect shape-rendering="crispEdges" fill="rgb(255, 255, 255)"  x="4" y="22" width="1" height="1" /><rect shape-rendering="crispEdges" fill="rgb(209, 209, 209)"  x="4" y="23" width="1" height="1" /><rect shape-rendering="crispEdges" fill="rgb(177, 177, 177)"  x="4" y="24" width="1" height="1" /><rect shape-rendering="crispEdges" fill="rgb(177, 177, 177)"  x="4" y="25" width="1" height="1" /><rect shape-rendering="crispEdges" fill="rgb(177, 177, 177)"  x="5" y="4" width="1" height="1" /><rect shape-rendering="crispEdges" fill="rgb(251, 251, 251)"  x="5" y="5" width="1" height="1" /><rect shape-rendering="crispEdges" fill="rgb(255, 255, 255)"  x="5" y="6" width="1" height="1" /><rect shape-rendering="crispEdges" fill="rgb(230, 230, 230)"  x="5" y="7" width="1" height="1" /><rect shape-rendering="crispEdges" fill="rgb(208, 208, 208)"  x="5" y="8" width="1" height="1" /><rect shape-rendering="crispEdges" fill="rgb(230, 230, 230)"  x="5" y="9" width="1" height="1" /><rect shape-rendering="crispEdges" fill="rgb(225, 225, 225)"  x="5" y="10" width="1" height="1" /><rect shape-rendering="crispEdges" fill="rgb(218, 218, 218)"  x="5" y="11" width="1" height="1" /><rect shape-rendering="crispEdges" fill="rgb(241, 241, 241)"  x="5" y="12" width="1" height="1" /><rect shape-rendering="crispEdges" fill="rgb(254, 254, 254)"  x="5" y="13" width="1" height="1" /><rect shape-rendering="crispEdges" fill="rgb(235, 235, 235)"  x="5" y="14" width="1" height="1" /><rect shape-rendering="crispEdges" fill="rgb(217, 217, 217)"  x="5" y="15" width="1" height="1" /><rect shape-rendering="crispEdges" fill="rgb(245, 245, 245)"  x="5" y="16" width="1" height="1" /><rect shape-rendering="crispEdges" fill="rgb(255, 255, 255)"  x="5" y="17" width="1" height="1" /><rect shape-rendering="crispEdges" fill="rgb(242, 242, 242)"  x="5" y="18" width="1" height="1" /><rect shape-rendering="crispEdges" fill="rgb(221, 221, 221)"  x="5" y="19" width="1" height="1" /><rect shape-rendering="crispEdges" fill="rgb(230, 230, 230)"  x="5" y="20" width="1" height="1" /><rect shape-rendering="crispEdges" fill="rgb(247, 247, 247)"  x="5" y="21" width="1" height="1" /><rect shape-rendering="crispEdges" fill="rgb(236, 236, 236)"  x="5" y="22" width="1" height="1" /><rect shape-rendering="crispEdges" fill="rgb(234, 234, 234)"  x="5" y="23" width="1" height="1" /><rect shape-rendering="crispEdges" fill="rgb(254, 254, 254)"  x="5" y="24" width="1" height="1" /><rect shape-rendering="crispEdges" fill="rgb(207, 207, 207)"  x="5" y="25" width="1" height="1" /><rect shape-rendering="crispEdges" fill="rgb(177, 177, 177)"  x="5" y="26" width="1" height="1" /><rect shape-rendering="crispEdges" fill="rgb(177, 177, 177)"  x="5" y="27" width="1" height="1" /><rect shape-rendering="crispEdges" fill="rgb(177, 177, 177)"  x="6" y="3" width="1" height="1" /><rect shape-rendering="crispEdges" fill="rgb(209, 209, 209)"  x="6" y="4" width="1" height="1" /><rect shape-rendering="crispEdges" fill="rgb(225, 225, 225)"  x="6" y="5" width="1" height="1" /><rect shape-rendering="crispEdges" fill="rgb(235, 235, 235)"  x="6" y="6" width="1" height="1" /><rect shape-rendering="crispEdges" fill="rgb(223, 223, 223)"  x="6" y="7" width="1" height="1" /><rect shape-rendering="crispEdges" fill="rgb(227, 227, 227)"  x="6" y="8" width="1" height="1" /><rect shape-rendering="crispEdges" fill="rgb(248, 248, 248)"  x="6" y="9" width="1" height="1" /><rect shape-rendering="crispEdges" fill="rgb(231, 231, 231)"  x="6" y="10" width="1" height="1" /><rect shape-rendering="crispEdges" fill="rgb(214, 214, 214)"  x="6" y="11" width="1" height="1" /><rect shape-rendering="crispEdges" fill="rgb(225, 225, 225)"  x="6" y="12" width="1" height="1" /><rect shape-rendering="crispEdges" fill="rgb(245, 245, 245)"  x="6" y="13" width="1" height="1" /><rect shape-rendering="crispEdges" fill="rgb(252, 252, 252)"  x="6" y="14" width="1" height="1" /><rect shape-rendering="crispEdges" fill="rgb(239, 239, 239)"  x="6" y="15" width="1" height="1" /><rect shape-rendering="crispEdges" fill="rgb(226, 226, 226)"  x="6" y="16" width="1" height="1" /><rect shape-rendering="crispEdges" fill="rgb(233, 233, 233)"  x="6" y="17" width="1" height="1" /><rect shape-rendering="crispEdges" fill="rgb(250, 250, 250)"  x="6" y="18" width="1" height="1" /><rect shape-rendering="crispEdges" fill="rgb(243, 243, 243)"  x="6" y="19" width="1" height="1" /><rect shape-rendering="crispEdges" fill="rgb(231, 231, 231)"  x="6" y="20" width="1" height="1" /><rect shape-rendering="crispEdges" fill="rgb(243, 243, 243)"  x="6" y="21" width="1" height="1" /><rect shape-rendering="crispEdges" fill="rgb(249, 249, 249)"  x="6" y="22" width="1" height="1" /><rect shape-rendering="crispEdges" fill="rgb(235, 235, 235)"  x="6" y="23" width="1" height="1" /><rect shape-rendering="crispEdges" fill="rgb(245, 245, 245)"  x="6" y="24" width="1" height="1" /><rect shape-rendering="crispEdges" fill="rgb(247, 247, 247)"  x="6" y="25" width="1" height="1" /><rect shape-rendering="crispEdges" fill="rgb(243, 243, 243)"  x="6" y="26" width="1" height="1" /><rect shape-rendering="crispEdges" fill="rgb(207, 207, 207)"  x="6" y="27" width="1" height="1" /><rect shape-rendering="crispEdges" fill="rgb(177, 177, 177)"  x="6" y="28" width="1" height="1" /><rect shape-rendering="crispEdges" fill="rgb(177, 177, 177)"  x="6" y="29" width="1" height="1" /><rect shape-rendering="crispEdges" fill="rgb(177, 177, 177)"  x="7" y="2" width="1" height="1" /><rect shape-rendering="crispEdges" fill="rgb(207, 207, 207)"  x="7" y="3" width="1" height="1" /><rect shape-rendering="crispEdges" fill="rgb(212, 212, 212)"  x="7" y="4" width="1" height="1" /><rect shape-rendering="crispEdges" fill="rgb(226, 226, 226)"  x="7" y="5" width="1" height="1" /><rect shape-rendering="crispEdges" fill="rgb(234, 234, 234)"  x="7" y="6" width="1" height="1" /><rect shape-rendering="crispEdges" fill="rgb(230, 230, 230)"  x="7" y="7" width="1" height="1" /><rect shape-rendering="crispEdges" fill="rgb(237, 237, 237)"  x="7" y="8" width="1" height="1" /><rect shape-rendering="crispEdges" fill="rgb(242, 242, 242)"  x="7" y="9" width="1" height="1" /><rect shape-rendering="crispEdges" fill="rgb(248, 248, 248)"  x="7" y="10" width="1" height="1" /><rect shape-rendering="crispEdges" fill="rgb(226, 226, 226)"  x="7" y="11" width="1" height="1" /><rect shape-rendering="crispEdges" fill="rgb(216, 216, 216)"  x="7" y="12" width="1" height="1" /><rect shape-rendering="crispEdges" fill="rgb(230, 230, 230)"  x="7" y="13" width="1" height="1" /><rect shape-rendering="crispEdges" fill="rgb(250, 250, 250)"  x="7" y="14" width="1" height="1" /><rect shape-rendering="crispEdges" fill="rgb(252, 252, 252)"  x="7" y="15" width="1" height="1" /><rect shape-rendering="crispEdges" fill="rgb(229, 229, 229)"  x="7" y="16" width="1" height="1" /><rect shape-rendering="crispEdges" fill="rgb(227, 227, 227)"  x="7" y="17" width="1" height="1" /><rect shape-rendering="crispEdges" fill="rgb(247, 247, 247)"  x="7" y="18" width="1" height="1" /><rect shape-rendering="crispEdges" fill="rgb(255, 255, 255)"  x="7" y="19" width="1" height="1" /><rect shape-rendering="crispEdges" fill="rgb(255, 255, 255)"  x="7" y="20" width="1" height="1" /><rect shape-rendering="crispEdges" fill="rgb(255, 255, 255)"  x="7" y="21" width="1" height="1" /><rect shape-rendering="crispEdges" fill="rgb(255, 255, 255)"  x="7" y="22" width="1" height="1" /><rect shape-rendering="crispEdges" fill="rgb(255, 255, 255)"  x="7" y="23" width="1" height="1" /><rect shape-rendering="crispEdges" fill="rgb(255, 255, 255)"  x="7" y="24" width="1" height="1" /><rect shape-rendering="crispEdges" fill="rgb(255, 255, 255)"  x="7" y="25" width="1" height="1" /><rect shape-rendering="crispEdges" fill="rgb(255, 255, 255)"  x="7" y="26" width="1" height="1" /><rect shape-rendering="crispEdges" fill="rgb(186, 186, 186)"  x="7" y="27" width="1" height="1" /><rect shape-rendering="crispEdges" fill="rgb(177, 177, 177)"  x="7" y="28" width="1" height="1" /><rect shape-rendering="crispEdges" fill="rgb(177, 177, 177)"  x="7" y="29" width="1" height="1" /><rect shape-rendering="crispEdges" fill="rgb(177, 177, 177)"  x="7" y="30" width="1" height="1" /><rect shape-rendering="crispEdges" fill="rgb(177, 177, 177)"  x="8" y="1" width="1" height="1" /><rect shape-rendering="crispEdges" fill="rgb(207, 207, 207)"  x="8" y="2" width="1" height="1" /><rect shape-rendering="crispEdges" fill="rgb(224, 224, 224)"  x="8" y="3" width="1" height="1" /><rect shape-rendering="crispEdges" fill="rgb(226, 226, 226)"  x="8" y="4" width="1" height="1" /><rect shape-rendering="crispEdges" fill="rgb(222, 222, 222)"  x="8" y="5" width="1" height="1" /><rect shape-rendering="crispEdges" fill="rgb(226, 226, 226)"  x="8" y="6" width="1" height="1" /><rect shape-rendering="crispEdges" fill="rgb(231, 231, 231)"  x="8" y="7" width="1" height="1" /><rect shape-rendering="crispEdges" fill="rgb(227, 227, 227)"  x="8" y="8" width="1" height="1" /><rect shape-rendering="crispEdges" fill="rgb(231, 231, 231)"  x="8" y="9" width="1" height="1" /><rect shape-rendering="crispEdges" fill="rgb(229, 229, 229)"  x="8" y="10" width="1" height="1" /><rect shape-rendering="crispEdges" fill="rgb(232, 232, 232)"  x="8" y="11" width="1" height="1" /><rect shape-rendering="crispEdges" fill="rgb(223, 223, 223)"  x="8" y="12" width="1" height="1" /><rect shape-rendering="crispEdges" fill="rgb(225, 225, 225)"  x="8" y="13" width="1" height="1" /><rect shape-rendering="crispEdges" fill="rgb(238, 238, 238)"  x="8" y="14" width="1" height="1" /><rect shape-rendering="crispEdges" fill="rgb(248, 248, 248)"  x="8" y="15" width="1" height="1" /><rect shape-rendering="crispEdges" fill="rgb(252, 252, 252)"  x="8" y="16" width="1" height="1" /><rect shape-rendering="crispEdges" fill="rgb(230, 230, 230)"  x="8" y="17" width="1" height="1" /><rect shape-rendering="crispEdges" fill="rgb(239, 239, 239)"  x="8" y="18" width="1" height="1" /><rect shape-rendering="crispEdges" fill="rgb(200, 200, 200)"  x="8" y="19" width="1" height="1" /><rect shape-rendering="crispEdges" fill="rgb(177, 177, 177)"  x="8" y="20" width="1" height="1" /><rect shape-rendering="crispEdges" fill="rgb(177, 177, 177)"  x="8" y="21" width="1" height="1" /><rect shape-rendering="crispEdges" fill="rgb(177, 177, 177)"  x="8" y="22" width="1" height="1" /><rect shape-rendering="crispEdges" fill="rgb(177, 177, 177)"  x="8" y="23" width="1" height="1" /><rect shape-rendering="crispEdges" fill="rgb(177, 177, 177)"  x="8" y="24" width="1" height="1" /><rect shape-rendering="crispEdges" fill="rgb(177, 177, 177)"  x="8" y="25" width="1" height="1" /><rect shape-rendering="crispEdges" fill="rgb(177, 177, 177)"  x="8" y="26" width="1" height="1" /><rect shape-rendering="crispEdges" fill="rgb(177, 177, 177)"  x="8" y="27" width="1" height="1" /><rect shape-rendering="crispEdges" fill="rgb(177, 177, 177)"  x="9" y="2" width="1" height="1" /><rect shape-rendering="crispEdges" fill="rgb(244, 244, 244)"  x="9" y="3" width="1" height="1" /><rect shape-rendering="crispEdges" fill="rgb(211, 211, 211)"  x="9" y="4" width="1" height="1" /><rect shape-rendering="crispEdges" fill="rgb(213, 213, 213)"  x="9" y="5" width="1" height="1" /><rect shape-rendering="crispEdges" fill="rgb(220, 220, 220)"  x="9" y="6" width="1" height="1" /><rect shape-rendering="crispEdges" fill="rgb(219, 219, 219)"  x="9" y="7" width="1" height="1" /><rect shape-rendering="crispEdges" fill="rgb(216, 216, 216)"  x="9" y="8" width="1" height="1" /><rect shape-rendering="crispEdges" fill="rgb(226, 226, 226)"  x="9" y="9" width="1" height="1" /><rect shape-rendering="crispEdges" fill="rgb(222, 222, 222)"  x="9" y="10" width="1" height="1" /><rect shape-rendering="crispEdges" fill="rgb(236, 236, 236)"  x="9" y="11" width="1" height="1" /><rect shape-rendering="crispEdges" fill="rgb(229, 229, 229)"  x="9" y="12" width="1" height="1" /><rect shape-rendering="crispEdges" fill="rgb(240, 240, 240)"  x="9" y="13" width="1" height="1" /><rect shape-rendering="crispEdges" fill="rgb(247, 247, 247)"  x="9" y="14" width="1" height="1" /><rect shape-rendering="crispEdges" fill="rgb(253, 253, 253)"  x="9" y="15" width="1" height="1" /><rect shape-rendering="crispEdges" fill="rgb(255, 255, 255)"  x="9" y="16" width="1" height="1" /><rect shape-rendering="crispEdges" fill="rgb(207, 207, 207)"  x="9" y="17" width="1" height="1" /><rect shape-rendering="crispEdges" fill="rgb(177, 177, 177)"  x="9" y="18" width="1" height="1" /><rect shape-rendering="crispEdges" fill="rgb(177, 177, 177)"  x="9" y="19" width="1" height="1" /><rect shape-rendering="crispEdges" fill="rgb(177, 177, 177)"  x="10" y="2" width="1" height="1" /><rect shape-rendering="crispEdges" fill="rgb(177, 177, 177)"  x="10" y="3" width="1" height="1" /><rect shape-rendering="crispEdges" fill="rgb(204, 204, 204)"  x="10" y="4" width="1" height="1" /><rect shape-rendering="crispEdges" fill="rgb(207, 207, 207)"  x="10" y="5" width="1" height="1" /><rect shape-rendering="crispEdges" fill="rgb(212, 212, 212)"  x="10" y="6" width="1" height="1" /><rect shape-rendering="crispEdges" fill="rgb(219, 219, 219)"  x="10" y="7" width="1" height="1" /><rect shape-rendering="crispEdges" fill="rgb(217, 217, 217)"  x="10" y="8" width="1" height="1" /><rect shape-rendering="crispEdges" fill="rgb(223, 223, 223)"  x="10" y="9" width="1" height="1" /><rect shape-rendering="crispEdges" fill="rgb(225, 225, 225)"  x="10" y="10" width="1" height="1" /><rect shape-rendering="crispEdges" fill="rgb(229, 229, 229)"  x="10" y="11" width="1" height="1" /><rect shape-rendering="crispEdges" fill="rgb(229, 229, 229)"  x="10" y="12" width="1" height="1" /><rect shape-rendering="crispEdges" fill="rgb(240, 240, 240)"  x="10" y="13" width="1" height="1" /><rect shape-rendering="crispEdges" fill="rgb(205, 205, 205)"  x="10" y="14" width="1" height="1" /><rect shape-rendering="crispEdges" fill="rgb(177, 177, 177)"  x="10" y="15" width="1" height="1" /><rect shape-rendering="crispEdges" fill="rgb(177, 177, 177)"  x="10" y="16" width="1" height="1" /><rect shape-rendering="crispEdges" fill="rgb(177, 177, 177)"  x="10" y="17" width="1" height="1" /><rect shape-rendering="crispEdges" fill="rgb(177, 177, 177)"  x="11" y="4" width="1" height="1" /><rect shape-rendering="crispEdges" fill="rgb(207, 207, 207)"  x="11" y="5" width="1" height="1" /><rect shape-rendering="crispEdges" fill="rgb(206, 206, 206)"  x="11" y="6" width="1" height="1" /><rect shape-rendering="crispEdges" fill="rgb(211, 211, 211)"  x="11" y="7" width="1" height="1" /><rect shape-rendering="crispEdges" fill="rgb(221, 221, 221)"  x="11" y="8" width="1" height="1" /><rect shape-rendering="crispEdges" fill="rgb(229, 229, 229)"  x="11" y="9" width="1" height="1" /><rect shape-rendering="crispEdges" fill="rgb(235, 235, 235)"  x="11" y="10" width="1" height="1" /><rect shape-rendering="crispEdges" fill="rgb(254, 254, 254)"  x="11" y="11" width="1" height="1" /><rect shape-rendering="crispEdges" fill="rgb(255, 255, 255)"  x="11" y="12" width="1" height="1" /><rect shape-rendering="crispEdges" fill="rgb(207, 207, 207)"  x="11" y="13" width="1" height="1" /><rect shape-rendering="crispEdges" fill="rgb(177, 177, 177)"  x="11" y="14" width="1" height="1" /><rect shape-rendering="crispEdges" fill="rgb(177, 177, 177)"  x="12" y="5" width="1" height="1" /><rect shape-rendering="crispEdges" fill="rgb(207, 207, 207)"  x="12" y="6" width="1" height="1" /><rect shape-rendering="crispEdges" fill="rgb(198, 198, 198)"  x="12" y="7" width="1" height="1" /><rect shape-rendering="crispEdges" fill="rgb(207, 207, 207)"  x="12" y="8" width="1" height="1" /><rect shape-rendering="crispEdges" fill="rgb(201, 201, 201)"  x="12" y="9" width="1" height="1" /><rect shape-rendering="crispEdges" fill="rgb(177, 177, 177)"  x="12" y="10" width="1" height="1" /><rect shape-rendering="crispEdges" fill="rgb(177, 177, 177)"  x="12" y="11" width="1" height="1" /><rect shape-rendering="crispEdges" fill="rgb(177, 177, 177)"  x="12" y="12" width="1" height="1" /><rect shape-rendering="crispEdges" fill="rgb(177, 177, 177)"  x="12" y="13" width="1" height="1" /><rect shape-rendering="crispEdges" fill="rgb(177, 177, 177)"  x="13" y="6" width="1" height="1" /><rect shape-rendering="crispEdges" fill="rgb(207, 207, 207)"  x="13" y="7" width="1" height="1" /><rect shape-rendering="crispEdges" fill="rgb(230, 230, 230)"  x="13" y="8" width="1" height="1" /><rect shape-rendering="crispEdges" fill="rgb(177, 177, 177)"  x="13" y="9" width="1" height="1" /><rect shape-rendering="crispEdges" fill="rgb(177, 177, 177)"  x="14" y="7" width="1" height="1" /><rect shape-rendering="crispEdges" fill="rgb(177, 177, 177)"  x="14" y="8" width="1" height="1" /><rect shape-rendering="crispEdges" fill="rgb(177, 177, 177)"  x="14" y="9" width="1" height="1" /><rect shape-rendering="crispEdges" fill="rgb(177, 177, 177)"  x="17" y="7" width="1" height="1" /><rect shape-rendering="crispEdges" fill="rgb(177, 177, 177)"  x="17" y="8" width="1" height="1" /><rect shape-rendering="crispEdges" fill="rgb(177, 177, 177)"  x="17" y="9" width="1" height="1" /><rect shape-rendering="crispEdges" fill="rgb(177, 177, 177)"  x="18" y="6" width="1" height="1" /><rect shape-rendering="crispEdges" fill="rgb(207, 207, 207)"  x="18" y="7" width="1" height="1" /><rect shape-rendering="crispEdges" fill="rgb(255, 255, 255)"  x="18" y="8" width="1" height="1" /><rect shape-rendering="crispEdges" fill="rgb(177, 177, 177)"  x="18" y="9" width="1" height="1" /><rect shape-rendering="crispEdges" fill="rgb(177, 177, 177)"  x="19" y="5" width="1" height="1" /><rect shape-rendering="crispEdges" fill="rgb(207, 207, 207)"  x="19" y="6" width="1" height="1" /><rect shape-rendering="crispEdges" fill="rgb(214, 214, 214)"  x="19" y="7" width="1" height="1" /><rect shape-rendering="crispEdges" fill="rgb(215, 215, 215)"  x="19" y="8" width="1" height="1" /><rect shape-rendering="crispEdges" fill="rgb(198, 198, 198)"  x="19" y="9" width="1" height="1" /><rect shape-rendering="crispEdges" fill="rgb(177, 177, 177)"  x="19" y="10" width="1" height="1" /><rect shape-rendering="crispEdges" fill="rgb(177, 177, 177)"  x="19" y="11" width="1" height="1" /><rect shape-rendering="crispEdges" fill="rgb(177, 177, 177)"  x="19" y="12" width="1" height="1" /><rect shape-rendering="crispEdges" fill="rgb(177, 177, 177)"  x="20" y="3" width="1" height="1" /><rect shape-rendering="crispEdges" fill="rgb(177, 177, 177)"  x="20" y="4" width="1" height="1" /><rect shape-rendering="crispEdges" fill="rgb(209, 209, 209)"  x="20" y="5" width="1" height="1" /><rect shape-rendering="crispEdges" fill="rgb(214, 214, 214)"  x="20" y="6" width="1" height="1" /><rect shape-rendering="crispEdges" fill="rgb(216, 216, 216)"  x="20" y="7" width="1" height="1" /><rect shape-rendering="crispEdges" fill="rgb(221, 221, 221)"  x="20" y="8" width="1" height="1" /><rect shape-rendering="crispEdges" fill="rgb(229, 229, 229)"  x="20" y="9" width="1" height="1" /><rect shape-rendering="crispEdges" fill="rgb(239, 239, 239)"  x="20" y="10" width="1" height="1" /><rect shape-rendering="crispEdges" fill="rgb(255, 255, 255)"  x="20" y="11" width="1" height="1" /><rect shape-rendering="crispEdges" fill="rgb(209, 209, 209)"  x="20" y="12" width="1" height="1" /><rect shape-rendering="crispEdges" fill="rgb(177, 177, 177)"  x="20" y="13" width="1" height="1" /><rect shape-rendering="crispEdges" fill="rgb(177, 177, 177)"  x="20" y="14" width="1" height="1" /><rect shape-rendering="crispEdges" fill="rgb(177, 177, 177)"  x="21" y="2" width="1" height="1" /><rect shape-rendering="crispEdges" fill="rgb(207, 207, 207)"  x="21" y="3" width="1" height="1" /><rect shape-rendering="crispEdges" fill="rgb(243, 243, 243)"  x="21" y="4" width="1" height="1" /><rect shape-rendering="crispEdges" fill="rgb(211, 211, 211)"  x="21" y="5" width="1" height="1" /><rect shape-rendering="crispEdges" fill="rgb(215, 215, 215)"  x="21" y="6" width="1" height="1" /><rect shape-rendering="crispEdges" fill="rgb(220, 220, 220)"  x="21" y="7" width="1" height="1" /><rect shape-rendering="crispEdges" fill="rgb(220, 220, 220)"  x="21" y="8" width="1" height="1" /><rect shape-rendering="crispEdges" fill="rgb(222, 222, 222)"  x="21" y="9" width="1" height="1" /><rect shape-rendering="crispEdges" fill="rgb(222, 222, 222)"  x="21" y="10" width="1" height="1" /><rect shape-rendering="crispEdges" fill="rgb(225, 225, 225)"  x="21" y="11" width="1" height="1" /><rect shape-rendering="crispEdges" fill="rgb(230, 230, 230)"  x="21" y="12" width="1" height="1" /><rect shape-rendering="crispEdges" fill="rgb(242, 242, 242)"  x="21" y="13" width="1" height="1" /><rect shape-rendering="crispEdges" fill="rgb(198, 198, 198)"  x="21" y="14" width="1" height="1" /><rect shape-rendering="crispEdges" fill="rgb(177, 177, 177)"  x="21" y="15" width="1" height="1" /><rect shape-rendering="crispEdges" fill="rgb(177, 177, 177)"  x="21" y="16" width="1" height="1" /><rect shape-rendering="crispEdges" fill="rgb(177, 177, 177)"  x="22" y="1" width="1" height="1" /><rect shape-rendering="crispEdges" fill="rgb(207, 207, 207)"  x="22" y="2" width="1" height="1" /><rect shape-rendering="crispEdges" fill="rgb(240, 240, 240)"  x="22" y="3" width="1" height="1" /><rect shape-rendering="crispEdges" fill="rgb(218, 218, 218)"  x="22" y="4" width="1" height="1" /><rect shape-rendering="crispEdges" fill="rgb(215, 215, 215)"  x="22" y="5" width="1" height="1" /><rect shape-rendering="crispEdges" fill="rgb(225, 225, 225)"  x="22" y="6" width="1" height="1" /><rect shape-rendering="crispEdges" fill="rgb(220, 220, 220)"  x="22" y="7" width="1" height="1" /><rect shape-rendering="crispEdges" fill="rgb(218, 218, 218)"  x="22" y="8" width="1" height="1" /><rect shape-rendering="crispEdges" fill="rgb(224, 224, 224)"  x="22" y="9" width="1" height="1" /><rect shape-rendering="crispEdges" fill="rgb(219, 219, 219)"  x="22" y="10" width="1" height="1" /><rect shape-rendering="crispEdges" fill="rgb(231, 231, 231)"  x="22" y="11" width="1" height="1" /><rect shape-rendering="crispEdges" fill="rgb(225, 225, 225)"  x="22" y="12" width="1" height="1" /><rect shape-rendering="crispEdges" fill="rgb(240, 240, 240)"  x="22" y="13" width="1" height="1" /><rect shape-rendering="crispEdges" fill="rgb(252, 252, 252)"  x="22" y="14" width="1" height="1" /><rect shape-rendering="crispEdges" fill="rgb(255, 255, 255)"  x="22" y="15" width="1" height="1" /><rect shape-rendering="crispEdges" fill="rgb(207, 207, 207)"  x="22" y="16" width="1" height="1" /><rect shape-rendering="crispEdges" fill="rgb(177, 177, 177)"  x="22" y="17" width="1" height="1" /><rect shape-rendering="crispEdges" fill="rgb(177, 177, 177)"  x="22" y="18" width="1" height="1" /><rect shape-rendering="crispEdges" fill="rgb(177, 177, 177)"  x="23" y="1" width="1" height="1" /><rect shape-rendering="crispEdges" fill="rgb(207, 207, 207)"  x="23" y="2" width="1" height="1" /><rect shape-rendering="crispEdges" fill="rgb(223, 223, 223)"  x="23" y="3" width="1" height="1" /><rect shape-rendering="crispEdges" fill="rgb(227, 227, 227)"  x="23" y="4" width="1" height="1" /><rect shape-rendering="crispEdges" fill="rgb(225, 225, 225)"  x="23" y="5" width="1" height="1" /><rect shape-rendering="crispEdges" fill="rgb(228, 228, 228)"  x="23" y="6" width="1" height="1" /><rect shape-rendering="crispEdges" fill="rgb(231, 231, 231)"  x="23" y="7" width="1" height="1" /><rect shape-rendering="crispEdges" fill="rgb(227, 227, 227)"  x="23" y="8" width="1" height="1" /><rect shape-rendering="crispEdges" fill="rgb(229, 229, 229)"  x="23" y="9" width="1" height="1" /><rect shape-rendering="crispEdges" fill="rgb(227, 227, 227)"  x="23" y="10" width="1" height="1" /><rect shape-rendering="crispEdges" fill="rgb(226, 226, 226)"  x="23" y="11" width="1" height="1" /><rect shape-rendering="crispEdges" fill="rgb(217, 217, 217)"  x="23" y="12" width="1" height="1" /><rect shape-rendering="crispEdges" fill="rgb(224, 224, 224)"  x="23" y="13" width="1" height="1" /><rect shape-rendering="crispEdges" fill="rgb(236, 236, 236)"  x="23" y="14" width="1" height="1" /><rect shape-rendering="crispEdges" fill="rgb(247, 247, 247)"  x="23" y="15" width="1" height="1" /><rect shape-rendering="crispEdges" fill="rgb(245, 245, 245)"  x="23" y="16" width="1" height="1" /><rect shape-rendering="crispEdges" fill="rgb(238, 238, 238)"  x="23" y="17" width="1" height="1" /><rect shape-rendering="crispEdges" fill="rgb(207, 207, 207)"  x="23" y="18" width="1" height="1" /><rect shape-rendering="crispEdges" fill="rgb(177, 177, 177)"  x="23" y="19" width="1" height="1" /><rect shape-rendering="crispEdges" fill="rgb(177, 177, 177)"  x="23" y="20" width="1" height="1" /><rect shape-rendering="crispEdges" fill="rgb(177, 177, 177)"  x="23" y="21" width="1" height="1" /><rect shape-rendering="crispEdges" fill="rgb(177, 177, 177)"  x="23" y="22" width="1" height="1" /><rect shape-rendering="crispEdges" fill="rgb(177, 177, 177)"  x="23" y="23" width="1" height="1" /><rect shape-rendering="crispEdges" fill="rgb(177, 177, 177)"  x="23" y="24" width="1" height="1" /><rect shape-rendering="crispEdges" fill="rgb(177, 177, 177)"  x="23" y="25" width="1" height="1" /><rect shape-rendering="crispEdges" fill="rgb(177, 177, 177)"  x="24" y="2" width="1" height="1" /><rect shape-rendering="crispEdges" fill="rgb(207, 207, 207)"  x="24" y="3" width="1" height="1" /><rect shape-rendering="crispEdges" fill="rgb(209, 209, 209)"  x="24" y="4" width="1" height="1" /><rect shape-rendering="crispEdges" fill="rgb(226, 226, 226)"  x="24" y="5" width="1" height="1" /><rect shape-rendering="crispEdges" fill="rgb(234, 234, 234)"  x="24" y="6" width="1" height="1" /><rect shape-rendering="crispEdges" fill="rgb(227, 227, 227)"  x="24" y="7" width="1" height="1" /><rect shape-rendering="crispEdges" fill="rgb(235, 235, 235)"  x="24" y="8" width="1" height="1" /><rect shape-rendering="crispEdges" fill="rgb(240, 240, 240)"  x="24" y="9" width="1" height="1" /><rect shape-rendering="crispEdges" fill="rgb(242, 242, 242)"  x="24" y="10" width="1" height="1" /><rect shape-rendering="crispEdges" fill="rgb(217, 217, 217)"  x="24" y="11" width="1" height="1" /><rect shape-rendering="crispEdges" fill="rgb(212, 212, 212)"  x="24" y="12" width="1" height="1" /><rect shape-rendering="crispEdges" fill="rgb(229, 229, 229)"  x="24" y="13" width="1" height="1" /><rect shape-rendering="crispEdges" fill="rgb(249, 249, 249)"  x="24" y="14" width="1" height="1" /><rect shape-rendering="crispEdges" fill="rgb(244, 244, 244)"  x="24" y="15" width="1" height="1" /><rect shape-rendering="crispEdges" fill="rgb(223, 223, 223)"  x="24" y="16" width="1" height="1" /><rect shape-rendering="crispEdges" fill="rgb(225, 225, 225)"  x="24" y="17" width="1" height="1" /><rect shape-rendering="crispEdges" fill="rgb(246, 246, 246)"  x="24" y="18" width="1" height="1" /><rect shape-rendering="crispEdges" fill="rgb(255, 255, 255)"  x="24" y="19" width="1" height="1" /><rect shape-rendering="crispEdges" fill="rgb(255, 255, 255)"  x="24" y="20" width="1" height="1" /><rect shape-rendering="crispEdges" fill="rgb(255, 255, 255)"  x="24" y="21" width="1" height="1" /><rect shape-rendering="crispEdges" fill="rgb(255, 255, 255)"  x="24" y="22" width="1" height="1" /><rect shape-rendering="crispEdges" fill="rgb(255, 255, 255)"  x="24" y="23" width="1" height="1" /><rect shape-rendering="crispEdges" fill="rgb(255, 255, 255)"  x="24" y="24" width="1" height="1" /><rect shape-rendering="crispEdges" fill="rgb(209, 209, 209)"  x="24" y="25" width="1" height="1" /><rect shape-rendering="crispEdges" fill="rgb(177, 177, 177)"  x="24" y="26" width="1" height="1" /><rect shape-rendering="crispEdges" fill="rgb(177, 177, 177)"  x="24" y="27" width="1" height="1" /><rect shape-rendering="crispEdges" fill="rgb(177, 177, 177)"  x="24" y="29" width="1" height="1" /><rect shape-rendering="crispEdges" fill="rgb(177, 177, 177)"  x="25" y="3" width="1" height="1" /><rect shape-rendering="crispEdges" fill="rgb(253, 253, 253)"  x="25" y="4" width="1" height="1" /><rect shape-rendering="crispEdges" fill="rgb(224, 224, 224)"  x="25" y="5" width="1" height="1" /><rect shape-rendering="crispEdges" fill="rgb(229, 229, 229)"  x="25" y="6" width="1" height="1" /><rect shape-rendering="crispEdges" fill="rgb(215, 215, 215)"  x="25" y="7" width="1" height="1" /><rect shape-rendering="crispEdges" fill="rgb(224, 224, 224)"  x="25" y="8" width="1" height="1" /><rect shape-rendering="crispEdges" fill="rgb(242, 242, 242)"  x="25" y="9" width="1" height="1" /><rect shape-rendering="crispEdges" fill="rgb(219, 219, 219)"  x="25" y="10" width="1" height="1" /><rect shape-rendering="crispEdges" fill="rgb(209, 209, 209)"  x="25" y="11" width="1" height="1" /><rect shape-rendering="crispEdges" fill="rgb(226, 226, 226)"  x="25" y="12" width="1" height="1" /><rect shape-rendering="crispEdges" fill="rgb(243, 243, 243)"  x="25" y="13" width="1" height="1" /><rect shape-rendering="crispEdges" fill="rgb(245, 245, 245)"  x="25" y="14" width="1" height="1" /><rect shape-rendering="crispEdges" fill="rgb(230, 230, 230)"  x="25" y="15" width="1" height="1" /><rect shape-rendering="crispEdges" fill="rgb(219, 219, 219)"  x="25" y="16" width="1" height="1" /><rect shape-rendering="crispEdges" fill="rgb(231, 231, 231)"  x="25" y="17" width="1" height="1" /><rect shape-rendering="crispEdges" fill="rgb(245, 245, 245)"  x="25" y="18" width="1" height="1" /><rect shape-rendering="crispEdges" fill="rgb(236, 236, 236)"  x="25" y="19" width="1" height="1" /><rect shape-rendering="crispEdges" fill="rgb(229, 229, 229)"  x="25" y="20" width="1" height="1" /><rect shape-rendering="crispEdges" fill="rgb(242, 242, 242)"  x="25" y="21" width="1" height="1" /><rect shape-rendering="crispEdges" fill="rgb(239, 239, 239)"  x="25" y="22" width="1" height="1" /><rect shape-rendering="crispEdges" fill="rgb(231, 231, 231)"  x="25" y="23" width="1" height="1" /><rect shape-rendering="crispEdges" fill="rgb(246, 246, 246)"  x="25" y="24" width="1" height="1" /><rect shape-rendering="crispEdges" fill="rgb(245, 245, 245)"  x="25" y="25" width="1" height="1" /><rect shape-rendering="crispEdges" fill="rgb(220, 220, 220)"  x="25" y="26" width="1" height="1" /><rect shape-rendering="crispEdges" fill="rgb(204, 204, 204)"  x="25" y="27" width="1" height="1" /><rect shape-rendering="crispEdges" fill="rgb(177, 177, 177)"  x="25" y="28" width="1" height="1" /><rect shape-rendering="crispEdges" fill="rgb(177, 177, 177)"  x="25" y="29" width="1" height="1" /><rect shape-rendering="crispEdges" fill="rgb(177, 177, 177)"  x="26" y="3" width="1" height="1" /><rect shape-rendering="crispEdges" fill="rgb(203, 203, 203)"  x="26" y="4" width="1" height="1" /><rect shape-rendering="crispEdges" fill="rgb(251, 251, 251)"  x="26" y="5" width="1" height="1" /><rect shape-rendering="crispEdges" fill="rgb(255, 255, 255)"  x="26" y="6" width="1" height="1" /><rect shape-rendering="crispEdges" fill="rgb(223, 223, 223)"  x="26" y="7" width="1" height="1" /><rect shape-rendering="crispEdges" fill="rgb(205, 205, 205)"  x="26" y="8" width="1" height="1" /><rect shape-rendering="crispEdges" fill="rgb(224, 224, 224)"  x="26" y="9" width="1" height="1" /><rect shape-rendering="crispEdges" fill="rgb(219, 219, 219)"  x="26" y="10" width="1" height="1" /><rect shape-rendering="crispEdges" fill="rgb(219, 219, 219)"  x="26" y="11" width="1" height="1" /><rect shape-rendering="crispEdges" fill="rgb(241, 241, 241)"  x="26" y="12" width="1" height="1" /><rect shape-rendering="crispEdges" fill="rgb(246, 246, 246)"  x="26" y="13" width="1" height="1" /><rect shape-rendering="crispEdges" fill="rgb(222, 222, 222)"  x="26" y="14" width="1" height="1" /><rect shape-rendering="crispEdges" fill="rgb(215, 215, 215)"  x="26" y="15" width="1" height="1" /><rect shape-rendering="crispEdges" fill="rgb(248, 248, 248)"  x="26" y="16" width="1" height="1" /><rect shape-rendering="crispEdges" fill="rgb(253, 253, 253)"  x="26" y="17" width="1" height="1" /><rect shape-rendering="crispEdges" fill="rgb(228, 228, 228)"  x="26" y="18" width="1" height="1" /><rect shape-rendering="crispEdges" fill="rgb(214, 214, 214)"  x="26" y="19" width="1" height="1" /><rect shape-rendering="crispEdges" fill="rgb(228, 228, 228)"  x="26" y="20" width="1" height="1" /><rect shape-rendering="crispEdges" fill="rgb(242, 242, 242)"  x="26" y="21" width="1" height="1" /><rect shape-rendering="crispEdges" fill="rgb(228, 228, 228)"  x="26" y="22" width="1" height="1" /><rect shape-rendering="crispEdges" fill="rgb(227, 227, 227)"  x="26" y="23" width="1" height="1" /><rect shape-rendering="crispEdges" fill="rgb(249, 249, 249)"  x="26" y="24" width="1" height="1" /><rect shape-rendering="crispEdges" fill="rgb(255, 255, 255)"  x="26" y="25" width="1" height="1" /><rect shape-rendering="crispEdges" fill="rgb(207, 207, 207)"  x="26" y="26" width="1" height="1" /><rect shape-rendering="crispEdges" fill="rgb(177, 177, 177)"  x="26" y="27" width="1" height="1" /><rect shape-rendering="crispEdges" fill="rgb(177, 177, 177)"  x="26" y="28" width="1" height="1" /><rect shape-rendering="crispEdges" fill="rgb(177, 177, 177)"  x="27" y="4" width="1" height="1" /><rect shape-rendering="crispEdges" fill="rgb(177, 177, 177)"  x="27" y="5" width="1" height="1" /><rect shape-rendering="crispEdges" fill="rgb(177, 177, 177)"  x="27" y="6" width="1" height="1" /><rect shape-rendering="crispEdges" fill="rgb(177, 177, 177)"  x="27" y="7" width="1" height="1" /><rect shape-rendering="crispEdges" fill="rgb(209, 209, 209)"  x="27" y="8" width="1" height="1" /><rect shape-rendering="crispEdges" fill="rgb(237, 237, 237)"  x="27" y="9" width="1" height="1" /><rect shape-rendering="crispEdges" fill="rgb(233, 233, 233)"  x="27" y="10" width="1" height="1" /><rect shape-rendering="crispEdges" fill="rgb(223, 223, 223)"  x="27" y="11" width="1" height="1" /><rect shape-rendering="crispEdges" fill="rgb(229, 229, 229)"  x="27" y="12" width="1" height="1" /><rect shape-rendering="crispEdges" fill="rgb(234, 234, 234)"  x="27" y="13" width="1" height="1" /><rect shape-rendering="crispEdges" fill="rgb(221, 221, 221)"  x="27" y="14" width="1" height="1" /><rect shape-rendering="crispEdges" fill="rgb(233, 233, 233)"  x="27" y="15" width="1" height="1" /><rect shape-rendering="crispEdges" fill="rgb(241, 241, 241)"  x="27" y="16" width="1" height="1" /><rect shape-rendering="crispEdges" fill="rgb(236, 236, 236)"  x="27" y="17" width="1" height="1" /><rect shape-rendering="crispEdges" fill="rgb(227, 227, 227)"  x="27" y="18" width="1" height="1" /><rect shape-rendering="crispEdges" fill="rgb(226, 226, 226)"  x="27" y="19" width="1" height="1" /><rect shape-rendering="crispEdges" fill="rgb(245, 245, 245)"  x="27" y="20" width="1" height="1" /><rect shape-rendering="crispEdges" fill="rgb(255, 255, 255)"  x="27" y="21" width="1" height="1" /><rect shape-rendering="crispEdges" fill="rgb(255, 255, 255)"  x="27" y="22" width="1" height="1" /><rect shape-rendering="crispEdges" fill="rgb(255, 255, 255)"  x="27" y="23" width="1" height="1" /><rect shape-rendering="crispEdges" fill="rgb(207, 207, 207)"  x="27" y="24" width="1" height="1" /><rect shape-rendering="crispEdges" fill="rgb(177, 177, 177)"  x="27" y="25" width="1" height="1" /><rect shape-rendering="crispEdges" fill="rgb(177, 177, 177)"  x="27" y="26" width="1" height="1" /><rect shape-rendering="crispEdges" fill="rgb(177, 177, 177)"  x="28" y="8" width="1" height="1" /><rect shape-rendering="crispEdges" fill="rgb(177, 177, 177)"  x="28" y="9" width="1" height="1" /><rect shape-rendering="crispEdges" fill="rgb(207, 207, 207)"  x="28" y="10" width="1" height="1" /><rect shape-rendering="crispEdges" fill="rgb(252, 252, 252)"  x="28" y="11" width="1" height="1" /><rect shape-rendering="crispEdges" fill="rgb(231, 231, 231)"  x="28" y="12" width="1" height="1" /><rect shape-rendering="crispEdges" fill="rgb(211, 211, 211)"  x="28" y="13" width="1" height="1" /><rect shape-rendering="crispEdges" fill="rgb(236, 236, 236)"  x="28" y="14" width="1" height="1" /><rect shape-rendering="crispEdges" fill="rgb(255, 255, 255)"  x="28" y="15" width="1" height="1" /><rect shape-rendering="crispEdges" fill="rgb(255, 255, 255)"  x="28" y="16" width="1" height="1" /><rect shape-rendering="crispEdges" fill="rgb(238, 238, 238)"  x="28" y="17" width="1" height="1" /><rect shape-rendering="crispEdges" fill="rgb(232, 232, 232)"  x="28" y="18" width="1" height="1" /><rect shape-rendering="crispEdges" fill="rgb(250, 250, 250)"  x="28" y="19" width="1" height="1" /><rect shape-rendering="crispEdges" fill="rgb(254, 254, 254)"  x="28" y="20" width="1" height="1" /><rect shape-rendering="crispEdges" fill="rgb(222, 222, 222)"  x="28" y="21" width="1" height="1" /><rect shape-rendering="crispEdges" fill="rgb(180, 180, 180)"  x="28" y="22" width="1" height="1" /><rect shape-rendering="crispEdges" fill="rgb(177, 177, 177)"  x="28" y="23" width="1" height="1" /><rect shape-rendering="crispEdges" fill="rgb(177, 177, 177)"  x="28" y="24" width="1" height="1" /><rect shape-rendering="crispEdges" fill="rgb(177, 177, 177)"  x="29" y="10" width="1" height="1" /><rect shape-rendering="crispEdges" fill="rgb(177, 177, 177)"  x="29" y="11" width="1" height="1" /><rect shape-rendering="crispEdges" fill="rgb(177, 177, 177)"  x="29" y="12" width="1" height="1" /><rect shape-rendering="crispEdges" fill="rgb(209, 209, 209)"  x="29" y="13" width="1" height="1" /><rect shape-rendering="crispEdges" fill="rgb(178, 178, 178)"  x="29" y="14" width="1" height="1" /><rect shape-rendering="crispEdges" fill="rgb(177, 177, 177)"  x="29" y="15" width="1" height="1" /><rect shape-rendering="crispEdges" fill="rgb(177, 177, 177)"  x="29" y="16" width="1" height="1" /><rect shape-rendering="crispEdges" fill="rgb(177, 177, 177)"  x="29" y="17" width="1" height="1" /><rect shape-rendering="crispEdges" fill="rgb(177, 177, 177)"  x="29" y="18" width="1" height="1" /><rect shape-rendering="crispEdges" fill="rgb(177, 177, 177)"  x="29" y="19" width="1" height="1" /><rect shape-rendering="crispEdges" fill="rgb(177, 177, 177)"  x="29" y="20" width="1" height="1" /><rect shape-rendering="crispEdges" fill="rgb(177, 177, 177)"  x="29" y="21" width="1" height="1" /><rect shape-rendering="crispEdges" fill="rgb(177, 177, 177)"  x="29" y="22" width="1" height="1" /><rect shape-rendering="crispEdges" fill="rgb(177, 177, 177)"  x="30" y="13" width="1" height="1" /><rect shape-rendering="crispEdges" fill="rgb(177, 177, 177)"  x="30" y="14" width="1" height="1" /></svg>