<svg xmlns="http://www.w3.org/2000/svg" xmlns:xlink= "http://www.w3.org/1999/xlink" width="32" height="32" viewBox ="0 0 32 32"><rect shape-rendering="crispEdges" fill="rgb(8, 16, 64)"  x="4" y="27" width="1" height="1" /><rect shape-rendering="crispEdges" fill="rgb(8, 16, 64)"  x="5" y="23" width="1" height="1" /><rect shape-rendering="crispEdges" fill="rgb(8, 16, 64)"  x="5" y="24" width="1" height="1" /><rect shape-rendering="crispEdges" fill="rgb(8, 16, 64)"  x="5" y="25" width="1" height="1" /><rect shape-rendering="crispEdges" fill="rgb(8, 16, 64)"  x="5" y="26" width="1" height="1" /><rect shape-rendering="crispEdges" fill="rgb(0, 32, 120)"  x="5" y="27" width="1" height="1" /><rect shape-rendering="crispEdges" fill="rgb(8, 16, 64)"  x="5" y="28" width="1" height="1" /><rect shape-rendering="crispEdges" fill="rgb(8, 16, 64)"  x="6" y="18" width="1" height="1" /><rect shape-rendering="crispEdges" fill="rgb(8, 16, 64)"  x="6" y="19" width="1" height="1" /><rect shape-rendering="crispEdges" fill="rgb(8, 16, 64)"  x="6" y="20" width="1" height="1" /><rect shape-rendering="crispEdges" fill="rgb(8, 16, 64)"  x="6" y="21" width="1" height="1" /><rect shape-rendering="crispEdges" fill="rgb(8, 16, 64)"  x="6" y="22" width="1" height="1" /><rect shape-rendering="crispEdges" fill="rgb(0, 24, 104)"  x="6" y="23" width="1" height="1" /><rect shape-rendering="crispEdges" fill="rgb(4, 24, 92)"  x="6" y="24" width="1" height="1" /><rect shape-rendering="crispEdges" fill="rgb(4, 24, 92)"  x="6" y="25" width="1" height="1" /><rect shape-rendering="crispEdges" fill="rgb(4, 24, 92)"  x="6" y="26" width="1" height="1" /><rect shape-rendering="crispEdges" fill="rgb(4, 24, 92)"  x="6" y="27" width="1" height="1" /><rect shape-rendering="crispEdges" fill="rgb(0, 24, 88)"  x="6" y="28" width="1" height="1" /><rect shape-rendering="crispEdges" fill="rgb(8, 16, 64)"  x="6" y="29" width="1" height="1" /><rect shape-rendering="crispEdges" fill="rgb(32, 32, 72)"  x="7" y="13" width="1" height="1" /><rect shape-rendering="crispEdges" fill="rgb(8, 16, 64)"  x="7" y="14" width="1" height="1" /><rect shape-rendering="crispEdges" fill="rgb(8, 16, 64)"  x="7" y="15" width="1" height="1" /><rect shape-rendering="crispEdges" fill="rgb(8, 16, 64)"  x="7" y="16" width="1" height="1" /><rect shape-rendering="crispEdges" fill="rgb(8, 16, 64)"  x="7" y="17" width="1" height="1" /><rect shape-rendering="crispEdges" fill="rgb(0, 32, 136)"  x="7" y="18" width="1" height="1" /><rect shape-rendering="crispEdges" fill="rgb(4, 24, 100)"  x="7" y="19" width="1" height="1" /><rect shape-rendering="crispEdges" fill="rgb(0, 24, 104)"  x="7" y="20" width="1" height="1" /><rect shape-rendering="crispEdges" fill="rgb(0, 24, 104)"  x="7" y="21" width="1" height="1" /><rect shape-rendering="crispEdges" fill="rgb(0, 24, 104)"  x="7" y="22" width="1" height="1" /><rect shape-rendering="crispEdges" fill="rgb(0, 24, 104)"  x="7" y="23" width="1" height="1" /><rect shape-rendering="crispEdges" fill="rgb(4, 24, 92)"  x="7" y="24" width="1" height="1" /><rect shape-rendering="crispEdges" fill="rgb(4, 24, 92)"  x="7" y="25" width="1" height="1" /><rect shape-rendering="crispEdges" fill="rgb(4, 24, 92)"  x="7" y="26" width="1" height="1" /><rect shape-rendering="crispEdges" fill="rgb(4, 24, 92)"  x="7" y="27" width="1" height="1" /><rect shape-rendering="crispEdges" fill="rgb(0, 24, 88)"  x="7" y="28" width="1" height="1" /><rect shape-rendering="crispEdges" fill="rgb(0, 24, 88)"  x="7" y="29" width="1" height="1" /><rect shape-rendering="crispEdges" fill="rgb(8, 16, 64)"  x="7" y="30" width="1" height="1" /><rect shape-rendering="crispEdges" fill="rgb(16, 36, 104)"  x="8" y="10" width="1" height="1" /><rect shape-rendering="crispEdges" fill="rgb(16, 36, 104)"  x="8" y="11" width="1" height="1" /><rect shape-rendering="crispEdges" fill="rgb(0, 36, 136)"  x="8" y="12" width="1" height="1" /><rect shape-rendering="crispEdges" fill="rgb(0, 36, 136)"  x="8" y="13" width="1" height="1" /><rect shape-rendering="crispEdges" fill="rgb(0, 36, 136)"  x="8" y="14" width="1" height="1" /><rect shape-rendering="crispEdges" fill="rgb(0, 36, 136)"  x="8" y="15" width="1" height="1" /><rect shape-rendering="crispEdges" fill="rgb(4, 32, 132)"  x="8" y="16" width="1" height="1" /><rect shape-rendering="crispEdges" fill="rgb(0, 24, 104)"  x="8" y="17" width="1" height="1" /><rect shape-rendering="crispEdges" fill="rgb(0, 24, 104)"  x="8" y="18" width="1" height="1" /><rect shape-rendering="crispEdges" fill="rgb(0, 24, 104)"  x="8" y="19" width="1" height="1" /><rect shape-rendering="crispEdges" fill="rgb(0, 24, 104)"  x="8" y="20" width="1" height="1" /><rect shape-rendering="crispEdges" fill="rgb(0, 24, 104)"  x="8" y="21" width="1" height="1" /><rect shape-rendering="crispEdges" fill="rgb(0, 24, 104)"  x="8" y="22" width="1" height="1" /><rect shape-rendering="crispEdges" fill="rgb(0, 24, 104)"  x="8" y="23" width="1" height="1" /><rect shape-rendering="crispEdges" fill="rgb(0, 24, 104)"  x="8" y="24" width="1" height="1" /><rect shape-rendering="crispEdges" fill="rgb(0, 24, 104)"  x="8" y="25" width="1" height="1" /><rect shape-rendering="crispEdges" fill="rgb(0, 24, 104)"  x="8" y="26" width="1" height="1" /><rect shape-rendering="crispEdges" fill="rgb(0, 24, 104)"  x="8" y="27" width="1" height="1" /><rect shape-rendering="crispEdges" fill="rgb(0, 24, 104)"  x="8" y="28" width="1" height="1" /><rect shape-rendering="crispEdges" fill="rgb(0, 24, 104)"  x="8" y="29" width="1" height="1" /><rect shape-rendering="crispEdges" fill="rgb(8, 16, 64)"  x="8" y="30" width="1" height="1" /><rect shape-rendering="crispEdges" fill="rgb(112, 120, 124)"  x="9" y="2" width="1" height="1" /><rect shape-rendering="crispEdges" fill="rgb(112, 120, 124)"  x="9" y="3" width="1" height="1" /><rect shape-rendering="crispEdges" fill="rgb(104, 100, 104)"  x="9" y="4" width="1" height="1" /><rect shape-rendering="crispEdges" fill="rgb(16, 36, 104)"  x="9" y="9" width="1" height="1" /><rect shape-rendering="crispEdges" fill="rgb(16, 36, 104)"  x="9" y="10" width="1" height="1" /><rect shape-rendering="crispEdges" fill="rgb(16, 36, 104)"  x="9" y="11" width="1" height="1" /><rect shape-rendering="crispEdges" fill="rgb(0, 36, 136)"  x="9" y="12" width="1" height="1" /><rect shape-rendering="crispEdges" fill="rgb(0, 36, 136)"  x="9" y="13" width="1" height="1" /><rect shape-rendering="crispEdges" fill="rgb(0, 36, 136)"  x="9" y="14" width="1" height="1" /><rect shape-rendering="crispEdges" fill="rgb(0, 36, 136)"  x="9" y="15" width="1" height="1" /><rect shape-rendering="crispEdges" fill="rgb(0, 24, 104)"  x="9" y="16" width="1" height="1" /><rect shape-rendering="crispEdges" fill="rgb(0, 24, 104)"  x="9" y="17" width="1" height="1" /><rect shape-rendering="crispEdges" fill="rgb(0, 24, 104)"  x="9" y="18" width="1" height="1" /><rect shape-rendering="crispEdges" fill="rgb(4, 32, 132)"  x="9" y="19" width="1" height="1" /><rect shape-rendering="crispEdges" fill="rgb(0, 32, 128)"  x="9" y="20" width="1" height="1" /><rect shape-rendering="crispEdges" fill="rgb(0, 32, 128)"  x="9" y="21" width="1" height="1" /><rect shape-rendering="crispEdges" fill="rgb(0, 32, 128)"  x="9" y="22" width="1" height="1" /><rect shape-rendering="crispEdges" fill="rgb(0, 32, 128)"  x="9" y="23" width="1" height="1" /><rect shape-rendering="crispEdges" fill="rgb(0, 34, 132)"  x="9" y="24" width="1" height="1" /><rect shape-rendering="crispEdges" fill="rgb(0, 34, 132)"  x="9" y="25" width="1" height="1" /><rect shape-rendering="crispEdges" fill="rgb(0, 24, 104)"  x="9" y="26" width="1" height="1" /><rect shape-rendering="crispEdges" fill="rgb(0, 34, 132)"  x="9" y="27" width="1" height="1" /><rect shape-rendering="crispEdges" fill="rgb(0, 24, 104)"  x="9" y="28" width="1" height="1" /><rect shape-rendering="crispEdges" fill="rgb(0, 24, 104)"  x="9" y="29" width="1" height="1" /><rect shape-rendering="crispEdges" fill="rgb(8, 16, 64)"  x="9" y="30" width="1" height="1" /><rect shape-rendering="crispEdges" fill="rgb(112, 120, 124)"  x="10" y="2" width="1" height="1" /><rect shape-rendering="crispEdges" fill="rgb(216, 216, 216)"  x="10" y="3" width="1" height="1" /><rect shape-rendering="crispEdges" fill="rgb(232, 216, 104)"  x="10" y="4" width="1" height="1" /><rect shape-rendering="crispEdges" fill="rgb(104, 100, 104)"  x="10" y="5" width="1" height="1" /><rect shape-rendering="crispEdges" fill="rgb(116, 124, 160)"  x="10" y="8" width="1" height="1" /><rect shape-rendering="crispEdges" fill="rgb(216, 212, 216)"  x="10" y="9" width="1" height="1" /><rect shape-rendering="crispEdges" fill="rgb(216, 212, 216)"  x="10" y="10" width="1" height="1" /><rect shape-rendering="crispEdges" fill="rgb(16, 36, 104)"  x="10" y="11" width="1" height="1" /><rect shape-rendering="crispEdges" fill="rgb(0, 36, 136)"  x="10" y="12" width="1" height="1" /><rect shape-rendering="crispEdges" fill="rgb(0, 36, 136)"  x="10" y="13" width="1" height="1" /><rect shape-rendering="crispEdges" fill="rgb(0, 36, 136)"  x="10" y="14" width="1" height="1" /><rect shape-rendering="crispEdges" fill="rgb(0, 36, 136)"  x="10" y="15" width="1" height="1" /><rect shape-rendering="crispEdges" fill="rgb(4, 32, 132)"  x="10" y="16" width="1" height="1" /><rect shape-rendering="crispEdges" fill="rgb(8, 40, 160)"  x="10" y="17" width="1" height="1" /><rect shape-rendering="crispEdges" fill="rgb(8, 40, 160)"  x="10" y="18" width="1" height="1" /><rect shape-rendering="crispEdges" fill="rgb(8, 40, 160)"  x="10" y="19" width="1" height="1" /><rect shape-rendering="crispEdges" fill="rgb(0, 40, 152)"  x="10" y="20" width="1" height="1" /><rect shape-rendering="crispEdges" fill="rgb(0, 40, 152)"  x="10" y="21" width="1" height="1" /><rect shape-rendering="crispEdges" fill="rgb(0, 40, 152)"  x="10" y="22" width="1" height="1" /><rect shape-rendering="crispEdges" fill="rgb(0, 32, 128)"  x="10" y="23" width="1" height="1" /><rect shape-rendering="crispEdges" fill="rgb(0, 34, 132)"  x="10" y="24" width="1" height="1" /><rect shape-rendering="crispEdges" fill="rgb(0, 34, 132)"  x="10" y="25" width="1" height="1" /><rect shape-rendering="crispEdges" fill="rgb(0, 34, 132)"  x="10" y="26" width="1" height="1" /><rect shape-rendering="crispEdges" fill="rgb(0, 34, 132)"  x="10" y="27" width="1" height="1" /><rect shape-rendering="crispEdges" fill="rgb(0, 24, 104)"  x="10" y="28" width="1" height="1" /><rect shape-rendering="crispEdges" fill="rgb(0, 24, 104)"  x="10" y="29" width="1" height="1" /><rect shape-rendering="crispEdges" fill="rgb(8, 16, 64)"  x="10" y="30" width="1" height="1" /><rect shape-rendering="crispEdges" fill="rgb(112, 120, 124)"  x="11" y="2" width="1" height="1" /><rect shape-rendering="crispEdges" fill="rgb(216, 216, 216)"  x="11" y="3" width="1" height="1" /><rect shape-rendering="crispEdges" fill="rgb(168, 158, 104)"  x="11" y="4" width="1" height="1" /><rect shape-rendering="crispEdges" fill="rgb(232, 216, 104)"  x="11" y="5" width="1" height="1" /><rect shape-rendering="crispEdges" fill="rgb(104, 100, 104)"  x="11" y="6" width="1" height="1" /><rect shape-rendering="crispEdges" fill="rgb(104, 100, 104)"  x="11" y="7" width="1" height="1" /><rect shape-rendering="crispEdges" fill="rgb(216, 212, 216)"  x="11" y="8" width="1" height="1" /><rect shape-rendering="crispEdges" fill="rgb(216, 212, 216)"  x="11" y="9" width="1" height="1" /><rect shape-rendering="crispEdges" fill="rgb(216, 212, 216)"  x="11" y="10" width="1" height="1" /><rect shape-rendering="crispEdges" fill="rgb(216, 212, 216)"  x="11" y="11" width="1" height="1" /><rect shape-rendering="crispEdges" fill="rgb(64, 90, 168)"  x="11" y="12" width="1" height="1" /><rect shape-rendering="crispEdges" fill="rgb(0, 36, 136)"  x="11" y="13" width="1" height="1" /><rect shape-rendering="crispEdges" fill="rgb(0, 36, 136)"  x="11" y="14" width="1" height="1" /><rect shape-rendering="crispEdges" fill="rgb(0, 36, 136)"  x="11" y="15" width="1" height="1" /><rect shape-rendering="crispEdges" fill="rgb(8, 40, 160)"  x="11" y="16" width="1" height="1" /><rect shape-rendering="crispEdges" fill="rgb(8, 40, 160)"  x="11" y="17" width="1" height="1" /><rect shape-rendering="crispEdges" fill="rgb(8, 40, 160)"  x="11" y="18" width="1" height="1" /><rect shape-rendering="crispEdges" fill="rgb(8, 40, 160)"  x="11" y="19" width="1" height="1" /><rect shape-rendering="crispEdges" fill="rgb(0, 40, 152)"  x="11" y="20" width="1" height="1" /><rect shape-rendering="crispEdges" fill="rgb(0, 40, 152)"  x="11" y="21" width="1" height="1" /><rect shape-rendering="crispEdges" fill="rgb(0, 32, 128)"  x="11" y="22" width="1" height="1" /><rect shape-rendering="crispEdges" fill="rgb(0, 32, 128)"  x="11" y="23" width="1" height="1" /><rect shape-rendering="crispEdges" fill="rgb(0, 34, 132)"  x="11" y="24" width="1" height="1" /><rect shape-rendering="crispEdges" fill="rgb(0, 24, 104)"  x="11" y="25" width="1" height="1" /><rect shape-rendering="crispEdges" fill="rgb(0, 24, 104)"  x="11" y="26" width="1" height="1" /><rect shape-rendering="crispEdges" fill="rgb(0, 24, 104)"  x="11" y="27" width="1" height="1" /><rect shape-rendering="crispEdges" fill="rgb(0, 24, 104)"  x="11" y="28" width="1" height="1" /><rect shape-rendering="crispEdges" fill="rgb(0, 24, 104)"  x="11" y="29" width="1" height="1" /><rect shape-rendering="crispEdges" fill="rgb(8, 16, 64)"  x="11" y="30" width="1" height="1" /><rect shape-rendering="crispEdges" fill="rgb(112, 118, 124)"  x="12" y="2" width="1" height="1" /><rect shape-rendering="crispEdges" fill="rgb(224, 228, 224)"  x="12" y="3" width="1" height="1" /><rect shape-rendering="crispEdges" fill="rgb(232, 232, 224)"  x="12" y="4" width="1" height="1" /><rect shape-rendering="crispEdges" fill="rgb(232, 232, 224)"  x="12" y="5" width="1" height="1" /><rect shape-rendering="crispEdges" fill="rgb(232, 232, 224)"  x="12" y="6" width="1" height="1" /><rect shape-rendering="crispEdges" fill="rgb(200, 200, 196)"  x="12" y="7" width="1" height="1" /><rect shape-rendering="crispEdges" fill="rgb(212, 188, 100)"  x="12" y="8" width="1" height="1" /><rect shape-rendering="crispEdges" fill="rgb(224, 220, 176)"  x="12" y="9" width="1" height="1" /><rect shape-rendering="crispEdges" fill="rgb(224, 220, 176)"  x="12" y="10" width="1" height="1" /><rect shape-rendering="crispEdges" fill="rgb(224, 220, 176)"  x="12" y="11" width="1" height="1" /><rect shape-rendering="crispEdges" fill="rgb(232, 228, 216)"  x="12" y="12" width="1" height="1" /><rect shape-rendering="crispEdges" fill="rgb(128, 134, 160)"  x="12" y="13" width="1" height="1" /><rect shape-rendering="crispEdges" fill="rgb(24, 40, 104)"  x="12" y="14" width="1" height="1" /><rect shape-rendering="crispEdges" fill="rgb(24, 40, 104)"  x="12" y="15" width="1" height="1" /><rect shape-rendering="crispEdges" fill="rgb(8, 32, 128)"  x="12" y="16" width="1" height="1" /><rect shape-rendering="crispEdges" fill="rgb(8, 32, 128)"  x="12" y="17" width="1" height="1" /><rect shape-rendering="crispEdges" fill="rgb(8, 32, 128)"  x="12" y="18" width="1" height="1" /><rect shape-rendering="crispEdges" fill="rgb(8, 32, 128)"  x="12" y="19" width="1" height="1" /><rect shape-rendering="crispEdges" fill="rgb(8, 34, 132)"  x="12" y="20" width="1" height="1" /><rect shape-rendering="crispEdges" fill="rgb(0, 24, 104)"  x="12" y="21" width="1" height="1" /><rect shape-rendering="crispEdges" fill="rgb(0, 24, 104)"  x="12" y="22" width="1" height="1" /><rect shape-rendering="crispEdges" fill="rgb(0, 24, 104)"  x="12" y="23" width="1" height="1" /><rect shape-rendering="crispEdges" fill="rgb(0, 24, 96)"  x="12" y="24" width="1" height="1" /><rect shape-rendering="crispEdges" fill="rgb(0, 24, 96)"  x="12" y="25" width="1" height="1" /><rect shape-rendering="crispEdges" fill="rgb(0, 24, 96)"  x="12" y="26" width="1" height="1" /><rect shape-rendering="crispEdges" fill="rgb(0, 24, 96)"  x="12" y="27" width="1" height="1" /><rect shape-rendering="crispEdges" fill="rgb(8, 24, 92)"  x="12" y="28" width="1" height="1" /><rect shape-rendering="crispEdges" fill="rgb(8, 16, 64)"  x="12" y="29" width="1" height="1" /><rect shape-rendering="crispEdges" fill="rgb(8, 16, 64)"  x="12" y="30" width="1" height="1" /><rect shape-rendering="crispEdges" fill="rgb(112, 118, 124)"  x="13" y="3" width="1" height="1" /><rect shape-rendering="crispEdges" fill="rgb(232, 232, 224)"  x="13" y="4" width="1" height="1" /><rect shape-rendering="crispEdges" fill="rgb(232, 232, 224)"  x="13" y="5" width="1" height="1" /><rect shape-rendering="crispEdges" fill="rgb(232, 232, 224)"  x="13" y="6" width="1" height="1" /><rect shape-rendering="crispEdges" fill="rgb(200, 200, 196)"  x="13" y="7" width="1" height="1" /><rect shape-rendering="crispEdges" fill="rgb(224, 220, 176)"  x="13" y="8" width="1" height="1" /><rect shape-rendering="crispEdges" fill="rgb(200, 156, 24)"  x="13" y="9" width="1" height="1" /><rect shape-rendering="crispEdges" fill="rgb(224, 220, 176)"  x="13" y="10" width="1" height="1" /><rect shape-rendering="crispEdges" fill="rgb(200, 156, 24)"  x="13" y="11" width="1" height="1" /><rect shape-rendering="crispEdges" fill="rgb(232, 228, 216)"  x="13" y="12" width="1" height="1" /><rect shape-rendering="crispEdges" fill="rgb(232, 228, 216)"  x="13" y="13" width="1" height="1" /><rect shape-rendering="crispEdges" fill="rgb(128, 134, 160)"  x="13" y="14" width="1" height="1" /><rect shape-rendering="crispEdges" fill="rgb(24, 40, 104)"  x="13" y="15" width="1" height="1" /><rect shape-rendering="crispEdges" fill="rgb(8, 32, 128)"  x="13" y="16" width="1" height="1" /><rect shape-rendering="crispEdges" fill="rgb(8, 32, 128)"  x="13" y="17" width="1" height="1" /><rect shape-rendering="crispEdges" fill="rgb(8, 32, 128)"  x="13" y="18" width="1" height="1" /><rect shape-rendering="crispEdges" fill="rgb(8, 32, 128)"  x="13" y="19" width="1" height="1" /><rect shape-rendering="crispEdges" fill="rgb(0, 24, 104)"  x="13" y="20" width="1" height="1" /><rect shape-rendering="crispEdges" fill="rgb(0, 24, 104)"  x="13" y="21" width="1" height="1" /><rect shape-rendering="crispEdges" fill="rgb(0, 24, 104)"  x="13" y="22" width="1" height="1" /><rect shape-rendering="crispEdges" fill="rgb(0, 24, 104)"  x="13" y="23" width="1" height="1" /><rect shape-rendering="crispEdges" fill="rgb(0, 24, 96)"  x="13" y="24" width="1" height="1" /><rect shape-rendering="crispEdges" fill="rgb(0, 24, 96)"  x="13" y="25" width="1" height="1" /><rect shape-rendering="crispEdges" fill="rgb(0, 24, 96)"  x="13" y="26" width="1" height="1" /><rect shape-rendering="crispEdges" fill="rgb(0, 24, 96)"  x="13" y="27" width="1" height="1" /><rect shape-rendering="crispEdges" fill="rgb(8, 24, 92)"  x="13" y="28" width="1" height="1" /><rect shape-rendering="crispEdges" fill="rgb(8, 16, 64)"  x="13" y="29" width="1" height="1" /><rect shape-rendering="crispEdges" fill="rgb(8, 16, 64)"  x="13" y="30" width="1" height="1" /><rect shape-rendering="crispEdges" fill="rgb(112, 118, 124)"  x="14" y="3" width="1" height="1" /><rect shape-rendering="crispEdges" fill="rgb(232, 232, 224)"  x="14" y="4" width="1" height="1" /><rect shape-rendering="crispEdges" fill="rgb(232, 232, 224)"  x="14" y="5" width="1" height="1" /><rect shape-rendering="crispEdges" fill="rgb(232, 232, 224)"  x="14" y="6" width="1" height="1" /><rect shape-rendering="crispEdges" fill="rgb(200, 200, 196)"  x="14" y="7" width="1" height="1" /><rect shape-rendering="crispEdges" fill="rgb(224, 220, 176)"  x="14" y="8" width="1" height="1" /><rect shape-rendering="crispEdges" fill="rgb(224, 220, 176)"  x="14" y="9" width="1" height="1" /><rect shape-rendering="crispEdges" fill="rgb(200, 156, 24)"  x="14" y="10" width="1" height="1" /><rect shape-rendering="crispEdges" fill="rgb(224, 220, 176)"  x="14" y="11" width="1" height="1" /><rect shape-rendering="crispEdges" fill="rgb(232, 228, 216)"  x="14" y="12" width="1" height="1" /><rect shape-rendering="crispEdges" fill="rgb(232, 228, 216)"  x="14" y="13" width="1" height="1" /><rect shape-rendering="crispEdges" fill="rgb(232, 228, 216)"  x="14" y="14" width="1" height="1" /><rect shape-rendering="crispEdges" fill="rgb(128, 134, 160)"  x="14" y="15" width="1" height="1" /><rect shape-rendering="crispEdges" fill="rgb(8, 32, 128)"  x="14" y="16" width="1" height="1" /><rect shape-rendering="crispEdges" fill="rgb(8, 32, 128)"  x="14" y="17" width="1" height="1" /><rect shape-rendering="crispEdges" fill="rgb(8, 32, 128)"  x="14" y="18" width="1" height="1" /><rect shape-rendering="crispEdges" fill="rgb(8, 32, 128)"  x="14" y="19" width="1" height="1" /><rect shape-rendering="crispEdges" fill="rgb(8, 34, 132)"  x="14" y="20" width="1" height="1" /><rect shape-rendering="crispEdges" fill="rgb(8, 34, 132)"  x="14" y="21" width="1" height="1" /><rect shape-rendering="crispEdges" fill="rgb(8, 34, 132)"  x="14" y="22" width="1" height="1" /><rect shape-rendering="crispEdges" fill="rgb(8, 34, 132)"  x="14" y="23" width="1" height="1" /><rect shape-rendering="crispEdges" fill="rgb(8, 32, 120)"  x="14" y="24" width="1" height="1" /><rect shape-rendering="crispEdges" fill="rgb(8, 32, 120)"  x="14" y="25" width="1" height="1" /><rect shape-rendering="crispEdges" fill="rgb(8, 32, 120)"  x="14" y="26" width="1" height="1" /><rect shape-rendering="crispEdges" fill="rgb(8, 32, 120)"  x="14" y="27" width="1" height="1" /><rect shape-rendering="crispEdges" fill="rgb(8, 32, 120)"  x="14" y="28" width="1" height="1" /><rect shape-rendering="crispEdges" fill="rgb(8, 16, 64)"  x="14" y="29" width="1" height="1" /><rect shape-rendering="crispEdges" fill="rgb(8, 16, 64)"  x="14" y="30" width="1" height="1" /><rect shape-rendering="crispEdges" fill="rgb(112, 118, 124)"  x="15" y="3" width="1" height="1" /><rect shape-rendering="crispEdges" fill="rgb(168, 168, 168)"  x="15" y="4" width="1" height="1" /><rect shape-rendering="crispEdges" fill="rgb(232, 232, 224)"  x="15" y="5" width="1" height="1" /><rect shape-rendering="crispEdges" fill="rgb(200, 200, 196)"  x="15" y="6" width="1" height="1" /><rect shape-rendering="crispEdges" fill="rgb(200, 200, 196)"  x="15" y="7" width="1" height="1" /><rect shape-rendering="crispEdges" fill="rgb(200, 156, 24)"  x="15" y="8" width="1" height="1" /><rect shape-rendering="crispEdges" fill="rgb(224, 220, 176)"  x="15" y="9" width="1" height="1" /><rect shape-rendering="crispEdges" fill="rgb(224, 220, 176)"  x="15" y="10" width="1" height="1" /><rect shape-rendering="crispEdges" fill="rgb(224, 220, 176)"  x="15" y="11" width="1" height="1" /><rect shape-rendering="crispEdges" fill="rgb(128, 134, 160)"  x="15" y="12" width="1" height="1" /><rect shape-rendering="crispEdges" fill="rgb(232, 228, 216)"  x="15" y="13" width="1" height="1" /><rect shape-rendering="crispEdges" fill="rgb(232, 228, 216)"  x="15" y="14" width="1" height="1" /><rect shape-rendering="crispEdges" fill="rgb(128, 134, 160)"  x="15" y="15" width="1" height="1" /><rect shape-rendering="crispEdges" fill="rgb(200, 212, 232)"  x="15" y="16" width="1" height="1" /><rect shape-rendering="crispEdges" fill="rgb(104, 122, 180)"  x="15" y="17" width="1" height="1" /><rect shape-rendering="crispEdges" fill="rgb(8, 32, 128)"  x="15" y="18" width="1" height="1" /><rect shape-rendering="crispEdges" fill="rgb(8, 32, 128)"  x="15" y="19" width="1" height="1" /><rect shape-rendering="crispEdges" fill="rgb(16, 44, 160)"  x="15" y="20" width="1" height="1" /><rect shape-rendering="crispEdges" fill="rgb(16, 44, 160)"  x="15" y="21" width="1" height="1" /><rect shape-rendering="crispEdges" fill="rgb(16, 44, 160)"  x="15" y="22" width="1" height="1" /><rect shape-rendering="crispEdges" fill="rgb(16, 44, 160)"  x="15" y="23" width="1" height="1" /><rect shape-rendering="crispEdges" fill="rgb(16, 40, 144)"  x="15" y="24" width="1" height="1" /><rect shape-rendering="crispEdges" fill="rgb(16, 40, 144)"  x="15" y="25" width="1" height="1" /><rect shape-rendering="crispEdges" fill="rgb(16, 40, 144)"  x="15" y="26" width="1" height="1" /><rect shape-rendering="crispEdges" fill="rgb(16, 40, 144)"  x="15" y="27" width="1" height="1" /><rect shape-rendering="crispEdges" fill="rgb(8, 32, 120)"  x="15" y="28" width="1" height="1" /><rect shape-rendering="crispEdges" fill="rgb(8, 24, 92)"  x="15" y="29" width="1" height="1" /><rect shape-rendering="crispEdges" fill="rgb(8, 16, 64)"  x="15" y="30" width="1" height="1" /><rect shape-rendering="crispEdges" fill="rgb(112, 118, 124)"  x="16" y="3" width="1" height="1" /><rect shape-rendering="crispEdges" fill="rgb(200, 196, 200)"  x="16" y="4" width="1" height="1" /><rect shape-rendering="crispEdges" fill="rgb(232, 236, 232)"  x="16" y="5" width="1" height="1" /><rect shape-rendering="crispEdges" fill="rgb(216, 216, 216)"  x="16" y="6" width="1" height="1" /><rect shape-rendering="crispEdges" fill="rgb(200, 196, 200)"  x="16" y="7" width="1" height="1" /><rect shape-rendering="crispEdges" fill="rgb(200, 156, 8)"  x="16" y="8" width="1" height="1" /><rect shape-rendering="crispEdges" fill="rgb(224, 216, 176)"  x="16" y="9" width="1" height="1" /><rect shape-rendering="crispEdges" fill="rgb(224, 216, 176)"  x="16" y="10" width="1" height="1" /><rect shape-rendering="crispEdges" fill="rgb(224, 216, 176)"  x="16" y="11" width="1" height="1" /><rect shape-rendering="crispEdges" fill="rgb(200, 142, 116)"  x="16" y="12" width="1" height="1" /><rect shape-rendering="crispEdges" fill="rgb(224, 228, 216)"  x="16" y="13" width="1" height="1" /><rect shape-rendering="crispEdges" fill="rgb(224, 228, 216)"  x="16" y="14" width="1" height="1" /><rect shape-rendering="crispEdges" fill="rgb(200, 142, 116)"  x="16" y="15" width="1" height="1" /><rect shape-rendering="crispEdges" fill="rgb(240, 212, 208)"  x="16" y="16" width="1" height="1" /><rect shape-rendering="crispEdges" fill="rgb(208, 126, 116)"  x="16" y="17" width="1" height="1" /><rect shape-rendering="crispEdges" fill="rgb(176, 40, 24)"  x="16" y="18" width="1" height="1" /><rect shape-rendering="crispEdges" fill="rgb(176, 40, 24)"  x="16" y="19" width="1" height="1" /><rect shape-rendering="crispEdges" fill="rgb(200, 40, 24)"  x="16" y="20" width="1" height="1" /><rect shape-rendering="crispEdges" fill="rgb(200, 40, 24)"  x="16" y="21" width="1" height="1" /><rect shape-rendering="crispEdges" fill="rgb(180, 36, 24)"  x="16" y="22" width="1" height="1" /><rect shape-rendering="crispEdges" fill="rgb(180, 36, 24)"  x="16" y="23" width="1" height="1" /><rect shape-rendering="crispEdges" fill="rgb(180, 38, 24)"  x="16" y="24" width="1" height="1" /><rect shape-rendering="crispEdges" fill="rgb(180, 38, 24)"  x="16" y="25" width="1" height="1" /><rect shape-rendering="crispEdges" fill="rgb(180, 38, 24)"  x="16" y="26" width="1" height="1" /><rect shape-rendering="crispEdges" fill="rgb(160, 36, 24)"  x="16" y="27" width="1" height="1" /><rect shape-rendering="crispEdges" fill="rgb(156, 40, 32)"  x="16" y="28" width="1" height="1" /><rect shape-rendering="crispEdges" fill="rgb(156, 40, 32)"  x="16" y="29" width="1" height="1" /><rect shape-rendering="crispEdges" fill="rgb(104, 44, 40)"  x="16" y="30" width="1" height="1" /><rect shape-rendering="crispEdges" fill="rgb(112, 118, 124)"  x="17" y="3" width="1" height="1" /><rect shape-rendering="crispEdges" fill="rgb(232, 236, 232)"  x="17" y="4" width="1" height="1" /><rect shape-rendering="crispEdges" fill="rgb(232, 236, 232)"  x="17" y="5" width="1" height="1" /><rect shape-rendering="crispEdges" fill="rgb(216, 216, 216)"  x="17" y="6" width="1" height="1" /><rect shape-rendering="crispEdges" fill="rgb(200, 196, 200)"  x="17" y="7" width="1" height="1" /><rect shape-rendering="crispEdges" fill="rgb(224, 216, 176)"  x="17" y="8" width="1" height="1" /><rect shape-rendering="crispEdges" fill="rgb(224, 216, 176)"  x="17" y="9" width="1" height="1" /><rect shape-rendering="crispEdges" fill="rgb(200, 156, 8)"  x="17" y="10" width="1" height="1" /><rect shape-rendering="crispEdges" fill="rgb(224, 216, 176)"  x="17" y="11" width="1" height="1" /><rect shape-rendering="crispEdges" fill="rgb(224, 228, 216)"  x="17" y="12" width="1" height="1" /><rect shape-rendering="crispEdges" fill="rgb(224, 228, 216)"  x="17" y="13" width="1" height="1" /><rect shape-rendering="crispEdges" fill="rgb(224, 228, 216)"  x="17" y="14" width="1" height="1" /><rect shape-rendering="crispEdges" fill="rgb(200, 142, 116)"  x="17" y="15" width="1" height="1" /><rect shape-rendering="crispEdges" fill="rgb(176, 40, 24)"  x="17" y="16" width="1" height="1" /><rect shape-rendering="crispEdges" fill="rgb(176, 40, 24)"  x="17" y="17" width="1" height="1" /><rect shape-rendering="crispEdges" fill="rgb(176, 40, 24)"  x="17" y="18" width="1" height="1" /><rect shape-rendering="crispEdges" fill="rgb(176, 40, 24)"  x="17" y="19" width="1" height="1" /><rect shape-rendering="crispEdges" fill="rgb(200, 40, 24)"  x="17" y="20" width="1" height="1" /><rect shape-rendering="crispEdges" fill="rgb(200, 40, 24)"  x="17" y="21" width="1" height="1" /><rect shape-rendering="crispEdges" fill="rgb(200, 40, 24)"  x="17" y="22" width="1" height="1" /><rect shape-rendering="crispEdges" fill="rgb(200, 40, 24)"  x="17" y="23" width="1" height="1" /><rect shape-rendering="crispEdges" fill="rgb(200, 40, 24)"  x="17" y="24" width="1" height="1" /><rect shape-rendering="crispEdges" fill="rgb(200, 40, 24)"  x="17" y="25" width="1" height="1" /><rect shape-rendering="crispEdges" fill="rgb(200, 40, 24)"  x="17" y="26" width="1" height="1" /><rect shape-rendering="crispEdges" fill="rgb(200, 40, 24)"  x="17" y="27" width="1" height="1" /><rect shape-rendering="crispEdges" fill="rgb(208, 36, 24)"  x="17" y="28" width="1" height="1" /><rect shape-rendering="crispEdges" fill="rgb(208, 36, 24)"  x="17" y="29" width="1" height="1" /><rect shape-rendering="crispEdges" fill="rgb(104, 44, 40)"  x="17" y="30" width="1" height="1" /><rect shape-rendering="crispEdges" fill="rgb(112, 118, 124)"  x="18" y="3" width="1" height="1" /><rect shape-rendering="crispEdges" fill="rgb(232, 236, 232)"  x="18" y="4" width="1" height="1" /><rect shape-rendering="crispEdges" fill="rgb(232, 236, 232)"  x="18" y="5" width="1" height="1" /><rect shape-rendering="crispEdges" fill="rgb(216, 216, 216)"  x="18" y="6" width="1" height="1" /><rect shape-rendering="crispEdges" fill="rgb(200, 196, 200)"  x="18" y="7" width="1" height="1" /><rect shape-rendering="crispEdges" fill="rgb(224, 216, 176)"  x="18" y="8" width="1" height="1" /><rect shape-rendering="crispEdges" fill="rgb(200, 156, 8)"  x="18" y="9" width="1" height="1" /><rect shape-rendering="crispEdges" fill="rgb(224, 216, 176)"  x="18" y="10" width="1" height="1" /><rect shape-rendering="crispEdges" fill="rgb(200, 156, 8)"  x="18" y="11" width="1" height="1" /><rect shape-rendering="crispEdges" fill="rgb(224, 228, 216)"  x="18" y="12" width="1" height="1" /><rect shape-rendering="crispEdges" fill="rgb(224, 228, 216)"  x="18" y="13" width="1" height="1" /><rect shape-rendering="crispEdges" fill="rgb(200, 142, 116)"  x="18" y="14" width="1" height="1" /><rect shape-rendering="crispEdges" fill="rgb(176, 56, 16)"  x="18" y="15" width="1" height="1" /><rect shape-rendering="crispEdges" fill="rgb(176, 40, 24)"  x="18" y="16" width="1" height="1" /><rect shape-rendering="crispEdges" fill="rgb(176, 40, 24)"  x="18" y="17" width="1" height="1" /><rect shape-rendering="crispEdges" fill="rgb(176, 40, 24)"  x="18" y="18" width="1" height="1" /><rect shape-rendering="crispEdges" fill="rgb(176, 40, 24)"  x="18" y="19" width="1" height="1" /><rect shape-rendering="crispEdges" fill="rgb(180, 36, 24)"  x="18" y="20" width="1" height="1" /><rect shape-rendering="crispEdges" fill="rgb(180, 36, 24)"  x="18" y="21" width="1" height="1" /><rect shape-rendering="crispEdges" fill="rgb(180, 36, 24)"  x="18" y="22" width="1" height="1" /><rect shape-rendering="crispEdges" fill="rgb(180, 36, 24)"  x="18" y="23" width="1" height="1" /><rect shape-rendering="crispEdges" fill="rgb(200, 40, 24)"  x="18" y="24" width="1" height="1" /><rect shape-rendering="crispEdges" fill="rgb(200, 40, 24)"  x="18" y="25" width="1" height="1" /><rect shape-rendering="crispEdges" fill="rgb(200, 40, 24)"  x="18" y="26" width="1" height="1" /><rect shape-rendering="crispEdges" fill="rgb(200, 40, 24)"  x="18" y="27" width="1" height="1" /><rect shape-rendering="crispEdges" fill="rgb(208, 36, 24)"  x="18" y="28" width="1" height="1" /><rect shape-rendering="crispEdges" fill="rgb(208, 36, 24)"  x="18" y="29" width="1" height="1" /><rect shape-rendering="crispEdges" fill="rgb(104, 44, 40)"  x="18" y="30" width="1" height="1" /><rect shape-rendering="crispEdges" fill="rgb(128, 114, 116)"  x="19" y="2" width="1" height="1" /><rect shape-rendering="crispEdges" fill="rgb(232, 236, 232)"  x="19" y="3" width="1" height="1" /><rect shape-rendering="crispEdges" fill="rgb(232, 236, 232)"  x="19" y="4" width="1" height="1" /><rect shape-rendering="crispEdges" fill="rgb(232, 236, 232)"  x="19" y="5" width="1" height="1" /><rect shape-rendering="crispEdges" fill="rgb(216, 216, 216)"  x="19" y="6" width="1" height="1" /><rect shape-rendering="crispEdges" fill="rgb(200, 196, 200)"  x="19" y="7" width="1" height="1" /><rect shape-rendering="crispEdges" fill="rgb(224, 216, 176)"  x="19" y="8" width="1" height="1" /><rect shape-rendering="crispEdges" fill="rgb(224, 216, 176)"  x="19" y="9" width="1" height="1" /><rect shape-rendering="crispEdges" fill="rgb(224, 216, 176)"  x="19" y="10" width="1" height="1" /><rect shape-rendering="crispEdges" fill="rgb(224, 216, 176)"  x="19" y="11" width="1" height="1" /><rect shape-rendering="crispEdges" fill="rgb(224, 228, 216)"  x="19" y="12" width="1" height="1" /><rect shape-rendering="crispEdges" fill="rgb(200, 142, 116)"  x="19" y="13" width="1" height="1" /><rect shape-rendering="crispEdges" fill="rgb(176, 56, 16)"  x="19" y="14" width="1" height="1" /><rect shape-rendering="crispEdges" fill="rgb(176, 56, 16)"  x="19" y="15" width="1" height="1" /><rect shape-rendering="crispEdges" fill="rgb(176, 40, 24)"  x="19" y="16" width="1" height="1" /><rect shape-rendering="crispEdges" fill="rgb(176, 40, 24)"  x="19" y="17" width="1" height="1" /><rect shape-rendering="crispEdges" fill="rgb(176, 40, 24)"  x="19" y="18" width="1" height="1" /><rect shape-rendering="crispEdges" fill="rgb(176, 40, 24)"  x="19" y="19" width="1" height="1" /><rect shape-rendering="crispEdges" fill="rgb(160, 32, 24)"  x="19" y="20" width="1" height="1" /><rect shape-rendering="crispEdges" fill="rgb(160, 32, 24)"  x="19" y="21" width="1" height="1" /><rect shape-rendering="crispEdges" fill="rgb(160, 32, 24)"  x="19" y="22" width="1" height="1" /><rect shape-rendering="crispEdges" fill="rgb(160, 32, 24)"  x="19" y="23" width="1" height="1" /><rect shape-rendering="crispEdges" fill="rgb(160, 36, 24)"  x="19" y="24" width="1" height="1" /><rect shape-rendering="crispEdges" fill="rgb(160, 36, 24)"  x="19" y="25" width="1" height="1" /><rect shape-rendering="crispEdges" fill="rgb(160, 36, 24)"  x="19" y="26" width="1" height="1" /><rect shape-rendering="crispEdges" fill="rgb(160, 36, 24)"  x="19" y="27" width="1" height="1" /><rect shape-rendering="crispEdges" fill="rgb(156, 40, 32)"  x="19" y="28" width="1" height="1" /><rect shape-rendering="crispEdges" fill="rgb(156, 40, 32)"  x="19" y="29" width="1" height="1" /><rect shape-rendering="crispEdges" fill="rgb(104, 44, 40)"  x="19" y="30" width="1" height="1" /><rect shape-rendering="crispEdges" fill="rgb(128, 114, 116)"  x="20" y="2" width="1" height="1" /><rect shape-rendering="crispEdges" fill="rgb(216, 224, 224)"  x="20" y="3" width="1" height="1" /><rect shape-rendering="crispEdges" fill="rgb(172, 154, 96)"  x="20" y="4" width="1" height="1" /><rect shape-rendering="crispEdges" fill="rgb(224, 204, 96)"  x="20" y="5" width="1" height="1" /><rect shape-rendering="crispEdges" fill="rgb(120, 104, 96)"  x="20" y="6" width="1" height="1" /><rect shape-rendering="crispEdges" fill="rgb(120, 104, 96)"  x="20" y="7" width="1" height="1" /><rect shape-rendering="crispEdges" fill="rgb(216, 208, 208)"  x="20" y="8" width="1" height="1" /><rect shape-rendering="crispEdges" fill="rgb(216, 208, 208)"  x="20" y="9" width="1" height="1" /><rect shape-rendering="crispEdges" fill="rgb(216, 208, 208)"  x="20" y="10" width="1" height="1" /><rect shape-rendering="crispEdges" fill="rgb(216, 208, 208)"  x="20" y="11" width="1" height="1" /><rect shape-rendering="crispEdges" fill="rgb(208, 132, 112)"  x="20" y="12" width="1" height="1" /><rect shape-rendering="crispEdges" fill="rgb(176, 36, 24)"  x="20" y="13" width="1" height="1" /><rect shape-rendering="crispEdges" fill="rgb(176, 36, 24)"  x="20" y="14" width="1" height="1" /><rect shape-rendering="crispEdges" fill="rgb(176, 36, 24)"  x="20" y="15" width="1" height="1" /><rect shape-rendering="crispEdges" fill="rgb(184, 40, 24)"  x="20" y="16" width="1" height="1" /><rect shape-rendering="crispEdges" fill="rgb(184, 40, 24)"  x="20" y="17" width="1" height="1" /><rect shape-rendering="crispEdges" fill="rgb(184, 40, 24)"  x="20" y="18" width="1" height="1" /><rect shape-rendering="crispEdges" fill="rgb(184, 40, 24)"  x="20" y="19" width="1" height="1" /><rect shape-rendering="crispEdges" fill="rgb(160, 32, 24)"  x="20" y="20" width="1" height="1" /><rect shape-rendering="crispEdges" fill="rgb(160, 32, 24)"  x="20" y="21" width="1" height="1" /><rect shape-rendering="crispEdges" fill="rgb(160, 32, 24)"  x="20" y="22" width="1" height="1" /><rect shape-rendering="crispEdges" fill="rgb(160, 32, 24)"  x="20" y="23" width="1" height="1" /><rect shape-rendering="crispEdges" fill="rgb(152, 32, 24)"  x="20" y="24" width="1" height="1" /><rect shape-rendering="crispEdges" fill="rgb(152, 32, 24)"  x="20" y="25" width="1" height="1" /><rect shape-rendering="crispEdges" fill="rgb(152, 32, 24)"  x="20" y="26" width="1" height="1" /><rect shape-rendering="crispEdges" fill="rgb(152, 32, 24)"  x="20" y="27" width="1" height="1" /><rect shape-rendering="crispEdges" fill="rgb(148, 40, 28)"  x="20" y="28" width="1" height="1" /><rect shape-rendering="crispEdges" fill="rgb(148, 40, 28)"  x="20" y="29" width="1" height="1" /><rect shape-rendering="crispEdges" fill="rgb(96, 40, 32)"  x="20" y="30" width="1" height="1" /><rect shape-rendering="crispEdges" fill="rgb(128, 114, 116)"  x="21" y="2" width="1" height="1" /><rect shape-rendering="crispEdges" fill="rgb(216, 224, 224)"  x="21" y="3" width="1" height="1" /><rect shape-rendering="crispEdges" fill="rgb(224, 204, 96)"  x="21" y="4" width="1" height="1" /><rect shape-rendering="crispEdges" fill="rgb(120, 104, 96)"  x="21" y="5" width="1" height="1" /><rect shape-rendering="crispEdges" fill="rgb(136, 52, 40)"  x="21" y="8" width="1" height="1" /><rect shape-rendering="crispEdges" fill="rgb(216, 208, 208)"  x="21" y="9" width="1" height="1" /><rect shape-rendering="crispEdges" fill="rgb(216, 208, 208)"  x="21" y="10" width="1" height="1" /><rect shape-rendering="crispEdges" fill="rgb(136, 52, 40)"  x="21" y="11" width="1" height="1" /><rect shape-rendering="crispEdges" fill="rgb(176, 36, 24)"  x="21" y="12" width="1" height="1" /><rect shape-rendering="crispEdges" fill="rgb(176, 36, 24)"  x="21" y="13" width="1" height="1" /><rect shape-rendering="crispEdges" fill="rgb(176, 36, 24)"  x="21" y="14" width="1" height="1" /><rect shape-rendering="crispEdges" fill="rgb(176, 36, 24)"  x="21" y="15" width="1" height="1" /><rect shape-rendering="crispEdges" fill="rgb(208, 44, 24)"  x="21" y="16" width="1" height="1" /><rect shape-rendering="crispEdges" fill="rgb(208, 44, 24)"  x="21" y="17" width="1" height="1" /><rect shape-rendering="crispEdges" fill="rgb(208, 44, 24)"  x="21" y="18" width="1" height="1" /><rect shape-rendering="crispEdges" fill="rgb(208, 44, 24)"  x="21" y="19" width="1" height="1" /><rect shape-rendering="crispEdges" fill="rgb(200, 40, 24)"  x="21" y="20" width="1" height="1" /><rect shape-rendering="crispEdges" fill="rgb(200, 40, 24)"  x="21" y="21" width="1" height="1" /><rect shape-rendering="crispEdges" fill="rgb(200, 40, 24)"  x="21" y="22" width="1" height="1" /><rect shape-rendering="crispEdges" fill="rgb(200, 40, 24)"  x="21" y="23" width="1" height="1" /><rect shape-rendering="crispEdges" fill="rgb(176, 36, 24)"  x="21" y="24" width="1" height="1" /><rect shape-rendering="crispEdges" fill="rgb(176, 36, 24)"  x="21" y="25" width="1" height="1" /><rect shape-rendering="crispEdges" fill="rgb(176, 36, 24)"  x="21" y="26" width="1" height="1" /><rect shape-rendering="crispEdges" fill="rgb(176, 36, 24)"  x="21" y="27" width="1" height="1" /><rect shape-rendering="crispEdges" fill="rgb(148, 40, 28)"  x="21" y="28" width="1" height="1" /><rect shape-rendering="crispEdges" fill="rgb(148, 40, 28)"  x="21" y="29" width="1" height="1" /><rect shape-rendering="crispEdges" fill="rgb(96, 40, 32)"  x="21" y="30" width="1" height="1" /><rect shape-rendering="crispEdges" fill="rgb(128, 114, 116)"  x="22" y="2" width="1" height="1" /><rect shape-rendering="crispEdges" fill="rgb(128, 114, 116)"  x="22" y="3" width="1" height="1" /><rect shape-rendering="crispEdges" fill="rgb(120, 104, 96)"  x="22" y="4" width="1" height="1" /><rect shape-rendering="crispEdges" fill="rgb(136, 52, 40)"  x="22" y="9" width="1" height="1" /><rect shape-rendering="crispEdges" fill="rgb(136, 52, 40)"  x="22" y="10" width="1" height="1" /><rect shape-rendering="crispEdges" fill="rgb(136, 52, 40)"  x="22" y="11" width="1" height="1" /><rect shape-rendering="crispEdges" fill="rgb(176, 36, 24)"  x="22" y="12" width="1" height="1" /><rect shape-rendering="crispEdges" fill="rgb(176, 36, 24)"  x="22" y="13" width="1" height="1" /><rect shape-rendering="crispEdges" fill="rgb(176, 36, 24)"  x="22" y="14" width="1" height="1" /><rect shape-rendering="crispEdges" fill="rgb(176, 36, 24)"  x="22" y="15" width="1" height="1" /><rect shape-rendering="crispEdges" fill="rgb(160, 36, 24)"  x="22" y="16" width="1" height="1" /><rect shape-rendering="crispEdges" fill="rgb(160, 36, 24)"  x="22" y="17" width="1" height="1" /><rect shape-rendering="crispEdges" fill="rgb(184, 40, 24)"  x="22" y="18" width="1" height="1" /><rect shape-rendering="crispEdges" fill="rgb(184, 40, 24)"  x="22" y="19" width="1" height="1" /><rect shape-rendering="crispEdges" fill="rgb(200, 40, 24)"  x="22" y="20" width="1" height="1" /><rect shape-rendering="crispEdges" fill="rgb(200, 40, 24)"  x="22" y="21" width="1" height="1" /><rect shape-rendering="crispEdges" fill="rgb(200, 40, 24)"  x="22" y="22" width="1" height="1" /><rect shape-rendering="crispEdges" fill="rgb(200, 40, 24)"  x="22" y="23" width="1" height="1" /><rect shape-rendering="crispEdges" fill="rgb(200, 40, 24)"  x="22" y="24" width="1" height="1" /><rect shape-rendering="crispEdges" fill="rgb(200, 40, 24)"  x="22" y="25" width="1" height="1" /><rect shape-rendering="crispEdges" fill="rgb(200, 40, 24)"  x="22" y="26" width="1" height="1" /><rect shape-rendering="crispEdges" fill="rgb(200, 40, 24)"  x="22" y="27" width="1" height="1" /><rect shape-rendering="crispEdges" fill="rgb(200, 40, 24)"  x="22" y="28" width="1" height="1" /><rect shape-rendering="crispEdges" fill="rgb(200, 40, 24)"  x="22" y="29" width="1" height="1" /><rect shape-rendering="crispEdges" fill="rgb(96, 40, 32)"  x="22" y="30" width="1" height="1" /><rect shape-rendering="crispEdges" fill="rgb(136, 52, 40)"  x="23" y="10" width="1" height="1" /><rect shape-rendering="crispEdges" fill="rgb(136, 52, 40)"  x="23" y="11" width="1" height="1" /><rect shape-rendering="crispEdges" fill="rgb(176, 36, 24)"  x="23" y="12" width="1" height="1" /><rect shape-rendering="crispEdges" fill="rgb(176, 36, 24)"  x="23" y="13" width="1" height="1" /><rect shape-rendering="crispEdges" fill="rgb(176, 36, 24)"  x="23" y="14" width="1" height="1" /><rect shape-rendering="crispEdges" fill="rgb(176, 36, 24)"  x="23" y="15" width="1" height="1" /><rect shape-rendering="crispEdges" fill="rgb(160, 36, 24)"  x="23" y="16" width="1" height="1" /><rect shape-rendering="crispEdges" fill="rgb(160, 36, 24)"  x="23" y="17" width="1" height="1" /><rect shape-rendering="crispEdges" fill="rgb(160, 36, 24)"  x="23" y="18" width="1" height="1" /><rect shape-rendering="crispEdges" fill="rgb(160, 36, 24)"  x="23" y="19" width="1" height="1" /><rect shape-rendering="crispEdges" fill="rgb(160, 32, 24)"  x="23" y="20" width="1" height="1" /><rect shape-rendering="crispEdges" fill="rgb(160, 32, 24)"  x="23" y="21" width="1" height="1" /><rect shape-rendering="crispEdges" fill="rgb(180, 36, 24)"  x="23" y="22" width="1" height="1" /><rect shape-rendering="crispEdges" fill="rgb(180, 36, 24)"  x="23" y="23" width="1" height="1" /><rect shape-rendering="crispEdges" fill="rgb(200, 40, 24)"  x="23" y="24" width="1" height="1" /><rect shape-rendering="crispEdges" fill="rgb(200, 40, 24)"  x="23" y="25" width="1" height="1" /><rect shape-rendering="crispEdges" fill="rgb(200, 40, 24)"  x="23" y="26" width="1" height="1" /><rect shape-rendering="crispEdges" fill="rgb(200, 40, 24)"  x="23" y="27" width="1" height="1" /><rect shape-rendering="crispEdges" fill="rgb(200, 40, 24)"  x="23" y="28" width="1" height="1" /><rect shape-rendering="crispEdges" fill="rgb(200, 40, 24)"  x="23" y="29" width="1" height="1" /><rect shape-rendering="crispEdges" fill="rgb(96, 40, 32)"  x="23" y="30" width="1" height="1" /><rect shape-rendering="crispEdges" fill="rgb(96, 48, 48)"  x="24" y="13" width="1" height="1" /><rect shape-rendering="crispEdges" fill="rgb(88, 40, 32)"  x="24" y="14" width="1" height="1" /><rect shape-rendering="crispEdges" fill="rgb(88, 40, 32)"  x="24" y="15" width="1" height="1" /><rect shape-rendering="crispEdges" fill="rgb(92, 46, 44)"  x="24" y="16" width="1" height="1" /><rect shape-rendering="crispEdges" fill="rgb(92, 46, 44)"  x="24" y="17" width="1" height="1" /><rect shape-rendering="crispEdges" fill="rgb(184, 36, 24)"  x="24" y="18" width="1" height="1" /><rect shape-rendering="crispEdges" fill="rgb(184, 36, 24)"  x="24" y="19" width="1" height="1" /><rect shape-rendering="crispEdges" fill="rgb(160, 32, 24)"  x="24" y="20" width="1" height="1" /><rect shape-rendering="crispEdges" fill="rgb(160, 32, 24)"  x="24" y="21" width="1" height="1" /><rect shape-rendering="crispEdges" fill="rgb(160, 32, 24)"  x="24" y="22" width="1" height="1" /><rect shape-rendering="crispEdges" fill="rgb(160, 32, 24)"  x="24" y="23" width="1" height="1" /><rect shape-rendering="crispEdges" fill="rgb(164, 34, 24)"  x="24" y="24" width="1" height="1" /><rect shape-rendering="crispEdges" fill="rgb(164, 34, 24)"  x="24" y="25" width="1" height="1" /><rect shape-rendering="crispEdges" fill="rgb(164, 34, 24)"  x="24" y="26" width="1" height="1" /><rect shape-rendering="crispEdges" fill="rgb(164, 34, 24)"  x="24" y="27" width="1" height="1" /><rect shape-rendering="crispEdges" fill="rgb(176, 40, 24)"  x="24" y="28" width="1" height="1" /><rect shape-rendering="crispEdges" fill="rgb(176, 40, 24)"  x="24" y="29" width="1" height="1" /><rect shape-rendering="crispEdges" fill="rgb(88, 42, 40)"  x="24" y="30" width="1" height="1" /><rect shape-rendering="crispEdges" fill="rgb(92, 46, 44)"  x="25" y="18" width="1" height="1" /><rect shape-rendering="crispEdges" fill="rgb(92, 46, 44)"  x="25" y="19" width="1" height="1" /><rect shape-rendering="crispEdges" fill="rgb(96, 52, 44)"  x="25" y="20" width="1" height="1" /><rect shape-rendering="crispEdges" fill="rgb(96, 52, 44)"  x="25" y="21" width="1" height="1" /><rect shape-rendering="crispEdges" fill="rgb(96, 52, 44)"  x="25" y="22" width="1" height="1" /><rect shape-rendering="crispEdges" fill="rgb(160, 32, 24)"  x="25" y="23" width="1" height="1" /><rect shape-rendering="crispEdges" fill="rgb(164, 34, 24)"  x="25" y="24" width="1" height="1" /><rect shape-rendering="crispEdges" fill="rgb(164, 34, 24)"  x="25" y="25" width="1" height="1" /><rect shape-rendering="crispEdges" fill="rgb(164, 34, 24)"  x="25" y="26" width="1" height="1" /><rect shape-rendering="crispEdges" fill="rgb(164, 34, 24)"  x="25" y="27" width="1" height="1" /><rect shape-rendering="crispEdges" fill="rgb(176, 40, 24)"  x="25" y="28" width="1" height="1" /><rect shape-rendering="crispEdges" fill="rgb(88, 42, 40)"  x="25" y="29" width="1" height="1" /><rect shape-rendering="crispEdges" fill="rgb(96, 52, 44)"  x="26" y="23" width="1" height="1" /><rect shape-rendering="crispEdges" fill="rgb(96, 56, 48)"  x="26" y="24" width="1" height="1" /><rect shape-rendering="crispEdges" fill="rgb(96, 56, 48)"  x="26" y="25" width="1" height="1" /><rect shape-rendering="crispEdges" fill="rgb(96, 56, 48)"  x="26" y="26" width="1" height="1" /><rect shape-rendering="crispEdges" fill="rgb(164, 34, 24)"  x="26" y="27" width="1" height="1" /><rect shape-rendering="crispEdges" fill="rgb(88, 42, 40)"  x="26" y="28" width="1" height="1" /><rect shape-rendering="crispEdges" fill="rgb(96, 56, 48)"  x="27" y="27" width="1" height="1" /></svg>