<svg xmlns="http://www.w3.org/2000/svg" xmlns:xlink= "http://www.w3.org/1999/xlink" width="32" height="32" viewBox ="0 0 32 32"><rect shape-rendering="crispEdges" fill="rgb(246, 127, 246)"  x="2" y="10" width="1" height="1" /><rect shape-rendering="crispEdges" fill="rgb(246, 127, 246)"  x="2" y="11" width="1" height="1" /><rect shape-rendering="crispEdges" fill="rgb(246, 127, 246)"  x="2" y="12" width="1" height="1" /><rect shape-rendering="crispEdges" fill="rgb(246, 127, 246)"  x="2" y="13" width="1" height="1" /><rect shape-rendering="crispEdges" fill="rgb(246, 134, 246)"  x="2" y="14" width="1" height="1" /><rect shape-rendering="crispEdges" fill="rgb(246, 130, 246)"  x="2" y="15" width="1" height="1" /><rect shape-rendering="crispEdges" fill="rgb(246, 127, 246)"  x="2" y="16" width="1" height="1" /><rect shape-rendering="crispEdges" fill="rgb(246, 127, 246)"  x="2" y="17" width="1" height="1" /><rect shape-rendering="crispEdges" fill="rgb(246, 127, 246)"  x="2" y="18" width="1" height="1" /><rect shape-rendering="crispEdges" fill="rgb(246, 127, 246)"  x="2" y="19" width="1" height="1" /><rect shape-rendering="crispEdges" fill="rgb(246, 127, 246)"  x="2" y="20" width="1" height="1" /><rect shape-rendering="crispEdges" fill="rgb(246, 127, 246)"  x="2" y="21" width="1" height="1" /><rect shape-rendering="crispEdges" fill="rgb(246, 127, 246)"  x="2" y="22" width="1" height="1" /><rect shape-rendering="crispEdges" fill="rgb(246, 127, 246)"  x="3" y="8" width="1" height="1" /><rect shape-rendering="crispEdges" fill="rgb(249, 154, 249)"  x="3" y="9" width="1" height="1" /><rect shape-rendering="crispEdges" fill="rgb(253, 186, 253)"  x="3" y="10" width="1" height="1" /><rect shape-rendering="crispEdges" fill="rgb(254, 223, 254)"  x="3" y="11" width="1" height="1" /><rect shape-rendering="crispEdges" fill="rgb(254, 236, 254)"  x="3" y="12" width="1" height="1" /><rect shape-rendering="crispEdges" fill="rgb(252, 192, 252)"  x="3" y="13" width="1" height="1" /><rect shape-rendering="crispEdges" fill="rgb(254, 194, 254)"  x="3" y="14" width="1" height="1" /><rect shape-rendering="crispEdges" fill="rgb(254, 221, 254)"  x="3" y="15" width="1" height="1" /><rect shape-rendering="crispEdges" fill="rgb(254, 239, 254)"  x="3" y="16" width="1" height="1" /><rect shape-rendering="crispEdges" fill="rgb(254, 221, 254)"  x="3" y="17" width="1" height="1" /><rect shape-rendering="crispEdges" fill="rgb(254, 214, 254)"  x="3" y="18" width="1" height="1" /><rect shape-rendering="crispEdges" fill="rgb(254, 224, 254)"  x="3" y="19" width="1" height="1" /><rect shape-rendering="crispEdges" fill="rgb(254, 218, 254)"  x="3" y="20" width="1" height="1" /><rect shape-rendering="crispEdges" fill="rgb(254, 215, 254)"  x="3" y="21" width="1" height="1" /><rect shape-rendering="crispEdges" fill="rgb(246, 141, 246)"  x="3" y="22" width="1" height="1" /><rect shape-rendering="crispEdges" fill="rgb(246, 127, 246)"  x="3" y="23" width="1" height="1" /><rect shape-rendering="crispEdges" fill="rgb(246, 127, 246)"  x="4" y="4" width="1" height="1" /><rect shape-rendering="crispEdges" fill="rgb(246, 132, 246)"  x="4" y="5" width="1" height="1" /><rect shape-rendering="crispEdges" fill="rgb(246, 131, 246)"  x="4" y="6" width="1" height="1" /><rect shape-rendering="crispEdges" fill="rgb(250, 168, 250)"  x="4" y="7" width="1" height="1" /><rect shape-rendering="crispEdges" fill="rgb(254, 229, 254)"  x="4" y="8" width="1" height="1" /><rect shape-rendering="crispEdges" fill="rgb(254, 214, 254)"  x="4" y="9" width="1" height="1" /><rect shape-rendering="crispEdges" fill="rgb(254, 218, 254)"  x="4" y="10" width="1" height="1" /><rect shape-rendering="crispEdges" fill="rgb(255, 215, 255)"  x="4" y="11" width="1" height="1" /><rect shape-rendering="crispEdges" fill="rgb(255, 217, 255)"  x="4" y="12" width="1" height="1" /><rect shape-rendering="crispEdges" fill="rgb(255, 237, 255)"  x="4" y="13" width="1" height="1" /><rect shape-rendering="crispEdges" fill="rgb(255, 215, 255)"  x="4" y="14" width="1" height="1" /><rect shape-rendering="crispEdges" fill="rgb(255, 222, 255)"  x="4" y="15" width="1" height="1" /><rect shape-rendering="crispEdges" fill="rgb(255, 239, 255)"  x="4" y="16" width="1" height="1" /><rect shape-rendering="crispEdges" fill="rgb(255, 235, 255)"  x="4" y="17" width="1" height="1" /><rect shape-rendering="crispEdges" fill="rgb(255, 222, 255)"  x="4" y="18" width="1" height="1" /><rect shape-rendering="crispEdges" fill="rgb(255, 213, 255)"  x="4" y="19" width="1" height="1" /><rect shape-rendering="crispEdges" fill="rgb(255, 239, 255)"  x="4" y="20" width="1" height="1" /><rect shape-rendering="crispEdges" fill="rgb(255, 255, 255)"  x="4" y="21" width="1" height="1" /><rect shape-rendering="crispEdges" fill="rgb(255, 255, 255)"  x="4" y="22" width="1" height="1" /><rect shape-rendering="crispEdges" fill="rgb(254, 224, 254)"  x="4" y="23" width="1" height="1" /><rect shape-rendering="crispEdges" fill="rgb(252, 179, 252)"  x="4" y="24" width="1" height="1" /><rect shape-rendering="crispEdges" fill="rgb(247, 142, 247)"  x="4" y="25" width="1" height="1" /><rect shape-rendering="crispEdges" fill="rgb(248, 146, 248)"  x="5" y="4" width="1" height="1" /><rect shape-rendering="crispEdges" fill="rgb(254, 209, 254)"  x="5" y="5" width="1" height="1" /><rect shape-rendering="crispEdges" fill="rgb(255, 255, 255)"  x="5" y="6" width="1" height="1" /><rect shape-rendering="crispEdges" fill="rgb(255, 213, 255)"  x="5" y="7" width="1" height="1" /><rect shape-rendering="crispEdges" fill="rgb(243, 183, 243)"  x="5" y="8" width="1" height="1" /><rect shape-rendering="crispEdges" fill="rgb(255, 213, 255)"  x="5" y="9" width="1" height="1" /><rect shape-rendering="crispEdges" fill="rgb(255, 205, 255)"  x="5" y="10" width="1" height="1" /><rect shape-rendering="crispEdges" fill="rgb(253, 193, 253)"  x="5" y="11" width="1" height="1" /><rect shape-rendering="crispEdges" fill="rgb(255, 232, 255)"  x="5" y="12" width="1" height="1" /><rect shape-rendering="crispEdges" fill="rgb(255, 254, 255)"  x="5" y="13" width="1" height="1" /><rect shape-rendering="crispEdges" fill="rgb(255, 222, 255)"  x="5" y="14" width="1" height="1" /><rect shape-rendering="crispEdges" fill="rgb(252, 192, 252)"  x="5" y="15" width="1" height="1" /><rect shape-rendering="crispEdges" fill="rgb(255, 239, 255)"  x="5" y="16" width="1" height="1" /><rect shape-rendering="crispEdges" fill="rgb(255, 255, 255)"  x="5" y="17" width="1" height="1" /><rect shape-rendering="crispEdges" fill="rgb(255, 234, 255)"  x="5" y="18" width="1" height="1" /><rect shape-rendering="crispEdges" fill="rgb(255, 198, 255)"  x="5" y="19" width="1" height="1" /><rect shape-rendering="crispEdges" fill="rgb(255, 213, 255)"  x="5" y="20" width="1" height="1" /><rect shape-rendering="crispEdges" fill="rgb(255, 242, 255)"  x="5" y="21" width="1" height="1" /><rect shape-rendering="crispEdges" fill="rgb(255, 223, 255)"  x="5" y="22" width="1" height="1" /><rect shape-rendering="crispEdges" fill="rgb(255, 220, 255)"  x="5" y="23" width="1" height="1" /><rect shape-rendering="crispEdges" fill="rgb(255, 254, 255)"  x="5" y="24" width="1" height="1" /><rect shape-rendering="crispEdges" fill="rgb(254, 202, 254)"  x="5" y="25" width="1" height="1" /><rect shape-rendering="crispEdges" fill="rgb(251, 174, 251)"  x="5" y="26" width="1" height="1" /><rect shape-rendering="crispEdges" fill="rgb(246, 127, 246)"  x="5" y="27" width="1" height="1" /><rect shape-rendering="crispEdges" fill="rgb(246, 127, 246)"  x="6" y="3" width="1" height="1" /><rect shape-rendering="crispEdges" fill="rgb(252, 204, 252)"  x="6" y="4" width="1" height="1" /><rect shape-rendering="crispEdges" fill="rgb(255, 205, 255)"  x="6" y="5" width="1" height="1" /><rect shape-rendering="crispEdges" fill="rgb(255, 222, 255)"  x="6" y="6" width="1" height="1" /><rect shape-rendering="crispEdges" fill="rgb(255, 201, 255)"  x="6" y="7" width="1" height="1" /><rect shape-rendering="crispEdges" fill="rgb(255, 208, 255)"  x="6" y="8" width="1" height="1" /><rect shape-rendering="crispEdges" fill="rgb(255, 244, 255)"  x="6" y="9" width="1" height="1" /><rect shape-rendering="crispEdges" fill="rgb(255, 215, 255)"  x="6" y="10" width="1" height="1" /><rect shape-rendering="crispEdges" fill="rgb(249, 189, 249)"  x="6" y="11" width="1" height="1" /><rect shape-rendering="crispEdges" fill="rgb(255, 205, 255)"  x="6" y="12" width="1" height="1" /><rect shape-rendering="crispEdges" fill="rgb(255, 239, 255)"  x="6" y="13" width="1" height="1" /><rect shape-rendering="crispEdges" fill="rgb(255, 251, 255)"  x="6" y="14" width="1" height="1" /><rect shape-rendering="crispEdges" fill="rgb(255, 229, 255)"  x="6" y="15" width="1" height="1" /><rect shape-rendering="crispEdges" fill="rgb(255, 206, 255)"  x="6" y="16" width="1" height="1" /><rect shape-rendering="crispEdges" fill="rgb(255, 218, 255)"  x="6" y="17" width="1" height="1" /><rect shape-rendering="crispEdges" fill="rgb(255, 247, 255)"  x="6" y="18" width="1" height="1" /><rect shape-rendering="crispEdges" fill="rgb(255, 235, 255)"  x="6" y="19" width="1" height="1" /><rect shape-rendering="crispEdges" fill="rgb(255, 215, 255)"  x="6" y="20" width="1" height="1" /><rect shape-rendering="crispEdges" fill="rgb(255, 235, 255)"  x="6" y="21" width="1" height="1" /><rect shape-rendering="crispEdges" fill="rgb(255, 246, 255)"  x="6" y="22" width="1" height="1" /><rect shape-rendering="crispEdges" fill="rgb(255, 222, 255)"  x="6" y="23" width="1" height="1" /><rect shape-rendering="crispEdges" fill="rgb(255, 239, 255)"  x="6" y="24" width="1" height="1" /><rect shape-rendering="crispEdges" fill="rgb(255, 242, 255)"  x="6" y="25" width="1" height="1" /><rect shape-rendering="crispEdges" fill="rgb(254, 224, 254)"  x="6" y="26" width="1" height="1" /><rect shape-rendering="crispEdges" fill="rgb(249, 157, 249)"  x="6" y="27" width="1" height="1" /><rect shape-rendering="crispEdges" fill="rgb(246, 127, 246)"  x="6" y="28" width="1" height="1" /><rect shape-rendering="crispEdges" fill="rgb(246, 127, 246)"  x="6" y="29" width="1" height="1" /><rect shape-rendering="crispEdges" fill="rgb(246, 127, 246)"  x="7" y="2" width="1" height="1" /><rect shape-rendering="crispEdges" fill="rgb(249, 162, 249)"  x="7" y="3" width="1" height="1" /><rect shape-rendering="crispEdges" fill="rgb(247, 187, 247)"  x="7" y="4" width="1" height="1" /><rect shape-rendering="crispEdges" fill="rgb(255, 206, 255)"  x="7" y="5" width="1" height="1" /><rect shape-rendering="crispEdges" fill="rgb(255, 220, 255)"  x="7" y="6" width="1" height="1" /><rect shape-rendering="crispEdges" fill="rgb(255, 213, 255)"  x="7" y="7" width="1" height="1" /><rect shape-rendering="crispEdges" fill="rgb(255, 225, 255)"  x="7" y="8" width="1" height="1" /><rect shape-rendering="crispEdges" fill="rgb(255, 234, 255)"  x="7" y="9" width="1" height="1" /><rect shape-rendering="crispEdges" fill="rgb(255, 244, 255)"  x="7" y="10" width="1" height="1" /><rect shape-rendering="crispEdges" fill="rgb(255, 206, 255)"  x="7" y="11" width="1" height="1" /><rect shape-rendering="crispEdges" fill="rgb(251, 191, 251)"  x="7" y="12" width="1" height="1" /><rect shape-rendering="crispEdges" fill="rgb(255, 213, 255)"  x="7" y="13" width="1" height="1" /><rect shape-rendering="crispEdges" fill="rgb(255, 247, 255)"  x="7" y="14" width="1" height="1" /><rect shape-rendering="crispEdges" fill="rgb(255, 251, 255)"  x="7" y="15" width="1" height="1" /><rect shape-rendering="crispEdges" fill="rgb(255, 211, 255)"  x="7" y="16" width="1" height="1" /><rect shape-rendering="crispEdges" fill="rgb(255, 208, 255)"  x="7" y="17" width="1" height="1" /><rect shape-rendering="crispEdges" fill="rgb(255, 242, 255)"  x="7" y="18" width="1" height="1" /><rect shape-rendering="crispEdges" fill="rgb(255, 255, 255)"  x="7" y="19" width="1" height="1" /><rect shape-rendering="crispEdges" fill="rgb(255, 255, 255)"  x="7" y="20" width="1" height="1" /><rect shape-rendering="crispEdges" fill="rgb(255, 255, 255)"  x="7" y="21" width="1" height="1" /><rect shape-rendering="crispEdges" fill="rgb(255, 255, 255)"  x="7" y="22" width="1" height="1" /><rect shape-rendering="crispEdges" fill="rgb(255, 255, 255)"  x="7" y="23" width="1" height="1" /><rect shape-rendering="crispEdges" fill="rgb(255, 255, 255)"  x="7" y="24" width="1" height="1" /><rect shape-rendering="crispEdges" fill="rgb(254, 249, 254)"  x="7" y="25" width="1" height="1" /><rect shape-rendering="crispEdges" fill="rgb(254, 207, 254)"  x="7" y="26" width="1" height="1" /><rect shape-rendering="crispEdges" fill="rgb(249, 155, 249)"  x="7" y="27" width="1" height="1" /><rect shape-rendering="crispEdges" fill="rgb(249, 159, 249)"  x="8" y="2" width="1" height="1" /><rect shape-rendering="crispEdges" fill="rgb(254, 202, 254)"  x="8" y="3" width="1" height="1" /><rect shape-rendering="crispEdges" fill="rgb(255, 206, 255)"  x="8" y="4" width="1" height="1" /><rect shape-rendering="crispEdges" fill="rgb(255, 199, 255)"  x="8" y="5" width="1" height="1" /><rect shape-rendering="crispEdges" fill="rgb(255, 206, 255)"  x="8" y="6" width="1" height="1" /><rect shape-rendering="crispEdges" fill="rgb(255, 215, 255)"  x="8" y="7" width="1" height="1" /><rect shape-rendering="crispEdges" fill="rgb(255, 208, 255)"  x="8" y="8" width="1" height="1" /><rect shape-rendering="crispEdges" fill="rgb(255, 215, 255)"  x="8" y="9" width="1" height="1" /><rect shape-rendering="crispEdges" fill="rgb(255, 211, 255)"  x="8" y="10" width="1" height="1" /><rect shape-rendering="crispEdges" fill="rgb(255, 217, 255)"  x="8" y="11" width="1" height="1" /><rect shape-rendering="crispEdges" fill="rgb(255, 201, 255)"  x="8" y="12" width="1" height="1" /><rect shape-rendering="crispEdges" fill="rgb(255, 205, 255)"  x="8" y="13" width="1" height="1" /><rect shape-rendering="crispEdges" fill="rgb(255, 227, 255)"  x="8" y="14" width="1" height="1" /><rect shape-rendering="crispEdges" fill="rgb(255, 244, 255)"  x="8" y="15" width="1" height="1" /><rect shape-rendering="crispEdges" fill="rgb(255, 251, 255)"  x="8" y="16" width="1" height="1" /><rect shape-rendering="crispEdges" fill="rgb(255, 213, 255)"  x="8" y="17" width="1" height="1" /><rect shape-rendering="crispEdges" fill="rgb(254, 220, 254)"  x="8" y="18" width="1" height="1" /><rect shape-rendering="crispEdges" fill="rgb(253, 180, 253)"  x="8" y="19" width="1" height="1" /><rect shape-rendering="crispEdges" fill="rgb(248, 148, 248)"  x="8" y="20" width="1" height="1" /><rect shape-rendering="crispEdges" fill="rgb(247, 142, 247)"  x="8" y="21" width="1" height="1" /><rect shape-rendering="crispEdges" fill="rgb(246, 128, 246)"  x="8" y="22" width="1" height="1" /><rect shape-rendering="crispEdges" fill="rgb(245, 127, 245)"  x="8" y="23" width="1" height="1" /><rect shape-rendering="crispEdges" fill="rgb(246, 127, 246)"  x="8" y="24" width="1" height="1" /><rect shape-rendering="crispEdges" fill="rgb(246, 127, 246)"  x="8" y="25" width="1" height="1" /><rect shape-rendering="crispEdges" fill="rgb(249, 155, 249)"  x="9" y="2" width="1" height="1" /><rect shape-rendering="crispEdges" fill="rgb(254, 217, 254)"  x="9" y="3" width="1" height="1" /><rect shape-rendering="crispEdges" fill="rgb(246, 186, 246)"  x="9" y="4" width="1" height="1" /><rect shape-rendering="crispEdges" fill="rgb(248, 188, 248)"  x="9" y="5" width="1" height="1" /><rect shape-rendering="crispEdges" fill="rgb(255, 195, 255)"  x="9" y="6" width="1" height="1" /><rect shape-rendering="crispEdges" fill="rgb(254, 194, 254)"  x="9" y="7" width="1" height="1" /><rect shape-rendering="crispEdges" fill="rgb(251, 191, 251)"  x="9" y="8" width="1" height="1" /><rect shape-rendering="crispEdges" fill="rgb(255, 206, 255)"  x="9" y="9" width="1" height="1" /><rect shape-rendering="crispEdges" fill="rgb(255, 199, 255)"  x="9" y="10" width="1" height="1" /><rect shape-rendering="crispEdges" fill="rgb(255, 223, 255)"  x="9" y="11" width="1" height="1" /><rect shape-rendering="crispEdges" fill="rgb(255, 211, 255)"  x="9" y="12" width="1" height="1" /><rect shape-rendering="crispEdges" fill="rgb(255, 230, 255)"  x="9" y="13" width="1" height="1" /><rect shape-rendering="crispEdges" fill="rgb(255, 242, 255)"  x="9" y="14" width="1" height="1" /><rect shape-rendering="crispEdges" fill="rgb(255, 253, 255)"  x="9" y="15" width="1" height="1" /><rect shape-rendering="crispEdges" fill="rgb(254, 239, 254)"  x="9" y="16" width="1" height="1" /><rect shape-rendering="crispEdges" fill="rgb(251, 169, 251)"  x="9" y="17" width="1" height="1" /><rect shape-rendering="crispEdges" fill="rgb(248, 142, 248)"  x="9" y="18" width="1" height="1" /><rect shape-rendering="crispEdges" fill="rgb(246, 127, 246)"  x="9" y="19" width="1" height="1" /><rect shape-rendering="crispEdges" fill="rgb(246, 127, 246)"  x="10" y="2" width="1" height="1" /><rect shape-rendering="crispEdges" fill="rgb(252, 177, 252)"  x="10" y="3" width="1" height="1" /><rect shape-rendering="crispEdges" fill="rgb(254, 208, 254)"  x="10" y="4" width="1" height="1" /><rect shape-rendering="crispEdges" fill="rgb(242, 182, 242)"  x="10" y="5" width="1" height="1" /><rect shape-rendering="crispEdges" fill="rgb(247, 187, 247)"  x="10" y="6" width="1" height="1" /><rect shape-rendering="crispEdges" fill="rgb(254, 194, 254)"  x="10" y="7" width="1" height="1" /><rect shape-rendering="crispEdges" fill="rgb(252, 192, 252)"  x="10" y="8" width="1" height="1" /><rect shape-rendering="crispEdges" fill="rgb(255, 201, 255)"  x="10" y="9" width="1" height="1" /><rect shape-rendering="crispEdges" fill="rgb(255, 205, 255)"  x="10" y="10" width="1" height="1" /><rect shape-rendering="crispEdges" fill="rgb(255, 211, 255)"  x="10" y="11" width="1" height="1" /><rect shape-rendering="crispEdges" fill="rgb(255, 211, 255)"  x="10" y="12" width="1" height="1" /><rect shape-rendering="crispEdges" fill="rgb(254, 226, 254)"  x="10" y="13" width="1" height="1" /><rect shape-rendering="crispEdges" fill="rgb(254, 204, 254)"  x="10" y="14" width="1" height="1" /><rect shape-rendering="crispEdges" fill="rgb(251, 174, 251)"  x="10" y="15" width="1" height="1" /><rect shape-rendering="crispEdges" fill="rgb(247, 143, 247)"  x="10" y="16" width="1" height="1" /><rect shape-rendering="crispEdges" fill="rgb(246, 127, 246)"  x="10" y="17" width="1" height="1" /><rect shape-rendering="crispEdges" fill="rgb(248, 140, 248)"  x="11" y="4" width="1" height="1" /><rect shape-rendering="crispEdges" fill="rgb(251, 176, 251)"  x="11" y="5" width="1" height="1" /><rect shape-rendering="crispEdges" fill="rgb(241, 181, 241)"  x="11" y="6" width="1" height="1" /><rect shape-rendering="crispEdges" fill="rgb(246, 186, 246)"  x="11" y="7" width="1" height="1" /><rect shape-rendering="crispEdges" fill="rgb(255, 198, 255)"  x="11" y="8" width="1" height="1" /><rect shape-rendering="crispEdges" fill="rgb(255, 211, 255)"  x="11" y="9" width="1" height="1" /><rect shape-rendering="crispEdges" fill="rgb(255, 222, 255)"  x="11" y="10" width="1" height="1" /><rect shape-rendering="crispEdges" fill="rgb(255, 254, 255)"  x="11" y="11" width="1" height="1" /><rect shape-rendering="crispEdges" fill="rgb(254, 249, 254)"  x="11" y="12" width="1" height="1" /><rect shape-rendering="crispEdges" fill="rgb(253, 191, 253)"  x="11" y="13" width="1" height="1" /><rect shape-rendering="crispEdges" fill="rgb(248, 148, 248)"  x="11" y="14" width="1" height="1" /><rect shape-rendering="crispEdges" fill="rgb(248, 138, 248)"  x="12" y="5" width="1" height="1" /><rect shape-rendering="crispEdges" fill="rgb(253, 197, 253)"  x="12" y="6" width="1" height="1" /><rect shape-rendering="crispEdges" fill="rgb(233, 173, 233)"  x="12" y="7" width="1" height="1" /><rect shape-rendering="crispEdges" fill="rgb(242, 182, 242)"  x="12" y="8" width="1" height="1" /><rect shape-rendering="crispEdges" fill="rgb(254, 191, 254)"  x="12" y="9" width="1" height="1" /><rect shape-rendering="crispEdges" fill="rgb(253, 197, 253)"  x="12" y="10" width="1" height="1" /><rect shape-rendering="crispEdges" fill="rgb(251, 170, 251)"  x="12" y="11" width="1" height="1" /><rect shape-rendering="crispEdges" fill="rgb(247, 141, 247)"  x="12" y="12" width="1" height="1" /><rect shape-rendering="crispEdges" fill="rgb(246, 127, 246)"  x="12" y="13" width="1" height="1" /><rect shape-rendering="crispEdges" fill="rgb(248, 147, 248)"  x="13" y="6" width="1" height="1" /><rect shape-rendering="crispEdges" fill="rgb(254, 212, 254)"  x="13" y="7" width="1" height="1" /><rect shape-rendering="crispEdges" fill="rgb(254, 201, 254)"  x="13" y="8" width="1" height="1" /><rect shape-rendering="crispEdges" fill="rgb(248, 148, 248)"  x="13" y="9" width="1" height="1" /><rect shape-rendering="crispEdges" fill="rgb(241, 119, 241)"  x="14" y="7" width="1" height="1" /><rect shape-rendering="crispEdges" fill="rgb(246, 127, 246)"  x="14" y="8" width="1" height="1" /><rect shape-rendering="crispEdges" fill="rgb(246, 127, 246)"  x="14" y="9" width="1" height="1" /><rect shape-rendering="crispEdges" fill="rgb(246, 127, 246)"  x="17" y="7" width="1" height="1" /><rect shape-rendering="crispEdges" fill="rgb(246, 127, 246)"  x="17" y="8" width="1" height="1" /><rect shape-rendering="crispEdges" fill="rgb(246, 127, 246)"  x="17" y="9" width="1" height="1" /><rect shape-rendering="crispEdges" fill="rgb(246, 127, 246)"  x="18" y="6" width="1" height="1" /><rect shape-rendering="crispEdges" fill="rgb(249, 157, 249)"  x="18" y="7" width="1" height="1" /><rect shape-rendering="crispEdges" fill="rgb(254, 220, 254)"  x="18" y="8" width="1" height="1" /><rect shape-rendering="crispEdges" fill="rgb(246, 129, 246)"  x="18" y="9" width="1" height="1" /><rect shape-rendering="crispEdges" fill="rgb(246, 127, 246)"  x="19" y="5" width="1" height="1" /><rect shape-rendering="crispEdges" fill="rgb(249, 157, 249)"  x="19" y="6" width="1" height="1" /><rect shape-rendering="crispEdges" fill="rgb(252, 192, 252)"  x="19" y="7" width="1" height="1" /><rect shape-rendering="crispEdges" fill="rgb(250, 190, 250)"  x="19" y="8" width="1" height="1" /><rect shape-rendering="crispEdges" fill="rgb(254, 179, 254)"  x="19" y="9" width="1" height="1" /><rect shape-rendering="crispEdges" fill="rgb(252, 170, 252)"  x="19" y="10" width="1" height="1" /><rect shape-rendering="crispEdges" fill="rgb(248, 148, 248)"  x="19" y="11" width="1" height="1" /><rect shape-rendering="crispEdges" fill="rgb(246, 127, 246)"  x="19" y="12" width="1" height="1" /><rect shape-rendering="crispEdges" fill="rgb(246, 127, 246)"  x="20" y="3" width="1" height="1" /><rect shape-rendering="crispEdges" fill="rgb(246, 127, 246)"  x="20" y="4" width="1" height="1" /><rect shape-rendering="crispEdges" fill="rgb(249, 160, 249)"  x="20" y="5" width="1" height="1" /><rect shape-rendering="crispEdges" fill="rgb(252, 192, 252)"  x="20" y="6" width="1" height="1" /><rect shape-rendering="crispEdges" fill="rgb(251, 191, 251)"  x="20" y="7" width="1" height="1" /><rect shape-rendering="crispEdges" fill="rgb(255, 198, 255)"  x="20" y="8" width="1" height="1" /><rect shape-rendering="crispEdges" fill="rgb(255, 211, 255)"  x="20" y="9" width="1" height="1" /><rect shape-rendering="crispEdges" fill="rgb(255, 229, 255)"  x="20" y="10" width="1" height="1" /><rect shape-rendering="crispEdges" fill="rgb(254, 249, 254)"  x="20" y="11" width="1" height="1" /><rect shape-rendering="crispEdges" fill="rgb(250, 172, 250)"  x="20" y="12" width="1" height="1" /><rect shape-rendering="crispEdges" fill="rgb(247, 138, 247)"  x="20" y="13" width="1" height="1" /><rect shape-rendering="crispEdges" fill="rgb(246, 127, 246)"  x="20" y="14" width="1" height="1" /><rect shape-rendering="crispEdges" fill="rgb(246, 127, 246)"  x="21" y="2" width="1" height="1" /><rect shape-rendering="crispEdges" fill="rgb(251, 175, 251)"  x="21" y="3" width="1" height="1" /><rect shape-rendering="crispEdges" fill="rgb(254, 212, 254)"  x="21" y="4" width="1" height="1" /><rect shape-rendering="crispEdges" fill="rgb(249, 189, 249)"  x="21" y="5" width="1" height="1" /><rect shape-rendering="crispEdges" fill="rgb(250, 190, 250)"  x="21" y="6" width="1" height="1" /><rect shape-rendering="crispEdges" fill="rgb(255, 195, 255)"  x="21" y="7" width="1" height="1" /><rect shape-rendering="crispEdges" fill="rgb(255, 195, 255)"  x="21" y="8" width="1" height="1" /><rect shape-rendering="crispEdges" fill="rgb(255, 199, 255)"  x="21" y="9" width="1" height="1" /><rect shape-rendering="crispEdges" fill="rgb(255, 199, 255)"  x="21" y="10" width="1" height="1" /><rect shape-rendering="crispEdges" fill="rgb(255, 205, 255)"  x="21" y="11" width="1" height="1" /><rect shape-rendering="crispEdges" fill="rgb(255, 213, 255)"  x="21" y="12" width="1" height="1" /><rect shape-rendering="crispEdges" fill="rgb(254, 230, 254)"  x="21" y="13" width="1" height="1" /><rect shape-rendering="crispEdges" fill="rgb(252, 171, 252)"  x="21" y="14" width="1" height="1" /><rect shape-rendering="crispEdges" fill="rgb(247, 140, 247)"  x="21" y="15" width="1" height="1" /><rect shape-rendering="crispEdges" fill="rgb(246, 127, 246)"  x="21" y="16" width="1" height="1" /><rect shape-rendering="crispEdges" fill="rgb(249, 155, 249)"  x="22" y="2" width="1" height="1" /><rect shape-rendering="crispEdges" fill="rgb(254, 201, 254)"  x="22" y="3" width="1" height="1" /><rect shape-rendering="crispEdges" fill="rgb(253, 193, 253)"  x="22" y="4" width="1" height="1" /><rect shape-rendering="crispEdges" fill="rgb(250, 190, 250)"  x="22" y="5" width="1" height="1" /><rect shape-rendering="crispEdges" fill="rgb(255, 205, 255)"  x="22" y="6" width="1" height="1" /><rect shape-rendering="crispEdges" fill="rgb(255, 195, 255)"  x="22" y="7" width="1" height="1" /><rect shape-rendering="crispEdges" fill="rgb(253, 193, 253)"  x="22" y="8" width="1" height="1" /><rect shape-rendering="crispEdges" fill="rgb(255, 203, 255)"  x="22" y="9" width="1" height="1" /><rect shape-rendering="crispEdges" fill="rgb(254, 194, 254)"  x="22" y="10" width="1" height="1" /><rect shape-rendering="crispEdges" fill="rgb(255, 215, 255)"  x="22" y="11" width="1" height="1" /><rect shape-rendering="crispEdges" fill="rgb(255, 205, 255)"  x="22" y="12" width="1" height="1" /><rect shape-rendering="crispEdges" fill="rgb(255, 230, 255)"  x="22" y="13" width="1" height="1" /><rect shape-rendering="crispEdges" fill="rgb(255, 251, 255)"  x="22" y="14" width="1" height="1" /><rect shape-rendering="crispEdges" fill="rgb(254, 235, 254)"  x="22" y="15" width="1" height="1" /><rect shape-rendering="crispEdges" fill="rgb(251, 175, 251)"  x="22" y="16" width="1" height="1" /><rect shape-rendering="crispEdges" fill="rgb(248, 143, 248)"  x="22" y="17" width="1" height="1" /><rect shape-rendering="crispEdges" fill="rgb(246, 127, 246)"  x="22" y="18" width="1" height="1" /><rect shape-rendering="crispEdges" fill="rgb(246, 127, 246)"  x="23" y="1" width="1" height="1" /><rect shape-rendering="crispEdges" fill="rgb(249, 155, 249)"  x="23" y="2" width="1" height="1" /><rect shape-rendering="crispEdges" fill="rgb(254, 195, 254)"  x="23" y="3" width="1" height="1" /><rect shape-rendering="crispEdges" fill="rgb(255, 208, 255)"  x="23" y="4" width="1" height="1" /><rect shape-rendering="crispEdges" fill="rgb(255, 205, 255)"  x="23" y="5" width="1" height="1" /><rect shape-rendering="crispEdges" fill="rgb(255, 210, 255)"  x="23" y="6" width="1" height="1" /><rect shape-rendering="crispEdges" fill="rgb(255, 215, 255)"  x="23" y="7" width="1" height="1" /><rect shape-rendering="crispEdges" fill="rgb(255, 208, 255)"  x="23" y="8" width="1" height="1" /><rect shape-rendering="crispEdges" fill="rgb(255, 211, 255)"  x="23" y="9" width="1" height="1" /><rect shape-rendering="crispEdges" fill="rgb(255, 208, 255)"  x="23" y="10" width="1" height="1" /><rect shape-rendering="crispEdges" fill="rgb(255, 206, 255)"  x="23" y="11" width="1" height="1" /><rect shape-rendering="crispEdges" fill="rgb(252, 192, 252)"  x="23" y="12" width="1" height="1" /><rect shape-rendering="crispEdges" fill="rgb(255, 203, 255)"  x="23" y="13" width="1" height="1" /><rect shape-rendering="crispEdges" fill="rgb(255, 223, 255)"  x="23" y="14" width="1" height="1" /><rect shape-rendering="crispEdges" fill="rgb(255, 242, 255)"  x="23" y="15" width="1" height="1" /><rect shape-rendering="crispEdges" fill="rgb(255, 239, 255)"  x="23" y="16" width="1" height="1" /><rect shape-rendering="crispEdges" fill="rgb(254, 213, 254)"  x="23" y="17" width="1" height="1" /><rect shape-rendering="crispEdges" fill="rgb(254, 202, 254)"  x="23" y="18" width="1" height="1" /><rect shape-rendering="crispEdges" fill="rgb(249, 166, 249)"  x="23" y="19" width="1" height="1" /><rect shape-rendering="crispEdges" fill="rgb(248, 150, 248)"  x="23" y="20" width="1" height="1" /><rect shape-rendering="crispEdges" fill="rgb(247, 137, 247)"  x="23" y="21" width="1" height="1" /><rect shape-rendering="crispEdges" fill="rgb(246, 127, 246)"  x="23" y="22" width="1" height="1" /><rect shape-rendering="crispEdges" fill="rgb(246, 127, 246)"  x="23" y="23" width="1" height="1" /><rect shape-rendering="crispEdges" fill="rgb(246, 127, 246)"  x="23" y="24" width="1" height="1" /><rect shape-rendering="crispEdges" fill="rgb(246, 127, 246)"  x="23" y="25" width="1" height="1" /><rect shape-rendering="crispEdges" fill="rgb(246, 127, 246)"  x="24" y="2" width="1" height="1" /><rect shape-rendering="crispEdges" fill="rgb(251, 177, 251)"  x="24" y="3" width="1" height="1" /><rect shape-rendering="crispEdges" fill="rgb(245, 185, 245)"  x="24" y="4" width="1" height="1" /><rect shape-rendering="crispEdges" fill="rgb(255, 206, 255)"  x="24" y="5" width="1" height="1" /><rect shape-rendering="crispEdges" fill="rgb(255, 220, 255)"  x="24" y="6" width="1" height="1" /><rect shape-rendering="crispEdges" fill="rgb(255, 208, 255)"  x="24" y="7" width="1" height="1" /><rect shape-rendering="crispEdges" fill="rgb(255, 222, 255)"  x="24" y="8" width="1" height="1" /><rect shape-rendering="crispEdges" fill="rgb(255, 230, 255)"  x="24" y="9" width="1" height="1" /><rect shape-rendering="crispEdges" fill="rgb(255, 234, 255)"  x="24" y="10" width="1" height="1" /><rect shape-rendering="crispEdges" fill="rgb(252, 192, 252)"  x="24" y="11" width="1" height="1" /><rect shape-rendering="crispEdges" fill="rgb(247, 187, 247)"  x="24" y="12" width="1" height="1" /><rect shape-rendering="crispEdges" fill="rgb(255, 211, 255)"  x="24" y="13" width="1" height="1" /><rect shape-rendering="crispEdges" fill="rgb(255, 246, 255)"  x="24" y="14" width="1" height="1" /><rect shape-rendering="crispEdges" fill="rgb(255, 237, 255)"  x="24" y="15" width="1" height="1" /><rect shape-rendering="crispEdges" fill="rgb(255, 201, 255)"  x="24" y="16" width="1" height="1" /><rect shape-rendering="crispEdges" fill="rgb(255, 205, 255)"  x="24" y="17" width="1" height="1" /><rect shape-rendering="crispEdges" fill="rgb(255, 241, 255)"  x="24" y="18" width="1" height="1" /><rect shape-rendering="crispEdges" fill="rgb(255, 255, 255)"  x="24" y="19" width="1" height="1" /><rect shape-rendering="crispEdges" fill="rgb(254, 235, 254)"  x="24" y="20" width="1" height="1" /><rect shape-rendering="crispEdges" fill="rgb(254, 224, 254)"  x="24" y="21" width="1" height="1" /><rect shape-rendering="crispEdges" fill="rgb(254, 231, 254)"  x="24" y="22" width="1" height="1" /><rect shape-rendering="crispEdges" fill="rgb(254, 224, 254)"  x="24" y="23" width="1" height="1" /><rect shape-rendering="crispEdges" fill="rgb(254, 230, 254)"  x="24" y="24" width="1" height="1" /><rect shape-rendering="crispEdges" fill="rgb(254, 231, 254)"  x="24" y="25" width="1" height="1" /><rect shape-rendering="crispEdges" fill="rgb(252, 175, 252)"  x="24" y="26" width="1" height="1" /><rect shape-rendering="crispEdges" fill="rgb(245, 137, 245)"  x="24" y="27" width="1" height="1" /><rect shape-rendering="crispEdges" fill="rgb(246, 127, 246)"  x="24" y="29" width="1" height="1" /><rect shape-rendering="crispEdges" fill="rgb(248, 143, 248)"  x="25" y="3" width="1" height="1" /><rect shape-rendering="crispEdges" fill="rgb(254, 208, 254)"  x="25" y="4" width="1" height="1" /><rect shape-rendering="crispEdges" fill="rgb(254, 200, 254)"  x="25" y="5" width="1" height="1" /><rect shape-rendering="crispEdges" fill="rgb(255, 211, 255)"  x="25" y="6" width="1" height="1" /><rect shape-rendering="crispEdges" fill="rgb(250, 190, 250)"  x="25" y="7" width="1" height="1" /><rect shape-rendering="crispEdges" fill="rgb(255, 203, 255)"  x="25" y="8" width="1" height="1" /><rect shape-rendering="crispEdges" fill="rgb(255, 234, 255)"  x="25" y="9" width="1" height="1" /><rect shape-rendering="crispEdges" fill="rgb(254, 194, 254)"  x="25" y="10" width="1" height="1" /><rect shape-rendering="crispEdges" fill="rgb(244, 184, 244)"  x="25" y="11" width="1" height="1" /><rect shape-rendering="crispEdges" fill="rgb(255, 206, 255)"  x="25" y="12" width="1" height="1" /><rect shape-rendering="crispEdges" fill="rgb(255, 235, 255)"  x="25" y="13" width="1" height="1" /><rect shape-rendering="crispEdges" fill="rgb(255, 239, 255)"  x="25" y="14" width="1" height="1" /><rect shape-rendering="crispEdges" fill="rgb(255, 213, 255)"  x="25" y="15" width="1" height="1" /><rect shape-rendering="crispEdges" fill="rgb(254, 194, 254)"  x="25" y="16" width="1" height="1" /><rect shape-rendering="crispEdges" fill="rgb(255, 215, 255)"  x="25" y="17" width="1" height="1" /><rect shape-rendering="crispEdges" fill="rgb(255, 239, 255)"  x="25" y="18" width="1" height="1" /><rect shape-rendering="crispEdges" fill="rgb(255, 223, 255)"  x="25" y="19" width="1" height="1" /><rect shape-rendering="crispEdges" fill="rgb(255, 211, 255)"  x="25" y="20" width="1" height="1" /><rect shape-rendering="crispEdges" fill="rgb(255, 234, 255)"  x="25" y="21" width="1" height="1" /><rect shape-rendering="crispEdges" fill="rgb(255, 229, 255)"  x="25" y="22" width="1" height="1" /><rect shape-rendering="crispEdges" fill="rgb(255, 215, 255)"  x="25" y="23" width="1" height="1" /><rect shape-rendering="crispEdges" fill="rgb(255, 241, 255)"  x="25" y="24" width="1" height="1" /><rect shape-rendering="crispEdges" fill="rgb(255, 239, 255)"  x="25" y="25" width="1" height="1" /><rect shape-rendering="crispEdges" fill="rgb(254, 194, 254)"  x="25" y="26" width="1" height="1" /><rect shape-rendering="crispEdges" fill="rgb(254, 210, 254)"  x="25" y="27" width="1" height="1" /><rect shape-rendering="crispEdges" fill="rgb(249, 155, 249)"  x="25" y="28" width="1" height="1" /><rect shape-rendering="crispEdges" fill="rgb(246, 127, 246)"  x="25" y="29" width="1" height="1" /><rect shape-rendering="crispEdges" fill="rgb(249, 155, 249)"  x="26" y="4" width="1" height="1" /><rect shape-rendering="crispEdges" fill="rgb(254, 205, 254)"  x="26" y="5" width="1" height="1" /><rect shape-rendering="crispEdges" fill="rgb(254, 239, 254)"  x="26" y="6" width="1" height="1" /><rect shape-rendering="crispEdges" fill="rgb(255, 201, 255)"  x="26" y="7" width="1" height="1" /><rect shape-rendering="crispEdges" fill="rgb(240, 180, 240)"  x="26" y="8" width="1" height="1" /><rect shape-rendering="crispEdges" fill="rgb(255, 203, 255)"  x="26" y="9" width="1" height="1" /><rect shape-rendering="crispEdges" fill="rgb(254, 194, 254)"  x="26" y="10" width="1" height="1" /><rect shape-rendering="crispEdges" fill="rgb(254, 194, 254)"  x="26" y="11" width="1" height="1" /><rect shape-rendering="crispEdges" fill="rgb(255, 232, 255)"  x="26" y="12" width="1" height="1" /><rect shape-rendering="crispEdges" fill="rgb(255, 241, 255)"  x="26" y="13" width="1" height="1" /><rect shape-rendering="crispEdges" fill="rgb(255, 199, 255)"  x="26" y="14" width="1" height="1" /><rect shape-rendering="crispEdges" fill="rgb(250, 190, 250)"  x="26" y="15" width="1" height="1" /><rect shape-rendering="crispEdges" fill="rgb(255, 244, 255)"  x="26" y="16" width="1" height="1" /><rect shape-rendering="crispEdges" fill="rgb(255, 253, 255)"  x="26" y="17" width="1" height="1" /><rect shape-rendering="crispEdges" fill="rgb(255, 210, 255)"  x="26" y="18" width="1" height="1" /><rect shape-rendering="crispEdges" fill="rgb(249, 189, 249)"  x="26" y="19" width="1" height="1" /><rect shape-rendering="crispEdges" fill="rgb(255, 210, 255)"  x="26" y="20" width="1" height="1" /><rect shape-rendering="crispEdges" fill="rgb(255, 234, 255)"  x="26" y="21" width="1" height="1" /><rect shape-rendering="crispEdges" fill="rgb(255, 210, 255)"  x="26" y="22" width="1" height="1" /><rect shape-rendering="crispEdges" fill="rgb(255, 208, 255)"  x="26" y="23" width="1" height="1" /><rect shape-rendering="crispEdges" fill="rgb(254, 240, 254)"  x="26" y="24" width="1" height="1" /><rect shape-rendering="crispEdges" fill="rgb(254, 230, 254)"  x="26" y="25" width="1" height="1" /><rect shape-rendering="crispEdges" fill="rgb(253, 195, 253)"  x="26" y="26" width="1" height="1" /><rect shape-rendering="crispEdges" fill="rgb(249, 154, 249)"  x="26" y="27" width="1" height="1" /><rect shape-rendering="crispEdges" fill="rgb(246, 127, 246)"  x="27" y="4" width="1" height="1" /><rect shape-rendering="crispEdges" fill="rgb(246, 132, 246)"  x="27" y="5" width="1" height="1" /><rect shape-rendering="crispEdges" fill="rgb(249, 155, 249)"  x="27" y="6" width="1" height="1" /><rect shape-rendering="crispEdges" fill="rgb(251, 172, 251)"  x="27" y="7" width="1" height="1" /><rect shape-rendering="crispEdges" fill="rgb(254, 249, 254)"  x="27" y="8" width="1" height="1" /><rect shape-rendering="crispEdges" fill="rgb(254, 221, 254)"  x="27" y="9" width="1" height="1" /><rect shape-rendering="crispEdges" fill="rgb(254, 215, 254)"  x="27" y="10" width="1" height="1" /><rect shape-rendering="crispEdges" fill="rgb(254, 196, 254)"  x="27" y="11" width="1" height="1" /><rect shape-rendering="crispEdges" fill="rgb(255, 211, 255)"  x="27" y="12" width="1" height="1" /><rect shape-rendering="crispEdges" fill="rgb(255, 220, 255)"  x="27" y="13" width="1" height="1" /><rect shape-rendering="crispEdges" fill="rgb(255, 198, 255)"  x="27" y="14" width="1" height="1" /><rect shape-rendering="crispEdges" fill="rgb(255, 218, 255)"  x="27" y="15" width="1" height="1" /><rect shape-rendering="crispEdges" fill="rgb(255, 232, 255)"  x="27" y="16" width="1" height="1" /><rect shape-rendering="crispEdges" fill="rgb(255, 223, 255)"  x="27" y="17" width="1" height="1" /><rect shape-rendering="crispEdges" fill="rgb(255, 208, 255)"  x="27" y="18" width="1" height="1" /><rect shape-rendering="crispEdges" fill="rgb(255, 206, 255)"  x="27" y="19" width="1" height="1" /><rect shape-rendering="crispEdges" fill="rgb(255, 239, 255)"  x="27" y="20" width="1" height="1" /><rect shape-rendering="crispEdges" fill="rgb(255, 255, 255)"  x="27" y="21" width="1" height="1" /><rect shape-rendering="crispEdges" fill="rgb(255, 255, 255)"  x="27" y="22" width="1" height="1" /><rect shape-rendering="crispEdges" fill="rgb(254, 239, 254)"  x="27" y="23" width="1" height="1" /><rect shape-rendering="crispEdges" fill="rgb(254, 202, 254)"  x="27" y="24" width="1" height="1" /><rect shape-rendering="crispEdges" fill="rgb(248, 153, 248)"  x="27" y="25" width="1" height="1" /><rect shape-rendering="crispEdges" fill="rgb(247, 133, 247)"  x="27" y="26" width="1" height="1" /><rect shape-rendering="crispEdges" fill="rgb(246, 143, 246)"  x="28" y="8" width="1" height="1" /><rect shape-rendering="crispEdges" fill="rgb(248, 140, 248)"  x="28" y="9" width="1" height="1" /><rect shape-rendering="crispEdges" fill="rgb(251, 171, 251)"  x="28" y="10" width="1" height="1" /><rect shape-rendering="crispEdges" fill="rgb(254, 225, 254)"  x="28" y="11" width="1" height="1" /><rect shape-rendering="crispEdges" fill="rgb(254, 212, 254)"  x="28" y="12" width="1" height="1" /><rect shape-rendering="crispEdges" fill="rgb(247, 187, 247)"  x="28" y="13" width="1" height="1" /><rect shape-rendering="crispEdges" fill="rgb(254, 212, 254)"  x="28" y="14" width="1" height="1" /><rect shape-rendering="crispEdges" fill="rgb(254, 249, 254)"  x="28" y="15" width="1" height="1" /><rect shape-rendering="crispEdges" fill="rgb(255, 255, 255)"  x="28" y="16" width="1" height="1" /><rect shape-rendering="crispEdges" fill="rgb(255, 227, 255)"  x="28" y="17" width="1" height="1" /><rect shape-rendering="crispEdges" fill="rgb(255, 217, 255)"  x="28" y="18" width="1" height="1" /><rect shape-rendering="crispEdges" fill="rgb(255, 247, 255)"  x="28" y="19" width="1" height="1" /><rect shape-rendering="crispEdges" fill="rgb(255, 254, 255)"  x="28" y="20" width="1" height="1" /><rect shape-rendering="crispEdges" fill="rgb(254, 197, 254)"  x="28" y="21" width="1" height="1" /><rect shape-rendering="crispEdges" fill="rgb(245, 157, 245)"  x="28" y="22" width="1" height="1" /><rect shape-rendering="crispEdges" fill="rgb(248, 153, 248)"  x="28" y="23" width="1" height="1" /><rect shape-rendering="crispEdges" fill="rgb(246, 128, 246)"  x="28" y="24" width="1" height="1" /><rect shape-rendering="crispEdges" fill="rgb(246, 127, 246)"  x="29" y="10" width="1" height="1" /><rect shape-rendering="crispEdges" fill="rgb(247, 132, 247)"  x="29" y="11" width="1" height="1" /><rect shape-rendering="crispEdges" fill="rgb(248, 142, 248)"  x="29" y="12" width="1" height="1" /><rect shape-rendering="crispEdges" fill="rgb(251, 170, 251)"  x="29" y="13" width="1" height="1" /><rect shape-rendering="crispEdges" fill="rgb(248, 149, 248)"  x="29" y="14" width="1" height="1" /><rect shape-rendering="crispEdges" fill="rgb(246, 127, 246)"  x="29" y="15" width="1" height="1" /><rect shape-rendering="crispEdges" fill="rgb(246, 127, 246)"  x="29" y="16" width="1" height="1" /><rect shape-rendering="crispEdges" fill="rgb(246, 127, 246)"  x="29" y="17" width="1" height="1" /><rect shape-rendering="crispEdges" fill="rgb(246, 127, 246)"  x="29" y="18" width="1" height="1" /><rect shape-rendering="crispEdges" fill="rgb(246, 127, 246)"  x="29" y="19" width="1" height="1" /><rect shape-rendering="crispEdges" fill="rgb(246, 127, 246)"  x="29" y="20" width="1" height="1" /><rect shape-rendering="crispEdges" fill="rgb(246, 127, 246)"  x="29" y="21" width="1" height="1" /><rect shape-rendering="crispEdges" fill="rgb(246, 134, 246)"  x="29" y="22" width="1" height="1" /><rect shape-rendering="crispEdges" fill="rgb(246, 127, 246)"  x="30" y="13" width="1" height="1" /></svg>