<svg xmlns="http://www.w3.org/2000/svg" xmlns:xlink= "http://www.w3.org/1999/xlink" width="32" height="32" viewBox ="0 0 32 32"><rect shape-rendering="crispEdges" fill="rgb(164, 180, 180)"  x="1" y="21" width="1" height="1" /><rect shape-rendering="crispEdges" fill="rgb(164, 180, 180)"  x="1" y="24" width="1" height="1" /><rect shape-rendering="crispEdges" fill="rgb(148, 148, 164)"  x="2" y="16" width="1" height="1" /><rect shape-rendering="crispEdges" fill="rgb(106, 115, 131)"  x="2" y="17" width="1" height="1" /><rect shape-rendering="crispEdges" fill="rgb(106, 115, 131)"  x="2" y="18" width="1" height="1" /><rect shape-rendering="crispEdges" fill="rgb(106, 115, 131)"  x="2" y="19" width="1" height="1" /><rect shape-rendering="crispEdges" fill="rgb(180, 189, 197)"  x="2" y="20" width="1" height="1" /><rect shape-rendering="crispEdges" fill="rgb(164, 180, 180)"  x="2" y="21" width="1" height="1" /><rect shape-rendering="crispEdges" fill="rgb(164, 180, 180)"  x="2" y="24" width="1" height="1" /><rect shape-rendering="crispEdges" fill="rgb(65, 74, 90)"  x="3" y="15" width="1" height="1" /><rect shape-rendering="crispEdges" fill="rgb(148, 148, 164)"  x="3" y="16" width="1" height="1" /><rect shape-rendering="crispEdges" fill="rgb(123, 131, 148)"  x="3" y="17" width="1" height="1" /><rect shape-rendering="crispEdges" fill="rgb(123, 131, 148)"  x="3" y="18" width="1" height="1" /><rect shape-rendering="crispEdges" fill="rgb(123, 131, 148)"  x="3" y="19" width="1" height="1" /><rect shape-rendering="crispEdges" fill="rgb(123, 131, 148)"  x="3" y="20" width="1" height="1" /><rect shape-rendering="crispEdges" fill="rgb(164, 180, 180)"  x="3" y="21" width="1" height="1" /><rect shape-rendering="crispEdges" fill="rgb(164, 164, 180)"  x="3" y="22" width="1" height="1" /><rect shape-rendering="crispEdges" fill="rgb(230, 230, 230)"  x="3" y="23" width="1" height="1" /><rect shape-rendering="crispEdges" fill="rgb(164, 180, 180)"  x="3" y="24" width="1" height="1" /><rect shape-rendering="crispEdges" fill="rgb(180, 197, 205)"  x="3" y="25" width="1" height="1" /><rect shape-rendering="crispEdges" fill="rgb(65, 74, 90)"  x="4" y="14" width="1" height="1" /><rect shape-rendering="crispEdges" fill="rgb(123, 131, 148)"  x="4" y="15" width="1" height="1" /><rect shape-rendering="crispEdges" fill="rgb(123, 131, 148)"  x="4" y="16" width="1" height="1" /><rect shape-rendering="crispEdges" fill="rgb(123, 131, 148)"  x="4" y="17" width="1" height="1" /><rect shape-rendering="crispEdges" fill="rgb(106, 106, 123)"  x="4" y="18" width="1" height="1" /><rect shape-rendering="crispEdges" fill="rgb(123, 131, 148)"  x="4" y="19" width="1" height="1" /><rect shape-rendering="crispEdges" fill="rgb(139, 156, 172)"  x="4" y="20" width="1" height="1" /><rect shape-rendering="crispEdges" fill="rgb(139, 156, 172)"  x="4" y="21" width="1" height="1" /><rect shape-rendering="crispEdges" fill="rgb(65, 74, 82)"  x="4" y="22" width="1" height="1" /><rect shape-rendering="crispEdges" fill="rgb(230, 230, 230)"  x="4" y="23" width="1" height="1" /><rect shape-rendering="crispEdges" fill="rgb(164, 180, 180)"  x="4" y="24" width="1" height="1" /><rect shape-rendering="crispEdges" fill="rgb(164, 180, 180)"  x="4" y="25" width="1" height="1" /><rect shape-rendering="crispEdges" fill="rgb(180, 197, 205)"  x="4" y="26" width="1" height="1" /><rect shape-rendering="crispEdges" fill="rgb(65, 74, 90)"  x="5" y="13" width="1" height="1" /><rect shape-rendering="crispEdges" fill="rgb(115, 123, 131)"  x="5" y="14" width="1" height="1" /><rect shape-rendering="crispEdges" fill="rgb(65, 74, 90)"  x="5" y="15" width="1" height="1" /><rect shape-rendering="crispEdges" fill="rgb(90, 98, 115)"  x="5" y="16" width="1" height="1" /><rect shape-rendering="crispEdges" fill="rgb(123, 131, 139)"  x="5" y="17" width="1" height="1" /><rect shape-rendering="crispEdges" fill="rgb(172, 180, 197)"  x="5" y="18" width="1" height="1" /><rect shape-rendering="crispEdges" fill="rgb(139, 156, 172)"  x="5" y="19" width="1" height="1" /><rect shape-rendering="crispEdges" fill="rgb(139, 156, 172)"  x="5" y="20" width="1" height="1" /><rect shape-rendering="crispEdges" fill="rgb(90, 98, 115)"  x="5" y="21" width="1" height="1" /><rect shape-rendering="crispEdges" fill="rgb(90, 98, 115)"  x="5" y="22" width="1" height="1" /><rect shape-rendering="crispEdges" fill="rgb(230, 230, 230)"  x="5" y="23" width="1" height="1" /><rect shape-rendering="crispEdges" fill="rgb(164, 180, 180)"  x="5" y="24" width="1" height="1" /><rect shape-rendering="crispEdges" fill="rgb(164, 180, 180)"  x="5" y="25" width="1" height="1" /><rect shape-rendering="crispEdges" fill="rgb(197, 205, 205)"  x="5" y="26" width="1" height="1" /><rect shape-rendering="crispEdges" fill="rgb(230, 230, 230)"  x="5" y="27" width="1" height="1" /><rect shape-rendering="crispEdges" fill="rgb(16, 41, 74)"  x="6" y="10" width="1" height="1" /><rect shape-rendering="crispEdges" fill="rgb(41, 65, 90)"  x="6" y="11" width="1" height="1" /><rect shape-rendering="crispEdges" fill="rgb(41, 65, 90)"  x="6" y="12" width="1" height="1" /><rect shape-rendering="crispEdges" fill="rgb(32, 41, 65)"  x="6" y="13" width="1" height="1" /><rect shape-rendering="crispEdges" fill="rgb(115, 123, 131)"  x="6" y="14" width="1" height="1" /><rect shape-rendering="crispEdges" fill="rgb(90, 98, 115)"  x="6" y="15" width="1" height="1" /><rect shape-rendering="crispEdges" fill="rgb(123, 131, 148)"  x="6" y="16" width="1" height="1" /><rect shape-rendering="crispEdges" fill="rgb(49, 57, 74)"  x="6" y="17" width="1" height="1" /><rect shape-rendering="crispEdges" fill="rgb(213, 222, 230)"  x="6" y="18" width="1" height="1" /><rect shape-rendering="crispEdges" fill="rgb(139, 156, 172)"  x="6" y="19" width="1" height="1" /><rect shape-rendering="crispEdges" fill="rgb(115, 139, 148)"  x="6" y="20" width="1" height="1" /><rect shape-rendering="crispEdges" fill="rgb(90, 98, 115)"  x="6" y="21" width="1" height="1" /><rect shape-rendering="crispEdges" fill="rgb(90, 98, 115)"  x="6" y="22" width="1" height="1" /><rect shape-rendering="crispEdges" fill="rgb(230, 230, 230)"  x="6" y="23" width="1" height="1" /><rect shape-rendering="crispEdges" fill="rgb(106, 123, 131)"  x="6" y="24" width="1" height="1" /><rect shape-rendering="crispEdges" fill="rgb(74, 98, 123)"  x="6" y="25" width="1" height="1" /><rect shape-rendering="crispEdges" fill="rgb(213, 222, 222)"  x="6" y="26" width="1" height="1" /><rect shape-rendering="crispEdges" fill="rgb(230, 230, 230)"  x="6" y="27" width="1" height="1" /><rect shape-rendering="crispEdges" fill="rgb(90, 106, 131)"  x="7" y="9" width="1" height="1" /><rect shape-rendering="crispEdges" fill="rgb(16, 41, 74)"  x="7" y="10" width="1" height="1" /><rect shape-rendering="crispEdges" fill="rgb(16, 41, 74)"  x="7" y="11" width="1" height="1" /><rect shape-rendering="crispEdges" fill="rgb(32, 49, 82)"  x="7" y="12" width="1" height="1" /><rect shape-rendering="crispEdges" fill="rgb(16, 41, 74)"  x="7" y="13" width="1" height="1" /><rect shape-rendering="crispEdges" fill="rgb(90, 98, 115)"  x="7" y="14" width="1" height="1" /><rect shape-rendering="crispEdges" fill="rgb(123, 131, 148)"  x="7" y="15" width="1" height="1" /><rect shape-rendering="crispEdges" fill="rgb(49, 57, 74)"  x="7" y="16" width="1" height="1" /><rect shape-rendering="crispEdges" fill="rgb(82, 90, 106)"  x="7" y="17" width="1" height="1" /><rect shape-rendering="crispEdges" fill="rgb(213, 222, 230)"  x="7" y="18" width="1" height="1" /><rect shape-rendering="crispEdges" fill="rgb(197, 205, 222)"  x="7" y="19" width="1" height="1" /><rect shape-rendering="crispEdges" fill="rgb(197, 205, 222)"  x="7" y="20" width="1" height="1" /><rect shape-rendering="crispEdges" fill="rgb(213, 222, 230)"  x="7" y="21" width="1" height="1" /><rect shape-rendering="crispEdges" fill="rgb(213, 222, 230)"  x="7" y="22" width="1" height="1" /><rect shape-rendering="crispEdges" fill="rgb(230, 230, 230)"  x="7" y="23" width="1" height="1" /><rect shape-rendering="crispEdges" fill="rgb(115, 139, 156)"  x="7" y="24" width="1" height="1" /><rect shape-rendering="crispEdges" fill="rgb(164, 172, 189)"  x="7" y="25" width="1" height="1" /><rect shape-rendering="crispEdges" fill="rgb(213, 222, 222)"  x="7" y="26" width="1" height="1" /><rect shape-rendering="crispEdges" fill="rgb(230, 230, 230)"  x="7" y="27" width="1" height="1" /><rect shape-rendering="crispEdges" fill="rgb(90, 106, 131)"  x="8" y="8" width="1" height="1" /><rect shape-rendering="crispEdges" fill="rgb(148, 164, 172)"  x="8" y="9" width="1" height="1" /><rect shape-rendering="crispEdges" fill="rgb(49, 65, 90)"  x="8" y="10" width="1" height="1" /><rect shape-rendering="crispEdges" fill="rgb(16, 41, 74)"  x="8" y="11" width="1" height="1" /><rect shape-rendering="crispEdges" fill="rgb(16, 41, 74)"  x="8" y="12" width="1" height="1" /><rect shape-rendering="crispEdges" fill="rgb(16, 41, 74)"  x="8" y="13" width="1" height="1" /><rect shape-rendering="crispEdges" fill="rgb(123, 131, 148)"  x="8" y="14" width="1" height="1" /><rect shape-rendering="crispEdges" fill="rgb(49, 57, 74)"  x="8" y="15" width="1" height="1" /><rect shape-rendering="crispEdges" fill="rgb(82, 90, 106)"  x="8" y="16" width="1" height="1" /><rect shape-rendering="crispEdges" fill="rgb(65, 74, 90)"  x="8" y="17" width="1" height="1" /><rect shape-rendering="crispEdges" fill="rgb(172, 180, 197)"  x="8" y="18" width="1" height="1" /><rect shape-rendering="crispEdges" fill="rgb(131, 148, 156)"  x="8" y="19" width="1" height="1" /><rect shape-rendering="crispEdges" fill="rgb(172, 180, 197)"  x="8" y="20" width="1" height="1" /><rect shape-rendering="crispEdges" fill="rgb(172, 180, 197)"  x="8" y="21" width="1" height="1" /><rect shape-rendering="crispEdges" fill="rgb(148, 148, 156)"  x="8" y="22" width="1" height="1" /><rect shape-rendering="crispEdges" fill="rgb(230, 230, 230)"  x="8" y="23" width="1" height="1" /><rect shape-rendering="crispEdges" fill="rgb(90, 98, 115)"  x="8" y="24" width="1" height="1" /><rect shape-rendering="crispEdges" fill="rgb(115, 139, 156)"  x="8" y="25" width="1" height="1" /><rect shape-rendering="crispEdges" fill="rgb(213, 222, 222)"  x="8" y="26" width="1" height="1" /><rect shape-rendering="crispEdges" fill="rgb(230, 230, 230)"  x="8" y="27" width="1" height="1" /><rect shape-rendering="crispEdges" fill="rgb(197, 205, 205)"  x="8" y="28" width="1" height="1" /><rect shape-rendering="crispEdges" fill="rgb(90, 106, 131)"  x="9" y="7" width="1" height="1" /><rect shape-rendering="crispEdges" fill="rgb(148, 164, 172)"  x="9" y="8" width="1" height="1" /><rect shape-rendering="crispEdges" fill="rgb(148, 164, 172)"  x="9" y="9" width="1" height="1" /><rect shape-rendering="crispEdges" fill="rgb(148, 164, 172)"  x="9" y="10" width="1" height="1" /><rect shape-rendering="crispEdges" fill="rgb(16, 41, 74)"  x="9" y="11" width="1" height="1" /><rect shape-rendering="crispEdges" fill="rgb(32, 57, 74)"  x="9" y="12" width="1" height="1" /><rect shape-rendering="crispEdges" fill="rgb(57, 98, 123)"  x="9" y="13" width="1" height="1" /><rect shape-rendering="crispEdges" fill="rgb(57, 98, 123)"  x="9" y="14" width="1" height="1" /><rect shape-rendering="crispEdges" fill="rgb(49, 65, 82)"  x="9" y="15" width="1" height="1" /><rect shape-rendering="crispEdges" fill="rgb(82, 90, 106)"  x="9" y="16" width="1" height="1" /><rect shape-rendering="crispEdges" fill="rgb(74, 82, 98)"  x="9" y="17" width="1" height="1" /><rect shape-rendering="crispEdges" fill="rgb(74, 82, 98)"  x="9" y="18" width="1" height="1" /><rect shape-rendering="crispEdges" fill="rgb(74, 82, 98)"  x="9" y="19" width="1" height="1" /><rect shape-rendering="crispEdges" fill="rgb(74, 82, 98)"  x="9" y="20" width="1" height="1" /><rect shape-rendering="crispEdges" fill="rgb(74, 82, 98)"  x="9" y="21" width="1" height="1" /><rect shape-rendering="crispEdges" fill="rgb(131, 139, 148)"  x="9" y="22" width="1" height="1" /><rect shape-rendering="crispEdges" fill="rgb(230, 230, 230)"  x="9" y="23" width="1" height="1" /><rect shape-rendering="crispEdges" fill="rgb(41, 82, 106)"  x="9" y="24" width="1" height="1" /><rect shape-rendering="crispEdges" fill="rgb(213, 222, 222)"  x="9" y="25" width="1" height="1" /><rect shape-rendering="crispEdges" fill="rgb(230, 230, 230)"  x="9" y="26" width="1" height="1" /><rect shape-rendering="crispEdges" fill="rgb(164, 180, 189)"  x="9" y="27" width="1" height="1" /><rect shape-rendering="crispEdges" fill="rgb(197, 205, 205)"  x="9" y="28" width="1" height="1" /><rect shape-rendering="crispEdges" fill="rgb(90, 106, 131)"  x="10" y="6" width="1" height="1" /><rect shape-rendering="crispEdges" fill="rgb(148, 164, 172)"  x="10" y="7" width="1" height="1" /><rect shape-rendering="crispEdges" fill="rgb(148, 164, 172)"  x="10" y="8" width="1" height="1" /><rect shape-rendering="crispEdges" fill="rgb(148, 164, 172)"  x="10" y="9" width="1" height="1" /><rect shape-rendering="crispEdges" fill="rgb(74, 98, 123)"  x="10" y="10" width="1" height="1" /><rect shape-rendering="crispEdges" fill="rgb(57, 98, 123)"  x="10" y="11" width="1" height="1" /><rect shape-rendering="crispEdges" fill="rgb(32, 57, 74)"  x="10" y="12" width="1" height="1" /><rect shape-rendering="crispEdges" fill="rgb(32, 57, 74)"  x="10" y="13" width="1" height="1" /><rect shape-rendering="crispEdges" fill="rgb(32, 57, 74)"  x="10" y="14" width="1" height="1" /><rect shape-rendering="crispEdges" fill="rgb(41, 41, 57)"  x="10" y="15" width="1" height="1" /><rect shape-rendering="crispEdges" fill="rgb(65, 74, 90)"  x="10" y="16" width="1" height="1" /><rect shape-rendering="crispEdges" fill="rgb(82, 90, 106)"  x="10" y="17" width="1" height="1" /><rect shape-rendering="crispEdges" fill="rgb(82, 90, 106)"  x="10" y="18" width="1" height="1" /><rect shape-rendering="crispEdges" fill="rgb(82, 90, 106)"  x="10" y="19" width="1" height="1" /><rect shape-rendering="crispEdges" fill="rgb(65, 74, 90)"  x="10" y="20" width="1" height="1" /><rect shape-rendering="crispEdges" fill="rgb(131, 139, 148)"  x="10" y="21" width="1" height="1" /><rect shape-rendering="crispEdges" fill="rgb(156, 164, 172)"  x="10" y="22" width="1" height="1" /><rect shape-rendering="crispEdges" fill="rgb(230, 230, 230)"  x="10" y="23" width="1" height="1" /><rect shape-rendering="crispEdges" fill="rgb(156, 172, 180)"  x="10" y="24" width="1" height="1" /><rect shape-rendering="crispEdges" fill="rgb(230, 230, 230)"  x="10" y="25" width="1" height="1" /><rect shape-rendering="crispEdges" fill="rgb(230, 230, 230)"  x="10" y="26" width="1" height="1" /><rect shape-rendering="crispEdges" fill="rgb(98, 123, 139)"  x="10" y="27" width="1" height="1" /><rect shape-rendering="crispEdges" fill="rgb(197, 205, 205)"  x="10" y="28" width="1" height="1" /><rect shape-rendering="crispEdges" fill="rgb(90, 106, 131)"  x="11" y="5" width="1" height="1" /><rect shape-rendering="crispEdges" fill="rgb(148, 164, 172)"  x="11" y="6" width="1" height="1" /><rect shape-rendering="crispEdges" fill="rgb(148, 164, 172)"  x="11" y="7" width="1" height="1" /><rect shape-rendering="crispEdges" fill="rgb(74, 98, 123)"  x="11" y="8" width="1" height="1" /><rect shape-rendering="crispEdges" fill="rgb(74, 98, 123)"  x="11" y="9" width="1" height="1" /><rect shape-rendering="crispEdges" fill="rgb(57, 98, 123)"  x="11" y="10" width="1" height="1" /><rect shape-rendering="crispEdges" fill="rgb(148, 205, 213)"  x="11" y="11" width="1" height="1" /><rect shape-rendering="crispEdges" fill="rgb(57, 98, 123)"  x="11" y="12" width="1" height="1" /><rect shape-rendering="crispEdges" fill="rgb(32, 115, 156)"  x="11" y="13" width="1" height="1" /><rect shape-rendering="crispEdges" fill="rgb(41, 41, 57)"  x="11" y="14" width="1" height="1" /><rect shape-rendering="crispEdges" fill="rgb(41, 41, 57)"  x="11" y="15" width="1" height="1" /><rect shape-rendering="crispEdges" fill="rgb(65, 74, 90)"  x="11" y="16" width="1" height="1" /><rect shape-rendering="crispEdges" fill="rgb(65, 74, 90)"  x="11" y="17" width="1" height="1" /><rect shape-rendering="crispEdges" fill="rgb(65, 74, 90)"  x="11" y="18" width="1" height="1" /><rect shape-rendering="crispEdges" fill="rgb(65, 74, 90)"  x="11" y="19" width="1" height="1" /><rect shape-rendering="crispEdges" fill="rgb(65, 74, 90)"  x="11" y="20" width="1" height="1" /><rect shape-rendering="crispEdges" fill="rgb(148, 148, 156)"  x="11" y="21" width="1" height="1" /><rect shape-rendering="crispEdges" fill="rgb(230, 230, 230)"  x="11" y="22" width="1" height="1" /><rect shape-rendering="crispEdges" fill="rgb(90, 98, 106)"  x="11" y="23" width="1" height="1" /><rect shape-rendering="crispEdges" fill="rgb(164, 164, 164)"  x="11" y="24" width="1" height="1" /><rect shape-rendering="crispEdges" fill="rgb(230, 230, 230)"  x="11" y="25" width="1" height="1" /><rect shape-rendering="crispEdges" fill="rgb(98, 123, 139)"  x="11" y="26" width="1" height="1" /><rect shape-rendering="crispEdges" fill="rgb(41, 82, 106)"  x="11" y="27" width="1" height="1" /><rect shape-rendering="crispEdges" fill="rgb(197, 205, 205)"  x="11" y="28" width="1" height="1" /><rect shape-rendering="crispEdges" fill="rgb(82, 115, 131)"  x="12" y="4" width="1" height="1" /><rect shape-rendering="crispEdges" fill="rgb(148, 164, 172)"  x="12" y="5" width="1" height="1" /><rect shape-rendering="crispEdges" fill="rgb(148, 164, 172)"  x="12" y="6" width="1" height="1" /><rect shape-rendering="crispEdges" fill="rgb(74, 98, 123)"  x="12" y="7" width="1" height="1" /><rect shape-rendering="crispEdges" fill="rgb(74, 98, 123)"  x="12" y="8" width="1" height="1" /><rect shape-rendering="crispEdges" fill="rgb(115, 156, 172)"  x="12" y="9" width="1" height="1" /><rect shape-rendering="crispEdges" fill="rgb(172, 222, 222)"  x="12" y="10" width="1" height="1" /><rect shape-rendering="crispEdges" fill="rgb(189, 230, 238)"  x="12" y="11" width="1" height="1" /><rect shape-rendering="crispEdges" fill="rgb(148, 205, 213)"  x="12" y="12" width="1" height="1" /><rect shape-rendering="crispEdges" fill="rgb(57, 106, 123)"  x="12" y="13" width="1" height="1" /><rect shape-rendering="crispEdges" fill="rgb(32, 115, 156)"  x="12" y="14" width="1" height="1" /><rect shape-rendering="crispEdges" fill="rgb(41, 41, 57)"  x="12" y="15" width="1" height="1" /><rect shape-rendering="crispEdges" fill="rgb(41, 49, 65)"  x="12" y="16" width="1" height="1" /><rect shape-rendering="crispEdges" fill="rgb(41, 49, 65)"  x="12" y="17" width="1" height="1" /><rect shape-rendering="crispEdges" fill="rgb(41, 49, 65)"  x="12" y="18" width="1" height="1" /><rect shape-rendering="crispEdges" fill="rgb(41, 49, 65)"  x="12" y="19" width="1" height="1" /><rect shape-rendering="crispEdges" fill="rgb(90, 98, 106)"  x="12" y="20" width="1" height="1" /><rect shape-rendering="crispEdges" fill="rgb(164, 164, 164)"  x="12" y="21" width="1" height="1" /><rect shape-rendering="crispEdges" fill="rgb(41, 49, 65)"  x="12" y="22" width="1" height="1" /><rect shape-rendering="crispEdges" fill="rgb(90, 98, 106)"  x="12" y="23" width="1" height="1" /><rect shape-rendering="crispEdges" fill="rgb(164, 164, 164)"  x="12" y="24" width="1" height="1" /><rect shape-rendering="crispEdges" fill="rgb(230, 230, 230)"  x="12" y="25" width="1" height="1" /><rect shape-rendering="crispEdges" fill="rgb(41, 82, 106)"  x="12" y="26" width="1" height="1" /><rect shape-rendering="crispEdges" fill="rgb(230, 230, 230)"  x="12" y="27" width="1" height="1" /><rect shape-rendering="crispEdges" fill="rgb(82, 115, 131)"  x="13" y="3" width="1" height="1" /><rect shape-rendering="crispEdges" fill="rgb(148, 164, 172)"  x="13" y="4" width="1" height="1" /><rect shape-rendering="crispEdges" fill="rgb(148, 164, 172)"  x="13" y="5" width="1" height="1" /><rect shape-rendering="crispEdges" fill="rgb(74, 98, 123)"  x="13" y="6" width="1" height="1" /><rect shape-rendering="crispEdges" fill="rgb(74, 98, 123)"  x="13" y="7" width="1" height="1" /><rect shape-rendering="crispEdges" fill="rgb(115, 156, 172)"  x="13" y="8" width="1" height="1" /><rect shape-rendering="crispEdges" fill="rgb(172, 222, 222)"  x="13" y="9" width="1" height="1" /><rect shape-rendering="crispEdges" fill="rgb(189, 230, 238)"  x="13" y="10" width="1" height="1" /><rect shape-rendering="crispEdges" fill="rgb(189, 230, 238)"  x="13" y="11" width="1" height="1" /><rect shape-rendering="crispEdges" fill="rgb(189, 230, 238)"  x="13" y="12" width="1" height="1" /><rect shape-rendering="crispEdges" fill="rgb(148, 205, 213)"  x="13" y="13" width="1" height="1" /><rect shape-rendering="crispEdges" fill="rgb(41, 98, 115)"  x="13" y="14" width="1" height="1" /><rect shape-rendering="crispEdges" fill="rgb(32, 115, 156)"  x="13" y="15" width="1" height="1" /><rect shape-rendering="crispEdges" fill="rgb(41, 41, 57)"  x="13" y="16" width="1" height="1" /><rect shape-rendering="crispEdges" fill="rgb(41, 41, 57)"  x="13" y="17" width="1" height="1" /><rect shape-rendering="crispEdges" fill="rgb(41, 49, 65)"  x="13" y="18" width="1" height="1" /><rect shape-rendering="crispEdges" fill="rgb(57, 65, 82)"  x="13" y="19" width="1" height="1" /><rect shape-rendering="crispEdges" fill="rgb(164, 164, 164)"  x="13" y="20" width="1" height="1" /><rect shape-rendering="crispEdges" fill="rgb(41, 41, 57)"  x="13" y="21" width="1" height="1" /><rect shape-rendering="crispEdges" fill="rgb(49, 57, 65)"  x="13" y="22" width="1" height="1" /><rect shape-rendering="crispEdges" fill="rgb(65, 74, 74)"  x="13" y="23" width="1" height="1" /><rect shape-rendering="crispEdges" fill="rgb(213, 222, 222)"  x="13" y="24" width="1" height="1" /><rect shape-rendering="crispEdges" fill="rgb(16, 57, 82)"  x="13" y="25" width="1" height="1" /><rect shape-rendering="crispEdges" fill="rgb(230, 230, 230)"  x="13" y="26" width="1" height="1" /><rect shape-rendering="crispEdges" fill="rgb(16, 57, 82)"  x="13" y="27" width="1" height="1" /><rect shape-rendering="crispEdges" fill="rgb(49, 65, 90)"  x="14" y="3" width="1" height="1" /><rect shape-rendering="crispEdges" fill="rgb(148, 164, 172)"  x="14" y="4" width="1" height="1" /><rect shape-rendering="crispEdges" fill="rgb(74, 98, 123)"  x="14" y="5" width="1" height="1" /><rect shape-rendering="crispEdges" fill="rgb(74, 98, 123)"  x="14" y="6" width="1" height="1" /><rect shape-rendering="crispEdges" fill="rgb(115, 156, 172)"  x="14" y="7" width="1" height="1" /><rect shape-rendering="crispEdges" fill="rgb(172, 222, 222)"  x="14" y="8" width="1" height="1" /><rect shape-rendering="crispEdges" fill="rgb(172, 222, 222)"  x="14" y="9" width="1" height="1" /><rect shape-rendering="crispEdges" fill="rgb(189, 230, 238)"  x="14" y="10" width="1" height="1" /><rect shape-rendering="crispEdges" fill="rgb(148, 205, 213)"  x="14" y="11" width="1" height="1" /><rect shape-rendering="crispEdges" fill="rgb(189, 230, 238)"  x="14" y="12" width="1" height="1" /><rect shape-rendering="crispEdges" fill="rgb(189, 230, 238)"  x="14" y="13" width="1" height="1" /><rect shape-rendering="crispEdges" fill="rgb(148, 205, 213)"  x="14" y="14" width="1" height="1" /><rect shape-rendering="crispEdges" fill="rgb(24, 82, 106)"  x="14" y="15" width="1" height="1" /><rect shape-rendering="crispEdges" fill="rgb(16, 65, 98)"  x="14" y="16" width="1" height="1" /><rect shape-rendering="crispEdges" fill="rgb(16, 65, 98)"  x="14" y="17" width="1" height="1" /><rect shape-rendering="crispEdges" fill="rgb(65, 82, 98)"  x="14" y="18" width="1" height="1" /><rect shape-rendering="crispEdges" fill="rgb(139, 148, 148)"  x="14" y="19" width="1" height="1" /><rect shape-rendering="crispEdges" fill="rgb(41, 41, 57)"  x="14" y="20" width="1" height="1" /><rect shape-rendering="crispEdges" fill="rgb(41, 41, 57)"  x="14" y="21" width="1" height="1" /><rect shape-rendering="crispEdges" fill="rgb(65, 74, 74)"  x="14" y="22" width="1" height="1" /><rect shape-rendering="crispEdges" fill="rgb(164, 164, 164)"  x="14" y="23" width="1" height="1" /><rect shape-rendering="crispEdges" fill="rgb(24, 24, 32)"  x="14" y="24" width="1" height="1" /><rect shape-rendering="crispEdges" fill="rgb(164, 164, 164)"  x="14" y="25" width="1" height="1" /><rect shape-rendering="crispEdges" fill="rgb(16, 57, 82)"  x="14" y="26" width="1" height="1" /><rect shape-rendering="crispEdges" fill="rgb(32, 49, 82)"  x="15" y="3" width="1" height="1" /><rect shape-rendering="crispEdges" fill="rgb(82, 115, 131)"  x="15" y="4" width="1" height="1" /><rect shape-rendering="crispEdges" fill="rgb(16, 41, 74)"  x="15" y="5" width="1" height="1" /><rect shape-rendering="crispEdges" fill="rgb(41, 82, 106)"  x="15" y="6" width="1" height="1" /><rect shape-rendering="crispEdges" fill="rgb(172, 222, 222)"  x="15" y="7" width="1" height="1" /><rect shape-rendering="crispEdges" fill="rgb(172, 222, 222)"  x="15" y="8" width="1" height="1" /><rect shape-rendering="crispEdges" fill="rgb(172, 222, 222)"  x="15" y="9" width="1" height="1" /><rect shape-rendering="crispEdges" fill="rgb(148, 205, 213)"  x="15" y="10" width="1" height="1" /><rect shape-rendering="crispEdges" fill="rgb(74, 115, 139)"  x="15" y="11" width="1" height="1" /><rect shape-rendering="crispEdges" fill="rgb(106, 164, 172)"  x="15" y="12" width="1" height="1" /><rect shape-rendering="crispEdges" fill="rgb(189, 230, 238)"  x="15" y="13" width="1" height="1" /><rect shape-rendering="crispEdges" fill="rgb(189, 230, 238)"  x="15" y="14" width="1" height="1" /><rect shape-rendering="crispEdges" fill="rgb(189, 230, 238)"  x="15" y="15" width="1" height="1" /><rect shape-rendering="crispEdges" fill="rgb(139, 197, 213)"  x="15" y="16" width="1" height="1" /><rect shape-rendering="crispEdges" fill="rgb(65, 131, 156)"  x="15" y="17" width="1" height="1" /><rect shape-rendering="crispEdges" fill="rgb(16, 65, 98)"  x="15" y="18" width="1" height="1" /><rect shape-rendering="crispEdges" fill="rgb(16, 65, 98)"  x="15" y="19" width="1" height="1" /><rect shape-rendering="crispEdges" fill="rgb(16, 65, 98)"  x="15" y="20" width="1" height="1" /><rect shape-rendering="crispEdges" fill="rgb(16, 65, 98)"  x="15" y="21" width="1" height="1" /><rect shape-rendering="crispEdges" fill="rgb(16, 65, 98)"  x="15" y="22" width="1" height="1" /><rect shape-rendering="crispEdges" fill="rgb(32, 57, 74)"  x="15" y="23" width="1" height="1" /><rect shape-rendering="crispEdges" fill="rgb(32, 57, 74)"  x="15" y="24" width="1" height="1" /><rect shape-rendering="crispEdges" fill="rgb(32, 57, 74)"  x="15" y="25" width="1" height="1" /><rect shape-rendering="crispEdges" fill="rgb(32, 49, 82)"  x="16" y="2" width="1" height="1" /><rect shape-rendering="crispEdges" fill="rgb(82, 115, 131)"  x="16" y="3" width="1" height="1" /><rect shape-rendering="crispEdges" fill="rgb(16, 41, 74)"  x="16" y="4" width="1" height="1" /><rect shape-rendering="crispEdges" fill="rgb(57, 98, 123)"  x="16" y="5" width="1" height="1" /><rect shape-rendering="crispEdges" fill="rgb(172, 222, 222)"  x="16" y="6" width="1" height="1" /><rect shape-rendering="crispEdges" fill="rgb(172, 222, 222)"  x="16" y="7" width="1" height="1" /><rect shape-rendering="crispEdges" fill="rgb(148, 197, 205)"  x="16" y="8" width="1" height="1" /><rect shape-rendering="crispEdges" fill="rgb(98, 156, 164)"  x="16" y="9" width="1" height="1" /><rect shape-rendering="crispEdges" fill="rgb(74, 115, 139)"  x="16" y="10" width="1" height="1" /><rect shape-rendering="crispEdges" fill="rgb(148, 164, 180)"  x="16" y="11" width="1" height="1" /><rect shape-rendering="crispEdges" fill="rgb(24, 57, 90)"  x="16" y="12" width="1" height="1" /><rect shape-rendering="crispEdges" fill="rgb(106, 164, 172)"  x="16" y="13" width="1" height="1" /><rect shape-rendering="crispEdges" fill="rgb(189, 230, 238)"  x="16" y="14" width="1" height="1" /><rect shape-rendering="crispEdges" fill="rgb(189, 230, 238)"  x="16" y="15" width="1" height="1" /><rect shape-rendering="crispEdges" fill="rgb(189, 230, 238)"  x="16" y="16" width="1" height="1" /><rect shape-rendering="crispEdges" fill="rgb(189, 230, 238)"  x="16" y="17" width="1" height="1" /><rect shape-rendering="crispEdges" fill="rgb(189, 230, 238)"  x="16" y="18" width="1" height="1" /><rect shape-rendering="crispEdges" fill="rgb(139, 197, 213)"  x="16" y="19" width="1" height="1" /><rect shape-rendering="crispEdges" fill="rgb(139, 197, 213)"  x="16" y="20" width="1" height="1" /><rect shape-rendering="crispEdges" fill="rgb(82, 131, 148)"  x="16" y="21" width="1" height="1" /><rect shape-rendering="crispEdges" fill="rgb(82, 131, 148)"  x="16" y="22" width="1" height="1" /><rect shape-rendering="crispEdges" fill="rgb(32, 57, 74)"  x="16" y="23" width="1" height="1" /><rect shape-rendering="crispEdges" fill="rgb(90, 115, 139)"  x="16" y="24" width="1" height="1" /><rect shape-rendering="crispEdges" fill="rgb(16, 41, 74)"  x="17" y="1" width="1" height="1" /><rect shape-rendering="crispEdges" fill="rgb(16, 41, 74)"  x="17" y="2" width="1" height="1" /><rect shape-rendering="crispEdges" fill="rgb(16, 41, 74)"  x="17" y="3" width="1" height="1" /><rect shape-rendering="crispEdges" fill="rgb(16, 41, 74)"  x="17" y="4" width="1" height="1" /><rect shape-rendering="crispEdges" fill="rgb(41, 82, 106)"  x="17" y="5" width="1" height="1" /><rect shape-rendering="crispEdges" fill="rgb(172, 222, 222)"  x="17" y="6" width="1" height="1" /><rect shape-rendering="crispEdges" fill="rgb(148, 197, 205)"  x="17" y="7" width="1" height="1" /><rect shape-rendering="crispEdges" fill="rgb(98, 156, 172)"  x="17" y="8" width="1" height="1" /><rect shape-rendering="crispEdges" fill="rgb(74, 115, 139)"  x="17" y="9" width="1" height="1" /><rect shape-rendering="crispEdges" fill="rgb(115, 148, 156)"  x="17" y="10" width="1" height="1" /><rect shape-rendering="crispEdges" fill="rgb(148, 164, 180)"  x="17" y="11" width="1" height="1" /><rect shape-rendering="crispEdges" fill="rgb(57, 90, 115)"  x="17" y="12" width="1" height="1" /><rect shape-rendering="crispEdges" fill="rgb(65, 115, 139)"  x="17" y="13" width="1" height="1" /><rect shape-rendering="crispEdges" fill="rgb(189, 230, 238)"  x="17" y="14" width="1" height="1" /><rect shape-rendering="crispEdges" fill="rgb(189, 230, 238)"  x="17" y="15" width="1" height="1" /><rect shape-rendering="crispEdges" fill="rgb(189, 230, 238)"  x="17" y="16" width="1" height="1" /><rect shape-rendering="crispEdges" fill="rgb(123, 180, 197)"  x="17" y="17" width="1" height="1" /><rect shape-rendering="crispEdges" fill="rgb(123, 180, 197)"  x="17" y="18" width="1" height="1" /><rect shape-rendering="crispEdges" fill="rgb(82, 131, 148)"  x="17" y="19" width="1" height="1" /><rect shape-rendering="crispEdges" fill="rgb(82, 131, 148)"  x="17" y="20" width="1" height="1" /><rect shape-rendering="crispEdges" fill="rgb(65, 106, 123)"  x="17" y="21" width="1" height="1" /><rect shape-rendering="crispEdges" fill="rgb(32, 57, 74)"  x="17" y="22" width="1" height="1" /><rect shape-rendering="crispEdges" fill="rgb(41, 82, 106)"  x="18" y="5" width="1" height="1" /><rect shape-rendering="crispEdges" fill="rgb(115, 164, 180)"  x="18" y="6" width="1" height="1" /><rect shape-rendering="crispEdges" fill="rgb(115, 164, 180)"  x="18" y="7" width="1" height="1" /><rect shape-rendering="crispEdges" fill="rgb(49, 90, 115)"  x="18" y="8" width="1" height="1" /><rect shape-rendering="crispEdges" fill="rgb(115, 148, 156)"  x="18" y="9" width="1" height="1" /><rect shape-rendering="crispEdges" fill="rgb(115, 148, 156)"  x="18" y="10" width="1" height="1" /><rect shape-rendering="crispEdges" fill="rgb(197, 213, 222)"  x="18" y="11" width="1" height="1" /><rect shape-rendering="crispEdges" fill="rgb(57, 90, 115)"  x="18" y="12" width="1" height="1" /><rect shape-rendering="crispEdges" fill="rgb(65, 115, 139)"  x="18" y="13" width="1" height="1" /><rect shape-rendering="crispEdges" fill="rgb(131, 189, 205)"  x="18" y="14" width="1" height="1" /><rect shape-rendering="crispEdges" fill="rgb(123, 180, 197)"  x="18" y="15" width="1" height="1" /><rect shape-rendering="crispEdges" fill="rgb(123, 180, 197)"  x="18" y="16" width="1" height="1" /><rect shape-rendering="crispEdges" fill="rgb(123, 180, 197)"  x="18" y="17" width="1" height="1" /><rect shape-rendering="crispEdges" fill="rgb(82, 131, 148)"  x="18" y="18" width="1" height="1" /><rect shape-rendering="crispEdges" fill="rgb(65, 106, 123)"  x="18" y="19" width="1" height="1" /><rect shape-rendering="crispEdges" fill="rgb(65, 106, 123)"  x="18" y="20" width="1" height="1" /><rect shape-rendering="crispEdges" fill="rgb(32, 57, 74)"  x="18" y="21" width="1" height="1" /><rect shape-rendering="crispEdges" fill="rgb(41, 82, 106)"  x="19" y="4" width="1" height="1" /><rect shape-rendering="crispEdges" fill="rgb(115, 164, 180)"  x="19" y="5" width="1" height="1" /><rect shape-rendering="crispEdges" fill="rgb(115, 164, 180)"  x="19" y="6" width="1" height="1" /><rect shape-rendering="crispEdges" fill="rgb(49, 90, 115)"  x="19" y="7" width="1" height="1" /><rect shape-rendering="crispEdges" fill="rgb(115, 148, 156)"  x="19" y="8" width="1" height="1" /><rect shape-rendering="crispEdges" fill="rgb(115, 148, 156)"  x="19" y="9" width="1" height="1" /><rect shape-rendering="crispEdges" fill="rgb(148, 164, 180)"  x="19" y="10" width="1" height="1" /><rect shape-rendering="crispEdges" fill="rgb(57, 90, 115)"  x="19" y="11" width="1" height="1" /><rect shape-rendering="crispEdges" fill="rgb(65, 98, 123)"  x="19" y="12" width="1" height="1" /><rect shape-rendering="crispEdges" fill="rgb(65, 115, 139)"  x="19" y="13" width="1" height="1" /><rect shape-rendering="crispEdges" fill="rgb(65, 115, 139)"  x="19" y="14" width="1" height="1" /><rect shape-rendering="crispEdges" fill="rgb(65, 106, 123)"  x="19" y="15" width="1" height="1" /><rect shape-rendering="crispEdges" fill="rgb(65, 106, 123)"  x="19" y="16" width="1" height="1" /><rect shape-rendering="crispEdges" fill="rgb(65, 106, 123)"  x="19" y="17" width="1" height="1" /><rect shape-rendering="crispEdges" fill="rgb(16, 65, 98)"  x="19" y="18" width="1" height="1" /><rect shape-rendering="crispEdges" fill="rgb(16, 65, 98)"  x="19" y="19" width="1" height="1" /><rect shape-rendering="crispEdges" fill="rgb(32, 57, 74)"  x="19" y="20" width="1" height="1" /><rect shape-rendering="crispEdges" fill="rgb(16, 65, 98)"  x="20" y="3" width="1" height="1" /><rect shape-rendering="crispEdges" fill="rgb(16, 65, 98)"  x="20" y="4" width="1" height="1" /><rect shape-rendering="crispEdges" fill="rgb(16, 65, 98)"  x="20" y="5" width="1" height="1" /><rect shape-rendering="crispEdges" fill="rgb(24, 65, 90)"  x="20" y="6" width="1" height="1" /><rect shape-rendering="crispEdges" fill="rgb(115, 148, 156)"  x="20" y="7" width="1" height="1" /><rect shape-rendering="crispEdges" fill="rgb(131, 164, 172)"  x="20" y="8" width="1" height="1" /><rect shape-rendering="crispEdges" fill="rgb(115, 148, 156)"  x="20" y="9" width="1" height="1" /><rect shape-rendering="crispEdges" fill="rgb(148, 164, 180)"  x="20" y="10" width="1" height="1" /><rect shape-rendering="crispEdges" fill="rgb(65, 98, 123)"  x="20" y="11" width="1" height="1" /><rect shape-rendering="crispEdges" fill="rgb(65, 106, 123)"  x="20" y="12" width="1" height="1" /><rect shape-rendering="crispEdges" fill="rgb(65, 106, 123)"  x="20" y="13" width="1" height="1" /><rect shape-rendering="crispEdges" fill="rgb(65, 106, 123)"  x="20" y="14" width="1" height="1" /><rect shape-rendering="crispEdges" fill="rgb(65, 106, 123)"  x="20" y="15" width="1" height="1" /><rect shape-rendering="crispEdges" fill="rgb(16, 65, 98)"  x="20" y="16" width="1" height="1" /><rect shape-rendering="crispEdges" fill="rgb(32, 57, 74)"  x="20" y="17" width="1" height="1" /><rect shape-rendering="crispEdges" fill="rgb(49, 74, 90)"  x="21" y="6" width="1" height="1" /><rect shape-rendering="crispEdges" fill="rgb(115, 148, 156)"  x="21" y="7" width="1" height="1" /><rect shape-rendering="crispEdges" fill="rgb(131, 164, 172)"  x="21" y="8" width="1" height="1" /><rect shape-rendering="crispEdges" fill="rgb(131, 164, 172)"  x="21" y="9" width="1" height="1" /><rect shape-rendering="crispEdges" fill="rgb(230, 246, 246)"  x="21" y="10" width="1" height="1" /><rect shape-rendering="crispEdges" fill="rgb(16, 65, 98)"  x="21" y="11" width="1" height="1" /><rect shape-rendering="crispEdges" fill="rgb(16, 65, 98)"  x="21" y="12" width="1" height="1" /><rect shape-rendering="crispEdges" fill="rgb(16, 65, 98)"  x="21" y="13" width="1" height="1" /><rect shape-rendering="crispEdges" fill="rgb(32, 57, 74)"  x="21" y="14" width="1" height="1" /><rect shape-rendering="crispEdges" fill="rgb(32, 57, 74)"  x="21" y="15" width="1" height="1" /><rect shape-rendering="crispEdges" fill="rgb(148, 164, 180)"  x="21" y="16" width="1" height="1" /><rect shape-rendering="crispEdges" fill="rgb(115, 148, 156)"  x="22" y="7" width="1" height="1" /><rect shape-rendering="crispEdges" fill="rgb(131, 164, 172)"  x="22" y="8" width="1" height="1" /><rect shape-rendering="crispEdges" fill="rgb(115, 148, 156)"  x="22" y="9" width="1" height="1" /><rect shape-rendering="crispEdges" fill="rgb(230, 246, 246)"  x="22" y="10" width="1" height="1" /><rect shape-rendering="crispEdges" fill="rgb(82, 115, 123)"  x="22" y="11" width="1" height="1" /><rect shape-rendering="crispEdges" fill="rgb(82, 115, 123)"  x="22" y="13" width="1" height="1" /><rect shape-rendering="crispEdges" fill="rgb(82, 115, 123)"  x="22" y="14" width="1" height="1" /><rect shape-rendering="crispEdges" fill="rgb(148, 164, 180)"  x="22" y="15" width="1" height="1" /><rect shape-rendering="crispEdges" fill="rgb(57, 90, 115)"  x="23" y="7" width="1" height="1" /><rect shape-rendering="crispEdges" fill="rgb(115, 148, 156)"  x="23" y="8" width="1" height="1" /><rect shape-rendering="crispEdges" fill="rgb(115, 148, 156)"  x="23" y="9" width="1" height="1" /><rect shape-rendering="crispEdges" fill="rgb(230, 246, 246)"  x="23" y="10" width="1" height="1" /><rect shape-rendering="crispEdges" fill="rgb(82, 115, 123)"  x="23" y="11" width="1" height="1" /><rect shape-rendering="crispEdges" fill="rgb(82, 115, 123)"  x="23" y="13" width="1" height="1" /><rect shape-rendering="crispEdges" fill="rgb(98, 131, 139)"  x="23" y="14" width="1" height="1" /><rect shape-rendering="crispEdges" fill="rgb(172, 189, 205)"  x="23" y="15" width="1" height="1" /><rect shape-rendering="crispEdges" fill="rgb(41, 82, 106)"  x="24" y="8" width="1" height="1" /><rect shape-rendering="crispEdges" fill="rgb(115, 148, 156)"  x="24" y="9" width="1" height="1" /><rect shape-rendering="crispEdges" fill="rgb(205, 222, 230)"  x="24" y="10" width="1" height="1" /><rect shape-rendering="crispEdges" fill="rgb(82, 115, 123)"  x="24" y="11" width="1" height="1" /><rect shape-rendering="crispEdges" fill="rgb(98, 131, 139)"  x="24" y="12" width="1" height="1" /><rect shape-rendering="crispEdges" fill="rgb(123, 164, 172)"  x="24" y="13" width="1" height="1" /><rect shape-rendering="crispEdges" fill="rgb(98, 131, 139)"  x="24" y="14" width="1" height="1" /><rect shape-rendering="crispEdges" fill="rgb(172, 189, 205)"  x="24" y="15" width="1" height="1" /><rect shape-rendering="crispEdges" fill="rgb(65, 106, 123)"  x="25" y="9" width="1" height="1" /><rect shape-rendering="crispEdges" fill="rgb(197, 213, 222)"  x="25" y="10" width="1" height="1" /><rect shape-rendering="crispEdges" fill="rgb(82, 115, 123)"  x="25" y="11" width="1" height="1" /><rect shape-rendering="crispEdges" fill="rgb(123, 164, 172)"  x="25" y="12" width="1" height="1" /><rect shape-rendering="crispEdges" fill="rgb(123, 164, 172)"  x="25" y="13" width="1" height="1" /><rect shape-rendering="crispEdges" fill="rgb(148, 164, 180)"  x="25" y="14" width="1" height="1" /><rect shape-rendering="crispEdges" fill="rgb(41, 82, 106)"  x="26" y="9" width="1" height="1" /><rect shape-rendering="crispEdges" fill="rgb(197, 213, 222)"  x="26" y="10" width="1" height="1" /><rect shape-rendering="crispEdges" fill="rgb(82, 115, 123)"  x="26" y="11" width="1" height="1" /><rect shape-rendering="crispEdges" fill="rgb(115, 148, 156)"  x="26" y="12" width="1" height="1" /><rect shape-rendering="crispEdges" fill="rgb(115, 148, 156)"  x="26" y="13" width="1" height="1" /><rect shape-rendering="crispEdges" fill="rgb(172, 189, 205)"  x="26" y="14" width="1" height="1" /><rect shape-rendering="crispEdges" fill="rgb(197, 213, 222)"  x="27" y="10" width="1" height="1" /><rect shape-rendering="crispEdges" fill="rgb(172, 189, 205)"  x="27" y="11" width="1" height="1" /><rect shape-rendering="crispEdges" fill="rgb(82, 115, 123)"  x="27" y="12" width="1" height="1" /><rect shape-rendering="crispEdges" fill="rgb(148, 164, 180)"  x="27" y="13" width="1" height="1" /><rect shape-rendering="crispEdges" fill="rgb(172, 189, 205)"  x="28" y="11" width="1" height="1" /><rect shape-rendering="crispEdges" fill="rgb(148, 164, 180)"  x="28" y="12" width="1" height="1" /></svg>