<svg xmlns="http://www.w3.org/2000/svg" xmlns:xlink= "http://www.w3.org/1999/xlink" width="32" height="32" viewBox ="0 0 32 32"><rect shape-rendering="crispEdges" fill="rgb(222, 131, 98)"  x="3" y="13" width="1" height="1" /><rect shape-rendering="crispEdges" fill="rgb(222, 131, 98)"  x="3" y="14" width="1" height="1" /><rect shape-rendering="crispEdges" fill="rgb(230, 139, 90)"  x="3" y="15" width="1" height="1" /><rect shape-rendering="crispEdges" fill="rgb(230, 139, 90)"  x="3" y="16" width="1" height="1" /><rect shape-rendering="crispEdges" fill="rgb(222, 139, 90)"  x="3" y="17" width="1" height="1" /><rect shape-rendering="crispEdges" fill="rgb(197, 98, 74)"  x="3" y="18" width="1" height="1" /><rect shape-rendering="crispEdges" fill="rgb(197, 98, 74)"  x="3" y="19" width="1" height="1" /><rect shape-rendering="crispEdges" fill="rgb(222, 131, 98)"  x="4" y="12" width="1" height="1" /><rect shape-rendering="crispEdges" fill="rgb(238, 131, 90)"  x="4" y="13" width="1" height="1" /><rect shape-rendering="crispEdges" fill="rgb(238, 139, 90)"  x="4" y="14" width="1" height="1" /><rect shape-rendering="crispEdges" fill="rgb(238, 148, 82)"  x="4" y="15" width="1" height="1" /><rect shape-rendering="crispEdges" fill="rgb(238, 156, 82)"  x="4" y="16" width="1" height="1" /><rect shape-rendering="crispEdges" fill="rgb(238, 156, 82)"  x="4" y="17" width="1" height="1" /><rect shape-rendering="crispEdges" fill="rgb(230, 148, 82)"  x="4" y="18" width="1" height="1" /><rect shape-rendering="crispEdges" fill="rgb(222, 123, 74)"  x="4" y="19" width="1" height="1" /><rect shape-rendering="crispEdges" fill="rgb(197, 98, 74)"  x="4" y="20" width="1" height="1" /><rect shape-rendering="crispEdges" fill="rgb(222, 197, 123)"  x="5" y="10" width="1" height="1" /><rect shape-rendering="crispEdges" fill="rgb(213, 115, 90)"  x="5" y="11" width="1" height="1" /><rect shape-rendering="crispEdges" fill="rgb(213, 115, 74)"  x="5" y="12" width="1" height="1" /><rect shape-rendering="crispEdges" fill="rgb(213, 115, 74)"  x="5" y="13" width="1" height="1" /><rect shape-rendering="crispEdges" fill="rgb(230, 131, 98)"  x="5" y="14" width="1" height="1" /><rect shape-rendering="crispEdges" fill="rgb(238, 139, 90)"  x="5" y="15" width="1" height="1" /><rect shape-rendering="crispEdges" fill="rgb(230, 148, 82)"  x="5" y="16" width="1" height="1" /><rect shape-rendering="crispEdges" fill="rgb(230, 156, 82)"  x="5" y="17" width="1" height="1" /><rect shape-rendering="crispEdges" fill="rgb(238, 156, 90)"  x="5" y="18" width="1" height="1" /><rect shape-rendering="crispEdges" fill="rgb(230, 148, 82)"  x="5" y="19" width="1" height="1" /><rect shape-rendering="crispEdges" fill="rgb(222, 123, 74)"  x="5" y="20" width="1" height="1" /><rect shape-rendering="crispEdges" fill="rgb(197, 98, 74)"  x="5" y="21" width="1" height="1" /><rect shape-rendering="crispEdges" fill="rgb(238, 205, 115)"  x="6" y="8" width="1" height="1" /><rect shape-rendering="crispEdges" fill="rgb(222, 197, 123)"  x="6" y="9" width="1" height="1" /><rect shape-rendering="crispEdges" fill="rgb(238, 205, 156)"  x="6" y="10" width="1" height="1" /><rect shape-rendering="crispEdges" fill="rgb(222, 197, 123)"  x="6" y="11" width="1" height="1" /><rect shape-rendering="crispEdges" fill="rgb(230, 205, 115)"  x="6" y="12" width="1" height="1" /><rect shape-rendering="crispEdges" fill="rgb(213, 156, 82)"  x="6" y="13" width="1" height="1" /><rect shape-rendering="crispEdges" fill="rgb(213, 115, 74)"  x="6" y="14" width="1" height="1" /><rect shape-rendering="crispEdges" fill="rgb(213, 115, 74)"  x="6" y="15" width="1" height="1" /><rect shape-rendering="crispEdges" fill="rgb(230, 123, 82)"  x="6" y="16" width="1" height="1" /><rect shape-rendering="crispEdges" fill="rgb(230, 139, 82)"  x="6" y="17" width="1" height="1" /><rect shape-rendering="crispEdges" fill="rgb(238, 148, 82)"  x="6" y="18" width="1" height="1" /><rect shape-rendering="crispEdges" fill="rgb(238, 156, 90)"  x="6" y="19" width="1" height="1" /><rect shape-rendering="crispEdges" fill="rgb(230, 148, 82)"  x="6" y="20" width="1" height="1" /><rect shape-rendering="crispEdges" fill="rgb(205, 106, 74)"  x="6" y="21" width="1" height="1" /><rect shape-rendering="crispEdges" fill="rgb(197, 98, 74)"  x="6" y="22" width="1" height="1" /><rect shape-rendering="crispEdges" fill="rgb(238, 205, 115)"  x="7" y="7" width="1" height="1" /><rect shape-rendering="crispEdges" fill="rgb(222, 197, 123)"  x="7" y="8" width="1" height="1" /><rect shape-rendering="crispEdges" fill="rgb(197, 164, 74)"  x="7" y="9" width="1" height="1" /><rect shape-rendering="crispEdges" fill="rgb(197, 164, 74)"  x="7" y="10" width="1" height="1" /><rect shape-rendering="crispEdges" fill="rgb(197, 164, 74)"  x="7" y="11" width="1" height="1" /><rect shape-rendering="crispEdges" fill="rgb(222, 189, 90)"  x="7" y="12" width="1" height="1" /><rect shape-rendering="crispEdges" fill="rgb(238, 222, 131)"  x="7" y="13" width="1" height="1" /><rect shape-rendering="crispEdges" fill="rgb(255, 222, 148)"  x="7" y="14" width="1" height="1" /><rect shape-rendering="crispEdges" fill="rgb(238, 205, 115)"  x="7" y="15" width="1" height="1" /><rect shape-rendering="crispEdges" fill="rgb(213, 156, 74)"  x="7" y="16" width="1" height="1" /><rect shape-rendering="crispEdges" fill="rgb(213, 115, 74)"  x="7" y="17" width="1" height="1" /><rect shape-rendering="crispEdges" fill="rgb(213, 115, 74)"  x="7" y="18" width="1" height="1" /><rect shape-rendering="crispEdges" fill="rgb(238, 139, 82)"  x="7" y="19" width="1" height="1" /><rect shape-rendering="crispEdges" fill="rgb(230, 148, 82)"  x="7" y="20" width="1" height="1" /><rect shape-rendering="crispEdges" fill="rgb(222, 123, 74)"  x="7" y="21" width="1" height="1" /><rect shape-rendering="crispEdges" fill="rgb(197, 90, 65)"  x="7" y="22" width="1" height="1" /><rect shape-rendering="crispEdges" fill="rgb(205, 172, 74)"  x="7" y="23" width="1" height="1" /><rect shape-rendering="crispEdges" fill="rgb(238, 205, 156)"  x="8" y="5" width="1" height="1" /><rect shape-rendering="crispEdges" fill="rgb(238, 205, 156)"  x="8" y="6" width="1" height="1" /><rect shape-rendering="crispEdges" fill="rgb(222, 197, 123)"  x="8" y="7" width="1" height="1" /><rect shape-rendering="crispEdges" fill="rgb(197, 164, 74)"  x="8" y="8" width="1" height="1" /><rect shape-rendering="crispEdges" fill="rgb(222, 189, 106)"  x="8" y="13" width="1" height="1" /><rect shape-rendering="crispEdges" fill="rgb(222, 189, 106)"  x="8" y="14" width="1" height="1" /><rect shape-rendering="crispEdges" fill="rgb(238, 205, 115)"  x="8" y="15" width="1" height="1" /><rect shape-rendering="crispEdges" fill="rgb(238, 213, 106)"  x="8" y="16" width="1" height="1" /><rect shape-rendering="crispEdges" fill="rgb(222, 197, 65)"  x="8" y="17" width="1" height="1" /><rect shape-rendering="crispEdges" fill="rgb(197, 164, 49)"  x="8" y="18" width="1" height="1" /><rect shape-rendering="crispEdges" fill="rgb(213, 115, 74)"  x="8" y="19" width="1" height="1" /><rect shape-rendering="crispEdges" fill="rgb(230, 131, 82)"  x="8" y="20" width="1" height="1" /><rect shape-rendering="crispEdges" fill="rgb(213, 123, 74)"  x="8" y="21" width="1" height="1" /><rect shape-rendering="crispEdges" fill="rgb(197, 98, 65)"  x="8" y="22" width="1" height="1" /><rect shape-rendering="crispEdges" fill="rgb(197, 156, 41)"  x="8" y="23" width="1" height="1" /><rect shape-rendering="crispEdges" fill="rgb(205, 172, 74)"  x="8" y="24" width="1" height="1" /><rect shape-rendering="crispEdges" fill="rgb(205, 172, 74)"  x="8" y="25" width="1" height="1" /><rect shape-rendering="crispEdges" fill="rgb(222, 189, 106)"  x="8" y="26" width="1" height="1" /><rect shape-rendering="crispEdges" fill="rgb(238, 205, 156)"  x="9" y="4" width="1" height="1" /><rect shape-rendering="crispEdges" fill="rgb(230, 197, 115)"  x="9" y="5" width="1" height="1" /><rect shape-rendering="crispEdges" fill="rgb(197, 164, 74)"  x="9" y="6" width="1" height="1" /><rect shape-rendering="crispEdges" fill="rgb(197, 164, 74)"  x="9" y="7" width="1" height="1" /><rect shape-rendering="crispEdges" fill="rgb(131, 106, 49)"  x="9" y="14" width="1" height="1" /><rect shape-rendering="crispEdges" fill="rgb(106, 82, 32)"  x="9" y="15" width="1" height="1" /><rect shape-rendering="crispEdges" fill="rgb(238, 205, 115)"  x="9" y="16" width="1" height="1" /><rect shape-rendering="crispEdges" fill="rgb(238, 205, 115)"  x="9" y="17" width="1" height="1" /><rect shape-rendering="crispEdges" fill="rgb(238, 205, 115)"  x="9" y="18" width="1" height="1" /><rect shape-rendering="crispEdges" fill="rgb(197, 164, 49)"  x="9" y="19" width="1" height="1" /><rect shape-rendering="crispEdges" fill="rgb(189, 82, 65)"  x="9" y="20" width="1" height="1" /><rect shape-rendering="crispEdges" fill="rgb(205, 106, 74)"  x="9" y="21" width="1" height="1" /><rect shape-rendering="crispEdges" fill="rgb(197, 98, 65)"  x="9" y="22" width="1" height="1" /><rect shape-rendering="crispEdges" fill="rgb(197, 156, 41)"  x="9" y="23" width="1" height="1" /><rect shape-rendering="crispEdges" fill="rgb(189, 148, 32)"  x="9" y="24" width="1" height="1" /><rect shape-rendering="crispEdges" fill="rgb(213, 180, 82)"  x="9" y="25" width="1" height="1" /><rect shape-rendering="crispEdges" fill="rgb(197, 164, 74)"  x="9" y="26" width="1" height="1" /><rect shape-rendering="crispEdges" fill="rgb(222, 197, 123)"  x="10" y="3" width="1" height="1" /><rect shape-rendering="crispEdges" fill="rgb(222, 189, 98)"  x="10" y="4" width="1" height="1" /><rect shape-rendering="crispEdges" fill="rgb(197, 164, 74)"  x="10" y="5" width="1" height="1" /><rect shape-rendering="crispEdges" fill="rgb(197, 172, 131)"  x="10" y="13" width="1" height="1" /><rect shape-rendering="crispEdges" fill="rgb(131, 106, 57)"  x="10" y="14" width="1" height="1" /><rect shape-rendering="crispEdges" fill="rgb(115, 90, 49)"  x="10" y="15" width="1" height="1" /><rect shape-rendering="crispEdges" fill="rgb(106, 90, 41)"  x="10" y="16" width="1" height="1" /><rect shape-rendering="crispEdges" fill="rgb(238, 205, 115)"  x="10" y="19" width="1" height="1" /><rect shape-rendering="crispEdges" fill="rgb(197, 164, 49)"  x="10" y="20" width="1" height="1" /><rect shape-rendering="crispEdges" fill="rgb(189, 82, 65)"  x="10" y="21" width="1" height="1" /><rect shape-rendering="crispEdges" fill="rgb(189, 82, 65)"  x="10" y="22" width="1" height="1" /><rect shape-rendering="crispEdges" fill="rgb(189, 139, 24)"  x="10" y="23" width="1" height="1" /><rect shape-rendering="crispEdges" fill="rgb(189, 148, 32)"  x="10" y="24" width="1" height="1" /><rect shape-rendering="crispEdges" fill="rgb(205, 164, 74)"  x="10" y="25" width="1" height="1" /><rect shape-rendering="crispEdges" fill="rgb(205, 164, 82)"  x="10" y="26" width="1" height="1" /><rect shape-rendering="crispEdges" fill="rgb(197, 172, 98)"  x="10" y="27" width="1" height="1" /><rect shape-rendering="crispEdges" fill="rgb(222, 197, 123)"  x="11" y="2" width="1" height="1" /><rect shape-rendering="crispEdges" fill="rgb(222, 189, 90)"  x="11" y="3" width="1" height="1" /><rect shape-rendering="crispEdges" fill="rgb(197, 164, 74)"  x="11" y="4" width="1" height="1" /><rect shape-rendering="crispEdges" fill="rgb(164, 131, 82)"  x="11" y="13" width="1" height="1" /><rect shape-rendering="crispEdges" fill="rgb(139, 123, 65)"  x="11" y="14" width="1" height="1" /><rect shape-rendering="crispEdges" fill="rgb(106, 90, 41)"  x="11" y="15" width="1" height="1" /><rect shape-rendering="crispEdges" fill="rgb(106, 90, 41)"  x="11" y="16" width="1" height="1" /><rect shape-rendering="crispEdges" fill="rgb(230, 222, 164)"  x="11" y="20" width="1" height="1" /><rect shape-rendering="crispEdges" fill="rgb(189, 148, 49)"  x="11" y="21" width="1" height="1" /><rect shape-rendering="crispEdges" fill="rgb(189, 139, 41)"  x="11" y="22" width="1" height="1" /><rect shape-rendering="crispEdges" fill="rgb(189, 148, 32)"  x="11" y="23" width="1" height="1" /><rect shape-rendering="crispEdges" fill="rgb(222, 189, 82)"  x="11" y="24" width="1" height="1" /><rect shape-rendering="crispEdges" fill="rgb(222, 189, 82)"  x="11" y="25" width="1" height="1" /><rect shape-rendering="crispEdges" fill="rgb(230, 197, 115)"  x="11" y="26" width="1" height="1" /><rect shape-rendering="crispEdges" fill="rgb(222, 189, 106)"  x="11" y="27" width="1" height="1" /><rect shape-rendering="crispEdges" fill="rgb(222, 189, 98)"  x="11" y="28" width="1" height="1" /><rect shape-rendering="crispEdges" fill="rgb(197, 172, 98)"  x="11" y="29" width="1" height="1" /><rect shape-rendering="crispEdges" fill="rgb(222, 197, 123)"  x="12" y="1" width="1" height="1" /><rect shape-rendering="crispEdges" fill="rgb(222, 180, 98)"  x="12" y="2" width="1" height="1" /><rect shape-rendering="crispEdges" fill="rgb(197, 164, 74)"  x="12" y="3" width="1" height="1" /><rect shape-rendering="crispEdges" fill="rgb(148, 115, 65)"  x="12" y="13" width="1" height="1" /><rect shape-rendering="crispEdges" fill="rgb(139, 123, 65)"  x="12" y="14" width="1" height="1" /><rect shape-rendering="crispEdges" fill="rgb(106, 90, 41)"  x="12" y="15" width="1" height="1" /><rect shape-rendering="crispEdges" fill="rgb(230, 197, 82)"  x="12" y="19" width="1" height="1" /><rect shape-rendering="crispEdges" fill="rgb(197, 139, 65)"  x="12" y="20" width="1" height="1" /><rect shape-rendering="crispEdges" fill="rgb(189, 123, 57)"  x="12" y="21" width="1" height="1" /><rect shape-rendering="crispEdges" fill="rgb(189, 131, 49)"  x="12" y="22" width="1" height="1" /><rect shape-rendering="crispEdges" fill="rgb(164, 139, 41)"  x="12" y="23" width="1" height="1" /><rect shape-rendering="crispEdges" fill="rgb(164, 139, 41)"  x="12" y="24" width="1" height="1" /><rect shape-rendering="crispEdges" fill="rgb(230, 197, 115)"  x="12" y="25" width="1" height="1" /><rect shape-rendering="crispEdges" fill="rgb(230, 197, 90)"  x="12" y="26" width="1" height="1" /><rect shape-rendering="crispEdges" fill="rgb(230, 197, 106)"  x="12" y="27" width="1" height="1" /><rect shape-rendering="crispEdges" fill="rgb(222, 189, 106)"  x="12" y="28" width="1" height="1" /><rect shape-rendering="crispEdges" fill="rgb(230, 197, 115)"  x="12" y="29" width="1" height="1" /><rect shape-rendering="crispEdges" fill="rgb(197, 156, 49)"  x="12" y="30" width="1" height="1" /><rect shape-rendering="crispEdges" fill="rgb(222, 189, 98)"  x="13" y="1" width="1" height="1" /><rect shape-rendering="crispEdges" fill="rgb(205, 172, 74)"  x="13" y="2" width="1" height="1" /><rect shape-rendering="crispEdges" fill="rgb(230, 213, 172)"  x="13" y="12" width="1" height="1" /><rect shape-rendering="crispEdges" fill="rgb(148, 131, 74)"  x="13" y="13" width="1" height="1" /><rect shape-rendering="crispEdges" fill="rgb(106, 90, 41)"  x="13" y="14" width="1" height="1" /><rect shape-rendering="crispEdges" fill="rgb(106, 90, 41)"  x="13" y="15" width="1" height="1" /><rect shape-rendering="crispEdges" fill="rgb(238, 139, 139)"  x="13" y="17" width="1" height="1" /><rect shape-rendering="crispEdges" fill="rgb(230, 197, 82)"  x="13" y="18" width="1" height="1" /><rect shape-rendering="crispEdges" fill="rgb(197, 98, 74)"  x="13" y="19" width="1" height="1" /><rect shape-rendering="crispEdges" fill="rgb(230, 123, 74)"  x="13" y="20" width="1" height="1" /><rect shape-rendering="crispEdges" fill="rgb(230, 123, 74)"  x="13" y="21" width="1" height="1" /><rect shape-rendering="crispEdges" fill="rgb(189, 82, 65)"  x="13" y="22" width="1" height="1" /><rect shape-rendering="crispEdges" fill="rgb(189, 139, 49)"  x="13" y="23" width="1" height="1" /><rect shape-rendering="crispEdges" fill="rgb(164, 139, 41)"  x="13" y="24" width="1" height="1" /><rect shape-rendering="crispEdges" fill="rgb(197, 164, 57)"  x="13" y="25" width="1" height="1" /><rect shape-rendering="crispEdges" fill="rgb(222, 189, 90)"  x="13" y="26" width="1" height="1" /><rect shape-rendering="crispEdges" fill="rgb(222, 189, 123)"  x="13" y="27" width="1" height="1" /><rect shape-rendering="crispEdges" fill="rgb(222, 189, 98)"  x="13" y="28" width="1" height="1" /><rect shape-rendering="crispEdges" fill="rgb(197, 156, 49)"  x="13" y="29" width="1" height="1" /><rect shape-rendering="crispEdges" fill="rgb(205, 172, 74)"  x="14" y="1" width="1" height="1" /><rect shape-rendering="crispEdges" fill="rgb(205, 172, 74)"  x="14" y="2" width="1" height="1" /><rect shape-rendering="crispEdges" fill="rgb(197, 172, 131)"  x="14" y="12" width="1" height="1" /><rect shape-rendering="crispEdges" fill="rgb(148, 123, 74)"  x="14" y="13" width="1" height="1" /><rect shape-rendering="crispEdges" fill="rgb(106, 90, 41)"  x="14" y="14" width="1" height="1" /><rect shape-rendering="crispEdges" fill="rgb(106, 90, 41)"  x="14" y="15" width="1" height="1" /><rect shape-rendering="crispEdges" fill="rgb(238, 222, 148)"  x="14" y="16" width="1" height="1" /><rect shape-rendering="crispEdges" fill="rgb(230, 197, 82)"  x="14" y="17" width="1" height="1" /><rect shape-rendering="crispEdges" fill="rgb(197, 98, 74)"  x="14" y="18" width="1" height="1" /><rect shape-rendering="crispEdges" fill="rgb(230, 131, 82)"  x="14" y="19" width="1" height="1" /><rect shape-rendering="crispEdges" fill="rgb(238, 148, 82)"  x="14" y="20" width="1" height="1" /><rect shape-rendering="crispEdges" fill="rgb(238, 156, 82)"  x="14" y="21" width="1" height="1" /><rect shape-rendering="crispEdges" fill="rgb(222, 123, 74)"  x="14" y="22" width="1" height="1" /><rect shape-rendering="crispEdges" fill="rgb(189, 82, 65)"  x="14" y="23" width="1" height="1" /><rect shape-rendering="crispEdges" fill="rgb(180, 148, 49)"  x="14" y="24" width="1" height="1" /><rect shape-rendering="crispEdges" fill="rgb(172, 139, 49)"  x="14" y="25" width="1" height="1" /><rect shape-rendering="crispEdges" fill="rgb(222, 189, 90)"  x="14" y="26" width="1" height="1" /><rect shape-rendering="crispEdges" fill="rgb(230, 197, 98)"  x="14" y="27" width="1" height="1" /><rect shape-rendering="crispEdges" fill="rgb(197, 156, 49)"  x="14" y="28" width="1" height="1" /><rect shape-rendering="crispEdges" fill="rgb(164, 131, 49)"  x="15" y="2" width="1" height="1" /><rect shape-rendering="crispEdges" fill="rgb(205, 164, 82)"  x="15" y="3" width="1" height="1" /><rect shape-rendering="crispEdges" fill="rgb(164, 148, 82)"  x="15" y="12" width="1" height="1" /><rect shape-rendering="crispEdges" fill="rgb(148, 123, 65)"  x="15" y="13" width="1" height="1" /><rect shape-rendering="crispEdges" fill="rgb(106, 90, 41)"  x="15" y="14" width="1" height="1" /><rect shape-rendering="crispEdges" fill="rgb(238, 222, 148)"  x="15" y="15" width="1" height="1" /><rect shape-rendering="crispEdges" fill="rgb(230, 197, 82)"  x="15" y="16" width="1" height="1" /><rect shape-rendering="crispEdges" fill="rgb(197, 98, 74)"  x="15" y="17" width="1" height="1" /><rect shape-rendering="crispEdges" fill="rgb(230, 131, 82)"  x="15" y="18" width="1" height="1" /><rect shape-rendering="crispEdges" fill="rgb(230, 148, 82)"  x="15" y="19" width="1" height="1" /><rect shape-rendering="crispEdges" fill="rgb(238, 156, 90)"  x="15" y="20" width="1" height="1" /><rect shape-rendering="crispEdges" fill="rgb(230, 156, 82)"  x="15" y="21" width="1" height="1" /><rect shape-rendering="crispEdges" fill="rgb(230, 139, 74)"  x="15" y="22" width="1" height="1" /><rect shape-rendering="crispEdges" fill="rgb(205, 106, 74)"  x="15" y="23" width="1" height="1" /><rect shape-rendering="crispEdges" fill="rgb(197, 139, 57)"  x="15" y="24" width="1" height="1" /><rect shape-rendering="crispEdges" fill="rgb(180, 148, 49)"  x="15" y="25" width="1" height="1" /><rect shape-rendering="crispEdges" fill="rgb(213, 172, 74)"  x="15" y="26" width="1" height="1" /><rect shape-rendering="crispEdges" fill="rgb(197, 156, 49)"  x="15" y="27" width="1" height="1" /><rect shape-rendering="crispEdges" fill="rgb(164, 131, 49)"  x="16" y="3" width="1" height="1" /><rect shape-rendering="crispEdges" fill="rgb(197, 164, 74)"  x="16" y="4" width="1" height="1" /><rect shape-rendering="crispEdges" fill="rgb(205, 189, 123)"  x="16" y="5" width="1" height="1" /><rect shape-rendering="crispEdges" fill="rgb(205, 189, 123)"  x="16" y="6" width="1" height="1" /><rect shape-rendering="crispEdges" fill="rgb(205, 189, 123)"  x="16" y="7" width="1" height="1" /><rect shape-rendering="crispEdges" fill="rgb(205, 189, 123)"  x="16" y="8" width="1" height="1" /><rect shape-rendering="crispEdges" fill="rgb(164, 148, 82)"  x="16" y="9" width="1" height="1" /><rect shape-rendering="crispEdges" fill="rgb(164, 148, 82)"  x="16" y="10" width="1" height="1" /><rect shape-rendering="crispEdges" fill="rgb(164, 148, 82)"  x="16" y="11" width="1" height="1" /><rect shape-rendering="crispEdges" fill="rgb(164, 148, 82)"  x="16" y="12" width="1" height="1" /><rect shape-rendering="crispEdges" fill="rgb(106, 90, 41)"  x="16" y="13" width="1" height="1" /><rect shape-rendering="crispEdges" fill="rgb(238, 222, 148)"  x="16" y="14" width="1" height="1" /><rect shape-rendering="crispEdges" fill="rgb(230, 197, 82)"  x="16" y="15" width="1" height="1" /><rect shape-rendering="crispEdges" fill="rgb(197, 98, 74)"  x="16" y="16" width="1" height="1" /><rect shape-rendering="crispEdges" fill="rgb(222, 123, 82)"  x="16" y="17" width="1" height="1" /><rect shape-rendering="crispEdges" fill="rgb(238, 148, 82)"  x="16" y="18" width="1" height="1" /><rect shape-rendering="crispEdges" fill="rgb(230, 156, 82)"  x="16" y="19" width="1" height="1" /><rect shape-rendering="crispEdges" fill="rgb(230, 156, 82)"  x="16" y="20" width="1" height="1" /><rect shape-rendering="crispEdges" fill="rgb(230, 148, 74)"  x="16" y="21" width="1" height="1" /><rect shape-rendering="crispEdges" fill="rgb(230, 131, 74)"  x="16" y="22" width="1" height="1" /><rect shape-rendering="crispEdges" fill="rgb(222, 106, 74)"  x="16" y="23" width="1" height="1" /><rect shape-rendering="crispEdges" fill="rgb(205, 123, 65)"  x="16" y="24" width="1" height="1" /><rect shape-rendering="crispEdges" fill="rgb(189, 164, 49)"  x="16" y="25" width="1" height="1" /><rect shape-rendering="crispEdges" fill="rgb(197, 156, 57)"  x="16" y="26" width="1" height="1" /><rect shape-rendering="crispEdges" fill="rgb(197, 156, 49)"  x="16" y="27" width="1" height="1" /><rect shape-rendering="crispEdges" fill="rgb(164, 131, 49)"  x="17" y="4" width="1" height="1" /><rect shape-rendering="crispEdges" fill="rgb(164, 131, 49)"  x="17" y="5" width="1" height="1" /><rect shape-rendering="crispEdges" fill="rgb(131, 106, 57)"  x="17" y="6" width="1" height="1" /><rect shape-rendering="crispEdges" fill="rgb(131, 106, 57)"  x="17" y="7" width="1" height="1" /><rect shape-rendering="crispEdges" fill="rgb(131, 106, 49)"  x="17" y="8" width="1" height="1" /><rect shape-rendering="crispEdges" fill="rgb(115, 98, 41)"  x="17" y="9" width="1" height="1" /><rect shape-rendering="crispEdges" fill="rgb(115, 98, 41)"  x="17" y="10" width="1" height="1" /><rect shape-rendering="crispEdges" fill="rgb(106, 90, 41)"  x="17" y="11" width="1" height="1" /><rect shape-rendering="crispEdges" fill="rgb(106, 90, 41)"  x="17" y="12" width="1" height="1" /><rect shape-rendering="crispEdges" fill="rgb(139, 115, 57)"  x="17" y="13" width="1" height="1" /><rect shape-rendering="crispEdges" fill="rgb(238, 213, 106)"  x="17" y="14" width="1" height="1" /><rect shape-rendering="crispEdges" fill="rgb(197, 98, 74)"  x="17" y="15" width="1" height="1" /><rect shape-rendering="crispEdges" fill="rgb(222, 115, 90)"  x="17" y="16" width="1" height="1" /><rect shape-rendering="crispEdges" fill="rgb(238, 139, 90)"  x="17" y="17" width="1" height="1" /><rect shape-rendering="crispEdges" fill="rgb(238, 148, 82)"  x="17" y="18" width="1" height="1" /><rect shape-rendering="crispEdges" fill="rgb(230, 156, 82)"  x="17" y="19" width="1" height="1" /><rect shape-rendering="crispEdges" fill="rgb(230, 148, 74)"  x="17" y="20" width="1" height="1" /><rect shape-rendering="crispEdges" fill="rgb(230, 139, 82)"  x="17" y="21" width="1" height="1" /><rect shape-rendering="crispEdges" fill="rgb(222, 123, 74)"  x="17" y="22" width="1" height="1" /><rect shape-rendering="crispEdges" fill="rgb(222, 115, 74)"  x="17" y="23" width="1" height="1" /><rect shape-rendering="crispEdges" fill="rgb(205, 98, 65)"  x="17" y="24" width="1" height="1" /><rect shape-rendering="crispEdges" fill="rgb(205, 164, 49)"  x="17" y="25" width="1" height="1" /><rect shape-rendering="crispEdges" fill="rgb(189, 156, 32)"  x="17" y="26" width="1" height="1" /><rect shape-rendering="crispEdges" fill="rgb(222, 197, 98)"  x="17" y="27" width="1" height="1" /><rect shape-rendering="crispEdges" fill="rgb(197, 156, 49)"  x="17" y="28" width="1" height="1" /><rect shape-rendering="crispEdges" fill="rgb(106, 90, 41)"  x="18" y="11" width="1" height="1" /><rect shape-rendering="crispEdges" fill="rgb(106, 90, 41)"  x="18" y="12" width="1" height="1" /><rect shape-rendering="crispEdges" fill="rgb(197, 180, 90)"  x="18" y="13" width="1" height="1" /><rect shape-rendering="crispEdges" fill="rgb(230, 197, 82)"  x="18" y="14" width="1" height="1" /><rect shape-rendering="crispEdges" fill="rgb(213, 115, 74)"  x="18" y="15" width="1" height="1" /><rect shape-rendering="crispEdges" fill="rgb(238, 131, 98)"  x="18" y="16" width="1" height="1" /><rect shape-rendering="crispEdges" fill="rgb(230, 139, 90)"  x="18" y="17" width="1" height="1" /><rect shape-rendering="crispEdges" fill="rgb(230, 148, 82)"  x="18" y="18" width="1" height="1" /><rect shape-rendering="crispEdges" fill="rgb(230, 148, 74)"  x="18" y="19" width="1" height="1" /><rect shape-rendering="crispEdges" fill="rgb(230, 139, 74)"  x="18" y="20" width="1" height="1" /><rect shape-rendering="crispEdges" fill="rgb(230, 123, 74)"  x="18" y="21" width="1" height="1" /><rect shape-rendering="crispEdges" fill="rgb(222, 115, 74)"  x="18" y="22" width="1" height="1" /><rect shape-rendering="crispEdges" fill="rgb(222, 106, 74)"  x="18" y="23" width="1" height="1" /><rect shape-rendering="crispEdges" fill="rgb(189, 82, 65)"  x="18" y="24" width="1" height="1" /><rect shape-rendering="crispEdges" fill="rgb(197, 148, 41)"  x="18" y="25" width="1" height="1" /><rect shape-rendering="crispEdges" fill="rgb(189, 148, 32)"  x="18" y="26" width="1" height="1" /><rect shape-rendering="crispEdges" fill="rgb(230, 197, 123)"  x="18" y="27" width="1" height="1" /><rect shape-rendering="crispEdges" fill="rgb(230, 205, 115)"  x="18" y="28" width="1" height="1" /><rect shape-rendering="crispEdges" fill="rgb(213, 180, 65)"  x="18" y="29" width="1" height="1" /><rect shape-rendering="crispEdges" fill="rgb(197, 156, 49)"  x="18" y="30" width="1" height="1" /><rect shape-rendering="crispEdges" fill="rgb(106, 90, 41)"  x="19" y="12" width="1" height="1" /><rect shape-rendering="crispEdges" fill="rgb(238, 213, 115)"  x="19" y="13" width="1" height="1" /><rect shape-rendering="crispEdges" fill="rgb(197, 98, 74)"  x="19" y="14" width="1" height="1" /><rect shape-rendering="crispEdges" fill="rgb(230, 115, 90)"  x="19" y="15" width="1" height="1" /><rect shape-rendering="crispEdges" fill="rgb(230, 139, 82)"  x="19" y="16" width="1" height="1" /><rect shape-rendering="crispEdges" fill="rgb(230, 139, 74)"  x="19" y="17" width="1" height="1" /><rect shape-rendering="crispEdges" fill="rgb(230, 139, 82)"  x="19" y="18" width="1" height="1" /><rect shape-rendering="crispEdges" fill="rgb(230, 131, 74)"  x="19" y="19" width="1" height="1" /><rect shape-rendering="crispEdges" fill="rgb(222, 123, 74)"  x="19" y="20" width="1" height="1" /><rect shape-rendering="crispEdges" fill="rgb(222, 115, 74)"  x="19" y="21" width="1" height="1" /><rect shape-rendering="crispEdges" fill="rgb(222, 106, 74)"  x="19" y="22" width="1" height="1" /><rect shape-rendering="crispEdges" fill="rgb(213, 90, 65)"  x="19" y="23" width="1" height="1" /><rect shape-rendering="crispEdges" fill="rgb(197, 123, 65)"  x="19" y="24" width="1" height="1" /><rect shape-rendering="crispEdges" fill="rgb(180, 148, 32)"  x="19" y="25" width="1" height="1" /><rect shape-rendering="crispEdges" fill="rgb(205, 164, 82)"  x="19" y="26" width="1" height="1" /><rect shape-rendering="crispEdges" fill="rgb(230, 197, 106)"  x="19" y="27" width="1" height="1" /><rect shape-rendering="crispEdges" fill="rgb(230, 197, 115)"  x="19" y="28" width="1" height="1" /><rect shape-rendering="crispEdges" fill="rgb(197, 156, 49)"  x="19" y="29" width="1" height="1" /><rect shape-rendering="crispEdges" fill="rgb(246, 222, 123)"  x="20" y="11" width="1" height="1" /><rect shape-rendering="crispEdges" fill="rgb(246, 213, 123)"  x="20" y="12" width="1" height="1" /><rect shape-rendering="crispEdges" fill="rgb(213, 172, 74)"  x="20" y="13" width="1" height="1" /><rect shape-rendering="crispEdges" fill="rgb(205, 98, 74)"  x="20" y="14" width="1" height="1" /><rect shape-rendering="crispEdges" fill="rgb(238, 131, 90)"  x="20" y="15" width="1" height="1" /><rect shape-rendering="crispEdges" fill="rgb(230, 139, 82)"  x="20" y="16" width="1" height="1" /><rect shape-rendering="crispEdges" fill="rgb(230, 139, 82)"  x="20" y="17" width="1" height="1" /><rect shape-rendering="crispEdges" fill="rgb(222, 131, 82)"  x="20" y="18" width="1" height="1" /><rect shape-rendering="crispEdges" fill="rgb(222, 123, 74)"  x="20" y="19" width="1" height="1" /><rect shape-rendering="crispEdges" fill="rgb(222, 106, 74)"  x="20" y="20" width="1" height="1" /><rect shape-rendering="crispEdges" fill="rgb(222, 106, 74)"  x="20" y="21" width="1" height="1" /><rect shape-rendering="crispEdges" fill="rgb(222, 98, 74)"  x="20" y="22" width="1" height="1" /><rect shape-rendering="crispEdges" fill="rgb(189, 82, 65)"  x="20" y="23" width="1" height="1" /><rect shape-rendering="crispEdges" fill="rgb(189, 139, 49)"  x="20" y="24" width="1" height="1" /><rect shape-rendering="crispEdges" fill="rgb(189, 148, 41)"  x="20" y="25" width="1" height="1" /><rect shape-rendering="crispEdges" fill="rgb(230, 189, 115)"  x="20" y="26" width="1" height="1" /><rect shape-rendering="crispEdges" fill="rgb(213, 180, 74)"  x="20" y="27" width="1" height="1" /><rect shape-rendering="crispEdges" fill="rgb(197, 156, 49)"  x="20" y="28" width="1" height="1" /><rect shape-rendering="crispEdges" fill="rgb(246, 222, 123)"  x="21" y="9" width="1" height="1" /><rect shape-rendering="crispEdges" fill="rgb(238, 213, 106)"  x="21" y="10" width="1" height="1" /><rect shape-rendering="crispEdges" fill="rgb(222, 197, 90)"  x="21" y="11" width="1" height="1" /><rect shape-rendering="crispEdges" fill="rgb(205, 180, 74)"  x="21" y="12" width="1" height="1" /><rect shape-rendering="crispEdges" fill="rgb(205, 172, 65)"  x="21" y="13" width="1" height="1" /><rect shape-rendering="crispEdges" fill="rgb(197, 106, 65)"  x="21" y="14" width="1" height="1" /><rect shape-rendering="crispEdges" fill="rgb(222, 115, 90)"  x="21" y="15" width="1" height="1" /><rect shape-rendering="crispEdges" fill="rgb(230, 131, 90)"  x="21" y="16" width="1" height="1" /><rect shape-rendering="crispEdges" fill="rgb(230, 131, 90)"  x="21" y="17" width="1" height="1" /><rect shape-rendering="crispEdges" fill="rgb(230, 131, 90)"  x="21" y="18" width="1" height="1" /><rect shape-rendering="crispEdges" fill="rgb(230, 123, 82)"  x="21" y="19" width="1" height="1" /><rect shape-rendering="crispEdges" fill="rgb(222, 115, 74)"  x="21" y="20" width="1" height="1" /><rect shape-rendering="crispEdges" fill="rgb(222, 106, 74)"  x="21" y="21" width="1" height="1" /><rect shape-rendering="crispEdges" fill="rgb(205, 90, 65)"  x="21" y="22" width="1" height="1" /><rect shape-rendering="crispEdges" fill="rgb(189, 82, 65)"  x="21" y="23" width="1" height="1" /><rect shape-rendering="crispEdges" fill="rgb(180, 148, 41)"  x="21" y="24" width="1" height="1" /><rect shape-rendering="crispEdges" fill="rgb(197, 156, 49)"  x="21" y="25" width="1" height="1" /><rect shape-rendering="crispEdges" fill="rgb(197, 156, 49)"  x="21" y="26" width="1" height="1" /><rect shape-rendering="crispEdges" fill="rgb(197, 156, 49)"  x="21" y="27" width="1" height="1" /><rect shape-rendering="crispEdges" fill="rgb(246, 222, 123)"  x="22" y="7" width="1" height="1" /><rect shape-rendering="crispEdges" fill="rgb(230, 205, 115)"  x="22" y="8" width="1" height="1" /><rect shape-rendering="crispEdges" fill="rgb(230, 205, 98)"  x="22" y="9" width="1" height="1" /><rect shape-rendering="crispEdges" fill="rgb(197, 172, 74)"  x="22" y="10" width="1" height="1" /><rect shape-rendering="crispEdges" fill="rgb(180, 148, 65)"  x="22" y="11" width="1" height="1" /><rect shape-rendering="crispEdges" fill="rgb(180, 148, 65)"  x="22" y="12" width="1" height="1" /><rect shape-rendering="crispEdges" fill="rgb(205, 180, 98)"  x="22" y="13" width="1" height="1" /><rect shape-rendering="crispEdges" fill="rgb(197, 156, 49)"  x="22" y="14" width="1" height="1" /><rect shape-rendering="crispEdges" fill="rgb(197, 98, 74)"  x="22" y="15" width="1" height="1" /><rect shape-rendering="crispEdges" fill="rgb(197, 98, 74)"  x="22" y="16" width="1" height="1" /><rect shape-rendering="crispEdges" fill="rgb(213, 115, 82)"  x="22" y="17" width="1" height="1" /><rect shape-rendering="crispEdges" fill="rgb(222, 123, 90)"  x="22" y="18" width="1" height="1" /><rect shape-rendering="crispEdges" fill="rgb(222, 115, 82)"  x="22" y="19" width="1" height="1" /><rect shape-rendering="crispEdges" fill="rgb(205, 98, 74)"  x="22" y="20" width="1" height="1" /><rect shape-rendering="crispEdges" fill="rgb(205, 90, 74)"  x="22" y="21" width="1" height="1" /><rect shape-rendering="crispEdges" fill="rgb(189, 82, 65)"  x="22" y="22" width="1" height="1" /><rect shape-rendering="crispEdges" fill="rgb(189, 148, 49)"  x="22" y="23" width="1" height="1" /><rect shape-rendering="crispEdges" fill="rgb(180, 139, 32)"  x="22" y="24" width="1" height="1" /><rect shape-rendering="crispEdges" fill="rgb(197, 172, 82)"  x="22" y="25" width="1" height="1" /><rect shape-rendering="crispEdges" fill="rgb(246, 222, 123)"  x="23" y="5" width="1" height="1" /><rect shape-rendering="crispEdges" fill="rgb(238, 222, 148)"  x="23" y="6" width="1" height="1" /><rect shape-rendering="crispEdges" fill="rgb(230, 205, 106)"  x="23" y="7" width="1" height="1" /><rect shape-rendering="crispEdges" fill="rgb(205, 180, 82)"  x="23" y="8" width="1" height="1" /><rect shape-rendering="crispEdges" fill="rgb(180, 148, 65)"  x="23" y="9" width="1" height="1" /><rect shape-rendering="crispEdges" fill="rgb(222, 213, 164)"  x="23" y="14" width="1" height="1" /><rect shape-rendering="crispEdges" fill="rgb(180, 148, 41)"  x="23" y="15" width="1" height="1" /><rect shape-rendering="crispEdges" fill="rgb(197, 139, 49)"  x="23" y="16" width="1" height="1" /><rect shape-rendering="crispEdges" fill="rgb(197, 98, 74)"  x="23" y="17" width="1" height="1" /><rect shape-rendering="crispEdges" fill="rgb(197, 98, 74)"  x="23" y="18" width="1" height="1" /><rect shape-rendering="crispEdges" fill="rgb(189, 82, 65)"  x="23" y="19" width="1" height="1" /><rect shape-rendering="crispEdges" fill="rgb(189, 82, 65)"  x="23" y="20" width="1" height="1" /><rect shape-rendering="crispEdges" fill="rgb(189, 82, 65)"  x="23" y="21" width="1" height="1" /><rect shape-rendering="crispEdges" fill="rgb(197, 156, 57)"  x="23" y="22" width="1" height="1" /><rect shape-rendering="crispEdges" fill="rgb(172, 139, 32)"  x="23" y="23" width="1" height="1" /><rect shape-rendering="crispEdges" fill="rgb(197, 156, 57)"  x="23" y="24" width="1" height="1" /><rect shape-rendering="crispEdges" fill="rgb(213, 180, 82)"  x="23" y="25" width="1" height="1" /><rect shape-rendering="crispEdges" fill="rgb(246, 222, 123)"  x="24" y="4" width="1" height="1" /><rect shape-rendering="crispEdges" fill="rgb(222, 197, 98)"  x="24" y="5" width="1" height="1" /><rect shape-rendering="crispEdges" fill="rgb(222, 189, 90)"  x="24" y="6" width="1" height="1" /><rect shape-rendering="crispEdges" fill="rgb(180, 148, 65)"  x="24" y="7" width="1" height="1" /><rect shape-rendering="crispEdges" fill="rgb(180, 148, 65)"  x="24" y="15" width="1" height="1" /><rect shape-rendering="crispEdges" fill="rgb(148, 123, 41)"  x="24" y="16" width="1" height="1" /><rect shape-rendering="crispEdges" fill="rgb(180, 148, 41)"  x="24" y="17" width="1" height="1" /><rect shape-rendering="crispEdges" fill="rgb(189, 148, 49)"  x="24" y="18" width="1" height="1" /><rect shape-rendering="crispEdges" fill="rgb(197, 139, 74)"  x="24" y="19" width="1" height="1" /><rect shape-rendering="crispEdges" fill="rgb(197, 139, 65)"  x="24" y="20" width="1" height="1" /><rect shape-rendering="crispEdges" fill="rgb(189, 156, 49)"  x="24" y="21" width="1" height="1" /><rect shape-rendering="crispEdges" fill="rgb(172, 139, 41)"  x="24" y="22" width="1" height="1" /><rect shape-rendering="crispEdges" fill="rgb(139, 106, 41)"  x="24" y="23" width="1" height="1" /><rect shape-rendering="crispEdges" fill="rgb(139, 106, 41)"  x="24" y="24" width="1" height="1" /><rect shape-rendering="crispEdges" fill="rgb(139, 106, 41)"  x="24" y="25" width="1" height="1" /><rect shape-rendering="crispEdges" fill="rgb(197, 172, 98)"  x="24" y="26" width="1" height="1" /><rect shape-rendering="crispEdges" fill="rgb(246, 222, 123)"  x="25" y="3" width="1" height="1" /><rect shape-rendering="crispEdges" fill="rgb(222, 189, 74)"  x="25" y="4" width="1" height="1" /><rect shape-rendering="crispEdges" fill="rgb(213, 180, 90)"  x="25" y="5" width="1" height="1" /><rect shape-rendering="crispEdges" fill="rgb(180, 148, 65)"  x="25" y="6" width="1" height="1" /><rect shape-rendering="crispEdges" fill="rgb(222, 213, 164)"  x="25" y="13" width="1" height="1" /><rect shape-rendering="crispEdges" fill="rgb(180, 139, 65)"  x="25" y="14" width="1" height="1" /><rect shape-rendering="crispEdges" fill="rgb(139, 115, 49)"  x="25" y="15" width="1" height="1" /><rect shape-rendering="crispEdges" fill="rgb(115, 98, 41)"  x="25" y="16" width="1" height="1" /><rect shape-rendering="crispEdges" fill="rgb(115, 98, 41)"  x="25" y="17" width="1" height="1" /><rect shape-rendering="crispEdges" fill="rgb(115, 98, 41)"  x="25" y="18" width="1" height="1" /><rect shape-rendering="crispEdges" fill="rgb(156, 148, 98)"  x="25" y="19" width="1" height="1" /><rect shape-rendering="crispEdges" fill="rgb(189, 164, 90)"  x="25" y="20" width="1" height="1" /><rect shape-rendering="crispEdges" fill="rgb(148, 115, 32)"  x="25" y="21" width="1" height="1" /><rect shape-rendering="crispEdges" fill="rgb(139, 106, 41)"  x="25" y="22" width="1" height="1" /><rect shape-rendering="crispEdges" fill="rgb(139, 106, 41)"  x="25" y="23" width="1" height="1" /><rect shape-rendering="crispEdges" fill="rgb(246, 222, 123)"  x="26" y="2" width="1" height="1" /><rect shape-rendering="crispEdges" fill="rgb(222, 189, 90)"  x="26" y="3" width="1" height="1" /><rect shape-rendering="crispEdges" fill="rgb(205, 172, 74)"  x="26" y="4" width="1" height="1" /><rect shape-rendering="crispEdges" fill="rgb(180, 148, 65)"  x="26" y="5" width="1" height="1" /><rect shape-rendering="crispEdges" fill="rgb(222, 213, 164)"  x="26" y="11" width="1" height="1" /><rect shape-rendering="crispEdges" fill="rgb(156, 123, 49)"  x="26" y="12" width="1" height="1" /><rect shape-rendering="crispEdges" fill="rgb(131, 98, 24)"  x="26" y="13" width="1" height="1" /><rect shape-rendering="crispEdges" fill="rgb(131, 98, 24)"  x="26" y="14" width="1" height="1" /><rect shape-rendering="crispEdges" fill="rgb(115, 98, 41)"  x="26" y="15" width="1" height="1" /><rect shape-rendering="crispEdges" fill="rgb(197, 180, 139)"  x="26" y="16" width="1" height="1" /><rect shape-rendering="crispEdges" fill="rgb(148, 115, 41)"  x="26" y="17" width="1" height="1" /><rect shape-rendering="crispEdges" fill="rgb(131, 106, 41)"  x="26" y="18" width="1" height="1" /><rect shape-rendering="crispEdges" fill="rgb(148, 115, 41)"  x="26" y="19" width="1" height="1" /><rect shape-rendering="crispEdges" fill="rgb(139, 106, 41)"  x="26" y="20" width="1" height="1" /><rect shape-rendering="crispEdges" fill="rgb(197, 180, 139)"  x="26" y="21" width="1" height="1" /><rect shape-rendering="crispEdges" fill="rgb(164, 131, 49)"  x="27" y="2" width="1" height="1" /><rect shape-rendering="crispEdges" fill="rgb(189, 148, 49)"  x="27" y="3" width="1" height="1" /><rect shape-rendering="crispEdges" fill="rgb(189, 164, 90)"  x="27" y="4" width="1" height="1" /><rect shape-rendering="crispEdges" fill="rgb(222, 213, 164)"  x="27" y="9" width="1" height="1" /><rect shape-rendering="crispEdges" fill="rgb(180, 148, 74)"  x="27" y="10" width="1" height="1" /><rect shape-rendering="crispEdges" fill="rgb(131, 98, 24)"  x="27" y="11" width="1" height="1" /><rect shape-rendering="crispEdges" fill="rgb(115, 98, 41)"  x="27" y="12" width="1" height="1" /><rect shape-rendering="crispEdges" fill="rgb(148, 115, 41)"  x="27" y="18" width="1" height="1" /><rect shape-rendering="crispEdges" fill="rgb(148, 115, 41)"  x="27" y="19" width="1" height="1" /><rect shape-rendering="crispEdges" fill="rgb(164, 131, 49)"  x="28" y="3" width="1" height="1" /><rect shape-rendering="crispEdges" fill="rgb(164, 123, 32)"  x="28" y="4" width="1" height="1" /><rect shape-rendering="crispEdges" fill="rgb(156, 131, 49)"  x="28" y="5" width="1" height="1" /><rect shape-rendering="crispEdges" fill="rgb(164, 139, 57)"  x="28" y="6" width="1" height="1" /><rect shape-rendering="crispEdges" fill="rgb(172, 139, 57)"  x="28" y="7" width="1" height="1" /><rect shape-rendering="crispEdges" fill="rgb(172, 148, 65)"  x="28" y="8" width="1" height="1" /><rect shape-rendering="crispEdges" fill="rgb(131, 98, 24)"  x="28" y="9" width="1" height="1" /><rect shape-rendering="crispEdges" fill="rgb(115, 98, 41)"  x="28" y="10" width="1" height="1" /><rect shape-rendering="crispEdges" fill="rgb(164, 131, 49)"  x="29" y="4" width="1" height="1" /><rect shape-rendering="crispEdges" fill="rgb(131, 98, 24)"  x="29" y="5" width="1" height="1" /><rect shape-rendering="crispEdges" fill="rgb(131, 98, 24)"  x="29" y="6" width="1" height="1" /><rect shape-rendering="crispEdges" fill="rgb(131, 98, 24)"  x="29" y="7" width="1" height="1" /><rect shape-rendering="crispEdges" fill="rgb(131, 98, 24)"  x="29" y="8" width="1" height="1" /></svg>