<svg xmlns="http://www.w3.org/2000/svg" xmlns:xlink= "http://www.w3.org/1999/xlink" width="32" height="32" viewBox ="0 0 32 32"><rect shape-rendering="crispEdges" fill="rgb(157, 230, 41)"  x="7" y="25" width="1" height="1" /><rect shape-rendering="crispEdges" fill="rgb(157, 230, 41)"  x="7" y="26" width="1" height="1" /><rect shape-rendering="crispEdges" fill="rgb(183, 230, 82)"  x="7" y="27" width="1" height="1" /><rect shape-rendering="crispEdges" fill="rgb(191, 238, 90)"  x="7" y="28" width="1" height="1" /><rect shape-rendering="crispEdges" fill="rgb(206, 238, 98)"  x="7" y="29" width="1" height="1" /><rect shape-rendering="crispEdges" fill="rgb(148, 99, 54)"  x="8" y="5" width="1" height="1" /><rect shape-rendering="crispEdges" fill="rgb(189, 142, 68)"  x="8" y="6" width="1" height="1" /><rect shape-rendering="crispEdges" fill="rgb(148, 99, 54)"  x="8" y="7" width="1" height="1" /><rect shape-rendering="crispEdges" fill="rgb(148, 99, 54)"  x="8" y="10" width="1" height="1" /><rect shape-rendering="crispEdges" fill="rgb(148, 99, 54)"  x="8" y="11" width="1" height="1" /><rect shape-rendering="crispEdges" fill="rgb(148, 99, 54)"  x="8" y="20" width="1" height="1" /><rect shape-rendering="crispEdges" fill="rgb(148, 99, 54)"  x="8" y="21" width="1" height="1" /><rect shape-rendering="crispEdges" fill="rgb(194, 238, 74)"  x="8" y="22" width="1" height="1" /><rect shape-rendering="crispEdges" fill="rgb(162, 238, 74)"  x="8" y="23" width="1" height="1" /><rect shape-rendering="crispEdges" fill="rgb(166, 246, 98)"  x="8" y="24" width="1" height="1" /><rect shape-rendering="crispEdges" fill="rgb(183, 255, 115)"  x="8" y="25" width="1" height="1" /><rect shape-rendering="crispEdges" fill="rgb(192, 255, 115)"  x="8" y="26" width="1" height="1" /><rect shape-rendering="crispEdges" fill="rgb(209, 255, 115)"  x="8" y="27" width="1" height="1" /><rect shape-rendering="crispEdges" fill="rgb(209, 255, 115)"  x="8" y="28" width="1" height="1" /><rect shape-rendering="crispEdges" fill="rgb(216, 255, 115)"  x="8" y="29" width="1" height="1" /><rect shape-rendering="crispEdges" fill="rgb(206, 222, 90)"  x="9" y="3" width="1" height="1" /><rect shape-rendering="crispEdges" fill="rgb(189, 110, 59)"  x="9" y="4" width="1" height="1" /><rect shape-rendering="crispEdges" fill="rgb(164, 78, 46)"  x="9" y="5" width="1" height="1" /><rect shape-rendering="crispEdges" fill="rgb(222, 186, 74)"  x="9" y="6" width="1" height="1" /><rect shape-rendering="crispEdges" fill="rgb(238, 195, 83)"  x="9" y="7" width="1" height="1" /><rect shape-rendering="crispEdges" fill="rgb(156, 104, 54)"  x="9" y="8" width="1" height="1" /><rect shape-rendering="crispEdges" fill="rgb(148, 99, 54)"  x="9" y="9" width="1" height="1" /><rect shape-rendering="crispEdges" fill="rgb(209, 238, 82)"  x="9" y="10" width="1" height="1" /><rect shape-rendering="crispEdges" fill="rgb(194, 213, 41)"  x="9" y="11" width="1" height="1" /><rect shape-rendering="crispEdges" fill="rgb(148, 99, 54)"  x="9" y="12" width="1" height="1" /><rect shape-rendering="crispEdges" fill="rgb(148, 99, 54)"  x="9" y="19" width="1" height="1" /><rect shape-rendering="crispEdges" fill="rgb(189, 130, 62)"  x="9" y="20" width="1" height="1" /><rect shape-rendering="crispEdges" fill="rgb(205, 161, 65)"  x="9" y="21" width="1" height="1" /><rect shape-rendering="crispEdges" fill="rgb(232, 238, 90)"  x="9" y="22" width="1" height="1" /><rect shape-rendering="crispEdges" fill="rgb(208, 255, 106)"  x="9" y="23" width="1" height="1" /><rect shape-rendering="crispEdges" fill="rgb(216, 255, 115)"  x="9" y="24" width="1" height="1" /><rect shape-rendering="crispEdges" fill="rgb(240, 255, 115)"  x="9" y="25" width="1" height="1" /><rect shape-rendering="crispEdges" fill="rgb(249, 255, 106)"  x="9" y="26" width="1" height="1" /><rect shape-rendering="crispEdges" fill="rgb(255, 226, 98)"  x="9" y="27" width="1" height="1" /><rect shape-rendering="crispEdges" fill="rgb(255, 216, 90)"  x="9" y="28" width="1" height="1" /><rect shape-rendering="crispEdges" fill="rgb(255, 186, 95)"  x="9" y="29" width="1" height="1" /><rect shape-rendering="crispEdges" fill="rgb(157, 230, 41)"  x="10" y="2" width="1" height="1" /><rect shape-rendering="crispEdges" fill="rgb(172, 107, 56)"  x="10" y="3" width="1" height="1" /><rect shape-rendering="crispEdges" fill="rgb(172, 255, 131)"  x="10" y="4" width="1" height="1" /><rect shape-rendering="crispEdges" fill="rgb(230, 202, 82)"  x="10" y="5" width="1" height="1" /><rect shape-rendering="crispEdges" fill="rgb(180, 127, 32)"  x="10" y="6" width="1" height="1" /><rect shape-rendering="crispEdges" fill="rgb(213, 184, 65)"  x="10" y="7" width="1" height="1" /><rect shape-rendering="crispEdges" fill="rgb(222, 195, 82)"  x="10" y="8" width="1" height="1" /><rect shape-rendering="crispEdges" fill="rgb(206, 255, 123)"  x="10" y="9" width="1" height="1" /><rect shape-rendering="crispEdges" fill="rgb(192, 255, 115)"  x="10" y="10" width="1" height="1" /><rect shape-rendering="crispEdges" fill="rgb(213, 202, 74)"  x="10" y="11" width="1" height="1" /><rect shape-rendering="crispEdges" fill="rgb(197, 145, 51)"  x="10" y="12" width="1" height="1" /><rect shape-rendering="crispEdges" fill="rgb(148, 99, 54)"  x="10" y="13" width="1" height="1" /><rect shape-rendering="crispEdges" fill="rgb(148, 99, 54)"  x="10" y="14" width="1" height="1" /><rect shape-rendering="crispEdges" fill="rgb(148, 99, 54)"  x="10" y="15" width="1" height="1" /><rect shape-rendering="crispEdges" fill="rgb(148, 99, 54)"  x="10" y="18" width="1" height="1" /><rect shape-rendering="crispEdges" fill="rgb(189, 140, 60)"  x="10" y="19" width="1" height="1" /><rect shape-rendering="crispEdges" fill="rgb(189, 146, 57)"  x="10" y="20" width="1" height="1" /><rect shape-rendering="crispEdges" fill="rgb(238, 209, 82)"  x="10" y="21" width="1" height="1" /><rect shape-rendering="crispEdges" fill="rgb(230, 201, 74)"  x="10" y="22" width="1" height="1" /><rect shape-rendering="crispEdges" fill="rgb(255, 216, 90)"  x="10" y="23" width="1" height="1" /><rect shape-rendering="crispEdges" fill="rgb(255, 226, 98)"  x="10" y="24" width="1" height="1" /><rect shape-rendering="crispEdges" fill="rgb(255, 226, 98)"  x="10" y="25" width="1" height="1" /><rect shape-rendering="crispEdges" fill="rgb(255, 226, 98)"  x="10" y="26" width="1" height="1" /><rect shape-rendering="crispEdges" fill="rgb(255, 225, 90)"  x="10" y="27" width="1" height="1" /><rect shape-rendering="crispEdges" fill="rgb(255, 223, 82)"  x="10" y="28" width="1" height="1" /><rect shape-rendering="crispEdges" fill="rgb(255, 183, 78)"  x="10" y="29" width="1" height="1" /><rect shape-rendering="crispEdges" fill="rgb(157, 230, 41)"  x="11" y="1" width="1" height="1" /><rect shape-rendering="crispEdges" fill="rgb(188, 230, 49)"  x="11" y="2" width="1" height="1" /><rect shape-rendering="crispEdges" fill="rgb(180, 115, 0)"  x="11" y="3" width="1" height="1" /><rect shape-rendering="crispEdges" fill="rgb(172, 123, 49)"  x="11" y="4" width="1" height="1" /><rect shape-rendering="crispEdges" fill="rgb(172, 255, 131)"  x="11" y="5" width="1" height="1" /><rect shape-rendering="crispEdges" fill="rgb(172, 255, 131)"  x="11" y="6" width="1" height="1" /><rect shape-rendering="crispEdges" fill="rgb(205, 171, 74)"  x="11" y="7" width="1" height="1" /><rect shape-rendering="crispEdges" fill="rgb(238, 211, 98)"  x="11" y="8" width="1" height="1" /><rect shape-rendering="crispEdges" fill="rgb(191, 255, 123)"  x="11" y="9" width="1" height="1" /><rect shape-rendering="crispEdges" fill="rgb(223, 255, 123)"  x="11" y="10" width="1" height="1" /><rect shape-rendering="crispEdges" fill="rgb(205, 169, 65)"  x="11" y="11" width="1" height="1" /><rect shape-rendering="crispEdges" fill="rgb(189, 153, 41)"  x="11" y="12" width="1" height="1" /><rect shape-rendering="crispEdges" fill="rgb(205, 168, 49)"  x="11" y="13" width="1" height="1" /><rect shape-rendering="crispEdges" fill="rgb(213, 184, 57)"  x="11" y="14" width="1" height="1" /><rect shape-rendering="crispEdges" fill="rgb(213, 157, 51)"  x="11" y="15" width="1" height="1" /><rect shape-rendering="crispEdges" fill="rgb(148, 99, 54)"  x="11" y="16" width="1" height="1" /><rect shape-rendering="crispEdges" fill="rgb(148, 99, 54)"  x="11" y="18" width="1" height="1" /><rect shape-rendering="crispEdges" fill="rgb(180, 137, 49)"  x="11" y="19" width="1" height="1" /><rect shape-rendering="crispEdges" fill="rgb(172, 130, 49)"  x="11" y="20" width="1" height="1" /><rect shape-rendering="crispEdges" fill="rgb(230, 202, 82)"  x="11" y="21" width="1" height="1" /><rect shape-rendering="crispEdges" fill="rgb(238, 209, 82)"  x="11" y="22" width="1" height="1" /><rect shape-rendering="crispEdges" fill="rgb(246, 217, 90)"  x="11" y="23" width="1" height="1" /><rect shape-rendering="crispEdges" fill="rgb(255, 216, 90)"  x="11" y="24" width="1" height="1" /><rect shape-rendering="crispEdges" fill="rgb(246, 217, 90)"  x="11" y="25" width="1" height="1" /><rect shape-rendering="crispEdges" fill="rgb(238, 200, 74)"  x="11" y="26" width="1" height="1" /><rect shape-rendering="crispEdges" fill="rgb(222, 191, 65)"  x="11" y="27" width="1" height="1" /><rect shape-rendering="crispEdges" fill="rgb(222, 183, 57)"  x="11" y="28" width="1" height="1" /><rect shape-rendering="crispEdges" fill="rgb(230, 159, 62)"  x="11" y="29" width="1" height="1" /><rect shape-rendering="crispEdges" fill="rgb(157, 230, 41)"  x="12" y="1" width="1" height="1" /><rect shape-rendering="crispEdges" fill="rgb(174, 222, 24)"  x="12" y="2" width="1" height="1" /><rect shape-rendering="crispEdges" fill="rgb(189, 140, 0)"  x="12" y="3" width="1" height="1" /><rect shape-rendering="crispEdges" fill="rgb(189, 136, 41)"  x="12" y="4" width="1" height="1" /><rect shape-rendering="crispEdges" fill="rgb(172, 123, 49)"  x="12" y="5" width="1" height="1" /><rect shape-rendering="crispEdges" fill="rgb(172, 123, 49)"  x="12" y="6" width="1" height="1" /><rect shape-rendering="crispEdges" fill="rgb(172, 255, 131)"  x="12" y="7" width="1" height="1" /><rect shape-rendering="crispEdges" fill="rgb(172, 255, 131)"  x="12" y="8" width="1" height="1" /><rect shape-rendering="crispEdges" fill="rgb(255, 244, 115)"  x="12" y="9" width="1" height="1" /><rect shape-rendering="crispEdges" fill="rgb(255, 228, 115)"  x="12" y="10" width="1" height="1" /><rect shape-rendering="crispEdges" fill="rgb(205, 179, 74)"  x="12" y="11" width="1" height="1" /><rect shape-rendering="crispEdges" fill="rgb(189, 154, 49)"  x="12" y="12" width="1" height="1" /><rect shape-rendering="crispEdges" fill="rgb(205, 168, 57)"  x="12" y="13" width="1" height="1" /><rect shape-rendering="crispEdges" fill="rgb(230, 193, 74)"  x="12" y="14" width="1" height="1" /><rect shape-rendering="crispEdges" fill="rgb(246, 206, 74)"  x="12" y="15" width="1" height="1" /><rect shape-rendering="crispEdges" fill="rgb(148, 99, 54)"  x="12" y="16" width="1" height="1" /><rect shape-rendering="crispEdges" fill="rgb(148, 99, 54)"  x="12" y="18" width="1" height="1" /><rect shape-rendering="crispEdges" fill="rgb(172, 130, 49)"  x="12" y="19" width="1" height="1" /><rect shape-rendering="crispEdges" fill="rgb(172, 130, 49)"  x="12" y="20" width="1" height="1" /><rect shape-rendering="crispEdges" fill="rgb(164, 124, 49)"  x="12" y="21" width="1" height="1" /><rect shape-rendering="crispEdges" fill="rgb(246, 217, 90)"  x="12" y="22" width="1" height="1" /><rect shape-rendering="crispEdges" fill="rgb(238, 200, 74)"  x="12" y="23" width="1" height="1" /><rect shape-rendering="crispEdges" fill="rgb(172, 255, 131)"  x="12" y="24" width="1" height="1" /><rect shape-rendering="crispEdges" fill="rgb(246, 216, 82)"  x="12" y="25" width="1" height="1" /><rect shape-rendering="crispEdges" fill="rgb(213, 175, 57)"  x="12" y="26" width="1" height="1" /><rect shape-rendering="crispEdges" fill="rgb(205, 168, 49)"  x="12" y="27" width="1" height="1" /><rect shape-rendering="crispEdges" fill="rgb(213, 175, 49)"  x="12" y="28" width="1" height="1" /><rect shape-rendering="crispEdges" fill="rgb(213, 147, 62)"  x="12" y="29" width="1" height="1" /><rect shape-rendering="crispEdges" fill="rgb(157, 230, 41)"  x="13" y="2" width="1" height="1" /><rect shape-rendering="crispEdges" fill="rgb(205, 197, 24)"  x="13" y="3" width="1" height="1" /><rect shape-rendering="crispEdges" fill="rgb(197, 161, 57)"  x="13" y="4" width="1" height="1" /><rect shape-rendering="crispEdges" fill="rgb(180, 129, 49)"  x="13" y="5" width="1" height="1" /><rect shape-rendering="crispEdges" fill="rgb(172, 121, 41)"  x="13" y="6" width="1" height="1" /><rect shape-rendering="crispEdges" fill="rgb(172, 123, 49)"  x="13" y="7" width="1" height="1" /><rect shape-rendering="crispEdges" fill="rgb(172, 123, 49)"  x="13" y="8" width="1" height="1" /><rect shape-rendering="crispEdges" fill="rgb(172, 255, 131)"  x="13" y="9" width="1" height="1" /><rect shape-rendering="crispEdges" fill="rgb(255, 244, 115)"  x="13" y="10" width="1" height="1" /><rect shape-rendering="crispEdges" fill="rgb(230, 229, 98)"  x="13" y="11" width="1" height="1" /><rect shape-rendering="crispEdges" fill="rgb(197, 170, 57)"  x="13" y="12" width="1" height="1" /><rect shape-rendering="crispEdges" fill="rgb(222, 191, 65)"  x="13" y="13" width="1" height="1" /><rect shape-rendering="crispEdges" fill="rgb(246, 226, 98)"  x="13" y="14" width="1" height="1" /><rect shape-rendering="crispEdges" fill="rgb(255, 236, 115)"  x="13" y="15" width="1" height="1" /><rect shape-rendering="crispEdges" fill="rgb(148, 99, 54)"  x="13" y="16" width="1" height="1" /><rect shape-rendering="crispEdges" fill="rgb(148, 99, 54)"  x="13" y="18" width="1" height="1" /><rect shape-rendering="crispEdges" fill="rgb(172, 130, 49)"  x="13" y="19" width="1" height="1" /><rect shape-rendering="crispEdges" fill="rgb(172, 130, 49)"  x="13" y="20" width="1" height="1" /><rect shape-rendering="crispEdges" fill="rgb(164, 124, 49)"  x="13" y="21" width="1" height="1" /><rect shape-rendering="crispEdges" fill="rgb(172, 255, 131)"  x="13" y="22" width="1" height="1" /><rect shape-rendering="crispEdges" fill="rgb(223, 238, 98)"  x="13" y="23" width="1" height="1" /><rect shape-rendering="crispEdges" fill="rgb(172, 255, 131)"  x="13" y="24" width="1" height="1" /><rect shape-rendering="crispEdges" fill="rgb(243, 246, 82)"  x="13" y="25" width="1" height="1" /><rect shape-rendering="crispEdges" fill="rgb(230, 181, 49)"  x="13" y="26" width="1" height="1" /><rect shape-rendering="crispEdges" fill="rgb(205, 139, 54)"  x="13" y="27" width="1" height="1" /><rect shape-rendering="crispEdges" fill="rgb(148, 99, 54)"  x="13" y="28" width="1" height="1" /><rect shape-rendering="crispEdges" fill="rgb(148, 99, 54)"  x="13" y="29" width="1" height="1" /><rect shape-rendering="crispEdges" fill="rgb(141, 238, 32)"  x="14" y="2" width="1" height="1" /><rect shape-rendering="crispEdges" fill="rgb(182, 222, 24)"  x="14" y="3" width="1" height="1" /><rect shape-rendering="crispEdges" fill="rgb(197, 152, 49)"  x="14" y="4" width="1" height="1" /><rect shape-rendering="crispEdges" fill="rgb(180, 129, 49)"  x="14" y="5" width="1" height="1" /><rect shape-rendering="crispEdges" fill="rgb(172, 123, 49)"  x="14" y="6" width="1" height="1" /><rect shape-rendering="crispEdges" fill="rgb(172, 123, 49)"  x="14" y="7" width="1" height="1" /><rect shape-rendering="crispEdges" fill="rgb(172, 123, 49)"  x="14" y="8" width="1" height="1" /><rect shape-rendering="crispEdges" fill="rgb(172, 123, 49)"  x="14" y="9" width="1" height="1" /><rect shape-rendering="crispEdges" fill="rgb(172, 255, 131)"  x="14" y="10" width="1" height="1" /><rect shape-rendering="crispEdges" fill="rgb(206, 238, 98)"  x="14" y="11" width="1" height="1" /><rect shape-rendering="crispEdges" fill="rgb(213, 202, 65)"  x="14" y="12" width="1" height="1" /><rect shape-rendering="crispEdges" fill="rgb(207, 222, 82)"  x="14" y="13" width="1" height="1" /><rect shape-rendering="crispEdges" fill="rgb(199, 255, 115)"  x="14" y="14" width="1" height="1" /><rect shape-rendering="crispEdges" fill="rgb(164, 255, 131)"  x="14" y="15" width="1" height="1" /><rect shape-rendering="crispEdges" fill="rgb(148, 99, 54)"  x="14" y="16" width="1" height="1" /><rect shape-rendering="crispEdges" fill="rgb(148, 99, 54)"  x="14" y="18" width="1" height="1" /><rect shape-rendering="crispEdges" fill="rgb(172, 130, 49)"  x="14" y="19" width="1" height="1" /><rect shape-rendering="crispEdges" fill="rgb(172, 130, 49)"  x="14" y="20" width="1" height="1" /><rect shape-rendering="crispEdges" fill="rgb(164, 124, 49)"  x="14" y="21" width="1" height="1" /><rect shape-rendering="crispEdges" fill="rgb(246, 226, 98)"  x="14" y="22" width="1" height="1" /><rect shape-rendering="crispEdges" fill="rgb(172, 255, 131)"  x="14" y="23" width="1" height="1" /><rect shape-rendering="crispEdges" fill="rgb(234, 255, 98)"  x="14" y="24" width="1" height="1" /><rect shape-rendering="crispEdges" fill="rgb(246, 216, 82)"  x="14" y="25" width="1" height="1" /><rect shape-rendering="crispEdges" fill="rgb(238, 189, 57)"  x="14" y="26" width="1" height="1" /><rect shape-rendering="crispEdges" fill="rgb(148, 99, 54)"  x="14" y="27" width="1" height="1" /><rect shape-rendering="crispEdges" fill="rgb(141, 238, 32)"  x="15" y="2" width="1" height="1" /><rect shape-rendering="crispEdges" fill="rgb(173, 222, 32)"  x="15" y="3" width="1" height="1" /><rect shape-rendering="crispEdges" fill="rgb(197, 153, 57)"  x="15" y="4" width="1" height="1" /><rect shape-rendering="crispEdges" fill="rgb(180, 138, 57)"  x="15" y="5" width="1" height="1" /><rect shape-rendering="crispEdges" fill="rgb(172, 130, 49)"  x="15" y="6" width="1" height="1" /><rect shape-rendering="crispEdges" fill="rgb(172, 123, 49)"  x="15" y="7" width="1" height="1" /><rect shape-rendering="crispEdges" fill="rgb(172, 123, 49)"  x="15" y="8" width="1" height="1" /><rect shape-rendering="crispEdges" fill="rgb(172, 255, 131)"  x="15" y="9" width="1" height="1" /><rect shape-rendering="crispEdges" fill="rgb(255, 244, 115)"  x="15" y="10" width="1" height="1" /><rect shape-rendering="crispEdges" fill="rgb(230, 219, 90)"  x="15" y="11" width="1" height="1" /><rect shape-rendering="crispEdges" fill="rgb(197, 161, 49)"  x="15" y="12" width="1" height="1" /><rect shape-rendering="crispEdges" fill="rgb(222, 194, 74)"  x="15" y="13" width="1" height="1" /><rect shape-rendering="crispEdges" fill="rgb(246, 227, 106)"  x="15" y="14" width="1" height="1" /><rect shape-rendering="crispEdges" fill="rgb(255, 244, 115)"  x="15" y="15" width="1" height="1" /><rect shape-rendering="crispEdges" fill="rgb(148, 99, 54)"  x="15" y="16" width="1" height="1" /><rect shape-rendering="crispEdges" fill="rgb(148, 99, 54)"  x="15" y="18" width="1" height="1" /><rect shape-rendering="crispEdges" fill="rgb(172, 130, 49)"  x="15" y="19" width="1" height="1" /><rect shape-rendering="crispEdges" fill="rgb(172, 130, 49)"  x="15" y="20" width="1" height="1" /><rect shape-rendering="crispEdges" fill="rgb(164, 124, 49)"  x="15" y="21" width="1" height="1" /><rect shape-rendering="crispEdges" fill="rgb(172, 255, 131)"  x="15" y="22" width="1" height="1" /><rect shape-rendering="crispEdges" fill="rgb(240, 246, 98)"  x="15" y="23" width="1" height="1" /><rect shape-rendering="crispEdges" fill="rgb(172, 255, 131)"  x="15" y="24" width="1" height="1" /><rect shape-rendering="crispEdges" fill="rgb(246, 216, 82)"  x="15" y="25" width="1" height="1" /><rect shape-rendering="crispEdges" fill="rgb(222, 183, 57)"  x="15" y="26" width="1" height="1" /><rect shape-rendering="crispEdges" fill="rgb(156, 104, 54)"  x="15" y="27" width="1" height="1" /><rect shape-rendering="crispEdges" fill="rgb(140, 230, 41)"  x="16" y="2" width="1" height="1" /><rect shape-rendering="crispEdges" fill="rgb(204, 222, 41)"  x="16" y="3" width="1" height="1" /><rect shape-rendering="crispEdges" fill="rgb(197, 144, 49)"  x="16" y="4" width="1" height="1" /><rect shape-rendering="crispEdges" fill="rgb(180, 128, 41)"  x="16" y="5" width="1" height="1" /><rect shape-rendering="crispEdges" fill="rgb(172, 123, 49)"  x="16" y="6" width="1" height="1" /><rect shape-rendering="crispEdges" fill="rgb(172, 255, 131)"  x="16" y="7" width="1" height="1" /><rect shape-rendering="crispEdges" fill="rgb(172, 255, 131)"  x="16" y="8" width="1" height="1" /><rect shape-rendering="crispEdges" fill="rgb(255, 237, 123)"  x="16" y="9" width="1" height="1" /><rect shape-rendering="crispEdges" fill="rgb(255, 229, 123)"  x="16" y="10" width="1" height="1" /><rect shape-rendering="crispEdges" fill="rgb(213, 186, 74)"  x="16" y="11" width="1" height="1" /><rect shape-rendering="crispEdges" fill="rgb(189, 154, 49)"  x="16" y="12" width="1" height="1" /><rect shape-rendering="crispEdges" fill="rgb(222, 194, 74)"  x="16" y="13" width="1" height="1" /><rect shape-rendering="crispEdges" fill="rgb(255, 226, 98)"  x="16" y="14" width="1" height="1" /><rect shape-rendering="crispEdges" fill="rgb(255, 235, 106)"  x="16" y="15" width="1" height="1" /><rect shape-rendering="crispEdges" fill="rgb(148, 99, 54)"  x="16" y="16" width="1" height="1" /><rect shape-rendering="crispEdges" fill="rgb(148, 99, 54)"  x="16" y="18" width="1" height="1" /><rect shape-rendering="crispEdges" fill="rgb(172, 130, 49)"  x="16" y="19" width="1" height="1" /><rect shape-rendering="crispEdges" fill="rgb(172, 130, 49)"  x="16" y="20" width="1" height="1" /><rect shape-rendering="crispEdges" fill="rgb(164, 124, 49)"  x="16" y="21" width="1" height="1" /><rect shape-rendering="crispEdges" fill="rgb(246, 226, 98)"  x="16" y="22" width="1" height="1" /><rect shape-rendering="crispEdges" fill="rgb(224, 246, 98)"  x="16" y="23" width="1" height="1" /><rect shape-rendering="crispEdges" fill="rgb(169, 238, 74)"  x="16" y="24" width="1" height="1" /><rect shape-rendering="crispEdges" fill="rgb(238, 208, 74)"  x="16" y="25" width="1" height="1" /><rect shape-rendering="crispEdges" fill="rgb(213, 175, 57)"  x="16" y="26" width="1" height="1" /><rect shape-rendering="crispEdges" fill="rgb(205, 151, 60)"  x="16" y="27" width="1" height="1" /><rect shape-rendering="crispEdges" fill="rgb(148, 99, 54)"  x="16" y="28" width="1" height="1" /><rect shape-rendering="crispEdges" fill="rgb(148, 99, 54)"  x="16" y="29" width="1" height="1" /><rect shape-rendering="crispEdges" fill="rgb(157, 230, 41)"  x="17" y="1" width="1" height="1" /><rect shape-rendering="crispEdges" fill="rgb(157, 230, 41)"  x="17" y="2" width="1" height="1" /><rect shape-rendering="crispEdges" fill="rgb(197, 156, 24)"  x="17" y="3" width="1" height="1" /><rect shape-rendering="crispEdges" fill="rgb(189, 145, 49)"  x="17" y="4" width="1" height="1" /><rect shape-rendering="crispEdges" fill="rgb(172, 123, 49)"  x="17" y="5" width="1" height="1" /><rect shape-rendering="crispEdges" fill="rgb(172, 255, 131)"  x="17" y="6" width="1" height="1" /><rect shape-rendering="crispEdges" fill="rgb(222, 230, 98)"  x="17" y="7" width="1" height="1" /><rect shape-rendering="crispEdges" fill="rgb(246, 218, 106)"  x="17" y="8" width="1" height="1" /><rect shape-rendering="crispEdges" fill="rgb(205, 255, 131)"  x="17" y="9" width="1" height="1" /><rect shape-rendering="crispEdges" fill="rgb(246, 255, 131)"  x="17" y="10" width="1" height="1" /><rect shape-rendering="crispEdges" fill="rgb(205, 169, 65)"  x="17" y="11" width="1" height="1" /><rect shape-rendering="crispEdges" fill="rgb(189, 163, 57)"  x="17" y="12" width="1" height="1" /><rect shape-rendering="crispEdges" fill="rgb(222, 191, 65)"  x="17" y="13" width="1" height="1" /><rect shape-rendering="crispEdges" fill="rgb(238, 209, 82)"  x="17" y="14" width="1" height="1" /><rect shape-rendering="crispEdges" fill="rgb(246, 216, 82)"  x="17" y="15" width="1" height="1" /><rect shape-rendering="crispEdges" fill="rgb(148, 99, 54)"  x="17" y="16" width="1" height="1" /><rect shape-rendering="crispEdges" fill="rgb(148, 99, 54)"  x="17" y="18" width="1" height="1" /><rect shape-rendering="crispEdges" fill="rgb(180, 137, 49)"  x="17" y="19" width="1" height="1" /><rect shape-rendering="crispEdges" fill="rgb(172, 130, 49)"  x="17" y="20" width="1" height="1" /><rect shape-rendering="crispEdges" fill="rgb(164, 124, 49)"  x="17" y="21" width="1" height="1" /><rect shape-rendering="crispEdges" fill="rgb(246, 217, 90)"  x="17" y="22" width="1" height="1" /><rect shape-rendering="crispEdges" fill="rgb(238, 218, 90)"  x="17" y="23" width="1" height="1" /><rect shape-rendering="crispEdges" fill="rgb(246, 206, 74)"  x="17" y="24" width="1" height="1" /><rect shape-rendering="crispEdges" fill="rgb(230, 191, 65)"  x="17" y="25" width="1" height="1" /><rect shape-rendering="crispEdges" fill="rgb(197, 161, 57)"  x="17" y="26" width="1" height="1" /><rect shape-rendering="crispEdges" fill="rgb(197, 161, 49)"  x="17" y="27" width="1" height="1" /><rect shape-rendering="crispEdges" fill="rgb(197, 152, 41)"  x="17" y="28" width="1" height="1" /><rect shape-rendering="crispEdges" fill="rgb(189, 127, 45)"  x="17" y="29" width="1" height="1" /><rect shape-rendering="crispEdges" fill="rgb(157, 230, 41)"  x="18" y="1" width="1" height="1" /><rect shape-rendering="crispEdges" fill="rgb(182, 222, 24)"  x="18" y="2" width="1" height="1" /><rect shape-rendering="crispEdges" fill="rgb(180, 115, 0)"  x="18" y="3" width="1" height="1" /><rect shape-rendering="crispEdges" fill="rgb(172, 123, 49)"  x="18" y="4" width="1" height="1" /><rect shape-rendering="crispEdges" fill="rgb(172, 255, 131)"  x="18" y="5" width="1" height="1" /><rect shape-rendering="crispEdges" fill="rgb(238, 237, 106)"  x="18" y="6" width="1" height="1" /><rect shape-rendering="crispEdges" fill="rgb(205, 160, 57)"  x="18" y="7" width="1" height="1" /><rect shape-rendering="crispEdges" fill="rgb(255, 228, 115)"  x="18" y="8" width="1" height="1" /><rect shape-rendering="crispEdges" fill="rgb(213, 255, 131)"  x="18" y="9" width="1" height="1" /><rect shape-rendering="crispEdges" fill="rgb(191, 255, 123)"  x="18" y="10" width="1" height="1" /><rect shape-rendering="crispEdges" fill="rgb(205, 179, 74)"  x="18" y="11" width="1" height="1" /><rect shape-rendering="crispEdges" fill="rgb(189, 153, 41)"  x="18" y="12" width="1" height="1" /><rect shape-rendering="crispEdges" fill="rgb(213, 183, 49)"  x="18" y="13" width="1" height="1" /><rect shape-rendering="crispEdges" fill="rgb(213, 173, 41)"  x="18" y="14" width="1" height="1" /><rect shape-rendering="crispEdges" fill="rgb(238, 205, 57)"  x="18" y="15" width="1" height="1" /><rect shape-rendering="crispEdges" fill="rgb(148, 99, 54)"  x="18" y="16" width="1" height="1" /><rect shape-rendering="crispEdges" fill="rgb(148, 99, 54)"  x="18" y="18" width="1" height="1" /><rect shape-rendering="crispEdges" fill="rgb(164, 124, 49)"  x="18" y="19" width="1" height="1" /><rect shape-rendering="crispEdges" fill="rgb(172, 130, 49)"  x="18" y="20" width="1" height="1" /><rect shape-rendering="crispEdges" fill="rgb(238, 209, 82)"  x="18" y="21" width="1" height="1" /><rect shape-rendering="crispEdges" fill="rgb(238, 209, 82)"  x="18" y="22" width="1" height="1" /><rect shape-rendering="crispEdges" fill="rgb(255, 225, 90)"  x="18" y="23" width="1" height="1" /><rect shape-rendering="crispEdges" fill="rgb(246, 216, 82)"  x="18" y="24" width="1" height="1" /><rect shape-rendering="crispEdges" fill="rgb(230, 201, 74)"  x="18" y="25" width="1" height="1" /><rect shape-rendering="crispEdges" fill="rgb(213, 175, 57)"  x="18" y="26" width="1" height="1" /><rect shape-rendering="crispEdges" fill="rgb(197, 161, 49)"  x="18" y="27" width="1" height="1" /><rect shape-rendering="crispEdges" fill="rgb(197, 161, 49)"  x="18" y="28" width="1" height="1" /><rect shape-rendering="crispEdges" fill="rgb(197, 133, 54)"  x="18" y="29" width="1" height="1" /><rect shape-rendering="crispEdges" fill="rgb(157, 230, 41)"  x="19" y="1" width="1" height="1" /><rect shape-rendering="crispEdges" fill="rgb(189, 222, 32)"  x="19" y="2" width="1" height="1" /><rect shape-rendering="crispEdges" fill="rgb(172, 123, 49)"  x="19" y="3" width="1" height="1" /><rect shape-rendering="crispEdges" fill="rgb(172, 255, 131)"  x="19" y="4" width="1" height="1" /><rect shape-rendering="crispEdges" fill="rgb(255, 235, 106)"  x="19" y="5" width="1" height="1" /><rect shape-rendering="crispEdges" fill="rgb(189, 136, 41)"  x="19" y="6" width="1" height="1" /><rect shape-rendering="crispEdges" fill="rgb(197, 161, 57)"  x="19" y="7" width="1" height="1" /><rect shape-rendering="crispEdges" fill="rgb(222, 195, 82)"  x="19" y="8" width="1" height="1" /><rect shape-rendering="crispEdges" fill="rgb(246, 229, 123)"  x="19" y="9" width="1" height="1" /><rect shape-rendering="crispEdges" fill="rgb(215, 255, 123)"  x="19" y="10" width="1" height="1" /><rect shape-rendering="crispEdges" fill="rgb(193, 222, 65)"  x="19" y="11" width="1" height="1" /><rect shape-rendering="crispEdges" fill="rgb(205, 192, 49)"  x="19" y="12" width="1" height="1" /><rect shape-rendering="crispEdges" fill="rgb(205, 167, 41)"  x="19" y="13" width="1" height="1" /><rect shape-rendering="crispEdges" fill="rgb(205, 167, 41)"  x="19" y="14" width="1" height="1" /><rect shape-rendering="crispEdges" fill="rgb(197, 145, 51)"  x="19" y="15" width="1" height="1" /><rect shape-rendering="crispEdges" fill="rgb(148, 99, 54)"  x="19" y="16" width="1" height="1" /><rect shape-rendering="crispEdges" fill="rgb(148, 99, 54)"  x="19" y="18" width="1" height="1" /><rect shape-rendering="crispEdges" fill="rgb(172, 115, 54)"  x="19" y="19" width="1" height="1" /><rect shape-rendering="crispEdges" fill="rgb(222, 194, 74)"  x="19" y="20" width="1" height="1" /><rect shape-rendering="crispEdges" fill="rgb(238, 200, 74)"  x="19" y="21" width="1" height="1" /><rect shape-rendering="crispEdges" fill="rgb(238, 218, 90)"  x="19" y="22" width="1" height="1" /><rect shape-rendering="crispEdges" fill="rgb(255, 235, 106)"  x="19" y="23" width="1" height="1" /><rect shape-rendering="crispEdges" fill="rgb(255, 216, 90)"  x="19" y="24" width="1" height="1" /><rect shape-rendering="crispEdges" fill="rgb(246, 217, 90)"  x="19" y="25" width="1" height="1" /><rect shape-rendering="crispEdges" fill="rgb(238, 209, 82)"  x="19" y="26" width="1" height="1" /><rect shape-rendering="crispEdges" fill="rgb(230, 201, 74)"  x="19" y="27" width="1" height="1" /><rect shape-rendering="crispEdges" fill="rgb(222, 183, 57)"  x="19" y="28" width="1" height="1" /><rect shape-rendering="crispEdges" fill="rgb(222, 153, 62)"  x="19" y="29" width="1" height="1" /><rect shape-rendering="crispEdges" fill="rgb(157, 230, 41)"  x="20" y="2" width="1" height="1" /><rect shape-rendering="crispEdges" fill="rgb(172, 255, 131)"  x="20" y="3" width="1" height="1" /><rect shape-rendering="crispEdges" fill="rgb(240, 255, 115)"  x="20" y="4" width="1" height="1" /><rect shape-rendering="crispEdges" fill="rgb(213, 167, 57)"  x="20" y="5" width="1" height="1" /><rect shape-rendering="crispEdges" fill="rgb(189, 154, 57)"  x="20" y="6" width="1" height="1" /><rect shape-rendering="crispEdges" fill="rgb(246, 226, 98)"  x="20" y="7" width="1" height="1" /><rect shape-rendering="crispEdges" fill="rgb(213, 186, 74)"  x="20" y="8" width="1" height="1" /><rect shape-rendering="crispEdges" fill="rgb(222, 186, 74)"  x="20" y="9" width="1" height="1" /><rect shape-rendering="crispEdges" fill="rgb(222, 194, 74)"  x="20" y="10" width="1" height="1" /><rect shape-rendering="crispEdges" fill="rgb(213, 222, 41)"  x="20" y="11" width="1" height="1" /><rect shape-rendering="crispEdges" fill="rgb(197, 179, 49)"  x="20" y="12" width="1" height="1" /><rect shape-rendering="crispEdges" fill="rgb(148, 99, 54)"  x="20" y="13" width="1" height="1" /><rect shape-rendering="crispEdges" fill="rgb(148, 99, 54)"  x="20" y="14" width="1" height="1" /><rect shape-rendering="crispEdges" fill="rgb(148, 99, 54)"  x="20" y="15" width="1" height="1" /><rect shape-rendering="crispEdges" fill="rgb(148, 99, 54)"  x="20" y="19" width="1" height="1" /><rect shape-rendering="crispEdges" fill="rgb(197, 136, 62)"  x="20" y="20" width="1" height="1" /><rect shape-rendering="crispEdges" fill="rgb(213, 186, 74)"  x="20" y="21" width="1" height="1" /><rect shape-rendering="crispEdges" fill="rgb(199, 246, 98)"  x="20" y="22" width="1" height="1" /><rect shape-rendering="crispEdges" fill="rgb(199, 255, 115)"  x="20" y="23" width="1" height="1" /><rect shape-rendering="crispEdges" fill="rgb(249, 255, 115)"  x="20" y="24" width="1" height="1" /><rect shape-rendering="crispEdges" fill="rgb(255, 235, 106)"  x="20" y="25" width="1" height="1" /><rect shape-rendering="crispEdges" fill="rgb(255, 216, 90)"  x="20" y="26" width="1" height="1" /><rect shape-rendering="crispEdges" fill="rgb(255, 216, 90)"  x="20" y="27" width="1" height="1" /><rect shape-rendering="crispEdges" fill="rgb(246, 208, 82)"  x="20" y="28" width="1" height="1" /><rect shape-rendering="crispEdges" fill="rgb(246, 177, 78)"  x="20" y="29" width="1" height="1" /><rect shape-rendering="crispEdges" fill="rgb(148, 99, 54)"  x="21" y="3" width="1" height="1" /><rect shape-rendering="crispEdges" fill="rgb(222, 170, 76)"  x="21" y="4" width="1" height="1" /><rect shape-rendering="crispEdges" fill="rgb(189, 146, 57)"  x="21" y="5" width="1" height="1" /><rect shape-rendering="crispEdges" fill="rgb(230, 203, 90)"  x="21" y="6" width="1" height="1" /><rect shape-rendering="crispEdges" fill="rgb(213, 178, 74)"  x="21" y="7" width="1" height="1" /><rect shape-rendering="crispEdges" fill="rgb(189, 146, 57)"  x="21" y="8" width="1" height="1" /><rect shape-rendering="crispEdges" fill="rgb(189, 154, 57)"  x="21" y="9" width="1" height="1" /><rect shape-rendering="crispEdges" fill="rgb(197, 145, 51)"  x="21" y="10" width="1" height="1" /><rect shape-rendering="crispEdges" fill="rgb(148, 99, 54)"  x="21" y="11" width="1" height="1" /><rect shape-rendering="crispEdges" fill="rgb(148, 99, 54)"  x="21" y="12" width="1" height="1" /><rect shape-rendering="crispEdges" fill="rgb(148, 99, 54)"  x="21" y="20" width="1" height="1" /><rect shape-rendering="crispEdges" fill="rgb(148, 99, 54)"  x="21" y="21" width="1" height="1" /><rect shape-rendering="crispEdges" fill="rgb(170, 246, 82)"  x="21" y="22" width="1" height="1" /><rect shape-rendering="crispEdges" fill="rgb(183, 255, 106)"  x="21" y="23" width="1" height="1" /><rect shape-rendering="crispEdges" fill="rgb(175, 255, 115)"  x="21" y="24" width="1" height="1" /><rect shape-rendering="crispEdges" fill="rgb(175, 255, 115)"  x="21" y="25" width="1" height="1" /><rect shape-rendering="crispEdges" fill="rgb(199, 255, 115)"  x="21" y="26" width="1" height="1" /><rect shape-rendering="crispEdges" fill="rgb(215, 255, 123)"  x="21" y="27" width="1" height="1" /><rect shape-rendering="crispEdges" fill="rgb(240, 255, 115)"  x="21" y="28" width="1" height="1" /><rect shape-rendering="crispEdges" fill="rgb(255, 198, 101)"  x="21" y="29" width="1" height="1" /><rect shape-rendering="crispEdges" fill="rgb(148, 99, 54)"  x="22" y="4" width="1" height="1" /><rect shape-rendering="crispEdges" fill="rgb(148, 99, 54)"  x="22" y="5" width="1" height="1" /><rect shape-rendering="crispEdges" fill="rgb(148, 99, 54)"  x="22" y="6" width="1" height="1" /><rect shape-rendering="crispEdges" fill="rgb(148, 99, 54)"  x="22" y="7" width="1" height="1" /><rect shape-rendering="crispEdges" fill="rgb(156, 104, 54)"  x="22" y="8" width="1" height="1" /><rect shape-rendering="crispEdges" fill="rgb(156, 104, 54)"  x="22" y="9" width="1" height="1" /><rect shape-rendering="crispEdges" fill="rgb(148, 99, 54)"  x="22" y="10" width="1" height="1" /><rect shape-rendering="crispEdges" fill="rgb(157, 230, 41)"  x="22" y="23" width="1" height="1" /><rect shape-rendering="crispEdges" fill="rgb(169, 238, 74)"  x="22" y="24" width="1" height="1" /><rect shape-rendering="crispEdges" fill="rgb(167, 246, 90)"  x="22" y="25" width="1" height="1" /><rect shape-rendering="crispEdges" fill="rgb(175, 255, 115)"  x="22" y="26" width="1" height="1" /><rect shape-rendering="crispEdges" fill="rgb(166, 255, 115)"  x="22" y="27" width="1" height="1" /><rect shape-rendering="crispEdges" fill="rgb(166, 255, 115)"  x="22" y="28" width="1" height="1" /><rect shape-rendering="crispEdges" fill="rgb(191, 255, 123)"  x="22" y="29" width="1" height="1" /><rect shape-rendering="crispEdges" fill="rgb(151, 238, 24)"  x="23" y="25" width="1" height="1" /><rect shape-rendering="crispEdges" fill="rgb(157, 230, 41)"  x="23" y="26" width="1" height="1" /><rect shape-rendering="crispEdges" fill="rgb(178, 238, 65)"  x="23" y="27" width="1" height="1" /><rect shape-rendering="crispEdges" fill="rgb(176, 238, 82)"  x="23" y="28" width="1" height="1" /><rect shape-rendering="crispEdges" fill="rgb(199, 246, 98)"  x="23" y="29" width="1" height="1" /></svg>