<svg xmlns="http://www.w3.org/2000/svg" xmlns:xlink= "http://www.w3.org/1999/xlink" width="32" height="32" viewBox ="0 0 32 32"><rect shape-rendering="crispEdges" fill="rgb(122, 123, 126)"  x="3" y="20" width="1" height="1" /><rect shape-rendering="crispEdges" fill="rgb(133, 130, 129)"  x="3" y="21" width="1" height="1" /><rect shape-rendering="crispEdges" fill="rgb(41, 48, 48)"  x="3" y="22" width="1" height="1" /><rect shape-rendering="crispEdges" fill="rgb(198, 214, 239)"  x="3" y="23" width="1" height="1" /><rect shape-rendering="crispEdges" fill="rgb(119, 123, 129)"  x="4" y="19" width="1" height="1" /><rect shape-rendering="crispEdges" fill="rgb(246, 222, 197)"  x="4" y="20" width="1" height="1" /><rect shape-rendering="crispEdges" fill="rgb(213, 181, 162)"  x="4" y="21" width="1" height="1" /><rect shape-rendering="crispEdges" fill="rgb(9, 42, 58)"  x="4" y="22" width="1" height="1" /><rect shape-rendering="crispEdges" fill="rgb(28, 28, 28)"  x="4" y="23" width="1" height="1" /><rect shape-rendering="crispEdges" fill="rgb(190, 214, 239)"  x="4" y="24" width="1" height="1" /><rect shape-rendering="crispEdges" fill="rgb(72, 80, 87)"  x="5" y="17" width="1" height="1" /><rect shape-rendering="crispEdges" fill="rgb(156, 156, 153)"  x="5" y="18" width="1" height="1" /><rect shape-rendering="crispEdges" fill="rgb(238, 213, 197)"  x="5" y="19" width="1" height="1" /><rect shape-rendering="crispEdges" fill="rgb(255, 222, 205)"  x="5" y="20" width="1" height="1" /><rect shape-rendering="crispEdges" fill="rgb(227, 197, 175)"  x="5" y="21" width="1" height="1" /><rect shape-rendering="crispEdges" fill="rgb(17, 66, 91)"  x="5" y="22" width="1" height="1" /><rect shape-rendering="crispEdges" fill="rgb(17, 25, 25)"  x="5" y="23" width="1" height="1" /><rect shape-rendering="crispEdges" fill="rgb(181, 214, 239)"  x="5" y="24" width="1" height="1" /><rect shape-rendering="crispEdges" fill="rgb(238, 213, 197)"  x="6" y="16" width="1" height="1" /><rect shape-rendering="crispEdges" fill="rgb(12, 12, 20)"  x="6" y="17" width="1" height="1" /><rect shape-rendering="crispEdges" fill="rgb(154, 154, 151)"  x="6" y="18" width="1" height="1" /><rect shape-rendering="crispEdges" fill="rgb(255, 222, 205)"  x="6" y="19" width="1" height="1" /><rect shape-rendering="crispEdges" fill="rgb(246, 222, 205)"  x="6" y="20" width="1" height="1" /><rect shape-rendering="crispEdges" fill="rgb(227, 197, 175)"  x="6" y="21" width="1" height="1" /><rect shape-rendering="crispEdges" fill="rgb(25, 75, 91)"  x="6" y="22" width="1" height="1" /><rect shape-rendering="crispEdges" fill="rgb(17, 33, 33)"  x="6" y="23" width="1" height="1" /><rect shape-rendering="crispEdges" fill="rgb(181, 214, 239)"  x="6" y="24" width="1" height="1" /><rect shape-rendering="crispEdges" fill="rgb(230, 205, 189)"  x="7" y="14" width="1" height="1" /><rect shape-rendering="crispEdges" fill="rgb(238, 205, 180)"  x="7" y="15" width="1" height="1" /><rect shape-rendering="crispEdges" fill="rgb(182, 182, 178)"  x="7" y="16" width="1" height="1" /><rect shape-rendering="crispEdges" fill="rgb(0, 0, 0)"  x="7" y="17" width="1" height="1" /><rect shape-rendering="crispEdges" fill="rgb(154, 154, 151)"  x="7" y="18" width="1" height="1" /><rect shape-rendering="crispEdges" fill="rgb(246, 230, 213)"  x="7" y="19" width="1" height="1" /><rect shape-rendering="crispEdges" fill="rgb(255, 222, 205)"  x="7" y="20" width="1" height="1" /><rect shape-rendering="crispEdges" fill="rgb(207, 181, 162)"  x="7" y="21" width="1" height="1" /><rect shape-rendering="crispEdges" fill="rgb(42, 83, 107)"  x="7" y="22" width="1" height="1" /><rect shape-rendering="crispEdges" fill="rgb(17, 25, 25)"  x="7" y="23" width="1" height="1" /><rect shape-rendering="crispEdges" fill="rgb(181, 214, 239)"  x="7" y="24" width="1" height="1" /><rect shape-rendering="crispEdges" fill="rgb(238, 205, 189)"  x="8" y="12" width="1" height="1" /><rect shape-rendering="crispEdges" fill="rgb(238, 213, 197)"  x="8" y="13" width="1" height="1" /><rect shape-rendering="crispEdges" fill="rgb(246, 222, 205)"  x="8" y="14" width="1" height="1" /><rect shape-rendering="crispEdges" fill="rgb(246, 213, 197)"  x="8" y="15" width="1" height="1" /><rect shape-rendering="crispEdges" fill="rgb(178, 178, 174)"  x="8" y="16" width="1" height="1" /><rect shape-rendering="crispEdges" fill="rgb(0, 0, 0)"  x="8" y="17" width="1" height="1" /><rect shape-rendering="crispEdges" fill="rgb(203, 203, 198)"  x="8" y="18" width="1" height="1" /><rect shape-rendering="crispEdges" fill="rgb(167, 163, 159)"  x="8" y="19" width="1" height="1" /><rect shape-rendering="crispEdges" fill="rgb(255, 222, 205)"  x="8" y="20" width="1" height="1" /><rect shape-rendering="crispEdges" fill="rgb(175, 154, 142)"  x="8" y="21" width="1" height="1" /><rect shape-rendering="crispEdges" fill="rgb(25, 58, 75)"  x="8" y="22" width="1" height="1" /><rect shape-rendering="crispEdges" fill="rgb(17, 25, 25)"  x="8" y="23" width="1" height="1" /><rect shape-rendering="crispEdges" fill="rgb(190, 214, 239)"  x="8" y="24" width="1" height="1" /><rect shape-rendering="crispEdges" fill="rgb(188, 204, 220)"  x="9" y="6" width="1" height="1" /><rect shape-rendering="crispEdges" fill="rgb(220, 236, 251)"  x="9" y="7" width="1" height="1" /><rect shape-rendering="crispEdges" fill="rgb(72, 80, 87)"  x="9" y="8" width="1" height="1" /><rect shape-rendering="crispEdges" fill="rgb(28, 28, 28)"  x="9" y="9" width="1" height="1" /><rect shape-rendering="crispEdges" fill="rgb(68, 68, 84)"  x="9" y="10" width="1" height="1" /><rect shape-rendering="crispEdges" fill="rgb(177, 147, 133)"  x="9" y="11" width="1" height="1" /><rect shape-rendering="crispEdges" fill="rgb(243, 220, 205)"  x="9" y="12" width="1" height="1" /><rect shape-rendering="crispEdges" fill="rgb(243, 220, 205)"  x="9" y="13" width="1" height="1" /><rect shape-rendering="crispEdges" fill="rgb(247, 216, 208)"  x="9" y="14" width="1" height="1" /><rect shape-rendering="crispEdges" fill="rgb(230, 189, 172)"  x="9" y="15" width="1" height="1" /><rect shape-rendering="crispEdges" fill="rgb(189, 189, 185)"  x="9" y="16" width="1" height="1" /><rect shape-rendering="crispEdges" fill="rgb(162, 162, 162)"  x="9" y="17" width="1" height="1" /><rect shape-rendering="crispEdges" fill="rgb(0, 0, 0)"  x="9" y="18" width="1" height="1" /><rect shape-rendering="crispEdges" fill="rgb(198, 198, 193)"  x="9" y="19" width="1" height="1" /><rect shape-rendering="crispEdges" fill="rgb(118, 122, 129)"  x="9" y="20" width="1" height="1" /><rect shape-rendering="crispEdges" fill="rgb(182, 161, 151)"  x="9" y="21" width="1" height="1" /><rect shape-rendering="crispEdges" fill="rgb(9, 17, 25)"  x="9" y="22" width="1" height="1" /><rect shape-rendering="crispEdges" fill="rgb(77, 84, 100)"  x="9" y="23" width="1" height="1" /><rect shape-rendering="crispEdges" fill="rgb(196, 211, 228)"  x="9" y="24" width="1" height="1" /><rect shape-rendering="crispEdges" fill="rgb(188, 204, 220)"  x="10" y="5" width="1" height="1" /><rect shape-rendering="crispEdges" fill="rgb(206, 214, 239)"  x="10" y="6" width="1" height="1" /><rect shape-rendering="crispEdges" fill="rgb(223, 239, 255)"  x="10" y="7" width="1" height="1" /><rect shape-rendering="crispEdges" fill="rgb(223, 239, 255)"  x="10" y="8" width="1" height="1" /><rect shape-rendering="crispEdges" fill="rgb(9, 0, 0)"  x="10" y="9" width="1" height="1" /><rect shape-rendering="crispEdges" fill="rgb(0, 0, 0)"  x="10" y="10" width="1" height="1" /><rect shape-rendering="crispEdges" fill="rgb(201, 168, 150)"  x="10" y="11" width="1" height="1" /><rect shape-rendering="crispEdges" fill="rgb(246, 213, 189)"  x="10" y="12" width="1" height="1" /><rect shape-rendering="crispEdges" fill="rgb(247, 216, 208)"  x="10" y="13" width="1" height="1" /><rect shape-rendering="crispEdges" fill="rgb(247, 216, 208)"  x="10" y="14" width="1" height="1" /><rect shape-rendering="crispEdges" fill="rgb(246, 213, 197)"  x="10" y="15" width="1" height="1" /><rect shape-rendering="crispEdges" fill="rgb(238, 205, 180)"  x="10" y="16" width="1" height="1" /><rect shape-rendering="crispEdges" fill="rgb(162, 162, 162)"  x="10" y="17" width="1" height="1" /><rect shape-rendering="crispEdges" fill="rgb(0, 0, 0)"  x="10" y="18" width="1" height="1" /><rect shape-rendering="crispEdges" fill="rgb(33, 33, 50)"  x="10" y="19" width="1" height="1" /><rect shape-rendering="crispEdges" fill="rgb(50, 50, 66)"  x="10" y="20" width="1" height="1" /><rect shape-rendering="crispEdges" fill="rgb(107, 116, 132)"  x="10" y="21" width="1" height="1" /><rect shape-rendering="crispEdges" fill="rgb(9, 17, 17)"  x="10" y="22" width="1" height="1" /><rect shape-rendering="crispEdges" fill="rgb(198, 214, 239)"  x="10" y="23" width="1" height="1" /><rect shape-rendering="crispEdges" fill="rgb(188, 204, 220)"  x="11" y="5" width="1" height="1" /><rect shape-rendering="crispEdges" fill="rgb(206, 223, 239)"  x="11" y="6" width="1" height="1" /><rect shape-rendering="crispEdges" fill="rgb(223, 239, 255)"  x="11" y="7" width="1" height="1" /><rect shape-rendering="crispEdges" fill="rgb(223, 239, 255)"  x="11" y="8" width="1" height="1" /><rect shape-rendering="crispEdges" fill="rgb(17, 17, 17)"  x="11" y="9" width="1" height="1" /><rect shape-rendering="crispEdges" fill="rgb(0, 0, 0)"  x="11" y="10" width="1" height="1" /><rect shape-rendering="crispEdges" fill="rgb(213, 175, 161)"  x="11" y="11" width="1" height="1" /><rect shape-rendering="crispEdges" fill="rgb(230, 197, 172)"  x="11" y="12" width="1" height="1" /><rect shape-rendering="crispEdges" fill="rgb(246, 222, 205)"  x="11" y="13" width="1" height="1" /><rect shape-rendering="crispEdges" fill="rgb(246, 222, 197)"  x="11" y="14" width="1" height="1" /><rect shape-rendering="crispEdges" fill="rgb(246, 222, 205)"  x="11" y="15" width="1" height="1" /><rect shape-rendering="crispEdges" fill="rgb(246, 213, 197)"  x="11" y="16" width="1" height="1" /><rect shape-rendering="crispEdges" fill="rgb(177, 147, 133)"  x="11" y="17" width="1" height="1" /><rect shape-rendering="crispEdges" fill="rgb(228, 220, 205)"  x="11" y="18" width="1" height="1" /><rect shape-rendering="crispEdges" fill="rgb(42, 42, 58)"  x="11" y="19" width="1" height="1" /><rect shape-rendering="crispEdges" fill="rgb(50, 50, 66)"  x="11" y="20" width="1" height="1" /><rect shape-rendering="crispEdges" fill="rgb(17, 17, 25)"  x="11" y="21" width="1" height="1" /><rect shape-rendering="crispEdges" fill="rgb(190, 214, 239)"  x="11" y="22" width="1" height="1" /><rect shape-rendering="crispEdges" fill="rgb(196, 211, 228)"  x="11" y="23" width="1" height="1" /><rect shape-rendering="crispEdges" fill="rgb(188, 204, 220)"  x="12" y="5" width="1" height="1" /><rect shape-rendering="crispEdges" fill="rgb(206, 223, 239)"  x="12" y="6" width="1" height="1" /><rect shape-rendering="crispEdges" fill="rgb(223, 239, 255)"  x="12" y="7" width="1" height="1" /><rect shape-rendering="crispEdges" fill="rgb(223, 239, 255)"  x="12" y="8" width="1" height="1" /><rect shape-rendering="crispEdges" fill="rgb(17, 17, 17)"  x="12" y="9" width="1" height="1" /><rect shape-rendering="crispEdges" fill="rgb(0, 0, 0)"  x="12" y="10" width="1" height="1" /><rect shape-rendering="crispEdges" fill="rgb(213, 183, 161)"  x="12" y="11" width="1" height="1" /><rect shape-rendering="crispEdges" fill="rgb(230, 189, 172)"  x="12" y="12" width="1" height="1" /><rect shape-rendering="crispEdges" fill="rgb(246, 213, 189)"  x="12" y="13" width="1" height="1" /><rect shape-rendering="crispEdges" fill="rgb(238, 205, 189)"  x="12" y="14" width="1" height="1" /><rect shape-rendering="crispEdges" fill="rgb(238, 205, 180)"  x="12" y="15" width="1" height="1" /><rect shape-rendering="crispEdges" fill="rgb(238, 197, 180)"  x="12" y="16" width="1" height="1" /><rect shape-rendering="crispEdges" fill="rgb(238, 189, 172)"  x="12" y="17" width="1" height="1" /><rect shape-rendering="crispEdges" fill="rgb(177, 147, 133)"  x="12" y="18" width="1" height="1" /><rect shape-rendering="crispEdges" fill="rgb(33, 91, 116)"  x="12" y="19" width="1" height="1" /><rect shape-rendering="crispEdges" fill="rgb(9, 17, 17)"  x="12" y="20" width="1" height="1" /><rect shape-rendering="crispEdges" fill="rgb(80, 87, 94)"  x="12" y="21" width="1" height="1" /><rect shape-rendering="crispEdges" fill="rgb(190, 214, 239)"  x="12" y="22" width="1" height="1" /><rect shape-rendering="crispEdges" fill="rgb(188, 204, 220)"  x="13" y="5" width="1" height="1" /><rect shape-rendering="crispEdges" fill="rgb(206, 223, 239)"  x="13" y="6" width="1" height="1" /><rect shape-rendering="crispEdges" fill="rgb(223, 239, 255)"  x="13" y="7" width="1" height="1" /><rect shape-rendering="crispEdges" fill="rgb(223, 239, 255)"  x="13" y="8" width="1" height="1" /><rect shape-rendering="crispEdges" fill="rgb(0, 0, 0)"  x="13" y="9" width="1" height="1" /><rect shape-rendering="crispEdges" fill="rgb(0, 0, 0)"  x="13" y="10" width="1" height="1" /><rect shape-rendering="crispEdges" fill="rgb(220, 175, 161)"  x="13" y="11" width="1" height="1" /><rect shape-rendering="crispEdges" fill="rgb(230, 189, 172)"  x="13" y="12" width="1" height="1" /><rect shape-rendering="crispEdges" fill="rgb(238, 205, 180)"  x="13" y="13" width="1" height="1" /><rect shape-rendering="crispEdges" fill="rgb(238, 197, 180)"  x="13" y="14" width="1" height="1" /><rect shape-rendering="crispEdges" fill="rgb(238, 197, 172)"  x="13" y="15" width="1" height="1" /><rect shape-rendering="crispEdges" fill="rgb(207, 168, 150)"  x="13" y="16" width="1" height="1" /><rect shape-rendering="crispEdges" fill="rgb(177, 147, 133)"  x="13" y="17" width="1" height="1" /><rect shape-rendering="crispEdges" fill="rgb(230, 189, 172)"  x="13" y="18" width="1" height="1" /><rect shape-rendering="crispEdges" fill="rgb(27, 27, 35)"  x="13" y="19" width="1" height="1" /><rect shape-rendering="crispEdges" fill="rgb(181, 214, 239)"  x="13" y="20" width="1" height="1" /><rect shape-rendering="crispEdges" fill="rgb(190, 214, 239)"  x="13" y="21" width="1" height="1" /><rect shape-rendering="crispEdges" fill="rgb(188, 204, 220)"  x="14" y="5" width="1" height="1" /><rect shape-rendering="crispEdges" fill="rgb(204, 220, 236)"  x="14" y="6" width="1" height="1" /><rect shape-rendering="crispEdges" fill="rgb(223, 239, 255)"  x="14" y="7" width="1" height="1" /><rect shape-rendering="crispEdges" fill="rgb(132, 140, 149)"  x="14" y="8" width="1" height="1" /><rect shape-rendering="crispEdges" fill="rgb(25, 25, 25)"  x="14" y="9" width="1" height="1" /><rect shape-rendering="crispEdges" fill="rgb(9, 17, 17)"  x="14" y="10" width="1" height="1" /><rect shape-rendering="crispEdges" fill="rgb(177, 147, 133)"  x="14" y="11" width="1" height="1" /><rect shape-rendering="crispEdges" fill="rgb(220, 183, 161)"  x="14" y="12" width="1" height="1" /><rect shape-rendering="crispEdges" fill="rgb(207, 168, 150)"  x="14" y="13" width="1" height="1" /><rect shape-rendering="crispEdges" fill="rgb(201, 168, 150)"  x="14" y="14" width="1" height="1" /><rect shape-rendering="crispEdges" fill="rgb(189, 156, 141)"  x="14" y="15" width="1" height="1" /><rect shape-rendering="crispEdges" fill="rgb(172, 147, 133)"  x="14" y="16" width="1" height="1" /><rect shape-rendering="crispEdges" fill="rgb(25, 50, 75)"  x="14" y="17" width="1" height="1" /><rect shape-rendering="crispEdges" fill="rgb(17, 17, 25)"  x="14" y="18" width="1" height="1" /><rect shape-rendering="crispEdges" fill="rgb(190, 214, 239)"  x="14" y="19" width="1" height="1" /><rect shape-rendering="crispEdges" fill="rgb(196, 211, 228)"  x="15" y="6" width="1" height="1" /><rect shape-rendering="crispEdges" fill="rgb(220, 236, 251)"  x="15" y="7" width="1" height="1" /><rect shape-rendering="crispEdges" fill="rgb(83, 91, 99)"  x="15" y="8" width="1" height="1" /><rect shape-rendering="crispEdges" fill="rgb(58, 66, 75)"  x="15" y="9" width="1" height="1" /><rect shape-rendering="crispEdges" fill="rgb(50, 83, 107)"  x="15" y="10" width="1" height="1" /><rect shape-rendering="crispEdges" fill="rgb(25, 66, 83)"  x="15" y="11" width="1" height="1" /><rect shape-rendering="crispEdges" fill="rgb(33, 66, 91)"  x="15" y="12" width="1" height="1" /><rect shape-rendering="crispEdges" fill="rgb(33, 75, 99)"  x="15" y="13" width="1" height="1" /><rect shape-rendering="crispEdges" fill="rgb(42, 83, 107)"  x="15" y="14" width="1" height="1" /><rect shape-rendering="crispEdges" fill="rgb(17, 17, 25)"  x="15" y="15" width="1" height="1" /><rect shape-rendering="crispEdges" fill="rgb(25, 42, 50)"  x="15" y="16" width="1" height="1" /><rect shape-rendering="crispEdges" fill="rgb(17, 17, 25)"  x="15" y="17" width="1" height="1" /><rect shape-rendering="crispEdges" fill="rgb(190, 214, 239)"  x="15" y="18" width="1" height="1" /><rect shape-rendering="crispEdges" fill="rgb(198, 214, 239)"  x="15" y="19" width="1" height="1" /><rect shape-rendering="crispEdges" fill="rgb(198, 214, 239)"  x="15" y="20" width="1" height="1" /><rect shape-rendering="crispEdges" fill="rgb(220, 236, 251)"  x="16" y="7" width="1" height="1" /><rect shape-rendering="crispEdges" fill="rgb(91, 99, 107)"  x="16" y="8" width="1" height="1" /><rect shape-rendering="crispEdges" fill="rgb(75, 75, 91)"  x="16" y="9" width="1" height="1" /><rect shape-rendering="crispEdges" fill="rgb(83, 83, 99)"  x="16" y="10" width="1" height="1" /><rect shape-rendering="crispEdges" fill="rgb(75, 91, 116)"  x="16" y="11" width="1" height="1" /><rect shape-rendering="crispEdges" fill="rgb(75, 99, 116)"  x="16" y="12" width="1" height="1" /><rect shape-rendering="crispEdges" fill="rgb(33, 42, 42)"  x="16" y="13" width="1" height="1" /><rect shape-rendering="crispEdges" fill="rgb(25, 33, 33)"  x="16" y="14" width="1" height="1" /><rect shape-rendering="crispEdges" fill="rgb(66, 66, 83)"  x="16" y="15" width="1" height="1" /><rect shape-rendering="crispEdges" fill="rgb(58, 66, 75)"  x="16" y="16" width="1" height="1" /><rect shape-rendering="crispEdges" fill="rgb(33, 33, 42)"  x="16" y="17" width="1" height="1" /><rect shape-rendering="crispEdges" fill="rgb(25, 33, 33)"  x="16" y="18" width="1" height="1" /><rect shape-rendering="crispEdges" fill="rgb(45, 45, 60)"  x="16" y="19" width="1" height="1" /><rect shape-rendering="crispEdges" fill="rgb(52, 52, 68)"  x="16" y="20" width="1" height="1" /><rect shape-rendering="crispEdges" fill="rgb(220, 236, 251)"  x="17" y="7" width="1" height="1" /><rect shape-rendering="crispEdges" fill="rgb(206, 214, 231)"  x="17" y="8" width="1" height="1" /><rect shape-rendering="crispEdges" fill="rgb(190, 206, 223)"  x="17" y="9" width="1" height="1" /><rect shape-rendering="crispEdges" fill="rgb(181, 198, 214)"  x="17" y="10" width="1" height="1" /><rect shape-rendering="crispEdges" fill="rgb(165, 181, 206)"  x="17" y="11" width="1" height="1" /><rect shape-rendering="crispEdges" fill="rgb(165, 181, 198)"  x="17" y="12" width="1" height="1" /><rect shape-rendering="crispEdges" fill="rgb(165, 181, 198)"  x="17" y="13" width="1" height="1" /><rect shape-rendering="crispEdges" fill="rgb(165, 181, 206)"  x="17" y="14" width="1" height="1" /><rect shape-rendering="crispEdges" fill="rgb(165, 181, 206)"  x="17" y="15" width="1" height="1" /><rect shape-rendering="crispEdges" fill="rgb(173, 190, 206)"  x="17" y="16" width="1" height="1" /><rect shape-rendering="crispEdges" fill="rgb(181, 190, 214)"  x="17" y="17" width="1" height="1" /><rect shape-rendering="crispEdges" fill="rgb(198, 206, 223)"  x="17" y="18" width="1" height="1" /><rect shape-rendering="crispEdges" fill="rgb(204, 211, 228)"  x="17" y="19" width="1" height="1" /><rect shape-rendering="crispEdges" fill="rgb(196, 211, 228)"  x="18" y="6" width="1" height="1" /><rect shape-rendering="crispEdges" fill="rgb(220, 236, 251)"  x="18" y="7" width="1" height="1" /><rect shape-rendering="crispEdges" fill="rgb(157, 165, 181)"  x="18" y="8" width="1" height="1" /><rect shape-rendering="crispEdges" fill="rgb(33, 33, 50)"  x="18" y="9" width="1" height="1" /><rect shape-rendering="crispEdges" fill="rgb(50, 58, 66)"  x="18" y="10" width="1" height="1" /><rect shape-rendering="crispEdges" fill="rgb(42, 58, 75)"  x="18" y="11" width="1" height="1" /><rect shape-rendering="crispEdges" fill="rgb(50, 99, 124)"  x="18" y="12" width="1" height="1" /><rect shape-rendering="crispEdges" fill="rgb(58, 91, 116)"  x="18" y="13" width="1" height="1" /><rect shape-rendering="crispEdges" fill="rgb(42, 50, 58)"  x="18" y="14" width="1" height="1" /><rect shape-rendering="crispEdges" fill="rgb(42, 50, 58)"  x="18" y="15" width="1" height="1" /><rect shape-rendering="crispEdges" fill="rgb(66, 75, 91)"  x="18" y="16" width="1" height="1" /><rect shape-rendering="crispEdges" fill="rgb(58, 66, 83)"  x="18" y="17" width="1" height="1" /><rect shape-rendering="crispEdges" fill="rgb(42, 42, 58)"  x="18" y="18" width="1" height="1" /><rect shape-rendering="crispEdges" fill="rgb(27, 27, 35)"  x="18" y="19" width="1" height="1" /><rect shape-rendering="crispEdges" fill="rgb(181, 214, 239)"  x="18" y="20" width="1" height="1" /><rect shape-rendering="crispEdges" fill="rgb(198, 214, 239)"  x="18" y="21" width="1" height="1" /><rect shape-rendering="crispEdges" fill="rgb(188, 204, 220)"  x="19" y="5" width="1" height="1" /><rect shape-rendering="crispEdges" fill="rgb(204, 220, 236)"  x="19" y="6" width="1" height="1" /><rect shape-rendering="crispEdges" fill="rgb(223, 239, 255)"  x="19" y="7" width="1" height="1" /><rect shape-rendering="crispEdges" fill="rgb(223, 239, 255)"  x="19" y="8" width="1" height="1" /><rect shape-rendering="crispEdges" fill="rgb(0, 0, 0)"  x="19" y="9" width="1" height="1" /><rect shape-rendering="crispEdges" fill="rgb(25, 33, 42)"  x="19" y="10" width="1" height="1" /><rect shape-rendering="crispEdges" fill="rgb(33, 91, 116)"  x="19" y="11" width="1" height="1" /><rect shape-rendering="crispEdges" fill="rgb(17, 58, 83)"  x="19" y="12" width="1" height="1" /><rect shape-rendering="crispEdges" fill="rgb(25, 66, 91)"  x="19" y="13" width="1" height="1" /><rect shape-rendering="crispEdges" fill="rgb(25, 66, 91)"  x="19" y="14" width="1" height="1" /><rect shape-rendering="crispEdges" fill="rgb(33, 75, 99)"  x="19" y="15" width="1" height="1" /><rect shape-rendering="crispEdges" fill="rgb(50, 83, 107)"  x="19" y="16" width="1" height="1" /><rect shape-rendering="crispEdges" fill="rgb(50, 83, 107)"  x="19" y="17" width="1" height="1" /><rect shape-rendering="crispEdges" fill="rgb(33, 83, 107)"  x="19" y="18" width="1" height="1" /><rect shape-rendering="crispEdges" fill="rgb(42, 42, 50)"  x="19" y="19" width="1" height="1" /><rect shape-rendering="crispEdges" fill="rgb(17, 17, 25)"  x="19" y="20" width="1" height="1" /><rect shape-rendering="crispEdges" fill="rgb(27, 27, 35)"  x="19" y="21" width="1" height="1" /><rect shape-rendering="crispEdges" fill="rgb(198, 214, 239)"  x="19" y="22" width="1" height="1" /><rect shape-rendering="crispEdges" fill="rgb(188, 204, 220)"  x="20" y="5" width="1" height="1" /><rect shape-rendering="crispEdges" fill="rgb(214, 231, 247)"  x="20" y="6" width="1" height="1" /><rect shape-rendering="crispEdges" fill="rgb(223, 231, 255)"  x="20" y="7" width="1" height="1" /><rect shape-rendering="crispEdges" fill="rgb(223, 239, 255)"  x="20" y="8" width="1" height="1" /><rect shape-rendering="crispEdges" fill="rgb(25, 25, 25)"  x="20" y="9" width="1" height="1" /><rect shape-rendering="crispEdges" fill="rgb(0, 0, 9)"  x="20" y="10" width="1" height="1" /><rect shape-rendering="crispEdges" fill="rgb(25, 58, 75)"  x="20" y="11" width="1" height="1" /><rect shape-rendering="crispEdges" fill="rgb(218, 184, 171)"  x="20" y="12" width="1" height="1" /><rect shape-rendering="crispEdges" fill="rgb(232, 201, 186)"  x="20" y="13" width="1" height="1" /><rect shape-rendering="crispEdges" fill="rgb(218, 191, 171)"  x="20" y="14" width="1" height="1" /><rect shape-rendering="crispEdges" fill="rgb(218, 184, 171)"  x="20" y="15" width="1" height="1" /><rect shape-rendering="crispEdges" fill="rgb(17, 66, 83)"  x="20" y="16" width="1" height="1" /><rect shape-rendering="crispEdges" fill="rgb(33, 91, 116)"  x="20" y="17" width="1" height="1" /><rect shape-rendering="crispEdges" fill="rgb(17, 25, 33)"  x="20" y="18" width="1" height="1" /><rect shape-rendering="crispEdges" fill="rgb(42, 42, 58)"  x="20" y="19" width="1" height="1" /><rect shape-rendering="crispEdges" fill="rgb(58, 58, 75)"  x="20" y="20" width="1" height="1" /><rect shape-rendering="crispEdges" fill="rgb(107, 116, 132)"  x="20" y="21" width="1" height="1" /><rect shape-rendering="crispEdges" fill="rgb(27, 35, 42)"  x="20" y="22" width="1" height="1" /><rect shape-rendering="crispEdges" fill="rgb(190, 214, 239)"  x="20" y="23" width="1" height="1" /><rect shape-rendering="crispEdges" fill="rgb(188, 204, 220)"  x="21" y="5" width="1" height="1" /><rect shape-rendering="crispEdges" fill="rgb(214, 223, 239)"  x="21" y="6" width="1" height="1" /><rect shape-rendering="crispEdges" fill="rgb(223, 231, 247)"  x="21" y="7" width="1" height="1" /><rect shape-rendering="crispEdges" fill="rgb(223, 239, 255)"  x="21" y="8" width="1" height="1" /><rect shape-rendering="crispEdges" fill="rgb(42, 42, 50)"  x="21" y="9" width="1" height="1" /><rect shape-rendering="crispEdges" fill="rgb(0, 0, 0)"  x="21" y="10" width="1" height="1" /><rect shape-rendering="crispEdges" fill="rgb(25, 66, 83)"  x="21" y="11" width="1" height="1" /><rect shape-rendering="crispEdges" fill="rgb(207, 177, 159)"  x="21" y="12" width="1" height="1" /><rect shape-rendering="crispEdges" fill="rgb(246, 222, 205)"  x="21" y="13" width="1" height="1" /><rect shape-rendering="crispEdges" fill="rgb(246, 222, 205)"  x="21" y="14" width="1" height="1" /><rect shape-rendering="crispEdges" fill="rgb(239, 208, 186)"  x="21" y="15" width="1" height="1" /><rect shape-rendering="crispEdges" fill="rgb(33, 91, 116)"  x="21" y="16" width="1" height="1" /><rect shape-rendering="crispEdges" fill="rgb(9, 9, 25)"  x="21" y="17" width="1" height="1" /><rect shape-rendering="crispEdges" fill="rgb(17, 17, 33)"  x="21" y="18" width="1" height="1" /><rect shape-rendering="crispEdges" fill="rgb(33, 33, 50)"  x="21" y="19" width="1" height="1" /><rect shape-rendering="crispEdges" fill="rgb(99, 107, 124)"  x="21" y="20" width="1" height="1" /><rect shape-rendering="crispEdges" fill="rgb(130, 129, 128)"  x="21" y="21" width="1" height="1" /><rect shape-rendering="crispEdges" fill="rgb(110, 121, 127)"  x="21" y="22" width="1" height="1" /><rect shape-rendering="crispEdges" fill="rgb(27, 27, 35)"  x="21" y="23" width="1" height="1" /><rect shape-rendering="crispEdges" fill="rgb(198, 214, 239)"  x="21" y="24" width="1" height="1" /><rect shape-rendering="crispEdges" fill="rgb(188, 204, 220)"  x="22" y="5" width="1" height="1" /><rect shape-rendering="crispEdges" fill="rgb(214, 223, 239)"  x="22" y="6" width="1" height="1" /><rect shape-rendering="crispEdges" fill="rgb(223, 231, 255)"  x="22" y="7" width="1" height="1" /><rect shape-rendering="crispEdges" fill="rgb(223, 239, 255)"  x="22" y="8" width="1" height="1" /><rect shape-rendering="crispEdges" fill="rgb(9, 9, 17)"  x="22" y="9" width="1" height="1" /><rect shape-rendering="crispEdges" fill="rgb(0, 0, 0)"  x="22" y="10" width="1" height="1" /><rect shape-rendering="crispEdges" fill="rgb(190, 165, 150)"  x="22" y="11" width="1" height="1" /><rect shape-rendering="crispEdges" fill="rgb(218, 191, 171)"  x="22" y="12" width="1" height="1" /><rect shape-rendering="crispEdges" fill="rgb(255, 222, 213)"  x="22" y="13" width="1" height="1" /><rect shape-rendering="crispEdges" fill="rgb(246, 222, 205)"  x="22" y="14" width="1" height="1" /><rect shape-rendering="crispEdges" fill="rgb(207, 177, 159)"  x="22" y="15" width="1" height="1" /><rect shape-rendering="crispEdges" fill="rgb(9, 9, 17)"  x="22" y="16" width="1" height="1" /><rect shape-rendering="crispEdges" fill="rgb(0, 0, 0)"  x="22" y="17" width="1" height="1" /><rect shape-rendering="crispEdges" fill="rgb(9, 9, 9)"  x="22" y="18" width="1" height="1" /><rect shape-rendering="crispEdges" fill="rgb(107, 116, 132)"  x="22" y="19" width="1" height="1" /><rect shape-rendering="crispEdges" fill="rgb(239, 217, 202)"  x="22" y="20" width="1" height="1" /><rect shape-rendering="crispEdges" fill="rgb(246, 205, 180)"  x="22" y="21" width="1" height="1" /><rect shape-rendering="crispEdges" fill="rgb(155, 141, 134)"  x="22" y="22" width="1" height="1" /><rect shape-rendering="crispEdges" fill="rgb(17, 17, 25)"  x="22" y="23" width="1" height="1" /><rect shape-rendering="crispEdges" fill="rgb(190, 214, 239)"  x="22" y="24" width="1" height="1" /><rect shape-rendering="crispEdges" fill="rgb(188, 204, 220)"  x="23" y="5" width="1" height="1" /><rect shape-rendering="crispEdges" fill="rgb(214, 223, 247)"  x="23" y="6" width="1" height="1" /><rect shape-rendering="crispEdges" fill="rgb(223, 239, 255)"  x="23" y="7" width="1" height="1" /><rect shape-rendering="crispEdges" fill="rgb(223, 239, 255)"  x="23" y="8" width="1" height="1" /><rect shape-rendering="crispEdges" fill="rgb(0, 0, 0)"  x="23" y="9" width="1" height="1" /><rect shape-rendering="crispEdges" fill="rgb(0, 0, 0)"  x="23" y="10" width="1" height="1" /><rect shape-rendering="crispEdges" fill="rgb(212, 184, 171)"  x="23" y="11" width="1" height="1" /><rect shape-rendering="crispEdges" fill="rgb(246, 222, 197)"  x="23" y="12" width="1" height="1" /><rect shape-rendering="crispEdges" fill="rgb(255, 230, 213)"  x="23" y="13" width="1" height="1" /><rect shape-rendering="crispEdges" fill="rgb(246, 222, 205)"  x="23" y="14" width="1" height="1" /><rect shape-rendering="crispEdges" fill="rgb(179, 154, 142)"  x="23" y="15" width="1" height="1" /><rect shape-rendering="crispEdges" fill="rgb(0, 0, 9)"  x="23" y="16" width="1" height="1" /><rect shape-rendering="crispEdges" fill="rgb(0, 0, 0)"  x="23" y="17" width="1" height="1" /><rect shape-rendering="crispEdges" fill="rgb(130, 130, 130)"  x="23" y="18" width="1" height="1" /><rect shape-rendering="crispEdges" fill="rgb(217, 202, 188)"  x="23" y="19" width="1" height="1" /><rect shape-rendering="crispEdges" fill="rgb(255, 230, 205)"  x="23" y="20" width="1" height="1" /><rect shape-rendering="crispEdges" fill="rgb(246, 213, 189)"  x="23" y="21" width="1" height="1" /><rect shape-rendering="crispEdges" fill="rgb(210, 177, 157)"  x="23" y="22" width="1" height="1" /><rect shape-rendering="crispEdges" fill="rgb(17, 17, 25)"  x="23" y="23" width="1" height="1" /><rect shape-rendering="crispEdges" fill="rgb(181, 214, 239)"  x="23" y="24" width="1" height="1" /><rect shape-rendering="crispEdges" fill="rgb(211, 220, 236)"  x="24" y="6" width="1" height="1" /><rect shape-rendering="crispEdges" fill="rgb(220, 236, 251)"  x="24" y="7" width="1" height="1" /><rect shape-rendering="crispEdges" fill="rgb(72, 80, 87)"  x="24" y="8" width="1" height="1" /><rect shape-rendering="crispEdges" fill="rgb(13, 13, 28)"  x="24" y="9" width="1" height="1" /><rect shape-rendering="crispEdges" fill="rgb(72, 80, 87)"  x="24" y="10" width="1" height="1" /><rect shape-rendering="crispEdges" fill="rgb(246, 213, 197)"  x="24" y="11" width="1" height="1" /><rect shape-rendering="crispEdges" fill="rgb(232, 208, 186)"  x="24" y="12" width="1" height="1" /><rect shape-rendering="crispEdges" fill="rgb(246, 213, 197)"  x="24" y="13" width="1" height="1" /><rect shape-rendering="crispEdges" fill="rgb(246, 222, 205)"  x="24" y="14" width="1" height="1" /><rect shape-rendering="crispEdges" fill="rgb(190, 165, 150)"  x="24" y="15" width="1" height="1" /><rect shape-rendering="crispEdges" fill="rgb(0, 9, 9)"  x="24" y="16" width="1" height="1" /><rect shape-rendering="crispEdges" fill="rgb(0, 0, 0)"  x="24" y="17" width="1" height="1" /><rect shape-rendering="crispEdges" fill="rgb(130, 130, 130)"  x="24" y="18" width="1" height="1" /><rect shape-rendering="crispEdges" fill="rgb(246, 222, 205)"  x="24" y="19" width="1" height="1" /><rect shape-rendering="crispEdges" fill="rgb(246, 222, 205)"  x="24" y="20" width="1" height="1" /><rect shape-rendering="crispEdges" fill="rgb(238, 205, 189)"  x="24" y="21" width="1" height="1" /><rect shape-rendering="crispEdges" fill="rgb(210, 177, 157)"  x="24" y="22" width="1" height="1" /><rect shape-rendering="crispEdges" fill="rgb(17, 17, 25)"  x="24" y="23" width="1" height="1" /><rect shape-rendering="crispEdges" fill="rgb(181, 214, 239)"  x="24" y="24" width="1" height="1" /><rect shape-rendering="crispEdges" fill="rgb(238, 222, 213)"  x="25" y="14" width="1" height="1" /><rect shape-rendering="crispEdges" fill="rgb(212, 191, 171)"  x="25" y="15" width="1" height="1" /><rect shape-rendering="crispEdges" fill="rgb(28, 28, 45)"  x="25" y="16" width="1" height="1" /><rect shape-rendering="crispEdges" fill="rgb(12, 12, 20)"  x="25" y="17" width="1" height="1" /><rect shape-rendering="crispEdges" fill="rgb(130, 130, 130)"  x="25" y="18" width="1" height="1" /><rect shape-rendering="crispEdges" fill="rgb(246, 222, 197)"  x="25" y="19" width="1" height="1" /><rect shape-rendering="crispEdges" fill="rgb(246, 213, 197)"  x="25" y="20" width="1" height="1" /><rect shape-rendering="crispEdges" fill="rgb(238, 205, 180)"  x="25" y="21" width="1" height="1" /><rect shape-rendering="crispEdges" fill="rgb(210, 177, 157)"  x="25" y="22" width="1" height="1" /><rect shape-rendering="crispEdges" fill="rgb(17, 17, 25)"  x="25" y="23" width="1" height="1" /><rect shape-rendering="crispEdges" fill="rgb(181, 214, 239)"  x="25" y="24" width="1" height="1" /><rect shape-rendering="crispEdges" fill="rgb(72, 80, 87)"  x="26" y="17" width="1" height="1" /><rect shape-rendering="crispEdges" fill="rgb(163, 163, 158)"  x="26" y="18" width="1" height="1" /><rect shape-rendering="crispEdges" fill="rgb(107, 116, 132)"  x="26" y="19" width="1" height="1" /><rect shape-rendering="crispEdges" fill="rgb(246, 213, 197)"  x="26" y="20" width="1" height="1" /><rect shape-rendering="crispEdges" fill="rgb(238, 197, 180)"  x="26" y="21" width="1" height="1" /><rect shape-rendering="crispEdges" fill="rgb(210, 177, 157)"  x="26" y="22" width="1" height="1" /><rect shape-rendering="crispEdges" fill="rgb(27, 27, 35)"  x="26" y="23" width="1" height="1" /><rect shape-rendering="crispEdges" fill="rgb(190, 214, 239)"  x="26" y="24" width="1" height="1" /><rect shape-rendering="crispEdges" fill="rgb(72, 80, 87)"  x="27" y="18" width="1" height="1" /><rect shape-rendering="crispEdges" fill="rgb(163, 163, 158)"  x="27" y="19" width="1" height="1" /><rect shape-rendering="crispEdges" fill="rgb(108, 116, 132)"  x="27" y="20" width="1" height="1" /><rect shape-rendering="crispEdges" fill="rgb(217, 181, 166)"  x="27" y="21" width="1" height="1" /><rect shape-rendering="crispEdges" fill="rgb(137, 137, 136)"  x="27" y="22" width="1" height="1" /><rect shape-rendering="crispEdges" fill="rgb(190, 214, 239)"  x="27" y="23" width="1" height="1" /><rect shape-rendering="crispEdges" fill="rgb(108, 116, 132)"  x="28" y="22" width="1" height="1" /></svg>