<svg xmlns="http://www.w3.org/2000/svg" xmlns:xlink= "http://www.w3.org/1999/xlink" width="32" height="32" viewBox ="0 0 32 32"><rect shape-rendering="crispEdges" fill="rgb(148, 16, 16)"  x="5" y="20" width="1" height="1" /><rect shape-rendering="crispEdges" fill="rgb(74, 41, 41)"  x="5" y="21" width="1" height="1" /><rect shape-rendering="crispEdges" fill="rgb(32, 24, 32)"  x="5" y="22" width="1" height="1" /><rect shape-rendering="crispEdges" fill="rgb(32, 24, 24)"  x="5" y="23" width="1" height="1" /><rect shape-rendering="crispEdges" fill="rgb(32, 24, 24)"  x="5" y="24" width="1" height="1" /><rect shape-rendering="crispEdges" fill="rgb(164, 16, 8)"  x="6" y="19" width="1" height="1" /><rect shape-rendering="crispEdges" fill="rgb(156, 8, 8)"  x="6" y="20" width="1" height="1" /><rect shape-rendering="crispEdges" fill="rgb(74, 41, 41)"  x="6" y="21" width="1" height="1" /><rect shape-rendering="crispEdges" fill="rgb(49, 49, 57)"  x="6" y="22" width="1" height="1" /><rect shape-rendering="crispEdges" fill="rgb(49, 41, 41)"  x="6" y="23" width="1" height="1" /><rect shape-rendering="crispEdges" fill="rgb(32, 24, 24)"  x="6" y="24" width="1" height="1" /><rect shape-rendering="crispEdges" fill="rgb(32, 24, 24)"  x="6" y="25" width="1" height="1" /><rect shape-rendering="crispEdges" fill="rgb(180, 16, 8)"  x="7" y="18" width="1" height="1" /><rect shape-rendering="crispEdges" fill="rgb(180, 8, 0)"  x="7" y="19" width="1" height="1" /><rect shape-rendering="crispEdges" fill="rgb(205, 8, 0)"  x="7" y="20" width="1" height="1" /><rect shape-rendering="crispEdges" fill="rgb(106, 41, 49)"  x="7" y="21" width="1" height="1" /><rect shape-rendering="crispEdges" fill="rgb(74, 74, 82)"  x="7" y="22" width="1" height="1" /><rect shape-rendering="crispEdges" fill="rgb(74, 65, 74)"  x="7" y="23" width="1" height="1" /><rect shape-rendering="crispEdges" fill="rgb(41, 32, 41)"  x="7" y="24" width="1" height="1" /><rect shape-rendering="crispEdges" fill="rgb(24, 16, 24)"  x="7" y="25" width="1" height="1" /><rect shape-rendering="crispEdges" fill="rgb(172, 8, 8)"  x="8" y="17" width="1" height="1" /><rect shape-rendering="crispEdges" fill="rgb(172, 8, 8)"  x="8" y="18" width="1" height="1" /><rect shape-rendering="crispEdges" fill="rgb(213, 115, 32)"  x="8" y="19" width="1" height="1" /><rect shape-rendering="crispEdges" fill="rgb(255, 65, 16)"  x="8" y="20" width="1" height="1" /><rect shape-rendering="crispEdges" fill="rgb(164, 24, 32)"  x="8" y="21" width="1" height="1" /><rect shape-rendering="crispEdges" fill="rgb(82, 82, 98)"  x="8" y="22" width="1" height="1" /><rect shape-rendering="crispEdges" fill="rgb(90, 82, 90)"  x="8" y="23" width="1" height="1" /><rect shape-rendering="crispEdges" fill="rgb(57, 49, 49)"  x="8" y="24" width="1" height="1" /><rect shape-rendering="crispEdges" fill="rgb(24, 16, 24)"  x="8" y="25" width="1" height="1" /><rect shape-rendering="crispEdges" fill="rgb(172, 8, 8)"  x="9" y="16" width="1" height="1" /><rect shape-rendering="crispEdges" fill="rgb(172, 8, 8)"  x="9" y="17" width="1" height="1" /><rect shape-rendering="crispEdges" fill="rgb(189, 32, 8)"  x="9" y="18" width="1" height="1" /><rect shape-rendering="crispEdges" fill="rgb(246, 189, 65)"  x="9" y="19" width="1" height="1" /><rect shape-rendering="crispEdges" fill="rgb(255, 98, 16)"  x="9" y="20" width="1" height="1" /><rect shape-rendering="crispEdges" fill="rgb(222, 0, 0)"  x="9" y="21" width="1" height="1" /><rect shape-rendering="crispEdges" fill="rgb(90, 57, 57)"  x="9" y="22" width="1" height="1" /><rect shape-rendering="crispEdges" fill="rgb(90, 82, 90)"  x="9" y="23" width="1" height="1" /><rect shape-rendering="crispEdges" fill="rgb(82, 74, 82)"  x="9" y="24" width="1" height="1" /><rect shape-rendering="crispEdges" fill="rgb(41, 32, 41)"  x="9" y="25" width="1" height="1" /><rect shape-rendering="crispEdges" fill="rgb(172, 8, 8)"  x="10" y="15" width="1" height="1" /><rect shape-rendering="crispEdges" fill="rgb(172, 8, 8)"  x="10" y="16" width="1" height="1" /><rect shape-rendering="crispEdges" fill="rgb(189, 57, 24)"  x="10" y="17" width="1" height="1" /><rect shape-rendering="crispEdges" fill="rgb(238, 139, 49)"  x="10" y="18" width="1" height="1" /><rect shape-rendering="crispEdges" fill="rgb(255, 139, 8)"  x="10" y="19" width="1" height="1" /><rect shape-rendering="crispEdges" fill="rgb(255, 74, 0)"  x="10" y="20" width="1" height="1" /><rect shape-rendering="crispEdges" fill="rgb(205, 0, 0)"  x="10" y="21" width="1" height="1" /><rect shape-rendering="crispEdges" fill="rgb(148, 41, 32)"  x="10" y="22" width="1" height="1" /><rect shape-rendering="crispEdges" fill="rgb(24, 16, 24)"  x="10" y="23" width="1" height="1" /><rect shape-rendering="crispEdges" fill="rgb(24, 16, 24)"  x="10" y="24" width="1" height="1" /><rect shape-rendering="crispEdges" fill="rgb(24, 16, 24)"  x="10" y="25" width="1" height="1" /><rect shape-rendering="crispEdges" fill="rgb(24, 16, 24)"  x="10" y="26" width="1" height="1" /><rect shape-rendering="crispEdges" fill="rgb(172, 8, 8)"  x="11" y="14" width="1" height="1" /><rect shape-rendering="crispEdges" fill="rgb(172, 8, 8)"  x="11" y="15" width="1" height="1" /><rect shape-rendering="crispEdges" fill="rgb(172, 8, 8)"  x="11" y="16" width="1" height="1" /><rect shape-rendering="crispEdges" fill="rgb(180, 98, 57)"  x="11" y="17" width="1" height="1" /><rect shape-rendering="crispEdges" fill="rgb(255, 222, 49)"  x="11" y="18" width="1" height="1" /><rect shape-rendering="crispEdges" fill="rgb(255, 65, 0)"  x="11" y="19" width="1" height="1" /><rect shape-rendering="crispEdges" fill="rgb(205, 57, 8)"  x="11" y="20" width="1" height="1" /><rect shape-rendering="crispEdges" fill="rgb(148, 24, 24)"  x="11" y="21" width="1" height="1" /><rect shape-rendering="crispEdges" fill="rgb(197, 24, 16)"  x="11" y="22" width="1" height="1" /><rect shape-rendering="crispEdges" fill="rgb(123, 16, 16)"  x="11" y="23" width="1" height="1" /><rect shape-rendering="crispEdges" fill="rgb(41, 49, 49)"  x="11" y="24" width="1" height="1" /><rect shape-rendering="crispEdges" fill="rgb(49, 41, 49)"  x="11" y="25" width="1" height="1" /><rect shape-rendering="crispEdges" fill="rgb(24, 16, 24)"  x="11" y="26" width="1" height="1" /><rect shape-rendering="crispEdges" fill="rgb(189, 24, 32)"  x="12" y="13" width="1" height="1" /><rect shape-rendering="crispEdges" fill="rgb(172, 8, 8)"  x="12" y="14" width="1" height="1" /><rect shape-rendering="crispEdges" fill="rgb(222, 16, 8)"  x="12" y="15" width="1" height="1" /><rect shape-rendering="crispEdges" fill="rgb(123, 65, 65)"  x="12" y="16" width="1" height="1" /><rect shape-rendering="crispEdges" fill="rgb(90, 74, 82)"  x="12" y="17" width="1" height="1" /><rect shape-rendering="crispEdges" fill="rgb(238, 148, 8)"  x="12" y="18" width="1" height="1" /><rect shape-rendering="crispEdges" fill="rgb(213, 24, 8)"  x="12" y="19" width="1" height="1" /><rect shape-rendering="crispEdges" fill="rgb(139, 32, 24)"  x="12" y="20" width="1" height="1" /><rect shape-rendering="crispEdges" fill="rgb(213, 123, 32)"  x="12" y="21" width="1" height="1" /><rect shape-rendering="crispEdges" fill="rgb(238, 49, 8)"  x="12" y="22" width="1" height="1" /><rect shape-rendering="crispEdges" fill="rgb(156, 24, 32)"  x="12" y="23" width="1" height="1" /><rect shape-rendering="crispEdges" fill="rgb(82, 82, 98)"  x="12" y="24" width="1" height="1" /><rect shape-rendering="crispEdges" fill="rgb(82, 65, 74)"  x="12" y="25" width="1" height="1" /><rect shape-rendering="crispEdges" fill="rgb(32, 24, 24)"  x="12" y="26" width="1" height="1" /><rect shape-rendering="crispEdges" fill="rgb(189, 24, 32)"  x="13" y="12" width="1" height="1" /><rect shape-rendering="crispEdges" fill="rgb(205, 32, 24)"  x="13" y="13" width="1" height="1" /><rect shape-rendering="crispEdges" fill="rgb(238, 98, 16)"  x="13" y="14" width="1" height="1" /><rect shape-rendering="crispEdges" fill="rgb(255, 49, 8)"  x="13" y="15" width="1" height="1" /><rect shape-rendering="crispEdges" fill="rgb(115, 41, 57)"  x="13" y="16" width="1" height="1" /><rect shape-rendering="crispEdges" fill="rgb(41, 57, 65)"  x="13" y="17" width="1" height="1" /><rect shape-rendering="crispEdges" fill="rgb(106, 49, 41)"  x="13" y="18" width="1" height="1" /><rect shape-rendering="crispEdges" fill="rgb(148, 57, 24)"  x="13" y="19" width="1" height="1" /><rect shape-rendering="crispEdges" fill="rgb(197, 65, 24)"  x="13" y="20" width="1" height="1" /><rect shape-rendering="crispEdges" fill="rgb(255, 197, 65)"  x="13" y="21" width="1" height="1" /><rect shape-rendering="crispEdges" fill="rgb(255, 74, 8)"  x="13" y="22" width="1" height="1" /><rect shape-rendering="crispEdges" fill="rgb(205, 16, 24)"  x="13" y="23" width="1" height="1" /><rect shape-rendering="crispEdges" fill="rgb(106, 106, 115)"  x="13" y="24" width="1" height="1" /><rect shape-rendering="crispEdges" fill="rgb(115, 98, 115)"  x="13" y="25" width="1" height="1" /><rect shape-rendering="crispEdges" fill="rgb(32, 24, 32)"  x="13" y="26" width="1" height="1" /><rect shape-rendering="crispEdges" fill="rgb(213, 49, 8)"  x="14" y="10" width="1" height="1" /><rect shape-rendering="crispEdges" fill="rgb(213, 49, 8)"  x="14" y="11" width="1" height="1" /><rect shape-rendering="crispEdges" fill="rgb(222, 74, 24)"  x="14" y="12" width="1" height="1" /><rect shape-rendering="crispEdges" fill="rgb(255, 131, 16)"  x="14" y="13" width="1" height="1" /><rect shape-rendering="crispEdges" fill="rgb(255, 90, 0)"  x="14" y="14" width="1" height="1" /><rect shape-rendering="crispEdges" fill="rgb(255, 0, 0)"  x="14" y="15" width="1" height="1" /><rect shape-rendering="crispEdges" fill="rgb(189, 24, 24)"  x="14" y="16" width="1" height="1" /><rect shape-rendering="crispEdges" fill="rgb(57, 57, 65)"  x="14" y="17" width="1" height="1" /><rect shape-rendering="crispEdges" fill="rgb(90, 41, 49)"  x="14" y="18" width="1" height="1" /><rect shape-rendering="crispEdges" fill="rgb(213, 148, 57)"  x="14" y="19" width="1" height="1" /><rect shape-rendering="crispEdges" fill="rgb(255, 131, 32)"  x="14" y="20" width="1" height="1" /><rect shape-rendering="crispEdges" fill="rgb(255, 156, 8)"  x="14" y="21" width="1" height="1" /><rect shape-rendering="crispEdges" fill="rgb(255, 24, 0)"  x="14" y="22" width="1" height="1" /><rect shape-rendering="crispEdges" fill="rgb(213, 0, 8)"  x="14" y="23" width="1" height="1" /><rect shape-rendering="crispEdges" fill="rgb(98, 82, 90)"  x="14" y="24" width="1" height="1" /><rect shape-rendering="crispEdges" fill="rgb(115, 98, 106)"  x="14" y="25" width="1" height="1" /><rect shape-rendering="crispEdges" fill="rgb(32, 24, 32)"  x="14" y="26" width="1" height="1" /><rect shape-rendering="crispEdges" fill="rgb(213, 49, 0)"  x="15" y="8" width="1" height="1" /><rect shape-rendering="crispEdges" fill="rgb(213, 49, 0)"  x="15" y="9" width="1" height="1" /><rect shape-rendering="crispEdges" fill="rgb(230, 57, 8)"  x="15" y="10" width="1" height="1" /><rect shape-rendering="crispEdges" fill="rgb(255, 115, 8)"  x="15" y="11" width="1" height="1" /><rect shape-rendering="crispEdges" fill="rgb(255, 139, 32)"  x="15" y="12" width="1" height="1" /><rect shape-rendering="crispEdges" fill="rgb(238, 115, 82)"  x="15" y="13" width="1" height="1" /><rect shape-rendering="crispEdges" fill="rgb(238, 24, 24)"  x="15" y="14" width="1" height="1" /><rect shape-rendering="crispEdges" fill="rgb(230, 16, 16)"  x="15" y="15" width="1" height="1" /><rect shape-rendering="crispEdges" fill="rgb(189, 32, 16)"  x="15" y="16" width="1" height="1" /><rect shape-rendering="crispEdges" fill="rgb(106, 65, 65)"  x="15" y="17" width="1" height="1" /><rect shape-rendering="crispEdges" fill="rgb(106, 82, 90)"  x="15" y="18" width="1" height="1" /><rect shape-rendering="crispEdges" fill="rgb(222, 164, 32)"  x="15" y="19" width="1" height="1" /><rect shape-rendering="crispEdges" fill="rgb(255, 98, 8)"  x="15" y="20" width="1" height="1" /><rect shape-rendering="crispEdges" fill="rgb(255, 82, 0)"  x="15" y="21" width="1" height="1" /><rect shape-rendering="crispEdges" fill="rgb(213, 16, 8)"  x="15" y="22" width="1" height="1" /><rect shape-rendering="crispEdges" fill="rgb(106, 41, 49)"  x="15" y="23" width="1" height="1" /><rect shape-rendering="crispEdges" fill="rgb(65, 65, 65)"  x="15" y="24" width="1" height="1" /><rect shape-rendering="crispEdges" fill="rgb(57, 49, 57)"  x="15" y="25" width="1" height="1" /><rect shape-rendering="crispEdges" fill="rgb(32, 24, 24)"  x="15" y="26" width="1" height="1" /><rect shape-rendering="crispEdges" fill="rgb(222, 41, 0)"  x="16" y="6" width="1" height="1" /><rect shape-rendering="crispEdges" fill="rgb(213, 41, 8)"  x="16" y="7" width="1" height="1" /><rect shape-rendering="crispEdges" fill="rgb(222, 49, 8)"  x="16" y="8" width="1" height="1" /><rect shape-rendering="crispEdges" fill="rgb(246, 74, 8)"  x="16" y="9" width="1" height="1" /><rect shape-rendering="crispEdges" fill="rgb(255, 123, 16)"  x="16" y="10" width="1" height="1" /><rect shape-rendering="crispEdges" fill="rgb(255, 98, 16)"  x="16" y="11" width="1" height="1" /><rect shape-rendering="crispEdges" fill="rgb(255, 41, 8)"  x="16" y="12" width="1" height="1" /><rect shape-rendering="crispEdges" fill="rgb(197, 41, 41)"  x="16" y="13" width="1" height="1" /><rect shape-rendering="crispEdges" fill="rgb(205, 41, 24)"  x="16" y="14" width="1" height="1" /><rect shape-rendering="crispEdges" fill="rgb(238, 106, 32)"  x="16" y="15" width="1" height="1" /><rect shape-rendering="crispEdges" fill="rgb(246, 41, 8)"  x="16" y="16" width="1" height="1" /><rect shape-rendering="crispEdges" fill="rgb(90, 41, 49)"  x="16" y="17" width="1" height="1" /><rect shape-rendering="crispEdges" fill="rgb(90, 90, 106)"  x="16" y="18" width="1" height="1" /><rect shape-rendering="crispEdges" fill="rgb(189, 106, 16)"  x="16" y="19" width="1" height="1" /><rect shape-rendering="crispEdges" fill="rgb(255, 41, 0)"  x="16" y="20" width="1" height="1" /><rect shape-rendering="crispEdges" fill="rgb(197, 16, 8)"  x="16" y="21" width="1" height="1" /><rect shape-rendering="crispEdges" fill="rgb(65, 49, 49)"  x="16" y="22" width="1" height="1" /><rect shape-rendering="crispEdges" fill="rgb(57, 57, 65)"  x="16" y="23" width="1" height="1" /><rect shape-rendering="crispEdges" fill="rgb(41, 32, 32)"  x="16" y="24" width="1" height="1" /><rect shape-rendering="crispEdges" fill="rgb(32, 24, 32)"  x="16" y="25" width="1" height="1" /><rect shape-rendering="crispEdges" fill="rgb(41, 32, 41)"  x="16" y="26" width="1" height="1" /><rect shape-rendering="crispEdges" fill="rgb(222, 41, 0)"  x="17" y="5" width="1" height="1" /><rect shape-rendering="crispEdges" fill="rgb(222, 41, 0)"  x="17" y="6" width="1" height="1" /><rect shape-rendering="crispEdges" fill="rgb(238, 156, 41)"  x="17" y="7" width="1" height="1" /><rect shape-rendering="crispEdges" fill="rgb(255, 106, 24)"  x="17" y="8" width="1" height="1" /><rect shape-rendering="crispEdges" fill="rgb(255, 98, 8)"  x="17" y="9" width="1" height="1" /><rect shape-rendering="crispEdges" fill="rgb(255, 65, 8)"  x="17" y="10" width="1" height="1" /><rect shape-rendering="crispEdges" fill="rgb(246, 8, 0)"  x="17" y="11" width="1" height="1" /><rect shape-rendering="crispEdges" fill="rgb(222, 16, 16)"  x="17" y="12" width="1" height="1" /><rect shape-rendering="crispEdges" fill="rgb(230, 74, 24)"  x="17" y="13" width="1" height="1" /><rect shape-rendering="crispEdges" fill="rgb(255, 131, 24)"  x="17" y="14" width="1" height="1" /><rect shape-rendering="crispEdges" fill="rgb(255, 82, 0)"  x="17" y="15" width="1" height="1" /><rect shape-rendering="crispEdges" fill="rgb(230, 16, 8)"  x="17" y="16" width="1" height="1" /><rect shape-rendering="crispEdges" fill="rgb(65, 49, 49)"  x="17" y="17" width="1" height="1" /><rect shape-rendering="crispEdges" fill="rgb(57, 57, 65)"  x="17" y="18" width="1" height="1" /><rect shape-rendering="crispEdges" fill="rgb(106, 65, 49)"  x="17" y="19" width="1" height="1" /><rect shape-rendering="crispEdges" fill="rgb(172, 49, 24)"  x="17" y="20" width="1" height="1" /><rect shape-rendering="crispEdges" fill="rgb(90, 57, 74)"  x="17" y="21" width="1" height="1" /><rect shape-rendering="crispEdges" fill="rgb(74, 74, 82)"  x="17" y="22" width="1" height="1" /><rect shape-rendering="crispEdges" fill="rgb(41, 32, 41)"  x="17" y="23" width="1" height="1" /><rect shape-rendering="crispEdges" fill="rgb(24, 16, 24)"  x="17" y="24" width="1" height="1" /><rect shape-rendering="crispEdges" fill="rgb(123, 106, 106)"  x="18" y="4" width="1" height="1" /><rect shape-rendering="crispEdges" fill="rgb(148, 156, 164)"  x="18" y="5" width="1" height="1" /><rect shape-rendering="crispEdges" fill="rgb(106, 123, 123)"  x="18" y="6" width="1" height="1" /><rect shape-rendering="crispEdges" fill="rgb(222, 213, 74)"  x="18" y="7" width="1" height="1" /><rect shape-rendering="crispEdges" fill="rgb(238, 74, 8)"  x="18" y="8" width="1" height="1" /><rect shape-rendering="crispEdges" fill="rgb(246, 0, 0)"  x="18" y="9" width="1" height="1" /><rect shape-rendering="crispEdges" fill="rgb(230, 0, 8)"  x="18" y="10" width="1" height="1" /><rect shape-rendering="crispEdges" fill="rgb(222, 57, 32)"  x="18" y="11" width="1" height="1" /><rect shape-rendering="crispEdges" fill="rgb(246, 131, 16)"  x="18" y="12" width="1" height="1" /><rect shape-rendering="crispEdges" fill="rgb(255, 164, 65)"  x="18" y="13" width="1" height="1" /><rect shape-rendering="crispEdges" fill="rgb(255, 106, 41)"  x="18" y="14" width="1" height="1" /><rect shape-rendering="crispEdges" fill="rgb(255, 24, 0)"  x="18" y="15" width="1" height="1" /><rect shape-rendering="crispEdges" fill="rgb(230, 0, 8)"  x="18" y="16" width="1" height="1" /><rect shape-rendering="crispEdges" fill="rgb(65, 49, 49)"  x="18" y="17" width="1" height="1" /><rect shape-rendering="crispEdges" fill="rgb(65, 57, 57)"  x="18" y="18" width="1" height="1" /><rect shape-rendering="crispEdges" fill="rgb(65, 57, 57)"  x="18" y="19" width="1" height="1" /><rect shape-rendering="crispEdges" fill="rgb(74, 74, 82)"  x="18" y="20" width="1" height="1" /><rect shape-rendering="crispEdges" fill="rgb(115, 106, 115)"  x="18" y="21" width="1" height="1" /><rect shape-rendering="crispEdges" fill="rgb(139, 123, 139)"  x="18" y="22" width="1" height="1" /><rect shape-rendering="crispEdges" fill="rgb(74, 57, 74)"  x="18" y="23" width="1" height="1" /><rect shape-rendering="crispEdges" fill="rgb(24, 16, 16)"  x="18" y="24" width="1" height="1" /><rect shape-rendering="crispEdges" fill="rgb(106, 90, 90)"  x="19" y="4" width="1" height="1" /><rect shape-rendering="crispEdges" fill="rgb(74, 65, 74)"  x="19" y="5" width="1" height="1" /><rect shape-rendering="crispEdges" fill="rgb(65, 57, 65)"  x="19" y="6" width="1" height="1" /><rect shape-rendering="crispEdges" fill="rgb(213, 189, 74)"  x="19" y="7" width="1" height="1" /><rect shape-rendering="crispEdges" fill="rgb(205, 82, 41)"  x="19" y="8" width="1" height="1" /><rect shape-rendering="crispEdges" fill="rgb(197, 16, 16)"  x="19" y="9" width="1" height="1" /><rect shape-rendering="crispEdges" fill="rgb(238, 98, 32)"  x="19" y="10" width="1" height="1" /><rect shape-rendering="crispEdges" fill="rgb(255, 156, 24)"  x="19" y="11" width="1" height="1" /><rect shape-rendering="crispEdges" fill="rgb(255, 123, 8)"  x="19" y="12" width="1" height="1" /><rect shape-rendering="crispEdges" fill="rgb(246, 65, 24)"  x="19" y="13" width="1" height="1" /><rect shape-rendering="crispEdges" fill="rgb(205, 49, 57)"  x="19" y="14" width="1" height="1" /><rect shape-rendering="crispEdges" fill="rgb(255, 0, 0)"  x="19" y="15" width="1" height="1" /><rect shape-rendering="crispEdges" fill="rgb(255, 0, 0)"  x="19" y="16" width="1" height="1" /><rect shape-rendering="crispEdges" fill="rgb(123, 24, 24)"  x="19" y="17" width="1" height="1" /><rect shape-rendering="crispEdges" fill="rgb(32, 49, 49)"  x="19" y="18" width="1" height="1" /><rect shape-rendering="crispEdges" fill="rgb(49, 41, 49)"  x="19" y="19" width="1" height="1" /><rect shape-rendering="crispEdges" fill="rgb(57, 49, 57)"  x="19" y="20" width="1" height="1" /><rect shape-rendering="crispEdges" fill="rgb(98, 82, 90)"  x="19" y="21" width="1" height="1" /><rect shape-rendering="crispEdges" fill="rgb(139, 123, 139)"  x="19" y="22" width="1" height="1" /><rect shape-rendering="crispEdges" fill="rgb(90, 74, 82)"  x="19" y="23" width="1" height="1" /><rect shape-rendering="crispEdges" fill="rgb(24, 16, 16)"  x="19" y="24" width="1" height="1" /><rect shape-rendering="crispEdges" fill="rgb(74, 57, 65)"  x="20" y="4" width="1" height="1" /><rect shape-rendering="crispEdges" fill="rgb(41, 32, 41)"  x="20" y="5" width="1" height="1" /><rect shape-rendering="crispEdges" fill="rgb(41, 41, 49)"  x="20" y="6" width="1" height="1" /><rect shape-rendering="crispEdges" fill="rgb(139, 65, 41)"  x="20" y="7" width="1" height="1" /><rect shape-rendering="crispEdges" fill="rgb(213, 57, 32)"  x="20" y="8" width="1" height="1" /><rect shape-rendering="crispEdges" fill="rgb(238, 57, 16)"  x="20" y="9" width="1" height="1" /><rect shape-rendering="crispEdges" fill="rgb(255, 115, 16)"  x="20" y="10" width="1" height="1" /><rect shape-rendering="crispEdges" fill="rgb(255, 65, 0)"  x="20" y="11" width="1" height="1" /><rect shape-rendering="crispEdges" fill="rgb(255, 16, 8)"  x="20" y="12" width="1" height="1" /><rect shape-rendering="crispEdges" fill="rgb(255, 0, 0)"  x="20" y="13" width="1" height="1" /><rect shape-rendering="crispEdges" fill="rgb(180, 32, 32)"  x="20" y="14" width="1" height="1" /><rect shape-rendering="crispEdges" fill="rgb(222, 16, 16)"  x="20" y="15" width="1" height="1" /><rect shape-rendering="crispEdges" fill="rgb(230, 8, 8)"  x="20" y="16" width="1" height="1" /><rect shape-rendering="crispEdges" fill="rgb(172, 16, 16)"  x="20" y="17" width="1" height="1" /><rect shape-rendering="crispEdges" fill="rgb(98, 32, 32)"  x="20" y="18" width="1" height="1" /><rect shape-rendering="crispEdges" fill="rgb(41, 32, 41)"  x="20" y="19" width="1" height="1" /><rect shape-rendering="crispEdges" fill="rgb(32, 32, 41)"  x="20" y="20" width="1" height="1" /><rect shape-rendering="crispEdges" fill="rgb(41, 32, 41)"  x="20" y="21" width="1" height="1" /><rect shape-rendering="crispEdges" fill="rgb(57, 57, 57)"  x="20" y="22" width="1" height="1" /><rect shape-rendering="crispEdges" fill="rgb(49, 41, 49)"  x="20" y="23" width="1" height="1" /><rect shape-rendering="crispEdges" fill="rgb(24, 16, 24)"  x="20" y="24" width="1" height="1" /><rect shape-rendering="crispEdges" fill="rgb(74, 57, 65)"  x="21" y="4" width="1" height="1" /><rect shape-rendering="crispEdges" fill="rgb(74, 57, 65)"  x="21" y="5" width="1" height="1" /><rect shape-rendering="crispEdges" fill="rgb(106, 90, 98)"  x="21" y="6" width="1" height="1" /><rect shape-rendering="crispEdges" fill="rgb(156, 123, 123)"  x="21" y="7" width="1" height="1" /><rect shape-rendering="crispEdges" fill="rgb(238, 189, 82)"  x="21" y="8" width="1" height="1" /><rect shape-rendering="crispEdges" fill="rgb(255, 32, 0)"  x="21" y="9" width="1" height="1" /><rect shape-rendering="crispEdges" fill="rgb(255, 8, 0)"  x="21" y="10" width="1" height="1" /><rect shape-rendering="crispEdges" fill="rgb(255, 0, 0)"  x="21" y="11" width="1" height="1" /><rect shape-rendering="crispEdges" fill="rgb(255, 0, 0)"  x="21" y="12" width="1" height="1" /><rect shape-rendering="crispEdges" fill="rgb(255, 0, 0)"  x="21" y="13" width="1" height="1" /><rect shape-rendering="crispEdges" fill="rgb(222, 16, 16)"  x="21" y="14" width="1" height="1" /><rect shape-rendering="crispEdges" fill="rgb(172, 32, 32)"  x="21" y="15" width="1" height="1" /><rect shape-rendering="crispEdges" fill="rgb(180, 24, 24)"  x="21" y="16" width="1" height="1" /><rect shape-rendering="crispEdges" fill="rgb(172, 24, 24)"  x="21" y="17" width="1" height="1" /><rect shape-rendering="crispEdges" fill="rgb(74, 57, 65)"  x="22" y="5" width="1" height="1" /><rect shape-rendering="crispEdges" fill="rgb(180, 180, 180)"  x="22" y="6" width="1" height="1" /><rect shape-rendering="crispEdges" fill="rgb(139, 139, 148)"  x="22" y="7" width="1" height="1" /><rect shape-rendering="crispEdges" fill="rgb(148, 156, 82)"  x="22" y="8" width="1" height="1" /><rect shape-rendering="crispEdges" fill="rgb(246, 123, 24)"  x="22" y="9" width="1" height="1" /><rect shape-rendering="crispEdges" fill="rgb(255, 0, 0)"  x="22" y="10" width="1" height="1" /><rect shape-rendering="crispEdges" fill="rgb(255, 0, 0)"  x="22" y="11" width="1" height="1" /><rect shape-rendering="crispEdges" fill="rgb(246, 0, 0)"  x="22" y="12" width="1" height="1" /><rect shape-rendering="crispEdges" fill="rgb(213, 16, 16)"  x="22" y="13" width="1" height="1" /><rect shape-rendering="crispEdges" fill="rgb(189, 32, 32)"  x="22" y="14" width="1" height="1" /><rect shape-rendering="crispEdges" fill="rgb(180, 32, 32)"  x="22" y="15" width="1" height="1" /><rect shape-rendering="crispEdges" fill="rgb(74, 57, 65)"  x="23" y="5" width="1" height="1" /><rect shape-rendering="crispEdges" fill="rgb(115, 106, 106)"  x="23" y="6" width="1" height="1" /><rect shape-rendering="crispEdges" fill="rgb(74, 65, 74)"  x="23" y="7" width="1" height="1" /><rect shape-rendering="crispEdges" fill="rgb(74, 65, 90)"  x="23" y="8" width="1" height="1" /><rect shape-rendering="crispEdges" fill="rgb(164, 139, 82)"  x="23" y="9" width="1" height="1" /><rect shape-rendering="crispEdges" fill="rgb(238, 90, 32)"  x="23" y="10" width="1" height="1" /><rect shape-rendering="crispEdges" fill="rgb(213, 16, 16)"  x="23" y="11" width="1" height="1" /><rect shape-rendering="crispEdges" fill="rgb(189, 24, 24)"  x="23" y="12" width="1" height="1" /><rect shape-rendering="crispEdges" fill="rgb(180, 32, 32)"  x="23" y="13" width="1" height="1" /><rect shape-rendering="crispEdges" fill="rgb(74, 57, 65)"  x="24" y="5" width="1" height="1" /><rect shape-rendering="crispEdges" fill="rgb(74, 57, 65)"  x="24" y="6" width="1" height="1" /><rect shape-rendering="crispEdges" fill="rgb(57, 49, 57)"  x="24" y="7" width="1" height="1" /><rect shape-rendering="crispEdges" fill="rgb(74, 65, 82)"  x="24" y="8" width="1" height="1" /><rect shape-rendering="crispEdges" fill="rgb(65, 65, 74)"  x="24" y="9" width="1" height="1" /><rect shape-rendering="crispEdges" fill="rgb(98, 57, 49)"  x="24" y="10" width="1" height="1" /><rect shape-rendering="crispEdges" fill="rgb(180, 32, 32)"  x="24" y="11" width="1" height="1" /><rect shape-rendering="crispEdges" fill="rgb(74, 57, 65)"  x="25" y="6" width="1" height="1" /><rect shape-rendering="crispEdges" fill="rgb(65, 57, 65)"  x="25" y="7" width="1" height="1" /><rect shape-rendering="crispEdges" fill="rgb(57, 49, 57)"  x="25" y="8" width="1" height="1" /><rect shape-rendering="crispEdges" fill="rgb(49, 41, 49)"  x="25" y="9" width="1" height="1" /><rect shape-rendering="crispEdges" fill="rgb(57, 41, 49)"  x="25" y="10" width="1" height="1" /><rect shape-rendering="crispEdges" fill="rgb(74, 57, 65)"  x="26" y="6" width="1" height="1" /><rect shape-rendering="crispEdges" fill="rgb(74, 57, 65)"  x="26" y="7" width="1" height="1" /><rect shape-rendering="crispEdges" fill="rgb(74, 57, 65)"  x="26" y="8" width="1" height="1" /><rect shape-rendering="crispEdges" fill="rgb(57, 49, 49)"  x="26" y="9" width="1" height="1" /></svg>