<svg xmlns="http://www.w3.org/2000/svg" xmlns:xlink= "http://www.w3.org/1999/xlink" width="32" height="32" viewBox ="0 0 32 32"><rect shape-rendering="crispEdges" fill="rgb(92, 100, 116)"  x="5" y="27" width="1" height="1" /><rect shape-rendering="crispEdges" fill="rgb(92, 100, 116)"  x="5" y="28" width="1" height="1" /><rect shape-rendering="crispEdges" fill="rgb(116, 124, 149)"  x="5" y="29" width="1" height="1" /><rect shape-rendering="crispEdges" fill="rgb(92, 100, 116)"  x="6" y="25" width="1" height="1" /><rect shape-rendering="crispEdges" fill="rgb(77, 84, 100)"  x="6" y="26" width="1" height="1" /><rect shape-rendering="crispEdges" fill="rgb(50, 57, 65)"  x="6" y="27" width="1" height="1" /><rect shape-rendering="crispEdges" fill="rgb(50, 58, 66)"  x="6" y="28" width="1" height="1" /><rect shape-rendering="crispEdges" fill="rgb(50, 57, 65)"  x="6" y="29" width="1" height="1" /><rect shape-rendering="crispEdges" fill="rgb(116, 124, 149)"  x="6" y="30" width="1" height="1" /><rect shape-rendering="crispEdges" fill="rgb(92, 100, 116)"  x="7" y="20" width="1" height="1" /><rect shape-rendering="crispEdges" fill="rgb(77, 84, 100)"  x="7" y="21" width="1" height="1" /><rect shape-rendering="crispEdges" fill="rgb(77, 84, 100)"  x="7" y="22" width="1" height="1" /><rect shape-rendering="crispEdges" fill="rgb(77, 84, 100)"  x="7" y="23" width="1" height="1" /><rect shape-rendering="crispEdges" fill="rgb(65, 72, 80)"  x="7" y="24" width="1" height="1" /><rect shape-rendering="crispEdges" fill="rgb(50, 50, 57)"  x="7" y="25" width="1" height="1" /><rect shape-rendering="crispEdges" fill="rgb(17, 17, 25)"  x="7" y="26" width="1" height="1" /><rect shape-rendering="crispEdges" fill="rgb(9, 17, 25)"  x="7" y="27" width="1" height="1" /><rect shape-rendering="crispEdges" fill="rgb(25, 33, 42)"  x="7" y="28" width="1" height="1" /><rect shape-rendering="crispEdges" fill="rgb(50, 50, 66)"  x="7" y="29" width="1" height="1" /><rect shape-rendering="crispEdges" fill="rgb(116, 124, 149)"  x="7" y="30" width="1" height="1" /><rect shape-rendering="crispEdges" fill="rgb(92, 100, 116)"  x="8" y="17" width="1" height="1" /><rect shape-rendering="crispEdges" fill="rgb(77, 84, 100)"  x="8" y="18" width="1" height="1" /><rect shape-rendering="crispEdges" fill="rgb(77, 84, 100)"  x="8" y="19" width="1" height="1" /><rect shape-rendering="crispEdges" fill="rgb(34, 41, 41)"  x="8" y="20" width="1" height="1" /><rect shape-rendering="crispEdges" fill="rgb(9, 9, 17)"  x="8" y="21" width="1" height="1" /><rect shape-rendering="crispEdges" fill="rgb(9, 9, 25)"  x="8" y="22" width="1" height="1" /><rect shape-rendering="crispEdges" fill="rgb(9, 9, 17)"  x="8" y="23" width="1" height="1" /><rect shape-rendering="crispEdges" fill="rgb(9, 9, 17)"  x="8" y="24" width="1" height="1" /><rect shape-rendering="crispEdges" fill="rgb(9, 9, 17)"  x="8" y="25" width="1" height="1" /><rect shape-rendering="crispEdges" fill="rgb(17, 25, 33)"  x="8" y="26" width="1" height="1" /><rect shape-rendering="crispEdges" fill="rgb(17, 25, 33)"  x="8" y="27" width="1" height="1" /><rect shape-rendering="crispEdges" fill="rgb(33, 42, 50)"  x="8" y="28" width="1" height="1" /><rect shape-rendering="crispEdges" fill="rgb(77, 84, 100)"  x="8" y="29" width="1" height="1" /><rect shape-rendering="crispEdges" fill="rgb(116, 124, 149)"  x="8" y="30" width="1" height="1" /><rect shape-rendering="crispEdges" fill="rgb(92, 100, 116)"  x="9" y="14" width="1" height="1" /><rect shape-rendering="crispEdges" fill="rgb(77, 84, 100)"  x="9" y="15" width="1" height="1" /><rect shape-rendering="crispEdges" fill="rgb(77, 84, 100)"  x="9" y="16" width="1" height="1" /><rect shape-rendering="crispEdges" fill="rgb(28, 28, 28)"  x="9" y="17" width="1" height="1" /><rect shape-rendering="crispEdges" fill="rgb(0, 0, 0)"  x="9" y="18" width="1" height="1" /><rect shape-rendering="crispEdges" fill="rgb(0, 0, 0)"  x="9" y="19" width="1" height="1" /><rect shape-rendering="crispEdges" fill="rgb(0, 0, 0)"  x="9" y="20" width="1" height="1" /><rect shape-rendering="crispEdges" fill="rgb(0, 9, 17)"  x="9" y="21" width="1" height="1" /><rect shape-rendering="crispEdges" fill="rgb(17, 17, 33)"  x="9" y="22" width="1" height="1" /><rect shape-rendering="crispEdges" fill="rgb(25, 33, 42)"  x="9" y="23" width="1" height="1" /><rect shape-rendering="crispEdges" fill="rgb(33, 33, 50)"  x="9" y="24" width="1" height="1" /><rect shape-rendering="crispEdges" fill="rgb(33, 50, 58)"  x="9" y="25" width="1" height="1" /><rect shape-rendering="crispEdges" fill="rgb(42, 58, 75)"  x="9" y="26" width="1" height="1" /><rect shape-rendering="crispEdges" fill="rgb(42, 50, 66)"  x="9" y="27" width="1" height="1" /><rect shape-rendering="crispEdges" fill="rgb(50, 58, 75)"  x="9" y="28" width="1" height="1" /><rect shape-rendering="crispEdges" fill="rgb(116, 124, 149)"  x="9" y="29" width="1" height="1" /><rect shape-rendering="crispEdges" fill="rgb(92, 100, 116)"  x="10" y="4" width="1" height="1" /><rect shape-rendering="crispEdges" fill="rgb(92, 100, 116)"  x="10" y="12" width="1" height="1" /><rect shape-rendering="crispEdges" fill="rgb(77, 84, 100)"  x="10" y="13" width="1" height="1" /><rect shape-rendering="crispEdges" fill="rgb(34, 41, 41)"  x="10" y="14" width="1" height="1" /><rect shape-rendering="crispEdges" fill="rgb(0, 0, 9)"  x="10" y="15" width="1" height="1" /><rect shape-rendering="crispEdges" fill="rgb(0, 0, 0)"  x="10" y="16" width="1" height="1" /><rect shape-rendering="crispEdges" fill="rgb(0, 0, 9)"  x="10" y="17" width="1" height="1" /><rect shape-rendering="crispEdges" fill="rgb(9, 9, 17)"  x="10" y="18" width="1" height="1" /><rect shape-rendering="crispEdges" fill="rgb(25, 25, 33)"  x="10" y="19" width="1" height="1" /><rect shape-rendering="crispEdges" fill="rgb(42, 42, 58)"  x="10" y="20" width="1" height="1" /><rect shape-rendering="crispEdges" fill="rgb(58, 66, 83)"  x="10" y="21" width="1" height="1" /><rect shape-rendering="crispEdges" fill="rgb(75, 83, 99)"  x="10" y="22" width="1" height="1" /><rect shape-rendering="crispEdges" fill="rgb(75, 83, 107)"  x="10" y="23" width="1" height="1" /><rect shape-rendering="crispEdges" fill="rgb(75, 83, 99)"  x="10" y="24" width="1" height="1" /><rect shape-rendering="crispEdges" fill="rgb(75, 83, 99)"  x="10" y="25" width="1" height="1" /><rect shape-rendering="crispEdges" fill="rgb(75, 83, 99)"  x="10" y="26" width="1" height="1" /><rect shape-rendering="crispEdges" fill="rgb(75, 83, 99)"  x="10" y="27" width="1" height="1" /><rect shape-rendering="crispEdges" fill="rgb(83, 91, 107)"  x="10" y="28" width="1" height="1" /><rect shape-rendering="crispEdges" fill="rgb(116, 124, 149)"  x="10" y="29" width="1" height="1" /><rect shape-rendering="crispEdges" fill="rgb(92, 100, 116)"  x="11" y="2" width="1" height="1" /><rect shape-rendering="crispEdges" fill="rgb(50, 57, 65)"  x="11" y="3" width="1" height="1" /><rect shape-rendering="crispEdges" fill="rgb(65, 72, 80)"  x="11" y="4" width="1" height="1" /><rect shape-rendering="crispEdges" fill="rgb(92, 100, 116)"  x="11" y="5" width="1" height="1" /><rect shape-rendering="crispEdges" fill="rgb(92, 100, 116)"  x="11" y="10" width="1" height="1" /><rect shape-rendering="crispEdges" fill="rgb(77, 84, 100)"  x="11" y="11" width="1" height="1" /><rect shape-rendering="crispEdges" fill="rgb(20, 20, 27)"  x="11" y="12" width="1" height="1" /><rect shape-rendering="crispEdges" fill="rgb(0, 0, 0)"  x="11" y="13" width="1" height="1" /><rect shape-rendering="crispEdges" fill="rgb(0, 0, 0)"  x="11" y="14" width="1" height="1" /><rect shape-rendering="crispEdges" fill="rgb(0, 0, 9)"  x="11" y="15" width="1" height="1" /><rect shape-rendering="crispEdges" fill="rgb(0, 9, 9)"  x="11" y="16" width="1" height="1" /><rect shape-rendering="crispEdges" fill="rgb(9, 9, 17)"  x="11" y="17" width="1" height="1" /><rect shape-rendering="crispEdges" fill="rgb(25, 33, 42)"  x="11" y="18" width="1" height="1" /><rect shape-rendering="crispEdges" fill="rgb(33, 33, 42)"  x="11" y="19" width="1" height="1" /><rect shape-rendering="crispEdges" fill="rgb(33, 42, 50)"  x="11" y="20" width="1" height="1" /><rect shape-rendering="crispEdges" fill="rgb(42, 50, 58)"  x="11" y="21" width="1" height="1" /><rect shape-rendering="crispEdges" fill="rgb(42, 42, 58)"  x="11" y="22" width="1" height="1" /><rect shape-rendering="crispEdges" fill="rgb(33, 42, 50)"  x="11" y="23" width="1" height="1" /><rect shape-rendering="crispEdges" fill="rgb(33, 42, 58)"  x="11" y="24" width="1" height="1" /><rect shape-rendering="crispEdges" fill="rgb(42, 42, 58)"  x="11" y="25" width="1" height="1" /><rect shape-rendering="crispEdges" fill="rgb(42, 50, 66)"  x="11" y="26" width="1" height="1" /><rect shape-rendering="crispEdges" fill="rgb(75, 91, 107)"  x="11" y="27" width="1" height="1" /><rect shape-rendering="crispEdges" fill="rgb(83, 91, 107)"  x="11" y="28" width="1" height="1" /><rect shape-rendering="crispEdges" fill="rgb(50, 57, 65)"  x="11" y="29" width="1" height="1" /><rect shape-rendering="crispEdges" fill="rgb(116, 124, 149)"  x="11" y="30" width="1" height="1" /><rect shape-rendering="crispEdges" fill="rgb(92, 100, 116)"  x="12" y="1" width="1" height="1" /><rect shape-rendering="crispEdges" fill="rgb(27, 27, 35)"  x="12" y="2" width="1" height="1" /><rect shape-rendering="crispEdges" fill="rgb(0, 0, 0)"  x="12" y="3" width="1" height="1" /><rect shape-rendering="crispEdges" fill="rgb(0, 0, 9)"  x="12" y="4" width="1" height="1" /><rect shape-rendering="crispEdges" fill="rgb(75, 83, 107)"  x="12" y="5" width="1" height="1" /><rect shape-rendering="crispEdges" fill="rgb(91, 99, 124)"  x="12" y="6" width="1" height="1" /><rect shape-rendering="crispEdges" fill="rgb(92, 100, 116)"  x="12" y="9" width="1" height="1" /><rect shape-rendering="crispEdges" fill="rgb(50, 50, 57)"  x="12" y="10" width="1" height="1" /><rect shape-rendering="crispEdges" fill="rgb(9, 17, 17)"  x="12" y="11" width="1" height="1" /><rect shape-rendering="crispEdges" fill="rgb(25, 33, 33)"  x="12" y="12" width="1" height="1" /><rect shape-rendering="crispEdges" fill="rgb(25, 25, 25)"  x="12" y="13" width="1" height="1" /><rect shape-rendering="crispEdges" fill="rgb(9, 9, 9)"  x="12" y="14" width="1" height="1" /><rect shape-rendering="crispEdges" fill="rgb(0, 0, 0)"  x="12" y="15" width="1" height="1" /><rect shape-rendering="crispEdges" fill="rgb(0, 0, 0)"  x="12" y="16" width="1" height="1" /><rect shape-rendering="crispEdges" fill="rgb(0, 0, 0)"  x="12" y="17" width="1" height="1" /><rect shape-rendering="crispEdges" fill="rgb(0, 0, 0)"  x="12" y="18" width="1" height="1" /><rect shape-rendering="crispEdges" fill="rgb(0, 0, 0)"  x="12" y="19" width="1" height="1" /><rect shape-rendering="crispEdges" fill="rgb(0, 0, 0)"  x="12" y="20" width="1" height="1" /><rect shape-rendering="crispEdges" fill="rgb(0, 0, 0)"  x="12" y="21" width="1" height="1" /><rect shape-rendering="crispEdges" fill="rgb(0, 0, 0)"  x="12" y="22" width="1" height="1" /><rect shape-rendering="crispEdges" fill="rgb(0, 0, 9)"  x="12" y="23" width="1" height="1" /><rect shape-rendering="crispEdges" fill="rgb(9, 9, 17)"  x="12" y="24" width="1" height="1" /><rect shape-rendering="crispEdges" fill="rgb(17, 25, 33)"  x="12" y="25" width="1" height="1" /><rect shape-rendering="crispEdges" fill="rgb(50, 58, 66)"  x="12" y="26" width="1" height="1" /><rect shape-rendering="crispEdges" fill="rgb(42, 50, 58)"  x="12" y="27" width="1" height="1" /><rect shape-rendering="crispEdges" fill="rgb(42, 50, 66)"  x="12" y="28" width="1" height="1" /><rect shape-rendering="crispEdges" fill="rgb(33, 42, 50)"  x="12" y="29" width="1" height="1" /><rect shape-rendering="crispEdges" fill="rgb(116, 124, 149)"  x="12" y="30" width="1" height="1" /><rect shape-rendering="crispEdges" fill="rgb(92, 100, 116)"  x="13" y="1" width="1" height="1" /><rect shape-rendering="crispEdges" fill="rgb(41, 48, 48)"  x="13" y="2" width="1" height="1" /><rect shape-rendering="crispEdges" fill="rgb(20, 28, 28)"  x="13" y="3" width="1" height="1" /><rect shape-rendering="crispEdges" fill="rgb(9, 9, 17)"  x="13" y="4" width="1" height="1" /><rect shape-rendering="crispEdges" fill="rgb(91, 107, 124)"  x="13" y="5" width="1" height="1" /><rect shape-rendering="crispEdges" fill="rgb(108, 124, 140)"  x="13" y="6" width="1" height="1" /><rect shape-rendering="crispEdges" fill="rgb(188, 211, 228)"  x="13" y="7" width="1" height="1" /><rect shape-rendering="crispEdges" fill="rgb(188, 211, 228)"  x="13" y="8" width="1" height="1" /><rect shape-rendering="crispEdges" fill="rgb(50, 57, 65)"  x="13" y="9" width="1" height="1" /><rect shape-rendering="crispEdges" fill="rgb(50, 58, 66)"  x="13" y="10" width="1" height="1" /><rect shape-rendering="crispEdges" fill="rgb(50, 58, 66)"  x="13" y="11" width="1" height="1" /><rect shape-rendering="crispEdges" fill="rgb(33, 42, 50)"  x="13" y="12" width="1" height="1" /><rect shape-rendering="crispEdges" fill="rgb(17, 25, 25)"  x="13" y="13" width="1" height="1" /><rect shape-rendering="crispEdges" fill="rgb(9, 9, 9)"  x="13" y="14" width="1" height="1" /><rect shape-rendering="crispEdges" fill="rgb(9, 9, 9)"  x="13" y="15" width="1" height="1" /><rect shape-rendering="crispEdges" fill="rgb(9, 9, 9)"  x="13" y="16" width="1" height="1" /><rect shape-rendering="crispEdges" fill="rgb(9, 9, 9)"  x="13" y="17" width="1" height="1" /><rect shape-rendering="crispEdges" fill="rgb(17, 17, 25)"  x="13" y="18" width="1" height="1" /><rect shape-rendering="crispEdges" fill="rgb(25, 33, 33)"  x="13" y="19" width="1" height="1" /><rect shape-rendering="crispEdges" fill="rgb(25, 33, 42)"  x="13" y="20" width="1" height="1" /><rect shape-rendering="crispEdges" fill="rgb(33, 33, 42)"  x="13" y="21" width="1" height="1" /><rect shape-rendering="crispEdges" fill="rgb(25, 33, 42)"  x="13" y="22" width="1" height="1" /><rect shape-rendering="crispEdges" fill="rgb(33, 33, 42)"  x="13" y="23" width="1" height="1" /><rect shape-rendering="crispEdges" fill="rgb(42, 42, 58)"  x="13" y="24" width="1" height="1" /><rect shape-rendering="crispEdges" fill="rgb(66, 75, 83)"  x="13" y="25" width="1" height="1" /><rect shape-rendering="crispEdges" fill="rgb(42, 50, 58)"  x="13" y="26" width="1" height="1" /><rect shape-rendering="crispEdges" fill="rgb(25, 25, 33)"  x="13" y="27" width="1" height="1" /><rect shape-rendering="crispEdges" fill="rgb(25, 33, 42)"  x="13" y="28" width="1" height="1" /><rect shape-rendering="crispEdges" fill="rgb(57, 65, 72)"  x="13" y="29" width="1" height="1" /><rect shape-rendering="crispEdges" fill="rgb(116, 124, 149)"  x="13" y="30" width="1" height="1" /><rect shape-rendering="crispEdges" fill="rgb(52, 60, 77)"  x="14" y="3" width="1" height="1" /><rect shape-rendering="crispEdges" fill="rgb(9, 9, 17)"  x="14" y="4" width="1" height="1" /><rect shape-rendering="crispEdges" fill="rgb(83, 91, 107)"  x="14" y="5" width="1" height="1" /><rect shape-rendering="crispEdges" fill="rgb(107, 116, 140)"  x="14" y="6" width="1" height="1" /><rect shape-rendering="crispEdges" fill="rgb(157, 181, 206)"  x="14" y="7" width="1" height="1" /><rect shape-rendering="crispEdges" fill="rgb(149, 181, 214)"  x="14" y="8" width="1" height="1" /><rect shape-rendering="crispEdges" fill="rgb(165, 198, 223)"  x="14" y="9" width="1" height="1" /><rect shape-rendering="crispEdges" fill="rgb(42, 50, 58)"  x="14" y="10" width="1" height="1" /><rect shape-rendering="crispEdges" fill="rgb(25, 33, 42)"  x="14" y="11" width="1" height="1" /><rect shape-rendering="crispEdges" fill="rgb(17, 25, 33)"  x="14" y="12" width="1" height="1" /><rect shape-rendering="crispEdges" fill="rgb(9, 9, 9)"  x="14" y="13" width="1" height="1" /><rect shape-rendering="crispEdges" fill="rgb(0, 9, 9)"  x="14" y="14" width="1" height="1" /><rect shape-rendering="crispEdges" fill="rgb(9, 9, 9)"  x="14" y="15" width="1" height="1" /><rect shape-rendering="crispEdges" fill="rgb(17, 17, 17)"  x="14" y="16" width="1" height="1" /><rect shape-rendering="crispEdges" fill="rgb(25, 33, 42)"  x="14" y="17" width="1" height="1" /><rect shape-rendering="crispEdges" fill="rgb(50, 50, 66)"  x="14" y="18" width="1" height="1" /><rect shape-rendering="crispEdges" fill="rgb(66, 75, 83)"  x="14" y="19" width="1" height="1" /><rect shape-rendering="crispEdges" fill="rgb(75, 83, 99)"  x="14" y="20" width="1" height="1" /><rect shape-rendering="crispEdges" fill="rgb(83, 91, 107)"  x="14" y="21" width="1" height="1" /><rect shape-rendering="crispEdges" fill="rgb(83, 91, 107)"  x="14" y="22" width="1" height="1" /><rect shape-rendering="crispEdges" fill="rgb(91, 99, 116)"  x="14" y="23" width="1" height="1" /><rect shape-rendering="crispEdges" fill="rgb(91, 99, 124)"  x="14" y="24" width="1" height="1" /><rect shape-rendering="crispEdges" fill="rgb(75, 91, 107)"  x="14" y="25" width="1" height="1" /><rect shape-rendering="crispEdges" fill="rgb(50, 58, 75)"  x="14" y="26" width="1" height="1" /><rect shape-rendering="crispEdges" fill="rgb(33, 33, 42)"  x="14" y="27" width="1" height="1" /><rect shape-rendering="crispEdges" fill="rgb(58, 66, 75)"  x="14" y="28" width="1" height="1" /><rect shape-rendering="crispEdges" fill="rgb(116, 124, 149)"  x="14" y="29" width="1" height="1" /><rect shape-rendering="crispEdges" fill="rgb(92, 100, 116)"  x="15" y="2" width="1" height="1" /><rect shape-rendering="crispEdges" fill="rgb(60, 60, 77)"  x="15" y="3" width="1" height="1" /><rect shape-rendering="crispEdges" fill="rgb(66, 75, 91)"  x="15" y="4" width="1" height="1" /><rect shape-rendering="crispEdges" fill="rgb(17, 25, 25)"  x="15" y="5" width="1" height="1" /><rect shape-rendering="crispEdges" fill="rgb(91, 99, 116)"  x="15" y="6" width="1" height="1" /><rect shape-rendering="crispEdges" fill="rgb(165, 190, 214)"  x="15" y="7" width="1" height="1" /><rect shape-rendering="crispEdges" fill="rgb(149, 181, 214)"  x="15" y="8" width="1" height="1" /><rect shape-rendering="crispEdges" fill="rgb(157, 190, 223)"  x="15" y="9" width="1" height="1" /><rect shape-rendering="crispEdges" fill="rgb(42, 50, 58)"  x="15" y="10" width="1" height="1" /><rect shape-rendering="crispEdges" fill="rgb(42, 50, 58)"  x="15" y="11" width="1" height="1" /><rect shape-rendering="crispEdges" fill="rgb(42, 42, 58)"  x="15" y="12" width="1" height="1" /><rect shape-rendering="crispEdges" fill="rgb(9, 9, 17)"  x="15" y="13" width="1" height="1" /><rect shape-rendering="crispEdges" fill="rgb(0, 0, 0)"  x="15" y="14" width="1" height="1" /><rect shape-rendering="crispEdges" fill="rgb(0, 0, 0)"  x="15" y="15" width="1" height="1" /><rect shape-rendering="crispEdges" fill="rgb(0, 9, 9)"  x="15" y="16" width="1" height="1" /><rect shape-rendering="crispEdges" fill="rgb(0, 0, 0)"  x="15" y="17" width="1" height="1" /><rect shape-rendering="crispEdges" fill="rgb(0, 0, 0)"  x="15" y="18" width="1" height="1" /><rect shape-rendering="crispEdges" fill="rgb(0, 0, 9)"  x="15" y="19" width="1" height="1" /><rect shape-rendering="crispEdges" fill="rgb(9, 9, 17)"  x="15" y="20" width="1" height="1" /><rect shape-rendering="crispEdges" fill="rgb(17, 25, 33)"  x="15" y="21" width="1" height="1" /><rect shape-rendering="crispEdges" fill="rgb(33, 42, 50)"  x="15" y="22" width="1" height="1" /><rect shape-rendering="crispEdges" fill="rgb(75, 91, 107)"  x="15" y="23" width="1" height="1" /><rect shape-rendering="crispEdges" fill="rgb(75, 83, 99)"  x="15" y="24" width="1" height="1" /><rect shape-rendering="crispEdges" fill="rgb(17, 17, 25)"  x="15" y="25" width="1" height="1" /><rect shape-rendering="crispEdges" fill="rgb(0, 9, 9)"  x="15" y="26" width="1" height="1" /><rect shape-rendering="crispEdges" fill="rgb(17, 17, 25)"  x="15" y="27" width="1" height="1" /><rect shape-rendering="crispEdges" fill="rgb(42, 42, 50)"  x="15" y="28" width="1" height="1" /><rect shape-rendering="crispEdges" fill="rgb(116, 124, 149)"  x="15" y="29" width="1" height="1" /><rect shape-rendering="crispEdges" fill="rgb(92, 100, 116)"  x="16" y="1" width="1" height="1" /><rect shape-rendering="crispEdges" fill="rgb(27, 35, 42)"  x="16" y="2" width="1" height="1" /><rect shape-rendering="crispEdges" fill="rgb(0, 9, 9)"  x="16" y="3" width="1" height="1" /><rect shape-rendering="crispEdges" fill="rgb(66, 75, 91)"  x="16" y="4" width="1" height="1" /><rect shape-rendering="crispEdges" fill="rgb(75, 83, 107)"  x="16" y="5" width="1" height="1" /><rect shape-rendering="crispEdges" fill="rgb(9, 9, 17)"  x="16" y="6" width="1" height="1" /><rect shape-rendering="crispEdges" fill="rgb(198, 223, 239)"  x="16" y="7" width="1" height="1" /><rect shape-rendering="crispEdges" fill="rgb(181, 206, 231)"  x="16" y="8" width="1" height="1" /><rect shape-rendering="crispEdges" fill="rgb(190, 214, 231)"  x="16" y="9" width="1" height="1" /><rect shape-rendering="crispEdges" fill="rgb(25, 33, 42)"  x="16" y="10" width="1" height="1" /><rect shape-rendering="crispEdges" fill="rgb(17, 17, 25)"  x="16" y="11" width="1" height="1" /><rect shape-rendering="crispEdges" fill="rgb(25, 25, 33)"  x="16" y="12" width="1" height="1" /><rect shape-rendering="crispEdges" fill="rgb(17, 17, 25)"  x="16" y="13" width="1" height="1" /><rect shape-rendering="crispEdges" fill="rgb(9, 9, 17)"  x="16" y="14" width="1" height="1" /><rect shape-rendering="crispEdges" fill="rgb(25, 25, 33)"  x="16" y="15" width="1" height="1" /><rect shape-rendering="crispEdges" fill="rgb(42, 50, 58)"  x="16" y="16" width="1" height="1" /><rect shape-rendering="crispEdges" fill="rgb(58, 66, 75)"  x="16" y="17" width="1" height="1" /><rect shape-rendering="crispEdges" fill="rgb(50, 58, 66)"  x="16" y="18" width="1" height="1" /><rect shape-rendering="crispEdges" fill="rgb(33, 42, 50)"  x="16" y="19" width="1" height="1" /><rect shape-rendering="crispEdges" fill="rgb(17, 25, 33)"  x="16" y="20" width="1" height="1" /><rect shape-rendering="crispEdges" fill="rgb(17, 25, 33)"  x="16" y="21" width="1" height="1" /><rect shape-rendering="crispEdges" fill="rgb(42, 50, 58)"  x="16" y="22" width="1" height="1" /><rect shape-rendering="crispEdges" fill="rgb(75, 83, 91)"  x="16" y="23" width="1" height="1" /><rect shape-rendering="crispEdges" fill="rgb(33, 42, 50)"  x="16" y="24" width="1" height="1" /><rect shape-rendering="crispEdges" fill="rgb(17, 17, 25)"  x="16" y="25" width="1" height="1" /><rect shape-rendering="crispEdges" fill="rgb(17, 17, 25)"  x="16" y="26" width="1" height="1" /><rect shape-rendering="crispEdges" fill="rgb(25, 25, 33)"  x="16" y="27" width="1" height="1" /><rect shape-rendering="crispEdges" fill="rgb(58, 58, 75)"  x="16" y="28" width="1" height="1" /><rect shape-rendering="crispEdges" fill="rgb(116, 124, 149)"  x="16" y="29" width="1" height="1" /><rect shape-rendering="crispEdges" fill="rgb(92, 100, 116)"  x="17" y="1" width="1" height="1" /><rect shape-rendering="crispEdges" fill="rgb(34, 41, 41)"  x="17" y="2" width="1" height="1" /><rect shape-rendering="crispEdges" fill="rgb(9, 9, 9)"  x="17" y="3" width="1" height="1" /><rect shape-rendering="crispEdges" fill="rgb(25, 25, 33)"  x="17" y="4" width="1" height="1" /><rect shape-rendering="crispEdges" fill="rgb(75, 75, 91)"  x="17" y="5" width="1" height="1" /><rect shape-rendering="crispEdges" fill="rgb(83, 91, 116)"  x="17" y="6" width="1" height="1" /><rect shape-rendering="crispEdges" fill="rgb(196, 211, 228)"  x="17" y="7" width="1" height="1" /><rect shape-rendering="crispEdges" fill="rgb(181, 206, 231)"  x="17" y="8" width="1" height="1" /><rect shape-rendering="crispEdges" fill="rgb(50, 57, 65)"  x="17" y="9" width="1" height="1" /><rect shape-rendering="crispEdges" fill="rgb(17, 25, 33)"  x="17" y="10" width="1" height="1" /><rect shape-rendering="crispEdges" fill="rgb(17, 17, 33)"  x="17" y="11" width="1" height="1" /><rect shape-rendering="crispEdges" fill="rgb(25, 33, 50)"  x="17" y="12" width="1" height="1" /><rect shape-rendering="crispEdges" fill="rgb(58, 58, 75)"  x="17" y="13" width="1" height="1" /><rect shape-rendering="crispEdges" fill="rgb(66, 75, 91)"  x="17" y="14" width="1" height="1" /><rect shape-rendering="crispEdges" fill="rgb(58, 66, 83)"  x="17" y="15" width="1" height="1" /><rect shape-rendering="crispEdges" fill="rgb(33, 42, 50)"  x="17" y="16" width="1" height="1" /><rect shape-rendering="crispEdges" fill="rgb(33, 33, 42)"  x="17" y="17" width="1" height="1" /><rect shape-rendering="crispEdges" fill="rgb(42, 50, 58)"  x="17" y="18" width="1" height="1" /><rect shape-rendering="crispEdges" fill="rgb(75, 83, 99)"  x="17" y="19" width="1" height="1" /><rect shape-rendering="crispEdges" fill="rgb(83, 91, 107)"  x="17" y="20" width="1" height="1" /><rect shape-rendering="crispEdges" fill="rgb(75, 83, 99)"  x="17" y="21" width="1" height="1" /><rect shape-rendering="crispEdges" fill="rgb(99, 107, 132)"  x="17" y="22" width="1" height="1" /><rect shape-rendering="crispEdges" fill="rgb(91, 99, 116)"  x="17" y="23" width="1" height="1" /><rect shape-rendering="crispEdges" fill="rgb(66, 75, 91)"  x="17" y="24" width="1" height="1" /><rect shape-rendering="crispEdges" fill="rgb(66, 75, 91)"  x="17" y="25" width="1" height="1" /><rect shape-rendering="crispEdges" fill="rgb(66, 75, 91)"  x="17" y="26" width="1" height="1" /><rect shape-rendering="crispEdges" fill="rgb(66, 75, 83)"  x="17" y="27" width="1" height="1" /><rect shape-rendering="crispEdges" fill="rgb(66, 66, 83)"  x="17" y="28" width="1" height="1" /><rect shape-rendering="crispEdges" fill="rgb(92, 100, 116)"  x="17" y="29" width="1" height="1" /><rect shape-rendering="crispEdges" fill="rgb(116, 124, 149)"  x="17" y="30" width="1" height="1" /><rect shape-rendering="crispEdges" fill="rgb(84, 92, 108)"  x="18" y="2" width="1" height="1" /><rect shape-rendering="crispEdges" fill="rgb(77, 84, 100)"  x="18" y="3" width="1" height="1" /><rect shape-rendering="crispEdges" fill="rgb(58, 66, 83)"  x="18" y="4" width="1" height="1" /><rect shape-rendering="crispEdges" fill="rgb(99, 107, 132)"  x="18" y="5" width="1" height="1" /><rect shape-rendering="crispEdges" fill="rgb(107, 116, 140)"  x="18" y="6" width="1" height="1" /><rect shape-rendering="crispEdges" fill="rgb(92, 100, 116)"  x="18" y="9" width="1" height="1" /><rect shape-rendering="crispEdges" fill="rgb(116, 124, 149)"  x="18" y="10" width="1" height="1" /><rect shape-rendering="crispEdges" fill="rgb(65, 72, 80)"  x="18" y="11" width="1" height="1" /><rect shape-rendering="crispEdges" fill="rgb(42, 42, 58)"  x="18" y="12" width="1" height="1" /><rect shape-rendering="crispEdges" fill="rgb(25, 33, 50)"  x="18" y="13" width="1" height="1" /><rect shape-rendering="crispEdges" fill="rgb(50, 58, 75)"  x="18" y="14" width="1" height="1" /><rect shape-rendering="crispEdges" fill="rgb(83, 91, 107)"  x="18" y="15" width="1" height="1" /><rect shape-rendering="crispEdges" fill="rgb(83, 91, 107)"  x="18" y="16" width="1" height="1" /><rect shape-rendering="crispEdges" fill="rgb(75, 83, 99)"  x="18" y="17" width="1" height="1" /><rect shape-rendering="crispEdges" fill="rgb(50, 58, 75)"  x="18" y="18" width="1" height="1" /><rect shape-rendering="crispEdges" fill="rgb(50, 50, 66)"  x="18" y="19" width="1" height="1" /><rect shape-rendering="crispEdges" fill="rgb(83, 91, 107)"  x="18" y="20" width="1" height="1" /><rect shape-rendering="crispEdges" fill="rgb(91, 99, 124)"  x="18" y="21" width="1" height="1" /><rect shape-rendering="crispEdges" fill="rgb(42, 50, 58)"  x="18" y="22" width="1" height="1" /><rect shape-rendering="crispEdges" fill="rgb(17, 17, 25)"  x="18" y="23" width="1" height="1" /><rect shape-rendering="crispEdges" fill="rgb(25, 25, 33)"  x="18" y="24" width="1" height="1" /><rect shape-rendering="crispEdges" fill="rgb(25, 25, 33)"  x="18" y="25" width="1" height="1" /><rect shape-rendering="crispEdges" fill="rgb(25, 25, 33)"  x="18" y="26" width="1" height="1" /><rect shape-rendering="crispEdges" fill="rgb(25, 33, 42)"  x="18" y="27" width="1" height="1" /><rect shape-rendering="crispEdges" fill="rgb(42, 42, 58)"  x="18" y="28" width="1" height="1" /><rect shape-rendering="crispEdges" fill="rgb(50, 50, 58)"  x="18" y="29" width="1" height="1" /><rect shape-rendering="crispEdges" fill="rgb(116, 124, 149)"  x="18" y="30" width="1" height="1" /><rect shape-rendering="crispEdges" fill="rgb(92, 100, 116)"  x="19" y="3" width="1" height="1" /><rect shape-rendering="crispEdges" fill="rgb(100, 116, 132)"  x="19" y="4" width="1" height="1" /><rect shape-rendering="crispEdges" fill="rgb(107, 116, 140)"  x="19" y="5" width="1" height="1" /><rect shape-rendering="crispEdges" fill="rgb(92, 100, 116)"  x="19" y="11" width="1" height="1" /><rect shape-rendering="crispEdges" fill="rgb(77, 84, 100)"  x="19" y="12" width="1" height="1" /><rect shape-rendering="crispEdges" fill="rgb(66, 75, 91)"  x="19" y="13" width="1" height="1" /><rect shape-rendering="crispEdges" fill="rgb(58, 66, 83)"  x="19" y="14" width="1" height="1" /><rect shape-rendering="crispEdges" fill="rgb(50, 58, 75)"  x="19" y="15" width="1" height="1" /><rect shape-rendering="crispEdges" fill="rgb(50, 50, 66)"  x="19" y="16" width="1" height="1" /><rect shape-rendering="crispEdges" fill="rgb(75, 83, 99)"  x="19" y="17" width="1" height="1" /><rect shape-rendering="crispEdges" fill="rgb(83, 91, 107)"  x="19" y="18" width="1" height="1" /><rect shape-rendering="crispEdges" fill="rgb(91, 107, 124)"  x="19" y="19" width="1" height="1" /><rect shape-rendering="crispEdges" fill="rgb(91, 99, 116)"  x="19" y="20" width="1" height="1" /><rect shape-rendering="crispEdges" fill="rgb(75, 83, 99)"  x="19" y="21" width="1" height="1" /><rect shape-rendering="crispEdges" fill="rgb(58, 66, 83)"  x="19" y="22" width="1" height="1" /><rect shape-rendering="crispEdges" fill="rgb(50, 58, 66)"  x="19" y="23" width="1" height="1" /><rect shape-rendering="crispEdges" fill="rgb(33, 33, 42)"  x="19" y="24" width="1" height="1" /><rect shape-rendering="crispEdges" fill="rgb(33, 33, 42)"  x="19" y="25" width="1" height="1" /><rect shape-rendering="crispEdges" fill="rgb(25, 25, 33)"  x="19" y="26" width="1" height="1" /><rect shape-rendering="crispEdges" fill="rgb(25, 33, 42)"  x="19" y="27" width="1" height="1" /><rect shape-rendering="crispEdges" fill="rgb(50, 50, 66)"  x="19" y="28" width="1" height="1" /><rect shape-rendering="crispEdges" fill="rgb(57, 65, 72)"  x="19" y="29" width="1" height="1" /><rect shape-rendering="crispEdges" fill="rgb(116, 124, 149)"  x="19" y="30" width="1" height="1" /><rect shape-rendering="crispEdges" fill="rgb(92, 108, 124)"  x="20" y="12" width="1" height="1" /><rect shape-rendering="crispEdges" fill="rgb(84, 92, 108)"  x="20" y="13" width="1" height="1" /><rect shape-rendering="crispEdges" fill="rgb(66, 75, 91)"  x="20" y="14" width="1" height="1" /><rect shape-rendering="crispEdges" fill="rgb(58, 66, 83)"  x="20" y="15" width="1" height="1" /><rect shape-rendering="crispEdges" fill="rgb(66, 75, 91)"  x="20" y="16" width="1" height="1" /><rect shape-rendering="crispEdges" fill="rgb(66, 75, 83)"  x="20" y="17" width="1" height="1" /><rect shape-rendering="crispEdges" fill="rgb(83, 91, 107)"  x="20" y="18" width="1" height="1" /><rect shape-rendering="crispEdges" fill="rgb(107, 116, 140)"  x="20" y="19" width="1" height="1" /><rect shape-rendering="crispEdges" fill="rgb(75, 83, 99)"  x="20" y="20" width="1" height="1" /><rect shape-rendering="crispEdges" fill="rgb(42, 50, 66)"  x="20" y="21" width="1" height="1" /><rect shape-rendering="crispEdges" fill="rgb(58, 66, 83)"  x="20" y="22" width="1" height="1" /><rect shape-rendering="crispEdges" fill="rgb(83, 99, 116)"  x="20" y="23" width="1" height="1" /><rect shape-rendering="crispEdges" fill="rgb(91, 99, 116)"  x="20" y="24" width="1" height="1" /><rect shape-rendering="crispEdges" fill="rgb(83, 91, 107)"  x="20" y="25" width="1" height="1" /><rect shape-rendering="crispEdges" fill="rgb(66, 75, 91)"  x="20" y="26" width="1" height="1" /><rect shape-rendering="crispEdges" fill="rgb(66, 75, 83)"  x="20" y="27" width="1" height="1" /><rect shape-rendering="crispEdges" fill="rgb(75, 83, 99)"  x="20" y="28" width="1" height="1" /><rect shape-rendering="crispEdges" fill="rgb(108, 124, 140)"  x="20" y="29" width="1" height="1" /><rect shape-rendering="crispEdges" fill="rgb(100, 108, 124)"  x="21" y="13" width="1" height="1" /><rect shape-rendering="crispEdges" fill="rgb(100, 116, 132)"  x="21" y="14" width="1" height="1" /><rect shape-rendering="crispEdges" fill="rgb(92, 100, 116)"  x="21" y="15" width="1" height="1" /><rect shape-rendering="crispEdges" fill="rgb(91, 99, 116)"  x="21" y="16" width="1" height="1" /><rect shape-rendering="crispEdges" fill="rgb(91, 99, 116)"  x="21" y="17" width="1" height="1" /><rect shape-rendering="crispEdges" fill="rgb(99, 107, 124)"  x="21" y="18" width="1" height="1" /><rect shape-rendering="crispEdges" fill="rgb(99, 107, 124)"  x="21" y="19" width="1" height="1" /><rect shape-rendering="crispEdges" fill="rgb(83, 91, 107)"  x="21" y="20" width="1" height="1" /><rect shape-rendering="crispEdges" fill="rgb(50, 58, 75)"  x="21" y="21" width="1" height="1" /><rect shape-rendering="crispEdges" fill="rgb(25, 25, 42)"  x="21" y="22" width="1" height="1" /><rect shape-rendering="crispEdges" fill="rgb(25, 33, 42)"  x="21" y="23" width="1" height="1" /><rect shape-rendering="crispEdges" fill="rgb(66, 75, 91)"  x="21" y="24" width="1" height="1" /><rect shape-rendering="crispEdges" fill="rgb(91, 99, 116)"  x="21" y="25" width="1" height="1" /><rect shape-rendering="crispEdges" fill="rgb(91, 99, 124)"  x="21" y="26" width="1" height="1" /><rect shape-rendering="crispEdges" fill="rgb(83, 99, 116)"  x="21" y="27" width="1" height="1" /><rect shape-rendering="crispEdges" fill="rgb(66, 75, 91)"  x="21" y="28" width="1" height="1" /><rect shape-rendering="crispEdges" fill="rgb(116, 124, 149)"  x="21" y="29" width="1" height="1" /><rect shape-rendering="crispEdges" fill="rgb(107, 116, 140)"  x="22" y="15" width="1" height="1" /><rect shape-rendering="crispEdges" fill="rgb(92, 100, 116)"  x="22" y="16" width="1" height="1" /><rect shape-rendering="crispEdges" fill="rgb(91, 107, 124)"  x="22" y="17" width="1" height="1" /><rect shape-rendering="crispEdges" fill="rgb(107, 116, 140)"  x="22" y="18" width="1" height="1" /><rect shape-rendering="crispEdges" fill="rgb(91, 99, 116)"  x="22" y="19" width="1" height="1" /><rect shape-rendering="crispEdges" fill="rgb(91, 107, 124)"  x="22" y="20" width="1" height="1" /><rect shape-rendering="crispEdges" fill="rgb(91, 99, 116)"  x="22" y="21" width="1" height="1" /><rect shape-rendering="crispEdges" fill="rgb(75, 83, 99)"  x="22" y="22" width="1" height="1" /><rect shape-rendering="crispEdges" fill="rgb(50, 58, 75)"  x="22" y="23" width="1" height="1" /><rect shape-rendering="crispEdges" fill="rgb(42, 42, 58)"  x="22" y="24" width="1" height="1" /><rect shape-rendering="crispEdges" fill="rgb(42, 50, 66)"  x="22" y="25" width="1" height="1" /><rect shape-rendering="crispEdges" fill="rgb(50, 58, 75)"  x="22" y="26" width="1" height="1" /><rect shape-rendering="crispEdges" fill="rgb(75, 83, 99)"  x="22" y="27" width="1" height="1" /><rect shape-rendering="crispEdges" fill="rgb(50, 50, 58)"  x="22" y="28" width="1" height="1" /><rect shape-rendering="crispEdges" fill="rgb(116, 124, 149)"  x="22" y="29" width="1" height="1" /><rect shape-rendering="crispEdges" fill="rgb(92, 100, 116)"  x="23" y="16" width="1" height="1" /><rect shape-rendering="crispEdges" fill="rgb(100, 108, 124)"  x="23" y="17" width="1" height="1" /><rect shape-rendering="crispEdges" fill="rgb(91, 99, 124)"  x="23" y="18" width="1" height="1" /><rect shape-rendering="crispEdges" fill="rgb(116, 124, 149)"  x="23" y="19" width="1" height="1" /><rect shape-rendering="crispEdges" fill="rgb(116, 124, 149)"  x="23" y="20" width="1" height="1" /><rect shape-rendering="crispEdges" fill="rgb(91, 99, 124)"  x="23" y="21" width="1" height="1" /><rect shape-rendering="crispEdges" fill="rgb(91, 99, 116)"  x="23" y="22" width="1" height="1" /><rect shape-rendering="crispEdges" fill="rgb(83, 99, 116)"  x="23" y="23" width="1" height="1" /><rect shape-rendering="crispEdges" fill="rgb(75, 91, 107)"  x="23" y="24" width="1" height="1" /><rect shape-rendering="crispEdges" fill="rgb(75, 83, 99)"  x="23" y="25" width="1" height="1" /><rect shape-rendering="crispEdges" fill="rgb(75, 83, 99)"  x="23" y="26" width="1" height="1" /><rect shape-rendering="crispEdges" fill="rgb(83, 91, 107)"  x="23" y="27" width="1" height="1" /><rect shape-rendering="crispEdges" fill="rgb(57, 65, 72)"  x="23" y="28" width="1" height="1" /><rect shape-rendering="crispEdges" fill="rgb(116, 124, 149)"  x="23" y="29" width="1" height="1" /><rect shape-rendering="crispEdges" fill="rgb(116, 124, 149)"  x="24" y="21" width="1" height="1" /><rect shape-rendering="crispEdges" fill="rgb(116, 124, 149)"  x="24" y="22" width="1" height="1" /><rect shape-rendering="crispEdges" fill="rgb(84, 100, 116)"  x="24" y="23" width="1" height="1" /><rect shape-rendering="crispEdges" fill="rgb(91, 107, 124)"  x="24" y="24" width="1" height="1" /><rect shape-rendering="crispEdges" fill="rgb(91, 107, 124)"  x="24" y="25" width="1" height="1" /><rect shape-rendering="crispEdges" fill="rgb(91, 99, 116)"  x="24" y="26" width="1" height="1" /><rect shape-rendering="crispEdges" fill="rgb(92, 108, 124)"  x="24" y="27" width="1" height="1" /><rect shape-rendering="crispEdges" fill="rgb(116, 124, 149)"  x="24" y="28" width="1" height="1" /><rect shape-rendering="crispEdges" fill="rgb(116, 124, 149)"  x="25" y="23" width="1" height="1" /><rect shape-rendering="crispEdges" fill="rgb(116, 124, 149)"  x="25" y="24" width="1" height="1" /><rect shape-rendering="crispEdges" fill="rgb(116, 124, 149)"  x="25" y="25" width="1" height="1" /><rect shape-rendering="crispEdges" fill="rgb(92, 108, 124)"  x="25" y="26" width="1" height="1" /><rect shape-rendering="crispEdges" fill="rgb(116, 124, 149)"  x="25" y="27" width="1" height="1" /><rect shape-rendering="crispEdges" fill="rgb(116, 124, 149)"  x="26" y="26" width="1" height="1" /></svg>