<svg xmlns="http://www.w3.org/2000/svg" xmlns:xlink= "http://www.w3.org/1999/xlink" width="32" height="32" viewBox ="0 0 32 32"><rect shape-rendering="crispEdges" fill="rgb(180, 65, 0)"  x="1" y="19" width="1" height="1" /><rect shape-rendering="crispEdges" fill="rgb(189, 180, 156)"  x="1" y="20" width="1" height="1" /><rect shape-rendering="crispEdges" fill="rgb(180, 205, 222)"  x="1" y="21" width="1" height="1" /><rect shape-rendering="crispEdges" fill="rgb(131, 148, 189)"  x="1" y="22" width="1" height="1" /><rect shape-rendering="crispEdges" fill="rgb(131, 148, 189)"  x="1" y="23" width="1" height="1" /><rect shape-rendering="crispEdges" fill="rgb(148, 172, 205)"  x="1" y="24" width="1" height="1" /><rect shape-rendering="crispEdges" fill="rgb(222, 90, 0)"  x="2" y="17" width="1" height="1" /><rect shape-rendering="crispEdges" fill="rgb(222, 82, 0)"  x="2" y="18" width="1" height="1" /><rect shape-rendering="crispEdges" fill="rgb(172, 98, 41)"  x="2" y="19" width="1" height="1" /><rect shape-rendering="crispEdges" fill="rgb(172, 197, 213)"  x="2" y="20" width="1" height="1" /><rect shape-rendering="crispEdges" fill="rgb(255, 255, 255)"  x="2" y="21" width="1" height="1" /><rect shape-rendering="crispEdges" fill="rgb(255, 255, 246)"  x="2" y="22" width="1" height="1" /><rect shape-rendering="crispEdges" fill="rgb(123, 148, 180)"  x="2" y="23" width="1" height="1" /><rect shape-rendering="crispEdges" fill="rgb(131, 148, 189)"  x="2" y="24" width="1" height="1" /><rect shape-rendering="crispEdges" fill="rgb(230, 106, 0)"  x="3" y="16" width="1" height="1" /><rect shape-rendering="crispEdges" fill="rgb(230, 106, 0)"  x="3" y="17" width="1" height="1" /><rect shape-rendering="crispEdges" fill="rgb(205, 82, 0)"  x="3" y="18" width="1" height="1" /><rect shape-rendering="crispEdges" fill="rgb(164, 180, 197)"  x="3" y="19" width="1" height="1" /><rect shape-rendering="crispEdges" fill="rgb(156, 189, 213)"  x="3" y="20" width="1" height="1" /><rect shape-rendering="crispEdges" fill="rgb(255, 255, 246)"  x="3" y="21" width="1" height="1" /><rect shape-rendering="crispEdges" fill="rgb(255, 255, 255)"  x="3" y="22" width="1" height="1" /><rect shape-rendering="crispEdges" fill="rgb(139, 156, 189)"  x="3" y="23" width="1" height="1" /><rect shape-rendering="crispEdges" fill="rgb(131, 148, 180)"  x="3" y="24" width="1" height="1" /><rect shape-rendering="crispEdges" fill="rgb(148, 180, 213)"  x="3" y="25" width="1" height="1" /><rect shape-rendering="crispEdges" fill="rgb(255, 189, 0)"  x="4" y="16" width="1" height="1" /><rect shape-rendering="crispEdges" fill="rgb(255, 197, 0)"  x="4" y="17" width="1" height="1" /><rect shape-rendering="crispEdges" fill="rgb(197, 172, 148)"  x="4" y="18" width="1" height="1" /><rect shape-rendering="crispEdges" fill="rgb(180, 213, 230)"  x="4" y="19" width="1" height="1" /><rect shape-rendering="crispEdges" fill="rgb(164, 189, 213)"  x="4" y="20" width="1" height="1" /><rect shape-rendering="crispEdges" fill="rgb(255, 255, 255)"  x="4" y="21" width="1" height="1" /><rect shape-rendering="crispEdges" fill="rgb(255, 255, 255)"  x="4" y="22" width="1" height="1" /><rect shape-rendering="crispEdges" fill="rgb(139, 156, 189)"  x="4" y="23" width="1" height="1" /><rect shape-rendering="crispEdges" fill="rgb(123, 139, 180)"  x="4" y="24" width="1" height="1" /><rect shape-rendering="crispEdges" fill="rgb(148, 172, 205)"  x="4" y="25" width="1" height="1" /><rect shape-rendering="crispEdges" fill="rgb(255, 213, 57)"  x="5" y="15" width="1" height="1" /><rect shape-rendering="crispEdges" fill="rgb(255, 197, 8)"  x="5" y="16" width="1" height="1" /><rect shape-rendering="crispEdges" fill="rgb(164, 148, 148)"  x="5" y="17" width="1" height="1" /><rect shape-rendering="crispEdges" fill="rgb(189, 164, 156)"  x="5" y="18" width="1" height="1" /><rect shape-rendering="crispEdges" fill="rgb(230, 238, 230)"  x="5" y="19" width="1" height="1" /><rect shape-rendering="crispEdges" fill="rgb(156, 180, 213)"  x="5" y="20" width="1" height="1" /><rect shape-rendering="crispEdges" fill="rgb(148, 180, 205)"  x="5" y="21" width="1" height="1" /><rect shape-rendering="crispEdges" fill="rgb(189, 213, 230)"  x="5" y="22" width="1" height="1" /><rect shape-rendering="crispEdges" fill="rgb(131, 148, 180)"  x="5" y="23" width="1" height="1" /><rect shape-rendering="crispEdges" fill="rgb(123, 148, 180)"  x="5" y="24" width="1" height="1" /><rect shape-rendering="crispEdges" fill="rgb(139, 172, 205)"  x="5" y="25" width="1" height="1" /><rect shape-rendering="crispEdges" fill="rgb(197, 90, 0)"  x="6" y="14" width="1" height="1" /><rect shape-rendering="crispEdges" fill="rgb(197, 98, 16)"  x="6" y="15" width="1" height="1" /><rect shape-rendering="crispEdges" fill="rgb(255, 222, 90)"  x="6" y="16" width="1" height="1" /><rect shape-rendering="crispEdges" fill="rgb(255, 230, 98)"  x="6" y="17" width="1" height="1" /><rect shape-rendering="crispEdges" fill="rgb(238, 172, 41)"  x="6" y="18" width="1" height="1" /><rect shape-rendering="crispEdges" fill="rgb(205, 106, 24)"  x="6" y="19" width="1" height="1" /><rect shape-rendering="crispEdges" fill="rgb(189, 106, 57)"  x="6" y="20" width="1" height="1" /><rect shape-rendering="crispEdges" fill="rgb(148, 156, 164)"  x="6" y="21" width="1" height="1" /><rect shape-rendering="crispEdges" fill="rgb(148, 172, 197)"  x="6" y="22" width="1" height="1" /><rect shape-rendering="crispEdges" fill="rgb(131, 148, 180)"  x="6" y="23" width="1" height="1" /><rect shape-rendering="crispEdges" fill="rgb(139, 156, 189)"  x="6" y="24" width="1" height="1" /><rect shape-rendering="crispEdges" fill="rgb(139, 156, 189)"  x="6" y="25" width="1" height="1" /><rect shape-rendering="crispEdges" fill="rgb(255, 180, 0)"  x="7" y="13" width="1" height="1" /><rect shape-rendering="crispEdges" fill="rgb(255, 197, 0)"  x="7" y="14" width="1" height="1" /><rect shape-rendering="crispEdges" fill="rgb(255, 197, 0)"  x="7" y="15" width="1" height="1" /><rect shape-rendering="crispEdges" fill="rgb(255, 222, 82)"  x="7" y="16" width="1" height="1" /><rect shape-rendering="crispEdges" fill="rgb(255, 222, 74)"  x="7" y="17" width="1" height="1" /><rect shape-rendering="crispEdges" fill="rgb(255, 230, 106)"  x="7" y="18" width="1" height="1" /><rect shape-rendering="crispEdges" fill="rgb(246, 222, 106)"  x="7" y="19" width="1" height="1" /><rect shape-rendering="crispEdges" fill="rgb(238, 180, 74)"  x="7" y="20" width="1" height="1" /><rect shape-rendering="crispEdges" fill="rgb(222, 106, 16)"  x="7" y="21" width="1" height="1" /><rect shape-rendering="crispEdges" fill="rgb(197, 82, 16)"  x="7" y="22" width="1" height="1" /><rect shape-rendering="crispEdges" fill="rgb(123, 139, 172)"  x="7" y="23" width="1" height="1" /><rect shape-rendering="crispEdges" fill="rgb(139, 164, 197)"  x="7" y="24" width="1" height="1" /><rect shape-rendering="crispEdges" fill="rgb(139, 164, 197)"  x="7" y="25" width="1" height="1" /><rect shape-rendering="crispEdges" fill="rgb(230, 106, 0)"  x="8" y="12" width="1" height="1" /><rect shape-rendering="crispEdges" fill="rgb(255, 189, 0)"  x="8" y="13" width="1" height="1" /><rect shape-rendering="crispEdges" fill="rgb(189, 74, 0)"  x="8" y="14" width="1" height="1" /><rect shape-rendering="crispEdges" fill="rgb(246, 197, 32)"  x="8" y="15" width="1" height="1" /><rect shape-rendering="crispEdges" fill="rgb(255, 230, 90)"  x="8" y="16" width="1" height="1" /><rect shape-rendering="crispEdges" fill="rgb(255, 197, 0)"  x="8" y="17" width="1" height="1" /><rect shape-rendering="crispEdges" fill="rgb(156, 180, 213)"  x="8" y="18" width="1" height="1" /><rect shape-rendering="crispEdges" fill="rgb(213, 189, 131)"  x="8" y="19" width="1" height="1" /><rect shape-rendering="crispEdges" fill="rgb(255, 205, 57)"  x="8" y="20" width="1" height="1" /><rect shape-rendering="crispEdges" fill="rgb(222, 106, 16)"  x="8" y="21" width="1" height="1" /><rect shape-rendering="crispEdges" fill="rgb(172, 98, 65)"  x="8" y="22" width="1" height="1" /><rect shape-rendering="crispEdges" fill="rgb(131, 139, 180)"  x="8" y="23" width="1" height="1" /><rect shape-rendering="crispEdges" fill="rgb(139, 164, 189)"  x="8" y="24" width="1" height="1" /><rect shape-rendering="crispEdges" fill="rgb(148, 172, 205)"  x="8" y="25" width="1" height="1" /><rect shape-rendering="crispEdges" fill="rgb(230, 98, 0)"  x="9" y="11" width="1" height="1" /><rect shape-rendering="crispEdges" fill="rgb(255, 189, 0)"  x="9" y="12" width="1" height="1" /><rect shape-rendering="crispEdges" fill="rgb(164, 32, 0)"  x="9" y="13" width="1" height="1" /><rect shape-rendering="crispEdges" fill="rgb(255, 197, 0)"  x="9" y="15" width="1" height="1" /><rect shape-rendering="crispEdges" fill="rgb(255, 230, 98)"  x="9" y="16" width="1" height="1" /><rect shape-rendering="crispEdges" fill="rgb(255, 255, 246)"  x="9" y="17" width="1" height="1" /><rect shape-rendering="crispEdges" fill="rgb(148, 180, 205)"  x="9" y="18" width="1" height="1" /><rect shape-rendering="crispEdges" fill="rgb(238, 255, 246)"  x="9" y="19" width="1" height="1" /><rect shape-rendering="crispEdges" fill="rgb(246, 230, 213)"  x="9" y="20" width="1" height="1" /><rect shape-rendering="crispEdges" fill="rgb(213, 172, 139)"  x="9" y="21" width="1" height="1" /><rect shape-rendering="crispEdges" fill="rgb(131, 139, 172)"  x="9" y="22" width="1" height="1" /><rect shape-rendering="crispEdges" fill="rgb(131, 148, 180)"  x="9" y="23" width="1" height="1" /><rect shape-rendering="crispEdges" fill="rgb(148, 172, 197)"  x="9" y="24" width="1" height="1" /><rect shape-rendering="crispEdges" fill="rgb(255, 172, 0)"  x="10" y="10" width="1" height="1" /><rect shape-rendering="crispEdges" fill="rgb(255, 189, 0)"  x="10" y="11" width="1" height="1" /><rect shape-rendering="crispEdges" fill="rgb(148, 16, 0)"  x="10" y="12" width="1" height="1" /><rect shape-rendering="crispEdges" fill="rgb(156, 24, 0)"  x="10" y="13" width="1" height="1" /><rect shape-rendering="crispEdges" fill="rgb(213, 115, 32)"  x="10" y="14" width="1" height="1" /><rect shape-rendering="crispEdges" fill="rgb(255, 197, 0)"  x="10" y="15" width="1" height="1" /><rect shape-rendering="crispEdges" fill="rgb(255, 222, 74)"  x="10" y="16" width="1" height="1" /><rect shape-rendering="crispEdges" fill="rgb(222, 238, 230)"  x="10" y="17" width="1" height="1" /><rect shape-rendering="crispEdges" fill="rgb(148, 172, 205)"  x="10" y="18" width="1" height="1" /><rect shape-rendering="crispEdges" fill="rgb(246, 255, 238)"  x="10" y="19" width="1" height="1" /><rect shape-rendering="crispEdges" fill="rgb(255, 255, 255)"  x="10" y="20" width="1" height="1" /><rect shape-rendering="crispEdges" fill="rgb(246, 246, 255)"  x="10" y="21" width="1" height="1" /><rect shape-rendering="crispEdges" fill="rgb(131, 148, 180)"  x="10" y="22" width="1" height="1" /><rect shape-rendering="crispEdges" fill="rgb(148, 164, 189)"  x="10" y="23" width="1" height="1" /><rect shape-rendering="crispEdges" fill="rgb(156, 172, 197)"  x="10" y="24" width="1" height="1" /><rect shape-rendering="crispEdges" fill="rgb(246, 238, 123)"  x="11" y="6" width="1" height="1" /><rect shape-rendering="crispEdges" fill="rgb(230, 164, 41)"  x="11" y="7" width="1" height="1" /><rect shape-rendering="crispEdges" fill="rgb(255, 164, 16)"  x="11" y="8" width="1" height="1" /><rect shape-rendering="crispEdges" fill="rgb(213, 115, 41)"  x="11" y="9" width="1" height="1" /><rect shape-rendering="crispEdges" fill="rgb(255, 197, 0)"  x="11" y="10" width="1" height="1" /><rect shape-rendering="crispEdges" fill="rgb(197, 82, 8)"  x="11" y="11" width="1" height="1" /><rect shape-rendering="crispEdges" fill="rgb(139, 8, 0)"  x="11" y="12" width="1" height="1" /><rect shape-rendering="crispEdges" fill="rgb(148, 0, 0)"  x="11" y="13" width="1" height="1" /><rect shape-rendering="crispEdges" fill="rgb(180, 74, 24)"  x="11" y="14" width="1" height="1" /><rect shape-rendering="crispEdges" fill="rgb(255, 180, 0)"  x="11" y="15" width="1" height="1" /><rect shape-rendering="crispEdges" fill="rgb(255, 189, 49)"  x="11" y="16" width="1" height="1" /><rect shape-rendering="crispEdges" fill="rgb(197, 213, 222)"  x="11" y="17" width="1" height="1" /><rect shape-rendering="crispEdges" fill="rgb(148, 180, 205)"  x="11" y="18" width="1" height="1" /><rect shape-rendering="crispEdges" fill="rgb(238, 246, 238)"  x="11" y="19" width="1" height="1" /><rect shape-rendering="crispEdges" fill="rgb(255, 255, 255)"  x="11" y="20" width="1" height="1" /><rect shape-rendering="crispEdges" fill="rgb(180, 197, 205)"  x="11" y="21" width="1" height="1" /><rect shape-rendering="crispEdges" fill="rgb(139, 148, 180)"  x="11" y="22" width="1" height="1" /><rect shape-rendering="crispEdges" fill="rgb(197, 180, 172)"  x="11" y="23" width="1" height="1" /><rect shape-rendering="crispEdges" fill="rgb(156, 172, 197)"  x="11" y="24" width="1" height="1" /><rect shape-rendering="crispEdges" fill="rgb(255, 222, 82)"  x="12" y="5" width="1" height="1" /><rect shape-rendering="crispEdges" fill="rgb(230, 205, 115)"  x="12" y="6" width="1" height="1" /><rect shape-rendering="crispEdges" fill="rgb(148, 16, 0)"  x="12" y="7" width="1" height="1" /><rect shape-rendering="crispEdges" fill="rgb(255, 197, 0)"  x="12" y="8" width="1" height="1" /><rect shape-rendering="crispEdges" fill="rgb(197, 74, 0)"  x="12" y="9" width="1" height="1" /><rect shape-rendering="crispEdges" fill="rgb(164, 32, 0)"  x="12" y="10" width="1" height="1" /><rect shape-rendering="crispEdges" fill="rgb(255, 213, 57)"  x="12" y="11" width="1" height="1" /><rect shape-rendering="crispEdges" fill="rgb(164, 32, 0)"  x="12" y="12" width="1" height="1" /><rect shape-rendering="crispEdges" fill="rgb(164, 82, 57)"  x="12" y="13" width="1" height="1" /><rect shape-rendering="crispEdges" fill="rgb(255, 148, 0)"  x="12" y="15" width="1" height="1" /><rect shape-rendering="crispEdges" fill="rgb(238, 139, 16)"  x="12" y="16" width="1" height="1" /><rect shape-rendering="crispEdges" fill="rgb(205, 222, 230)"  x="12" y="17" width="1" height="1" /><rect shape-rendering="crispEdges" fill="rgb(148, 180, 205)"  x="12" y="18" width="1" height="1" /><rect shape-rendering="crispEdges" fill="rgb(238, 238, 230)"  x="12" y="19" width="1" height="1" /><rect shape-rendering="crispEdges" fill="rgb(255, 255, 255)"  x="12" y="20" width="1" height="1" /><rect shape-rendering="crispEdges" fill="rgb(131, 148, 180)"  x="12" y="21" width="1" height="1" /><rect shape-rendering="crispEdges" fill="rgb(172, 172, 172)"  x="12" y="22" width="1" height="1" /><rect shape-rendering="crispEdges" fill="rgb(197, 180, 172)"  x="12" y="23" width="1" height="1" /><rect shape-rendering="crispEdges" fill="rgb(255, 230, 98)"  x="13" y="5" width="1" height="1" /><rect shape-rendering="crispEdges" fill="rgb(148, 16, 0)"  x="13" y="6" width="1" height="1" /><rect shape-rendering="crispEdges" fill="rgb(255, 222, 65)"  x="13" y="8" width="1" height="1" /><rect shape-rendering="crispEdges" fill="rgb(205, 82, 0)"  x="13" y="9" width="1" height="1" /><rect shape-rendering="crispEdges" fill="rgb(255, 230, 90)"  x="13" y="11" width="1" height="1" /><rect shape-rendering="crispEdges" fill="rgb(205, 106, 24)"  x="13" y="12" width="1" height="1" /><rect shape-rendering="crispEdges" fill="rgb(148, 180, 213)"  x="13" y="14" width="1" height="1" /><rect shape-rendering="crispEdges" fill="rgb(255, 180, 0)"  x="13" y="15" width="1" height="1" /><rect shape-rendering="crispEdges" fill="rgb(230, 98, 0)"  x="13" y="16" width="1" height="1" /><rect shape-rendering="crispEdges" fill="rgb(213, 230, 230)"  x="13" y="17" width="1" height="1" /><rect shape-rendering="crispEdges" fill="rgb(148, 180, 205)"  x="13" y="18" width="1" height="1" /><rect shape-rendering="crispEdges" fill="rgb(238, 246, 238)"  x="13" y="19" width="1" height="1" /><rect shape-rendering="crispEdges" fill="rgb(197, 205, 213)"  x="13" y="20" width="1" height="1" /><rect shape-rendering="crispEdges" fill="rgb(139, 148, 180)"  x="13" y="21" width="1" height="1" /><rect shape-rendering="crispEdges" fill="rgb(205, 180, 172)"  x="13" y="22" width="1" height="1" /><rect shape-rendering="crispEdges" fill="rgb(172, 180, 189)"  x="13" y="23" width="1" height="1" /><rect shape-rendering="crispEdges" fill="rgb(255, 238, 123)"  x="14" y="5" width="1" height="1" /><rect shape-rendering="crispEdges" fill="rgb(148, 16, 0)"  x="14" y="6" width="1" height="1" /><rect shape-rendering="crispEdges" fill="rgb(255, 230, 106)"  x="14" y="8" width="1" height="1" /><rect shape-rendering="crispEdges" fill="rgb(213, 90, 0)"  x="14" y="9" width="1" height="1" /><rect shape-rendering="crispEdges" fill="rgb(255, 197, 0)"  x="14" y="11" width="1" height="1" /><rect shape-rendering="crispEdges" fill="rgb(213, 115, 16)"  x="14" y="12" width="1" height="1" /><rect shape-rendering="crispEdges" fill="rgb(148, 180, 213)"  x="14" y="14" width="1" height="1" /><rect shape-rendering="crispEdges" fill="rgb(255, 180, 0)"  x="14" y="15" width="1" height="1" /><rect shape-rendering="crispEdges" fill="rgb(205, 123, 41)"  x="14" y="16" width="1" height="1" /><rect shape-rendering="crispEdges" fill="rgb(205, 222, 230)"  x="14" y="17" width="1" height="1" /><rect shape-rendering="crispEdges" fill="rgb(148, 172, 205)"  x="14" y="18" width="1" height="1" /><rect shape-rendering="crispEdges" fill="rgb(255, 255, 246)"  x="14" y="19" width="1" height="1" /><rect shape-rendering="crispEdges" fill="rgb(139, 148, 180)"  x="14" y="20" width="1" height="1" /><rect shape-rendering="crispEdges" fill="rgb(172, 164, 172)"  x="14" y="21" width="1" height="1" /><rect shape-rendering="crispEdges" fill="rgb(205, 180, 172)"  x="14" y="22" width="1" height="1" /><rect shape-rendering="crispEdges" fill="rgb(255, 230, 90)"  x="15" y="5" width="1" height="1" /><rect shape-rendering="crispEdges" fill="rgb(148, 16, 0)"  x="15" y="6" width="1" height="1" /><rect shape-rendering="crispEdges" fill="rgb(255, 230, 106)"  x="15" y="8" width="1" height="1" /><rect shape-rendering="crispEdges" fill="rgb(213, 90, 0)"  x="15" y="9" width="1" height="1" /><rect shape-rendering="crispEdges" fill="rgb(255, 197, 0)"  x="15" y="11" width="1" height="1" /><rect shape-rendering="crispEdges" fill="rgb(230, 106, 0)"  x="15" y="12" width="1" height="1" /><rect shape-rendering="crispEdges" fill="rgb(148, 180, 213)"  x="15" y="14" width="1" height="1" /><rect shape-rendering="crispEdges" fill="rgb(230, 115, 0)"  x="15" y="15" width="1" height="1" /><rect shape-rendering="crispEdges" fill="rgb(189, 172, 98)"  x="15" y="16" width="1" height="1" /><rect shape-rendering="crispEdges" fill="rgb(205, 222, 230)"  x="15" y="17" width="1" height="1" /><rect shape-rendering="crispEdges" fill="rgb(148, 172, 205)"  x="15" y="18" width="1" height="1" /><rect shape-rendering="crispEdges" fill="rgb(164, 180, 205)"  x="15" y="19" width="1" height="1" /><rect shape-rendering="crispEdges" fill="rgb(139, 148, 180)"  x="15" y="20" width="1" height="1" /><rect shape-rendering="crispEdges" fill="rgb(205, 180, 172)"  x="15" y="21" width="1" height="1" /><rect shape-rendering="crispEdges" fill="rgb(255, 213, 49)"  x="16" y="5" width="1" height="1" /><rect shape-rendering="crispEdges" fill="rgb(148, 16, 0)"  x="16" y="6" width="1" height="1" /><rect shape-rendering="crispEdges" fill="rgb(255, 230, 106)"  x="16" y="8" width="1" height="1" /><rect shape-rendering="crispEdges" fill="rgb(230, 164, 32)"  x="16" y="9" width="1" height="1" /><rect shape-rendering="crispEdges" fill="rgb(255, 180, 0)"  x="16" y="11" width="1" height="1" /><rect shape-rendering="crispEdges" fill="rgb(205, 74, 0)"  x="16" y="12" width="1" height="1" /><rect shape-rendering="crispEdges" fill="rgb(148, 180, 213)"  x="16" y="14" width="1" height="1" /><rect shape-rendering="crispEdges" fill="rgb(213, 82, 0)"  x="16" y="15" width="1" height="1" /><rect shape-rendering="crispEdges" fill="rgb(189, 172, 98)"  x="16" y="16" width="1" height="1" /><rect shape-rendering="crispEdges" fill="rgb(213, 230, 230)"  x="16" y="17" width="1" height="1" /><rect shape-rendering="crispEdges" fill="rgb(148, 172, 205)"  x="16" y="18" width="1" height="1" /><rect shape-rendering="crispEdges" fill="rgb(131, 148, 180)"  x="16" y="19" width="1" height="1" /><rect shape-rendering="crispEdges" fill="rgb(180, 172, 172)"  x="16" y="20" width="1" height="1" /><rect shape-rendering="crispEdges" fill="rgb(189, 180, 180)"  x="16" y="21" width="1" height="1" /><rect shape-rendering="crispEdges" fill="rgb(255, 213, 49)"  x="17" y="5" width="1" height="1" /><rect shape-rendering="crispEdges" fill="rgb(148, 16, 0)"  x="17" y="6" width="1" height="1" /><rect shape-rendering="crispEdges" fill="rgb(255, 222, 106)"  x="17" y="8" width="1" height="1" /><rect shape-rendering="crispEdges" fill="rgb(246, 164, 24)"  x="17" y="9" width="1" height="1" /><rect shape-rendering="crispEdges" fill="rgb(197, 82, 0)"  x="17" y="11" width="1" height="1" /><rect shape-rendering="crispEdges" fill="rgb(189, 172, 98)"  x="17" y="12" width="1" height="1" /><rect shape-rendering="crispEdges" fill="rgb(148, 180, 213)"  x="17" y="14" width="1" height="1" /><rect shape-rendering="crispEdges" fill="rgb(189, 172, 98)"  x="17" y="15" width="1" height="1" /><rect shape-rendering="crispEdges" fill="rgb(189, 172, 98)"  x="17" y="16" width="1" height="1" /><rect shape-rendering="crispEdges" fill="rgb(197, 213, 222)"  x="17" y="17" width="1" height="1" /><rect shape-rendering="crispEdges" fill="rgb(148, 164, 189)"  x="17" y="18" width="1" height="1" /><rect shape-rendering="crispEdges" fill="rgb(156, 156, 172)"  x="17" y="19" width="1" height="1" /><rect shape-rendering="crispEdges" fill="rgb(205, 180, 172)"  x="17" y="20" width="1" height="1" /><rect shape-rendering="crispEdges" fill="rgb(156, 172, 189)"  x="17" y="21" width="1" height="1" /><rect shape-rendering="crispEdges" fill="rgb(255, 222, 82)"  x="18" y="5" width="1" height="1" /><rect shape-rendering="crispEdges" fill="rgb(156, 32, 0)"  x="18" y="6" width="1" height="1" /><rect shape-rendering="crispEdges" fill="rgb(238, 164, 16)"  x="18" y="7" width="1" height="1" /><rect shape-rendering="crispEdges" fill="rgb(255, 213, 82)"  x="18" y="8" width="1" height="1" /><rect shape-rendering="crispEdges" fill="rgb(238, 164, 32)"  x="18" y="9" width="1" height="1" /><rect shape-rendering="crispEdges" fill="rgb(172, 41, 0)"  x="18" y="10" width="1" height="1" /><rect shape-rendering="crispEdges" fill="rgb(172, 41, 0)"  x="18" y="11" width="1" height="1" /><rect shape-rendering="crispEdges" fill="rgb(189, 172, 98)"  x="18" y="12" width="1" height="1" /><rect shape-rendering="crispEdges" fill="rgb(189, 65, 0)"  x="18" y="14" width="1" height="1" /><rect shape-rendering="crispEdges" fill="rgb(189, 172, 98)"  x="18" y="15" width="1" height="1" /><rect shape-rendering="crispEdges" fill="rgb(189, 172, 98)"  x="18" y="16" width="1" height="1" /><rect shape-rendering="crispEdges" fill="rgb(189, 172, 98)"  x="18" y="17" width="1" height="1" /><rect shape-rendering="crispEdges" fill="rgb(172, 164, 164)"  x="18" y="18" width="1" height="1" /><rect shape-rendering="crispEdges" fill="rgb(205, 180, 172)"  x="18" y="19" width="1" height="1" /><rect shape-rendering="crispEdges" fill="rgb(205, 180, 172)"  x="18" y="20" width="1" height="1" /><rect shape-rendering="crispEdges" fill="rgb(172, 164, 172)"  x="18" y="21" width="1" height="1" /><rect shape-rendering="crispEdges" fill="rgb(246, 213, 98)"  x="19" y="6" width="1" height="1" /><rect shape-rendering="crispEdges" fill="rgb(255, 213, 82)"  x="19" y="7" width="1" height="1" /><rect shape-rendering="crispEdges" fill="rgb(246, 180, 41)"  x="19" y="8" width="1" height="1" /><rect shape-rendering="crispEdges" fill="rgb(164, 32, 0)"  x="19" y="9" width="1" height="1" /><rect shape-rendering="crispEdges" fill="rgb(164, 32, 0)"  x="19" y="10" width="1" height="1" /><rect shape-rendering="crispEdges" fill="rgb(189, 172, 98)"  x="19" y="11" width="1" height="1" /><rect shape-rendering="crispEdges" fill="rgb(189, 172, 98)"  x="19" y="12" width="1" height="1" /><rect shape-rendering="crispEdges" fill="rgb(205, 106, 32)"  x="19" y="13" width="1" height="1" /><rect shape-rendering="crispEdges" fill="rgb(180, 57, 16)"  x="19" y="14" width="1" height="1" /><rect shape-rendering="crispEdges" fill="rgb(197, 180, 131)"  x="19" y="15" width="1" height="1" /><rect shape-rendering="crispEdges" fill="rgb(205, 180, 148)"  x="19" y="16" width="1" height="1" /><rect shape-rendering="crispEdges" fill="rgb(205, 180, 164)"  x="19" y="17" width="1" height="1" /><rect shape-rendering="crispEdges" fill="rgb(205, 180, 172)"  x="19" y="18" width="1" height="1" /><rect shape-rendering="crispEdges" fill="rgb(205, 180, 172)"  x="19" y="19" width="1" height="1" /><rect shape-rendering="crispEdges" fill="rgb(164, 156, 172)"  x="19" y="20" width="1" height="1" /><rect shape-rendering="crispEdges" fill="rgb(197, 164, 131)"  x="20" y="22" width="1" height="1" /><rect shape-rendering="crispEdges" fill="rgb(205, 180, 164)"  x="20" y="23" width="1" height="1" /><rect shape-rendering="crispEdges" fill="rgb(172, 131, 123)"  x="20" y="24" width="1" height="1" /><rect shape-rendering="crispEdges" fill="rgb(148, 148, 164)"  x="20" y="25" width="1" height="1" /><rect shape-rendering="crispEdges" fill="rgb(246, 222, 98)"  x="21" y="6" width="1" height="1" /><rect shape-rendering="crispEdges" fill="rgb(238, 213, 115)"  x="21" y="7" width="1" height="1" /><rect shape-rendering="crispEdges" fill="rgb(197, 90, 24)"  x="21" y="8" width="1" height="1" /><rect shape-rendering="crispEdges" fill="rgb(164, 32, 0)"  x="21" y="9" width="1" height="1" /><rect shape-rendering="crispEdges" fill="rgb(172, 49, 0)"  x="21" y="10" width="1" height="1" /><rect shape-rendering="crispEdges" fill="rgb(172, 41, 0)"  x="21" y="11" width="1" height="1" /><rect shape-rendering="crispEdges" fill="rgb(164, 32, 0)"  x="21" y="12" width="1" height="1" /><rect shape-rendering="crispEdges" fill="rgb(156, 24, 0)"  x="21" y="13" width="1" height="1" /><rect shape-rendering="crispEdges" fill="rgb(172, 82, 41)"  x="21" y="14" width="1" height="1" /><rect shape-rendering="crispEdges" fill="rgb(197, 164, 139)"  x="21" y="15" width="1" height="1" /><rect shape-rendering="crispEdges" fill="rgb(197, 180, 172)"  x="21" y="16" width="1" height="1" /><rect shape-rendering="crispEdges" fill="rgb(189, 172, 172)"  x="21" y="17" width="1" height="1" /><rect shape-rendering="crispEdges" fill="rgb(189, 180, 172)"  x="21" y="18" width="1" height="1" /><rect shape-rendering="crispEdges" fill="rgb(205, 189, 172)"  x="21" y="19" width="1" height="1" /><rect shape-rendering="crispEdges" fill="rgb(205, 180, 148)"  x="21" y="20" width="1" height="1" /><rect shape-rendering="crispEdges" fill="rgb(189, 172, 115)"  x="21" y="21" width="1" height="1" /><rect shape-rendering="crispEdges" fill="rgb(180, 164, 98)"  x="21" y="22" width="1" height="1" /><rect shape-rendering="crispEdges" fill="rgb(189, 172, 106)"  x="21" y="23" width="1" height="1" /><rect shape-rendering="crispEdges" fill="rgb(139, 148, 164)"  x="21" y="24" width="1" height="1" /><rect shape-rendering="crispEdges" fill="rgb(148, 148, 180)"  x="21" y="25" width="1" height="1" /><rect shape-rendering="crispEdges" fill="rgb(148, 148, 180)"  x="21" y="26" width="1" height="1" /><rect shape-rendering="crispEdges" fill="rgb(156, 172, 197)"  x="21" y="27" width="1" height="1" /><rect shape-rendering="crispEdges" fill="rgb(255, 238, 115)"  x="22" y="5" width="1" height="1" /><rect shape-rendering="crispEdges" fill="rgb(148, 16, 0)"  x="22" y="6" width="1" height="1" /><rect shape-rendering="crispEdges" fill="rgb(148, 16, 0)"  x="22" y="7" width="1" height="1" /><rect shape-rendering="crispEdges" fill="rgb(255, 197, 65)"  x="22" y="8" width="1" height="1" /><rect shape-rendering="crispEdges" fill="rgb(164, 32, 0)"  x="22" y="9" width="1" height="1" /><rect shape-rendering="crispEdges" fill="rgb(164, 32, 0)"  x="22" y="10" width="1" height="1" /><rect shape-rendering="crispEdges" fill="rgb(255, 189, 24)"  x="22" y="11" width="1" height="1" /><rect shape-rendering="crispEdges" fill="rgb(164, 32, 0)"  x="22" y="12" width="1" height="1" /><rect shape-rendering="crispEdges" fill="rgb(164, 57, 24)"  x="22" y="13" width="1" height="1" /><rect shape-rendering="crispEdges" fill="rgb(172, 115, 82)"  x="22" y="14" width="1" height="1" /><rect shape-rendering="crispEdges" fill="rgb(222, 156, 41)"  x="22" y="15" width="1" height="1" /><rect shape-rendering="crispEdges" fill="rgb(222, 205, 123)"  x="22" y="16" width="1" height="1" /><rect shape-rendering="crispEdges" fill="rgb(205, 189, 123)"  x="22" y="17" width="1" height="1" /><rect shape-rendering="crispEdges" fill="rgb(205, 156, 90)"  x="22" y="18" width="1" height="1" /><rect shape-rendering="crispEdges" fill="rgb(222, 180, 57)"  x="22" y="19" width="1" height="1" /><rect shape-rendering="crispEdges" fill="rgb(222, 180, 49)"  x="22" y="20" width="1" height="1" /><rect shape-rendering="crispEdges" fill="rgb(197, 148, 82)"  x="22" y="21" width="1" height="1" /><rect shape-rendering="crispEdges" fill="rgb(156, 180, 213)"  x="22" y="22" width="1" height="1" /><rect shape-rendering="crispEdges" fill="rgb(164, 189, 213)"  x="22" y="23" width="1" height="1" /><rect shape-rendering="crispEdges" fill="rgb(222, 238, 238)"  x="22" y="24" width="1" height="1" /><rect shape-rendering="crispEdges" fill="rgb(139, 156, 189)"  x="22" y="25" width="1" height="1" /><rect shape-rendering="crispEdges" fill="rgb(131, 156, 189)"  x="22" y="26" width="1" height="1" /><rect shape-rendering="crispEdges" fill="rgb(139, 172, 205)"  x="22" y="27" width="1" height="1" /><rect shape-rendering="crispEdges" fill="rgb(255, 230, 98)"  x="23" y="5" width="1" height="1" /><rect shape-rendering="crispEdges" fill="rgb(148, 16, 0)"  x="23" y="6" width="1" height="1" /><rect shape-rendering="crispEdges" fill="rgb(255, 222, 65)"  x="23" y="8" width="1" height="1" /><rect shape-rendering="crispEdges" fill="rgb(172, 49, 8)"  x="23" y="9" width="1" height="1" /><rect shape-rendering="crispEdges" fill="rgb(255, 222, 57)"  x="23" y="11" width="1" height="1" /><rect shape-rendering="crispEdges" fill="rgb(255, 197, 0)"  x="23" y="12" width="1" height="1" /><rect shape-rendering="crispEdges" fill="rgb(148, 180, 213)"  x="23" y="14" width="1" height="1" /><rect shape-rendering="crispEdges" fill="rgb(180, 205, 222)"  x="23" y="15" width="1" height="1" /><rect shape-rendering="crispEdges" fill="rgb(255, 246, 180)"  x="23" y="16" width="1" height="1" /><rect shape-rendering="crispEdges" fill="rgb(246, 230, 106)"  x="23" y="17" width="1" height="1" /><rect shape-rendering="crispEdges" fill="rgb(238, 189, 32)"  x="23" y="18" width="1" height="1" /><rect shape-rendering="crispEdges" fill="rgb(255, 197, 0)"  x="23" y="19" width="1" height="1" /><rect shape-rendering="crispEdges" fill="rgb(180, 148, 148)"  x="23" y="20" width="1" height="1" /><rect shape-rendering="crispEdges" fill="rgb(164, 197, 213)"  x="23" y="21" width="1" height="1" /><rect shape-rendering="crispEdges" fill="rgb(148, 180, 205)"  x="23" y="22" width="1" height="1" /><rect shape-rendering="crispEdges" fill="rgb(230, 238, 230)"  x="23" y="23" width="1" height="1" /><rect shape-rendering="crispEdges" fill="rgb(255, 255, 255)"  x="23" y="24" width="1" height="1" /><rect shape-rendering="crispEdges" fill="rgb(189, 205, 213)"  x="23" y="25" width="1" height="1" /><rect shape-rendering="crispEdges" fill="rgb(123, 148, 180)"  x="23" y="26" width="1" height="1" /><rect shape-rendering="crispEdges" fill="rgb(131, 148, 189)"  x="23" y="27" width="1" height="1" /><rect shape-rendering="crispEdges" fill="rgb(255, 222, 82)"  x="24" y="5" width="1" height="1" /><rect shape-rendering="crispEdges" fill="rgb(148, 16, 0)"  x="24" y="6" width="1" height="1" /><rect shape-rendering="crispEdges" fill="rgb(255, 205, 41)"  x="24" y="8" width="1" height="1" /><rect shape-rendering="crispEdges" fill="rgb(172, 49, 0)"  x="24" y="9" width="1" height="1" /><rect shape-rendering="crispEdges" fill="rgb(255, 222, 65)"  x="24" y="11" width="1" height="1" /><rect shape-rendering="crispEdges" fill="rgb(255, 197, 0)"  x="24" y="12" width="1" height="1" /><rect shape-rendering="crispEdges" fill="rgb(148, 180, 213)"  x="24" y="14" width="1" height="1" /><rect shape-rendering="crispEdges" fill="rgb(180, 205, 213)"  x="24" y="15" width="1" height="1" /><rect shape-rendering="crispEdges" fill="rgb(230, 246, 246)"  x="24" y="16" width="1" height="1" /><rect shape-rendering="crispEdges" fill="rgb(246, 230, 164)"  x="24" y="17" width="1" height="1" /><rect shape-rendering="crispEdges" fill="rgb(255, 197, 0)"  x="24" y="18" width="1" height="1" /><rect shape-rendering="crispEdges" fill="rgb(164, 148, 148)"  x="24" y="19" width="1" height="1" /><rect shape-rendering="crispEdges" fill="rgb(246, 255, 255)"  x="24" y="20" width="1" height="1" /><rect shape-rendering="crispEdges" fill="rgb(156, 180, 213)"  x="24" y="21" width="1" height="1" /><rect shape-rendering="crispEdges" fill="rgb(148, 180, 205)"  x="24" y="22" width="1" height="1" /><rect shape-rendering="crispEdges" fill="rgb(255, 255, 246)"  x="24" y="23" width="1" height="1" /><rect shape-rendering="crispEdges" fill="rgb(255, 255, 246)"  x="24" y="24" width="1" height="1" /><rect shape-rendering="crispEdges" fill="rgb(230, 238, 238)"  x="24" y="25" width="1" height="1" /><rect shape-rendering="crispEdges" fill="rgb(131, 148, 180)"  x="24" y="26" width="1" height="1" /><rect shape-rendering="crispEdges" fill="rgb(131, 148, 189)"  x="24" y="27" width="1" height="1" /><rect shape-rendering="crispEdges" fill="rgb(255, 230, 98)"  x="25" y="5" width="1" height="1" /><rect shape-rendering="crispEdges" fill="rgb(148, 16, 0)"  x="25" y="6" width="1" height="1" /><rect shape-rendering="crispEdges" fill="rgb(255, 205, 32)"  x="25" y="8" width="1" height="1" /><rect shape-rendering="crispEdges" fill="rgb(164, 32, 0)"  x="25" y="9" width="1" height="1" /><rect shape-rendering="crispEdges" fill="rgb(255, 213, 49)"  x="25" y="11" width="1" height="1" /><rect shape-rendering="crispEdges" fill="rgb(255, 197, 0)"  x="25" y="12" width="1" height="1" /><rect shape-rendering="crispEdges" fill="rgb(148, 180, 213)"  x="25" y="14" width="1" height="1" /><rect shape-rendering="crispEdges" fill="rgb(180, 197, 213)"  x="25" y="15" width="1" height="1" /><rect shape-rendering="crispEdges" fill="rgb(230, 246, 238)"  x="25" y="16" width="1" height="1" /><rect shape-rendering="crispEdges" fill="rgb(230, 222, 205)"  x="25" y="17" width="1" height="1" /><rect shape-rendering="crispEdges" fill="rgb(189, 164, 164)"  x="25" y="18" width="1" height="1" /><rect shape-rendering="crispEdges" fill="rgb(156, 131, 123)"  x="25" y="19" width="1" height="1" /><rect shape-rendering="crispEdges" fill="rgb(255, 255, 238)"  x="25" y="20" width="1" height="1" /><rect shape-rendering="crispEdges" fill="rgb(148, 180, 213)"  x="25" y="21" width="1" height="1" /><rect shape-rendering="crispEdges" fill="rgb(156, 180, 205)"  x="25" y="22" width="1" height="1" /><rect shape-rendering="crispEdges" fill="rgb(255, 255, 246)"  x="25" y="23" width="1" height="1" /><rect shape-rendering="crispEdges" fill="rgb(255, 255, 246)"  x="25" y="24" width="1" height="1" /><rect shape-rendering="crispEdges" fill="rgb(238, 238, 238)"  x="25" y="25" width="1" height="1" /><rect shape-rendering="crispEdges" fill="rgb(131, 148, 180)"  x="25" y="26" width="1" height="1" /><rect shape-rendering="crispEdges" fill="rgb(131, 156, 189)"  x="25" y="27" width="1" height="1" /><rect shape-rendering="crispEdges" fill="rgb(246, 230, 106)"  x="26" y="5" width="1" height="1" /><rect shape-rendering="crispEdges" fill="rgb(148, 16, 0)"  x="26" y="6" width="1" height="1" /><rect shape-rendering="crispEdges" fill="rgb(255, 189, 16)"  x="26" y="8" width="1" height="1" /><rect shape-rendering="crispEdges" fill="rgb(164, 32, 0)"  x="26" y="9" width="1" height="1" /><rect shape-rendering="crispEdges" fill="rgb(255, 205, 32)"  x="26" y="11" width="1" height="1" /><rect shape-rendering="crispEdges" fill="rgb(255, 197, 0)"  x="26" y="12" width="1" height="1" /><rect shape-rendering="crispEdges" fill="rgb(148, 180, 213)"  x="26" y="14" width="1" height="1" /><rect shape-rendering="crispEdges" fill="rgb(172, 205, 222)"  x="26" y="15" width="1" height="1" /><rect shape-rendering="crispEdges" fill="rgb(238, 255, 255)"  x="26" y="16" width="1" height="1" /><rect shape-rendering="crispEdges" fill="rgb(255, 197, 0)"  x="26" y="17" width="1" height="1" /><rect shape-rendering="crispEdges" fill="rgb(255, 197, 0)"  x="26" y="18" width="1" height="1" /><rect shape-rendering="crispEdges" fill="rgb(197, 189, 180)"  x="26" y="19" width="1" height="1" /><rect shape-rendering="crispEdges" fill="rgb(255, 255, 255)"  x="26" y="20" width="1" height="1" /><rect shape-rendering="crispEdges" fill="rgb(148, 180, 213)"  x="26" y="21" width="1" height="1" /><rect shape-rendering="crispEdges" fill="rgb(148, 180, 205)"  x="26" y="22" width="1" height="1" /><rect shape-rendering="crispEdges" fill="rgb(255, 255, 246)"  x="26" y="23" width="1" height="1" /><rect shape-rendering="crispEdges" fill="rgb(255, 255, 255)"  x="26" y="24" width="1" height="1" /><rect shape-rendering="crispEdges" fill="rgb(230, 238, 230)"  x="26" y="25" width="1" height="1" /><rect shape-rendering="crispEdges" fill="rgb(123, 139, 180)"  x="26" y="26" width="1" height="1" /><rect shape-rendering="crispEdges" fill="rgb(139, 164, 197)"  x="26" y="27" width="1" height="1" /><rect shape-rendering="crispEdges" fill="rgb(255, 205, 32)"  x="27" y="5" width="1" height="1" /><rect shape-rendering="crispEdges" fill="rgb(148, 16, 0)"  x="27" y="6" width="1" height="1" /><rect shape-rendering="crispEdges" fill="rgb(148, 16, 0)"  x="27" y="7" width="1" height="1" /><rect shape-rendering="crispEdges" fill="rgb(222, 106, 0)"  x="27" y="8" width="1" height="1" /><rect shape-rendering="crispEdges" fill="rgb(180, 74, 24)"  x="27" y="9" width="1" height="1" /><rect shape-rendering="crispEdges" fill="rgb(164, 32, 0)"  x="27" y="10" width="1" height="1" /><rect shape-rendering="crispEdges" fill="rgb(222, 123, 8)"  x="27" y="11" width="1" height="1" /><rect shape-rendering="crispEdges" fill="rgb(255, 197, 0)"  x="27" y="12" width="1" height="1" /><rect shape-rendering="crispEdges" fill="rgb(172, 115, 90)"  x="27" y="13" width="1" height="1" /><rect shape-rendering="crispEdges" fill="rgb(189, 172, 164)"  x="27" y="14" width="1" height="1" /><rect shape-rendering="crispEdges" fill="rgb(172, 148, 139)"  x="27" y="15" width="1" height="1" /><rect shape-rendering="crispEdges" fill="rgb(255, 222, 65)"  x="27" y="16" width="1" height="1" /><rect shape-rendering="crispEdges" fill="rgb(255, 222, 57)"  x="27" y="17" width="1" height="1" /><rect shape-rendering="crispEdges" fill="rgb(213, 115, 0)"  x="27" y="18" width="1" height="1" /><rect shape-rendering="crispEdges" fill="rgb(255, 197, 0)"  x="27" y="19" width="1" height="1" /><rect shape-rendering="crispEdges" fill="rgb(172, 139, 123)"  x="27" y="20" width="1" height="1" /><rect shape-rendering="crispEdges" fill="rgb(164, 197, 213)"  x="27" y="21" width="1" height="1" /><rect shape-rendering="crispEdges" fill="rgb(148, 180, 205)"  x="27" y="22" width="1" height="1" /><rect shape-rendering="crispEdges" fill="rgb(213, 230, 230)"  x="27" y="23" width="1" height="1" /><rect shape-rendering="crispEdges" fill="rgb(255, 255, 255)"  x="27" y="24" width="1" height="1" /><rect shape-rendering="crispEdges" fill="rgb(172, 180, 205)"  x="27" y="25" width="1" height="1" /><rect shape-rendering="crispEdges" fill="rgb(123, 148, 180)"  x="27" y="26" width="1" height="1" /><rect shape-rendering="crispEdges" fill="rgb(131, 156, 189)"  x="27" y="27" width="1" height="1" /><rect shape-rendering="crispEdges" fill="rgb(255, 197, 16)"  x="28" y="6" width="1" height="1" /><rect shape-rendering="crispEdges" fill="rgb(255, 189, 8)"  x="28" y="7" width="1" height="1" /><rect shape-rendering="crispEdges" fill="rgb(189, 65, 0)"  x="28" y="8" width="1" height="1" /><rect shape-rendering="crispEdges" fill="rgb(180, 74, 16)"  x="28" y="9" width="1" height="1" /><rect shape-rendering="crispEdges" fill="rgb(164, 32, 0)"  x="28" y="10" width="1" height="1" /><rect shape-rendering="crispEdges" fill="rgb(164, 32, 0)"  x="28" y="11" width="1" height="1" /><rect shape-rendering="crispEdges" fill="rgb(156, 24, 0)"  x="28" y="12" width="1" height="1" /><rect shape-rendering="crispEdges" fill="rgb(156, 16, 0)"  x="28" y="13" width="1" height="1" /><rect shape-rendering="crispEdges" fill="rgb(164, 41, 0)"  x="28" y="14" width="1" height="1" /><rect shape-rendering="crispEdges" fill="rgb(222, 106, 8)"  x="28" y="15" width="1" height="1" /><rect shape-rendering="crispEdges" fill="rgb(238, 148, 24)"  x="28" y="16" width="1" height="1" /><rect shape-rendering="crispEdges" fill="rgb(189, 74, 8)"  x="28" y="17" width="1" height="1" /><rect shape-rendering="crispEdges" fill="rgb(172, 172, 180)"  x="28" y="18" width="1" height="1" /><rect shape-rendering="crispEdges" fill="rgb(255, 189, 0)"  x="28" y="19" width="1" height="1" /><rect shape-rendering="crispEdges" fill="rgb(255, 189, 0)"  x="28" y="20" width="1" height="1" /><rect shape-rendering="crispEdges" fill="rgb(255, 164, 0)"  x="28" y="21" width="1" height="1" /><rect shape-rendering="crispEdges" fill="rgb(164, 189, 213)"  x="28" y="22" width="1" height="1" /><rect shape-rendering="crispEdges" fill="rgb(180, 205, 222)"  x="28" y="23" width="1" height="1" /><rect shape-rendering="crispEdges" fill="rgb(230, 238, 230)"  x="28" y="24" width="1" height="1" /><rect shape-rendering="crispEdges" fill="rgb(131, 148, 180)"  x="28" y="25" width="1" height="1" /><rect shape-rendering="crispEdges" fill="rgb(131, 148, 180)"  x="28" y="26" width="1" height="1" /><rect shape-rendering="crispEdges" fill="rgb(131, 156, 189)"  x="28" y="27" width="1" height="1" /><rect shape-rendering="crispEdges" fill="rgb(205, 82, 0)"  x="29" y="21" width="1" height="1" /><rect shape-rendering="crispEdges" fill="rgb(213, 82, 0)"  x="29" y="22" width="1" height="1" /><rect shape-rendering="crispEdges" fill="rgb(180, 82, 0)"  x="29" y="23" width="1" height="1" /><rect shape-rendering="crispEdges" fill="rgb(164, 90, 57)"  x="29" y="24" width="1" height="1" /><rect shape-rendering="crispEdges" fill="rgb(131, 148, 189)"  x="29" y="25" width="1" height="1" /><rect shape-rendering="crispEdges" fill="rgb(131, 156, 189)"  x="29" y="26" width="1" height="1" /></svg>