<svg xmlns="http://www.w3.org/2000/svg" xmlns:xlink= "http://www.w3.org/1999/xlink" width="32" height="32" viewBox ="0 0 32 32"><rect shape-rendering="crispEdges" fill="rgb(41, 24, 24)"  x="3" y="2" width="1" height="1" /><rect shape-rendering="crispEdges" fill="rgb(41, 24, 24)"  x="3" y="3" width="1" height="1" /><rect shape-rendering="crispEdges" fill="rgb(41, 24, 24)"  x="3" y="4" width="1" height="1" /><rect shape-rendering="crispEdges" fill="rgb(41, 24, 24)"  x="3" y="5" width="1" height="1" /><rect shape-rendering="crispEdges" fill="rgb(41, 24, 24)"  x="3" y="6" width="1" height="1" /><rect shape-rendering="crispEdges" fill="rgb(41, 24, 24)"  x="3" y="7" width="1" height="1" /><rect shape-rendering="crispEdges" fill="rgb(41, 24, 24)"  x="3" y="8" width="1" height="1" /><rect shape-rendering="crispEdges" fill="rgb(41, 24, 24)"  x="3" y="9" width="1" height="1" /><rect shape-rendering="crispEdges" fill="rgb(41, 24, 24)"  x="3" y="10" width="1" height="1" /><rect shape-rendering="crispEdges" fill="rgb(41, 24, 24)"  x="3" y="11" width="1" height="1" /><rect shape-rendering="crispEdges" fill="rgb(41, 24, 24)"  x="4" y="1" width="1" height="1" /><rect shape-rendering="crispEdges" fill="rgb(65, 49, 41)"  x="4" y="2" width="1" height="1" /><rect shape-rendering="crispEdges" fill="rgb(74, 57, 49)"  x="4" y="3" width="1" height="1" /><rect shape-rendering="crispEdges" fill="rgb(74, 49, 49)"  x="4" y="4" width="1" height="1" /><rect shape-rendering="crispEdges" fill="rgb(82, 57, 49)"  x="4" y="5" width="1" height="1" /><rect shape-rendering="crispEdges" fill="rgb(74, 49, 49)"  x="4" y="6" width="1" height="1" /><rect shape-rendering="crispEdges" fill="rgb(90, 65, 65)"  x="4" y="7" width="1" height="1" /><rect shape-rendering="crispEdges" fill="rgb(82, 65, 65)"  x="4" y="8" width="1" height="1" /><rect shape-rendering="crispEdges" fill="rgb(82, 57, 57)"  x="4" y="9" width="1" height="1" /><rect shape-rendering="crispEdges" fill="rgb(57, 32, 41)"  x="4" y="10" width="1" height="1" /><rect shape-rendering="crispEdges" fill="rgb(49, 32, 32)"  x="4" y="11" width="1" height="1" /><rect shape-rendering="crispEdges" fill="rgb(41, 24, 24)"  x="4" y="12" width="1" height="1" /><rect shape-rendering="crispEdges" fill="rgb(41, 24, 24)"  x="4" y="13" width="1" height="1" /><rect shape-rendering="crispEdges" fill="rgb(41, 24, 24)"  x="4" y="14" width="1" height="1" /><rect shape-rendering="crispEdges" fill="rgb(41, 24, 24)"  x="4" y="15" width="1" height="1" /><rect shape-rendering="crispEdges" fill="rgb(41, 24, 24)"  x="4" y="16" width="1" height="1" /><rect shape-rendering="crispEdges" fill="rgb(57, 24, 24)"  x="4" y="26" width="1" height="1" /><rect shape-rendering="crispEdges" fill="rgb(57, 24, 24)"  x="4" y="27" width="1" height="1" /><rect shape-rendering="crispEdges" fill="rgb(41, 24, 24)"  x="5" y="2" width="1" height="1" /><rect shape-rendering="crispEdges" fill="rgb(65, 49, 41)"  x="5" y="3" width="1" height="1" /><rect shape-rendering="crispEdges" fill="rgb(90, 65, 65)"  x="5" y="4" width="1" height="1" /><rect shape-rendering="crispEdges" fill="rgb(106, 74, 74)"  x="5" y="5" width="1" height="1" /><rect shape-rendering="crispEdges" fill="rgb(90, 41, 41)"  x="5" y="6" width="1" height="1" /><rect shape-rendering="crispEdges" fill="rgb(148, 82, 90)"  x="5" y="7" width="1" height="1" /><rect shape-rendering="crispEdges" fill="rgb(238, 156, 172)"  x="5" y="8" width="1" height="1" /><rect shape-rendering="crispEdges" fill="rgb(246, 156, 180)"  x="5" y="9" width="1" height="1" /><rect shape-rendering="crispEdges" fill="rgb(230, 148, 164)"  x="5" y="10" width="1" height="1" /><rect shape-rendering="crispEdges" fill="rgb(123, 82, 82)"  x="5" y="11" width="1" height="1" /><rect shape-rendering="crispEdges" fill="rgb(57, 32, 41)"  x="5" y="12" width="1" height="1" /><rect shape-rendering="crispEdges" fill="rgb(57, 32, 32)"  x="5" y="13" width="1" height="1" /><rect shape-rendering="crispEdges" fill="rgb(41, 24, 24)"  x="5" y="14" width="1" height="1" /><rect shape-rendering="crispEdges" fill="rgb(49, 32, 32)"  x="5" y="15" width="1" height="1" /><rect shape-rendering="crispEdges" fill="rgb(41, 24, 24)"  x="5" y="16" width="1" height="1" /><rect shape-rendering="crispEdges" fill="rgb(41, 24, 24)"  x="5" y="17" width="1" height="1" /><rect shape-rendering="crispEdges" fill="rgb(41, 24, 24)"  x="5" y="18" width="1" height="1" /><rect shape-rendering="crispEdges" fill="rgb(41, 24, 24)"  x="5" y="19" width="1" height="1" /><rect shape-rendering="crispEdges" fill="rgb(57, 24, 24)"  x="5" y="25" width="1" height="1" /><rect shape-rendering="crispEdges" fill="rgb(189, 24, 32)"  x="5" y="26" width="1" height="1" /><rect shape-rendering="crispEdges" fill="rgb(131, 24, 41)"  x="5" y="27" width="1" height="1" /><rect shape-rendering="crispEdges" fill="rgb(57, 24, 24)"  x="5" y="28" width="1" height="1" /><rect shape-rendering="crispEdges" fill="rgb(41, 24, 24)"  x="6" y="3" width="1" height="1" /><rect shape-rendering="crispEdges" fill="rgb(41, 24, 24)"  x="6" y="4" width="1" height="1" /><rect shape-rendering="crispEdges" fill="rgb(74, 49, 49)"  x="6" y="5" width="1" height="1" /><rect shape-rendering="crispEdges" fill="rgb(74, 57, 49)"  x="6" y="6" width="1" height="1" /><rect shape-rendering="crispEdges" fill="rgb(82, 65, 57)"  x="6" y="7" width="1" height="1" /><rect shape-rendering="crispEdges" fill="rgb(106, 74, 74)"  x="6" y="8" width="1" height="1" /><rect shape-rendering="crispEdges" fill="rgb(98, 65, 65)"  x="6" y="9" width="1" height="1" /><rect shape-rendering="crispEdges" fill="rgb(98, 41, 41)"  x="6" y="10" width="1" height="1" /><rect shape-rendering="crispEdges" fill="rgb(213, 106, 123)"  x="6" y="11" width="1" height="1" /><rect shape-rendering="crispEdges" fill="rgb(230, 123, 139)"  x="6" y="12" width="1" height="1" /><rect shape-rendering="crispEdges" fill="rgb(222, 115, 131)"  x="6" y="13" width="1" height="1" /><rect shape-rendering="crispEdges" fill="rgb(230, 139, 156)"  x="6" y="14" width="1" height="1" /><rect shape-rendering="crispEdges" fill="rgb(246, 156, 172)"  x="6" y="15" width="1" height="1" /><rect shape-rendering="crispEdges" fill="rgb(115, 74, 82)"  x="6" y="16" width="1" height="1" /><rect shape-rendering="crispEdges" fill="rgb(41, 24, 24)"  x="6" y="17" width="1" height="1" /><rect shape-rendering="crispEdges" fill="rgb(57, 49, 41)"  x="6" y="18" width="1" height="1" /><rect shape-rendering="crispEdges" fill="rgb(41, 32, 32)"  x="6" y="19" width="1" height="1" /><rect shape-rendering="crispEdges" fill="rgb(41, 24, 24)"  x="6" y="20" width="1" height="1" /><rect shape-rendering="crispEdges" fill="rgb(41, 24, 24)"  x="6" y="21" width="1" height="1" /><rect shape-rendering="crispEdges" fill="rgb(57, 24, 24)"  x="6" y="24" width="1" height="1" /><rect shape-rendering="crispEdges" fill="rgb(205, 24, 24)"  x="6" y="25" width="1" height="1" /><rect shape-rendering="crispEdges" fill="rgb(156, 24, 49)"  x="6" y="26" width="1" height="1" /><rect shape-rendering="crispEdges" fill="rgb(139, 24, 49)"  x="6" y="27" width="1" height="1" /><rect shape-rendering="crispEdges" fill="rgb(57, 24, 24)"  x="6" y="28" width="1" height="1" /><rect shape-rendering="crispEdges" fill="rgb(41, 24, 24)"  x="7" y="5" width="1" height="1" /><rect shape-rendering="crispEdges" fill="rgb(65, 41, 41)"  x="7" y="6" width="1" height="1" /><rect shape-rendering="crispEdges" fill="rgb(74, 57, 49)"  x="7" y="7" width="1" height="1" /><rect shape-rendering="crispEdges" fill="rgb(74, 49, 49)"  x="7" y="8" width="1" height="1" /><rect shape-rendering="crispEdges" fill="rgb(74, 49, 49)"  x="7" y="9" width="1" height="1" /><rect shape-rendering="crispEdges" fill="rgb(74, 49, 49)"  x="7" y="10" width="1" height="1" /><rect shape-rendering="crispEdges" fill="rgb(74, 57, 57)"  x="7" y="11" width="1" height="1" /><rect shape-rendering="crispEdges" fill="rgb(57, 24, 24)"  x="7" y="12" width="1" height="1" /><rect shape-rendering="crispEdges" fill="rgb(238, 41, 41)"  x="7" y="13" width="1" height="1" /><rect shape-rendering="crispEdges" fill="rgb(205, 41, 32)"  x="7" y="14" width="1" height="1" /><rect shape-rendering="crispEdges" fill="rgb(98, 8, 24)"  x="7" y="15" width="1" height="1" /><rect shape-rendering="crispEdges" fill="rgb(98, 16, 24)"  x="7" y="16" width="1" height="1" /><rect shape-rendering="crispEdges" fill="rgb(172, 24, 32)"  x="7" y="17" width="1" height="1" /><rect shape-rendering="crispEdges" fill="rgb(230, 49, 41)"  x="7" y="18" width="1" height="1" /><rect shape-rendering="crispEdges" fill="rgb(65, 49, 49)"  x="7" y="19" width="1" height="1" /><rect shape-rendering="crispEdges" fill="rgb(57, 49, 41)"  x="7" y="20" width="1" height="1" /><rect shape-rendering="crispEdges" fill="rgb(49, 41, 32)"  x="7" y="21" width="1" height="1" /><rect shape-rendering="crispEdges" fill="rgb(41, 24, 24)"  x="7" y="22" width="1" height="1" /><rect shape-rendering="crispEdges" fill="rgb(57, 24, 24)"  x="7" y="23" width="1" height="1" /><rect shape-rendering="crispEdges" fill="rgb(189, 24, 49)"  x="7" y="24" width="1" height="1" /><rect shape-rendering="crispEdges" fill="rgb(213, 32, 41)"  x="7" y="25" width="1" height="1" /><rect shape-rendering="crispEdges" fill="rgb(123, 16, 41)"  x="7" y="26" width="1" height="1" /><rect shape-rendering="crispEdges" fill="rgb(57, 24, 24)"  x="7" y="27" width="1" height="1" /><rect shape-rendering="crispEdges" fill="rgb(41, 24, 24)"  x="8" y="6" width="1" height="1" /><rect shape-rendering="crispEdges" fill="rgb(41, 24, 24)"  x="8" y="7" width="1" height="1" /><rect shape-rendering="crispEdges" fill="rgb(41, 24, 24)"  x="8" y="8" width="1" height="1" /><rect shape-rendering="crispEdges" fill="rgb(65, 49, 49)"  x="8" y="9" width="1" height="1" /><rect shape-rendering="crispEdges" fill="rgb(82, 57, 57)"  x="8" y="10" width="1" height="1" /><rect shape-rendering="crispEdges" fill="rgb(65, 49, 41)"  x="8" y="11" width="1" height="1" /><rect shape-rendering="crispEdges" fill="rgb(57, 49, 41)"  x="8" y="12" width="1" height="1" /><rect shape-rendering="crispEdges" fill="rgb(65, 49, 49)"  x="8" y="13" width="1" height="1" /><rect shape-rendering="crispEdges" fill="rgb(255, 41, 49)"  x="8" y="14" width="1" height="1" /><rect shape-rendering="crispEdges" fill="rgb(65, 24, 24)"  x="8" y="15" width="1" height="1" /><rect shape-rendering="crispEdges" fill="rgb(57, 41, 32)"  x="8" y="16" width="1" height="1" /><rect shape-rendering="crispEdges" fill="rgb(57, 41, 32)"  x="8" y="17" width="1" height="1" /><rect shape-rendering="crispEdges" fill="rgb(57, 32, 32)"  x="8" y="18" width="1" height="1" /><rect shape-rendering="crispEdges" fill="rgb(74, 8, 16)"  x="8" y="19" width="1" height="1" /><rect shape-rendering="crispEdges" fill="rgb(205, 24, 41)"  x="8" y="20" width="1" height="1" /><rect shape-rendering="crispEdges" fill="rgb(41, 24, 24)"  x="8" y="21" width="1" height="1" /><rect shape-rendering="crispEdges" fill="rgb(41, 24, 24)"  x="8" y="22" width="1" height="1" /><rect shape-rendering="crispEdges" fill="rgb(205, 24, 49)"  x="8" y="23" width="1" height="1" /><rect shape-rendering="crispEdges" fill="rgb(49, 8, 16)"  x="8" y="24" width="1" height="1" /><rect shape-rendering="crispEdges" fill="rgb(156, 24, 32)"  x="8" y="25" width="1" height="1" /><rect shape-rendering="crispEdges" fill="rgb(57, 24, 24)"  x="8" y="26" width="1" height="1" /><rect shape-rendering="crispEdges" fill="rgb(41, 24, 24)"  x="9" y="9" width="1" height="1" /><rect shape-rendering="crispEdges" fill="rgb(41, 24, 24)"  x="9" y="10" width="1" height="1" /><rect shape-rendering="crispEdges" fill="rgb(41, 24, 24)"  x="9" y="11" width="1" height="1" /><rect shape-rendering="crispEdges" fill="rgb(74, 57, 57)"  x="9" y="12" width="1" height="1" /><rect shape-rendering="crispEdges" fill="rgb(65, 49, 41)"  x="9" y="13" width="1" height="1" /><rect shape-rendering="crispEdges" fill="rgb(65, 49, 41)"  x="9" y="14" width="1" height="1" /><rect shape-rendering="crispEdges" fill="rgb(205, 32, 49)"  x="9" y="15" width="1" height="1" /><rect shape-rendering="crispEdges" fill="rgb(65, 41, 32)"  x="9" y="16" width="1" height="1" /><rect shape-rendering="crispEdges" fill="rgb(57, 41, 32)"  x="9" y="17" width="1" height="1" /><rect shape-rendering="crispEdges" fill="rgb(49, 41, 24)"  x="9" y="18" width="1" height="1" /><rect shape-rendering="crispEdges" fill="rgb(57, 41, 32)"  x="9" y="19" width="1" height="1" /><rect shape-rendering="crispEdges" fill="rgb(65, 8, 24)"  x="9" y="20" width="1" height="1" /><rect shape-rendering="crispEdges" fill="rgb(180, 16, 41)"  x="9" y="21" width="1" height="1" /><rect shape-rendering="crispEdges" fill="rgb(148, 16, 41)"  x="9" y="22" width="1" height="1" /><rect shape-rendering="crispEdges" fill="rgb(57, 24, 24)"  x="9" y="23" width="1" height="1" /><rect shape-rendering="crispEdges" fill="rgb(49, 32, 24)"  x="9" y="24" width="1" height="1" /><rect shape-rendering="crispEdges" fill="rgb(180, 24, 41)"  x="9" y="25" width="1" height="1" /><rect shape-rendering="crispEdges" fill="rgb(57, 24, 24)"  x="9" y="26" width="1" height="1" /><rect shape-rendering="crispEdges" fill="rgb(41, 24, 24)"  x="10" y="12" width="1" height="1" /><rect shape-rendering="crispEdges" fill="rgb(41, 24, 24)"  x="10" y="13" width="1" height="1" /><rect shape-rendering="crispEdges" fill="rgb(41, 24, 24)"  x="10" y="14" width="1" height="1" /><rect shape-rendering="crispEdges" fill="rgb(213, 49, 41)"  x="10" y="15" width="1" height="1" /><rect shape-rendering="crispEdges" fill="rgb(180, 32, 32)"  x="10" y="16" width="1" height="1" /><rect shape-rendering="crispEdges" fill="rgb(90, 32, 32)"  x="10" y="17" width="1" height="1" /><rect shape-rendering="crispEdges" fill="rgb(49, 41, 32)"  x="10" y="18" width="1" height="1" /><rect shape-rendering="crispEdges" fill="rgb(57, 24, 24)"  x="10" y="19" width="1" height="1" /><rect shape-rendering="crispEdges" fill="rgb(90, 8, 32)"  x="10" y="20" width="1" height="1" /><rect shape-rendering="crispEdges" fill="rgb(98, 8, 24)"  x="10" y="21" width="1" height="1" /><rect shape-rendering="crispEdges" fill="rgb(32, 0, 8)"  x="10" y="22" width="1" height="1" /><rect shape-rendering="crispEdges" fill="rgb(41, 24, 16)"  x="10" y="23" width="1" height="1" /><rect shape-rendering="crispEdges" fill="rgb(65, 16, 24)"  x="10" y="24" width="1" height="1" /><rect shape-rendering="crispEdges" fill="rgb(57, 24, 24)"  x="10" y="25" width="1" height="1" /><rect shape-rendering="crispEdges" fill="rgb(41, 24, 24)"  x="11" y="15" width="1" height="1" /><rect shape-rendering="crispEdges" fill="rgb(205, 57, 49)"  x="11" y="16" width="1" height="1" /><rect shape-rendering="crispEdges" fill="rgb(197, 65, 57)"  x="11" y="17" width="1" height="1" /><rect shape-rendering="crispEdges" fill="rgb(49, 8, 16)"  x="11" y="18" width="1" height="1" /><rect shape-rendering="crispEdges" fill="rgb(180, 32, 32)"  x="11" y="19" width="1" height="1" /><rect shape-rendering="crispEdges" fill="rgb(255, 49, 24)"  x="11" y="20" width="1" height="1" /><rect shape-rendering="crispEdges" fill="rgb(65, 0, 32)"  x="11" y="21" width="1" height="1" /><rect shape-rendering="crispEdges" fill="rgb(213, 32, 41)"  x="11" y="22" width="1" height="1" /><rect shape-rendering="crispEdges" fill="rgb(49, 8, 16)"  x="11" y="23" width="1" height="1" /><rect shape-rendering="crispEdges" fill="rgb(156, 24, 49)"  x="11" y="24" width="1" height="1" /><rect shape-rendering="crispEdges" fill="rgb(57, 24, 24)"  x="11" y="25" width="1" height="1" /><rect shape-rendering="crispEdges" fill="rgb(41, 24, 24)"  x="12" y="16" width="1" height="1" /><rect shape-rendering="crispEdges" fill="rgb(189, 49, 41)"  x="12" y="17" width="1" height="1" /><rect shape-rendering="crispEdges" fill="rgb(255, 131, 90)"  x="12" y="18" width="1" height="1" /><rect shape-rendering="crispEdges" fill="rgb(131, 16, 32)"  x="12" y="19" width="1" height="1" /><rect shape-rendering="crispEdges" fill="rgb(164, 32, 49)"  x="12" y="20" width="1" height="1" /><rect shape-rendering="crispEdges" fill="rgb(255, 49, 32)"  x="12" y="21" width="1" height="1" /><rect shape-rendering="crispEdges" fill="rgb(115, 8, 41)"  x="12" y="22" width="1" height="1" /><rect shape-rendering="crispEdges" fill="rgb(172, 24, 57)"  x="12" y="23" width="1" height="1" /><rect shape-rendering="crispEdges" fill="rgb(57, 24, 24)"  x="12" y="24" width="1" height="1" /><rect shape-rendering="crispEdges" fill="rgb(41, 24, 24)"  x="13" y="17" width="1" height="1" /><rect shape-rendering="crispEdges" fill="rgb(41, 24, 24)"  x="13" y="18" width="1" height="1" /><rect shape-rendering="crispEdges" fill="rgb(213, 41, 41)"  x="13" y="19" width="1" height="1" /><rect shape-rendering="crispEdges" fill="rgb(156, 32, 49)"  x="13" y="20" width="1" height="1" /><rect shape-rendering="crispEdges" fill="rgb(255, 49, 32)"  x="13" y="21" width="1" height="1" /><rect shape-rendering="crispEdges" fill="rgb(123, 8, 41)"  x="13" y="22" width="1" height="1" /><rect shape-rendering="crispEdges" fill="rgb(57, 8, 24)"  x="13" y="23" width="1" height="1" /><rect shape-rendering="crispEdges" fill="rgb(156, 24, 41)"  x="13" y="24" width="1" height="1" /><rect shape-rendering="crispEdges" fill="rgb(57, 24, 24)"  x="13" y="25" width="1" height="1" /><rect shape-rendering="crispEdges" fill="rgb(41, 24, 24)"  x="14" y="16" width="1" height="1" /><rect shape-rendering="crispEdges" fill="rgb(230, 74, 57)"  x="14" y="17" width="1" height="1" /><rect shape-rendering="crispEdges" fill="rgb(156, 41, 49)"  x="14" y="18" width="1" height="1" /><rect shape-rendering="crispEdges" fill="rgb(74, 16, 24)"  x="14" y="19" width="1" height="1" /><rect shape-rendering="crispEdges" fill="rgb(255, 49, 24)"  x="14" y="20" width="1" height="1" /><rect shape-rendering="crispEdges" fill="rgb(65, 0, 32)"  x="14" y="21" width="1" height="1" /><rect shape-rendering="crispEdges" fill="rgb(106, 16, 24)"  x="14" y="22" width="1" height="1" /><rect shape-rendering="crispEdges" fill="rgb(32, 16, 8)"  x="14" y="23" width="1" height="1" /><rect shape-rendering="crispEdges" fill="rgb(41, 24, 24)"  x="14" y="24" width="1" height="1" /><rect shape-rendering="crispEdges" fill="rgb(180, 24, 41)"  x="14" y="25" width="1" height="1" /><rect shape-rendering="crispEdges" fill="rgb(57, 24, 24)"  x="14" y="26" width="1" height="1" /><rect shape-rendering="crispEdges" fill="rgb(41, 24, 24)"  x="15" y="15" width="1" height="1" /><rect shape-rendering="crispEdges" fill="rgb(197, 49, 49)"  x="15" y="16" width="1" height="1" /><rect shape-rendering="crispEdges" fill="rgb(123, 16, 24)"  x="15" y="17" width="1" height="1" /><rect shape-rendering="crispEdges" fill="rgb(65, 49, 41)"  x="15" y="18" width="1" height="1" /><rect shape-rendering="crispEdges" fill="rgb(82, 41, 32)"  x="15" y="19" width="1" height="1" /><rect shape-rendering="crispEdges" fill="rgb(98, 8, 32)"  x="15" y="20" width="1" height="1" /><rect shape-rendering="crispEdges" fill="rgb(82, 8, 16)"  x="15" y="21" width="1" height="1" /><rect shape-rendering="crispEdges" fill="rgb(172, 16, 41)"  x="15" y="22" width="1" height="1" /><rect shape-rendering="crispEdges" fill="rgb(24, 0, 0)"  x="15" y="23" width="1" height="1" /><rect shape-rendering="crispEdges" fill="rgb(49, 41, 32)"  x="15" y="24" width="1" height="1" /><rect shape-rendering="crispEdges" fill="rgb(65, 8, 24)"  x="15" y="25" width="1" height="1" /><rect shape-rendering="crispEdges" fill="rgb(57, 24, 24)"  x="15" y="26" width="1" height="1" /><rect shape-rendering="crispEdges" fill="rgb(41, 24, 24)"  x="16" y="15" width="1" height="1" /><rect shape-rendering="crispEdges" fill="rgb(213, 57, 49)"  x="16" y="16" width="1" height="1" /><rect shape-rendering="crispEdges" fill="rgb(90, 41, 41)"  x="16" y="17" width="1" height="1" /><rect shape-rendering="crispEdges" fill="rgb(41, 41, 24)"  x="16" y="18" width="1" height="1" /><rect shape-rendering="crispEdges" fill="rgb(41, 32, 24)"  x="16" y="19" width="1" height="1" /><rect shape-rendering="crispEdges" fill="rgb(57, 32, 24)"  x="16" y="20" width="1" height="1" /><rect shape-rendering="crispEdges" fill="rgb(213, 32, 32)"  x="16" y="21" width="1" height="1" /><rect shape-rendering="crispEdges" fill="rgb(115, 82, 98)"  x="16" y="22" width="1" height="1" /><rect shape-rendering="crispEdges" fill="rgb(156, 16, 41)"  x="16" y="23" width="1" height="1" /><rect shape-rendering="crispEdges" fill="rgb(148, 24, 57)"  x="16" y="24" width="1" height="1" /><rect shape-rendering="crispEdges" fill="rgb(41, 0, 8)"  x="16" y="25" width="1" height="1" /><rect shape-rendering="crispEdges" fill="rgb(57, 24, 24)"  x="16" y="26" width="1" height="1" /><rect shape-rendering="crispEdges" fill="rgb(57, 24, 24)"  x="16" y="27" width="1" height="1" /><rect shape-rendering="crispEdges" fill="rgb(57, 24, 24)"  x="16" y="28" width="1" height="1" /><rect shape-rendering="crispEdges" fill="rgb(41, 24, 24)"  x="17" y="14" width="1" height="1" /><rect shape-rendering="crispEdges" fill="rgb(255, 57, 57)"  x="17" y="15" width="1" height="1" /><rect shape-rendering="crispEdges" fill="rgb(49, 24, 24)"  x="17" y="16" width="1" height="1" /><rect shape-rendering="crispEdges" fill="rgb(57, 41, 32)"  x="17" y="17" width="1" height="1" /><rect shape-rendering="crispEdges" fill="rgb(57, 41, 32)"  x="17" y="18" width="1" height="1" /><rect shape-rendering="crispEdges" fill="rgb(57, 32, 32)"  x="17" y="19" width="1" height="1" /><rect shape-rendering="crispEdges" fill="rgb(230, 32, 41)"  x="17" y="20" width="1" height="1" /><rect shape-rendering="crispEdges" fill="rgb(41, 24, 24)"  x="17" y="21" width="1" height="1" /><rect shape-rendering="crispEdges" fill="rgb(41, 24, 24)"  x="17" y="22" width="1" height="1" /><rect shape-rendering="crispEdges" fill="rgb(197, 49, 32)"  x="17" y="23" width="1" height="1" /><rect shape-rendering="crispEdges" fill="rgb(205, 32, 24)"  x="17" y="24" width="1" height="1" /><rect shape-rendering="crispEdges" fill="rgb(205, 41, 24)"  x="17" y="25" width="1" height="1" /><rect shape-rendering="crispEdges" fill="rgb(213, 49, 32)"  x="17" y="26" width="1" height="1" /><rect shape-rendering="crispEdges" fill="rgb(148, 24, 41)"  x="17" y="27" width="1" height="1" /><rect shape-rendering="crispEdges" fill="rgb(106, 24, 32)"  x="17" y="28" width="1" height="1" /><rect shape-rendering="crispEdges" fill="rgb(57, 24, 24)"  x="17" y="29" width="1" height="1" /><rect shape-rendering="crispEdges" fill="rgb(41, 24, 24)"  x="18" y="13" width="1" height="1" /><rect shape-rendering="crispEdges" fill="rgb(41, 24, 24)"  x="18" y="14" width="1" height="1" /><rect shape-rendering="crispEdges" fill="rgb(65, 24, 24)"  x="18" y="15" width="1" height="1" /><rect shape-rendering="crispEdges" fill="rgb(57, 41, 41)"  x="18" y="16" width="1" height="1" /><rect shape-rendering="crispEdges" fill="rgb(57, 41, 32)"  x="18" y="17" width="1" height="1" /><rect shape-rendering="crispEdges" fill="rgb(49, 16, 16)"  x="18" y="18" width="1" height="1" /><rect shape-rendering="crispEdges" fill="rgb(230, 41, 32)"  x="18" y="19" width="1" height="1" /><rect shape-rendering="crispEdges" fill="rgb(41, 16, 16)"  x="18" y="20" width="1" height="1" /><rect shape-rendering="crispEdges" fill="rgb(41, 24, 24)"  x="18" y="21" width="1" height="1" /><rect shape-rendering="crispEdges" fill="rgb(41, 24, 24)"  x="18" y="22" width="1" height="1" /><rect shape-rendering="crispEdges" fill="rgb(57, 24, 24)"  x="18" y="23" width="1" height="1" /><rect shape-rendering="crispEdges" fill="rgb(156, 24, 32)"  x="18" y="24" width="1" height="1" /><rect shape-rendering="crispEdges" fill="rgb(222, 41, 24)"  x="18" y="25" width="1" height="1" /><rect shape-rendering="crispEdges" fill="rgb(197, 24, 41)"  x="18" y="26" width="1" height="1" /><rect shape-rendering="crispEdges" fill="rgb(172, 24, 41)"  x="18" y="27" width="1" height="1" /><rect shape-rendering="crispEdges" fill="rgb(139, 24, 41)"  x="18" y="28" width="1" height="1" /><rect shape-rendering="crispEdges" fill="rgb(57, 24, 24)"  x="18" y="29" width="1" height="1" /><rect shape-rendering="crispEdges" fill="rgb(41, 24, 24)"  x="19" y="11" width="1" height="1" /><rect shape-rendering="crispEdges" fill="rgb(41, 24, 24)"  x="19" y="12" width="1" height="1" /><rect shape-rendering="crispEdges" fill="rgb(41, 24, 24)"  x="19" y="13" width="1" height="1" /><rect shape-rendering="crispEdges" fill="rgb(255, 32, 32)"  x="19" y="14" width="1" height="1" /><rect shape-rendering="crispEdges" fill="rgb(57, 24, 24)"  x="19" y="15" width="1" height="1" /><rect shape-rendering="crispEdges" fill="rgb(65, 24, 24)"  x="19" y="16" width="1" height="1" /><rect shape-rendering="crispEdges" fill="rgb(180, 32, 32)"  x="19" y="17" width="1" height="1" /><rect shape-rendering="crispEdges" fill="rgb(156, 24, 41)"  x="19" y="18" width="1" height="1" /><rect shape-rendering="crispEdges" fill="rgb(65, 65, 57)"  x="19" y="19" width="1" height="1" /><rect shape-rendering="crispEdges" fill="rgb(65, 57, 57)"  x="19" y="20" width="1" height="1" /><rect shape-rendering="crispEdges" fill="rgb(49, 32, 24)"  x="19" y="21" width="1" height="1" /><rect shape-rendering="crispEdges" fill="rgb(41, 24, 24)"  x="19" y="22" width="1" height="1" /><rect shape-rendering="crispEdges" fill="rgb(57, 24, 24)"  x="19" y="24" width="1" height="1" /><rect shape-rendering="crispEdges" fill="rgb(57, 24, 24)"  x="19" y="25" width="1" height="1" /><rect shape-rendering="crispEdges" fill="rgb(156, 24, 41)"  x="19" y="26" width="1" height="1" /><rect shape-rendering="crispEdges" fill="rgb(164, 24, 32)"  x="19" y="27" width="1" height="1" /><rect shape-rendering="crispEdges" fill="rgb(131, 24, 41)"  x="19" y="28" width="1" height="1" /><rect shape-rendering="crispEdges" fill="rgb(57, 24, 24)"  x="19" y="29" width="1" height="1" /><rect shape-rendering="crispEdges" fill="rgb(41, 24, 24)"  x="20" y="9" width="1" height="1" /><rect shape-rendering="crispEdges" fill="rgb(41, 24, 24)"  x="20" y="10" width="1" height="1" /><rect shape-rendering="crispEdges" fill="rgb(57, 41, 41)"  x="20" y="11" width="1" height="1" /><rect shape-rendering="crispEdges" fill="rgb(57, 49, 41)"  x="20" y="12" width="1" height="1" /><rect shape-rendering="crispEdges" fill="rgb(49, 41, 41)"  x="20" y="13" width="1" height="1" /><rect shape-rendering="crispEdges" fill="rgb(230, 49, 41)"  x="20" y="14" width="1" height="1" /><rect shape-rendering="crispEdges" fill="rgb(213, 41, 41)"  x="20" y="15" width="1" height="1" /><rect shape-rendering="crispEdges" fill="rgb(16, 8, 8)"  x="20" y="16" width="1" height="1" /><rect shape-rendering="crispEdges" fill="rgb(139, 82, 90)"  x="20" y="17" width="1" height="1" /><rect shape-rendering="crispEdges" fill="rgb(98, 74, 74)"  x="20" y="18" width="1" height="1" /><rect shape-rendering="crispEdges" fill="rgb(74, 65, 57)"  x="20" y="19" width="1" height="1" /><rect shape-rendering="crispEdges" fill="rgb(74, 65, 65)"  x="20" y="20" width="1" height="1" /><rect shape-rendering="crispEdges" fill="rgb(65, 49, 49)"  x="20" y="21" width="1" height="1" /><rect shape-rendering="crispEdges" fill="rgb(49, 41, 32)"  x="20" y="22" width="1" height="1" /><rect shape-rendering="crispEdges" fill="rgb(41, 24, 24)"  x="20" y="23" width="1" height="1" /><rect shape-rendering="crispEdges" fill="rgb(57, 24, 24)"  x="20" y="26" width="1" height="1" /><rect shape-rendering="crispEdges" fill="rgb(57, 24, 24)"  x="20" y="27" width="1" height="1" /><rect shape-rendering="crispEdges" fill="rgb(57, 24, 24)"  x="20" y="28" width="1" height="1" /><rect shape-rendering="crispEdges" fill="rgb(41, 24, 24)"  x="21" y="7" width="1" height="1" /><rect shape-rendering="crispEdges" fill="rgb(41, 24, 24)"  x="21" y="8" width="1" height="1" /><rect shape-rendering="crispEdges" fill="rgb(65, 41, 41)"  x="21" y="9" width="1" height="1" /><rect shape-rendering="crispEdges" fill="rgb(65, 49, 49)"  x="21" y="10" width="1" height="1" /><rect shape-rendering="crispEdges" fill="rgb(74, 49, 49)"  x="21" y="11" width="1" height="1" /><rect shape-rendering="crispEdges" fill="rgb(82, 65, 65)"  x="21" y="12" width="1" height="1" /><rect shape-rendering="crispEdges" fill="rgb(65, 32, 32)"  x="21" y="13" width="1" height="1" /><rect shape-rendering="crispEdges" fill="rgb(32, 16, 16)"  x="21" y="14" width="1" height="1" /><rect shape-rendering="crispEdges" fill="rgb(74, 41, 49)"  x="21" y="15" width="1" height="1" /><rect shape-rendering="crispEdges" fill="rgb(213, 90, 106)"  x="21" y="16" width="1" height="1" /><rect shape-rendering="crispEdges" fill="rgb(24, 24, 16)"  x="21" y="17" width="1" height="1" /><rect shape-rendering="crispEdges" fill="rgb(131, 65, 74)"  x="21" y="18" width="1" height="1" /><rect shape-rendering="crispEdges" fill="rgb(74, 65, 57)"  x="21" y="19" width="1" height="1" /><rect shape-rendering="crispEdges" fill="rgb(65, 49, 49)"  x="21" y="20" width="1" height="1" /><rect shape-rendering="crispEdges" fill="rgb(57, 49, 49)"  x="21" y="21" width="1" height="1" /><rect shape-rendering="crispEdges" fill="rgb(32, 24, 24)"  x="21" y="22" width="1" height="1" /><rect shape-rendering="crispEdges" fill="rgb(41, 24, 24)"  x="21" y="23" width="1" height="1" /><rect shape-rendering="crispEdges" fill="rgb(41, 24, 24)"  x="22" y="5" width="1" height="1" /><rect shape-rendering="crispEdges" fill="rgb(41, 24, 24)"  x="22" y="6" width="1" height="1" /><rect shape-rendering="crispEdges" fill="rgb(74, 49, 49)"  x="22" y="7" width="1" height="1" /><rect shape-rendering="crispEdges" fill="rgb(74, 57, 49)"  x="22" y="8" width="1" height="1" /><rect shape-rendering="crispEdges" fill="rgb(90, 65, 65)"  x="22" y="9" width="1" height="1" /><rect shape-rendering="crispEdges" fill="rgb(106, 74, 74)"  x="22" y="10" width="1" height="1" /><rect shape-rendering="crispEdges" fill="rgb(90, 49, 49)"  x="22" y="11" width="1" height="1" /><rect shape-rendering="crispEdges" fill="rgb(65, 24, 24)"  x="22" y="12" width="1" height="1" /><rect shape-rendering="crispEdges" fill="rgb(98, 57, 57)"  x="22" y="13" width="1" height="1" /><rect shape-rendering="crispEdges" fill="rgb(205, 90, 106)"  x="22" y="14" width="1" height="1" /><rect shape-rendering="crispEdges" fill="rgb(213, 98, 106)"  x="22" y="15" width="1" height="1" /><rect shape-rendering="crispEdges" fill="rgb(205, 90, 106)"  x="22" y="16" width="1" height="1" /><rect shape-rendering="crispEdges" fill="rgb(189, 90, 106)"  x="22" y="17" width="1" height="1" /><rect shape-rendering="crispEdges" fill="rgb(32, 16, 8)"  x="22" y="18" width="1" height="1" /><rect shape-rendering="crispEdges" fill="rgb(49, 32, 32)"  x="22" y="19" width="1" height="1" /><rect shape-rendering="crispEdges" fill="rgb(57, 49, 41)"  x="22" y="20" width="1" height="1" /><rect shape-rendering="crispEdges" fill="rgb(41, 24, 24)"  x="22" y="21" width="1" height="1" /><rect shape-rendering="crispEdges" fill="rgb(41, 24, 24)"  x="22" y="22" width="1" height="1" /><rect shape-rendering="crispEdges" fill="rgb(41, 24, 24)"  x="23" y="4" width="1" height="1" /><rect shape-rendering="crispEdges" fill="rgb(74, 57, 57)"  x="23" y="5" width="1" height="1" /><rect shape-rendering="crispEdges" fill="rgb(82, 65, 57)"  x="23" y="6" width="1" height="1" /><rect shape-rendering="crispEdges" fill="rgb(90, 74, 65)"  x="23" y="7" width="1" height="1" /><rect shape-rendering="crispEdges" fill="rgb(106, 65, 74)"  x="23" y="8" width="1" height="1" /><rect shape-rendering="crispEdges" fill="rgb(98, 65, 65)"  x="23" y="9" width="1" height="1" /><rect shape-rendering="crispEdges" fill="rgb(57, 24, 16)"  x="23" y="10" width="1" height="1" /><rect shape-rendering="crispEdges" fill="rgb(164, 82, 90)"  x="23" y="11" width="1" height="1" /><rect shape-rendering="crispEdges" fill="rgb(238, 115, 131)"  x="23" y="12" width="1" height="1" /><rect shape-rendering="crispEdges" fill="rgb(246, 123, 139)"  x="23" y="13" width="1" height="1" /><rect shape-rendering="crispEdges" fill="rgb(230, 106, 123)"  x="23" y="14" width="1" height="1" /><rect shape-rendering="crispEdges" fill="rgb(230, 131, 139)"  x="23" y="15" width="1" height="1" /><rect shape-rendering="crispEdges" fill="rgb(255, 156, 180)"  x="23" y="16" width="1" height="1" /><rect shape-rendering="crispEdges" fill="rgb(106, 57, 65)"  x="23" y="17" width="1" height="1" /><rect shape-rendering="crispEdges" fill="rgb(41, 32, 24)"  x="23" y="18" width="1" height="1" /><rect shape-rendering="crispEdges" fill="rgb(49, 41, 41)"  x="23" y="19" width="1" height="1" /><rect shape-rendering="crispEdges" fill="rgb(41, 24, 24)"  x="23" y="20" width="1" height="1" /><rect shape-rendering="crispEdges" fill="rgb(41, 24, 24)"  x="24" y="3" width="1" height="1" /><rect shape-rendering="crispEdges" fill="rgb(90, 65, 65)"  x="24" y="4" width="1" height="1" /><rect shape-rendering="crispEdges" fill="rgb(98, 57, 65)"  x="24" y="5" width="1" height="1" /><rect shape-rendering="crispEdges" fill="rgb(123, 82, 82)"  x="24" y="6" width="1" height="1" /><rect shape-rendering="crispEdges" fill="rgb(106, 57, 57)"  x="24" y="7" width="1" height="1" /><rect shape-rendering="crispEdges" fill="rgb(115, 65, 74)"  x="24" y="8" width="1" height="1" /><rect shape-rendering="crispEdges" fill="rgb(246, 139, 156)"  x="24" y="9" width="1" height="1" /><rect shape-rendering="crispEdges" fill="rgb(255, 180, 213)"  x="24" y="10" width="1" height="1" /><rect shape-rendering="crispEdges" fill="rgb(255, 180, 205)"  x="24" y="11" width="1" height="1" /><rect shape-rendering="crispEdges" fill="rgb(255, 156, 180)"  x="24" y="12" width="1" height="1" /><rect shape-rendering="crispEdges" fill="rgb(255, 172, 197)"  x="24" y="13" width="1" height="1" /><rect shape-rendering="crispEdges" fill="rgb(255, 172, 197)"  x="24" y="14" width="1" height="1" /><rect shape-rendering="crispEdges" fill="rgb(148, 74, 74)"  x="24" y="15" width="1" height="1" /><rect shape-rendering="crispEdges" fill="rgb(41, 24, 24)"  x="24" y="16" width="1" height="1" /><rect shape-rendering="crispEdges" fill="rgb(57, 57, 49)"  x="24" y="17" width="1" height="1" /><rect shape-rendering="crispEdges" fill="rgb(49, 32, 32)"  x="24" y="18" width="1" height="1" /><rect shape-rendering="crispEdges" fill="rgb(41, 24, 24)"  x="24" y="19" width="1" height="1" /><rect shape-rendering="crispEdges" fill="rgb(41, 24, 24)"  x="25" y="2" width="1" height="1" /><rect shape-rendering="crispEdges" fill="rgb(74, 49, 49)"  x="25" y="3" width="1" height="1" /><rect shape-rendering="crispEdges" fill="rgb(106, 74, 74)"  x="25" y="4" width="1" height="1" /><rect shape-rendering="crispEdges" fill="rgb(65, 24, 32)"  x="25" y="5" width="1" height="1" /><rect shape-rendering="crispEdges" fill="rgb(123, 65, 74)"  x="25" y="6" width="1" height="1" /><rect shape-rendering="crispEdges" fill="rgb(255, 197, 230)"  x="25" y="7" width="1" height="1" /><rect shape-rendering="crispEdges" fill="rgb(255, 189, 213)"  x="25" y="8" width="1" height="1" /><rect shape-rendering="crispEdges" fill="rgb(255, 180, 213)"  x="25" y="9" width="1" height="1" /><rect shape-rendering="crispEdges" fill="rgb(255, 180, 197)"  x="25" y="10" width="1" height="1" /><rect shape-rendering="crispEdges" fill="rgb(164, 106, 115)"  x="25" y="11" width="1" height="1" /><rect shape-rendering="crispEdges" fill="rgb(49, 32, 41)"  x="25" y="12" width="1" height="1" /><rect shape-rendering="crispEdges" fill="rgb(41, 24, 24)"  x="25" y="13" width="1" height="1" /><rect shape-rendering="crispEdges" fill="rgb(32, 16, 16)"  x="25" y="14" width="1" height="1" /><rect shape-rendering="crispEdges" fill="rgb(65, 49, 57)"  x="25" y="15" width="1" height="1" /><rect shape-rendering="crispEdges" fill="rgb(41, 32, 32)"  x="25" y="16" width="1" height="1" /><rect shape-rendering="crispEdges" fill="rgb(41, 24, 24)"  x="25" y="17" width="1" height="1" /><rect shape-rendering="crispEdges" fill="rgb(41, 24, 24)"  x="25" y="18" width="1" height="1" /><rect shape-rendering="crispEdges" fill="rgb(41, 24, 24)"  x="26" y="1" width="1" height="1" /><rect shape-rendering="crispEdges" fill="rgb(82, 57, 57)"  x="26" y="2" width="1" height="1" /><rect shape-rendering="crispEdges" fill="rgb(82, 57, 57)"  x="26" y="3" width="1" height="1" /><rect shape-rendering="crispEdges" fill="rgb(90, 57, 57)"  x="26" y="4" width="1" height="1" /><rect shape-rendering="crispEdges" fill="rgb(65, 41, 41)"  x="26" y="5" width="1" height="1" /><rect shape-rendering="crispEdges" fill="rgb(74, 41, 32)"  x="26" y="6" width="1" height="1" /><rect shape-rendering="crispEdges" fill="rgb(74, 41, 32)"  x="26" y="7" width="1" height="1" /><rect shape-rendering="crispEdges" fill="rgb(74, 49, 41)"  x="26" y="8" width="1" height="1" /><rect shape-rendering="crispEdges" fill="rgb(65, 41, 41)"  x="26" y="9" width="1" height="1" /><rect shape-rendering="crispEdges" fill="rgb(65, 41, 41)"  x="26" y="10" width="1" height="1" /><rect shape-rendering="crispEdges" fill="rgb(74, 49, 49)"  x="26" y="11" width="1" height="1" /><rect shape-rendering="crispEdges" fill="rgb(49, 32, 32)"  x="26" y="12" width="1" height="1" /><rect shape-rendering="crispEdges" fill="rgb(49, 32, 32)"  x="26" y="13" width="1" height="1" /><rect shape-rendering="crispEdges" fill="rgb(49, 32, 32)"  x="26" y="14" width="1" height="1" /><rect shape-rendering="crispEdges" fill="rgb(41, 24, 24)"  x="26" y="15" width="1" height="1" /><rect shape-rendering="crispEdges" fill="rgb(41, 24, 24)"  x="26" y="16" width="1" height="1" /><rect shape-rendering="crispEdges" fill="rgb(41, 24, 24)"  x="27" y="1" width="1" height="1" /><rect shape-rendering="crispEdges" fill="rgb(74, 57, 49)"  x="27" y="2" width="1" height="1" /><rect shape-rendering="crispEdges" fill="rgb(74, 57, 49)"  x="27" y="3" width="1" height="1" /><rect shape-rendering="crispEdges" fill="rgb(74, 57, 49)"  x="27" y="4" width="1" height="1" /><rect shape-rendering="crispEdges" fill="rgb(82, 57, 49)"  x="27" y="5" width="1" height="1" /><rect shape-rendering="crispEdges" fill="rgb(74, 57, 57)"  x="27" y="6" width="1" height="1" /><rect shape-rendering="crispEdges" fill="rgb(82, 57, 57)"  x="27" y="7" width="1" height="1" /><rect shape-rendering="crispEdges" fill="rgb(74, 57, 57)"  x="27" y="8" width="1" height="1" /><rect shape-rendering="crispEdges" fill="rgb(57, 41, 41)"  x="27" y="9" width="1" height="1" /><rect shape-rendering="crispEdges" fill="rgb(49, 32, 32)"  x="27" y="10" width="1" height="1" /><rect shape-rendering="crispEdges" fill="rgb(41, 24, 24)"  x="27" y="11" width="1" height="1" /><rect shape-rendering="crispEdges" fill="rgb(41, 24, 24)"  x="27" y="12" width="1" height="1" /><rect shape-rendering="crispEdges" fill="rgb(41, 24, 24)"  x="27" y="13" width="1" height="1" /><rect shape-rendering="crispEdges" fill="rgb(41, 24, 24)"  x="27" y="14" width="1" height="1" /><rect shape-rendering="crispEdges" fill="rgb(41, 24, 24)"  x="28" y="2" width="1" height="1" /><rect shape-rendering="crispEdges" fill="rgb(41, 24, 24)"  x="28" y="3" width="1" height="1" /><rect shape-rendering="crispEdges" fill="rgb(41, 24, 24)"  x="28" y="4" width="1" height="1" /><rect shape-rendering="crispEdges" fill="rgb(41, 24, 24)"  x="28" y="5" width="1" height="1" /><rect shape-rendering="crispEdges" fill="rgb(41, 24, 24)"  x="28" y="6" width="1" height="1" /><rect shape-rendering="crispEdges" fill="rgb(41, 24, 24)"  x="28" y="7" width="1" height="1" /><rect shape-rendering="crispEdges" fill="rgb(41, 24, 24)"  x="28" y="8" width="1" height="1" /><rect shape-rendering="crispEdges" fill="rgb(41, 24, 24)"  x="28" y="9" width="1" height="1" /><rect shape-rendering="crispEdges" fill="rgb(41, 24, 24)"  x="28" y="10" width="1" height="1" /></svg>