<svg xmlns="http://www.w3.org/2000/svg" xmlns:xlink= "http://www.w3.org/1999/xlink" width="32" height="32" viewBox ="0 0 32 32"><rect shape-rendering="crispEdges" fill="rgb(65, 65, 65)"  x="4" y="15" width="1" height="1" /><rect shape-rendering="crispEdges" fill="rgb(74, 74, 74)"  x="4" y="16" width="1" height="1" /><rect shape-rendering="crispEdges" fill="rgb(65, 65, 65)"  x="4" y="17" width="1" height="1" /><rect shape-rendering="crispEdges" fill="rgb(65, 65, 65)"  x="4" y="18" width="1" height="1" /><rect shape-rendering="crispEdges" fill="rgb(65, 65, 65)"  x="4" y="19" width="1" height="1" /><rect shape-rendering="crispEdges" fill="rgb(65, 65, 65)"  x="4" y="20" width="1" height="1" /><rect shape-rendering="crispEdges" fill="rgb(57, 65, 57)"  x="4" y="21" width="1" height="1" /><rect shape-rendering="crispEdges" fill="rgb(65, 65, 65)"  x="5" y="14" width="1" height="1" /><rect shape-rendering="crispEdges" fill="rgb(74, 74, 74)"  x="5" y="15" width="1" height="1" /><rect shape-rendering="crispEdges" fill="rgb(74, 74, 74)"  x="5" y="16" width="1" height="1" /><rect shape-rendering="crispEdges" fill="rgb(57, 57, 57)"  x="5" y="17" width="1" height="1" /><rect shape-rendering="crispEdges" fill="rgb(49, 49, 49)"  x="5" y="18" width="1" height="1" /><rect shape-rendering="crispEdges" fill="rgb(49, 49, 49)"  x="5" y="19" width="1" height="1" /><rect shape-rendering="crispEdges" fill="rgb(41, 41, 41)"  x="5" y="20" width="1" height="1" /><rect shape-rendering="crispEdges" fill="rgb(49, 57, 49)"  x="5" y="21" width="1" height="1" /><rect shape-rendering="crispEdges" fill="rgb(57, 57, 57)"  x="5" y="22" width="1" height="1" /><rect shape-rendering="crispEdges" fill="rgb(65, 65, 65)"  x="6" y="13" width="1" height="1" /><rect shape-rendering="crispEdges" fill="rgb(65, 65, 65)"  x="6" y="14" width="1" height="1" /><rect shape-rendering="crispEdges" fill="rgb(82, 82, 82)"  x="6" y="15" width="1" height="1" /><rect shape-rendering="crispEdges" fill="rgb(82, 82, 82)"  x="6" y="16" width="1" height="1" /><rect shape-rendering="crispEdges" fill="rgb(74, 74, 74)"  x="6" y="17" width="1" height="1" /><rect shape-rendering="crispEdges" fill="rgb(65, 65, 65)"  x="6" y="18" width="1" height="1" /><rect shape-rendering="crispEdges" fill="rgb(57, 57, 57)"  x="6" y="19" width="1" height="1" /><rect shape-rendering="crispEdges" fill="rgb(49, 49, 49)"  x="6" y="20" width="1" height="1" /><rect shape-rendering="crispEdges" fill="rgb(49, 49, 49)"  x="6" y="21" width="1" height="1" /><rect shape-rendering="crispEdges" fill="rgb(57, 57, 57)"  x="6" y="22" width="1" height="1" /><rect shape-rendering="crispEdges" fill="rgb(57, 57, 57)"  x="7" y="12" width="1" height="1" /><rect shape-rendering="crispEdges" fill="rgb(65, 65, 65)"  x="7" y="13" width="1" height="1" /><rect shape-rendering="crispEdges" fill="rgb(82, 82, 82)"  x="7" y="14" width="1" height="1" /><rect shape-rendering="crispEdges" fill="rgb(115, 115, 115)"  x="7" y="15" width="1" height="1" /><rect shape-rendering="crispEdges" fill="rgb(106, 106, 106)"  x="7" y="16" width="1" height="1" /><rect shape-rendering="crispEdges" fill="rgb(90, 90, 90)"  x="7" y="17" width="1" height="1" /><rect shape-rendering="crispEdges" fill="rgb(82, 82, 82)"  x="7" y="18" width="1" height="1" /><rect shape-rendering="crispEdges" fill="rgb(65, 65, 65)"  x="7" y="19" width="1" height="1" /><rect shape-rendering="crispEdges" fill="rgb(57, 57, 57)"  x="7" y="20" width="1" height="1" /><rect shape-rendering="crispEdges" fill="rgb(49, 49, 49)"  x="7" y="21" width="1" height="1" /><rect shape-rendering="crispEdges" fill="rgb(57, 49, 57)"  x="7" y="22" width="1" height="1" /><rect shape-rendering="crispEdges" fill="rgb(49, 49, 49)"  x="7" y="23" width="1" height="1" /><rect shape-rendering="crispEdges" fill="rgb(49, 49, 49)"  x="7" y="24" width="1" height="1" /><rect shape-rendering="crispEdges" fill="rgb(57, 57, 57)"  x="7" y="25" width="1" height="1" /><rect shape-rendering="crispEdges" fill="rgb(57, 57, 57)"  x="8" y="11" width="1" height="1" /><rect shape-rendering="crispEdges" fill="rgb(57, 57, 57)"  x="8" y="12" width="1" height="1" /><rect shape-rendering="crispEdges" fill="rgb(74, 74, 74)"  x="8" y="13" width="1" height="1" /><rect shape-rendering="crispEdges" fill="rgb(90, 90, 90)"  x="8" y="14" width="1" height="1" /><rect shape-rendering="crispEdges" fill="rgb(139, 139, 139)"  x="8" y="15" width="1" height="1" /><rect shape-rendering="crispEdges" fill="rgb(139, 139, 139)"  x="8" y="16" width="1" height="1" /><rect shape-rendering="crispEdges" fill="rgb(106, 106, 106)"  x="8" y="17" width="1" height="1" /><rect shape-rendering="crispEdges" fill="rgb(82, 82, 82)"  x="8" y="18" width="1" height="1" /><rect shape-rendering="crispEdges" fill="rgb(65, 65, 65)"  x="8" y="19" width="1" height="1" /><rect shape-rendering="crispEdges" fill="rgb(65, 57, 65)"  x="8" y="20" width="1" height="1" /><rect shape-rendering="crispEdges" fill="rgb(65, 65, 65)"  x="8" y="21" width="1" height="1" /><rect shape-rendering="crispEdges" fill="rgb(65, 65, 65)"  x="8" y="22" width="1" height="1" /><rect shape-rendering="crispEdges" fill="rgb(57, 57, 57)"  x="8" y="23" width="1" height="1" /><rect shape-rendering="crispEdges" fill="rgb(49, 49, 49)"  x="8" y="24" width="1" height="1" /><rect shape-rendering="crispEdges" fill="rgb(49, 49, 49)"  x="8" y="25" width="1" height="1" /><rect shape-rendering="crispEdges" fill="rgb(57, 57, 57)"  x="8" y="26" width="1" height="1" /><rect shape-rendering="crispEdges" fill="rgb(41, 41, 41)"  x="9" y="10" width="1" height="1" /><rect shape-rendering="crispEdges" fill="rgb(49, 49, 49)"  x="9" y="11" width="1" height="1" /><rect shape-rendering="crispEdges" fill="rgb(65, 65, 65)"  x="9" y="12" width="1" height="1" /><rect shape-rendering="crispEdges" fill="rgb(82, 82, 82)"  x="9" y="13" width="1" height="1" /><rect shape-rendering="crispEdges" fill="rgb(90, 90, 90)"  x="9" y="14" width="1" height="1" /><rect shape-rendering="crispEdges" fill="rgb(139, 139, 139)"  x="9" y="15" width="1" height="1" /><rect shape-rendering="crispEdges" fill="rgb(156, 156, 156)"  x="9" y="16" width="1" height="1" /><rect shape-rendering="crispEdges" fill="rgb(123, 123, 123)"  x="9" y="17" width="1" height="1" /><rect shape-rendering="crispEdges" fill="rgb(82, 82, 82)"  x="9" y="18" width="1" height="1" /><rect shape-rendering="crispEdges" fill="rgb(65, 65, 65)"  x="9" y="19" width="1" height="1" /><rect shape-rendering="crispEdges" fill="rgb(74, 74, 74)"  x="9" y="20" width="1" height="1" /><rect shape-rendering="crispEdges" fill="rgb(74, 74, 74)"  x="9" y="21" width="1" height="1" /><rect shape-rendering="crispEdges" fill="rgb(74, 74, 74)"  x="9" y="22" width="1" height="1" /><rect shape-rendering="crispEdges" fill="rgb(41, 41, 41)"  x="9" y="23" width="1" height="1" /><rect shape-rendering="crispEdges" fill="rgb(41, 41, 41)"  x="9" y="24" width="1" height="1" /><rect shape-rendering="crispEdges" fill="rgb(41, 41, 41)"  x="9" y="25" width="1" height="1" /><rect shape-rendering="crispEdges" fill="rgb(41, 41, 41)"  x="9" y="26" width="1" height="1" /><rect shape-rendering="crispEdges" fill="rgb(32, 41, 32)"  x="9" y="27" width="1" height="1" /><rect shape-rendering="crispEdges" fill="rgb(49, 49, 49)"  x="10" y="10" width="1" height="1" /><rect shape-rendering="crispEdges" fill="rgb(41, 41, 41)"  x="10" y="11" width="1" height="1" /><rect shape-rendering="crispEdges" fill="rgb(65, 65, 65)"  x="10" y="12" width="1" height="1" /><rect shape-rendering="crispEdges" fill="rgb(90, 82, 90)"  x="10" y="13" width="1" height="1" /><rect shape-rendering="crispEdges" fill="rgb(98, 98, 98)"  x="10" y="14" width="1" height="1" /><rect shape-rendering="crispEdges" fill="rgb(115, 115, 115)"  x="10" y="15" width="1" height="1" /><rect shape-rendering="crispEdges" fill="rgb(148, 148, 148)"  x="10" y="16" width="1" height="1" /><rect shape-rendering="crispEdges" fill="rgb(106, 106, 106)"  x="10" y="17" width="1" height="1" /><rect shape-rendering="crispEdges" fill="rgb(65, 57, 65)"  x="10" y="18" width="1" height="1" /><rect shape-rendering="crispEdges" fill="rgb(82, 82, 82)"  x="10" y="19" width="1" height="1" /><rect shape-rendering="crispEdges" fill="rgb(90, 90, 90)"  x="10" y="20" width="1" height="1" /><rect shape-rendering="crispEdges" fill="rgb(90, 90, 90)"  x="10" y="21" width="1" height="1" /><rect shape-rendering="crispEdges" fill="rgb(82, 82, 82)"  x="10" y="22" width="1" height="1" /><rect shape-rendering="crispEdges" fill="rgb(82, 82, 82)"  x="10" y="23" width="1" height="1" /><rect shape-rendering="crispEdges" fill="rgb(74, 74, 74)"  x="10" y="24" width="1" height="1" /><rect shape-rendering="crispEdges" fill="rgb(65, 65, 65)"  x="10" y="25" width="1" height="1" /><rect shape-rendering="crispEdges" fill="rgb(57, 57, 57)"  x="10" y="26" width="1" height="1" /><rect shape-rendering="crispEdges" fill="rgb(41, 41, 41)"  x="10" y="27" width="1" height="1" /><rect shape-rendering="crispEdges" fill="rgb(41, 41, 41)"  x="11" y="10" width="1" height="1" /><rect shape-rendering="crispEdges" fill="rgb(49, 49, 49)"  x="11" y="11" width="1" height="1" /><rect shape-rendering="crispEdges" fill="rgb(65, 65, 65)"  x="11" y="12" width="1" height="1" /><rect shape-rendering="crispEdges" fill="rgb(90, 82, 90)"  x="11" y="13" width="1" height="1" /><rect shape-rendering="crispEdges" fill="rgb(98, 98, 98)"  x="11" y="14" width="1" height="1" /><rect shape-rendering="crispEdges" fill="rgb(115, 115, 115)"  x="11" y="15" width="1" height="1" /><rect shape-rendering="crispEdges" fill="rgb(115, 115, 115)"  x="11" y="16" width="1" height="1" /><rect shape-rendering="crispEdges" fill="rgb(57, 57, 57)"  x="11" y="17" width="1" height="1" /><rect shape-rendering="crispEdges" fill="rgb(74, 74, 74)"  x="11" y="18" width="1" height="1" /><rect shape-rendering="crispEdges" fill="rgb(98, 98, 98)"  x="11" y="19" width="1" height="1" /><rect shape-rendering="crispEdges" fill="rgb(131, 131, 131)"  x="11" y="20" width="1" height="1" /><rect shape-rendering="crispEdges" fill="rgb(115, 115, 115)"  x="11" y="21" width="1" height="1" /><rect shape-rendering="crispEdges" fill="rgb(98, 98, 98)"  x="11" y="22" width="1" height="1" /><rect shape-rendering="crispEdges" fill="rgb(82, 82, 82)"  x="11" y="23" width="1" height="1" /><rect shape-rendering="crispEdges" fill="rgb(41, 41, 41)"  x="11" y="24" width="1" height="1" /><rect shape-rendering="crispEdges" fill="rgb(41, 41, 41)"  x="11" y="25" width="1" height="1" /><rect shape-rendering="crispEdges" fill="rgb(41, 41, 41)"  x="11" y="26" width="1" height="1" /><rect shape-rendering="crispEdges" fill="rgb(41, 41, 41)"  x="11" y="27" width="1" height="1" /><rect shape-rendering="crispEdges" fill="rgb(57, 49, 57)"  x="11" y="28" width="1" height="1" /><rect shape-rendering="crispEdges" fill="rgb(41, 41, 41)"  x="12" y="9" width="1" height="1" /><rect shape-rendering="crispEdges" fill="rgb(41, 41, 41)"  x="12" y="10" width="1" height="1" /><rect shape-rendering="crispEdges" fill="rgb(49, 49, 49)"  x="12" y="11" width="1" height="1" /><rect shape-rendering="crispEdges" fill="rgb(65, 65, 65)"  x="12" y="12" width="1" height="1" /><rect shape-rendering="crispEdges" fill="rgb(82, 82, 82)"  x="12" y="13" width="1" height="1" /><rect shape-rendering="crispEdges" fill="rgb(98, 98, 98)"  x="12" y="14" width="1" height="1" /><rect shape-rendering="crispEdges" fill="rgb(106, 106, 106)"  x="12" y="15" width="1" height="1" /><rect shape-rendering="crispEdges" fill="rgb(65, 65, 65)"  x="12" y="16" width="1" height="1" /><rect shape-rendering="crispEdges" fill="rgb(57, 49, 57)"  x="12" y="17" width="1" height="1" /><rect shape-rendering="crispEdges" fill="rgb(82, 82, 82)"  x="12" y="18" width="1" height="1" /><rect shape-rendering="crispEdges" fill="rgb(106, 106, 106)"  x="12" y="19" width="1" height="1" /><rect shape-rendering="crispEdges" fill="rgb(164, 156, 164)"  x="12" y="20" width="1" height="1" /><rect shape-rendering="crispEdges" fill="rgb(156, 156, 156)"  x="12" y="21" width="1" height="1" /><rect shape-rendering="crispEdges" fill="rgb(106, 106, 106)"  x="12" y="22" width="1" height="1" /><rect shape-rendering="crispEdges" fill="rgb(98, 90, 98)"  x="12" y="23" width="1" height="1" /><rect shape-rendering="crispEdges" fill="rgb(90, 90, 90)"  x="12" y="24" width="1" height="1" /><rect shape-rendering="crispEdges" fill="rgb(74, 74, 74)"  x="12" y="25" width="1" height="1" /><rect shape-rendering="crispEdges" fill="rgb(57, 57, 57)"  x="12" y="26" width="1" height="1" /><rect shape-rendering="crispEdges" fill="rgb(41, 41, 41)"  x="12" y="27" width="1" height="1" /><rect shape-rendering="crispEdges" fill="rgb(49, 49, 49)"  x="12" y="28" width="1" height="1" /><rect shape-rendering="crispEdges" fill="rgb(41, 41, 41)"  x="13" y="9" width="1" height="1" /><rect shape-rendering="crispEdges" fill="rgb(41, 41, 41)"  x="13" y="10" width="1" height="1" /><rect shape-rendering="crispEdges" fill="rgb(49, 49, 49)"  x="13" y="11" width="1" height="1" /><rect shape-rendering="crispEdges" fill="rgb(74, 74, 74)"  x="13" y="12" width="1" height="1" /><rect shape-rendering="crispEdges" fill="rgb(82, 82, 82)"  x="13" y="13" width="1" height="1" /><rect shape-rendering="crispEdges" fill="rgb(98, 98, 98)"  x="13" y="14" width="1" height="1" /><rect shape-rendering="crispEdges" fill="rgb(82, 74, 82)"  x="13" y="15" width="1" height="1" /><rect shape-rendering="crispEdges" fill="rgb(41, 41, 41)"  x="13" y="16" width="1" height="1" /><rect shape-rendering="crispEdges" fill="rgb(65, 65, 65)"  x="13" y="17" width="1" height="1" /><rect shape-rendering="crispEdges" fill="rgb(82, 82, 82)"  x="13" y="18" width="1" height="1" /><rect shape-rendering="crispEdges" fill="rgb(106, 98, 106)"  x="13" y="19" width="1" height="1" /><rect shape-rendering="crispEdges" fill="rgb(156, 156, 156)"  x="13" y="20" width="1" height="1" /><rect shape-rendering="crispEdges" fill="rgb(189, 189, 189)"  x="13" y="21" width="1" height="1" /><rect shape-rendering="crispEdges" fill="rgb(131, 131, 131)"  x="13" y="22" width="1" height="1" /><rect shape-rendering="crispEdges" fill="rgb(115, 106, 115)"  x="13" y="23" width="1" height="1" /><rect shape-rendering="crispEdges" fill="rgb(98, 98, 98)"  x="13" y="24" width="1" height="1" /><rect shape-rendering="crispEdges" fill="rgb(82, 74, 82)"  x="13" y="25" width="1" height="1" /><rect shape-rendering="crispEdges" fill="rgb(65, 65, 65)"  x="13" y="26" width="1" height="1" /><rect shape-rendering="crispEdges" fill="rgb(49, 49, 49)"  x="13" y="27" width="1" height="1" /><rect shape-rendering="crispEdges" fill="rgb(49, 49, 49)"  x="13" y="28" width="1" height="1" /><rect shape-rendering="crispEdges" fill="rgb(41, 41, 32)"  x="14" y="8" width="1" height="1" /><rect shape-rendering="crispEdges" fill="rgb(41, 41, 41)"  x="14" y="9" width="1" height="1" /><rect shape-rendering="crispEdges" fill="rgb(41, 41, 41)"  x="14" y="10" width="1" height="1" /><rect shape-rendering="crispEdges" fill="rgb(57, 57, 57)"  x="14" y="11" width="1" height="1" /><rect shape-rendering="crispEdges" fill="rgb(74, 74, 74)"  x="14" y="12" width="1" height="1" /><rect shape-rendering="crispEdges" fill="rgb(90, 90, 90)"  x="14" y="13" width="1" height="1" /><rect shape-rendering="crispEdges" fill="rgb(90, 90, 90)"  x="14" y="14" width="1" height="1" /><rect shape-rendering="crispEdges" fill="rgb(41, 41, 41)"  x="14" y="15" width="1" height="1" /><rect shape-rendering="crispEdges" fill="rgb(49, 49, 49)"  x="14" y="16" width="1" height="1" /><rect shape-rendering="crispEdges" fill="rgb(65, 65, 65)"  x="14" y="17" width="1" height="1" /><rect shape-rendering="crispEdges" fill="rgb(82, 82, 82)"  x="14" y="18" width="1" height="1" /><rect shape-rendering="crispEdges" fill="rgb(98, 98, 98)"  x="14" y="19" width="1" height="1" /><rect shape-rendering="crispEdges" fill="rgb(131, 131, 131)"  x="14" y="20" width="1" height="1" /><rect shape-rendering="crispEdges" fill="rgb(189, 189, 189)"  x="14" y="21" width="1" height="1" /><rect shape-rendering="crispEdges" fill="rgb(164, 164, 164)"  x="14" y="22" width="1" height="1" /><rect shape-rendering="crispEdges" fill="rgb(115, 115, 115)"  x="14" y="23" width="1" height="1" /><rect shape-rendering="crispEdges" fill="rgb(90, 90, 90)"  x="14" y="24" width="1" height="1" /><rect shape-rendering="crispEdges" fill="rgb(41, 41, 41)"  x="14" y="25" width="1" height="1" /><rect shape-rendering="crispEdges" fill="rgb(41, 41, 41)"  x="14" y="26" width="1" height="1" /><rect shape-rendering="crispEdges" fill="rgb(41, 41, 41)"  x="14" y="27" width="1" height="1" /><rect shape-rendering="crispEdges" fill="rgb(41, 41, 41)"  x="14" y="28" width="1" height="1" /><rect shape-rendering="crispEdges" fill="rgb(49, 49, 49)"  x="14" y="29" width="1" height="1" /><rect shape-rendering="crispEdges" fill="rgb(131, 82, 189)"  x="15" y="6" width="1" height="1" /><rect shape-rendering="crispEdges" fill="rgb(98, 74, 123)"  x="15" y="7" width="1" height="1" /><rect shape-rendering="crispEdges" fill="rgb(49, 49, 41)"  x="15" y="8" width="1" height="1" /><rect shape-rendering="crispEdges" fill="rgb(41, 41, 41)"  x="15" y="9" width="1" height="1" /><rect shape-rendering="crispEdges" fill="rgb(49, 57, 49)"  x="15" y="10" width="1" height="1" /><rect shape-rendering="crispEdges" fill="rgb(65, 65, 65)"  x="15" y="11" width="1" height="1" /><rect shape-rendering="crispEdges" fill="rgb(82, 82, 82)"  x="15" y="12" width="1" height="1" /><rect shape-rendering="crispEdges" fill="rgb(90, 90, 90)"  x="15" y="13" width="1" height="1" /><rect shape-rendering="crispEdges" fill="rgb(57, 57, 57)"  x="15" y="14" width="1" height="1" /><rect shape-rendering="crispEdges" fill="rgb(32, 32, 32)"  x="15" y="15" width="1" height="1" /><rect shape-rendering="crispEdges" fill="rgb(57, 57, 57)"  x="15" y="16" width="1" height="1" /><rect shape-rendering="crispEdges" fill="rgb(74, 74, 74)"  x="15" y="17" width="1" height="1" /><rect shape-rendering="crispEdges" fill="rgb(90, 90, 90)"  x="15" y="18" width="1" height="1" /><rect shape-rendering="crispEdges" fill="rgb(98, 98, 98)"  x="15" y="19" width="1" height="1" /><rect shape-rendering="crispEdges" fill="rgb(115, 115, 115)"  x="15" y="20" width="1" height="1" /><rect shape-rendering="crispEdges" fill="rgb(172, 172, 172)"  x="15" y="21" width="1" height="1" /><rect shape-rendering="crispEdges" fill="rgb(180, 180, 180)"  x="15" y="22" width="1" height="1" /><rect shape-rendering="crispEdges" fill="rgb(123, 123, 123)"  x="15" y="23" width="1" height="1" /><rect shape-rendering="crispEdges" fill="rgb(98, 98, 98)"  x="15" y="24" width="1" height="1" /><rect shape-rendering="crispEdges" fill="rgb(90, 90, 90)"  x="15" y="25" width="1" height="1" /><rect shape-rendering="crispEdges" fill="rgb(74, 74, 74)"  x="15" y="26" width="1" height="1" /><rect shape-rendering="crispEdges" fill="rgb(57, 57, 57)"  x="15" y="27" width="1" height="1" /><rect shape-rendering="crispEdges" fill="rgb(41, 41, 41)"  x="15" y="28" width="1" height="1" /><rect shape-rendering="crispEdges" fill="rgb(49, 49, 49)"  x="15" y="29" width="1" height="1" /><rect shape-rendering="crispEdges" fill="rgb(57, 57, 57)"  x="15" y="30" width="1" height="1" /><rect shape-rendering="crispEdges" fill="rgb(131, 82, 180)"  x="16" y="5" width="1" height="1" /><rect shape-rendering="crispEdges" fill="rgb(156, 106, 197)"  x="16" y="6" width="1" height="1" /><rect shape-rendering="crispEdges" fill="rgb(139, 90, 189)"  x="16" y="7" width="1" height="1" /><rect shape-rendering="crispEdges" fill="rgb(41, 41, 41)"  x="16" y="8" width="1" height="1" /><rect shape-rendering="crispEdges" fill="rgb(41, 41, 32)"  x="16" y="9" width="1" height="1" /><rect shape-rendering="crispEdges" fill="rgb(57, 57, 49)"  x="16" y="10" width="1" height="1" /><rect shape-rendering="crispEdges" fill="rgb(65, 65, 65)"  x="16" y="11" width="1" height="1" /><rect shape-rendering="crispEdges" fill="rgb(74, 82, 74)"  x="16" y="12" width="1" height="1" /><rect shape-rendering="crispEdges" fill="rgb(74, 74, 74)"  x="16" y="13" width="1" height="1" /><rect shape-rendering="crispEdges" fill="rgb(41, 41, 41)"  x="16" y="14" width="1" height="1" /><rect shape-rendering="crispEdges" fill="rgb(49, 49, 49)"  x="16" y="15" width="1" height="1" /><rect shape-rendering="crispEdges" fill="rgb(65, 57, 65)"  x="16" y="16" width="1" height="1" /><rect shape-rendering="crispEdges" fill="rgb(74, 74, 74)"  x="16" y="17" width="1" height="1" /><rect shape-rendering="crispEdges" fill="rgb(90, 90, 90)"  x="16" y="18" width="1" height="1" /><rect shape-rendering="crispEdges" fill="rgb(98, 98, 98)"  x="16" y="19" width="1" height="1" /><rect shape-rendering="crispEdges" fill="rgb(106, 106, 106)"  x="16" y="20" width="1" height="1" /><rect shape-rendering="crispEdges" fill="rgb(148, 148, 148)"  x="16" y="21" width="1" height="1" /><rect shape-rendering="crispEdges" fill="rgb(172, 172, 172)"  x="16" y="22" width="1" height="1" /><rect shape-rendering="crispEdges" fill="rgb(131, 131, 131)"  x="16" y="23" width="1" height="1" /><rect shape-rendering="crispEdges" fill="rgb(98, 98, 98)"  x="16" y="24" width="1" height="1" /><rect shape-rendering="crispEdges" fill="rgb(82, 82, 82)"  x="16" y="25" width="1" height="1" /><rect shape-rendering="crispEdges" fill="rgb(74, 74, 74)"  x="16" y="26" width="1" height="1" /><rect shape-rendering="crispEdges" fill="rgb(65, 65, 65)"  x="16" y="27" width="1" height="1" /><rect shape-rendering="crispEdges" fill="rgb(49, 49, 49)"  x="16" y="28" width="1" height="1" /><rect shape-rendering="crispEdges" fill="rgb(41, 41, 41)"  x="16" y="29" width="1" height="1" /><rect shape-rendering="crispEdges" fill="rgb(49, 49, 49)"  x="16" y="30" width="1" height="1" /><rect shape-rendering="crispEdges" fill="rgb(156, 106, 197)"  x="17" y="5" width="1" height="1" /><rect shape-rendering="crispEdges" fill="rgb(213, 139, 246)"  x="17" y="6" width="1" height="1" /><rect shape-rendering="crispEdges" fill="rgb(123, 74, 180)"  x="17" y="7" width="1" height="1" /><rect shape-rendering="crispEdges" fill="rgb(90, 65, 115)"  x="17" y="8" width="1" height="1" /><rect shape-rendering="crispEdges" fill="rgb(41, 41, 41)"  x="17" y="9" width="1" height="1" /><rect shape-rendering="crispEdges" fill="rgb(57, 57, 49)"  x="17" y="10" width="1" height="1" /><rect shape-rendering="crispEdges" fill="rgb(57, 57, 49)"  x="17" y="11" width="1" height="1" /><rect shape-rendering="crispEdges" fill="rgb(57, 57, 49)"  x="17" y="12" width="1" height="1" /><rect shape-rendering="crispEdges" fill="rgb(49, 49, 49)"  x="17" y="13" width="1" height="1" /><rect shape-rendering="crispEdges" fill="rgb(41, 49, 41)"  x="17" y="14" width="1" height="1" /><rect shape-rendering="crispEdges" fill="rgb(57, 65, 57)"  x="17" y="15" width="1" height="1" /><rect shape-rendering="crispEdges" fill="rgb(74, 74, 74)"  x="17" y="16" width="1" height="1" /><rect shape-rendering="crispEdges" fill="rgb(82, 82, 82)"  x="17" y="17" width="1" height="1" /><rect shape-rendering="crispEdges" fill="rgb(90, 90, 90)"  x="17" y="18" width="1" height="1" /><rect shape-rendering="crispEdges" fill="rgb(98, 98, 98)"  x="17" y="19" width="1" height="1" /><rect shape-rendering="crispEdges" fill="rgb(106, 98, 106)"  x="17" y="20" width="1" height="1" /><rect shape-rendering="crispEdges" fill="rgb(148, 148, 148)"  x="17" y="21" width="1" height="1" /><rect shape-rendering="crispEdges" fill="rgb(148, 148, 148)"  x="17" y="22" width="1" height="1" /><rect shape-rendering="crispEdges" fill="rgb(106, 106, 106)"  x="17" y="23" width="1" height="1" /><rect shape-rendering="crispEdges" fill="rgb(82, 82, 82)"  x="17" y="24" width="1" height="1" /><rect shape-rendering="crispEdges" fill="rgb(57, 57, 57)"  x="17" y="25" width="1" height="1" /><rect shape-rendering="crispEdges" fill="rgb(49, 49, 49)"  x="17" y="26" width="1" height="1" /><rect shape-rendering="crispEdges" fill="rgb(49, 49, 49)"  x="17" y="27" width="1" height="1" /><rect shape-rendering="crispEdges" fill="rgb(49, 49, 49)"  x="17" y="28" width="1" height="1" /><rect shape-rendering="crispEdges" fill="rgb(41, 41, 41)"  x="17" y="29" width="1" height="1" /><rect shape-rendering="crispEdges" fill="rgb(41, 41, 41)"  x="17" y="30" width="1" height="1" /><rect shape-rendering="crispEdges" fill="rgb(189, 139, 205)"  x="18" y="5" width="1" height="1" /><rect shape-rendering="crispEdges" fill="rgb(246, 180, 255)"  x="18" y="6" width="1" height="1" /><rect shape-rendering="crispEdges" fill="rgb(148, 90, 197)"  x="18" y="7" width="1" height="1" /><rect shape-rendering="crispEdges" fill="rgb(90, 57, 123)"  x="18" y="8" width="1" height="1" /><rect shape-rendering="crispEdges" fill="rgb(98, 82, 106)"  x="18" y="9" width="1" height="1" /><rect shape-rendering="crispEdges" fill="rgb(197, 148, 222)"  x="18" y="10" width="1" height="1" /><rect shape-rendering="crispEdges" fill="rgb(156, 98, 213)"  x="18" y="11" width="1" height="1" /><rect shape-rendering="crispEdges" fill="rgb(106, 74, 148)"  x="18" y="12" width="1" height="1" /><rect shape-rendering="crispEdges" fill="rgb(49, 49, 49)"  x="18" y="13" width="1" height="1" /><rect shape-rendering="crispEdges" fill="rgb(49, 49, 49)"  x="18" y="14" width="1" height="1" /><rect shape-rendering="crispEdges" fill="rgb(65, 65, 65)"  x="18" y="15" width="1" height="1" /><rect shape-rendering="crispEdges" fill="rgb(82, 82, 82)"  x="18" y="16" width="1" height="1" /><rect shape-rendering="crispEdges" fill="rgb(90, 90, 90)"  x="18" y="17" width="1" height="1" /><rect shape-rendering="crispEdges" fill="rgb(98, 98, 98)"  x="18" y="18" width="1" height="1" /><rect shape-rendering="crispEdges" fill="rgb(98, 98, 98)"  x="18" y="19" width="1" height="1" /><rect shape-rendering="crispEdges" fill="rgb(106, 106, 106)"  x="18" y="20" width="1" height="1" /><rect shape-rendering="crispEdges" fill="rgb(131, 131, 131)"  x="18" y="21" width="1" height="1" /><rect shape-rendering="crispEdges" fill="rgb(98, 98, 98)"  x="18" y="22" width="1" height="1" /><rect shape-rendering="crispEdges" fill="rgb(65, 65, 65)"  x="18" y="23" width="1" height="1" /><rect shape-rendering="crispEdges" fill="rgb(49, 49, 49)"  x="18" y="24" width="1" height="1" /><rect shape-rendering="crispEdges" fill="rgb(49, 49, 49)"  x="18" y="25" width="1" height="1" /><rect shape-rendering="crispEdges" fill="rgb(49, 41, 49)"  x="18" y="26" width="1" height="1" /><rect shape-rendering="crispEdges" fill="rgb(49, 41, 49)"  x="18" y="27" width="1" height="1" /><rect shape-rendering="crispEdges" fill="rgb(49, 41, 49)"  x="18" y="28" width="1" height="1" /><rect shape-rendering="crispEdges" fill="rgb(49, 49, 49)"  x="18" y="29" width="1" height="1" /><rect shape-rendering="crispEdges" fill="rgb(189, 131, 222)"  x="19" y="5" width="1" height="1" /><rect shape-rendering="crispEdges" fill="rgb(255, 222, 255)"  x="19" y="6" width="1" height="1" /><rect shape-rendering="crispEdges" fill="rgb(213, 139, 246)"  x="19" y="7" width="1" height="1" /><rect shape-rendering="crispEdges" fill="rgb(98, 65, 156)"  x="19" y="8" width="1" height="1" /><rect shape-rendering="crispEdges" fill="rgb(156, 123, 172)"  x="19" y="9" width="1" height="1" /><rect shape-rendering="crispEdges" fill="rgb(255, 180, 255)"  x="19" y="10" width="1" height="1" /><rect shape-rendering="crispEdges" fill="rgb(148, 90, 205)"  x="19" y="11" width="1" height="1" /><rect shape-rendering="crispEdges" fill="rgb(90, 65, 131)"  x="19" y="12" width="1" height="1" /><rect shape-rendering="crispEdges" fill="rgb(49, 41, 41)"  x="19" y="13" width="1" height="1" /><rect shape-rendering="crispEdges" fill="rgb(49, 49, 49)"  x="19" y="14" width="1" height="1" /><rect shape-rendering="crispEdges" fill="rgb(65, 65, 65)"  x="19" y="15" width="1" height="1" /><rect shape-rendering="crispEdges" fill="rgb(82, 82, 82)"  x="19" y="16" width="1" height="1" /><rect shape-rendering="crispEdges" fill="rgb(90, 90, 90)"  x="19" y="17" width="1" height="1" /><rect shape-rendering="crispEdges" fill="rgb(98, 98, 98)"  x="19" y="18" width="1" height="1" /><rect shape-rendering="crispEdges" fill="rgb(106, 106, 106)"  x="19" y="19" width="1" height="1" /><rect shape-rendering="crispEdges" fill="rgb(115, 115, 115)"  x="19" y="20" width="1" height="1" /><rect shape-rendering="crispEdges" fill="rgb(90, 90, 90)"  x="19" y="21" width="1" height="1" /><rect shape-rendering="crispEdges" fill="rgb(57, 65, 57)"  x="19" y="22" width="1" height="1" /><rect shape-rendering="crispEdges" fill="rgb(49, 49, 49)"  x="19" y="23" width="1" height="1" /><rect shape-rendering="crispEdges" fill="rgb(49, 49, 49)"  x="19" y="24" width="1" height="1" /><rect shape-rendering="crispEdges" fill="rgb(49, 49, 49)"  x="19" y="25" width="1" height="1" /><rect shape-rendering="crispEdges" fill="rgb(41, 41, 41)"  x="19" y="26" width="1" height="1" /><rect shape-rendering="crispEdges" fill="rgb(41, 41, 41)"  x="19" y="27" width="1" height="1" /><rect shape-rendering="crispEdges" fill="rgb(49, 49, 49)"  x="19" y="28" width="1" height="1" /><rect shape-rendering="crispEdges" fill="rgb(164, 106, 197)"  x="20" y="5" width="1" height="1" /><rect shape-rendering="crispEdges" fill="rgb(255, 222, 255)"  x="20" y="6" width="1" height="1" /><rect shape-rendering="crispEdges" fill="rgb(255, 205, 255)"  x="20" y="7" width="1" height="1" /><rect shape-rendering="crispEdges" fill="rgb(180, 115, 213)"  x="20" y="8" width="1" height="1" /><rect shape-rendering="crispEdges" fill="rgb(164, 131, 197)"  x="20" y="9" width="1" height="1" /><rect shape-rendering="crispEdges" fill="rgb(255, 213, 255)"  x="20" y="10" width="1" height="1" /><rect shape-rendering="crispEdges" fill="rgb(197, 123, 238)"  x="20" y="11" width="1" height="1" /><rect shape-rendering="crispEdges" fill="rgb(90, 65, 131)"  x="20" y="12" width="1" height="1" /><rect shape-rendering="crispEdges" fill="rgb(41, 41, 41)"  x="20" y="13" width="1" height="1" /><rect shape-rendering="crispEdges" fill="rgb(49, 49, 49)"  x="20" y="14" width="1" height="1" /><rect shape-rendering="crispEdges" fill="rgb(65, 65, 65)"  x="20" y="15" width="1" height="1" /><rect shape-rendering="crispEdges" fill="rgb(82, 82, 82)"  x="20" y="16" width="1" height="1" /><rect shape-rendering="crispEdges" fill="rgb(90, 90, 90)"  x="20" y="17" width="1" height="1" /><rect shape-rendering="crispEdges" fill="rgb(90, 90, 90)"  x="20" y="18" width="1" height="1" /><rect shape-rendering="crispEdges" fill="rgb(115, 115, 115)"  x="20" y="19" width="1" height="1" /><rect shape-rendering="crispEdges" fill="rgb(115, 123, 115)"  x="20" y="20" width="1" height="1" /><rect shape-rendering="crispEdges" fill="rgb(82, 82, 82)"  x="20" y="21" width="1" height="1" /><rect shape-rendering="crispEdges" fill="rgb(65, 65, 65)"  x="20" y="22" width="1" height="1" /><rect shape-rendering="crispEdges" fill="rgb(65, 65, 65)"  x="20" y="23" width="1" height="1" /><rect shape-rendering="crispEdges" fill="rgb(57, 57, 57)"  x="20" y="24" width="1" height="1" /><rect shape-rendering="crispEdges" fill="rgb(57, 57, 57)"  x="20" y="25" width="1" height="1" /><rect shape-rendering="crispEdges" fill="rgb(49, 49, 49)"  x="20" y="26" width="1" height="1" /><rect shape-rendering="crispEdges" fill="rgb(49, 49, 49)"  x="20" y="27" width="1" height="1" /><rect shape-rendering="crispEdges" fill="rgb(57, 65, 57)"  x="20" y="28" width="1" height="1" /><rect shape-rendering="crispEdges" fill="rgb(131, 82, 180)"  x="21" y="5" width="1" height="1" /><rect shape-rendering="crispEdges" fill="rgb(222, 164, 230)"  x="21" y="6" width="1" height="1" /><rect shape-rendering="crispEdges" fill="rgb(255, 246, 255)"  x="21" y="7" width="1" height="1" /><rect shape-rendering="crispEdges" fill="rgb(213, 172, 213)"  x="21" y="8" width="1" height="1" /><rect shape-rendering="crispEdges" fill="rgb(180, 123, 205)"  x="21" y="9" width="1" height="1" /><rect shape-rendering="crispEdges" fill="rgb(255, 230, 255)"  x="21" y="10" width="1" height="1" /><rect shape-rendering="crispEdges" fill="rgb(238, 164, 255)"  x="21" y="11" width="1" height="1" /><rect shape-rendering="crispEdges" fill="rgb(131, 82, 180)"  x="21" y="12" width="1" height="1" /><rect shape-rendering="crispEdges" fill="rgb(49, 41, 57)"  x="21" y="13" width="1" height="1" /><rect shape-rendering="crispEdges" fill="rgb(49, 49, 41)"  x="21" y="14" width="1" height="1" /><rect shape-rendering="crispEdges" fill="rgb(57, 57, 65)"  x="21" y="15" width="1" height="1" /><rect shape-rendering="crispEdges" fill="rgb(74, 74, 74)"  x="21" y="16" width="1" height="1" /><rect shape-rendering="crispEdges" fill="rgb(82, 82, 82)"  x="21" y="17" width="1" height="1" /><rect shape-rendering="crispEdges" fill="rgb(90, 90, 90)"  x="21" y="18" width="1" height="1" /><rect shape-rendering="crispEdges" fill="rgb(115, 123, 115)"  x="21" y="19" width="1" height="1" /><rect shape-rendering="crispEdges" fill="rgb(115, 115, 115)"  x="21" y="20" width="1" height="1" /><rect shape-rendering="crispEdges" fill="rgb(90, 90, 90)"  x="21" y="21" width="1" height="1" /><rect shape-rendering="crispEdges" fill="rgb(82, 74, 82)"  x="21" y="22" width="1" height="1" /><rect shape-rendering="crispEdges" fill="rgb(74, 74, 74)"  x="21" y="23" width="1" height="1" /><rect shape-rendering="crispEdges" fill="rgb(74, 74, 74)"  x="21" y="24" width="1" height="1" /><rect shape-rendering="crispEdges" fill="rgb(57, 57, 57)"  x="21" y="25" width="1" height="1" /><rect shape-rendering="crispEdges" fill="rgb(49, 49, 49)"  x="21" y="26" width="1" height="1" /><rect shape-rendering="crispEdges" fill="rgb(57, 57, 57)"  x="21" y="27" width="1" height="1" /><rect shape-rendering="crispEdges" fill="rgb(123, 74, 180)"  x="22" y="5" width="1" height="1" /><rect shape-rendering="crispEdges" fill="rgb(148, 90, 197)"  x="22" y="6" width="1" height="1" /><rect shape-rendering="crispEdges" fill="rgb(246, 197, 246)"  x="22" y="7" width="1" height="1" /><rect shape-rendering="crispEdges" fill="rgb(238, 230, 246)"  x="22" y="8" width="1" height="1" /><rect shape-rendering="crispEdges" fill="rgb(156, 106, 189)"  x="22" y="9" width="1" height="1" /><rect shape-rendering="crispEdges" fill="rgb(255, 213, 255)"  x="22" y="10" width="1" height="1" /><rect shape-rendering="crispEdges" fill="rgb(255, 222, 255)"  x="22" y="11" width="1" height="1" /><rect shape-rendering="crispEdges" fill="rgb(213, 131, 246)"  x="22" y="12" width="1" height="1" /><rect shape-rendering="crispEdges" fill="rgb(90, 65, 139)"  x="22" y="13" width="1" height="1" /><rect shape-rendering="crispEdges" fill="rgb(49, 49, 49)"  x="22" y="14" width="1" height="1" /><rect shape-rendering="crispEdges" fill="rgb(57, 57, 57)"  x="22" y="15" width="1" height="1" /><rect shape-rendering="crispEdges" fill="rgb(74, 74, 74)"  x="22" y="16" width="1" height="1" /><rect shape-rendering="crispEdges" fill="rgb(82, 82, 82)"  x="22" y="17" width="1" height="1" /><rect shape-rendering="crispEdges" fill="rgb(90, 90, 90)"  x="22" y="18" width="1" height="1" /><rect shape-rendering="crispEdges" fill="rgb(106, 106, 106)"  x="22" y="19" width="1" height="1" /><rect shape-rendering="crispEdges" fill="rgb(106, 98, 106)"  x="22" y="20" width="1" height="1" /><rect shape-rendering="crispEdges" fill="rgb(90, 90, 90)"  x="22" y="21" width="1" height="1" /><rect shape-rendering="crispEdges" fill="rgb(90, 90, 90)"  x="22" y="22" width="1" height="1" /><rect shape-rendering="crispEdges" fill="rgb(82, 82, 82)"  x="22" y="23" width="1" height="1" /><rect shape-rendering="crispEdges" fill="rgb(57, 57, 57)"  x="22" y="24" width="1" height="1" /><rect shape-rendering="crispEdges" fill="rgb(41, 41, 41)"  x="22" y="25" width="1" height="1" /><rect shape-rendering="crispEdges" fill="rgb(49, 49, 49)"  x="22" y="26" width="1" height="1" /><rect shape-rendering="crispEdges" fill="rgb(123, 74, 180)"  x="23" y="6" width="1" height="1" /><rect shape-rendering="crispEdges" fill="rgb(156, 98, 197)"  x="23" y="7" width="1" height="1" /><rect shape-rendering="crispEdges" fill="rgb(238, 189, 246)"  x="23" y="8" width="1" height="1" /><rect shape-rendering="crispEdges" fill="rgb(164, 123, 197)"  x="23" y="9" width="1" height="1" /><rect shape-rendering="crispEdges" fill="rgb(197, 139, 222)"  x="23" y="10" width="1" height="1" /><rect shape-rendering="crispEdges" fill="rgb(255, 246, 255)"  x="23" y="11" width="1" height="1" /><rect shape-rendering="crispEdges" fill="rgb(255, 197, 255)"  x="23" y="12" width="1" height="1" /><rect shape-rendering="crispEdges" fill="rgb(172, 106, 222)"  x="23" y="13" width="1" height="1" /><rect shape-rendering="crispEdges" fill="rgb(74, 57, 115)"  x="23" y="14" width="1" height="1" /><rect shape-rendering="crispEdges" fill="rgb(49, 57, 57)"  x="23" y="15" width="1" height="1" /><rect shape-rendering="crispEdges" fill="rgb(65, 65, 65)"  x="23" y="16" width="1" height="1" /><rect shape-rendering="crispEdges" fill="rgb(82, 82, 82)"  x="23" y="17" width="1" height="1" /><rect shape-rendering="crispEdges" fill="rgb(90, 90, 90)"  x="23" y="18" width="1" height="1" /><rect shape-rendering="crispEdges" fill="rgb(98, 98, 98)"  x="23" y="19" width="1" height="1" /><rect shape-rendering="crispEdges" fill="rgb(98, 98, 98)"  x="23" y="20" width="1" height="1" /><rect shape-rendering="crispEdges" fill="rgb(98, 98, 98)"  x="23" y="21" width="1" height="1" /><rect shape-rendering="crispEdges" fill="rgb(82, 82, 82)"  x="23" y="22" width="1" height="1" /><rect shape-rendering="crispEdges" fill="rgb(49, 49, 49)"  x="23" y="23" width="1" height="1" /><rect shape-rendering="crispEdges" fill="rgb(32, 41, 32)"  x="23" y="24" width="1" height="1" /><rect shape-rendering="crispEdges" fill="rgb(41, 41, 41)"  x="23" y="25" width="1" height="1" /><rect shape-rendering="crispEdges" fill="rgb(123, 74, 180)"  x="24" y="7" width="1" height="1" /><rect shape-rendering="crispEdges" fill="rgb(148, 90, 197)"  x="24" y="8" width="1" height="1" /><rect shape-rendering="crispEdges" fill="rgb(205, 148, 222)"  x="24" y="9" width="1" height="1" /><rect shape-rendering="crispEdges" fill="rgb(148, 98, 189)"  x="24" y="10" width="1" height="1" /><rect shape-rendering="crispEdges" fill="rgb(238, 189, 246)"  x="24" y="11" width="1" height="1" /><rect shape-rendering="crispEdges" fill="rgb(255, 246, 255)"  x="24" y="12" width="1" height="1" /><rect shape-rendering="crispEdges" fill="rgb(246, 180, 255)"  x="24" y="13" width="1" height="1" /><rect shape-rendering="crispEdges" fill="rgb(172, 106, 222)"  x="24" y="14" width="1" height="1" /><rect shape-rendering="crispEdges" fill="rgb(74, 57, 115)"  x="24" y="15" width="1" height="1" /><rect shape-rendering="crispEdges" fill="rgb(57, 57, 65)"  x="24" y="16" width="1" height="1" /><rect shape-rendering="crispEdges" fill="rgb(65, 65, 65)"  x="24" y="17" width="1" height="1" /><rect shape-rendering="crispEdges" fill="rgb(74, 74, 74)"  x="24" y="18" width="1" height="1" /><rect shape-rendering="crispEdges" fill="rgb(74, 74, 74)"  x="24" y="19" width="1" height="1" /><rect shape-rendering="crispEdges" fill="rgb(82, 82, 74)"  x="24" y="20" width="1" height="1" /><rect shape-rendering="crispEdges" fill="rgb(74, 74, 74)"  x="24" y="21" width="1" height="1" /><rect shape-rendering="crispEdges" fill="rgb(65, 65, 65)"  x="24" y="22" width="1" height="1" /><rect shape-rendering="crispEdges" fill="rgb(49, 49, 49)"  x="24" y="23" width="1" height="1" /><rect shape-rendering="crispEdges" fill="rgb(49, 49, 49)"  x="24" y="24" width="1" height="1" /><rect shape-rendering="crispEdges" fill="rgb(123, 74, 180)"  x="25" y="8" width="1" height="1" /><rect shape-rendering="crispEdges" fill="rgb(131, 82, 180)"  x="25" y="9" width="1" height="1" /><rect shape-rendering="crispEdges" fill="rgb(131, 82, 180)"  x="25" y="10" width="1" height="1" /><rect shape-rendering="crispEdges" fill="rgb(164, 106, 205)"  x="25" y="11" width="1" height="1" /><rect shape-rendering="crispEdges" fill="rgb(246, 205, 255)"  x="25" y="12" width="1" height="1" /><rect shape-rendering="crispEdges" fill="rgb(255, 238, 255)"  x="25" y="13" width="1" height="1" /><rect shape-rendering="crispEdges" fill="rgb(246, 172, 255)"  x="25" y="14" width="1" height="1" /><rect shape-rendering="crispEdges" fill="rgb(172, 106, 222)"  x="25" y="15" width="1" height="1" /><rect shape-rendering="crispEdges" fill="rgb(106, 65, 156)"  x="25" y="16" width="1" height="1" /><rect shape-rendering="crispEdges" fill="rgb(65, 57, 90)"  x="25" y="17" width="1" height="1" /><rect shape-rendering="crispEdges" fill="rgb(65, 65, 65)"  x="25" y="18" width="1" height="1" /><rect shape-rendering="crispEdges" fill="rgb(65, 65, 57)"  x="25" y="19" width="1" height="1" /><rect shape-rendering="crispEdges" fill="rgb(65, 65, 57)"  x="25" y="20" width="1" height="1" /><rect shape-rendering="crispEdges" fill="rgb(65, 65, 65)"  x="25" y="21" width="1" height="1" /><rect shape-rendering="crispEdges" fill="rgb(65, 65, 65)"  x="25" y="22" width="1" height="1" /><rect shape-rendering="crispEdges" fill="rgb(57, 57, 57)"  x="25" y="23" width="1" height="1" /><rect shape-rendering="crispEdges" fill="rgb(123, 74, 180)"  x="26" y="11" width="1" height="1" /><rect shape-rendering="crispEdges" fill="rgb(164, 106, 205)"  x="26" y="12" width="1" height="1" /><rect shape-rendering="crispEdges" fill="rgb(238, 197, 246)"  x="26" y="13" width="1" height="1" /><rect shape-rendering="crispEdges" fill="rgb(255, 230, 255)"  x="26" y="14" width="1" height="1" /><rect shape-rendering="crispEdges" fill="rgb(255, 189, 255)"  x="26" y="15" width="1" height="1" /><rect shape-rendering="crispEdges" fill="rgb(213, 131, 246)"  x="26" y="16" width="1" height="1" /><rect shape-rendering="crispEdges" fill="rgb(106, 65, 156)"  x="26" y="17" width="1" height="1" /><rect shape-rendering="crispEdges" fill="rgb(90, 57, 131)"  x="26" y="18" width="1" height="1" /><rect shape-rendering="crispEdges" fill="rgb(131, 82, 189)"  x="27" y="12" width="1" height="1" /><rect shape-rendering="crispEdges" fill="rgb(131, 82, 189)"  x="27" y="13" width="1" height="1" /><rect shape-rendering="crispEdges" fill="rgb(189, 139, 222)"  x="27" y="14" width="1" height="1" /><rect shape-rendering="crispEdges" fill="rgb(205, 156, 230)"  x="27" y="15" width="1" height="1" /><rect shape-rendering="crispEdges" fill="rgb(180, 123, 222)"  x="27" y="16" width="1" height="1" /><rect shape-rendering="crispEdges" fill="rgb(139, 90, 197)"  x="27" y="17" width="1" height="1" /><rect shape-rendering="crispEdges" fill="rgb(131, 82, 189)"  x="28" y="13" width="1" height="1" /><rect shape-rendering="crispEdges" fill="rgb(131, 82, 189)"  x="28" y="14" width="1" height="1" /><rect shape-rendering="crispEdges" fill="rgb(131, 82, 189)"  x="28" y="15" width="1" height="1" /><rect shape-rendering="crispEdges" fill="rgb(131, 82, 189)"  x="28" y="16" width="1" height="1" /></svg>