<svg xmlns="http://www.w3.org/2000/svg" xmlns:xlink= "http://www.w3.org/1999/xlink" width="32" height="32" viewBox ="0 0 32 32"><rect shape-rendering="crispEdges" fill="rgb(49, 106, 90)"  x="2" y="14" width="1" height="1" /><rect shape-rendering="crispEdges" fill="rgb(49, 115, 90)"  x="2" y="15" width="1" height="1" /><rect shape-rendering="crispEdges" fill="rgb(57, 98, 82)"  x="2" y="16" width="1" height="1" /><rect shape-rendering="crispEdges" fill="rgb(49, 106, 90)"  x="2" y="17" width="1" height="1" /><rect shape-rendering="crispEdges" fill="rgb(49, 98, 82)"  x="2" y="18" width="1" height="1" /><rect shape-rendering="crispEdges" fill="rgb(41, 98, 82)"  x="2" y="19" width="1" height="1" /><rect shape-rendering="crispEdges" fill="rgb(41, 98, 82)"  x="2" y="20" width="1" height="1" /><rect shape-rendering="crispEdges" fill="rgb(41, 90, 74)"  x="3" y="12" width="1" height="1" /><rect shape-rendering="crispEdges" fill="rgb(49, 115, 90)"  x="3" y="13" width="1" height="1" /><rect shape-rendering="crispEdges" fill="rgb(57, 123, 98)"  x="3" y="14" width="1" height="1" /><rect shape-rendering="crispEdges" fill="rgb(57, 131, 106)"  x="3" y="15" width="1" height="1" /><rect shape-rendering="crispEdges" fill="rgb(57, 139, 106)"  x="3" y="16" width="1" height="1" /><rect shape-rendering="crispEdges" fill="rgb(57, 131, 106)"  x="3" y="17" width="1" height="1" /><rect shape-rendering="crispEdges" fill="rgb(57, 139, 115)"  x="3" y="18" width="1" height="1" /><rect shape-rendering="crispEdges" fill="rgb(65, 148, 115)"  x="3" y="19" width="1" height="1" /><rect shape-rendering="crispEdges" fill="rgb(57, 131, 106)"  x="3" y="20" width="1" height="1" /><rect shape-rendering="crispEdges" fill="rgb(41, 106, 82)"  x="3" y="21" width="1" height="1" /><rect shape-rendering="crispEdges" fill="rgb(41, 98, 82)"  x="3" y="22" width="1" height="1" /><rect shape-rendering="crispEdges" fill="rgb(41, 98, 82)"  x="3" y="23" width="1" height="1" /><rect shape-rendering="crispEdges" fill="rgb(49, 90, 74)"  x="4" y="11" width="1" height="1" /><rect shape-rendering="crispEdges" fill="rgb(57, 139, 106)"  x="4" y="12" width="1" height="1" /><rect shape-rendering="crispEdges" fill="rgb(57, 123, 106)"  x="4" y="13" width="1" height="1" /><rect shape-rendering="crispEdges" fill="rgb(49, 115, 98)"  x="4" y="14" width="1" height="1" /><rect shape-rendering="crispEdges" fill="rgb(57, 123, 90)"  x="4" y="15" width="1" height="1" /><rect shape-rendering="crispEdges" fill="rgb(57, 123, 98)"  x="4" y="16" width="1" height="1" /><rect shape-rendering="crispEdges" fill="rgb(57, 123, 98)"  x="4" y="17" width="1" height="1" /><rect shape-rendering="crispEdges" fill="rgb(57, 131, 106)"  x="4" y="18" width="1" height="1" /><rect shape-rendering="crispEdges" fill="rgb(57, 139, 106)"  x="4" y="19" width="1" height="1" /><rect shape-rendering="crispEdges" fill="rgb(57, 139, 106)"  x="4" y="20" width="1" height="1" /><rect shape-rendering="crispEdges" fill="rgb(57, 139, 106)"  x="4" y="21" width="1" height="1" /><rect shape-rendering="crispEdges" fill="rgb(65, 148, 123)"  x="4" y="22" width="1" height="1" /><rect shape-rendering="crispEdges" fill="rgb(49, 115, 90)"  x="4" y="23" width="1" height="1" /><rect shape-rendering="crispEdges" fill="rgb(41, 90, 74)"  x="4" y="24" width="1" height="1" /><rect shape-rendering="crispEdges" fill="rgb(41, 90, 74)"  x="5" y="10" width="1" height="1" /><rect shape-rendering="crispEdges" fill="rgb(49, 123, 98)"  x="5" y="11" width="1" height="1" /><rect shape-rendering="crispEdges" fill="rgb(49, 115, 90)"  x="5" y="12" width="1" height="1" /><rect shape-rendering="crispEdges" fill="rgb(49, 115, 98)"  x="5" y="13" width="1" height="1" /><rect shape-rendering="crispEdges" fill="rgb(49, 106, 90)"  x="5" y="14" width="1" height="1" /><rect shape-rendering="crispEdges" fill="rgb(41, 106, 82)"  x="5" y="15" width="1" height="1" /><rect shape-rendering="crispEdges" fill="rgb(49, 115, 90)"  x="5" y="16" width="1" height="1" /><rect shape-rendering="crispEdges" fill="rgb(41, 106, 82)"  x="5" y="17" width="1" height="1" /><rect shape-rendering="crispEdges" fill="rgb(41, 98, 82)"  x="5" y="18" width="1" height="1" /><rect shape-rendering="crispEdges" fill="rgb(57, 131, 106)"  x="5" y="19" width="1" height="1" /><rect shape-rendering="crispEdges" fill="rgb(57, 139, 115)"  x="5" y="20" width="1" height="1" /><rect shape-rendering="crispEdges" fill="rgb(57, 131, 106)"  x="5" y="21" width="1" height="1" /><rect shape-rendering="crispEdges" fill="rgb(57, 131, 106)"  x="5" y="22" width="1" height="1" /><rect shape-rendering="crispEdges" fill="rgb(65, 148, 123)"  x="5" y="23" width="1" height="1" /><rect shape-rendering="crispEdges" fill="rgb(49, 123, 98)"  x="5" y="24" width="1" height="1" /><rect shape-rendering="crispEdges" fill="rgb(49, 98, 74)"  x="5" y="25" width="1" height="1" /><rect shape-rendering="crispEdges" fill="rgb(57, 115, 98)"  x="6" y="9" width="1" height="1" /><rect shape-rendering="crispEdges" fill="rgb(65, 148, 115)"  x="6" y="10" width="1" height="1" /><rect shape-rendering="crispEdges" fill="rgb(49, 123, 98)"  x="6" y="11" width="1" height="1" /><rect shape-rendering="crispEdges" fill="rgb(57, 139, 106)"  x="6" y="12" width="1" height="1" /><rect shape-rendering="crispEdges" fill="rgb(57, 139, 106)"  x="6" y="13" width="1" height="1" /><rect shape-rendering="crispEdges" fill="rgb(57, 131, 106)"  x="6" y="14" width="1" height="1" /><rect shape-rendering="crispEdges" fill="rgb(49, 123, 98)"  x="6" y="15" width="1" height="1" /><rect shape-rendering="crispEdges" fill="rgb(41, 106, 82)"  x="6" y="16" width="1" height="1" /><rect shape-rendering="crispEdges" fill="rgb(41, 106, 82)"  x="6" y="17" width="1" height="1" /><rect shape-rendering="crispEdges" fill="rgb(49, 115, 90)"  x="6" y="18" width="1" height="1" /><rect shape-rendering="crispEdges" fill="rgb(57, 139, 106)"  x="6" y="19" width="1" height="1" /><rect shape-rendering="crispEdges" fill="rgb(57, 139, 106)"  x="6" y="20" width="1" height="1" /><rect shape-rendering="crispEdges" fill="rgb(57, 131, 106)"  x="6" y="21" width="1" height="1" /><rect shape-rendering="crispEdges" fill="rgb(57, 123, 98)"  x="6" y="22" width="1" height="1" /><rect shape-rendering="crispEdges" fill="rgb(65, 139, 115)"  x="6" y="23" width="1" height="1" /><rect shape-rendering="crispEdges" fill="rgb(65, 148, 115)"  x="6" y="24" width="1" height="1" /><rect shape-rendering="crispEdges" fill="rgb(57, 131, 106)"  x="6" y="25" width="1" height="1" /><rect shape-rendering="crispEdges" fill="rgb(49, 98, 82)"  x="6" y="26" width="1" height="1" /><rect shape-rendering="crispEdges" fill="rgb(57, 123, 98)"  x="7" y="8" width="1" height="1" /><rect shape-rendering="crispEdges" fill="rgb(65, 156, 123)"  x="7" y="9" width="1" height="1" /><rect shape-rendering="crispEdges" fill="rgb(65, 148, 115)"  x="7" y="10" width="1" height="1" /><rect shape-rendering="crispEdges" fill="rgb(57, 139, 115)"  x="7" y="11" width="1" height="1" /><rect shape-rendering="crispEdges" fill="rgb(57, 139, 106)"  x="7" y="12" width="1" height="1" /><rect shape-rendering="crispEdges" fill="rgb(57, 131, 106)"  x="7" y="13" width="1" height="1" /><rect shape-rendering="crispEdges" fill="rgb(57, 139, 106)"  x="7" y="14" width="1" height="1" /><rect shape-rendering="crispEdges" fill="rgb(57, 123, 98)"  x="7" y="15" width="1" height="1" /><rect shape-rendering="crispEdges" fill="rgb(41, 98, 82)"  x="7" y="16" width="1" height="1" /><rect shape-rendering="crispEdges" fill="rgb(41, 106, 82)"  x="7" y="17" width="1" height="1" /><rect shape-rendering="crispEdges" fill="rgb(57, 139, 106)"  x="7" y="18" width="1" height="1" /><rect shape-rendering="crispEdges" fill="rgb(57, 139, 106)"  x="7" y="19" width="1" height="1" /><rect shape-rendering="crispEdges" fill="rgb(57, 139, 115)"  x="7" y="20" width="1" height="1" /><rect shape-rendering="crispEdges" fill="rgb(49, 115, 98)"  x="7" y="21" width="1" height="1" /><rect shape-rendering="crispEdges" fill="rgb(57, 131, 106)"  x="7" y="22" width="1" height="1" /><rect shape-rendering="crispEdges" fill="rgb(65, 139, 115)"  x="7" y="23" width="1" height="1" /><rect shape-rendering="crispEdges" fill="rgb(57, 123, 98)"  x="7" y="24" width="1" height="1" /><rect shape-rendering="crispEdges" fill="rgb(65, 148, 115)"  x="7" y="25" width="1" height="1" /><rect shape-rendering="crispEdges" fill="rgb(57, 131, 106)"  x="7" y="26" width="1" height="1" /><rect shape-rendering="crispEdges" fill="rgb(49, 98, 82)"  x="8" y="7" width="1" height="1" /><rect shape-rendering="crispEdges" fill="rgb(65, 156, 123)"  x="8" y="8" width="1" height="1" /><rect shape-rendering="crispEdges" fill="rgb(65, 139, 115)"  x="8" y="9" width="1" height="1" /><rect shape-rendering="crispEdges" fill="rgb(57, 139, 106)"  x="8" y="10" width="1" height="1" /><rect shape-rendering="crispEdges" fill="rgb(57, 139, 106)"  x="8" y="11" width="1" height="1" /><rect shape-rendering="crispEdges" fill="rgb(57, 131, 106)"  x="8" y="12" width="1" height="1" /><rect shape-rendering="crispEdges" fill="rgb(57, 131, 106)"  x="8" y="13" width="1" height="1" /><rect shape-rendering="crispEdges" fill="rgb(57, 131, 106)"  x="8" y="14" width="1" height="1" /><rect shape-rendering="crispEdges" fill="rgb(49, 106, 90)"  x="8" y="15" width="1" height="1" /><rect shape-rendering="crispEdges" fill="rgb(41, 90, 74)"  x="8" y="16" width="1" height="1" /><rect shape-rendering="crispEdges" fill="rgb(41, 106, 82)"  x="8" y="17" width="1" height="1" /><rect shape-rendering="crispEdges" fill="rgb(57, 131, 106)"  x="8" y="18" width="1" height="1" /><rect shape-rendering="crispEdges" fill="rgb(57, 139, 106)"  x="8" y="19" width="1" height="1" /><rect shape-rendering="crispEdges" fill="rgb(57, 123, 98)"  x="8" y="20" width="1" height="1" /><rect shape-rendering="crispEdges" fill="rgb(49, 123, 98)"  x="8" y="21" width="1" height="1" /><rect shape-rendering="crispEdges" fill="rgb(65, 148, 123)"  x="8" y="22" width="1" height="1" /><rect shape-rendering="crispEdges" fill="rgb(49, 115, 98)"  x="8" y="23" width="1" height="1" /><rect shape-rendering="crispEdges" fill="rgb(57, 131, 98)"  x="8" y="24" width="1" height="1" /><rect shape-rendering="crispEdges" fill="rgb(65, 148, 123)"  x="8" y="25" width="1" height="1" /><rect shape-rendering="crispEdges" fill="rgb(57, 139, 106)"  x="8" y="26" width="1" height="1" /><rect shape-rendering="crispEdges" fill="rgb(57, 115, 90)"  x="8" y="27" width="1" height="1" /><rect shape-rendering="crispEdges" fill="rgb(65, 139, 115)"  x="9" y="7" width="1" height="1" /><rect shape-rendering="crispEdges" fill="rgb(57, 139, 115)"  x="9" y="8" width="1" height="1" /><rect shape-rendering="crispEdges" fill="rgb(57, 131, 106)"  x="9" y="9" width="1" height="1" /><rect shape-rendering="crispEdges" fill="rgb(57, 131, 106)"  x="9" y="10" width="1" height="1" /><rect shape-rendering="crispEdges" fill="rgb(57, 123, 98)"  x="9" y="11" width="1" height="1" /><rect shape-rendering="crispEdges" fill="rgb(57, 123, 98)"  x="9" y="12" width="1" height="1" /><rect shape-rendering="crispEdges" fill="rgb(49, 106, 90)"  x="9" y="13" width="1" height="1" /><rect shape-rendering="crispEdges" fill="rgb(41, 98, 82)"  x="9" y="14" width="1" height="1" /><rect shape-rendering="crispEdges" fill="rgb(41, 98, 82)"  x="9" y="15" width="1" height="1" /><rect shape-rendering="crispEdges" fill="rgb(41, 90, 74)"  x="9" y="16" width="1" height="1" /><rect shape-rendering="crispEdges" fill="rgb(41, 106, 82)"  x="9" y="17" width="1" height="1" /><rect shape-rendering="crispEdges" fill="rgb(57, 131, 106)"  x="9" y="18" width="1" height="1" /><rect shape-rendering="crispEdges" fill="rgb(57, 123, 98)"  x="9" y="19" width="1" height="1" /><rect shape-rendering="crispEdges" fill="rgb(41, 98, 82)"  x="9" y="20" width="1" height="1" /><rect shape-rendering="crispEdges" fill="rgb(57, 131, 98)"  x="9" y="21" width="1" height="1" /><rect shape-rendering="crispEdges" fill="rgb(49, 115, 98)"  x="9" y="22" width="1" height="1" /><rect shape-rendering="crispEdges" fill="rgb(41, 98, 82)"  x="9" y="23" width="1" height="1" /><rect shape-rendering="crispEdges" fill="rgb(65, 139, 115)"  x="9" y="24" width="1" height="1" /><rect shape-rendering="crispEdges" fill="rgb(49, 123, 98)"  x="9" y="25" width="1" height="1" /><rect shape-rendering="crispEdges" fill="rgb(49, 123, 98)"  x="9" y="26" width="1" height="1" /><rect shape-rendering="crispEdges" fill="rgb(57, 106, 82)"  x="9" y="27" width="1" height="1" /><rect shape-rendering="crispEdges" fill="rgb(49, 98, 82)"  x="10" y="6" width="1" height="1" /><rect shape-rendering="crispEdges" fill="rgb(65, 148, 123)"  x="10" y="7" width="1" height="1" /><rect shape-rendering="crispEdges" fill="rgb(57, 131, 106)"  x="10" y="8" width="1" height="1" /><rect shape-rendering="crispEdges" fill="rgb(57, 123, 98)"  x="10" y="9" width="1" height="1" /><rect shape-rendering="crispEdges" fill="rgb(57, 123, 98)"  x="10" y="10" width="1" height="1" /><rect shape-rendering="crispEdges" fill="rgb(57, 123, 98)"  x="10" y="11" width="1" height="1" /><rect shape-rendering="crispEdges" fill="rgb(41, 106, 82)"  x="10" y="12" width="1" height="1" /><rect shape-rendering="crispEdges" fill="rgb(41, 98, 82)"  x="10" y="13" width="1" height="1" /><rect shape-rendering="crispEdges" fill="rgb(49, 115, 90)"  x="10" y="14" width="1" height="1" /><rect shape-rendering="crispEdges" fill="rgb(49, 106, 90)"  x="10" y="15" width="1" height="1" /><rect shape-rendering="crispEdges" fill="rgb(41, 106, 82)"  x="10" y="16" width="1" height="1" /><rect shape-rendering="crispEdges" fill="rgb(41, 90, 74)"  x="10" y="17" width="1" height="1" /><rect shape-rendering="crispEdges" fill="rgb(41, 106, 82)"  x="10" y="18" width="1" height="1" /><rect shape-rendering="crispEdges" fill="rgb(41, 98, 82)"  x="10" y="19" width="1" height="1" /><rect shape-rendering="crispEdges" fill="rgb(49, 123, 98)"  x="10" y="20" width="1" height="1" /><rect shape-rendering="crispEdges" fill="rgb(57, 123, 98)"  x="10" y="21" width="1" height="1" /><rect shape-rendering="crispEdges" fill="rgb(41, 98, 82)"  x="10" y="22" width="1" height="1" /><rect shape-rendering="crispEdges" fill="rgb(49, 123, 98)"  x="10" y="23" width="1" height="1" /><rect shape-rendering="crispEdges" fill="rgb(49, 123, 98)"  x="10" y="24" width="1" height="1" /><rect shape-rendering="crispEdges" fill="rgb(49, 115, 90)"  x="10" y="25" width="1" height="1" /><rect shape-rendering="crispEdges" fill="rgb(57, 123, 98)"  x="10" y="26" width="1" height="1" /><rect shape-rendering="crispEdges" fill="rgb(57, 98, 90)"  x="10" y="27" width="1" height="1" /><rect shape-rendering="crispEdges" fill="rgb(41, 106, 90)"  x="11" y="6" width="1" height="1" /><rect shape-rendering="crispEdges" fill="rgb(65, 148, 115)"  x="11" y="7" width="1" height="1" /><rect shape-rendering="crispEdges" fill="rgb(57, 131, 106)"  x="11" y="8" width="1" height="1" /><rect shape-rendering="crispEdges" fill="rgb(49, 115, 98)"  x="11" y="9" width="1" height="1" /><rect shape-rendering="crispEdges" fill="rgb(49, 123, 98)"  x="11" y="10" width="1" height="1" /><rect shape-rendering="crispEdges" fill="rgb(49, 115, 90)"  x="11" y="11" width="1" height="1" /><rect shape-rendering="crispEdges" fill="rgb(49, 106, 82)"  x="11" y="12" width="1" height="1" /><rect shape-rendering="crispEdges" fill="rgb(57, 131, 106)"  x="11" y="13" width="1" height="1" /><rect shape-rendering="crispEdges" fill="rgb(65, 139, 115)"  x="11" y="14" width="1" height="1" /><rect shape-rendering="crispEdges" fill="rgb(41, 106, 82)"  x="11" y="15" width="1" height="1" /><rect shape-rendering="crispEdges" fill="rgb(41, 106, 82)"  x="11" y="16" width="1" height="1" /><rect shape-rendering="crispEdges" fill="rgb(57, 123, 98)"  x="11" y="17" width="1" height="1" /><rect shape-rendering="crispEdges" fill="rgb(41, 90, 74)"  x="11" y="18" width="1" height="1" /><rect shape-rendering="crispEdges" fill="rgb(57, 123, 98)"  x="11" y="19" width="1" height="1" /><rect shape-rendering="crispEdges" fill="rgb(41, 98, 82)"  x="11" y="20" width="1" height="1" /><rect shape-rendering="crispEdges" fill="rgb(41, 98, 82)"  x="11" y="21" width="1" height="1" /><rect shape-rendering="crispEdges" fill="rgb(49, 115, 90)"  x="11" y="22" width="1" height="1" /><rect shape-rendering="crispEdges" fill="rgb(49, 123, 98)"  x="11" y="23" width="1" height="1" /><rect shape-rendering="crispEdges" fill="rgb(41, 106, 82)"  x="11" y="24" width="1" height="1" /><rect shape-rendering="crispEdges" fill="rgb(49, 106, 90)"  x="11" y="25" width="1" height="1" /><rect shape-rendering="crispEdges" fill="rgb(49, 98, 82)"  x="11" y="26" width="1" height="1" /><rect shape-rendering="crispEdges" fill="rgb(41, 106, 90)"  x="12" y="6" width="1" height="1" /><rect shape-rendering="crispEdges" fill="rgb(57, 139, 106)"  x="12" y="7" width="1" height="1" /><rect shape-rendering="crispEdges" fill="rgb(57, 139, 106)"  x="12" y="8" width="1" height="1" /><rect shape-rendering="crispEdges" fill="rgb(49, 123, 98)"  x="12" y="9" width="1" height="1" /><rect shape-rendering="crispEdges" fill="rgb(57, 131, 106)"  x="12" y="10" width="1" height="1" /><rect shape-rendering="crispEdges" fill="rgb(57, 123, 98)"  x="12" y="11" width="1" height="1" /><rect shape-rendering="crispEdges" fill="rgb(57, 131, 106)"  x="12" y="12" width="1" height="1" /><rect shape-rendering="crispEdges" fill="rgb(65, 148, 115)"  x="12" y="13" width="1" height="1" /><rect shape-rendering="crispEdges" fill="rgb(41, 106, 82)"  x="12" y="14" width="1" height="1" /><rect shape-rendering="crispEdges" fill="rgb(57, 123, 98)"  x="12" y="15" width="1" height="1" /><rect shape-rendering="crispEdges" fill="rgb(57, 131, 106)"  x="12" y="16" width="1" height="1" /><rect shape-rendering="crispEdges" fill="rgb(57, 139, 106)"  x="12" y="17" width="1" height="1" /><rect shape-rendering="crispEdges" fill="rgb(41, 106, 82)"  x="12" y="18" width="1" height="1" /><rect shape-rendering="crispEdges" fill="rgb(65, 148, 123)"  x="12" y="19" width="1" height="1" /><rect shape-rendering="crispEdges" fill="rgb(65, 139, 115)"  x="12" y="20" width="1" height="1" /><rect shape-rendering="crispEdges" fill="rgb(41, 98, 82)"  x="12" y="21" width="1" height="1" /><rect shape-rendering="crispEdges" fill="rgb(49, 90, 74)"  x="12" y="22" width="1" height="1" /><rect shape-rendering="crispEdges" fill="rgb(41, 90, 74)"  x="12" y="23" width="1" height="1" /><rect shape-rendering="crispEdges" fill="rgb(41, 90, 74)"  x="12" y="24" width="1" height="1" /><rect shape-rendering="crispEdges" fill="rgb(41, 98, 74)"  x="12" y="25" width="1" height="1" /><rect shape-rendering="crispEdges" fill="rgb(49, 106, 90)"  x="13" y="7" width="1" height="1" /><rect shape-rendering="crispEdges" fill="rgb(57, 139, 106)"  x="13" y="8" width="1" height="1" /><rect shape-rendering="crispEdges" fill="rgb(57, 131, 106)"  x="13" y="9" width="1" height="1" /><rect shape-rendering="crispEdges" fill="rgb(57, 139, 106)"  x="13" y="10" width="1" height="1" /><rect shape-rendering="crispEdges" fill="rgb(57, 131, 106)"  x="13" y="11" width="1" height="1" /><rect shape-rendering="crispEdges" fill="rgb(57, 123, 106)"  x="13" y="12" width="1" height="1" /><rect shape-rendering="crispEdges" fill="rgb(41, 106, 82)"  x="13" y="13" width="1" height="1" /><rect shape-rendering="crispEdges" fill="rgb(49, 115, 98)"  x="13" y="14" width="1" height="1" /><rect shape-rendering="crispEdges" fill="rgb(57, 131, 106)"  x="13" y="15" width="1" height="1" /><rect shape-rendering="crispEdges" fill="rgb(57, 131, 106)"  x="13" y="16" width="1" height="1" /><rect shape-rendering="crispEdges" fill="rgb(49, 123, 98)"  x="13" y="17" width="1" height="1" /><rect shape-rendering="crispEdges" fill="rgb(41, 90, 74)"  x="13" y="18" width="1" height="1" /><rect shape-rendering="crispEdges" fill="rgb(57, 131, 106)"  x="13" y="19" width="1" height="1" /><rect shape-rendering="crispEdges" fill="rgb(57, 131, 106)"  x="13" y="20" width="1" height="1" /><rect shape-rendering="crispEdges" fill="rgb(57, 106, 90)"  x="13" y="21" width="1" height="1" /><rect shape-rendering="crispEdges" fill="rgb(41, 98, 74)"  x="13" y="22" width="1" height="1" /><rect shape-rendering="crispEdges" fill="rgb(41, 90, 74)"  x="13" y="23" width="1" height="1" /><rect shape-rendering="crispEdges" fill="rgb(49, 115, 98)"  x="14" y="8" width="1" height="1" /><rect shape-rendering="crispEdges" fill="rgb(57, 139, 106)"  x="14" y="9" width="1" height="1" /><rect shape-rendering="crispEdges" fill="rgb(57, 131, 106)"  x="14" y="10" width="1" height="1" /><rect shape-rendering="crispEdges" fill="rgb(41, 106, 90)"  x="14" y="11" width="1" height="1" /><rect shape-rendering="crispEdges" fill="rgb(41, 90, 74)"  x="14" y="12" width="1" height="1" /><rect shape-rendering="crispEdges" fill="rgb(57, 131, 106)"  x="14" y="13" width="1" height="1" /><rect shape-rendering="crispEdges" fill="rgb(65, 139, 115)"  x="14" y="14" width="1" height="1" /><rect shape-rendering="crispEdges" fill="rgb(65, 139, 115)"  x="14" y="15" width="1" height="1" /><rect shape-rendering="crispEdges" fill="rgb(49, 123, 98)"  x="14" y="16" width="1" height="1" /><rect shape-rendering="crispEdges" fill="rgb(49, 115, 98)"  x="14" y="17" width="1" height="1" /><rect shape-rendering="crispEdges" fill="rgb(41, 90, 74)"  x="14" y="18" width="1" height="1" /><rect shape-rendering="crispEdges" fill="rgb(57, 139, 106)"  x="14" y="19" width="1" height="1" /><rect shape-rendering="crispEdges" fill="rgb(57, 139, 106)"  x="14" y="20" width="1" height="1" /><rect shape-rendering="crispEdges" fill="rgb(57, 139, 115)"  x="14" y="21" width="1" height="1" /><rect shape-rendering="crispEdges" fill="rgb(41, 106, 90)"  x="14" y="22" width="1" height="1" /><rect shape-rendering="crispEdges" fill="rgb(57, 139, 106)"  x="14" y="23" width="1" height="1" /><rect shape-rendering="crispEdges" fill="rgb(49, 115, 90)"  x="14" y="24" width="1" height="1" /><rect shape-rendering="crispEdges" fill="rgb(41, 90, 74)"  x="14" y="25" width="1" height="1" /><rect shape-rendering="crispEdges" fill="rgb(41, 106, 90)"  x="15" y="9" width="1" height="1" /><rect shape-rendering="crispEdges" fill="rgb(41, 98, 82)"  x="15" y="10" width="1" height="1" /><rect shape-rendering="crispEdges" fill="rgb(41, 106, 90)"  x="15" y="11" width="1" height="1" /><rect shape-rendering="crispEdges" fill="rgb(65, 139, 115)"  x="15" y="12" width="1" height="1" /><rect shape-rendering="crispEdges" fill="rgb(65, 148, 115)"  x="15" y="13" width="1" height="1" /><rect shape-rendering="crispEdges" fill="rgb(57, 139, 106)"  x="15" y="14" width="1" height="1" /><rect shape-rendering="crispEdges" fill="rgb(57, 139, 115)"  x="15" y="15" width="1" height="1" /><rect shape-rendering="crispEdges" fill="rgb(49, 98, 74)"  x="15" y="16" width="1" height="1" /><rect shape-rendering="crispEdges" fill="rgb(41, 98, 82)"  x="15" y="17" width="1" height="1" /><rect shape-rendering="crispEdges" fill="rgb(57, 123, 98)"  x="15" y="18" width="1" height="1" /><rect shape-rendering="crispEdges" fill="rgb(57, 139, 106)"  x="15" y="19" width="1" height="1" /><rect shape-rendering="crispEdges" fill="rgb(57, 139, 106)"  x="15" y="20" width="1" height="1" /><rect shape-rendering="crispEdges" fill="rgb(65, 139, 115)"  x="15" y="21" width="1" height="1" /><rect shape-rendering="crispEdges" fill="rgb(49, 115, 90)"  x="15" y="22" width="1" height="1" /><rect shape-rendering="crispEdges" fill="rgb(57, 139, 115)"  x="15" y="23" width="1" height="1" /><rect shape-rendering="crispEdges" fill="rgb(65, 148, 123)"  x="15" y="24" width="1" height="1" /><rect shape-rendering="crispEdges" fill="rgb(49, 115, 90)"  x="15" y="25" width="1" height="1" /><rect shape-rendering="crispEdges" fill="rgb(41, 106, 82)"  x="15" y="26" width="1" height="1" /><rect shape-rendering="crispEdges" fill="rgb(49, 115, 90)"  x="16" y="10" width="1" height="1" /><rect shape-rendering="crispEdges" fill="rgb(65, 148, 123)"  x="16" y="11" width="1" height="1" /><rect shape-rendering="crispEdges" fill="rgb(65, 148, 123)"  x="16" y="12" width="1" height="1" /><rect shape-rendering="crispEdges" fill="rgb(65, 139, 115)"  x="16" y="13" width="1" height="1" /><rect shape-rendering="crispEdges" fill="rgb(57, 139, 106)"  x="16" y="14" width="1" height="1" /><rect shape-rendering="crispEdges" fill="rgb(57, 115, 98)"  x="16" y="15" width="1" height="1" /><rect shape-rendering="crispEdges" fill="rgb(49, 74, 65)"  x="16" y="16" width="1" height="1" /><rect shape-rendering="crispEdges" fill="rgb(41, 98, 82)"  x="16" y="17" width="1" height="1" /><rect shape-rendering="crispEdges" fill="rgb(49, 123, 98)"  x="16" y="18" width="1" height="1" /><rect shape-rendering="crispEdges" fill="rgb(57, 131, 106)"  x="16" y="19" width="1" height="1" /><rect shape-rendering="crispEdges" fill="rgb(57, 139, 106)"  x="16" y="20" width="1" height="1" /><rect shape-rendering="crispEdges" fill="rgb(57, 139, 115)"  x="16" y="21" width="1" height="1" /><rect shape-rendering="crispEdges" fill="rgb(49, 115, 90)"  x="16" y="22" width="1" height="1" /><rect shape-rendering="crispEdges" fill="rgb(57, 139, 115)"  x="16" y="23" width="1" height="1" /><rect shape-rendering="crispEdges" fill="rgb(65, 148, 123)"  x="16" y="24" width="1" height="1" /><rect shape-rendering="crispEdges" fill="rgb(49, 123, 98)"  x="16" y="25" width="1" height="1" /><rect shape-rendering="crispEdges" fill="rgb(57, 131, 106)"  x="16" y="26" width="1" height="1" /><rect shape-rendering="crispEdges" fill="rgb(49, 115, 90)"  x="16" y="27" width="1" height="1" /><rect shape-rendering="crispEdges" fill="rgb(41, 106, 90)"  x="17" y="9" width="1" height="1" /><rect shape-rendering="crispEdges" fill="rgb(65, 148, 115)"  x="17" y="10" width="1" height="1" /><rect shape-rendering="crispEdges" fill="rgb(65, 148, 123)"  x="17" y="11" width="1" height="1" /><rect shape-rendering="crispEdges" fill="rgb(65, 148, 123)"  x="17" y="12" width="1" height="1" /><rect shape-rendering="crispEdges" fill="rgb(57, 139, 115)"  x="17" y="13" width="1" height="1" /><rect shape-rendering="crispEdges" fill="rgb(57, 131, 106)"  x="17" y="14" width="1" height="1" /><rect shape-rendering="crispEdges" fill="rgb(49, 90, 74)"  x="17" y="15" width="1" height="1" /><rect shape-rendering="crispEdges" fill="rgb(41, 106, 82)"  x="17" y="16" width="1" height="1" /><rect shape-rendering="crispEdges" fill="rgb(49, 115, 90)"  x="17" y="17" width="1" height="1" /><rect shape-rendering="crispEdges" fill="rgb(57, 131, 106)"  x="17" y="18" width="1" height="1" /><rect shape-rendering="crispEdges" fill="rgb(57, 139, 106)"  x="17" y="19" width="1" height="1" /><rect shape-rendering="crispEdges" fill="rgb(57, 139, 115)"  x="17" y="20" width="1" height="1" /><rect shape-rendering="crispEdges" fill="rgb(57, 131, 106)"  x="17" y="21" width="1" height="1" /><rect shape-rendering="crispEdges" fill="rgb(49, 115, 90)"  x="17" y="22" width="1" height="1" /><rect shape-rendering="crispEdges" fill="rgb(57, 139, 115)"  x="17" y="23" width="1" height="1" /><rect shape-rendering="crispEdges" fill="rgb(65, 148, 115)"  x="17" y="24" width="1" height="1" /><rect shape-rendering="crispEdges" fill="rgb(57, 123, 98)"  x="17" y="25" width="1" height="1" /><rect shape-rendering="crispEdges" fill="rgb(65, 148, 123)"  x="17" y="26" width="1" height="1" /><rect shape-rendering="crispEdges" fill="rgb(57, 123, 98)"  x="17" y="27" width="1" height="1" /><rect shape-rendering="crispEdges" fill="rgb(49, 115, 90)"  x="17" y="28" width="1" height="1" /><rect shape-rendering="crispEdges" fill="rgb(49, 115, 90)"  x="18" y="9" width="1" height="1" /><rect shape-rendering="crispEdges" fill="rgb(65, 148, 123)"  x="18" y="10" width="1" height="1" /><rect shape-rendering="crispEdges" fill="rgb(65, 139, 115)"  x="18" y="11" width="1" height="1" /><rect shape-rendering="crispEdges" fill="rgb(65, 139, 106)"  x="18" y="12" width="1" height="1" /><rect shape-rendering="crispEdges" fill="rgb(57, 131, 106)"  x="18" y="13" width="1" height="1" /><rect shape-rendering="crispEdges" fill="rgb(49, 90, 74)"  x="18" y="14" width="1" height="1" /><rect shape-rendering="crispEdges" fill="rgb(49, 106, 90)"  x="18" y="15" width="1" height="1" /><rect shape-rendering="crispEdges" fill="rgb(49, 115, 90)"  x="18" y="16" width="1" height="1" /><rect shape-rendering="crispEdges" fill="rgb(57, 139, 106)"  x="18" y="17" width="1" height="1" /><rect shape-rendering="crispEdges" fill="rgb(57, 139, 106)"  x="18" y="18" width="1" height="1" /><rect shape-rendering="crispEdges" fill="rgb(57, 139, 115)"  x="18" y="19" width="1" height="1" /><rect shape-rendering="crispEdges" fill="rgb(65, 139, 115)"  x="18" y="20" width="1" height="1" /><rect shape-rendering="crispEdges" fill="rgb(49, 115, 98)"  x="18" y="21" width="1" height="1" /><rect shape-rendering="crispEdges" fill="rgb(57, 131, 106)"  x="18" y="22" width="1" height="1" /><rect shape-rendering="crispEdges" fill="rgb(65, 139, 115)"  x="18" y="23" width="1" height="1" /><rect shape-rendering="crispEdges" fill="rgb(57, 131, 106)"  x="18" y="24" width="1" height="1" /><rect shape-rendering="crispEdges" fill="rgb(49, 115, 90)"  x="18" y="25" width="1" height="1" /><rect shape-rendering="crispEdges" fill="rgb(65, 148, 123)"  x="18" y="26" width="1" height="1" /><rect shape-rendering="crispEdges" fill="rgb(57, 115, 98)"  x="18" y="27" width="1" height="1" /><rect shape-rendering="crispEdges" fill="rgb(57, 98, 90)"  x="18" y="28" width="1" height="1" /><rect shape-rendering="crispEdges" fill="rgb(41, 106, 82)"  x="19" y="8" width="1" height="1" /><rect shape-rendering="crispEdges" fill="rgb(65, 148, 123)"  x="19" y="9" width="1" height="1" /><rect shape-rendering="crispEdges" fill="rgb(65, 139, 115)"  x="19" y="10" width="1" height="1" /><rect shape-rendering="crispEdges" fill="rgb(57, 131, 106)"  x="19" y="11" width="1" height="1" /><rect shape-rendering="crispEdges" fill="rgb(57, 123, 98)"  x="19" y="12" width="1" height="1" /><rect shape-rendering="crispEdges" fill="rgb(57, 131, 106)"  x="19" y="13" width="1" height="1" /><rect shape-rendering="crispEdges" fill="rgb(49, 106, 82)"  x="19" y="14" width="1" height="1" /><rect shape-rendering="crispEdges" fill="rgb(57, 123, 106)"  x="19" y="15" width="1" height="1" /><rect shape-rendering="crispEdges" fill="rgb(57, 131, 106)"  x="19" y="16" width="1" height="1" /><rect shape-rendering="crispEdges" fill="rgb(57, 139, 106)"  x="19" y="17" width="1" height="1" /><rect shape-rendering="crispEdges" fill="rgb(57, 139, 115)"  x="19" y="18" width="1" height="1" /><rect shape-rendering="crispEdges" fill="rgb(65, 139, 115)"  x="19" y="19" width="1" height="1" /><rect shape-rendering="crispEdges" fill="rgb(65, 139, 115)"  x="19" y="20" width="1" height="1" /><rect shape-rendering="crispEdges" fill="rgb(57, 131, 106)"  x="19" y="21" width="1" height="1" /><rect shape-rendering="crispEdges" fill="rgb(57, 139, 115)"  x="19" y="22" width="1" height="1" /><rect shape-rendering="crispEdges" fill="rgb(65, 148, 115)"  x="19" y="23" width="1" height="1" /><rect shape-rendering="crispEdges" fill="rgb(49, 123, 98)"  x="19" y="24" width="1" height="1" /><rect shape-rendering="crispEdges" fill="rgb(57, 123, 98)"  x="19" y="25" width="1" height="1" /><rect shape-rendering="crispEdges" fill="rgb(65, 139, 115)"  x="19" y="26" width="1" height="1" /><rect shape-rendering="crispEdges" fill="rgb(57, 131, 106)"  x="19" y="27" width="1" height="1" /><rect shape-rendering="crispEdges" fill="rgb(41, 106, 82)"  x="19" y="28" width="1" height="1" /><rect shape-rendering="crispEdges" fill="rgb(41, 106, 90)"  x="20" y="8" width="1" height="1" /><rect shape-rendering="crispEdges" fill="rgb(65, 156, 123)"  x="20" y="9" width="1" height="1" /><rect shape-rendering="crispEdges" fill="rgb(65, 139, 115)"  x="20" y="10" width="1" height="1" /><rect shape-rendering="crispEdges" fill="rgb(57, 131, 106)"  x="20" y="11" width="1" height="1" /><rect shape-rendering="crispEdges" fill="rgb(57, 131, 106)"  x="20" y="12" width="1" height="1" /><rect shape-rendering="crispEdges" fill="rgb(57, 131, 106)"  x="20" y="13" width="1" height="1" /><rect shape-rendering="crispEdges" fill="rgb(57, 131, 106)"  x="20" y="14" width="1" height="1" /><rect shape-rendering="crispEdges" fill="rgb(57, 139, 106)"  x="20" y="15" width="1" height="1" /><rect shape-rendering="crispEdges" fill="rgb(65, 139, 115)"  x="20" y="16" width="1" height="1" /><rect shape-rendering="crispEdges" fill="rgb(65, 148, 123)"  x="20" y="17" width="1" height="1" /><rect shape-rendering="crispEdges" fill="rgb(65, 148, 123)"  x="20" y="18" width="1" height="1" /><rect shape-rendering="crispEdges" fill="rgb(65, 139, 115)"  x="20" y="19" width="1" height="1" /><rect shape-rendering="crispEdges" fill="rgb(57, 131, 106)"  x="20" y="20" width="1" height="1" /><rect shape-rendering="crispEdges" fill="rgb(57, 131, 115)"  x="20" y="21" width="1" height="1" /><rect shape-rendering="crispEdges" fill="rgb(57, 139, 115)"  x="20" y="22" width="1" height="1" /><rect shape-rendering="crispEdges" fill="rgb(65, 148, 115)"  x="20" y="23" width="1" height="1" /><rect shape-rendering="crispEdges" fill="rgb(57, 131, 106)"  x="20" y="24" width="1" height="1" /><rect shape-rendering="crispEdges" fill="rgb(65, 139, 115)"  x="20" y="25" width="1" height="1" /><rect shape-rendering="crispEdges" fill="rgb(65, 139, 115)"  x="20" y="26" width="1" height="1" /><rect shape-rendering="crispEdges" fill="rgb(57, 139, 106)"  x="20" y="27" width="1" height="1" /><rect shape-rendering="crispEdges" fill="rgb(49, 98, 82)"  x="20" y="28" width="1" height="1" /><rect shape-rendering="crispEdges" fill="rgb(57, 123, 98)"  x="21" y="8" width="1" height="1" /><rect shape-rendering="crispEdges" fill="rgb(65, 148, 123)"  x="21" y="9" width="1" height="1" /><rect shape-rendering="crispEdges" fill="rgb(65, 139, 115)"  x="21" y="10" width="1" height="1" /><rect shape-rendering="crispEdges" fill="rgb(65, 131, 106)"  x="21" y="11" width="1" height="1" /><rect shape-rendering="crispEdges" fill="rgb(57, 139, 115)"  x="21" y="12" width="1" height="1" /><rect shape-rendering="crispEdges" fill="rgb(57, 139, 115)"  x="21" y="13" width="1" height="1" /><rect shape-rendering="crispEdges" fill="rgb(57, 139, 106)"  x="21" y="14" width="1" height="1" /><rect shape-rendering="crispEdges" fill="rgb(65, 139, 115)"  x="21" y="15" width="1" height="1" /><rect shape-rendering="crispEdges" fill="rgb(65, 148, 123)"  x="21" y="16" width="1" height="1" /><rect shape-rendering="crispEdges" fill="rgb(65, 148, 123)"  x="21" y="17" width="1" height="1" /><rect shape-rendering="crispEdges" fill="rgb(65, 148, 115)"  x="21" y="18" width="1" height="1" /><rect shape-rendering="crispEdges" fill="rgb(57, 131, 106)"  x="21" y="19" width="1" height="1" /><rect shape-rendering="crispEdges" fill="rgb(57, 131, 115)"  x="21" y="20" width="1" height="1" /><rect shape-rendering="crispEdges" fill="rgb(65, 139, 115)"  x="21" y="21" width="1" height="1" /><rect shape-rendering="crispEdges" fill="rgb(65, 148, 115)"  x="21" y="22" width="1" height="1" /><rect shape-rendering="crispEdges" fill="rgb(65, 139, 115)"  x="21" y="23" width="1" height="1" /><rect shape-rendering="crispEdges" fill="rgb(65, 139, 115)"  x="21" y="24" width="1" height="1" /><rect shape-rendering="crispEdges" fill="rgb(65, 148, 115)"  x="21" y="25" width="1" height="1" /><rect shape-rendering="crispEdges" fill="rgb(57, 139, 115)"  x="21" y="26" width="1" height="1" /><rect shape-rendering="crispEdges" fill="rgb(49, 123, 98)"  x="21" y="27" width="1" height="1" /><rect shape-rendering="crispEdges" fill="rgb(49, 106, 90)"  x="21" y="28" width="1" height="1" /><rect shape-rendering="crispEdges" fill="rgb(49, 115, 90)"  x="22" y="8" width="1" height="1" /><rect shape-rendering="crispEdges" fill="rgb(65, 148, 123)"  x="22" y="9" width="1" height="1" /><rect shape-rendering="crispEdges" fill="rgb(65, 148, 123)"  x="22" y="10" width="1" height="1" /><rect shape-rendering="crispEdges" fill="rgb(65, 139, 123)"  x="22" y="11" width="1" height="1" /><rect shape-rendering="crispEdges" fill="rgb(65, 139, 115)"  x="22" y="12" width="1" height="1" /><rect shape-rendering="crispEdges" fill="rgb(65, 139, 115)"  x="22" y="13" width="1" height="1" /><rect shape-rendering="crispEdges" fill="rgb(65, 139, 115)"  x="22" y="14" width="1" height="1" /><rect shape-rendering="crispEdges" fill="rgb(65, 148, 115)"  x="22" y="15" width="1" height="1" /><rect shape-rendering="crispEdges" fill="rgb(65, 148, 115)"  x="22" y="16" width="1" height="1" /><rect shape-rendering="crispEdges" fill="rgb(65, 148, 123)"  x="22" y="17" width="1" height="1" /><rect shape-rendering="crispEdges" fill="rgb(65, 148, 123)"  x="22" y="18" width="1" height="1" /><rect shape-rendering="crispEdges" fill="rgb(65, 139, 115)"  x="22" y="19" width="1" height="1" /><rect shape-rendering="crispEdges" fill="rgb(65, 148, 123)"  x="22" y="20" width="1" height="1" /><rect shape-rendering="crispEdges" fill="rgb(65, 148, 123)"  x="22" y="21" width="1" height="1" /><rect shape-rendering="crispEdges" fill="rgb(57, 139, 115)"  x="22" y="22" width="1" height="1" /><rect shape-rendering="crispEdges" fill="rgb(65, 139, 106)"  x="22" y="23" width="1" height="1" /><rect shape-rendering="crispEdges" fill="rgb(65, 139, 115)"  x="22" y="24" width="1" height="1" /><rect shape-rendering="crispEdges" fill="rgb(65, 139, 115)"  x="22" y="25" width="1" height="1" /><rect shape-rendering="crispEdges" fill="rgb(57, 139, 115)"  x="22" y="26" width="1" height="1" /><rect shape-rendering="crispEdges" fill="rgb(41, 106, 90)"  x="22" y="27" width="1" height="1" /><rect shape-rendering="crispEdges" fill="rgb(49, 115, 98)"  x="23" y="8" width="1" height="1" /><rect shape-rendering="crispEdges" fill="rgb(65, 148, 115)"  x="23" y="9" width="1" height="1" /><rect shape-rendering="crispEdges" fill="rgb(65, 148, 115)"  x="23" y="10" width="1" height="1" /><rect shape-rendering="crispEdges" fill="rgb(65, 148, 123)"  x="23" y="11" width="1" height="1" /><rect shape-rendering="crispEdges" fill="rgb(65, 139, 123)"  x="23" y="12" width="1" height="1" /><rect shape-rendering="crispEdges" fill="rgb(65, 148, 123)"  x="23" y="13" width="1" height="1" /><rect shape-rendering="crispEdges" fill="rgb(65, 148, 123)"  x="23" y="14" width="1" height="1" /><rect shape-rendering="crispEdges" fill="rgb(65, 148, 123)"  x="23" y="15" width="1" height="1" /><rect shape-rendering="crispEdges" fill="rgb(65, 148, 115)"  x="23" y="16" width="1" height="1" /><rect shape-rendering="crispEdges" fill="rgb(65, 148, 123)"  x="23" y="17" width="1" height="1" /><rect shape-rendering="crispEdges" fill="rgb(65, 148, 123)"  x="23" y="18" width="1" height="1" /><rect shape-rendering="crispEdges" fill="rgb(65, 148, 123)"  x="23" y="19" width="1" height="1" /><rect shape-rendering="crispEdges" fill="rgb(65, 148, 123)"  x="23" y="20" width="1" height="1" /><rect shape-rendering="crispEdges" fill="rgb(65, 148, 115)"  x="23" y="21" width="1" height="1" /><rect shape-rendering="crispEdges" fill="rgb(65, 139, 115)"  x="23" y="22" width="1" height="1" /><rect shape-rendering="crispEdges" fill="rgb(65, 148, 123)"  x="23" y="23" width="1" height="1" /><rect shape-rendering="crispEdges" fill="rgb(65, 139, 115)"  x="23" y="24" width="1" height="1" /><rect shape-rendering="crispEdges" fill="rgb(57, 139, 115)"  x="23" y="25" width="1" height="1" /><rect shape-rendering="crispEdges" fill="rgb(57, 123, 98)"  x="23" y="26" width="1" height="1" /><rect shape-rendering="crispEdges" fill="rgb(49, 106, 90)"  x="23" y="27" width="1" height="1" /><rect shape-rendering="crispEdges" fill="rgb(41, 106, 90)"  x="24" y="8" width="1" height="1" /><rect shape-rendering="crispEdges" fill="rgb(65, 148, 115)"  x="24" y="9" width="1" height="1" /><rect shape-rendering="crispEdges" fill="rgb(65, 148, 115)"  x="24" y="10" width="1" height="1" /><rect shape-rendering="crispEdges" fill="rgb(65, 148, 123)"  x="24" y="11" width="1" height="1" /><rect shape-rendering="crispEdges" fill="rgb(65, 148, 123)"  x="24" y="12" width="1" height="1" /><rect shape-rendering="crispEdges" fill="rgb(65, 148, 115)"  x="24" y="13" width="1" height="1" /><rect shape-rendering="crispEdges" fill="rgb(65, 148, 115)"  x="24" y="14" width="1" height="1" /><rect shape-rendering="crispEdges" fill="rgb(65, 148, 123)"  x="24" y="15" width="1" height="1" /><rect shape-rendering="crispEdges" fill="rgb(65, 148, 123)"  x="24" y="16" width="1" height="1" /><rect shape-rendering="crispEdges" fill="rgb(65, 156, 123)"  x="24" y="17" width="1" height="1" /><rect shape-rendering="crispEdges" fill="rgb(65, 156, 123)"  x="24" y="18" width="1" height="1" /><rect shape-rendering="crispEdges" fill="rgb(65, 156, 123)"  x="24" y="19" width="1" height="1" /><rect shape-rendering="crispEdges" fill="rgb(65, 148, 123)"  x="24" y="20" width="1" height="1" /><rect shape-rendering="crispEdges" fill="rgb(65, 148, 115)"  x="24" y="21" width="1" height="1" /><rect shape-rendering="crispEdges" fill="rgb(65, 148, 123)"  x="24" y="22" width="1" height="1" /><rect shape-rendering="crispEdges" fill="rgb(65, 139, 115)"  x="24" y="23" width="1" height="1" /><rect shape-rendering="crispEdges" fill="rgb(65, 148, 123)"  x="24" y="24" width="1" height="1" /><rect shape-rendering="crispEdges" fill="rgb(57, 123, 106)"  x="24" y="25" width="1" height="1" /><rect shape-rendering="crispEdges" fill="rgb(41, 106, 90)"  x="24" y="26" width="1" height="1" /><rect shape-rendering="crispEdges" fill="rgb(41, 106, 90)"  x="25" y="8" width="1" height="1" /><rect shape-rendering="crispEdges" fill="rgb(57, 139, 106)"  x="25" y="9" width="1" height="1" /><rect shape-rendering="crispEdges" fill="rgb(65, 139, 115)"  x="25" y="10" width="1" height="1" /><rect shape-rendering="crispEdges" fill="rgb(65, 148, 123)"  x="25" y="11" width="1" height="1" /><rect shape-rendering="crispEdges" fill="rgb(65, 148, 115)"  x="25" y="12" width="1" height="1" /><rect shape-rendering="crispEdges" fill="rgb(65, 148, 123)"  x="25" y="13" width="1" height="1" /><rect shape-rendering="crispEdges" fill="rgb(65, 148, 123)"  x="25" y="14" width="1" height="1" /><rect shape-rendering="crispEdges" fill="rgb(65, 148, 123)"  x="25" y="15" width="1" height="1" /><rect shape-rendering="crispEdges" fill="rgb(65, 148, 123)"  x="25" y="16" width="1" height="1" /><rect shape-rendering="crispEdges" fill="rgb(65, 156, 123)"  x="25" y="17" width="1" height="1" /><rect shape-rendering="crispEdges" fill="rgb(65, 156, 123)"  x="25" y="18" width="1" height="1" /><rect shape-rendering="crispEdges" fill="rgb(65, 156, 123)"  x="25" y="19" width="1" height="1" /><rect shape-rendering="crispEdges" fill="rgb(65, 156, 123)"  x="25" y="20" width="1" height="1" /><rect shape-rendering="crispEdges" fill="rgb(65, 148, 123)"  x="25" y="21" width="1" height="1" /><rect shape-rendering="crispEdges" fill="rgb(65, 148, 123)"  x="25" y="22" width="1" height="1" /><rect shape-rendering="crispEdges" fill="rgb(65, 148, 115)"  x="25" y="23" width="1" height="1" /><rect shape-rendering="crispEdges" fill="rgb(65, 131, 106)"  x="25" y="24" width="1" height="1" /><rect shape-rendering="crispEdges" fill="rgb(41, 106, 90)"  x="25" y="25" width="1" height="1" /><rect shape-rendering="crispEdges" fill="rgb(41, 106, 90)"  x="26" y="9" width="1" height="1" /><rect shape-rendering="crispEdges" fill="rgb(57, 139, 106)"  x="26" y="10" width="1" height="1" /><rect shape-rendering="crispEdges" fill="rgb(65, 148, 115)"  x="26" y="11" width="1" height="1" /><rect shape-rendering="crispEdges" fill="rgb(65, 148, 115)"  x="26" y="12" width="1" height="1" /><rect shape-rendering="crispEdges" fill="rgb(65, 148, 123)"  x="26" y="13" width="1" height="1" /><rect shape-rendering="crispEdges" fill="rgb(65, 148, 123)"  x="26" y="14" width="1" height="1" /><rect shape-rendering="crispEdges" fill="rgb(65, 148, 123)"  x="26" y="15" width="1" height="1" /><rect shape-rendering="crispEdges" fill="rgb(65, 148, 115)"  x="26" y="16" width="1" height="1" /><rect shape-rendering="crispEdges" fill="rgb(65, 148, 115)"  x="26" y="17" width="1" height="1" /><rect shape-rendering="crispEdges" fill="rgb(65, 148, 123)"  x="26" y="18" width="1" height="1" /><rect shape-rendering="crispEdges" fill="rgb(65, 148, 123)"  x="26" y="19" width="1" height="1" /><rect shape-rendering="crispEdges" fill="rgb(65, 156, 123)"  x="26" y="20" width="1" height="1" /><rect shape-rendering="crispEdges" fill="rgb(65, 156, 123)"  x="26" y="21" width="1" height="1" /><rect shape-rendering="crispEdges" fill="rgb(74, 156, 123)"  x="26" y="22" width="1" height="1" /><rect shape-rendering="crispEdges" fill="rgb(65, 131, 106)"  x="26" y="23" width="1" height="1" /><rect shape-rendering="crispEdges" fill="rgb(41, 106, 90)"  x="26" y="24" width="1" height="1" /><rect shape-rendering="crispEdges" fill="rgb(41, 106, 90)"  x="27" y="10" width="1" height="1" /><rect shape-rendering="crispEdges" fill="rgb(57, 123, 106)"  x="27" y="11" width="1" height="1" /><rect shape-rendering="crispEdges" fill="rgb(65, 148, 123)"  x="27" y="12" width="1" height="1" /><rect shape-rendering="crispEdges" fill="rgb(65, 148, 115)"  x="27" y="13" width="1" height="1" /><rect shape-rendering="crispEdges" fill="rgb(65, 148, 123)"  x="27" y="14" width="1" height="1" /><rect shape-rendering="crispEdges" fill="rgb(65, 148, 123)"  x="27" y="15" width="1" height="1" /><rect shape-rendering="crispEdges" fill="rgb(65, 148, 123)"  x="27" y="16" width="1" height="1" /><rect shape-rendering="crispEdges" fill="rgb(65, 156, 123)"  x="27" y="17" width="1" height="1" /><rect shape-rendering="crispEdges" fill="rgb(65, 139, 115)"  x="27" y="18" width="1" height="1" /><rect shape-rendering="crispEdges" fill="rgb(57, 131, 106)"  x="27" y="19" width="1" height="1" /><rect shape-rendering="crispEdges" fill="rgb(57, 115, 90)"  x="27" y="20" width="1" height="1" /><rect shape-rendering="crispEdges" fill="rgb(49, 115, 90)"  x="27" y="21" width="1" height="1" /><rect shape-rendering="crispEdges" fill="rgb(41, 106, 82)"  x="27" y="22" width="1" height="1" /><rect shape-rendering="crispEdges" fill="rgb(49, 106, 90)"  x="28" y="11" width="1" height="1" /><rect shape-rendering="crispEdges" fill="rgb(41, 106, 90)"  x="28" y="12" width="1" height="1" /><rect shape-rendering="crispEdges" fill="rgb(57, 123, 98)"  x="28" y="13" width="1" height="1" /><rect shape-rendering="crispEdges" fill="rgb(57, 115, 98)"  x="28" y="14" width="1" height="1" /><rect shape-rendering="crispEdges" fill="rgb(57, 123, 106)"  x="28" y="15" width="1" height="1" /><rect shape-rendering="crispEdges" fill="rgb(49, 123, 98)"  x="28" y="16" width="1" height="1" /><rect shape-rendering="crispEdges" fill="rgb(41, 98, 82)"  x="28" y="17" width="1" height="1" /><rect shape-rendering="crispEdges" fill="rgb(41, 90, 74)"  x="28" y="18" width="1" height="1" /><rect shape-rendering="crispEdges" fill="rgb(41, 90, 74)"  x="28" y="19" width="1" height="1" /></svg>