<svg xmlns="http://www.w3.org/2000/svg" xmlns:xlink= "http://www.w3.org/1999/xlink" width="32" height="32" viewBox ="0 0 32 32"><rect shape-rendering="crispEdges" fill="rgb(189, 90, 41)"  x="4" y="24" width="1" height="1" /><rect shape-rendering="crispEdges" fill="rgb(189, 90, 41)"  x="4" y="25" width="1" height="1" /><rect shape-rendering="crispEdges" fill="rgb(189, 90, 41)"  x="4" y="26" width="1" height="1" /><rect shape-rendering="crispEdges" fill="rgb(82, 24, 41)"  x="5" y="21" width="1" height="1" /><rect shape-rendering="crispEdges" fill="rgb(82, 24, 41)"  x="5" y="22" width="1" height="1" /><rect shape-rendering="crispEdges" fill="rgb(82, 24, 41)"  x="5" y="23" width="1" height="1" /><rect shape-rendering="crispEdges" fill="rgb(57, 41, 49)"  x="5" y="24" width="1" height="1" /><rect shape-rendering="crispEdges" fill="rgb(57, 41, 49)"  x="5" y="25" width="1" height="1" /><rect shape-rendering="crispEdges" fill="rgb(222, 164, 57)"  x="5" y="26" width="1" height="1" /><rect shape-rendering="crispEdges" fill="rgb(189, 90, 41)"  x="5" y="27" width="1" height="1" /><rect shape-rendering="crispEdges" fill="rgb(82, 24, 41)"  x="6" y="13" width="1" height="1" /><rect shape-rendering="crispEdges" fill="rgb(82, 24, 41)"  x="6" y="14" width="1" height="1" /><rect shape-rendering="crispEdges" fill="rgb(82, 24, 41)"  x="6" y="19" width="1" height="1" /><rect shape-rendering="crispEdges" fill="rgb(82, 24, 41)"  x="6" y="20" width="1" height="1" /><rect shape-rendering="crispEdges" fill="rgb(115, 32, 32)"  x="6" y="21" width="1" height="1" /><rect shape-rendering="crispEdges" fill="rgb(213, 123, 41)"  x="6" y="22" width="1" height="1" /><rect shape-rendering="crispEdges" fill="rgb(115, 32, 32)"  x="6" y="23" width="1" height="1" /><rect shape-rendering="crispEdges" fill="rgb(57, 41, 49)"  x="6" y="24" width="1" height="1" /><rect shape-rendering="crispEdges" fill="rgb(57, 41, 49)"  x="6" y="25" width="1" height="1" /><rect shape-rendering="crispEdges" fill="rgb(65, 41, 49)"  x="6" y="26" width="1" height="1" /><rect shape-rendering="crispEdges" fill="rgb(230, 180, 57)"  x="6" y="27" width="1" height="1" /><rect shape-rendering="crispEdges" fill="rgb(189, 90, 41)"  x="6" y="28" width="1" height="1" /><rect shape-rendering="crispEdges" fill="rgb(82, 24, 41)"  x="7" y="12" width="1" height="1" /><rect shape-rendering="crispEdges" fill="rgb(197, 82, 98)"  x="7" y="13" width="1" height="1" /><rect shape-rendering="crispEdges" fill="rgb(180, 65, 82)"  x="7" y="14" width="1" height="1" /><rect shape-rendering="crispEdges" fill="rgb(82, 24, 41)"  x="7" y="15" width="1" height="1" /><rect shape-rendering="crispEdges" fill="rgb(90, 49, 65)"  x="7" y="17" width="1" height="1" /><rect shape-rendering="crispEdges" fill="rgb(57, 41, 49)"  x="7" y="18" width="1" height="1" /><rect shape-rendering="crispEdges" fill="rgb(57, 41, 49)"  x="7" y="19" width="1" height="1" /><rect shape-rendering="crispEdges" fill="rgb(115, 32, 32)"  x="7" y="20" width="1" height="1" /><rect shape-rendering="crispEdges" fill="rgb(115, 32, 32)"  x="7" y="21" width="1" height="1" /><rect shape-rendering="crispEdges" fill="rgb(115, 32, 32)"  x="7" y="22" width="1" height="1" /><rect shape-rendering="crispEdges" fill="rgb(205, 123, 41)"  x="7" y="23" width="1" height="1" /><rect shape-rendering="crispEdges" fill="rgb(115, 32, 32)"  x="7" y="24" width="1" height="1" /><rect shape-rendering="crispEdges" fill="rgb(57, 41, 49)"  x="7" y="25" width="1" height="1" /><rect shape-rendering="crispEdges" fill="rgb(57, 41, 49)"  x="7" y="26" width="1" height="1" /><rect shape-rendering="crispEdges" fill="rgb(213, 139, 32)"  x="7" y="27" width="1" height="1" /><rect shape-rendering="crispEdges" fill="rgb(213, 123, 32)"  x="7" y="28" width="1" height="1" /><rect shape-rendering="crispEdges" fill="rgb(131, 98, 106)"  x="8" y="4" width="1" height="1" /><rect shape-rendering="crispEdges" fill="rgb(131, 98, 106)"  x="8" y="5" width="1" height="1" /><rect shape-rendering="crispEdges" fill="rgb(74, 57, 74)"  x="8" y="6" width="1" height="1" /><rect shape-rendering="crispEdges" fill="rgb(74, 57, 74)"  x="8" y="7" width="1" height="1" /><rect shape-rendering="crispEdges" fill="rgb(82, 24, 41)"  x="8" y="11" width="1" height="1" /><rect shape-rendering="crispEdges" fill="rgb(197, 82, 98)"  x="8" y="12" width="1" height="1" /><rect shape-rendering="crispEdges" fill="rgb(180, 65, 82)"  x="8" y="13" width="1" height="1" /><rect shape-rendering="crispEdges" fill="rgb(164, 49, 74)"  x="8" y="14" width="1" height="1" /><rect shape-rendering="crispEdges" fill="rgb(82, 24, 41)"  x="8" y="15" width="1" height="1" /><rect shape-rendering="crispEdges" fill="rgb(90, 32, 49)"  x="8" y="16" width="1" height="1" /><rect shape-rendering="crispEdges" fill="rgb(205, 90, 106)"  x="8" y="17" width="1" height="1" /><rect shape-rendering="crispEdges" fill="rgb(180, 74, 98)"  x="8" y="18" width="1" height="1" /><rect shape-rendering="crispEdges" fill="rgb(180, 74, 98)"  x="8" y="19" width="1" height="1" /><rect shape-rendering="crispEdges" fill="rgb(74, 41, 57)"  x="8" y="20" width="1" height="1" /><rect shape-rendering="crispEdges" fill="rgb(57, 41, 49)"  x="8" y="21" width="1" height="1" /><rect shape-rendering="crispEdges" fill="rgb(106, 32, 41)"  x="8" y="22" width="1" height="1" /><rect shape-rendering="crispEdges" fill="rgb(172, 41, 49)"  x="8" y="23" width="1" height="1" /><rect shape-rendering="crispEdges" fill="rgb(189, 115, 41)"  x="8" y="24" width="1" height="1" /><rect shape-rendering="crispEdges" fill="rgb(131, 32, 32)"  x="8" y="25" width="1" height="1" /><rect shape-rendering="crispEdges" fill="rgb(57, 41, 49)"  x="8" y="26" width="1" height="1" /><rect shape-rendering="crispEdges" fill="rgb(65, 41, 49)"  x="8" y="27" width="1" height="1" /><rect shape-rendering="crispEdges" fill="rgb(197, 106, 32)"  x="8" y="28" width="1" height="1" /><rect shape-rendering="crispEdges" fill="rgb(189, 90, 41)"  x="8" y="29" width="1" height="1" /><rect shape-rendering="crispEdges" fill="rgb(131, 98, 106)"  x="9" y="3" width="1" height="1" /><rect shape-rendering="crispEdges" fill="rgb(205, 197, 213)"  x="9" y="4" width="1" height="1" /><rect shape-rendering="crispEdges" fill="rgb(205, 197, 213)"  x="9" y="5" width="1" height="1" /><rect shape-rendering="crispEdges" fill="rgb(205, 197, 213)"  x="9" y="6" width="1" height="1" /><rect shape-rendering="crispEdges" fill="rgb(205, 197, 213)"  x="9" y="7" width="1" height="1" /><rect shape-rendering="crispEdges" fill="rgb(65, 41, 57)"  x="9" y="8" width="1" height="1" /><rect shape-rendering="crispEdges" fill="rgb(82, 24, 41)"  x="9" y="10" width="1" height="1" /><rect shape-rendering="crispEdges" fill="rgb(197, 82, 98)"  x="9" y="11" width="1" height="1" /><rect shape-rendering="crispEdges" fill="rgb(180, 65, 82)"  x="9" y="12" width="1" height="1" /><rect shape-rendering="crispEdges" fill="rgb(148, 49, 74)"  x="9" y="13" width="1" height="1" /><rect shape-rendering="crispEdges" fill="rgb(82, 24, 41)"  x="9" y="14" width="1" height="1" /><rect shape-rendering="crispEdges" fill="rgb(197, 90, 106)"  x="9" y="15" width="1" height="1" /><rect shape-rendering="crispEdges" fill="rgb(230, 180, 148)"  x="9" y="16" width="1" height="1" /><rect shape-rendering="crispEdges" fill="rgb(255, 230, 172)"  x="9" y="17" width="1" height="1" /><rect shape-rendering="crispEdges" fill="rgb(255, 230, 172)"  x="9" y="18" width="1" height="1" /><rect shape-rendering="crispEdges" fill="rgb(230, 180, 148)"  x="9" y="19" width="1" height="1" /><rect shape-rendering="crispEdges" fill="rgb(189, 82, 98)"  x="9" y="20" width="1" height="1" /><rect shape-rendering="crispEdges" fill="rgb(98, 49, 65)"  x="9" y="21" width="1" height="1" /><rect shape-rendering="crispEdges" fill="rgb(57, 41, 49)"  x="9" y="22" width="1" height="1" /><rect shape-rendering="crispEdges" fill="rgb(115, 24, 32)"  x="9" y="23" width="1" height="1" /><rect shape-rendering="crispEdges" fill="rgb(156, 41, 41)"  x="9" y="24" width="1" height="1" /><rect shape-rendering="crispEdges" fill="rgb(156, 32, 41)"  x="9" y="25" width="1" height="1" /><rect shape-rendering="crispEdges" fill="rgb(57, 41, 49)"  x="9" y="26" width="1" height="1" /><rect shape-rendering="crispEdges" fill="rgb(57, 41, 49)"  x="9" y="27" width="1" height="1" /><rect shape-rendering="crispEdges" fill="rgb(222, 156, 41)"  x="9" y="28" width="1" height="1" /><rect shape-rendering="crispEdges" fill="rgb(222, 156, 41)"  x="9" y="29" width="1" height="1" /><rect shape-rendering="crispEdges" fill="rgb(189, 90, 41)"  x="9" y="30" width="1" height="1" /><rect shape-rendering="crispEdges" fill="rgb(131, 98, 106)"  x="10" y="2" width="1" height="1" /><rect shape-rendering="crispEdges" fill="rgb(230, 230, 213)"  x="10" y="3" width="1" height="1" /><rect shape-rendering="crispEdges" fill="rgb(180, 82, 90)"  x="10" y="4" width="1" height="1" /><rect shape-rendering="crispEdges" fill="rgb(82, 24, 41)"  x="10" y="5" width="1" height="1" /><rect shape-rendering="crispEdges" fill="rgb(82, 24, 41)"  x="10" y="6" width="1" height="1" /><rect shape-rendering="crispEdges" fill="rgb(82, 24, 41)"  x="10" y="7" width="1" height="1" /><rect shape-rendering="crispEdges" fill="rgb(123, 49, 57)"  x="10" y="8" width="1" height="1" /><rect shape-rendering="crispEdges" fill="rgb(82, 24, 41)"  x="10" y="9" width="1" height="1" /><rect shape-rendering="crispEdges" fill="rgb(213, 90, 106)"  x="10" y="10" width="1" height="1" /><rect shape-rendering="crispEdges" fill="rgb(148, 49, 74)"  x="10" y="11" width="1" height="1" /><rect shape-rendering="crispEdges" fill="rgb(148, 49, 74)"  x="10" y="12" width="1" height="1" /><rect shape-rendering="crispEdges" fill="rgb(82, 24, 41)"  x="10" y="13" width="1" height="1" /><rect shape-rendering="crispEdges" fill="rgb(197, 90, 106)"  x="10" y="14" width="1" height="1" /><rect shape-rendering="crispEdges" fill="rgb(230, 180, 148)"  x="10" y="15" width="1" height="1" /><rect shape-rendering="crispEdges" fill="rgb(115, 74, 82)"  x="10" y="16" width="1" height="1" /><rect shape-rendering="crispEdges" fill="rgb(115, 74, 82)"  x="10" y="17" width="1" height="1" /><rect shape-rendering="crispEdges" fill="rgb(115, 74, 82)"  x="10" y="18" width="1" height="1" /><rect shape-rendering="crispEdges" fill="rgb(115, 74, 82)"  x="10" y="19" width="1" height="1" /><rect shape-rendering="crispEdges" fill="rgb(230, 180, 139)"  x="10" y="20" width="1" height="1" /><rect shape-rendering="crispEdges" fill="rgb(180, 74, 98)"  x="10" y="21" width="1" height="1" /><rect shape-rendering="crispEdges" fill="rgb(57, 41, 49)"  x="10" y="22" width="1" height="1" /><rect shape-rendering="crispEdges" fill="rgb(57, 41, 49)"  x="10" y="23" width="1" height="1" /><rect shape-rendering="crispEdges" fill="rgb(172, 57, 57)"  x="10" y="24" width="1" height="1" /><rect shape-rendering="crispEdges" fill="rgb(230, 180, 65)"  x="10" y="25" width="1" height="1" /><rect shape-rendering="crispEdges" fill="rgb(123, 32, 32)"  x="10" y="26" width="1" height="1" /><rect shape-rendering="crispEdges" fill="rgb(57, 41, 49)"  x="10" y="27" width="1" height="1" /><rect shape-rendering="crispEdges" fill="rgb(57, 41, 49)"  x="10" y="28" width="1" height="1" /><rect shape-rendering="crispEdges" fill="rgb(238, 180, 57)"  x="10" y="29" width="1" height="1" /><rect shape-rendering="crispEdges" fill="rgb(189, 90, 41)"  x="10" y="30" width="1" height="1" /><rect shape-rendering="crispEdges" fill="rgb(49, 0, 24)"  x="11" y="2" width="1" height="1" /><rect shape-rendering="crispEdges" fill="rgb(180, 82, 90)"  x="11" y="3" width="1" height="1" /><rect shape-rendering="crispEdges" fill="rgb(82, 24, 41)"  x="11" y="4" width="1" height="1" /><rect shape-rendering="crispEdges" fill="rgb(180, 65, 82)"  x="11" y="5" width="1" height="1" /><rect shape-rendering="crispEdges" fill="rgb(164, 49, 74)"  x="11" y="6" width="1" height="1" /><rect shape-rendering="crispEdges" fill="rgb(82, 24, 41)"  x="11" y="7" width="1" height="1" /><rect shape-rendering="crispEdges" fill="rgb(82, 24, 41)"  x="11" y="8" width="1" height="1" /><rect shape-rendering="crispEdges" fill="rgb(148, 49, 74)"  x="11" y="9" width="1" height="1" /><rect shape-rendering="crispEdges" fill="rgb(148, 49, 74)"  x="11" y="10" width="1" height="1" /><rect shape-rendering="crispEdges" fill="rgb(82, 24, 41)"  x="11" y="11" width="1" height="1" /><rect shape-rendering="crispEdges" fill="rgb(82, 24, 41)"  x="11" y="12" width="1" height="1" /><rect shape-rendering="crispEdges" fill="rgb(197, 90, 106)"  x="11" y="13" width="1" height="1" /><rect shape-rendering="crispEdges" fill="rgb(255, 230, 172)"  x="11" y="14" width="1" height="1" /><rect shape-rendering="crispEdges" fill="rgb(115, 74, 82)"  x="11" y="15" width="1" height="1" /><rect shape-rendering="crispEdges" fill="rgb(115, 74, 82)"  x="11" y="16" width="1" height="1" /><rect shape-rendering="crispEdges" fill="rgb(255, 230, 172)"  x="11" y="17" width="1" height="1" /><rect shape-rendering="crispEdges" fill="rgb(255, 230, 172)"  x="11" y="18" width="1" height="1" /><rect shape-rendering="crispEdges" fill="rgb(115, 74, 82)"  x="11" y="19" width="1" height="1" /><rect shape-rendering="crispEdges" fill="rgb(115, 74, 82)"  x="11" y="20" width="1" height="1" /><rect shape-rendering="crispEdges" fill="rgb(222, 164, 131)"  x="11" y="21" width="1" height="1" /><rect shape-rendering="crispEdges" fill="rgb(180, 74, 98)"  x="11" y="22" width="1" height="1" /><rect shape-rendering="crispEdges" fill="rgb(57, 41, 49)"  x="11" y="23" width="1" height="1" /><rect shape-rendering="crispEdges" fill="rgb(189, 57, 57)"  x="11" y="24" width="1" height="1" /><rect shape-rendering="crispEdges" fill="rgb(205, 57, 57)"  x="11" y="25" width="1" height="1" /><rect shape-rendering="crispEdges" fill="rgb(123, 32, 32)"  x="11" y="26" width="1" height="1" /><rect shape-rendering="crispEdges" fill="rgb(57, 41, 49)"  x="11" y="27" width="1" height="1" /><rect shape-rendering="crispEdges" fill="rgb(57, 41, 49)"  x="11" y="28" width="1" height="1" /><rect shape-rendering="crispEdges" fill="rgb(238, 197, 74)"  x="11" y="29" width="1" height="1" /><rect shape-rendering="crispEdges" fill="rgb(189, 98, 41)"  x="11" y="30" width="1" height="1" /><rect shape-rendering="crispEdges" fill="rgb(131, 98, 106)"  x="12" y="2" width="1" height="1" /><rect shape-rendering="crispEdges" fill="rgb(49, 0, 24)"  x="12" y="3" width="1" height="1" /><rect shape-rendering="crispEdges" fill="rgb(222, 98, 106)"  x="12" y="4" width="1" height="1" /><rect shape-rendering="crispEdges" fill="rgb(82, 24, 41)"  x="12" y="5" width="1" height="1" /><rect shape-rendering="crispEdges" fill="rgb(164, 49, 74)"  x="12" y="6" width="1" height="1" /><rect shape-rendering="crispEdges" fill="rgb(82, 24, 41)"  x="12" y="7" width="1" height="1" /><rect shape-rendering="crispEdges" fill="rgb(164, 49, 74)"  x="12" y="8" width="1" height="1" /><rect shape-rendering="crispEdges" fill="rgb(148, 49, 74)"  x="12" y="9" width="1" height="1" /><rect shape-rendering="crispEdges" fill="rgb(82, 24, 41)"  x="12" y="10" width="1" height="1" /><rect shape-rendering="crispEdges" fill="rgb(115, 41, 57)"  x="12" y="11" width="1" height="1" /><rect shape-rendering="crispEdges" fill="rgb(213, 98, 106)"  x="12" y="12" width="1" height="1" /><rect shape-rendering="crispEdges" fill="rgb(213, 106, 115)"  x="12" y="13" width="1" height="1" /><rect shape-rendering="crispEdges" fill="rgb(255, 230, 172)"  x="12" y="14" width="1" height="1" /><rect shape-rendering="crispEdges" fill="rgb(82, 49, 57)"  x="12" y="15" width="1" height="1" /><rect shape-rendering="crispEdges" fill="rgb(255, 230, 172)"  x="12" y="16" width="1" height="1" /><rect shape-rendering="crispEdges" fill="rgb(115, 74, 82)"  x="12" y="17" width="1" height="1" /><rect shape-rendering="crispEdges" fill="rgb(82, 49, 57)"  x="12" y="18" width="1" height="1" /><rect shape-rendering="crispEdges" fill="rgb(255, 230, 172)"  x="12" y="19" width="1" height="1" /><rect shape-rendering="crispEdges" fill="rgb(82, 49, 57)"  x="12" y="20" width="1" height="1" /><rect shape-rendering="crispEdges" fill="rgb(213, 139, 123)"  x="12" y="21" width="1" height="1" /><rect shape-rendering="crispEdges" fill="rgb(180, 74, 98)"  x="12" y="22" width="1" height="1" /><rect shape-rendering="crispEdges" fill="rgb(57, 41, 49)"  x="12" y="23" width="1" height="1" /><rect shape-rendering="crispEdges" fill="rgb(197, 57, 57)"  x="12" y="24" width="1" height="1" /><rect shape-rendering="crispEdges" fill="rgb(238, 197, 82)"  x="12" y="25" width="1" height="1" /><rect shape-rendering="crispEdges" fill="rgb(131, 49, 49)"  x="12" y="26" width="1" height="1" /><rect shape-rendering="crispEdges" fill="rgb(57, 41, 49)"  x="12" y="27" width="1" height="1" /><rect shape-rendering="crispEdges" fill="rgb(57, 41, 49)"  x="12" y="28" width="1" height="1" /><rect shape-rendering="crispEdges" fill="rgb(238, 197, 74)"  x="12" y="29" width="1" height="1" /><rect shape-rendering="crispEdges" fill="rgb(189, 98, 49)"  x="12" y="30" width="1" height="1" /><rect shape-rendering="crispEdges" fill="rgb(49, 0, 24)"  x="13" y="2" width="1" height="1" /><rect shape-rendering="crispEdges" fill="rgb(205, 197, 213)"  x="13" y="3" width="1" height="1" /><rect shape-rendering="crispEdges" fill="rgb(49, 0, 24)"  x="13" y="4" width="1" height="1" /><rect shape-rendering="crispEdges" fill="rgb(82, 24, 41)"  x="13" y="5" width="1" height="1" /><rect shape-rendering="crispEdges" fill="rgb(82, 24, 41)"  x="13" y="6" width="1" height="1" /><rect shape-rendering="crispEdges" fill="rgb(82, 24, 41)"  x="13" y="7" width="1" height="1" /><rect shape-rendering="crispEdges" fill="rgb(82, 24, 41)"  x="13" y="8" width="1" height="1" /><rect shape-rendering="crispEdges" fill="rgb(82, 24, 41)"  x="13" y="9" width="1" height="1" /><rect shape-rendering="crispEdges" fill="rgb(82, 24, 41)"  x="13" y="10" width="1" height="1" /><rect shape-rendering="crispEdges" fill="rgb(82, 24, 41)"  x="13" y="11" width="1" height="1" /><rect shape-rendering="crispEdges" fill="rgb(82, 24, 41)"  x="13" y="12" width="1" height="1" /><rect shape-rendering="crispEdges" fill="rgb(82, 24, 41)"  x="13" y="13" width="1" height="1" /><rect shape-rendering="crispEdges" fill="rgb(82, 24, 41)"  x="13" y="14" width="1" height="1" /><rect shape-rendering="crispEdges" fill="rgb(82, 24, 41)"  x="13" y="15" width="1" height="1" /><rect shape-rendering="crispEdges" fill="rgb(82, 24, 41)"  x="13" y="16" width="1" height="1" /><rect shape-rendering="crispEdges" fill="rgb(82, 49, 57)"  x="13" y="17" width="1" height="1" /><rect shape-rendering="crispEdges" fill="rgb(82, 49, 57)"  x="13" y="18" width="1" height="1" /><rect shape-rendering="crispEdges" fill="rgb(255, 230, 172)"  x="13" y="19" width="1" height="1" /><rect shape-rendering="crispEdges" fill="rgb(82, 49, 57)"  x="13" y="20" width="1" height="1" /><rect shape-rendering="crispEdges" fill="rgb(213, 139, 123)"  x="13" y="21" width="1" height="1" /><rect shape-rendering="crispEdges" fill="rgb(180, 74, 98)"  x="13" y="22" width="1" height="1" /><rect shape-rendering="crispEdges" fill="rgb(57, 41, 49)"  x="13" y="23" width="1" height="1" /><rect shape-rendering="crispEdges" fill="rgb(197, 57, 65)"  x="13" y="24" width="1" height="1" /><rect shape-rendering="crispEdges" fill="rgb(205, 65, 65)"  x="13" y="25" width="1" height="1" /><rect shape-rendering="crispEdges" fill="rgb(148, 49, 57)"  x="13" y="26" width="1" height="1" /><rect shape-rendering="crispEdges" fill="rgb(57, 41, 49)"  x="13" y="27" width="1" height="1" /><rect shape-rendering="crispEdges" fill="rgb(57, 41, 49)"  x="13" y="28" width="1" height="1" /><rect shape-rendering="crispEdges" fill="rgb(238, 197, 74)"  x="13" y="29" width="1" height="1" /><rect shape-rendering="crispEdges" fill="rgb(189, 90, 41)"  x="13" y="30" width="1" height="1" /><rect shape-rendering="crispEdges" fill="rgb(57, 24, 49)"  x="14" y="2" width="1" height="1" /><rect shape-rendering="crispEdges" fill="rgb(57, 24, 49)"  x="14" y="3" width="1" height="1" /><rect shape-rendering="crispEdges" fill="rgb(205, 197, 213)"  x="14" y="4" width="1" height="1" /><rect shape-rendering="crispEdges" fill="rgb(82, 24, 41)"  x="14" y="5" width="1" height="1" /><rect shape-rendering="crispEdges" fill="rgb(82, 24, 41)"  x="14" y="6" width="1" height="1" /><rect shape-rendering="crispEdges" fill="rgb(82, 24, 41)"  x="14" y="7" width="1" height="1" /><rect shape-rendering="crispEdges" fill="rgb(115, 32, 57)"  x="14" y="8" width="1" height="1" /><rect shape-rendering="crispEdges" fill="rgb(123, 41, 65)"  x="14" y="9" width="1" height="1" /><rect shape-rendering="crispEdges" fill="rgb(131, 41, 65)"  x="14" y="10" width="1" height="1" /><rect shape-rendering="crispEdges" fill="rgb(131, 41, 65)"  x="14" y="11" width="1" height="1" /><rect shape-rendering="crispEdges" fill="rgb(148, 41, 74)"  x="14" y="12" width="1" height="1" /><rect shape-rendering="crispEdges" fill="rgb(180, 65, 82)"  x="14" y="13" width="1" height="1" /><rect shape-rendering="crispEdges" fill="rgb(180, 65, 82)"  x="14" y="14" width="1" height="1" /><rect shape-rendering="crispEdges" fill="rgb(180, 65, 82)"  x="14" y="15" width="1" height="1" /><rect shape-rendering="crispEdges" fill="rgb(82, 24, 41)"  x="14" y="16" width="1" height="1" /><rect shape-rendering="crispEdges" fill="rgb(222, 164, 131)"  x="14" y="17" width="1" height="1" /><rect shape-rendering="crispEdges" fill="rgb(238, 197, 156)"  x="14" y="18" width="1" height="1" /><rect shape-rendering="crispEdges" fill="rgb(74, 49, 57)"  x="14" y="19" width="1" height="1" /><rect shape-rendering="crispEdges" fill="rgb(74, 49, 57)"  x="14" y="20" width="1" height="1" /><rect shape-rendering="crispEdges" fill="rgb(213, 139, 115)"  x="14" y="21" width="1" height="1" /><rect shape-rendering="crispEdges" fill="rgb(156, 65, 90)"  x="14" y="22" width="1" height="1" /><rect shape-rendering="crispEdges" fill="rgb(57, 41, 49)"  x="14" y="23" width="1" height="1" /><rect shape-rendering="crispEdges" fill="rgb(189, 57, 57)"  x="14" y="24" width="1" height="1" /><rect shape-rendering="crispEdges" fill="rgb(238, 180, 65)"  x="14" y="25" width="1" height="1" /><rect shape-rendering="crispEdges" fill="rgb(148, 49, 49)"  x="14" y="26" width="1" height="1" /><rect shape-rendering="crispEdges" fill="rgb(57, 41, 49)"  x="14" y="27" width="1" height="1" /><rect shape-rendering="crispEdges" fill="rgb(57, 41, 49)"  x="14" y="28" width="1" height="1" /><rect shape-rendering="crispEdges" fill="rgb(238, 197, 74)"  x="14" y="29" width="1" height="1" /><rect shape-rendering="crispEdges" fill="rgb(189, 90, 41)"  x="14" y="30" width="1" height="1" /><rect shape-rendering="crispEdges" fill="rgb(57, 24, 49)"  x="15" y="2" width="1" height="1" /><rect shape-rendering="crispEdges" fill="rgb(57, 24, 49)"  x="15" y="3" width="1" height="1" /><rect shape-rendering="crispEdges" fill="rgb(205, 197, 213)"  x="15" y="4" width="1" height="1" /><rect shape-rendering="crispEdges" fill="rgb(82, 24, 41)"  x="15" y="5" width="1" height="1" /><rect shape-rendering="crispEdges" fill="rgb(164, 49, 74)"  x="15" y="6" width="1" height="1" /><rect shape-rendering="crispEdges" fill="rgb(82, 24, 41)"  x="15" y="7" width="1" height="1" /><rect shape-rendering="crispEdges" fill="rgb(82, 24, 41)"  x="15" y="8" width="1" height="1" /><rect shape-rendering="crispEdges" fill="rgb(82, 24, 41)"  x="15" y="9" width="1" height="1" /><rect shape-rendering="crispEdges" fill="rgb(82, 24, 41)"  x="15" y="10" width="1" height="1" /><rect shape-rendering="crispEdges" fill="rgb(197, 82, 98)"  x="15" y="11" width="1" height="1" /><rect shape-rendering="crispEdges" fill="rgb(197, 82, 98)"  x="15" y="12" width="1" height="1" /><rect shape-rendering="crispEdges" fill="rgb(197, 82, 98)"  x="15" y="13" width="1" height="1" /><rect shape-rendering="crispEdges" fill="rgb(197, 82, 98)"  x="15" y="14" width="1" height="1" /><rect shape-rendering="crispEdges" fill="rgb(197, 82, 98)"  x="15" y="15" width="1" height="1" /><rect shape-rendering="crispEdges" fill="rgb(82, 24, 41)"  x="15" y="16" width="1" height="1" /><rect shape-rendering="crispEdges" fill="rgb(82, 49, 57)"  x="15" y="17" width="1" height="1" /><rect shape-rendering="crispEdges" fill="rgb(74, 49, 57)"  x="15" y="18" width="1" height="1" /><rect shape-rendering="crispEdges" fill="rgb(74, 49, 57)"  x="15" y="19" width="1" height="1" /><rect shape-rendering="crispEdges" fill="rgb(213, 139, 123)"  x="15" y="20" width="1" height="1" /><rect shape-rendering="crispEdges" fill="rgb(180, 74, 98)"  x="15" y="21" width="1" height="1" /><rect shape-rendering="crispEdges" fill="rgb(57, 41, 49)"  x="15" y="22" width="1" height="1" /><rect shape-rendering="crispEdges" fill="rgb(57, 41, 49)"  x="15" y="23" width="1" height="1" /><rect shape-rendering="crispEdges" fill="rgb(172, 49, 49)"  x="15" y="24" width="1" height="1" /><rect shape-rendering="crispEdges" fill="rgb(180, 65, 57)"  x="15" y="25" width="1" height="1" /><rect shape-rendering="crispEdges" fill="rgb(148, 41, 49)"  x="15" y="26" width="1" height="1" /><rect shape-rendering="crispEdges" fill="rgb(57, 41, 49)"  x="15" y="27" width="1" height="1" /><rect shape-rendering="crispEdges" fill="rgb(57, 41, 49)"  x="15" y="28" width="1" height="1" /><rect shape-rendering="crispEdges" fill="rgb(222, 156, 41)"  x="15" y="29" width="1" height="1" /><rect shape-rendering="crispEdges" fill="rgb(189, 90, 41)"  x="15" y="30" width="1" height="1" /><rect shape-rendering="crispEdges" fill="rgb(57, 24, 49)"  x="16" y="2" width="1" height="1" /><rect shape-rendering="crispEdges" fill="rgb(205, 197, 213)"  x="16" y="3" width="1" height="1" /><rect shape-rendering="crispEdges" fill="rgb(82, 24, 41)"  x="16" y="4" width="1" height="1" /><rect shape-rendering="crispEdges" fill="rgb(180, 65, 82)"  x="16" y="5" width="1" height="1" /><rect shape-rendering="crispEdges" fill="rgb(164, 49, 74)"  x="16" y="6" width="1" height="1" /><rect shape-rendering="crispEdges" fill="rgb(82, 24, 41)"  x="16" y="7" width="1" height="1" /><rect shape-rendering="crispEdges" fill="rgb(164, 74, 82)"  x="16" y="8" width="1" height="1" /><rect shape-rendering="crispEdges" fill="rgb(115, 41, 57)"  x="16" y="9" width="1" height="1" /><rect shape-rendering="crispEdges" fill="rgb(131, 57, 65)"  x="16" y="10" width="1" height="1" /><rect shape-rendering="crispEdges" fill="rgb(82, 24, 41)"  x="16" y="11" width="1" height="1" /><rect shape-rendering="crispEdges" fill="rgb(82, 24, 41)"  x="16" y="12" width="1" height="1" /><rect shape-rendering="crispEdges" fill="rgb(82, 24, 41)"  x="16" y="13" width="1" height="1" /><rect shape-rendering="crispEdges" fill="rgb(82, 24, 41)"  x="16" y="14" width="1" height="1" /><rect shape-rendering="crispEdges" fill="rgb(82, 24, 41)"  x="16" y="15" width="1" height="1" /><rect shape-rendering="crispEdges" fill="rgb(82, 24, 41)"  x="16" y="16" width="1" height="1" /><rect shape-rendering="crispEdges" fill="rgb(213, 148, 123)"  x="16" y="17" width="1" height="1" /><rect shape-rendering="crispEdges" fill="rgb(213, 148, 123)"  x="16" y="18" width="1" height="1" /><rect shape-rendering="crispEdges" fill="rgb(213, 148, 123)"  x="16" y="19" width="1" height="1" /><rect shape-rendering="crispEdges" fill="rgb(180, 74, 98)"  x="16" y="20" width="1" height="1" /><rect shape-rendering="crispEdges" fill="rgb(57, 41, 49)"  x="16" y="21" width="1" height="1" /><rect shape-rendering="crispEdges" fill="rgb(57, 41, 49)"  x="16" y="22" width="1" height="1" /><rect shape-rendering="crispEdges" fill="rgb(156, 32, 41)"  x="16" y="23" width="1" height="1" /><rect shape-rendering="crispEdges" fill="rgb(156, 41, 41)"  x="16" y="24" width="1" height="1" /><rect shape-rendering="crispEdges" fill="rgb(156, 49, 49)"  x="16" y="25" width="1" height="1" /><rect shape-rendering="crispEdges" fill="rgb(148, 41, 41)"  x="16" y="26" width="1" height="1" /><rect shape-rendering="crispEdges" fill="rgb(57, 41, 49)"  x="16" y="27" width="1" height="1" /><rect shape-rendering="crispEdges" fill="rgb(57, 41, 49)"  x="16" y="28" width="1" height="1" /><rect shape-rendering="crispEdges" fill="rgb(222, 156, 41)"  x="16" y="29" width="1" height="1" /><rect shape-rendering="crispEdges" fill="rgb(189, 90, 41)"  x="16" y="30" width="1" height="1" /><rect shape-rendering="crispEdges" fill="rgb(131, 98, 106)"  x="17" y="2" width="1" height="1" /><rect shape-rendering="crispEdges" fill="rgb(49, 0, 24)"  x="17" y="3" width="1" height="1" /><rect shape-rendering="crispEdges" fill="rgb(82, 24, 41)"  x="17" y="4" width="1" height="1" /><rect shape-rendering="crispEdges" fill="rgb(180, 65, 82)"  x="17" y="5" width="1" height="1" /><rect shape-rendering="crispEdges" fill="rgb(164, 49, 74)"  x="17" y="6" width="1" height="1" /><rect shape-rendering="crispEdges" fill="rgb(82, 24, 41)"  x="17" y="7" width="1" height="1" /><rect shape-rendering="crispEdges" fill="rgb(164, 74, 82)"  x="17" y="8" width="1" height="1" /><rect shape-rendering="crispEdges" fill="rgb(115, 41, 57)"  x="17" y="9" width="1" height="1" /><rect shape-rendering="crispEdges" fill="rgb(156, 65, 74)"  x="17" y="10" width="1" height="1" /><rect shape-rendering="crispEdges" fill="rgb(180, 82, 90)"  x="17" y="11" width="1" height="1" /><rect shape-rendering="crispEdges" fill="rgb(213, 106, 115)"  x="17" y="12" width="1" height="1" /><rect shape-rendering="crispEdges" fill="rgb(213, 106, 115)"  x="17" y="13" width="1" height="1" /><rect shape-rendering="crispEdges" fill="rgb(213, 106, 115)"  x="17" y="14" width="1" height="1" /><rect shape-rendering="crispEdges" fill="rgb(213, 106, 115)"  x="17" y="15" width="1" height="1" /><rect shape-rendering="crispEdges" fill="rgb(213, 106, 115)"  x="17" y="16" width="1" height="1" /><rect shape-rendering="crispEdges" fill="rgb(180, 74, 98)"  x="17" y="17" width="1" height="1" /><rect shape-rendering="crispEdges" fill="rgb(180, 74, 98)"  x="17" y="18" width="1" height="1" /><rect shape-rendering="crispEdges" fill="rgb(180, 74, 98)"  x="17" y="19" width="1" height="1" /><rect shape-rendering="crispEdges" fill="rgb(57, 41, 49)"  x="17" y="20" width="1" height="1" /><rect shape-rendering="crispEdges" fill="rgb(57, 41, 49)"  x="17" y="21" width="1" height="1" /><rect shape-rendering="crispEdges" fill="rgb(115, 24, 32)"  x="17" y="22" width="1" height="1" /><rect shape-rendering="crispEdges" fill="rgb(131, 24, 32)"  x="17" y="23" width="1" height="1" /><rect shape-rendering="crispEdges" fill="rgb(139, 24, 32)"  x="17" y="24" width="1" height="1" /><rect shape-rendering="crispEdges" fill="rgb(238, 197, 82)"  x="17" y="25" width="1" height="1" /><rect shape-rendering="crispEdges" fill="rgb(131, 32, 32)"  x="17" y="26" width="1" height="1" /><rect shape-rendering="crispEdges" fill="rgb(57, 41, 49)"  x="17" y="27" width="1" height="1" /><rect shape-rendering="crispEdges" fill="rgb(57, 41, 49)"  x="17" y="28" width="1" height="1" /><rect shape-rendering="crispEdges" fill="rgb(197, 106, 41)"  x="17" y="29" width="1" height="1" /><rect shape-rendering="crispEdges" fill="rgb(189, 90, 41)"  x="17" y="30" width="1" height="1" /><rect shape-rendering="crispEdges" fill="rgb(49, 0, 24)"  x="18" y="2" width="1" height="1" /><rect shape-rendering="crispEdges" fill="rgb(230, 123, 115)"  x="18" y="3" width="1" height="1" /><rect shape-rendering="crispEdges" fill="rgb(222, 98, 106)"  x="18" y="4" width="1" height="1" /><rect shape-rendering="crispEdges" fill="rgb(82, 24, 41)"  x="18" y="5" width="1" height="1" /><rect shape-rendering="crispEdges" fill="rgb(82, 24, 41)"  x="18" y="6" width="1" height="1" /><rect shape-rendering="crispEdges" fill="rgb(148, 65, 74)"  x="18" y="7" width="1" height="1" /><rect shape-rendering="crispEdges" fill="rgb(106, 41, 57)"  x="18" y="8" width="1" height="1" /><rect shape-rendering="crispEdges" fill="rgb(115, 41, 57)"  x="18" y="9" width="1" height="1" /><rect shape-rendering="crispEdges" fill="rgb(238, 197, 74)"  x="18" y="10" width="1" height="1" /><rect shape-rendering="crispEdges" fill="rgb(238, 197, 74)"  x="18" y="11" width="1" height="1" /><rect shape-rendering="crispEdges" fill="rgb(205, 106, 32)"  x="18" y="12" width="1" height="1" /><rect shape-rendering="crispEdges" fill="rgb(213, 106, 115)"  x="18" y="13" width="1" height="1" /><rect shape-rendering="crispEdges" fill="rgb(180, 74, 98)"  x="18" y="14" width="1" height="1" /><rect shape-rendering="crispEdges" fill="rgb(180, 74, 98)"  x="18" y="15" width="1" height="1" /><rect shape-rendering="crispEdges" fill="rgb(180, 74, 98)"  x="18" y="16" width="1" height="1" /><rect shape-rendering="crispEdges" fill="rgb(180, 74, 98)"  x="18" y="17" width="1" height="1" /><rect shape-rendering="crispEdges" fill="rgb(180, 74, 98)"  x="18" y="18" width="1" height="1" /><rect shape-rendering="crispEdges" fill="rgb(57, 41, 49)"  x="18" y="19" width="1" height="1" /><rect shape-rendering="crispEdges" fill="rgb(57, 41, 49)"  x="18" y="20" width="1" height="1" /><rect shape-rendering="crispEdges" fill="rgb(115, 24, 32)"  x="18" y="21" width="1" height="1" /><rect shape-rendering="crispEdges" fill="rgb(123, 24, 32)"  x="18" y="22" width="1" height="1" /><rect shape-rendering="crispEdges" fill="rgb(123, 24, 32)"  x="18" y="23" width="1" height="1" /><rect shape-rendering="crispEdges" fill="rgb(123, 24, 32)"  x="18" y="24" width="1" height="1" /><rect shape-rendering="crispEdges" fill="rgb(139, 16, 32)"  x="18" y="25" width="1" height="1" /><rect shape-rendering="crispEdges" fill="rgb(123, 32, 32)"  x="18" y="26" width="1" height="1" /><rect shape-rendering="crispEdges" fill="rgb(57, 41, 49)"  x="18" y="27" width="1" height="1" /><rect shape-rendering="crispEdges" fill="rgb(57, 41, 49)"  x="18" y="28" width="1" height="1" /><rect shape-rendering="crispEdges" fill="rgb(197, 106, 41)"  x="18" y="29" width="1" height="1" /><rect shape-rendering="crispEdges" fill="rgb(189, 90, 41)"  x="18" y="30" width="1" height="1" /><rect shape-rendering="crispEdges" fill="rgb(230, 148, 106)"  x="19" y="2" width="1" height="1" /><rect shape-rendering="crispEdges" fill="rgb(148, 57, 74)"  x="19" y="3" width="1" height="1" /><rect shape-rendering="crispEdges" fill="rgb(222, 98, 106)"  x="19" y="4" width="1" height="1" /><rect shape-rendering="crispEdges" fill="rgb(131, 49, 65)"  x="19" y="5" width="1" height="1" /><rect shape-rendering="crispEdges" fill="rgb(139, 57, 65)"  x="19" y="6" width="1" height="1" /><rect shape-rendering="crispEdges" fill="rgb(148, 65, 74)"  x="19" y="7" width="1" height="1" /><rect shape-rendering="crispEdges" fill="rgb(115, 41, 57)"  x="19" y="8" width="1" height="1" /><rect shape-rendering="crispEdges" fill="rgb(205, 106, 32)"  x="19" y="9" width="1" height="1" /><rect shape-rendering="crispEdges" fill="rgb(57, 24, 32)"  x="19" y="10" width="1" height="1" /><rect shape-rendering="crispEdges" fill="rgb(57, 24, 32)"  x="19" y="11" width="1" height="1" /><rect shape-rendering="crispEdges" fill="rgb(57, 24, 32)"  x="19" y="12" width="1" height="1" /><rect shape-rendering="crispEdges" fill="rgb(205, 106, 32)"  x="19" y="13" width="1" height="1" /><rect shape-rendering="crispEdges" fill="rgb(115, 24, 32)"  x="19" y="14" width="1" height="1" /><rect shape-rendering="crispEdges" fill="rgb(115, 24, 32)"  x="19" y="15" width="1" height="1" /><rect shape-rendering="crispEdges" fill="rgb(115, 24, 32)"  x="19" y="16" width="1" height="1" /><rect shape-rendering="crispEdges" fill="rgb(90, 24, 41)"  x="19" y="17" width="1" height="1" /><rect shape-rendering="crispEdges" fill="rgb(57, 41, 49)"  x="19" y="18" width="1" height="1" /><rect shape-rendering="crispEdges" fill="rgb(57, 41, 49)"  x="19" y="19" width="1" height="1" /><rect shape-rendering="crispEdges" fill="rgb(115, 24, 32)"  x="19" y="20" width="1" height="1" /><rect shape-rendering="crispEdges" fill="rgb(172, 49, 49)"  x="19" y="21" width="1" height="1" /><rect shape-rendering="crispEdges" fill="rgb(180, 49, 49)"  x="19" y="22" width="1" height="1" /><rect shape-rendering="crispEdges" fill="rgb(164, 41, 41)"  x="19" y="23" width="1" height="1" /><rect shape-rendering="crispEdges" fill="rgb(156, 41, 41)"  x="19" y="24" width="1" height="1" /><rect shape-rendering="crispEdges" fill="rgb(164, 49, 49)"  x="19" y="25" width="1" height="1" /><rect shape-rendering="crispEdges" fill="rgb(148, 41, 49)"  x="19" y="26" width="1" height="1" /><rect shape-rendering="crispEdges" fill="rgb(57, 41, 49)"  x="19" y="27" width="1" height="1" /><rect shape-rendering="crispEdges" fill="rgb(57, 41, 49)"  x="19" y="28" width="1" height="1" /><rect shape-rendering="crispEdges" fill="rgb(197, 106, 41)"  x="19" y="29" width="1" height="1" /><rect shape-rendering="crispEdges" fill="rgb(189, 90, 41)"  x="19" y="30" width="1" height="1" /><rect shape-rendering="crispEdges" fill="rgb(131, 98, 106)"  x="20" y="2" width="1" height="1" /><rect shape-rendering="crispEdges" fill="rgb(246, 246, 230)"  x="20" y="3" width="1" height="1" /><rect shape-rendering="crispEdges" fill="rgb(205, 197, 213)"  x="20" y="4" width="1" height="1" /><rect shape-rendering="crispEdges" fill="rgb(205, 197, 213)"  x="20" y="5" width="1" height="1" /><rect shape-rendering="crispEdges" fill="rgb(205, 197, 213)"  x="20" y="6" width="1" height="1" /><rect shape-rendering="crispEdges" fill="rgb(156, 148, 156)"  x="20" y="7" width="1" height="1" /><rect shape-rendering="crispEdges" fill="rgb(123, 57, 65)"  x="20" y="8" width="1" height="1" /><rect shape-rendering="crispEdges" fill="rgb(65, 49, 41)"  x="20" y="9" width="1" height="1" /><rect shape-rendering="crispEdges" fill="rgb(82, 24, 41)"  x="20" y="12" width="1" height="1" /><rect shape-rendering="crispEdges" fill="rgb(57, 24, 32)"  x="20" y="13" width="1" height="1" /><rect shape-rendering="crispEdges" fill="rgb(131, 32, 32)"  x="20" y="14" width="1" height="1" /><rect shape-rendering="crispEdges" fill="rgb(115, 32, 32)"  x="20" y="15" width="1" height="1" /><rect shape-rendering="crispEdges" fill="rgb(115, 32, 32)"  x="20" y="16" width="1" height="1" /><rect shape-rendering="crispEdges" fill="rgb(115, 32, 32)"  x="20" y="17" width="1" height="1" /><rect shape-rendering="crispEdges" fill="rgb(123, 24, 32)"  x="20" y="18" width="1" height="1" /><rect shape-rendering="crispEdges" fill="rgb(123, 32, 41)"  x="20" y="19" width="1" height="1" /><rect shape-rendering="crispEdges" fill="rgb(205, 49, 41)"  x="20" y="20" width="1" height="1" /><rect shape-rendering="crispEdges" fill="rgb(205, 57, 49)"  x="20" y="21" width="1" height="1" /><rect shape-rendering="crispEdges" fill="rgb(205, 57, 49)"  x="20" y="22" width="1" height="1" /><rect shape-rendering="crispEdges" fill="rgb(189, 57, 57)"  x="20" y="23" width="1" height="1" /><rect shape-rendering="crispEdges" fill="rgb(189, 49, 57)"  x="20" y="24" width="1" height="1" /><rect shape-rendering="crispEdges" fill="rgb(238, 197, 82)"  x="20" y="25" width="1" height="1" /><rect shape-rendering="crispEdges" fill="rgb(148, 49, 57)"  x="20" y="26" width="1" height="1" /><rect shape-rendering="crispEdges" fill="rgb(57, 41, 49)"  x="20" y="27" width="1" height="1" /><rect shape-rendering="crispEdges" fill="rgb(57, 41, 49)"  x="20" y="28" width="1" height="1" /><rect shape-rendering="crispEdges" fill="rgb(213, 131, 32)"  x="20" y="29" width="1" height="1" /><rect shape-rendering="crispEdges" fill="rgb(189, 90, 41)"  x="20" y="30" width="1" height="1" /><rect shape-rendering="crispEdges" fill="rgb(131, 98, 106)"  x="21" y="2" width="1" height="1" /><rect shape-rendering="crispEdges" fill="rgb(246, 246, 230)"  x="21" y="3" width="1" height="1" /><rect shape-rendering="crispEdges" fill="rgb(74, 57, 74)"  x="21" y="4" width="1" height="1" /><rect shape-rendering="crispEdges" fill="rgb(74, 57, 74)"  x="21" y="5" width="1" height="1" /><rect shape-rendering="crispEdges" fill="rgb(74, 57, 74)"  x="21" y="6" width="1" height="1" /><rect shape-rendering="crispEdges" fill="rgb(74, 57, 74)"  x="21" y="7" width="1" height="1" /><rect shape-rendering="crispEdges" fill="rgb(156, 148, 156)"  x="21" y="8" width="1" height="1" /><rect shape-rendering="crispEdges" fill="rgb(65, 41, 57)"  x="21" y="9" width="1" height="1" /><rect shape-rendering="crispEdges" fill="rgb(82, 24, 41)"  x="21" y="13" width="1" height="1" /><rect shape-rendering="crispEdges" fill="rgb(156, 49, 57)"  x="21" y="14" width="1" height="1" /><rect shape-rendering="crispEdges" fill="rgb(115, 32, 32)"  x="21" y="15" width="1" height="1" /><rect shape-rendering="crispEdges" fill="rgb(115, 32, 32)"  x="21" y="16" width="1" height="1" /><rect shape-rendering="crispEdges" fill="rgb(139, 32, 41)"  x="21" y="17" width="1" height="1" /><rect shape-rendering="crispEdges" fill="rgb(148, 41, 41)"  x="21" y="18" width="1" height="1" /><rect shape-rendering="crispEdges" fill="rgb(172, 41, 41)"  x="21" y="19" width="1" height="1" /><rect shape-rendering="crispEdges" fill="rgb(197, 49, 49)"  x="21" y="20" width="1" height="1" /><rect shape-rendering="crispEdges" fill="rgb(197, 49, 49)"  x="21" y="21" width="1" height="1" /><rect shape-rendering="crispEdges" fill="rgb(205, 57, 49)"  x="21" y="22" width="1" height="1" /><rect shape-rendering="crispEdges" fill="rgb(205, 57, 49)"  x="21" y="23" width="1" height="1" /><rect shape-rendering="crispEdges" fill="rgb(197, 57, 57)"  x="21" y="24" width="1" height="1" /><rect shape-rendering="crispEdges" fill="rgb(213, 57, 57)"  x="21" y="25" width="1" height="1" /><rect shape-rendering="crispEdges" fill="rgb(131, 49, 65)"  x="21" y="26" width="1" height="1" /><rect shape-rendering="crispEdges" fill="rgb(57, 41, 49)"  x="21" y="27" width="1" height="1" /><rect shape-rendering="crispEdges" fill="rgb(57, 41, 49)"  x="21" y="28" width="1" height="1" /><rect shape-rendering="crispEdges" fill="rgb(222, 156, 41)"  x="21" y="29" width="1" height="1" /><rect shape-rendering="crispEdges" fill="rgb(189, 90, 41)"  x="21" y="30" width="1" height="1" /><rect shape-rendering="crispEdges" fill="rgb(131, 98, 106)"  x="22" y="2" width="1" height="1" /><rect shape-rendering="crispEdges" fill="rgb(246, 246, 230)"  x="22" y="3" width="1" height="1" /><rect shape-rendering="crispEdges" fill="rgb(205, 197, 213)"  x="22" y="4" width="1" height="1" /><rect shape-rendering="crispEdges" fill="rgb(205, 197, 213)"  x="22" y="5" width="1" height="1" /><rect shape-rendering="crispEdges" fill="rgb(205, 197, 213)"  x="22" y="6" width="1" height="1" /><rect shape-rendering="crispEdges" fill="rgb(156, 148, 156)"  x="22" y="7" width="1" height="1" /><rect shape-rendering="crispEdges" fill="rgb(156, 148, 156)"  x="22" y="8" width="1" height="1" /><rect shape-rendering="crispEdges" fill="rgb(65, 41, 57)"  x="22" y="9" width="1" height="1" /><rect shape-rendering="crispEdges" fill="rgb(82, 24, 41)"  x="22" y="14" width="1" height="1" /><rect shape-rendering="crispEdges" fill="rgb(156, 49, 57)"  x="22" y="15" width="1" height="1" /><rect shape-rendering="crispEdges" fill="rgb(156, 49, 57)"  x="22" y="16" width="1" height="1" /><rect shape-rendering="crispEdges" fill="rgb(131, 32, 41)"  x="22" y="17" width="1" height="1" /><rect shape-rendering="crispEdges" fill="rgb(131, 32, 41)"  x="22" y="18" width="1" height="1" /><rect shape-rendering="crispEdges" fill="rgb(148, 32, 41)"  x="22" y="19" width="1" height="1" /><rect shape-rendering="crispEdges" fill="rgb(164, 41, 41)"  x="22" y="20" width="1" height="1" /><rect shape-rendering="crispEdges" fill="rgb(180, 49, 41)"  x="22" y="21" width="1" height="1" /><rect shape-rendering="crispEdges" fill="rgb(189, 49, 49)"  x="22" y="22" width="1" height="1" /><rect shape-rendering="crispEdges" fill="rgb(197, 49, 49)"  x="22" y="23" width="1" height="1" /><rect shape-rendering="crispEdges" fill="rgb(189, 74, 65)"  x="22" y="24" width="1" height="1" /><rect shape-rendering="crispEdges" fill="rgb(238, 197, 82)"  x="22" y="25" width="1" height="1" /><rect shape-rendering="crispEdges" fill="rgb(57, 41, 49)"  x="22" y="26" width="1" height="1" /><rect shape-rendering="crispEdges" fill="rgb(57, 41, 49)"  x="22" y="27" width="1" height="1" /><rect shape-rendering="crispEdges" fill="rgb(222, 156, 41)"  x="22" y="28" width="1" height="1" /><rect shape-rendering="crispEdges" fill="rgb(230, 156, 49)"  x="22" y="29" width="1" height="1" /><rect shape-rendering="crispEdges" fill="rgb(189, 90, 41)"  x="22" y="30" width="1" height="1" /><rect shape-rendering="crispEdges" fill="rgb(131, 98, 106)"  x="23" y="3" width="1" height="1" /><rect shape-rendering="crispEdges" fill="rgb(131, 98, 106)"  x="23" y="4" width="1" height="1" /><rect shape-rendering="crispEdges" fill="rgb(74, 57, 74)"  x="23" y="5" width="1" height="1" /><rect shape-rendering="crispEdges" fill="rgb(74, 57, 74)"  x="23" y="6" width="1" height="1" /><rect shape-rendering="crispEdges" fill="rgb(74, 57, 74)"  x="23" y="7" width="1" height="1" /><rect shape-rendering="crispEdges" fill="rgb(74, 57, 74)"  x="23" y="8" width="1" height="1" /><rect shape-rendering="crispEdges" fill="rgb(82, 24, 41)"  x="23" y="15" width="1" height="1" /><rect shape-rendering="crispEdges" fill="rgb(82, 24, 41)"  x="23" y="16" width="1" height="1" /><rect shape-rendering="crispEdges" fill="rgb(148, 41, 49)"  x="23" y="17" width="1" height="1" /><rect shape-rendering="crispEdges" fill="rgb(131, 32, 41)"  x="23" y="18" width="1" height="1" /><rect shape-rendering="crispEdges" fill="rgb(123, 32, 32)"  x="23" y="19" width="1" height="1" /><rect shape-rendering="crispEdges" fill="rgb(131, 32, 41)"  x="23" y="20" width="1" height="1" /><rect shape-rendering="crispEdges" fill="rgb(139, 32, 41)"  x="23" y="21" width="1" height="1" /><rect shape-rendering="crispEdges" fill="rgb(148, 41, 41)"  x="23" y="22" width="1" height="1" /><rect shape-rendering="crispEdges" fill="rgb(164, 41, 41)"  x="23" y="23" width="1" height="1" /><rect shape-rendering="crispEdges" fill="rgb(164, 41, 49)"  x="23" y="24" width="1" height="1" /><rect shape-rendering="crispEdges" fill="rgb(164, 57, 65)"  x="23" y="25" width="1" height="1" /><rect shape-rendering="crispEdges" fill="rgb(57, 41, 49)"  x="23" y="26" width="1" height="1" /><rect shape-rendering="crispEdges" fill="rgb(57, 41, 49)"  x="23" y="27" width="1" height="1" /><rect shape-rendering="crispEdges" fill="rgb(230, 180, 57)"  x="23" y="28" width="1" height="1" /><rect shape-rendering="crispEdges" fill="rgb(189, 90, 41)"  x="23" y="29" width="1" height="1" /><rect shape-rendering="crispEdges" fill="rgb(82, 24, 41)"  x="24" y="17" width="1" height="1" /><rect shape-rendering="crispEdges" fill="rgb(156, 49, 57)"  x="24" y="18" width="1" height="1" /><rect shape-rendering="crispEdges" fill="rgb(156, 49, 57)"  x="24" y="19" width="1" height="1" /><rect shape-rendering="crispEdges" fill="rgb(123, 32, 32)"  x="24" y="20" width="1" height="1" /><rect shape-rendering="crispEdges" fill="rgb(123, 32, 32)"  x="24" y="21" width="1" height="1" /><rect shape-rendering="crispEdges" fill="rgb(131, 32, 32)"  x="24" y="22" width="1" height="1" /><rect shape-rendering="crispEdges" fill="rgb(131, 32, 41)"  x="24" y="23" width="1" height="1" /><rect shape-rendering="crispEdges" fill="rgb(205, 131, 41)"  x="24" y="24" width="1" height="1" /><rect shape-rendering="crispEdges" fill="rgb(57, 41, 49)"  x="24" y="25" width="1" height="1" /><rect shape-rendering="crispEdges" fill="rgb(57, 41, 49)"  x="24" y="26" width="1" height="1" /><rect shape-rendering="crispEdges" fill="rgb(230, 180, 57)"  x="24" y="27" width="1" height="1" /><rect shape-rendering="crispEdges" fill="rgb(230, 180, 65)"  x="24" y="28" width="1" height="1" /><rect shape-rendering="crispEdges" fill="rgb(189, 90, 41)"  x="24" y="29" width="1" height="1" /><rect shape-rendering="crispEdges" fill="rgb(82, 24, 41)"  x="25" y="18" width="1" height="1" /><rect shape-rendering="crispEdges" fill="rgb(82, 24, 41)"  x="25" y="19" width="1" height="1" /><rect shape-rendering="crispEdges" fill="rgb(156, 49, 57)"  x="25" y="20" width="1" height="1" /><rect shape-rendering="crispEdges" fill="rgb(156, 49, 57)"  x="25" y="21" width="1" height="1" /><rect shape-rendering="crispEdges" fill="rgb(123, 24, 32)"  x="25" y="22" width="1" height="1" /><rect shape-rendering="crispEdges" fill="rgb(180, 106, 41)"  x="25" y="23" width="1" height="1" /><rect shape-rendering="crispEdges" fill="rgb(131, 41, 41)"  x="25" y="24" width="1" height="1" /><rect shape-rendering="crispEdges" fill="rgb(57, 41, 49)"  x="25" y="25" width="1" height="1" /><rect shape-rendering="crispEdges" fill="rgb(57, 41, 49)"  x="25" y="26" width="1" height="1" /><rect shape-rendering="crispEdges" fill="rgb(238, 189, 74)"  x="25" y="27" width="1" height="1" /><rect shape-rendering="crispEdges" fill="rgb(189, 90, 41)"  x="25" y="28" width="1" height="1" /><rect shape-rendering="crispEdges" fill="rgb(82, 24, 41)"  x="26" y="20" width="1" height="1" /><rect shape-rendering="crispEdges" fill="rgb(82, 24, 41)"  x="26" y="21" width="1" height="1" /><rect shape-rendering="crispEdges" fill="rgb(156, 57, 65)"  x="26" y="22" width="1" height="1" /><rect shape-rendering="crispEdges" fill="rgb(57, 41, 49)"  x="26" y="23" width="1" height="1" /><rect shape-rendering="crispEdges" fill="rgb(57, 41, 49)"  x="26" y="24" width="1" height="1" /><rect shape-rendering="crispEdges" fill="rgb(57, 41, 49)"  x="26" y="25" width="1" height="1" /><rect shape-rendering="crispEdges" fill="rgb(222, 148, 41)"  x="26" y="26" width="1" height="1" /><rect shape-rendering="crispEdges" fill="rgb(189, 90, 41)"  x="26" y="27" width="1" height="1" /><rect shape-rendering="crispEdges" fill="rgb(82, 24, 41)"  x="27" y="22" width="1" height="1" /><rect shape-rendering="crispEdges" fill="rgb(57, 41, 49)"  x="27" y="23" width="1" height="1" /><rect shape-rendering="crispEdges" fill="rgb(57, 41, 49)"  x="27" y="24" width="1" height="1" /><rect shape-rendering="crispEdges" fill="rgb(205, 115, 32)"  x="27" y="25" width="1" height="1" /><rect shape-rendering="crispEdges" fill="rgb(189, 90, 41)"  x="27" y="26" width="1" height="1" /><rect shape-rendering="crispEdges" fill="rgb(189, 90, 41)"  x="28" y="24" width="1" height="1" /><rect shape-rendering="crispEdges" fill="rgb(189, 90, 41)"  x="28" y="25" width="1" height="1" /></svg>