<svg xmlns="http://www.w3.org/2000/svg" xmlns:xlink= "http://www.w3.org/1999/xlink" width="32" height="32" viewBox ="0 0 32 32"><rect shape-rendering="crispEdges" fill="rgb(41, 65, 123)"  x="6" y="9" width="1" height="1" /><rect shape-rendering="crispEdges" fill="rgb(41, 65, 98)"  x="6" y="10" width="1" height="1" /><rect shape-rendering="crispEdges" fill="rgb(41, 57, 90)"  x="6" y="11" width="1" height="1" /><rect shape-rendering="crispEdges" fill="rgb(16, 32, 65)"  x="6" y="12" width="1" height="1" /><rect shape-rendering="crispEdges" fill="rgb(24, 49, 82)"  x="6" y="13" width="1" height="1" /><rect shape-rendering="crispEdges" fill="rgb(32, 57, 98)"  x="6" y="14" width="1" height="1" /><rect shape-rendering="crispEdges" fill="rgb(32, 57, 106)"  x="6" y="15" width="1" height="1" /><rect shape-rendering="crispEdges" fill="rgb(32, 57, 98)"  x="6" y="16" width="1" height="1" /><rect shape-rendering="crispEdges" fill="rgb(16, 32, 65)"  x="6" y="17" width="1" height="1" /><rect shape-rendering="crispEdges" fill="rgb(74, 98, 148)"  x="6" y="18" width="1" height="1" /><rect shape-rendering="crispEdges" fill="rgb(131, 156, 197)"  x="6" y="19" width="1" height="1" /><rect shape-rendering="crispEdges" fill="rgb(32, 57, 115)"  x="6" y="20" width="1" height="1" /><rect shape-rendering="crispEdges" fill="rgb(41, 74, 123)"  x="6" y="21" width="1" height="1" /><rect shape-rendering="crispEdges" fill="rgb(49, 82, 139)"  x="7" y="8" width="1" height="1" /><rect shape-rendering="crispEdges" fill="rgb(41, 74, 139)"  x="7" y="9" width="1" height="1" /><rect shape-rendering="crispEdges" fill="rgb(74, 106, 148)"  x="7" y="10" width="1" height="1" /><rect shape-rendering="crispEdges" fill="rgb(148, 164, 205)"  x="7" y="11" width="1" height="1" /><rect shape-rendering="crispEdges" fill="rgb(74, 90, 123)"  x="7" y="12" width="1" height="1" /><rect shape-rendering="crispEdges" fill="rgb(24, 49, 82)"  x="7" y="13" width="1" height="1" /><rect shape-rendering="crispEdges" fill="rgb(41, 74, 123)"  x="7" y="14" width="1" height="1" /><rect shape-rendering="crispEdges" fill="rgb(49, 90, 156)"  x="7" y="15" width="1" height="1" /><rect shape-rendering="crispEdges" fill="rgb(57, 98, 164)"  x="7" y="16" width="1" height="1" /><rect shape-rendering="crispEdges" fill="rgb(41, 74, 131)"  x="7" y="17" width="1" height="1" /><rect shape-rendering="crispEdges" fill="rgb(24, 49, 90)"  x="7" y="18" width="1" height="1" /><rect shape-rendering="crispEdges" fill="rgb(82, 115, 164)"  x="7" y="19" width="1" height="1" /><rect shape-rendering="crispEdges" fill="rgb(82, 115, 164)"  x="7" y="20" width="1" height="1" /><rect shape-rendering="crispEdges" fill="rgb(41, 74, 131)"  x="7" y="21" width="1" height="1" /><rect shape-rendering="crispEdges" fill="rgb(49, 82, 139)"  x="7" y="22" width="1" height="1" /><rect shape-rendering="crispEdges" fill="rgb(41, 65, 123)"  x="7" y="23" width="1" height="1" /><rect shape-rendering="crispEdges" fill="rgb(49, 82, 148)"  x="8" y="6" width="1" height="1" /><rect shape-rendering="crispEdges" fill="rgb(49, 82, 148)"  x="8" y="7" width="1" height="1" /><rect shape-rendering="crispEdges" fill="rgb(57, 106, 197)"  x="8" y="8" width="1" height="1" /><rect shape-rendering="crispEdges" fill="rgb(74, 123, 222)"  x="8" y="9" width="1" height="1" /><rect shape-rendering="crispEdges" fill="rgb(57, 106, 189)"  x="8" y="10" width="1" height="1" /><rect shape-rendering="crispEdges" fill="rgb(65, 98, 164)"  x="8" y="11" width="1" height="1" /><rect shape-rendering="crispEdges" fill="rgb(123, 148, 197)"  x="8" y="12" width="1" height="1" /><rect shape-rendering="crispEdges" fill="rgb(49, 74, 115)"  x="8" y="13" width="1" height="1" /><rect shape-rendering="crispEdges" fill="rgb(32, 57, 98)"  x="8" y="14" width="1" height="1" /><rect shape-rendering="crispEdges" fill="rgb(49, 82, 139)"  x="8" y="15" width="1" height="1" /><rect shape-rendering="crispEdges" fill="rgb(57, 98, 172)"  x="8" y="16" width="1" height="1" /><rect shape-rendering="crispEdges" fill="rgb(49, 82, 148)"  x="8" y="17" width="1" height="1" /><rect shape-rendering="crispEdges" fill="rgb(32, 57, 98)"  x="8" y="18" width="1" height="1" /><rect shape-rendering="crispEdges" fill="rgb(16, 41, 74)"  x="8" y="19" width="1" height="1" /><rect shape-rendering="crispEdges" fill="rgb(98, 123, 172)"  x="8" y="20" width="1" height="1" /><rect shape-rendering="crispEdges" fill="rgb(98, 131, 180)"  x="8" y="21" width="1" height="1" /><rect shape-rendering="crispEdges" fill="rgb(82, 115, 180)"  x="8" y="22" width="1" height="1" /><rect shape-rendering="crispEdges" fill="rgb(82, 115, 172)"  x="8" y="23" width="1" height="1" /><rect shape-rendering="crispEdges" fill="rgb(49, 82, 139)"  x="8" y="24" width="1" height="1" /><rect shape-rendering="crispEdges" fill="rgb(41, 74, 123)"  x="8" y="25" width="1" height="1" /><rect shape-rendering="crispEdges" fill="rgb(41, 74, 131)"  x="9" y="5" width="1" height="1" /><rect shape-rendering="crispEdges" fill="rgb(41, 74, 131)"  x="9" y="6" width="1" height="1" /><rect shape-rendering="crispEdges" fill="rgb(74, 115, 180)"  x="9" y="7" width="1" height="1" /><rect shape-rendering="crispEdges" fill="rgb(180, 180, 131)"  x="9" y="8" width="1" height="1" /><rect shape-rendering="crispEdges" fill="rgb(238, 197, 57)"  x="9" y="9" width="1" height="1" /><rect shape-rendering="crispEdges" fill="rgb(189, 180, 115)"  x="9" y="10" width="1" height="1" /><rect shape-rendering="crispEdges" fill="rgb(148, 156, 131)"  x="9" y="11" width="1" height="1" /><rect shape-rendering="crispEdges" fill="rgb(131, 148, 139)"  x="9" y="12" width="1" height="1" /><rect shape-rendering="crispEdges" fill="rgb(106, 131, 172)"  x="9" y="13" width="1" height="1" /><rect shape-rendering="crispEdges" fill="rgb(24, 49, 90)"  x="9" y="14" width="1" height="1" /><rect shape-rendering="crispEdges" fill="rgb(41, 74, 131)"  x="9" y="15" width="1" height="1" /><rect shape-rendering="crispEdges" fill="rgb(57, 98, 164)"  x="9" y="16" width="1" height="1" /><rect shape-rendering="crispEdges" fill="rgb(49, 90, 156)"  x="9" y="17" width="1" height="1" /><rect shape-rendering="crispEdges" fill="rgb(41, 65, 106)"  x="9" y="18" width="1" height="1" /><rect shape-rendering="crispEdges" fill="rgb(24, 41, 82)"  x="9" y="19" width="1" height="1" /><rect shape-rendering="crispEdges" fill="rgb(24, 41, 74)"  x="9" y="20" width="1" height="1" /><rect shape-rendering="crispEdges" fill="rgb(90, 115, 164)"  x="9" y="21" width="1" height="1" /><rect shape-rendering="crispEdges" fill="rgb(90, 123, 172)"  x="9" y="22" width="1" height="1" /><rect shape-rendering="crispEdges" fill="rgb(98, 139, 205)"  x="9" y="23" width="1" height="1" /><rect shape-rendering="crispEdges" fill="rgb(115, 148, 213)"  x="9" y="24" width="1" height="1" /><rect shape-rendering="crispEdges" fill="rgb(74, 106, 164)"  x="9" y="25" width="1" height="1" /><rect shape-rendering="crispEdges" fill="rgb(32, 65, 123)"  x="9" y="26" width="1" height="1" /><rect shape-rendering="crispEdges" fill="rgb(41, 74, 139)"  x="10" y="5" width="1" height="1" /><rect shape-rendering="crispEdges" fill="rgb(74, 106, 164)"  x="10" y="6" width="1" height="1" /><rect shape-rendering="crispEdges" fill="rgb(213, 213, 106)"  x="10" y="7" width="1" height="1" /><rect shape-rendering="crispEdges" fill="rgb(230, 222, 98)"  x="10" y="8" width="1" height="1" /><rect shape-rendering="crispEdges" fill="rgb(172, 189, 197)"  x="10" y="9" width="1" height="1" /><rect shape-rendering="crispEdges" fill="rgb(164, 197, 238)"  x="10" y="10" width="1" height="1" /><rect shape-rendering="crispEdges" fill="rgb(180, 197, 230)"  x="10" y="11" width="1" height="1" /><rect shape-rendering="crispEdges" fill="rgb(156, 180, 222)"  x="10" y="12" width="1" height="1" /><rect shape-rendering="crispEdges" fill="rgb(115, 148, 197)"  x="10" y="13" width="1" height="1" /><rect shape-rendering="crispEdges" fill="rgb(41, 57, 98)"  x="10" y="14" width="1" height="1" /><rect shape-rendering="crispEdges" fill="rgb(41, 65, 123)"  x="10" y="15" width="1" height="1" /><rect shape-rendering="crispEdges" fill="rgb(49, 90, 156)"  x="10" y="16" width="1" height="1" /><rect shape-rendering="crispEdges" fill="rgb(57, 90, 164)"  x="10" y="17" width="1" height="1" /><rect shape-rendering="crispEdges" fill="rgb(41, 65, 115)"  x="10" y="18" width="1" height="1" /><rect shape-rendering="crispEdges" fill="rgb(32, 49, 82)"  x="10" y="19" width="1" height="1" /><rect shape-rendering="crispEdges" fill="rgb(24, 41, 74)"  x="10" y="20" width="1" height="1" /><rect shape-rendering="crispEdges" fill="rgb(24, 41, 74)"  x="10" y="21" width="1" height="1" /><rect shape-rendering="crispEdges" fill="rgb(90, 115, 164)"  x="10" y="22" width="1" height="1" /><rect shape-rendering="crispEdges" fill="rgb(82, 123, 189)"  x="10" y="23" width="1" height="1" /><rect shape-rendering="crispEdges" fill="rgb(90, 131, 197)"  x="10" y="24" width="1" height="1" /><rect shape-rendering="crispEdges" fill="rgb(123, 156, 213)"  x="10" y="25" width="1" height="1" /><rect shape-rendering="crispEdges" fill="rgb(82, 106, 164)"  x="10" y="26" width="1" height="1" /><rect shape-rendering="crispEdges" fill="rgb(41, 65, 123)"  x="10" y="27" width="1" height="1" /><rect shape-rendering="crispEdges" fill="rgb(41, 74, 131)"  x="11" y="4" width="1" height="1" /><rect shape-rendering="crispEdges" fill="rgb(65, 98, 148)"  x="11" y="5" width="1" height="1" /><rect shape-rendering="crispEdges" fill="rgb(213, 222, 123)"  x="11" y="6" width="1" height="1" /><rect shape-rendering="crispEdges" fill="rgb(180, 205, 180)"  x="11" y="7" width="1" height="1" /><rect shape-rendering="crispEdges" fill="rgb(213, 230, 255)"  x="11" y="8" width="1" height="1" /><rect shape-rendering="crispEdges" fill="rgb(255, 255, 255)"  x="11" y="9" width="1" height="1" /><rect shape-rendering="crispEdges" fill="rgb(255, 255, 255)"  x="11" y="10" width="1" height="1" /><rect shape-rendering="crispEdges" fill="rgb(213, 230, 246)"  x="11" y="11" width="1" height="1" /><rect shape-rendering="crispEdges" fill="rgb(180, 197, 230)"  x="11" y="12" width="1" height="1" /><rect shape-rendering="crispEdges" fill="rgb(115, 148, 197)"  x="11" y="13" width="1" height="1" /><rect shape-rendering="crispEdges" fill="rgb(49, 74, 123)"  x="11" y="14" width="1" height="1" /><rect shape-rendering="crispEdges" fill="rgb(32, 57, 106)"  x="11" y="15" width="1" height="1" /><rect shape-rendering="crispEdges" fill="rgb(49, 90, 156)"  x="11" y="16" width="1" height="1" /><rect shape-rendering="crispEdges" fill="rgb(57, 90, 164)"  x="11" y="17" width="1" height="1" /><rect shape-rendering="crispEdges" fill="rgb(41, 74, 123)"  x="11" y="18" width="1" height="1" /><rect shape-rendering="crispEdges" fill="rgb(32, 49, 90)"  x="11" y="19" width="1" height="1" /><rect shape-rendering="crispEdges" fill="rgb(24, 49, 74)"  x="11" y="20" width="1" height="1" /><rect shape-rendering="crispEdges" fill="rgb(16, 32, 65)"  x="11" y="21" width="1" height="1" /><rect shape-rendering="crispEdges" fill="rgb(57, 82, 131)"  x="11" y="22" width="1" height="1" /><rect shape-rendering="crispEdges" fill="rgb(90, 123, 189)"  x="11" y="23" width="1" height="1" /><rect shape-rendering="crispEdges" fill="rgb(82, 123, 189)"  x="11" y="24" width="1" height="1" /><rect shape-rendering="crispEdges" fill="rgb(82, 123, 197)"  x="11" y="25" width="1" height="1" /><rect shape-rendering="crispEdges" fill="rgb(106, 139, 205)"  x="11" y="26" width="1" height="1" /><rect shape-rendering="crispEdges" fill="rgb(49, 90, 148)"  x="11" y="27" width="1" height="1" /><rect shape-rendering="crispEdges" fill="rgb(49, 82, 148)"  x="12" y="4" width="1" height="1" /><rect shape-rendering="crispEdges" fill="rgb(164, 172, 115)"  x="12" y="5" width="1" height="1" /><rect shape-rendering="crispEdges" fill="rgb(189, 189, 148)"  x="12" y="6" width="1" height="1" /><rect shape-rendering="crispEdges" fill="rgb(205, 222, 255)"  x="12" y="7" width="1" height="1" /><rect shape-rendering="crispEdges" fill="rgb(222, 238, 255)"  x="12" y="8" width="1" height="1" /><rect shape-rendering="crispEdges" fill="rgb(255, 255, 255)"  x="12" y="9" width="1" height="1" /><rect shape-rendering="crispEdges" fill="rgb(246, 255, 255)"  x="12" y="10" width="1" height="1" /><rect shape-rendering="crispEdges" fill="rgb(213, 230, 246)"  x="12" y="11" width="1" height="1" /><rect shape-rendering="crispEdges" fill="rgb(180, 197, 230)"  x="12" y="12" width="1" height="1" /><rect shape-rendering="crispEdges" fill="rgb(106, 148, 213)"  x="12" y="13" width="1" height="1" /><rect shape-rendering="crispEdges" fill="rgb(49, 82, 131)"  x="12" y="14" width="1" height="1" /><rect shape-rendering="crispEdges" fill="rgb(32, 57, 98)"  x="12" y="15" width="1" height="1" /><rect shape-rendering="crispEdges" fill="rgb(49, 90, 148)"  x="12" y="16" width="1" height="1" /><rect shape-rendering="crispEdges" fill="rgb(57, 90, 164)"  x="12" y="17" width="1" height="1" /><rect shape-rendering="crispEdges" fill="rgb(41, 74, 123)"  x="12" y="18" width="1" height="1" /><rect shape-rendering="crispEdges" fill="rgb(32, 49, 90)"  x="12" y="19" width="1" height="1" /><rect shape-rendering="crispEdges" fill="rgb(24, 41, 74)"  x="12" y="20" width="1" height="1" /><rect shape-rendering="crispEdges" fill="rgb(32, 49, 82)"  x="12" y="21" width="1" height="1" /><rect shape-rendering="crispEdges" fill="rgb(106, 131, 180)"  x="12" y="22" width="1" height="1" /><rect shape-rendering="crispEdges" fill="rgb(65, 98, 156)"  x="12" y="23" width="1" height="1" /><rect shape-rendering="crispEdges" fill="rgb(90, 131, 205)"  x="12" y="24" width="1" height="1" /><rect shape-rendering="crispEdges" fill="rgb(82, 123, 197)"  x="12" y="25" width="1" height="1" /><rect shape-rendering="crispEdges" fill="rgb(74, 123, 197)"  x="12" y="26" width="1" height="1" /><rect shape-rendering="crispEdges" fill="rgb(65, 98, 164)"  x="12" y="27" width="1" height="1" /><rect shape-rendering="crispEdges" fill="rgb(123, 123, 90)"  x="13" y="4" width="1" height="1" /><rect shape-rendering="crispEdges" fill="rgb(164, 172, 156)"  x="13" y="5" width="1" height="1" /><rect shape-rendering="crispEdges" fill="rgb(189, 213, 238)"  x="13" y="6" width="1" height="1" /><rect shape-rendering="crispEdges" fill="rgb(123, 164, 230)"  x="13" y="7" width="1" height="1" /><rect shape-rendering="crispEdges" fill="rgb(205, 222, 255)"  x="13" y="8" width="1" height="1" /><rect shape-rendering="crispEdges" fill="rgb(255, 255, 255)"  x="13" y="9" width="1" height="1" /><rect shape-rendering="crispEdges" fill="rgb(255, 255, 255)"  x="13" y="10" width="1" height="1" /><rect shape-rendering="crispEdges" fill="rgb(213, 230, 255)"  x="13" y="11" width="1" height="1" /><rect shape-rendering="crispEdges" fill="rgb(180, 197, 230)"  x="13" y="12" width="1" height="1" /><rect shape-rendering="crispEdges" fill="rgb(115, 148, 213)"  x="13" y="13" width="1" height="1" /><rect shape-rendering="crispEdges" fill="rgb(57, 82, 139)"  x="13" y="14" width="1" height="1" /><rect shape-rendering="crispEdges" fill="rgb(32, 57, 98)"  x="13" y="15" width="1" height="1" /><rect shape-rendering="crispEdges" fill="rgb(49, 82, 148)"  x="13" y="16" width="1" height="1" /><rect shape-rendering="crispEdges" fill="rgb(57, 90, 164)"  x="13" y="17" width="1" height="1" /><rect shape-rendering="crispEdges" fill="rgb(41, 74, 123)"  x="13" y="18" width="1" height="1" /><rect shape-rendering="crispEdges" fill="rgb(32, 49, 90)"  x="13" y="19" width="1" height="1" /><rect shape-rendering="crispEdges" fill="rgb(16, 32, 65)"  x="13" y="20" width="1" height="1" /><rect shape-rendering="crispEdges" fill="rgb(90, 115, 156)"  x="13" y="21" width="1" height="1" /><rect shape-rendering="crispEdges" fill="rgb(82, 115, 164)"  x="13" y="22" width="1" height="1" /><rect shape-rendering="crispEdges" fill="rgb(74, 115, 189)"  x="13" y="23" width="1" height="1" /><rect shape-rendering="crispEdges" fill="rgb(90, 131, 197)"  x="13" y="24" width="1" height="1" /><rect shape-rendering="crispEdges" fill="rgb(82, 123, 197)"  x="13" y="25" width="1" height="1" /><rect shape-rendering="crispEdges" fill="rgb(90, 131, 205)"  x="13" y="26" width="1" height="1" /><rect shape-rendering="crispEdges" fill="rgb(74, 106, 164)"  x="13" y="27" width="1" height="1" /><rect shape-rendering="crispEdges" fill="rgb(123, 131, 131)"  x="14" y="4" width="1" height="1" /><rect shape-rendering="crispEdges" fill="rgb(238, 238, 230)"  x="14" y="5" width="1" height="1" /><rect shape-rendering="crispEdges" fill="rgb(197, 213, 238)"  x="14" y="6" width="1" height="1" /><rect shape-rendering="crispEdges" fill="rgb(172, 197, 246)"  x="14" y="7" width="1" height="1" /><rect shape-rendering="crispEdges" fill="rgb(213, 230, 255)"  x="14" y="8" width="1" height="1" /><rect shape-rendering="crispEdges" fill="rgb(246, 255, 255)"  x="14" y="9" width="1" height="1" /><rect shape-rendering="crispEdges" fill="rgb(255, 255, 255)"  x="14" y="10" width="1" height="1" /><rect shape-rendering="crispEdges" fill="rgb(213, 230, 255)"  x="14" y="11" width="1" height="1" /><rect shape-rendering="crispEdges" fill="rgb(180, 205, 238)"  x="14" y="12" width="1" height="1" /><rect shape-rendering="crispEdges" fill="rgb(123, 156, 213)"  x="14" y="13" width="1" height="1" /><rect shape-rendering="crispEdges" fill="rgb(49, 82, 131)"  x="14" y="14" width="1" height="1" /><rect shape-rendering="crispEdges" fill="rgb(32, 57, 98)"  x="14" y="15" width="1" height="1" /><rect shape-rendering="crispEdges" fill="rgb(49, 82, 148)"  x="14" y="16" width="1" height="1" /><rect shape-rendering="crispEdges" fill="rgb(57, 90, 156)"  x="14" y="17" width="1" height="1" /><rect shape-rendering="crispEdges" fill="rgb(41, 74, 123)"  x="14" y="18" width="1" height="1" /><rect shape-rendering="crispEdges" fill="rgb(24, 49, 82)"  x="14" y="19" width="1" height="1" /><rect shape-rendering="crispEdges" fill="rgb(49, 65, 98)"  x="14" y="20" width="1" height="1" /><rect shape-rendering="crispEdges" fill="rgb(115, 139, 180)"  x="14" y="21" width="1" height="1" /><rect shape-rendering="crispEdges" fill="rgb(65, 98, 164)"  x="14" y="22" width="1" height="1" /><rect shape-rendering="crispEdges" fill="rgb(90, 131, 205)"  x="14" y="23" width="1" height="1" /><rect shape-rendering="crispEdges" fill="rgb(90, 131, 197)"  x="14" y="24" width="1" height="1" /><rect shape-rendering="crispEdges" fill="rgb(74, 115, 189)"  x="14" y="25" width="1" height="1" /><rect shape-rendering="crispEdges" fill="rgb(106, 148, 205)"  x="14" y="26" width="1" height="1" /><rect shape-rendering="crispEdges" fill="rgb(57, 90, 148)"  x="14" y="27" width="1" height="1" /><rect shape-rendering="crispEdges" fill="rgb(115, 148, 205)"  x="15" y="4" width="1" height="1" /><rect shape-rendering="crispEdges" fill="rgb(255, 255, 255)"  x="15" y="5" width="1" height="1" /><rect shape-rendering="crispEdges" fill="rgb(222, 238, 255)"  x="15" y="6" width="1" height="1" /><rect shape-rendering="crispEdges" fill="rgb(156, 180, 238)"  x="15" y="7" width="1" height="1" /><rect shape-rendering="crispEdges" fill="rgb(172, 197, 246)"  x="15" y="8" width="1" height="1" /><rect shape-rendering="crispEdges" fill="rgb(230, 238, 255)"  x="15" y="9" width="1" height="1" /><rect shape-rendering="crispEdges" fill="rgb(255, 255, 255)"  x="15" y="10" width="1" height="1" /><rect shape-rendering="crispEdges" fill="rgb(230, 238, 255)"  x="15" y="11" width="1" height="1" /><rect shape-rendering="crispEdges" fill="rgb(172, 197, 230)"  x="15" y="12" width="1" height="1" /><rect shape-rendering="crispEdges" fill="rgb(115, 148, 197)"  x="15" y="13" width="1" height="1" /><rect shape-rendering="crispEdges" fill="rgb(49, 74, 106)"  x="15" y="14" width="1" height="1" /><rect shape-rendering="crispEdges" fill="rgb(32, 57, 106)"  x="15" y="15" width="1" height="1" /><rect shape-rendering="crispEdges" fill="rgb(49, 90, 148)"  x="15" y="16" width="1" height="1" /><rect shape-rendering="crispEdges" fill="rgb(49, 90, 156)"  x="15" y="17" width="1" height="1" /><rect shape-rendering="crispEdges" fill="rgb(41, 65, 115)"  x="15" y="18" width="1" height="1" /><rect shape-rendering="crispEdges" fill="rgb(16, 41, 82)"  x="15" y="19" width="1" height="1" /><rect shape-rendering="crispEdges" fill="rgb(98, 115, 156)"  x="15" y="20" width="1" height="1" /><rect shape-rendering="crispEdges" fill="rgb(90, 123, 172)"  x="15" y="21" width="1" height="1" /><rect shape-rendering="crispEdges" fill="rgb(82, 123, 197)"  x="15" y="22" width="1" height="1" /><rect shape-rendering="crispEdges" fill="rgb(90, 131, 197)"  x="15" y="23" width="1" height="1" /><rect shape-rendering="crispEdges" fill="rgb(82, 123, 197)"  x="15" y="24" width="1" height="1" /><rect shape-rendering="crispEdges" fill="rgb(98, 131, 197)"  x="15" y="25" width="1" height="1" /><rect shape-rendering="crispEdges" fill="rgb(82, 115, 172)"  x="15" y="26" width="1" height="1" /><rect shape-rendering="crispEdges" fill="rgb(41, 74, 123)"  x="15" y="27" width="1" height="1" /><rect shape-rendering="crispEdges" fill="rgb(131, 164, 213)"  x="16" y="4" width="1" height="1" /><rect shape-rendering="crispEdges" fill="rgb(255, 255, 255)"  x="16" y="5" width="1" height="1" /><rect shape-rendering="crispEdges" fill="rgb(213, 222, 246)"  x="16" y="6" width="1" height="1" /><rect shape-rendering="crispEdges" fill="rgb(148, 180, 238)"  x="16" y="7" width="1" height="1" /><rect shape-rendering="crispEdges" fill="rgb(189, 213, 246)"  x="16" y="8" width="1" height="1" /><rect shape-rendering="crispEdges" fill="rgb(222, 238, 255)"  x="16" y="9" width="1" height="1" /><rect shape-rendering="crispEdges" fill="rgb(180, 205, 238)"  x="16" y="10" width="1" height="1" /><rect shape-rendering="crispEdges" fill="rgb(131, 164, 205)"  x="16" y="11" width="1" height="1" /><rect shape-rendering="crispEdges" fill="rgb(90, 115, 164)"  x="16" y="12" width="1" height="1" /><rect shape-rendering="crispEdges" fill="rgb(106, 131, 189)"  x="16" y="13" width="1" height="1" /><rect shape-rendering="crispEdges" fill="rgb(41, 57, 90)"  x="16" y="14" width="1" height="1" /><rect shape-rendering="crispEdges" fill="rgb(41, 65, 115)"  x="16" y="15" width="1" height="1" /><rect shape-rendering="crispEdges" fill="rgb(49, 90, 156)"  x="16" y="16" width="1" height="1" /><rect shape-rendering="crispEdges" fill="rgb(49, 90, 156)"  x="16" y="17" width="1" height="1" /><rect shape-rendering="crispEdges" fill="rgb(32, 65, 115)"  x="16" y="18" width="1" height="1" /><rect shape-rendering="crispEdges" fill="rgb(32, 49, 82)"  x="16" y="19" width="1" height="1" /><rect shape-rendering="crispEdges" fill="rgb(98, 131, 180)"  x="16" y="20" width="1" height="1" /><rect shape-rendering="crispEdges" fill="rgb(65, 98, 164)"  x="16" y="21" width="1" height="1" /><rect shape-rendering="crispEdges" fill="rgb(90, 131, 205)"  x="16" y="22" width="1" height="1" /><rect shape-rendering="crispEdges" fill="rgb(82, 123, 197)"  x="16" y="23" width="1" height="1" /><rect shape-rendering="crispEdges" fill="rgb(90, 131, 189)"  x="16" y="24" width="1" height="1" /><rect shape-rendering="crispEdges" fill="rgb(106, 131, 189)"  x="16" y="25" width="1" height="1" /><rect shape-rendering="crispEdges" fill="rgb(41, 74, 131)"  x="16" y="26" width="1" height="1" /><rect shape-rendering="crispEdges" fill="rgb(41, 74, 123)"  x="16" y="27" width="1" height="1" /><rect shape-rendering="crispEdges" fill="rgb(139, 164, 213)"  x="17" y="4" width="1" height="1" /><rect shape-rendering="crispEdges" fill="rgb(255, 255, 255)"  x="17" y="5" width="1" height="1" /><rect shape-rendering="crispEdges" fill="rgb(246, 246, 255)"  x="17" y="6" width="1" height="1" /><rect shape-rendering="crispEdges" fill="rgb(246, 246, 255)"  x="17" y="7" width="1" height="1" /><rect shape-rendering="crispEdges" fill="rgb(180, 205, 238)"  x="17" y="8" width="1" height="1" /><rect shape-rendering="crispEdges" fill="rgb(156, 172, 180)"  x="17" y="9" width="1" height="1" /><rect shape-rendering="crispEdges" fill="rgb(205, 180, 90)"  x="17" y="10" width="1" height="1" /><rect shape-rendering="crispEdges" fill="rgb(230, 189, 74)"  x="17" y="11" width="1" height="1" /><rect shape-rendering="crispEdges" fill="rgb(156, 148, 123)"  x="17" y="12" width="1" height="1" /><rect shape-rendering="crispEdges" fill="rgb(98, 123, 172)"  x="17" y="13" width="1" height="1" /><rect shape-rendering="crispEdges" fill="rgb(24, 41, 82)"  x="17" y="14" width="1" height="1" /><rect shape-rendering="crispEdges" fill="rgb(41, 74, 131)"  x="17" y="15" width="1" height="1" /><rect shape-rendering="crispEdges" fill="rgb(57, 90, 164)"  x="17" y="16" width="1" height="1" /><rect shape-rendering="crispEdges" fill="rgb(49, 82, 148)"  x="17" y="17" width="1" height="1" /><rect shape-rendering="crispEdges" fill="rgb(32, 57, 98)"  x="17" y="18" width="1" height="1" /><rect shape-rendering="crispEdges" fill="rgb(49, 65, 106)"  x="17" y="19" width="1" height="1" /><rect shape-rendering="crispEdges" fill="rgb(106, 131, 172)"  x="17" y="20" width="1" height="1" /><rect shape-rendering="crispEdges" fill="rgb(82, 115, 172)"  x="17" y="21" width="1" height="1" /><rect shape-rendering="crispEdges" fill="rgb(82, 115, 180)"  x="17" y="22" width="1" height="1" /><rect shape-rendering="crispEdges" fill="rgb(74, 115, 189)"  x="17" y="23" width="1" height="1" /><rect shape-rendering="crispEdges" fill="rgb(106, 139, 197)"  x="17" y="24" width="1" height="1" /><rect shape-rendering="crispEdges" fill="rgb(49, 82, 139)"  x="17" y="25" width="1" height="1" /><rect shape-rendering="crispEdges" fill="rgb(41, 74, 131)"  x="17" y="26" width="1" height="1" /><rect shape-rendering="crispEdges" fill="rgb(123, 156, 213)"  x="18" y="4" width="1" height="1" /><rect shape-rendering="crispEdges" fill="rgb(255, 255, 255)"  x="18" y="5" width="1" height="1" /><rect shape-rendering="crispEdges" fill="rgb(213, 222, 246)"  x="18" y="6" width="1" height="1" /><rect shape-rendering="crispEdges" fill="rgb(172, 197, 189)"  x="18" y="7" width="1" height="1" /><rect shape-rendering="crispEdges" fill="rgb(205, 205, 123)"  x="18" y="8" width="1" height="1" /><rect shape-rendering="crispEdges" fill="rgb(189, 180, 131)"  x="18" y="9" width="1" height="1" /><rect shape-rendering="crispEdges" fill="rgb(139, 164, 180)"  x="18" y="10" width="1" height="1" /><rect shape-rendering="crispEdges" fill="rgb(74, 115, 197)"  x="18" y="11" width="1" height="1" /><rect shape-rendering="crispEdges" fill="rgb(98, 131, 180)"  x="18" y="12" width="1" height="1" /><rect shape-rendering="crispEdges" fill="rgb(74, 90, 131)"  x="18" y="13" width="1" height="1" /><rect shape-rendering="crispEdges" fill="rgb(24, 49, 82)"  x="18" y="14" width="1" height="1" /><rect shape-rendering="crispEdges" fill="rgb(41, 74, 139)"  x="18" y="15" width="1" height="1" /><rect shape-rendering="crispEdges" fill="rgb(49, 90, 156)"  x="18" y="16" width="1" height="1" /><rect shape-rendering="crispEdges" fill="rgb(41, 74, 131)"  x="18" y="17" width="1" height="1" /><rect shape-rendering="crispEdges" fill="rgb(24, 41, 82)"  x="18" y="18" width="1" height="1" /><rect shape-rendering="crispEdges" fill="rgb(82, 106, 148)"  x="18" y="19" width="1" height="1" /><rect shape-rendering="crispEdges" fill="rgb(82, 115, 164)"  x="18" y="20" width="1" height="1" /><rect shape-rendering="crispEdges" fill="rgb(74, 106, 156)"  x="18" y="21" width="1" height="1" /><rect shape-rendering="crispEdges" fill="rgb(115, 148, 197)"  x="18" y="22" width="1" height="1" /><rect shape-rendering="crispEdges" fill="rgb(106, 139, 205)"  x="18" y="23" width="1" height="1" /><rect shape-rendering="crispEdges" fill="rgb(57, 90, 148)"  x="18" y="24" width="1" height="1" /><rect shape-rendering="crispEdges" fill="rgb(41, 74, 131)"  x="18" y="25" width="1" height="1" /><rect shape-rendering="crispEdges" fill="rgb(41, 74, 131)"  x="18" y="26" width="1" height="1" /><rect shape-rendering="crispEdges" fill="rgb(98, 139, 205)"  x="19" y="4" width="1" height="1" /><rect shape-rendering="crispEdges" fill="rgb(164, 189, 230)"  x="19" y="5" width="1" height="1" /><rect shape-rendering="crispEdges" fill="rgb(164, 189, 172)"  x="19" y="6" width="1" height="1" /><rect shape-rendering="crispEdges" fill="rgb(213, 213, 106)"  x="19" y="7" width="1" height="1" /><rect shape-rendering="crispEdges" fill="rgb(98, 139, 197)"  x="19" y="8" width="1" height="1" /><rect shape-rendering="crispEdges" fill="rgb(65, 123, 213)"  x="19" y="9" width="1" height="1" /><rect shape-rendering="crispEdges" fill="rgb(65, 123, 213)"  x="19" y="10" width="1" height="1" /><rect shape-rendering="crispEdges" fill="rgb(57, 98, 172)"  x="19" y="11" width="1" height="1" /><rect shape-rendering="crispEdges" fill="rgb(106, 139, 180)"  x="19" y="12" width="1" height="1" /><rect shape-rendering="crispEdges" fill="rgb(24, 49, 82)"  x="19" y="13" width="1" height="1" /><rect shape-rendering="crispEdges" fill="rgb(32, 57, 98)"  x="19" y="14" width="1" height="1" /><rect shape-rendering="crispEdges" fill="rgb(41, 74, 131)"  x="19" y="15" width="1" height="1" /><rect shape-rendering="crispEdges" fill="rgb(41, 74, 131)"  x="19" y="16" width="1" height="1" /><rect shape-rendering="crispEdges" fill="rgb(32, 57, 106)"  x="19" y="17" width="1" height="1" /><rect shape-rendering="crispEdges" fill="rgb(24, 41, 74)"  x="19" y="18" width="1" height="1" /><rect shape-rendering="crispEdges" fill="rgb(131, 148, 189)"  x="19" y="19" width="1" height="1" /><rect shape-rendering="crispEdges" fill="rgb(49, 82, 131)"  x="19" y="20" width="1" height="1" /><rect shape-rendering="crispEdges" fill="rgb(41, 74, 131)"  x="19" y="21" width="1" height="1" /><rect shape-rendering="crispEdges" fill="rgb(41, 74, 139)"  x="19" y="22" width="1" height="1" /><rect shape-rendering="crispEdges" fill="rgb(49, 82, 139)"  x="19" y="23" width="1" height="1" /><rect shape-rendering="crispEdges" fill="rgb(41, 74, 131)"  x="19" y="24" width="1" height="1" /><rect shape-rendering="crispEdges" fill="rgb(41, 74, 131)"  x="19" y="25" width="1" height="1" /><rect shape-rendering="crispEdges" fill="rgb(82, 115, 156)"  x="20" y="4" width="1" height="1" /><rect shape-rendering="crispEdges" fill="rgb(189, 189, 123)"  x="20" y="5" width="1" height="1" /><rect shape-rendering="crispEdges" fill="rgb(205, 197, 106)"  x="20" y="6" width="1" height="1" /><rect shape-rendering="crispEdges" fill="rgb(90, 131, 205)"  x="20" y="7" width="1" height="1" /><rect shape-rendering="crispEdges" fill="rgb(74, 123, 213)"  x="20" y="8" width="1" height="1" /><rect shape-rendering="crispEdges" fill="rgb(65, 115, 205)"  x="20" y="9" width="1" height="1" /><rect shape-rendering="crispEdges" fill="rgb(57, 98, 180)"  x="20" y="10" width="1" height="1" /><rect shape-rendering="crispEdges" fill="rgb(106, 139, 189)"  x="20" y="11" width="1" height="1" /><rect shape-rendering="crispEdges" fill="rgb(65, 90, 123)"  x="20" y="12" width="1" height="1" /><rect shape-rendering="crispEdges" fill="rgb(16, 32, 65)"  x="20" y="13" width="1" height="1" /><rect shape-rendering="crispEdges" fill="rgb(32, 57, 98)"  x="20" y="14" width="1" height="1" /><rect shape-rendering="crispEdges" fill="rgb(32, 65, 106)"  x="20" y="15" width="1" height="1" /><rect shape-rendering="crispEdges" fill="rgb(32, 57, 98)"  x="20" y="16" width="1" height="1" /><rect shape-rendering="crispEdges" fill="rgb(16, 32, 65)"  x="20" y="17" width="1" height="1" /><rect shape-rendering="crispEdges" fill="rgb(82, 98, 139)"  x="20" y="18" width="1" height="1" /><rect shape-rendering="crispEdges" fill="rgb(106, 131, 172)"  x="20" y="19" width="1" height="1" /><rect shape-rendering="crispEdges" fill="rgb(32, 65, 123)"  x="20" y="20" width="1" height="1" /><rect shape-rendering="crispEdges" fill="rgb(49, 82, 139)"  x="20" y="21" width="1" height="1" /><rect shape-rendering="crispEdges" fill="rgb(41, 82, 139)"  x="20" y="22" width="1" height="1" /><rect shape-rendering="crispEdges" fill="rgb(41, 74, 131)"  x="20" y="23" width="1" height="1" /><rect shape-rendering="crispEdges" fill="rgb(41, 74, 131)"  x="20" y="24" width="1" height="1" /><rect shape-rendering="crispEdges" fill="rgb(90, 106, 123)"  x="21" y="4" width="1" height="1" /><rect shape-rendering="crispEdges" fill="rgb(189, 180, 82)"  x="21" y="5" width="1" height="1" /><rect shape-rendering="crispEdges" fill="rgb(106, 139, 172)"  x="21" y="6" width="1" height="1" /><rect shape-rendering="crispEdges" fill="rgb(74, 123, 213)"  x="21" y="7" width="1" height="1" /><rect shape-rendering="crispEdges" fill="rgb(65, 115, 205)"  x="21" y="8" width="1" height="1" /><rect shape-rendering="crispEdges" fill="rgb(57, 106, 189)"  x="21" y="9" width="1" height="1" /><rect shape-rendering="crispEdges" fill="rgb(65, 98, 164)"  x="21" y="10" width="1" height="1" /><rect shape-rendering="crispEdges" fill="rgb(115, 139, 180)"  x="21" y="11" width="1" height="1" /><rect shape-rendering="crispEdges" fill="rgb(8, 24, 57)"  x="21" y="12" width="1" height="1" /><rect shape-rendering="crispEdges" fill="rgb(16, 32, 65)"  x="21" y="13" width="1" height="1" /><rect shape-rendering="crispEdges" fill="rgb(24, 41, 74)"  x="21" y="14" width="1" height="1" /><rect shape-rendering="crispEdges" fill="rgb(24, 49, 82)"  x="21" y="15" width="1" height="1" /><rect shape-rendering="crispEdges" fill="rgb(24, 49, 74)"  x="21" y="16" width="1" height="1" /><rect shape-rendering="crispEdges" fill="rgb(57, 74, 115)"  x="21" y="17" width="1" height="1" /><rect shape-rendering="crispEdges" fill="rgb(123, 148, 197)"  x="21" y="18" width="1" height="1" /><rect shape-rendering="crispEdges" fill="rgb(41, 74, 123)"  x="21" y="19" width="1" height="1" /><rect shape-rendering="crispEdges" fill="rgb(41, 82, 139)"  x="21" y="20" width="1" height="1" /><rect shape-rendering="crispEdges" fill="rgb(49, 82, 139)"  x="21" y="21" width="1" height="1" /><rect shape-rendering="crispEdges" fill="rgb(49, 82, 139)"  x="21" y="22" width="1" height="1" /><rect shape-rendering="crispEdges" fill="rgb(41, 74, 131)"  x="21" y="23" width="1" height="1" /><rect shape-rendering="crispEdges" fill="rgb(41, 74, 131)"  x="21" y="24" width="1" height="1" /><rect shape-rendering="crispEdges" fill="rgb(41, 74, 131)"  x="22" y="4" width="1" height="1" /><rect shape-rendering="crispEdges" fill="rgb(41, 74, 131)"  x="22" y="5" width="1" height="1" /><rect shape-rendering="crispEdges" fill="rgb(57, 90, 164)"  x="22" y="6" width="1" height="1" /><rect shape-rendering="crispEdges" fill="rgb(65, 106, 189)"  x="22" y="7" width="1" height="1" /><rect shape-rendering="crispEdges" fill="rgb(65, 106, 189)"  x="22" y="8" width="1" height="1" /><rect shape-rendering="crispEdges" fill="rgb(57, 106, 180)"  x="22" y="9" width="1" height="1" /><rect shape-rendering="crispEdges" fill="rgb(41, 74, 131)"  x="22" y="10" width="1" height="1" /><rect shape-rendering="crispEdges" fill="rgb(98, 123, 164)"  x="22" y="11" width="1" height="1" /><rect shape-rendering="crispEdges" fill="rgb(106, 131, 180)"  x="22" y="12" width="1" height="1" /><rect shape-rendering="crispEdges" fill="rgb(90, 123, 172)"  x="22" y="13" width="1" height="1" /><rect shape-rendering="crispEdges" fill="rgb(82, 115, 164)"  x="22" y="14" width="1" height="1" /><rect shape-rendering="crispEdges" fill="rgb(82, 123, 180)"  x="22" y="15" width="1" height="1" /><rect shape-rendering="crispEdges" fill="rgb(90, 123, 189)"  x="22" y="16" width="1" height="1" /><rect shape-rendering="crispEdges" fill="rgb(106, 139, 197)"  x="22" y="17" width="1" height="1" /><rect shape-rendering="crispEdges" fill="rgb(49, 82, 131)"  x="22" y="18" width="1" height="1" /><rect shape-rendering="crispEdges" fill="rgb(41, 74, 139)"  x="22" y="19" width="1" height="1" /><rect shape-rendering="crispEdges" fill="rgb(49, 82, 139)"  x="22" y="20" width="1" height="1" /><rect shape-rendering="crispEdges" fill="rgb(41, 74, 131)"  x="22" y="21" width="1" height="1" /><rect shape-rendering="crispEdges" fill="rgb(41, 74, 123)"  x="22" y="22" width="1" height="1" /><rect shape-rendering="crispEdges" fill="rgb(41, 74, 123)"  x="22" y="23" width="1" height="1" /><rect shape-rendering="crispEdges" fill="rgb(41, 74, 131)"  x="23" y="5" width="1" height="1" /><rect shape-rendering="crispEdges" fill="rgb(41, 74, 131)"  x="23" y="6" width="1" height="1" /><rect shape-rendering="crispEdges" fill="rgb(49, 82, 139)"  x="23" y="7" width="1" height="1" /><rect shape-rendering="crispEdges" fill="rgb(49, 82, 148)"  x="23" y="8" width="1" height="1" /><rect shape-rendering="crispEdges" fill="rgb(41, 74, 131)"  x="23" y="9" width="1" height="1" /><rect shape-rendering="crispEdges" fill="rgb(57, 82, 123)"  x="23" y="10" width="1" height="1" /><rect shape-rendering="crispEdges" fill="rgb(131, 148, 172)"  x="23" y="11" width="1" height="1" /><rect shape-rendering="crispEdges" fill="rgb(156, 180, 230)"  x="23" y="12" width="1" height="1" /><rect shape-rendering="crispEdges" fill="rgb(164, 189, 230)"  x="23" y="13" width="1" height="1" /><rect shape-rendering="crispEdges" fill="rgb(164, 189, 230)"  x="23" y="14" width="1" height="1" /><rect shape-rendering="crispEdges" fill="rgb(139, 164, 222)"  x="23" y="15" width="1" height="1" /><rect shape-rendering="crispEdges" fill="rgb(189, 205, 238)"  x="23" y="16" width="1" height="1" /><rect shape-rendering="crispEdges" fill="rgb(90, 123, 172)"  x="23" y="17" width="1" height="1" /><rect shape-rendering="crispEdges" fill="rgb(32, 65, 123)"  x="23" y="18" width="1" height="1" /><rect shape-rendering="crispEdges" fill="rgb(41, 74, 131)"  x="23" y="19" width="1" height="1" /><rect shape-rendering="crispEdges" fill="rgb(41, 74, 123)"  x="23" y="20" width="1" height="1" /><rect shape-rendering="crispEdges" fill="rgb(41, 65, 115)"  x="23" y="21" width="1" height="1" /><rect shape-rendering="crispEdges" fill="rgb(32, 65, 106)"  x="23" y="22" width="1" height="1" /><rect shape-rendering="crispEdges" fill="rgb(41, 74, 131)"  x="24" y="6" width="1" height="1" /><rect shape-rendering="crispEdges" fill="rgb(41, 74, 131)"  x="24" y="7" width="1" height="1" /><rect shape-rendering="crispEdges" fill="rgb(32, 65, 123)"  x="24" y="8" width="1" height="1" /><rect shape-rendering="crispEdges" fill="rgb(65, 98, 139)"  x="24" y="9" width="1" height="1" /><rect shape-rendering="crispEdges" fill="rgb(164, 180, 222)"  x="24" y="10" width="1" height="1" /><rect shape-rendering="crispEdges" fill="rgb(156, 180, 230)"  x="24" y="11" width="1" height="1" /><rect shape-rendering="crispEdges" fill="rgb(148, 172, 222)"  x="24" y="12" width="1" height="1" /><rect shape-rendering="crispEdges" fill="rgb(180, 205, 238)"  x="24" y="13" width="1" height="1" /><rect shape-rendering="crispEdges" fill="rgb(148, 172, 222)"  x="24" y="14" width="1" height="1" /><rect shape-rendering="crispEdges" fill="rgb(172, 189, 222)"  x="24" y="15" width="1" height="1" /><rect shape-rendering="crispEdges" fill="rgb(115, 139, 180)"  x="24" y="16" width="1" height="1" /><rect shape-rendering="crispEdges" fill="rgb(24, 57, 106)"  x="24" y="17" width="1" height="1" /><rect shape-rendering="crispEdges" fill="rgb(32, 65, 106)"  x="24" y="18" width="1" height="1" /><rect shape-rendering="crispEdges" fill="rgb(32, 65, 106)"  x="24" y="19" width="1" height="1" /><rect shape-rendering="crispEdges" fill="rgb(32, 57, 106)"  x="24" y="20" width="1" height="1" /><rect shape-rendering="crispEdges" fill="rgb(32, 57, 106)"  x="24" y="21" width="1" height="1" /><rect shape-rendering="crispEdges" fill="rgb(41, 74, 131)"  x="25" y="7" width="1" height="1" /><rect shape-rendering="crispEdges" fill="rgb(41, 74, 123)"  x="25" y="8" width="1" height="1" /><rect shape-rendering="crispEdges" fill="rgb(57, 90, 148)"  x="25" y="9" width="1" height="1" /><rect shape-rendering="crispEdges" fill="rgb(41, 74, 123)"  x="25" y="10" width="1" height="1" /><rect shape-rendering="crispEdges" fill="rgb(65, 106, 189)"  x="25" y="11" width="1" height="1" /><rect shape-rendering="crispEdges" fill="rgb(74, 106, 172)"  x="25" y="12" width="1" height="1" /><rect shape-rendering="crispEdges" fill="rgb(65, 98, 164)"  x="25" y="13" width="1" height="1" /><rect shape-rendering="crispEdges" fill="rgb(74, 106, 156)"  x="25" y="14" width="1" height="1" /><rect shape-rendering="crispEdges" fill="rgb(57, 82, 123)"  x="25" y="15" width="1" height="1" /><rect shape-rendering="crispEdges" fill="rgb(32, 57, 106)"  x="25" y="16" width="1" height="1" /><rect shape-rendering="crispEdges" fill="rgb(32, 65, 106)"  x="25" y="17" width="1" height="1" /><rect shape-rendering="crispEdges" fill="rgb(32, 65, 106)"  x="25" y="18" width="1" height="1" /><rect shape-rendering="crispEdges" fill="rgb(32, 65, 106)"  x="25" y="19" width="1" height="1" /><rect shape-rendering="crispEdges" fill="rgb(32, 57, 106)"  x="25" y="20" width="1" height="1" /></svg>