<svg xmlns="http://www.w3.org/2000/svg" xmlns:xlink= "http://www.w3.org/1999/xlink" width="32" height="32" viewBox ="0 0 32 32"><rect shape-rendering="crispEdges" fill="rgb(180, 65, 8)"  x="7" y="11" width="1" height="1" /><rect shape-rendering="crispEdges" fill="rgb(180, 65, 8)"  x="7" y="12" width="1" height="1" /><rect shape-rendering="crispEdges" fill="rgb(180, 65, 8)"  x="7" y="13" width="1" height="1" /><rect shape-rendering="crispEdges" fill="rgb(180, 65, 8)"  x="7" y="14" width="1" height="1" /><rect shape-rendering="crispEdges" fill="rgb(180, 65, 8)"  x="7" y="15" width="1" height="1" /><rect shape-rendering="crispEdges" fill="rgb(180, 65, 8)"  x="7" y="16" width="1" height="1" /><rect shape-rendering="crispEdges" fill="rgb(180, 65, 8)"  x="7" y="17" width="1" height="1" /><rect shape-rendering="crispEdges" fill="rgb(180, 65, 8)"  x="7" y="18" width="1" height="1" /><rect shape-rendering="crispEdges" fill="rgb(180, 65, 8)"  x="7" y="19" width="1" height="1" /><rect shape-rendering="crispEdges" fill="rgb(164, 49, 0)"  x="8" y="10" width="1" height="1" /><rect shape-rendering="crispEdges" fill="rgb(180, 65, 8)"  x="8" y="11" width="1" height="1" /><rect shape-rendering="crispEdges" fill="rgb(238, 106, 24)"  x="8" y="12" width="1" height="1" /><rect shape-rendering="crispEdges" fill="rgb(205, 74, 0)"  x="8" y="13" width="1" height="1" /><rect shape-rendering="crispEdges" fill="rgb(197, 65, 0)"  x="8" y="14" width="1" height="1" /><rect shape-rendering="crispEdges" fill="rgb(189, 57, 0)"  x="8" y="15" width="1" height="1" /><rect shape-rendering="crispEdges" fill="rgb(180, 49, 0)"  x="8" y="16" width="1" height="1" /><rect shape-rendering="crispEdges" fill="rgb(180, 49, 0)"  x="8" y="17" width="1" height="1" /><rect shape-rendering="crispEdges" fill="rgb(180, 49, 0)"  x="8" y="18" width="1" height="1" /><rect shape-rendering="crispEdges" fill="rgb(172, 57, 0)"  x="8" y="19" width="1" height="1" /><rect shape-rendering="crispEdges" fill="rgb(164, 57, 0)"  x="8" y="20" width="1" height="1" /><rect shape-rendering="crispEdges" fill="rgb(164, 57, 0)"  x="8" y="21" width="1" height="1" /><rect shape-rendering="crispEdges" fill="rgb(156, 49, 0)"  x="9" y="9" width="1" height="1" /><rect shape-rendering="crispEdges" fill="rgb(189, 82, 16)"  x="9" y="10" width="1" height="1" /><rect shape-rendering="crispEdges" fill="rgb(238, 106, 24)"  x="9" y="11" width="1" height="1" /><rect shape-rendering="crispEdges" fill="rgb(238, 106, 24)"  x="9" y="12" width="1" height="1" /><rect shape-rendering="crispEdges" fill="rgb(123, 139, 139)"  x="9" y="13" width="1" height="1" /><rect shape-rendering="crispEdges" fill="rgb(131, 148, 148)"  x="9" y="14" width="1" height="1" /><rect shape-rendering="crispEdges" fill="rgb(156, 172, 172)"  x="9" y="15" width="1" height="1" /><rect shape-rendering="crispEdges" fill="rgb(172, 189, 180)"  x="9" y="16" width="1" height="1" /><rect shape-rendering="crispEdges" fill="rgb(189, 205, 197)"  x="9" y="17" width="1" height="1" /><rect shape-rendering="crispEdges" fill="rgb(189, 205, 205)"  x="9" y="18" width="1" height="1" /><rect shape-rendering="crispEdges" fill="rgb(172, 189, 189)"  x="9" y="19" width="1" height="1" /><rect shape-rendering="crispEdges" fill="rgb(148, 164, 164)"  x="9" y="20" width="1" height="1" /><rect shape-rendering="crispEdges" fill="rgb(115, 139, 139)"  x="9" y="21" width="1" height="1" /><rect shape-rendering="crispEdges" fill="rgb(115, 139, 131)"  x="9" y="22" width="1" height="1" /><rect shape-rendering="crispEdges" fill="rgb(172, 49, 0)"  x="10" y="8" width="1" height="1" /><rect shape-rendering="crispEdges" fill="rgb(197, 98, 32)"  x="10" y="9" width="1" height="1" /><rect shape-rendering="crispEdges" fill="rgb(246, 148, 57)"  x="10" y="10" width="1" height="1" /><rect shape-rendering="crispEdges" fill="rgb(255, 123, 32)"  x="10" y="11" width="1" height="1" /><rect shape-rendering="crispEdges" fill="rgb(246, 90, 8)"  x="10" y="12" width="1" height="1" /><rect shape-rendering="crispEdges" fill="rgb(106, 131, 131)"  x="10" y="13" width="1" height="1" /><rect shape-rendering="crispEdges" fill="rgb(139, 156, 156)"  x="10" y="14" width="1" height="1" /><rect shape-rendering="crispEdges" fill="rgb(172, 189, 189)"  x="10" y="15" width="1" height="1" /><rect shape-rendering="crispEdges" fill="rgb(180, 197, 189)"  x="10" y="16" width="1" height="1" /><rect shape-rendering="crispEdges" fill="rgb(197, 205, 205)"  x="10" y="17" width="1" height="1" /><rect shape-rendering="crispEdges" fill="rgb(197, 213, 205)"  x="10" y="18" width="1" height="1" /><rect shape-rendering="crispEdges" fill="rgb(180, 197, 197)"  x="10" y="19" width="1" height="1" /><rect shape-rendering="crispEdges" fill="rgb(156, 172, 172)"  x="10" y="20" width="1" height="1" /><rect shape-rendering="crispEdges" fill="rgb(123, 148, 139)"  x="10" y="21" width="1" height="1" /><rect shape-rendering="crispEdges" fill="rgb(106, 131, 123)"  x="10" y="22" width="1" height="1" /><rect shape-rendering="crispEdges" fill="rgb(106, 131, 123)"  x="10" y="23" width="1" height="1" /><rect shape-rendering="crispEdges" fill="rgb(189, 74, 8)"  x="11" y="3" width="1" height="1" /><rect shape-rendering="crispEdges" fill="rgb(189, 74, 8)"  x="11" y="4" width="1" height="1" /><rect shape-rendering="crispEdges" fill="rgb(180, 74, 16)"  x="11" y="5" width="1" height="1" /><rect shape-rendering="crispEdges" fill="rgb(164, 49, 0)"  x="11" y="6" width="1" height="1" /><rect shape-rendering="crispEdges" fill="rgb(156, 41, 0)"  x="11" y="7" width="1" height="1" /><rect shape-rendering="crispEdges" fill="rgb(164, 49, 0)"  x="11" y="8" width="1" height="1" /><rect shape-rendering="crispEdges" fill="rgb(222, 148, 57)"  x="11" y="9" width="1" height="1" /><rect shape-rendering="crispEdges" fill="rgb(255, 172, 74)"  x="11" y="10" width="1" height="1" /><rect shape-rendering="crispEdges" fill="rgb(205, 82, 8)"  x="11" y="11" width="1" height="1" /><rect shape-rendering="crispEdges" fill="rgb(205, 57, 0)"  x="11" y="12" width="1" height="1" /><rect shape-rendering="crispEdges" fill="rgb(106, 131, 123)"  x="11" y="13" width="1" height="1" /><rect shape-rendering="crispEdges" fill="rgb(156, 172, 172)"  x="11" y="14" width="1" height="1" /><rect shape-rendering="crispEdges" fill="rgb(197, 213, 205)"  x="11" y="15" width="1" height="1" /><rect shape-rendering="crispEdges" fill="rgb(197, 205, 205)"  x="11" y="16" width="1" height="1" /><rect shape-rendering="crispEdges" fill="rgb(213, 222, 222)"  x="11" y="17" width="1" height="1" /><rect shape-rendering="crispEdges" fill="rgb(213, 222, 222)"  x="11" y="18" width="1" height="1" /><rect shape-rendering="crispEdges" fill="rgb(197, 213, 205)"  x="11" y="19" width="1" height="1" /><rect shape-rendering="crispEdges" fill="rgb(172, 189, 180)"  x="11" y="20" width="1" height="1" /><rect shape-rendering="crispEdges" fill="rgb(131, 156, 148)"  x="11" y="21" width="1" height="1" /><rect shape-rendering="crispEdges" fill="rgb(106, 131, 123)"  x="11" y="22" width="1" height="1" /><rect shape-rendering="crispEdges" fill="rgb(98, 123, 115)"  x="11" y="23" width="1" height="1" /><rect shape-rendering="crispEdges" fill="rgb(189, 65, 0)"  x="12" y="2" width="1" height="1" /><rect shape-rendering="crispEdges" fill="rgb(213, 90, 16)"  x="12" y="3" width="1" height="1" /><rect shape-rendering="crispEdges" fill="rgb(246, 164, 82)"  x="12" y="4" width="1" height="1" /><rect shape-rendering="crispEdges" fill="rgb(246, 139, 49)"  x="12" y="5" width="1" height="1" /><rect shape-rendering="crispEdges" fill="rgb(222, 90, 8)"  x="12" y="6" width="1" height="1" /><rect shape-rendering="crispEdges" fill="rgb(180, 57, 0)"  x="12" y="7" width="1" height="1" /><rect shape-rendering="crispEdges" fill="rgb(164, 49, 0)"  x="12" y="8" width="1" height="1" /><rect shape-rendering="crispEdges" fill="rgb(230, 156, 65)"  x="12" y="9" width="1" height="1" /><rect shape-rendering="crispEdges" fill="rgb(246, 164, 65)"  x="12" y="10" width="1" height="1" /><rect shape-rendering="crispEdges" fill="rgb(189, 74, 8)"  x="12" y="11" width="1" height="1" /><rect shape-rendering="crispEdges" fill="rgb(197, 65, 8)"  x="12" y="12" width="1" height="1" /><rect shape-rendering="crispEdges" fill="rgb(106, 131, 123)"  x="12" y="13" width="1" height="1" /><rect shape-rendering="crispEdges" fill="rgb(139, 156, 148)"  x="12" y="14" width="1" height="1" /><rect shape-rendering="crispEdges" fill="rgb(172, 189, 189)"  x="12" y="15" width="1" height="1" /><rect shape-rendering="crispEdges" fill="rgb(197, 205, 205)"  x="12" y="16" width="1" height="1" /><rect shape-rendering="crispEdges" fill="rgb(213, 222, 222)"  x="12" y="17" width="1" height="1" /><rect shape-rendering="crispEdges" fill="rgb(222, 230, 230)"  x="12" y="18" width="1" height="1" /><rect shape-rendering="crispEdges" fill="rgb(205, 222, 213)"  x="12" y="19" width="1" height="1" /><rect shape-rendering="crispEdges" fill="rgb(180, 197, 189)"  x="12" y="20" width="1" height="1" /><rect shape-rendering="crispEdges" fill="rgb(139, 164, 156)"  x="12" y="21" width="1" height="1" /><rect shape-rendering="crispEdges" fill="rgb(106, 131, 131)"  x="12" y="22" width="1" height="1" /><rect shape-rendering="crispEdges" fill="rgb(98, 123, 123)"  x="12" y="23" width="1" height="1" /><rect shape-rendering="crispEdges" fill="rgb(197, 74, 0)"  x="13" y="1" width="1" height="1" /><rect shape-rendering="crispEdges" fill="rgb(205, 82, 8)"  x="13" y="2" width="1" height="1" /><rect shape-rendering="crispEdges" fill="rgb(246, 180, 98)"  x="13" y="3" width="1" height="1" /><rect shape-rendering="crispEdges" fill="rgb(255, 205, 123)"  x="13" y="4" width="1" height="1" /><rect shape-rendering="crispEdges" fill="rgb(255, 148, 49)"  x="13" y="5" width="1" height="1" /><rect shape-rendering="crispEdges" fill="rgb(255, 115, 24)"  x="13" y="6" width="1" height="1" /><rect shape-rendering="crispEdges" fill="rgb(230, 90, 8)"  x="13" y="7" width="1" height="1" /><rect shape-rendering="crispEdges" fill="rgb(222, 74, 0)"  x="13" y="8" width="1" height="1" /><rect shape-rendering="crispEdges" fill="rgb(246, 172, 74)"  x="13" y="9" width="1" height="1" /><rect shape-rendering="crispEdges" fill="rgb(246, 156, 57)"  x="13" y="10" width="1" height="1" /><rect shape-rendering="crispEdges" fill="rgb(238, 131, 41)"  x="13" y="11" width="1" height="1" /><rect shape-rendering="crispEdges" fill="rgb(238, 139, 65)"  x="13" y="12" width="1" height="1" /><rect shape-rendering="crispEdges" fill="rgb(246, 106, 24)"  x="13" y="13" width="1" height="1" /><rect shape-rendering="crispEdges" fill="rgb(98, 123, 123)"  x="13" y="14" width="1" height="1" /><rect shape-rendering="crispEdges" fill="rgb(123, 148, 139)"  x="13" y="15" width="1" height="1" /><rect shape-rendering="crispEdges" fill="rgb(172, 189, 189)"  x="13" y="16" width="1" height="1" /><rect shape-rendering="crispEdges" fill="rgb(213, 222, 222)"  x="13" y="17" width="1" height="1" /><rect shape-rendering="crispEdges" fill="rgb(222, 230, 230)"  x="13" y="18" width="1" height="1" /><rect shape-rendering="crispEdges" fill="rgb(213, 222, 222)"  x="13" y="19" width="1" height="1" /><rect shape-rendering="crispEdges" fill="rgb(189, 205, 197)"  x="13" y="20" width="1" height="1" /><rect shape-rendering="crispEdges" fill="rgb(148, 172, 164)"  x="13" y="21" width="1" height="1" /><rect shape-rendering="crispEdges" fill="rgb(115, 139, 131)"  x="13" y="22" width="1" height="1" /><rect shape-rendering="crispEdges" fill="rgb(106, 123, 123)"  x="13" y="23" width="1" height="1" /><rect shape-rendering="crispEdges" fill="rgb(197, 65, 0)"  x="14" y="1" width="1" height="1" /><rect shape-rendering="crispEdges" fill="rgb(222, 139, 74)"  x="14" y="2" width="1" height="1" /><rect shape-rendering="crispEdges" fill="rgb(255, 246, 189)"  x="14" y="3" width="1" height="1" /><rect shape-rendering="crispEdges" fill="rgb(255, 189, 90)"  x="14" y="4" width="1" height="1" /><rect shape-rendering="crispEdges" fill="rgb(255, 131, 32)"  x="14" y="5" width="1" height="1" /><rect shape-rendering="crispEdges" fill="rgb(255, 115, 24)"  x="14" y="6" width="1" height="1" /><rect shape-rendering="crispEdges" fill="rgb(246, 98, 8)"  x="14" y="7" width="1" height="1" /><rect shape-rendering="crispEdges" fill="rgb(246, 90, 8)"  x="14" y="8" width="1" height="1" /><rect shape-rendering="crispEdges" fill="rgb(255, 172, 65)"  x="14" y="9" width="1" height="1" /><rect shape-rendering="crispEdges" fill="rgb(255, 148, 49)"  x="14" y="10" width="1" height="1" /><rect shape-rendering="crispEdges" fill="rgb(255, 164, 74)"  x="14" y="11" width="1" height="1" /><rect shape-rendering="crispEdges" fill="rgb(255, 205, 123)"  x="14" y="12" width="1" height="1" /><rect shape-rendering="crispEdges" fill="rgb(238, 115, 32)"  x="14" y="13" width="1" height="1" /><rect shape-rendering="crispEdges" fill="rgb(222, 82, 0)"  x="14" y="14" width="1" height="1" /><rect shape-rendering="crispEdges" fill="rgb(98, 123, 115)"  x="14" y="15" width="1" height="1" /><rect shape-rendering="crispEdges" fill="rgb(115, 131, 131)"  x="14" y="16" width="1" height="1" /><rect shape-rendering="crispEdges" fill="rgb(164, 180, 180)"  x="14" y="17" width="1" height="1" /><rect shape-rendering="crispEdges" fill="rgb(230, 238, 238)"  x="14" y="18" width="1" height="1" /><rect shape-rendering="crispEdges" fill="rgb(222, 230, 230)"  x="14" y="19" width="1" height="1" /><rect shape-rendering="crispEdges" fill="rgb(189, 205, 205)"  x="14" y="20" width="1" height="1" /><rect shape-rendering="crispEdges" fill="rgb(148, 172, 172)"  x="14" y="21" width="1" height="1" /><rect shape-rendering="crispEdges" fill="rgb(115, 139, 131)"  x="14" y="22" width="1" height="1" /><rect shape-rendering="crispEdges" fill="rgb(106, 123, 123)"  x="14" y="23" width="1" height="1" /><rect shape-rendering="crispEdges" fill="rgb(197, 74, 8)"  x="15" y="1" width="1" height="1" /><rect shape-rendering="crispEdges" fill="rgb(246, 205, 139)"  x="15" y="2" width="1" height="1" /><rect shape-rendering="crispEdges" fill="rgb(255, 255, 205)"  x="15" y="3" width="1" height="1" /><rect shape-rendering="crispEdges" fill="rgb(255, 189, 90)"  x="15" y="4" width="1" height="1" /><rect shape-rendering="crispEdges" fill="rgb(255, 139, 32)"  x="15" y="5" width="1" height="1" /><rect shape-rendering="crispEdges" fill="rgb(255, 115, 24)"  x="15" y="6" width="1" height="1" /><rect shape-rendering="crispEdges" fill="rgb(255, 98, 8)"  x="15" y="7" width="1" height="1" /><rect shape-rendering="crispEdges" fill="rgb(230, 74, 0)"  x="15" y="8" width="1" height="1" /><rect shape-rendering="crispEdges" fill="rgb(238, 164, 74)"  x="15" y="9" width="1" height="1" /><rect shape-rendering="crispEdges" fill="rgb(255, 164, 57)"  x="15" y="10" width="1" height="1" /><rect shape-rendering="crispEdges" fill="rgb(255, 180, 98)"  x="15" y="11" width="1" height="1" /><rect shape-rendering="crispEdges" fill="rgb(255, 222, 131)"  x="15" y="12" width="1" height="1" /><rect shape-rendering="crispEdges" fill="rgb(255, 131, 32)"  x="15" y="13" width="1" height="1" /><rect shape-rendering="crispEdges" fill="rgb(222, 82, 0)"  x="15" y="14" width="1" height="1" /><rect shape-rendering="crispEdges" fill="rgb(197, 74, 0)"  x="15" y="15" width="1" height="1" /><rect shape-rendering="crispEdges" fill="rgb(98, 115, 115)"  x="15" y="16" width="1" height="1" /><rect shape-rendering="crispEdges" fill="rgb(123, 139, 139)"  x="15" y="17" width="1" height="1" /><rect shape-rendering="crispEdges" fill="rgb(189, 205, 197)"  x="15" y="18" width="1" height="1" /><rect shape-rendering="crispEdges" fill="rgb(222, 230, 230)"  x="15" y="19" width="1" height="1" /><rect shape-rendering="crispEdges" fill="rgb(189, 205, 197)"  x="15" y="20" width="1" height="1" /><rect shape-rendering="crispEdges" fill="rgb(148, 172, 164)"  x="15" y="21" width="1" height="1" /><rect shape-rendering="crispEdges" fill="rgb(115, 131, 131)"  x="15" y="22" width="1" height="1" /><rect shape-rendering="crispEdges" fill="rgb(98, 123, 123)"  x="15" y="23" width="1" height="1" /><rect shape-rendering="crispEdges" fill="rgb(213, 90, 16)"  x="16" y="1" width="1" height="1" /><rect shape-rendering="crispEdges" fill="rgb(255, 222, 148)"  x="16" y="2" width="1" height="1" /><rect shape-rendering="crispEdges" fill="rgb(255, 238, 164)"  x="16" y="3" width="1" height="1" /><rect shape-rendering="crispEdges" fill="rgb(255, 172, 65)"  x="16" y="4" width="1" height="1" /><rect shape-rendering="crispEdges" fill="rgb(255, 139, 32)"  x="16" y="5" width="1" height="1" /><rect shape-rendering="crispEdges" fill="rgb(255, 123, 24)"  x="16" y="6" width="1" height="1" /><rect shape-rendering="crispEdges" fill="rgb(255, 106, 16)"  x="16" y="7" width="1" height="1" /><rect shape-rendering="crispEdges" fill="rgb(222, 74, 0)"  x="16" y="8" width="1" height="1" /><rect shape-rendering="crispEdges" fill="rgb(222, 156, 74)"  x="16" y="9" width="1" height="1" /><rect shape-rendering="crispEdges" fill="rgb(255, 164, 57)"  x="16" y="10" width="1" height="1" /><rect shape-rendering="crispEdges" fill="rgb(255, 180, 98)"  x="16" y="11" width="1" height="1" /><rect shape-rendering="crispEdges" fill="rgb(255, 205, 115)"  x="16" y="12" width="1" height="1" /><rect shape-rendering="crispEdges" fill="rgb(255, 131, 32)"  x="16" y="13" width="1" height="1" /><rect shape-rendering="crispEdges" fill="rgb(255, 106, 8)"  x="16" y="14" width="1" height="1" /><rect shape-rendering="crispEdges" fill="rgb(238, 90, 8)"  x="16" y="15" width="1" height="1" /><rect shape-rendering="crispEdges" fill="rgb(189, 65, 0)"  x="16" y="16" width="1" height="1" /><rect shape-rendering="crispEdges" fill="rgb(131, 156, 148)"  x="16" y="17" width="1" height="1" /><rect shape-rendering="crispEdges" fill="rgb(148, 164, 164)"  x="16" y="18" width="1" height="1" /><rect shape-rendering="crispEdges" fill="rgb(197, 213, 213)"  x="16" y="19" width="1" height="1" /><rect shape-rendering="crispEdges" fill="rgb(180, 197, 197)"  x="16" y="20" width="1" height="1" /><rect shape-rendering="crispEdges" fill="rgb(139, 164, 156)"  x="16" y="21" width="1" height="1" /><rect shape-rendering="crispEdges" fill="rgb(106, 123, 123)"  x="16" y="22" width="1" height="1" /><rect shape-rendering="crispEdges" fill="rgb(90, 115, 115)"  x="16" y="23" width="1" height="1" /><rect shape-rendering="crispEdges" fill="rgb(222, 106, 24)"  x="17" y="1" width="1" height="1" /><rect shape-rendering="crispEdges" fill="rgb(255, 230, 156)"  x="17" y="2" width="1" height="1" /><rect shape-rendering="crispEdges" fill="rgb(255, 230, 148)"  x="17" y="3" width="1" height="1" /><rect shape-rendering="crispEdges" fill="rgb(255, 156, 41)"  x="17" y="4" width="1" height="1" /><rect shape-rendering="crispEdges" fill="rgb(255, 131, 32)"  x="17" y="5" width="1" height="1" /><rect shape-rendering="crispEdges" fill="rgb(255, 123, 16)"  x="17" y="6" width="1" height="1" /><rect shape-rendering="crispEdges" fill="rgb(255, 115, 16)"  x="17" y="7" width="1" height="1" /><rect shape-rendering="crispEdges" fill="rgb(222, 74, 0)"  x="17" y="8" width="1" height="1" /><rect shape-rendering="crispEdges" fill="rgb(213, 123, 49)"  x="17" y="9" width="1" height="1" /><rect shape-rendering="crispEdges" fill="rgb(246, 164, 65)"  x="17" y="10" width="1" height="1" /><rect shape-rendering="crispEdges" fill="rgb(255, 148, 49)"  x="17" y="11" width="1" height="1" /><rect shape-rendering="crispEdges" fill="rgb(255, 180, 82)"  x="17" y="12" width="1" height="1" /><rect shape-rendering="crispEdges" fill="rgb(255, 139, 32)"  x="17" y="13" width="1" height="1" /><rect shape-rendering="crispEdges" fill="rgb(255, 115, 16)"  x="17" y="14" width="1" height="1" /><rect shape-rendering="crispEdges" fill="rgb(255, 106, 16)"  x="17" y="15" width="1" height="1" /><rect shape-rendering="crispEdges" fill="rgb(238, 82, 8)"  x="17" y="16" width="1" height="1" /><rect shape-rendering="crispEdges" fill="rgb(189, 57, 0)"  x="17" y="17" width="1" height="1" /><rect shape-rendering="crispEdges" fill="rgb(131, 148, 148)"  x="17" y="18" width="1" height="1" /><rect shape-rendering="crispEdges" fill="rgb(156, 172, 172)"  x="17" y="19" width="1" height="1" /><rect shape-rendering="crispEdges" fill="rgb(156, 172, 172)"  x="17" y="20" width="1" height="1" /><rect shape-rendering="crispEdges" fill="rgb(131, 148, 148)"  x="17" y="21" width="1" height="1" /><rect shape-rendering="crispEdges" fill="rgb(106, 123, 115)"  x="17" y="22" width="1" height="1" /><rect shape-rendering="crispEdges" fill="rgb(164, 49, 0)"  x="17" y="23" width="1" height="1" /><rect shape-rendering="crispEdges" fill="rgb(156, 49, 0)"  x="17" y="24" width="1" height="1" /><rect shape-rendering="crispEdges" fill="rgb(156, 41, 0)"  x="17" y="25" width="1" height="1" /><rect shape-rendering="crispEdges" fill="rgb(156, 41, 0)"  x="17" y="26" width="1" height="1" /><rect shape-rendering="crispEdges" fill="rgb(156, 41, 0)"  x="17" y="27" width="1" height="1" /><rect shape-rendering="crispEdges" fill="rgb(156, 49, 0)"  x="17" y="28" width="1" height="1" /><rect shape-rendering="crispEdges" fill="rgb(156, 41, 0)"  x="17" y="29" width="1" height="1" /><rect shape-rendering="crispEdges" fill="rgb(156, 32, 0)"  x="17" y="30" width="1" height="1" /><rect shape-rendering="crispEdges" fill="rgb(222, 115, 24)"  x="18" y="1" width="1" height="1" /><rect shape-rendering="crispEdges" fill="rgb(255, 238, 180)"  x="18" y="2" width="1" height="1" /><rect shape-rendering="crispEdges" fill="rgb(255, 238, 180)"  x="18" y="3" width="1" height="1" /><rect shape-rendering="crispEdges" fill="rgb(255, 164, 41)"  x="18" y="4" width="1" height="1" /><rect shape-rendering="crispEdges" fill="rgb(255, 123, 24)"  x="18" y="5" width="1" height="1" /><rect shape-rendering="crispEdges" fill="rgb(255, 115, 16)"  x="18" y="6" width="1" height="1" /><rect shape-rendering="crispEdges" fill="rgb(255, 106, 16)"  x="18" y="7" width="1" height="1" /><rect shape-rendering="crispEdges" fill="rgb(246, 90, 8)"  x="18" y="8" width="1" height="1" /><rect shape-rendering="crispEdges" fill="rgb(189, 65, 8)"  x="18" y="9" width="1" height="1" /><rect shape-rendering="crispEdges" fill="rgb(222, 131, 41)"  x="18" y="10" width="1" height="1" /><rect shape-rendering="crispEdges" fill="rgb(255, 131, 32)"  x="18" y="11" width="1" height="1" /><rect shape-rendering="crispEdges" fill="rgb(255, 148, 49)"  x="18" y="12" width="1" height="1" /><rect shape-rendering="crispEdges" fill="rgb(255, 139, 41)"  x="18" y="13" width="1" height="1" /><rect shape-rendering="crispEdges" fill="rgb(255, 115, 16)"  x="18" y="14" width="1" height="1" /><rect shape-rendering="crispEdges" fill="rgb(255, 98, 8)"  x="18" y="15" width="1" height="1" /><rect shape-rendering="crispEdges" fill="rgb(230, 82, 8)"  x="18" y="16" width="1" height="1" /><rect shape-rendering="crispEdges" fill="rgb(180, 57, 0)"  x="18" y="17" width="1" height="1" /><rect shape-rendering="crispEdges" fill="rgb(164, 49, 0)"  x="18" y="18" width="1" height="1" /><rect shape-rendering="crispEdges" fill="rgb(197, 57, 0)"  x="18" y="19" width="1" height="1" /><rect shape-rendering="crispEdges" fill="rgb(205, 65, 8)"  x="18" y="20" width="1" height="1" /><rect shape-rendering="crispEdges" fill="rgb(189, 57, 0)"  x="18" y="21" width="1" height="1" /><rect shape-rendering="crispEdges" fill="rgb(172, 57, 0)"  x="18" y="22" width="1" height="1" /><rect shape-rendering="crispEdges" fill="rgb(189, 65, 0)"  x="18" y="23" width="1" height="1" /><rect shape-rendering="crispEdges" fill="rgb(205, 65, 0)"  x="18" y="24" width="1" height="1" /><rect shape-rendering="crispEdges" fill="rgb(205, 65, 0)"  x="18" y="25" width="1" height="1" /><rect shape-rendering="crispEdges" fill="rgb(205, 65, 0)"  x="18" y="26" width="1" height="1" /><rect shape-rendering="crispEdges" fill="rgb(205, 65, 0)"  x="18" y="27" width="1" height="1" /><rect shape-rendering="crispEdges" fill="rgb(189, 57, 0)"  x="18" y="28" width="1" height="1" /><rect shape-rendering="crispEdges" fill="rgb(156, 32, 0)"  x="18" y="29" width="1" height="1" /><rect shape-rendering="crispEdges" fill="rgb(156, 24, 0)"  x="18" y="30" width="1" height="1" /><rect shape-rendering="crispEdges" fill="rgb(222, 106, 24)"  x="19" y="1" width="1" height="1" /><rect shape-rendering="crispEdges" fill="rgb(255, 222, 131)"  x="19" y="2" width="1" height="1" /><rect shape-rendering="crispEdges" fill="rgb(255, 255, 197)"  x="19" y="3" width="1" height="1" /><rect shape-rendering="crispEdges" fill="rgb(255, 180, 74)"  x="19" y="4" width="1" height="1" /><rect shape-rendering="crispEdges" fill="rgb(255, 115, 8)"  x="19" y="5" width="1" height="1" /><rect shape-rendering="crispEdges" fill="rgb(255, 98, 16)"  x="19" y="6" width="1" height="1" /><rect shape-rendering="crispEdges" fill="rgb(255, 90, 8)"  x="19" y="7" width="1" height="1" /><rect shape-rendering="crispEdges" fill="rgb(238, 82, 8)"  x="19" y="8" width="1" height="1" /><rect shape-rendering="crispEdges" fill="rgb(180, 57, 0)"  x="19" y="9" width="1" height="1" /><rect shape-rendering="crispEdges" fill="rgb(180, 74, 8)"  x="19" y="10" width="1" height="1" /><rect shape-rendering="crispEdges" fill="rgb(222, 98, 16)"  x="19" y="11" width="1" height="1" /><rect shape-rendering="crispEdges" fill="rgb(246, 106, 24)"  x="19" y="12" width="1" height="1" /><rect shape-rendering="crispEdges" fill="rgb(246, 106, 16)"  x="19" y="13" width="1" height="1" /><rect shape-rendering="crispEdges" fill="rgb(238, 90, 8)"  x="19" y="14" width="1" height="1" /><rect shape-rendering="crispEdges" fill="rgb(222, 82, 8)"  x="19" y="15" width="1" height="1" /><rect shape-rendering="crispEdges" fill="rgb(180, 57, 0)"  x="19" y="16" width="1" height="1" /><rect shape-rendering="crispEdges" fill="rgb(148, 41, 0)"  x="19" y="17" width="1" height="1" /><rect shape-rendering="crispEdges" fill="rgb(180, 57, 0)"  x="19" y="18" width="1" height="1" /><rect shape-rendering="crispEdges" fill="rgb(238, 82, 8)"  x="19" y="19" width="1" height="1" /><rect shape-rendering="crispEdges" fill="rgb(246, 82, 8)"  x="19" y="20" width="1" height="1" /><rect shape-rendering="crispEdges" fill="rgb(230, 82, 8)"  x="19" y="21" width="1" height="1" /><rect shape-rendering="crispEdges" fill="rgb(230, 82, 8)"  x="19" y="22" width="1" height="1" /><rect shape-rendering="crispEdges" fill="rgb(238, 82, 8)"  x="19" y="23" width="1" height="1" /><rect shape-rendering="crispEdges" fill="rgb(238, 82, 8)"  x="19" y="24" width="1" height="1" /><rect shape-rendering="crispEdges" fill="rgb(238, 82, 8)"  x="19" y="25" width="1" height="1" /><rect shape-rendering="crispEdges" fill="rgb(255, 90, 8)"  x="19" y="26" width="1" height="1" /><rect shape-rendering="crispEdges" fill="rgb(238, 82, 8)"  x="19" y="27" width="1" height="1" /><rect shape-rendering="crispEdges" fill="rgb(180, 49, 0)"  x="19" y="28" width="1" height="1" /><rect shape-rendering="crispEdges" fill="rgb(148, 24, 0)"  x="19" y="29" width="1" height="1" /><rect shape-rendering="crispEdges" fill="rgb(148, 24, 0)"  x="19" y="30" width="1" height="1" /><rect shape-rendering="crispEdges" fill="rgb(222, 90, 8)"  x="20" y="1" width="1" height="1" /><rect shape-rendering="crispEdges" fill="rgb(255, 189, 82)"  x="20" y="2" width="1" height="1" /><rect shape-rendering="crispEdges" fill="rgb(255, 230, 139)"  x="20" y="3" width="1" height="1" /><rect shape-rendering="crispEdges" fill="rgb(255, 164, 57)"  x="20" y="4" width="1" height="1" /><rect shape-rendering="crispEdges" fill="rgb(255, 106, 8)"  x="20" y="5" width="1" height="1" /><rect shape-rendering="crispEdges" fill="rgb(255, 98, 8)"  x="20" y="6" width="1" height="1" /><rect shape-rendering="crispEdges" fill="rgb(238, 82, 8)"  x="20" y="7" width="1" height="1" /><rect shape-rendering="crispEdges" fill="rgb(189, 57, 0)"  x="20" y="8" width="1" height="1" /><rect shape-rendering="crispEdges" fill="rgb(172, 65, 8)"  x="20" y="9" width="1" height="1" /><rect shape-rendering="crispEdges" fill="rgb(197, 82, 16)"  x="20" y="10" width="1" height="1" /><rect shape-rendering="crispEdges" fill="rgb(180, 65, 8)"  x="20" y="11" width="1" height="1" /><rect shape-rendering="crispEdges" fill="rgb(180, 57, 0)"  x="20" y="12" width="1" height="1" /><rect shape-rendering="crispEdges" fill="rgb(205, 74, 8)"  x="20" y="13" width="1" height="1" /><rect shape-rendering="crispEdges" fill="rgb(197, 65, 0)"  x="20" y="14" width="1" height="1" /><rect shape-rendering="crispEdges" fill="rgb(180, 57, 0)"  x="20" y="15" width="1" height="1" /><rect shape-rendering="crispEdges" fill="rgb(164, 49, 0)"  x="20" y="16" width="1" height="1" /><rect shape-rendering="crispEdges" fill="rgb(180, 65, 0)"  x="20" y="17" width="1" height="1" /><rect shape-rendering="crispEdges" fill="rgb(222, 74, 8)"  x="20" y="18" width="1" height="1" /><rect shape-rendering="crispEdges" fill="rgb(230, 82, 8)"  x="20" y="19" width="1" height="1" /><rect shape-rendering="crispEdges" fill="rgb(230, 82, 8)"  x="20" y="20" width="1" height="1" /><rect shape-rendering="crispEdges" fill="rgb(246, 90, 8)"  x="20" y="21" width="1" height="1" /><rect shape-rendering="crispEdges" fill="rgb(246, 90, 8)"  x="20" y="22" width="1" height="1" /><rect shape-rendering="crispEdges" fill="rgb(255, 90, 8)"  x="20" y="23" width="1" height="1" /><rect shape-rendering="crispEdges" fill="rgb(255, 90, 8)"  x="20" y="24" width="1" height="1" /><rect shape-rendering="crispEdges" fill="rgb(255, 98, 16)"  x="20" y="25" width="1" height="1" /><rect shape-rendering="crispEdges" fill="rgb(246, 90, 8)"  x="20" y="26" width="1" height="1" /><rect shape-rendering="crispEdges" fill="rgb(180, 49, 0)"  x="20" y="27" width="1" height="1" /><rect shape-rendering="crispEdges" fill="rgb(148, 24, 0)"  x="20" y="28" width="1" height="1" /><rect shape-rendering="crispEdges" fill="rgb(148, 24, 0)"  x="20" y="29" width="1" height="1" /><rect shape-rendering="crispEdges" fill="rgb(197, 74, 0)"  x="21" y="1" width="1" height="1" /><rect shape-rendering="crispEdges" fill="rgb(246, 131, 41)"  x="21" y="2" width="1" height="1" /><rect shape-rendering="crispEdges" fill="rgb(255, 180, 74)"  x="21" y="3" width="1" height="1" /><rect shape-rendering="crispEdges" fill="rgb(255, 148, 49)"  x="21" y="4" width="1" height="1" /><rect shape-rendering="crispEdges" fill="rgb(255, 115, 16)"  x="21" y="5" width="1" height="1" /><rect shape-rendering="crispEdges" fill="rgb(238, 82, 8)"  x="21" y="6" width="1" height="1" /><rect shape-rendering="crispEdges" fill="rgb(197, 65, 0)"  x="21" y="7" width="1" height="1" /><rect shape-rendering="crispEdges" fill="rgb(172, 57, 0)"  x="21" y="8" width="1" height="1" /><rect shape-rendering="crispEdges" fill="rgb(197, 82, 16)"  x="21" y="9" width="1" height="1" /><rect shape-rendering="crispEdges" fill="rgb(230, 106, 24)"  x="21" y="10" width="1" height="1" /><rect shape-rendering="crispEdges" fill="rgb(230, 98, 24)"  x="21" y="11" width="1" height="1" /><rect shape-rendering="crispEdges" fill="rgb(213, 90, 16)"  x="21" y="12" width="1" height="1" /><rect shape-rendering="crispEdges" fill="rgb(213, 90, 16)"  x="21" y="13" width="1" height="1" /><rect shape-rendering="crispEdges" fill="rgb(222, 90, 16)"  x="21" y="14" width="1" height="1" /><rect shape-rendering="crispEdges" fill="rgb(222, 90, 16)"  x="21" y="15" width="1" height="1" /><rect shape-rendering="crispEdges" fill="rgb(230, 90, 16)"  x="21" y="16" width="1" height="1" /><rect shape-rendering="crispEdges" fill="rgb(246, 98, 16)"  x="21" y="17" width="1" height="1" /><rect shape-rendering="crispEdges" fill="rgb(255, 98, 16)"  x="21" y="18" width="1" height="1" /><rect shape-rendering="crispEdges" fill="rgb(246, 98, 8)"  x="21" y="19" width="1" height="1" /><rect shape-rendering="crispEdges" fill="rgb(255, 98, 8)"  x="21" y="20" width="1" height="1" /><rect shape-rendering="crispEdges" fill="rgb(255, 98, 8)"  x="21" y="21" width="1" height="1" /><rect shape-rendering="crispEdges" fill="rgb(255, 98, 8)"  x="21" y="22" width="1" height="1" /><rect shape-rendering="crispEdges" fill="rgb(255, 98, 16)"  x="21" y="23" width="1" height="1" /><rect shape-rendering="crispEdges" fill="rgb(255, 90, 16)"  x="21" y="24" width="1" height="1" /><rect shape-rendering="crispEdges" fill="rgb(230, 74, 8)"  x="21" y="25" width="1" height="1" /><rect shape-rendering="crispEdges" fill="rgb(180, 41, 0)"  x="21" y="26" width="1" height="1" /><rect shape-rendering="crispEdges" fill="rgb(148, 24, 0)"  x="21" y="27" width="1" height="1" /><rect shape-rendering="crispEdges" fill="rgb(148, 24, 0)"  x="21" y="28" width="1" height="1" /><rect shape-rendering="crispEdges" fill="rgb(189, 65, 0)"  x="22" y="1" width="1" height="1" /><rect shape-rendering="crispEdges" fill="rgb(205, 82, 8)"  x="22" y="2" width="1" height="1" /><rect shape-rendering="crispEdges" fill="rgb(255, 131, 32)"  x="22" y="3" width="1" height="1" /><rect shape-rendering="crispEdges" fill="rgb(255, 115, 24)"  x="22" y="4" width="1" height="1" /><rect shape-rendering="crispEdges" fill="rgb(230, 82, 8)"  x="22" y="5" width="1" height="1" /><rect shape-rendering="crispEdges" fill="rgb(189, 57, 0)"  x="22" y="6" width="1" height="1" /><rect shape-rendering="crispEdges" fill="rgb(172, 57, 0)"  x="22" y="7" width="1" height="1" /><rect shape-rendering="crispEdges" fill="rgb(197, 82, 8)"  x="22" y="8" width="1" height="1" /><rect shape-rendering="crispEdges" fill="rgb(230, 98, 24)"  x="22" y="9" width="1" height="1" /><rect shape-rendering="crispEdges" fill="rgb(230, 98, 24)"  x="22" y="10" width="1" height="1" /><rect shape-rendering="crispEdges" fill="rgb(238, 106, 24)"  x="22" y="11" width="1" height="1" /><rect shape-rendering="crispEdges" fill="rgb(246, 115, 24)"  x="22" y="12" width="1" height="1" /><rect shape-rendering="crispEdges" fill="rgb(255, 106, 32)"  x="22" y="13" width="1" height="1" /><rect shape-rendering="crispEdges" fill="rgb(255, 106, 24)"  x="22" y="14" width="1" height="1" /><rect shape-rendering="crispEdges" fill="rgb(255, 106, 24)"  x="22" y="15" width="1" height="1" /><rect shape-rendering="crispEdges" fill="rgb(255, 106, 16)"  x="22" y="16" width="1" height="1" /><rect shape-rendering="crispEdges" fill="rgb(255, 106, 16)"  x="22" y="17" width="1" height="1" /><rect shape-rendering="crispEdges" fill="rgb(255, 106, 16)"  x="22" y="18" width="1" height="1" /><rect shape-rendering="crispEdges" fill="rgb(255, 106, 16)"  x="22" y="19" width="1" height="1" /><rect shape-rendering="crispEdges" fill="rgb(255, 106, 16)"  x="22" y="20" width="1" height="1" /><rect shape-rendering="crispEdges" fill="rgb(255, 106, 16)"  x="22" y="21" width="1" height="1" /><rect shape-rendering="crispEdges" fill="rgb(255, 98, 8)"  x="22" y="22" width="1" height="1" /><rect shape-rendering="crispEdges" fill="rgb(230, 74, 8)"  x="22" y="23" width="1" height="1" /><rect shape-rendering="crispEdges" fill="rgb(205, 57, 0)"  x="22" y="24" width="1" height="1" /><rect shape-rendering="crispEdges" fill="rgb(156, 32, 0)"  x="22" y="25" width="1" height="1" /><rect shape-rendering="crispEdges" fill="rgb(148, 24, 0)"  x="22" y="26" width="1" height="1" /><rect shape-rendering="crispEdges" fill="rgb(156, 24, 0)"  x="22" y="27" width="1" height="1" /><rect shape-rendering="crispEdges" fill="rgb(189, 65, 0)"  x="23" y="1" width="1" height="1" /><rect shape-rendering="crispEdges" fill="rgb(189, 65, 0)"  x="23" y="2" width="1" height="1" /><rect shape-rendering="crispEdges" fill="rgb(222, 82, 0)"  x="23" y="3" width="1" height="1" /><rect shape-rendering="crispEdges" fill="rgb(246, 82, 8)"  x="23" y="4" width="1" height="1" /><rect shape-rendering="crispEdges" fill="rgb(213, 74, 8)"  x="23" y="5" width="1" height="1" /><rect shape-rendering="crispEdges" fill="rgb(189, 65, 0)"  x="23" y="6" width="1" height="1" /><rect shape-rendering="crispEdges" fill="rgb(205, 74, 8)"  x="23" y="7" width="1" height="1" /><rect shape-rendering="crispEdges" fill="rgb(230, 98, 16)"  x="23" y="8" width="1" height="1" /><rect shape-rendering="crispEdges" fill="rgb(238, 98, 24)"  x="23" y="9" width="1" height="1" /><rect shape-rendering="crispEdges" fill="rgb(238, 106, 24)"  x="23" y="10" width="1" height="1" /><rect shape-rendering="crispEdges" fill="rgb(246, 98, 24)"  x="23" y="11" width="1" height="1" /><rect shape-rendering="crispEdges" fill="rgb(246, 106, 24)"  x="23" y="12" width="1" height="1" /><rect shape-rendering="crispEdges" fill="rgb(246, 98, 24)"  x="23" y="13" width="1" height="1" /><rect shape-rendering="crispEdges" fill="rgb(246, 106, 16)"  x="23" y="14" width="1" height="1" /><rect shape-rendering="crispEdges" fill="rgb(255, 106, 16)"  x="23" y="15" width="1" height="1" /><rect shape-rendering="crispEdges" fill="rgb(255, 106, 16)"  x="23" y="16" width="1" height="1" /><rect shape-rendering="crispEdges" fill="rgb(255, 106, 16)"  x="23" y="17" width="1" height="1" /><rect shape-rendering="crispEdges" fill="rgb(255, 106, 16)"  x="23" y="18" width="1" height="1" /><rect shape-rendering="crispEdges" fill="rgb(255, 106, 16)"  x="23" y="19" width="1" height="1" /><rect shape-rendering="crispEdges" fill="rgb(255, 98, 8)"  x="23" y="20" width="1" height="1" /><rect shape-rendering="crispEdges" fill="rgb(238, 82, 8)"  x="23" y="21" width="1" height="1" /><rect shape-rendering="crispEdges" fill="rgb(205, 57, 0)"  x="23" y="22" width="1" height="1" /><rect shape-rendering="crispEdges" fill="rgb(156, 32, 0)"  x="23" y="23" width="1" height="1" /><rect shape-rendering="crispEdges" fill="rgb(139, 24, 0)"  x="23" y="24" width="1" height="1" /><rect shape-rendering="crispEdges" fill="rgb(148, 24, 0)"  x="23" y="25" width="1" height="1" /><rect shape-rendering="crispEdges" fill="rgb(189, 65, 0)"  x="24" y="2" width="1" height="1" /><rect shape-rendering="crispEdges" fill="rgb(189, 65, 0)"  x="24" y="3" width="1" height="1" /><rect shape-rendering="crispEdges" fill="rgb(213, 74, 0)"  x="24" y="4" width="1" height="1" /><rect shape-rendering="crispEdges" fill="rgb(230, 82, 8)"  x="24" y="5" width="1" height="1" /><rect shape-rendering="crispEdges" fill="rgb(238, 90, 8)"  x="24" y="6" width="1" height="1" /><rect shape-rendering="crispEdges" fill="rgb(238, 98, 8)"  x="24" y="7" width="1" height="1" /><rect shape-rendering="crispEdges" fill="rgb(238, 98, 16)"  x="24" y="8" width="1" height="1" /><rect shape-rendering="crispEdges" fill="rgb(246, 106, 24)"  x="24" y="9" width="1" height="1" /><rect shape-rendering="crispEdges" fill="rgb(246, 106, 24)"  x="24" y="10" width="1" height="1" /><rect shape-rendering="crispEdges" fill="rgb(246, 106, 24)"  x="24" y="11" width="1" height="1" /><rect shape-rendering="crispEdges" fill="rgb(246, 106, 24)"  x="24" y="12" width="1" height="1" /><rect shape-rendering="crispEdges" fill="rgb(255, 106, 24)"  x="24" y="13" width="1" height="1" /><rect shape-rendering="crispEdges" fill="rgb(255, 106, 16)"  x="24" y="14" width="1" height="1" /><rect shape-rendering="crispEdges" fill="rgb(255, 115, 24)"  x="24" y="15" width="1" height="1" /><rect shape-rendering="crispEdges" fill="rgb(255, 106, 16)"  x="24" y="16" width="1" height="1" /><rect shape-rendering="crispEdges" fill="rgb(255, 106, 16)"  x="24" y="17" width="1" height="1" /><rect shape-rendering="crispEdges" fill="rgb(246, 98, 8)"  x="24" y="18" width="1" height="1" /><rect shape-rendering="crispEdges" fill="rgb(222, 74, 8)"  x="24" y="19" width="1" height="1" /><rect shape-rendering="crispEdges" fill="rgb(197, 57, 0)"  x="24" y="20" width="1" height="1" /><rect shape-rendering="crispEdges" fill="rgb(172, 32, 0)"  x="24" y="21" width="1" height="1" /><rect shape-rendering="crispEdges" fill="rgb(148, 24, 0)"  x="24" y="22" width="1" height="1" /><rect shape-rendering="crispEdges" fill="rgb(148, 24, 0)"  x="24" y="23" width="1" height="1" /><rect shape-rendering="crispEdges" fill="rgb(189, 65, 0)"  x="25" y="3" width="1" height="1" /><rect shape-rendering="crispEdges" fill="rgb(189, 65, 0)"  x="25" y="4" width="1" height="1" /><rect shape-rendering="crispEdges" fill="rgb(197, 74, 0)"  x="25" y="5" width="1" height="1" /><rect shape-rendering="crispEdges" fill="rgb(213, 82, 0)"  x="25" y="6" width="1" height="1" /><rect shape-rendering="crispEdges" fill="rgb(222, 82, 8)"  x="25" y="7" width="1" height="1" /><rect shape-rendering="crispEdges" fill="rgb(230, 90, 8)"  x="25" y="8" width="1" height="1" /><rect shape-rendering="crispEdges" fill="rgb(238, 98, 16)"  x="25" y="9" width="1" height="1" /><rect shape-rendering="crispEdges" fill="rgb(238, 98, 16)"  x="25" y="10" width="1" height="1" /><rect shape-rendering="crispEdges" fill="rgb(238, 98, 16)"  x="25" y="11" width="1" height="1" /><rect shape-rendering="crispEdges" fill="rgb(246, 98, 16)"  x="25" y="12" width="1" height="1" /><rect shape-rendering="crispEdges" fill="rgb(246, 98, 16)"  x="25" y="13" width="1" height="1" /><rect shape-rendering="crispEdges" fill="rgb(230, 82, 16)"  x="25" y="14" width="1" height="1" /><rect shape-rendering="crispEdges" fill="rgb(213, 74, 8)"  x="25" y="15" width="1" height="1" /><rect shape-rendering="crispEdges" fill="rgb(213, 74, 8)"  x="25" y="16" width="1" height="1" /><rect shape-rendering="crispEdges" fill="rgb(197, 57, 0)"  x="25" y="17" width="1" height="1" /><rect shape-rendering="crispEdges" fill="rgb(172, 41, 0)"  x="25" y="18" width="1" height="1" /><rect shape-rendering="crispEdges" fill="rgb(156, 32, 0)"  x="25" y="19" width="1" height="1" /><rect shape-rendering="crispEdges" fill="rgb(148, 24, 0)"  x="25" y="20" width="1" height="1" /><rect shape-rendering="crispEdges" fill="rgb(148, 24, 0)"  x="25" y="21" width="1" height="1" /></svg>