<svg xmlns="http://www.w3.org/2000/svg" xmlns:xlink= "http://www.w3.org/1999/xlink" width="32" height="32" viewBox ="0 0 32 32"><rect shape-rendering="crispEdges" fill="rgb(115, 82, 115)"  x="2" y="2" width="1" height="1" /><rect shape-rendering="crispEdges" fill="rgb(115, 82, 115)"  x="2" y="3" width="1" height="1" /><rect shape-rendering="crispEdges" fill="rgb(115, 82, 115)"  x="2" y="4" width="1" height="1" /><rect shape-rendering="crispEdges" fill="rgb(115, 82, 115)"  x="2" y="5" width="1" height="1" /><rect shape-rendering="crispEdges" fill="rgb(115, 82, 115)"  x="2" y="6" width="1" height="1" /><rect shape-rendering="crispEdges" fill="rgb(115, 82, 115)"  x="2" y="7" width="1" height="1" /><rect shape-rendering="crispEdges" fill="rgb(115, 82, 115)"  x="2" y="8" width="1" height="1" /><rect shape-rendering="crispEdges" fill="rgb(115, 82, 115)"  x="3" y="1" width="1" height="1" /><rect shape-rendering="crispEdges" fill="rgb(255, 238, 246)"  x="3" y="2" width="1" height="1" /><rect shape-rendering="crispEdges" fill="rgb(255, 238, 238)"  x="3" y="3" width="1" height="1" /><rect shape-rendering="crispEdges" fill="rgb(246, 230, 238)"  x="3" y="4" width="1" height="1" /><rect shape-rendering="crispEdges" fill="rgb(246, 230, 238)"  x="3" y="5" width="1" height="1" /><rect shape-rendering="crispEdges" fill="rgb(246, 230, 238)"  x="3" y="6" width="1" height="1" /><rect shape-rendering="crispEdges" fill="rgb(246, 222, 230)"  x="3" y="7" width="1" height="1" /><rect shape-rendering="crispEdges" fill="rgb(238, 213, 222)"  x="3" y="8" width="1" height="1" /><rect shape-rendering="crispEdges" fill="rgb(115, 82, 115)"  x="3" y="9" width="1" height="1" /><rect shape-rendering="crispEdges" fill="rgb(115, 82, 115)"  x="3" y="10" width="1" height="1" /><rect shape-rendering="crispEdges" fill="rgb(115, 82, 115)"  x="3" y="11" width="1" height="1" /><rect shape-rendering="crispEdges" fill="rgb(115, 82, 115)"  x="3" y="12" width="1" height="1" /><rect shape-rendering="crispEdges" fill="rgb(115, 82, 115)"  x="3" y="13" width="1" height="1" /><rect shape-rendering="crispEdges" fill="rgb(115, 82, 115)"  x="3" y="14" width="1" height="1" /><rect shape-rendering="crispEdges" fill="rgb(115, 82, 115)"  x="3" y="15" width="1" height="1" /><rect shape-rendering="crispEdges" fill="rgb(115, 82, 115)"  x="4" y="2" width="1" height="1" /><rect shape-rendering="crispEdges" fill="rgb(255, 255, 255)"  x="4" y="3" width="1" height="1" /><rect shape-rendering="crispEdges" fill="rgb(255, 255, 255)"  x="4" y="4" width="1" height="1" /><rect shape-rendering="crispEdges" fill="rgb(255, 246, 255)"  x="4" y="5" width="1" height="1" /><rect shape-rendering="crispEdges" fill="rgb(238, 164, 180)"  x="4" y="6" width="1" height="1" /><rect shape-rendering="crispEdges" fill="rgb(222, 156, 172)"  x="4" y="7" width="1" height="1" /><rect shape-rendering="crispEdges" fill="rgb(230, 180, 180)"  x="4" y="8" width="1" height="1" /><rect shape-rendering="crispEdges" fill="rgb(230, 180, 189)"  x="4" y="9" width="1" height="1" /><rect shape-rendering="crispEdges" fill="rgb(230, 197, 205)"  x="4" y="10" width="1" height="1" /><rect shape-rendering="crispEdges" fill="rgb(238, 213, 222)"  x="4" y="11" width="1" height="1" /><rect shape-rendering="crispEdges" fill="rgb(246, 230, 230)"  x="4" y="12" width="1" height="1" /><rect shape-rendering="crispEdges" fill="rgb(238, 213, 222)"  x="4" y="13" width="1" height="1" /><rect shape-rendering="crispEdges" fill="rgb(230, 213, 213)"  x="4" y="14" width="1" height="1" /><rect shape-rendering="crispEdges" fill="rgb(222, 197, 205)"  x="4" y="15" width="1" height="1" /><rect shape-rendering="crispEdges" fill="rgb(115, 82, 115)"  x="4" y="16" width="1" height="1" /><rect shape-rendering="crispEdges" fill="rgb(115, 82, 115)"  x="4" y="17" width="1" height="1" /><rect shape-rendering="crispEdges" fill="rgb(115, 82, 115)"  x="4" y="18" width="1" height="1" /><rect shape-rendering="crispEdges" fill="rgb(115, 82, 115)"  x="4" y="19" width="1" height="1" /><rect shape-rendering="crispEdges" fill="rgb(115, 82, 115)"  x="4" y="20" width="1" height="1" /><rect shape-rendering="crispEdges" fill="rgb(115, 82, 115)"  x="5" y="3" width="1" height="1" /><rect shape-rendering="crispEdges" fill="rgb(255, 255, 255)"  x="5" y="4" width="1" height="1" /><rect shape-rendering="crispEdges" fill="rgb(255, 255, 255)"  x="5" y="5" width="1" height="1" /><rect shape-rendering="crispEdges" fill="rgb(255, 255, 255)"  x="5" y="6" width="1" height="1" /><rect shape-rendering="crispEdges" fill="rgb(255, 255, 255)"  x="5" y="7" width="1" height="1" /><rect shape-rendering="crispEdges" fill="rgb(255, 255, 255)"  x="5" y="8" width="1" height="1" /><rect shape-rendering="crispEdges" fill="rgb(255, 189, 205)"  x="5" y="9" width="1" height="1" /><rect shape-rendering="crispEdges" fill="rgb(222, 115, 131)"  x="5" y="10" width="1" height="1" /><rect shape-rendering="crispEdges" fill="rgb(205, 106, 123)"  x="5" y="11" width="1" height="1" /><rect shape-rendering="crispEdges" fill="rgb(213, 123, 139)"  x="5" y="12" width="1" height="1" /><rect shape-rendering="crispEdges" fill="rgb(213, 131, 139)"  x="5" y="13" width="1" height="1" /><rect shape-rendering="crispEdges" fill="rgb(222, 172, 180)"  x="5" y="14" width="1" height="1" /><rect shape-rendering="crispEdges" fill="rgb(222, 189, 197)"  x="5" y="15" width="1" height="1" /><rect shape-rendering="crispEdges" fill="rgb(230, 197, 205)"  x="5" y="16" width="1" height="1" /><rect shape-rendering="crispEdges" fill="rgb(230, 213, 222)"  x="5" y="17" width="1" height="1" /><rect shape-rendering="crispEdges" fill="rgb(238, 222, 230)"  x="5" y="18" width="1" height="1" /><rect shape-rendering="crispEdges" fill="rgb(238, 213, 222)"  x="5" y="19" width="1" height="1" /><rect shape-rendering="crispEdges" fill="rgb(230, 213, 222)"  x="5" y="20" width="1" height="1" /><rect shape-rendering="crispEdges" fill="rgb(115, 82, 115)"  x="5" y="21" width="1" height="1" /><rect shape-rendering="crispEdges" fill="rgb(115, 82, 115)"  x="5" y="22" width="1" height="1" /><rect shape-rendering="crispEdges" fill="rgb(115, 82, 115)"  x="5" y="23" width="1" height="1" /><rect shape-rendering="crispEdges" fill="rgb(115, 82, 115)"  x="6" y="4" width="1" height="1" /><rect shape-rendering="crispEdges" fill="rgb(115, 82, 115)"  x="6" y="5" width="1" height="1" /><rect shape-rendering="crispEdges" fill="rgb(255, 246, 255)"  x="6" y="6" width="1" height="1" /><rect shape-rendering="crispEdges" fill="rgb(255, 255, 255)"  x="6" y="7" width="1" height="1" /><rect shape-rendering="crispEdges" fill="rgb(255, 255, 255)"  x="6" y="8" width="1" height="1" /><rect shape-rendering="crispEdges" fill="rgb(255, 255, 255)"  x="6" y="9" width="1" height="1" /><rect shape-rendering="crispEdges" fill="rgb(255, 255, 255)"  x="6" y="10" width="1" height="1" /><rect shape-rendering="crispEdges" fill="rgb(255, 255, 255)"  x="6" y="11" width="1" height="1" /><rect shape-rendering="crispEdges" fill="rgb(238, 172, 180)"  x="6" y="12" width="1" height="1" /><rect shape-rendering="crispEdges" fill="rgb(197, 90, 106)"  x="6" y="13" width="1" height="1" /><rect shape-rendering="crispEdges" fill="rgb(197, 90, 98)"  x="6" y="14" width="1" height="1" /><rect shape-rendering="crispEdges" fill="rgb(180, 82, 90)"  x="6" y="15" width="1" height="1" /><rect shape-rendering="crispEdges" fill="rgb(180, 90, 98)"  x="6" y="16" width="1" height="1" /><rect shape-rendering="crispEdges" fill="rgb(197, 106, 123)"  x="6" y="17" width="1" height="1" /><rect shape-rendering="crispEdges" fill="rgb(205, 148, 156)"  x="6" y="18" width="1" height="1" /><rect shape-rendering="crispEdges" fill="rgb(222, 197, 205)"  x="6" y="19" width="1" height="1" /><rect shape-rendering="crispEdges" fill="rgb(230, 222, 222)"  x="6" y="20" width="1" height="1" /><rect shape-rendering="crispEdges" fill="rgb(230, 213, 222)"  x="6" y="21" width="1" height="1" /><rect shape-rendering="crispEdges" fill="rgb(230, 213, 222)"  x="6" y="22" width="1" height="1" /><rect shape-rendering="crispEdges" fill="rgb(222, 197, 205)"  x="6" y="23" width="1" height="1" /><rect shape-rendering="crispEdges" fill="rgb(115, 82, 115)"  x="6" y="24" width="1" height="1" /><rect shape-rendering="crispEdges" fill="rgb(115, 82, 115)"  x="7" y="6" width="1" height="1" /><rect shape-rendering="crispEdges" fill="rgb(115, 82, 115)"  x="7" y="7" width="1" height="1" /><rect shape-rendering="crispEdges" fill="rgb(255, 238, 246)"  x="7" y="8" width="1" height="1" /><rect shape-rendering="crispEdges" fill="rgb(255, 255, 255)"  x="7" y="9" width="1" height="1" /><rect shape-rendering="crispEdges" fill="rgb(255, 255, 255)"  x="7" y="10" width="1" height="1" /><rect shape-rendering="crispEdges" fill="rgb(255, 255, 255)"  x="7" y="11" width="1" height="1" /><rect shape-rendering="crispEdges" fill="rgb(255, 255, 255)"  x="7" y="12" width="1" height="1" /><rect shape-rendering="crispEdges" fill="rgb(255, 255, 255)"  x="7" y="13" width="1" height="1" /><rect shape-rendering="crispEdges" fill="rgb(255, 255, 255)"  x="7" y="14" width="1" height="1" /><rect shape-rendering="crispEdges" fill="rgb(255, 222, 230)"  x="7" y="15" width="1" height="1" /><rect shape-rendering="crispEdges" fill="rgb(213, 98, 106)"  x="7" y="16" width="1" height="1" /><rect shape-rendering="crispEdges" fill="rgb(255, 222, 230)"  x="7" y="17" width="1" height="1" /><rect shape-rendering="crispEdges" fill="rgb(230, 172, 180)"  x="7" y="18" width="1" height="1" /><rect shape-rendering="crispEdges" fill="rgb(238, 205, 213)"  x="7" y="19" width="1" height="1" /><rect shape-rendering="crispEdges" fill="rgb(255, 246, 246)"  x="7" y="20" width="1" height="1" /><rect shape-rendering="crispEdges" fill="rgb(255, 238, 238)"  x="7" y="21" width="1" height="1" /><rect shape-rendering="crispEdges" fill="rgb(246, 213, 222)"  x="7" y="22" width="1" height="1" /><rect shape-rendering="crispEdges" fill="rgb(246, 205, 213)"  x="7" y="23" width="1" height="1" /><rect shape-rendering="crispEdges" fill="rgb(115, 82, 115)"  x="7" y="24" width="1" height="1" /><rect shape-rendering="crispEdges" fill="rgb(115, 82, 115)"  x="8" y="8" width="1" height="1" /><rect shape-rendering="crispEdges" fill="rgb(115, 82, 115)"  x="8" y="9" width="1" height="1" /><rect shape-rendering="crispEdges" fill="rgb(246, 230, 230)"  x="8" y="10" width="1" height="1" /><rect shape-rendering="crispEdges" fill="rgb(255, 246, 255)"  x="8" y="11" width="1" height="1" /><rect shape-rendering="crispEdges" fill="rgb(255, 255, 255)"  x="8" y="12" width="1" height="1" /><rect shape-rendering="crispEdges" fill="rgb(255, 255, 255)"  x="8" y="13" width="1" height="1" /><rect shape-rendering="crispEdges" fill="rgb(255, 255, 255)"  x="8" y="14" width="1" height="1" /><rect shape-rendering="crispEdges" fill="rgb(255, 255, 255)"  x="8" y="15" width="1" height="1" /><rect shape-rendering="crispEdges" fill="rgb(255, 255, 255)"  x="8" y="16" width="1" height="1" /><rect shape-rendering="crispEdges" fill="rgb(255, 246, 255)"  x="8" y="17" width="1" height="1" /><rect shape-rendering="crispEdges" fill="rgb(255, 255, 255)"  x="8" y="18" width="1" height="1" /><rect shape-rendering="crispEdges" fill="rgb(255, 255, 255)"  x="8" y="19" width="1" height="1" /><rect shape-rendering="crispEdges" fill="rgb(255, 238, 246)"  x="8" y="20" width="1" height="1" /><rect shape-rendering="crispEdges" fill="rgb(255, 230, 238)"  x="8" y="21" width="1" height="1" /><rect shape-rendering="crispEdges" fill="rgb(230, 189, 197)"  x="8" y="22" width="1" height="1" /><rect shape-rendering="crispEdges" fill="rgb(115, 82, 115)"  x="8" y="23" width="1" height="1" /><rect shape-rendering="crispEdges" fill="rgb(115, 82, 115)"  x="9" y="10" width="1" height="1" /><rect shape-rendering="crispEdges" fill="rgb(115, 82, 115)"  x="9" y="11" width="1" height="1" /><rect shape-rendering="crispEdges" fill="rgb(115, 82, 115)"  x="9" y="12" width="1" height="1" /><rect shape-rendering="crispEdges" fill="rgb(115, 82, 115)"  x="9" y="13" width="1" height="1" /><rect shape-rendering="crispEdges" fill="rgb(115, 82, 115)"  x="9" y="14" width="1" height="1" /><rect shape-rendering="crispEdges" fill="rgb(238, 222, 230)"  x="9" y="15" width="1" height="1" /><rect shape-rendering="crispEdges" fill="rgb(255, 238, 246)"  x="9" y="16" width="1" height="1" /><rect shape-rendering="crispEdges" fill="rgb(255, 238, 246)"  x="9" y="17" width="1" height="1" /><rect shape-rendering="crispEdges" fill="rgb(255, 238, 246)"  x="9" y="18" width="1" height="1" /><rect shape-rendering="crispEdges" fill="rgb(255, 238, 246)"  x="9" y="19" width="1" height="1" /><rect shape-rendering="crispEdges" fill="rgb(255, 230, 238)"  x="9" y="20" width="1" height="1" /><rect shape-rendering="crispEdges" fill="rgb(246, 222, 230)"  x="9" y="21" width="1" height="1" /><rect shape-rendering="crispEdges" fill="rgb(230, 205, 213)"  x="9" y="22" width="1" height="1" /><rect shape-rendering="crispEdges" fill="rgb(115, 82, 115)"  x="9" y="23" width="1" height="1" /><rect shape-rendering="crispEdges" fill="rgb(115, 82, 115)"  x="10" y="15" width="1" height="1" /><rect shape-rendering="crispEdges" fill="rgb(115, 82, 115)"  x="10" y="16" width="1" height="1" /><rect shape-rendering="crispEdges" fill="rgb(115, 82, 115)"  x="10" y="17" width="1" height="1" /><rect shape-rendering="crispEdges" fill="rgb(115, 82, 115)"  x="10" y="18" width="1" height="1" /><rect shape-rendering="crispEdges" fill="rgb(115, 82, 115)"  x="10" y="19" width="1" height="1" /><rect shape-rendering="crispEdges" fill="rgb(74, 41, 98)"  x="10" y="20" width="1" height="1" /><rect shape-rendering="crispEdges" fill="rgb(74, 41, 98)"  x="10" y="21" width="1" height="1" /><rect shape-rendering="crispEdges" fill="rgb(74, 41, 98)"  x="10" y="22" width="1" height="1" /><rect shape-rendering="crispEdges" fill="rgb(74, 41, 98)"  x="11" y="20" width="1" height="1" /><rect shape-rendering="crispEdges" fill="rgb(213, 41, 98)"  x="11" y="21" width="1" height="1" /><rect shape-rendering="crispEdges" fill="rgb(74, 41, 98)"  x="11" y="22" width="1" height="1" /><rect shape-rendering="crispEdges" fill="rgb(74, 41, 98)"  x="12" y="20" width="1" height="1" /><rect shape-rendering="crispEdges" fill="rgb(255, 49, 115)"  x="12" y="21" width="1" height="1" /><rect shape-rendering="crispEdges" fill="rgb(230, 41, 90)"  x="12" y="22" width="1" height="1" /><rect shape-rendering="crispEdges" fill="rgb(74, 41, 98)"  x="12" y="23" width="1" height="1" /><rect shape-rendering="crispEdges" fill="rgb(74, 41, 98)"  x="13" y="20" width="1" height="1" /><rect shape-rendering="crispEdges" fill="rgb(255, 49, 115)"  x="13" y="21" width="1" height="1" /><rect shape-rendering="crispEdges" fill="rgb(238, 49, 106)"  x="13" y="22" width="1" height="1" /><rect shape-rendering="crispEdges" fill="rgb(197, 41, 90)"  x="13" y="23" width="1" height="1" /><rect shape-rendering="crispEdges" fill="rgb(74, 41, 98)"  x="13" y="24" width="1" height="1" /><rect shape-rendering="crispEdges" fill="rgb(74, 41, 98)"  x="14" y="20" width="1" height="1" /><rect shape-rendering="crispEdges" fill="rgb(255, 57, 123)"  x="14" y="21" width="1" height="1" /><rect shape-rendering="crispEdges" fill="rgb(246, 49, 115)"  x="14" y="22" width="1" height="1" /><rect shape-rendering="crispEdges" fill="rgb(213, 41, 98)"  x="14" y="23" width="1" height="1" /><rect shape-rendering="crispEdges" fill="rgb(180, 41, 98)"  x="14" y="24" width="1" height="1" /><rect shape-rendering="crispEdges" fill="rgb(74, 41, 98)"  x="14" y="25" width="1" height="1" /><rect shape-rendering="crispEdges" fill="rgb(74, 41, 98)"  x="15" y="20" width="1" height="1" /><rect shape-rendering="crispEdges" fill="rgb(246, 57, 123)"  x="15" y="21" width="1" height="1" /><rect shape-rendering="crispEdges" fill="rgb(246, 57, 123)"  x="15" y="22" width="1" height="1" /><rect shape-rendering="crispEdges" fill="rgb(222, 49, 115)"  x="15" y="23" width="1" height="1" /><rect shape-rendering="crispEdges" fill="rgb(197, 49, 106)"  x="15" y="24" width="1" height="1" /><rect shape-rendering="crispEdges" fill="rgb(139, 49, 106)"  x="15" y="25" width="1" height="1" /><rect shape-rendering="crispEdges" fill="rgb(74, 41, 98)"  x="15" y="26" width="1" height="1" /><rect shape-rendering="crispEdges" fill="rgb(74, 41, 98)"  x="16" y="20" width="1" height="1" /><rect shape-rendering="crispEdges" fill="rgb(222, 57, 123)"  x="16" y="21" width="1" height="1" /><rect shape-rendering="crispEdges" fill="rgb(230, 57, 123)"  x="16" y="22" width="1" height="1" /><rect shape-rendering="crispEdges" fill="rgb(213, 57, 123)"  x="16" y="23" width="1" height="1" /><rect shape-rendering="crispEdges" fill="rgb(189, 57, 115)"  x="16" y="24" width="1" height="1" /><rect shape-rendering="crispEdges" fill="rgb(164, 57, 123)"  x="16" y="25" width="1" height="1" /><rect shape-rendering="crispEdges" fill="rgb(74, 41, 98)"  x="16" y="26" width="1" height="1" /><rect shape-rendering="crispEdges" fill="rgb(74, 41, 98)"  x="16" y="27" width="1" height="1" /><rect shape-rendering="crispEdges" fill="rgb(74, 41, 98)"  x="16" y="28" width="1" height="1" /><rect shape-rendering="crispEdges" fill="rgb(115, 82, 115)"  x="17" y="18" width="1" height="1" /><rect shape-rendering="crispEdges" fill="rgb(115, 82, 115)"  x="17" y="19" width="1" height="1" /><rect shape-rendering="crispEdges" fill="rgb(74, 41, 98)"  x="17" y="20" width="1" height="1" /><rect shape-rendering="crispEdges" fill="rgb(197, 65, 131)"  x="17" y="21" width="1" height="1" /><rect shape-rendering="crispEdges" fill="rgb(213, 65, 139)"  x="17" y="22" width="1" height="1" /><rect shape-rendering="crispEdges" fill="rgb(205, 57, 131)"  x="17" y="23" width="1" height="1" /><rect shape-rendering="crispEdges" fill="rgb(172, 65, 131)"  x="17" y="24" width="1" height="1" /><rect shape-rendering="crispEdges" fill="rgb(131, 57, 131)"  x="17" y="25" width="1" height="1" /><rect shape-rendering="crispEdges" fill="rgb(74, 41, 98)"  x="17" y="26" width="1" height="1" /><rect shape-rendering="crispEdges" fill="rgb(90, 49, 115)"  x="17" y="27" width="1" height="1" /><rect shape-rendering="crispEdges" fill="rgb(106, 57, 123)"  x="17" y="28" width="1" height="1" /><rect shape-rendering="crispEdges" fill="rgb(74, 41, 98)"  x="17" y="29" width="1" height="1" /><rect shape-rendering="crispEdges" fill="rgb(115, 82, 115)"  x="18" y="14" width="1" height="1" /><rect shape-rendering="crispEdges" fill="rgb(115, 82, 115)"  x="18" y="15" width="1" height="1" /><rect shape-rendering="crispEdges" fill="rgb(115, 82, 115)"  x="18" y="16" width="1" height="1" /><rect shape-rendering="crispEdges" fill="rgb(115, 82, 115)"  x="18" y="17" width="1" height="1" /><rect shape-rendering="crispEdges" fill="rgb(255, 238, 238)"  x="18" y="18" width="1" height="1" /><rect shape-rendering="crispEdges" fill="rgb(255, 230, 230)"  x="18" y="19" width="1" height="1" /><rect shape-rendering="crispEdges" fill="rgb(255, 222, 230)"  x="18" y="20" width="1" height="1" /><rect shape-rendering="crispEdges" fill="rgb(230, 205, 213)"  x="18" y="21" width="1" height="1" /><rect shape-rendering="crispEdges" fill="rgb(180, 74, 139)"  x="18" y="22" width="1" height="1" /><rect shape-rendering="crispEdges" fill="rgb(172, 65, 123)"  x="18" y="23" width="1" height="1" /><rect shape-rendering="crispEdges" fill="rgb(123, 57, 123)"  x="18" y="24" width="1" height="1" /><rect shape-rendering="crispEdges" fill="rgb(106, 57, 115)"  x="18" y="25" width="1" height="1" /><rect shape-rendering="crispEdges" fill="rgb(74, 41, 98)"  x="18" y="26" width="1" height="1" /><rect shape-rendering="crispEdges" fill="rgb(115, 74, 148)"  x="18" y="27" width="1" height="1" /><rect shape-rendering="crispEdges" fill="rgb(131, 74, 156)"  x="18" y="28" width="1" height="1" /><rect shape-rendering="crispEdges" fill="rgb(139, 82, 172)"  x="18" y="29" width="1" height="1" /><rect shape-rendering="crispEdges" fill="rgb(74, 41, 98)"  x="18" y="30" width="1" height="1" /><rect shape-rendering="crispEdges" fill="rgb(115, 82, 115)"  x="19" y="12" width="1" height="1" /><rect shape-rendering="crispEdges" fill="rgb(115, 82, 115)"  x="19" y="13" width="1" height="1" /><rect shape-rendering="crispEdges" fill="rgb(255, 238, 238)"  x="19" y="14" width="1" height="1" /><rect shape-rendering="crispEdges" fill="rgb(255, 238, 238)"  x="19" y="15" width="1" height="1" /><rect shape-rendering="crispEdges" fill="rgb(255, 255, 255)"  x="19" y="16" width="1" height="1" /><rect shape-rendering="crispEdges" fill="rgb(255, 255, 255)"  x="19" y="17" width="1" height="1" /><rect shape-rendering="crispEdges" fill="rgb(255, 238, 255)"  x="19" y="18" width="1" height="1" /><rect shape-rendering="crispEdges" fill="rgb(255, 255, 255)"  x="19" y="19" width="1" height="1" /><rect shape-rendering="crispEdges" fill="rgb(255, 246, 255)"  x="19" y="20" width="1" height="1" /><rect shape-rendering="crispEdges" fill="rgb(255, 238, 238)"  x="19" y="21" width="1" height="1" /><rect shape-rendering="crispEdges" fill="rgb(255, 230, 230)"  x="19" y="22" width="1" height="1" /><rect shape-rendering="crispEdges" fill="rgb(90, 49, 106)"  x="19" y="23" width="1" height="1" /><rect shape-rendering="crispEdges" fill="rgb(197, 139, 98)"  x="19" y="24" width="1" height="1" /><rect shape-rendering="crispEdges" fill="rgb(148, 98, 74)"  x="19" y="25" width="1" height="1" /><rect shape-rendering="crispEdges" fill="rgb(65, 32, 90)"  x="19" y="26" width="1" height="1" /><rect shape-rendering="crispEdges" fill="rgb(106, 65, 131)"  x="19" y="27" width="1" height="1" /><rect shape-rendering="crispEdges" fill="rgb(123, 74, 156)"  x="19" y="28" width="1" height="1" /><rect shape-rendering="crispEdges" fill="rgb(115, 65, 139)"  x="19" y="29" width="1" height="1" /><rect shape-rendering="crispEdges" fill="rgb(74, 41, 98)"  x="19" y="30" width="1" height="1" /><rect shape-rendering="crispEdges" fill="rgb(115, 82, 115)"  x="20" y="10" width="1" height="1" /><rect shape-rendering="crispEdges" fill="rgb(115, 82, 115)"  x="20" y="11" width="1" height="1" /><rect shape-rendering="crispEdges" fill="rgb(255, 238, 246)"  x="20" y="12" width="1" height="1" /><rect shape-rendering="crispEdges" fill="rgb(255, 246, 255)"  x="20" y="13" width="1" height="1" /><rect shape-rendering="crispEdges" fill="rgb(255, 255, 255)"  x="20" y="14" width="1" height="1" /><rect shape-rendering="crispEdges" fill="rgb(255, 255, 255)"  x="20" y="15" width="1" height="1" /><rect shape-rendering="crispEdges" fill="rgb(255, 255, 255)"  x="20" y="16" width="1" height="1" /><rect shape-rendering="crispEdges" fill="rgb(230, 164, 172)"  x="20" y="17" width="1" height="1" /><rect shape-rendering="crispEdges" fill="rgb(255, 222, 230)"  x="20" y="18" width="1" height="1" /><rect shape-rendering="crispEdges" fill="rgb(255, 255, 255)"  x="20" y="19" width="1" height="1" /><rect shape-rendering="crispEdges" fill="rgb(255, 238, 246)"  x="20" y="20" width="1" height="1" /><rect shape-rendering="crispEdges" fill="rgb(156, 65, 131)"  x="20" y="21" width="1" height="1" /><rect shape-rendering="crispEdges" fill="rgb(131, 65, 131)"  x="20" y="22" width="1" height="1" /><rect shape-rendering="crispEdges" fill="rgb(255, 238, 164)"  x="20" y="23" width="1" height="1" /><rect shape-rendering="crispEdges" fill="rgb(255, 255, 172)"  x="20" y="24" width="1" height="1" /><rect shape-rendering="crispEdges" fill="rgb(230, 172, 131)"  x="20" y="25" width="1" height="1" /><rect shape-rendering="crispEdges" fill="rgb(49, 24, 65)"  x="20" y="26" width="1" height="1" /><rect shape-rendering="crispEdges" fill="rgb(74, 41, 98)"  x="20" y="27" width="1" height="1" /><rect shape-rendering="crispEdges" fill="rgb(82, 49, 106)"  x="20" y="28" width="1" height="1" /><rect shape-rendering="crispEdges" fill="rgb(74, 41, 98)"  x="20" y="29" width="1" height="1" /><rect shape-rendering="crispEdges" fill="rgb(115, 82, 115)"  x="21" y="8" width="1" height="1" /><rect shape-rendering="crispEdges" fill="rgb(115, 82, 115)"  x="21" y="9" width="1" height="1" /><rect shape-rendering="crispEdges" fill="rgb(255, 255, 255)"  x="21" y="10" width="1" height="1" /><rect shape-rendering="crispEdges" fill="rgb(255, 255, 255)"  x="21" y="11" width="1" height="1" /><rect shape-rendering="crispEdges" fill="rgb(255, 255, 255)"  x="21" y="12" width="1" height="1" /><rect shape-rendering="crispEdges" fill="rgb(255, 255, 255)"  x="21" y="13" width="1" height="1" /><rect shape-rendering="crispEdges" fill="rgb(255, 255, 255)"  x="21" y="14" width="1" height="1" /><rect shape-rendering="crispEdges" fill="rgb(255, 255, 255)"  x="21" y="15" width="1" height="1" /><rect shape-rendering="crispEdges" fill="rgb(213, 106, 115)"  x="21" y="16" width="1" height="1" /><rect shape-rendering="crispEdges" fill="rgb(246, 189, 197)"  x="21" y="17" width="1" height="1" /><rect shape-rendering="crispEdges" fill="rgb(238, 180, 189)"  x="21" y="18" width="1" height="1" /><rect shape-rendering="crispEdges" fill="rgb(222, 164, 172)"  x="21" y="19" width="1" height="1" /><rect shape-rendering="crispEdges" fill="rgb(205, 65, 131)"  x="21" y="20" width="1" height="1" /><rect shape-rendering="crispEdges" fill="rgb(205, 65, 139)"  x="21" y="21" width="1" height="1" /><rect shape-rendering="crispEdges" fill="rgb(172, 65, 123)"  x="21" y="22" width="1" height="1" /><rect shape-rendering="crispEdges" fill="rgb(255, 255, 180)"  x="21" y="23" width="1" height="1" /><rect shape-rendering="crispEdges" fill="rgb(255, 255, 197)"  x="21" y="24" width="1" height="1" /><rect shape-rendering="crispEdges" fill="rgb(255, 197, 148)"  x="21" y="25" width="1" height="1" /><rect shape-rendering="crispEdges" fill="rgb(49, 24, 74)"  x="21" y="26" width="1" height="1" /><rect shape-rendering="crispEdges" fill="rgb(74, 41, 98)"  x="21" y="27" width="1" height="1" /><rect shape-rendering="crispEdges" fill="rgb(74, 41, 98)"  x="21" y="28" width="1" height="1" /><rect shape-rendering="crispEdges" fill="rgb(115, 82, 115)"  x="22" y="6" width="1" height="1" /><rect shape-rendering="crispEdges" fill="rgb(115, 82, 115)"  x="22" y="7" width="1" height="1" /><rect shape-rendering="crispEdges" fill="rgb(255, 255, 255)"  x="22" y="8" width="1" height="1" /><rect shape-rendering="crispEdges" fill="rgb(255, 255, 255)"  x="22" y="9" width="1" height="1" /><rect shape-rendering="crispEdges" fill="rgb(255, 255, 255)"  x="22" y="10" width="1" height="1" /><rect shape-rendering="crispEdges" fill="rgb(255, 255, 255)"  x="22" y="11" width="1" height="1" /><rect shape-rendering="crispEdges" fill="rgb(255, 238, 255)"  x="22" y="12" width="1" height="1" /><rect shape-rendering="crispEdges" fill="rgb(255, 238, 238)"  x="22" y="13" width="1" height="1" /><rect shape-rendering="crispEdges" fill="rgb(238, 164, 180)"  x="22" y="14" width="1" height="1" /><rect shape-rendering="crispEdges" fill="rgb(205, 98, 106)"  x="22" y="15" width="1" height="1" /><rect shape-rendering="crispEdges" fill="rgb(205, 90, 98)"  x="22" y="16" width="1" height="1" /><rect shape-rendering="crispEdges" fill="rgb(197, 90, 98)"  x="22" y="17" width="1" height="1" /><rect shape-rendering="crispEdges" fill="rgb(205, 106, 115)"  x="22" y="18" width="1" height="1" /><rect shape-rendering="crispEdges" fill="rgb(205, 49, 106)"  x="22" y="19" width="1" height="1" /><rect shape-rendering="crispEdges" fill="rgb(230, 65, 123)"  x="22" y="20" width="1" height="1" /><rect shape-rendering="crispEdges" fill="rgb(222, 65, 123)"  x="22" y="21" width="1" height="1" /><rect shape-rendering="crispEdges" fill="rgb(189, 65, 131)"  x="22" y="22" width="1" height="1" /><rect shape-rendering="crispEdges" fill="rgb(139, 65, 123)"  x="22" y="23" width="1" height="1" /><rect shape-rendering="crispEdges" fill="rgb(32, 0, 8)"  x="22" y="24" width="1" height="1" /><rect shape-rendering="crispEdges" fill="rgb(57, 32, 82)"  x="22" y="25" width="1" height="1" /><rect shape-rendering="crispEdges" fill="rgb(74, 41, 98)"  x="22" y="26" width="1" height="1" /><rect shape-rendering="crispEdges" fill="rgb(82, 49, 115)"  x="22" y="27" width="1" height="1" /><rect shape-rendering="crispEdges" fill="rgb(74, 41, 98)"  x="22" y="28" width="1" height="1" /><rect shape-rendering="crispEdges" fill="rgb(115, 82, 115)"  x="23" y="4" width="1" height="1" /><rect shape-rendering="crispEdges" fill="rgb(115, 82, 115)"  x="23" y="5" width="1" height="1" /><rect shape-rendering="crispEdges" fill="rgb(255, 255, 255)"  x="23" y="6" width="1" height="1" /><rect shape-rendering="crispEdges" fill="rgb(255, 255, 255)"  x="23" y="7" width="1" height="1" /><rect shape-rendering="crispEdges" fill="rgb(255, 255, 255)"  x="23" y="8" width="1" height="1" /><rect shape-rendering="crispEdges" fill="rgb(255, 255, 255)"  x="23" y="9" width="1" height="1" /><rect shape-rendering="crispEdges" fill="rgb(255, 255, 255)"  x="23" y="10" width="1" height="1" /><rect shape-rendering="crispEdges" fill="rgb(255, 238, 246)"  x="23" y="11" width="1" height="1" /><rect shape-rendering="crispEdges" fill="rgb(230, 156, 164)"  x="23" y="12" width="1" height="1" /><rect shape-rendering="crispEdges" fill="rgb(205, 98, 115)"  x="23" y="13" width="1" height="1" /><rect shape-rendering="crispEdges" fill="rgb(213, 98, 106)"  x="23" y="14" width="1" height="1" /><rect shape-rendering="crispEdges" fill="rgb(213, 98, 106)"  x="23" y="15" width="1" height="1" /><rect shape-rendering="crispEdges" fill="rgb(205, 98, 106)"  x="23" y="16" width="1" height="1" /><rect shape-rendering="crispEdges" fill="rgb(213, 123, 131)"  x="23" y="17" width="1" height="1" /><rect shape-rendering="crispEdges" fill="rgb(222, 156, 164)"  x="23" y="18" width="1" height="1" /><rect shape-rendering="crispEdges" fill="rgb(255, 57, 123)"  x="23" y="19" width="1" height="1" /><rect shape-rendering="crispEdges" fill="rgb(246, 57, 123)"  x="23" y="20" width="1" height="1" /><rect shape-rendering="crispEdges" fill="rgb(222, 57, 123)"  x="23" y="21" width="1" height="1" /><rect shape-rendering="crispEdges" fill="rgb(197, 57, 123)"  x="23" y="22" width="1" height="1" /><rect shape-rendering="crispEdges" fill="rgb(156, 57, 131)"  x="23" y="23" width="1" height="1" /><rect shape-rendering="crispEdges" fill="rgb(106, 49, 106)"  x="23" y="24" width="1" height="1" /><rect shape-rendering="crispEdges" fill="rgb(90, 49, 115)"  x="23" y="25" width="1" height="1" /><rect shape-rendering="crispEdges" fill="rgb(106, 65, 131)"  x="23" y="26" width="1" height="1" /><rect shape-rendering="crispEdges" fill="rgb(123, 74, 148)"  x="23" y="27" width="1" height="1" /><rect shape-rendering="crispEdges" fill="rgb(90, 57, 115)"  x="23" y="28" width="1" height="1" /><rect shape-rendering="crispEdges" fill="rgb(74, 41, 98)"  x="23" y="29" width="1" height="1" /><rect shape-rendering="crispEdges" fill="rgb(115, 82, 115)"  x="24" y="3" width="1" height="1" /><rect shape-rendering="crispEdges" fill="rgb(255, 255, 255)"  x="24" y="4" width="1" height="1" /><rect shape-rendering="crispEdges" fill="rgb(255, 255, 255)"  x="24" y="5" width="1" height="1" /><rect shape-rendering="crispEdges" fill="rgb(255, 255, 255)"  x="24" y="6" width="1" height="1" /><rect shape-rendering="crispEdges" fill="rgb(255, 255, 255)"  x="24" y="7" width="1" height="1" /><rect shape-rendering="crispEdges" fill="rgb(255, 255, 255)"  x="24" y="8" width="1" height="1" /><rect shape-rendering="crispEdges" fill="rgb(255, 246, 255)"  x="24" y="9" width="1" height="1" /><rect shape-rendering="crispEdges" fill="rgb(246, 156, 172)"  x="24" y="10" width="1" height="1" /><rect shape-rendering="crispEdges" fill="rgb(222, 115, 131)"  x="24" y="11" width="1" height="1" /><rect shape-rendering="crispEdges" fill="rgb(222, 115, 131)"  x="24" y="12" width="1" height="1" /><rect shape-rendering="crispEdges" fill="rgb(230, 115, 131)"  x="24" y="13" width="1" height="1" /><rect shape-rendering="crispEdges" fill="rgb(213, 115, 123)"  x="24" y="14" width="1" height="1" /><rect shape-rendering="crispEdges" fill="rgb(213, 139, 148)"  x="24" y="15" width="1" height="1" /><rect shape-rendering="crispEdges" fill="rgb(222, 172, 180)"  x="24" y="16" width="1" height="1" /><rect shape-rendering="crispEdges" fill="rgb(230, 197, 205)"  x="24" y="17" width="1" height="1" /><rect shape-rendering="crispEdges" fill="rgb(246, 49, 115)"  x="24" y="18" width="1" height="1" /><rect shape-rendering="crispEdges" fill="rgb(255, 57, 123)"  x="24" y="19" width="1" height="1" /><rect shape-rendering="crispEdges" fill="rgb(238, 49, 115)"  x="24" y="20" width="1" height="1" /><rect shape-rendering="crispEdges" fill="rgb(213, 41, 106)"  x="24" y="21" width="1" height="1" /><rect shape-rendering="crispEdges" fill="rgb(197, 57, 115)"  x="24" y="22" width="1" height="1" /><rect shape-rendering="crispEdges" fill="rgb(164, 57, 123)"  x="24" y="23" width="1" height="1" /><rect shape-rendering="crispEdges" fill="rgb(74, 41, 98)"  x="24" y="24" width="1" height="1" /><rect shape-rendering="crispEdges" fill="rgb(74, 41, 98)"  x="24" y="25" width="1" height="1" /><rect shape-rendering="crispEdges" fill="rgb(123, 74, 156)"  x="24" y="26" width="1" height="1" /><rect shape-rendering="crispEdges" fill="rgb(123, 82, 164)"  x="24" y="27" width="1" height="1" /><rect shape-rendering="crispEdges" fill="rgb(106, 65, 131)"  x="24" y="28" width="1" height="1" /><rect shape-rendering="crispEdges" fill="rgb(74, 41, 98)"  x="24" y="29" width="1" height="1" /><rect shape-rendering="crispEdges" fill="rgb(115, 82, 115)"  x="25" y="2" width="1" height="1" /><rect shape-rendering="crispEdges" fill="rgb(255, 255, 255)"  x="25" y="3" width="1" height="1" /><rect shape-rendering="crispEdges" fill="rgb(255, 255, 255)"  x="25" y="4" width="1" height="1" /><rect shape-rendering="crispEdges" fill="rgb(255, 255, 255)"  x="25" y="5" width="1" height="1" /><rect shape-rendering="crispEdges" fill="rgb(255, 255, 255)"  x="25" y="6" width="1" height="1" /><rect shape-rendering="crispEdges" fill="rgb(255, 205, 213)"  x="25" y="7" width="1" height="1" /><rect shape-rendering="crispEdges" fill="rgb(246, 139, 164)"  x="25" y="8" width="1" height="1" /><rect shape-rendering="crispEdges" fill="rgb(246, 139, 164)"  x="25" y="9" width="1" height="1" /><rect shape-rendering="crispEdges" fill="rgb(246, 148, 172)"  x="25" y="10" width="1" height="1" /><rect shape-rendering="crispEdges" fill="rgb(238, 148, 172)"  x="25" y="11" width="1" height="1" /><rect shape-rendering="crispEdges" fill="rgb(230, 148, 156)"  x="25" y="12" width="1" height="1" /><rect shape-rendering="crispEdges" fill="rgb(230, 172, 180)"  x="25" y="13" width="1" height="1" /><rect shape-rendering="crispEdges" fill="rgb(230, 197, 197)"  x="25" y="14" width="1" height="1" /><rect shape-rendering="crispEdges" fill="rgb(230, 197, 197)"  x="25" y="15" width="1" height="1" /><rect shape-rendering="crispEdges" fill="rgb(230, 213, 222)"  x="25" y="16" width="1" height="1" /><rect shape-rendering="crispEdges" fill="rgb(230, 205, 205)"  x="25" y="17" width="1" height="1" /><rect shape-rendering="crispEdges" fill="rgb(246, 41, 106)"  x="25" y="18" width="1" height="1" /><rect shape-rendering="crispEdges" fill="rgb(230, 41, 98)"  x="25" y="19" width="1" height="1" /><rect shape-rendering="crispEdges" fill="rgb(213, 41, 90)"  x="25" y="20" width="1" height="1" /><rect shape-rendering="crispEdges" fill="rgb(74, 41, 98)"  x="25" y="21" width="1" height="1" /><rect shape-rendering="crispEdges" fill="rgb(74, 41, 98)"  x="25" y="22" width="1" height="1" /><rect shape-rendering="crispEdges" fill="rgb(74, 41, 98)"  x="25" y="23" width="1" height="1" /><rect shape-rendering="crispEdges" fill="rgb(74, 41, 98)"  x="25" y="26" width="1" height="1" /><rect shape-rendering="crispEdges" fill="rgb(74, 41, 98)"  x="25" y="27" width="1" height="1" /><rect shape-rendering="crispEdges" fill="rgb(115, 65, 139)"  x="25" y="28" width="1" height="1" /><rect shape-rendering="crispEdges" fill="rgb(74, 41, 98)"  x="25" y="29" width="1" height="1" /><rect shape-rendering="crispEdges" fill="rgb(115, 82, 115)"  x="26" y="1" width="1" height="1" /><rect shape-rendering="crispEdges" fill="rgb(255, 255, 255)"  x="26" y="2" width="1" height="1" /><rect shape-rendering="crispEdges" fill="rgb(255, 255, 255)"  x="26" y="3" width="1" height="1" /><rect shape-rendering="crispEdges" fill="rgb(255, 255, 255)"  x="26" y="4" width="1" height="1" /><rect shape-rendering="crispEdges" fill="rgb(255, 213, 213)"  x="26" y="5" width="1" height="1" /><rect shape-rendering="crispEdges" fill="rgb(255, 197, 213)"  x="26" y="6" width="1" height="1" /><rect shape-rendering="crispEdges" fill="rgb(246, 180, 197)"  x="26" y="7" width="1" height="1" /><rect shape-rendering="crispEdges" fill="rgb(255, 197, 197)"  x="26" y="8" width="1" height="1" /><rect shape-rendering="crispEdges" fill="rgb(238, 189, 197)"  x="26" y="9" width="1" height="1" /><rect shape-rendering="crispEdges" fill="rgb(238, 197, 205)"  x="26" y="10" width="1" height="1" /><rect shape-rendering="crispEdges" fill="rgb(238, 205, 213)"  x="26" y="11" width="1" height="1" /><rect shape-rendering="crispEdges" fill="rgb(246, 222, 230)"  x="26" y="12" width="1" height="1" /><rect shape-rendering="crispEdges" fill="rgb(246, 222, 230)"  x="26" y="13" width="1" height="1" /><rect shape-rendering="crispEdges" fill="rgb(238, 213, 222)"  x="26" y="14" width="1" height="1" /><rect shape-rendering="crispEdges" fill="rgb(230, 213, 213)"  x="26" y="15" width="1" height="1" /><rect shape-rendering="crispEdges" fill="rgb(230, 197, 205)"  x="26" y="16" width="1" height="1" /><rect shape-rendering="crispEdges" fill="rgb(222, 189, 197)"  x="26" y="17" width="1" height="1" /><rect shape-rendering="crispEdges" fill="rgb(74, 41, 98)"  x="26" y="18" width="1" height="1" /><rect shape-rendering="crispEdges" fill="rgb(74, 41, 98)"  x="26" y="19" width="1" height="1" /><rect shape-rendering="crispEdges" fill="rgb(74, 41, 98)"  x="26" y="20" width="1" height="1" /><rect shape-rendering="crispEdges" fill="rgb(74, 41, 98)"  x="26" y="28" width="1" height="1" /><rect shape-rendering="crispEdges" fill="rgb(115, 82, 115)"  x="27" y="0" width="1" height="1" /><rect shape-rendering="crispEdges" fill="rgb(255, 238, 246)"  x="27" y="1" width="1" height="1" /><rect shape-rendering="crispEdges" fill="rgb(255, 255, 255)"  x="27" y="2" width="1" height="1" /><rect shape-rendering="crispEdges" fill="rgb(255, 255, 255)"  x="27" y="3" width="1" height="1" /><rect shape-rendering="crispEdges" fill="rgb(255, 255, 255)"  x="27" y="4" width="1" height="1" /><rect shape-rendering="crispEdges" fill="rgb(255, 255, 255)"  x="27" y="5" width="1" height="1" /><rect shape-rendering="crispEdges" fill="rgb(255, 238, 246)"  x="27" y="6" width="1" height="1" /><rect shape-rendering="crispEdges" fill="rgb(255, 246, 255)"  x="27" y="7" width="1" height="1" /><rect shape-rendering="crispEdges" fill="rgb(255, 246, 246)"  x="27" y="8" width="1" height="1" /><rect shape-rendering="crispEdges" fill="rgb(255, 238, 238)"  x="27" y="9" width="1" height="1" /><rect shape-rendering="crispEdges" fill="rgb(255, 238, 238)"  x="27" y="10" width="1" height="1" /><rect shape-rendering="crispEdges" fill="rgb(238, 222, 230)"  x="27" y="11" width="1" height="1" /><rect shape-rendering="crispEdges" fill="rgb(246, 222, 230)"  x="27" y="12" width="1" height="1" /><rect shape-rendering="crispEdges" fill="rgb(230, 213, 213)"  x="27" y="13" width="1" height="1" /><rect shape-rendering="crispEdges" fill="rgb(222, 205, 205)"  x="27" y="14" width="1" height="1" /><rect shape-rendering="crispEdges" fill="rgb(115, 82, 115)"  x="27" y="15" width="1" height="1" /><rect shape-rendering="crispEdges" fill="rgb(115, 82, 115)"  x="27" y="16" width="1" height="1" /><rect shape-rendering="crispEdges" fill="rgb(115, 82, 115)"  x="27" y="17" width="1" height="1" /><rect shape-rendering="crispEdges" fill="rgb(115, 82, 115)"  x="28" y="1" width="1" height="1" /><rect shape-rendering="crispEdges" fill="rgb(115, 82, 115)"  x="28" y="2" width="1" height="1" /><rect shape-rendering="crispEdges" fill="rgb(115, 82, 115)"  x="28" y="3" width="1" height="1" /><rect shape-rendering="crispEdges" fill="rgb(255, 230, 238)"  x="28" y="4" width="1" height="1" /><rect shape-rendering="crispEdges" fill="rgb(255, 238, 238)"  x="28" y="5" width="1" height="1" /><rect shape-rendering="crispEdges" fill="rgb(246, 222, 230)"  x="28" y="6" width="1" height="1" /><rect shape-rendering="crispEdges" fill="rgb(238, 222, 222)"  x="28" y="7" width="1" height="1" /><rect shape-rendering="crispEdges" fill="rgb(238, 213, 213)"  x="28" y="8" width="1" height="1" /><rect shape-rendering="crispEdges" fill="rgb(115, 82, 115)"  x="28" y="9" width="1" height="1" /><rect shape-rendering="crispEdges" fill="rgb(115, 82, 115)"  x="28" y="10" width="1" height="1" /><rect shape-rendering="crispEdges" fill="rgb(115, 82, 115)"  x="28" y="11" width="1" height="1" /><rect shape-rendering="crispEdges" fill="rgb(115, 82, 115)"  x="28" y="12" width="1" height="1" /><rect shape-rendering="crispEdges" fill="rgb(115, 82, 115)"  x="28" y="13" width="1" height="1" /><rect shape-rendering="crispEdges" fill="rgb(115, 82, 115)"  x="28" y="14" width="1" height="1" /><rect shape-rendering="crispEdges" fill="rgb(115, 82, 115)"  x="29" y="4" width="1" height="1" /><rect shape-rendering="crispEdges" fill="rgb(115, 82, 115)"  x="29" y="5" width="1" height="1" /><rect shape-rendering="crispEdges" fill="rgb(115, 82, 115)"  x="29" y="6" width="1" height="1" /><rect shape-rendering="crispEdges" fill="rgb(115, 82, 115)"  x="29" y="7" width="1" height="1" /><rect shape-rendering="crispEdges" fill="rgb(115, 82, 115)"  x="29" y="8" width="1" height="1" /></svg>