<svg xmlns="http://www.w3.org/2000/svg" xmlns:xlink= "http://www.w3.org/1999/xlink" width="32" height="32" viewBox ="0 0 32 32"><rect shape-rendering="crispEdges" fill="rgb(41, 16, 24)"  x="5" y="23" width="1" height="1" /><rect shape-rendering="crispEdges" fill="rgb(24, 8, 16)"  x="5" y="24" width="1" height="1" /><rect shape-rendering="crispEdges" fill="rgb(24, 16, 16)"  x="5" y="26" width="1" height="1" /><rect shape-rendering="crispEdges" fill="rgb(41, 24, 24)"  x="5" y="27" width="1" height="1" /><rect shape-rendering="crispEdges" fill="rgb(49, 24, 32)"  x="5" y="28" width="1" height="1" /><rect shape-rendering="crispEdges" fill="rgb(32, 16, 24)"  x="6" y="21" width="1" height="1" /><rect shape-rendering="crispEdges" fill="rgb(41, 24, 32)"  x="6" y="22" width="1" height="1" /><rect shape-rendering="crispEdges" fill="rgb(74, 41, 49)"  x="6" y="23" width="1" height="1" /><rect shape-rendering="crispEdges" fill="rgb(65, 32, 49)"  x="6" y="24" width="1" height="1" /><rect shape-rendering="crispEdges" fill="rgb(49, 32, 41)"  x="6" y="25" width="1" height="1" /><rect shape-rendering="crispEdges" fill="rgb(90, 49, 57)"  x="6" y="26" width="1" height="1" /><rect shape-rendering="crispEdges" fill="rgb(90, 49, 57)"  x="6" y="27" width="1" height="1" /><rect shape-rendering="crispEdges" fill="rgb(98, 57, 65)"  x="6" y="28" width="1" height="1" /><rect shape-rendering="crispEdges" fill="rgb(24, 8, 16)"  x="6" y="29" width="1" height="1" /><rect shape-rendering="crispEdges" fill="rgb(41, 24, 32)"  x="7" y="19" width="1" height="1" /><rect shape-rendering="crispEdges" fill="rgb(49, 24, 32)"  x="7" y="20" width="1" height="1" /><rect shape-rendering="crispEdges" fill="rgb(115, 65, 74)"  x="7" y="21" width="1" height="1" /><rect shape-rendering="crispEdges" fill="rgb(98, 49, 65)"  x="7" y="22" width="1" height="1" /><rect shape-rendering="crispEdges" fill="rgb(82, 41, 57)"  x="7" y="23" width="1" height="1" /><rect shape-rendering="crispEdges" fill="rgb(74, 32, 49)"  x="7" y="24" width="1" height="1" /><rect shape-rendering="crispEdges" fill="rgb(65, 32, 49)"  x="7" y="25" width="1" height="1" /><rect shape-rendering="crispEdges" fill="rgb(82, 41, 57)"  x="7" y="26" width="1" height="1" /><rect shape-rendering="crispEdges" fill="rgb(106, 57, 65)"  x="7" y="27" width="1" height="1" /><rect shape-rendering="crispEdges" fill="rgb(115, 57, 65)"  x="7" y="28" width="1" height="1" /><rect shape-rendering="crispEdges" fill="rgb(49, 24, 32)"  x="7" y="29" width="1" height="1" /><rect shape-rendering="crispEdges" fill="rgb(49, 24, 32)"  x="8" y="18" width="1" height="1" /><rect shape-rendering="crispEdges" fill="rgb(139, 74, 90)"  x="8" y="19" width="1" height="1" /><rect shape-rendering="crispEdges" fill="rgb(148, 82, 98)"  x="8" y="20" width="1" height="1" /><rect shape-rendering="crispEdges" fill="rgb(131, 65, 82)"  x="8" y="21" width="1" height="1" /><rect shape-rendering="crispEdges" fill="rgb(82, 41, 57)"  x="8" y="22" width="1" height="1" /><rect shape-rendering="crispEdges" fill="rgb(74, 41, 57)"  x="8" y="23" width="1" height="1" /><rect shape-rendering="crispEdges" fill="rgb(49, 24, 41)"  x="8" y="24" width="1" height="1" /><rect shape-rendering="crispEdges" fill="rgb(57, 24, 41)"  x="8" y="25" width="1" height="1" /><rect shape-rendering="crispEdges" fill="rgb(98, 49, 57)"  x="8" y="26" width="1" height="1" /><rect shape-rendering="crispEdges" fill="rgb(115, 57, 74)"  x="8" y="27" width="1" height="1" /><rect shape-rendering="crispEdges" fill="rgb(139, 65, 82)"  x="8" y="28" width="1" height="1" /><rect shape-rendering="crispEdges" fill="rgb(57, 32, 32)"  x="8" y="29" width="1" height="1" /><rect shape-rendering="crispEdges" fill="rgb(49, 24, 32)"  x="9" y="17" width="1" height="1" /><rect shape-rendering="crispEdges" fill="rgb(148, 74, 90)"  x="9" y="18" width="1" height="1" /><rect shape-rendering="crispEdges" fill="rgb(156, 82, 98)"  x="9" y="19" width="1" height="1" /><rect shape-rendering="crispEdges" fill="rgb(131, 74, 82)"  x="9" y="20" width="1" height="1" /><rect shape-rendering="crispEdges" fill="rgb(90, 49, 65)"  x="9" y="21" width="1" height="1" /><rect shape-rendering="crispEdges" fill="rgb(82, 49, 57)"  x="9" y="22" width="1" height="1" /><rect shape-rendering="crispEdges" fill="rgb(65, 32, 49)"  x="9" y="23" width="1" height="1" /><rect shape-rendering="crispEdges" fill="rgb(57, 32, 41)"  x="9" y="24" width="1" height="1" /><rect shape-rendering="crispEdges" fill="rgb(106, 57, 65)"  x="9" y="25" width="1" height="1" /><rect shape-rendering="crispEdges" fill="rgb(139, 74, 90)"  x="9" y="26" width="1" height="1" /><rect shape-rendering="crispEdges" fill="rgb(139, 74, 82)"  x="9" y="27" width="1" height="1" /><rect shape-rendering="crispEdges" fill="rgb(164, 82, 98)"  x="9" y="28" width="1" height="1" /><rect shape-rendering="crispEdges" fill="rgb(41, 24, 32)"  x="9" y="29" width="1" height="1" /><rect shape-rendering="crispEdges" fill="rgb(32, 16, 24)"  x="10" y="16" width="1" height="1" /><rect shape-rendering="crispEdges" fill="rgb(115, 57, 74)"  x="10" y="17" width="1" height="1" /><rect shape-rendering="crispEdges" fill="rgb(164, 90, 106)"  x="10" y="18" width="1" height="1" /><rect shape-rendering="crispEdges" fill="rgb(139, 74, 90)"  x="10" y="19" width="1" height="1" /><rect shape-rendering="crispEdges" fill="rgb(123, 65, 82)"  x="10" y="20" width="1" height="1" /><rect shape-rendering="crispEdges" fill="rgb(123, 65, 82)"  x="10" y="21" width="1" height="1" /><rect shape-rendering="crispEdges" fill="rgb(123, 65, 82)"  x="10" y="22" width="1" height="1" /><rect shape-rendering="crispEdges" fill="rgb(123, 65, 82)"  x="10" y="23" width="1" height="1" /><rect shape-rendering="crispEdges" fill="rgb(139, 74, 90)"  x="10" y="24" width="1" height="1" /><rect shape-rendering="crispEdges" fill="rgb(131, 74, 82)"  x="10" y="25" width="1" height="1" /><rect shape-rendering="crispEdges" fill="rgb(148, 82, 98)"  x="10" y="26" width="1" height="1" /><rect shape-rendering="crispEdges" fill="rgb(156, 82, 106)"  x="10" y="27" width="1" height="1" /><rect shape-rendering="crispEdges" fill="rgb(123, 65, 82)"  x="10" y="28" width="1" height="1" /><rect shape-rendering="crispEdges" fill="rgb(41, 24, 24)"  x="10" y="29" width="1" height="1" /><rect shape-rendering="crispEdges" fill="rgb(41, 24, 32)"  x="11" y="16" width="1" height="1" /><rect shape-rendering="crispEdges" fill="rgb(123, 65, 82)"  x="11" y="17" width="1" height="1" /><rect shape-rendering="crispEdges" fill="rgb(139, 74, 90)"  x="11" y="18" width="1" height="1" /><rect shape-rendering="crispEdges" fill="rgb(131, 74, 82)"  x="11" y="19" width="1" height="1" /><rect shape-rendering="crispEdges" fill="rgb(139, 74, 90)"  x="11" y="20" width="1" height="1" /><rect shape-rendering="crispEdges" fill="rgb(131, 74, 82)"  x="11" y="21" width="1" height="1" /><rect shape-rendering="crispEdges" fill="rgb(123, 74, 74)"  x="11" y="22" width="1" height="1" /><rect shape-rendering="crispEdges" fill="rgb(123, 65, 74)"  x="11" y="23" width="1" height="1" /><rect shape-rendering="crispEdges" fill="rgb(131, 74, 82)"  x="11" y="24" width="1" height="1" /><rect shape-rendering="crispEdges" fill="rgb(164, 90, 106)"  x="11" y="25" width="1" height="1" /><rect shape-rendering="crispEdges" fill="rgb(180, 98, 123)"  x="11" y="26" width="1" height="1" /><rect shape-rendering="crispEdges" fill="rgb(148, 82, 98)"  x="11" y="27" width="1" height="1" /><rect shape-rendering="crispEdges" fill="rgb(115, 65, 74)"  x="11" y="28" width="1" height="1" /><rect shape-rendering="crispEdges" fill="rgb(65, 32, 41)"  x="11" y="29" width="1" height="1" /><rect shape-rendering="crispEdges" fill="rgb(32, 8, 24)"  x="11" y="30" width="1" height="1" /><rect shape-rendering="crispEdges" fill="rgb(98, 82, 90)"  x="12" y="5" width="1" height="1" /><rect shape-rendering="crispEdges" fill="rgb(106, 98, 98)"  x="12" y="6" width="1" height="1" /><rect shape-rendering="crispEdges" fill="rgb(49, 41, 41)"  x="12" y="7" width="1" height="1" /><rect shape-rendering="crispEdges" fill="rgb(49, 41, 41)"  x="12" y="8" width="1" height="1" /><rect shape-rendering="crispEdges" fill="rgb(49, 41, 41)"  x="12" y="9" width="1" height="1" /><rect shape-rendering="crispEdges" fill="rgb(24, 16, 16)"  x="12" y="10" width="1" height="1" /><rect shape-rendering="crispEdges" fill="rgb(41, 16, 8)"  x="12" y="11" width="1" height="1" /><rect shape-rendering="crispEdges" fill="rgb(16, 8, 8)"  x="12" y="12" width="1" height="1" /><rect shape-rendering="crispEdges" fill="rgb(16, 8, 8)"  x="12" y="13" width="1" height="1" /><rect shape-rendering="crispEdges" fill="rgb(32, 16, 16)"  x="12" y="14" width="1" height="1" /><rect shape-rendering="crispEdges" fill="rgb(49, 24, 32)"  x="12" y="15" width="1" height="1" /><rect shape-rendering="crispEdges" fill="rgb(98, 57, 65)"  x="12" y="16" width="1" height="1" /><rect shape-rendering="crispEdges" fill="rgb(123, 65, 74)"  x="12" y="17" width="1" height="1" /><rect shape-rendering="crispEdges" fill="rgb(139, 74, 82)"  x="12" y="18" width="1" height="1" /><rect shape-rendering="crispEdges" fill="rgb(148, 74, 90)"  x="12" y="19" width="1" height="1" /><rect shape-rendering="crispEdges" fill="rgb(156, 82, 90)"  x="12" y="20" width="1" height="1" /><rect shape-rendering="crispEdges" fill="rgb(139, 74, 90)"  x="12" y="21" width="1" height="1" /><rect shape-rendering="crispEdges" fill="rgb(131, 74, 82)"  x="12" y="22" width="1" height="1" /><rect shape-rendering="crispEdges" fill="rgb(156, 82, 106)"  x="12" y="23" width="1" height="1" /><rect shape-rendering="crispEdges" fill="rgb(172, 90, 106)"  x="12" y="24" width="1" height="1" /><rect shape-rendering="crispEdges" fill="rgb(164, 90, 106)"  x="12" y="25" width="1" height="1" /><rect shape-rendering="crispEdges" fill="rgb(123, 65, 82)"  x="12" y="26" width="1" height="1" /><rect shape-rendering="crispEdges" fill="rgb(106, 65, 74)"  x="12" y="27" width="1" height="1" /><rect shape-rendering="crispEdges" fill="rgb(98, 57, 74)"  x="12" y="28" width="1" height="1" /><rect shape-rendering="crispEdges" fill="rgb(65, 41, 49)"  x="12" y="29" width="1" height="1" /><rect shape-rendering="crispEdges" fill="rgb(16, 8, 8)"  x="12" y="30" width="1" height="1" /><rect shape-rendering="crispEdges" fill="rgb(98, 90, 98)"  x="13" y="4" width="1" height="1" /><rect shape-rendering="crispEdges" fill="rgb(213, 205, 205)"  x="13" y="5" width="1" height="1" /><rect shape-rendering="crispEdges" fill="rgb(189, 172, 180)"  x="13" y="6" width="1" height="1" /><rect shape-rendering="crispEdges" fill="rgb(57, 41, 41)"  x="13" y="7" width="1" height="1" /><rect shape-rendering="crispEdges" fill="rgb(131, 90, 74)"  x="13" y="8" width="1" height="1" /><rect shape-rendering="crispEdges" fill="rgb(49, 24, 16)"  x="13" y="9" width="1" height="1" /><rect shape-rendering="crispEdges" fill="rgb(205, 156, 123)"  x="13" y="10" width="1" height="1" /><rect shape-rendering="crispEdges" fill="rgb(156, 65, 57)"  x="13" y="11" width="1" height="1" /><rect shape-rendering="crispEdges" fill="rgb(82, 49, 32)"  x="13" y="12" width="1" height="1" /><rect shape-rendering="crispEdges" fill="rgb(156, 49, 57)"  x="13" y="13" width="1" height="1" /><rect shape-rendering="crispEdges" fill="rgb(106, 57, 49)"  x="13" y="14" width="1" height="1" /><rect shape-rendering="crispEdges" fill="rgb(148, 57, 65)"  x="13" y="15" width="1" height="1" /><rect shape-rendering="crispEdges" fill="rgb(57, 32, 41)"  x="13" y="16" width="1" height="1" /><rect shape-rendering="crispEdges" fill="rgb(123, 65, 82)"  x="13" y="17" width="1" height="1" /><rect shape-rendering="crispEdges" fill="rgb(148, 82, 90)"  x="13" y="18" width="1" height="1" /><rect shape-rendering="crispEdges" fill="rgb(164, 82, 106)"  x="13" y="19" width="1" height="1" /><rect shape-rendering="crispEdges" fill="rgb(164, 90, 106)"  x="13" y="20" width="1" height="1" /><rect shape-rendering="crispEdges" fill="rgb(164, 90, 106)"  x="13" y="21" width="1" height="1" /><rect shape-rendering="crispEdges" fill="rgb(172, 90, 115)"  x="13" y="22" width="1" height="1" /><rect shape-rendering="crispEdges" fill="rgb(156, 82, 106)"  x="13" y="23" width="1" height="1" /><rect shape-rendering="crispEdges" fill="rgb(115, 65, 82)"  x="13" y="24" width="1" height="1" /><rect shape-rendering="crispEdges" fill="rgb(115, 65, 82)"  x="13" y="25" width="1" height="1" /><rect shape-rendering="crispEdges" fill="rgb(156, 82, 106)"  x="13" y="26" width="1" height="1" /><rect shape-rendering="crispEdges" fill="rgb(139, 74, 98)"  x="13" y="27" width="1" height="1" /><rect shape-rendering="crispEdges" fill="rgb(106, 57, 74)"  x="13" y="28" width="1" height="1" /><rect shape-rendering="crispEdges" fill="rgb(82, 41, 49)"  x="13" y="29" width="1" height="1" /><rect shape-rendering="crispEdges" fill="rgb(32, 16, 32)"  x="13" y="30" width="1" height="1" /><rect shape-rendering="crispEdges" fill="rgb(98, 82, 90)"  x="14" y="3" width="1" height="1" /><rect shape-rendering="crispEdges" fill="rgb(148, 131, 139)"  x="14" y="4" width="1" height="1" /><rect shape-rendering="crispEdges" fill="rgb(255, 246, 255)"  x="14" y="5" width="1" height="1" /><rect shape-rendering="crispEdges" fill="rgb(189, 172, 172)"  x="14" y="6" width="1" height="1" /><rect shape-rendering="crispEdges" fill="rgb(57, 41, 41)"  x="14" y="7" width="1" height="1" /><rect shape-rendering="crispEdges" fill="rgb(131, 90, 74)"  x="14" y="8" width="1" height="1" /><rect shape-rendering="crispEdges" fill="rgb(49, 24, 16)"  x="14" y="9" width="1" height="1" /><rect shape-rendering="crispEdges" fill="rgb(205, 156, 123)"  x="14" y="10" width="1" height="1" /><rect shape-rendering="crispEdges" fill="rgb(213, 115, 90)"  x="14" y="11" width="1" height="1" /><rect shape-rendering="crispEdges" fill="rgb(106, 57, 49)"  x="14" y="12" width="1" height="1" /><rect shape-rendering="crispEdges" fill="rgb(246, 156, 123)"  x="14" y="13" width="1" height="1" /><rect shape-rendering="crispEdges" fill="rgb(106, 57, 49)"  x="14" y="14" width="1" height="1" /><rect shape-rendering="crispEdges" fill="rgb(255, 222, 180)"  x="14" y="15" width="1" height="1" /><rect shape-rendering="crispEdges" fill="rgb(57, 32, 41)"  x="14" y="16" width="1" height="1" /><rect shape-rendering="crispEdges" fill="rgb(131, 74, 82)"  x="14" y="17" width="1" height="1" /><rect shape-rendering="crispEdges" fill="rgb(156, 82, 106)"  x="14" y="18" width="1" height="1" /><rect shape-rendering="crispEdges" fill="rgb(164, 90, 106)"  x="14" y="19" width="1" height="1" /><rect shape-rendering="crispEdges" fill="rgb(164, 90, 106)"  x="14" y="20" width="1" height="1" /><rect shape-rendering="crispEdges" fill="rgb(139, 74, 90)"  x="14" y="21" width="1" height="1" /><rect shape-rendering="crispEdges" fill="rgb(123, 65, 74)"  x="14" y="22" width="1" height="1" /><rect shape-rendering="crispEdges" fill="rgb(148, 82, 98)"  x="14" y="23" width="1" height="1" /><rect shape-rendering="crispEdges" fill="rgb(164, 90, 106)"  x="14" y="24" width="1" height="1" /><rect shape-rendering="crispEdges" fill="rgb(156, 82, 106)"  x="14" y="25" width="1" height="1" /><rect shape-rendering="crispEdges" fill="rgb(106, 57, 74)"  x="14" y="26" width="1" height="1" /><rect shape-rendering="crispEdges" fill="rgb(123, 65, 82)"  x="14" y="27" width="1" height="1" /><rect shape-rendering="crispEdges" fill="rgb(106, 57, 74)"  x="14" y="28" width="1" height="1" /><rect shape-rendering="crispEdges" fill="rgb(65, 32, 41)"  x="14" y="29" width="1" height="1" /><rect shape-rendering="crispEdges" fill="rgb(41, 24, 32)"  x="14" y="30" width="1" height="1" /><rect shape-rendering="crispEdges" fill="rgb(98, 82, 90)"  x="15" y="3" width="1" height="1" /><rect shape-rendering="crispEdges" fill="rgb(164, 148, 148)"  x="15" y="4" width="1" height="1" /><rect shape-rendering="crispEdges" fill="rgb(246, 222, 230)"  x="15" y="5" width="1" height="1" /><rect shape-rendering="crispEdges" fill="rgb(57, 41, 41)"  x="15" y="6" width="1" height="1" /><rect shape-rendering="crispEdges" fill="rgb(131, 90, 74)"  x="15" y="7" width="1" height="1" /><rect shape-rendering="crispEdges" fill="rgb(49, 24, 16)"  x="15" y="8" width="1" height="1" /><rect shape-rendering="crispEdges" fill="rgb(205, 156, 123)"  x="15" y="9" width="1" height="1" /><rect shape-rendering="crispEdges" fill="rgb(148, 90, 74)"  x="15" y="10" width="1" height="1" /><rect shape-rendering="crispEdges" fill="rgb(230, 115, 82)"  x="15" y="11" width="1" height="1" /><rect shape-rendering="crispEdges" fill="rgb(106, 57, 49)"  x="15" y="12" width="1" height="1" /><rect shape-rendering="crispEdges" fill="rgb(238, 131, 106)"  x="15" y="13" width="1" height="1" /><rect shape-rendering="crispEdges" fill="rgb(106, 57, 49)"  x="15" y="14" width="1" height="1" /><rect shape-rendering="crispEdges" fill="rgb(255, 197, 148)"  x="15" y="15" width="1" height="1" /><rect shape-rendering="crispEdges" fill="rgb(74, 41, 41)"  x="15" y="16" width="1" height="1" /><rect shape-rendering="crispEdges" fill="rgb(115, 65, 74)"  x="15" y="17" width="1" height="1" /><rect shape-rendering="crispEdges" fill="rgb(131, 74, 90)"  x="15" y="18" width="1" height="1" /><rect shape-rendering="crispEdges" fill="rgb(131, 74, 90)"  x="15" y="19" width="1" height="1" /><rect shape-rendering="crispEdges" fill="rgb(131, 74, 90)"  x="15" y="20" width="1" height="1" /><rect shape-rendering="crispEdges" fill="rgb(156, 82, 98)"  x="15" y="21" width="1" height="1" /><rect shape-rendering="crispEdges" fill="rgb(156, 82, 106)"  x="15" y="22" width="1" height="1" /><rect shape-rendering="crispEdges" fill="rgb(148, 82, 98)"  x="15" y="23" width="1" height="1" /><rect shape-rendering="crispEdges" fill="rgb(115, 65, 74)"  x="15" y="24" width="1" height="1" /><rect shape-rendering="crispEdges" fill="rgb(139, 74, 90)"  x="15" y="25" width="1" height="1" /><rect shape-rendering="crispEdges" fill="rgb(139, 74, 90)"  x="15" y="26" width="1" height="1" /><rect shape-rendering="crispEdges" fill="rgb(148, 82, 98)"  x="15" y="27" width="1" height="1" /><rect shape-rendering="crispEdges" fill="rgb(65, 41, 49)"  x="15" y="28" width="1" height="1" /><rect shape-rendering="crispEdges" fill="rgb(74, 41, 41)"  x="15" y="29" width="1" height="1" /><rect shape-rendering="crispEdges" fill="rgb(32, 16, 24)"  x="15" y="30" width="1" height="1" /><rect shape-rendering="crispEdges" fill="rgb(90, 74, 82)"  x="16" y="3" width="1" height="1" /><rect shape-rendering="crispEdges" fill="rgb(205, 189, 197)"  x="16" y="4" width="1" height="1" /><rect shape-rendering="crispEdges" fill="rgb(57, 41, 41)"  x="16" y="5" width="1" height="1" /><rect shape-rendering="crispEdges" fill="rgb(131, 90, 74)"  x="16" y="6" width="1" height="1" /><rect shape-rendering="crispEdges" fill="rgb(82, 49, 41)"  x="16" y="7" width="1" height="1" /><rect shape-rendering="crispEdges" fill="rgb(57, 32, 24)"  x="16" y="8" width="1" height="1" /><rect shape-rendering="crispEdges" fill="rgb(205, 156, 123)"  x="16" y="9" width="1" height="1" /><rect shape-rendering="crispEdges" fill="rgb(82, 49, 41)"  x="16" y="10" width="1" height="1" /><rect shape-rendering="crispEdges" fill="rgb(90, 49, 41)"  x="16" y="11" width="1" height="1" /><rect shape-rendering="crispEdges" fill="rgb(230, 115, 82)"  x="16" y="12" width="1" height="1" /><rect shape-rendering="crispEdges" fill="rgb(106, 57, 49)"  x="16" y="13" width="1" height="1" /><rect shape-rendering="crispEdges" fill="rgb(238, 115, 82)"  x="16" y="14" width="1" height="1" /><rect shape-rendering="crispEdges" fill="rgb(106, 57, 49)"  x="16" y="15" width="1" height="1" /><rect shape-rendering="crispEdges" fill="rgb(255, 131, 74)"  x="16" y="16" width="1" height="1" /><rect shape-rendering="crispEdges" fill="rgb(65, 32, 41)"  x="16" y="17" width="1" height="1" /><rect shape-rendering="crispEdges" fill="rgb(106, 57, 65)"  x="16" y="18" width="1" height="1" /><rect shape-rendering="crispEdges" fill="rgb(123, 65, 82)"  x="16" y="19" width="1" height="1" /><rect shape-rendering="crispEdges" fill="rgb(148, 74, 98)"  x="16" y="20" width="1" height="1" /><rect shape-rendering="crispEdges" fill="rgb(115, 65, 82)"  x="16" y="21" width="1" height="1" /><rect shape-rendering="crispEdges" fill="rgb(115, 65, 74)"  x="16" y="22" width="1" height="1" /><rect shape-rendering="crispEdges" fill="rgb(131, 74, 90)"  x="16" y="23" width="1" height="1" /><rect shape-rendering="crispEdges" fill="rgb(148, 82, 98)"  x="16" y="24" width="1" height="1" /><rect shape-rendering="crispEdges" fill="rgb(123, 65, 82)"  x="16" y="25" width="1" height="1" /><rect shape-rendering="crispEdges" fill="rgb(90, 49, 57)"  x="16" y="26" width="1" height="1" /><rect shape-rendering="crispEdges" fill="rgb(74, 41, 49)"  x="16" y="27" width="1" height="1" /><rect shape-rendering="crispEdges" fill="rgb(74, 41, 41)"  x="16" y="28" width="1" height="1" /><rect shape-rendering="crispEdges" fill="rgb(32, 16, 24)"  x="16" y="29" width="1" height="1" /><rect shape-rendering="crispEdges" fill="rgb(98, 82, 82)"  x="17" y="3" width="1" height="1" /><rect shape-rendering="crispEdges" fill="rgb(57, 41, 41)"  x="17" y="4" width="1" height="1" /><rect shape-rendering="crispEdges" fill="rgb(131, 90, 74)"  x="17" y="5" width="1" height="1" /><rect shape-rendering="crispEdges" fill="rgb(57, 32, 24)"  x="17" y="6" width="1" height="1" /><rect shape-rendering="crispEdges" fill="rgb(57, 32, 24)"  x="17" y="7" width="1" height="1" /><rect shape-rendering="crispEdges" fill="rgb(41, 32, 24)"  x="17" y="8" width="1" height="1" /><rect shape-rendering="crispEdges" fill="rgb(205, 156, 123)"  x="17" y="9" width="1" height="1" /><rect shape-rendering="crispEdges" fill="rgb(57, 32, 24)"  x="17" y="10" width="1" height="1" /><rect shape-rendering="crispEdges" fill="rgb(57, 32, 24)"  x="17" y="11" width="1" height="1" /><rect shape-rendering="crispEdges" fill="rgb(131, 57, 49)"  x="17" y="12" width="1" height="1" /><rect shape-rendering="crispEdges" fill="rgb(106, 57, 49)"  x="17" y="13" width="1" height="1" /><rect shape-rendering="crispEdges" fill="rgb(205, 74, 49)"  x="17" y="14" width="1" height="1" /><rect shape-rendering="crispEdges" fill="rgb(106, 57, 49)"  x="17" y="15" width="1" height="1" /><rect shape-rendering="crispEdges" fill="rgb(255, 131, 74)"  x="17" y="16" width="1" height="1" /><rect shape-rendering="crispEdges" fill="rgb(156, 65, 65)"  x="17" y="17" width="1" height="1" /><rect shape-rendering="crispEdges" fill="rgb(65, 32, 41)"  x="17" y="18" width="1" height="1" /><rect shape-rendering="crispEdges" fill="rgb(82, 49, 57)"  x="17" y="19" width="1" height="1" /><rect shape-rendering="crispEdges" fill="rgb(74, 41, 49)"  x="17" y="20" width="1" height="1" /><rect shape-rendering="crispEdges" fill="rgb(90, 57, 57)"  x="17" y="21" width="1" height="1" /><rect shape-rendering="crispEdges" fill="rgb(131, 74, 82)"  x="17" y="22" width="1" height="1" /><rect shape-rendering="crispEdges" fill="rgb(131, 74, 82)"  x="17" y="23" width="1" height="1" /><rect shape-rendering="crispEdges" fill="rgb(90, 49, 65)"  x="17" y="24" width="1" height="1" /><rect shape-rendering="crispEdges" fill="rgb(82, 49, 57)"  x="17" y="25" width="1" height="1" /><rect shape-rendering="crispEdges" fill="rgb(82, 49, 57)"  x="17" y="26" width="1" height="1" /><rect shape-rendering="crispEdges" fill="rgb(82, 41, 57)"  x="17" y="27" width="1" height="1" /><rect shape-rendering="crispEdges" fill="rgb(24, 16, 16)"  x="17" y="28" width="1" height="1" /><rect shape-rendering="crispEdges" fill="rgb(57, 41, 49)"  x="18" y="3" width="1" height="1" /><rect shape-rendering="crispEdges" fill="rgb(123, 90, 74)"  x="18" y="4" width="1" height="1" /><rect shape-rendering="crispEdges" fill="rgb(123, 98, 74)"  x="18" y="5" width="1" height="1" /><rect shape-rendering="crispEdges" fill="rgb(123, 98, 74)"  x="18" y="6" width="1" height="1" /><rect shape-rendering="crispEdges" fill="rgb(123, 90, 74)"  x="18" y="7" width="1" height="1" /><rect shape-rendering="crispEdges" fill="rgb(49, 24, 16)"  x="18" y="8" width="1" height="1" /><rect shape-rendering="crispEdges" fill="rgb(205, 156, 123)"  x="18" y="9" width="1" height="1" /><rect shape-rendering="crispEdges" fill="rgb(57, 41, 32)"  x="18" y="10" width="1" height="1" /><rect shape-rendering="crispEdges" fill="rgb(65, 41, 32)"  x="18" y="11" width="1" height="1" /><rect shape-rendering="crispEdges" fill="rgb(65, 41, 24)"  x="18" y="12" width="1" height="1" /><rect shape-rendering="crispEdges" fill="rgb(139, 32, 41)"  x="18" y="13" width="1" height="1" /><rect shape-rendering="crispEdges" fill="rgb(74, 41, 32)"  x="18" y="14" width="1" height="1" /><rect shape-rendering="crispEdges" fill="rgb(115, 49, 32)"  x="18" y="15" width="1" height="1" /><rect shape-rendering="crispEdges" fill="rgb(230, 205, 205)"  x="18" y="16" width="1" height="1" /><rect shape-rendering="crispEdges" fill="rgb(180, 172, 172)"  x="18" y="17" width="1" height="1" /><rect shape-rendering="crispEdges" fill="rgb(172, 164, 164)"  x="18" y="18" width="1" height="1" /><rect shape-rendering="crispEdges" fill="rgb(172, 164, 164)"  x="18" y="19" width="1" height="1" /><rect shape-rendering="crispEdges" fill="rgb(172, 156, 156)"  x="18" y="20" width="1" height="1" /><rect shape-rendering="crispEdges" fill="rgb(57, 32, 41)"  x="18" y="21" width="1" height="1" /><rect shape-rendering="crispEdges" fill="rgb(41, 24, 32)"  x="18" y="22" width="1" height="1" /><rect shape-rendering="crispEdges" fill="rgb(41, 24, 32)"  x="18" y="23" width="1" height="1" /><rect shape-rendering="crispEdges" fill="rgb(32, 16, 24)"  x="18" y="24" width="1" height="1" /><rect shape-rendering="crispEdges" fill="rgb(32, 16, 24)"  x="18" y="25" width="1" height="1" /><rect shape-rendering="crispEdges" fill="rgb(32, 16, 24)"  x="18" y="26" width="1" height="1" /><rect shape-rendering="crispEdges" fill="rgb(41, 16, 32)"  x="18" y="27" width="1" height="1" /><rect shape-rendering="crispEdges" fill="rgb(41, 32, 32)"  x="19" y="2" width="1" height="1" /><rect shape-rendering="crispEdges" fill="rgb(131, 98, 82)"  x="19" y="3" width="1" height="1" /><rect shape-rendering="crispEdges" fill="rgb(65, 41, 32)"  x="19" y="4" width="1" height="1" /><rect shape-rendering="crispEdges" fill="rgb(65, 41, 24)"  x="19" y="5" width="1" height="1" /><rect shape-rendering="crispEdges" fill="rgb(65, 41, 32)"  x="19" y="6" width="1" height="1" /><rect shape-rendering="crispEdges" fill="rgb(49, 24, 16)"  x="19" y="7" width="1" height="1" /><rect shape-rendering="crispEdges" fill="rgb(205, 156, 123)"  x="19" y="8" width="1" height="1" /><rect shape-rendering="crispEdges" fill="rgb(41, 24, 24)"  x="19" y="9" width="1" height="1" /><rect shape-rendering="crispEdges" fill="rgb(57, 32, 24)"  x="19" y="10" width="1" height="1" /><rect shape-rendering="crispEdges" fill="rgb(65, 41, 32)"  x="19" y="11" width="1" height="1" /><rect shape-rendering="crispEdges" fill="rgb(65, 49, 41)"  x="19" y="12" width="1" height="1" /><rect shape-rendering="crispEdges" fill="rgb(164, 148, 148)"  x="19" y="13" width="1" height="1" /><rect shape-rendering="crispEdges" fill="rgb(180, 164, 164)"  x="19" y="14" width="1" height="1" /><rect shape-rendering="crispEdges" fill="rgb(172, 164, 164)"  x="19" y="15" width="1" height="1" /><rect shape-rendering="crispEdges" fill="rgb(156, 148, 139)"  x="19" y="16" width="1" height="1" /><rect shape-rendering="crispEdges" fill="rgb(148, 131, 131)"  x="19" y="17" width="1" height="1" /><rect shape-rendering="crispEdges" fill="rgb(49, 24, 41)"  x="19" y="18" width="1" height="1" /><rect shape-rendering="crispEdges" fill="rgb(49, 24, 41)"  x="19" y="19" width="1" height="1" /><rect shape-rendering="crispEdges" fill="rgb(49, 24, 41)"  x="19" y="20" width="1" height="1" /><rect shape-rendering="crispEdges" fill="rgb(49, 24, 41)"  x="20" y="1" width="1" height="1" /><rect shape-rendering="crispEdges" fill="rgb(148, 115, 90)"  x="20" y="2" width="1" height="1" /><rect shape-rendering="crispEdges" fill="rgb(148, 98, 74)"  x="20" y="3" width="1" height="1" /><rect shape-rendering="crispEdges" fill="rgb(115, 82, 65)"  x="20" y="4" width="1" height="1" /><rect shape-rendering="crispEdges" fill="rgb(115, 82, 65)"  x="20" y="5" width="1" height="1" /><rect shape-rendering="crispEdges" fill="rgb(115, 82, 65)"  x="20" y="6" width="1" height="1" /><rect shape-rendering="crispEdges" fill="rgb(74, 41, 41)"  x="20" y="7" width="1" height="1" /><rect shape-rendering="crispEdges" fill="rgb(197, 189, 189)"  x="20" y="8" width="1" height="1" /><rect shape-rendering="crispEdges" fill="rgb(180, 164, 164)"  x="20" y="9" width="1" height="1" /><rect shape-rendering="crispEdges" fill="rgb(164, 148, 148)"  x="20" y="10" width="1" height="1" /><rect shape-rendering="crispEdges" fill="rgb(156, 148, 148)"  x="20" y="11" width="1" height="1" /><rect shape-rendering="crispEdges" fill="rgb(148, 139, 131)"  x="20" y="12" width="1" height="1" /><rect shape-rendering="crispEdges" fill="rgb(139, 131, 131)"  x="20" y="13" width="1" height="1" /><rect shape-rendering="crispEdges" fill="rgb(16, 16, 16)"  x="20" y="14" width="1" height="1" /><rect shape-rendering="crispEdges" fill="rgb(49, 24, 41)"  x="20" y="15" width="1" height="1" /><rect shape-rendering="crispEdges" fill="rgb(49, 24, 41)"  x="20" y="16" width="1" height="1" /><rect shape-rendering="crispEdges" fill="rgb(49, 24, 41)"  x="20" y="17" width="1" height="1" /><rect shape-rendering="crispEdges" fill="rgb(49, 24, 41)"  x="21" y="1" width="1" height="1" /><rect shape-rendering="crispEdges" fill="rgb(148, 106, 90)"  x="21" y="2" width="1" height="1" /><rect shape-rendering="crispEdges" fill="rgb(65, 41, 32)"  x="21" y="3" width="1" height="1" /><rect shape-rendering="crispEdges" fill="rgb(65, 32, 32)"  x="21" y="4" width="1" height="1" /><rect shape-rendering="crispEdges" fill="rgb(74, 41, 32)"  x="21" y="5" width="1" height="1" /><rect shape-rendering="crispEdges" fill="rgb(65, 32, 32)"  x="21" y="6" width="1" height="1" /><rect shape-rendering="crispEdges" fill="rgb(213, 197, 197)"  x="21" y="7" width="1" height="1" /><rect shape-rendering="crispEdges" fill="rgb(156, 139, 139)"  x="21" y="8" width="1" height="1" /><rect shape-rendering="crispEdges" fill="rgb(139, 131, 131)"  x="21" y="9" width="1" height="1" /><rect shape-rendering="crispEdges" fill="rgb(49, 24, 41)"  x="21" y="10" width="1" height="1" /><rect shape-rendering="crispEdges" fill="rgb(49, 24, 41)"  x="21" y="11" width="1" height="1" /><rect shape-rendering="crispEdges" fill="rgb(49, 24, 41)"  x="21" y="12" width="1" height="1" /><rect shape-rendering="crispEdges" fill="rgb(49, 24, 41)"  x="21" y="13" width="1" height="1" /><rect shape-rendering="crispEdges" fill="rgb(49, 24, 41)"  x="22" y="1" width="1" height="1" /><rect shape-rendering="crispEdges" fill="rgb(123, 90, 74)"  x="22" y="2" width="1" height="1" /><rect shape-rendering="crispEdges" fill="rgb(123, 74, 49)"  x="22" y="3" width="1" height="1" /><rect shape-rendering="crispEdges" fill="rgb(123, 65, 49)"  x="22" y="4" width="1" height="1" /><rect shape-rendering="crispEdges" fill="rgb(65, 32, 24)"  x="22" y="5" width="1" height="1" /><rect shape-rendering="crispEdges" fill="rgb(16, 16, 16)"  x="22" y="6" width="1" height="1" /><rect shape-rendering="crispEdges" fill="rgb(49, 24, 41)"  x="22" y="7" width="1" height="1" /><rect shape-rendering="crispEdges" fill="rgb(49, 24, 41)"  x="22" y="8" width="1" height="1" /><rect shape-rendering="crispEdges" fill="rgb(49, 24, 41)"  x="22" y="9" width="1" height="1" /><rect shape-rendering="crispEdges" fill="rgb(32, 16, 16)"  x="23" y="1" width="1" height="1" /><rect shape-rendering="crispEdges" fill="rgb(49, 32, 24)"  x="23" y="2" width="1" height="1" /><rect shape-rendering="crispEdges" fill="rgb(65, 41, 32)"  x="23" y="3" width="1" height="1" /><rect shape-rendering="crispEdges" fill="rgb(41, 24, 24)"  x="23" y="4" width="1" height="1" /><rect shape-rendering="crispEdges" fill="rgb(49, 24, 41)"  x="23" y="5" width="1" height="1" /></svg>