<svg xmlns="http://www.w3.org/2000/svg" xmlns:xlink= "http://www.w3.org/1999/xlink" width="32" height="32" viewBox ="0 0 32 32"><rect shape-rendering="crispEdges" fill="rgb(131, 213, 123)"  x="1" y="21" width="1" height="1" /><rect shape-rendering="crispEdges" fill="rgb(238, 180, 172)"  x="2" y="17" width="1" height="1" /><rect shape-rendering="crispEdges" fill="rgb(131, 213, 123)"  x="2" y="19" width="1" height="1" /><rect shape-rendering="crispEdges" fill="rgb(131, 213, 123)"  x="2" y="20" width="1" height="1" /><rect shape-rendering="crispEdges" fill="rgb(148, 205, 131)"  x="2" y="21" width="1" height="1" /><rect shape-rendering="crispEdges" fill="rgb(131, 213, 123)"  x="2" y="22" width="1" height="1" /><rect shape-rendering="crispEdges" fill="rgb(131, 213, 123)"  x="3" y="12" width="1" height="1" /><rect shape-rendering="crispEdges" fill="rgb(131, 213, 123)"  x="3" y="13" width="1" height="1" /><rect shape-rendering="crispEdges" fill="rgb(238, 180, 172)"  x="3" y="14" width="1" height="1" /><rect shape-rendering="crispEdges" fill="rgb(255, 98, 74)"  x="3" y="15" width="1" height="1" /><rect shape-rendering="crispEdges" fill="rgb(246, 41, 0)"  x="3" y="16" width="1" height="1" /><rect shape-rendering="crispEdges" fill="rgb(255, 98, 74)"  x="3" y="17" width="1" height="1" /><rect shape-rendering="crispEdges" fill="rgb(74, 164, 65)"  x="3" y="18" width="1" height="1" /><rect shape-rendering="crispEdges" fill="rgb(74, 164, 65)"  x="3" y="19" width="1" height="1" /><rect shape-rendering="crispEdges" fill="rgb(172, 246, 148)"  x="3" y="20" width="1" height="1" /><rect shape-rendering="crispEdges" fill="rgb(32, 90, 24)"  x="3" y="21" width="1" height="1" /><rect shape-rendering="crispEdges" fill="rgb(32, 90, 24)"  x="3" y="22" width="1" height="1" /><rect shape-rendering="crispEdges" fill="rgb(74, 164, 65)"  x="3" y="24" width="1" height="1" /><rect shape-rendering="crispEdges" fill="rgb(131, 213, 123)"  x="4" y="10" width="1" height="1" /><rect shape-rendering="crispEdges" fill="rgb(131, 213, 123)"  x="4" y="11" width="1" height="1" /><rect shape-rendering="crispEdges" fill="rgb(74, 164, 65)"  x="4" y="12" width="1" height="1" /><rect shape-rendering="crispEdges" fill="rgb(32, 90, 24)"  x="4" y="13" width="1" height="1" /><rect shape-rendering="crispEdges" fill="rgb(246, 41, 0)"  x="4" y="14" width="1" height="1" /><rect shape-rendering="crispEdges" fill="rgb(246, 148, 131)"  x="4" y="15" width="1" height="1" /><rect shape-rendering="crispEdges" fill="rgb(238, 180, 172)"  x="4" y="16" width="1" height="1" /><rect shape-rendering="crispEdges" fill="rgb(238, 180, 172)"  x="4" y="17" width="1" height="1" /><rect shape-rendering="crispEdges" fill="rgb(255, 98, 74)"  x="4" y="18" width="1" height="1" /><rect shape-rendering="crispEdges" fill="rgb(148, 213, 123)"  x="4" y="19" width="1" height="1" /><rect shape-rendering="crispEdges" fill="rgb(57, 131, 49)"  x="4" y="20" width="1" height="1" /><rect shape-rendering="crispEdges" fill="rgb(148, 213, 131)"  x="4" y="21" width="1" height="1" /><rect shape-rendering="crispEdges" fill="rgb(156, 230, 139)"  x="4" y="22" width="1" height="1" /><rect shape-rendering="crispEdges" fill="rgb(172, 246, 148)"  x="4" y="23" width="1" height="1" /><rect shape-rendering="crispEdges" fill="rgb(32, 90, 24)"  x="4" y="24" width="1" height="1" /><rect shape-rendering="crispEdges" fill="rgb(156, 230, 131)"  x="5" y="10" width="1" height="1" /><rect shape-rendering="crispEdges" fill="rgb(32, 90, 24)"  x="5" y="11" width="1" height="1" /><rect shape-rendering="crispEdges" fill="rgb(156, 197, 131)"  x="5" y="12" width="1" height="1" /><rect shape-rendering="crispEdges" fill="rgb(230, 222, 189)"  x="5" y="13" width="1" height="1" /><rect shape-rendering="crispEdges" fill="rgb(238, 180, 172)"  x="5" y="14" width="1" height="1" /><rect shape-rendering="crispEdges" fill="rgb(255, 57, 24)"  x="5" y="15" width="1" height="1" /><rect shape-rendering="crispEdges" fill="rgb(246, 41, 0)"  x="5" y="16" width="1" height="1" /><rect shape-rendering="crispEdges" fill="rgb(238, 164, 148)"  x="5" y="17" width="1" height="1" /><rect shape-rendering="crispEdges" fill="rgb(238, 180, 172)"  x="5" y="18" width="1" height="1" /><rect shape-rendering="crispEdges" fill="rgb(246, 41, 0)"  x="5" y="19" width="1" height="1" /><rect shape-rendering="crispEdges" fill="rgb(197, 180, 98)"  x="5" y="20" width="1" height="1" /><rect shape-rendering="crispEdges" fill="rgb(57, 131, 49)"  x="5" y="21" width="1" height="1" /><rect shape-rendering="crispEdges" fill="rgb(74, 164, 65)"  x="5" y="22" width="1" height="1" /><rect shape-rendering="crispEdges" fill="rgb(32, 90, 24)"  x="5" y="23" width="1" height="1" /><rect shape-rendering="crispEdges" fill="rgb(74, 164, 65)"  x="6" y="8" width="1" height="1" /><rect shape-rendering="crispEdges" fill="rgb(74, 164, 65)"  x="6" y="9" width="1" height="1" /><rect shape-rendering="crispEdges" fill="rgb(164, 238, 139)"  x="6" y="10" width="1" height="1" /><rect shape-rendering="crispEdges" fill="rgb(148, 213, 131)"  x="6" y="11" width="1" height="1" /><rect shape-rendering="crispEdges" fill="rgb(180, 189, 148)"  x="6" y="12" width="1" height="1" /><rect shape-rendering="crispEdges" fill="rgb(238, 180, 172)"  x="6" y="13" width="1" height="1" /><rect shape-rendering="crispEdges" fill="rgb(255, 98, 74)"  x="6" y="14" width="1" height="1" /><rect shape-rendering="crispEdges" fill="rgb(246, 148, 123)"  x="6" y="15" width="1" height="1" /><rect shape-rendering="crispEdges" fill="rgb(246, 131, 106)"  x="6" y="16" width="1" height="1" /><rect shape-rendering="crispEdges" fill="rgb(255, 98, 74)"  x="6" y="17" width="1" height="1" /><rect shape-rendering="crispEdges" fill="rgb(197, 24, 0)"  x="6" y="18" width="1" height="1" /><rect shape-rendering="crispEdges" fill="rgb(57, 131, 49)"  x="6" y="19" width="1" height="1" /><rect shape-rendering="crispEdges" fill="rgb(32, 90, 24)"  x="6" y="20" width="1" height="1" /><rect shape-rendering="crispEdges" fill="rgb(197, 189, 189)"  x="6" y="21" width="1" height="1" /><rect shape-rendering="crispEdges" fill="rgb(197, 189, 189)"  x="6" y="22" width="1" height="1" /><rect shape-rendering="crispEdges" fill="rgb(82, 74, 74)"  x="6" y="23" width="1" height="1" /><rect shape-rendering="crispEdges" fill="rgb(74, 164, 65)"  x="7" y="9" width="1" height="1" /><rect shape-rendering="crispEdges" fill="rgb(57, 131, 49)"  x="7" y="10" width="1" height="1" /><rect shape-rendering="crispEdges" fill="rgb(213, 148, 98)"  x="7" y="11" width="1" height="1" /><rect shape-rendering="crispEdges" fill="rgb(205, 197, 148)"  x="7" y="12" width="1" height="1" /><rect shape-rendering="crispEdges" fill="rgb(230, 139, 115)"  x="7" y="13" width="1" height="1" /><rect shape-rendering="crispEdges" fill="rgb(238, 131, 98)"  x="7" y="14" width="1" height="1" /><rect shape-rendering="crispEdges" fill="rgb(255, 98, 74)"  x="7" y="15" width="1" height="1" /><rect shape-rendering="crispEdges" fill="rgb(197, 24, 0)"  x="7" y="16" width="1" height="1" /><rect shape-rendering="crispEdges" fill="rgb(139, 213, 123)"  x="7" y="17" width="1" height="1" /><rect shape-rendering="crispEdges" fill="rgb(139, 213, 123)"  x="7" y="18" width="1" height="1" /><rect shape-rendering="crispEdges" fill="rgb(32, 90, 24)"  x="7" y="19" width="1" height="1" /><rect shape-rendering="crispEdges" fill="rgb(57, 24, 8)"  x="7" y="22" width="1" height="1" /><rect shape-rendering="crispEdges" fill="rgb(197, 189, 189)"  x="7" y="23" width="1" height="1" /><rect shape-rendering="crispEdges" fill="rgb(164, 156, 156)"  x="7" y="24" width="1" height="1" /><rect shape-rendering="crispEdges" fill="rgb(82, 74, 74)"  x="7" y="25" width="1" height="1" /><rect shape-rendering="crispEdges" fill="rgb(131, 213, 123)"  x="8" y="7" width="1" height="1" /><rect shape-rendering="crispEdges" fill="rgb(238, 180, 172)"  x="8" y="9" width="1" height="1" /><rect shape-rendering="crispEdges" fill="rgb(246, 41, 0)"  x="8" y="10" width="1" height="1" /><rect shape-rendering="crispEdges" fill="rgb(255, 74, 49)"  x="8" y="11" width="1" height="1" /><rect shape-rendering="crispEdges" fill="rgb(255, 90, 65)"  x="8" y="12" width="1" height="1" /><rect shape-rendering="crispEdges" fill="rgb(238, 180, 172)"  x="8" y="13" width="1" height="1" /><rect shape-rendering="crispEdges" fill="rgb(222, 106, 65)"  x="8" y="14" width="1" height="1" /><rect shape-rendering="crispEdges" fill="rgb(32, 90, 24)"  x="8" y="15" width="1" height="1" /><rect shape-rendering="crispEdges" fill="rgb(148, 205, 123)"  x="8" y="16" width="1" height="1" /><rect shape-rendering="crispEdges" fill="rgb(139, 205, 123)"  x="8" y="17" width="1" height="1" /><rect shape-rendering="crispEdges" fill="rgb(74, 164, 65)"  x="8" y="18" width="1" height="1" /><rect shape-rendering="crispEdges" fill="rgb(57, 24, 8)"  x="8" y="23" width="1" height="1" /><rect shape-rendering="crispEdges" fill="rgb(57, 24, 8)"  x="8" y="24" width="1" height="1" /><rect shape-rendering="crispEdges" fill="rgb(197, 189, 189)"  x="8" y="25" width="1" height="1" /><rect shape-rendering="crispEdges" fill="rgb(82, 74, 74)"  x="8" y="26" width="1" height="1" /><rect shape-rendering="crispEdges" fill="rgb(131, 213, 123)"  x="9" y="6" width="1" height="1" /><rect shape-rendering="crispEdges" fill="rgb(90, 123, 82)"  x="9" y="7" width="1" height="1" /><rect shape-rendering="crispEdges" fill="rgb(238, 180, 172)"  x="9" y="8" width="1" height="1" /><rect shape-rendering="crispEdges" fill="rgb(246, 41, 0)"  x="9" y="9" width="1" height="1" /><rect shape-rendering="crispEdges" fill="rgb(255, 90, 57)"  x="9" y="10" width="1" height="1" /><rect shape-rendering="crispEdges" fill="rgb(255, 90, 65)"  x="9" y="11" width="1" height="1" /><rect shape-rendering="crispEdges" fill="rgb(255, 90, 57)"  x="9" y="12" width="1" height="1" /><rect shape-rendering="crispEdges" fill="rgb(255, 74, 41)"  x="9" y="13" width="1" height="1" /><rect shape-rendering="crispEdges" fill="rgb(255, 131, 106)"  x="9" y="14" width="1" height="1" /><rect shape-rendering="crispEdges" fill="rgb(246, 172, 148)"  x="9" y="15" width="1" height="1" /><rect shape-rendering="crispEdges" fill="rgb(32, 90, 24)"  x="9" y="16" width="1" height="1" /><rect shape-rendering="crispEdges" fill="rgb(148, 222, 131)"  x="9" y="17" width="1" height="1" /><rect shape-rendering="crispEdges" fill="rgb(32, 90, 24)"  x="9" y="18" width="1" height="1" /><rect shape-rendering="crispEdges" fill="rgb(57, 24, 8)"  x="9" y="25" width="1" height="1" /><rect shape-rendering="crispEdges" fill="rgb(164, 156, 156)"  x="9" y="26" width="1" height="1" /><rect shape-rendering="crispEdges" fill="rgb(82, 74, 74)"  x="9" y="27" width="1" height="1" /><rect shape-rendering="crispEdges" fill="rgb(82, 74, 74)"  x="9" y="28" width="1" height="1" /><rect shape-rendering="crispEdges" fill="rgb(74, 164, 65)"  x="10" y="6" width="1" height="1" /><rect shape-rendering="crispEdges" fill="rgb(156, 213, 131)"  x="10" y="7" width="1" height="1" /><rect shape-rendering="crispEdges" fill="rgb(189, 197, 131)"  x="10" y="8" width="1" height="1" /><rect shape-rendering="crispEdges" fill="rgb(255, 90, 57)"  x="10" y="9" width="1" height="1" /><rect shape-rendering="crispEdges" fill="rgb(255, 90, 57)"  x="10" y="10" width="1" height="1" /><rect shape-rendering="crispEdges" fill="rgb(255, 115, 82)"  x="10" y="11" width="1" height="1" /><rect shape-rendering="crispEdges" fill="rgb(246, 41, 0)"  x="10" y="12" width="1" height="1" /><rect shape-rendering="crispEdges" fill="rgb(255, 74, 41)"  x="10" y="13" width="1" height="1" /><rect shape-rendering="crispEdges" fill="rgb(255, 148, 123)"  x="10" y="14" width="1" height="1" /><rect shape-rendering="crispEdges" fill="rgb(255, 57, 24)"  x="10" y="15" width="1" height="1" /><rect shape-rendering="crispEdges" fill="rgb(57, 131, 49)"  x="10" y="16" width="1" height="1" /><rect shape-rendering="crispEdges" fill="rgb(57, 131, 49)"  x="10" y="17" width="1" height="1" /><rect shape-rendering="crispEdges" fill="rgb(164, 156, 156)"  x="10" y="26" width="1" height="1" /><rect shape-rendering="crispEdges" fill="rgb(82, 74, 74)"  x="10" y="27" width="1" height="1" /><rect shape-rendering="crispEdges" fill="rgb(57, 24, 8)"  x="10" y="28" width="1" height="1" /><rect shape-rendering="crispEdges" fill="rgb(57, 24, 8)"  x="10" y="29" width="1" height="1" /><rect shape-rendering="crispEdges" fill="rgb(74, 164, 65)"  x="11" y="7" width="1" height="1" /><rect shape-rendering="crispEdges" fill="rgb(57, 131, 49)"  x="11" y="8" width="1" height="1" /><rect shape-rendering="crispEdges" fill="rgb(238, 180, 172)"  x="11" y="9" width="1" height="1" /><rect shape-rendering="crispEdges" fill="rgb(246, 41, 0)"  x="11" y="10" width="1" height="1" /><rect shape-rendering="crispEdges" fill="rgb(255, 115, 90)"  x="11" y="11" width="1" height="1" /><rect shape-rendering="crispEdges" fill="rgb(255, 57, 24)"  x="11" y="12" width="1" height="1" /><rect shape-rendering="crispEdges" fill="rgb(255, 57, 24)"  x="11" y="13" width="1" height="1" /><rect shape-rendering="crispEdges" fill="rgb(197, 24, 0)"  x="11" y="14" width="1" height="1" /><rect shape-rendering="crispEdges" fill="rgb(32, 90, 24)"  x="11" y="15" width="1" height="1" /><rect shape-rendering="crispEdges" fill="rgb(197, 189, 189)"  x="11" y="25" width="1" height="1" /><rect shape-rendering="crispEdges" fill="rgb(82, 74, 74)"  x="11" y="26" width="1" height="1" /><rect shape-rendering="crispEdges" fill="rgb(57, 24, 8)"  x="11" y="27" width="1" height="1" /><rect shape-rendering="crispEdges" fill="rgb(115, 106, 90)"  x="12" y="7" width="1" height="1" /><rect shape-rendering="crispEdges" fill="rgb(238, 180, 172)"  x="12" y="8" width="1" height="1" /><rect shape-rendering="crispEdges" fill="rgb(246, 164, 156)"  x="12" y="9" width="1" height="1" /><rect shape-rendering="crispEdges" fill="rgb(238, 180, 172)"  x="12" y="10" width="1" height="1" /><rect shape-rendering="crispEdges" fill="rgb(246, 41, 0)"  x="12" y="11" width="1" height="1" /><rect shape-rendering="crispEdges" fill="rgb(197, 24, 0)"  x="12" y="12" width="1" height="1" /><rect shape-rendering="crispEdges" fill="rgb(197, 24, 0)"  x="12" y="13" width="1" height="1" /><rect shape-rendering="crispEdges" fill="rgb(139, 197, 123)"  x="12" y="14" width="1" height="1" /><rect shape-rendering="crispEdges" fill="rgb(156, 230, 131)"  x="12" y="15" width="1" height="1" /><rect shape-rendering="crispEdges" fill="rgb(57, 131, 49)"  x="12" y="16" width="1" height="1" /><rect shape-rendering="crispEdges" fill="rgb(197, 189, 189)"  x="12" y="24" width="1" height="1" /><rect shape-rendering="crispEdges" fill="rgb(82, 74, 74)"  x="12" y="25" width="1" height="1" /><rect shape-rendering="crispEdges" fill="rgb(57, 24, 8)"  x="12" y="26" width="1" height="1" /><rect shape-rendering="crispEdges" fill="rgb(197, 139, 131)"  x="13" y="7" width="1" height="1" /><rect shape-rendering="crispEdges" fill="rgb(246, 164, 156)"  x="13" y="8" width="1" height="1" /><rect shape-rendering="crispEdges" fill="rgb(230, 131, 115)"  x="13" y="9" width="1" height="1" /><rect shape-rendering="crispEdges" fill="rgb(255, 57, 24)"  x="13" y="10" width="1" height="1" /><rect shape-rendering="crispEdges" fill="rgb(230, 148, 131)"  x="13" y="11" width="1" height="1" /><rect shape-rendering="crispEdges" fill="rgb(246, 164, 156)"  x="13" y="12" width="1" height="1" /><rect shape-rendering="crispEdges" fill="rgb(230, 148, 123)"  x="13" y="13" width="1" height="1" /><rect shape-rendering="crispEdges" fill="rgb(172, 213, 139)"  x="13" y="14" width="1" height="1" /><rect shape-rendering="crispEdges" fill="rgb(57, 131, 49)"  x="13" y="15" width="1" height="1" /><rect shape-rendering="crispEdges" fill="rgb(197, 189, 189)"  x="13" y="23" width="1" height="1" /><rect shape-rendering="crispEdges" fill="rgb(82, 74, 74)"  x="13" y="24" width="1" height="1" /><rect shape-rendering="crispEdges" fill="rgb(57, 24, 8)"  x="13" y="25" width="1" height="1" /><rect shape-rendering="crispEdges" fill="rgb(131, 213, 123)"  x="14" y="6" width="1" height="1" /><rect shape-rendering="crispEdges" fill="rgb(74, 164, 65)"  x="14" y="7" width="1" height="1" /><rect shape-rendering="crispEdges" fill="rgb(255, 90, 57)"  x="14" y="8" width="1" height="1" /><rect shape-rendering="crispEdges" fill="rgb(246, 156, 131)"  x="14" y="9" width="1" height="1" /><rect shape-rendering="crispEdges" fill="rgb(246, 156, 131)"  x="14" y="10" width="1" height="1" /><rect shape-rendering="crispEdges" fill="rgb(238, 180, 172)"  x="14" y="11" width="1" height="1" /><rect shape-rendering="crispEdges" fill="rgb(246, 148, 131)"  x="14" y="12" width="1" height="1" /><rect shape-rendering="crispEdges" fill="rgb(255, 90, 57)"  x="14" y="13" width="1" height="1" /><rect shape-rendering="crispEdges" fill="rgb(32, 90, 24)"  x="14" y="14" width="1" height="1" /><rect shape-rendering="crispEdges" fill="rgb(197, 189, 189)"  x="14" y="22" width="1" height="1" /><rect shape-rendering="crispEdges" fill="rgb(82, 74, 74)"  x="14" y="23" width="1" height="1" /><rect shape-rendering="crispEdges" fill="rgb(57, 24, 8)"  x="14" y="24" width="1" height="1" /><rect shape-rendering="crispEdges" fill="rgb(74, 164, 65)"  x="15" y="5" width="1" height="1" /><rect shape-rendering="crispEdges" fill="rgb(74, 164, 65)"  x="15" y="6" width="1" height="1" /><rect shape-rendering="crispEdges" fill="rgb(164, 238, 139)"  x="15" y="7" width="1" height="1" /><rect shape-rendering="crispEdges" fill="rgb(164, 205, 131)"  x="15" y="8" width="1" height="1" /><rect shape-rendering="crispEdges" fill="rgb(255, 90, 57)"  x="15" y="9" width="1" height="1" /><rect shape-rendering="crispEdges" fill="rgb(230, 131, 106)"  x="15" y="10" width="1" height="1" /><rect shape-rendering="crispEdges" fill="rgb(230, 115, 90)"  x="15" y="11" width="1" height="1" /><rect shape-rendering="crispEdges" fill="rgb(246, 41, 0)"  x="15" y="12" width="1" height="1" /><rect shape-rendering="crispEdges" fill="rgb(172, 172, 123)"  x="15" y="13" width="1" height="1" /><rect shape-rendering="crispEdges" fill="rgb(115, 172, 106)"  x="15" y="14" width="1" height="1" /><rect shape-rendering="crispEdges" fill="rgb(148, 180, 123)"  x="15" y="15" width="1" height="1" /><rect shape-rendering="crispEdges" fill="rgb(57, 131, 49)"  x="15" y="16" width="1" height="1" /><rect shape-rendering="crispEdges" fill="rgb(82, 74, 74)"  x="15" y="22" width="1" height="1" /><rect shape-rendering="crispEdges" fill="rgb(82, 74, 74)"  x="15" y="23" width="1" height="1" /><rect shape-rendering="crispEdges" fill="rgb(57, 24, 8)"  x="15" y="24" width="1" height="1" /><rect shape-rendering="crispEdges" fill="rgb(74, 164, 65)"  x="16" y="6" width="1" height="1" /><rect shape-rendering="crispEdges" fill="rgb(74, 164, 65)"  x="16" y="7" width="1" height="1" /><rect shape-rendering="crispEdges" fill="rgb(32, 90, 24)"  x="16" y="8" width="1" height="1" /><rect shape-rendering="crispEdges" fill="rgb(238, 180, 172)"  x="16" y="9" width="1" height="1" /><rect shape-rendering="crispEdges" fill="rgb(246, 82, 49)"  x="16" y="10" width="1" height="1" /><rect shape-rendering="crispEdges" fill="rgb(255, 90, 57)"  x="16" y="11" width="1" height="1" /><rect shape-rendering="crispEdges" fill="rgb(213, 164, 131)"  x="16" y="12" width="1" height="1" /><rect shape-rendering="crispEdges" fill="rgb(32, 90, 24)"  x="16" y="13" width="1" height="1" /><rect shape-rendering="crispEdges" fill="rgb(32, 90, 24)"  x="16" y="14" width="1" height="1" /><rect shape-rendering="crispEdges" fill="rgb(57, 131, 49)"  x="16" y="15" width="1" height="1" /><rect shape-rendering="crispEdges" fill="rgb(197, 189, 189)"  x="16" y="21" width="1" height="1" /><rect shape-rendering="crispEdges" fill="rgb(82, 74, 74)"  x="16" y="22" width="1" height="1" /><rect shape-rendering="crispEdges" fill="rgb(164, 156, 156)"  x="16" y="24" width="1" height="1" /><rect shape-rendering="crispEdges" fill="rgb(57, 24, 8)"  x="16" y="25" width="1" height="1" /><rect shape-rendering="crispEdges" fill="rgb(74, 164, 65)"  x="17" y="6" width="1" height="1" /><rect shape-rendering="crispEdges" fill="rgb(164, 131, 115)"  x="17" y="7" width="1" height="1" /><rect shape-rendering="crispEdges" fill="rgb(238, 180, 172)"  x="17" y="8" width="1" height="1" /><rect shape-rendering="crispEdges" fill="rgb(246, 156, 139)"  x="17" y="9" width="1" height="1" /><rect shape-rendering="crispEdges" fill="rgb(255, 98, 74)"  x="17" y="10" width="1" height="1" /><rect shape-rendering="crispEdges" fill="rgb(255, 82, 49)"  x="17" y="11" width="1" height="1" /><rect shape-rendering="crispEdges" fill="rgb(255, 148, 123)"  x="17" y="12" width="1" height="1" /><rect shape-rendering="crispEdges" fill="rgb(255, 57, 24)"  x="17" y="13" width="1" height="1" /><rect shape-rendering="crispEdges" fill="rgb(180, 139, 74)"  x="17" y="14" width="1" height="1" /><rect shape-rendering="crispEdges" fill="rgb(74, 164, 65)"  x="17" y="15" width="1" height="1" /><rect shape-rendering="crispEdges" fill="rgb(57, 24, 8)"  x="17" y="21" width="1" height="1" /><rect shape-rendering="crispEdges" fill="rgb(82, 74, 74)"  x="17" y="22" width="1" height="1" /><rect shape-rendering="crispEdges" fill="rgb(197, 189, 189)"  x="17" y="24" width="1" height="1" /><rect shape-rendering="crispEdges" fill="rgb(57, 24, 8)"  x="17" y="25" width="1" height="1" /><rect shape-rendering="crispEdges" fill="rgb(74, 164, 65)"  x="18" y="4" width="1" height="1" /><rect shape-rendering="crispEdges" fill="rgb(74, 115, 65)"  x="18" y="5" width="1" height="1" /><rect shape-rendering="crispEdges" fill="rgb(164, 197, 148)"  x="18" y="6" width="1" height="1" /><rect shape-rendering="crispEdges" fill="rgb(238, 180, 172)"  x="18" y="7" width="1" height="1" /><rect shape-rendering="crispEdges" fill="rgb(246, 41, 0)"  x="18" y="8" width="1" height="1" /><rect shape-rendering="crispEdges" fill="rgb(246, 41, 0)"  x="18" y="9" width="1" height="1" /><rect shape-rendering="crispEdges" fill="rgb(246, 82, 49)"  x="18" y="10" width="1" height="1" /><rect shape-rendering="crispEdges" fill="rgb(255, 57, 24)"  x="18" y="11" width="1" height="1" /><rect shape-rendering="crispEdges" fill="rgb(255, 90, 57)"  x="18" y="12" width="1" height="1" /><rect shape-rendering="crispEdges" fill="rgb(255, 139, 115)"  x="18" y="13" width="1" height="1" /><rect shape-rendering="crispEdges" fill="rgb(246, 41, 0)"  x="18" y="14" width="1" height="1" /><rect shape-rendering="crispEdges" fill="rgb(156, 238, 139)"  x="18" y="15" width="1" height="1" /><rect shape-rendering="crispEdges" fill="rgb(131, 213, 123)"  x="18" y="16" width="1" height="1" /><rect shape-rendering="crispEdges" fill="rgb(82, 74, 74)"  x="18" y="22" width="1" height="1" /><rect shape-rendering="crispEdges" fill="rgb(197, 189, 189)"  x="18" y="23" width="1" height="1" /><rect shape-rendering="crispEdges" fill="rgb(82, 74, 74)"  x="18" y="24" width="1" height="1" /><rect shape-rendering="crispEdges" fill="rgb(74, 164, 65)"  x="19" y="5" width="1" height="1" /><rect shape-rendering="crispEdges" fill="rgb(32, 90, 24)"  x="19" y="6" width="1" height="1" /><rect shape-rendering="crispEdges" fill="rgb(255, 139, 115)"  x="19" y="7" width="1" height="1" /><rect shape-rendering="crispEdges" fill="rgb(246, 41, 0)"  x="19" y="8" width="1" height="1" /><rect shape-rendering="crispEdges" fill="rgb(255, 74, 41)"  x="19" y="9" width="1" height="1" /><rect shape-rendering="crispEdges" fill="rgb(255, 57, 24)"  x="19" y="10" width="1" height="1" /><rect shape-rendering="crispEdges" fill="rgb(255, 106, 82)"  x="19" y="11" width="1" height="1" /><rect shape-rendering="crispEdges" fill="rgb(255, 57, 24)"  x="19" y="12" width="1" height="1" /><rect shape-rendering="crispEdges" fill="rgb(246, 41, 0)"  x="19" y="13" width="1" height="1" /><rect shape-rendering="crispEdges" fill="rgb(189, 164, 106)"  x="19" y="14" width="1" height="1" /><rect shape-rendering="crispEdges" fill="rgb(131, 205, 123)"  x="19" y="15" width="1" height="1" /><rect shape-rendering="crispEdges" fill="rgb(74, 164, 65)"  x="19" y="16" width="1" height="1" /><rect shape-rendering="crispEdges" fill="rgb(131, 213, 123)"  x="19" y="17" width="1" height="1" /><rect shape-rendering="crispEdges" fill="rgb(57, 131, 49)"  x="19" y="18" width="1" height="1" /><rect shape-rendering="crispEdges" fill="rgb(197, 189, 189)"  x="19" y="22" width="1" height="1" /><rect shape-rendering="crispEdges" fill="rgb(82, 74, 74)"  x="19" y="23" width="1" height="1" /><rect shape-rendering="crispEdges" fill="rgb(57, 24, 8)"  x="19" y="24" width="1" height="1" /><rect shape-rendering="crispEdges" fill="rgb(57, 131, 49)"  x="20" y="5" width="1" height="1" /><rect shape-rendering="crispEdges" fill="rgb(65, 74, 49)"  x="20" y="6" width="1" height="1" /><rect shape-rendering="crispEdges" fill="rgb(246, 90, 74)"  x="20" y="7" width="1" height="1" /><rect shape-rendering="crispEdges" fill="rgb(255, 90, 49)"  x="20" y="8" width="1" height="1" /><rect shape-rendering="crispEdges" fill="rgb(255, 65, 41)"  x="20" y="9" width="1" height="1" /><rect shape-rendering="crispEdges" fill="rgb(255, 90, 57)"  x="20" y="10" width="1" height="1" /><rect shape-rendering="crispEdges" fill="rgb(246, 41, 0)"  x="20" y="11" width="1" height="1" /><rect shape-rendering="crispEdges" fill="rgb(255, 98, 74)"  x="20" y="12" width="1" height="1" /><rect shape-rendering="crispEdges" fill="rgb(197, 24, 0)"  x="20" y="13" width="1" height="1" /><rect shape-rendering="crispEdges" fill="rgb(197, 164, 115)"  x="20" y="14" width="1" height="1" /><rect shape-rendering="crispEdges" fill="rgb(32, 90, 24)"  x="20" y="15" width="1" height="1" /><rect shape-rendering="crispEdges" fill="rgb(32, 90, 24)"  x="20" y="16" width="1" height="1" /><rect shape-rendering="crispEdges" fill="rgb(57, 131, 49)"  x="20" y="17" width="1" height="1" /><rect shape-rendering="crispEdges" fill="rgb(32, 90, 24)"  x="20" y="18" width="1" height="1" /><rect shape-rendering="crispEdges" fill="rgb(164, 156, 156)"  x="20" y="22" width="1" height="1" /><rect shape-rendering="crispEdges" fill="rgb(82, 74, 74)"  x="20" y="23" width="1" height="1" /><rect shape-rendering="crispEdges" fill="rgb(57, 131, 49)"  x="21" y="6" width="1" height="1" /><rect shape-rendering="crispEdges" fill="rgb(57, 131, 49)"  x="21" y="7" width="1" height="1" /><rect shape-rendering="crispEdges" fill="rgb(139, 180, 115)"  x="21" y="8" width="1" height="1" /><rect shape-rendering="crispEdges" fill="rgb(255, 57, 24)"  x="21" y="9" width="1" height="1" /><rect shape-rendering="crispEdges" fill="rgb(246, 41, 0)"  x="21" y="10" width="1" height="1" /><rect shape-rendering="crispEdges" fill="rgb(246, 41, 0)"  x="21" y="11" width="1" height="1" /><rect shape-rendering="crispEdges" fill="rgb(197, 24, 0)"  x="21" y="12" width="1" height="1" /><rect shape-rendering="crispEdges" fill="rgb(230, 115, 82)"  x="21" y="13" width="1" height="1" /><rect shape-rendering="crispEdges" fill="rgb(238, 180, 172)"  x="21" y="14" width="1" height="1" /><rect shape-rendering="crispEdges" fill="rgb(238, 172, 172)"  x="21" y="15" width="1" height="1" /><rect shape-rendering="crispEdges" fill="rgb(197, 197, 139)"  x="21" y="16" width="1" height="1" /><rect shape-rendering="crispEdges" fill="rgb(148, 222, 131)"  x="21" y="17" width="1" height="1" /><rect shape-rendering="crispEdges" fill="rgb(139, 205, 123)"  x="21" y="18" width="1" height="1" /><rect shape-rendering="crispEdges" fill="rgb(32, 90, 24)"  x="21" y="19" width="1" height="1" /><rect shape-rendering="crispEdges" fill="rgb(82, 74, 74)"  x="21" y="22" width="1" height="1" /><rect shape-rendering="crispEdges" fill="rgb(57, 24, 8)"  x="21" y="23" width="1" height="1" /><rect shape-rendering="crispEdges" fill="rgb(57, 131, 49)"  x="22" y="7" width="1" height="1" /><rect shape-rendering="crispEdges" fill="rgb(32, 90, 24)"  x="22" y="8" width="1" height="1" /><rect shape-rendering="crispEdges" fill="rgb(180, 197, 156)"  x="22" y="9" width="1" height="1" /><rect shape-rendering="crispEdges" fill="rgb(246, 106, 82)"  x="22" y="10" width="1" height="1" /><rect shape-rendering="crispEdges" fill="rgb(246, 41, 0)"  x="22" y="11" width="1" height="1" /><rect shape-rendering="crispEdges" fill="rgb(238, 180, 172)"  x="22" y="12" width="1" height="1" /><rect shape-rendering="crispEdges" fill="rgb(238, 180, 172)"  x="22" y="13" width="1" height="1" /><rect shape-rendering="crispEdges" fill="rgb(230, 164, 148)"  x="22" y="14" width="1" height="1" /><rect shape-rendering="crispEdges" fill="rgb(230, 115, 82)"  x="22" y="15" width="1" height="1" /><rect shape-rendering="crispEdges" fill="rgb(246, 41, 0)"  x="22" y="16" width="1" height="1" /><rect shape-rendering="crispEdges" fill="rgb(32, 90, 24)"  x="22" y="17" width="1" height="1" /><rect shape-rendering="crispEdges" fill="rgb(156, 238, 139)"  x="22" y="18" width="1" height="1" /><rect shape-rendering="crispEdges" fill="rgb(98, 148, 90)"  x="22" y="19" width="1" height="1" /><rect shape-rendering="crispEdges" fill="rgb(57, 131, 49)"  x="22" y="20" width="1" height="1" /><rect shape-rendering="crispEdges" fill="rgb(57, 24, 8)"  x="22" y="22" width="1" height="1" /><rect shape-rendering="crispEdges" fill="rgb(57, 24, 8)"  x="22" y="23" width="1" height="1" /><rect shape-rendering="crispEdges" fill="rgb(57, 131, 49)"  x="23" y="8" width="1" height="1" /><rect shape-rendering="crispEdges" fill="rgb(32, 90, 24)"  x="23" y="9" width="1" height="1" /><rect shape-rendering="crispEdges" fill="rgb(255, 57, 24)"  x="23" y="10" width="1" height="1" /><rect shape-rendering="crispEdges" fill="rgb(255, 57, 24)"  x="23" y="11" width="1" height="1" /><rect shape-rendering="crispEdges" fill="rgb(222, 148, 131)"  x="23" y="12" width="1" height="1" /><rect shape-rendering="crispEdges" fill="rgb(222, 123, 115)"  x="23" y="13" width="1" height="1" /><rect shape-rendering="crispEdges" fill="rgb(255, 57, 24)"  x="23" y="14" width="1" height="1" /><rect shape-rendering="crispEdges" fill="rgb(255, 131, 106)"  x="23" y="15" width="1" height="1" /><rect shape-rendering="crispEdges" fill="rgb(255, 98, 74)"  x="23" y="16" width="1" height="1" /><rect shape-rendering="crispEdges" fill="rgb(246, 41, 0)"  x="23" y="17" width="1" height="1" /><rect shape-rendering="crispEdges" fill="rgb(32, 90, 24)"  x="23" y="18" width="1" height="1" /><rect shape-rendering="crispEdges" fill="rgb(74, 164, 65)"  x="23" y="19" width="1" height="1" /><rect shape-rendering="crispEdges" fill="rgb(139, 205, 131)"  x="23" y="20" width="1" height="1" /><rect shape-rendering="crispEdges" fill="rgb(57, 131, 49)"  x="23" y="21" width="1" height="1" /><rect shape-rendering="crispEdges" fill="rgb(57, 24, 8)"  x="23" y="22" width="1" height="1" /><rect shape-rendering="crispEdges" fill="rgb(172, 139, 139)"  x="24" y="10" width="1" height="1" /><rect shape-rendering="crispEdges" fill="rgb(255, 57, 24)"  x="24" y="11" width="1" height="1" /><rect shape-rendering="crispEdges" fill="rgb(246, 106, 82)"  x="24" y="12" width="1" height="1" /><rect shape-rendering="crispEdges" fill="rgb(246, 156, 148)"  x="24" y="13" width="1" height="1" /><rect shape-rendering="crispEdges" fill="rgb(238, 180, 172)"  x="24" y="14" width="1" height="1" /><rect shape-rendering="crispEdges" fill="rgb(255, 57, 24)"  x="24" y="15" width="1" height="1" /><rect shape-rendering="crispEdges" fill="rgb(255, 98, 74)"  x="24" y="16" width="1" height="1" /><rect shape-rendering="crispEdges" fill="rgb(197, 24, 0)"  x="24" y="17" width="1" height="1" /><rect shape-rendering="crispEdges" fill="rgb(230, 115, 82)"  x="24" y="18" width="1" height="1" /><rect shape-rendering="crispEdges" fill="rgb(213, 156, 115)"  x="24" y="19" width="1" height="1" /><rect shape-rendering="crispEdges" fill="rgb(197, 197, 164)"  x="24" y="20" width="1" height="1" /><rect shape-rendering="crispEdges" fill="rgb(74, 164, 65)"  x="24" y="21" width="1" height="1" /><rect shape-rendering="crispEdges" fill="rgb(57, 131, 49)"  x="24" y="22" width="1" height="1" /><rect shape-rendering="crispEdges" fill="rgb(74, 164, 65)"  x="24" y="24" width="1" height="1" /><rect shape-rendering="crispEdges" fill="rgb(57, 131, 49)"  x="25" y="10" width="1" height="1" /><rect shape-rendering="crispEdges" fill="rgb(197, 189, 139)"  x="25" y="11" width="1" height="1" /><rect shape-rendering="crispEdges" fill="rgb(246, 41, 0)"  x="25" y="12" width="1" height="1" /><rect shape-rendering="crispEdges" fill="rgb(246, 41, 0)"  x="25" y="13" width="1" height="1" /><rect shape-rendering="crispEdges" fill="rgb(230, 139, 123)"  x="25" y="14" width="1" height="1" /><rect shape-rendering="crispEdges" fill="rgb(222, 139, 123)"  x="25" y="15" width="1" height="1" /><rect shape-rendering="crispEdges" fill="rgb(197, 24, 0)"  x="25" y="16" width="1" height="1" /><rect shape-rendering="crispEdges" fill="rgb(230, 172, 164)"  x="25" y="17" width="1" height="1" /><rect shape-rendering="crispEdges" fill="rgb(238, 172, 164)"  x="25" y="18" width="1" height="1" /><rect shape-rendering="crispEdges" fill="rgb(230, 115, 82)"  x="25" y="19" width="1" height="1" /><rect shape-rendering="crispEdges" fill="rgb(246, 82, 49)"  x="25" y="20" width="1" height="1" /><rect shape-rendering="crispEdges" fill="rgb(255, 57, 24)"  x="25" y="21" width="1" height="1" /><rect shape-rendering="crispEdges" fill="rgb(74, 164, 65)"  x="25" y="22" width="1" height="1" /><rect shape-rendering="crispEdges" fill="rgb(74, 164, 65)"  x="25" y="23" width="1" height="1" /><rect shape-rendering="crispEdges" fill="rgb(148, 189, 123)"  x="25" y="24" width="1" height="1" /><rect shape-rendering="crispEdges" fill="rgb(32, 90, 24)"  x="25" y="25" width="1" height="1" /><rect shape-rendering="crispEdges" fill="rgb(57, 131, 49)"  x="26" y="12" width="1" height="1" /><rect shape-rendering="crispEdges" fill="rgb(246, 41, 0)"  x="26" y="13" width="1" height="1" /><rect shape-rendering="crispEdges" fill="rgb(197, 24, 0)"  x="26" y="14" width="1" height="1" /><rect shape-rendering="crispEdges" fill="rgb(246, 82, 49)"  x="26" y="15" width="1" height="1" /><rect shape-rendering="crispEdges" fill="rgb(230, 156, 148)"  x="26" y="16" width="1" height="1" /><rect shape-rendering="crispEdges" fill="rgb(222, 148, 131)"  x="26" y="17" width="1" height="1" /><rect shape-rendering="crispEdges" fill="rgb(255, 57, 24)"  x="26" y="18" width="1" height="1" /><rect shape-rendering="crispEdges" fill="rgb(230, 139, 123)"  x="26" y="19" width="1" height="1" /><rect shape-rendering="crispEdges" fill="rgb(246, 115, 90)"  x="26" y="20" width="1" height="1" /><rect shape-rendering="crispEdges" fill="rgb(197, 24, 0)"  x="26" y="21" width="1" height="1" /><rect shape-rendering="crispEdges" fill="rgb(222, 205, 172)"  x="26" y="22" width="1" height="1" /><rect shape-rendering="crispEdges" fill="rgb(164, 230, 131)"  x="26" y="23" width="1" height="1" /><rect shape-rendering="crispEdges" fill="rgb(32, 90, 24)"  x="26" y="24" width="1" height="1" /><rect shape-rendering="crispEdges" fill="rgb(74, 164, 65)"  x="27" y="12" width="1" height="1" /><rect shape-rendering="crispEdges" fill="rgb(172, 197, 148)"  x="27" y="13" width="1" height="1" /><rect shape-rendering="crispEdges" fill="rgb(238, 189, 180)"  x="27" y="14" width="1" height="1" /><rect shape-rendering="crispEdges" fill="rgb(246, 82, 49)"  x="27" y="15" width="1" height="1" /><rect shape-rendering="crispEdges" fill="rgb(238, 172, 172)"  x="27" y="16" width="1" height="1" /><rect shape-rendering="crispEdges" fill="rgb(246, 148, 131)"  x="27" y="17" width="1" height="1" /><rect shape-rendering="crispEdges" fill="rgb(238, 115, 90)"  x="27" y="18" width="1" height="1" /><rect shape-rendering="crispEdges" fill="rgb(238, 172, 164)"  x="27" y="19" width="1" height="1" /><rect shape-rendering="crispEdges" fill="rgb(246, 139, 123)"  x="27" y="20" width="1" height="1" /><rect shape-rendering="crispEdges" fill="rgb(255, 57, 24)"  x="27" y="21" width="1" height="1" /><rect shape-rendering="crispEdges" fill="rgb(197, 24, 0)"  x="27" y="22" width="1" height="1" /><rect shape-rendering="crispEdges" fill="rgb(148, 222, 131)"  x="27" y="23" width="1" height="1" /><rect shape-rendering="crispEdges" fill="rgb(156, 230, 131)"  x="27" y="24" width="1" height="1" /><rect shape-rendering="crispEdges" fill="rgb(74, 164, 65)"  x="27" y="25" width="1" height="1" /><rect shape-rendering="crispEdges" fill="rgb(32, 90, 24)"  x="27" y="26" width="1" height="1" /><rect shape-rendering="crispEdges" fill="rgb(74, 164, 65)"  x="28" y="12" width="1" height="1" /><rect shape-rendering="crispEdges" fill="rgb(189, 230, 164)"  x="28" y="13" width="1" height="1" /><rect shape-rendering="crispEdges" fill="rgb(230, 189, 164)"  x="28" y="14" width="1" height="1" /><rect shape-rendering="crispEdges" fill="rgb(238, 156, 115)"  x="28" y="15" width="1" height="1" /><rect shape-rendering="crispEdges" fill="rgb(246, 82, 49)"  x="28" y="16" width="1" height="1" /><rect shape-rendering="crispEdges" fill="rgb(238, 139, 115)"  x="28" y="17" width="1" height="1" /><rect shape-rendering="crispEdges" fill="rgb(255, 57, 24)"  x="28" y="18" width="1" height="1" /><rect shape-rendering="crispEdges" fill="rgb(255, 57, 24)"  x="28" y="19" width="1" height="1" /><rect shape-rendering="crispEdges" fill="rgb(197, 24, 0)"  x="28" y="20" width="1" height="1" /><rect shape-rendering="crispEdges" fill="rgb(197, 24, 0)"  x="28" y="21" width="1" height="1" /><rect shape-rendering="crispEdges" fill="rgb(74, 164, 65)"  x="28" y="22" width="1" height="1" /><rect shape-rendering="crispEdges" fill="rgb(148, 222, 131)"  x="28" y="23" width="1" height="1" /><rect shape-rendering="crispEdges" fill="rgb(57, 131, 49)"  x="28" y="24" width="1" height="1" /><rect shape-rendering="crispEdges" fill="rgb(32, 90, 24)"  x="28" y="25" width="1" height="1" /><rect shape-rendering="crispEdges" fill="rgb(74, 164, 65)"  x="29" y="11" width="1" height="1" /><rect shape-rendering="crispEdges" fill="rgb(74, 164, 65)"  x="29" y="12" width="1" height="1" /><rect shape-rendering="crispEdges" fill="rgb(32, 90, 24)"  x="29" y="13" width="1" height="1" /><rect shape-rendering="crispEdges" fill="rgb(32, 90, 24)"  x="29" y="14" width="1" height="1" /><rect shape-rendering="crispEdges" fill="rgb(32, 90, 24)"  x="29" y="15" width="1" height="1" /><rect shape-rendering="crispEdges" fill="rgb(156, 189, 131)"  x="29" y="16" width="1" height="1" /><rect shape-rendering="crispEdges" fill="rgb(172, 205, 139)"  x="29" y="17" width="1" height="1" /><rect shape-rendering="crispEdges" fill="rgb(32, 90, 24)"  x="29" y="18" width="1" height="1" /><rect shape-rendering="crispEdges" fill="rgb(32, 90, 24)"  x="29" y="19" width="1" height="1" /><rect shape-rendering="crispEdges" fill="rgb(57, 131, 49)"  x="29" y="20" width="1" height="1" /><rect shape-rendering="crispEdges" fill="rgb(57, 131, 49)"  x="29" y="21" width="1" height="1" /><rect shape-rendering="crispEdges" fill="rgb(32, 90, 24)"  x="29" y="23" width="1" height="1" /><rect shape-rendering="crispEdges" fill="rgb(32, 90, 24)"  x="29" y="24" width="1" height="1" /><rect shape-rendering="crispEdges" fill="rgb(74, 164, 65)"  x="30" y="16" width="1" height="1" /><rect shape-rendering="crispEdges" fill="rgb(32, 90, 24)"  x="30" y="17" width="1" height="1" /></svg>