<svg xmlns="http://www.w3.org/2000/svg" xmlns:xlink= "http://www.w3.org/1999/xlink" width="32" height="32" viewBox ="0 0 32 32"><rect shape-rendering="crispEdges" fill="rgb(222, 230, 197)"  x="2" y="20" width="1" height="1" /><rect shape-rendering="crispEdges" fill="rgb(65, 24, 16)"  x="2" y="21" width="1" height="1" /><rect shape-rendering="crispEdges" fill="rgb(32, 24, 49)"  x="3" y="19" width="1" height="1" /><rect shape-rendering="crispEdges" fill="rgb(57, 41, 49)"  x="3" y="20" width="1" height="1" /><rect shape-rendering="crispEdges" fill="rgb(65, 24, 16)"  x="3" y="21" width="1" height="1" /><rect shape-rendering="crispEdges" fill="rgb(74, 41, 24)"  x="3" y="22" width="1" height="1" /><rect shape-rendering="crispEdges" fill="rgb(41, 106, 246)"  x="4" y="18" width="1" height="1" /><rect shape-rendering="crispEdges" fill="rgb(74, 49, 49)"  x="4" y="19" width="1" height="1" /><rect shape-rendering="crispEdges" fill="rgb(90, 41, 16)"  x="4" y="20" width="1" height="1" /><rect shape-rendering="crispEdges" fill="rgb(98, 74, 57)"  x="4" y="21" width="1" height="1" /><rect shape-rendering="crispEdges" fill="rgb(8, 41, 115)"  x="4" y="22" width="1" height="1" /><rect shape-rendering="crispEdges" fill="rgb(74, 49, 49)"  x="4" y="23" width="1" height="1" /><rect shape-rendering="crispEdges" fill="rgb(41, 106, 246)"  x="5" y="17" width="1" height="1" /><rect shape-rendering="crispEdges" fill="rgb(0, 41, 189)"  x="5" y="18" width="1" height="1" /><rect shape-rendering="crispEdges" fill="rgb(16, 24, 49)"  x="5" y="19" width="1" height="1" /><rect shape-rendering="crispEdges" fill="rgb(49, 32, 65)"  x="5" y="20" width="1" height="1" /><rect shape-rendering="crispEdges" fill="rgb(98, 131, 189)"  x="5" y="21" width="1" height="1" /><rect shape-rendering="crispEdges" fill="rgb(90, 115, 148)"  x="5" y="22" width="1" height="1" /><rect shape-rendering="crispEdges" fill="rgb(49, 41, 41)"  x="5" y="23" width="1" height="1" /><rect shape-rendering="crispEdges" fill="rgb(41, 106, 246)"  x="6" y="15" width="1" height="1" /><rect shape-rendering="crispEdges" fill="rgb(0, 57, 246)"  x="6" y="16" width="1" height="1" /><rect shape-rendering="crispEdges" fill="rgb(24, 65, 189)"  x="6" y="17" width="1" height="1" /><rect shape-rendering="crispEdges" fill="rgb(8, 32, 90)"  x="6" y="18" width="1" height="1" /><rect shape-rendering="crispEdges" fill="rgb(0, 16, 41)"  x="6" y="19" width="1" height="1" /><rect shape-rendering="crispEdges" fill="rgb(24, 0, 24)"  x="6" y="20" width="1" height="1" /><rect shape-rendering="crispEdges" fill="rgb(180, 180, 164)"  x="6" y="21" width="1" height="1" /><rect shape-rendering="crispEdges" fill="rgb(246, 246, 205)"  x="6" y="22" width="1" height="1" /><rect shape-rendering="crispEdges" fill="rgb(74, 65, 74)"  x="6" y="23" width="1" height="1" /><rect shape-rendering="crispEdges" fill="rgb(74, 98, 172)"  x="7" y="14" width="1" height="1" /><rect shape-rendering="crispEdges" fill="rgb(41, 106, 246)"  x="7" y="15" width="1" height="1" /><rect shape-rendering="crispEdges" fill="rgb(49, 90, 189)"  x="7" y="16" width="1" height="1" /><rect shape-rendering="crispEdges" fill="rgb(16, 49, 131)"  x="7" y="17" width="1" height="1" /><rect shape-rendering="crispEdges" fill="rgb(0, 24, 106)"  x="7" y="18" width="1" height="1" /><rect shape-rendering="crispEdges" fill="rgb(0, 0, 41)"  x="7" y="19" width="1" height="1" /><rect shape-rendering="crispEdges" fill="rgb(90, 57, 57)"  x="7" y="20" width="1" height="1" /><rect shape-rendering="crispEdges" fill="rgb(98, 106, 139)"  x="7" y="21" width="1" height="1" /><rect shape-rendering="crispEdges" fill="rgb(57, 41, 49)"  x="7" y="22" width="1" height="1" /><rect shape-rendering="crispEdges" fill="rgb(0, 41, 131)"  x="7" y="23" width="1" height="1" /><rect shape-rendering="crispEdges" fill="rgb(65, 57, 82)"  x="7" y="24" width="1" height="1" /><rect shape-rendering="crispEdges" fill="rgb(230, 172, 98)"  x="7" y="25" width="1" height="1" /><rect shape-rendering="crispEdges" fill="rgb(222, 180, 131)"  x="7" y="26" width="1" height="1" /><rect shape-rendering="crispEdges" fill="rgb(74, 98, 172)"  x="8" y="9" width="1" height="1" /><rect shape-rendering="crispEdges" fill="rgb(139, 106, 98)"  x="8" y="10" width="1" height="1" /><rect shape-rendering="crispEdges" fill="rgb(74, 82, 82)"  x="8" y="11" width="1" height="1" /><rect shape-rendering="crispEdges" fill="rgb(0, 8, 49)"  x="8" y="12" width="1" height="1" /><rect shape-rendering="crispEdges" fill="rgb(8, 16, 98)"  x="8" y="13" width="1" height="1" /><rect shape-rendering="crispEdges" fill="rgb(8, 41, 106)"  x="8" y="14" width="1" height="1" /><rect shape-rendering="crispEdges" fill="rgb(0, 8, 82)"  x="8" y="15" width="1" height="1" /><rect shape-rendering="crispEdges" fill="rgb(0, 0, 74)"  x="8" y="16" width="1" height="1" /><rect shape-rendering="crispEdges" fill="rgb(0, 0, 98)"  x="8" y="17" width="1" height="1" /><rect shape-rendering="crispEdges" fill="rgb(24, 41, 98)"  x="8" y="18" width="1" height="1" /><rect shape-rendering="crispEdges" fill="rgb(90, 98, 123)"  x="8" y="19" width="1" height="1" /><rect shape-rendering="crispEdges" fill="rgb(41, 106, 246)"  x="8" y="20" width="1" height="1" /><rect shape-rendering="crispEdges" fill="rgb(41, 106, 246)"  x="8" y="21" width="1" height="1" /><rect shape-rendering="crispEdges" fill="rgb(230, 197, 164)"  x="8" y="22" width="1" height="1" /><rect shape-rendering="crispEdges" fill="rgb(8, 41, 123)"  x="8" y="23" width="1" height="1" /><rect shape-rendering="crispEdges" fill="rgb(0, 16, 156)"  x="8" y="24" width="1" height="1" /><rect shape-rendering="crispEdges" fill="rgb(172, 172, 172)"  x="8" y="25" width="1" height="1" /><rect shape-rendering="crispEdges" fill="rgb(205, 205, 189)"  x="8" y="26" width="1" height="1" /><rect shape-rendering="crispEdges" fill="rgb(238, 222, 205)"  x="8" y="27" width="1" height="1" /><rect shape-rendering="crispEdges" fill="rgb(213, 148, 106)"  x="8" y="28" width="1" height="1" /><rect shape-rendering="crispEdges" fill="rgb(197, 189, 189)"  x="9" y="4" width="1" height="1" /><rect shape-rendering="crispEdges" fill="rgb(255, 246, 246)"  x="9" y="5" width="1" height="1" /><rect shape-rendering="crispEdges" fill="rgb(213, 213, 205)"  x="9" y="6" width="1" height="1" /><rect shape-rendering="crispEdges" fill="rgb(238, 213, 189)"  x="9" y="7" width="1" height="1" /><rect shape-rendering="crispEdges" fill="rgb(74, 98, 172)"  x="9" y="8" width="1" height="1" /><rect shape-rendering="crispEdges" fill="rgb(41, 106, 246)"  x="9" y="9" width="1" height="1" /><rect shape-rendering="crispEdges" fill="rgb(65, 49, 90)"  x="9" y="10" width="1" height="1" /><rect shape-rendering="crispEdges" fill="rgb(57, 57, 106)"  x="9" y="11" width="1" height="1" /><rect shape-rendering="crispEdges" fill="rgb(41, 106, 246)"  x="9" y="12" width="1" height="1" /><rect shape-rendering="crispEdges" fill="rgb(41, 49, 131)"  x="9" y="13" width="1" height="1" /><rect shape-rendering="crispEdges" fill="rgb(74, 41, 49)"  x="9" y="14" width="1" height="1" /><rect shape-rendering="crispEdges" fill="rgb(164, 148, 123)"  x="9" y="15" width="1" height="1" /><rect shape-rendering="crispEdges" fill="rgb(148, 148, 148)"  x="9" y="16" width="1" height="1" /><rect shape-rendering="crispEdges" fill="rgb(16, 16, 82)"  x="9" y="17" width="1" height="1" /><rect shape-rendering="crispEdges" fill="rgb(222, 197, 164)"  x="9" y="18" width="1" height="1" /><rect shape-rendering="crispEdges" fill="rgb(246, 230, 189)"  x="9" y="19" width="1" height="1" /><rect shape-rendering="crispEdges" fill="rgb(90, 74, 65)"  x="9" y="20" width="1" height="1" /><rect shape-rendering="crispEdges" fill="rgb(139, 115, 98)"  x="9" y="21" width="1" height="1" /><rect shape-rendering="crispEdges" fill="rgb(222, 230, 172)"  x="9" y="22" width="1" height="1" /><rect shape-rendering="crispEdges" fill="rgb(106, 74, 49)"  x="9" y="23" width="1" height="1" /><rect shape-rendering="crispEdges" fill="rgb(156, 139, 0)"  x="9" y="24" width="1" height="1" /><rect shape-rendering="crispEdges" fill="rgb(197, 172, 98)"  x="9" y="25" width="1" height="1" /><rect shape-rendering="crispEdges" fill="rgb(180, 172, 189)"  x="9" y="26" width="1" height="1" /><rect shape-rendering="crispEdges" fill="rgb(189, 180, 148)"  x="9" y="27" width="1" height="1" /><rect shape-rendering="crispEdges" fill="rgb(106, 49, 0)"  x="9" y="28" width="1" height="1" /><rect shape-rendering="crispEdges" fill="rgb(32, 16, 16)"  x="9" y="29" width="1" height="1" /><rect shape-rendering="crispEdges" fill="rgb(255, 255, 246)"  x="10" y="3" width="1" height="1" /><rect shape-rendering="crispEdges" fill="rgb(238, 238, 238)"  x="10" y="4" width="1" height="1" /><rect shape-rendering="crispEdges" fill="rgb(222, 222, 213)"  x="10" y="5" width="1" height="1" /><rect shape-rendering="crispEdges" fill="rgb(213, 213, 205)"  x="10" y="6" width="1" height="1" /><rect shape-rendering="crispEdges" fill="rgb(230, 222, 213)"  x="10" y="7" width="1" height="1" /><rect shape-rendering="crispEdges" fill="rgb(238, 213, 189)"  x="10" y="8" width="1" height="1" /><rect shape-rendering="crispEdges" fill="rgb(57, 57, 74)"  x="10" y="9" width="1" height="1" /><rect shape-rendering="crispEdges" fill="rgb(139, 131, 156)"  x="10" y="10" width="1" height="1" /><rect shape-rendering="crispEdges" fill="rgb(106, 74, 41)"  x="10" y="11" width="1" height="1" /><rect shape-rendering="crispEdges" fill="rgb(222, 197, 16)"  x="10" y="12" width="1" height="1" /><rect shape-rendering="crispEdges" fill="rgb(197, 131, 0)"  x="10" y="13" width="1" height="1" /><rect shape-rendering="crispEdges" fill="rgb(90, 49, 0)"  x="10" y="14" width="1" height="1" /><rect shape-rendering="crispEdges" fill="rgb(98, 90, 90)"  x="10" y="15" width="1" height="1" /><rect shape-rendering="crispEdges" fill="rgb(180, 156, 90)"  x="10" y="16" width="1" height="1" /><rect shape-rendering="crispEdges" fill="rgb(222, 197, 16)"  x="10" y="17" width="1" height="1" /><rect shape-rendering="crispEdges" fill="rgb(24, 57, 139)"  x="10" y="18" width="1" height="1" /><rect shape-rendering="crispEdges" fill="rgb(139, 156, 115)"  x="10" y="19" width="1" height="1" /><rect shape-rendering="crispEdges" fill="rgb(115, 123, 57)"  x="10" y="20" width="1" height="1" /><rect shape-rendering="crispEdges" fill="rgb(82, 74, 16)"  x="10" y="21" width="1" height="1" /><rect shape-rendering="crispEdges" fill="rgb(90, 90, 0)"  x="10" y="22" width="1" height="1" /><rect shape-rendering="crispEdges" fill="rgb(32, 41, 41)"  x="10" y="23" width="1" height="1" /><rect shape-rendering="crispEdges" fill="rgb(82, 115, 139)"  x="10" y="24" width="1" height="1" /><rect shape-rendering="crispEdges" fill="rgb(115, 98, 65)"  x="10" y="25" width="1" height="1" /><rect shape-rendering="crispEdges" fill="rgb(189, 156, 148)"  x="10" y="26" width="1" height="1" /><rect shape-rendering="crispEdges" fill="rgb(246, 238, 213)"  x="11" y="2" width="1" height="1" /><rect shape-rendering="crispEdges" fill="rgb(197, 189, 180)"  x="11" y="3" width="1" height="1" /><rect shape-rendering="crispEdges" fill="rgb(246, 238, 230)"  x="11" y="4" width="1" height="1" /><rect shape-rendering="crispEdges" fill="rgb(246, 238, 230)"  x="11" y="5" width="1" height="1" /><rect shape-rendering="crispEdges" fill="rgb(238, 238, 230)"  x="11" y="6" width="1" height="1" /><rect shape-rendering="crispEdges" fill="rgb(197, 189, 189)"  x="11" y="7" width="1" height="1" /><rect shape-rendering="crispEdges" fill="rgb(139, 131, 123)"  x="11" y="8" width="1" height="1" /><rect shape-rendering="crispEdges" fill="rgb(156, 172, 164)"  x="11" y="9" width="1" height="1" /><rect shape-rendering="crispEdges" fill="rgb(90, 65, 49)"  x="11" y="10" width="1" height="1" /><rect shape-rendering="crispEdges" fill="rgb(131, 106, 82)"  x="11" y="11" width="1" height="1" /><rect shape-rendering="crispEdges" fill="rgb(57, 82, 123)"  x="11" y="12" width="1" height="1" /><rect shape-rendering="crispEdges" fill="rgb(32, 65, 106)"  x="11" y="13" width="1" height="1" /><rect shape-rendering="crispEdges" fill="rgb(16, 32, 82)"  x="11" y="14" width="1" height="1" /><rect shape-rendering="crispEdges" fill="rgb(0, 24, 74)"  x="11" y="15" width="1" height="1" /><rect shape-rendering="crispEdges" fill="rgb(0, 16, 164)"  x="11" y="16" width="1" height="1" /><rect shape-rendering="crispEdges" fill="rgb(16, 41, 82)"  x="11" y="17" width="1" height="1" /><rect shape-rendering="crispEdges" fill="rgb(0, 16, 65)"  x="11" y="18" width="1" height="1" /><rect shape-rendering="crispEdges" fill="rgb(106, 65, 41)"  x="11" y="19" width="1" height="1" /><rect shape-rendering="crispEdges" fill="rgb(57, 16, 32)"  x="11" y="20" width="1" height="1" /><rect shape-rendering="crispEdges" fill="rgb(131, 90, 90)"  x="11" y="21" width="1" height="1" /><rect shape-rendering="crispEdges" fill="rgb(131, 115, 156)"  x="11" y="22" width="1" height="1" /><rect shape-rendering="crispEdges" fill="rgb(213, 238, 255)"  x="11" y="23" width="1" height="1" /><rect shape-rendering="crispEdges" fill="rgb(246, 238, 222)"  x="12" y="2" width="1" height="1" /><rect shape-rendering="crispEdges" fill="rgb(115, 98, 98)"  x="12" y="3" width="1" height="1" /><rect shape-rendering="crispEdges" fill="rgb(115, 98, 98)"  x="12" y="4" width="1" height="1" /><rect shape-rendering="crispEdges" fill="rgb(246, 246, 238)"  x="12" y="5" width="1" height="1" /><rect shape-rendering="crispEdges" fill="rgb(255, 255, 255)"  x="12" y="6" width="1" height="1" /><rect shape-rendering="crispEdges" fill="rgb(24, 41, 74)"  x="12" y="7" width="1" height="1" /><rect shape-rendering="crispEdges" fill="rgb(90, 90, 82)"  x="12" y="8" width="1" height="1" /><rect shape-rendering="crispEdges" fill="rgb(139, 197, 222)"  x="12" y="9" width="1" height="1" /><rect shape-rendering="crispEdges" fill="rgb(123, 106, 90)"  x="12" y="10" width="1" height="1" /><rect shape-rendering="crispEdges" fill="rgb(189, 180, 172)"  x="12" y="11" width="1" height="1" /><rect shape-rendering="crispEdges" fill="rgb(189, 180, 172)"  x="12" y="12" width="1" height="1" /><rect shape-rendering="crispEdges" fill="rgb(148, 131, 131)"  x="12" y="13" width="1" height="1" /><rect shape-rendering="crispEdges" fill="rgb(139, 74, 49)"  x="12" y="14" width="1" height="1" /><rect shape-rendering="crispEdges" fill="rgb(123, 98, 82)"  x="12" y="15" width="1" height="1" /><rect shape-rendering="crispEdges" fill="rgb(90, 57, 24)"  x="12" y="16" width="1" height="1" /><rect shape-rendering="crispEdges" fill="rgb(123, 82, 57)"  x="12" y="17" width="1" height="1" /><rect shape-rendering="crispEdges" fill="rgb(197, 148, 123)"  x="12" y="18" width="1" height="1" /><rect shape-rendering="crispEdges" fill="rgb(189, 172, 180)"  x="12" y="19" width="1" height="1" /><rect shape-rendering="crispEdges" fill="rgb(255, 246, 246)"  x="12" y="20" width="1" height="1" /><rect shape-rendering="crispEdges" fill="rgb(222, 222, 238)"  x="12" y="21" width="1" height="1" /><rect shape-rendering="crispEdges" fill="rgb(255, 255, 246)"  x="12" y="22" width="1" height="1" /><rect shape-rendering="crispEdges" fill="rgb(230, 246, 246)"  x="12" y="23" width="1" height="1" /><rect shape-rendering="crispEdges" fill="rgb(246, 238, 213)"  x="13" y="2" width="1" height="1" /><rect shape-rendering="crispEdges" fill="rgb(156, 139, 139)"  x="13" y="3" width="1" height="1" /><rect shape-rendering="crispEdges" fill="rgb(156, 139, 139)"  x="13" y="4" width="1" height="1" /><rect shape-rendering="crispEdges" fill="rgb(222, 197, 16)"  x="13" y="5" width="1" height="1" /><rect shape-rendering="crispEdges" fill="rgb(106, 115, 131)"  x="13" y="6" width="1" height="1" /><rect shape-rendering="crispEdges" fill="rgb(156, 164, 156)"  x="13" y="7" width="1" height="1" /><rect shape-rendering="crispEdges" fill="rgb(205, 197, 180)"  x="13" y="8" width="1" height="1" /><rect shape-rendering="crispEdges" fill="rgb(255, 238, 222)"  x="13" y="9" width="1" height="1" /><rect shape-rendering="crispEdges" fill="rgb(213, 222, 197)"  x="13" y="10" width="1" height="1" /><rect shape-rendering="crispEdges" fill="rgb(238, 238, 230)"  x="13" y="11" width="1" height="1" /><rect shape-rendering="crispEdges" fill="rgb(41, 8, 0)"  x="13" y="12" width="1" height="1" /><rect shape-rendering="crispEdges" fill="rgb(98, 82, 82)"  x="13" y="13" width="1" height="1" /><rect shape-rendering="crispEdges" fill="rgb(180, 164, 156)"  x="13" y="14" width="1" height="1" /><rect shape-rendering="crispEdges" fill="rgb(148, 131, 115)"  x="13" y="15" width="1" height="1" /><rect shape-rendering="crispEdges" fill="rgb(164, 148, 156)"  x="13" y="16" width="1" height="1" /><rect shape-rendering="crispEdges" fill="rgb(255, 255, 255)"  x="13" y="17" width="1" height="1" /><rect shape-rendering="crispEdges" fill="rgb(255, 255, 255)"  x="13" y="18" width="1" height="1" /><rect shape-rendering="crispEdges" fill="rgb(180, 172, 205)"  x="13" y="19" width="1" height="1" /><rect shape-rendering="crispEdges" fill="rgb(255, 255, 246)"  x="13" y="20" width="1" height="1" /><rect shape-rendering="crispEdges" fill="rgb(189, 180, 213)"  x="13" y="21" width="1" height="1" /><rect shape-rendering="crispEdges" fill="rgb(246, 246, 230)"  x="13" y="22" width="1" height="1" /><rect shape-rendering="crispEdges" fill="rgb(197, 180, 205)"  x="13" y="23" width="1" height="1" /><rect shape-rendering="crispEdges" fill="rgb(222, 238, 222)"  x="13" y="24" width="1" height="1" /><rect shape-rendering="crispEdges" fill="rgb(246, 238, 213)"  x="14" y="2" width="1" height="1" /><rect shape-rendering="crispEdges" fill="rgb(197, 180, 180)"  x="14" y="3" width="1" height="1" /><rect shape-rendering="crispEdges" fill="rgb(156, 139, 139)"  x="14" y="4" width="1" height="1" /><rect shape-rendering="crispEdges" fill="rgb(131, 115, 106)"  x="14" y="5" width="1" height="1" /><rect shape-rendering="crispEdges" fill="rgb(41, 16, 16)"  x="14" y="6" width="1" height="1" /><rect shape-rendering="crispEdges" fill="rgb(148, 148, 131)"  x="14" y="7" width="1" height="1" /><rect shape-rendering="crispEdges" fill="rgb(197, 189, 172)"  x="14" y="8" width="1" height="1" /><rect shape-rendering="crispEdges" fill="rgb(189, 180, 172)"  x="14" y="9" width="1" height="1" /><rect shape-rendering="crispEdges" fill="rgb(148, 148, 131)"  x="14" y="10" width="1" height="1" /><rect shape-rendering="crispEdges" fill="rgb(197, 189, 180)"  x="14" y="11" width="1" height="1" /><rect shape-rendering="crispEdges" fill="rgb(148, 131, 115)"  x="14" y="12" width="1" height="1" /><rect shape-rendering="crispEdges" fill="rgb(90, 65, 57)"  x="14" y="13" width="1" height="1" /><rect shape-rendering="crispEdges" fill="rgb(164, 139, 131)"  x="14" y="14" width="1" height="1" /><rect shape-rendering="crispEdges" fill="rgb(115, 90, 74)"  x="14" y="15" width="1" height="1" /><rect shape-rendering="crispEdges" fill="rgb(156, 123, 123)"  x="14" y="16" width="1" height="1" /><rect shape-rendering="crispEdges" fill="rgb(205, 180, 180)"  x="14" y="17" width="1" height="1" /><rect shape-rendering="crispEdges" fill="rgb(255, 255, 255)"  x="14" y="18" width="1" height="1" /><rect shape-rendering="crispEdges" fill="rgb(189, 180, 213)"  x="14" y="19" width="1" height="1" /><rect shape-rendering="crispEdges" fill="rgb(255, 255, 255)"  x="14" y="20" width="1" height="1" /><rect shape-rendering="crispEdges" fill="rgb(230, 230, 230)"  x="14" y="21" width="1" height="1" /><rect shape-rendering="crispEdges" fill="rgb(189, 180, 213)"  x="14" y="22" width="1" height="1" /><rect shape-rendering="crispEdges" fill="rgb(246, 246, 230)"  x="14" y="23" width="1" height="1" /><rect shape-rendering="crispEdges" fill="rgb(189, 180, 213)"  x="14" y="24" width="1" height="1" /><rect shape-rendering="crispEdges" fill="rgb(246, 238, 213)"  x="15" y="2" width="1" height="1" /><rect shape-rendering="crispEdges" fill="rgb(197, 180, 180)"  x="15" y="3" width="1" height="1" /><rect shape-rendering="crispEdges" fill="rgb(115, 90, 106)"  x="15" y="4" width="1" height="1" /><rect shape-rendering="crispEdges" fill="rgb(222, 197, 16)"  x="15" y="5" width="1" height="1" /><rect shape-rendering="crispEdges" fill="rgb(131, 123, 74)"  x="15" y="6" width="1" height="1" /><rect shape-rendering="crispEdges" fill="rgb(90, 74, 49)"  x="15" y="7" width="1" height="1" /><rect shape-rendering="crispEdges" fill="rgb(57, 49, 49)"  x="15" y="8" width="1" height="1" /><rect shape-rendering="crispEdges" fill="rgb(139, 197, 222)"  x="15" y="9" width="1" height="1" /><rect shape-rendering="crispEdges" fill="rgb(65, 32, 32)"  x="15" y="10" width="1" height="1" /><rect shape-rendering="crispEdges" fill="rgb(106, 82, 65)"  x="15" y="11" width="1" height="1" /><rect shape-rendering="crispEdges" fill="rgb(98, 115, 172)"  x="15" y="12" width="1" height="1" /><rect shape-rendering="crispEdges" fill="rgb(90, 98, 164)"  x="15" y="13" width="1" height="1" /><rect shape-rendering="crispEdges" fill="rgb(98, 74, 98)"  x="15" y="14" width="1" height="1" /><rect shape-rendering="crispEdges" fill="rgb(115, 106, 123)"  x="15" y="15" width="1" height="1" /><rect shape-rendering="crispEdges" fill="rgb(74, 57, 57)"  x="15" y="16" width="1" height="1" /><rect shape-rendering="crispEdges" fill="rgb(32, 24, 57)"  x="15" y="17" width="1" height="1" /><rect shape-rendering="crispEdges" fill="rgb(139, 106, 82)"  x="15" y="18" width="1" height="1" /><rect shape-rendering="crispEdges" fill="rgb(189, 180, 213)"  x="15" y="19" width="1" height="1" /><rect shape-rendering="crispEdges" fill="rgb(255, 255, 255)"  x="15" y="20" width="1" height="1" /><rect shape-rendering="crispEdges" fill="rgb(189, 180, 213)"  x="15" y="21" width="1" height="1" /><rect shape-rendering="crispEdges" fill="rgb(238, 238, 246)"  x="15" y="22" width="1" height="1" /><rect shape-rendering="crispEdges" fill="rgb(222, 213, 255)"  x="15" y="23" width="1" height="1" /><rect shape-rendering="crispEdges" fill="rgb(189, 180, 213)"  x="15" y="24" width="1" height="1" /><rect shape-rendering="crispEdges" fill="rgb(246, 238, 222)"  x="16" y="2" width="1" height="1" /><rect shape-rendering="crispEdges" fill="rgb(197, 180, 180)"  x="16" y="3" width="1" height="1" /><rect shape-rendering="crispEdges" fill="rgb(106, 82, 90)"  x="16" y="4" width="1" height="1" /><rect shape-rendering="crispEdges" fill="rgb(246, 246, 246)"  x="16" y="5" width="1" height="1" /><rect shape-rendering="crispEdges" fill="rgb(238, 246, 255)"  x="16" y="6" width="1" height="1" /><rect shape-rendering="crispEdges" fill="rgb(189, 180, 189)"  x="16" y="7" width="1" height="1" /><rect shape-rendering="crispEdges" fill="rgb(164, 156, 164)"  x="16" y="8" width="1" height="1" /><rect shape-rendering="crispEdges" fill="rgb(172, 156, 148)"  x="16" y="9" width="1" height="1" /><rect shape-rendering="crispEdges" fill="rgb(172, 164, 164)"  x="16" y="10" width="1" height="1" /><rect shape-rendering="crispEdges" fill="rgb(131, 90, 49)"  x="16" y="11" width="1" height="1" /><rect shape-rendering="crispEdges" fill="rgb(222, 197, 16)"  x="16" y="12" width="1" height="1" /><rect shape-rendering="crispEdges" fill="rgb(123, 106, 65)"  x="16" y="13" width="1" height="1" /><rect shape-rendering="crispEdges" fill="rgb(98, 74, 49)"  x="16" y="14" width="1" height="1" /><rect shape-rendering="crispEdges" fill="rgb(24, 41, 82)"  x="16" y="15" width="1" height="1" /><rect shape-rendering="crispEdges" fill="rgb(0, 16, 164)"  x="16" y="16" width="1" height="1" /><rect shape-rendering="crispEdges" fill="rgb(131, 139, 74)"  x="16" y="17" width="1" height="1" /><rect shape-rendering="crispEdges" fill="rgb(0, 16, 123)"  x="16" y="18" width="1" height="1" /><rect shape-rendering="crispEdges" fill="rgb(90, 82, 65)"  x="16" y="19" width="1" height="1" /><rect shape-rendering="crispEdges" fill="rgb(65, 41, 16)"  x="16" y="20" width="1" height="1" /><rect shape-rendering="crispEdges" fill="rgb(131, 82, 24)"  x="16" y="21" width="1" height="1" /><rect shape-rendering="crispEdges" fill="rgb(82, 49, 32)"  x="16" y="22" width="1" height="1" /><rect shape-rendering="crispEdges" fill="rgb(172, 164, 106)"  x="16" y="23" width="1" height="1" /><rect shape-rendering="crispEdges" fill="rgb(115, 123, 180)"  x="16" y="24" width="1" height="1" /><rect shape-rendering="crispEdges" fill="rgb(115, 74, 65)"  x="16" y="25" width="1" height="1" /><rect shape-rendering="crispEdges" fill="rgb(115, 74, 49)"  x="16" y="26" width="1" height="1" /><rect shape-rendering="crispEdges" fill="rgb(90, 74, 65)"  x="16" y="27" width="1" height="1" /><rect shape-rendering="crispEdges" fill="rgb(197, 180, 180)"  x="17" y="2" width="1" height="1" /><rect shape-rendering="crispEdges" fill="rgb(148, 123, 131)"  x="17" y="3" width="1" height="1" /><rect shape-rendering="crispEdges" fill="rgb(164, 148, 148)"  x="17" y="4" width="1" height="1" /><rect shape-rendering="crispEdges" fill="rgb(255, 255, 255)"  x="17" y="5" width="1" height="1" /><rect shape-rendering="crispEdges" fill="rgb(246, 238, 230)"  x="17" y="6" width="1" height="1" /><rect shape-rendering="crispEdges" fill="rgb(197, 189, 180)"  x="17" y="7" width="1" height="1" /><rect shape-rendering="crispEdges" fill="rgb(255, 246, 238)"  x="17" y="8" width="1" height="1" /><rect shape-rendering="crispEdges" fill="rgb(82, 74, 90)"  x="17" y="9" width="1" height="1" /><rect shape-rendering="crispEdges" fill="rgb(90, 49, 0)"  x="17" y="10" width="1" height="1" /><rect shape-rendering="crispEdges" fill="rgb(0, 16, 82)"  x="17" y="11" width="1" height="1" /><rect shape-rendering="crispEdges" fill="rgb(139, 106, 106)"  x="17" y="12" width="1" height="1" /><rect shape-rendering="crispEdges" fill="rgb(164, 115, 65)"  x="17" y="13" width="1" height="1" /><rect shape-rendering="crispEdges" fill="rgb(131, 74, 32)"  x="17" y="14" width="1" height="1" /><rect shape-rendering="crispEdges" fill="rgb(90, 57, 32)"  x="17" y="15" width="1" height="1" /><rect shape-rendering="crispEdges" fill="rgb(148, 148, 115)"  x="17" y="16" width="1" height="1" /><rect shape-rendering="crispEdges" fill="rgb(180, 123, 0)"  x="17" y="17" width="1" height="1" /><rect shape-rendering="crispEdges" fill="rgb(49, 49, 90)"  x="17" y="18" width="1" height="1" /><rect shape-rendering="crispEdges" fill="rgb(98, 131, 164)"  x="17" y="19" width="1" height="1" /><rect shape-rendering="crispEdges" fill="rgb(172, 172, 98)"  x="17" y="20" width="1" height="1" /><rect shape-rendering="crispEdges" fill="rgb(131, 139, 74)"  x="17" y="21" width="1" height="1" /><rect shape-rendering="crispEdges" fill="rgb(106, 98, 65)"  x="17" y="22" width="1" height="1" /><rect shape-rendering="crispEdges" fill="rgb(98, 82, 41)"  x="17" y="23" width="1" height="1" /><rect shape-rendering="crispEdges" fill="rgb(90, 98, 41)"  x="17" y="24" width="1" height="1" /><rect shape-rendering="crispEdges" fill="rgb(230, 180, 0)"  x="17" y="25" width="1" height="1" /><rect shape-rendering="crispEdges" fill="rgb(148, 123, 156)"  x="17" y="26" width="1" height="1" /><rect shape-rendering="crispEdges" fill="rgb(172, 156, 139)"  x="17" y="27" width="1" height="1" /><rect shape-rendering="crispEdges" fill="rgb(205, 164, 123)"  x="17" y="28" width="1" height="1" /><rect shape-rendering="crispEdges" fill="rgb(197, 180, 180)"  x="18" y="2" width="1" height="1" /><rect shape-rendering="crispEdges" fill="rgb(123, 98, 98)"  x="18" y="3" width="1" height="1" /><rect shape-rendering="crispEdges" fill="rgb(213, 205, 205)"  x="18" y="4" width="1" height="1" /><rect shape-rendering="crispEdges" fill="rgb(255, 255, 255)"  x="18" y="5" width="1" height="1" /><rect shape-rendering="crispEdges" fill="rgb(222, 222, 213)"  x="18" y="6" width="1" height="1" /><rect shape-rendering="crispEdges" fill="rgb(189, 180, 180)"  x="18" y="7" width="1" height="1" /><rect shape-rendering="crispEdges" fill="rgb(238, 213, 189)"  x="18" y="8" width="1" height="1" /><rect shape-rendering="crispEdges" fill="rgb(57, 74, 139)"  x="18" y="9" width="1" height="1" /><rect shape-rendering="crispEdges" fill="rgb(41, 106, 246)"  x="18" y="10" width="1" height="1" /><rect shape-rendering="crispEdges" fill="rgb(123, 115, 148)"  x="18" y="11" width="1" height="1" /><rect shape-rendering="crispEdges" fill="rgb(90, 74, 98)"  x="18" y="12" width="1" height="1" /><rect shape-rendering="crispEdges" fill="rgb(41, 106, 246)"  x="18" y="13" width="1" height="1" /><rect shape-rendering="crispEdges" fill="rgb(0, 24, 131)"  x="18" y="14" width="1" height="1" /><rect shape-rendering="crispEdges" fill="rgb(172, 148, 115)"  x="18" y="15" width="1" height="1" /><rect shape-rendering="crispEdges" fill="rgb(255, 246, 213)"  x="18" y="16" width="1" height="1" /><rect shape-rendering="crispEdges" fill="rgb(49, 41, 98)"  x="18" y="17" width="1" height="1" /><rect shape-rendering="crispEdges" fill="rgb(131, 106, 106)"  x="18" y="18" width="1" height="1" /><rect shape-rendering="crispEdges" fill="rgb(255, 238, 205)"  x="18" y="19" width="1" height="1" /><rect shape-rendering="crispEdges" fill="rgb(148, 131, 115)"  x="18" y="20" width="1" height="1" /><rect shape-rendering="crispEdges" fill="rgb(32, 0, 65)"  x="18" y="21" width="1" height="1" /><rect shape-rendering="crispEdges" fill="rgb(213, 197, 172)"  x="18" y="22" width="1" height="1" /><rect shape-rendering="crispEdges" fill="rgb(205, 197, 189)"  x="18" y="23" width="1" height="1" /><rect shape-rendering="crispEdges" fill="rgb(74, 32, 8)"  x="18" y="24" width="1" height="1" /><rect shape-rendering="crispEdges" fill="rgb(131, 123, 131)"  x="18" y="25" width="1" height="1" /><rect shape-rendering="crispEdges" fill="rgb(180, 189, 197)"  x="18" y="26" width="1" height="1" /><rect shape-rendering="crispEdges" fill="rgb(213, 222, 213)"  x="18" y="27" width="1" height="1" /><rect shape-rendering="crispEdges" fill="rgb(172, 164, 148)"  x="18" y="28" width="1" height="1" /><rect shape-rendering="crispEdges" fill="rgb(222, 164, 123)"  x="18" y="29" width="1" height="1" /><rect shape-rendering="crispEdges" fill="rgb(65, 41, 49)"  x="18" y="30" width="1" height="1" /><rect shape-rendering="crispEdges" fill="rgb(246, 238, 213)"  x="19" y="2" width="1" height="1" /><rect shape-rendering="crispEdges" fill="rgb(131, 106, 98)"  x="19" y="3" width="1" height="1" /><rect shape-rendering="crispEdges" fill="rgb(246, 246, 246)"  x="19" y="4" width="1" height="1" /><rect shape-rendering="crispEdges" fill="rgb(246, 246, 238)"  x="19" y="5" width="1" height="1" /><rect shape-rendering="crispEdges" fill="rgb(197, 180, 180)"  x="19" y="6" width="1" height="1" /><rect shape-rendering="crispEdges" fill="rgb(189, 172, 172)"  x="19" y="7" width="1" height="1" /><rect shape-rendering="crispEdges" fill="rgb(246, 230, 205)"  x="19" y="8" width="1" height="1" /><rect shape-rendering="crispEdges" fill="rgb(32, 32, 65)"  x="19" y="9" width="1" height="1" /><rect shape-rendering="crispEdges" fill="rgb(139, 98, 90)"  x="19" y="10" width="1" height="1" /><rect shape-rendering="crispEdges" fill="rgb(32, 41, 24)"  x="19" y="11" width="1" height="1" /><rect shape-rendering="crispEdges" fill="rgb(0, 16, 74)"  x="19" y="12" width="1" height="1" /><rect shape-rendering="crispEdges" fill="rgb(0, 24, 65)"  x="19" y="13" width="1" height="1" /><rect shape-rendering="crispEdges" fill="rgb(16, 24, 49)"  x="19" y="14" width="1" height="1" /><rect shape-rendering="crispEdges" fill="rgb(16, 57, 156)"  x="19" y="15" width="1" height="1" /><rect shape-rendering="crispEdges" fill="rgb(131, 123, 106)"  x="19" y="16" width="1" height="1" /><rect shape-rendering="crispEdges" fill="rgb(0, 16, 123)"  x="19" y="17" width="1" height="1" /><rect shape-rendering="crispEdges" fill="rgb(41, 106, 246)"  x="19" y="18" width="1" height="1" /><rect shape-rendering="crispEdges" fill="rgb(189, 164, 131)"  x="19" y="19" width="1" height="1" /><rect shape-rendering="crispEdges" fill="rgb(41, 106, 246)"  x="19" y="20" width="1" height="1" /><rect shape-rendering="crispEdges" fill="rgb(41, 106, 246)"  x="19" y="21" width="1" height="1" /><rect shape-rendering="crispEdges" fill="rgb(156, 164, 172)"  x="19" y="22" width="1" height="1" /><rect shape-rendering="crispEdges" fill="rgb(180, 164, 139)"  x="19" y="23" width="1" height="1" /><rect shape-rendering="crispEdges" fill="rgb(0, 16, 205)"  x="19" y="24" width="1" height="1" /><rect shape-rendering="crispEdges" fill="rgb(57, 49, 139)"  x="19" y="25" width="1" height="1" /><rect shape-rendering="crispEdges" fill="rgb(197, 172, 123)"  x="19" y="26" width="1" height="1" /><rect shape-rendering="crispEdges" fill="rgb(148, 115, 90)"  x="19" y="27" width="1" height="1" /><rect shape-rendering="crispEdges" fill="rgb(131, 65, 57)"  x="19" y="28" width="1" height="1" /><rect shape-rendering="crispEdges" fill="rgb(57, 24, 8)"  x="19" y="29" width="1" height="1" /><rect shape-rendering="crispEdges" fill="rgb(197, 180, 180)"  x="20" y="2" width="1" height="1" /><rect shape-rendering="crispEdges" fill="rgb(197, 180, 180)"  x="20" y="3" width="1" height="1" /><rect shape-rendering="crispEdges" fill="rgb(246, 238, 238)"  x="20" y="4" width="1" height="1" /><rect shape-rendering="crispEdges" fill="rgb(238, 230, 222)"  x="20" y="5" width="1" height="1" /><rect shape-rendering="crispEdges" fill="rgb(189, 180, 172)"  x="20" y="6" width="1" height="1" /><rect shape-rendering="crispEdges" fill="rgb(246, 230, 213)"  x="20" y="7" width="1" height="1" /><rect shape-rendering="crispEdges" fill="rgb(90, 115, 148)"  x="20" y="8" width="1" height="1" /><rect shape-rendering="crispEdges" fill="rgb(32, 32, 65)"  x="20" y="9" width="1" height="1" /><rect shape-rendering="crispEdges" fill="rgb(65, 49, 32)"  x="20" y="10" width="1" height="1" /><rect shape-rendering="crispEdges" fill="rgb(8, 24, 74)"  x="20" y="11" width="1" height="1" /><rect shape-rendering="crispEdges" fill="rgb(115, 90, 65)"  x="20" y="12" width="1" height="1" /><rect shape-rendering="crispEdges" fill="rgb(123, 98, 90)"  x="20" y="13" width="1" height="1" /><rect shape-rendering="crispEdges" fill="rgb(74, 74, 57)"  x="20" y="14" width="1" height="1" /><rect shape-rendering="crispEdges" fill="rgb(32, 49, 98)"  x="20" y="15" width="1" height="1" /><rect shape-rendering="crispEdges" fill="rgb(0, 16, 98)"  x="20" y="16" width="1" height="1" /><rect shape-rendering="crispEdges" fill="rgb(0, 24, 98)"  x="20" y="17" width="1" height="1" /><rect shape-rendering="crispEdges" fill="rgb(0, 24, 115)"  x="20" y="18" width="1" height="1" /><rect shape-rendering="crispEdges" fill="rgb(0, 0, 131)"  x="20" y="19" width="1" height="1" /><rect shape-rendering="crispEdges" fill="rgb(0, 16, 164)"  x="20" y="20" width="1" height="1" /><rect shape-rendering="crispEdges" fill="rgb(0, 24, 98)"  x="20" y="21" width="1" height="1" /><rect shape-rendering="crispEdges" fill="rgb(0, 0, 65)"  x="20" y="22" width="1" height="1" /><rect shape-rendering="crispEdges" fill="rgb(65, 41, 41)"  x="20" y="23" width="1" height="1" /><rect shape-rendering="crispEdges" fill="rgb(0, 24, 115)"  x="20" y="24" width="1" height="1" /><rect shape-rendering="crispEdges" fill="rgb(74, 32, 0)"  x="20" y="25" width="1" height="1" /><rect shape-rendering="crispEdges" fill="rgb(230, 189, 164)"  x="20" y="26" width="1" height="1" /><rect shape-rendering="crispEdges" fill="rgb(205, 156, 123)"  x="20" y="27" width="1" height="1" /><rect shape-rendering="crispEdges" fill="rgb(197, 180, 180)"  x="21" y="3" width="1" height="1" /><rect shape-rendering="crispEdges" fill="rgb(197, 189, 180)"  x="21" y="4" width="1" height="1" /><rect shape-rendering="crispEdges" fill="rgb(189, 180, 172)"  x="21" y="5" width="1" height="1" /><rect shape-rendering="crispEdges" fill="rgb(180, 172, 164)"  x="21" y="6" width="1" height="1" /><rect shape-rendering="crispEdges" fill="rgb(255, 230, 205)"  x="21" y="7" width="1" height="1" /><rect shape-rendering="crispEdges" fill="rgb(0, 16, 82)"  x="21" y="8" width="1" height="1" /><rect shape-rendering="crispEdges" fill="rgb(0, 16, 115)"  x="21" y="9" width="1" height="1" /><rect shape-rendering="crispEdges" fill="rgb(98, 65, 49)"  x="21" y="10" width="1" height="1" /><rect shape-rendering="crispEdges" fill="rgb(24, 41, 90)"  x="21" y="11" width="1" height="1" /><rect shape-rendering="crispEdges" fill="rgb(16, 32, 74)"  x="21" y="12" width="1" height="1" /><rect shape-rendering="crispEdges" fill="rgb(74, 74, 98)"  x="21" y="13" width="1" height="1" /><rect shape-rendering="crispEdges" fill="rgb(164, 106, 74)"  x="21" y="14" width="1" height="1" /><rect shape-rendering="crispEdges" fill="rgb(230, 180, 0)"  x="21" y="15" width="1" height="1" /><rect shape-rendering="crispEdges" fill="rgb(82, 74, 115)"  x="21" y="16" width="1" height="1" /><rect shape-rendering="crispEdges" fill="rgb(172, 156, 65)"  x="21" y="17" width="1" height="1" /><rect shape-rendering="crispEdges" fill="rgb(106, 90, 65)"  x="21" y="18" width="1" height="1" /><rect shape-rendering="crispEdges" fill="rgb(65, 74, 98)"  x="21" y="19" width="1" height="1" /><rect shape-rendering="crispEdges" fill="rgb(57, 82, 123)"  x="21" y="20" width="1" height="1" /><rect shape-rendering="crispEdges" fill="rgb(0, 24, 189)"  x="21" y="21" width="1" height="1" /><rect shape-rendering="crispEdges" fill="rgb(49, 49, 98)"  x="21" y="22" width="1" height="1" /><rect shape-rendering="crispEdges" fill="rgb(106, 74, 74)"  x="21" y="23" width="1" height="1" /><rect shape-rendering="crispEdges" fill="rgb(57, 57, 106)"  x="21" y="24" width="1" height="1" /><rect shape-rendering="crispEdges" fill="rgb(172, 156, 148)"  x="22" y="4" width="1" height="1" /><rect shape-rendering="crispEdges" fill="rgb(164, 148, 148)"  x="22" y="5" width="1" height="1" /><rect shape-rendering="crispEdges" fill="rgb(230, 213, 189)"  x="22" y="6" width="1" height="1" /><rect shape-rendering="crispEdges" fill="rgb(8, 24, 98)"  x="22" y="7" width="1" height="1" /><rect shape-rendering="crispEdges" fill="rgb(41, 57, 98)"  x="22" y="8" width="1" height="1" /><rect shape-rendering="crispEdges" fill="rgb(164, 164, 139)"  x="22" y="9" width="1" height="1" /><rect shape-rendering="crispEdges" fill="rgb(0, 0, 82)"  x="22" y="10" width="1" height="1" /><rect shape-rendering="crispEdges" fill="rgb(41, 57, 123)"  x="22" y="11" width="1" height="1" /><rect shape-rendering="crispEdges" fill="rgb(115, 82, 74)"  x="22" y="12" width="1" height="1" /><rect shape-rendering="crispEdges" fill="rgb(41, 106, 246)"  x="22" y="13" width="1" height="1" /><rect shape-rendering="crispEdges" fill="rgb(0, 49, 115)"  x="22" y="14" width="1" height="1" /><rect shape-rendering="crispEdges" fill="rgb(238, 189, 0)"  x="22" y="17" width="1" height="1" /><rect shape-rendering="crispEdges" fill="rgb(213, 164, 49)"  x="22" y="18" width="1" height="1" /><rect shape-rendering="crispEdges" fill="rgb(123, 98, 74)"  x="22" y="19" width="1" height="1" /><rect shape-rendering="crispEdges" fill="rgb(238, 189, 8)"  x="22" y="20" width="1" height="1" /><rect shape-rendering="crispEdges" fill="rgb(255, 180, 0)"  x="22" y="21" width="1" height="1" /><rect shape-rendering="crispEdges" fill="rgb(148, 98, 65)"  x="22" y="22" width="1" height="1" /><rect shape-rendering="crispEdges" fill="rgb(16, 41, 131)"  x="22" y="23" width="1" height="1" /><rect shape-rendering="crispEdges" fill="rgb(82, 65, 82)"  x="22" y="24" width="1" height="1" /><rect shape-rendering="crispEdges" fill="rgb(148, 139, 148)"  x="23" y="9" width="1" height="1" /><rect shape-rendering="crispEdges" fill="rgb(98, 106, 115)"  x="23" y="10" width="1" height="1" /><rect shape-rendering="crispEdges" fill="rgb(0, 0, 65)"  x="23" y="11" width="1" height="1" /><rect shape-rendering="crispEdges" fill="rgb(90, 57, 49)"  x="23" y="12" width="1" height="1" /><rect shape-rendering="crispEdges" fill="rgb(32, 41, 82)"  x="23" y="13" width="1" height="1" /><rect shape-rendering="crispEdges" fill="rgb(41, 106, 246)"  x="23" y="14" width="1" height="1" /><rect shape-rendering="crispEdges" fill="rgb(41, 106, 246)"  x="23" y="15" width="1" height="1" /><rect shape-rendering="crispEdges" fill="rgb(0, 16, 82)"  x="23" y="16" width="1" height="1" /><rect shape-rendering="crispEdges" fill="rgb(57, 65, 106)"  x="23" y="20" width="1" height="1" /><rect shape-rendering="crispEdges" fill="rgb(246, 164, 0)"  x="23" y="21" width="1" height="1" /><rect shape-rendering="crispEdges" fill="rgb(0, 8, 82)"  x="23" y="22" width="1" height="1" /><rect shape-rendering="crispEdges" fill="rgb(8, 41, 131)"  x="23" y="23" width="1" height="1" /><rect shape-rendering="crispEdges" fill="rgb(148, 90, 57)"  x="23" y="24" width="1" height="1" /><rect shape-rendering="crispEdges" fill="rgb(41, 32, 65)"  x="24" y="12" width="1" height="1" /><rect shape-rendering="crispEdges" fill="rgb(139, 106, 57)"  x="24" y="13" width="1" height="1" /><rect shape-rendering="crispEdges" fill="rgb(82, 74, 74)"  x="24" y="14" width="1" height="1" /><rect shape-rendering="crispEdges" fill="rgb(0, 16, 82)"  x="24" y="15" width="1" height="1" /><rect shape-rendering="crispEdges" fill="rgb(41, 106, 246)"  x="24" y="16" width="1" height="1" /><rect shape-rendering="crispEdges" fill="rgb(41, 106, 246)"  x="24" y="17" width="1" height="1" /><rect shape-rendering="crispEdges" fill="rgb(0, 16, 98)"  x="24" y="18" width="1" height="1" /><rect shape-rendering="crispEdges" fill="rgb(0, 8, 98)"  x="24" y="19" width="1" height="1" /><rect shape-rendering="crispEdges" fill="rgb(16, 24, 57)"  x="24" y="20" width="1" height="1" /><rect shape-rendering="crispEdges" fill="rgb(115, 106, 115)"  x="24" y="21" width="1" height="1" /><rect shape-rendering="crispEdges" fill="rgb(131, 156, 180)"  x="24" y="22" width="1" height="1" /><rect shape-rendering="crispEdges" fill="rgb(131, 115, 123)"  x="24" y="23" width="1" height="1" /><rect shape-rendering="crispEdges" fill="rgb(123, 82, 57)"  x="24" y="24" width="1" height="1" /><rect shape-rendering="crispEdges" fill="rgb(123, 123, 98)"  x="25" y="14" width="1" height="1" /><rect shape-rendering="crispEdges" fill="rgb(213, 172, 8)"  x="25" y="15" width="1" height="1" /><rect shape-rendering="crispEdges" fill="rgb(49, 49, 74)"  x="25" y="16" width="1" height="1" /><rect shape-rendering="crispEdges" fill="rgb(0, 16, 148)"  x="25" y="17" width="1" height="1" /><rect shape-rendering="crispEdges" fill="rgb(41, 106, 246)"  x="25" y="18" width="1" height="1" /><rect shape-rendering="crispEdges" fill="rgb(0, 8, 65)"  x="25" y="19" width="1" height="1" /><rect shape-rendering="crispEdges" fill="rgb(74, 41, 24)"  x="25" y="20" width="1" height="1" /><rect shape-rendering="crispEdges" fill="rgb(106, 74, 65)"  x="25" y="21" width="1" height="1" /><rect shape-rendering="crispEdges" fill="rgb(148, 139, 131)"  x="25" y="22" width="1" height="1" /><rect shape-rendering="crispEdges" fill="rgb(139, 156, 172)"  x="25" y="23" width="1" height="1" /><rect shape-rendering="crispEdges" fill="rgb(49, 41, 41)"  x="25" y="24" width="1" height="1" /><rect shape-rendering="crispEdges" fill="rgb(123, 98, 82)"  x="26" y="16" width="1" height="1" /><rect shape-rendering="crispEdges" fill="rgb(106, 74, 16)"  x="26" y="17" width="1" height="1" /><rect shape-rendering="crispEdges" fill="rgb(0, 16, 148)"  x="26" y="18" width="1" height="1" /><rect shape-rendering="crispEdges" fill="rgb(0, 32, 115)"  x="26" y="19" width="1" height="1" /><rect shape-rendering="crispEdges" fill="rgb(106, 65, 41)"  x="26" y="20" width="1" height="1" /><rect shape-rendering="crispEdges" fill="rgb(82, 41, 24)"  x="26" y="21" width="1" height="1" /><rect shape-rendering="crispEdges" fill="rgb(90, 32, 0)"  x="26" y="22" width="1" height="1" /><rect shape-rendering="crispEdges" fill="rgb(74, 32, 24)"  x="26" y="23" width="1" height="1" /><rect shape-rendering="crispEdges" fill="rgb(57, 41, 49)"  x="26" y="24" width="1" height="1" /><rect shape-rendering="crispEdges" fill="rgb(82, 82, 123)"  x="27" y="17" width="1" height="1" /><rect shape-rendering="crispEdges" fill="rgb(238, 180, 0)"  x="27" y="18" width="1" height="1" /><rect shape-rendering="crispEdges" fill="rgb(41, 32, 57)"  x="27" y="19" width="1" height="1" /><rect shape-rendering="crispEdges" fill="rgb(8, 41, 115)"  x="27" y="20" width="1" height="1" /><rect shape-rendering="crispEdges" fill="rgb(41, 74, 123)"  x="27" y="21" width="1" height="1" /><rect shape-rendering="crispEdges" fill="rgb(49, 57, 106)"  x="27" y="22" width="1" height="1" /><rect shape-rendering="crispEdges" fill="rgb(82, 41, 24)"  x="27" y="23" width="1" height="1" /><rect shape-rendering="crispEdges" fill="rgb(49, 24, 32)"  x="28" y="19" width="1" height="1" /><rect shape-rendering="crispEdges" fill="rgb(156, 148, 156)"  x="28" y="20" width="1" height="1" /><rect shape-rendering="crispEdges" fill="rgb(180, 189, 172)"  x="28" y="21" width="1" height="1" /><rect shape-rendering="crispEdges" fill="rgb(8, 49, 115)"  x="28" y="22" width="1" height="1" /><rect shape-rendering="crispEdges" fill="rgb(82, 41, 24)"  x="28" y="23" width="1" height="1" /><rect shape-rendering="crispEdges" fill="rgb(156, 180, 180)"  x="29" y="20" width="1" height="1" /><rect shape-rendering="crispEdges" fill="rgb(230, 222, 197)"  x="29" y="21" width="1" height="1" /><rect shape-rendering="crispEdges" fill="rgb(82, 41, 24)"  x="29" y="22" width="1" height="1" /><rect shape-rendering="crispEdges" fill="rgb(156, 180, 180)"  x="30" y="21" width="1" height="1" /><rect shape-rendering="crispEdges" fill="rgb(82, 41, 24)"  x="30" y="22" width="1" height="1" /></svg>