<svg xmlns="http://www.w3.org/2000/svg" xmlns:xlink= "http://www.w3.org/1999/xlink" width="32" height="32" viewBox ="0 0 32 32"><rect shape-rendering="crispEdges" fill="rgb(230, 238, 246)"  x="5" y="8" width="1" height="1" /><rect shape-rendering="crispEdges" fill="rgb(82, 90, 115)"  x="5" y="9" width="1" height="1" /><rect shape-rendering="crispEdges" fill="rgb(90, 98, 98)"  x="5" y="10" width="1" height="1" /><rect shape-rendering="crispEdges" fill="rgb(98, 98, 98)"  x="5" y="12" width="1" height="1" /><rect shape-rendering="crispEdges" fill="rgb(131, 148, 172)"  x="5" y="13" width="1" height="1" /><rect shape-rendering="crispEdges" fill="rgb(115, 115, 139)"  x="5" y="27" width="1" height="1" /><rect shape-rendering="crispEdges" fill="rgb(148, 148, 156)"  x="5" y="28" width="1" height="1" /><rect shape-rendering="crispEdges" fill="rgb(213, 213, 213)"  x="5" y="29" width="1" height="1" /><rect shape-rendering="crispEdges" fill="rgb(197, 205, 213)"  x="6" y="6" width="1" height="1" /><rect shape-rendering="crispEdges" fill="rgb(189, 197, 213)"  x="6" y="7" width="1" height="1" /><rect shape-rendering="crispEdges" fill="rgb(156, 164, 172)"  x="6" y="8" width="1" height="1" /><rect shape-rendering="crispEdges" fill="rgb(156, 156, 172)"  x="6" y="9" width="1" height="1" /><rect shape-rendering="crispEdges" fill="rgb(65, 74, 90)"  x="6" y="10" width="1" height="1" /><rect shape-rendering="crispEdges" fill="rgb(41, 49, 57)"  x="6" y="11" width="1" height="1" /><rect shape-rendering="crispEdges" fill="rgb(131, 148, 172)"  x="6" y="12" width="1" height="1" /><rect shape-rendering="crispEdges" fill="rgb(205, 213, 222)"  x="6" y="13" width="1" height="1" /><rect shape-rendering="crispEdges" fill="rgb(90, 98, 115)"  x="6" y="14" width="1" height="1" /><rect shape-rendering="crispEdges" fill="rgb(41, 49, 65)"  x="6" y="24" width="1" height="1" /><rect shape-rendering="crispEdges" fill="rgb(98, 106, 115)"  x="6" y="25" width="1" height="1" /><rect shape-rendering="crispEdges" fill="rgb(123, 131, 156)"  x="6" y="26" width="1" height="1" /><rect shape-rendering="crispEdges" fill="rgb(32, 32, 57)"  x="6" y="27" width="1" height="1" /><rect shape-rendering="crispEdges" fill="rgb(123, 123, 139)"  x="6" y="28" width="1" height="1" /><rect shape-rendering="crispEdges" fill="rgb(189, 189, 189)"  x="6" y="29" width="1" height="1" /><rect shape-rendering="crispEdges" fill="rgb(115, 106, 123)"  x="7" y="4" width="1" height="1" /><rect shape-rendering="crispEdges" fill="rgb(180, 205, 222)"  x="7" y="5" width="1" height="1" /><rect shape-rendering="crispEdges" fill="rgb(164, 172, 189)"  x="7" y="6" width="1" height="1" /><rect shape-rendering="crispEdges" fill="rgb(164, 180, 197)"  x="7" y="7" width="1" height="1" /><rect shape-rendering="crispEdges" fill="rgb(230, 230, 222)"  x="7" y="8" width="1" height="1" /><rect shape-rendering="crispEdges" fill="rgb(115, 115, 139)"  x="7" y="9" width="1" height="1" /><rect shape-rendering="crispEdges" fill="rgb(90, 98, 115)"  x="7" y="10" width="1" height="1" /><rect shape-rendering="crispEdges" fill="rgb(41, 41, 57)"  x="7" y="11" width="1" height="1" /><rect shape-rendering="crispEdges" fill="rgb(205, 213, 222)"  x="7" y="12" width="1" height="1" /><rect shape-rendering="crispEdges" fill="rgb(115, 123, 131)"  x="7" y="13" width="1" height="1" /><rect shape-rendering="crispEdges" fill="rgb(131, 139, 148)"  x="7" y="14" width="1" height="1" /><rect shape-rendering="crispEdges" fill="rgb(90, 98, 115)"  x="7" y="15" width="1" height="1" /><rect shape-rendering="crispEdges" fill="rgb(41, 49, 65)"  x="7" y="23" width="1" height="1" /><rect shape-rendering="crispEdges" fill="rgb(0, 0, 0)"  x="7" y="24" width="1" height="1" /><rect shape-rendering="crispEdges" fill="rgb(139, 139, 164)"  x="7" y="25" width="1" height="1" /><rect shape-rendering="crispEdges" fill="rgb(156, 156, 189)"  x="7" y="26" width="1" height="1" /><rect shape-rendering="crispEdges" fill="rgb(8, 8, 24)"  x="7" y="27" width="1" height="1" /><rect shape-rendering="crispEdges" fill="rgb(123, 131, 139)"  x="7" y="28" width="1" height="1" /><rect shape-rendering="crispEdges" fill="rgb(189, 189, 189)"  x="7" y="29" width="1" height="1" /><rect shape-rendering="crispEdges" fill="rgb(148, 172, 180)"  x="8" y="4" width="1" height="1" /><rect shape-rendering="crispEdges" fill="rgb(255, 246, 238)"  x="8" y="5" width="1" height="1" /><rect shape-rendering="crispEdges" fill="rgb(180, 189, 197)"  x="8" y="6" width="1" height="1" /><rect shape-rendering="crispEdges" fill="rgb(230, 230, 222)"  x="8" y="7" width="1" height="1" /><rect shape-rendering="crispEdges" fill="rgb(189, 180, 180)"  x="8" y="8" width="1" height="1" /><rect shape-rendering="crispEdges" fill="rgb(205, 213, 222)"  x="8" y="9" width="1" height="1" /><rect shape-rendering="crispEdges" fill="rgb(106, 106, 115)"  x="8" y="10" width="1" height="1" /><rect shape-rendering="crispEdges" fill="rgb(49, 41, 57)"  x="8" y="11" width="1" height="1" /><rect shape-rendering="crispEdges" fill="rgb(90, 90, 106)"  x="8" y="12" width="1" height="1" /><rect shape-rendering="crispEdges" fill="rgb(164, 180, 197)"  x="8" y="13" width="1" height="1" /><rect shape-rendering="crispEdges" fill="rgb(90, 90, 106)"  x="8" y="14" width="1" height="1" /><rect shape-rendering="crispEdges" fill="rgb(90, 98, 115)"  x="8" y="15" width="1" height="1" /><rect shape-rendering="crispEdges" fill="rgb(41, 49, 65)"  x="8" y="22" width="1" height="1" /><rect shape-rendering="crispEdges" fill="rgb(41, 49, 65)"  x="8" y="23" width="1" height="1" /><rect shape-rendering="crispEdges" fill="rgb(0, 0, 16)"  x="8" y="24" width="1" height="1" /><rect shape-rendering="crispEdges" fill="rgb(16, 16, 32)"  x="8" y="25" width="1" height="1" /><rect shape-rendering="crispEdges" fill="rgb(32, 32, 49)"  x="8" y="26" width="1" height="1" /><rect shape-rendering="crispEdges" fill="rgb(8, 8, 16)"  x="8" y="27" width="1" height="1" /><rect shape-rendering="crispEdges" fill="rgb(115, 115, 131)"  x="8" y="28" width="1" height="1" /><rect shape-rendering="crispEdges" fill="rgb(189, 189, 197)"  x="8" y="29" width="1" height="1" /><rect shape-rendering="crispEdges" fill="rgb(123, 123, 139)"  x="8" y="30" width="1" height="1" /><rect shape-rendering="crispEdges" fill="rgb(131, 148, 156)"  x="9" y="3" width="1" height="1" /><rect shape-rendering="crispEdges" fill="rgb(255, 246, 238)"  x="9" y="4" width="1" height="1" /><rect shape-rendering="crispEdges" fill="rgb(255, 246, 238)"  x="9" y="5" width="1" height="1" /><rect shape-rendering="crispEdges" fill="rgb(230, 230, 222)"  x="9" y="6" width="1" height="1" /><rect shape-rendering="crispEdges" fill="rgb(189, 189, 197)"  x="9" y="7" width="1" height="1" /><rect shape-rendering="crispEdges" fill="rgb(205, 213, 222)"  x="9" y="8" width="1" height="1" /><rect shape-rendering="crispEdges" fill="rgb(172, 172, 172)"  x="9" y="9" width="1" height="1" /><rect shape-rendering="crispEdges" fill="rgb(164, 172, 180)"  x="9" y="10" width="1" height="1" /><rect shape-rendering="crispEdges" fill="rgb(57, 57, 65)"  x="9" y="11" width="1" height="1" /><rect shape-rendering="crispEdges" fill="rgb(156, 172, 213)"  x="9" y="12" width="1" height="1" /><rect shape-rendering="crispEdges" fill="rgb(90, 90, 106)"  x="9" y="13" width="1" height="1" /><rect shape-rendering="crispEdges" fill="rgb(131, 148, 172)"  x="9" y="14" width="1" height="1" /><rect shape-rendering="crispEdges" fill="rgb(90, 98, 115)"  x="9" y="15" width="1" height="1" /><rect shape-rendering="crispEdges" fill="rgb(90, 98, 115)"  x="9" y="16" width="1" height="1" /><rect shape-rendering="crispEdges" fill="rgb(90, 82, 74)"  x="9" y="20" width="1" height="1" /><rect shape-rendering="crispEdges" fill="rgb(32, 32, 32)"  x="9" y="21" width="1" height="1" /><rect shape-rendering="crispEdges" fill="rgb(16, 24, 49)"  x="9" y="22" width="1" height="1" /><rect shape-rendering="crispEdges" fill="rgb(0, 0, 16)"  x="9" y="23" width="1" height="1" /><rect shape-rendering="crispEdges" fill="rgb(82, 74, 65)"  x="9" y="24" width="1" height="1" /><rect shape-rendering="crispEdges" fill="rgb(32, 32, 32)"  x="9" y="25" width="1" height="1" /><rect shape-rendering="crispEdges" fill="rgb(0, 0, 8)"  x="9" y="26" width="1" height="1" /><rect shape-rendering="crispEdges" fill="rgb(8, 0, 16)"  x="9" y="27" width="1" height="1" /><rect shape-rendering="crispEdges" fill="rgb(106, 106, 131)"  x="9" y="28" width="1" height="1" /><rect shape-rendering="crispEdges" fill="rgb(156, 156, 164)"  x="9" y="29" width="1" height="1" /><rect shape-rendering="crispEdges" fill="rgb(131, 139, 148)"  x="9" y="30" width="1" height="1" /><rect shape-rendering="crispEdges" fill="rgb(230, 222, 230)"  x="10" y="3" width="1" height="1" /><rect shape-rendering="crispEdges" fill="rgb(246, 230, 230)"  x="10" y="4" width="1" height="1" /><rect shape-rendering="crispEdges" fill="rgb(197, 197, 197)"  x="10" y="5" width="1" height="1" /><rect shape-rendering="crispEdges" fill="rgb(172, 156, 164)"  x="10" y="6" width="1" height="1" /><rect shape-rendering="crispEdges" fill="rgb(180, 180, 180)"  x="10" y="7" width="1" height="1" /><rect shape-rendering="crispEdges" fill="rgb(156, 156, 164)"  x="10" y="8" width="1" height="1" /><rect shape-rendering="crispEdges" fill="rgb(205, 213, 222)"  x="10" y="9" width="1" height="1" /><rect shape-rendering="crispEdges" fill="rgb(139, 148, 172)"  x="10" y="10" width="1" height="1" /><rect shape-rendering="crispEdges" fill="rgb(139, 148, 172)"  x="10" y="11" width="1" height="1" /><rect shape-rendering="crispEdges" fill="rgb(139, 148, 172)"  x="10" y="12" width="1" height="1" /><rect shape-rendering="crispEdges" fill="rgb(156, 172, 213)"  x="10" y="13" width="1" height="1" /><rect shape-rendering="crispEdges" fill="rgb(156, 172, 213)"  x="10" y="14" width="1" height="1" /><rect shape-rendering="crispEdges" fill="rgb(106, 115, 123)"  x="10" y="15" width="1" height="1" /><rect shape-rendering="crispEdges" fill="rgb(98, 106, 115)"  x="10" y="18" width="1" height="1" /><rect shape-rendering="crispEdges" fill="rgb(197, 148, 98)"  x="10" y="19" width="1" height="1" /><rect shape-rendering="crispEdges" fill="rgb(90, 41, 24)"  x="10" y="20" width="1" height="1" /><rect shape-rendering="crispEdges" fill="rgb(0, 0, 16)"  x="10" y="21" width="1" height="1" /><rect shape-rendering="crispEdges" fill="rgb(82, 74, 65)"  x="10" y="22" width="1" height="1" /><rect shape-rendering="crispEdges" fill="rgb(197, 180, 148)"  x="10" y="23" width="1" height="1" /><rect shape-rendering="crispEdges" fill="rgb(238, 213, 148)"  x="10" y="24" width="1" height="1" /><rect shape-rendering="crispEdges" fill="rgb(74, 74, 57)"  x="10" y="25" width="1" height="1" /><rect shape-rendering="crispEdges" fill="rgb(0, 0, 24)"  x="10" y="26" width="1" height="1" /><rect shape-rendering="crispEdges" fill="rgb(16, 16, 24)"  x="10" y="27" width="1" height="1" /><rect shape-rendering="crispEdges" fill="rgb(131, 139, 156)"  x="10" y="28" width="1" height="1" /><rect shape-rendering="crispEdges" fill="rgb(115, 123, 131)"  x="10" y="29" width="1" height="1" /><rect shape-rendering="crispEdges" fill="rgb(115, 115, 123)"  x="10" y="30" width="1" height="1" /><rect shape-rendering="crispEdges" fill="rgb(172, 156, 156)"  x="11" y="3" width="1" height="1" /><rect shape-rendering="crispEdges" fill="rgb(131, 123, 131)"  x="11" y="4" width="1" height="1" /><rect shape-rendering="crispEdges" fill="rgb(246, 238, 230)"  x="11" y="5" width="1" height="1" /><rect shape-rendering="crispEdges" fill="rgb(255, 255, 255)"  x="11" y="6" width="1" height="1" /><rect shape-rendering="crispEdges" fill="rgb(205, 197, 205)"  x="11" y="7" width="1" height="1" /><rect shape-rendering="crispEdges" fill="rgb(90, 98, 115)"  x="11" y="8" width="1" height="1" /><rect shape-rendering="crispEdges" fill="rgb(8, 8, 32)"  x="11" y="9" width="1" height="1" /><rect shape-rendering="crispEdges" fill="rgb(49, 49, 32)"  x="11" y="10" width="1" height="1" /><rect shape-rendering="crispEdges" fill="rgb(255, 255, 255)"  x="11" y="11" width="1" height="1" /><rect shape-rendering="crispEdges" fill="rgb(255, 255, 255)"  x="11" y="12" width="1" height="1" /><rect shape-rendering="crispEdges" fill="rgb(156, 172, 213)"  x="11" y="13" width="1" height="1" /><rect shape-rendering="crispEdges" fill="rgb(172, 172, 172)"  x="11" y="14" width="1" height="1" /><rect shape-rendering="crispEdges" fill="rgb(139, 139, 148)"  x="11" y="15" width="1" height="1" /><rect shape-rendering="crispEdges" fill="rgb(65, 32, 32)"  x="11" y="18" width="1" height="1" /><rect shape-rendering="crispEdges" fill="rgb(90, 57, 41)"  x="11" y="19" width="1" height="1" /><rect shape-rendering="crispEdges" fill="rgb(131, 74, 49)"  x="11" y="20" width="1" height="1" /><rect shape-rendering="crispEdges" fill="rgb(148, 123, 98)"  x="11" y="21" width="1" height="1" /><rect shape-rendering="crispEdges" fill="rgb(139, 139, 115)"  x="11" y="22" width="1" height="1" /><rect shape-rendering="crispEdges" fill="rgb(123, 123, 139)"  x="11" y="23" width="1" height="1" /><rect shape-rendering="crispEdges" fill="rgb(255, 246, 255)"  x="11" y="24" width="1" height="1" /><rect shape-rendering="crispEdges" fill="rgb(172, 164, 98)"  x="11" y="25" width="1" height="1" /><rect shape-rendering="crispEdges" fill="rgb(0, 0, 8)"  x="11" y="26" width="1" height="1" /><rect shape-rendering="crispEdges" fill="rgb(16, 16, 24)"  x="11" y="27" width="1" height="1" /><rect shape-rendering="crispEdges" fill="rgb(57, 57, 74)"  x="11" y="28" width="1" height="1" /><rect shape-rendering="crispEdges" fill="rgb(41, 41, 57)"  x="11" y="29" width="1" height="1" /><rect shape-rendering="crispEdges" fill="rgb(106, 106, 115)"  x="12" y="4" width="1" height="1" /><rect shape-rendering="crispEdges" fill="rgb(57, 57, 65)"  x="12" y="5" width="1" height="1" /><rect shape-rendering="crispEdges" fill="rgb(131, 123, 123)"  x="12" y="6" width="1" height="1" /><rect shape-rendering="crispEdges" fill="rgb(213, 205, 197)"  x="12" y="7" width="1" height="1" /><rect shape-rendering="crispEdges" fill="rgb(57, 65, 82)"  x="12" y="8" width="1" height="1" /><rect shape-rendering="crispEdges" fill="rgb(156, 156, 123)"  x="12" y="9" width="1" height="1" /><rect shape-rendering="crispEdges" fill="rgb(255, 255, 246)"  x="12" y="10" width="1" height="1" /><rect shape-rendering="crispEdges" fill="rgb(238, 213, 164)"  x="12" y="11" width="1" height="1" /><rect shape-rendering="crispEdges" fill="rgb(164, 156, 123)"  x="12" y="12" width="1" height="1" /><rect shape-rendering="crispEdges" fill="rgb(172, 180, 180)"  x="12" y="13" width="1" height="1" /><rect shape-rendering="crispEdges" fill="rgb(255, 255, 255)"  x="12" y="14" width="1" height="1" /><rect shape-rendering="crispEdges" fill="rgb(180, 189, 197)"  x="12" y="15" width="1" height="1" /><rect shape-rendering="crispEdges" fill="rgb(255, 255, 255)"  x="12" y="16" width="1" height="1" /><rect shape-rendering="crispEdges" fill="rgb(115, 82, 74)"  x="12" y="17" width="1" height="1" /><rect shape-rendering="crispEdges" fill="rgb(156, 106, 90)"  x="12" y="18" width="1" height="1" /><rect shape-rendering="crispEdges" fill="rgb(139, 90, 65)"  x="12" y="19" width="1" height="1" /><rect shape-rendering="crispEdges" fill="rgb(115, 65, 57)"  x="12" y="20" width="1" height="1" /><rect shape-rendering="crispEdges" fill="rgb(57, 57, 74)"  x="12" y="21" width="1" height="1" /><rect shape-rendering="crispEdges" fill="rgb(57, 65, 98)"  x="12" y="22" width="1" height="1" /><rect shape-rendering="crispEdges" fill="rgb(115, 123, 148)"  x="12" y="23" width="1" height="1" /><rect shape-rendering="crispEdges" fill="rgb(255, 255, 255)"  x="12" y="24" width="1" height="1" /><rect shape-rendering="crispEdges" fill="rgb(230, 213, 148)"  x="12" y="25" width="1" height="1" /><rect shape-rendering="crispEdges" fill="rgb(0, 0, 8)"  x="12" y="26" width="1" height="1" /><rect shape-rendering="crispEdges" fill="rgb(8, 16, 32)"  x="12" y="27" width="1" height="1" /><rect shape-rendering="crispEdges" fill="rgb(98, 98, 115)"  x="12" y="28" width="1" height="1" /><rect shape-rendering="crispEdges" fill="rgb(131, 139, 148)"  x="12" y="29" width="1" height="1" /><rect shape-rendering="crispEdges" fill="rgb(255, 255, 255)"  x="13" y="2" width="1" height="1" /><rect shape-rendering="crispEdges" fill="rgb(222, 222, 230)"  x="13" y="3" width="1" height="1" /><rect shape-rendering="crispEdges" fill="rgb(172, 180, 180)"  x="13" y="4" width="1" height="1" /><rect shape-rendering="crispEdges" fill="rgb(164, 156, 164)"  x="13" y="5" width="1" height="1" /><rect shape-rendering="crispEdges" fill="rgb(0, 0, 0)"  x="13" y="6" width="1" height="1" /><rect shape-rendering="crispEdges" fill="rgb(41, 49, 65)"  x="13" y="7" width="1" height="1" /><rect shape-rendering="crispEdges" fill="rgb(106, 115, 106)"  x="13" y="8" width="1" height="1" /><rect shape-rendering="crispEdges" fill="rgb(139, 139, 139)"  x="13" y="9" width="1" height="1" /><rect shape-rendering="crispEdges" fill="rgb(255, 255, 255)"  x="13" y="10" width="1" height="1" /><rect shape-rendering="crispEdges" fill="rgb(172, 164, 131)"  x="13" y="11" width="1" height="1" /><rect shape-rendering="crispEdges" fill="rgb(164, 172, 189)"  x="13" y="12" width="1" height="1" /><rect shape-rendering="crispEdges" fill="rgb(123, 106, 106)"  x="13" y="13" width="1" height="1" /><rect shape-rendering="crispEdges" fill="rgb(106, 115, 123)"  x="13" y="14" width="1" height="1" /><rect shape-rendering="crispEdges" fill="rgb(255, 255, 255)"  x="13" y="15" width="1" height="1" /><rect shape-rendering="crispEdges" fill="rgb(180, 189, 197)"  x="13" y="16" width="1" height="1" /><rect shape-rendering="crispEdges" fill="rgb(255, 255, 255)"  x="13" y="17" width="1" height="1" /><rect shape-rendering="crispEdges" fill="rgb(164, 123, 98)"  x="13" y="18" width="1" height="1" /><rect shape-rendering="crispEdges" fill="rgb(180, 131, 90)"  x="13" y="19" width="1" height="1" /><rect shape-rendering="crispEdges" fill="rgb(106, 82, 74)"  x="13" y="20" width="1" height="1" /><rect shape-rendering="crispEdges" fill="rgb(222, 222, 230)"  x="13" y="21" width="1" height="1" /><rect shape-rendering="crispEdges" fill="rgb(123, 123, 148)"  x="13" y="22" width="1" height="1" /><rect shape-rendering="crispEdges" fill="rgb(131, 139, 131)"  x="13" y="23" width="1" height="1" /><rect shape-rendering="crispEdges" fill="rgb(238, 213, 148)"  x="13" y="24" width="1" height="1" /><rect shape-rendering="crispEdges" fill="rgb(238, 213, 148)"  x="13" y="25" width="1" height="1" /><rect shape-rendering="crispEdges" fill="rgb(41, 41, 74)"  x="13" y="26" width="1" height="1" /><rect shape-rendering="crispEdges" fill="rgb(74, 74, 90)"  x="13" y="27" width="1" height="1" /><rect shape-rendering="crispEdges" fill="rgb(98, 98, 106)"  x="13" y="28" width="1" height="1" /><rect shape-rendering="crispEdges" fill="rgb(172, 180, 180)"  x="13" y="29" width="1" height="1" /><rect shape-rendering="crispEdges" fill="rgb(255, 255, 255)"  x="14" y="2" width="1" height="1" /><rect shape-rendering="crispEdges" fill="rgb(41, 49, 57)"  x="14" y="3" width="1" height="1" /><rect shape-rendering="crispEdges" fill="rgb(0, 0, 16)"  x="14" y="4" width="1" height="1" /><rect shape-rendering="crispEdges" fill="rgb(90, 98, 106)"  x="14" y="5" width="1" height="1" /><rect shape-rendering="crispEdges" fill="rgb(74, 82, 90)"  x="14" y="6" width="1" height="1" /><rect shape-rendering="crispEdges" fill="rgb(90, 106, 115)"  x="14" y="7" width="1" height="1" /><rect shape-rendering="crispEdges" fill="rgb(0, 0, 0)"  x="14" y="8" width="1" height="1" /><rect shape-rendering="crispEdges" fill="rgb(41, 41, 57)"  x="14" y="9" width="1" height="1" /><rect shape-rendering="crispEdges" fill="rgb(255, 255, 255)"  x="14" y="10" width="1" height="1" /><rect shape-rendering="crispEdges" fill="rgb(172, 156, 139)"  x="14" y="11" width="1" height="1" /><rect shape-rendering="crispEdges" fill="rgb(164, 156, 131)"  x="14" y="12" width="1" height="1" /><rect shape-rendering="crispEdges" fill="rgb(90, 49, 16)"  x="14" y="13" width="1" height="1" /><rect shape-rendering="crispEdges" fill="rgb(230, 180, 131)"  x="14" y="14" width="1" height="1" /><rect shape-rendering="crispEdges" fill="rgb(131, 148, 172)"  x="14" y="15" width="1" height="1" /><rect shape-rendering="crispEdges" fill="rgb(156, 172, 213)"  x="14" y="16" width="1" height="1" /><rect shape-rendering="crispEdges" fill="rgb(180, 148, 131)"  x="14" y="17" width="1" height="1" /><rect shape-rendering="crispEdges" fill="rgb(0, 0, 24)"  x="14" y="18" width="1" height="1" /><rect shape-rendering="crispEdges" fill="rgb(172, 123, 74)"  x="14" y="19" width="1" height="1" /><rect shape-rendering="crispEdges" fill="rgb(180, 131, 90)"  x="14" y="20" width="1" height="1" /><rect shape-rendering="crispEdges" fill="rgb(106, 123, 148)"  x="14" y="21" width="1" height="1" /><rect shape-rendering="crispEdges" fill="rgb(222, 222, 230)"  x="14" y="22" width="1" height="1" /><rect shape-rendering="crispEdges" fill="rgb(106, 115, 148)"  x="14" y="23" width="1" height="1" /><rect shape-rendering="crispEdges" fill="rgb(255, 246, 255)"  x="14" y="24" width="1" height="1" /><rect shape-rendering="crispEdges" fill="rgb(255, 255, 213)"  x="14" y="25" width="1" height="1" /><rect shape-rendering="crispEdges" fill="rgb(24, 24, 8)"  x="14" y="26" width="1" height="1" /><rect shape-rendering="crispEdges" fill="rgb(41, 41, 74)"  x="14" y="27" width="1" height="1" /><rect shape-rendering="crispEdges" fill="rgb(106, 106, 115)"  x="14" y="28" width="1" height="1" /><rect shape-rendering="crispEdges" fill="rgb(123, 123, 131)"  x="14" y="29" width="1" height="1" /><rect shape-rendering="crispEdges" fill="rgb(246, 255, 255)"  x="15" y="2" width="1" height="1" /><rect shape-rendering="crispEdges" fill="rgb(49, 49, 65)"  x="15" y="3" width="1" height="1" /><rect shape-rendering="crispEdges" fill="rgb(82, 82, 98)"  x="15" y="4" width="1" height="1" /><rect shape-rendering="crispEdges" fill="rgb(16, 24, 41)"  x="15" y="5" width="1" height="1" /><rect shape-rendering="crispEdges" fill="rgb(0, 0, 0)"  x="15" y="6" width="1" height="1" /><rect shape-rendering="crispEdges" fill="rgb(0, 0, 0)"  x="15" y="7" width="1" height="1" /><rect shape-rendering="crispEdges" fill="rgb(0, 0, 0)"  x="15" y="8" width="1" height="1" /><rect shape-rendering="crispEdges" fill="rgb(0, 0, 0)"  x="15" y="9" width="1" height="1" /><rect shape-rendering="crispEdges" fill="rgb(164, 172, 189)"  x="15" y="10" width="1" height="1" /><rect shape-rendering="crispEdges" fill="rgb(255, 246, 222)"  x="15" y="11" width="1" height="1" /><rect shape-rendering="crispEdges" fill="rgb(164, 172, 189)"  x="15" y="12" width="1" height="1" /><rect shape-rendering="crispEdges" fill="rgb(164, 139, 82)"  x="15" y="13" width="1" height="1" /><rect shape-rendering="crispEdges" fill="rgb(156, 172, 213)"  x="15" y="14" width="1" height="1" /><rect shape-rendering="crispEdges" fill="rgb(172, 164, 156)"  x="15" y="15" width="1" height="1" /><rect shape-rendering="crispEdges" fill="rgb(156, 148, 131)"  x="15" y="16" width="1" height="1" /><rect shape-rendering="crispEdges" fill="rgb(156, 172, 213)"  x="15" y="17" width="1" height="1" /><rect shape-rendering="crispEdges" fill="rgb(106, 123, 139)"  x="15" y="18" width="1" height="1" /><rect shape-rendering="crispEdges" fill="rgb(189, 123, 65)"  x="15" y="19" width="1" height="1" /><rect shape-rendering="crispEdges" fill="rgb(180, 131, 90)"  x="15" y="20" width="1" height="1" /><rect shape-rendering="crispEdges" fill="rgb(139, 148, 172)"  x="15" y="21" width="1" height="1" /><rect shape-rendering="crispEdges" fill="rgb(222, 222, 230)"  x="15" y="22" width="1" height="1" /><rect shape-rendering="crispEdges" fill="rgb(131, 139, 156)"  x="15" y="23" width="1" height="1" /><rect shape-rendering="crispEdges" fill="rgb(222, 213, 205)"  x="15" y="24" width="1" height="1" /><rect shape-rendering="crispEdges" fill="rgb(255, 255, 205)"  x="15" y="25" width="1" height="1" /><rect shape-rendering="crispEdges" fill="rgb(172, 164, 98)"  x="15" y="26" width="1" height="1" /><rect shape-rendering="crispEdges" fill="rgb(8, 8, 41)"  x="15" y="27" width="1" height="1" /><rect shape-rendering="crispEdges" fill="rgb(74, 82, 90)"  x="15" y="28" width="1" height="1" /><rect shape-rendering="crispEdges" fill="rgb(90, 98, 115)"  x="15" y="29" width="1" height="1" /><rect shape-rendering="crispEdges" fill="rgb(230, 238, 238)"  x="16" y="2" width="1" height="1" /><rect shape-rendering="crispEdges" fill="rgb(0, 0, 8)"  x="16" y="3" width="1" height="1" /><rect shape-rendering="crispEdges" fill="rgb(82, 82, 98)"  x="16" y="4" width="1" height="1" /><rect shape-rendering="crispEdges" fill="rgb(189, 180, 180)"  x="16" y="5" width="1" height="1" /><rect shape-rendering="crispEdges" fill="rgb(0, 0, 8)"  x="16" y="6" width="1" height="1" /><rect shape-rendering="crispEdges" fill="rgb(82, 90, 98)"  x="16" y="7" width="1" height="1" /><rect shape-rendering="crispEdges" fill="rgb(0, 0, 0)"  x="16" y="8" width="1" height="1" /><rect shape-rendering="crispEdges" fill="rgb(0, 0, 0)"  x="16" y="9" width="1" height="1" /><rect shape-rendering="crispEdges" fill="rgb(131, 131, 148)"  x="16" y="10" width="1" height="1" /><rect shape-rendering="crispEdges" fill="rgb(213, 205, 172)"  x="16" y="11" width="1" height="1" /><rect shape-rendering="crispEdges" fill="rgb(164, 172, 189)"  x="16" y="12" width="1" height="1" /><rect shape-rendering="crispEdges" fill="rgb(164, 139, 82)"  x="16" y="13" width="1" height="1" /><rect shape-rendering="crispEdges" fill="rgb(156, 172, 213)"  x="16" y="14" width="1" height="1" /><rect shape-rendering="crispEdges" fill="rgb(213, 164, 115)"  x="16" y="15" width="1" height="1" /><rect shape-rendering="crispEdges" fill="rgb(148, 139, 139)"  x="16" y="16" width="1" height="1" /><rect shape-rendering="crispEdges" fill="rgb(156, 172, 213)"  x="16" y="17" width="1" height="1" /><rect shape-rendering="crispEdges" fill="rgb(172, 156, 156)"  x="16" y="18" width="1" height="1" /><rect shape-rendering="crispEdges" fill="rgb(148, 82, 41)"  x="16" y="19" width="1" height="1" /><rect shape-rendering="crispEdges" fill="rgb(139, 98, 74)"  x="16" y="20" width="1" height="1" /><rect shape-rendering="crispEdges" fill="rgb(123, 131, 148)"  x="16" y="21" width="1" height="1" /><rect shape-rendering="crispEdges" fill="rgb(222, 222, 230)"  x="16" y="22" width="1" height="1" /><rect shape-rendering="crispEdges" fill="rgb(148, 148, 164)"  x="16" y="23" width="1" height="1" /><rect shape-rendering="crispEdges" fill="rgb(238, 213, 148)"  x="16" y="24" width="1" height="1" /><rect shape-rendering="crispEdges" fill="rgb(238, 213, 148)"  x="16" y="25" width="1" height="1" /><rect shape-rendering="crispEdges" fill="rgb(49, 41, 24)"  x="16" y="26" width="1" height="1" /><rect shape-rendering="crispEdges" fill="rgb(41, 49, 82)"  x="16" y="27" width="1" height="1" /><rect shape-rendering="crispEdges" fill="rgb(65, 65, 82)"  x="16" y="28" width="1" height="1" /><rect shape-rendering="crispEdges" fill="rgb(230, 238, 238)"  x="17" y="2" width="1" height="1" /><rect shape-rendering="crispEdges" fill="rgb(0, 0, 8)"  x="17" y="3" width="1" height="1" /><rect shape-rendering="crispEdges" fill="rgb(57, 57, 57)"  x="17" y="4" width="1" height="1" /><rect shape-rendering="crispEdges" fill="rgb(222, 205, 205)"  x="17" y="5" width="1" height="1" /><rect shape-rendering="crispEdges" fill="rgb(0, 0, 8)"  x="17" y="6" width="1" height="1" /><rect shape-rendering="crispEdges" fill="rgb(74, 82, 90)"  x="17" y="7" width="1" height="1" /><rect shape-rendering="crispEdges" fill="rgb(32, 41, 49)"  x="17" y="8" width="1" height="1" /><rect shape-rendering="crispEdges" fill="rgb(16, 16, 24)"  x="17" y="9" width="1" height="1" /><rect shape-rendering="crispEdges" fill="rgb(255, 255, 255)"  x="17" y="10" width="1" height="1" /><rect shape-rendering="crispEdges" fill="rgb(180, 164, 139)"  x="17" y="11" width="1" height="1" /><rect shape-rendering="crispEdges" fill="rgb(180, 164, 123)"  x="17" y="12" width="1" height="1" /><rect shape-rendering="crispEdges" fill="rgb(139, 106, 74)"  x="17" y="13" width="1" height="1" /><rect shape-rendering="crispEdges" fill="rgb(205, 148, 106)"  x="17" y="14" width="1" height="1" /><rect shape-rendering="crispEdges" fill="rgb(139, 148, 172)"  x="17" y="15" width="1" height="1" /><rect shape-rendering="crispEdges" fill="rgb(139, 148, 172)"  x="17" y="16" width="1" height="1" /><rect shape-rendering="crispEdges" fill="rgb(123, 106, 106)"  x="17" y="17" width="1" height="1" /><rect shape-rendering="crispEdges" fill="rgb(115, 90, 74)"  x="17" y="18" width="1" height="1" /><rect shape-rendering="crispEdges" fill="rgb(148, 90, 49)"  x="17" y="19" width="1" height="1" /><rect shape-rendering="crispEdges" fill="rgb(148, 90, 49)"  x="17" y="20" width="1" height="1" /><rect shape-rendering="crispEdges" fill="rgb(115, 123, 139)"  x="17" y="21" width="1" height="1" /><rect shape-rendering="crispEdges" fill="rgb(222, 222, 230)"  x="17" y="22" width="1" height="1" /><rect shape-rendering="crispEdges" fill="rgb(106, 123, 139)"  x="17" y="23" width="1" height="1" /><rect shape-rendering="crispEdges" fill="rgb(255, 246, 255)"  x="17" y="24" width="1" height="1" /><rect shape-rendering="crispEdges" fill="rgb(255, 238, 222)"  x="17" y="25" width="1" height="1" /><rect shape-rendering="crispEdges" fill="rgb(213, 222, 222)"  x="18" y="2" width="1" height="1" /><rect shape-rendering="crispEdges" fill="rgb(0, 0, 8)"  x="18" y="3" width="1" height="1" /><rect shape-rendering="crispEdges" fill="rgb(0, 0, 8)"  x="18" y="4" width="1" height="1" /><rect shape-rendering="crispEdges" fill="rgb(8, 8, 16)"  x="18" y="5" width="1" height="1" /><rect shape-rendering="crispEdges" fill="rgb(0, 0, 0)"  x="18" y="6" width="1" height="1" /><rect shape-rendering="crispEdges" fill="rgb(24, 32, 49)"  x="18" y="7" width="1" height="1" /><rect shape-rendering="crispEdges" fill="rgb(0, 8, 16)"  x="18" y="8" width="1" height="1" /><rect shape-rendering="crispEdges" fill="rgb(74, 82, 82)"  x="18" y="9" width="1" height="1" /><rect shape-rendering="crispEdges" fill="rgb(255, 255, 255)"  x="18" y="10" width="1" height="1" /><rect shape-rendering="crispEdges" fill="rgb(180, 172, 148)"  x="18" y="11" width="1" height="1" /><rect shape-rendering="crispEdges" fill="rgb(197, 197, 180)"  x="18" y="12" width="1" height="1" /><rect shape-rendering="crispEdges" fill="rgb(115, 74, 41)"  x="18" y="13" width="1" height="1" /><rect shape-rendering="crispEdges" fill="rgb(189, 131, 106)"  x="18" y="14" width="1" height="1" /><rect shape-rendering="crispEdges" fill="rgb(255, 255, 255)"  x="18" y="15" width="1" height="1" /><rect shape-rendering="crispEdges" fill="rgb(180, 189, 197)"  x="18" y="16" width="1" height="1" /><rect shape-rendering="crispEdges" fill="rgb(255, 255, 255)"  x="18" y="17" width="1" height="1" /><rect shape-rendering="crispEdges" fill="rgb(189, 131, 82)"  x="18" y="18" width="1" height="1" /><rect shape-rendering="crispEdges" fill="rgb(148, 90, 49)"  x="18" y="19" width="1" height="1" /><rect shape-rendering="crispEdges" fill="rgb(131, 148, 172)"  x="18" y="20" width="1" height="1" /><rect shape-rendering="crispEdges" fill="rgb(222, 222, 230)"  x="18" y="21" width="1" height="1" /><rect shape-rendering="crispEdges" fill="rgb(106, 115, 131)"  x="18" y="22" width="1" height="1" /><rect shape-rendering="crispEdges" fill="rgb(131, 139, 148)"  x="18" y="23" width="1" height="1" /><rect shape-rendering="crispEdges" fill="rgb(255, 255, 255)"  x="18" y="24" width="1" height="1" /><rect shape-rendering="crispEdges" fill="rgb(189, 180, 156)"  x="18" y="25" width="1" height="1" /><rect shape-rendering="crispEdges" fill="rgb(222, 230, 230)"  x="19" y="2" width="1" height="1" /><rect shape-rendering="crispEdges" fill="rgb(0, 0, 8)"  x="19" y="3" width="1" height="1" /><rect shape-rendering="crispEdges" fill="rgb(0, 0, 8)"  x="19" y="4" width="1" height="1" /><rect shape-rendering="crispEdges" fill="rgb(90, 90, 90)"  x="19" y="5" width="1" height="1" /><rect shape-rendering="crispEdges" fill="rgb(106, 106, 115)"  x="19" y="6" width="1" height="1" /><rect shape-rendering="crispEdges" fill="rgb(65, 65, 74)"  x="19" y="7" width="1" height="1" /><rect shape-rendering="crispEdges" fill="rgb(0, 0, 0)"  x="19" y="8" width="1" height="1" /><rect shape-rendering="crispEdges" fill="rgb(49, 49, 82)"  x="19" y="9" width="1" height="1" /><rect shape-rendering="crispEdges" fill="rgb(255, 255, 255)"  x="19" y="10" width="1" height="1" /><rect shape-rendering="crispEdges" fill="rgb(156, 148, 148)"  x="19" y="11" width="1" height="1" /><rect shape-rendering="crispEdges" fill="rgb(164, 172, 189)"  x="19" y="12" width="1" height="1" /><rect shape-rendering="crispEdges" fill="rgb(106, 57, 16)"  x="19" y="13" width="1" height="1" /><rect shape-rendering="crispEdges" fill="rgb(255, 255, 255)"  x="19" y="14" width="1" height="1" /><rect shape-rendering="crispEdges" fill="rgb(180, 189, 197)"  x="19" y="15" width="1" height="1" /><rect shape-rendering="crispEdges" fill="rgb(255, 255, 255)"  x="19" y="16" width="1" height="1" /><rect shape-rendering="crispEdges" fill="rgb(139, 98, 65)"  x="19" y="17" width="1" height="1" /><rect shape-rendering="crispEdges" fill="rgb(189, 131, 90)"  x="19" y="18" width="1" height="1" /><rect shape-rendering="crispEdges" fill="rgb(148, 90, 49)"  x="19" y="19" width="1" height="1" /><rect shape-rendering="crispEdges" fill="rgb(222, 222, 230)"  x="19" y="20" width="1" height="1" /><rect shape-rendering="crispEdges" fill="rgb(74, 74, 98)"  x="19" y="21" width="1" height="1" /><rect shape-rendering="crispEdges" fill="rgb(123, 131, 148)"  x="19" y="22" width="1" height="1" /><rect shape-rendering="crispEdges" fill="rgb(123, 123, 139)"  x="19" y="23" width="1" height="1" /><rect shape-rendering="crispEdges" fill="rgb(238, 213, 148)"  x="19" y="24" width="1" height="1" /><rect shape-rendering="crispEdges" fill="rgb(238, 213, 148)"  x="19" y="25" width="1" height="1" /><rect shape-rendering="crispEdges" fill="rgb(172, 180, 180)"  x="20" y="2" width="1" height="1" /><rect shape-rendering="crispEdges" fill="rgb(8, 8, 24)"  x="20" y="3" width="1" height="1" /><rect shape-rendering="crispEdges" fill="rgb(222, 222, 230)"  x="20" y="4" width="1" height="1" /><rect shape-rendering="crispEdges" fill="rgb(222, 222, 230)"  x="20" y="5" width="1" height="1" /><rect shape-rendering="crispEdges" fill="rgb(106, 115, 123)"  x="20" y="6" width="1" height="1" /><rect shape-rendering="crispEdges" fill="rgb(131, 139, 156)"  x="20" y="7" width="1" height="1" /><rect shape-rendering="crispEdges" fill="rgb(222, 222, 230)"  x="20" y="8" width="1" height="1" /><rect shape-rendering="crispEdges" fill="rgb(189, 180, 123)"  x="20" y="9" width="1" height="1" /><rect shape-rendering="crispEdges" fill="rgb(246, 238, 156)"  x="20" y="10" width="1" height="1" /><rect shape-rendering="crispEdges" fill="rgb(238, 222, 131)"  x="20" y="11" width="1" height="1" /><rect shape-rendering="crispEdges" fill="rgb(148, 131, 98)"  x="20" y="12" width="1" height="1" /><rect shape-rendering="crispEdges" fill="rgb(65, 41, 49)"  x="20" y="13" width="1" height="1" /><rect shape-rendering="crispEdges" fill="rgb(148, 106, 106)"  x="20" y="14" width="1" height="1" /><rect shape-rendering="crispEdges" fill="rgb(156, 123, 98)"  x="20" y="15" width="1" height="1" /><rect shape-rendering="crispEdges" fill="rgb(164, 106, 57)"  x="20" y="16" width="1" height="1" /><rect shape-rendering="crispEdges" fill="rgb(32, 0, 0)"  x="20" y="17" width="1" height="1" /><rect shape-rendering="crispEdges" fill="rgb(148, 90, 49)"  x="20" y="18" width="1" height="1" /><rect shape-rendering="crispEdges" fill="rgb(65, 49, 57)"  x="20" y="19" width="1" height="1" /><rect shape-rendering="crispEdges" fill="rgb(90, 82, 90)"  x="20" y="20" width="1" height="1" /><rect shape-rendering="crispEdges" fill="rgb(90, 74, 74)"  x="20" y="21" width="1" height="1" /><rect shape-rendering="crispEdges" fill="rgb(49, 57, 98)"  x="20" y="22" width="1" height="1" /><rect shape-rendering="crispEdges" fill="rgb(98, 98, 123)"  x="20" y="23" width="1" height="1" /><rect shape-rendering="crispEdges" fill="rgb(255, 255, 255)"  x="20" y="24" width="1" height="1" /><rect shape-rendering="crispEdges" fill="rgb(172, 164, 98)"  x="20" y="25" width="1" height="1" /><rect shape-rendering="crispEdges" fill="rgb(148, 164, 164)"  x="21" y="2" width="1" height="1" /><rect shape-rendering="crispEdges" fill="rgb(222, 230, 230)"  x="21" y="3" width="1" height="1" /><rect shape-rendering="crispEdges" fill="rgb(41, 49, 65)"  x="21" y="4" width="1" height="1" /><rect shape-rendering="crispEdges" fill="rgb(0, 0, 0)"  x="21" y="5" width="1" height="1" /><rect shape-rendering="crispEdges" fill="rgb(0, 0, 16)"  x="21" y="6" width="1" height="1" /><rect shape-rendering="crispEdges" fill="rgb(0, 0, 0)"  x="21" y="7" width="1" height="1" /><rect shape-rendering="crispEdges" fill="rgb(90, 98, 115)"  x="21" y="8" width="1" height="1" /><rect shape-rendering="crispEdges" fill="rgb(222, 222, 230)"  x="21" y="9" width="1" height="1" /><rect shape-rendering="crispEdges" fill="rgb(57, 49, 74)"  x="21" y="10" width="1" height="1" /><rect shape-rendering="crispEdges" fill="rgb(74, 74, 106)"  x="21" y="11" width="1" height="1" /><rect shape-rendering="crispEdges" fill="rgb(49, 65, 106)"  x="21" y="12" width="1" height="1" /><rect shape-rendering="crispEdges" fill="rgb(57, 49, 74)"  x="21" y="13" width="1" height="1" /><rect shape-rendering="crispEdges" fill="rgb(49, 16, 16)"  x="21" y="14" width="1" height="1" /><rect shape-rendering="crispEdges" fill="rgb(156, 106, 74)"  x="21" y="15" width="1" height="1" /><rect shape-rendering="crispEdges" fill="rgb(205, 180, 148)"  x="21" y="16" width="1" height="1" /><rect shape-rendering="crispEdges" fill="rgb(74, 41, 41)"  x="21" y="17" width="1" height="1" /><rect shape-rendering="crispEdges" fill="rgb(148, 90, 49)"  x="21" y="18" width="1" height="1" /><rect shape-rendering="crispEdges" fill="rgb(139, 82, 65)"  x="21" y="19" width="1" height="1" /><rect shape-rendering="crispEdges" fill="rgb(205, 123, 90)"  x="21" y="20" width="1" height="1" /><rect shape-rendering="crispEdges" fill="rgb(172, 148, 106)"  x="21" y="21" width="1" height="1" /><rect shape-rendering="crispEdges" fill="rgb(82, 90, 82)"  x="21" y="22" width="1" height="1" /><rect shape-rendering="crispEdges" fill="rgb(115, 123, 139)"  x="21" y="23" width="1" height="1" /><rect shape-rendering="crispEdges" fill="rgb(246, 246, 255)"  x="21" y="24" width="1" height="1" /><rect shape-rendering="crispEdges" fill="rgb(180, 164, 106)"  x="21" y="25" width="1" height="1" /><rect shape-rendering="crispEdges" fill="rgb(148, 164, 164)"  x="22" y="2" width="1" height="1" /><rect shape-rendering="crispEdges" fill="rgb(148, 156, 164)"  x="22" y="3" width="1" height="1" /><rect shape-rendering="crispEdges" fill="rgb(41, 49, 65)"  x="22" y="4" width="1" height="1" /><rect shape-rendering="crispEdges" fill="rgb(41, 49, 65)"  x="22" y="6" width="1" height="1" /><rect shape-rendering="crispEdges" fill="rgb(0, 0, 16)"  x="22" y="7" width="1" height="1" /><rect shape-rendering="crispEdges" fill="rgb(156, 164, 172)"  x="22" y="8" width="1" height="1" /><rect shape-rendering="crispEdges" fill="rgb(222, 222, 230)"  x="22" y="9" width="1" height="1" /><rect shape-rendering="crispEdges" fill="rgb(255, 255, 255)"  x="22" y="10" width="1" height="1" /><rect shape-rendering="crispEdges" fill="rgb(156, 164, 172)"  x="22" y="11" width="1" height="1" /><rect shape-rendering="crispEdges" fill="rgb(57, 49, 74)"  x="22" y="12" width="1" height="1" /><rect shape-rendering="crispEdges" fill="rgb(131, 106, 82)"  x="22" y="16" width="1" height="1" /><rect shape-rendering="crispEdges" fill="rgb(148, 90, 49)"  x="22" y="17" width="1" height="1" /><rect shape-rendering="crispEdges" fill="rgb(148, 90, 49)"  x="22" y="18" width="1" height="1" /><rect shape-rendering="crispEdges" fill="rgb(98, 49, 32)"  x="22" y="19" width="1" height="1" /><rect shape-rendering="crispEdges" fill="rgb(139, 82, 65)"  x="22" y="20" width="1" height="1" /><rect shape-rendering="crispEdges" fill="rgb(32, 41, 65)"  x="22" y="21" width="1" height="1" /><rect shape-rendering="crispEdges" fill="rgb(230, 222, 180)"  x="22" y="22" width="1" height="1" /><rect shape-rendering="crispEdges" fill="rgb(106, 90, 32)"  x="22" y="23" width="1" height="1" /><rect shape-rendering="crispEdges" fill="rgb(222, 213, 164)"  x="22" y="24" width="1" height="1" /><rect shape-rendering="crispEdges" fill="rgb(148, 131, 82)"  x="22" y="25" width="1" height="1" /><rect shape-rendering="crispEdges" fill="rgb(0, 0, 0)"  x="23" y="6" width="1" height="1" /><rect shape-rendering="crispEdges" fill="rgb(115, 131, 139)"  x="23" y="7" width="1" height="1" /><rect shape-rendering="crispEdges" fill="rgb(222, 222, 230)"  x="23" y="8" width="1" height="1" /><rect shape-rendering="crispEdges" fill="rgb(255, 255, 255)"  x="23" y="9" width="1" height="1" /><rect shape-rendering="crispEdges" fill="rgb(255, 255, 255)"  x="23" y="10" width="1" height="1" /><rect shape-rendering="crispEdges" fill="rgb(238, 238, 205)"  x="23" y="11" width="1" height="1" /><rect shape-rendering="crispEdges" fill="rgb(148, 148, 115)"  x="23" y="12" width="1" height="1" /><rect shape-rendering="crispEdges" fill="rgb(57, 24, 32)"  x="23" y="16" width="1" height="1" /><rect shape-rendering="crispEdges" fill="rgb(57, 24, 32)"  x="23" y="17" width="1" height="1" /><rect shape-rendering="crispEdges" fill="rgb(41, 32, 57)"  x="23" y="18" width="1" height="1" /><rect shape-rendering="crispEdges" fill="rgb(74, 57, 65)"  x="23" y="19" width="1" height="1" /><rect shape-rendering="crispEdges" fill="rgb(90, 65, 74)"  x="23" y="20" width="1" height="1" /><rect shape-rendering="crispEdges" fill="rgb(74, 90, 123)"  x="23" y="21" width="1" height="1" /><rect shape-rendering="crispEdges" fill="rgb(255, 255, 255)"  x="23" y="22" width="1" height="1" /><rect shape-rendering="crispEdges" fill="rgb(213, 205, 172)"  x="23" y="23" width="1" height="1" /><rect shape-rendering="crispEdges" fill="rgb(106, 90, 32)"  x="23" y="24" width="1" height="1" /><rect shape-rendering="crispEdges" fill="rgb(172, 172, 197)"  x="24" y="7" width="1" height="1" /><rect shape-rendering="crispEdges" fill="rgb(255, 255, 255)"  x="24" y="8" width="1" height="1" /><rect shape-rendering="crispEdges" fill="rgb(246, 255, 255)"  x="24" y="9" width="1" height="1" /><rect shape-rendering="crispEdges" fill="rgb(246, 246, 255)"  x="24" y="10" width="1" height="1" /><rect shape-rendering="crispEdges" fill="rgb(189, 205, 197)"  x="24" y="11" width="1" height="1" /><rect shape-rendering="crispEdges" fill="rgb(115, 115, 74)"  x="24" y="12" width="1" height="1" /><rect shape-rendering="crispEdges" fill="rgb(49, 57, 57)"  x="24" y="13" width="1" height="1" /><rect shape-rendering="crispEdges" fill="rgb(57, 24, 32)"  x="24" y="17" width="1" height="1" /><rect shape-rendering="crispEdges" fill="rgb(41, 32, 57)"  x="24" y="18" width="1" height="1" /><rect shape-rendering="crispEdges" fill="rgb(65, 82, 106)"  x="24" y="19" width="1" height="1" /><rect shape-rendering="crispEdges" fill="rgb(65, 74, 106)"  x="24" y="20" width="1" height="1" /><rect shape-rendering="crispEdges" fill="rgb(131, 123, 90)"  x="24" y="21" width="1" height="1" /><rect shape-rendering="crispEdges" fill="rgb(180, 172, 106)"  x="24" y="22" width="1" height="1" /><rect shape-rendering="crispEdges" fill="rgb(238, 230, 172)"  x="24" y="23" width="1" height="1" /><rect shape-rendering="crispEdges" fill="rgb(172, 172, 197)"  x="25" y="7" width="1" height="1" /><rect shape-rendering="crispEdges" fill="rgb(205, 213, 230)"  x="25" y="8" width="1" height="1" /><rect shape-rendering="crispEdges" fill="rgb(156, 164, 148)"  x="25" y="9" width="1" height="1" /><rect shape-rendering="crispEdges" fill="rgb(164, 172, 123)"  x="25" y="10" width="1" height="1" /><rect shape-rendering="crispEdges" fill="rgb(131, 131, 123)"  x="25" y="11" width="1" height="1" /><rect shape-rendering="crispEdges" fill="rgb(213, 205, 148)"  x="25" y="12" width="1" height="1" /><rect shape-rendering="crispEdges" fill="rgb(246, 238, 172)"  x="25" y="13" width="1" height="1" /><rect shape-rendering="crispEdges" fill="rgb(74, 82, 106)"  x="25" y="14" width="1" height="1" /><rect shape-rendering="crispEdges" fill="rgb(49, 16, 8)"  x="25" y="18" width="1" height="1" /><rect shape-rendering="crispEdges" fill="rgb(8, 16, 41)"  x="25" y="19" width="1" height="1" /><rect shape-rendering="crispEdges" fill="rgb(8, 16, 41)"  x="25" y="20" width="1" height="1" /><rect shape-rendering="crispEdges" fill="rgb(74, 90, 123)"  x="25" y="21" width="1" height="1" /><rect shape-rendering="crispEdges" fill="rgb(197, 180, 164)"  x="25" y="22" width="1" height="1" /><rect shape-rendering="crispEdges" fill="rgb(180, 172, 106)"  x="25" y="23" width="1" height="1" /><rect shape-rendering="crispEdges" fill="rgb(172, 172, 197)"  x="26" y="8" width="1" height="1" /><rect shape-rendering="crispEdges" fill="rgb(189, 197, 197)"  x="26" y="9" width="1" height="1" /><rect shape-rendering="crispEdges" fill="rgb(156, 148, 106)"  x="26" y="10" width="1" height="1" /><rect shape-rendering="crispEdges" fill="rgb(90, 98, 164)"  x="26" y="11" width="1" height="1" /><rect shape-rendering="crispEdges" fill="rgb(106, 106, 98)"  x="26" y="12" width="1" height="1" /><rect shape-rendering="crispEdges" fill="rgb(139, 148, 115)"  x="26" y="13" width="1" height="1" /><rect shape-rendering="crispEdges" fill="rgb(148, 148, 180)"  x="26" y="14" width="1" height="1" /><rect shape-rendering="crispEdges" fill="rgb(8, 16, 41)"  x="26" y="20" width="1" height="1" /><rect shape-rendering="crispEdges" fill="rgb(8, 16, 41)"  x="26" y="21" width="1" height="1" /><rect shape-rendering="crispEdges" fill="rgb(189, 180, 172)"  x="26" y="22" width="1" height="1" /><rect shape-rendering="crispEdges" fill="rgb(115, 98, 57)"  x="26" y="23" width="1" height="1" /><rect shape-rendering="crispEdges" fill="rgb(172, 172, 197)"  x="27" y="9" width="1" height="1" /><rect shape-rendering="crispEdges" fill="rgb(139, 148, 164)"  x="27" y="10" width="1" height="1" /><rect shape-rendering="crispEdges" fill="rgb(131, 123, 82)"  x="27" y="11" width="1" height="1" /><rect shape-rendering="crispEdges" fill="rgb(98, 106, 106)"  x="27" y="12" width="1" height="1" /><rect shape-rendering="crispEdges" fill="rgb(82, 90, 123)"  x="27" y="13" width="1" height="1" /><rect shape-rendering="crispEdges" fill="rgb(213, 205, 164)"  x="27" y="22" width="1" height="1" /><rect shape-rendering="crispEdges" fill="rgb(148, 148, 180)"  x="28" y="12" width="1" height="1" /></svg>