<svg xmlns="http://www.w3.org/2000/svg" xmlns:xlink= "http://www.w3.org/1999/xlink" width="32" height="32" viewBox ="0 0 32 32"><rect shape-rendering="crispEdges" fill="rgb(139, 98, 65)"  x="3" y="23" width="1" height="1" /><rect shape-rendering="crispEdges" fill="rgb(98, 65, 41)"  x="3" y="24" width="1" height="1" /><rect shape-rendering="crispEdges" fill="rgb(74, 49, 49)"  x="3" y="25" width="1" height="1" /><rect shape-rendering="crispEdges" fill="rgb(106, 74, 57)"  x="4" y="22" width="1" height="1" /><rect shape-rendering="crispEdges" fill="rgb(164, 115, 65)"  x="4" y="23" width="1" height="1" /><rect shape-rendering="crispEdges" fill="rgb(98, 57, 41)"  x="4" y="24" width="1" height="1" /><rect shape-rendering="crispEdges" fill="rgb(74, 49, 49)"  x="4" y="25" width="1" height="1" /><rect shape-rendering="crispEdges" fill="rgb(156, 115, 74)"  x="5" y="21" width="1" height="1" /><rect shape-rendering="crispEdges" fill="rgb(148, 106, 65)"  x="5" y="22" width="1" height="1" /><rect shape-rendering="crispEdges" fill="rgb(156, 106, 65)"  x="5" y="23" width="1" height="1" /><rect shape-rendering="crispEdges" fill="rgb(90, 57, 41)"  x="5" y="24" width="1" height="1" /><rect shape-rendering="crispEdges" fill="rgb(74, 49, 49)"  x="5" y="25" width="1" height="1" /><rect shape-rendering="crispEdges" fill="rgb(139, 98, 65)"  x="6" y="21" width="1" height="1" /><rect shape-rendering="crispEdges" fill="rgb(164, 123, 74)"  x="6" y="22" width="1" height="1" /><rect shape-rendering="crispEdges" fill="rgb(148, 98, 57)"  x="6" y="23" width="1" height="1" /><rect shape-rendering="crispEdges" fill="rgb(90, 57, 41)"  x="6" y="24" width="1" height="1" /><rect shape-rendering="crispEdges" fill="rgb(74, 49, 49)"  x="6" y="25" width="1" height="1" /><rect shape-rendering="crispEdges" fill="rgb(180, 172, 156)"  x="7" y="20" width="1" height="1" /><rect shape-rendering="crispEdges" fill="rgb(98, 65, 32)"  x="7" y="21" width="1" height="1" /><rect shape-rendering="crispEdges" fill="rgb(156, 115, 65)"  x="7" y="22" width="1" height="1" /><rect shape-rendering="crispEdges" fill="rgb(131, 90, 57)"  x="7" y="23" width="1" height="1" /><rect shape-rendering="crispEdges" fill="rgb(90, 57, 41)"  x="7" y="24" width="1" height="1" /><rect shape-rendering="crispEdges" fill="rgb(65, 41, 41)"  x="7" y="25" width="1" height="1" /><rect shape-rendering="crispEdges" fill="rgb(164, 156, 139)"  x="8" y="19" width="1" height="1" /><rect shape-rendering="crispEdges" fill="rgb(197, 189, 172)"  x="8" y="20" width="1" height="1" /><rect shape-rendering="crispEdges" fill="rgb(90, 65, 49)"  x="8" y="21" width="1" height="1" /><rect shape-rendering="crispEdges" fill="rgb(148, 98, 57)"  x="8" y="22" width="1" height="1" /><rect shape-rendering="crispEdges" fill="rgb(123, 82, 57)"  x="8" y="23" width="1" height="1" /><rect shape-rendering="crispEdges" fill="rgb(90, 57, 41)"  x="8" y="24" width="1" height="1" /><rect shape-rendering="crispEdges" fill="rgb(57, 41, 41)"  x="8" y="25" width="1" height="1" /><rect shape-rendering="crispEdges" fill="rgb(82, 57, 41)"  x="9" y="2" width="1" height="1" /><rect shape-rendering="crispEdges" fill="rgb(82, 57, 41)"  x="9" y="3" width="1" height="1" /><rect shape-rendering="crispEdges" fill="rgb(82, 57, 41)"  x="9" y="4" width="1" height="1" /><rect shape-rendering="crispEdges" fill="rgb(90, 65, 49)"  x="9" y="5" width="1" height="1" /><rect shape-rendering="crispEdges" fill="rgb(90, 57, 41)"  x="9" y="6" width="1" height="1" /><rect shape-rendering="crispEdges" fill="rgb(164, 148, 131)"  x="9" y="18" width="1" height="1" /><rect shape-rendering="crispEdges" fill="rgb(197, 189, 172)"  x="9" y="19" width="1" height="1" /><rect shape-rendering="crispEdges" fill="rgb(90, 57, 32)"  x="9" y="20" width="1" height="1" /><rect shape-rendering="crispEdges" fill="rgb(148, 106, 74)"  x="9" y="21" width="1" height="1" /><rect shape-rendering="crispEdges" fill="rgb(139, 90, 57)"  x="9" y="22" width="1" height="1" /><rect shape-rendering="crispEdges" fill="rgb(123, 82, 49)"  x="9" y="23" width="1" height="1" /><rect shape-rendering="crispEdges" fill="rgb(82, 49, 41)"  x="9" y="24" width="1" height="1" /><rect shape-rendering="crispEdges" fill="rgb(57, 32, 32)"  x="9" y="25" width="1" height="1" /><rect shape-rendering="crispEdges" fill="rgb(106, 74, 49)"  x="10" y="1" width="1" height="1" /><rect shape-rendering="crispEdges" fill="rgb(82, 57, 41)"  x="10" y="2" width="1" height="1" /><rect shape-rendering="crispEdges" fill="rgb(131, 90, 57)"  x="10" y="3" width="1" height="1" /><rect shape-rendering="crispEdges" fill="rgb(115, 82, 57)"  x="10" y="4" width="1" height="1" /><rect shape-rendering="crispEdges" fill="rgb(115, 74, 49)"  x="10" y="5" width="1" height="1" /><rect shape-rendering="crispEdges" fill="rgb(115, 74, 49)"  x="10" y="6" width="1" height="1" /><rect shape-rendering="crispEdges" fill="rgb(106, 65, 49)"  x="10" y="7" width="1" height="1" /><rect shape-rendering="crispEdges" fill="rgb(106, 90, 82)"  x="10" y="8" width="1" height="1" /><rect shape-rendering="crispEdges" fill="rgb(180, 164, 148)"  x="10" y="9" width="1" height="1" /><rect shape-rendering="crispEdges" fill="rgb(148, 123, 98)"  x="10" y="10" width="1" height="1" /><rect shape-rendering="crispEdges" fill="rgb(180, 164, 148)"  x="10" y="11" width="1" height="1" /><rect shape-rendering="crispEdges" fill="rgb(148, 123, 98)"  x="10" y="12" width="1" height="1" /><rect shape-rendering="crispEdges" fill="rgb(139, 115, 98)"  x="10" y="13" width="1" height="1" /><rect shape-rendering="crispEdges" fill="rgb(180, 164, 148)"  x="10" y="14" width="1" height="1" /><rect shape-rendering="crispEdges" fill="rgb(131, 106, 90)"  x="10" y="15" width="1" height="1" /><rect shape-rendering="crispEdges" fill="rgb(148, 131, 123)"  x="10" y="16" width="1" height="1" /><rect shape-rendering="crispEdges" fill="rgb(131, 115, 98)"  x="10" y="17" width="1" height="1" /><rect shape-rendering="crispEdges" fill="rgb(90, 57, 41)"  x="10" y="18" width="1" height="1" /><rect shape-rendering="crispEdges" fill="rgb(131, 106, 98)"  x="10" y="19" width="1" height="1" /><rect shape-rendering="crispEdges" fill="rgb(131, 82, 49)"  x="10" y="20" width="1" height="1" /><rect shape-rendering="crispEdges" fill="rgb(148, 90, 57)"  x="10" y="21" width="1" height="1" /><rect shape-rendering="crispEdges" fill="rgb(131, 82, 57)"  x="10" y="22" width="1" height="1" /><rect shape-rendering="crispEdges" fill="rgb(90, 57, 41)"  x="10" y="23" width="1" height="1" /><rect shape-rendering="crispEdges" fill="rgb(65, 41, 32)"  x="10" y="24" width="1" height="1" /><rect shape-rendering="crispEdges" fill="rgb(82, 57, 41)"  x="11" y="1" width="1" height="1" /><rect shape-rendering="crispEdges" fill="rgb(90, 57, 41)"  x="11" y="2" width="1" height="1" /><rect shape-rendering="crispEdges" fill="rgb(148, 115, 74)"  x="11" y="3" width="1" height="1" /><rect shape-rendering="crispEdges" fill="rgb(148, 115, 74)"  x="11" y="4" width="1" height="1" /><rect shape-rendering="crispEdges" fill="rgb(148, 115, 74)"  x="11" y="5" width="1" height="1" /><rect shape-rendering="crispEdges" fill="rgb(148, 115, 74)"  x="11" y="6" width="1" height="1" /><rect shape-rendering="crispEdges" fill="rgb(65, 49, 32)"  x="11" y="7" width="1" height="1" /><rect shape-rendering="crispEdges" fill="rgb(65, 41, 32)"  x="11" y="8" width="1" height="1" /><rect shape-rendering="crispEdges" fill="rgb(222, 213, 205)"  x="11" y="9" width="1" height="1" /><rect shape-rendering="crispEdges" fill="rgb(57, 32, 24)"  x="11" y="10" width="1" height="1" /><rect shape-rendering="crispEdges" fill="rgb(197, 189, 172)"  x="11" y="11" width="1" height="1" /><rect shape-rendering="crispEdges" fill="rgb(115, 98, 90)"  x="11" y="12" width="1" height="1" /><rect shape-rendering="crispEdges" fill="rgb(90, 49, 32)"  x="11" y="13" width="1" height="1" /><rect shape-rendering="crispEdges" fill="rgb(197, 189, 172)"  x="11" y="14" width="1" height="1" /><rect shape-rendering="crispEdges" fill="rgb(82, 57, 41)"  x="11" y="15" width="1" height="1" /><rect shape-rendering="crispEdges" fill="rgb(115, 90, 74)"  x="11" y="16" width="1" height="1" /><rect shape-rendering="crispEdges" fill="rgb(106, 90, 82)"  x="11" y="17" width="1" height="1" /><rect shape-rendering="crispEdges" fill="rgb(106, 74, 49)"  x="11" y="18" width="1" height="1" /><rect shape-rendering="crispEdges" fill="rgb(139, 90, 57)"  x="11" y="19" width="1" height="1" /><rect shape-rendering="crispEdges" fill="rgb(139, 90, 57)"  x="11" y="20" width="1" height="1" /><rect shape-rendering="crispEdges" fill="rgb(131, 90, 57)"  x="11" y="21" width="1" height="1" /><rect shape-rendering="crispEdges" fill="rgb(98, 57, 41)"  x="11" y="22" width="1" height="1" /><rect shape-rendering="crispEdges" fill="rgb(65, 49, 41)"  x="11" y="23" width="1" height="1" /><rect shape-rendering="crispEdges" fill="rgb(82, 57, 41)"  x="12" y="1" width="1" height="1" /><rect shape-rendering="crispEdges" fill="rgb(90, 57, 41)"  x="12" y="2" width="1" height="1" /><rect shape-rendering="crispEdges" fill="rgb(148, 115, 74)"  x="12" y="3" width="1" height="1" /><rect shape-rendering="crispEdges" fill="rgb(131, 82, 57)"  x="12" y="4" width="1" height="1" /><rect shape-rendering="crispEdges" fill="rgb(131, 90, 57)"  x="12" y="5" width="1" height="1" /><rect shape-rendering="crispEdges" fill="rgb(148, 98, 65)"  x="12" y="6" width="1" height="1" /><rect shape-rendering="crispEdges" fill="rgb(74, 49, 41)"  x="12" y="7" width="1" height="1" /><rect shape-rendering="crispEdges" fill="rgb(74, 41, 32)"  x="12" y="8" width="1" height="1" /><rect shape-rendering="crispEdges" fill="rgb(189, 180, 164)"  x="12" y="9" width="1" height="1" /><rect shape-rendering="crispEdges" fill="rgb(74, 49, 32)"  x="12" y="10" width="1" height="1" /><rect shape-rendering="crispEdges" fill="rgb(65, 32, 24)"  x="12" y="11" width="1" height="1" /><rect shape-rendering="crispEdges" fill="rgb(90, 74, 65)"  x="12" y="12" width="1" height="1" /><rect shape-rendering="crispEdges" fill="rgb(98, 57, 41)"  x="12" y="13" width="1" height="1" /><rect shape-rendering="crispEdges" fill="rgb(115, 82, 65)"  x="12" y="14" width="1" height="1" /><rect shape-rendering="crispEdges" fill="rgb(98, 65, 41)"  x="12" y="15" width="1" height="1" /><rect shape-rendering="crispEdges" fill="rgb(115, 74, 49)"  x="12" y="16" width="1" height="1" /><rect shape-rendering="crispEdges" fill="rgb(123, 74, 49)"  x="12" y="17" width="1" height="1" /><rect shape-rendering="crispEdges" fill="rgb(139, 90, 57)"  x="12" y="18" width="1" height="1" /><rect shape-rendering="crispEdges" fill="rgb(123, 74, 49)"  x="12" y="19" width="1" height="1" /><rect shape-rendering="crispEdges" fill="rgb(131, 82, 57)"  x="12" y="20" width="1" height="1" /><rect shape-rendering="crispEdges" fill="rgb(106, 65, 49)"  x="12" y="21" width="1" height="1" /><rect shape-rendering="crispEdges" fill="rgb(65, 41, 41)"  x="12" y="22" width="1" height="1" /><rect shape-rendering="crispEdges" fill="rgb(82, 57, 41)"  x="13" y="1" width="1" height="1" /><rect shape-rendering="crispEdges" fill="rgb(90, 57, 41)"  x="13" y="2" width="1" height="1" /><rect shape-rendering="crispEdges" fill="rgb(148, 115, 74)"  x="13" y="3" width="1" height="1" /><rect shape-rendering="crispEdges" fill="rgb(123, 82, 57)"  x="13" y="4" width="1" height="1" /><rect shape-rendering="crispEdges" fill="rgb(123, 82, 57)"  x="13" y="5" width="1" height="1" /><rect shape-rendering="crispEdges" fill="rgb(131, 82, 57)"  x="13" y="6" width="1" height="1" /><rect shape-rendering="crispEdges" fill="rgb(74, 49, 41)"  x="13" y="7" width="1" height="1" /><rect shape-rendering="crispEdges" fill="rgb(106, 65, 41)"  x="13" y="8" width="1" height="1" /><rect shape-rendering="crispEdges" fill="rgb(98, 57, 41)"  x="13" y="9" width="1" height="1" /><rect shape-rendering="crispEdges" fill="rgb(123, 74, 49)"  x="13" y="10" width="1" height="1" /><rect shape-rendering="crispEdges" fill="rgb(123, 82, 49)"  x="13" y="11" width="1" height="1" /><rect shape-rendering="crispEdges" fill="rgb(123, 82, 49)"  x="13" y="12" width="1" height="1" /><rect shape-rendering="crispEdges" fill="rgb(131, 82, 57)"  x="13" y="13" width="1" height="1" /><rect shape-rendering="crispEdges" fill="rgb(131, 82, 49)"  x="13" y="14" width="1" height="1" /><rect shape-rendering="crispEdges" fill="rgb(123, 74, 49)"  x="13" y="15" width="1" height="1" /><rect shape-rendering="crispEdges" fill="rgb(123, 82, 49)"  x="13" y="16" width="1" height="1" /><rect shape-rendering="crispEdges" fill="rgb(131, 82, 57)"  x="13" y="17" width="1" height="1" /><rect shape-rendering="crispEdges" fill="rgb(156, 106, 65)"  x="13" y="18" width="1" height="1" /><rect shape-rendering="crispEdges" fill="rgb(115, 74, 49)"  x="13" y="19" width="1" height="1" /><rect shape-rendering="crispEdges" fill="rgb(115, 74, 49)"  x="13" y="20" width="1" height="1" /><rect shape-rendering="crispEdges" fill="rgb(90, 57, 41)"  x="13" y="21" width="1" height="1" /><rect shape-rendering="crispEdges" fill="rgb(32, 16, 16)"  x="13" y="22" width="1" height="1" /><rect shape-rendering="crispEdges" fill="rgb(24, 16, 16)"  x="13" y="23" width="1" height="1" /><rect shape-rendering="crispEdges" fill="rgb(49, 32, 24)"  x="13" y="24" width="1" height="1" /><rect shape-rendering="crispEdges" fill="rgb(82, 57, 41)"  x="14" y="1" width="1" height="1" /><rect shape-rendering="crispEdges" fill="rgb(90, 57, 41)"  x="14" y="2" width="1" height="1" /><rect shape-rendering="crispEdges" fill="rgb(148, 115, 74)"  x="14" y="3" width="1" height="1" /><rect shape-rendering="crispEdges" fill="rgb(131, 82, 57)"  x="14" y="4" width="1" height="1" /><rect shape-rendering="crispEdges" fill="rgb(131, 82, 57)"  x="14" y="5" width="1" height="1" /><rect shape-rendering="crispEdges" fill="rgb(131, 82, 57)"  x="14" y="6" width="1" height="1" /><rect shape-rendering="crispEdges" fill="rgb(82, 49, 41)"  x="14" y="7" width="1" height="1" /><rect shape-rendering="crispEdges" fill="rgb(115, 74, 49)"  x="14" y="8" width="1" height="1" /><rect shape-rendering="crispEdges" fill="rgb(115, 74, 49)"  x="14" y="9" width="1" height="1" /><rect shape-rendering="crispEdges" fill="rgb(123, 82, 49)"  x="14" y="10" width="1" height="1" /><rect shape-rendering="crispEdges" fill="rgb(131, 82, 57)"  x="14" y="11" width="1" height="1" /><rect shape-rendering="crispEdges" fill="rgb(139, 82, 57)"  x="14" y="12" width="1" height="1" /><rect shape-rendering="crispEdges" fill="rgb(139, 90, 57)"  x="14" y="13" width="1" height="1" /><rect shape-rendering="crispEdges" fill="rgb(131, 82, 57)"  x="14" y="14" width="1" height="1" /><rect shape-rendering="crispEdges" fill="rgb(123, 82, 49)"  x="14" y="15" width="1" height="1" /><rect shape-rendering="crispEdges" fill="rgb(123, 82, 57)"  x="14" y="16" width="1" height="1" /><rect shape-rendering="crispEdges" fill="rgb(131, 82, 57)"  x="14" y="17" width="1" height="1" /><rect shape-rendering="crispEdges" fill="rgb(139, 90, 57)"  x="14" y="18" width="1" height="1" /><rect shape-rendering="crispEdges" fill="rgb(123, 74, 49)"  x="14" y="19" width="1" height="1" /><rect shape-rendering="crispEdges" fill="rgb(115, 74, 49)"  x="14" y="20" width="1" height="1" /><rect shape-rendering="crispEdges" fill="rgb(74, 49, 41)"  x="14" y="21" width="1" height="1" /><rect shape-rendering="crispEdges" fill="rgb(32, 24, 16)"  x="14" y="22" width="1" height="1" /><rect shape-rendering="crispEdges" fill="rgb(57, 41, 32)"  x="14" y="23" width="1" height="1" /><rect shape-rendering="crispEdges" fill="rgb(41, 24, 24)"  x="14" y="24" width="1" height="1" /><rect shape-rendering="crispEdges" fill="rgb(82, 57, 41)"  x="15" y="1" width="1" height="1" /><rect shape-rendering="crispEdges" fill="rgb(98, 65, 49)"  x="15" y="2" width="1" height="1" /><rect shape-rendering="crispEdges" fill="rgb(148, 115, 74)"  x="15" y="3" width="1" height="1" /><rect shape-rendering="crispEdges" fill="rgb(131, 82, 57)"  x="15" y="4" width="1" height="1" /><rect shape-rendering="crispEdges" fill="rgb(139, 90, 57)"  x="15" y="5" width="1" height="1" /><rect shape-rendering="crispEdges" fill="rgb(131, 90, 57)"  x="15" y="6" width="1" height="1" /><rect shape-rendering="crispEdges" fill="rgb(82, 57, 41)"  x="15" y="7" width="1" height="1" /><rect shape-rendering="crispEdges" fill="rgb(115, 74, 49)"  x="15" y="8" width="1" height="1" /><rect shape-rendering="crispEdges" fill="rgb(123, 82, 49)"  x="15" y="9" width="1" height="1" /><rect shape-rendering="crispEdges" fill="rgb(139, 90, 57)"  x="15" y="10" width="1" height="1" /><rect shape-rendering="crispEdges" fill="rgb(148, 98, 57)"  x="15" y="11" width="1" height="1" /><rect shape-rendering="crispEdges" fill="rgb(139, 90, 57)"  x="15" y="12" width="1" height="1" /><rect shape-rendering="crispEdges" fill="rgb(139, 90, 57)"  x="15" y="13" width="1" height="1" /><rect shape-rendering="crispEdges" fill="rgb(139, 90, 57)"  x="15" y="14" width="1" height="1" /><rect shape-rendering="crispEdges" fill="rgb(148, 98, 65)"  x="15" y="18" width="1" height="1" /><rect shape-rendering="crispEdges" fill="rgb(139, 90, 57)"  x="15" y="19" width="1" height="1" /><rect shape-rendering="crispEdges" fill="rgb(131, 90, 57)"  x="15" y="20" width="1" height="1" /><rect shape-rendering="crispEdges" fill="rgb(82, 57, 49)"  x="15" y="21" width="1" height="1" /><rect shape-rendering="crispEdges" fill="rgb(65, 41, 32)"  x="15" y="22" width="1" height="1" /><rect shape-rendering="crispEdges" fill="rgb(82, 57, 41)"  x="16" y="1" width="1" height="1" /><rect shape-rendering="crispEdges" fill="rgb(98, 65, 49)"  x="16" y="2" width="1" height="1" /><rect shape-rendering="crispEdges" fill="rgb(148, 115, 74)"  x="16" y="3" width="1" height="1" /><rect shape-rendering="crispEdges" fill="rgb(123, 82, 57)"  x="16" y="4" width="1" height="1" /><rect shape-rendering="crispEdges" fill="rgb(131, 82, 57)"  x="16" y="5" width="1" height="1" /><rect shape-rendering="crispEdges" fill="rgb(106, 74, 49)"  x="16" y="6" width="1" height="1" /><rect shape-rendering="crispEdges" fill="rgb(82, 57, 41)"  x="16" y="7" width="1" height="1" /><rect shape-rendering="crispEdges" fill="rgb(115, 74, 49)"  x="16" y="8" width="1" height="1" /><rect shape-rendering="crispEdges" fill="rgb(139, 90, 57)"  x="16" y="9" width="1" height="1" /><rect shape-rendering="crispEdges" fill="rgb(139, 98, 65)"  x="16" y="10" width="1" height="1" /><rect shape-rendering="crispEdges" fill="rgb(106, 74, 49)"  x="17" y="1" width="1" height="1" /><rect shape-rendering="crispEdges" fill="rgb(98, 65, 49)"  x="17" y="2" width="1" height="1" /><rect shape-rendering="crispEdges" fill="rgb(90, 65, 49)"  x="17" y="3" width="1" height="1" /><rect shape-rendering="crispEdges" fill="rgb(90, 65, 49)"  x="17" y="4" width="1" height="1" /><rect shape-rendering="crispEdges" fill="rgb(98, 65, 49)"  x="17" y="5" width="1" height="1" /><rect shape-rendering="crispEdges" fill="rgb(90, 65, 41)"  x="17" y="6" width="1" height="1" /><rect shape-rendering="crispEdges" fill="rgb(139, 98, 65)"  x="17" y="7" width="1" height="1" /><rect shape-rendering="crispEdges" fill="rgb(148, 106, 65)"  x="18" y="0" width="1" height="1" /><rect shape-rendering="crispEdges" fill="rgb(148, 106, 65)"  x="18" y="1" width="1" height="1" /><rect shape-rendering="crispEdges" fill="rgb(148, 98, 65)"  x="18" y="2" width="1" height="1" /><rect shape-rendering="crispEdges" fill="rgb(148, 98, 57)"  x="18" y="3" width="1" height="1" /><rect shape-rendering="crispEdges" fill="rgb(148, 98, 65)"  x="18" y="4" width="1" height="1" /><rect shape-rendering="crispEdges" fill="rgb(148, 98, 57)"  x="18" y="5" width="1" height="1" /><rect shape-rendering="crispEdges" fill="rgb(74, 49, 41)"  x="18" y="6" width="1" height="1" /><rect shape-rendering="crispEdges" fill="rgb(98, 74, 49)"  x="18" y="7" width="1" height="1" /><rect shape-rendering="crispEdges" fill="rgb(74, 49, 41)"  x="19" y="0" width="1" height="1" /><rect shape-rendering="crispEdges" fill="rgb(74, 49, 41)"  x="19" y="1" width="1" height="1" /><rect shape-rendering="crispEdges" fill="rgb(74, 49, 41)"  x="19" y="2" width="1" height="1" /><rect shape-rendering="crispEdges" fill="rgb(82, 57, 41)"  x="19" y="3" width="1" height="1" /><rect shape-rendering="crispEdges" fill="rgb(74, 49, 41)"  x="19" y="4" width="1" height="1" /><rect shape-rendering="crispEdges" fill="rgb(74, 57, 41)"  x="19" y="5" width="1" height="1" /><rect shape-rendering="crispEdges" fill="rgb(82, 57, 41)"  x="19" y="6" width="1" height="1" /><rect shape-rendering="crispEdges" fill="rgb(98, 74, 49)"  x="19" y="7" width="1" height="1" /><rect shape-rendering="crispEdges" fill="rgb(74, 57, 41)"  x="20" y="1" width="1" height="1" /><rect shape-rendering="crispEdges" fill="rgb(57, 41, 32)"  x="20" y="2" width="1" height="1" /><rect shape-rendering="crispEdges" fill="rgb(74, 49, 32)"  x="20" y="3" width="1" height="1" /><rect shape-rendering="crispEdges" fill="rgb(98, 57, 41)"  x="20" y="4" width="1" height="1" /><rect shape-rendering="crispEdges" fill="rgb(82, 49, 41)"  x="20" y="5" width="1" height="1" /><rect shape-rendering="crispEdges" fill="rgb(115, 106, 98)"  x="20" y="6" width="1" height="1" /><rect shape-rendering="crispEdges" fill="rgb(74, 49, 32)"  x="20" y="7" width="1" height="1" /><rect shape-rendering="crispEdges" fill="rgb(106, 74, 49)"  x="20" y="8" width="1" height="1" /><rect shape-rendering="crispEdges" fill="rgb(106, 90, 74)"  x="20" y="9" width="1" height="1" /><rect shape-rendering="crispEdges" fill="rgb(131, 90, 57)"  x="20" y="10" width="1" height="1" /><rect shape-rendering="crispEdges" fill="rgb(123, 90, 57)"  x="20" y="26" width="1" height="1" /><rect shape-rendering="crispEdges" fill="rgb(123, 82, 49)"  x="20" y="27" width="1" height="1" /><rect shape-rendering="crispEdges" fill="rgb(115, 74, 49)"  x="20" y="28" width="1" height="1" /><rect shape-rendering="crispEdges" fill="rgb(57, 41, 41)"  x="20" y="29" width="1" height="1" /><rect shape-rendering="crispEdges" fill="rgb(82, 57, 41)"  x="21" y="0" width="1" height="1" /><rect shape-rendering="crispEdges" fill="rgb(65, 41, 32)"  x="21" y="1" width="1" height="1" /><rect shape-rendering="crispEdges" fill="rgb(57, 41, 32)"  x="21" y="2" width="1" height="1" /><rect shape-rendering="crispEdges" fill="rgb(57, 32, 32)"  x="21" y="3" width="1" height="1" /><rect shape-rendering="crispEdges" fill="rgb(49, 32, 24)"  x="21" y="4" width="1" height="1" /><rect shape-rendering="crispEdges" fill="rgb(131, 123, 106)"  x="21" y="5" width="1" height="1" /><rect shape-rendering="crispEdges" fill="rgb(156, 148, 131)"  x="21" y="6" width="1" height="1" /><rect shape-rendering="crispEdges" fill="rgb(90, 49, 32)"  x="21" y="7" width="1" height="1" /><rect shape-rendering="crispEdges" fill="rgb(82, 57, 49)"  x="21" y="8" width="1" height="1" /><rect shape-rendering="crispEdges" fill="rgb(82, 74, 65)"  x="21" y="9" width="1" height="1" /><rect shape-rendering="crispEdges" fill="rgb(82, 57, 41)"  x="21" y="10" width="1" height="1" /><rect shape-rendering="crispEdges" fill="rgb(74, 49, 32)"  x="21" y="11" width="1" height="1" /><rect shape-rendering="crispEdges" fill="rgb(106, 90, 74)"  x="21" y="12" width="1" height="1" /><rect shape-rendering="crispEdges" fill="rgb(148, 98, 65)"  x="21" y="24" width="1" height="1" /><rect shape-rendering="crispEdges" fill="rgb(115, 74, 49)"  x="21" y="25" width="1" height="1" /><rect shape-rendering="crispEdges" fill="rgb(148, 98, 57)"  x="21" y="26" width="1" height="1" /><rect shape-rendering="crispEdges" fill="rgb(148, 98, 65)"  x="21" y="27" width="1" height="1" /><rect shape-rendering="crispEdges" fill="rgb(115, 74, 49)"  x="21" y="28" width="1" height="1" /><rect shape-rendering="crispEdges" fill="rgb(82, 57, 41)"  x="21" y="29" width="1" height="1" /><rect shape-rendering="crispEdges" fill="rgb(57, 41, 41)"  x="21" y="30" width="1" height="1" /><rect shape-rendering="crispEdges" fill="rgb(148, 115, 74)"  x="22" y="0" width="1" height="1" /><rect shape-rendering="crispEdges" fill="rgb(148, 115, 74)"  x="22" y="1" width="1" height="1" /><rect shape-rendering="crispEdges" fill="rgb(82, 57, 41)"  x="22" y="2" width="1" height="1" /><rect shape-rendering="crispEdges" fill="rgb(82, 57, 41)"  x="22" y="3" width="1" height="1" /><rect shape-rendering="crispEdges" fill="rgb(74, 41, 32)"  x="22" y="4" width="1" height="1" /><rect shape-rendering="crispEdges" fill="rgb(197, 189, 172)"  x="22" y="5" width="1" height="1" /><rect shape-rendering="crispEdges" fill="rgb(205, 197, 189)"  x="22" y="6" width="1" height="1" /><rect shape-rendering="crispEdges" fill="rgb(32, 24, 16)"  x="22" y="7" width="1" height="1" /><rect shape-rendering="crispEdges" fill="rgb(213, 205, 197)"  x="22" y="8" width="1" height="1" /><rect shape-rendering="crispEdges" fill="rgb(222, 222, 205)"  x="22" y="9" width="1" height="1" /><rect shape-rendering="crispEdges" fill="rgb(74, 41, 32)"  x="22" y="10" width="1" height="1" /><rect shape-rendering="crispEdges" fill="rgb(115, 82, 57)"  x="22" y="11" width="1" height="1" /><rect shape-rendering="crispEdges" fill="rgb(148, 139, 123)"  x="22" y="12" width="1" height="1" /><rect shape-rendering="crispEdges" fill="rgb(74, 41, 32)"  x="22" y="13" width="1" height="1" /><rect shape-rendering="crispEdges" fill="rgb(82, 49, 41)"  x="22" y="14" width="1" height="1" /><rect shape-rendering="crispEdges" fill="rgb(106, 90, 74)"  x="22" y="15" width="1" height="1" /><rect shape-rendering="crispEdges" fill="rgb(115, 74, 41)"  x="22" y="22" width="1" height="1" /><rect shape-rendering="crispEdges" fill="rgb(115, 74, 41)"  x="22" y="23" width="1" height="1" /><rect shape-rendering="crispEdges" fill="rgb(156, 115, 65)"  x="22" y="24" width="1" height="1" /><rect shape-rendering="crispEdges" fill="rgb(172, 131, 74)"  x="22" y="25" width="1" height="1" /><rect shape-rendering="crispEdges" fill="rgb(139, 106, 57)"  x="22" y="26" width="1" height="1" /><rect shape-rendering="crispEdges" fill="rgb(115, 82, 57)"  x="22" y="27" width="1" height="1" /><rect shape-rendering="crispEdges" fill="rgb(98, 65, 49)"  x="22" y="28" width="1" height="1" /><rect shape-rendering="crispEdges" fill="rgb(98, 65, 49)"  x="22" y="29" width="1" height="1" /><rect shape-rendering="crispEdges" fill="rgb(82, 57, 49)"  x="22" y="30" width="1" height="1" /><rect shape-rendering="crispEdges" fill="rgb(139, 98, 57)"  x="23" y="0" width="1" height="1" /><rect shape-rendering="crispEdges" fill="rgb(139, 98, 57)"  x="23" y="1" width="1" height="1" /><rect shape-rendering="crispEdges" fill="rgb(148, 115, 74)"  x="23" y="2" width="1" height="1" /><rect shape-rendering="crispEdges" fill="rgb(148, 115, 74)"  x="23" y="3" width="1" height="1" /><rect shape-rendering="crispEdges" fill="rgb(82, 57, 41)"  x="23" y="4" width="1" height="1" /><rect shape-rendering="crispEdges" fill="rgb(115, 90, 74)"  x="23" y="5" width="1" height="1" /><rect shape-rendering="crispEdges" fill="rgb(106, 90, 74)"  x="23" y="6" width="1" height="1" /><rect shape-rendering="crispEdges" fill="rgb(98, 57, 32)"  x="23" y="7" width="1" height="1" /><rect shape-rendering="crispEdges" fill="rgb(172, 164, 148)"  x="23" y="8" width="1" height="1" /><rect shape-rendering="crispEdges" fill="rgb(139, 123, 106)"  x="23" y="9" width="1" height="1" /><rect shape-rendering="crispEdges" fill="rgb(65, 41, 32)"  x="23" y="10" width="1" height="1" /><rect shape-rendering="crispEdges" fill="rgb(148, 139, 131)"  x="23" y="11" width="1" height="1" /><rect shape-rendering="crispEdges" fill="rgb(222, 213, 205)"  x="23" y="12" width="1" height="1" /><rect shape-rendering="crispEdges" fill="rgb(57, 32, 24)"  x="23" y="13" width="1" height="1" /><rect shape-rendering="crispEdges" fill="rgb(98, 74, 57)"  x="23" y="14" width="1" height="1" /><rect shape-rendering="crispEdges" fill="rgb(180, 172, 164)"  x="23" y="15" width="1" height="1" /><rect shape-rendering="crispEdges" fill="rgb(74, 41, 24)"  x="23" y="16" width="1" height="1" /><rect shape-rendering="crispEdges" fill="rgb(106, 98, 82)"  x="23" y="17" width="1" height="1" /><rect shape-rendering="crispEdges" fill="rgb(74, 49, 32)"  x="23" y="18" width="1" height="1" /><rect shape-rendering="crispEdges" fill="rgb(82, 57, 41)"  x="23" y="19" width="1" height="1" /><rect shape-rendering="crispEdges" fill="rgb(139, 123, 115)"  x="23" y="20" width="1" height="1" /><rect shape-rendering="crispEdges" fill="rgb(57, 32, 24)"  x="23" y="21" width="1" height="1" /><rect shape-rendering="crispEdges" fill="rgb(156, 148, 131)"  x="23" y="22" width="1" height="1" /><rect shape-rendering="crispEdges" fill="rgb(90, 57, 32)"  x="23" y="23" width="1" height="1" /><rect shape-rendering="crispEdges" fill="rgb(106, 74, 49)"  x="23" y="24" width="1" height="1" /><rect shape-rendering="crispEdges" fill="rgb(106, 65, 49)"  x="23" y="25" width="1" height="1" /><rect shape-rendering="crispEdges" fill="rgb(106, 65, 49)"  x="23" y="26" width="1" height="1" /><rect shape-rendering="crispEdges" fill="rgb(115, 74, 57)"  x="23" y="27" width="1" height="1" /><rect shape-rendering="crispEdges" fill="rgb(98, 65, 49)"  x="23" y="28" width="1" height="1" /><rect shape-rendering="crispEdges" fill="rgb(98, 65, 41)"  x="23" y="29" width="1" height="1" /><rect shape-rendering="crispEdges" fill="rgb(74, 49, 49)"  x="23" y="30" width="1" height="1" /><rect shape-rendering="crispEdges" fill="rgb(131, 90, 57)"  x="24" y="0" width="1" height="1" /><rect shape-rendering="crispEdges" fill="rgb(131, 90, 57)"  x="24" y="1" width="1" height="1" /><rect shape-rendering="crispEdges" fill="rgb(139, 90, 57)"  x="24" y="2" width="1" height="1" /><rect shape-rendering="crispEdges" fill="rgb(139, 98, 57)"  x="24" y="3" width="1" height="1" /><rect shape-rendering="crispEdges" fill="rgb(148, 106, 65)"  x="24" y="4" width="1" height="1" /><rect shape-rendering="crispEdges" fill="rgb(74, 49, 32)"  x="24" y="5" width="1" height="1" /><rect shape-rendering="crispEdges" fill="rgb(82, 57, 41)"  x="24" y="6" width="1" height="1" /><rect shape-rendering="crispEdges" fill="rgb(74, 41, 32)"  x="24" y="7" width="1" height="1" /><rect shape-rendering="crispEdges" fill="rgb(164, 156, 148)"  x="24" y="8" width="1" height="1" /><rect shape-rendering="crispEdges" fill="rgb(49, 24, 24)"  x="24" y="9" width="1" height="1" /><rect shape-rendering="crispEdges" fill="rgb(98, 65, 41)"  x="24" y="10" width="1" height="1" /><rect shape-rendering="crispEdges" fill="rgb(123, 106, 90)"  x="24" y="11" width="1" height="1" /><rect shape-rendering="crispEdges" fill="rgb(131, 115, 106)"  x="24" y="12" width="1" height="1" /><rect shape-rendering="crispEdges" fill="rgb(90, 49, 32)"  x="24" y="13" width="1" height="1" /><rect shape-rendering="crispEdges" fill="rgb(115, 90, 74)"  x="24" y="14" width="1" height="1" /><rect shape-rendering="crispEdges" fill="rgb(213, 205, 197)"  x="24" y="15" width="1" height="1" /><rect shape-rendering="crispEdges" fill="rgb(49, 32, 24)"  x="24" y="16" width="1" height="1" /><rect shape-rendering="crispEdges" fill="rgb(222, 213, 205)"  x="24" y="17" width="1" height="1" /><rect shape-rendering="crispEdges" fill="rgb(41, 24, 16)"  x="24" y="18" width="1" height="1" /><rect shape-rendering="crispEdges" fill="rgb(90, 65, 41)"  x="24" y="19" width="1" height="1" /><rect shape-rendering="crispEdges" fill="rgb(222, 222, 213)"  x="24" y="20" width="1" height="1" /><rect shape-rendering="crispEdges" fill="rgb(41, 24, 16)"  x="24" y="21" width="1" height="1" /><rect shape-rendering="crispEdges" fill="rgb(230, 222, 213)"  x="24" y="22" width="1" height="1" /><rect shape-rendering="crispEdges" fill="rgb(98, 65, 32)"  x="24" y="23" width="1" height="1" /><rect shape-rendering="crispEdges" fill="rgb(123, 90, 57)"  x="24" y="24" width="1" height="1" /><rect shape-rendering="crispEdges" fill="rgb(115, 74, 57)"  x="24" y="25" width="1" height="1" /><rect shape-rendering="crispEdges" fill="rgb(115, 82, 57)"  x="24" y="26" width="1" height="1" /><rect shape-rendering="crispEdges" fill="rgb(123, 82, 57)"  x="24" y="27" width="1" height="1" /><rect shape-rendering="crispEdges" fill="rgb(106, 74, 49)"  x="24" y="28" width="1" height="1" /><rect shape-rendering="crispEdges" fill="rgb(98, 65, 41)"  x="24" y="29" width="1" height="1" /><rect shape-rendering="crispEdges" fill="rgb(74, 49, 49)"  x="24" y="30" width="1" height="1" /><rect shape-rendering="crispEdges" fill="rgb(131, 90, 57)"  x="25" y="0" width="1" height="1" /><rect shape-rendering="crispEdges" fill="rgb(131, 90, 57)"  x="25" y="1" width="1" height="1" /><rect shape-rendering="crispEdges" fill="rgb(131, 90, 57)"  x="25" y="2" width="1" height="1" /><rect shape-rendering="crispEdges" fill="rgb(131, 82, 57)"  x="25" y="3" width="1" height="1" /><rect shape-rendering="crispEdges" fill="rgb(106, 74, 49)"  x="25" y="4" width="1" height="1" /><rect shape-rendering="crispEdges" fill="rgb(74, 49, 41)"  x="25" y="5" width="1" height="1" /><rect shape-rendering="crispEdges" fill="rgb(82, 57, 41)"  x="25" y="6" width="1" height="1" /><rect shape-rendering="crispEdges" fill="rgb(98, 65, 41)"  x="25" y="7" width="1" height="1" /><rect shape-rendering="crispEdges" fill="rgb(98, 57, 32)"  x="25" y="8" width="1" height="1" /><rect shape-rendering="crispEdges" fill="rgb(106, 65, 41)"  x="25" y="9" width="1" height="1" /><rect shape-rendering="crispEdges" fill="rgb(98, 57, 41)"  x="25" y="10" width="1" height="1" /><rect shape-rendering="crispEdges" fill="rgb(148, 131, 106)"  x="25" y="11" width="1" height="1" /><rect shape-rendering="crispEdges" fill="rgb(74, 49, 41)"  x="25" y="12" width="1" height="1" /><rect shape-rendering="crispEdges" fill="rgb(98, 65, 49)"  x="25" y="13" width="1" height="1" /><rect shape-rendering="crispEdges" fill="rgb(74, 49, 41)"  x="25" y="14" width="1" height="1" /><rect shape-rendering="crispEdges" fill="rgb(106, 98, 82)"  x="25" y="15" width="1" height="1" /><rect shape-rendering="crispEdges" fill="rgb(65, 41, 32)"  x="25" y="16" width="1" height="1" /><rect shape-rendering="crispEdges" fill="rgb(156, 148, 131)"  x="25" y="17" width="1" height="1" /><rect shape-rendering="crispEdges" fill="rgb(74, 41, 24)"  x="25" y="18" width="1" height="1" /><rect shape-rendering="crispEdges" fill="rgb(90, 57, 41)"  x="25" y="19" width="1" height="1" /><rect shape-rendering="crispEdges" fill="rgb(180, 172, 156)"  x="25" y="20" width="1" height="1" /><rect shape-rendering="crispEdges" fill="rgb(82, 41, 24)"  x="25" y="21" width="1" height="1" /><rect shape-rendering="crispEdges" fill="rgb(139, 115, 98)"  x="25" y="22" width="1" height="1" /><rect shape-rendering="crispEdges" fill="rgb(57, 49, 41)"  x="25" y="23" width="1" height="1" /><rect shape-rendering="crispEdges" fill="rgb(106, 74, 49)"  x="25" y="24" width="1" height="1" /><rect shape-rendering="crispEdges" fill="rgb(164, 123, 74)"  x="25" y="25" width="1" height="1" /><rect shape-rendering="crispEdges" fill="rgb(164, 123, 74)"  x="25" y="26" width="1" height="1" /><rect shape-rendering="crispEdges" fill="rgb(156, 115, 65)"  x="25" y="27" width="1" height="1" /><rect shape-rendering="crispEdges" fill="rgb(115, 74, 49)"  x="25" y="28" width="1" height="1" /><rect shape-rendering="crispEdges" fill="rgb(98, 74, 49)"  x="25" y="29" width="1" height="1" /><rect shape-rendering="crispEdges" fill="rgb(65, 41, 41)"  x="25" y="30" width="1" height="1" /><rect shape-rendering="crispEdges" fill="rgb(148, 106, 65)"  x="26" y="2" width="1" height="1" /><rect shape-rendering="crispEdges" fill="rgb(148, 106, 65)"  x="26" y="3" width="1" height="1" /><rect shape-rendering="crispEdges" fill="rgb(123, 82, 57)"  x="26" y="4" width="1" height="1" /><rect shape-rendering="crispEdges" fill="rgb(82, 57, 41)"  x="26" y="5" width="1" height="1" /><rect shape-rendering="crispEdges" fill="rgb(90, 65, 41)"  x="26" y="11" width="1" height="1" /><rect shape-rendering="crispEdges" fill="rgb(98, 65, 41)"  x="26" y="12" width="1" height="1" /><rect shape-rendering="crispEdges" fill="rgb(98, 65, 41)"  x="26" y="13" width="1" height="1" /><rect shape-rendering="crispEdges" fill="rgb(98, 65, 41)"  x="26" y="14" width="1" height="1" /><rect shape-rendering="crispEdges" fill="rgb(115, 74, 49)"  x="26" y="15" width="1" height="1" /><rect shape-rendering="crispEdges" fill="rgb(131, 82, 57)"  x="26" y="16" width="1" height="1" /><rect shape-rendering="crispEdges" fill="rgb(131, 106, 90)"  x="26" y="17" width="1" height="1" /><rect shape-rendering="crispEdges" fill="rgb(90, 57, 32)"  x="26" y="18" width="1" height="1" /><rect shape-rendering="crispEdges" fill="rgb(98, 65, 41)"  x="26" y="19" width="1" height="1" /><rect shape-rendering="crispEdges" fill="rgb(139, 123, 115)"  x="26" y="20" width="1" height="1" /><rect shape-rendering="crispEdges" fill="rgb(74, 41, 24)"  x="26" y="21" width="1" height="1" /><rect shape-rendering="crispEdges" fill="rgb(98, 57, 32)"  x="26" y="22" width="1" height="1" /><rect shape-rendering="crispEdges" fill="rgb(90, 65, 49)"  x="26" y="23" width="1" height="1" /><rect shape-rendering="crispEdges" fill="rgb(156, 106, 65)"  x="26" y="24" width="1" height="1" /><rect shape-rendering="crispEdges" fill="rgb(156, 115, 65)"  x="26" y="25" width="1" height="1" /><rect shape-rendering="crispEdges" fill="rgb(156, 115, 65)"  x="26" y="26" width="1" height="1" /><rect shape-rendering="crispEdges" fill="rgb(148, 106, 57)"  x="26" y="27" width="1" height="1" /><rect shape-rendering="crispEdges" fill="rgb(115, 74, 49)"  x="26" y="28" width="1" height="1" /><rect shape-rendering="crispEdges" fill="rgb(74, 49, 41)"  x="26" y="29" width="1" height="1" /><rect shape-rendering="crispEdges" fill="rgb(74, 49, 41)"  x="26" y="30" width="1" height="1" /><rect shape-rendering="crispEdges" fill="rgb(115, 82, 49)"  x="27" y="17" width="1" height="1" /><rect shape-rendering="crispEdges" fill="rgb(131, 90, 57)"  x="27" y="18" width="1" height="1" /><rect shape-rendering="crispEdges" fill="rgb(115, 74, 49)"  x="27" y="19" width="1" height="1" /><rect shape-rendering="crispEdges" fill="rgb(115, 74, 49)"  x="27" y="20" width="1" height="1" /><rect shape-rendering="crispEdges" fill="rgb(148, 98, 57)"  x="27" y="21" width="1" height="1" /><rect shape-rendering="crispEdges" fill="rgb(148, 98, 57)"  x="27" y="22" width="1" height="1" /><rect shape-rendering="crispEdges" fill="rgb(156, 98, 65)"  x="27" y="23" width="1" height="1" /><rect shape-rendering="crispEdges" fill="rgb(156, 98, 65)"  x="27" y="24" width="1" height="1" /><rect shape-rendering="crispEdges" fill="rgb(156, 106, 65)"  x="27" y="25" width="1" height="1" /><rect shape-rendering="crispEdges" fill="rgb(156, 106, 65)"  x="27" y="26" width="1" height="1" /><rect shape-rendering="crispEdges" fill="rgb(139, 98, 57)"  x="27" y="27" width="1" height="1" /><rect shape-rendering="crispEdges" fill="rgb(98, 57, 41)"  x="27" y="28" width="1" height="1" /><rect shape-rendering="crispEdges" fill="rgb(57, 41, 41)"  x="27" y="29" width="1" height="1" /><rect shape-rendering="crispEdges" fill="rgb(123, 82, 57)"  x="28" y="21" width="1" height="1" /><rect shape-rendering="crispEdges" fill="rgb(115, 74, 49)"  x="28" y="22" width="1" height="1" /><rect shape-rendering="crispEdges" fill="rgb(82, 57, 41)"  x="28" y="23" width="1" height="1" /><rect shape-rendering="crispEdges" fill="rgb(98, 65, 49)"  x="28" y="24" width="1" height="1" /><rect shape-rendering="crispEdges" fill="rgb(106, 74, 49)"  x="28" y="25" width="1" height="1" /><rect shape-rendering="crispEdges" fill="rgb(115, 74, 49)"  x="28" y="26" width="1" height="1" /><rect shape-rendering="crispEdges" fill="rgb(74, 49, 41)"  x="28" y="27" width="1" height="1" /><rect shape-rendering="crispEdges" fill="rgb(57, 41, 32)"  x="28" y="28" width="1" height="1" /></svg>