<svg xmlns="http://www.w3.org/2000/svg" xmlns:xlink= "http://www.w3.org/1999/xlink" width="32" height="32" viewBox ="0 0 32 32"><rect shape-rendering="crispEdges" fill="rgb(32, 57, 41)"  x="2" y="15" width="1" height="1" /><rect shape-rendering="crispEdges" fill="rgb(32, 57, 41)"  x="2" y="16" width="1" height="1" /><rect shape-rendering="crispEdges" fill="rgb(32, 57, 41)"  x="2" y="17" width="1" height="1" /><rect shape-rendering="crispEdges" fill="rgb(16, 32, 16)"  x="2" y="18" width="1" height="1" /><rect shape-rendering="crispEdges" fill="rgb(16, 32, 16)"  x="2" y="19" width="1" height="1" /><rect shape-rendering="crispEdges" fill="rgb(16, 32, 16)"  x="3" y="14" width="1" height="1" /><rect shape-rendering="crispEdges" fill="rgb(74, 156, 98)"  x="3" y="15" width="1" height="1" /><rect shape-rendering="crispEdges" fill="rgb(49, 106, 65)"  x="3" y="16" width="1" height="1" /><rect shape-rendering="crispEdges" fill="rgb(32, 57, 41)"  x="3" y="17" width="1" height="1" /><rect shape-rendering="crispEdges" fill="rgb(32, 57, 41)"  x="3" y="18" width="1" height="1" /><rect shape-rendering="crispEdges" fill="rgb(16, 32, 16)"  x="3" y="19" width="1" height="1" /><rect shape-rendering="crispEdges" fill="rgb(16, 32, 16)"  x="3" y="20" width="1" height="1" /><rect shape-rendering="crispEdges" fill="rgb(16, 32, 16)"  x="3" y="21" width="1" height="1" /><rect shape-rendering="crispEdges" fill="rgb(32, 74, 41)"  x="4" y="12" width="1" height="1" /><rect shape-rendering="crispEdges" fill="rgb(32, 74, 41)"  x="4" y="13" width="1" height="1" /><rect shape-rendering="crispEdges" fill="rgb(49, 123, 74)"  x="4" y="14" width="1" height="1" /><rect shape-rendering="crispEdges" fill="rgb(16, 32, 16)"  x="4" y="15" width="1" height="1" /><rect shape-rendering="crispEdges" fill="rgb(16, 32, 16)"  x="4" y="16" width="1" height="1" /><rect shape-rendering="crispEdges" fill="rgb(41, 98, 57)"  x="4" y="17" width="1" height="1" /><rect shape-rendering="crispEdges" fill="rgb(41, 90, 49)"  x="4" y="18" width="1" height="1" /><rect shape-rendering="crispEdges" fill="rgb(41, 98, 57)"  x="4" y="19" width="1" height="1" /><rect shape-rendering="crispEdges" fill="rgb(41, 115, 65)"  x="4" y="20" width="1" height="1" /><rect shape-rendering="crispEdges" fill="rgb(16, 32, 16)"  x="4" y="21" width="1" height="1" /><rect shape-rendering="crispEdges" fill="rgb(24, 49, 32)"  x="4" y="22" width="1" height="1" /><rect shape-rendering="crispEdges" fill="rgb(32, 74, 41)"  x="5" y="11" width="1" height="1" /><rect shape-rendering="crispEdges" fill="rgb(74, 139, 90)"  x="5" y="12" width="1" height="1" /><rect shape-rendering="crispEdges" fill="rgb(49, 123, 74)"  x="5" y="13" width="1" height="1" /><rect shape-rendering="crispEdges" fill="rgb(24, 49, 32)"  x="5" y="14" width="1" height="1" /><rect shape-rendering="crispEdges" fill="rgb(32, 82, 49)"  x="5" y="15" width="1" height="1" /><rect shape-rendering="crispEdges" fill="rgb(57, 139, 82)"  x="5" y="16" width="1" height="1" /><rect shape-rendering="crispEdges" fill="rgb(57, 123, 74)"  x="5" y="17" width="1" height="1" /><rect shape-rendering="crispEdges" fill="rgb(16, 32, 16)"  x="5" y="18" width="1" height="1" /><rect shape-rendering="crispEdges" fill="rgb(16, 32, 16)"  x="5" y="19" width="1" height="1" /><rect shape-rendering="crispEdges" fill="rgb(16, 32, 16)"  x="5" y="20" width="1" height="1" /><rect shape-rendering="crispEdges" fill="rgb(16, 32, 16)"  x="5" y="21" width="1" height="1" /><rect shape-rendering="crispEdges" fill="rgb(16, 32, 16)"  x="5" y="22" width="1" height="1" /><rect shape-rendering="crispEdges" fill="rgb(49, 90, 57)"  x="5" y="23" width="1" height="1" /><rect shape-rendering="crispEdges" fill="rgb(16, 57, 24)"  x="5" y="24" width="1" height="1" /><rect shape-rendering="crispEdges" fill="rgb(32, 74, 41)"  x="6" y="10" width="1" height="1" /><rect shape-rendering="crispEdges" fill="rgb(49, 106, 65)"  x="6" y="11" width="1" height="1" /><rect shape-rendering="crispEdges" fill="rgb(49, 123, 65)"  x="6" y="12" width="1" height="1" /><rect shape-rendering="crispEdges" fill="rgb(49, 106, 65)"  x="6" y="13" width="1" height="1" /><rect shape-rendering="crispEdges" fill="rgb(74, 131, 90)"  x="6" y="14" width="1" height="1" /><rect shape-rendering="crispEdges" fill="rgb(90, 197, 123)"  x="6" y="15" width="1" height="1" /><rect shape-rendering="crispEdges" fill="rgb(41, 106, 65)"  x="6" y="16" width="1" height="1" /><rect shape-rendering="crispEdges" fill="rgb(16, 32, 16)"  x="6" y="17" width="1" height="1" /><rect shape-rendering="crispEdges" fill="rgb(16, 32, 16)"  x="6" y="18" width="1" height="1" /><rect shape-rendering="crispEdges" fill="rgb(41, 90, 57)"  x="6" y="19" width="1" height="1" /><rect shape-rendering="crispEdges" fill="rgb(16, 32, 16)"  x="6" y="20" width="1" height="1" /><rect shape-rendering="crispEdges" fill="rgb(32, 74, 49)"  x="6" y="21" width="1" height="1" /><rect shape-rendering="crispEdges" fill="rgb(57, 139, 82)"  x="6" y="22" width="1" height="1" /><rect shape-rendering="crispEdges" fill="rgb(16, 32, 16)"  x="6" y="23" width="1" height="1" /><rect shape-rendering="crispEdges" fill="rgb(16, 32, 16)"  x="6" y="24" width="1" height="1" /><rect shape-rendering="crispEdges" fill="rgb(16, 32, 16)"  x="6" y="25" width="1" height="1" /><rect shape-rendering="crispEdges" fill="rgb(32, 74, 41)"  x="7" y="9" width="1" height="1" /><rect shape-rendering="crispEdges" fill="rgb(49, 106, 65)"  x="7" y="10" width="1" height="1" /><rect shape-rendering="crispEdges" fill="rgb(49, 115, 65)"  x="7" y="11" width="1" height="1" /><rect shape-rendering="crispEdges" fill="rgb(57, 148, 82)"  x="7" y="12" width="1" height="1" /><rect shape-rendering="crispEdges" fill="rgb(74, 156, 98)"  x="7" y="13" width="1" height="1" /><rect shape-rendering="crispEdges" fill="rgb(131, 246, 164)"  x="7" y="14" width="1" height="1" /><rect shape-rendering="crispEdges" fill="rgb(65, 139, 90)"  x="7" y="15" width="1" height="1" /><rect shape-rendering="crispEdges" fill="rgb(16, 32, 16)"  x="7" y="16" width="1" height="1" /><rect shape-rendering="crispEdges" fill="rgb(57, 123, 74)"  x="7" y="17" width="1" height="1" /><rect shape-rendering="crispEdges" fill="rgb(57, 123, 82)"  x="7" y="18" width="1" height="1" /><rect shape-rendering="crispEdges" fill="rgb(24, 57, 32)"  x="7" y="19" width="1" height="1" /><rect shape-rendering="crispEdges" fill="rgb(41, 90, 57)"  x="7" y="20" width="1" height="1" /><rect shape-rendering="crispEdges" fill="rgb(16, 32, 16)"  x="7" y="21" width="1" height="1" /><rect shape-rendering="crispEdges" fill="rgb(16, 32, 16)"  x="7" y="22" width="1" height="1" /><rect shape-rendering="crispEdges" fill="rgb(16, 32, 16)"  x="7" y="23" width="1" height="1" /><rect shape-rendering="crispEdges" fill="rgb(57, 131, 82)"  x="7" y="24" width="1" height="1" /><rect shape-rendering="crispEdges" fill="rgb(16, 57, 24)"  x="7" y="25" width="1" height="1" /><rect shape-rendering="crispEdges" fill="rgb(16, 57, 24)"  x="7" y="26" width="1" height="1" /><rect shape-rendering="crispEdges" fill="rgb(32, 74, 41)"  x="8" y="7" width="1" height="1" /><rect shape-rendering="crispEdges" fill="rgb(24, 49, 32)"  x="8" y="8" width="1" height="1" /><rect shape-rendering="crispEdges" fill="rgb(41, 82, 57)"  x="8" y="9" width="1" height="1" /><rect shape-rendering="crispEdges" fill="rgb(49, 131, 74)"  x="8" y="10" width="1" height="1" /><rect shape-rendering="crispEdges" fill="rgb(65, 164, 98)"  x="8" y="11" width="1" height="1" /><rect shape-rendering="crispEdges" fill="rgb(65, 156, 90)"  x="8" y="12" width="1" height="1" /><rect shape-rendering="crispEdges" fill="rgb(74, 172, 106)"  x="8" y="13" width="1" height="1" /><rect shape-rendering="crispEdges" fill="rgb(49, 123, 74)"  x="8" y="14" width="1" height="1" /><rect shape-rendering="crispEdges" fill="rgb(8, 24, 16)"  x="8" y="15" width="1" height="1" /><rect shape-rendering="crispEdges" fill="rgb(49, 115, 74)"  x="8" y="16" width="1" height="1" /><rect shape-rendering="crispEdges" fill="rgb(57, 115, 74)"  x="8" y="17" width="1" height="1" /><rect shape-rendering="crispEdges" fill="rgb(24, 49, 32)"  x="8" y="18" width="1" height="1" /><rect shape-rendering="crispEdges" fill="rgb(65, 139, 82)"  x="8" y="19" width="1" height="1" /><rect shape-rendering="crispEdges" fill="rgb(65, 148, 90)"  x="8" y="20" width="1" height="1" /><rect shape-rendering="crispEdges" fill="rgb(32, 74, 49)"  x="8" y="21" width="1" height="1" /><rect shape-rendering="crispEdges" fill="rgb(32, 74, 41)"  x="8" y="22" width="1" height="1" /><rect shape-rendering="crispEdges" fill="rgb(41, 82, 57)"  x="8" y="23" width="1" height="1" /><rect shape-rendering="crispEdges" fill="rgb(41, 98, 57)"  x="8" y="24" width="1" height="1" /><rect shape-rendering="crispEdges" fill="rgb(65, 164, 98)"  x="8" y="25" width="1" height="1" /><rect shape-rendering="crispEdges" fill="rgb(16, 57, 24)"  x="8" y="26" width="1" height="1" /><rect shape-rendering="crispEdges" fill="rgb(32, 57, 41)"  x="9" y="5" width="1" height="1" /><rect shape-rendering="crispEdges" fill="rgb(32, 74, 41)"  x="9" y="6" width="1" height="1" /><rect shape-rendering="crispEdges" fill="rgb(131, 246, 164)"  x="9" y="7" width="1" height="1" /><rect shape-rendering="crispEdges" fill="rgb(65, 139, 90)"  x="9" y="8" width="1" height="1" /><rect shape-rendering="crispEdges" fill="rgb(32, 65, 41)"  x="9" y="9" width="1" height="1" /><rect shape-rendering="crispEdges" fill="rgb(57, 106, 74)"  x="9" y="10" width="1" height="1" /><rect shape-rendering="crispEdges" fill="rgb(65, 156, 98)"  x="9" y="11" width="1" height="1" /><rect shape-rendering="crispEdges" fill="rgb(65, 156, 90)"  x="9" y="12" width="1" height="1" /><rect shape-rendering="crispEdges" fill="rgb(49, 123, 74)"  x="9" y="13" width="1" height="1" /><rect shape-rendering="crispEdges" fill="rgb(24, 49, 32)"  x="9" y="14" width="1" height="1" /><rect shape-rendering="crispEdges" fill="rgb(57, 115, 74)"  x="9" y="15" width="1" height="1" /><rect shape-rendering="crispEdges" fill="rgb(65, 139, 90)"  x="9" y="16" width="1" height="1" /><rect shape-rendering="crispEdges" fill="rgb(32, 74, 49)"  x="9" y="17" width="1" height="1" /><rect shape-rendering="crispEdges" fill="rgb(74, 156, 98)"  x="9" y="18" width="1" height="1" /><rect shape-rendering="crispEdges" fill="rgb(74, 164, 98)"  x="9" y="19" width="1" height="1" /><rect shape-rendering="crispEdges" fill="rgb(32, 74, 41)"  x="9" y="20" width="1" height="1" /><rect shape-rendering="crispEdges" fill="rgb(49, 106, 65)"  x="9" y="21" width="1" height="1" /><rect shape-rendering="crispEdges" fill="rgb(57, 139, 82)"  x="9" y="22" width="1" height="1" /><rect shape-rendering="crispEdges" fill="rgb(32, 82, 49)"  x="9" y="23" width="1" height="1" /><rect shape-rendering="crispEdges" fill="rgb(32, 82, 49)"  x="9" y="24" width="1" height="1" /><rect shape-rendering="crispEdges" fill="rgb(57, 123, 74)"  x="9" y="25" width="1" height="1" /><rect shape-rendering="crispEdges" fill="rgb(16, 57, 24)"  x="9" y="26" width="1" height="1" /><rect shape-rendering="crispEdges" fill="rgb(32, 57, 41)"  x="10" y="3" width="1" height="1" /><rect shape-rendering="crispEdges" fill="rgb(32, 74, 41)"  x="10" y="4" width="1" height="1" /><rect shape-rendering="crispEdges" fill="rgb(41, 90, 57)"  x="10" y="5" width="1" height="1" /><rect shape-rendering="crispEdges" fill="rgb(41, 90, 57)"  x="10" y="6" width="1" height="1" /><rect shape-rendering="crispEdges" fill="rgb(41, 90, 57)"  x="10" y="7" width="1" height="1" /><rect shape-rendering="crispEdges" fill="rgb(82, 172, 106)"  x="10" y="8" width="1" height="1" /><rect shape-rendering="crispEdges" fill="rgb(57, 115, 74)"  x="10" y="9" width="1" height="1" /><rect shape-rendering="crispEdges" fill="rgb(32, 82, 49)"  x="10" y="10" width="1" height="1" /><rect shape-rendering="crispEdges" fill="rgb(16, 32, 16)"  x="10" y="11" width="1" height="1" /><rect shape-rendering="crispEdges" fill="rgb(49, 115, 74)"  x="10" y="12" width="1" height="1" /><rect shape-rendering="crispEdges" fill="rgb(24, 49, 32)"  x="10" y="13" width="1" height="1" /><rect shape-rendering="crispEdges" fill="rgb(49, 98, 57)"  x="10" y="14" width="1" height="1" /><rect shape-rendering="crispEdges" fill="rgb(131, 246, 164)"  x="10" y="15" width="1" height="1" /><rect shape-rendering="crispEdges" fill="rgb(24, 82, 41)"  x="10" y="16" width="1" height="1" /><rect shape-rendering="crispEdges" fill="rgb(57, 139, 82)"  x="10" y="17" width="1" height="1" /><rect shape-rendering="crispEdges" fill="rgb(74, 172, 106)"  x="10" y="18" width="1" height="1" /><rect shape-rendering="crispEdges" fill="rgb(32, 74, 49)"  x="10" y="19" width="1" height="1" /><rect shape-rendering="crispEdges" fill="rgb(57, 131, 82)"  x="10" y="20" width="1" height="1" /><rect shape-rendering="crispEdges" fill="rgb(74, 180, 106)"  x="10" y="21" width="1" height="1" /><rect shape-rendering="crispEdges" fill="rgb(74, 172, 106)"  x="10" y="22" width="1" height="1" /><rect shape-rendering="crispEdges" fill="rgb(57, 123, 74)"  x="10" y="23" width="1" height="1" /><rect shape-rendering="crispEdges" fill="rgb(49, 106, 65)"  x="10" y="24" width="1" height="1" /><rect shape-rendering="crispEdges" fill="rgb(16, 32, 16)"  x="10" y="25" width="1" height="1" /><rect shape-rendering="crispEdges" fill="rgb(16, 32, 16)"  x="10" y="26" width="1" height="1" /><rect shape-rendering="crispEdges" fill="rgb(16, 57, 24)"  x="10" y="27" width="1" height="1" /><rect shape-rendering="crispEdges" fill="rgb(32, 74, 41)"  x="11" y="3" width="1" height="1" /><rect shape-rendering="crispEdges" fill="rgb(32, 74, 41)"  x="11" y="4" width="1" height="1" /><rect shape-rendering="crispEdges" fill="rgb(41, 90, 57)"  x="11" y="5" width="1" height="1" /><rect shape-rendering="crispEdges" fill="rgb(49, 115, 74)"  x="11" y="6" width="1" height="1" /><rect shape-rendering="crispEdges" fill="rgb(65, 148, 90)"  x="11" y="7" width="1" height="1" /><rect shape-rendering="crispEdges" fill="rgb(49, 115, 74)"  x="11" y="8" width="1" height="1" /><rect shape-rendering="crispEdges" fill="rgb(49, 106, 65)"  x="11" y="9" width="1" height="1" /><rect shape-rendering="crispEdges" fill="rgb(41, 82, 49)"  x="11" y="10" width="1" height="1" /><rect shape-rendering="crispEdges" fill="rgb(16, 32, 16)"  x="11" y="11" width="1" height="1" /><rect shape-rendering="crispEdges" fill="rgb(16, 32, 16)"  x="11" y="12" width="1" height="1" /><rect shape-rendering="crispEdges" fill="rgb(49, 98, 65)"  x="11" y="13" width="1" height="1" /><rect shape-rendering="crispEdges" fill="rgb(74, 164, 106)"  x="11" y="14" width="1" height="1" /><rect shape-rendering="crispEdges" fill="rgb(32, 90, 49)"  x="11" y="15" width="1" height="1" /><rect shape-rendering="crispEdges" fill="rgb(131, 246, 164)"  x="11" y="16" width="1" height="1" /><rect shape-rendering="crispEdges" fill="rgb(74, 164, 98)"  x="11" y="17" width="1" height="1" /><rect shape-rendering="crispEdges" fill="rgb(32, 74, 41)"  x="11" y="18" width="1" height="1" /><rect shape-rendering="crispEdges" fill="rgb(57, 139, 82)"  x="11" y="19" width="1" height="1" /><rect shape-rendering="crispEdges" fill="rgb(82, 205, 123)"  x="11" y="20" width="1" height="1" /><rect shape-rendering="crispEdges" fill="rgb(74, 180, 106)"  x="11" y="21" width="1" height="1" /><rect shape-rendering="crispEdges" fill="rgb(65, 164, 98)"  x="11" y="22" width="1" height="1" /><rect shape-rendering="crispEdges" fill="rgb(49, 123, 74)"  x="11" y="23" width="1" height="1" /><rect shape-rendering="crispEdges" fill="rgb(16, 32, 16)"  x="11" y="24" width="1" height="1" /><rect shape-rendering="crispEdges" fill="rgb(16, 32, 16)"  x="11" y="25" width="1" height="1" /><rect shape-rendering="crispEdges" fill="rgb(49, 106, 65)"  x="11" y="26" width="1" height="1" /><rect shape-rendering="crispEdges" fill="rgb(49, 106, 65)"  x="11" y="27" width="1" height="1" /><rect shape-rendering="crispEdges" fill="rgb(16, 57, 24)"  x="11" y="28" width="1" height="1" /><rect shape-rendering="crispEdges" fill="rgb(32, 74, 41)"  x="12" y="3" width="1" height="1" /><rect shape-rendering="crispEdges" fill="rgb(57, 131, 82)"  x="12" y="4" width="1" height="1" /><rect shape-rendering="crispEdges" fill="rgb(57, 139, 82)"  x="12" y="5" width="1" height="1" /><rect shape-rendering="crispEdges" fill="rgb(65, 148, 90)"  x="12" y="6" width="1" height="1" /><rect shape-rendering="crispEdges" fill="rgb(57, 139, 82)"  x="12" y="7" width="1" height="1" /><rect shape-rendering="crispEdges" fill="rgb(57, 131, 82)"  x="12" y="8" width="1" height="1" /><rect shape-rendering="crispEdges" fill="rgb(41, 98, 57)"  x="12" y="9" width="1" height="1" /><rect shape-rendering="crispEdges" fill="rgb(32, 57, 41)"  x="12" y="10" width="1" height="1" /><rect shape-rendering="crispEdges" fill="rgb(16, 32, 16)"  x="12" y="11" width="1" height="1" /><rect shape-rendering="crispEdges" fill="rgb(49, 98, 65)"  x="12" y="12" width="1" height="1" /><rect shape-rendering="crispEdges" fill="rgb(49, 98, 65)"  x="12" y="13" width="1" height="1" /><rect shape-rendering="crispEdges" fill="rgb(49, 98, 65)"  x="12" y="14" width="1" height="1" /><rect shape-rendering="crispEdges" fill="rgb(57, 139, 82)"  x="12" y="15" width="1" height="1" /><rect shape-rendering="crispEdges" fill="rgb(98, 197, 123)"  x="12" y="16" width="1" height="1" /><rect shape-rendering="crispEdges" fill="rgb(49, 139, 74)"  x="12" y="17" width="1" height="1" /><rect shape-rendering="crispEdges" fill="rgb(41, 131, 65)"  x="12" y="18" width="1" height="1" /><rect shape-rendering="crispEdges" fill="rgb(90, 213, 123)"  x="12" y="19" width="1" height="1" /><rect shape-rendering="crispEdges" fill="rgb(82, 197, 115)"  x="12" y="20" width="1" height="1" /><rect shape-rendering="crispEdges" fill="rgb(82, 197, 115)"  x="12" y="21" width="1" height="1" /><rect shape-rendering="crispEdges" fill="rgb(57, 131, 82)"  x="12" y="22" width="1" height="1" /><rect shape-rendering="crispEdges" fill="rgb(41, 90, 57)"  x="12" y="23" width="1" height="1" /><rect shape-rendering="crispEdges" fill="rgb(41, 98, 57)"  x="12" y="24" width="1" height="1" /><rect shape-rendering="crispEdges" fill="rgb(32, 74, 49)"  x="12" y="25" width="1" height="1" /><rect shape-rendering="crispEdges" fill="rgb(49, 106, 65)"  x="12" y="26" width="1" height="1" /><rect shape-rendering="crispEdges" fill="rgb(49, 106, 65)"  x="12" y="27" width="1" height="1" /><rect shape-rendering="crispEdges" fill="rgb(16, 57, 24)"  x="12" y="28" width="1" height="1" /><rect shape-rendering="crispEdges" fill="rgb(41, 98, 57)"  x="13" y="3" width="1" height="1" /><rect shape-rendering="crispEdges" fill="rgb(57, 139, 82)"  x="13" y="4" width="1" height="1" /><rect shape-rendering="crispEdges" fill="rgb(57, 139, 82)"  x="13" y="5" width="1" height="1" /><rect shape-rendering="crispEdges" fill="rgb(49, 106, 65)"  x="13" y="6" width="1" height="1" /><rect shape-rendering="crispEdges" fill="rgb(41, 90, 57)"  x="13" y="7" width="1" height="1" /><rect shape-rendering="crispEdges" fill="rgb(41, 90, 49)"  x="13" y="8" width="1" height="1" /><rect shape-rendering="crispEdges" fill="rgb(32, 74, 49)"  x="13" y="9" width="1" height="1" /><rect shape-rendering="crispEdges" fill="rgb(16, 32, 16)"  x="13" y="10" width="1" height="1" /><rect shape-rendering="crispEdges" fill="rgb(16, 32, 16)"  x="13" y="11" width="1" height="1" /><rect shape-rendering="crispEdges" fill="rgb(49, 98, 65)"  x="13" y="12" width="1" height="1" /><rect shape-rendering="crispEdges" fill="rgb(49, 98, 65)"  x="13" y="13" width="1" height="1" /><rect shape-rendering="crispEdges" fill="rgb(49, 98, 65)"  x="13" y="14" width="1" height="1" /><rect shape-rendering="crispEdges" fill="rgb(74, 172, 106)"  x="13" y="15" width="1" height="1" /><rect shape-rendering="crispEdges" fill="rgb(32, 106, 57)"  x="13" y="16" width="1" height="1" /><rect shape-rendering="crispEdges" fill="rgb(131, 246, 164)"  x="13" y="17" width="1" height="1" /><rect shape-rendering="crispEdges" fill="rgb(131, 246, 164)"  x="13" y="18" width="1" height="1" /><rect shape-rendering="crispEdges" fill="rgb(82, 205, 123)"  x="13" y="19" width="1" height="1" /><rect shape-rendering="crispEdges" fill="rgb(82, 222, 131)"  x="13" y="20" width="1" height="1" /><rect shape-rendering="crispEdges" fill="rgb(57, 139, 82)"  x="13" y="21" width="1" height="1" /><rect shape-rendering="crispEdges" fill="rgb(32, 90, 49)"  x="13" y="22" width="1" height="1" /><rect shape-rendering="crispEdges" fill="rgb(74, 172, 106)"  x="13" y="23" width="1" height="1" /><rect shape-rendering="crispEdges" fill="rgb(57, 139, 90)"  x="13" y="24" width="1" height="1" /><rect shape-rendering="crispEdges" fill="rgb(32, 65, 41)"  x="13" y="25" width="1" height="1" /><rect shape-rendering="crispEdges" fill="rgb(49, 98, 57)"  x="13" y="26" width="1" height="1" /><rect shape-rendering="crispEdges" fill="rgb(49, 106, 65)"  x="13" y="27" width="1" height="1" /><rect shape-rendering="crispEdges" fill="rgb(24, 49, 32)"  x="13" y="28" width="1" height="1" /><rect shape-rendering="crispEdges" fill="rgb(41, 90, 57)"  x="14" y="3" width="1" height="1" /><rect shape-rendering="crispEdges" fill="rgb(41, 106, 65)"  x="14" y="4" width="1" height="1" /><rect shape-rendering="crispEdges" fill="rgb(49, 106, 65)"  x="14" y="5" width="1" height="1" /><rect shape-rendering="crispEdges" fill="rgb(41, 98, 65)"  x="14" y="6" width="1" height="1" /><rect shape-rendering="crispEdges" fill="rgb(32, 74, 49)"  x="14" y="7" width="1" height="1" /><rect shape-rendering="crispEdges" fill="rgb(16, 32, 16)"  x="14" y="8" width="1" height="1" /><rect shape-rendering="crispEdges" fill="rgb(16, 32, 16)"  x="14" y="9" width="1" height="1" /><rect shape-rendering="crispEdges" fill="rgb(16, 32, 16)"  x="14" y="10" width="1" height="1" /><rect shape-rendering="crispEdges" fill="rgb(41, 90, 57)"  x="14" y="11" width="1" height="1" /><rect shape-rendering="crispEdges" fill="rgb(41, 98, 57)"  x="14" y="12" width="1" height="1" /><rect shape-rendering="crispEdges" fill="rgb(49, 98, 65)"  x="14" y="13" width="1" height="1" /><rect shape-rendering="crispEdges" fill="rgb(49, 98, 65)"  x="14" y="14" width="1" height="1" /><rect shape-rendering="crispEdges" fill="rgb(49, 139, 74)"  x="14" y="15" width="1" height="1" /><rect shape-rendering="crispEdges" fill="rgb(41, 123, 65)"  x="14" y="16" width="1" height="1" /><rect shape-rendering="crispEdges" fill="rgb(131, 246, 164)"  x="14" y="17" width="1" height="1" /><rect shape-rendering="crispEdges" fill="rgb(131, 246, 164)"  x="14" y="18" width="1" height="1" /><rect shape-rendering="crispEdges" fill="rgb(82, 222, 123)"  x="14" y="19" width="1" height="1" /><rect shape-rendering="crispEdges" fill="rgb(65, 172, 98)"  x="14" y="20" width="1" height="1" /><rect shape-rendering="crispEdges" fill="rgb(41, 98, 57)"  x="14" y="21" width="1" height="1" /><rect shape-rendering="crispEdges" fill="rgb(74, 189, 115)"  x="14" y="22" width="1" height="1" /><rect shape-rendering="crispEdges" fill="rgb(74, 164, 98)"  x="14" y="23" width="1" height="1" /><rect shape-rendering="crispEdges" fill="rgb(65, 148, 90)"  x="14" y="24" width="1" height="1" /><rect shape-rendering="crispEdges" fill="rgb(57, 123, 74)"  x="14" y="25" width="1" height="1" /><rect shape-rendering="crispEdges" fill="rgb(49, 106, 65)"  x="14" y="26" width="1" height="1" /><rect shape-rendering="crispEdges" fill="rgb(24, 57, 32)"  x="14" y="27" width="1" height="1" /><rect shape-rendering="crispEdges" fill="rgb(41, 90, 57)"  x="15" y="4" width="1" height="1" /><rect shape-rendering="crispEdges" fill="rgb(16, 32, 16)"  x="15" y="5" width="1" height="1" /><rect shape-rendering="crispEdges" fill="rgb(16, 32, 16)"  x="15" y="6" width="1" height="1" /><rect shape-rendering="crispEdges" fill="rgb(16, 32, 16)"  x="15" y="7" width="1" height="1" /><rect shape-rendering="crispEdges" fill="rgb(32, 74, 41)"  x="15" y="8" width="1" height="1" /><rect shape-rendering="crispEdges" fill="rgb(41, 90, 57)"  x="15" y="9" width="1" height="1" /><rect shape-rendering="crispEdges" fill="rgb(49, 98, 65)"  x="15" y="10" width="1" height="1" /><rect shape-rendering="crispEdges" fill="rgb(41, 90, 57)"  x="15" y="11" width="1" height="1" /><rect shape-rendering="crispEdges" fill="rgb(49, 98, 57)"  x="15" y="12" width="1" height="1" /><rect shape-rendering="crispEdges" fill="rgb(49, 98, 65)"  x="15" y="13" width="1" height="1" /><rect shape-rendering="crispEdges" fill="rgb(32, 98, 57)"  x="15" y="14" width="1" height="1" /><rect shape-rendering="crispEdges" fill="rgb(74, 148, 98)"  x="15" y="15" width="1" height="1" /><rect shape-rendering="crispEdges" fill="rgb(115, 213, 139)"  x="15" y="16" width="1" height="1" /><rect shape-rendering="crispEdges" fill="rgb(65, 197, 106)"  x="15" y="17" width="1" height="1" /><rect shape-rendering="crispEdges" fill="rgb(57, 172, 90)"  x="15" y="18" width="1" height="1" /><rect shape-rendering="crispEdges" fill="rgb(57, 156, 82)"  x="15" y="19" width="1" height="1" /><rect shape-rendering="crispEdges" fill="rgb(57, 164, 90)"  x="15" y="20" width="1" height="1" /><rect shape-rendering="crispEdges" fill="rgb(74, 197, 115)"  x="15" y="21" width="1" height="1" /><rect shape-rendering="crispEdges" fill="rgb(74, 164, 98)"  x="15" y="22" width="1" height="1" /><rect shape-rendering="crispEdges" fill="rgb(65, 148, 90)"  x="15" y="23" width="1" height="1" /><rect shape-rendering="crispEdges" fill="rgb(57, 115, 74)"  x="15" y="24" width="1" height="1" /><rect shape-rendering="crispEdges" fill="rgb(49, 106, 65)"  x="15" y="25" width="1" height="1" /><rect shape-rendering="crispEdges" fill="rgb(32, 82, 49)"  x="15" y="26" width="1" height="1" /><rect shape-rendering="crispEdges" fill="rgb(16, 32, 16)"  x="16" y="4" width="1" height="1" /><rect shape-rendering="crispEdges" fill="rgb(16, 32, 16)"  x="16" y="5" width="1" height="1" /><rect shape-rendering="crispEdges" fill="rgb(41, 98, 57)"  x="16" y="6" width="1" height="1" /><rect shape-rendering="crispEdges" fill="rgb(41, 98, 57)"  x="16" y="7" width="1" height="1" /><rect shape-rendering="crispEdges" fill="rgb(41, 98, 57)"  x="16" y="8" width="1" height="1" /><rect shape-rendering="crispEdges" fill="rgb(41, 98, 57)"  x="16" y="9" width="1" height="1" /><rect shape-rendering="crispEdges" fill="rgb(49, 98, 65)"  x="16" y="10" width="1" height="1" /><rect shape-rendering="crispEdges" fill="rgb(49, 98, 65)"  x="16" y="11" width="1" height="1" /><rect shape-rendering="crispEdges" fill="rgb(57, 123, 74)"  x="16" y="12" width="1" height="1" /><rect shape-rendering="crispEdges" fill="rgb(41, 106, 65)"  x="16" y="13" width="1" height="1" /><rect shape-rendering="crispEdges" fill="rgb(65, 131, 82)"  x="16" y="14" width="1" height="1" /><rect shape-rendering="crispEdges" fill="rgb(106, 189, 131)"  x="16" y="15" width="1" height="1" /><rect shape-rendering="crispEdges" fill="rgb(41, 123, 65)"  x="16" y="16" width="1" height="1" /><rect shape-rendering="crispEdges" fill="rgb(65, 172, 98)"  x="16" y="17" width="1" height="1" /><rect shape-rendering="crispEdges" fill="rgb(49, 148, 82)"  x="16" y="18" width="1" height="1" /><rect shape-rendering="crispEdges" fill="rgb(131, 246, 164)"  x="16" y="19" width="1" height="1" /><rect shape-rendering="crispEdges" fill="rgb(106, 213, 139)"  x="16" y="20" width="1" height="1" /><rect shape-rendering="crispEdges" fill="rgb(65, 172, 98)"  x="16" y="21" width="1" height="1" /><rect shape-rendering="crispEdges" fill="rgb(65, 148, 90)"  x="16" y="22" width="1" height="1" /><rect shape-rendering="crispEdges" fill="rgb(49, 115, 74)"  x="16" y="23" width="1" height="1" /><rect shape-rendering="crispEdges" fill="rgb(41, 90, 57)"  x="16" y="24" width="1" height="1" /><rect shape-rendering="crispEdges" fill="rgb(32, 65, 41)"  x="16" y="25" width="1" height="1" /><rect shape-rendering="crispEdges" fill="rgb(32, 57, 32)"  x="17" y="4" width="1" height="1" /><rect shape-rendering="crispEdges" fill="rgb(41, 98, 57)"  x="17" y="5" width="1" height="1" /><rect shape-rendering="crispEdges" fill="rgb(41, 98, 57)"  x="17" y="6" width="1" height="1" /><rect shape-rendering="crispEdges" fill="rgb(41, 98, 57)"  x="17" y="7" width="1" height="1" /><rect shape-rendering="crispEdges" fill="rgb(49, 98, 65)"  x="17" y="8" width="1" height="1" /><rect shape-rendering="crispEdges" fill="rgb(49, 98, 65)"  x="17" y="9" width="1" height="1" /><rect shape-rendering="crispEdges" fill="rgb(49, 98, 65)"  x="17" y="10" width="1" height="1" /><rect shape-rendering="crispEdges" fill="rgb(41, 90, 57)"  x="17" y="11" width="1" height="1" /><rect shape-rendering="crispEdges" fill="rgb(74, 164, 98)"  x="17" y="12" width="1" height="1" /><rect shape-rendering="crispEdges" fill="rgb(41, 98, 57)"  x="17" y="13" width="1" height="1" /><rect shape-rendering="crispEdges" fill="rgb(106, 189, 131)"  x="17" y="14" width="1" height="1" /><rect shape-rendering="crispEdges" fill="rgb(41, 106, 57)"  x="17" y="15" width="1" height="1" /><rect shape-rendering="crispEdges" fill="rgb(57, 164, 90)"  x="17" y="16" width="1" height="1" /><rect shape-rendering="crispEdges" fill="rgb(57, 156, 82)"  x="17" y="17" width="1" height="1" /><rect shape-rendering="crispEdges" fill="rgb(57, 156, 90)"  x="17" y="18" width="1" height="1" /><rect shape-rendering="crispEdges" fill="rgb(131, 246, 164)"  x="17" y="19" width="1" height="1" /><rect shape-rendering="crispEdges" fill="rgb(131, 246, 164)"  x="17" y="20" width="1" height="1" /><rect shape-rendering="crispEdges" fill="rgb(57, 156, 90)"  x="17" y="21" width="1" height="1" /><rect shape-rendering="crispEdges" fill="rgb(49, 115, 74)"  x="17" y="22" width="1" height="1" /><rect shape-rendering="crispEdges" fill="rgb(32, 74, 49)"  x="17" y="23" width="1" height="1" /><rect shape-rendering="crispEdges" fill="rgb(32, 65, 41)"  x="17" y="24" width="1" height="1" /><rect shape-rendering="crispEdges" fill="rgb(32, 41, 41)"  x="17" y="25" width="1" height="1" /><rect shape-rendering="crispEdges" fill="rgb(32, 57, 32)"  x="18" y="4" width="1" height="1" /><rect shape-rendering="crispEdges" fill="rgb(41, 98, 57)"  x="18" y="5" width="1" height="1" /><rect shape-rendering="crispEdges" fill="rgb(41, 98, 57)"  x="18" y="6" width="1" height="1" /><rect shape-rendering="crispEdges" fill="rgb(49, 98, 65)"  x="18" y="7" width="1" height="1" /><rect shape-rendering="crispEdges" fill="rgb(49, 98, 65)"  x="18" y="8" width="1" height="1" /><rect shape-rendering="crispEdges" fill="rgb(65, 148, 90)"  x="18" y="9" width="1" height="1" /><rect shape-rendering="crispEdges" fill="rgb(65, 148, 90)"  x="18" y="10" width="1" height="1" /><rect shape-rendering="crispEdges" fill="rgb(32, 65, 41)"  x="18" y="11" width="1" height="1" /><rect shape-rendering="crispEdges" fill="rgb(65, 123, 82)"  x="18" y="12" width="1" height="1" /><rect shape-rendering="crispEdges" fill="rgb(57, 131, 82)"  x="18" y="13" width="1" height="1" /><rect shape-rendering="crispEdges" fill="rgb(49, 123, 74)"  x="18" y="14" width="1" height="1" /><rect shape-rendering="crispEdges" fill="rgb(74, 197, 106)"  x="18" y="15" width="1" height="1" /><rect shape-rendering="crispEdges" fill="rgb(57, 156, 82)"  x="18" y="16" width="1" height="1" /><rect shape-rendering="crispEdges" fill="rgb(106, 189, 131)"  x="18" y="17" width="1" height="1" /><rect shape-rendering="crispEdges" fill="rgb(115, 230, 148)"  x="18" y="18" width="1" height="1" /><rect shape-rendering="crispEdges" fill="rgb(65, 197, 106)"  x="18" y="19" width="1" height="1" /><rect shape-rendering="crispEdges" fill="rgb(57, 164, 90)"  x="18" y="20" width="1" height="1" /><rect shape-rendering="crispEdges" fill="rgb(32, 74, 49)"  x="18" y="21" width="1" height="1" /><rect shape-rendering="crispEdges" fill="rgb(32, 74, 41)"  x="18" y="22" width="1" height="1" /><rect shape-rendering="crispEdges" fill="rgb(41, 98, 65)"  x="18" y="23" width="1" height="1" /><rect shape-rendering="crispEdges" fill="rgb(41, 98, 57)"  x="18" y="24" width="1" height="1" /><rect shape-rendering="crispEdges" fill="rgb(41, 106, 65)"  x="18" y="25" width="1" height="1" /><rect shape-rendering="crispEdges" fill="rgb(65, 131, 90)"  x="18" y="26" width="1" height="1" /><rect shape-rendering="crispEdges" fill="rgb(32, 82, 49)"  x="19" y="4" width="1" height="1" /><rect shape-rendering="crispEdges" fill="rgb(41, 98, 57)"  x="19" y="5" width="1" height="1" /><rect shape-rendering="crispEdges" fill="rgb(41, 98, 57)"  x="19" y="6" width="1" height="1" /><rect shape-rendering="crispEdges" fill="rgb(49, 98, 65)"  x="19" y="7" width="1" height="1" /><rect shape-rendering="crispEdges" fill="rgb(65, 148, 90)"  x="19" y="8" width="1" height="1" /><rect shape-rendering="crispEdges" fill="rgb(65, 148, 90)"  x="19" y="9" width="1" height="1" /><rect shape-rendering="crispEdges" fill="rgb(65, 148, 90)"  x="19" y="10" width="1" height="1" /><rect shape-rendering="crispEdges" fill="rgb(41, 106, 65)"  x="19" y="11" width="1" height="1" /><rect shape-rendering="crispEdges" fill="rgb(57, 115, 74)"  x="19" y="12" width="1" height="1" /><rect shape-rendering="crispEdges" fill="rgb(90, 180, 115)"  x="19" y="13" width="1" height="1" /><rect shape-rendering="crispEdges" fill="rgb(57, 148, 82)"  x="19" y="14" width="1" height="1" /><rect shape-rendering="crispEdges" fill="rgb(57, 139, 82)"  x="19" y="15" width="1" height="1" /><rect shape-rendering="crispEdges" fill="rgb(123, 205, 148)"  x="19" y="16" width="1" height="1" /><rect shape-rendering="crispEdges" fill="rgb(98, 230, 139)"  x="19" y="17" width="1" height="1" /><rect shape-rendering="crispEdges" fill="rgb(74, 197, 106)"  x="19" y="18" width="1" height="1" /><rect shape-rendering="crispEdges" fill="rgb(82, 189, 115)"  x="19" y="19" width="1" height="1" /><rect shape-rendering="crispEdges" fill="rgb(57, 139, 82)"  x="19" y="20" width="1" height="1" /><rect shape-rendering="crispEdges" fill="rgb(57, 123, 74)"  x="19" y="21" width="1" height="1" /><rect shape-rendering="crispEdges" fill="rgb(82, 180, 115)"  x="19" y="22" width="1" height="1" /><rect shape-rendering="crispEdges" fill="rgb(57, 123, 74)"  x="19" y="23" width="1" height="1" /><rect shape-rendering="crispEdges" fill="rgb(32, 74, 49)"  x="19" y="24" width="1" height="1" /><rect shape-rendering="crispEdges" fill="rgb(41, 106, 65)"  x="19" y="25" width="1" height="1" /><rect shape-rendering="crispEdges" fill="rgb(41, 106, 65)"  x="19" y="26" width="1" height="1" /><rect shape-rendering="crispEdges" fill="rgb(32, 82, 49)"  x="19" y="27" width="1" height="1" /><rect shape-rendering="crispEdges" fill="rgb(49, 106, 65)"  x="20" y="5" width="1" height="1" /><rect shape-rendering="crispEdges" fill="rgb(57, 131, 82)"  x="20" y="6" width="1" height="1" /><rect shape-rendering="crispEdges" fill="rgb(65, 148, 90)"  x="20" y="7" width="1" height="1" /><rect shape-rendering="crispEdges" fill="rgb(65, 148, 90)"  x="20" y="8" width="1" height="1" /><rect shape-rendering="crispEdges" fill="rgb(57, 148, 90)"  x="20" y="9" width="1" height="1" /><rect shape-rendering="crispEdges" fill="rgb(82, 172, 106)"  x="20" y="10" width="1" height="1" /><rect shape-rendering="crispEdges" fill="rgb(98, 197, 131)"  x="20" y="11" width="1" height="1" /><rect shape-rendering="crispEdges" fill="rgb(82, 197, 115)"  x="20" y="12" width="1" height="1" /><rect shape-rendering="crispEdges" fill="rgb(82, 180, 106)"  x="20" y="13" width="1" height="1" /><rect shape-rendering="crispEdges" fill="rgb(82, 164, 106)"  x="20" y="14" width="1" height="1" /><rect shape-rendering="crispEdges" fill="rgb(49, 123, 74)"  x="20" y="15" width="1" height="1" /><rect shape-rendering="crispEdges" fill="rgb(74, 172, 106)"  x="20" y="16" width="1" height="1" /><rect shape-rendering="crispEdges" fill="rgb(74, 172, 106)"  x="20" y="17" width="1" height="1" /><rect shape-rendering="crispEdges" fill="rgb(74, 180, 106)"  x="20" y="18" width="1" height="1" /><rect shape-rendering="crispEdges" fill="rgb(74, 172, 106)"  x="20" y="19" width="1" height="1" /><rect shape-rendering="crispEdges" fill="rgb(65, 148, 90)"  x="20" y="20" width="1" height="1" /><rect shape-rendering="crispEdges" fill="rgb(74, 172, 106)"  x="20" y="21" width="1" height="1" /><rect shape-rendering="crispEdges" fill="rgb(74, 172, 106)"  x="20" y="22" width="1" height="1" /><rect shape-rendering="crispEdges" fill="rgb(57, 123, 74)"  x="20" y="23" width="1" height="1" /><rect shape-rendering="crispEdges" fill="rgb(32, 74, 49)"  x="20" y="24" width="1" height="1" /><rect shape-rendering="crispEdges" fill="rgb(41, 106, 65)"  x="20" y="25" width="1" height="1" /><rect shape-rendering="crispEdges" fill="rgb(41, 106, 65)"  x="20" y="26" width="1" height="1" /><rect shape-rendering="crispEdges" fill="rgb(41, 106, 49)"  x="20" y="27" width="1" height="1" /><rect shape-rendering="crispEdges" fill="rgb(41, 98, 57)"  x="21" y="5" width="1" height="1" /><rect shape-rendering="crispEdges" fill="rgb(65, 148, 90)"  x="21" y="6" width="1" height="1" /><rect shape-rendering="crispEdges" fill="rgb(82, 172, 106)"  x="21" y="7" width="1" height="1" /><rect shape-rendering="crispEdges" fill="rgb(82, 180, 106)"  x="21" y="8" width="1" height="1" /><rect shape-rendering="crispEdges" fill="rgb(106, 205, 131)"  x="21" y="9" width="1" height="1" /><rect shape-rendering="crispEdges" fill="rgb(98, 205, 139)"  x="21" y="10" width="1" height="1" /><rect shape-rendering="crispEdges" fill="rgb(82, 189, 115)"  x="21" y="11" width="1" height="1" /><rect shape-rendering="crispEdges" fill="rgb(82, 189, 106)"  x="21" y="12" width="1" height="1" /><rect shape-rendering="crispEdges" fill="rgb(65, 172, 98)"  x="21" y="13" width="1" height="1" /><rect shape-rendering="crispEdges" fill="rgb(65, 148, 82)"  x="21" y="14" width="1" height="1" /><rect shape-rendering="crispEdges" fill="rgb(65, 156, 90)"  x="21" y="15" width="1" height="1" /><rect shape-rendering="crispEdges" fill="rgb(41, 98, 57)"  x="21" y="16" width="1" height="1" /><rect shape-rendering="crispEdges" fill="rgb(74, 172, 106)"  x="21" y="17" width="1" height="1" /><rect shape-rendering="crispEdges" fill="rgb(74, 172, 106)"  x="21" y="18" width="1" height="1" /><rect shape-rendering="crispEdges" fill="rgb(82, 197, 115)"  x="21" y="19" width="1" height="1" /><rect shape-rendering="crispEdges" fill="rgb(74, 180, 106)"  x="21" y="20" width="1" height="1" /><rect shape-rendering="crispEdges" fill="rgb(65, 156, 98)"  x="21" y="21" width="1" height="1" /><rect shape-rendering="crispEdges" fill="rgb(65, 156, 90)"  x="21" y="22" width="1" height="1" /><rect shape-rendering="crispEdges" fill="rgb(57, 139, 82)"  x="21" y="23" width="1" height="1" /><rect shape-rendering="crispEdges" fill="rgb(49, 106, 65)"  x="21" y="24" width="1" height="1" /><rect shape-rendering="crispEdges" fill="rgb(49, 106, 65)"  x="21" y="25" width="1" height="1" /><rect shape-rendering="crispEdges" fill="rgb(32, 82, 49)"  x="21" y="26" width="1" height="1" /><rect shape-rendering="crispEdges" fill="rgb(41, 98, 57)"  x="22" y="6" width="1" height="1" /><rect shape-rendering="crispEdges" fill="rgb(106, 222, 139)"  x="22" y="7" width="1" height="1" /><rect shape-rendering="crispEdges" fill="rgb(106, 205, 131)"  x="22" y="8" width="1" height="1" /><rect shape-rendering="crispEdges" fill="rgb(98, 205, 123)"  x="22" y="9" width="1" height="1" /><rect shape-rendering="crispEdges" fill="rgb(74, 189, 106)"  x="22" y="10" width="1" height="1" /><rect shape-rendering="crispEdges" fill="rgb(74, 189, 106)"  x="22" y="11" width="1" height="1" /><rect shape-rendering="crispEdges" fill="rgb(82, 189, 106)"  x="22" y="12" width="1" height="1" /><rect shape-rendering="crispEdges" fill="rgb(90, 197, 115)"  x="22" y="13" width="1" height="1" /><rect shape-rendering="crispEdges" fill="rgb(65, 148, 82)"  x="22" y="14" width="1" height="1" /><rect shape-rendering="crispEdges" fill="rgb(41, 90, 57)"  x="22" y="15" width="1" height="1" /><rect shape-rendering="crispEdges" fill="rgb(65, 164, 98)"  x="22" y="16" width="1" height="1" /><rect shape-rendering="crispEdges" fill="rgb(41, 98, 57)"  x="22" y="17" width="1" height="1" /><rect shape-rendering="crispEdges" fill="rgb(41, 98, 57)"  x="22" y="18" width="1" height="1" /><rect shape-rendering="crispEdges" fill="rgb(65, 148, 90)"  x="22" y="19" width="1" height="1" /><rect shape-rendering="crispEdges" fill="rgb(57, 131, 82)"  x="22" y="20" width="1" height="1" /><rect shape-rendering="crispEdges" fill="rgb(57, 131, 82)"  x="22" y="21" width="1" height="1" /><rect shape-rendering="crispEdges" fill="rgb(57, 139, 82)"  x="22" y="22" width="1" height="1" /><rect shape-rendering="crispEdges" fill="rgb(41, 90, 57)"  x="22" y="23" width="1" height="1" /><rect shape-rendering="crispEdges" fill="rgb(32, 65, 41)"  x="22" y="24" width="1" height="1" /><rect shape-rendering="crispEdges" fill="rgb(41, 98, 57)"  x="23" y="6" width="1" height="1" /><rect shape-rendering="crispEdges" fill="rgb(106, 213, 139)"  x="23" y="7" width="1" height="1" /><rect shape-rendering="crispEdges" fill="rgb(90, 197, 123)"  x="23" y="8" width="1" height="1" /><rect shape-rendering="crispEdges" fill="rgb(90, 197, 123)"  x="23" y="9" width="1" height="1" /><rect shape-rendering="crispEdges" fill="rgb(90, 197, 115)"  x="23" y="10" width="1" height="1" /><rect shape-rendering="crispEdges" fill="rgb(82, 197, 115)"  x="23" y="11" width="1" height="1" /><rect shape-rendering="crispEdges" fill="rgb(82, 197, 115)"  x="23" y="12" width="1" height="1" /><rect shape-rendering="crispEdges" fill="rgb(98, 197, 123)"  x="23" y="13" width="1" height="1" /><rect shape-rendering="crispEdges" fill="rgb(90, 197, 123)"  x="23" y="14" width="1" height="1" /><rect shape-rendering="crispEdges" fill="rgb(49, 115, 65)"  x="23" y="15" width="1" height="1" /><rect shape-rendering="crispEdges" fill="rgb(41, 98, 57)"  x="23" y="16" width="1" height="1" /><rect shape-rendering="crispEdges" fill="rgb(65, 164, 98)"  x="23" y="17" width="1" height="1" /><rect shape-rendering="crispEdges" fill="rgb(41, 98, 57)"  x="23" y="18" width="1" height="1" /><rect shape-rendering="crispEdges" fill="rgb(41, 98, 57)"  x="23" y="19" width="1" height="1" /><rect shape-rendering="crispEdges" fill="rgb(41, 90, 57)"  x="23" y="20" width="1" height="1" /><rect shape-rendering="crispEdges" fill="rgb(32, 82, 49)"  x="23" y="21" width="1" height="1" /><rect shape-rendering="crispEdges" fill="rgb(24, 57, 32)"  x="23" y="22" width="1" height="1" /><rect shape-rendering="crispEdges" fill="rgb(90, 180, 115)"  x="24" y="7" width="1" height="1" /><rect shape-rendering="crispEdges" fill="rgb(106, 222, 139)"  x="24" y="8" width="1" height="1" /><rect shape-rendering="crispEdges" fill="rgb(98, 205, 123)"  x="24" y="9" width="1" height="1" /><rect shape-rendering="crispEdges" fill="rgb(90, 197, 123)"  x="24" y="10" width="1" height="1" /><rect shape-rendering="crispEdges" fill="rgb(82, 197, 115)"  x="24" y="11" width="1" height="1" /><rect shape-rendering="crispEdges" fill="rgb(82, 189, 115)"  x="24" y="12" width="1" height="1" /><rect shape-rendering="crispEdges" fill="rgb(90, 189, 123)"  x="24" y="13" width="1" height="1" /><rect shape-rendering="crispEdges" fill="rgb(98, 205, 131)"  x="24" y="14" width="1" height="1" /><rect shape-rendering="crispEdges" fill="rgb(74, 180, 106)"  x="24" y="15" width="1" height="1" /><rect shape-rendering="crispEdges" fill="rgb(65, 156, 98)"  x="24" y="16" width="1" height="1" /><rect shape-rendering="crispEdges" fill="rgb(57, 131, 82)"  x="24" y="17" width="1" height="1" /><rect shape-rendering="crispEdges" fill="rgb(41, 98, 57)"  x="24" y="18" width="1" height="1" /><rect shape-rendering="crispEdges" fill="rgb(49, 98, 65)"  x="24" y="19" width="1" height="1" /><rect shape-rendering="crispEdges" fill="rgb(32, 65, 41)"  x="24" y="20" width="1" height="1" /><rect shape-rendering="crispEdges" fill="rgb(82, 172, 106)"  x="25" y="8" width="1" height="1" /><rect shape-rendering="crispEdges" fill="rgb(98, 213, 131)"  x="25" y="9" width="1" height="1" /><rect shape-rendering="crispEdges" fill="rgb(90, 197, 123)"  x="25" y="10" width="1" height="1" /><rect shape-rendering="crispEdges" fill="rgb(82, 189, 106)"  x="25" y="11" width="1" height="1" /><rect shape-rendering="crispEdges" fill="rgb(90, 197, 115)"  x="25" y="12" width="1" height="1" /><rect shape-rendering="crispEdges" fill="rgb(98, 205, 131)"  x="25" y="13" width="1" height="1" /><rect shape-rendering="crispEdges" fill="rgb(90, 189, 123)"  x="25" y="14" width="1" height="1" /><rect shape-rendering="crispEdges" fill="rgb(57, 139, 82)"  x="25" y="15" width="1" height="1" /><rect shape-rendering="crispEdges" fill="rgb(65, 156, 90)"  x="25" y="16" width="1" height="1" /><rect shape-rendering="crispEdges" fill="rgb(41, 90, 57)"  x="25" y="17" width="1" height="1" /><rect shape-rendering="crispEdges" fill="rgb(41, 90, 57)"  x="25" y="18" width="1" height="1" /><rect shape-rendering="crispEdges" fill="rgb(24, 49, 32)"  x="25" y="19" width="1" height="1" /><rect shape-rendering="crispEdges" fill="rgb(41, 98, 57)"  x="26" y="9" width="1" height="1" /><rect shape-rendering="crispEdges" fill="rgb(82, 205, 123)"  x="26" y="10" width="1" height="1" /><rect shape-rendering="crispEdges" fill="rgb(74, 172, 106)"  x="26" y="11" width="1" height="1" /><rect shape-rendering="crispEdges" fill="rgb(82, 180, 106)"  x="26" y="12" width="1" height="1" /><rect shape-rendering="crispEdges" fill="rgb(74, 156, 98)"  x="26" y="13" width="1" height="1" /><rect shape-rendering="crispEdges" fill="rgb(49, 123, 74)"  x="26" y="14" width="1" height="1" /><rect shape-rendering="crispEdges" fill="rgb(41, 106, 65)"  x="26" y="15" width="1" height="1" /><rect shape-rendering="crispEdges" fill="rgb(41, 90, 57)"  x="26" y="16" width="1" height="1" /><rect shape-rendering="crispEdges" fill="rgb(41, 82, 57)"  x="26" y="17" width="1" height="1" /><rect shape-rendering="crispEdges" fill="rgb(32, 57, 32)"  x="26" y="18" width="1" height="1" /><rect shape-rendering="crispEdges" fill="rgb(41, 98, 57)"  x="27" y="10" width="1" height="1" /><rect shape-rendering="crispEdges" fill="rgb(74, 164, 98)"  x="27" y="11" width="1" height="1" /><rect shape-rendering="crispEdges" fill="rgb(57, 131, 82)"  x="27" y="12" width="1" height="1" /><rect shape-rendering="crispEdges" fill="rgb(49, 123, 74)"  x="27" y="13" width="1" height="1" /><rect shape-rendering="crispEdges" fill="rgb(65, 164, 98)"  x="27" y="14" width="1" height="1" /><rect shape-rendering="crispEdges" fill="rgb(57, 131, 74)"  x="27" y="15" width="1" height="1" /><rect shape-rendering="crispEdges" fill="rgb(49, 98, 57)"  x="27" y="16" width="1" height="1" /><rect shape-rendering="crispEdges" fill="rgb(32, 57, 32)"  x="27" y="17" width="1" height="1" /><rect shape-rendering="crispEdges" fill="rgb(41, 90, 57)"  x="28" y="11" width="1" height="1" /><rect shape-rendering="crispEdges" fill="rgb(57, 131, 74)"  x="28" y="12" width="1" height="1" /><rect shape-rendering="crispEdges" fill="rgb(74, 180, 106)"  x="28" y="13" width="1" height="1" /><rect shape-rendering="crispEdges" fill="rgb(74, 180, 106)"  x="28" y="14" width="1" height="1" /><rect shape-rendering="crispEdges" fill="rgb(41, 98, 65)"  x="28" y="15" width="1" height="1" /><rect shape-rendering="crispEdges" fill="rgb(32, 57, 32)"  x="28" y="16" width="1" height="1" /><rect shape-rendering="crispEdges" fill="rgb(32, 65, 41)"  x="29" y="12" width="1" height="1" /><rect shape-rendering="crispEdges" fill="rgb(32, 57, 32)"  x="29" y="13" width="1" height="1" /><rect shape-rendering="crispEdges" fill="rgb(32, 57, 32)"  x="29" y="14" width="1" height="1" /><rect shape-rendering="crispEdges" fill="rgb(32, 57, 32)"  x="29" y="15" width="1" height="1" /></svg>