<svg xmlns="http://www.w3.org/2000/svg" xmlns:xlink= "http://www.w3.org/1999/xlink" width="32" height="32" viewBox ="0 0 32 32"><rect shape-rendering="crispEdges" fill="rgb(213, 230, 197)"  x="2" y="18" width="1" height="1" /><rect shape-rendering="crispEdges" fill="rgb(156, 189, 148)"  x="2" y="19" width="1" height="1" /><rect shape-rendering="crispEdges" fill="rgb(180, 205, 164)"  x="2" y="20" width="1" height="1" /><rect shape-rendering="crispEdges" fill="rgb(255, 238, 197)"  x="2" y="21" width="1" height="1" /><rect shape-rendering="crispEdges" fill="rgb(255, 238, 197)"  x="2" y="22" width="1" height="1" /><rect shape-rendering="crispEdges" fill="rgb(246, 213, 148)"  x="2" y="23" width="1" height="1" /><rect shape-rendering="crispEdges" fill="rgb(246, 213, 148)"  x="2" y="24" width="1" height="1" /><rect shape-rendering="crispEdges" fill="rgb(222, 164, 98)"  x="2" y="25" width="1" height="1" /><rect shape-rendering="crispEdges" fill="rgb(213, 230, 197)"  x="3" y="13" width="1" height="1" /><rect shape-rendering="crispEdges" fill="rgb(213, 230, 197)"  x="3" y="14" width="1" height="1" /><rect shape-rendering="crispEdges" fill="rgb(156, 189, 148)"  x="3" y="15" width="1" height="1" /><rect shape-rendering="crispEdges" fill="rgb(156, 189, 148)"  x="3" y="16" width="1" height="1" /><rect shape-rendering="crispEdges" fill="rgb(156, 189, 148)"  x="3" y="17" width="1" height="1" /><rect shape-rendering="crispEdges" fill="rgb(131, 156, 123)"  x="3" y="18" width="1" height="1" /><rect shape-rendering="crispEdges" fill="rgb(255, 238, 197)"  x="3" y="19" width="1" height="1" /><rect shape-rendering="crispEdges" fill="rgb(246, 197, 139)"  x="3" y="20" width="1" height="1" /><rect shape-rendering="crispEdges" fill="rgb(255, 255, 238)"  x="3" y="21" width="1" height="1" /><rect shape-rendering="crispEdges" fill="rgb(255, 246, 213)"  x="3" y="22" width="1" height="1" /><rect shape-rendering="crispEdges" fill="rgb(246, 213, 148)"  x="3" y="23" width="1" height="1" /><rect shape-rendering="crispEdges" fill="rgb(238, 189, 115)"  x="3" y="24" width="1" height="1" /><rect shape-rendering="crispEdges" fill="rgb(213, 230, 197)"  x="4" y="11" width="1" height="1" /><rect shape-rendering="crispEdges" fill="rgb(180, 205, 164)"  x="4" y="12" width="1" height="1" /><rect shape-rendering="crispEdges" fill="rgb(131, 156, 123)"  x="4" y="13" width="1" height="1" /><rect shape-rendering="crispEdges" fill="rgb(238, 246, 230)"  x="4" y="14" width="1" height="1" /><rect shape-rendering="crispEdges" fill="rgb(230, 246, 213)"  x="4" y="15" width="1" height="1" /><rect shape-rendering="crispEdges" fill="rgb(255, 238, 197)"  x="4" y="16" width="1" height="1" /><rect shape-rendering="crispEdges" fill="rgb(246, 197, 139)"  x="4" y="17" width="1" height="1" /><rect shape-rendering="crispEdges" fill="rgb(238, 230, 172)"  x="4" y="18" width="1" height="1" /><rect shape-rendering="crispEdges" fill="rgb(255, 255, 238)"  x="4" y="19" width="1" height="1" /><rect shape-rendering="crispEdges" fill="rgb(255, 255, 238)"  x="4" y="20" width="1" height="1" /><rect shape-rendering="crispEdges" fill="rgb(246, 222, 172)"  x="4" y="21" width="1" height="1" /><rect shape-rendering="crispEdges" fill="rgb(246, 222, 172)"  x="4" y="22" width="1" height="1" /><rect shape-rendering="crispEdges" fill="rgb(246, 213, 148)"  x="4" y="23" width="1" height="1" /><rect shape-rendering="crispEdges" fill="rgb(238, 189, 115)"  x="4" y="24" width="1" height="1" /><rect shape-rendering="crispEdges" fill="rgb(213, 230, 197)"  x="5" y="7" width="1" height="1" /><rect shape-rendering="crispEdges" fill="rgb(180, 205, 164)"  x="5" y="8" width="1" height="1" /><rect shape-rendering="crispEdges" fill="rgb(156, 189, 148)"  x="5" y="9" width="1" height="1" /><rect shape-rendering="crispEdges" fill="rgb(156, 189, 148)"  x="5" y="10" width="1" height="1" /><rect shape-rendering="crispEdges" fill="rgb(131, 156, 123)"  x="5" y="11" width="1" height="1" /><rect shape-rendering="crispEdges" fill="rgb(238, 246, 213)"  x="5" y="12" width="1" height="1" /><rect shape-rendering="crispEdges" fill="rgb(222, 230, 189)"  x="5" y="13" width="1" height="1" /><rect shape-rendering="crispEdges" fill="rgb(255, 238, 197)"  x="5" y="14" width="1" height="1" /><rect shape-rendering="crispEdges" fill="rgb(246, 197, 139)"  x="5" y="15" width="1" height="1" /><rect shape-rendering="crispEdges" fill="rgb(222, 164, 98)"  x="5" y="16" width="1" height="1" /><rect shape-rendering="crispEdges" fill="rgb(222, 164, 98)"  x="5" y="17" width="1" height="1" /><rect shape-rendering="crispEdges" fill="rgb(222, 164, 98)"  x="5" y="18" width="1" height="1" /><rect shape-rendering="crispEdges" fill="rgb(222, 164, 98)"  x="5" y="19" width="1" height="1" /><rect shape-rendering="crispEdges" fill="rgb(222, 164, 98)"  x="5" y="20" width="1" height="1" /><rect shape-rendering="crispEdges" fill="rgb(222, 164, 98)"  x="5" y="21" width="1" height="1" /><rect shape-rendering="crispEdges" fill="rgb(180, 115, 41)"  x="5" y="22" width="1" height="1" /><rect shape-rendering="crispEdges" fill="rgb(180, 115, 41)"  x="5" y="23" width="1" height="1" /><rect shape-rendering="crispEdges" fill="rgb(246, 222, 172)"  x="5" y="24" width="1" height="1" /><rect shape-rendering="crispEdges" fill="rgb(238, 189, 115)"  x="5" y="25" width="1" height="1" /><rect shape-rendering="crispEdges" fill="rgb(131, 156, 123)"  x="6" y="2" width="1" height="1" /><rect shape-rendering="crispEdges" fill="rgb(131, 156, 123)"  x="6" y="3" width="1" height="1" /><rect shape-rendering="crispEdges" fill="rgb(180, 205, 164)"  x="6" y="4" width="1" height="1" /><rect shape-rendering="crispEdges" fill="rgb(156, 189, 148)"  x="6" y="5" width="1" height="1" /><rect shape-rendering="crispEdges" fill="rgb(156, 189, 148)"  x="6" y="6" width="1" height="1" /><rect shape-rendering="crispEdges" fill="rgb(131, 156, 123)"  x="6" y="7" width="1" height="1" /><rect shape-rendering="crispEdges" fill="rgb(131, 156, 123)"  x="6" y="8" width="1" height="1" /><rect shape-rendering="crispEdges" fill="rgb(131, 156, 123)"  x="6" y="9" width="1" height="1" /><rect shape-rendering="crispEdges" fill="rgb(222, 230, 197)"  x="6" y="10" width="1" height="1" /><rect shape-rendering="crispEdges" fill="rgb(230, 238, 205)"  x="6" y="11" width="1" height="1" /><rect shape-rendering="crispEdges" fill="rgb(255, 238, 197)"  x="6" y="12" width="1" height="1" /><rect shape-rendering="crispEdges" fill="rgb(246, 197, 139)"  x="6" y="13" width="1" height="1" /><rect shape-rendering="crispEdges" fill="rgb(222, 164, 98)"  x="6" y="14" width="1" height="1" /><rect shape-rendering="crispEdges" fill="rgb(222, 164, 98)"  x="6" y="15" width="1" height="1" /><rect shape-rendering="crispEdges" fill="rgb(180, 115, 41)"  x="6" y="16" width="1" height="1" /><rect shape-rendering="crispEdges" fill="rgb(148, 180, 131)"  x="6" y="17" width="1" height="1" /><rect shape-rendering="crispEdges" fill="rgb(148, 180, 131)"  x="6" y="18" width="1" height="1" /><rect shape-rendering="crispEdges" fill="rgb(131, 156, 123)"  x="6" y="19" width="1" height="1" /><rect shape-rendering="crispEdges" fill="rgb(189, 197, 156)"  x="6" y="20" width="1" height="1" /><rect shape-rendering="crispEdges" fill="rgb(189, 164, 131)"  x="6" y="21" width="1" height="1" /><rect shape-rendering="crispEdges" fill="rgb(148, 131, 106)"  x="6" y="22" width="1" height="1" /><rect shape-rendering="crispEdges" fill="rgb(180, 115, 41)"  x="6" y="23" width="1" height="1" /><rect shape-rendering="crispEdges" fill="rgb(180, 115, 41)"  x="6" y="24" width="1" height="1" /><rect shape-rendering="crispEdges" fill="rgb(222, 164, 98)"  x="6" y="25" width="1" height="1" /><rect shape-rendering="crispEdges" fill="rgb(238, 189, 115)"  x="6" y="26" width="1" height="1" /><rect shape-rendering="crispEdges" fill="rgb(131, 156, 123)"  x="7" y="3" width="1" height="1" /><rect shape-rendering="crispEdges" fill="rgb(74, 106, 74)"  x="7" y="4" width="1" height="1" /><rect shape-rendering="crispEdges" fill="rgb(131, 156, 123)"  x="7" y="5" width="1" height="1" /><rect shape-rendering="crispEdges" fill="rgb(131, 156, 123)"  x="7" y="6" width="1" height="1" /><rect shape-rendering="crispEdges" fill="rgb(156, 189, 148)"  x="7" y="7" width="1" height="1" /><rect shape-rendering="crispEdges" fill="rgb(180, 205, 156)"  x="7" y="8" width="1" height="1" /><rect shape-rendering="crispEdges" fill="rgb(205, 222, 189)"  x="7" y="9" width="1" height="1" /><rect shape-rendering="crispEdges" fill="rgb(205, 230, 189)"  x="7" y="10" width="1" height="1" /><rect shape-rendering="crispEdges" fill="rgb(180, 205, 164)"  x="7" y="11" width="1" height="1" /><rect shape-rendering="crispEdges" fill="rgb(180, 205, 164)"  x="7" y="12" width="1" height="1" /><rect shape-rendering="crispEdges" fill="rgb(164, 197, 148)"  x="7" y="13" width="1" height="1" /><rect shape-rendering="crispEdges" fill="rgb(164, 197, 148)"  x="7" y="14" width="1" height="1" /><rect shape-rendering="crispEdges" fill="rgb(172, 98, 82)"  x="7" y="15" width="1" height="1" /><rect shape-rendering="crispEdges" fill="rgb(139, 74, 57)"  x="7" y="16" width="1" height="1" /><rect shape-rendering="crispEdges" fill="rgb(139, 74, 57)"  x="7" y="17" width="1" height="1" /><rect shape-rendering="crispEdges" fill="rgb(106, 32, 16)"  x="7" y="18" width="1" height="1" /><rect shape-rendering="crispEdges" fill="rgb(106, 32, 16)"  x="7" y="19" width="1" height="1" /><rect shape-rendering="crispEdges" fill="rgb(222, 197, 164)"  x="7" y="20" width="1" height="1" /><rect shape-rendering="crispEdges" fill="rgb(180, 164, 139)"  x="7" y="21" width="1" height="1" /><rect shape-rendering="crispEdges" fill="rgb(189, 164, 131)"  x="7" y="22" width="1" height="1" /><rect shape-rendering="crispEdges" fill="rgb(148, 131, 106)"  x="7" y="23" width="1" height="1" /><rect shape-rendering="crispEdges" fill="rgb(180, 115, 41)"  x="7" y="26" width="1" height="1" /><rect shape-rendering="crispEdges" fill="rgb(180, 115, 41)"  x="7" y="27" width="1" height="1" /><rect shape-rendering="crispEdges" fill="rgb(131, 156, 123)"  x="8" y="5" width="1" height="1" /><rect shape-rendering="crispEdges" fill="rgb(74, 106, 74)"  x="8" y="6" width="1" height="1" /><rect shape-rendering="crispEdges" fill="rgb(74, 106, 74)"  x="8" y="7" width="1" height="1" /><rect shape-rendering="crispEdges" fill="rgb(148, 180, 131)"  x="8" y="8" width="1" height="1" /><rect shape-rendering="crispEdges" fill="rgb(148, 180, 131)"  x="8" y="9" width="1" height="1" /><rect shape-rendering="crispEdges" fill="rgb(148, 180, 131)"  x="8" y="10" width="1" height="1" /><rect shape-rendering="crispEdges" fill="rgb(164, 197, 148)"  x="8" y="11" width="1" height="1" /><rect shape-rendering="crispEdges" fill="rgb(164, 197, 148)"  x="8" y="12" width="1" height="1" /><rect shape-rendering="crispEdges" fill="rgb(172, 98, 82)"  x="8" y="13" width="1" height="1" /><rect shape-rendering="crispEdges" fill="rgb(139, 74, 57)"  x="8" y="14" width="1" height="1" /><rect shape-rendering="crispEdges" fill="rgb(106, 32, 16)"  x="8" y="15" width="1" height="1" /><rect shape-rendering="crispEdges" fill="rgb(255, 238, 197)"  x="8" y="16" width="1" height="1" /><rect shape-rendering="crispEdges" fill="rgb(106, 32, 16)"  x="8" y="17" width="1" height="1" /><rect shape-rendering="crispEdges" fill="rgb(238, 213, 164)"  x="8" y="18" width="1" height="1" /><rect shape-rendering="crispEdges" fill="rgb(106, 32, 16)"  x="8" y="19" width="1" height="1" /><rect shape-rendering="crispEdges" fill="rgb(106, 32, 16)"  x="8" y="20" width="1" height="1" /><rect shape-rendering="crispEdges" fill="rgb(180, 164, 139)"  x="8" y="21" width="1" height="1" /><rect shape-rendering="crispEdges" fill="rgb(180, 164, 139)"  x="8" y="22" width="1" height="1" /><rect shape-rendering="crispEdges" fill="rgb(148, 131, 106)"  x="8" y="23" width="1" height="1" /><rect shape-rendering="crispEdges" fill="rgb(131, 156, 123)"  x="9" y="8" width="1" height="1" /><rect shape-rendering="crispEdges" fill="rgb(131, 156, 123)"  x="9" y="9" width="1" height="1" /><rect shape-rendering="crispEdges" fill="rgb(74, 106, 74)"  x="9" y="10" width="1" height="1" /><rect shape-rendering="crispEdges" fill="rgb(82, 24, 8)"  x="9" y="11" width="1" height="1" /><rect shape-rendering="crispEdges" fill="rgb(82, 24, 8)"  x="9" y="12" width="1" height="1" /><rect shape-rendering="crispEdges" fill="rgb(255, 238, 197)"  x="9" y="13" width="1" height="1" /><rect shape-rendering="crispEdges" fill="rgb(255, 238, 197)"  x="9" y="14" width="1" height="1" /><rect shape-rendering="crispEdges" fill="rgb(238, 213, 164)"  x="9" y="15" width="1" height="1" /><rect shape-rendering="crispEdges" fill="rgb(139, 74, 57)"  x="9" y="16" width="1" height="1" /><rect shape-rendering="crispEdges" fill="rgb(238, 213, 164)"  x="9" y="17" width="1" height="1" /><rect shape-rendering="crispEdges" fill="rgb(230, 82, 74)"  x="9" y="18" width="1" height="1" /><rect shape-rendering="crispEdges" fill="rgb(148, 24, 16)"  x="9" y="19" width="1" height="1" /><rect shape-rendering="crispEdges" fill="rgb(82, 24, 8)"  x="9" y="20" width="1" height="1" /><rect shape-rendering="crispEdges" fill="rgb(82, 24, 8)"  x="9" y="21" width="1" height="1" /><rect shape-rendering="crispEdges" fill="rgb(131, 106, 82)"  x="9" y="22" width="1" height="1" /><rect shape-rendering="crispEdges" fill="rgb(148, 131, 106)"  x="9" y="23" width="1" height="1" /><rect shape-rendering="crispEdges" fill="rgb(82, 24, 8)"  x="10" y="13" width="1" height="1" /><rect shape-rendering="crispEdges" fill="rgb(82, 24, 8)"  x="10" y="14" width="1" height="1" /><rect shape-rendering="crispEdges" fill="rgb(82, 24, 8)"  x="10" y="15" width="1" height="1" /><rect shape-rendering="crispEdges" fill="rgb(205, 164, 98)"  x="10" y="16" width="1" height="1" /><rect shape-rendering="crispEdges" fill="rgb(106, 32, 16)"  x="10" y="17" width="1" height="1" /><rect shape-rendering="crispEdges" fill="rgb(222, 164, 98)"  x="10" y="18" width="1" height="1" /><rect shape-rendering="crispEdges" fill="rgb(82, 24, 8)"  x="10" y="19" width="1" height="1" /><rect shape-rendering="crispEdges" fill="rgb(82, 24, 8)"  x="10" y="20" width="1" height="1" /><rect shape-rendering="crispEdges" fill="rgb(131, 106, 82)"  x="10" y="23" width="1" height="1" /><rect shape-rendering="crispEdges" fill="rgb(82, 24, 8)"  x="11" y="15" width="1" height="1" /><rect shape-rendering="crispEdges" fill="rgb(82, 24, 8)"  x="11" y="16" width="1" height="1" /><rect shape-rendering="crispEdges" fill="rgb(82, 24, 8)"  x="11" y="17" width="1" height="1" /><rect shape-rendering="crispEdges" fill="rgb(82, 24, 8)"  x="11" y="18" width="1" height="1" /><rect shape-rendering="crispEdges" fill="rgb(82, 24, 8)"  x="11" y="19" width="1" height="1" /><rect shape-rendering="crispEdges" fill="rgb(131, 106, 82)"  x="11" y="23" width="1" height="1" /><rect shape-rendering="crispEdges" fill="rgb(255, 238, 197)"  x="12" y="12" width="1" height="1" /><rect shape-rendering="crispEdges" fill="rgb(222, 164, 98)"  x="12" y="13" width="1" height="1" /><rect shape-rendering="crispEdges" fill="rgb(246, 197, 139)"  x="12" y="14" width="1" height="1" /><rect shape-rendering="crispEdges" fill="rgb(255, 238, 197)"  x="12" y="15" width="1" height="1" /><rect shape-rendering="crispEdges" fill="rgb(255, 238, 197)"  x="12" y="16" width="1" height="1" /><rect shape-rendering="crispEdges" fill="rgb(255, 238, 197)"  x="12" y="24" width="1" height="1" /><rect shape-rendering="crispEdges" fill="rgb(246, 222, 172)"  x="12" y="25" width="1" height="1" /><rect shape-rendering="crispEdges" fill="rgb(246, 197, 139)"  x="12" y="26" width="1" height="1" /><rect shape-rendering="crispEdges" fill="rgb(213, 139, 57)"  x="12" y="27" width="1" height="1" /><rect shape-rendering="crispEdges" fill="rgb(180, 115, 41)"  x="13" y="14" width="1" height="1" /><rect shape-rendering="crispEdges" fill="rgb(180, 115, 41)"  x="13" y="15" width="1" height="1" /><rect shape-rendering="crispEdges" fill="rgb(255, 205, 139)"  x="13" y="16" width="1" height="1" /><rect shape-rendering="crispEdges" fill="rgb(255, 205, 139)"  x="13" y="17" width="1" height="1" /><rect shape-rendering="crispEdges" fill="rgb(255, 238, 197)"  x="13" y="18" width="1" height="1" /><rect shape-rendering="crispEdges" fill="rgb(255, 238, 197)"  x="13" y="19" width="1" height="1" /><rect shape-rendering="crispEdges" fill="rgb(255, 238, 197)"  x="13" y="20" width="1" height="1" /><rect shape-rendering="crispEdges" fill="rgb(255, 238, 197)"  x="13" y="21" width="1" height="1" /><rect shape-rendering="crispEdges" fill="rgb(246, 222, 172)"  x="13" y="22" width="1" height="1" /><rect shape-rendering="crispEdges" fill="rgb(246, 222, 172)"  x="13" y="23" width="1" height="1" /><rect shape-rendering="crispEdges" fill="rgb(246, 222, 172)"  x="13" y="24" width="1" height="1" /><rect shape-rendering="crispEdges" fill="rgb(246, 197, 139)"  x="13" y="25" width="1" height="1" /><rect shape-rendering="crispEdges" fill="rgb(213, 139, 57)"  x="13" y="26" width="1" height="1" /><rect shape-rendering="crispEdges" fill="rgb(180, 115, 41)"  x="14" y="16" width="1" height="1" /><rect shape-rendering="crispEdges" fill="rgb(222, 164, 98)"  x="14" y="17" width="1" height="1" /><rect shape-rendering="crispEdges" fill="rgb(255, 205, 139)"  x="14" y="18" width="1" height="1" /><rect shape-rendering="crispEdges" fill="rgb(255, 238, 197)"  x="14" y="19" width="1" height="1" /><rect shape-rendering="crispEdges" fill="rgb(246, 222, 172)"  x="14" y="20" width="1" height="1" /><rect shape-rendering="crispEdges" fill="rgb(246, 222, 172)"  x="14" y="21" width="1" height="1" /><rect shape-rendering="crispEdges" fill="rgb(246, 222, 172)"  x="14" y="22" width="1" height="1" /><rect shape-rendering="crispEdges" fill="rgb(255, 255, 238)"  x="14" y="23" width="1" height="1" /><rect shape-rendering="crispEdges" fill="rgb(246, 197, 139)"  x="14" y="24" width="1" height="1" /><rect shape-rendering="crispEdges" fill="rgb(213, 139, 57)"  x="14" y="25" width="1" height="1" /><rect shape-rendering="crispEdges" fill="rgb(180, 115, 41)"  x="15" y="17" width="1" height="1" /><rect shape-rendering="crispEdges" fill="rgb(180, 115, 41)"  x="15" y="18" width="1" height="1" /><rect shape-rendering="crispEdges" fill="rgb(255, 255, 238)"  x="15" y="19" width="1" height="1" /><rect shape-rendering="crispEdges" fill="rgb(246, 222, 172)"  x="15" y="20" width="1" height="1" /><rect shape-rendering="crispEdges" fill="rgb(255, 255, 238)"  x="15" y="21" width="1" height="1" /><rect shape-rendering="crispEdges" fill="rgb(255, 255, 238)"  x="15" y="22" width="1" height="1" /><rect shape-rendering="crispEdges" fill="rgb(246, 197, 139)"  x="15" y="23" width="1" height="1" /><rect shape-rendering="crispEdges" fill="rgb(213, 139, 57)"  x="15" y="24" width="1" height="1" /><rect shape-rendering="crispEdges" fill="rgb(180, 115, 41)"  x="16" y="18" width="1" height="1" /><rect shape-rendering="crispEdges" fill="rgb(222, 164, 98)"  x="16" y="19" width="1" height="1" /><rect shape-rendering="crispEdges" fill="rgb(255, 255, 238)"  x="16" y="20" width="1" height="1" /><rect shape-rendering="crispEdges" fill="rgb(230, 197, 131)"  x="16" y="21" width="1" height="1" /><rect shape-rendering="crispEdges" fill="rgb(230, 197, 131)"  x="16" y="22" width="1" height="1" /><rect shape-rendering="crispEdges" fill="rgb(246, 197, 139)"  x="16" y="23" width="1" height="1" /><rect shape-rendering="crispEdges" fill="rgb(222, 197, 164)"  x="17" y="19" width="1" height="1" /><rect shape-rendering="crispEdges" fill="rgb(222, 164, 98)"  x="17" y="20" width="1" height="1" /><rect shape-rendering="crispEdges" fill="rgb(238, 213, 164)"  x="17" y="21" width="1" height="1" /><rect shape-rendering="crispEdges" fill="rgb(230, 197, 131)"  x="17" y="22" width="1" height="1" /><rect shape-rendering="crispEdges" fill="rgb(238, 197, 131)"  x="17" y="23" width="1" height="1" /><rect shape-rendering="crispEdges" fill="rgb(180, 115, 41)"  x="17" y="24" width="1" height="1" /><rect shape-rendering="crispEdges" fill="rgb(180, 164, 139)"  x="18" y="19" width="1" height="1" /><rect shape-rendering="crispEdges" fill="rgb(180, 115, 41)"  x="18" y="20" width="1" height="1" /><rect shape-rendering="crispEdges" fill="rgb(180, 115, 41)"  x="18" y="21" width="1" height="1" /><rect shape-rendering="crispEdges" fill="rgb(246, 213, 148)"  x="18" y="22" width="1" height="1" /><rect shape-rendering="crispEdges" fill="rgb(246, 213, 148)"  x="18" y="23" width="1" height="1" /><rect shape-rendering="crispEdges" fill="rgb(222, 164, 98)"  x="18" y="24" width="1" height="1" /><rect shape-rendering="crispEdges" fill="rgb(222, 164, 98)"  x="18" y="25" width="1" height="1" /><rect shape-rendering="crispEdges" fill="rgb(115, 90, 65)"  x="19" y="18" width="1" height="1" /><rect shape-rendering="crispEdges" fill="rgb(180, 164, 139)"  x="19" y="19" width="1" height="1" /><rect shape-rendering="crispEdges" fill="rgb(180, 164, 139)"  x="19" y="20" width="1" height="1" /><rect shape-rendering="crispEdges" fill="rgb(180, 164, 139)"  x="19" y="21" width="1" height="1" /><rect shape-rendering="crispEdges" fill="rgb(222, 164, 98)"  x="19" y="22" width="1" height="1" /><rect shape-rendering="crispEdges" fill="rgb(246, 213, 148)"  x="19" y="23" width="1" height="1" /><rect shape-rendering="crispEdges" fill="rgb(246, 213, 148)"  x="19" y="24" width="1" height="1" /><rect shape-rendering="crispEdges" fill="rgb(222, 156, 90)"  x="19" y="25" width="1" height="1" /><rect shape-rendering="crispEdges" fill="rgb(222, 164, 98)"  x="19" y="26" width="1" height="1" /><rect shape-rendering="crispEdges" fill="rgb(131, 106, 82)"  x="20" y="19" width="1" height="1" /><rect shape-rendering="crispEdges" fill="rgb(164, 156, 123)"  x="20" y="20" width="1" height="1" /><rect shape-rendering="crispEdges" fill="rgb(148, 131, 106)"  x="20" y="21" width="1" height="1" /><rect shape-rendering="crispEdges" fill="rgb(180, 115, 41)"  x="20" y="22" width="1" height="1" /><rect shape-rendering="crispEdges" fill="rgb(222, 197, 139)"  x="20" y="23" width="1" height="1" /><rect shape-rendering="crispEdges" fill="rgb(246, 213, 148)"  x="20" y="24" width="1" height="1" /><rect shape-rendering="crispEdges" fill="rgb(222, 164, 98)"  x="20" y="25" width="1" height="1" /><rect shape-rendering="crispEdges" fill="rgb(180, 115, 41)"  x="20" y="26" width="1" height="1" /><rect shape-rendering="crispEdges" fill="rgb(148, 131, 106)"  x="21" y="20" width="1" height="1" /><rect shape-rendering="crispEdges" fill="rgb(172, 197, 156)"  x="21" y="21" width="1" height="1" /><rect shape-rendering="crispEdges" fill="rgb(180, 115, 41)"  x="21" y="22" width="1" height="1" /><rect shape-rendering="crispEdges" fill="rgb(213, 189, 131)"  x="21" y="23" width="1" height="1" /><rect shape-rendering="crispEdges" fill="rgb(222, 164, 98)"  x="21" y="24" width="1" height="1" /><rect shape-rendering="crispEdges" fill="rgb(180, 115, 41)"  x="21" y="25" width="1" height="1" /><rect shape-rendering="crispEdges" fill="rgb(156, 189, 148)"  x="22" y="18" width="1" height="1" /><rect shape-rendering="crispEdges" fill="rgb(172, 197, 156)"  x="22" y="19" width="1" height="1" /><rect shape-rendering="crispEdges" fill="rgb(238, 246, 230)"  x="22" y="20" width="1" height="1" /><rect shape-rendering="crispEdges" fill="rgb(238, 230, 222)"  x="22" y="21" width="1" height="1" /><rect shape-rendering="crispEdges" fill="rgb(172, 197, 156)"  x="22" y="22" width="1" height="1" /><rect shape-rendering="crispEdges" fill="rgb(131, 156, 123)"  x="22" y="23" width="1" height="1" /><rect shape-rendering="crispEdges" fill="rgb(180, 115, 41)"  x="22" y="24" width="1" height="1" /><rect shape-rendering="crispEdges" fill="rgb(156, 189, 148)"  x="23" y="17" width="1" height="1" /><rect shape-rendering="crispEdges" fill="rgb(172, 197, 156)"  x="23" y="18" width="1" height="1" /><rect shape-rendering="crispEdges" fill="rgb(255, 238, 197)"  x="23" y="19" width="1" height="1" /><rect shape-rendering="crispEdges" fill="rgb(255, 238, 197)"  x="23" y="20" width="1" height="1" /><rect shape-rendering="crispEdges" fill="rgb(255, 205, 139)"  x="23" y="21" width="1" height="1" /><rect shape-rendering="crispEdges" fill="rgb(230, 238, 213)"  x="23" y="22" width="1" height="1" /><rect shape-rendering="crispEdges" fill="rgb(172, 205, 164)"  x="23" y="23" width="1" height="1" /><rect shape-rendering="crispEdges" fill="rgb(172, 205, 164)"  x="23" y="24" width="1" height="1" /><rect shape-rendering="crispEdges" fill="rgb(180, 205, 164)"  x="23" y="25" width="1" height="1" /><rect shape-rendering="crispEdges" fill="rgb(156, 189, 148)"  x="24" y="15" width="1" height="1" /><rect shape-rendering="crispEdges" fill="rgb(156, 189, 148)"  x="24" y="16" width="1" height="1" /><rect shape-rendering="crispEdges" fill="rgb(213, 230, 189)"  x="24" y="17" width="1" height="1" /><rect shape-rendering="crispEdges" fill="rgb(238, 246, 222)"  x="24" y="18" width="1" height="1" /><rect shape-rendering="crispEdges" fill="rgb(255, 238, 197)"  x="24" y="19" width="1" height="1" /><rect shape-rendering="crispEdges" fill="rgb(230, 82, 74)"  x="24" y="20" width="1" height="1" /><rect shape-rendering="crispEdges" fill="rgb(230, 197, 131)"  x="24" y="21" width="1" height="1" /><rect shape-rendering="crispEdges" fill="rgb(230, 238, 213)"  x="24" y="22" width="1" height="1" /><rect shape-rendering="crispEdges" fill="rgb(180, 205, 164)"  x="24" y="23" width="1" height="1" /><rect shape-rendering="crispEdges" fill="rgb(180, 205, 164)"  x="24" y="24" width="1" height="1" /><rect shape-rendering="crispEdges" fill="rgb(131, 156, 123)"  x="24" y="25" width="1" height="1" /><rect shape-rendering="crispEdges" fill="rgb(131, 156, 123)"  x="24" y="26" width="1" height="1" /><rect shape-rendering="crispEdges" fill="rgb(156, 189, 148)"  x="25" y="13" width="1" height="1" /><rect shape-rendering="crispEdges" fill="rgb(156, 189, 148)"  x="25" y="14" width="1" height="1" /><rect shape-rendering="crispEdges" fill="rgb(156, 189, 148)"  x="25" y="15" width="1" height="1" /><rect shape-rendering="crispEdges" fill="rgb(222, 230, 197)"  x="25" y="16" width="1" height="1" /><rect shape-rendering="crispEdges" fill="rgb(238, 246, 222)"  x="25" y="17" width="1" height="1" /><rect shape-rendering="crispEdges" fill="rgb(238, 246, 222)"  x="25" y="18" width="1" height="1" /><rect shape-rendering="crispEdges" fill="rgb(255, 205, 139)"  x="25" y="19" width="1" height="1" /><rect shape-rendering="crispEdges" fill="rgb(222, 164, 98)"  x="25" y="20" width="1" height="1" /><rect shape-rendering="crispEdges" fill="rgb(222, 164, 98)"  x="25" y="21" width="1" height="1" /><rect shape-rendering="crispEdges" fill="rgb(180, 205, 164)"  x="25" y="22" width="1" height="1" /><rect shape-rendering="crispEdges" fill="rgb(131, 156, 123)"  x="25" y="23" width="1" height="1" /><rect shape-rendering="crispEdges" fill="rgb(238, 246, 230)"  x="25" y="24" width="1" height="1" /><rect shape-rendering="crispEdges" fill="rgb(222, 238, 205)"  x="25" y="25" width="1" height="1" /><rect shape-rendering="crispEdges" fill="rgb(131, 156, 123)"  x="25" y="26" width="1" height="1" /><rect shape-rendering="crispEdges" fill="rgb(106, 148, 98)"  x="25" y="27" width="1" height="1" /><rect shape-rendering="crispEdges" fill="rgb(131, 156, 123)"  x="26" y="2" width="1" height="1" /><rect shape-rendering="crispEdges" fill="rgb(131, 156, 123)"  x="26" y="3" width="1" height="1" /><rect shape-rendering="crispEdges" fill="rgb(131, 156, 123)"  x="26" y="4" width="1" height="1" /><rect shape-rendering="crispEdges" fill="rgb(180, 205, 164)"  x="26" y="5" width="1" height="1" /><rect shape-rendering="crispEdges" fill="rgb(238, 246, 222)"  x="26" y="6" width="1" height="1" /><rect shape-rendering="crispEdges" fill="rgb(238, 246, 222)"  x="26" y="7" width="1" height="1" /><rect shape-rendering="crispEdges" fill="rgb(180, 205, 164)"  x="26" y="8" width="1" height="1" /><rect shape-rendering="crispEdges" fill="rgb(156, 189, 148)"  x="26" y="9" width="1" height="1" /><rect shape-rendering="crispEdges" fill="rgb(156, 189, 148)"  x="26" y="10" width="1" height="1" /><rect shape-rendering="crispEdges" fill="rgb(156, 189, 148)"  x="26" y="11" width="1" height="1" /><rect shape-rendering="crispEdges" fill="rgb(156, 189, 148)"  x="26" y="12" width="1" height="1" /><rect shape-rendering="crispEdges" fill="rgb(238, 246, 222)"  x="26" y="13" width="1" height="1" /><rect shape-rendering="crispEdges" fill="rgb(230, 246, 213)"  x="26" y="14" width="1" height="1" /><rect shape-rendering="crispEdges" fill="rgb(213, 230, 197)"  x="26" y="15" width="1" height="1" /><rect shape-rendering="crispEdges" fill="rgb(213, 230, 197)"  x="26" y="16" width="1" height="1" /><rect shape-rendering="crispEdges" fill="rgb(205, 222, 189)"  x="26" y="17" width="1" height="1" /><rect shape-rendering="crispEdges" fill="rgb(131, 156, 123)"  x="26" y="18" width="1" height="1" /><rect shape-rendering="crispEdges" fill="rgb(230, 238, 213)"  x="26" y="19" width="1" height="1" /><rect shape-rendering="crispEdges" fill="rgb(230, 238, 213)"  x="26" y="20" width="1" height="1" /><rect shape-rendering="crispEdges" fill="rgb(222, 230, 197)"  x="26" y="21" width="1" height="1" /><rect shape-rendering="crispEdges" fill="rgb(131, 156, 123)"  x="26" y="22" width="1" height="1" /><rect shape-rendering="crispEdges" fill="rgb(238, 246, 230)"  x="26" y="23" width="1" height="1" /><rect shape-rendering="crispEdges" fill="rgb(222, 238, 205)"  x="26" y="24" width="1" height="1" /><rect shape-rendering="crispEdges" fill="rgb(230, 246, 213)"  x="26" y="25" width="1" height="1" /><rect shape-rendering="crispEdges" fill="rgb(172, 205, 164)"  x="26" y="26" width="1" height="1" /><rect shape-rendering="crispEdges" fill="rgb(74, 106, 74)"  x="26" y="27" width="1" height="1" /><rect shape-rendering="crispEdges" fill="rgb(131, 156, 123)"  x="27" y="5" width="1" height="1" /><rect shape-rendering="crispEdges" fill="rgb(106, 148, 98)"  x="27" y="6" width="1" height="1" /><rect shape-rendering="crispEdges" fill="rgb(106, 148, 98)"  x="27" y="7" width="1" height="1" /><rect shape-rendering="crispEdges" fill="rgb(164, 205, 156)"  x="27" y="8" width="1" height="1" /><rect shape-rendering="crispEdges" fill="rgb(172, 205, 156)"  x="27" y="9" width="1" height="1" /><rect shape-rendering="crispEdges" fill="rgb(238, 246, 222)"  x="27" y="10" width="1" height="1" /><rect shape-rendering="crispEdges" fill="rgb(238, 246, 222)"  x="27" y="11" width="1" height="1" /><rect shape-rendering="crispEdges" fill="rgb(213, 230, 197)"  x="27" y="12" width="1" height="1" /><rect shape-rendering="crispEdges" fill="rgb(213, 230, 197)"  x="27" y="13" width="1" height="1" /><rect shape-rendering="crispEdges" fill="rgb(213, 230, 197)"  x="27" y="14" width="1" height="1" /><rect shape-rendering="crispEdges" fill="rgb(213, 230, 197)"  x="27" y="15" width="1" height="1" /><rect shape-rendering="crispEdges" fill="rgb(197, 213, 180)"  x="27" y="16" width="1" height="1" /><rect shape-rendering="crispEdges" fill="rgb(74, 106, 74)"  x="27" y="17" width="1" height="1" /><rect shape-rendering="crispEdges" fill="rgb(172, 205, 164)"  x="27" y="18" width="1" height="1" /><rect shape-rendering="crispEdges" fill="rgb(230, 238, 213)"  x="27" y="19" width="1" height="1" /><rect shape-rendering="crispEdges" fill="rgb(213, 230, 197)"  x="27" y="20" width="1" height="1" /><rect shape-rendering="crispEdges" fill="rgb(131, 156, 123)"  x="27" y="21" width="1" height="1" /><rect shape-rendering="crispEdges" fill="rgb(74, 106, 74)"  x="27" y="22" width="1" height="1" /><rect shape-rendering="crispEdges" fill="rgb(197, 222, 180)"  x="27" y="23" width="1" height="1" /><rect shape-rendering="crispEdges" fill="rgb(213, 238, 197)"  x="27" y="24" width="1" height="1" /><rect shape-rendering="crispEdges" fill="rgb(205, 222, 189)"  x="27" y="25" width="1" height="1" /><rect shape-rendering="crispEdges" fill="rgb(74, 106, 74)"  x="27" y="26" width="1" height="1" /><rect shape-rendering="crispEdges" fill="rgb(131, 156, 123)"  x="28" y="7" width="1" height="1" /><rect shape-rendering="crispEdges" fill="rgb(106, 148, 98)"  x="28" y="8" width="1" height="1" /><rect shape-rendering="crispEdges" fill="rgb(106, 148, 98)"  x="28" y="9" width="1" height="1" /><rect shape-rendering="crispEdges" fill="rgb(106, 148, 98)"  x="28" y="10" width="1" height="1" /><rect shape-rendering="crispEdges" fill="rgb(164, 197, 148)"  x="28" y="11" width="1" height="1" /><rect shape-rendering="crispEdges" fill="rgb(164, 197, 148)"  x="28" y="12" width="1" height="1" /><rect shape-rendering="crispEdges" fill="rgb(164, 197, 148)"  x="28" y="13" width="1" height="1" /><rect shape-rendering="crispEdges" fill="rgb(74, 106, 74)"  x="28" y="14" width="1" height="1" /><rect shape-rendering="crispEdges" fill="rgb(131, 156, 123)"  x="28" y="15" width="1" height="1" /><rect shape-rendering="crispEdges" fill="rgb(74, 106, 74)"  x="28" y="16" width="1" height="1" /><rect shape-rendering="crispEdges" fill="rgb(156, 189, 148)"  x="28" y="17" width="1" height="1" /><rect shape-rendering="crispEdges" fill="rgb(213, 230, 197)"  x="28" y="18" width="1" height="1" /><rect shape-rendering="crispEdges" fill="rgb(205, 222, 189)"  x="28" y="19" width="1" height="1" /><rect shape-rendering="crispEdges" fill="rgb(106, 148, 98)"  x="28" y="20" width="1" height="1" /><rect shape-rendering="crispEdges" fill="rgb(74, 106, 74)"  x="28" y="21" width="1" height="1" /><rect shape-rendering="crispEdges" fill="rgb(238, 246, 230)"  x="28" y="22" width="1" height="1" /><rect shape-rendering="crispEdges" fill="rgb(189, 213, 172)"  x="28" y="23" width="1" height="1" /><rect shape-rendering="crispEdges" fill="rgb(180, 213, 172)"  x="28" y="24" width="1" height="1" /><rect shape-rendering="crispEdges" fill="rgb(131, 156, 123)"  x="28" y="25" width="1" height="1" /><rect shape-rendering="crispEdges" fill="rgb(106, 148, 98)"  x="29" y="10" width="1" height="1" /><rect shape-rendering="crispEdges" fill="rgb(106, 148, 98)"  x="29" y="11" width="1" height="1" /><rect shape-rendering="crispEdges" fill="rgb(74, 106, 74)"  x="29" y="12" width="1" height="1" /><rect shape-rendering="crispEdges" fill="rgb(74, 106, 74)"  x="29" y="13" width="1" height="1" /><rect shape-rendering="crispEdges" fill="rgb(180, 205, 164)"  x="29" y="14" width="1" height="1" /><rect shape-rendering="crispEdges" fill="rgb(180, 205, 164)"  x="29" y="15" width="1" height="1" /><rect shape-rendering="crispEdges" fill="rgb(180, 205, 164)"  x="29" y="16" width="1" height="1" /><rect shape-rendering="crispEdges" fill="rgb(156, 189, 148)"  x="29" y="17" width="1" height="1" /><rect shape-rendering="crispEdges" fill="rgb(139, 164, 131)"  x="29" y="18" width="1" height="1" /><rect shape-rendering="crispEdges" fill="rgb(106, 148, 98)"  x="29" y="19" width="1" height="1" /><rect shape-rendering="crispEdges" fill="rgb(74, 106, 74)"  x="29" y="20" width="1" height="1" /><rect shape-rendering="crispEdges" fill="rgb(197, 213, 180)"  x="29" y="21" width="1" height="1" /><rect shape-rendering="crispEdges" fill="rgb(164, 197, 156)"  x="29" y="22" width="1" height="1" /><rect shape-rendering="crispEdges" fill="rgb(131, 156, 123)"  x="29" y="23" width="1" height="1" /><rect shape-rendering="crispEdges" fill="rgb(74, 106, 74)"  x="29" y="24" width="1" height="1" /><rect shape-rendering="crispEdges" fill="rgb(82, 115, 82)"  x="30" y="12" width="1" height="1" /><rect shape-rendering="crispEdges" fill="rgb(131, 156, 123)"  x="30" y="13" width="1" height="1" /><rect shape-rendering="crispEdges" fill="rgb(131, 156, 123)"  x="30" y="14" width="1" height="1" /><rect shape-rendering="crispEdges" fill="rgb(106, 148, 98)"  x="30" y="15" width="1" height="1" /><rect shape-rendering="crispEdges" fill="rgb(106, 148, 98)"  x="30" y="16" width="1" height="1" /><rect shape-rendering="crispEdges" fill="rgb(106, 148, 98)"  x="30" y="17" width="1" height="1" /><rect shape-rendering="crispEdges" fill="rgb(74, 106, 74)"  x="30" y="18" width="1" height="1" /><rect shape-rendering="crispEdges" fill="rgb(74, 106, 74)"  x="30" y="19" width="1" height="1" /><rect shape-rendering="crispEdges" fill="rgb(106, 148, 98)"  x="30" y="20" width="1" height="1" /><rect shape-rendering="crispEdges" fill="rgb(106, 148, 98)"  x="30" y="21" width="1" height="1" /><rect shape-rendering="crispEdges" fill="rgb(74, 106, 74)"  x="30" y="22" width="1" height="1" /></svg>