<svg xmlns="http://www.w3.org/2000/svg" xmlns:xlink= "http://www.w3.org/1999/xlink" width="32" height="32" viewBox ="0 0 32 32"><rect shape-rendering="crispEdges" fill="rgb(172, 57, 0)"  x="2" y="13" width="1" height="1" /><rect shape-rendering="crispEdges" fill="rgb(172, 57, 0)"  x="2" y="14" width="1" height="1" /><rect shape-rendering="crispEdges" fill="rgb(172, 57, 0)"  x="2" y="15" width="1" height="1" /><rect shape-rendering="crispEdges" fill="rgb(172, 57, 0)"  x="2" y="16" width="1" height="1" /><rect shape-rendering="crispEdges" fill="rgb(172, 57, 0)"  x="2" y="17" width="1" height="1" /><rect shape-rendering="crispEdges" fill="rgb(172, 57, 0)"  x="3" y="11" width="1" height="1" /><rect shape-rendering="crispEdges" fill="rgb(189, 82, 0)"  x="3" y="12" width="1" height="1" /><rect shape-rendering="crispEdges" fill="rgb(213, 115, 8)"  x="3" y="13" width="1" height="1" /><rect shape-rendering="crispEdges" fill="rgb(213, 115, 8)"  x="3" y="14" width="1" height="1" /><rect shape-rendering="crispEdges" fill="rgb(189, 82, 0)"  x="3" y="15" width="1" height="1" /><rect shape-rendering="crispEdges" fill="rgb(189, 82, 0)"  x="3" y="16" width="1" height="1" /><rect shape-rendering="crispEdges" fill="rgb(189, 82, 0)"  x="3" y="17" width="1" height="1" /><rect shape-rendering="crispEdges" fill="rgb(189, 82, 0)"  x="3" y="18" width="1" height="1" /><rect shape-rendering="crispEdges" fill="rgb(172, 57, 0)"  x="3" y="19" width="1" height="1" /><rect shape-rendering="crispEdges" fill="rgb(172, 57, 0)"  x="4" y="10" width="1" height="1" /><rect shape-rendering="crispEdges" fill="rgb(213, 115, 8)"  x="4" y="11" width="1" height="1" /><rect shape-rendering="crispEdges" fill="rgb(238, 148, 16)"  x="4" y="12" width="1" height="1" /><rect shape-rendering="crispEdges" fill="rgb(238, 148, 16)"  x="4" y="13" width="1" height="1" /><rect shape-rendering="crispEdges" fill="rgb(238, 148, 16)"  x="4" y="14" width="1" height="1" /><rect shape-rendering="crispEdges" fill="rgb(213, 115, 8)"  x="4" y="15" width="1" height="1" /><rect shape-rendering="crispEdges" fill="rgb(189, 82, 0)"  x="4" y="16" width="1" height="1" /><rect shape-rendering="crispEdges" fill="rgb(213, 115, 8)"  x="4" y="17" width="1" height="1" /><rect shape-rendering="crispEdges" fill="rgb(213, 115, 8)"  x="4" y="18" width="1" height="1" /><rect shape-rendering="crispEdges" fill="rgb(189, 82, 0)"  x="4" y="19" width="1" height="1" /><rect shape-rendering="crispEdges" fill="rgb(172, 57, 0)"  x="4" y="20" width="1" height="1" /><rect shape-rendering="crispEdges" fill="rgb(189, 82, 0)"  x="5" y="10" width="1" height="1" /><rect shape-rendering="crispEdges" fill="rgb(238, 148, 16)"  x="5" y="11" width="1" height="1" /><rect shape-rendering="crispEdges" fill="rgb(189, 82, 0)"  x="5" y="12" width="1" height="1" /><rect shape-rendering="crispEdges" fill="rgb(189, 82, 0)"  x="5" y="13" width="1" height="1" /><rect shape-rendering="crispEdges" fill="rgb(172, 57, 0)"  x="5" y="14" width="1" height="1" /><rect shape-rendering="crispEdges" fill="rgb(238, 148, 16)"  x="5" y="15" width="1" height="1" /><rect shape-rendering="crispEdges" fill="rgb(255, 255, 123)"  x="5" y="16" width="1" height="1" /><rect shape-rendering="crispEdges" fill="rgb(189, 82, 0)"  x="5" y="17" width="1" height="1" /><rect shape-rendering="crispEdges" fill="rgb(189, 82, 0)"  x="5" y="18" width="1" height="1" /><rect shape-rendering="crispEdges" fill="rgb(213, 115, 8)"  x="5" y="19" width="1" height="1" /><rect shape-rendering="crispEdges" fill="rgb(189, 82, 0)"  x="5" y="20" width="1" height="1" /><rect shape-rendering="crispEdges" fill="rgb(189, 82, 0)"  x="5" y="21" width="1" height="1" /><rect shape-rendering="crispEdges" fill="rgb(189, 82, 0)"  x="6" y="9" width="1" height="1" /><rect shape-rendering="crispEdges" fill="rgb(238, 148, 16)"  x="6" y="10" width="1" height="1" /><rect shape-rendering="crispEdges" fill="rgb(213, 115, 8)"  x="6" y="11" width="1" height="1" /><rect shape-rendering="crispEdges" fill="rgb(131, 90, 57)"  x="6" y="12" width="1" height="1" /><rect shape-rendering="crispEdges" fill="rgb(131, 90, 57)"  x="6" y="13" width="1" height="1" /><rect shape-rendering="crispEdges" fill="rgb(98, 57, 49)"  x="6" y="14" width="1" height="1" /><rect shape-rendering="crispEdges" fill="rgb(98, 57, 49)"  x="6" y="15" width="1" height="1" /><rect shape-rendering="crispEdges" fill="rgb(238, 148, 16)"  x="6" y="16" width="1" height="1" /><rect shape-rendering="crispEdges" fill="rgb(255, 255, 123)"  x="6" y="17" width="1" height="1" /><rect shape-rendering="crispEdges" fill="rgb(255, 213, 57)"  x="6" y="18" width="1" height="1" /><rect shape-rendering="crispEdges" fill="rgb(189, 82, 0)"  x="6" y="19" width="1" height="1" /><rect shape-rendering="crispEdges" fill="rgb(213, 115, 8)"  x="6" y="20" width="1" height="1" /><rect shape-rendering="crispEdges" fill="rgb(246, 172, 24)"  x="6" y="21" width="1" height="1" /><rect shape-rendering="crispEdges" fill="rgb(213, 115, 8)"  x="6" y="22" width="1" height="1" /><rect shape-rendering="crispEdges" fill="rgb(238, 148, 16)"  x="7" y="9" width="1" height="1" /><rect shape-rendering="crispEdges" fill="rgb(213, 115, 8)"  x="7" y="10" width="1" height="1" /><rect shape-rendering="crispEdges" fill="rgb(131, 90, 57)"  x="7" y="11" width="1" height="1" /><rect shape-rendering="crispEdges" fill="rgb(131, 90, 57)"  x="7" y="12" width="1" height="1" /><rect shape-rendering="crispEdges" fill="rgb(131, 90, 57)"  x="7" y="13" width="1" height="1" /><rect shape-rendering="crispEdges" fill="rgb(131, 90, 57)"  x="7" y="14" width="1" height="1" /><rect shape-rendering="crispEdges" fill="rgb(98, 57, 49)"  x="7" y="15" width="1" height="1" /><rect shape-rendering="crispEdges" fill="rgb(98, 57, 49)"  x="7" y="16" width="1" height="1" /><rect shape-rendering="crispEdges" fill="rgb(238, 148, 16)"  x="7" y="17" width="1" height="1" /><rect shape-rendering="crispEdges" fill="rgb(238, 148, 16)"  x="7" y="18" width="1" height="1" /><rect shape-rendering="crispEdges" fill="rgb(255, 213, 57)"  x="7" y="19" width="1" height="1" /><rect shape-rendering="crispEdges" fill="rgb(213, 115, 8)"  x="7" y="20" width="1" height="1" /><rect shape-rendering="crispEdges" fill="rgb(189, 82, 0)"  x="7" y="21" width="1" height="1" /><rect shape-rendering="crispEdges" fill="rgb(255, 213, 57)"  x="7" y="22" width="1" height="1" /><rect shape-rendering="crispEdges" fill="rgb(189, 82, 0)"  x="7" y="23" width="1" height="1" /><rect shape-rendering="crispEdges" fill="rgb(172, 57, 0)"  x="8" y="8" width="1" height="1" /><rect shape-rendering="crispEdges" fill="rgb(213, 115, 8)"  x="8" y="9" width="1" height="1" /><rect shape-rendering="crispEdges" fill="rgb(189, 82, 0)"  x="8" y="10" width="1" height="1" /><rect shape-rendering="crispEdges" fill="rgb(131, 90, 57)"  x="8" y="11" width="1" height="1" /><rect shape-rendering="crispEdges" fill="rgb(131, 90, 57)"  x="8" y="12" width="1" height="1" /><rect shape-rendering="crispEdges" fill="rgb(131, 90, 57)"  x="8" y="13" width="1" height="1" /><rect shape-rendering="crispEdges" fill="rgb(131, 90, 57)"  x="8" y="14" width="1" height="1" /><rect shape-rendering="crispEdges" fill="rgb(98, 57, 49)"  x="8" y="15" width="1" height="1" /><rect shape-rendering="crispEdges" fill="rgb(98, 57, 49)"  x="8" y="16" width="1" height="1" /><rect shape-rendering="crispEdges" fill="rgb(189, 82, 0)"  x="8" y="17" width="1" height="1" /><rect shape-rendering="crispEdges" fill="rgb(189, 82, 0)"  x="8" y="18" width="1" height="1" /><rect shape-rendering="crispEdges" fill="rgb(213, 115, 8)"  x="8" y="19" width="1" height="1" /><rect shape-rendering="crispEdges" fill="rgb(238, 148, 16)"  x="8" y="20" width="1" height="1" /><rect shape-rendering="crispEdges" fill="rgb(172, 57, 0)"  x="8" y="21" width="1" height="1" /><rect shape-rendering="crispEdges" fill="rgb(246, 172, 24)"  x="8" y="22" width="1" height="1" /><rect shape-rendering="crispEdges" fill="rgb(189, 82, 0)"  x="8" y="23" width="1" height="1" /><rect shape-rendering="crispEdges" fill="rgb(189, 82, 0)"  x="9" y="8" width="1" height="1" /><rect shape-rendering="crispEdges" fill="rgb(213, 115, 8)"  x="9" y="9" width="1" height="1" /><rect shape-rendering="crispEdges" fill="rgb(156, 115, 74)"  x="9" y="10" width="1" height="1" /><rect shape-rendering="crispEdges" fill="rgb(131, 90, 57)"  x="9" y="11" width="1" height="1" /><rect shape-rendering="crispEdges" fill="rgb(156, 115, 74)"  x="9" y="12" width="1" height="1" /><rect shape-rendering="crispEdges" fill="rgb(131, 90, 57)"  x="9" y="13" width="1" height="1" /><rect shape-rendering="crispEdges" fill="rgb(98, 57, 49)"  x="9" y="14" width="1" height="1" /><rect shape-rendering="crispEdges" fill="rgb(172, 57, 0)"  x="9" y="20" width="1" height="1" /><rect shape-rendering="crispEdges" fill="rgb(172, 57, 0)"  x="9" y="21" width="1" height="1" /><rect shape-rendering="crispEdges" fill="rgb(172, 57, 0)"  x="9" y="22" width="1" height="1" /><rect shape-rendering="crispEdges" fill="rgb(172, 57, 0)"  x="9" y="23" width="1" height="1" /><rect shape-rendering="crispEdges" fill="rgb(189, 82, 0)"  x="10" y="8" width="1" height="1" /><rect shape-rendering="crispEdges" fill="rgb(213, 115, 8)"  x="10" y="9" width="1" height="1" /><rect shape-rendering="crispEdges" fill="rgb(156, 115, 74)"  x="10" y="10" width="1" height="1" /><rect shape-rendering="crispEdges" fill="rgb(131, 90, 57)"  x="10" y="11" width="1" height="1" /><rect shape-rendering="crispEdges" fill="rgb(156, 115, 74)"  x="10" y="12" width="1" height="1" /><rect shape-rendering="crispEdges" fill="rgb(131, 90, 57)"  x="10" y="13" width="1" height="1" /><rect shape-rendering="crispEdges" fill="rgb(213, 115, 8)"  x="10" y="17" width="1" height="1" /><rect shape-rendering="crispEdges" fill="rgb(213, 115, 8)"  x="10" y="18" width="1" height="1" /><rect shape-rendering="crispEdges" fill="rgb(189, 82, 0)"  x="11" y="8" width="1" height="1" /><rect shape-rendering="crispEdges" fill="rgb(156, 115, 74)"  x="11" y="9" width="1" height="1" /><rect shape-rendering="crispEdges" fill="rgb(156, 115, 74)"  x="11" y="10" width="1" height="1" /><rect shape-rendering="crispEdges" fill="rgb(131, 90, 57)"  x="11" y="11" width="1" height="1" /><rect shape-rendering="crispEdges" fill="rgb(180, 139, 90)"  x="11" y="12" width="1" height="1" /><rect shape-rendering="crispEdges" fill="rgb(98, 57, 49)"  x="11" y="13" width="1" height="1" /><rect shape-rendering="crispEdges" fill="rgb(172, 57, 0)"  x="11" y="16" width="1" height="1" /><rect shape-rendering="crispEdges" fill="rgb(213, 115, 8)"  x="11" y="17" width="1" height="1" /><rect shape-rendering="crispEdges" fill="rgb(189, 82, 0)"  x="11" y="18" width="1" height="1" /><rect shape-rendering="crispEdges" fill="rgb(172, 57, 0)"  x="11" y="19" width="1" height="1" /><rect shape-rendering="crispEdges" fill="rgb(189, 82, 0)"  x="12" y="8" width="1" height="1" /><rect shape-rendering="crispEdges" fill="rgb(156, 115, 74)"  x="12" y="9" width="1" height="1" /><rect shape-rendering="crispEdges" fill="rgb(131, 90, 57)"  x="12" y="10" width="1" height="1" /><rect shape-rendering="crispEdges" fill="rgb(156, 115, 74)"  x="12" y="11" width="1" height="1" /><rect shape-rendering="crispEdges" fill="rgb(180, 139, 90)"  x="12" y="12" width="1" height="1" /><rect shape-rendering="crispEdges" fill="rgb(98, 57, 49)"  x="12" y="13" width="1" height="1" /><rect shape-rendering="crispEdges" fill="rgb(189, 82, 0)"  x="12" y="15" width="1" height="1" /><rect shape-rendering="crispEdges" fill="rgb(238, 148, 16)"  x="12" y="16" width="1" height="1" /><rect shape-rendering="crispEdges" fill="rgb(213, 32, 24)"  x="12" y="17" width="1" height="1" /><rect shape-rendering="crispEdges" fill="rgb(172, 24, 16)"  x="12" y="18" width="1" height="1" /><rect shape-rendering="crispEdges" fill="rgb(189, 82, 0)"  x="12" y="19" width="1" height="1" /><rect shape-rendering="crispEdges" fill="rgb(172, 57, 0)"  x="12" y="20" width="1" height="1" /><rect shape-rendering="crispEdges" fill="rgb(172, 57, 0)"  x="13" y="8" width="1" height="1" /><rect shape-rendering="crispEdges" fill="rgb(156, 115, 74)"  x="13" y="9" width="1" height="1" /><rect shape-rendering="crispEdges" fill="rgb(131, 90, 57)"  x="13" y="10" width="1" height="1" /><rect shape-rendering="crispEdges" fill="rgb(180, 139, 90)"  x="13" y="11" width="1" height="1" /><rect shape-rendering="crispEdges" fill="rgb(131, 90, 57)"  x="13" y="12" width="1" height="1" /><rect shape-rendering="crispEdges" fill="rgb(213, 115, 8)"  x="13" y="14" width="1" height="1" /><rect shape-rendering="crispEdges" fill="rgb(238, 148, 16)"  x="13" y="15" width="1" height="1" /><rect shape-rendering="crispEdges" fill="rgb(213, 32, 24)"  x="13" y="16" width="1" height="1" /><rect shape-rendering="crispEdges" fill="rgb(255, 189, 164)"  x="13" y="17" width="1" height="1" /><rect shape-rendering="crispEdges" fill="rgb(238, 98, 90)"  x="13" y="18" width="1" height="1" /><rect shape-rendering="crispEdges" fill="rgb(230, 65, 57)"  x="13" y="19" width="1" height="1" /><rect shape-rendering="crispEdges" fill="rgb(238, 148, 16)"  x="13" y="20" width="1" height="1" /><rect shape-rendering="crispEdges" fill="rgb(172, 57, 0)"  x="13" y="21" width="1" height="1" /><rect shape-rendering="crispEdges" fill="rgb(172, 57, 0)"  x="14" y="9" width="1" height="1" /><rect shape-rendering="crispEdges" fill="rgb(98, 57, 49)"  x="14" y="10" width="1" height="1" /><rect shape-rendering="crispEdges" fill="rgb(156, 115, 74)"  x="14" y="11" width="1" height="1" /><rect shape-rendering="crispEdges" fill="rgb(131, 90, 57)"  x="14" y="12" width="1" height="1" /><rect shape-rendering="crispEdges" fill="rgb(189, 82, 0)"  x="14" y="14" width="1" height="1" /><rect shape-rendering="crispEdges" fill="rgb(238, 148, 16)"  x="14" y="15" width="1" height="1" /><rect shape-rendering="crispEdges" fill="rgb(230, 65, 57)"  x="14" y="16" width="1" height="1" /><rect shape-rendering="crispEdges" fill="rgb(255, 189, 164)"  x="14" y="17" width="1" height="1" /><rect shape-rendering="crispEdges" fill="rgb(246, 148, 123)"  x="14" y="18" width="1" height="1" /><rect shape-rendering="crispEdges" fill="rgb(238, 98, 90)"  x="14" y="19" width="1" height="1" /><rect shape-rendering="crispEdges" fill="rgb(189, 82, 0)"  x="14" y="20" width="1" height="1" /><rect shape-rendering="crispEdges" fill="rgb(246, 172, 24)"  x="14" y="21" width="1" height="1" /><rect shape-rendering="crispEdges" fill="rgb(172, 57, 0)"  x="14" y="22" width="1" height="1" /><rect shape-rendering="crispEdges" fill="rgb(98, 57, 49)"  x="15" y="11" width="1" height="1" /><rect shape-rendering="crispEdges" fill="rgb(98, 57, 49)"  x="15" y="12" width="1" height="1" /><rect shape-rendering="crispEdges" fill="rgb(189, 82, 0)"  x="15" y="15" width="1" height="1" /><rect shape-rendering="crispEdges" fill="rgb(255, 213, 57)"  x="15" y="16" width="1" height="1" /><rect shape-rendering="crispEdges" fill="rgb(238, 98, 90)"  x="15" y="17" width="1" height="1" /><rect shape-rendering="crispEdges" fill="rgb(238, 98, 90)"  x="15" y="18" width="1" height="1" /><rect shape-rendering="crispEdges" fill="rgb(131, 16, 8)"  x="15" y="19" width="1" height="1" /><rect shape-rendering="crispEdges" fill="rgb(255, 238, 90)"  x="15" y="20" width="1" height="1" /><rect shape-rendering="crispEdges" fill="rgb(172, 57, 0)"  x="15" y="21" width="1" height="1" /><rect shape-rendering="crispEdges" fill="rgb(213, 115, 8)"  x="16" y="16" width="1" height="1" /><rect shape-rendering="crispEdges" fill="rgb(255, 213, 57)"  x="16" y="17" width="1" height="1" /><rect shape-rendering="crispEdges" fill="rgb(255, 213, 57)"  x="16" y="18" width="1" height="1" /><rect shape-rendering="crispEdges" fill="rgb(255, 213, 57)"  x="16" y="19" width="1" height="1" /><rect shape-rendering="crispEdges" fill="rgb(172, 57, 0)"  x="16" y="20" width="1" height="1" /><rect shape-rendering="crispEdges" fill="rgb(98, 57, 49)"  x="17" y="11" width="1" height="1" /><rect shape-rendering="crispEdges" fill="rgb(98, 57, 49)"  x="17" y="12" width="1" height="1" /><rect shape-rendering="crispEdges" fill="rgb(238, 148, 16)"  x="17" y="17" width="1" height="1" /><rect shape-rendering="crispEdges" fill="rgb(213, 115, 8)"  x="17" y="18" width="1" height="1" /><rect shape-rendering="crispEdges" fill="rgb(189, 82, 0)"  x="17" y="19" width="1" height="1" /><rect shape-rendering="crispEdges" fill="rgb(131, 90, 57)"  x="18" y="9" width="1" height="1" /><rect shape-rendering="crispEdges" fill="rgb(131, 90, 57)"  x="18" y="10" width="1" height="1" /><rect shape-rendering="crispEdges" fill="rgb(131, 90, 57)"  x="18" y="11" width="1" height="1" /><rect shape-rendering="crispEdges" fill="rgb(98, 57, 49)"  x="18" y="12" width="1" height="1" /><rect shape-rendering="crispEdges" fill="rgb(238, 148, 16)"  x="18" y="20" width="1" height="1" /><rect shape-rendering="crispEdges" fill="rgb(213, 115, 8)"  x="18" y="21" width="1" height="1" /><rect shape-rendering="crispEdges" fill="rgb(189, 82, 0)"  x="18" y="22" width="1" height="1" /><rect shape-rendering="crispEdges" fill="rgb(131, 90, 57)"  x="19" y="8" width="1" height="1" /><rect shape-rendering="crispEdges" fill="rgb(172, 57, 0)"  x="19" y="9" width="1" height="1" /><rect shape-rendering="crispEdges" fill="rgb(189, 82, 0)"  x="19" y="10" width="1" height="1" /><rect shape-rendering="crispEdges" fill="rgb(131, 90, 57)"  x="19" y="11" width="1" height="1" /><rect shape-rendering="crispEdges" fill="rgb(131, 90, 57)"  x="19" y="12" width="1" height="1" /><rect shape-rendering="crispEdges" fill="rgb(98, 57, 49)"  x="19" y="13" width="1" height="1" /><rect shape-rendering="crispEdges" fill="rgb(172, 57, 0)"  x="19" y="17" width="1" height="1" /><rect shape-rendering="crispEdges" fill="rgb(238, 148, 16)"  x="19" y="18" width="1" height="1" /><rect shape-rendering="crispEdges" fill="rgb(246, 172, 24)"  x="19" y="19" width="1" height="1" /><rect shape-rendering="crispEdges" fill="rgb(255, 213, 57)"  x="19" y="20" width="1" height="1" /><rect shape-rendering="crispEdges" fill="rgb(255, 213, 57)"  x="19" y="21" width="1" height="1" /><rect shape-rendering="crispEdges" fill="rgb(172, 57, 0)"  x="19" y="22" width="1" height="1" /><rect shape-rendering="crispEdges" fill="rgb(172, 57, 0)"  x="20" y="8" width="1" height="1" /><rect shape-rendering="crispEdges" fill="rgb(189, 82, 0)"  x="20" y="9" width="1" height="1" /><rect shape-rendering="crispEdges" fill="rgb(180, 139, 90)"  x="20" y="10" width="1" height="1" /><rect shape-rendering="crispEdges" fill="rgb(131, 90, 57)"  x="20" y="11" width="1" height="1" /><rect shape-rendering="crispEdges" fill="rgb(180, 139, 90)"  x="20" y="12" width="1" height="1" /><rect shape-rendering="crispEdges" fill="rgb(98, 57, 49)"  x="20" y="13" width="1" height="1" /><rect shape-rendering="crispEdges" fill="rgb(172, 57, 0)"  x="20" y="16" width="1" height="1" /><rect shape-rendering="crispEdges" fill="rgb(189, 82, 0)"  x="20" y="17" width="1" height="1" /><rect shape-rendering="crispEdges" fill="rgb(255, 213, 57)"  x="20" y="18" width="1" height="1" /><rect shape-rendering="crispEdges" fill="rgb(255, 213, 57)"  x="20" y="19" width="1" height="1" /><rect shape-rendering="crispEdges" fill="rgb(255, 213, 57)"  x="20" y="20" width="1" height="1" /><rect shape-rendering="crispEdges" fill="rgb(255, 255, 123)"  x="20" y="21" width="1" height="1" /><rect shape-rendering="crispEdges" fill="rgb(172, 57, 0)"  x="20" y="22" width="1" height="1" /><rect shape-rendering="crispEdges" fill="rgb(213, 115, 8)"  x="20" y="23" width="1" height="1" /><rect shape-rendering="crispEdges" fill="rgb(213, 115, 8)"  x="20" y="24" width="1" height="1" /><rect shape-rendering="crispEdges" fill="rgb(172, 57, 0)"  x="21" y="8" width="1" height="1" /><rect shape-rendering="crispEdges" fill="rgb(213, 115, 8)"  x="21" y="9" width="1" height="1" /><rect shape-rendering="crispEdges" fill="rgb(180, 139, 90)"  x="21" y="10" width="1" height="1" /><rect shape-rendering="crispEdges" fill="rgb(156, 115, 74)"  x="21" y="11" width="1" height="1" /><rect shape-rendering="crispEdges" fill="rgb(180, 139, 90)"  x="21" y="12" width="1" height="1" /><rect shape-rendering="crispEdges" fill="rgb(156, 115, 74)"  x="21" y="13" width="1" height="1" /><rect shape-rendering="crispEdges" fill="rgb(98, 57, 49)"  x="21" y="14" width="1" height="1" /><rect shape-rendering="crispEdges" fill="rgb(98, 57, 49)"  x="21" y="15" width="1" height="1" /><rect shape-rendering="crispEdges" fill="rgb(172, 57, 0)"  x="21" y="16" width="1" height="1" /><rect shape-rendering="crispEdges" fill="rgb(189, 82, 0)"  x="21" y="17" width="1" height="1" /><rect shape-rendering="crispEdges" fill="rgb(255, 213, 57)"  x="21" y="18" width="1" height="1" /><rect shape-rendering="crispEdges" fill="rgb(255, 213, 57)"  x="21" y="19" width="1" height="1" /><rect shape-rendering="crispEdges" fill="rgb(255, 255, 123)"  x="21" y="20" width="1" height="1" /><rect shape-rendering="crispEdges" fill="rgb(255, 255, 123)"  x="21" y="21" width="1" height="1" /><rect shape-rendering="crispEdges" fill="rgb(189, 82, 0)"  x="21" y="22" width="1" height="1" /><rect shape-rendering="crispEdges" fill="rgb(255, 189, 98)"  x="21" y="23" width="1" height="1" /><rect shape-rendering="crispEdges" fill="rgb(213, 115, 8)"  x="21" y="24" width="1" height="1" /><rect shape-rendering="crispEdges" fill="rgb(172, 57, 0)"  x="22" y="8" width="1" height="1" /><rect shape-rendering="crispEdges" fill="rgb(213, 115, 8)"  x="22" y="9" width="1" height="1" /><rect shape-rendering="crispEdges" fill="rgb(180, 139, 90)"  x="22" y="10" width="1" height="1" /><rect shape-rendering="crispEdges" fill="rgb(180, 139, 90)"  x="22" y="11" width="1" height="1" /><rect shape-rendering="crispEdges" fill="rgb(131, 90, 57)"  x="22" y="12" width="1" height="1" /><rect shape-rendering="crispEdges" fill="rgb(180, 139, 90)"  x="22" y="13" width="1" height="1" /><rect shape-rendering="crispEdges" fill="rgb(156, 115, 74)"  x="22" y="14" width="1" height="1" /><rect shape-rendering="crispEdges" fill="rgb(98, 57, 49)"  x="22" y="15" width="1" height="1" /><rect shape-rendering="crispEdges" fill="rgb(172, 57, 0)"  x="22" y="16" width="1" height="1" /><rect shape-rendering="crispEdges" fill="rgb(189, 82, 0)"  x="22" y="17" width="1" height="1" /><rect shape-rendering="crispEdges" fill="rgb(255, 255, 123)"  x="22" y="18" width="1" height="1" /><rect shape-rendering="crispEdges" fill="rgb(255, 255, 123)"  x="22" y="19" width="1" height="1" /><rect shape-rendering="crispEdges" fill="rgb(255, 255, 123)"  x="22" y="20" width="1" height="1" /><rect shape-rendering="crispEdges" fill="rgb(255, 255, 123)"  x="22" y="21" width="1" height="1" /><rect shape-rendering="crispEdges" fill="rgb(189, 82, 0)"  x="22" y="22" width="1" height="1" /><rect shape-rendering="crispEdges" fill="rgb(255, 189, 98)"  x="22" y="23" width="1" height="1" /><rect shape-rendering="crispEdges" fill="rgb(189, 82, 0)"  x="22" y="24" width="1" height="1" /><rect shape-rendering="crispEdges" fill="rgb(189, 82, 0)"  x="23" y="8" width="1" height="1" /><rect shape-rendering="crispEdges" fill="rgb(213, 115, 8)"  x="23" y="9" width="1" height="1" /><rect shape-rendering="crispEdges" fill="rgb(156, 115, 74)"  x="23" y="10" width="1" height="1" /><rect shape-rendering="crispEdges" fill="rgb(180, 139, 90)"  x="23" y="11" width="1" height="1" /><rect shape-rendering="crispEdges" fill="rgb(156, 115, 74)"  x="23" y="12" width="1" height="1" /><rect shape-rendering="crispEdges" fill="rgb(131, 90, 57)"  x="23" y="13" width="1" height="1" /><rect shape-rendering="crispEdges" fill="rgb(131, 90, 57)"  x="23" y="14" width="1" height="1" /><rect shape-rendering="crispEdges" fill="rgb(131, 90, 57)"  x="23" y="15" width="1" height="1" /><rect shape-rendering="crispEdges" fill="rgb(189, 82, 0)"  x="23" y="16" width="1" height="1" /><rect shape-rendering="crispEdges" fill="rgb(189, 82, 0)"  x="23" y="17" width="1" height="1" /><rect shape-rendering="crispEdges" fill="rgb(255, 255, 123)"  x="23" y="18" width="1" height="1" /><rect shape-rendering="crispEdges" fill="rgb(255, 213, 57)"  x="23" y="19" width="1" height="1" /><rect shape-rendering="crispEdges" fill="rgb(255, 213, 57)"  x="23" y="20" width="1" height="1" /><rect shape-rendering="crispEdges" fill="rgb(255, 213, 57)"  x="23" y="21" width="1" height="1" /><rect shape-rendering="crispEdges" fill="rgb(189, 82, 0)"  x="23" y="22" width="1" height="1" /><rect shape-rendering="crispEdges" fill="rgb(255, 189, 98)"  x="23" y="23" width="1" height="1" /><rect shape-rendering="crispEdges" fill="rgb(189, 82, 0)"  x="23" y="24" width="1" height="1" /><rect shape-rendering="crispEdges" fill="rgb(189, 82, 0)"  x="24" y="8" width="1" height="1" /><rect shape-rendering="crispEdges" fill="rgb(213, 115, 8)"  x="24" y="9" width="1" height="1" /><rect shape-rendering="crispEdges" fill="rgb(189, 82, 0)"  x="24" y="10" width="1" height="1" /><rect shape-rendering="crispEdges" fill="rgb(156, 115, 74)"  x="24" y="11" width="1" height="1" /><rect shape-rendering="crispEdges" fill="rgb(156, 115, 74)"  x="24" y="12" width="1" height="1" /><rect shape-rendering="crispEdges" fill="rgb(156, 115, 74)"  x="24" y="13" width="1" height="1" /><rect shape-rendering="crispEdges" fill="rgb(131, 90, 57)"  x="24" y="14" width="1" height="1" /><rect shape-rendering="crispEdges" fill="rgb(131, 90, 57)"  x="24" y="15" width="1" height="1" /><rect shape-rendering="crispEdges" fill="rgb(189, 82, 0)"  x="24" y="16" width="1" height="1" /><rect shape-rendering="crispEdges" fill="rgb(189, 82, 0)"  x="24" y="17" width="1" height="1" /><rect shape-rendering="crispEdges" fill="rgb(255, 213, 57)"  x="24" y="18" width="1" height="1" /><rect shape-rendering="crispEdges" fill="rgb(255, 213, 57)"  x="24" y="19" width="1" height="1" /><rect shape-rendering="crispEdges" fill="rgb(255, 213, 57)"  x="24" y="20" width="1" height="1" /><rect shape-rendering="crispEdges" fill="rgb(238, 148, 16)"  x="24" y="21" width="1" height="1" /><rect shape-rendering="crispEdges" fill="rgb(189, 82, 0)"  x="24" y="22" width="1" height="1" /><rect shape-rendering="crispEdges" fill="rgb(255, 189, 98)"  x="24" y="23" width="1" height="1" /><rect shape-rendering="crispEdges" fill="rgb(189, 82, 0)"  x="24" y="24" width="1" height="1" /><rect shape-rendering="crispEdges" fill="rgb(189, 82, 0)"  x="25" y="9" width="1" height="1" /><rect shape-rendering="crispEdges" fill="rgb(213, 115, 8)"  x="25" y="10" width="1" height="1" /><rect shape-rendering="crispEdges" fill="rgb(189, 82, 0)"  x="25" y="11" width="1" height="1" /><rect shape-rendering="crispEdges" fill="rgb(156, 115, 74)"  x="25" y="12" width="1" height="1" /><rect shape-rendering="crispEdges" fill="rgb(156, 115, 74)"  x="25" y="13" width="1" height="1" /><rect shape-rendering="crispEdges" fill="rgb(98, 57, 49)"  x="25" y="14" width="1" height="1" /><rect shape-rendering="crispEdges" fill="rgb(172, 57, 0)"  x="25" y="15" width="1" height="1" /><rect shape-rendering="crispEdges" fill="rgb(189, 82, 0)"  x="25" y="16" width="1" height="1" /><rect shape-rendering="crispEdges" fill="rgb(238, 148, 16)"  x="25" y="17" width="1" height="1" /><rect shape-rendering="crispEdges" fill="rgb(238, 148, 16)"  x="25" y="18" width="1" height="1" /><rect shape-rendering="crispEdges" fill="rgb(238, 148, 16)"  x="25" y="19" width="1" height="1" /><rect shape-rendering="crispEdges" fill="rgb(238, 148, 16)"  x="25" y="20" width="1" height="1" /><rect shape-rendering="crispEdges" fill="rgb(213, 115, 8)"  x="25" y="21" width="1" height="1" /><rect shape-rendering="crispEdges" fill="rgb(255, 189, 98)"  x="25" y="22" width="1" height="1" /><rect shape-rendering="crispEdges" fill="rgb(189, 82, 0)"  x="25" y="23" width="1" height="1" /><rect shape-rendering="crispEdges" fill="rgb(189, 82, 0)"  x="26" y="9" width="1" height="1" /><rect shape-rendering="crispEdges" fill="rgb(213, 115, 8)"  x="26" y="10" width="1" height="1" /><rect shape-rendering="crispEdges" fill="rgb(172, 57, 0)"  x="26" y="11" width="1" height="1" /><rect shape-rendering="crispEdges" fill="rgb(98, 57, 49)"  x="26" y="12" width="1" height="1" /><rect shape-rendering="crispEdges" fill="rgb(98, 57, 49)"  x="26" y="13" width="1" height="1" /><rect shape-rendering="crispEdges" fill="rgb(189, 82, 0)"  x="26" y="14" width="1" height="1" /><rect shape-rendering="crispEdges" fill="rgb(172, 57, 0)"  x="26" y="15" width="1" height="1" /><rect shape-rendering="crispEdges" fill="rgb(213, 115, 8)"  x="26" y="16" width="1" height="1" /><rect shape-rendering="crispEdges" fill="rgb(238, 148, 16)"  x="26" y="17" width="1" height="1" /><rect shape-rendering="crispEdges" fill="rgb(238, 148, 16)"  x="26" y="18" width="1" height="1" /><rect shape-rendering="crispEdges" fill="rgb(238, 148, 16)"  x="26" y="19" width="1" height="1" /><rect shape-rendering="crispEdges" fill="rgb(172, 57, 0)"  x="26" y="20" width="1" height="1" /><rect shape-rendering="crispEdges" fill="rgb(255, 189, 98)"  x="26" y="21" width="1" height="1" /><rect shape-rendering="crispEdges" fill="rgb(238, 148, 16)"  x="26" y="22" width="1" height="1" /><rect shape-rendering="crispEdges" fill="rgb(189, 82, 0)"  x="26" y="23" width="1" height="1" /><rect shape-rendering="crispEdges" fill="rgb(172, 57, 0)"  x="27" y="10" width="1" height="1" /><rect shape-rendering="crispEdges" fill="rgb(213, 115, 8)"  x="27" y="11" width="1" height="1" /><rect shape-rendering="crispEdges" fill="rgb(189, 82, 0)"  x="27" y="12" width="1" height="1" /><rect shape-rendering="crispEdges" fill="rgb(189, 82, 0)"  x="27" y="13" width="1" height="1" /><rect shape-rendering="crispEdges" fill="rgb(213, 115, 8)"  x="27" y="14" width="1" height="1" /><rect shape-rendering="crispEdges" fill="rgb(213, 115, 8)"  x="27" y="15" width="1" height="1" /><rect shape-rendering="crispEdges" fill="rgb(238, 148, 16)"  x="27" y="16" width="1" height="1" /><rect shape-rendering="crispEdges" fill="rgb(238, 148, 16)"  x="27" y="17" width="1" height="1" /><rect shape-rendering="crispEdges" fill="rgb(238, 148, 16)"  x="27" y="18" width="1" height="1" /><rect shape-rendering="crispEdges" fill="rgb(172, 57, 0)"  x="27" y="19" width="1" height="1" /><rect shape-rendering="crispEdges" fill="rgb(213, 115, 8)"  x="27" y="20" width="1" height="1" /><rect shape-rendering="crispEdges" fill="rgb(189, 82, 0)"  x="27" y="21" width="1" height="1" /><rect shape-rendering="crispEdges" fill="rgb(172, 57, 0)"  x="27" y="22" width="1" height="1" /><rect shape-rendering="crispEdges" fill="rgb(172, 57, 0)"  x="28" y="11" width="1" height="1" /><rect shape-rendering="crispEdges" fill="rgb(213, 115, 8)"  x="28" y="12" width="1" height="1" /><rect shape-rendering="crispEdges" fill="rgb(213, 115, 8)"  x="28" y="13" width="1" height="1" /><rect shape-rendering="crispEdges" fill="rgb(213, 115, 8)"  x="28" y="14" width="1" height="1" /><rect shape-rendering="crispEdges" fill="rgb(213, 115, 8)"  x="28" y="15" width="1" height="1" /><rect shape-rendering="crispEdges" fill="rgb(238, 148, 16)"  x="28" y="16" width="1" height="1" /><rect shape-rendering="crispEdges" fill="rgb(172, 57, 0)"  x="28" y="17" width="1" height="1" /><rect shape-rendering="crispEdges" fill="rgb(189, 82, 0)"  x="28" y="18" width="1" height="1" /><rect shape-rendering="crispEdges" fill="rgb(172, 57, 0)"  x="28" y="19" width="1" height="1" /><rect shape-rendering="crispEdges" fill="rgb(172, 57, 0)"  x="28" y="20" width="1" height="1" /><rect shape-rendering="crispEdges" fill="rgb(172, 57, 0)"  x="29" y="12" width="1" height="1" /><rect shape-rendering="crispEdges" fill="rgb(172, 57, 0)"  x="29" y="13" width="1" height="1" /><rect shape-rendering="crispEdges" fill="rgb(172, 57, 0)"  x="29" y="14" width="1" height="1" /><rect shape-rendering="crispEdges" fill="rgb(189, 82, 0)"  x="29" y="15" width="1" height="1" /><rect shape-rendering="crispEdges" fill="rgb(172, 57, 0)"  x="29" y="16" width="1" height="1" /></svg>