<svg xmlns="http://www.w3.org/2000/svg" xmlns:xlink= "http://www.w3.org/1999/xlink" width="32" height="32" viewBox ="0 0 32 32"><rect shape-rendering="crispEdges" fill="rgb(180, 148, 131)"  x="8" y="21" width="1" height="1" /><rect shape-rendering="crispEdges" fill="rgb(205, 180, 172)"  x="8" y="22" width="1" height="1" /><rect shape-rendering="crispEdges" fill="rgb(205, 180, 172)"  x="8" y="23" width="1" height="1" /><rect shape-rendering="crispEdges" fill="rgb(205, 180, 164)"  x="8" y="24" width="1" height="1" /><rect shape-rendering="crispEdges" fill="rgb(205, 172, 156)"  x="8" y="25" width="1" height="1" /><rect shape-rendering="crispEdges" fill="rgb(65, 57, 57)"  x="9" y="19" width="1" height="1" /><rect shape-rendering="crispEdges" fill="rgb(98, 82, 90)"  x="9" y="20" width="1" height="1" /><rect shape-rendering="crispEdges" fill="rgb(82, 74, 74)"  x="9" y="21" width="1" height="1" /><rect shape-rendering="crispEdges" fill="rgb(148, 131, 123)"  x="9" y="22" width="1" height="1" /><rect shape-rendering="crispEdges" fill="rgb(246, 230, 222)"  x="9" y="23" width="1" height="1" /><rect shape-rendering="crispEdges" fill="rgb(230, 213, 197)"  x="9" y="24" width="1" height="1" /><rect shape-rendering="crispEdges" fill="rgb(213, 189, 180)"  x="9" y="25" width="1" height="1" /><rect shape-rendering="crispEdges" fill="rgb(189, 156, 148)"  x="9" y="26" width="1" height="1" /><rect shape-rendering="crispEdges" fill="rgb(65, 57, 57)"  x="10" y="18" width="1" height="1" /><rect shape-rendering="crispEdges" fill="rgb(65, 57, 57)"  x="10" y="19" width="1" height="1" /><rect shape-rendering="crispEdges" fill="rgb(65, 57, 65)"  x="10" y="20" width="1" height="1" /><rect shape-rendering="crispEdges" fill="rgb(74, 74, 74)"  x="10" y="21" width="1" height="1" /><rect shape-rendering="crispEdges" fill="rgb(106, 98, 98)"  x="10" y="22" width="1" height="1" /><rect shape-rendering="crispEdges" fill="rgb(90, 82, 82)"  x="10" y="23" width="1" height="1" /><rect shape-rendering="crispEdges" fill="rgb(238, 222, 205)"  x="10" y="24" width="1" height="1" /><rect shape-rendering="crispEdges" fill="rgb(213, 180, 172)"  x="10" y="25" width="1" height="1" /><rect shape-rendering="crispEdges" fill="rgb(180, 148, 131)"  x="10" y="26" width="1" height="1" /><rect shape-rendering="crispEdges" fill="rgb(222, 156, 123)"  x="10" y="27" width="1" height="1" /><rect shape-rendering="crispEdges" fill="rgb(205, 148, 115)"  x="10" y="28" width="1" height="1" /><rect shape-rendering="crispEdges" fill="rgb(123, 32, 41)"  x="11" y="17" width="1" height="1" /><rect shape-rendering="crispEdges" fill="rgb(49, 57, 57)"  x="11" y="18" width="1" height="1" /><rect shape-rendering="crispEdges" fill="rgb(90, 82, 90)"  x="11" y="19" width="1" height="1" /><rect shape-rendering="crispEdges" fill="rgb(123, 115, 123)"  x="11" y="20" width="1" height="1" /><rect shape-rendering="crispEdges" fill="rgb(172, 156, 156)"  x="11" y="21" width="1" height="1" /><rect shape-rendering="crispEdges" fill="rgb(148, 139, 148)"  x="11" y="22" width="1" height="1" /><rect shape-rendering="crispEdges" fill="rgb(82, 82, 90)"  x="11" y="23" width="1" height="1" /><rect shape-rendering="crispEdges" fill="rgb(131, 106, 98)"  x="11" y="24" width="1" height="1" /><rect shape-rendering="crispEdges" fill="rgb(205, 164, 148)"  x="11" y="25" width="1" height="1" /><rect shape-rendering="crispEdges" fill="rgb(197, 123, 90)"  x="11" y="26" width="1" height="1" /><rect shape-rendering="crispEdges" fill="rgb(222, 156, 123)"  x="11" y="27" width="1" height="1" /><rect shape-rendering="crispEdges" fill="rgb(246, 180, 139)"  x="11" y="28" width="1" height="1" /><rect shape-rendering="crispEdges" fill="rgb(205, 148, 123)"  x="11" y="29" width="1" height="1" /><rect shape-rendering="crispEdges" fill="rgb(197, 41, 57)"  x="12" y="16" width="1" height="1" /><rect shape-rendering="crispEdges" fill="rgb(246, 106, 123)"  x="12" y="17" width="1" height="1" /><rect shape-rendering="crispEdges" fill="rgb(106, 65, 65)"  x="12" y="18" width="1" height="1" /><rect shape-rendering="crispEdges" fill="rgb(98, 90, 98)"  x="12" y="19" width="1" height="1" /><rect shape-rendering="crispEdges" fill="rgb(148, 131, 139)"  x="12" y="20" width="1" height="1" /><rect shape-rendering="crispEdges" fill="rgb(131, 115, 115)"  x="12" y="21" width="1" height="1" /><rect shape-rendering="crispEdges" fill="rgb(98, 90, 90)"  x="12" y="22" width="1" height="1" /><rect shape-rendering="crispEdges" fill="rgb(49, 41, 49)"  x="12" y="23" width="1" height="1" /><rect shape-rendering="crispEdges" fill="rgb(49, 49, 49)"  x="12" y="24" width="1" height="1" /><rect shape-rendering="crispEdges" fill="rgb(82, 65, 74)"  x="12" y="25" width="1" height="1" /><rect shape-rendering="crispEdges" fill="rgb(65, 57, 65)"  x="12" y="26" width="1" height="1" /><rect shape-rendering="crispEdges" fill="rgb(65, 49, 57)"  x="12" y="27" width="1" height="1" /><rect shape-rendering="crispEdges" fill="rgb(139, 106, 98)"  x="12" y="28" width="1" height="1" /><rect shape-rendering="crispEdges" fill="rgb(205, 148, 123)"  x="12" y="29" width="1" height="1" /><rect shape-rendering="crispEdges" fill="rgb(49, 32, 41)"  x="13" y="3" width="1" height="1" /><rect shape-rendering="crispEdges" fill="rgb(90, 32, 49)"  x="13" y="4" width="1" height="1" /><rect shape-rendering="crispEdges" fill="rgb(131, 32, 49)"  x="13" y="5" width="1" height="1" /><rect shape-rendering="crispEdges" fill="rgb(82, 24, 41)"  x="13" y="6" width="1" height="1" /><rect shape-rendering="crispEdges" fill="rgb(230, 90, 106)"  x="13" y="15" width="1" height="1" /><rect shape-rendering="crispEdges" fill="rgb(255, 205, 189)"  x="13" y="16" width="1" height="1" /><rect shape-rendering="crispEdges" fill="rgb(255, 213, 189)"  x="13" y="17" width="1" height="1" /><rect shape-rendering="crispEdges" fill="rgb(230, 156, 148)"  x="13" y="18" width="1" height="1" /><rect shape-rendering="crispEdges" fill="rgb(41, 32, 41)"  x="13" y="19" width="1" height="1" /><rect shape-rendering="crispEdges" fill="rgb(106, 98, 106)"  x="13" y="20" width="1" height="1" /><rect shape-rendering="crispEdges" fill="rgb(115, 106, 106)"  x="13" y="21" width="1" height="1" /><rect shape-rendering="crispEdges" fill="rgb(74, 65, 74)"  x="13" y="22" width="1" height="1" /><rect shape-rendering="crispEdges" fill="rgb(49, 41, 49)"  x="13" y="23" width="1" height="1" /><rect shape-rendering="crispEdges" fill="rgb(49, 41, 41)"  x="13" y="24" width="1" height="1" /><rect shape-rendering="crispEdges" fill="rgb(41, 32, 32)"  x="13" y="25" width="1" height="1" /><rect shape-rendering="crispEdges" fill="rgb(32, 24, 24)"  x="13" y="26" width="1" height="1" /><rect shape-rendering="crispEdges" fill="rgb(32, 24, 32)"  x="13" y="27" width="1" height="1" /><rect shape-rendering="crispEdges" fill="rgb(32, 32, 41)"  x="13" y="28" width="1" height="1" /><rect shape-rendering="crispEdges" fill="rgb(106, 90, 82)"  x="13" y="29" width="1" height="1" /><rect shape-rendering="crispEdges" fill="rgb(49, 32, 41)"  x="14" y="3" width="1" height="1" /><rect shape-rendering="crispEdges" fill="rgb(131, 49, 57)"  x="14" y="4" width="1" height="1" /><rect shape-rendering="crispEdges" fill="rgb(164, 41, 57)"  x="14" y="5" width="1" height="1" /><rect shape-rendering="crispEdges" fill="rgb(32, 32, 32)"  x="14" y="6" width="1" height="1" /><rect shape-rendering="crispEdges" fill="rgb(49, 16, 24)"  x="14" y="7" width="1" height="1" /><rect shape-rendering="crispEdges" fill="rgb(123, 41, 57)"  x="14" y="8" width="1" height="1" /><rect shape-rendering="crispEdges" fill="rgb(197, 65, 139)"  x="14" y="9" width="1" height="1" /><rect shape-rendering="crispEdges" fill="rgb(246, 123, 131)"  x="14" y="14" width="1" height="1" /><rect shape-rendering="crispEdges" fill="rgb(65, 16, 16)"  x="14" y="15" width="1" height="1" /><rect shape-rendering="crispEdges" fill="rgb(255, 164, 172)"  x="14" y="16" width="1" height="1" /><rect shape-rendering="crispEdges" fill="rgb(255, 123, 139)"  x="14" y="17" width="1" height="1" /><rect shape-rendering="crispEdges" fill="rgb(255, 123, 131)"  x="14" y="18" width="1" height="1" /><rect shape-rendering="crispEdges" fill="rgb(156, 98, 90)"  x="14" y="19" width="1" height="1" /><rect shape-rendering="crispEdges" fill="rgb(57, 57, 57)"  x="14" y="20" width="1" height="1" /><rect shape-rendering="crispEdges" fill="rgb(106, 98, 106)"  x="14" y="21" width="1" height="1" /><rect shape-rendering="crispEdges" fill="rgb(90, 82, 90)"  x="14" y="22" width="1" height="1" /><rect shape-rendering="crispEdges" fill="rgb(74, 65, 65)"  x="14" y="23" width="1" height="1" /><rect shape-rendering="crispEdges" fill="rgb(49, 41, 41)"  x="14" y="24" width="1" height="1" /><rect shape-rendering="crispEdges" fill="rgb(32, 24, 32)"  x="14" y="25" width="1" height="1" /><rect shape-rendering="crispEdges" fill="rgb(32, 24, 32)"  x="14" y="26" width="1" height="1" /><rect shape-rendering="crispEdges" fill="rgb(32, 32, 32)"  x="14" y="27" width="1" height="1" /><rect shape-rendering="crispEdges" fill="rgb(41, 32, 41)"  x="14" y="28" width="1" height="1" /><rect shape-rendering="crispEdges" fill="rgb(49, 41, 49)"  x="14" y="29" width="1" height="1" /><rect shape-rendering="crispEdges" fill="rgb(49, 49, 49)"  x="15" y="3" width="1" height="1" /><rect shape-rendering="crispEdges" fill="rgb(197, 65, 82)"  x="15" y="4" width="1" height="1" /><rect shape-rendering="crispEdges" fill="rgb(164, 49, 74)"  x="15" y="5" width="1" height="1" /><rect shape-rendering="crispEdges" fill="rgb(24, 24, 24)"  x="15" y="6" width="1" height="1" /><rect shape-rendering="crispEdges" fill="rgb(148, 49, 57)"  x="15" y="7" width="1" height="1" /><rect shape-rendering="crispEdges" fill="rgb(180, 49, 74)"  x="15" y="8" width="1" height="1" /><rect shape-rendering="crispEdges" fill="rgb(32, 32, 32)"  x="15" y="9" width="1" height="1" /><rect shape-rendering="crispEdges" fill="rgb(32, 24, 32)"  x="15" y="10" width="1" height="1" /><rect shape-rendering="crispEdges" fill="rgb(24, 24, 24)"  x="15" y="11" width="1" height="1" /><rect shape-rendering="crispEdges" fill="rgb(123, 24, 41)"  x="15" y="12" width="1" height="1" /><rect shape-rendering="crispEdges" fill="rgb(246, 123, 131)"  x="15" y="13" width="1" height="1" /><rect shape-rendering="crispEdges" fill="rgb(255, 189, 180)"  x="15" y="14" width="1" height="1" /><rect shape-rendering="crispEdges" fill="rgb(255, 123, 131)"  x="15" y="15" width="1" height="1" /><rect shape-rendering="crispEdges" fill="rgb(246, 82, 98)"  x="15" y="16" width="1" height="1" /><rect shape-rendering="crispEdges" fill="rgb(238, 82, 98)"  x="15" y="17" width="1" height="1" /><rect shape-rendering="crispEdges" fill="rgb(246, 74, 98)"  x="15" y="18" width="1" height="1" /><rect shape-rendering="crispEdges" fill="rgb(238, 98, 106)"  x="15" y="19" width="1" height="1" /><rect shape-rendering="crispEdges" fill="rgb(74, 24, 32)"  x="15" y="20" width="1" height="1" /><rect shape-rendering="crispEdges" fill="rgb(41, 32, 41)"  x="15" y="21" width="1" height="1" /><rect shape-rendering="crispEdges" fill="rgb(82, 74, 82)"  x="15" y="22" width="1" height="1" /><rect shape-rendering="crispEdges" fill="rgb(82, 74, 82)"  x="15" y="23" width="1" height="1" /><rect shape-rendering="crispEdges" fill="rgb(74, 65, 74)"  x="15" y="24" width="1" height="1" /><rect shape-rendering="crispEdges" fill="rgb(57, 57, 57)"  x="15" y="25" width="1" height="1" /><rect shape-rendering="crispEdges" fill="rgb(49, 49, 49)"  x="15" y="26" width="1" height="1" /><rect shape-rendering="crispEdges" fill="rgb(49, 49, 49)"  x="15" y="27" width="1" height="1" /><rect shape-rendering="crispEdges" fill="rgb(57, 49, 57)"  x="15" y="28" width="1" height="1" /><rect shape-rendering="crispEdges" fill="rgb(57, 49, 57)"  x="15" y="29" width="1" height="1" /><rect shape-rendering="crispEdges" fill="rgb(65, 65, 65)"  x="16" y="3" width="1" height="1" /><rect shape-rendering="crispEdges" fill="rgb(213, 98, 106)"  x="16" y="4" width="1" height="1" /><rect shape-rendering="crispEdges" fill="rgb(164, 49, 74)"  x="16" y="5" width="1" height="1" /><rect shape-rendering="crispEdges" fill="rgb(24, 24, 24)"  x="16" y="6" width="1" height="1" /><rect shape-rendering="crispEdges" fill="rgb(197, 65, 82)"  x="16" y="7" width="1" height="1" /><rect shape-rendering="crispEdges" fill="rgb(123, 32, 57)"  x="16" y="8" width="1" height="1" /><rect shape-rendering="crispEdges" fill="rgb(24, 32, 32)"  x="16" y="9" width="1" height="1" /><rect shape-rendering="crispEdges" fill="rgb(49, 32, 41)"  x="16" y="10" width="1" height="1" /><rect shape-rendering="crispEdges" fill="rgb(49, 41, 49)"  x="16" y="11" width="1" height="1" /><rect shape-rendering="crispEdges" fill="rgb(24, 16, 24)"  x="16" y="12" width="1" height="1" /><rect shape-rendering="crispEdges" fill="rgb(238, 131, 131)"  x="16" y="13" width="1" height="1" /><rect shape-rendering="crispEdges" fill="rgb(246, 90, 115)"  x="16" y="14" width="1" height="1" /><rect shape-rendering="crispEdges" fill="rgb(180, 49, 65)"  x="16" y="15" width="1" height="1" /><rect shape-rendering="crispEdges" fill="rgb(156, 32, 49)"  x="16" y="16" width="1" height="1" /><rect shape-rendering="crispEdges" fill="rgb(123, 24, 41)"  x="16" y="17" width="1" height="1" /><rect shape-rendering="crispEdges" fill="rgb(106, 16, 32)"  x="16" y="18" width="1" height="1" /><rect shape-rendering="crispEdges" fill="rgb(156, 32, 49)"  x="16" y="19" width="1" height="1" /><rect shape-rendering="crispEdges" fill="rgb(156, 32, 49)"  x="16" y="20" width="1" height="1" /><rect shape-rendering="crispEdges" fill="rgb(8, 8, 8)"  x="16" y="21" width="1" height="1" /><rect shape-rendering="crispEdges" fill="rgb(16, 16, 16)"  x="16" y="22" width="1" height="1" /><rect shape-rendering="crispEdges" fill="rgb(32, 32, 32)"  x="16" y="23" width="1" height="1" /><rect shape-rendering="crispEdges" fill="rgb(57, 57, 57)"  x="16" y="24" width="1" height="1" /><rect shape-rendering="crispEdges" fill="rgb(65, 65, 65)"  x="16" y="25" width="1" height="1" /><rect shape-rendering="crispEdges" fill="rgb(65, 57, 65)"  x="16" y="26" width="1" height="1" /><rect shape-rendering="crispEdges" fill="rgb(65, 65, 65)"  x="16" y="27" width="1" height="1" /><rect shape-rendering="crispEdges" fill="rgb(57, 49, 57)"  x="16" y="28" width="1" height="1" /><rect shape-rendering="crispEdges" fill="rgb(57, 57, 57)"  x="16" y="29" width="1" height="1" /><rect shape-rendering="crispEdges" fill="rgb(82, 74, 82)"  x="17" y="3" width="1" height="1" /><rect shape-rendering="crispEdges" fill="rgb(246, 148, 148)"  x="17" y="4" width="1" height="1" /><rect shape-rendering="crispEdges" fill="rgb(180, 74, 82)"  x="17" y="5" width="1" height="1" /><rect shape-rendering="crispEdges" fill="rgb(49, 41, 41)"  x="17" y="6" width="1" height="1" /><rect shape-rendering="crispEdges" fill="rgb(246, 123, 131)"  x="17" y="7" width="1" height="1" /><rect shape-rendering="crispEdges" fill="rgb(115, 32, 49)"  x="17" y="8" width="1" height="1" /><rect shape-rendering="crispEdges" fill="rgb(65, 74, 74)"  x="17" y="9" width="1" height="1" /><rect shape-rendering="crispEdges" fill="rgb(98, 90, 90)"  x="17" y="10" width="1" height="1" /><rect shape-rendering="crispEdges" fill="rgb(90, 82, 82)"  x="17" y="11" width="1" height="1" /><rect shape-rendering="crispEdges" fill="rgb(57, 49, 57)"  x="17" y="12" width="1" height="1" /><rect shape-rendering="crispEdges" fill="rgb(172, 82, 90)"  x="17" y="13" width="1" height="1" /><rect shape-rendering="crispEdges" fill="rgb(222, 65, 82)"  x="17" y="14" width="1" height="1" /><rect shape-rendering="crispEdges" fill="rgb(115, 24, 41)"  x="17" y="15" width="1" height="1" /><rect shape-rendering="crispEdges" fill="rgb(222, 213, 205)"  x="17" y="16" width="1" height="1" /><rect shape-rendering="crispEdges" fill="rgb(255, 255, 222)"  x="17" y="17" width="1" height="1" /><rect shape-rendering="crispEdges" fill="rgb(255, 213, 148)"  x="17" y="18" width="1" height="1" /><rect shape-rendering="crispEdges" fill="rgb(197, 115, 82)"  x="17" y="19" width="1" height="1" /><rect shape-rendering="crispEdges" fill="rgb(164, 90, 74)"  x="17" y="20" width="1" height="1" /><rect shape-rendering="crispEdges" fill="rgb(189, 115, 82)"  x="17" y="21" width="1" height="1" /><rect shape-rendering="crispEdges" fill="rgb(205, 148, 106)"  x="17" y="22" width="1" height="1" /><rect shape-rendering="crispEdges" fill="rgb(16, 16, 24)"  x="17" y="23" width="1" height="1" /><rect shape-rendering="crispEdges" fill="rgb(32, 24, 24)"  x="17" y="24" width="1" height="1" /><rect shape-rendering="crispEdges" fill="rgb(41, 32, 32)"  x="17" y="25" width="1" height="1" /><rect shape-rendering="crispEdges" fill="rgb(82, 74, 74)"  x="17" y="26" width="1" height="1" /><rect shape-rendering="crispEdges" fill="rgb(41, 41, 41)"  x="17" y="27" width="1" height="1" /><rect shape-rendering="crispEdges" fill="rgb(49, 41, 41)"  x="17" y="28" width="1" height="1" /><rect shape-rendering="crispEdges" fill="rgb(32, 32, 32)"  x="17" y="29" width="1" height="1" /><rect shape-rendering="crispEdges" fill="rgb(65, 65, 65)"  x="18" y="3" width="1" height="1" /><rect shape-rendering="crispEdges" fill="rgb(246, 123, 123)"  x="18" y="4" width="1" height="1" /><rect shape-rendering="crispEdges" fill="rgb(205, 98, 98)"  x="18" y="5" width="1" height="1" /><rect shape-rendering="crispEdges" fill="rgb(222, 197, 156)"  x="18" y="6" width="1" height="1" /><rect shape-rendering="crispEdges" fill="rgb(255, 131, 139)"  x="18" y="7" width="1" height="1" /><rect shape-rendering="crispEdges" fill="rgb(197, 123, 106)"  x="18" y="8" width="1" height="1" /><rect shape-rendering="crispEdges" fill="rgb(139, 131, 98)"  x="18" y="9" width="1" height="1" /><rect shape-rendering="crispEdges" fill="rgb(32, 24, 32)"  x="18" y="10" width="1" height="1" /><rect shape-rendering="crispEdges" fill="rgb(238, 222, 189)"  x="18" y="11" width="1" height="1" /><rect shape-rendering="crispEdges" fill="rgb(148, 148, 106)"  x="18" y="12" width="1" height="1" /><rect shape-rendering="crispEdges" fill="rgb(41, 16, 24)"  x="18" y="13" width="1" height="1" /><rect shape-rendering="crispEdges" fill="rgb(205, 65, 74)"  x="18" y="14" width="1" height="1" /><rect shape-rendering="crispEdges" fill="rgb(246, 238, 230)"  x="18" y="15" width="1" height="1" /><rect shape-rendering="crispEdges" fill="rgb(255, 255, 246)"  x="18" y="16" width="1" height="1" /><rect shape-rendering="crispEdges" fill="rgb(255, 246, 180)"  x="18" y="17" width="1" height="1" /><rect shape-rendering="crispEdges" fill="rgb(255, 197, 139)"  x="18" y="18" width="1" height="1" /><rect shape-rendering="crispEdges" fill="rgb(197, 115, 82)"  x="18" y="19" width="1" height="1" /><rect shape-rendering="crispEdges" fill="rgb(172, 90, 65)"  x="18" y="20" width="1" height="1" /><rect shape-rendering="crispEdges" fill="rgb(164, 98, 74)"  x="18" y="21" width="1" height="1" /><rect shape-rendering="crispEdges" fill="rgb(164, 98, 74)"  x="18" y="22" width="1" height="1" /><rect shape-rendering="crispEdges" fill="rgb(156, 98, 74)"  x="18" y="23" width="1" height="1" /><rect shape-rendering="crispEdges" fill="rgb(16, 16, 24)"  x="18" y="24" width="1" height="1" /><rect shape-rendering="crispEdges" fill="rgb(16, 16, 24)"  x="18" y="25" width="1" height="1" /><rect shape-rendering="crispEdges" fill="rgb(32, 32, 32)"  x="18" y="26" width="1" height="1" /><rect shape-rendering="crispEdges" fill="rgb(41, 32, 41)"  x="18" y="27" width="1" height="1" /><rect shape-rendering="crispEdges" fill="rgb(41, 32, 41)"  x="18" y="28" width="1" height="1" /><rect shape-rendering="crispEdges" fill="rgb(49, 32, 41)"  x="19" y="3" width="1" height="1" /><rect shape-rendering="crispEdges" fill="rgb(123, 57, 57)"  x="19" y="4" width="1" height="1" /><rect shape-rendering="crispEdges" fill="rgb(115, 24, 41)"  x="19" y="5" width="1" height="1" /><rect shape-rendering="crispEdges" fill="rgb(41, 24, 24)"  x="19" y="6" width="1" height="1" /><rect shape-rendering="crispEdges" fill="rgb(131, 32, 49)"  x="19" y="7" width="1" height="1" /><rect shape-rendering="crispEdges" fill="rgb(82, 41, 49)"  x="19" y="8" width="1" height="1" /><rect shape-rendering="crispEdges" fill="rgb(65, 65, 65)"  x="19" y="9" width="1" height="1" /><rect shape-rendering="crispEdges" fill="rgb(82, 74, 82)"  x="19" y="10" width="1" height="1" /><rect shape-rendering="crispEdges" fill="rgb(41, 41, 49)"  x="19" y="11" width="1" height="1" /><rect shape-rendering="crispEdges" fill="rgb(57, 49, 49)"  x="19" y="12" width="1" height="1" /><rect shape-rendering="crispEdges" fill="rgb(32, 32, 32)"  x="19" y="13" width="1" height="1" /><rect shape-rendering="crispEdges" fill="rgb(139, 115, 82)"  x="19" y="14" width="1" height="1" /><rect shape-rendering="crispEdges" fill="rgb(255, 255, 238)"  x="19" y="15" width="1" height="1" /><rect shape-rendering="crispEdges" fill="rgb(255, 255, 230)"  x="19" y="16" width="1" height="1" /><rect shape-rendering="crispEdges" fill="rgb(246, 246, 197)"  x="19" y="17" width="1" height="1" /><rect shape-rendering="crispEdges" fill="rgb(230, 205, 148)"  x="19" y="18" width="1" height="1" /><rect shape-rendering="crispEdges" fill="rgb(148, 106, 98)"  x="19" y="19" width="1" height="1" /><rect shape-rendering="crispEdges" fill="rgb(139, 98, 90)"  x="19" y="20" width="1" height="1" /><rect shape-rendering="crispEdges" fill="rgb(197, 123, 98)"  x="19" y="21" width="1" height="1" /><rect shape-rendering="crispEdges" fill="rgb(246, 230, 189)"  x="19" y="22" width="1" height="1" /><rect shape-rendering="crispEdges" fill="rgb(213, 197, 164)"  x="19" y="23" width="1" height="1" /><rect shape-rendering="crispEdges" fill="rgb(164, 115, 82)"  x="19" y="24" width="1" height="1" /><rect shape-rendering="crispEdges" fill="rgb(16, 16, 24)"  x="19" y="25" width="1" height="1" /><rect shape-rendering="crispEdges" fill="rgb(32, 32, 32)"  x="19" y="26" width="1" height="1" /><rect shape-rendering="crispEdges" fill="rgb(32, 32, 32)"  x="19" y="27" width="1" height="1" /><rect shape-rendering="crispEdges" fill="rgb(49, 32, 41)"  x="20" y="3" width="1" height="1" /><rect shape-rendering="crispEdges" fill="rgb(123, 74, 57)"  x="20" y="4" width="1" height="1" /><rect shape-rendering="crispEdges" fill="rgb(197, 74, 90)"  x="20" y="5" width="1" height="1" /><rect shape-rendering="crispEdges" fill="rgb(74, 57, 41)"  x="20" y="6" width="1" height="1" /><rect shape-rendering="crispEdges" fill="rgb(180, 65, 74)"  x="20" y="7" width="1" height="1" /><rect shape-rendering="crispEdges" fill="rgb(131, 74, 74)"  x="20" y="8" width="1" height="1" /><rect shape-rendering="crispEdges" fill="rgb(49, 41, 41)"  x="20" y="9" width="1" height="1" /><rect shape-rendering="crispEdges" fill="rgb(82, 74, 82)"  x="20" y="10" width="1" height="1" /><rect shape-rendering="crispEdges" fill="rgb(65, 65, 65)"  x="20" y="11" width="1" height="1" /><rect shape-rendering="crispEdges" fill="rgb(49, 49, 49)"  x="20" y="12" width="1" height="1" /><rect shape-rendering="crispEdges" fill="rgb(32, 24, 32)"  x="20" y="13" width="1" height="1" /><rect shape-rendering="crispEdges" fill="rgb(205, 156, 115)"  x="20" y="14" width="1" height="1" /><rect shape-rendering="crispEdges" fill="rgb(255, 255, 238)"  x="20" y="15" width="1" height="1" /><rect shape-rendering="crispEdges" fill="rgb(164, 131, 106)"  x="20" y="16" width="1" height="1" /><rect shape-rendering="crispEdges" fill="rgb(98, 74, 90)"  x="20" y="17" width="1" height="1" /><rect shape-rendering="crispEdges" fill="rgb(65, 57, 82)"  x="20" y="18" width="1" height="1" /><rect shape-rendering="crispEdges" fill="rgb(139, 115, 106)"  x="20" y="19" width="1" height="1" /><rect shape-rendering="crispEdges" fill="rgb(115, 82, 74)"  x="20" y="20" width="1" height="1" /><rect shape-rendering="crispEdges" fill="rgb(82, 74, 98)"  x="20" y="21" width="1" height="1" /><rect shape-rendering="crispEdges" fill="rgb(115, 98, 123)"  x="20" y="22" width="1" height="1" /><rect shape-rendering="crispEdges" fill="rgb(172, 131, 115)"  x="20" y="23" width="1" height="1" /><rect shape-rendering="crispEdges" fill="rgb(246, 238, 189)"  x="20" y="24" width="1" height="1" /><rect shape-rendering="crispEdges" fill="rgb(106, 82, 49)"  x="20" y="25" width="1" height="1" /><rect shape-rendering="crispEdges" fill="rgb(41, 41, 41)"  x="20" y="26" width="1" height="1" /><rect shape-rendering="crispEdges" fill="rgb(131, 49, 57)"  x="21" y="4" width="1" height="1" /><rect shape-rendering="crispEdges" fill="rgb(106, 32, 32)"  x="21" y="5" width="1" height="1" /><rect shape-rendering="crispEdges" fill="rgb(156, 131, 139)"  x="21" y="6" width="1" height="1" /><rect shape-rendering="crispEdges" fill="rgb(131, 74, 65)"  x="21" y="7" width="1" height="1" /><rect shape-rendering="crispEdges" fill="rgb(139, 98, 82)"  x="21" y="8" width="1" height="1" /><rect shape-rendering="crispEdges" fill="rgb(41, 24, 32)"  x="21" y="9" width="1" height="1" /><rect shape-rendering="crispEdges" fill="rgb(41, 32, 41)"  x="21" y="10" width="1" height="1" /><rect shape-rendering="crispEdges" fill="rgb(41, 24, 32)"  x="21" y="11" width="1" height="1" /><rect shape-rendering="crispEdges" fill="rgb(41, 24, 32)"  x="21" y="12" width="1" height="1" /><rect shape-rendering="crispEdges" fill="rgb(41, 24, 32)"  x="21" y="13" width="1" height="1" /><rect shape-rendering="crispEdges" fill="rgb(222, 213, 197)"  x="21" y="14" width="1" height="1" /><rect shape-rendering="crispEdges" fill="rgb(222, 197, 180)"  x="21" y="15" width="1" height="1" /><rect shape-rendering="crispEdges" fill="rgb(106, 74, 74)"  x="21" y="16" width="1" height="1" /><rect shape-rendering="crispEdges" fill="rgb(139, 106, 106)"  x="21" y="17" width="1" height="1" /><rect shape-rendering="crispEdges" fill="rgb(131, 106, 106)"  x="21" y="18" width="1" height="1" /><rect shape-rendering="crispEdges" fill="rgb(65, 57, 74)"  x="21" y="19" width="1" height="1" /><rect shape-rendering="crispEdges" fill="rgb(82, 74, 90)"  x="21" y="20" width="1" height="1" /><rect shape-rendering="crispEdges" fill="rgb(90, 82, 98)"  x="21" y="21" width="1" height="1" /><rect shape-rendering="crispEdges" fill="rgb(106, 98, 115)"  x="21" y="22" width="1" height="1" /><rect shape-rendering="crispEdges" fill="rgb(213, 156, 115)"  x="21" y="23" width="1" height="1" /><rect shape-rendering="crispEdges" fill="rgb(255, 246, 189)"  x="21" y="24" width="1" height="1" /><rect shape-rendering="crispEdges" fill="rgb(255, 197, 139)"  x="21" y="25" width="1" height="1" /><rect shape-rendering="crispEdges" fill="rgb(197, 65, 82)"  x="22" y="5" width="1" height="1" /><rect shape-rendering="crispEdges" fill="rgb(222, 74, 164)"  x="22" y="6" width="1" height="1" /><rect shape-rendering="crispEdges" fill="rgb(164, 49, 74)"  x="22" y="7" width="1" height="1" /><rect shape-rendering="crispEdges" fill="rgb(197, 82, 115)"  x="22" y="8" width="1" height="1" /><rect shape-rendering="crispEdges" fill="rgb(164, 49, 74)"  x="22" y="9" width="1" height="1" /><rect shape-rendering="crispEdges" fill="rgb(255, 197, 139)"  x="22" y="14" width="1" height="1" /><rect shape-rendering="crispEdges" fill="rgb(246, 238, 230)"  x="22" y="15" width="1" height="1" /><rect shape-rendering="crispEdges" fill="rgb(115, 65, 41)"  x="22" y="16" width="1" height="1" /><rect shape-rendering="crispEdges" fill="rgb(164, 106, 74)"  x="22" y="17" width="1" height="1" /><rect shape-rendering="crispEdges" fill="rgb(180, 131, 106)"  x="22" y="18" width="1" height="1" /><rect shape-rendering="crispEdges" fill="rgb(106, 57, 65)"  x="22" y="19" width="1" height="1" /><rect shape-rendering="crispEdges" fill="rgb(148, 106, 106)"  x="22" y="20" width="1" height="1" /><rect shape-rendering="crispEdges" fill="rgb(205, 131, 106)"  x="22" y="21" width="1" height="1" /><rect shape-rendering="crispEdges" fill="rgb(230, 139, 98)"  x="22" y="22" width="1" height="1" /><rect shape-rendering="crispEdges" fill="rgb(246, 197, 148)"  x="22" y="23" width="1" height="1" /><rect shape-rendering="crispEdges" fill="rgb(255, 197, 139)"  x="22" y="24" width="1" height="1" /><rect shape-rendering="crispEdges" fill="rgb(197, 65, 82)"  x="23" y="6" width="1" height="1" /><rect shape-rendering="crispEdges" fill="rgb(197, 65, 82)"  x="23" y="8" width="1" height="1" /><rect shape-rendering="crispEdges" fill="rgb(164, 49, 74)"  x="23" y="9" width="1" height="1" /><rect shape-rendering="crispEdges" fill="rgb(255, 197, 139)"  x="23" y="15" width="1" height="1" /><rect shape-rendering="crispEdges" fill="rgb(246, 238, 205)"  x="23" y="16" width="1" height="1" /><rect shape-rendering="crispEdges" fill="rgb(197, 164, 131)"  x="23" y="17" width="1" height="1" /><rect shape-rendering="crispEdges" fill="rgb(197, 139, 106)"  x="23" y="18" width="1" height="1" /><rect shape-rendering="crispEdges" fill="rgb(131, 65, 49)"  x="23" y="19" width="1" height="1" /><rect shape-rendering="crispEdges" fill="rgb(156, 82, 65)"  x="23" y="20" width="1" height="1" /><rect shape-rendering="crispEdges" fill="rgb(222, 148, 123)"  x="23" y="21" width="1" height="1" /><rect shape-rendering="crispEdges" fill="rgb(255, 230, 213)"  x="23" y="22" width="1" height="1" /><rect shape-rendering="crispEdges" fill="rgb(230, 197, 180)"  x="23" y="23" width="1" height="1" /><rect shape-rendering="crispEdges" fill="rgb(255, 197, 139)"  x="24" y="16" width="1" height="1" /><rect shape-rendering="crispEdges" fill="rgb(255, 197, 139)"  x="24" y="17" width="1" height="1" /><rect shape-rendering="crispEdges" fill="rgb(255, 197, 139)"  x="24" y="18" width="1" height="1" /><rect shape-rendering="crispEdges" fill="rgb(222, 180, 164)"  x="24" y="19" width="1" height="1" /><rect shape-rendering="crispEdges" fill="rgb(222, 123, 115)"  x="24" y="20" width="1" height="1" /><rect shape-rendering="crispEdges" fill="rgb(213, 82, 90)"  x="24" y="21" width="1" height="1" /><rect shape-rendering="crispEdges" fill="rgb(172, 74, 90)"  x="24" y="22" width="1" height="1" /></svg>