<svg xmlns="http://www.w3.org/2000/svg" xmlns:xlink= "http://www.w3.org/1999/xlink" width="32" height="32" viewBox ="0 0 32 32"><rect shape-rendering="crispEdges" fill="rgb(57, 57, 49)"  x="1" y="12" width="1" height="1" /><rect shape-rendering="crispEdges" fill="rgb(49, 41, 65)"  x="1" y="13" width="1" height="1" /><rect shape-rendering="crispEdges" fill="rgb(65, 41, 98)"  x="1" y="14" width="1" height="1" /><rect shape-rendering="crispEdges" fill="rgb(74, 49, 115)"  x="1" y="15" width="1" height="1" /><rect shape-rendering="crispEdges" fill="rgb(74, 49, 106)"  x="1" y="16" width="1" height="1" /><rect shape-rendering="crispEdges" fill="rgb(74, 49, 90)"  x="1" y="17" width="1" height="1" /><rect shape-rendering="crispEdges" fill="rgb(65, 57, 74)"  x="1" y="18" width="1" height="1" /><rect shape-rendering="crispEdges" fill="rgb(49, 65, 41)"  x="1" y="19" width="1" height="1" /><rect shape-rendering="crispEdges" fill="rgb(57, 65, 49)"  x="1" y="20" width="1" height="1" /><rect shape-rendering="crispEdges" fill="rgb(57, 74, 57)"  x="2" y="11" width="1" height="1" /><rect shape-rendering="crispEdges" fill="rgb(41, 49, 65)"  x="2" y="12" width="1" height="1" /><rect shape-rendering="crispEdges" fill="rgb(57, 32, 82)"  x="2" y="13" width="1" height="1" /><rect shape-rendering="crispEdges" fill="rgb(131, 41, 189)"  x="2" y="14" width="1" height="1" /><rect shape-rendering="crispEdges" fill="rgb(164, 57, 222)"  x="2" y="15" width="1" height="1" /><rect shape-rendering="crispEdges" fill="rgb(172, 57, 222)"  x="2" y="16" width="1" height="1" /><rect shape-rendering="crispEdges" fill="rgb(156, 57, 222)"  x="2" y="17" width="1" height="1" /><rect shape-rendering="crispEdges" fill="rgb(139, 49, 213)"  x="2" y="18" width="1" height="1" /><rect shape-rendering="crispEdges" fill="rgb(106, 49, 180)"  x="2" y="19" width="1" height="1" /><rect shape-rendering="crispEdges" fill="rgb(65, 49, 98)"  x="2" y="20" width="1" height="1" /><rect shape-rendering="crispEdges" fill="rgb(49, 57, 41)"  x="2" y="21" width="1" height="1" /><rect shape-rendering="crispEdges" fill="rgb(57, 57, 57)"  x="3" y="10" width="1" height="1" /><rect shape-rendering="crispEdges" fill="rgb(24, 131, 49)"  x="3" y="11" width="1" height="1" /><rect shape-rendering="crispEdges" fill="rgb(32, 41, 57)"  x="3" y="12" width="1" height="1" /><rect shape-rendering="crispEdges" fill="rgb(82, 41, 106)"  x="3" y="13" width="1" height="1" /><rect shape-rendering="crispEdges" fill="rgb(189, 57, 230)"  x="3" y="14" width="1" height="1" /><rect shape-rendering="crispEdges" fill="rgb(164, 49, 213)"  x="3" y="15" width="1" height="1" /><rect shape-rendering="crispEdges" fill="rgb(115, 41, 172)"  x="3" y="16" width="1" height="1" /><rect shape-rendering="crispEdges" fill="rgb(90, 49, 164)"  x="3" y="17" width="1" height="1" /><rect shape-rendering="crispEdges" fill="rgb(98, 49, 172)"  x="3" y="18" width="1" height="1" /><rect shape-rendering="crispEdges" fill="rgb(115, 57, 197)"  x="3" y="19" width="1" height="1" /><rect shape-rendering="crispEdges" fill="rgb(123, 49, 222)"  x="3" y="20" width="1" height="1" /><rect shape-rendering="crispEdges" fill="rgb(74, 41, 123)"  x="3" y="21" width="1" height="1" /><rect shape-rendering="crispEdges" fill="rgb(41, 57, 32)"  x="3" y="22" width="1" height="1" /><rect shape-rendering="crispEdges" fill="rgb(41, 82, 57)"  x="4" y="10" width="1" height="1" /><rect shape-rendering="crispEdges" fill="rgb(16, 148, 41)"  x="4" y="11" width="1" height="1" /><rect shape-rendering="crispEdges" fill="rgb(41, 49, 41)"  x="4" y="12" width="1" height="1" /><rect shape-rendering="crispEdges" fill="rgb(74, 41, 90)"  x="4" y="13" width="1" height="1" /><rect shape-rendering="crispEdges" fill="rgb(123, 32, 172)"  x="4" y="14" width="1" height="1" /><rect shape-rendering="crispEdges" fill="rgb(106, 41, 172)"  x="4" y="15" width="1" height="1" /><rect shape-rendering="crispEdges" fill="rgb(90, 49, 172)"  x="4" y="16" width="1" height="1" /><rect shape-rendering="crispEdges" fill="rgb(106, 57, 180)"  x="4" y="17" width="1" height="1" /><rect shape-rendering="crispEdges" fill="rgb(106, 82, 189)"  x="4" y="18" width="1" height="1" /><rect shape-rendering="crispEdges" fill="rgb(98, 82, 189)"  x="4" y="19" width="1" height="1" /><rect shape-rendering="crispEdges" fill="rgb(106, 74, 197)"  x="4" y="20" width="1" height="1" /><rect shape-rendering="crispEdges" fill="rgb(139, 57, 230)"  x="4" y="21" width="1" height="1" /><rect shape-rendering="crispEdges" fill="rgb(90, 49, 131)"  x="4" y="22" width="1" height="1" /><rect shape-rendering="crispEdges" fill="rgb(41, 57, 32)"  x="4" y="23" width="1" height="1" /><rect shape-rendering="crispEdges" fill="rgb(32, 98, 49)"  x="5" y="10" width="1" height="1" /><rect shape-rendering="crispEdges" fill="rgb(16, 156, 49)"  x="5" y="11" width="1" height="1" /><rect shape-rendering="crispEdges" fill="rgb(41, 41, 41)"  x="5" y="12" width="1" height="1" /><rect shape-rendering="crispEdges" fill="rgb(57, 41, 65)"  x="5" y="13" width="1" height="1" /><rect shape-rendering="crispEdges" fill="rgb(98, 32, 156)"  x="5" y="14" width="1" height="1" /><rect shape-rendering="crispEdges" fill="rgb(115, 49, 189)"  x="5" y="15" width="1" height="1" /><rect shape-rendering="crispEdges" fill="rgb(98, 49, 180)"  x="5" y="16" width="1" height="1" /><rect shape-rendering="crispEdges" fill="rgb(98, 65, 180)"  x="5" y="17" width="1" height="1" /><rect shape-rendering="crispEdges" fill="rgb(106, 74, 180)"  x="5" y="18" width="1" height="1" /><rect shape-rendering="crispEdges" fill="rgb(115, 74, 197)"  x="5" y="19" width="1" height="1" /><rect shape-rendering="crispEdges" fill="rgb(156, 65, 222)"  x="5" y="20" width="1" height="1" /><rect shape-rendering="crispEdges" fill="rgb(213, 74, 255)"  x="5" y="21" width="1" height="1" /><rect shape-rendering="crispEdges" fill="rgb(213, 65, 238)"  x="5" y="22" width="1" height="1" /><rect shape-rendering="crispEdges" fill="rgb(57, 41, 74)"  x="5" y="23" width="1" height="1" /><rect shape-rendering="crispEdges" fill="rgb(49, 57, 49)"  x="5" y="24" width="1" height="1" /><rect shape-rendering="crispEdges" fill="rgb(41, 90, 57)"  x="6" y="10" width="1" height="1" /><rect shape-rendering="crispEdges" fill="rgb(24, 131, 49)"  x="6" y="11" width="1" height="1" /><rect shape-rendering="crispEdges" fill="rgb(49, 41, 24)"  x="6" y="12" width="1" height="1" /><rect shape-rendering="crispEdges" fill="rgb(49, 41, 57)"  x="6" y="13" width="1" height="1" /><rect shape-rendering="crispEdges" fill="rgb(82, 32, 139)"  x="6" y="14" width="1" height="1" /><rect shape-rendering="crispEdges" fill="rgb(98, 49, 180)"  x="6" y="15" width="1" height="1" /><rect shape-rendering="crispEdges" fill="rgb(98, 49, 172)"  x="6" y="16" width="1" height="1" /><rect shape-rendering="crispEdges" fill="rgb(115, 57, 180)"  x="6" y="17" width="1" height="1" /><rect shape-rendering="crispEdges" fill="rgb(139, 57, 197)"  x="6" y="18" width="1" height="1" /><rect shape-rendering="crispEdges" fill="rgb(172, 57, 222)"  x="6" y="19" width="1" height="1" /><rect shape-rendering="crispEdges" fill="rgb(197, 65, 230)"  x="6" y="20" width="1" height="1" /><rect shape-rendering="crispEdges" fill="rgb(213, 65, 246)"  x="6" y="21" width="1" height="1" /><rect shape-rendering="crispEdges" fill="rgb(197, 57, 238)"  x="6" y="22" width="1" height="1" /><rect shape-rendering="crispEdges" fill="rgb(90, 41, 123)"  x="6" y="23" width="1" height="1" /><rect shape-rendering="crispEdges" fill="rgb(32, 49, 32)"  x="6" y="24" width="1" height="1" /><rect shape-rendering="crispEdges" fill="rgb(57, 57, 57)"  x="7" y="10" width="1" height="1" /><rect shape-rendering="crispEdges" fill="rgb(49, 65, 57)"  x="7" y="11" width="1" height="1" /><rect shape-rendering="crispEdges" fill="rgb(41, 41, 41)"  x="7" y="12" width="1" height="1" /><rect shape-rendering="crispEdges" fill="rgb(41, 49, 49)"  x="7" y="13" width="1" height="1" /><rect shape-rendering="crispEdges" fill="rgb(82, 32, 131)"  x="7" y="14" width="1" height="1" /><rect shape-rendering="crispEdges" fill="rgb(139, 49, 197)"  x="7" y="15" width="1" height="1" /><rect shape-rendering="crispEdges" fill="rgb(164, 65, 213)"  x="7" y="16" width="1" height="1" /><rect shape-rendering="crispEdges" fill="rgb(180, 74, 222)"  x="7" y="17" width="1" height="1" /><rect shape-rendering="crispEdges" fill="rgb(172, 74, 222)"  x="7" y="18" width="1" height="1" /><rect shape-rendering="crispEdges" fill="rgb(164, 74, 213)"  x="7" y="19" width="1" height="1" /><rect shape-rendering="crispEdges" fill="rgb(148, 74, 197)"  x="7" y="20" width="1" height="1" /><rect shape-rendering="crispEdges" fill="rgb(131, 65, 205)"  x="7" y="21" width="1" height="1" /><rect shape-rendering="crispEdges" fill="rgb(123, 49, 205)"  x="7" y="22" width="1" height="1" /><rect shape-rendering="crispEdges" fill="rgb(74, 49, 115)"  x="7" y="23" width="1" height="1" /><rect shape-rendering="crispEdges" fill="rgb(49, 49, 41)"  x="7" y="24" width="1" height="1" /><rect shape-rendering="crispEdges" fill="rgb(41, 49, 41)"  x="8" y="12" width="1" height="1" /><rect shape-rendering="crispEdges" fill="rgb(32, 41, 41)"  x="8" y="13" width="1" height="1" /><rect shape-rendering="crispEdges" fill="rgb(131, 41, 156)"  x="8" y="14" width="1" height="1" /><rect shape-rendering="crispEdges" fill="rgb(230, 74, 246)"  x="8" y="15" width="1" height="1" /><rect shape-rendering="crispEdges" fill="rgb(205, 74, 238)"  x="8" y="16" width="1" height="1" /><rect shape-rendering="crispEdges" fill="rgb(148, 74, 205)"  x="8" y="17" width="1" height="1" /><rect shape-rendering="crispEdges" fill="rgb(115, 74, 189)"  x="8" y="18" width="1" height="1" /><rect shape-rendering="crispEdges" fill="rgb(98, 74, 180)"  x="8" y="19" width="1" height="1" /><rect shape-rendering="crispEdges" fill="rgb(90, 65, 180)"  x="8" y="20" width="1" height="1" /><rect shape-rendering="crispEdges" fill="rgb(106, 57, 189)"  x="8" y="21" width="1" height="1" /><rect shape-rendering="crispEdges" fill="rgb(139, 49, 205)"  x="8" y="22" width="1" height="1" /><rect shape-rendering="crispEdges" fill="rgb(65, 49, 82)"  x="8" y="23" width="1" height="1" /><rect shape-rendering="crispEdges" fill="rgb(49, 49, 49)"  x="8" y="24" width="1" height="1" /><rect shape-rendering="crispEdges" fill="rgb(49, 49, 49)"  x="9" y="12" width="1" height="1" /><rect shape-rendering="crispEdges" fill="rgb(32, 41, 41)"  x="9" y="13" width="1" height="1" /><rect shape-rendering="crispEdges" fill="rgb(123, 41, 148)"  x="9" y="14" width="1" height="1" /><rect shape-rendering="crispEdges" fill="rgb(180, 49, 222)"  x="9" y="15" width="1" height="1" /><rect shape-rendering="crispEdges" fill="rgb(106, 49, 172)"  x="9" y="16" width="1" height="1" /><rect shape-rendering="crispEdges" fill="rgb(90, 49, 164)"  x="9" y="17" width="1" height="1" /><rect shape-rendering="crispEdges" fill="rgb(90, 57, 172)"  x="9" y="18" width="1" height="1" /><rect shape-rendering="crispEdges" fill="rgb(115, 65, 189)"  x="9" y="19" width="1" height="1" /><rect shape-rendering="crispEdges" fill="rgb(131, 65, 197)"  x="9" y="20" width="1" height="1" /><rect shape-rendering="crispEdges" fill="rgb(139, 57, 213)"  x="9" y="21" width="1" height="1" /><rect shape-rendering="crispEdges" fill="rgb(131, 49, 189)"  x="9" y="22" width="1" height="1" /><rect shape-rendering="crispEdges" fill="rgb(49, 49, 49)"  x="9" y="23" width="1" height="1" /><rect shape-rendering="crispEdges" fill="rgb(49, 57, 49)"  x="9" y="24" width="1" height="1" /><rect shape-rendering="crispEdges" fill="rgb(49, 49, 49)"  x="10" y="12" width="1" height="1" /><rect shape-rendering="crispEdges" fill="rgb(41, 49, 41)"  x="10" y="13" width="1" height="1" /><rect shape-rendering="crispEdges" fill="rgb(74, 32, 115)"  x="10" y="14" width="1" height="1" /><rect shape-rendering="crispEdges" fill="rgb(98, 41, 172)"  x="10" y="15" width="1" height="1" /><rect shape-rendering="crispEdges" fill="rgb(98, 41, 172)"  x="10" y="16" width="1" height="1" /><rect shape-rendering="crispEdges" fill="rgb(123, 49, 189)"  x="10" y="17" width="1" height="1" /><rect shape-rendering="crispEdges" fill="rgb(156, 74, 213)"  x="10" y="18" width="1" height="1" /><rect shape-rendering="crispEdges" fill="rgb(164, 74, 213)"  x="10" y="19" width="1" height="1" /><rect shape-rendering="crispEdges" fill="rgb(148, 74, 213)"  x="10" y="20" width="1" height="1" /><rect shape-rendering="crispEdges" fill="rgb(139, 57, 205)"  x="10" y="21" width="1" height="1" /><rect shape-rendering="crispEdges" fill="rgb(123, 41, 189)"  x="10" y="22" width="1" height="1" /><rect shape-rendering="crispEdges" fill="rgb(49, 41, 65)"  x="10" y="23" width="1" height="1" /><rect shape-rendering="crispEdges" fill="rgb(49, 49, 41)"  x="10" y="24" width="1" height="1" /><rect shape-rendering="crispEdges" fill="rgb(49, 49, 49)"  x="11" y="12" width="1" height="1" /><rect shape-rendering="crispEdges" fill="rgb(41, 49, 41)"  x="11" y="13" width="1" height="1" /><rect shape-rendering="crispEdges" fill="rgb(57, 41, 98)"  x="11" y="14" width="1" height="1" /><rect shape-rendering="crispEdges" fill="rgb(139, 49, 205)"  x="11" y="15" width="1" height="1" /><rect shape-rendering="crispEdges" fill="rgb(172, 57, 230)"  x="11" y="16" width="1" height="1" /><rect shape-rendering="crispEdges" fill="rgb(172, 65, 222)"  x="11" y="17" width="1" height="1" /><rect shape-rendering="crispEdges" fill="rgb(148, 65, 205)"  x="11" y="18" width="1" height="1" /><rect shape-rendering="crispEdges" fill="rgb(131, 65, 197)"  x="11" y="19" width="1" height="1" /><rect shape-rendering="crispEdges" fill="rgb(123, 65, 197)"  x="11" y="20" width="1" height="1" /><rect shape-rendering="crispEdges" fill="rgb(123, 49, 189)"  x="11" y="21" width="1" height="1" /><rect shape-rendering="crispEdges" fill="rgb(123, 49, 197)"  x="11" y="22" width="1" height="1" /><rect shape-rendering="crispEdges" fill="rgb(74, 41, 106)"  x="11" y="23" width="1" height="1" /><rect shape-rendering="crispEdges" fill="rgb(41, 49, 41)"  x="11" y="24" width="1" height="1" /><rect shape-rendering="crispEdges" fill="rgb(49, 49, 49)"  x="12" y="12" width="1" height="1" /><rect shape-rendering="crispEdges" fill="rgb(32, 41, 32)"  x="12" y="13" width="1" height="1" /><rect shape-rendering="crispEdges" fill="rgb(90, 65, 148)"  x="12" y="14" width="1" height="1" /><rect shape-rendering="crispEdges" fill="rgb(205, 65, 246)"  x="12" y="15" width="1" height="1" /><rect shape-rendering="crispEdges" fill="rgb(156, 57, 222)"  x="12" y="16" width="1" height="1" /><rect shape-rendering="crispEdges" fill="rgb(106, 57, 180)"  x="12" y="17" width="1" height="1" /><rect shape-rendering="crispEdges" fill="rgb(98, 57, 172)"  x="12" y="18" width="1" height="1" /><rect shape-rendering="crispEdges" fill="rgb(106, 65, 180)"  x="12" y="19" width="1" height="1" /><rect shape-rendering="crispEdges" fill="rgb(106, 65, 180)"  x="12" y="20" width="1" height="1" /><rect shape-rendering="crispEdges" fill="rgb(115, 57, 197)"  x="12" y="21" width="1" height="1" /><rect shape-rendering="crispEdges" fill="rgb(131, 57, 222)"  x="12" y="22" width="1" height="1" /><rect shape-rendering="crispEdges" fill="rgb(90, 49, 148)"  x="12" y="23" width="1" height="1" /><rect shape-rendering="crispEdges" fill="rgb(41, 49, 41)"  x="12" y="24" width="1" height="1" /><rect shape-rendering="crispEdges" fill="rgb(49, 49, 49)"  x="12" y="25" width="1" height="1" /><rect shape-rendering="crispEdges" fill="rgb(49, 49, 49)"  x="13" y="12" width="1" height="1" /><rect shape-rendering="crispEdges" fill="rgb(32, 49, 32)"  x="13" y="13" width="1" height="1" /><rect shape-rendering="crispEdges" fill="rgb(98, 49, 131)"  x="13" y="14" width="1" height="1" /><rect shape-rendering="crispEdges" fill="rgb(123, 41, 189)"  x="13" y="15" width="1" height="1" /><rect shape-rendering="crispEdges" fill="rgb(90, 41, 172)"  x="13" y="16" width="1" height="1" /><rect shape-rendering="crispEdges" fill="rgb(98, 49, 164)"  x="13" y="17" width="1" height="1" /><rect shape-rendering="crispEdges" fill="rgb(98, 65, 180)"  x="13" y="18" width="1" height="1" /><rect shape-rendering="crispEdges" fill="rgb(106, 65, 180)"  x="13" y="19" width="1" height="1" /><rect shape-rendering="crispEdges" fill="rgb(98, 65, 180)"  x="13" y="20" width="1" height="1" /><rect shape-rendering="crispEdges" fill="rgb(106, 57, 189)"  x="13" y="21" width="1" height="1" /><rect shape-rendering="crispEdges" fill="rgb(123, 57, 213)"  x="13" y="22" width="1" height="1" /><rect shape-rendering="crispEdges" fill="rgb(90, 41, 164)"  x="13" y="23" width="1" height="1" /><rect shape-rendering="crispEdges" fill="rgb(57, 49, 74)"  x="13" y="24" width="1" height="1" /><rect shape-rendering="crispEdges" fill="rgb(41, 49, 41)"  x="13" y="25" width="1" height="1" /><rect shape-rendering="crispEdges" fill="rgb(41, 41, 41)"  x="14" y="13" width="1" height="1" /><rect shape-rendering="crispEdges" fill="rgb(49, 41, 82)"  x="14" y="14" width="1" height="1" /><rect shape-rendering="crispEdges" fill="rgb(90, 32, 156)"  x="14" y="15" width="1" height="1" /><rect shape-rendering="crispEdges" fill="rgb(106, 41, 180)"  x="14" y="16" width="1" height="1" /><rect shape-rendering="crispEdges" fill="rgb(98, 49, 180)"  x="14" y="17" width="1" height="1" /><rect shape-rendering="crispEdges" fill="rgb(106, 57, 180)"  x="14" y="18" width="1" height="1" /><rect shape-rendering="crispEdges" fill="rgb(106, 65, 180)"  x="14" y="19" width="1" height="1" /><rect shape-rendering="crispEdges" fill="rgb(106, 65, 189)"  x="14" y="20" width="1" height="1" /><rect shape-rendering="crispEdges" fill="rgb(106, 57, 189)"  x="14" y="21" width="1" height="1" /><rect shape-rendering="crispEdges" fill="rgb(131, 57, 213)"  x="14" y="22" width="1" height="1" /><rect shape-rendering="crispEdges" fill="rgb(123, 49, 180)"  x="14" y="23" width="1" height="1" /><rect shape-rendering="crispEdges" fill="rgb(65, 57, 82)"  x="14" y="24" width="1" height="1" /><rect shape-rendering="crispEdges" fill="rgb(49, 49, 41)"  x="14" y="25" width="1" height="1" /><rect shape-rendering="crispEdges" fill="rgb(41, 41, 41)"  x="15" y="13" width="1" height="1" /><rect shape-rendering="crispEdges" fill="rgb(57, 41, 82)"  x="15" y="14" width="1" height="1" /><rect shape-rendering="crispEdges" fill="rgb(90, 32, 164)"  x="15" y="15" width="1" height="1" /><rect shape-rendering="crispEdges" fill="rgb(98, 41, 172)"  x="15" y="16" width="1" height="1" /><rect shape-rendering="crispEdges" fill="rgb(98, 49, 172)"  x="15" y="17" width="1" height="1" /><rect shape-rendering="crispEdges" fill="rgb(98, 65, 180)"  x="15" y="18" width="1" height="1" /><rect shape-rendering="crispEdges" fill="rgb(106, 65, 180)"  x="15" y="19" width="1" height="1" /><rect shape-rendering="crispEdges" fill="rgb(123, 65, 197)"  x="15" y="20" width="1" height="1" /><rect shape-rendering="crispEdges" fill="rgb(156, 65, 222)"  x="15" y="21" width="1" height="1" /><rect shape-rendering="crispEdges" fill="rgb(172, 57, 230)"  x="15" y="22" width="1" height="1" /><rect shape-rendering="crispEdges" fill="rgb(90, 49, 139)"  x="15" y="23" width="1" height="1" /><rect shape-rendering="crispEdges" fill="rgb(41, 49, 49)"  x="15" y="24" width="1" height="1" /><rect shape-rendering="crispEdges" fill="rgb(49, 49, 49)"  x="15" y="25" width="1" height="1" /><rect shape-rendering="crispEdges" fill="rgb(41, 41, 41)"  x="16" y="13" width="1" height="1" /><rect shape-rendering="crispEdges" fill="rgb(49, 41, 74)"  x="16" y="14" width="1" height="1" /><rect shape-rendering="crispEdges" fill="rgb(82, 32, 148)"  x="16" y="15" width="1" height="1" /><rect shape-rendering="crispEdges" fill="rgb(106, 41, 180)"  x="16" y="16" width="1" height="1" /><rect shape-rendering="crispEdges" fill="rgb(123, 57, 189)"  x="16" y="17" width="1" height="1" /><rect shape-rendering="crispEdges" fill="rgb(148, 74, 205)"  x="16" y="18" width="1" height="1" /><rect shape-rendering="crispEdges" fill="rgb(172, 74, 222)"  x="16" y="19" width="1" height="1" /><rect shape-rendering="crispEdges" fill="rgb(164, 65, 222)"  x="16" y="20" width="1" height="1" /><rect shape-rendering="crispEdges" fill="rgb(139, 57, 205)"  x="16" y="21" width="1" height="1" /><rect shape-rendering="crispEdges" fill="rgb(115, 41, 189)"  x="16" y="22" width="1" height="1" /><rect shape-rendering="crispEdges" fill="rgb(49, 41, 74)"  x="16" y="23" width="1" height="1" /><rect shape-rendering="crispEdges" fill="rgb(49, 49, 49)"  x="16" y="24" width="1" height="1" /><rect shape-rendering="crispEdges" fill="rgb(41, 49, 41)"  x="17" y="13" width="1" height="1" /><rect shape-rendering="crispEdges" fill="rgb(41, 49, 57)"  x="17" y="14" width="1" height="1" /><rect shape-rendering="crispEdges" fill="rgb(131, 41, 180)"  x="17" y="15" width="1" height="1" /><rect shape-rendering="crispEdges" fill="rgb(197, 57, 238)"  x="17" y="16" width="1" height="1" /><rect shape-rendering="crispEdges" fill="rgb(222, 82, 246)"  x="17" y="17" width="1" height="1" /><rect shape-rendering="crispEdges" fill="rgb(197, 82, 238)"  x="17" y="18" width="1" height="1" /><rect shape-rendering="crispEdges" fill="rgb(156, 65, 205)"  x="17" y="19" width="1" height="1" /><rect shape-rendering="crispEdges" fill="rgb(131, 49, 189)"  x="17" y="20" width="1" height="1" /><rect shape-rendering="crispEdges" fill="rgb(131, 49, 205)"  x="17" y="21" width="1" height="1" /><rect shape-rendering="crispEdges" fill="rgb(90, 41, 139)"  x="17" y="22" width="1" height="1" /><rect shape-rendering="crispEdges" fill="rgb(41, 41, 32)"  x="17" y="23" width="1" height="1" /><rect shape-rendering="crispEdges" fill="rgb(57, 57, 57)"  x="17" y="24" width="1" height="1" /><rect shape-rendering="crispEdges" fill="rgb(49, 49, 41)"  x="18" y="13" width="1" height="1" /><rect shape-rendering="crispEdges" fill="rgb(32, 41, 41)"  x="18" y="14" width="1" height="1" /><rect shape-rendering="crispEdges" fill="rgb(164, 49, 189)"  x="18" y="15" width="1" height="1" /><rect shape-rendering="crispEdges" fill="rgb(238, 74, 255)"  x="18" y="16" width="1" height="1" /><rect shape-rendering="crispEdges" fill="rgb(189, 65, 222)"  x="18" y="17" width="1" height="1" /><rect shape-rendering="crispEdges" fill="rgb(139, 57, 197)"  x="18" y="18" width="1" height="1" /><rect shape-rendering="crispEdges" fill="rgb(139, 49, 197)"  x="18" y="19" width="1" height="1" /><rect shape-rendering="crispEdges" fill="rgb(139, 49, 197)"  x="18" y="20" width="1" height="1" /><rect shape-rendering="crispEdges" fill="rgb(115, 41, 189)"  x="18" y="21" width="1" height="1" /><rect shape-rendering="crispEdges" fill="rgb(41, 41, 57)"  x="18" y="22" width="1" height="1" /><rect shape-rendering="crispEdges" fill="rgb(49, 49, 49)"  x="18" y="23" width="1" height="1" /><rect shape-rendering="crispEdges" fill="rgb(49, 49, 49)"  x="19" y="13" width="1" height="1" /><rect shape-rendering="crispEdges" fill="rgb(32, 49, 32)"  x="19" y="14" width="1" height="1" /><rect shape-rendering="crispEdges" fill="rgb(98, 41, 115)"  x="19" y="15" width="1" height="1" /><rect shape-rendering="crispEdges" fill="rgb(172, 49, 213)"  x="19" y="16" width="1" height="1" /><rect shape-rendering="crispEdges" fill="rgb(139, 49, 189)"  x="19" y="17" width="1" height="1" /><rect shape-rendering="crispEdges" fill="rgb(123, 41, 180)"  x="19" y="18" width="1" height="1" /><rect shape-rendering="crispEdges" fill="rgb(123, 41, 189)"  x="19" y="19" width="1" height="1" /><rect shape-rendering="crispEdges" fill="rgb(106, 32, 197)"  x="19" y="20" width="1" height="1" /><rect shape-rendering="crispEdges" fill="rgb(65, 32, 106)"  x="19" y="21" width="1" height="1" /><rect shape-rendering="crispEdges" fill="rgb(41, 49, 32)"  x="19" y="22" width="1" height="1" /><rect shape-rendering="crispEdges" fill="rgb(49, 49, 49)"  x="19" y="23" width="1" height="1" /><rect shape-rendering="crispEdges" fill="rgb(57, 57, 57)"  x="20" y="13" width="1" height="1" /><rect shape-rendering="crispEdges" fill="rgb(49, 49, 41)"  x="20" y="14" width="1" height="1" /><rect shape-rendering="crispEdges" fill="rgb(41, 49, 57)"  x="20" y="15" width="1" height="1" /><rect shape-rendering="crispEdges" fill="rgb(106, 32, 156)"  x="20" y="16" width="1" height="1" /><rect shape-rendering="crispEdges" fill="rgb(115, 32, 189)"  x="20" y="17" width="1" height="1" /><rect shape-rendering="crispEdges" fill="rgb(106, 32, 180)"  x="20" y="18" width="1" height="1" /><rect shape-rendering="crispEdges" fill="rgb(98, 32, 180)"  x="20" y="19" width="1" height="1" /><rect shape-rendering="crispEdges" fill="rgb(65, 41, 106)"  x="20" y="20" width="1" height="1" /><rect shape-rendering="crispEdges" fill="rgb(41, 49, 32)"  x="20" y="21" width="1" height="1" /><rect shape-rendering="crispEdges" fill="rgb(49, 49, 49)"  x="20" y="22" width="1" height="1" /><rect shape-rendering="crispEdges" fill="rgb(49, 49, 49)"  x="21" y="14" width="1" height="1" /><rect shape-rendering="crispEdges" fill="rgb(49, 49, 41)"  x="21" y="15" width="1" height="1" /><rect shape-rendering="crispEdges" fill="rgb(32, 49, 41)"  x="21" y="16" width="1" height="1" /><rect shape-rendering="crispEdges" fill="rgb(57, 41, 98)"  x="21" y="17" width="1" height="1" /><rect shape-rendering="crispEdges" fill="rgb(65, 41, 106)"  x="21" y="18" width="1" height="1" /><rect shape-rendering="crispEdges" fill="rgb(49, 41, 65)"  x="21" y="19" width="1" height="1" /><rect shape-rendering="crispEdges" fill="rgb(41, 49, 32)"  x="21" y="20" width="1" height="1" /><rect shape-rendering="crispEdges" fill="rgb(49, 57, 57)"  x="21" y="21" width="1" height="1" /><rect shape-rendering="crispEdges" fill="rgb(41, 82, 65)"  x="22" y="13" width="1" height="1" /><rect shape-rendering="crispEdges" fill="rgb(41, 49, 65)"  x="22" y="14" width="1" height="1" /><rect shape-rendering="crispEdges" fill="rgb(49, 49, 49)"  x="22" y="15" width="1" height="1" /><rect shape-rendering="crispEdges" fill="rgb(49, 49, 57)"  x="22" y="16" width="1" height="1" /><rect shape-rendering="crispEdges" fill="rgb(41, 49, 41)"  x="22" y="17" width="1" height="1" /><rect shape-rendering="crispEdges" fill="rgb(41, 49, 49)"  x="22" y="18" width="1" height="1" /><rect shape-rendering="crispEdges" fill="rgb(49, 49, 49)"  x="22" y="19" width="1" height="1" /><rect shape-rendering="crispEdges" fill="rgb(49, 41, 49)"  x="22" y="20" width="1" height="1" /><rect shape-rendering="crispEdges" fill="rgb(32, 115, 49)"  x="23" y="13" width="1" height="1" /><rect shape-rendering="crispEdges" fill="rgb(16, 123, 41)"  x="23" y="14" width="1" height="1" /><rect shape-rendering="crispEdges" fill="rgb(49, 49, 49)"  x="23" y="15" width="1" height="1" /><rect shape-rendering="crispEdges" fill="rgb(49, 49, 65)"  x="23" y="16" width="1" height="1" /><rect shape-rendering="crispEdges" fill="rgb(49, 49, 74)"  x="23" y="17" width="1" height="1" /><rect shape-rendering="crispEdges" fill="rgb(49, 57, 65)"  x="23" y="18" width="1" height="1" /><rect shape-rendering="crispEdges" fill="rgb(32, 49, 49)"  x="23" y="19" width="1" height="1" /><rect shape-rendering="crispEdges" fill="rgb(32, 82, 57)"  x="23" y="20" width="1" height="1" /><rect shape-rendering="crispEdges" fill="rgb(24, 115, 49)"  x="24" y="13" width="1" height="1" /><rect shape-rendering="crispEdges" fill="rgb(16, 205, 65)"  x="24" y="14" width="1" height="1" /><rect shape-rendering="crispEdges" fill="rgb(16, 180, 57)"  x="24" y="15" width="1" height="1" /><rect shape-rendering="crispEdges" fill="rgb(24, 106, 41)"  x="24" y="16" width="1" height="1" /><rect shape-rendering="crispEdges" fill="rgb(32, 90, 41)"  x="24" y="17" width="1" height="1" /><rect shape-rendering="crispEdges" fill="rgb(16, 123, 41)"  x="24" y="18" width="1" height="1" /><rect shape-rendering="crispEdges" fill="rgb(16, 197, 65)"  x="24" y="19" width="1" height="1" /><rect shape-rendering="crispEdges" fill="rgb(32, 139, 57)"  x="24" y="20" width="1" height="1" /><rect shape-rendering="crispEdges" fill="rgb(41, 82, 49)"  x="24" y="21" width="1" height="1" /><rect shape-rendering="crispEdges" fill="rgb(16, 131, 41)"  x="25" y="13" width="1" height="1" /><rect shape-rendering="crispEdges" fill="rgb(16, 222, 65)"  x="25" y="14" width="1" height="1" /><rect shape-rendering="crispEdges" fill="rgb(16, 189, 57)"  x="25" y="15" width="1" height="1" /><rect shape-rendering="crispEdges" fill="rgb(16, 222, 65)"  x="25" y="16" width="1" height="1" /><rect shape-rendering="crispEdges" fill="rgb(16, 180, 57)"  x="25" y="17" width="1" height="1" /><rect shape-rendering="crispEdges" fill="rgb(16, 172, 49)"  x="25" y="18" width="1" height="1" /><rect shape-rendering="crispEdges" fill="rgb(16, 222, 65)"  x="25" y="19" width="1" height="1" /><rect shape-rendering="crispEdges" fill="rgb(41, 98, 57)"  x="25" y="20" width="1" height="1" /><rect shape-rendering="crispEdges" fill="rgb(32, 106, 49)"  x="25" y="21" width="1" height="1" /><rect shape-rendering="crispEdges" fill="rgb(49, 74, 49)"  x="26" y="12" width="1" height="1" /><rect shape-rendering="crispEdges" fill="rgb(16, 156, 49)"  x="26" y="13" width="1" height="1" /><rect shape-rendering="crispEdges" fill="rgb(24, 230, 74)"  x="26" y="14" width="1" height="1" /><rect shape-rendering="crispEdges" fill="rgb(8, 131, 41)"  x="26" y="15" width="1" height="1" /><rect shape-rendering="crispEdges" fill="rgb(16, 180, 57)"  x="26" y="16" width="1" height="1" /><rect shape-rendering="crispEdges" fill="rgb(16, 139, 41)"  x="26" y="17" width="1" height="1" /><rect shape-rendering="crispEdges" fill="rgb(16, 197, 57)"  x="26" y="18" width="1" height="1" /><rect shape-rendering="crispEdges" fill="rgb(24, 213, 65)"  x="26" y="19" width="1" height="1" /><rect shape-rendering="crispEdges" fill="rgb(32, 115, 49)"  x="26" y="20" width="1" height="1" /><rect shape-rendering="crispEdges" fill="rgb(24, 106, 49)"  x="26" y="21" width="1" height="1" /><rect shape-rendering="crispEdges" fill="rgb(49, 74, 49)"  x="27" y="12" width="1" height="1" /><rect shape-rendering="crispEdges" fill="rgb(16, 189, 57)"  x="27" y="13" width="1" height="1" /><rect shape-rendering="crispEdges" fill="rgb(24, 230, 74)"  x="27" y="14" width="1" height="1" /><rect shape-rendering="crispEdges" fill="rgb(16, 164, 49)"  x="27" y="15" width="1" height="1" /><rect shape-rendering="crispEdges" fill="rgb(16, 156, 49)"  x="27" y="16" width="1" height="1" /><rect shape-rendering="crispEdges" fill="rgb(8, 131, 41)"  x="27" y="17" width="1" height="1" /><rect shape-rendering="crispEdges" fill="rgb(16, 222, 65)"  x="27" y="18" width="1" height="1" /><rect shape-rendering="crispEdges" fill="rgb(32, 148, 57)"  x="27" y="19" width="1" height="1" /><rect shape-rendering="crispEdges" fill="rgb(32, 106, 49)"  x="27" y="20" width="1" height="1" /><rect shape-rendering="crispEdges" fill="rgb(24, 131, 49)"  x="28" y="12" width="1" height="1" /><rect shape-rendering="crispEdges" fill="rgb(16, 222, 74)"  x="28" y="13" width="1" height="1" /><rect shape-rendering="crispEdges" fill="rgb(16, 189, 57)"  x="28" y="14" width="1" height="1" /><rect shape-rendering="crispEdges" fill="rgb(16, 164, 49)"  x="28" y="15" width="1" height="1" /><rect shape-rendering="crispEdges" fill="rgb(16, 172, 57)"  x="28" y="16" width="1" height="1" /><rect shape-rendering="crispEdges" fill="rgb(16, 156, 49)"  x="28" y="17" width="1" height="1" /><rect shape-rendering="crispEdges" fill="rgb(16, 222, 65)"  x="28" y="18" width="1" height="1" /><rect shape-rendering="crispEdges" fill="rgb(41, 98, 49)"  x="28" y="19" width="1" height="1" /><rect shape-rendering="crispEdges" fill="rgb(32, 98, 49)"  x="28" y="20" width="1" height="1" /><rect shape-rendering="crispEdges" fill="rgb(16, 172, 49)"  x="29" y="12" width="1" height="1" /><rect shape-rendering="crispEdges" fill="rgb(24, 230, 74)"  x="29" y="13" width="1" height="1" /><rect shape-rendering="crispEdges" fill="rgb(16, 180, 57)"  x="29" y="14" width="1" height="1" /><rect shape-rendering="crispEdges" fill="rgb(16, 197, 57)"  x="29" y="15" width="1" height="1" /><rect shape-rendering="crispEdges" fill="rgb(16, 156, 49)"  x="29" y="16" width="1" height="1" /><rect shape-rendering="crispEdges" fill="rgb(16, 180, 57)"  x="29" y="17" width="1" height="1" /><rect shape-rendering="crispEdges" fill="rgb(16, 213, 65)"  x="29" y="18" width="1" height="1" /><rect shape-rendering="crispEdges" fill="rgb(32, 90, 49)"  x="29" y="19" width="1" height="1" /><rect shape-rendering="crispEdges" fill="rgb(32, 131, 57)"  x="30" y="12" width="1" height="1" /><rect shape-rendering="crispEdges" fill="rgb(16, 222, 65)"  x="30" y="13" width="1" height="1" /><rect shape-rendering="crispEdges" fill="rgb(16, 172, 49)"  x="30" y="14" width="1" height="1" /><rect shape-rendering="crispEdges" fill="rgb(16, 156, 49)"  x="30" y="15" width="1" height="1" /><rect shape-rendering="crispEdges" fill="rgb(8, 131, 41)"  x="30" y="16" width="1" height="1" /><rect shape-rendering="crispEdges" fill="rgb(16, 205, 65)"  x="30" y="17" width="1" height="1" /><rect shape-rendering="crispEdges" fill="rgb(32, 139, 57)"  x="30" y="18" width="1" height="1" /><rect shape-rendering="crispEdges" fill="rgb(32, 90, 49)"  x="30" y="19" width="1" height="1" /><rect shape-rendering="crispEdges" fill="rgb(49, 74, 49)"  x="31" y="12" width="1" height="1" /><rect shape-rendering="crispEdges" fill="rgb(41, 98, 49)"  x="31" y="13" width="1" height="1" /><rect shape-rendering="crispEdges" fill="rgb(32, 98, 49)"  x="31" y="14" width="1" height="1" /><rect shape-rendering="crispEdges" fill="rgb(41, 90, 49)"  x="31" y="15" width="1" height="1" /><rect shape-rendering="crispEdges" fill="rgb(41, 82, 49)"  x="31" y="16" width="1" height="1" /><rect shape-rendering="crispEdges" fill="rgb(41, 82, 49)"  x="31" y="17" width="1" height="1" /><rect shape-rendering="crispEdges" fill="rgb(41, 74, 49)"  x="31" y="18" width="1" height="1" /></svg>