<svg xmlns="http://www.w3.org/2000/svg" xmlns:xlink= "http://www.w3.org/1999/xlink" width="32" height="32" viewBox ="0 0 32 32"><rect shape-rendering="crispEdges" fill="rgb(131, 82, 32)"  x="1" y="20" width="1" height="1" /><rect shape-rendering="crispEdges" fill="rgb(139, 82, 32)"  x="1" y="21" width="1" height="1" /><rect shape-rendering="crispEdges" fill="rgb(131, 82, 32)"  x="1" y="22" width="1" height="1" /><rect shape-rendering="crispEdges" fill="rgb(115, 65, 32)"  x="1" y="23" width="1" height="1" /><rect shape-rendering="crispEdges" fill="rgb(106, 65, 32)"  x="2" y="18" width="1" height="1" /><rect shape-rendering="crispEdges" fill="rgb(139, 90, 41)"  x="2" y="19" width="1" height="1" /><rect shape-rendering="crispEdges" fill="rgb(148, 90, 41)"  x="2" y="20" width="1" height="1" /><rect shape-rendering="crispEdges" fill="rgb(115, 74, 32)"  x="2" y="21" width="1" height="1" /><rect shape-rendering="crispEdges" fill="rgb(98, 74, 57)"  x="2" y="22" width="1" height="1" /><rect shape-rendering="crispEdges" fill="rgb(123, 98, 74)"  x="2" y="23" width="1" height="1" /><rect shape-rendering="crispEdges" fill="rgb(123, 98, 74)"  x="2" y="24" width="1" height="1" /><rect shape-rendering="crispEdges" fill="rgb(131, 82, 32)"  x="3" y="17" width="1" height="1" /><rect shape-rendering="crispEdges" fill="rgb(139, 90, 41)"  x="3" y="18" width="1" height="1" /><rect shape-rendering="crispEdges" fill="rgb(148, 90, 41)"  x="3" y="19" width="1" height="1" /><rect shape-rendering="crispEdges" fill="rgb(115, 74, 32)"  x="3" y="20" width="1" height="1" /><rect shape-rendering="crispEdges" fill="rgb(148, 123, 98)"  x="3" y="22" width="1" height="1" /><rect shape-rendering="crispEdges" fill="rgb(156, 131, 106)"  x="3" y="23" width="1" height="1" /><rect shape-rendering="crispEdges" fill="rgb(156, 123, 106)"  x="3" y="24" width="1" height="1" /><rect shape-rendering="crispEdges" fill="rgb(115, 90, 74)"  x="3" y="25" width="1" height="1" /><rect shape-rendering="crispEdges" fill="rgb(123, 74, 32)"  x="4" y="17" width="1" height="1" /><rect shape-rendering="crispEdges" fill="rgb(148, 90, 41)"  x="4" y="18" width="1" height="1" /><rect shape-rendering="crispEdges" fill="rgb(139, 90, 32)"  x="4" y="19" width="1" height="1" /><rect shape-rendering="crispEdges" fill="rgb(156, 131, 106)"  x="4" y="23" width="1" height="1" /><rect shape-rendering="crispEdges" fill="rgb(156, 131, 106)"  x="4" y="24" width="1" height="1" /><rect shape-rendering="crispEdges" fill="rgb(148, 123, 98)"  x="4" y="25" width="1" height="1" /><rect shape-rendering="crispEdges" fill="rgb(115, 74, 32)"  x="5" y="17" width="1" height="1" /><rect shape-rendering="crispEdges" fill="rgb(148, 90, 41)"  x="5" y="18" width="1" height="1" /><rect shape-rendering="crispEdges" fill="rgb(139, 90, 32)"  x="5" y="19" width="1" height="1" /><rect shape-rendering="crispEdges" fill="rgb(156, 131, 106)"  x="5" y="23" width="1" height="1" /><rect shape-rendering="crispEdges" fill="rgb(156, 131, 106)"  x="5" y="24" width="1" height="1" /><rect shape-rendering="crispEdges" fill="rgb(156, 131, 106)"  x="5" y="25" width="1" height="1" /><rect shape-rendering="crispEdges" fill="rgb(131, 106, 82)"  x="5" y="26" width="1" height="1" /><rect shape-rendering="crispEdges" fill="rgb(106, 65, 32)"  x="6" y="17" width="1" height="1" /><rect shape-rendering="crispEdges" fill="rgb(148, 90, 41)"  x="6" y="18" width="1" height="1" /><rect shape-rendering="crispEdges" fill="rgb(148, 90, 41)"  x="6" y="19" width="1" height="1" /><rect shape-rendering="crispEdges" fill="rgb(115, 74, 32)"  x="6" y="20" width="1" height="1" /><rect shape-rendering="crispEdges" fill="rgb(156, 131, 106)"  x="6" y="24" width="1" height="1" /><rect shape-rendering="crispEdges" fill="rgb(156, 131, 106)"  x="6" y="25" width="1" height="1" /><rect shape-rendering="crispEdges" fill="rgb(139, 115, 90)"  x="6" y="26" width="1" height="1" /><rect shape-rendering="crispEdges" fill="rgb(148, 90, 41)"  x="7" y="18" width="1" height="1" /><rect shape-rendering="crispEdges" fill="rgb(148, 90, 41)"  x="7" y="19" width="1" height="1" /><rect shape-rendering="crispEdges" fill="rgb(131, 82, 32)"  x="7" y="20" width="1" height="1" /><rect shape-rendering="crispEdges" fill="rgb(156, 131, 106)"  x="7" y="24" width="1" height="1" /><rect shape-rendering="crispEdges" fill="rgb(156, 131, 106)"  x="7" y="25" width="1" height="1" /><rect shape-rendering="crispEdges" fill="rgb(156, 123, 106)"  x="7" y="26" width="1" height="1" /><rect shape-rendering="crispEdges" fill="rgb(148, 90, 41)"  x="8" y="18" width="1" height="1" /><rect shape-rendering="crispEdges" fill="rgb(148, 90, 41)"  x="8" y="19" width="1" height="1" /><rect shape-rendering="crispEdges" fill="rgb(139, 82, 32)"  x="8" y="20" width="1" height="1" /><rect shape-rendering="crispEdges" fill="rgb(156, 131, 106)"  x="8" y="24" width="1" height="1" /><rect shape-rendering="crispEdges" fill="rgb(156, 131, 106)"  x="8" y="25" width="1" height="1" /><rect shape-rendering="crispEdges" fill="rgb(156, 131, 106)"  x="8" y="26" width="1" height="1" /><rect shape-rendering="crispEdges" fill="rgb(115, 90, 74)"  x="8" y="27" width="1" height="1" /><rect shape-rendering="crispEdges" fill="rgb(148, 90, 41)"  x="9" y="18" width="1" height="1" /><rect shape-rendering="crispEdges" fill="rgb(148, 90, 41)"  x="9" y="19" width="1" height="1" /><rect shape-rendering="crispEdges" fill="rgb(106, 65, 32)"  x="9" y="20" width="1" height="1" /><rect shape-rendering="crispEdges" fill="rgb(156, 131, 106)"  x="9" y="24" width="1" height="1" /><rect shape-rendering="crispEdges" fill="rgb(156, 131, 106)"  x="9" y="25" width="1" height="1" /><rect shape-rendering="crispEdges" fill="rgb(156, 131, 106)"  x="9" y="26" width="1" height="1" /><rect shape-rendering="crispEdges" fill="rgb(148, 123, 98)"  x="9" y="27" width="1" height="1" /><rect shape-rendering="crispEdges" fill="rgb(123, 74, 32)"  x="10" y="17" width="1" height="1" /><rect shape-rendering="crispEdges" fill="rgb(148, 90, 41)"  x="10" y="18" width="1" height="1" /><rect shape-rendering="crispEdges" fill="rgb(106, 65, 32)"  x="10" y="19" width="1" height="1" /><rect shape-rendering="crispEdges" fill="rgb(156, 131, 106)"  x="10" y="24" width="1" height="1" /><rect shape-rendering="crispEdges" fill="rgb(156, 131, 106)"  x="10" y="25" width="1" height="1" /><rect shape-rendering="crispEdges" fill="rgb(156, 131, 106)"  x="10" y="26" width="1" height="1" /><rect shape-rendering="crispEdges" fill="rgb(156, 131, 106)"  x="10" y="27" width="1" height="1" /><rect shape-rendering="crispEdges" fill="rgb(98, 74, 57)"  x="10" y="28" width="1" height="1" /><rect shape-rendering="crispEdges" fill="rgb(74, 139, 0)"  x="11" y="7" width="1" height="1" /><rect shape-rendering="crispEdges" fill="rgb(65, 131, 0)"  x="11" y="8" width="1" height="1" /><rect shape-rendering="crispEdges" fill="rgb(41, 90, 0)"  x="11" y="9" width="1" height="1" /><rect shape-rendering="crispEdges" fill="rgb(41, 90, 0)"  x="11" y="10" width="1" height="1" /><rect shape-rendering="crispEdges" fill="rgb(41, 90, 0)"  x="11" y="11" width="1" height="1" /><rect shape-rendering="crispEdges" fill="rgb(41, 90, 0)"  x="11" y="12" width="1" height="1" /><rect shape-rendering="crispEdges" fill="rgb(65, 115, 0)"  x="11" y="13" width="1" height="1" /><rect shape-rendering="crispEdges" fill="rgb(98, 65, 24)"  x="11" y="15" width="1" height="1" /><rect shape-rendering="crispEdges" fill="rgb(106, 65, 24)"  x="11" y="16" width="1" height="1" /><rect shape-rendering="crispEdges" fill="rgb(139, 90, 32)"  x="11" y="17" width="1" height="1" /><rect shape-rendering="crispEdges" fill="rgb(115, 74, 32)"  x="11" y="18" width="1" height="1" /><rect shape-rendering="crispEdges" fill="rgb(156, 131, 106)"  x="11" y="24" width="1" height="1" /><rect shape-rendering="crispEdges" fill="rgb(156, 131, 106)"  x="11" y="25" width="1" height="1" /><rect shape-rendering="crispEdges" fill="rgb(156, 131, 106)"  x="11" y="26" width="1" height="1" /><rect shape-rendering="crispEdges" fill="rgb(156, 131, 106)"  x="11" y="27" width="1" height="1" /><rect shape-rendering="crispEdges" fill="rgb(123, 98, 82)"  x="11" y="28" width="1" height="1" /><rect shape-rendering="crispEdges" fill="rgb(74, 139, 0)"  x="12" y="5" width="1" height="1" /><rect shape-rendering="crispEdges" fill="rgb(74, 148, 0)"  x="12" y="6" width="1" height="1" /><rect shape-rendering="crispEdges" fill="rgb(90, 180, 8)"  x="12" y="7" width="1" height="1" /><rect shape-rendering="crispEdges" fill="rgb(90, 180, 8)"  x="12" y="8" width="1" height="1" /><rect shape-rendering="crispEdges" fill="rgb(90, 172, 0)"  x="12" y="9" width="1" height="1" /><rect shape-rendering="crispEdges" fill="rgb(82, 156, 0)"  x="12" y="10" width="1" height="1" /><rect shape-rendering="crispEdges" fill="rgb(65, 139, 0)"  x="12" y="11" width="1" height="1" /><rect shape-rendering="crispEdges" fill="rgb(57, 115, 0)"  x="12" y="12" width="1" height="1" /><rect shape-rendering="crispEdges" fill="rgb(49, 98, 0)"  x="12" y="13" width="1" height="1" /><rect shape-rendering="crispEdges" fill="rgb(49, 82, 0)"  x="12" y="14" width="1" height="1" /><rect shape-rendering="crispEdges" fill="rgb(90, 123, 16)"  x="12" y="15" width="1" height="1" /><rect shape-rendering="crispEdges" fill="rgb(139, 90, 41)"  x="12" y="16" width="1" height="1" /><rect shape-rendering="crispEdges" fill="rgb(115, 74, 32)"  x="12" y="17" width="1" height="1" /><rect shape-rendering="crispEdges" fill="rgb(156, 131, 106)"  x="12" y="24" width="1" height="1" /><rect shape-rendering="crispEdges" fill="rgb(156, 131, 106)"  x="12" y="25" width="1" height="1" /><rect shape-rendering="crispEdges" fill="rgb(156, 131, 115)"  x="12" y="26" width="1" height="1" /><rect shape-rendering="crispEdges" fill="rgb(156, 131, 115)"  x="12" y="27" width="1" height="1" /><rect shape-rendering="crispEdges" fill="rgb(148, 123, 106)"  x="12" y="28" width="1" height="1" /><rect shape-rendering="crispEdges" fill="rgb(65, 131, 0)"  x="13" y="4" width="1" height="1" /><rect shape-rendering="crispEdges" fill="rgb(90, 189, 8)"  x="13" y="5" width="1" height="1" /><rect shape-rendering="crispEdges" fill="rgb(139, 213, 41)"  x="13" y="6" width="1" height="1" /><rect shape-rendering="crispEdges" fill="rgb(139, 222, 41)"  x="13" y="7" width="1" height="1" /><rect shape-rendering="crispEdges" fill="rgb(115, 205, 8)"  x="13" y="8" width="1" height="1" /><rect shape-rendering="crispEdges" fill="rgb(90, 189, 0)"  x="13" y="9" width="1" height="1" /><rect shape-rendering="crispEdges" fill="rgb(82, 172, 0)"  x="13" y="10" width="1" height="1" /><rect shape-rendering="crispEdges" fill="rgb(74, 156, 0)"  x="13" y="11" width="1" height="1" /><rect shape-rendering="crispEdges" fill="rgb(65, 148, 0)"  x="13" y="12" width="1" height="1" /><rect shape-rendering="crispEdges" fill="rgb(65, 131, 0)"  x="13" y="13" width="1" height="1" /><rect shape-rendering="crispEdges" fill="rgb(49, 106, 0)"  x="13" y="14" width="1" height="1" /><rect shape-rendering="crispEdges" fill="rgb(74, 106, 8)"  x="13" y="15" width="1" height="1" /><rect shape-rendering="crispEdges" fill="rgb(98, 123, 24)"  x="13" y="16" width="1" height="1" /><rect shape-rendering="crispEdges" fill="rgb(156, 131, 115)"  x="13" y="24" width="1" height="1" /><rect shape-rendering="crispEdges" fill="rgb(156, 131, 115)"  x="13" y="25" width="1" height="1" /><rect shape-rendering="crispEdges" fill="rgb(156, 131, 123)"  x="13" y="26" width="1" height="1" /><rect shape-rendering="crispEdges" fill="rgb(148, 131, 123)"  x="13" y="27" width="1" height="1" /><rect shape-rendering="crispEdges" fill="rgb(156, 131, 123)"  x="13" y="28" width="1" height="1" /><rect shape-rendering="crispEdges" fill="rgb(123, 98, 82)"  x="13" y="29" width="1" height="1" /><rect shape-rendering="crispEdges" fill="rgb(57, 123, 0)"  x="14" y="3" width="1" height="1" /><rect shape-rendering="crispEdges" fill="rgb(115, 189, 16)"  x="14" y="4" width="1" height="1" /><rect shape-rendering="crispEdges" fill="rgb(189, 246, 82)"  x="14" y="5" width="1" height="1" /><rect shape-rendering="crispEdges" fill="rgb(189, 246, 82)"  x="14" y="6" width="1" height="1" /><rect shape-rendering="crispEdges" fill="rgb(164, 230, 57)"  x="14" y="7" width="1" height="1" /><rect shape-rendering="crispEdges" fill="rgb(131, 213, 24)"  x="14" y="8" width="1" height="1" /><rect shape-rendering="crispEdges" fill="rgb(90, 197, 0)"  x="14" y="9" width="1" height="1" /><rect shape-rendering="crispEdges" fill="rgb(82, 180, 0)"  x="14" y="10" width="1" height="1" /><rect shape-rendering="crispEdges" fill="rgb(74, 156, 0)"  x="14" y="11" width="1" height="1" /><rect shape-rendering="crispEdges" fill="rgb(65, 148, 0)"  x="14" y="12" width="1" height="1" /><rect shape-rendering="crispEdges" fill="rgb(65, 148, 0)"  x="14" y="13" width="1" height="1" /><rect shape-rendering="crispEdges" fill="rgb(57, 123, 0)"  x="14" y="14" width="1" height="1" /><rect shape-rendering="crispEdges" fill="rgb(65, 115, 0)"  x="14" y="15" width="1" height="1" /><rect shape-rendering="crispEdges" fill="rgb(106, 131, 32)"  x="14" y="16" width="1" height="1" /><rect shape-rendering="crispEdges" fill="rgb(106, 123, 41)"  x="14" y="17" width="1" height="1" /><rect shape-rendering="crispEdges" fill="rgb(156, 131, 115)"  x="14" y="23" width="1" height="1" /><rect shape-rendering="crispEdges" fill="rgb(148, 139, 123)"  x="14" y="24" width="1" height="1" /><rect shape-rendering="crispEdges" fill="rgb(148, 139, 131)"  x="14" y="25" width="1" height="1" /><rect shape-rendering="crispEdges" fill="rgb(148, 139, 139)"  x="14" y="26" width="1" height="1" /><rect shape-rendering="crispEdges" fill="rgb(148, 139, 139)"  x="14" y="27" width="1" height="1" /><rect shape-rendering="crispEdges" fill="rgb(148, 139, 139)"  x="14" y="28" width="1" height="1" /><rect shape-rendering="crispEdges" fill="rgb(148, 131, 123)"  x="14" y="29" width="1" height="1" /><rect shape-rendering="crispEdges" fill="rgb(57, 131, 0)"  x="15" y="3" width="1" height="1" /><rect shape-rendering="crispEdges" fill="rgb(189, 246, 74)"  x="15" y="4" width="1" height="1" /><rect shape-rendering="crispEdges" fill="rgb(213, 255, 115)"  x="15" y="5" width="1" height="1" /><rect shape-rendering="crispEdges" fill="rgb(213, 255, 106)"  x="15" y="6" width="1" height="1" /><rect shape-rendering="crispEdges" fill="rgb(197, 255, 98)"  x="15" y="7" width="1" height="1" /><rect shape-rendering="crispEdges" fill="rgb(148, 222, 41)"  x="15" y="8" width="1" height="1" /><rect shape-rendering="crispEdges" fill="rgb(98, 197, 8)"  x="15" y="9" width="1" height="1" /><rect shape-rendering="crispEdges" fill="rgb(82, 180, 0)"  x="15" y="10" width="1" height="1" /><rect shape-rendering="crispEdges" fill="rgb(74, 164, 0)"  x="15" y="11" width="1" height="1" /><rect shape-rendering="crispEdges" fill="rgb(65, 148, 0)"  x="15" y="12" width="1" height="1" /><rect shape-rendering="crispEdges" fill="rgb(65, 148, 0)"  x="15" y="13" width="1" height="1" /><rect shape-rendering="crispEdges" fill="rgb(57, 123, 0)"  x="15" y="14" width="1" height="1" /><rect shape-rendering="crispEdges" fill="rgb(57, 115, 0)"  x="15" y="15" width="1" height="1" /><rect shape-rendering="crispEdges" fill="rgb(115, 139, 32)"  x="15" y="16" width="1" height="1" /><rect shape-rendering="crispEdges" fill="rgb(98, 123, 41)"  x="15" y="17" width="1" height="1" /><rect shape-rendering="crispEdges" fill="rgb(148, 139, 123)"  x="15" y="23" width="1" height="1" /><rect shape-rendering="crispEdges" fill="rgb(148, 139, 139)"  x="15" y="24" width="1" height="1" /><rect shape-rendering="crispEdges" fill="rgb(148, 148, 148)"  x="15" y="25" width="1" height="1" /><rect shape-rendering="crispEdges" fill="rgb(148, 148, 156)"  x="15" y="26" width="1" height="1" /><rect shape-rendering="crispEdges" fill="rgb(148, 148, 156)"  x="15" y="27" width="1" height="1" /><rect shape-rendering="crispEdges" fill="rgb(148, 148, 156)"  x="15" y="28" width="1" height="1" /><rect shape-rendering="crispEdges" fill="rgb(148, 139, 148)"  x="15" y="29" width="1" height="1" /><rect shape-rendering="crispEdges" fill="rgb(115, 106, 106)"  x="15" y="30" width="1" height="1" /><rect shape-rendering="crispEdges" fill="rgb(57, 123, 0)"  x="16" y="2" width="1" height="1" /><rect shape-rendering="crispEdges" fill="rgb(106, 189, 8)"  x="16" y="3" width="1" height="1" /><rect shape-rendering="crispEdges" fill="rgb(238, 255, 205)"  x="16" y="4" width="1" height="1" /><rect shape-rendering="crispEdges" fill="rgb(238, 255, 205)"  x="16" y="5" width="1" height="1" /><rect shape-rendering="crispEdges" fill="rgb(222, 255, 172)"  x="16" y="6" width="1" height="1" /><rect shape-rendering="crispEdges" fill="rgb(205, 255, 115)"  x="16" y="7" width="1" height="1" /><rect shape-rendering="crispEdges" fill="rgb(156, 230, 57)"  x="16" y="8" width="1" height="1" /><rect shape-rendering="crispEdges" fill="rgb(106, 205, 16)"  x="16" y="9" width="1" height="1" /><rect shape-rendering="crispEdges" fill="rgb(90, 189, 8)"  x="16" y="10" width="1" height="1" /><rect shape-rendering="crispEdges" fill="rgb(82, 164, 0)"  x="16" y="11" width="1" height="1" /><rect shape-rendering="crispEdges" fill="rgb(74, 148, 0)"  x="16" y="12" width="1" height="1" /><rect shape-rendering="crispEdges" fill="rgb(74, 148, 0)"  x="16" y="13" width="1" height="1" /><rect shape-rendering="crispEdges" fill="rgb(65, 131, 0)"  x="16" y="14" width="1" height="1" /><rect shape-rendering="crispEdges" fill="rgb(65, 123, 0)"  x="16" y="15" width="1" height="1" /><rect shape-rendering="crispEdges" fill="rgb(115, 139, 32)"  x="16" y="16" width="1" height="1" /><rect shape-rendering="crispEdges" fill="rgb(115, 131, 57)"  x="16" y="17" width="1" height="1" /><rect shape-rendering="crispEdges" fill="rgb(106, 123, 57)"  x="16" y="18" width="1" height="1" /><rect shape-rendering="crispEdges" fill="rgb(148, 139, 139)"  x="16" y="23" width="1" height="1" /><rect shape-rendering="crispEdges" fill="rgb(148, 148, 156)"  x="16" y="24" width="1" height="1" /><rect shape-rendering="crispEdges" fill="rgb(139, 148, 164)"  x="16" y="25" width="1" height="1" /><rect shape-rendering="crispEdges" fill="rgb(139, 148, 172)"  x="16" y="26" width="1" height="1" /><rect shape-rendering="crispEdges" fill="rgb(139, 148, 172)"  x="16" y="27" width="1" height="1" /><rect shape-rendering="crispEdges" fill="rgb(57, 123, 0)"  x="17" y="2" width="1" height="1" /><rect shape-rendering="crispEdges" fill="rgb(205, 255, 98)"  x="17" y="3" width="1" height="1" /><rect shape-rendering="crispEdges" fill="rgb(238, 255, 205)"  x="17" y="4" width="1" height="1" /><rect shape-rendering="crispEdges" fill="rgb(238, 255, 205)"  x="17" y="5" width="1" height="1" /><rect shape-rendering="crispEdges" fill="rgb(222, 255, 172)"  x="17" y="6" width="1" height="1" /><rect shape-rendering="crispEdges" fill="rgb(205, 255, 106)"  x="17" y="7" width="1" height="1" /><rect shape-rendering="crispEdges" fill="rgb(156, 222, 49)"  x="17" y="8" width="1" height="1" /><rect shape-rendering="crispEdges" fill="rgb(106, 205, 16)"  x="17" y="9" width="1" height="1" /><rect shape-rendering="crispEdges" fill="rgb(98, 189, 16)"  x="17" y="10" width="1" height="1" /><rect shape-rendering="crispEdges" fill="rgb(90, 172, 8)"  x="17" y="11" width="1" height="1" /><rect shape-rendering="crispEdges" fill="rgb(74, 148, 0)"  x="17" y="12" width="1" height="1" /><rect shape-rendering="crispEdges" fill="rgb(74, 148, 0)"  x="17" y="13" width="1" height="1" /><rect shape-rendering="crispEdges" fill="rgb(65, 131, 0)"  x="17" y="14" width="1" height="1" /><rect shape-rendering="crispEdges" fill="rgb(65, 123, 0)"  x="17" y="15" width="1" height="1" /><rect shape-rendering="crispEdges" fill="rgb(115, 148, 41)"  x="17" y="16" width="1" height="1" /><rect shape-rendering="crispEdges" fill="rgb(123, 139, 65)"  x="17" y="17" width="1" height="1" /><rect shape-rendering="crispEdges" fill="rgb(106, 123, 57)"  x="17" y="18" width="1" height="1" /><rect shape-rendering="crispEdges" fill="rgb(148, 139, 139)"  x="17" y="23" width="1" height="1" /><rect shape-rendering="crispEdges" fill="rgb(148, 148, 156)"  x="17" y="24" width="1" height="1" /><rect shape-rendering="crispEdges" fill="rgb(139, 148, 172)"  x="17" y="25" width="1" height="1" /><rect shape-rendering="crispEdges" fill="rgb(49, 106, 0)"  x="18" y="2" width="1" height="1" /><rect shape-rendering="crispEdges" fill="rgb(205, 255, 90)"  x="18" y="3" width="1" height="1" /><rect shape-rendering="crispEdges" fill="rgb(222, 246, 172)"  x="18" y="4" width="1" height="1" /><rect shape-rendering="crispEdges" fill="rgb(222, 255, 172)"  x="18" y="5" width="1" height="1" /><rect shape-rendering="crispEdges" fill="rgb(205, 255, 106)"  x="18" y="6" width="1" height="1" /><rect shape-rendering="crispEdges" fill="rgb(197, 255, 106)"  x="18" y="7" width="1" height="1" /><rect shape-rendering="crispEdges" fill="rgb(123, 205, 16)"  x="18" y="8" width="1" height="1" /><rect shape-rendering="crispEdges" fill="rgb(90, 197, 0)"  x="18" y="9" width="1" height="1" /><rect shape-rendering="crispEdges" fill="rgb(90, 189, 8)"  x="18" y="10" width="1" height="1" /><rect shape-rendering="crispEdges" fill="rgb(82, 172, 0)"  x="18" y="11" width="1" height="1" /><rect shape-rendering="crispEdges" fill="rgb(74, 148, 0)"  x="18" y="12" width="1" height="1" /><rect shape-rendering="crispEdges" fill="rgb(65, 139, 0)"  x="18" y="13" width="1" height="1" /><rect shape-rendering="crispEdges" fill="rgb(65, 131, 0)"  x="18" y="14" width="1" height="1" /><rect shape-rendering="crispEdges" fill="rgb(74, 123, 8)"  x="18" y="15" width="1" height="1" /><rect shape-rendering="crispEdges" fill="rgb(123, 148, 49)"  x="18" y="16" width="1" height="1" /><rect shape-rendering="crispEdges" fill="rgb(131, 148, 74)"  x="18" y="17" width="1" height="1" /><rect shape-rendering="crispEdges" fill="rgb(106, 123, 57)"  x="18" y="18" width="1" height="1" /><rect shape-rendering="crispEdges" fill="rgb(148, 139, 139)"  x="18" y="23" width="1" height="1" /><rect shape-rendering="crispEdges" fill="rgb(148, 148, 164)"  x="18" y="24" width="1" height="1" /><rect shape-rendering="crispEdges" fill="rgb(41, 98, 0)"  x="19" y="2" width="1" height="1" /><rect shape-rendering="crispEdges" fill="rgb(148, 213, 24)"  x="19" y="3" width="1" height="1" /><rect shape-rendering="crispEdges" fill="rgb(205, 255, 106)"  x="19" y="4" width="1" height="1" /><rect shape-rendering="crispEdges" fill="rgb(205, 255, 106)"  x="19" y="5" width="1" height="1" /><rect shape-rendering="crispEdges" fill="rgb(148, 222, 32)"  x="19" y="6" width="1" height="1" /><rect shape-rendering="crispEdges" fill="rgb(131, 213, 24)"  x="19" y="7" width="1" height="1" /><rect shape-rendering="crispEdges" fill="rgb(98, 197, 0)"  x="19" y="8" width="1" height="1" /><rect shape-rendering="crispEdges" fill="rgb(82, 180, 0)"  x="19" y="9" width="1" height="1" /><rect shape-rendering="crispEdges" fill="rgb(90, 180, 8)"  x="19" y="10" width="1" height="1" /><rect shape-rendering="crispEdges" fill="rgb(82, 172, 0)"  x="19" y="11" width="1" height="1" /><rect shape-rendering="crispEdges" fill="rgb(74, 156, 0)"  x="19" y="12" width="1" height="1" /><rect shape-rendering="crispEdges" fill="rgb(65, 131, 0)"  x="19" y="13" width="1" height="1" /><rect shape-rendering="crispEdges" fill="rgb(57, 115, 0)"  x="19" y="14" width="1" height="1" /><rect shape-rendering="crispEdges" fill="rgb(98, 139, 24)"  x="19" y="15" width="1" height="1" /><rect shape-rendering="crispEdges" fill="rgb(123, 148, 49)"  x="19" y="16" width="1" height="1" /><rect shape-rendering="crispEdges" fill="rgb(139, 148, 82)"  x="19" y="17" width="1" height="1" /><rect shape-rendering="crispEdges" fill="rgb(123, 123, 74)"  x="19" y="18" width="1" height="1" /><rect shape-rendering="crispEdges" fill="rgb(148, 139, 139)"  x="19" y="23" width="1" height="1" /><rect shape-rendering="crispEdges" fill="rgb(57, 123, 0)"  x="20" y="2" width="1" height="1" /><rect shape-rendering="crispEdges" fill="rgb(115, 197, 8)"  x="20" y="3" width="1" height="1" /><rect shape-rendering="crispEdges" fill="rgb(139, 205, 16)"  x="20" y="4" width="1" height="1" /><rect shape-rendering="crispEdges" fill="rgb(131, 205, 16)"  x="20" y="5" width="1" height="1" /><rect shape-rendering="crispEdges" fill="rgb(115, 197, 16)"  x="20" y="6" width="1" height="1" /><rect shape-rendering="crispEdges" fill="rgb(98, 197, 0)"  x="20" y="7" width="1" height="1" /><rect shape-rendering="crispEdges" fill="rgb(90, 180, 0)"  x="20" y="8" width="1" height="1" /><rect shape-rendering="crispEdges" fill="rgb(82, 172, 0)"  x="20" y="9" width="1" height="1" /><rect shape-rendering="crispEdges" fill="rgb(82, 172, 8)"  x="20" y="10" width="1" height="1" /><rect shape-rendering="crispEdges" fill="rgb(82, 164, 0)"  x="20" y="11" width="1" height="1" /><rect shape-rendering="crispEdges" fill="rgb(74, 148, 0)"  x="20" y="12" width="1" height="1" /><rect shape-rendering="crispEdges" fill="rgb(49, 106, 0)"  x="20" y="13" width="1" height="1" /><rect shape-rendering="crispEdges" fill="rgb(57, 106, 0)"  x="20" y="14" width="1" height="1" /><rect shape-rendering="crispEdges" fill="rgb(106, 139, 32)"  x="20" y="15" width="1" height="1" /><rect shape-rendering="crispEdges" fill="rgb(123, 148, 57)"  x="20" y="16" width="1" height="1" /><rect shape-rendering="crispEdges" fill="rgb(139, 148, 90)"  x="20" y="17" width="1" height="1" /><rect shape-rendering="crispEdges" fill="rgb(131, 131, 82)"  x="20" y="18" width="1" height="1" /><rect shape-rendering="crispEdges" fill="rgb(57, 123, 0)"  x="21" y="2" width="1" height="1" /><rect shape-rendering="crispEdges" fill="rgb(82, 172, 0)"  x="21" y="3" width="1" height="1" /><rect shape-rendering="crispEdges" fill="rgb(98, 189, 0)"  x="21" y="4" width="1" height="1" /><rect shape-rendering="crispEdges" fill="rgb(90, 189, 0)"  x="21" y="5" width="1" height="1" /><rect shape-rendering="crispEdges" fill="rgb(24, 65, 0)"  x="21" y="6" width="1" height="1" /><rect shape-rendering="crispEdges" fill="rgb(24, 65, 0)"  x="21" y="7" width="1" height="1" /><rect shape-rendering="crispEdges" fill="rgb(82, 172, 0)"  x="21" y="8" width="1" height="1" /><rect shape-rendering="crispEdges" fill="rgb(74, 164, 0)"  x="21" y="9" width="1" height="1" /><rect shape-rendering="crispEdges" fill="rgb(74, 156, 0)"  x="21" y="10" width="1" height="1" /><rect shape-rendering="crispEdges" fill="rgb(74, 139, 0)"  x="21" y="11" width="1" height="1" /><rect shape-rendering="crispEdges" fill="rgb(57, 115, 0)"  x="21" y="12" width="1" height="1" /><rect shape-rendering="crispEdges" fill="rgb(41, 90, 0)"  x="21" y="13" width="1" height="1" /><rect shape-rendering="crispEdges" fill="rgb(74, 123, 0)"  x="21" y="14" width="1" height="1" /><rect shape-rendering="crispEdges" fill="rgb(123, 148, 41)"  x="21" y="15" width="1" height="1" /><rect shape-rendering="crispEdges" fill="rgb(131, 148, 65)"  x="21" y="16" width="1" height="1" /><rect shape-rendering="crispEdges" fill="rgb(139, 139, 90)"  x="21" y="17" width="1" height="1" /><rect shape-rendering="crispEdges" fill="rgb(139, 139, 90)"  x="21" y="18" width="1" height="1" /><rect shape-rendering="crispEdges" fill="rgb(57, 123, 0)"  x="22" y="2" width="1" height="1" /><rect shape-rendering="crispEdges" fill="rgb(82, 172, 0)"  x="22" y="3" width="1" height="1" /><rect shape-rendering="crispEdges" fill="rgb(82, 164, 0)"  x="22" y="4" width="1" height="1" /><rect shape-rendering="crispEdges" fill="rgb(24, 65, 0)"  x="22" y="5" width="1" height="1" /><rect shape-rendering="crispEdges" fill="rgb(24, 65, 0)"  x="22" y="6" width="1" height="1" /><rect shape-rendering="crispEdges" fill="rgb(24, 65, 0)"  x="22" y="7" width="1" height="1" /><rect shape-rendering="crispEdges" fill="rgb(24, 65, 0)"  x="22" y="8" width="1" height="1" /><rect shape-rendering="crispEdges" fill="rgb(180, 213, 148)"  x="22" y="9" width="1" height="1" /><rect shape-rendering="crispEdges" fill="rgb(65, 139, 0)"  x="22" y="10" width="1" height="1" /><rect shape-rendering="crispEdges" fill="rgb(74, 139, 0)"  x="22" y="11" width="1" height="1" /><rect shape-rendering="crispEdges" fill="rgb(74, 139, 0)"  x="22" y="12" width="1" height="1" /><rect shape-rendering="crispEdges" fill="rgb(57, 106, 0)"  x="22" y="13" width="1" height="1" /><rect shape-rendering="crispEdges" fill="rgb(74, 106, 8)"  x="22" y="14" width="1" height="1" /><rect shape-rendering="crispEdges" fill="rgb(123, 148, 49)"  x="22" y="15" width="1" height="1" /><rect shape-rendering="crispEdges" fill="rgb(139, 148, 82)"  x="22" y="16" width="1" height="1" /><rect shape-rendering="crispEdges" fill="rgb(131, 139, 90)"  x="22" y="17" width="1" height="1" /><rect shape-rendering="crispEdges" fill="rgb(139, 148, 90)"  x="22" y="18" width="1" height="1" /><rect shape-rendering="crispEdges" fill="rgb(106, 65, 32)"  x="22" y="25" width="1" height="1" /><rect shape-rendering="crispEdges" fill="rgb(106, 65, 32)"  x="22" y="26" width="1" height="1" /><rect shape-rendering="crispEdges" fill="rgb(106, 65, 32)"  x="22" y="27" width="1" height="1" /><rect shape-rendering="crispEdges" fill="rgb(57, 123, 0)"  x="23" y="3" width="1" height="1" /><rect shape-rendering="crispEdges" fill="rgb(65, 139, 0)"  x="23" y="4" width="1" height="1" /><rect shape-rendering="crispEdges" fill="rgb(24, 65, 0)"  x="23" y="5" width="1" height="1" /><rect shape-rendering="crispEdges" fill="rgb(65, 148, 0)"  x="23" y="6" width="1" height="1" /><rect shape-rendering="crispEdges" fill="rgb(148, 90, 41)"  x="23" y="7" width="1" height="1" /><rect shape-rendering="crispEdges" fill="rgb(115, 74, 32)"  x="23" y="8" width="1" height="1" /><rect shape-rendering="crispEdges" fill="rgb(213, 238, 180)"  x="23" y="9" width="1" height="1" /><rect shape-rendering="crispEdges" fill="rgb(65, 131, 0)"  x="23" y="10" width="1" height="1" /><rect shape-rendering="crispEdges" fill="rgb(57, 131, 0)"  x="23" y="11" width="1" height="1" /><rect shape-rendering="crispEdges" fill="rgb(65, 123, 0)"  x="23" y="12" width="1" height="1" /><rect shape-rendering="crispEdges" fill="rgb(65, 123, 0)"  x="23" y="13" width="1" height="1" /><rect shape-rendering="crispEdges" fill="rgb(106, 139, 32)"  x="23" y="14" width="1" height="1" /><rect shape-rendering="crispEdges" fill="rgb(131, 148, 65)"  x="23" y="15" width="1" height="1" /><rect shape-rendering="crispEdges" fill="rgb(139, 148, 90)"  x="23" y="16" width="1" height="1" /><rect shape-rendering="crispEdges" fill="rgb(139, 148, 98)"  x="23" y="17" width="1" height="1" /><rect shape-rendering="crispEdges" fill="rgb(106, 65, 32)"  x="23" y="24" width="1" height="1" /><rect shape-rendering="crispEdges" fill="rgb(106, 65, 32)"  x="23" y="25" width="1" height="1" /><rect shape-rendering="crispEdges" fill="rgb(106, 65, 32)"  x="23" y="26" width="1" height="1" /><rect shape-rendering="crispEdges" fill="rgb(106, 65, 32)"  x="23" y="27" width="1" height="1" /><rect shape-rendering="crispEdges" fill="rgb(57, 123, 0)"  x="24" y="3" width="1" height="1" /><rect shape-rendering="crispEdges" fill="rgb(57, 131, 0)"  x="24" y="4" width="1" height="1" /><rect shape-rendering="crispEdges" fill="rgb(57, 131, 0)"  x="24" y="5" width="1" height="1" /><rect shape-rendering="crispEdges" fill="rgb(180, 213, 148)"  x="24" y="6" width="1" height="1" /><rect shape-rendering="crispEdges" fill="rgb(148, 90, 41)"  x="24" y="7" width="1" height="1" /><rect shape-rendering="crispEdges" fill="rgb(131, 82, 32)"  x="24" y="8" width="1" height="1" /><rect shape-rendering="crispEdges" fill="rgb(57, 123, 0)"  x="24" y="9" width="1" height="1" /><rect shape-rendering="crispEdges" fill="rgb(57, 123, 0)"  x="24" y="10" width="1" height="1" /><rect shape-rendering="crispEdges" fill="rgb(65, 131, 0)"  x="24" y="11" width="1" height="1" /><rect shape-rendering="crispEdges" fill="rgb(74, 123, 0)"  x="24" y="12" width="1" height="1" /><rect shape-rendering="crispEdges" fill="rgb(106, 139, 32)"  x="24" y="13" width="1" height="1" /><rect shape-rendering="crispEdges" fill="rgb(131, 148, 57)"  x="24" y="14" width="1" height="1" /><rect shape-rendering="crispEdges" fill="rgb(139, 148, 90)"  x="24" y="15" width="1" height="1" /><rect shape-rendering="crispEdges" fill="rgb(139, 139, 98)"  x="24" y="16" width="1" height="1" /><rect shape-rendering="crispEdges" fill="rgb(139, 148, 90)"  x="24" y="17" width="1" height="1" /><rect shape-rendering="crispEdges" fill="rgb(106, 65, 32)"  x="24" y="23" width="1" height="1" /><rect shape-rendering="crispEdges" fill="rgb(106, 65, 32)"  x="24" y="24" width="1" height="1" /><rect shape-rendering="crispEdges" fill="rgb(106, 65, 32)"  x="24" y="25" width="1" height="1" /><rect shape-rendering="crispEdges" fill="rgb(106, 65, 32)"  x="24" y="26" width="1" height="1" /><rect shape-rendering="crispEdges" fill="rgb(106, 65, 32)"  x="24" y="27" width="1" height="1" /><rect shape-rendering="crispEdges" fill="rgb(41, 82, 0)"  x="25" y="4" width="1" height="1" /><rect shape-rendering="crispEdges" fill="rgb(49, 106, 0)"  x="25" y="5" width="1" height="1" /><rect shape-rendering="crispEdges" fill="rgb(49, 106, 0)"  x="25" y="6" width="1" height="1" /><rect shape-rendering="crispEdges" fill="rgb(148, 90, 41)"  x="25" y="7" width="1" height="1" /><rect shape-rendering="crispEdges" fill="rgb(148, 90, 41)"  x="25" y="8" width="1" height="1" /><rect shape-rendering="crispEdges" fill="rgb(115, 74, 32)"  x="25" y="9" width="1" height="1" /><rect shape-rendering="crispEdges" fill="rgb(74, 139, 0)"  x="25" y="10" width="1" height="1" /><rect shape-rendering="crispEdges" fill="rgb(82, 139, 16)"  x="25" y="11" width="1" height="1" /><rect shape-rendering="crispEdges" fill="rgb(115, 139, 32)"  x="25" y="12" width="1" height="1" /><rect shape-rendering="crispEdges" fill="rgb(123, 148, 57)"  x="25" y="13" width="1" height="1" /><rect shape-rendering="crispEdges" fill="rgb(131, 139, 74)"  x="25" y="14" width="1" height="1" /><rect shape-rendering="crispEdges" fill="rgb(139, 139, 90)"  x="25" y="15" width="1" height="1" /><rect shape-rendering="crispEdges" fill="rgb(139, 148, 90)"  x="25" y="16" width="1" height="1" /><rect shape-rendering="crispEdges" fill="rgb(106, 65, 32)"  x="25" y="22" width="1" height="1" /><rect shape-rendering="crispEdges" fill="rgb(106, 65, 32)"  x="25" y="23" width="1" height="1" /><rect shape-rendering="crispEdges" fill="rgb(106, 65, 32)"  x="25" y="24" width="1" height="1" /><rect shape-rendering="crispEdges" fill="rgb(106, 65, 32)"  x="25" y="25" width="1" height="1" /><rect shape-rendering="crispEdges" fill="rgb(106, 65, 32)"  x="25" y="26" width="1" height="1" /><rect shape-rendering="crispEdges" fill="rgb(32, 74, 0)"  x="26" y="5" width="1" height="1" /><rect shape-rendering="crispEdges" fill="rgb(57, 123, 0)"  x="26" y="6" width="1" height="1" /><rect shape-rendering="crispEdges" fill="rgb(57, 131, 0)"  x="26" y="7" width="1" height="1" /><rect shape-rendering="crispEdges" fill="rgb(139, 82, 32)"  x="26" y="8" width="1" height="1" /><rect shape-rendering="crispEdges" fill="rgb(139, 90, 41)"  x="26" y="9" width="1" height="1" /><rect shape-rendering="crispEdges" fill="rgb(131, 82, 32)"  x="26" y="10" width="1" height="1" /><rect shape-rendering="crispEdges" fill="rgb(106, 65, 32)"  x="26" y="11" width="1" height="1" /><rect shape-rendering="crispEdges" fill="rgb(115, 139, 49)"  x="26" y="12" width="1" height="1" /><rect shape-rendering="crispEdges" fill="rgb(115, 131, 57)"  x="26" y="13" width="1" height="1" /><rect shape-rendering="crispEdges" fill="rgb(115, 131, 65)"  x="26" y="14" width="1" height="1" /><rect shape-rendering="crispEdges" fill="rgb(139, 148, 90)"  x="26" y="15" width="1" height="1" /><rect shape-rendering="crispEdges" fill="rgb(98, 65, 24)"  x="26" y="21" width="1" height="1" /><rect shape-rendering="crispEdges" fill="rgb(115, 74, 32)"  x="26" y="22" width="1" height="1" /><rect shape-rendering="crispEdges" fill="rgb(131, 82, 32)"  x="26" y="23" width="1" height="1" /><rect shape-rendering="crispEdges" fill="rgb(106, 65, 32)"  x="26" y="24" width="1" height="1" /><rect shape-rendering="crispEdges" fill="rgb(106, 65, 32)"  x="26" y="25" width="1" height="1" /><rect shape-rendering="crispEdges" fill="rgb(106, 65, 32)"  x="26" y="26" width="1" height="1" /><rect shape-rendering="crispEdges" fill="rgb(24, 65, 0)"  x="27" y="7" width="1" height="1" /><rect shape-rendering="crispEdges" fill="rgb(106, 65, 32)"  x="27" y="8" width="1" height="1" /><rect shape-rendering="crispEdges" fill="rgb(131, 82, 32)"  x="27" y="9" width="1" height="1" /><rect shape-rendering="crispEdges" fill="rgb(139, 90, 41)"  x="27" y="10" width="1" height="1" /><rect shape-rendering="crispEdges" fill="rgb(139, 82, 32)"  x="27" y="11" width="1" height="1" /><rect shape-rendering="crispEdges" fill="rgb(131, 82, 32)"  x="27" y="12" width="1" height="1" /><rect shape-rendering="crispEdges" fill="rgb(115, 74, 32)"  x="27" y="13" width="1" height="1" /><rect shape-rendering="crispEdges" fill="rgb(106, 65, 32)"  x="27" y="14" width="1" height="1" /><rect shape-rendering="crispEdges" fill="rgb(98, 57, 24)"  x="27" y="19" width="1" height="1" /><rect shape-rendering="crispEdges" fill="rgb(106, 65, 32)"  x="27" y="20" width="1" height="1" /><rect shape-rendering="crispEdges" fill="rgb(123, 74, 32)"  x="27" y="21" width="1" height="1" /><rect shape-rendering="crispEdges" fill="rgb(123, 74, 32)"  x="27" y="22" width="1" height="1" /><rect shape-rendering="crispEdges" fill="rgb(123, 74, 32)"  x="27" y="23" width="1" height="1" /><rect shape-rendering="crispEdges" fill="rgb(106, 65, 32)"  x="27" y="24" width="1" height="1" /><rect shape-rendering="crispEdges" fill="rgb(106, 65, 32)"  x="27" y="25" width="1" height="1" /><rect shape-rendering="crispEdges" fill="rgb(106, 65, 32)"  x="27" y="26" width="1" height="1" /><rect shape-rendering="crispEdges" fill="rgb(106, 65, 32)"  x="28" y="9" width="1" height="1" /><rect shape-rendering="crispEdges" fill="rgb(131, 82, 32)"  x="28" y="10" width="1" height="1" /><rect shape-rendering="crispEdges" fill="rgb(139, 82, 32)"  x="28" y="11" width="1" height="1" /><rect shape-rendering="crispEdges" fill="rgb(139, 82, 32)"  x="28" y="12" width="1" height="1" /><rect shape-rendering="crispEdges" fill="rgb(139, 82, 32)"  x="28" y="13" width="1" height="1" /><rect shape-rendering="crispEdges" fill="rgb(131, 82, 32)"  x="28" y="14" width="1" height="1" /><rect shape-rendering="crispEdges" fill="rgb(106, 65, 32)"  x="28" y="15" width="1" height="1" /><rect shape-rendering="crispEdges" fill="rgb(106, 65, 32)"  x="28" y="16" width="1" height="1" /><rect shape-rendering="crispEdges" fill="rgb(106, 65, 32)"  x="28" y="17" width="1" height="1" /><rect shape-rendering="crispEdges" fill="rgb(106, 65, 32)"  x="28" y="18" width="1" height="1" /><rect shape-rendering="crispEdges" fill="rgb(115, 74, 32)"  x="28" y="19" width="1" height="1" /><rect shape-rendering="crispEdges" fill="rgb(115, 74, 32)"  x="28" y="20" width="1" height="1" /><rect shape-rendering="crispEdges" fill="rgb(115, 74, 32)"  x="28" y="21" width="1" height="1" /><rect shape-rendering="crispEdges" fill="rgb(115, 74, 32)"  x="28" y="22" width="1" height="1" /><rect shape-rendering="crispEdges" fill="rgb(115, 74, 32)"  x="28" y="23" width="1" height="1" /><rect shape-rendering="crispEdges" fill="rgb(115, 74, 32)"  x="28" y="24" width="1" height="1" /><rect shape-rendering="crispEdges" fill="rgb(106, 65, 32)"  x="28" y="25" width="1" height="1" /><rect shape-rendering="crispEdges" fill="rgb(90, 57, 24)"  x="28" y="26" width="1" height="1" /><rect shape-rendering="crispEdges" fill="rgb(139, 82, 32)"  x="29" y="12" width="1" height="1" /><rect shape-rendering="crispEdges" fill="rgb(131, 82, 32)"  x="29" y="13" width="1" height="1" /><rect shape-rendering="crispEdges" fill="rgb(131, 82, 32)"  x="29" y="14" width="1" height="1" /><rect shape-rendering="crispEdges" fill="rgb(123, 74, 32)"  x="29" y="15" width="1" height="1" /><rect shape-rendering="crispEdges" fill="rgb(123, 74, 32)"  x="29" y="16" width="1" height="1" /><rect shape-rendering="crispEdges" fill="rgb(115, 74, 32)"  x="29" y="17" width="1" height="1" /><rect shape-rendering="crispEdges" fill="rgb(115, 65, 32)"  x="29" y="18" width="1" height="1" /><rect shape-rendering="crispEdges" fill="rgb(106, 65, 32)"  x="29" y="19" width="1" height="1" /><rect shape-rendering="crispEdges" fill="rgb(106, 65, 32)"  x="29" y="20" width="1" height="1" /><rect shape-rendering="crispEdges" fill="rgb(106, 65, 32)"  x="29" y="21" width="1" height="1" /><rect shape-rendering="crispEdges" fill="rgb(106, 65, 32)"  x="29" y="22" width="1" height="1" /><rect shape-rendering="crispEdges" fill="rgb(106, 65, 24)"  x="29" y="23" width="1" height="1" /><rect shape-rendering="crispEdges" fill="rgb(90, 57, 24)"  x="29" y="24" width="1" height="1" /><rect shape-rendering="crispEdges" fill="rgb(123, 74, 32)"  x="30" y="14" width="1" height="1" /><rect shape-rendering="crispEdges" fill="rgb(123, 74, 32)"  x="30" y="15" width="1" height="1" /><rect shape-rendering="crispEdges" fill="rgb(115, 74, 32)"  x="30" y="16" width="1" height="1" /><rect shape-rendering="crispEdges" fill="rgb(106, 65, 32)"  x="30" y="17" width="1" height="1" /><rect shape-rendering="crispEdges" fill="rgb(106, 65, 24)"  x="30" y="18" width="1" height="1" /><rect shape-rendering="crispEdges" fill="rgb(106, 65, 24)"  x="30" y="19" width="1" height="1" /><rect shape-rendering="crispEdges" fill="rgb(98, 65, 24)"  x="30" y="20" width="1" height="1" /><rect shape-rendering="crispEdges" fill="rgb(98, 57, 24)"  x="30" y="21" width="1" height="1" /><rect shape-rendering="crispEdges" fill="rgb(82, 49, 24)"  x="30" y="22" width="1" height="1" /><rect shape-rendering="crispEdges" fill="rgb(90, 57, 24)"  x="31" y="17" width="1" height="1" /><rect shape-rendering="crispEdges" fill="rgb(90, 57, 24)"  x="31" y="18" width="1" height="1" /><rect shape-rendering="crispEdges" fill="rgb(90, 49, 24)"  x="31" y="19" width="1" height="1" /></svg>