<svg xmlns="http://www.w3.org/2000/svg" xmlns:xlink= "http://www.w3.org/1999/xlink" width="32" height="32" viewBox ="0 0 32 32"><rect shape-rendering="crispEdges" fill="rgb(230, 180, 205)"  x="6" y="5" width="1" height="1" /><rect shape-rendering="crispEdges" fill="rgb(230, 180, 205)"  x="6" y="6" width="1" height="1" /><rect shape-rendering="crispEdges" fill="rgb(230, 180, 205)"  x="6" y="7" width="1" height="1" /><rect shape-rendering="crispEdges" fill="rgb(213, 139, 164)"  x="6" y="8" width="1" height="1" /><rect shape-rendering="crispEdges" fill="rgb(222, 164, 189)"  x="6" y="9" width="1" height="1" /><rect shape-rendering="crispEdges" fill="rgb(246, 205, 222)"  x="6" y="10" width="1" height="1" /><rect shape-rendering="crispEdges" fill="rgb(246, 205, 222)"  x="6" y="11" width="1" height="1" /><rect shape-rendering="crispEdges" fill="rgb(164, 98, 131)"  x="7" y="1" width="1" height="1" /><rect shape-rendering="crispEdges" fill="rgb(164, 98, 131)"  x="7" y="2" width="1" height="1" /><rect shape-rendering="crispEdges" fill="rgb(230, 180, 205)"  x="7" y="3" width="1" height="1" /><rect shape-rendering="crispEdges" fill="rgb(213, 139, 164)"  x="7" y="4" width="1" height="1" /><rect shape-rendering="crispEdges" fill="rgb(213, 139, 164)"  x="7" y="5" width="1" height="1" /><rect shape-rendering="crispEdges" fill="rgb(222, 164, 189)"  x="7" y="6" width="1" height="1" /><rect shape-rendering="crispEdges" fill="rgb(213, 139, 164)"  x="7" y="7" width="1" height="1" /><rect shape-rendering="crispEdges" fill="rgb(222, 164, 189)"  x="7" y="8" width="1" height="1" /><rect shape-rendering="crispEdges" fill="rgb(246, 238, 238)"  x="7" y="9" width="1" height="1" /><rect shape-rendering="crispEdges" fill="rgb(222, 180, 197)"  x="7" y="10" width="1" height="1" /><rect shape-rendering="crispEdges" fill="rgb(246, 238, 246)"  x="7" y="11" width="1" height="1" /><rect shape-rendering="crispEdges" fill="rgb(246, 205, 222)"  x="7" y="12" width="1" height="1" /><rect shape-rendering="crispEdges" fill="rgb(246, 205, 222)"  x="7" y="13" width="1" height="1" /><rect shape-rendering="crispEdges" fill="rgb(164, 98, 131)"  x="8" y="3" width="1" height="1" /><rect shape-rendering="crispEdges" fill="rgb(164, 98, 131)"  x="8" y="4" width="1" height="1" /><rect shape-rendering="crispEdges" fill="rgb(164, 98, 131)"  x="8" y="5" width="1" height="1" /><rect shape-rendering="crispEdges" fill="rgb(164, 98, 131)"  x="8" y="6" width="1" height="1" /><rect shape-rendering="crispEdges" fill="rgb(205, 164, 180)"  x="8" y="7" width="1" height="1" /><rect shape-rendering="crispEdges" fill="rgb(213, 139, 164)"  x="8" y="8" width="1" height="1" /><rect shape-rendering="crispEdges" fill="rgb(222, 189, 205)"  x="8" y="9" width="1" height="1" /><rect shape-rendering="crispEdges" fill="rgb(255, 238, 246)"  x="8" y="10" width="1" height="1" /><rect shape-rendering="crispEdges" fill="rgb(222, 180, 197)"  x="8" y="11" width="1" height="1" /><rect shape-rendering="crispEdges" fill="rgb(255, 255, 255)"  x="8" y="12" width="1" height="1" /><rect shape-rendering="crispEdges" fill="rgb(255, 255, 255)"  x="8" y="13" width="1" height="1" /><rect shape-rendering="crispEdges" fill="rgb(246, 205, 222)"  x="8" y="14" width="1" height="1" /><rect shape-rendering="crispEdges" fill="rgb(246, 205, 222)"  x="8" y="15" width="1" height="1" /><rect shape-rendering="crispEdges" fill="rgb(164, 98, 131)"  x="9" y="7" width="1" height="1" /><rect shape-rendering="crispEdges" fill="rgb(164, 98, 131)"  x="9" y="8" width="1" height="1" /><rect shape-rendering="crispEdges" fill="rgb(164, 98, 131)"  x="9" y="9" width="1" height="1" /><rect shape-rendering="crispEdges" fill="rgb(222, 180, 197)"  x="9" y="10" width="1" height="1" /><rect shape-rendering="crispEdges" fill="rgb(255, 238, 246)"  x="9" y="11" width="1" height="1" /><rect shape-rendering="crispEdges" fill="rgb(255, 255, 255)"  x="9" y="12" width="1" height="1" /><rect shape-rendering="crispEdges" fill="rgb(255, 255, 255)"  x="9" y="13" width="1" height="1" /><rect shape-rendering="crispEdges" fill="rgb(255, 255, 255)"  x="9" y="14" width="1" height="1" /><rect shape-rendering="crispEdges" fill="rgb(255, 255, 255)"  x="9" y="15" width="1" height="1" /><rect shape-rendering="crispEdges" fill="rgb(246, 205, 222)"  x="9" y="16" width="1" height="1" /><rect shape-rendering="crispEdges" fill="rgb(164, 98, 131)"  x="10" y="10" width="1" height="1" /><rect shape-rendering="crispEdges" fill="rgb(189, 131, 156)"  x="10" y="11" width="1" height="1" /><rect shape-rendering="crispEdges" fill="rgb(238, 230, 230)"  x="10" y="12" width="1" height="1" /><rect shape-rendering="crispEdges" fill="rgb(255, 255, 255)"  x="10" y="13" width="1" height="1" /><rect shape-rendering="crispEdges" fill="rgb(255, 255, 255)"  x="10" y="14" width="1" height="1" /><rect shape-rendering="crispEdges" fill="rgb(255, 255, 255)"  x="10" y="15" width="1" height="1" /><rect shape-rendering="crispEdges" fill="rgb(246, 205, 222)"  x="10" y="16" width="1" height="1" /><rect shape-rendering="crispEdges" fill="rgb(189, 131, 156)"  x="11" y="12" width="1" height="1" /><rect shape-rendering="crispEdges" fill="rgb(230, 180, 205)"  x="11" y="13" width="1" height="1" /><rect shape-rendering="crispEdges" fill="rgb(230, 180, 205)"  x="11" y="14" width="1" height="1" /><rect shape-rendering="crispEdges" fill="rgb(230, 180, 205)"  x="11" y="15" width="1" height="1" /><rect shape-rendering="crispEdges" fill="rgb(255, 255, 255)"  x="11" y="16" width="1" height="1" /><rect shape-rendering="crispEdges" fill="rgb(246, 205, 222)"  x="11" y="17" width="1" height="1" /><rect shape-rendering="crispEdges" fill="rgb(189, 131, 156)"  x="12" y="13" width="1" height="1" /><rect shape-rendering="crispEdges" fill="rgb(230, 205, 222)"  x="12" y="14" width="1" height="1" /><rect shape-rendering="crispEdges" fill="rgb(230, 205, 222)"  x="12" y="15" width="1" height="1" /><rect shape-rendering="crispEdges" fill="rgb(230, 180, 205)"  x="12" y="16" width="1" height="1" /><rect shape-rendering="crispEdges" fill="rgb(230, 180, 205)"  x="12" y="17" width="1" height="1" /><rect shape-rendering="crispEdges" fill="rgb(246, 205, 222)"  x="12" y="18" width="1" height="1" /><rect shape-rendering="crispEdges" fill="rgb(189, 131, 156)"  x="13" y="14" width="1" height="1" /><rect shape-rendering="crispEdges" fill="rgb(238, 213, 222)"  x="13" y="15" width="1" height="1" /><rect shape-rendering="crispEdges" fill="rgb(255, 255, 255)"  x="13" y="16" width="1" height="1" /><rect shape-rendering="crispEdges" fill="rgb(246, 205, 222)"  x="13" y="17" width="1" height="1" /><rect shape-rendering="crispEdges" fill="rgb(246, 205, 222)"  x="13" y="18" width="1" height="1" /><rect shape-rendering="crispEdges" fill="rgb(189, 131, 156)"  x="14" y="15" width="1" height="1" /><rect shape-rendering="crispEdges" fill="rgb(230, 205, 222)"  x="14" y="16" width="1" height="1" /><rect shape-rendering="crispEdges" fill="rgb(255, 255, 255)"  x="14" y="17" width="1" height="1" /><rect shape-rendering="crispEdges" fill="rgb(255, 255, 255)"  x="14" y="18" width="1" height="1" /><rect shape-rendering="crispEdges" fill="rgb(246, 205, 222)"  x="14" y="19" width="1" height="1" /><rect shape-rendering="crispEdges" fill="rgb(164, 98, 131)"  x="15" y="16" width="1" height="1" /><rect shape-rendering="crispEdges" fill="rgb(230, 205, 213)"  x="15" y="17" width="1" height="1" /><rect shape-rendering="crispEdges" fill="rgb(246, 230, 238)"  x="15" y="18" width="1" height="1" /><rect shape-rendering="crispEdges" fill="rgb(246, 230, 238)"  x="15" y="19" width="1" height="1" /><rect shape-rendering="crispEdges" fill="rgb(246, 205, 222)"  x="15" y="20" width="1" height="1" /><rect shape-rendering="crispEdges" fill="rgb(164, 98, 131)"  x="16" y="17" width="1" height="1" /><rect shape-rendering="crispEdges" fill="rgb(222, 180, 197)"  x="16" y="18" width="1" height="1" /><rect shape-rendering="crispEdges" fill="rgb(230, 180, 205)"  x="16" y="19" width="1" height="1" /><rect shape-rendering="crispEdges" fill="rgb(222, 205, 213)"  x="16" y="20" width="1" height="1" /><rect shape-rendering="crispEdges" fill="rgb(164, 98, 131)"  x="16" y="21" width="1" height="1" /><rect shape-rendering="crispEdges" fill="rgb(164, 98, 131)"  x="17" y="18" width="1" height="1" /><rect shape-rendering="crispEdges" fill="rgb(205, 148, 172)"  x="17" y="19" width="1" height="1" /><rect shape-rendering="crispEdges" fill="rgb(222, 164, 189)"  x="17" y="20" width="1" height="1" /><rect shape-rendering="crispEdges" fill="rgb(238, 238, 238)"  x="17" y="21" width="1" height="1" /><rect shape-rendering="crispEdges" fill="rgb(164, 49, 98)"  x="17" y="23" width="1" height="1" /><rect shape-rendering="crispEdges" fill="rgb(123, 41, 74)"  x="17" y="24" width="1" height="1" /><rect shape-rendering="crispEdges" fill="rgb(164, 98, 131)"  x="18" y="19" width="1" height="1" /><rect shape-rendering="crispEdges" fill="rgb(213, 205, 205)"  x="18" y="20" width="1" height="1" /><rect shape-rendering="crispEdges" fill="rgb(131, 139, 139)"  x="18" y="21" width="1" height="1" /><rect shape-rendering="crispEdges" fill="rgb(164, 57, 98)"  x="18" y="22" width="1" height="1" /><rect shape-rendering="crispEdges" fill="rgb(164, 49, 98)"  x="18" y="23" width="1" height="1" /><rect shape-rendering="crispEdges" fill="rgb(123, 41, 74)"  x="18" y="24" width="1" height="1" /><rect shape-rendering="crispEdges" fill="rgb(131, 139, 139)"  x="19" y="20" width="1" height="1" /><rect shape-rendering="crispEdges" fill="rgb(246, 41, 139)"  x="19" y="21" width="1" height="1" /><rect shape-rendering="crispEdges" fill="rgb(205, 57, 131)"  x="19" y="22" width="1" height="1" /><rect shape-rendering="crispEdges" fill="rgb(180, 172, 172)"  x="19" y="23" width="1" height="1" /><rect shape-rendering="crispEdges" fill="rgb(164, 49, 98)"  x="20" y="20" width="1" height="1" /><rect shape-rendering="crispEdges" fill="rgb(205, 57, 131)"  x="20" y="21" width="1" height="1" /><rect shape-rendering="crispEdges" fill="rgb(246, 246, 246)"  x="20" y="22" width="1" height="1" /><rect shape-rendering="crispEdges" fill="rgb(213, 205, 205)"  x="20" y="23" width="1" height="1" /><rect shape-rendering="crispEdges" fill="rgb(164, 49, 98)"  x="21" y="19" width="1" height="1" /><rect shape-rendering="crispEdges" fill="rgb(164, 49, 98)"  x="21" y="20" width="1" height="1" /><rect shape-rendering="crispEdges" fill="rgb(131, 139, 139)"  x="21" y="21" width="1" height="1" /><rect shape-rendering="crispEdges" fill="rgb(213, 205, 205)"  x="21" y="22" width="1" height="1" /><rect shape-rendering="crispEdges" fill="rgb(148, 32, 82)"  x="21" y="23" width="1" height="1" /><rect shape-rendering="crispEdges" fill="rgb(180, 148, 164)"  x="21" y="24" width="1" height="1" /><rect shape-rendering="crispEdges" fill="rgb(123, 41, 74)"  x="22" y="19" width="1" height="1" /><rect shape-rendering="crispEdges" fill="rgb(123, 41, 74)"  x="22" y="20" width="1" height="1" /><rect shape-rendering="crispEdges" fill="rgb(123, 41, 74)"  x="22" y="22" width="1" height="1" /><rect shape-rendering="crispEdges" fill="rgb(246, 41, 139)"  x="22" y="23" width="1" height="1" /><rect shape-rendering="crispEdges" fill="rgb(148, 32, 82)"  x="22" y="24" width="1" height="1" /><rect shape-rendering="crispEdges" fill="rgb(156, 65, 98)"  x="22" y="25" width="1" height="1" /><rect shape-rendering="crispEdges" fill="rgb(189, 172, 180)"  x="23" y="23" width="1" height="1" /><rect shape-rendering="crispEdges" fill="rgb(246, 246, 246)"  x="23" y="24" width="1" height="1" /><rect shape-rendering="crispEdges" fill="rgb(189, 172, 180)"  x="23" y="25" width="1" height="1" /><rect shape-rendering="crispEdges" fill="rgb(180, 172, 172)"  x="23" y="26" width="1" height="1" /><rect shape-rendering="crispEdges" fill="rgb(123, 41, 74)"  x="24" y="24" width="1" height="1" /><rect shape-rendering="crispEdges" fill="rgb(246, 41, 139)"  x="24" y="25" width="1" height="1" /><rect shape-rendering="crispEdges" fill="rgb(131, 49, 82)"  x="24" y="26" width="1" height="1" /><rect shape-rendering="crispEdges" fill="rgb(156, 65, 98)"  x="24" y="27" width="1" height="1" /><rect shape-rendering="crispEdges" fill="rgb(189, 172, 180)"  x="25" y="24" width="1" height="1" /><rect shape-rendering="crispEdges" fill="rgb(246, 246, 246)"  x="25" y="25" width="1" height="1" /><rect shape-rendering="crispEdges" fill="rgb(246, 246, 246)"  x="25" y="26" width="1" height="1" /><rect shape-rendering="crispEdges" fill="rgb(213, 205, 213)"  x="25" y="27" width="1" height="1" /><rect shape-rendering="crispEdges" fill="rgb(213, 205, 213)"  x="25" y="28" width="1" height="1" /><rect shape-rendering="crispEdges" fill="rgb(180, 172, 172)"  x="25" y="29" width="1" height="1" /><rect shape-rendering="crispEdges" fill="rgb(123, 41, 74)"  x="26" y="25" width="1" height="1" /><rect shape-rendering="crispEdges" fill="rgb(246, 41, 139)"  x="26" y="26" width="1" height="1" /><rect shape-rendering="crispEdges" fill="rgb(246, 41, 139)"  x="26" y="27" width="1" height="1" /><rect shape-rendering="crispEdges" fill="rgb(164, 74, 115)"  x="26" y="28" width="1" height="1" /><rect shape-rendering="crispEdges" fill="rgb(156, 65, 98)"  x="26" y="29" width="1" height="1" /><rect shape-rendering="crispEdges" fill="rgb(131, 139, 139)"  x="26" y="30" width="1" height="1" /><rect shape-rendering="crispEdges" fill="rgb(180, 172, 172)"  x="27" y="26" width="1" height="1" /><rect shape-rendering="crispEdges" fill="rgb(246, 246, 246)"  x="27" y="27" width="1" height="1" /><rect shape-rendering="crispEdges" fill="rgb(246, 246, 246)"  x="27" y="28" width="1" height="1" /><rect shape-rendering="crispEdges" fill="rgb(156, 164, 156)"  x="27" y="29" width="1" height="1" /><rect shape-rendering="crispEdges" fill="rgb(123, 41, 74)"  x="28" y="27" width="1" height="1" /><rect shape-rendering="crispEdges" fill="rgb(131, 139, 139)"  x="28" y="28" width="1" height="1" /></svg>