<svg xmlns="http://www.w3.org/2000/svg" xmlns:xlink= "http://www.w3.org/1999/xlink" width="32" height="32" viewBox ="0 0 32 32"><rect shape-rendering="crispEdges" fill="rgb(65, 49, 82)"  x="3" y="26" width="1" height="1" /><rect shape-rendering="crispEdges" fill="rgb(65, 49, 82)"  x="3" y="27" width="1" height="1" /><rect shape-rendering="crispEdges" fill="rgb(0, 8, 8)"  x="3" y="28" width="1" height="1" /><rect shape-rendering="crispEdges" fill="rgb(82, 57, 82)"  x="4" y="26" width="1" height="1" /><rect shape-rendering="crispEdges" fill="rgb(65, 49, 82)"  x="4" y="27" width="1" height="1" /><rect shape-rendering="crispEdges" fill="rgb(41, 32, 57)"  x="4" y="28" width="1" height="1" /><rect shape-rendering="crispEdges" fill="rgb(0, 8, 8)"  x="4" y="29" width="1" height="1" /><rect shape-rendering="crispEdges" fill="rgb(65, 49, 82)"  x="5" y="25" width="1" height="1" /><rect shape-rendering="crispEdges" fill="rgb(82, 57, 82)"  x="5" y="26" width="1" height="1" /><rect shape-rendering="crispEdges" fill="rgb(82, 57, 82)"  x="5" y="27" width="1" height="1" /><rect shape-rendering="crispEdges" fill="rgb(41, 32, 57)"  x="5" y="28" width="1" height="1" /><rect shape-rendering="crispEdges" fill="rgb(0, 8, 8)"  x="5" y="29" width="1" height="1" /><rect shape-rendering="crispEdges" fill="rgb(82, 74, 106)"  x="6" y="5" width="1" height="1" /><rect shape-rendering="crispEdges" fill="rgb(82, 57, 82)"  x="6" y="25" width="1" height="1" /><rect shape-rendering="crispEdges" fill="rgb(82, 57, 82)"  x="6" y="26" width="1" height="1" /><rect shape-rendering="crispEdges" fill="rgb(41, 32, 57)"  x="6" y="27" width="1" height="1" /><rect shape-rendering="crispEdges" fill="rgb(49, 24, 0)"  x="6" y="28" width="1" height="1" /><rect shape-rendering="crispEdges" fill="rgb(197, 139, 123)"  x="7" y="4" width="1" height="1" /><rect shape-rendering="crispEdges" fill="rgb(82, 74, 106)"  x="7" y="5" width="1" height="1" /><rect shape-rendering="crispEdges" fill="rgb(65, 49, 82)"  x="7" y="24" width="1" height="1" /><rect shape-rendering="crispEdges" fill="rgb(82, 57, 82)"  x="7" y="25" width="1" height="1" /><rect shape-rendering="crispEdges" fill="rgb(41, 32, 57)"  x="7" y="26" width="1" height="1" /><rect shape-rendering="crispEdges" fill="rgb(49, 24, 0)"  x="7" y="27" width="1" height="1" /><rect shape-rendering="crispEdges" fill="rgb(197, 139, 123)"  x="8" y="4" width="1" height="1" /><rect shape-rendering="crispEdges" fill="rgb(82, 74, 106)"  x="8" y="5" width="1" height="1" /><rect shape-rendering="crispEdges" fill="rgb(82, 57, 82)"  x="8" y="21" width="1" height="1" /><rect shape-rendering="crispEdges" fill="rgb(82, 57, 82)"  x="8" y="22" width="1" height="1" /><rect shape-rendering="crispEdges" fill="rgb(82, 57, 82)"  x="8" y="23" width="1" height="1" /><rect shape-rendering="crispEdges" fill="rgb(65, 49, 82)"  x="8" y="24" width="1" height="1" /><rect shape-rendering="crispEdges" fill="rgb(41, 32, 57)"  x="8" y="25" width="1" height="1" /><rect shape-rendering="crispEdges" fill="rgb(41, 32, 57)"  x="8" y="26" width="1" height="1" /><rect shape-rendering="crispEdges" fill="rgb(197, 139, 123)"  x="9" y="3" width="1" height="1" /><rect shape-rendering="crispEdges" fill="rgb(230, 180, 148)"  x="9" y="4" width="1" height="1" /><rect shape-rendering="crispEdges" fill="rgb(82, 74, 106)"  x="9" y="5" width="1" height="1" /><rect shape-rendering="crispEdges" fill="rgb(82, 74, 106)"  x="9" y="6" width="1" height="1" /><rect shape-rendering="crispEdges" fill="rgb(82, 57, 82)"  x="9" y="20" width="1" height="1" /><rect shape-rendering="crispEdges" fill="rgb(106, 41, 82)"  x="9" y="21" width="1" height="1" /><rect shape-rendering="crispEdges" fill="rgb(106, 41, 82)"  x="9" y="22" width="1" height="1" /><rect shape-rendering="crispEdges" fill="rgb(106, 41, 82)"  x="9" y="23" width="1" height="1" /><rect shape-rendering="crispEdges" fill="rgb(65, 49, 82)"  x="9" y="24" width="1" height="1" /><rect shape-rendering="crispEdges" fill="rgb(0, 8, 8)"  x="9" y="25" width="1" height="1" /><rect shape-rendering="crispEdges" fill="rgb(49, 24, 0)"  x="9" y="26" width="1" height="1" /><rect shape-rendering="crispEdges" fill="rgb(197, 139, 123)"  x="10" y="3" width="1" height="1" /><rect shape-rendering="crispEdges" fill="rgb(255, 205, 172)"  x="10" y="4" width="1" height="1" /><rect shape-rendering="crispEdges" fill="rgb(98, 98, 123)"  x="10" y="5" width="1" height="1" /><rect shape-rendering="crispEdges" fill="rgb(82, 74, 106)"  x="10" y="6" width="1" height="1" /><rect shape-rendering="crispEdges" fill="rgb(82, 57, 82)"  x="10" y="19" width="1" height="1" /><rect shape-rendering="crispEdges" fill="rgb(82, 57, 82)"  x="10" y="20" width="1" height="1" /><rect shape-rendering="crispEdges" fill="rgb(65, 49, 82)"  x="10" y="21" width="1" height="1" /><rect shape-rendering="crispEdges" fill="rgb(41, 32, 57)"  x="10" y="22" width="1" height="1" /><rect shape-rendering="crispEdges" fill="rgb(49, 24, 0)"  x="10" y="23" width="1" height="1" /><rect shape-rendering="crispEdges" fill="rgb(49, 24, 0)"  x="10" y="24" width="1" height="1" /><rect shape-rendering="crispEdges" fill="rgb(197, 139, 123)"  x="11" y="3" width="1" height="1" /><rect shape-rendering="crispEdges" fill="rgb(255, 205, 172)"  x="11" y="4" width="1" height="1" /><rect shape-rendering="crispEdges" fill="rgb(197, 139, 123)"  x="11" y="5" width="1" height="1" /><rect shape-rendering="crispEdges" fill="rgb(82, 74, 106)"  x="11" y="6" width="1" height="1" /><rect shape-rendering="crispEdges" fill="rgb(82, 74, 106)"  x="11" y="7" width="1" height="1" /><rect shape-rendering="crispEdges" fill="rgb(82, 57, 82)"  x="11" y="18" width="1" height="1" /><rect shape-rendering="crispEdges" fill="rgb(82, 57, 82)"  x="11" y="19" width="1" height="1" /><rect shape-rendering="crispEdges" fill="rgb(41, 32, 57)"  x="11" y="20" width="1" height="1" /><rect shape-rendering="crispEdges" fill="rgb(41, 32, 57)"  x="11" y="21" width="1" height="1" /><rect shape-rendering="crispEdges" fill="rgb(197, 139, 123)"  x="12" y="3" width="1" height="1" /><rect shape-rendering="crispEdges" fill="rgb(255, 205, 172)"  x="12" y="4" width="1" height="1" /><rect shape-rendering="crispEdges" fill="rgb(230, 180, 148)"  x="12" y="5" width="1" height="1" /><rect shape-rendering="crispEdges" fill="rgb(98, 98, 123)"  x="12" y="6" width="1" height="1" /><rect shape-rendering="crispEdges" fill="rgb(82, 74, 106)"  x="12" y="7" width="1" height="1" /><rect shape-rendering="crispEdges" fill="rgb(65, 49, 82)"  x="12" y="17" width="1" height="1" /><rect shape-rendering="crispEdges" fill="rgb(82, 57, 82)"  x="12" y="18" width="1" height="1" /><rect shape-rendering="crispEdges" fill="rgb(41, 32, 57)"  x="12" y="19" width="1" height="1" /><rect shape-rendering="crispEdges" fill="rgb(197, 139, 123)"  x="13" y="3" width="1" height="1" /><rect shape-rendering="crispEdges" fill="rgb(255, 205, 172)"  x="13" y="4" width="1" height="1" /><rect shape-rendering="crispEdges" fill="rgb(255, 205, 172)"  x="13" y="5" width="1" height="1" /><rect shape-rendering="crispEdges" fill="rgb(197, 139, 123)"  x="13" y="6" width="1" height="1" /><rect shape-rendering="crispEdges" fill="rgb(98, 98, 123)"  x="13" y="7" width="1" height="1" /><rect shape-rendering="crispEdges" fill="rgb(82, 74, 106)"  x="13" y="8" width="1" height="1" /><rect shape-rendering="crispEdges" fill="rgb(82, 57, 82)"  x="13" y="16" width="1" height="1" /><rect shape-rendering="crispEdges" fill="rgb(82, 57, 82)"  x="13" y="17" width="1" height="1" /><rect shape-rendering="crispEdges" fill="rgb(41, 32, 57)"  x="13" y="18" width="1" height="1" /><rect shape-rendering="crispEdges" fill="rgb(197, 139, 123)"  x="14" y="3" width="1" height="1" /><rect shape-rendering="crispEdges" fill="rgb(255, 205, 172)"  x="14" y="4" width="1" height="1" /><rect shape-rendering="crispEdges" fill="rgb(255, 205, 172)"  x="14" y="5" width="1" height="1" /><rect shape-rendering="crispEdges" fill="rgb(255, 205, 172)"  x="14" y="6" width="1" height="1" /><rect shape-rendering="crispEdges" fill="rgb(197, 139, 123)"  x="14" y="7" width="1" height="1" /><rect shape-rendering="crispEdges" fill="rgb(82, 74, 106)"  x="14" y="8" width="1" height="1" /><rect shape-rendering="crispEdges" fill="rgb(82, 74, 106)"  x="14" y="9" width="1" height="1" /><rect shape-rendering="crispEdges" fill="rgb(65, 49, 82)"  x="14" y="15" width="1" height="1" /><rect shape-rendering="crispEdges" fill="rgb(82, 57, 82)"  x="14" y="16" width="1" height="1" /><rect shape-rendering="crispEdges" fill="rgb(41, 32, 57)"  x="14" y="17" width="1" height="1" /><rect shape-rendering="crispEdges" fill="rgb(41, 32, 57)"  x="14" y="18" width="1" height="1" /><rect shape-rendering="crispEdges" fill="rgb(197, 139, 123)"  x="15" y="3" width="1" height="1" /><rect shape-rendering="crispEdges" fill="rgb(230, 180, 148)"  x="15" y="4" width="1" height="1" /><rect shape-rendering="crispEdges" fill="rgb(230, 180, 148)"  x="15" y="5" width="1" height="1" /><rect shape-rendering="crispEdges" fill="rgb(230, 180, 148)"  x="15" y="6" width="1" height="1" /><rect shape-rendering="crispEdges" fill="rgb(230, 180, 148)"  x="15" y="7" width="1" height="1" /><rect shape-rendering="crispEdges" fill="rgb(98, 98, 123)"  x="15" y="8" width="1" height="1" /><rect shape-rendering="crispEdges" fill="rgb(82, 74, 106)"  x="15" y="9" width="1" height="1" /><rect shape-rendering="crispEdges" fill="rgb(82, 74, 106)"  x="15" y="10" width="1" height="1" /><rect shape-rendering="crispEdges" fill="rgb(65, 49, 82)"  x="15" y="14" width="1" height="1" /><rect shape-rendering="crispEdges" fill="rgb(82, 57, 82)"  x="15" y="15" width="1" height="1" /><rect shape-rendering="crispEdges" fill="rgb(82, 57, 82)"  x="15" y="16" width="1" height="1" /><rect shape-rendering="crispEdges" fill="rgb(197, 139, 123)"  x="16" y="4" width="1" height="1" /><rect shape-rendering="crispEdges" fill="rgb(255, 205, 172)"  x="16" y="5" width="1" height="1" /><rect shape-rendering="crispEdges" fill="rgb(230, 180, 148)"  x="16" y="6" width="1" height="1" /><rect shape-rendering="crispEdges" fill="rgb(230, 180, 148)"  x="16" y="7" width="1" height="1" /><rect shape-rendering="crispEdges" fill="rgb(197, 139, 123)"  x="16" y="8" width="1" height="1" /><rect shape-rendering="crispEdges" fill="rgb(98, 98, 123)"  x="16" y="9" width="1" height="1" /><rect shape-rendering="crispEdges" fill="rgb(82, 74, 106)"  x="16" y="10" width="1" height="1" /><rect shape-rendering="crispEdges" fill="rgb(82, 74, 106)"  x="16" y="11" width="1" height="1" /><rect shape-rendering="crispEdges" fill="rgb(65, 49, 82)"  x="16" y="13" width="1" height="1" /><rect shape-rendering="crispEdges" fill="rgb(82, 57, 82)"  x="16" y="14" width="1" height="1" /><rect shape-rendering="crispEdges" fill="rgb(82, 57, 82)"  x="16" y="15" width="1" height="1" /><rect shape-rendering="crispEdges" fill="rgb(41, 32, 57)"  x="16" y="16" width="1" height="1" /><rect shape-rendering="crispEdges" fill="rgb(172, 115, 106)"  x="17" y="4" width="1" height="1" /><rect shape-rendering="crispEdges" fill="rgb(230, 180, 148)"  x="17" y="5" width="1" height="1" /><rect shape-rendering="crispEdges" fill="rgb(255, 205, 172)"  x="17" y="6" width="1" height="1" /><rect shape-rendering="crispEdges" fill="rgb(230, 180, 148)"  x="17" y="7" width="1" height="1" /><rect shape-rendering="crispEdges" fill="rgb(230, 180, 148)"  x="17" y="8" width="1" height="1" /><rect shape-rendering="crispEdges" fill="rgb(197, 139, 123)"  x="17" y="9" width="1" height="1" /><rect shape-rendering="crispEdges" fill="rgb(197, 139, 123)"  x="17" y="10" width="1" height="1" /><rect shape-rendering="crispEdges" fill="rgb(98, 98, 123)"  x="17" y="11" width="1" height="1" /><rect shape-rendering="crispEdges" fill="rgb(139, 90, 74)"  x="17" y="12" width="1" height="1" /><rect shape-rendering="crispEdges" fill="rgb(41, 32, 57)"  x="17" y="13" width="1" height="1" /><rect shape-rendering="crispEdges" fill="rgb(41, 32, 57)"  x="17" y="14" width="1" height="1" /><rect shape-rendering="crispEdges" fill="rgb(41, 32, 57)"  x="17" y="15" width="1" height="1" /><rect shape-rendering="crispEdges" fill="rgb(172, 115, 106)"  x="18" y="5" width="1" height="1" /><rect shape-rendering="crispEdges" fill="rgb(230, 180, 148)"  x="18" y="6" width="1" height="1" /><rect shape-rendering="crispEdges" fill="rgb(230, 180, 148)"  x="18" y="7" width="1" height="1" /><rect shape-rendering="crispEdges" fill="rgb(230, 180, 148)"  x="18" y="8" width="1" height="1" /><rect shape-rendering="crispEdges" fill="rgb(197, 139, 123)"  x="18" y="9" width="1" height="1" /><rect shape-rendering="crispEdges" fill="rgb(172, 115, 106)"  x="18" y="10" width="1" height="1" /><rect shape-rendering="crispEdges" fill="rgb(255, 205, 172)"  x="18" y="11" width="1" height="1" /><rect shape-rendering="crispEdges" fill="rgb(213, 156, 139)"  x="18" y="12" width="1" height="1" /><rect shape-rendering="crispEdges" fill="rgb(115, 74, 57)"  x="18" y="13" width="1" height="1" /><rect shape-rendering="crispEdges" fill="rgb(115, 74, 57)"  x="18" y="14" width="1" height="1" /><rect shape-rendering="crispEdges" fill="rgb(172, 115, 106)"  x="19" y="6" width="1" height="1" /><rect shape-rendering="crispEdges" fill="rgb(197, 139, 123)"  x="19" y="7" width="1" height="1" /><rect shape-rendering="crispEdges" fill="rgb(197, 139, 123)"  x="19" y="8" width="1" height="1" /><rect shape-rendering="crispEdges" fill="rgb(172, 115, 106)"  x="19" y="9" width="1" height="1" /><rect shape-rendering="crispEdges" fill="rgb(255, 205, 172)"  x="19" y="10" width="1" height="1" /><rect shape-rendering="crispEdges" fill="rgb(230, 180, 148)"  x="19" y="11" width="1" height="1" /><rect shape-rendering="crispEdges" fill="rgb(213, 156, 139)"  x="19" y="12" width="1" height="1" /><rect shape-rendering="crispEdges" fill="rgb(172, 115, 106)"  x="19" y="13" width="1" height="1" /><rect shape-rendering="crispEdges" fill="rgb(82, 74, 106)"  x="19" y="14" width="1" height="1" /><rect shape-rendering="crispEdges" fill="rgb(172, 115, 106)"  x="20" y="7" width="1" height="1" /><rect shape-rendering="crispEdges" fill="rgb(148, 98, 98)"  x="20" y="8" width="1" height="1" /><rect shape-rendering="crispEdges" fill="rgb(255, 205, 172)"  x="20" y="9" width="1" height="1" /><rect shape-rendering="crispEdges" fill="rgb(230, 180, 148)"  x="20" y="10" width="1" height="1" /><rect shape-rendering="crispEdges" fill="rgb(230, 180, 148)"  x="20" y="11" width="1" height="1" /><rect shape-rendering="crispEdges" fill="rgb(172, 115, 106)"  x="20" y="12" width="1" height="1" /><rect shape-rendering="crispEdges" fill="rgb(172, 115, 106)"  x="20" y="13" width="1" height="1" /><rect shape-rendering="crispEdges" fill="rgb(98, 98, 123)"  x="20" y="14" width="1" height="1" /><rect shape-rendering="crispEdges" fill="rgb(82, 74, 106)"  x="20" y="15" width="1" height="1" /><rect shape-rendering="crispEdges" fill="rgb(139, 90, 74)"  x="21" y="8" width="1" height="1" /><rect shape-rendering="crispEdges" fill="rgb(213, 156, 139)"  x="21" y="9" width="1" height="1" /><rect shape-rendering="crispEdges" fill="rgb(255, 205, 172)"  x="21" y="10" width="1" height="1" /><rect shape-rendering="crispEdges" fill="rgb(197, 139, 123)"  x="21" y="11" width="1" height="1" /><rect shape-rendering="crispEdges" fill="rgb(172, 115, 106)"  x="21" y="12" width="1" height="1" /><rect shape-rendering="crispEdges" fill="rgb(230, 180, 148)"  x="21" y="13" width="1" height="1" /><rect shape-rendering="crispEdges" fill="rgb(98, 98, 123)"  x="21" y="14" width="1" height="1" /><rect shape-rendering="crispEdges" fill="rgb(82, 74, 106)"  x="21" y="15" width="1" height="1" /><rect shape-rendering="crispEdges" fill="rgb(82, 74, 106)"  x="21" y="16" width="1" height="1" /><rect shape-rendering="crispEdges" fill="rgb(106, 41, 82)"  x="22" y="6" width="1" height="1" /><rect shape-rendering="crispEdges" fill="rgb(106, 41, 82)"  x="22" y="7" width="1" height="1" /><rect shape-rendering="crispEdges" fill="rgb(41, 32, 57)"  x="22" y="8" width="1" height="1" /><rect shape-rendering="crispEdges" fill="rgb(139, 90, 74)"  x="22" y="9" width="1" height="1" /><rect shape-rendering="crispEdges" fill="rgb(197, 139, 123)"  x="22" y="10" width="1" height="1" /><rect shape-rendering="crispEdges" fill="rgb(197, 139, 123)"  x="22" y="11" width="1" height="1" /><rect shape-rendering="crispEdges" fill="rgb(255, 205, 172)"  x="22" y="12" width="1" height="1" /><rect shape-rendering="crispEdges" fill="rgb(230, 180, 148)"  x="22" y="13" width="1" height="1" /><rect shape-rendering="crispEdges" fill="rgb(197, 139, 123)"  x="22" y="14" width="1" height="1" /><rect shape-rendering="crispEdges" fill="rgb(98, 98, 123)"  x="22" y="15" width="1" height="1" /><rect shape-rendering="crispEdges" fill="rgb(82, 74, 106)"  x="22" y="16" width="1" height="1" /><rect shape-rendering="crispEdges" fill="rgb(82, 74, 106)"  x="22" y="17" width="1" height="1" /><rect shape-rendering="crispEdges" fill="rgb(106, 41, 82)"  x="23" y="6" width="1" height="1" /><rect shape-rendering="crispEdges" fill="rgb(57, 57, 41)"  x="23" y="7" width="1" height="1" /><rect shape-rendering="crispEdges" fill="rgb(57, 57, 41)"  x="23" y="8" width="1" height="1" /><rect shape-rendering="crispEdges" fill="rgb(41, 32, 57)"  x="23" y="9" width="1" height="1" /><rect shape-rendering="crispEdges" fill="rgb(172, 115, 106)"  x="23" y="10" width="1" height="1" /><rect shape-rendering="crispEdges" fill="rgb(230, 180, 148)"  x="23" y="11" width="1" height="1" /><rect shape-rendering="crispEdges" fill="rgb(255, 205, 172)"  x="23" y="12" width="1" height="1" /><rect shape-rendering="crispEdges" fill="rgb(255, 205, 172)"  x="23" y="13" width="1" height="1" /><rect shape-rendering="crispEdges" fill="rgb(230, 180, 148)"  x="23" y="14" width="1" height="1" /><rect shape-rendering="crispEdges" fill="rgb(197, 139, 123)"  x="23" y="15" width="1" height="1" /><rect shape-rendering="crispEdges" fill="rgb(98, 98, 123)"  x="23" y="16" width="1" height="1" /><rect shape-rendering="crispEdges" fill="rgb(82, 74, 106)"  x="23" y="17" width="1" height="1" /><rect shape-rendering="crispEdges" fill="rgb(82, 74, 106)"  x="23" y="18" width="1" height="1" /><rect shape-rendering="crispEdges" fill="rgb(82, 57, 82)"  x="24" y="6" width="1" height="1" /><rect shape-rendering="crispEdges" fill="rgb(65, 49, 82)"  x="24" y="7" width="1" height="1" /><rect shape-rendering="crispEdges" fill="rgb(57, 57, 41)"  x="24" y="8" width="1" height="1" /><rect shape-rendering="crispEdges" fill="rgb(41, 32, 57)"  x="24" y="9" width="1" height="1" /><rect shape-rendering="crispEdges" fill="rgb(197, 139, 123)"  x="24" y="11" width="1" height="1" /><rect shape-rendering="crispEdges" fill="rgb(222, 172, 131)"  x="24" y="12" width="1" height="1" /><rect shape-rendering="crispEdges" fill="rgb(230, 180, 148)"  x="24" y="13" width="1" height="1" /><rect shape-rendering="crispEdges" fill="rgb(230, 180, 148)"  x="24" y="14" width="1" height="1" /><rect shape-rendering="crispEdges" fill="rgb(230, 180, 148)"  x="24" y="15" width="1" height="1" /><rect shape-rendering="crispEdges" fill="rgb(197, 139, 123)"  x="24" y="16" width="1" height="1" /><rect shape-rendering="crispEdges" fill="rgb(98, 98, 123)"  x="24" y="17" width="1" height="1" /><rect shape-rendering="crispEdges" fill="rgb(82, 74, 106)"  x="24" y="18" width="1" height="1" /><rect shape-rendering="crispEdges" fill="rgb(82, 74, 106)"  x="24" y="19" width="1" height="1" /><rect shape-rendering="crispEdges" fill="rgb(82, 74, 106)"  x="24" y="20" width="1" height="1" /><rect shape-rendering="crispEdges" fill="rgb(65, 49, 82)"  x="25" y="7" width="1" height="1" /><rect shape-rendering="crispEdges" fill="rgb(65, 49, 82)"  x="25" y="8" width="1" height="1" /><rect shape-rendering="crispEdges" fill="rgb(41, 32, 57)"  x="25" y="9" width="1" height="1" /><rect shape-rendering="crispEdges" fill="rgb(197, 139, 123)"  x="25" y="12" width="1" height="1" /><rect shape-rendering="crispEdges" fill="rgb(230, 180, 148)"  x="25" y="13" width="1" height="1" /><rect shape-rendering="crispEdges" fill="rgb(230, 180, 148)"  x="25" y="14" width="1" height="1" /><rect shape-rendering="crispEdges" fill="rgb(230, 180, 148)"  x="25" y="15" width="1" height="1" /><rect shape-rendering="crispEdges" fill="rgb(230, 180, 148)"  x="25" y="16" width="1" height="1" /><rect shape-rendering="crispEdges" fill="rgb(230, 180, 148)"  x="25" y="17" width="1" height="1" /><rect shape-rendering="crispEdges" fill="rgb(230, 180, 148)"  x="25" y="18" width="1" height="1" /><rect shape-rendering="crispEdges" fill="rgb(197, 139, 123)"  x="25" y="19" width="1" height="1" /><rect shape-rendering="crispEdges" fill="rgb(98, 98, 123)"  x="25" y="20" width="1" height="1" /><rect shape-rendering="crispEdges" fill="rgb(82, 74, 106)"  x="25" y="21" width="1" height="1" /><rect shape-rendering="crispEdges" fill="rgb(82, 74, 106)"  x="25" y="22" width="1" height="1" /><rect shape-rendering="crispEdges" fill="rgb(82, 74, 106)"  x="25" y="23" width="1" height="1" /><rect shape-rendering="crispEdges" fill="rgb(98, 98, 123)"  x="25" y="24" width="1" height="1" /><rect shape-rendering="crispEdges" fill="rgb(41, 32, 57)"  x="26" y="7" width="1" height="1" /><rect shape-rendering="crispEdges" fill="rgb(65, 49, 82)"  x="26" y="8" width="1" height="1" /><rect shape-rendering="crispEdges" fill="rgb(41, 32, 57)"  x="26" y="9" width="1" height="1" /><rect shape-rendering="crispEdges" fill="rgb(197, 139, 123)"  x="26" y="13" width="1" height="1" /><rect shape-rendering="crispEdges" fill="rgb(197, 139, 123)"  x="26" y="14" width="1" height="1" /><rect shape-rendering="crispEdges" fill="rgb(230, 180, 148)"  x="26" y="15" width="1" height="1" /><rect shape-rendering="crispEdges" fill="rgb(230, 180, 148)"  x="26" y="16" width="1" height="1" /><rect shape-rendering="crispEdges" fill="rgb(230, 180, 148)"  x="26" y="17" width="1" height="1" /><rect shape-rendering="crispEdges" fill="rgb(230, 180, 148)"  x="26" y="18" width="1" height="1" /><rect shape-rendering="crispEdges" fill="rgb(230, 180, 148)"  x="26" y="19" width="1" height="1" /><rect shape-rendering="crispEdges" fill="rgb(230, 180, 148)"  x="26" y="20" width="1" height="1" /><rect shape-rendering="crispEdges" fill="rgb(230, 180, 148)"  x="26" y="21" width="1" height="1" /><rect shape-rendering="crispEdges" fill="rgb(197, 139, 123)"  x="26" y="22" width="1" height="1" /><rect shape-rendering="crispEdges" fill="rgb(172, 115, 106)"  x="26" y="23" width="1" height="1" /><rect shape-rendering="crispEdges" fill="rgb(41, 32, 57)"  x="27" y="8" width="1" height="1" /><rect shape-rendering="crispEdges" fill="rgb(41, 32, 57)"  x="27" y="9" width="1" height="1" /><rect shape-rendering="crispEdges" fill="rgb(197, 139, 123)"  x="27" y="16" width="1" height="1" /><rect shape-rendering="crispEdges" fill="rgb(197, 139, 123)"  x="27" y="17" width="1" height="1" /><rect shape-rendering="crispEdges" fill="rgb(197, 139, 123)"  x="27" y="18" width="1" height="1" /><rect shape-rendering="crispEdges" fill="rgb(197, 139, 123)"  x="27" y="19" width="1" height="1" /><rect shape-rendering="crispEdges" fill="rgb(172, 115, 106)"  x="27" y="20" width="1" height="1" /><rect shape-rendering="crispEdges" fill="rgb(172, 115, 106)"  x="27" y="21" width="1" height="1" /></svg>