<svg xmlns="http://www.w3.org/2000/svg" xmlns:xlink= "http://www.w3.org/1999/xlink" width="32" height="32" viewBox ="0 0 32 32"><rect shape-rendering="crispEdges" fill="rgb(49, 32, 32)"  x="5" y="15" width="1" height="1" /><rect shape-rendering="crispEdges" fill="rgb(90, 90, 82)"  x="5" y="16" width="1" height="1" /><rect shape-rendering="crispEdges" fill="rgb(90, 90, 82)"  x="5" y="17" width="1" height="1" /><rect shape-rendering="crispEdges" fill="rgb(90, 90, 82)"  x="5" y="18" width="1" height="1" /><rect shape-rendering="crispEdges" fill="rgb(49, 24, 0)"  x="5" y="19" width="1" height="1" /><rect shape-rendering="crispEdges" fill="rgb(90, 90, 82)"  x="5" y="20" width="1" height="1" /><rect shape-rendering="crispEdges" fill="rgb(90, 90, 82)"  x="5" y="21" width="1" height="1" /><rect shape-rendering="crispEdges" fill="rgb(49, 32, 32)"  x="6" y="14" width="1" height="1" /><rect shape-rendering="crispEdges" fill="rgb(189, 180, 172)"  x="6" y="15" width="1" height="1" /><rect shape-rendering="crispEdges" fill="rgb(90, 90, 82)"  x="6" y="16" width="1" height="1" /><rect shape-rendering="crispEdges" fill="rgb(164, 246, 139)"  x="6" y="17" width="1" height="1" /><rect shape-rendering="crispEdges" fill="rgb(238, 255, 255)"  x="6" y="18" width="1" height="1" /><rect shape-rendering="crispEdges" fill="rgb(238, 255, 255)"  x="6" y="19" width="1" height="1" /><rect shape-rendering="crispEdges" fill="rgb(131, 164, 98)"  x="6" y="20" width="1" height="1" /><rect shape-rendering="crispEdges" fill="rgb(57, 16, 16)"  x="6" y="21" width="1" height="1" /><rect shape-rendering="crispEdges" fill="rgb(65, 57, 41)"  x="6" y="22" width="1" height="1" /><rect shape-rendering="crispEdges" fill="rgb(189, 148, 98)"  x="7" y="13" width="1" height="1" /><rect shape-rendering="crispEdges" fill="rgb(49, 32, 32)"  x="7" y="14" width="1" height="1" /><rect shape-rendering="crispEdges" fill="rgb(189, 180, 172)"  x="7" y="15" width="1" height="1" /><rect shape-rendering="crispEdges" fill="rgb(49, 32, 32)"  x="7" y="16" width="1" height="1" /><rect shape-rendering="crispEdges" fill="rgb(238, 255, 255)"  x="7" y="17" width="1" height="1" /><rect shape-rendering="crispEdges" fill="rgb(238, 255, 255)"  x="7" y="18" width="1" height="1" /><rect shape-rendering="crispEdges" fill="rgb(238, 255, 255)"  x="7" y="19" width="1" height="1" /><rect shape-rendering="crispEdges" fill="rgb(131, 205, 115)"  x="7" y="20" width="1" height="1" /><rect shape-rendering="crispEdges" fill="rgb(57, 16, 16)"  x="7" y="21" width="1" height="1" /><rect shape-rendering="crispEdges" fill="rgb(90, 90, 82)"  x="7" y="22" width="1" height="1" /><rect shape-rendering="crispEdges" fill="rgb(49, 24, 0)"  x="7" y="23" width="1" height="1" /><rect shape-rendering="crispEdges" fill="rgb(189, 148, 98)"  x="8" y="12" width="1" height="1" /><rect shape-rendering="crispEdges" fill="rgb(90, 74, 49)"  x="8" y="13" width="1" height="1" /><rect shape-rendering="crispEdges" fill="rgb(49, 32, 32)"  x="8" y="14" width="1" height="1" /><rect shape-rendering="crispEdges" fill="rgb(148, 139, 148)"  x="8" y="15" width="1" height="1" /><rect shape-rendering="crispEdges" fill="rgb(49, 32, 32)"  x="8" y="16" width="1" height="1" /><rect shape-rendering="crispEdges" fill="rgb(106, 164, 90)"  x="8" y="17" width="1" height="1" /><rect shape-rendering="crispEdges" fill="rgb(131, 205, 115)"  x="8" y="18" width="1" height="1" /><rect shape-rendering="crispEdges" fill="rgb(131, 205, 115)"  x="8" y="19" width="1" height="1" /><rect shape-rendering="crispEdges" fill="rgb(131, 205, 115)"  x="8" y="20" width="1" height="1" /><rect shape-rendering="crispEdges" fill="rgb(57, 16, 16)"  x="8" y="21" width="1" height="1" /><rect shape-rendering="crispEdges" fill="rgb(90, 90, 82)"  x="8" y="22" width="1" height="1" /><rect shape-rendering="crispEdges" fill="rgb(49, 24, 0)"  x="8" y="23" width="1" height="1" /><rect shape-rendering="crispEdges" fill="rgb(189, 148, 98)"  x="9" y="11" width="1" height="1" /><rect shape-rendering="crispEdges" fill="rgb(90, 74, 49)"  x="9" y="12" width="1" height="1" /><rect shape-rendering="crispEdges" fill="rgb(90, 74, 49)"  x="9" y="13" width="1" height="1" /><rect shape-rendering="crispEdges" fill="rgb(49, 32, 32)"  x="9" y="14" width="1" height="1" /><rect shape-rendering="crispEdges" fill="rgb(90, 90, 82)"  x="9" y="15" width="1" height="1" /><rect shape-rendering="crispEdges" fill="rgb(49, 32, 32)"  x="9" y="16" width="1" height="1" /><rect shape-rendering="crispEdges" fill="rgb(41, 41, 32)"  x="9" y="17" width="1" height="1" /><rect shape-rendering="crispEdges" fill="rgb(90, 90, 82)"  x="9" y="18" width="1" height="1" /><rect shape-rendering="crispEdges" fill="rgb(90, 90, 82)"  x="9" y="19" width="1" height="1" /><rect shape-rendering="crispEdges" fill="rgb(131, 164, 98)"  x="9" y="20" width="1" height="1" /><rect shape-rendering="crispEdges" fill="rgb(57, 16, 16)"  x="9" y="21" width="1" height="1" /><rect shape-rendering="crispEdges" fill="rgb(90, 90, 82)"  x="9" y="22" width="1" height="1" /><rect shape-rendering="crispEdges" fill="rgb(49, 24, 0)"  x="9" y="23" width="1" height="1" /><rect shape-rendering="crispEdges" fill="rgb(189, 148, 98)"  x="10" y="10" width="1" height="1" /><rect shape-rendering="crispEdges" fill="rgb(90, 65, 49)"  x="10" y="11" width="1" height="1" /><rect shape-rendering="crispEdges" fill="rgb(90, 74, 49)"  x="10" y="12" width="1" height="1" /><rect shape-rendering="crispEdges" fill="rgb(90, 74, 49)"  x="10" y="13" width="1" height="1" /><rect shape-rendering="crispEdges" fill="rgb(90, 65, 49)"  x="10" y="14" width="1" height="1" /><rect shape-rendering="crispEdges" fill="rgb(49, 32, 32)"  x="10" y="15" width="1" height="1" /><rect shape-rendering="crispEdges" fill="rgb(90, 90, 82)"  x="10" y="16" width="1" height="1" /><rect shape-rendering="crispEdges" fill="rgb(90, 90, 82)"  x="10" y="17" width="1" height="1" /><rect shape-rendering="crispEdges" fill="rgb(41, 41, 32)"  x="10" y="18" width="1" height="1" /><rect shape-rendering="crispEdges" fill="rgb(41, 41, 32)"  x="10" y="19" width="1" height="1" /><rect shape-rendering="crispEdges" fill="rgb(57, 16, 16)"  x="10" y="20" width="1" height="1" /><rect shape-rendering="crispEdges" fill="rgb(90, 90, 82)"  x="10" y="21" width="1" height="1" /><rect shape-rendering="crispEdges" fill="rgb(90, 90, 82)"  x="10" y="22" width="1" height="1" /><rect shape-rendering="crispEdges" fill="rgb(49, 24, 0)"  x="10" y="23" width="1" height="1" /><rect shape-rendering="crispEdges" fill="rgb(189, 148, 98)"  x="11" y="10" width="1" height="1" /><rect shape-rendering="crispEdges" fill="rgb(90, 74, 49)"  x="11" y="11" width="1" height="1" /><rect shape-rendering="crispEdges" fill="rgb(90, 74, 49)"  x="11" y="12" width="1" height="1" /><rect shape-rendering="crispEdges" fill="rgb(90, 65, 49)"  x="11" y="13" width="1" height="1" /><rect shape-rendering="crispEdges" fill="rgb(49, 32, 32)"  x="11" y="14" width="1" height="1" /><rect shape-rendering="crispEdges" fill="rgb(49, 32, 32)"  x="11" y="15" width="1" height="1" /><rect shape-rendering="crispEdges" fill="rgb(90, 90, 82)"  x="11" y="16" width="1" height="1" /><rect shape-rendering="crispEdges" fill="rgb(49, 32, 32)"  x="11" y="17" width="1" height="1" /><rect shape-rendering="crispEdges" fill="rgb(49, 32, 32)"  x="11" y="18" width="1" height="1" /><rect shape-rendering="crispEdges" fill="rgb(90, 148, 90)"  x="11" y="19" width="1" height="1" /><rect shape-rendering="crispEdges" fill="rgb(82, 115, 74)"  x="11" y="20" width="1" height="1" /><rect shape-rendering="crispEdges" fill="rgb(57, 16, 16)"  x="11" y="21" width="1" height="1" /><rect shape-rendering="crispEdges" fill="rgb(0, 0, 0)"  x="11" y="22" width="1" height="1" /><rect shape-rendering="crispEdges" fill="rgb(189, 148, 98)"  x="12" y="9" width="1" height="1" /><rect shape-rendering="crispEdges" fill="rgb(90, 65, 49)"  x="12" y="10" width="1" height="1" /><rect shape-rendering="crispEdges" fill="rgb(90, 74, 49)"  x="12" y="11" width="1" height="1" /><rect shape-rendering="crispEdges" fill="rgb(90, 65, 49)"  x="12" y="12" width="1" height="1" /><rect shape-rendering="crispEdges" fill="rgb(49, 32, 32)"  x="12" y="13" width="1" height="1" /><rect shape-rendering="crispEdges" fill="rgb(49, 32, 32)"  x="12" y="15" width="1" height="1" /><rect shape-rendering="crispEdges" fill="rgb(90, 90, 82)"  x="12" y="16" width="1" height="1" /><rect shape-rendering="crispEdges" fill="rgb(57, 57, 41)"  x="12" y="17" width="1" height="1" /><rect shape-rendering="crispEdges" fill="rgb(57, 57, 41)"  x="12" y="18" width="1" height="1" /><rect shape-rendering="crispEdges" fill="rgb(131, 164, 98)"  x="12" y="19" width="1" height="1" /><rect shape-rendering="crispEdges" fill="rgb(82, 115, 74)"  x="12" y="20" width="1" height="1" /><rect shape-rendering="crispEdges" fill="rgb(57, 16, 16)"  x="12" y="21" width="1" height="1" /><rect shape-rendering="crispEdges" fill="rgb(189, 148, 98)"  x="13" y="9" width="1" height="1" /><rect shape-rendering="crispEdges" fill="rgb(90, 65, 49)"  x="13" y="10" width="1" height="1" /><rect shape-rendering="crispEdges" fill="rgb(90, 65, 49)"  x="13" y="11" width="1" height="1" /><rect shape-rendering="crispEdges" fill="rgb(90, 65, 49)"  x="13" y="12" width="1" height="1" /><rect shape-rendering="crispEdges" fill="rgb(49, 32, 32)"  x="13" y="13" width="1" height="1" /><rect shape-rendering="crispEdges" fill="rgb(49, 32, 32)"  x="13" y="14" width="1" height="1" /><rect shape-rendering="crispEdges" fill="rgb(90, 90, 82)"  x="13" y="15" width="1" height="1" /><rect shape-rendering="crispEdges" fill="rgb(57, 57, 41)"  x="13" y="16" width="1" height="1" /><rect shape-rendering="crispEdges" fill="rgb(82, 115, 74)"  x="13" y="17" width="1" height="1" /><rect shape-rendering="crispEdges" fill="rgb(82, 115, 74)"  x="13" y="18" width="1" height="1" /><rect shape-rendering="crispEdges" fill="rgb(57, 16, 16)"  x="13" y="19" width="1" height="1" /><rect shape-rendering="crispEdges" fill="rgb(57, 16, 16)"  x="13" y="20" width="1" height="1" /><rect shape-rendering="crispEdges" fill="rgb(90, 90, 82)"  x="13" y="21" width="1" height="1" /><rect shape-rendering="crispEdges" fill="rgb(189, 148, 98)"  x="14" y="8" width="1" height="1" /><rect shape-rendering="crispEdges" fill="rgb(90, 65, 49)"  x="14" y="9" width="1" height="1" /><rect shape-rendering="crispEdges" fill="rgb(90, 65, 49)"  x="14" y="10" width="1" height="1" /><rect shape-rendering="crispEdges" fill="rgb(90, 74, 49)"  x="14" y="11" width="1" height="1" /><rect shape-rendering="crispEdges" fill="rgb(49, 32, 32)"  x="14" y="12" width="1" height="1" /><rect shape-rendering="crispEdges" fill="rgb(49, 32, 32)"  x="14" y="13" width="1" height="1" /><rect shape-rendering="crispEdges" fill="rgb(148, 139, 148)"  x="14" y="14" width="1" height="1" /><rect shape-rendering="crispEdges" fill="rgb(41, 41, 32)"  x="14" y="15" width="1" height="1" /><rect shape-rendering="crispEdges" fill="rgb(131, 205, 115)"  x="14" y="16" width="1" height="1" /><rect shape-rendering="crispEdges" fill="rgb(164, 246, 139)"  x="14" y="17" width="1" height="1" /><rect shape-rendering="crispEdges" fill="rgb(164, 246, 139)"  x="14" y="18" width="1" height="1" /><rect shape-rendering="crispEdges" fill="rgb(164, 246, 139)"  x="14" y="19" width="1" height="1" /><rect shape-rendering="crispEdges" fill="rgb(131, 164, 98)"  x="14" y="20" width="1" height="1" /><rect shape-rendering="crispEdges" fill="rgb(57, 16, 16)"  x="14" y="21" width="1" height="1" /><rect shape-rendering="crispEdges" fill="rgb(65, 57, 41)"  x="14" y="22" width="1" height="1" /><rect shape-rendering="crispEdges" fill="rgb(189, 148, 98)"  x="15" y="8" width="1" height="1" /><rect shape-rendering="crispEdges" fill="rgb(90, 74, 49)"  x="15" y="9" width="1" height="1" /><rect shape-rendering="crispEdges" fill="rgb(90, 65, 49)"  x="15" y="10" width="1" height="1" /><rect shape-rendering="crispEdges" fill="rgb(90, 74, 49)"  x="15" y="11" width="1" height="1" /><rect shape-rendering="crispEdges" fill="rgb(49, 32, 32)"  x="15" y="12" width="1" height="1" /><rect shape-rendering="crispEdges" fill="rgb(49, 32, 32)"  x="15" y="13" width="1" height="1" /><rect shape-rendering="crispEdges" fill="rgb(222, 213, 205)"  x="15" y="14" width="1" height="1" /><rect shape-rendering="crispEdges" fill="rgb(41, 41, 32)"  x="15" y="15" width="1" height="1" /><rect shape-rendering="crispEdges" fill="rgb(164, 246, 139)"  x="15" y="16" width="1" height="1" /><rect shape-rendering="crispEdges" fill="rgb(238, 255, 255)"  x="15" y="17" width="1" height="1" /><rect shape-rendering="crispEdges" fill="rgb(238, 255, 255)"  x="15" y="18" width="1" height="1" /><rect shape-rendering="crispEdges" fill="rgb(164, 246, 139)"  x="15" y="19" width="1" height="1" /><rect shape-rendering="crispEdges" fill="rgb(131, 205, 115)"  x="15" y="20" width="1" height="1" /><rect shape-rendering="crispEdges" fill="rgb(57, 16, 16)"  x="15" y="21" width="1" height="1" /><rect shape-rendering="crispEdges" fill="rgb(90, 90, 82)"  x="15" y="22" width="1" height="1" /><rect shape-rendering="crispEdges" fill="rgb(49, 24, 0)"  x="15" y="23" width="1" height="1" /><rect shape-rendering="crispEdges" fill="rgb(189, 148, 98)"  x="16" y="7" width="1" height="1" /><rect shape-rendering="crispEdges" fill="rgb(90, 74, 49)"  x="16" y="8" width="1" height="1" /><rect shape-rendering="crispEdges" fill="rgb(90, 65, 49)"  x="16" y="9" width="1" height="1" /><rect shape-rendering="crispEdges" fill="rgb(90, 65, 49)"  x="16" y="10" width="1" height="1" /><rect shape-rendering="crispEdges" fill="rgb(49, 32, 32)"  x="16" y="11" width="1" height="1" /><rect shape-rendering="crispEdges" fill="rgb(49, 32, 32)"  x="16" y="13" width="1" height="1" /><rect shape-rendering="crispEdges" fill="rgb(222, 213, 205)"  x="16" y="14" width="1" height="1" /><rect shape-rendering="crispEdges" fill="rgb(41, 41, 32)"  x="16" y="15" width="1" height="1" /><rect shape-rendering="crispEdges" fill="rgb(164, 246, 139)"  x="16" y="16" width="1" height="1" /><rect shape-rendering="crispEdges" fill="rgb(238, 255, 255)"  x="16" y="17" width="1" height="1" /><rect shape-rendering="crispEdges" fill="rgb(238, 255, 255)"  x="16" y="18" width="1" height="1" /><rect shape-rendering="crispEdges" fill="rgb(164, 246, 139)"  x="16" y="19" width="1" height="1" /><rect shape-rendering="crispEdges" fill="rgb(131, 205, 115)"  x="16" y="20" width="1" height="1" /><rect shape-rendering="crispEdges" fill="rgb(57, 16, 16)"  x="16" y="21" width="1" height="1" /><rect shape-rendering="crispEdges" fill="rgb(90, 90, 82)"  x="16" y="22" width="1" height="1" /><rect shape-rendering="crispEdges" fill="rgb(49, 24, 0)"  x="16" y="23" width="1" height="1" /><rect shape-rendering="crispEdges" fill="rgb(189, 148, 98)"  x="17" y="7" width="1" height="1" /><rect shape-rendering="crispEdges" fill="rgb(90, 74, 49)"  x="17" y="8" width="1" height="1" /><rect shape-rendering="crispEdges" fill="rgb(90, 65, 49)"  x="17" y="9" width="1" height="1" /><rect shape-rendering="crispEdges" fill="rgb(90, 65, 49)"  x="17" y="10" width="1" height="1" /><rect shape-rendering="crispEdges" fill="rgb(49, 32, 32)"  x="17" y="11" width="1" height="1" /><rect shape-rendering="crispEdges" fill="rgb(49, 32, 32)"  x="17" y="13" width="1" height="1" /><rect shape-rendering="crispEdges" fill="rgb(148, 139, 148)"  x="17" y="14" width="1" height="1" /><rect shape-rendering="crispEdges" fill="rgb(49, 32, 32)"  x="17" y="15" width="1" height="1" /><rect shape-rendering="crispEdges" fill="rgb(131, 164, 98)"  x="17" y="16" width="1" height="1" /><rect shape-rendering="crispEdges" fill="rgb(131, 164, 98)"  x="17" y="17" width="1" height="1" /><rect shape-rendering="crispEdges" fill="rgb(131, 205, 115)"  x="17" y="18" width="1" height="1" /><rect shape-rendering="crispEdges" fill="rgb(131, 205, 115)"  x="17" y="19" width="1" height="1" /><rect shape-rendering="crispEdges" fill="rgb(131, 164, 98)"  x="17" y="20" width="1" height="1" /><rect shape-rendering="crispEdges" fill="rgb(57, 16, 16)"  x="17" y="21" width="1" height="1" /><rect shape-rendering="crispEdges" fill="rgb(90, 90, 82)"  x="17" y="22" width="1" height="1" /><rect shape-rendering="crispEdges" fill="rgb(49, 24, 0)"  x="17" y="23" width="1" height="1" /><rect shape-rendering="crispEdges" fill="rgb(189, 148, 98)"  x="18" y="7" width="1" height="1" /><rect shape-rendering="crispEdges" fill="rgb(90, 74, 49)"  x="18" y="8" width="1" height="1" /><rect shape-rendering="crispEdges" fill="rgb(90, 65, 49)"  x="18" y="9" width="1" height="1" /><rect shape-rendering="crispEdges" fill="rgb(90, 65, 49)"  x="18" y="10" width="1" height="1" /><rect shape-rendering="crispEdges" fill="rgb(49, 32, 32)"  x="18" y="11" width="1" height="1" /><rect shape-rendering="crispEdges" fill="rgb(49, 32, 32)"  x="18" y="13" width="1" height="1" /><rect shape-rendering="crispEdges" fill="rgb(148, 139, 148)"  x="18" y="14" width="1" height="1" /><rect shape-rendering="crispEdges" fill="rgb(90, 90, 82)"  x="18" y="15" width="1" height="1" /><rect shape-rendering="crispEdges" fill="rgb(57, 57, 41)"  x="18" y="16" width="1" height="1" /><rect shape-rendering="crispEdges" fill="rgb(57, 57, 41)"  x="18" y="17" width="1" height="1" /><rect shape-rendering="crispEdges" fill="rgb(57, 16, 16)"  x="18" y="18" width="1" height="1" /><rect shape-rendering="crispEdges" fill="rgb(57, 16, 16)"  x="18" y="19" width="1" height="1" /><rect shape-rendering="crispEdges" fill="rgb(57, 16, 16)"  x="18" y="20" width="1" height="1" /><rect shape-rendering="crispEdges" fill="rgb(90, 90, 82)"  x="18" y="21" width="1" height="1" /><rect shape-rendering="crispEdges" fill="rgb(90, 90, 82)"  x="18" y="22" width="1" height="1" /><rect shape-rendering="crispEdges" fill="rgb(49, 24, 0)"  x="18" y="23" width="1" height="1" /><rect shape-rendering="crispEdges" fill="rgb(189, 148, 98)"  x="19" y="7" width="1" height="1" /><rect shape-rendering="crispEdges" fill="rgb(90, 74, 49)"  x="19" y="8" width="1" height="1" /><rect shape-rendering="crispEdges" fill="rgb(90, 74, 49)"  x="19" y="9" width="1" height="1" /><rect shape-rendering="crispEdges" fill="rgb(90, 65, 49)"  x="19" y="10" width="1" height="1" /><rect shape-rendering="crispEdges" fill="rgb(49, 32, 32)"  x="19" y="11" width="1" height="1" /><rect shape-rendering="crispEdges" fill="rgb(49, 32, 32)"  x="19" y="13" width="1" height="1" /><rect shape-rendering="crispEdges" fill="rgb(65, 57, 41)"  x="19" y="14" width="1" height="1" /><rect shape-rendering="crispEdges" fill="rgb(148, 139, 148)"  x="19" y="15" width="1" height="1" /><rect shape-rendering="crispEdges" fill="rgb(148, 139, 148)"  x="19" y="16" width="1" height="1" /><rect shape-rendering="crispEdges" fill="rgb(148, 139, 148)"  x="19" y="17" width="1" height="1" /><rect shape-rendering="crispEdges" fill="rgb(148, 139, 148)"  x="19" y="18" width="1" height="1" /><rect shape-rendering="crispEdges" fill="rgb(148, 139, 148)"  x="19" y="19" width="1" height="1" /><rect shape-rendering="crispEdges" fill="rgb(148, 139, 148)"  x="19" y="20" width="1" height="1" /><rect shape-rendering="crispEdges" fill="rgb(90, 90, 82)"  x="19" y="21" width="1" height="1" /><rect shape-rendering="crispEdges" fill="rgb(49, 24, 0)"  x="19" y="22" width="1" height="1" /><rect shape-rendering="crispEdges" fill="rgb(189, 148, 98)"  x="20" y="7" width="1" height="1" /><rect shape-rendering="crispEdges" fill="rgb(90, 74, 49)"  x="20" y="8" width="1" height="1" /><rect shape-rendering="crispEdges" fill="rgb(90, 74, 49)"  x="20" y="9" width="1" height="1" /><rect shape-rendering="crispEdges" fill="rgb(90, 74, 49)"  x="20" y="10" width="1" height="1" /><rect shape-rendering="crispEdges" fill="rgb(41, 41, 32)"  x="20" y="11" width="1" height="1" /><rect shape-rendering="crispEdges" fill="rgb(65, 57, 41)"  x="20" y="14" width="1" height="1" /><rect shape-rendering="crispEdges" fill="rgb(90, 90, 82)"  x="20" y="15" width="1" height="1" /><rect shape-rendering="crispEdges" fill="rgb(148, 139, 148)"  x="20" y="16" width="1" height="1" /><rect shape-rendering="crispEdges" fill="rgb(148, 139, 148)"  x="20" y="17" width="1" height="1" /><rect shape-rendering="crispEdges" fill="rgb(148, 139, 148)"  x="20" y="18" width="1" height="1" /><rect shape-rendering="crispEdges" fill="rgb(90, 90, 82)"  x="20" y="19" width="1" height="1" /><rect shape-rendering="crispEdges" fill="rgb(90, 90, 82)"  x="20" y="20" width="1" height="1" /><rect shape-rendering="crispEdges" fill="rgb(90, 90, 82)"  x="20" y="21" width="1" height="1" /><rect shape-rendering="crispEdges" fill="rgb(49, 24, 0)"  x="20" y="22" width="1" height="1" /><rect shape-rendering="crispEdges" fill="rgb(189, 148, 98)"  x="21" y="7" width="1" height="1" /><rect shape-rendering="crispEdges" fill="rgb(90, 74, 49)"  x="21" y="8" width="1" height="1" /><rect shape-rendering="crispEdges" fill="rgb(90, 74, 49)"  x="21" y="9" width="1" height="1" /><rect shape-rendering="crispEdges" fill="rgb(49, 32, 32)"  x="21" y="10" width="1" height="1" /><rect shape-rendering="crispEdges" fill="rgb(41, 41, 32)"  x="21" y="11" width="1" height="1" /><rect shape-rendering="crispEdges" fill="rgb(49, 24, 0)"  x="21" y="14" width="1" height="1" /><rect shape-rendering="crispEdges" fill="rgb(49, 24, 0)"  x="21" y="15" width="1" height="1" /><rect shape-rendering="crispEdges" fill="rgb(90, 90, 82)"  x="21" y="16" width="1" height="1" /><rect shape-rendering="crispEdges" fill="rgb(90, 90, 82)"  x="21" y="17" width="1" height="1" /><rect shape-rendering="crispEdges" fill="rgb(90, 90, 82)"  x="21" y="18" width="1" height="1" /><rect shape-rendering="crispEdges" fill="rgb(90, 90, 82)"  x="21" y="19" width="1" height="1" /><rect shape-rendering="crispEdges" fill="rgb(90, 90, 82)"  x="21" y="20" width="1" height="1" /><rect shape-rendering="crispEdges" fill="rgb(49, 24, 0)"  x="21" y="21" width="1" height="1" /><rect shape-rendering="crispEdges" fill="rgb(189, 148, 98)"  x="22" y="7" width="1" height="1" /><rect shape-rendering="crispEdges" fill="rgb(90, 74, 49)"  x="22" y="8" width="1" height="1" /><rect shape-rendering="crispEdges" fill="rgb(41, 41, 32)"  x="22" y="9" width="1" height="1" /><rect shape-rendering="crispEdges" fill="rgb(49, 32, 32)"  x="22" y="10" width="1" height="1" /><rect shape-rendering="crispEdges" fill="rgb(41, 41, 32)"  x="22" y="11" width="1" height="1" /><rect shape-rendering="crispEdges" fill="rgb(49, 32, 32)"  x="22" y="12" width="1" height="1" /><rect shape-rendering="crispEdges" fill="rgb(0, 0, 0)"  x="22" y="13" width="1" height="1" /><rect shape-rendering="crispEdges" fill="rgb(0, 0, 0)"  x="22" y="14" width="1" height="1" /><rect shape-rendering="crispEdges" fill="rgb(0, 0, 0)"  x="22" y="15" width="1" height="1" /><rect shape-rendering="crispEdges" fill="rgb(0, 0, 0)"  x="22" y="16" width="1" height="1" /><rect shape-rendering="crispEdges" fill="rgb(0, 0, 0)"  x="22" y="17" width="1" height="1" /><rect shape-rendering="crispEdges" fill="rgb(0, 0, 0)"  x="22" y="18" width="1" height="1" /><rect shape-rendering="crispEdges" fill="rgb(90, 90, 82)"  x="22" y="19" width="1" height="1" /><rect shape-rendering="crispEdges" fill="rgb(49, 24, 0)"  x="22" y="20" width="1" height="1" /><rect shape-rendering="crispEdges" fill="rgb(189, 148, 98)"  x="23" y="7" width="1" height="1" /><rect shape-rendering="crispEdges" fill="rgb(90, 74, 49)"  x="23" y="8" width="1" height="1" /><rect shape-rendering="crispEdges" fill="rgb(41, 41, 32)"  x="23" y="9" width="1" height="1" /><rect shape-rendering="crispEdges" fill="rgb(49, 32, 32)"  x="23" y="10" width="1" height="1" /><rect shape-rendering="crispEdges" fill="rgb(41, 41, 32)"  x="23" y="11" width="1" height="1" /><rect shape-rendering="crispEdges" fill="rgb(41, 41, 32)"  x="23" y="12" width="1" height="1" /><rect shape-rendering="crispEdges" fill="rgb(189, 148, 98)"  x="23" y="13" width="1" height="1" /><rect shape-rendering="crispEdges" fill="rgb(189, 148, 98)"  x="23" y="14" width="1" height="1" /><rect shape-rendering="crispEdges" fill="rgb(189, 148, 98)"  x="23" y="15" width="1" height="1" /><rect shape-rendering="crispEdges" fill="rgb(189, 148, 98)"  x="23" y="16" width="1" height="1" /><rect shape-rendering="crispEdges" fill="rgb(115, 90, 65)"  x="23" y="17" width="1" height="1" /><rect shape-rendering="crispEdges" fill="rgb(115, 90, 65)"  x="23" y="18" width="1" height="1" /><rect shape-rendering="crispEdges" fill="rgb(0, 0, 0)"  x="23" y="19" width="1" height="1" /><rect shape-rendering="crispEdges" fill="rgb(189, 148, 98)"  x="24" y="8" width="1" height="1" /><rect shape-rendering="crispEdges" fill="rgb(41, 41, 32)"  x="24" y="9" width="1" height="1" /><rect shape-rendering="crispEdges" fill="rgb(41, 41, 32)"  x="24" y="10" width="1" height="1" /><rect shape-rendering="crispEdges" fill="rgb(41, 41, 32)"  x="24" y="11" width="1" height="1" /><rect shape-rendering="crispEdges" fill="rgb(65, 57, 41)"  x="24" y="12" width="1" height="1" /><rect shape-rendering="crispEdges" fill="rgb(189, 148, 98)"  x="24" y="13" width="1" height="1" /><rect shape-rendering="crispEdges" fill="rgb(139, 115, 74)"  x="24" y="14" width="1" height="1" /><rect shape-rendering="crispEdges" fill="rgb(139, 115, 74)"  x="24" y="15" width="1" height="1" /><rect shape-rendering="crispEdges" fill="rgb(139, 115, 74)"  x="24" y="16" width="1" height="1" /><rect shape-rendering="crispEdges" fill="rgb(139, 115, 74)"  x="24" y="17" width="1" height="1" /><rect shape-rendering="crispEdges" fill="rgb(115, 90, 65)"  x="24" y="18" width="1" height="1" /><rect shape-rendering="crispEdges" fill="rgb(0, 0, 0)"  x="24" y="19" width="1" height="1" /><rect shape-rendering="crispEdges" fill="rgb(189, 148, 98)"  x="25" y="8" width="1" height="1" /><rect shape-rendering="crispEdges" fill="rgb(189, 148, 98)"  x="25" y="9" width="1" height="1" /><rect shape-rendering="crispEdges" fill="rgb(189, 148, 98)"  x="25" y="10" width="1" height="1" /><rect shape-rendering="crispEdges" fill="rgb(189, 148, 98)"  x="25" y="11" width="1" height="1" /><rect shape-rendering="crispEdges" fill="rgb(65, 57, 41)"  x="25" y="12" width="1" height="1" /><rect shape-rendering="crispEdges" fill="rgb(65, 57, 41)"  x="25" y="13" width="1" height="1" /><rect shape-rendering="crispEdges" fill="rgb(65, 57, 41)"  x="25" y="14" width="1" height="1" /><rect shape-rendering="crispEdges" fill="rgb(65, 57, 41)"  x="25" y="15" width="1" height="1" /><rect shape-rendering="crispEdges" fill="rgb(41, 41, 32)"  x="25" y="16" width="1" height="1" /><rect shape-rendering="crispEdges" fill="rgb(41, 41, 32)"  x="25" y="17" width="1" height="1" /><rect shape-rendering="crispEdges" fill="rgb(41, 41, 32)"  x="25" y="18" width="1" height="1" /><rect shape-rendering="crispEdges" fill="rgb(115, 90, 65)"  x="26" y="9" width="1" height="1" /><rect shape-rendering="crispEdges" fill="rgb(139, 115, 74)"  x="26" y="10" width="1" height="1" /><rect shape-rendering="crispEdges" fill="rgb(139, 115, 74)"  x="26" y="11" width="1" height="1" /><rect shape-rendering="crispEdges" fill="rgb(139, 115, 74)"  x="26" y="12" width="1" height="1" /><rect shape-rendering="crispEdges" fill="rgb(139, 115, 74)"  x="26" y="13" width="1" height="1" /><rect shape-rendering="crispEdges" fill="rgb(139, 115, 74)"  x="26" y="14" width="1" height="1" /><rect shape-rendering="crispEdges" fill="rgb(139, 115, 74)"  x="26" y="15" width="1" height="1" /><rect shape-rendering="crispEdges" fill="rgb(139, 115, 74)"  x="26" y="16" width="1" height="1" /><rect shape-rendering="crispEdges" fill="rgb(41, 41, 32)"  x="26" y="17" width="1" height="1" /><rect shape-rendering="crispEdges" fill="rgb(115, 90, 65)"  x="27" y="10" width="1" height="1" /><rect shape-rendering="crispEdges" fill="rgb(115, 90, 65)"  x="27" y="11" width="1" height="1" /><rect shape-rendering="crispEdges" fill="rgb(115, 90, 65)"  x="27" y="12" width="1" height="1" /><rect shape-rendering="crispEdges" fill="rgb(65, 57, 41)"  x="27" y="13" width="1" height="1" /><rect shape-rendering="crispEdges" fill="rgb(41, 41, 32)"  x="27" y="14" width="1" height="1" /><rect shape-rendering="crispEdges" fill="rgb(82, 41, 0)"  x="27" y="15" width="1" height="1" /><rect shape-rendering="crispEdges" fill="rgb(41, 41, 32)"  x="27" y="16" width="1" height="1" /></svg>