<svg xmlns="http://www.w3.org/2000/svg" xmlns:xlink= "http://www.w3.org/1999/xlink" width="32" height="32" viewBox ="0 0 32 32"><rect shape-rendering="crispEdges" fill="rgb(106, 106, 205)"  x="1" y="18" width="1" height="1" /><rect shape-rendering="crispEdges" fill="rgb(82, 82, 172)"  x="1" y="19" width="1" height="1" /><rect shape-rendering="crispEdges" fill="rgb(65, 74, 139)"  x="1" y="20" width="1" height="1" /><rect shape-rendering="crispEdges" fill="rgb(65, 74, 139)"  x="1" y="21" width="1" height="1" /><rect shape-rendering="crispEdges" fill="rgb(65, 74, 139)"  x="1" y="22" width="1" height="1" /><rect shape-rendering="crispEdges" fill="rgb(106, 106, 205)"  x="2" y="16" width="1" height="1" /><rect shape-rendering="crispEdges" fill="rgb(82, 82, 172)"  x="2" y="17" width="1" height="1" /><rect shape-rendering="crispEdges" fill="rgb(82, 82, 172)"  x="2" y="18" width="1" height="1" /><rect shape-rendering="crispEdges" fill="rgb(65, 74, 139)"  x="2" y="19" width="1" height="1" /><rect shape-rendering="crispEdges" fill="rgb(65, 74, 139)"  x="2" y="20" width="1" height="1" /><rect shape-rendering="crispEdges" fill="rgb(172, 164, 222)"  x="3" y="14" width="1" height="1" /><rect shape-rendering="crispEdges" fill="rgb(172, 172, 246)"  x="3" y="15" width="1" height="1" /><rect shape-rendering="crispEdges" fill="rgb(82, 82, 172)"  x="3" y="16" width="1" height="1" /><rect shape-rendering="crispEdges" fill="rgb(82, 82, 172)"  x="3" y="17" width="1" height="1" /><rect shape-rendering="crispEdges" fill="rgb(65, 74, 139)"  x="3" y="18" width="1" height="1" /><rect shape-rendering="crispEdges" fill="rgb(230, 230, 255)"  x="4" y="12" width="1" height="1" /><rect shape-rendering="crispEdges" fill="rgb(230, 230, 255)"  x="4" y="13" width="1" height="1" /><rect shape-rendering="crispEdges" fill="rgb(197, 197, 246)"  x="4" y="14" width="1" height="1" /><rect shape-rendering="crispEdges" fill="rgb(172, 180, 230)"  x="4" y="15" width="1" height="1" /><rect shape-rendering="crispEdges" fill="rgb(82, 82, 172)"  x="4" y="16" width="1" height="1" /><rect shape-rendering="crispEdges" fill="rgb(230, 230, 255)"  x="5" y="11" width="1" height="1" /><rect shape-rendering="crispEdges" fill="rgb(246, 246, 255)"  x="5" y="12" width="1" height="1" /><rect shape-rendering="crispEdges" fill="rgb(205, 205, 246)"  x="5" y="13" width="1" height="1" /><rect shape-rendering="crispEdges" fill="rgb(172, 180, 230)"  x="5" y="14" width="1" height="1" /><rect shape-rendering="crispEdges" fill="rgb(106, 106, 205)"  x="5" y="15" width="1" height="1" /><rect shape-rendering="crispEdges" fill="rgb(189, 189, 213)"  x="6" y="6" width="1" height="1" /><rect shape-rendering="crispEdges" fill="rgb(189, 189, 213)"  x="6" y="7" width="1" height="1" /><rect shape-rendering="crispEdges" fill="rgb(230, 230, 255)"  x="6" y="9" width="1" height="1" /><rect shape-rendering="crispEdges" fill="rgb(230, 230, 255)"  x="6" y="10" width="1" height="1" /><rect shape-rendering="crispEdges" fill="rgb(246, 246, 255)"  x="6" y="11" width="1" height="1" /><rect shape-rendering="crispEdges" fill="rgb(205, 205, 246)"  x="6" y="12" width="1" height="1" /><rect shape-rendering="crispEdges" fill="rgb(205, 205, 246)"  x="6" y="13" width="1" height="1" /><rect shape-rendering="crispEdges" fill="rgb(148, 148, 213)"  x="6" y="14" width="1" height="1" /><rect shape-rendering="crispEdges" fill="rgb(189, 180, 213)"  x="7" y="5" width="1" height="1" /><rect shape-rendering="crispEdges" fill="rgb(222, 222, 246)"  x="7" y="6" width="1" height="1" /><rect shape-rendering="crispEdges" fill="rgb(230, 230, 255)"  x="7" y="7" width="1" height="1" /><rect shape-rendering="crispEdges" fill="rgb(180, 172, 197)"  x="7" y="8" width="1" height="1" /><rect shape-rendering="crispEdges" fill="rgb(197, 197, 238)"  x="7" y="9" width="1" height="1" /><rect shape-rendering="crispEdges" fill="rgb(222, 222, 255)"  x="7" y="10" width="1" height="1" /><rect shape-rendering="crispEdges" fill="rgb(205, 205, 246)"  x="7" y="11" width="1" height="1" /><rect shape-rendering="crispEdges" fill="rgb(205, 205, 246)"  x="7" y="12" width="1" height="1" /><rect shape-rendering="crispEdges" fill="rgb(148, 148, 213)"  x="7" y="13" width="1" height="1" /><rect shape-rendering="crispEdges" fill="rgb(131, 123, 164)"  x="8" y="5" width="1" height="1" /><rect shape-rendering="crispEdges" fill="rgb(189, 180, 213)"  x="8" y="6" width="1" height="1" /><rect shape-rendering="crispEdges" fill="rgb(222, 222, 238)"  x="8" y="7" width="1" height="1" /><rect shape-rendering="crispEdges" fill="rgb(131, 123, 164)"  x="8" y="8" width="1" height="1" /><rect shape-rendering="crispEdges" fill="rgb(213, 213, 246)"  x="8" y="9" width="1" height="1" /><rect shape-rendering="crispEdges" fill="rgb(238, 238, 255)"  x="8" y="10" width="1" height="1" /><rect shape-rendering="crispEdges" fill="rgb(205, 205, 246)"  x="8" y="11" width="1" height="1" /><rect shape-rendering="crispEdges" fill="rgb(189, 189, 230)"  x="8" y="12" width="1" height="1" /><rect shape-rendering="crispEdges" fill="rgb(131, 123, 164)"  x="9" y="6" width="1" height="1" /><rect shape-rendering="crispEdges" fill="rgb(131, 123, 164)"  x="9" y="7" width="1" height="1" /><rect shape-rendering="crispEdges" fill="rgb(222, 222, 255)"  x="9" y="8" width="1" height="1" /><rect shape-rendering="crispEdges" fill="rgb(238, 238, 255)"  x="9" y="9" width="1" height="1" /><rect shape-rendering="crispEdges" fill="rgb(172, 164, 205)"  x="9" y="10" width="1" height="1" /><rect shape-rendering="crispEdges" fill="rgb(148, 148, 180)"  x="9" y="11" width="1" height="1" /><rect shape-rendering="crispEdges" fill="rgb(230, 230, 255)"  x="10" y="5" width="1" height="1" /><rect shape-rendering="crispEdges" fill="rgb(197, 197, 238)"  x="10" y="6" width="1" height="1" /><rect shape-rendering="crispEdges" fill="rgb(197, 197, 238)"  x="10" y="7" width="1" height="1" /><rect shape-rendering="crispEdges" fill="rgb(246, 246, 255)"  x="10" y="8" width="1" height="1" /><rect shape-rendering="crispEdges" fill="rgb(172, 164, 205)"  x="10" y="9" width="1" height="1" /><rect shape-rendering="crispEdges" fill="rgb(164, 164, 189)"  x="10" y="10" width="1" height="1" /><rect shape-rendering="crispEdges" fill="rgb(189, 189, 213)"  x="10" y="11" width="1" height="1" /><rect shape-rendering="crispEdges" fill="rgb(148, 148, 180)"  x="10" y="12" width="1" height="1" /><rect shape-rendering="crispEdges" fill="rgb(230, 230, 255)"  x="11" y="5" width="1" height="1" /><rect shape-rendering="crispEdges" fill="rgb(222, 222, 255)"  x="11" y="6" width="1" height="1" /><rect shape-rendering="crispEdges" fill="rgb(230, 238, 255)"  x="11" y="7" width="1" height="1" /><rect shape-rendering="crispEdges" fill="rgb(205, 205, 246)"  x="11" y="8" width="1" height="1" /><rect shape-rendering="crispEdges" fill="rgb(148, 148, 180)"  x="11" y="9" width="1" height="1" /><rect shape-rendering="crispEdges" fill="rgb(189, 189, 213)"  x="11" y="10" width="1" height="1" /><rect shape-rendering="crispEdges" fill="rgb(222, 222, 238)"  x="11" y="11" width="1" height="1" /><rect shape-rendering="crispEdges" fill="rgb(213, 213, 238)"  x="11" y="12" width="1" height="1" /><rect shape-rendering="crispEdges" fill="rgb(148, 148, 180)"  x="11" y="13" width="1" height="1" /><rect shape-rendering="crispEdges" fill="rgb(230, 230, 255)"  x="12" y="4" width="1" height="1" /><rect shape-rendering="crispEdges" fill="rgb(246, 246, 255)"  x="12" y="5" width="1" height="1" /><rect shape-rendering="crispEdges" fill="rgb(205, 205, 246)"  x="12" y="6" width="1" height="1" /><rect shape-rendering="crispEdges" fill="rgb(205, 205, 246)"  x="12" y="7" width="1" height="1" /><rect shape-rendering="crispEdges" fill="rgb(189, 189, 230)"  x="12" y="8" width="1" height="1" /><rect shape-rendering="crispEdges" fill="rgb(131, 123, 164)"  x="12" y="10" width="1" height="1" /><rect shape-rendering="crispEdges" fill="rgb(213, 213, 238)"  x="12" y="11" width="1" height="1" /><rect shape-rendering="crispEdges" fill="rgb(222, 222, 238)"  x="12" y="12" width="1" height="1" /><rect shape-rendering="crispEdges" fill="rgb(230, 230, 255)"  x="12" y="13" width="1" height="1" /><rect shape-rendering="crispEdges" fill="rgb(189, 189, 213)"  x="12" y="14" width="1" height="1" /><rect shape-rendering="crispEdges" fill="rgb(246, 246, 255)"  x="13" y="4" width="1" height="1" /><rect shape-rendering="crispEdges" fill="rgb(205, 205, 246)"  x="13" y="5" width="1" height="1" /><rect shape-rendering="crispEdges" fill="rgb(205, 205, 246)"  x="13" y="6" width="1" height="1" /><rect shape-rendering="crispEdges" fill="rgb(148, 148, 213)"  x="13" y="7" width="1" height="1" /><rect shape-rendering="crispEdges" fill="rgb(131, 123, 164)"  x="13" y="11" width="1" height="1" /><rect shape-rendering="crispEdges" fill="rgb(222, 230, 246)"  x="13" y="12" width="1" height="1" /><rect shape-rendering="crispEdges" fill="rgb(222, 230, 246)"  x="13" y="13" width="1" height="1" /><rect shape-rendering="crispEdges" fill="rgb(230, 238, 255)"  x="13" y="14" width="1" height="1" /><rect shape-rendering="crispEdges" fill="rgb(189, 189, 213)"  x="13" y="15" width="1" height="1" /><rect shape-rendering="crispEdges" fill="rgb(246, 246, 255)"  x="14" y="3" width="1" height="1" /><rect shape-rendering="crispEdges" fill="rgb(205, 205, 246)"  x="14" y="4" width="1" height="1" /><rect shape-rendering="crispEdges" fill="rgb(172, 180, 230)"  x="14" y="5" width="1" height="1" /><rect shape-rendering="crispEdges" fill="rgb(148, 148, 213)"  x="14" y="6" width="1" height="1" /><rect shape-rendering="crispEdges" fill="rgb(189, 189, 213)"  x="14" y="12" width="1" height="1" /><rect shape-rendering="crispEdges" fill="rgb(230, 230, 255)"  x="14" y="13" width="1" height="1" /><rect shape-rendering="crispEdges" fill="rgb(230, 238, 255)"  x="14" y="14" width="1" height="1" /><rect shape-rendering="crispEdges" fill="rgb(230, 238, 255)"  x="14" y="15" width="1" height="1" /><rect shape-rendering="crispEdges" fill="rgb(189, 189, 213)"  x="14" y="16" width="1" height="1" /><rect shape-rendering="crispEdges" fill="rgb(230, 230, 255)"  x="15" y="2" width="1" height="1" /><rect shape-rendering="crispEdges" fill="rgb(189, 189, 246)"  x="15" y="3" width="1" height="1" /><rect shape-rendering="crispEdges" fill="rgb(172, 180, 230)"  x="15" y="4" width="1" height="1" /><rect shape-rendering="crispEdges" fill="rgb(106, 106, 205)"  x="15" y="5" width="1" height="1" /><rect shape-rendering="crispEdges" fill="rgb(189, 189, 213)"  x="15" y="13" width="1" height="1" /><rect shape-rendering="crispEdges" fill="rgb(230, 230, 255)"  x="15" y="14" width="1" height="1" /><rect shape-rendering="crispEdges" fill="rgb(230, 238, 255)"  x="15" y="15" width="1" height="1" /><rect shape-rendering="crispEdges" fill="rgb(230, 238, 255)"  x="15" y="16" width="1" height="1" /><rect shape-rendering="crispEdges" fill="rgb(189, 189, 213)"  x="15" y="17" width="1" height="1" /><rect shape-rendering="crispEdges" fill="rgb(172, 172, 246)"  x="16" y="2" width="1" height="1" /><rect shape-rendering="crispEdges" fill="rgb(82, 82, 172)"  x="16" y="3" width="1" height="1" /><rect shape-rendering="crispEdges" fill="rgb(82, 82, 172)"  x="16" y="4" width="1" height="1" /><rect shape-rendering="crispEdges" fill="rgb(189, 189, 213)"  x="16" y="14" width="1" height="1" /><rect shape-rendering="crispEdges" fill="rgb(230, 230, 255)"  x="16" y="15" width="1" height="1" /><rect shape-rendering="crispEdges" fill="rgb(222, 222, 246)"  x="16" y="16" width="1" height="1" /><rect shape-rendering="crispEdges" fill="rgb(230, 238, 255)"  x="16" y="17" width="1" height="1" /><rect shape-rendering="crispEdges" fill="rgb(189, 189, 213)"  x="16" y="18" width="1" height="1" /><rect shape-rendering="crispEdges" fill="rgb(82, 82, 172)"  x="17" y="2" width="1" height="1" /><rect shape-rendering="crispEdges" fill="rgb(82, 82, 172)"  x="17" y="3" width="1" height="1" /><rect shape-rendering="crispEdges" fill="rgb(189, 189, 213)"  x="17" y="15" width="1" height="1" /><rect shape-rendering="crispEdges" fill="rgb(222, 222, 246)"  x="17" y="16" width="1" height="1" /><rect shape-rendering="crispEdges" fill="rgb(222, 222, 238)"  x="17" y="17" width="1" height="1" /><rect shape-rendering="crispEdges" fill="rgb(230, 238, 255)"  x="17" y="18" width="1" height="1" /><rect shape-rendering="crispEdges" fill="rgb(189, 189, 213)"  x="17" y="19" width="1" height="1" /><rect shape-rendering="crispEdges" fill="rgb(148, 148, 213)"  x="18" y="1" width="1" height="1" /><rect shape-rendering="crispEdges" fill="rgb(82, 82, 172)"  x="18" y="2" width="1" height="1" /><rect shape-rendering="crispEdges" fill="rgb(65, 74, 139)"  x="18" y="3" width="1" height="1" /><rect shape-rendering="crispEdges" fill="rgb(189, 189, 213)"  x="18" y="16" width="1" height="1" /><rect shape-rendering="crispEdges" fill="rgb(222, 222, 246)"  x="18" y="17" width="1" height="1" /><rect shape-rendering="crispEdges" fill="rgb(222, 222, 238)"  x="18" y="18" width="1" height="1" /><rect shape-rendering="crispEdges" fill="rgb(213, 205, 230)"  x="18" y="19" width="1" height="1" /><rect shape-rendering="crispEdges" fill="rgb(164, 164, 189)"  x="18" y="20" width="1" height="1" /><rect shape-rendering="crispEdges" fill="rgb(82, 82, 172)"  x="19" y="1" width="1" height="1" /><rect shape-rendering="crispEdges" fill="rgb(65, 74, 139)"  x="19" y="2" width="1" height="1" /><rect shape-rendering="crispEdges" fill="rgb(164, 164, 189)"  x="19" y="17" width="1" height="1" /><rect shape-rendering="crispEdges" fill="rgb(213, 213, 230)"  x="19" y="18" width="1" height="1" /><rect shape-rendering="crispEdges" fill="rgb(213, 213, 230)"  x="19" y="19" width="1" height="1" /><rect shape-rendering="crispEdges" fill="rgb(197, 189, 222)"  x="19" y="20" width="1" height="1" /><rect shape-rendering="crispEdges" fill="rgb(164, 156, 197)"  x="19" y="21" width="1" height="1" /><rect shape-rendering="crispEdges" fill="rgb(164, 164, 197)"  x="19" y="22" width="1" height="1" /><rect shape-rendering="crispEdges" fill="rgb(65, 74, 139)"  x="20" y="1" width="1" height="1" /><rect shape-rendering="crispEdges" fill="rgb(65, 74, 139)"  x="20" y="2" width="1" height="1" /><rect shape-rendering="crispEdges" fill="rgb(164, 164, 189)"  x="20" y="18" width="1" height="1" /><rect shape-rendering="crispEdges" fill="rgb(213, 213, 230)"  x="20" y="19" width="1" height="1" /><rect shape-rendering="crispEdges" fill="rgb(205, 205, 230)"  x="20" y="20" width="1" height="1" /><rect shape-rendering="crispEdges" fill="rgb(197, 189, 222)"  x="20" y="21" width="1" height="1" /><rect shape-rendering="crispEdges" fill="rgb(197, 189, 222)"  x="20" y="22" width="1" height="1" /><rect shape-rendering="crispEdges" fill="rgb(172, 172, 197)"  x="20" y="23" width="1" height="1" /><rect shape-rendering="crispEdges" fill="rgb(65, 74, 139)"  x="21" y="1" width="1" height="1" /><rect shape-rendering="crispEdges" fill="rgb(164, 164, 189)"  x="21" y="19" width="1" height="1" /><rect shape-rendering="crispEdges" fill="rgb(197, 189, 222)"  x="21" y="20" width="1" height="1" /><rect shape-rendering="crispEdges" fill="rgb(197, 189, 222)"  x="21" y="21" width="1" height="1" /><rect shape-rendering="crispEdges" fill="rgb(180, 172, 205)"  x="21" y="22" width="1" height="1" /><rect shape-rendering="crispEdges" fill="rgb(197, 189, 222)"  x="21" y="23" width="1" height="1" /><rect shape-rendering="crispEdges" fill="rgb(172, 164, 197)"  x="21" y="24" width="1" height="1" /><rect shape-rendering="crispEdges" fill="rgb(65, 74, 139)"  x="22" y="1" width="1" height="1" /><rect shape-rendering="crispEdges" fill="rgb(123, 123, 156)"  x="22" y="19" width="1" height="1" /><rect shape-rendering="crispEdges" fill="rgb(148, 148, 180)"  x="22" y="20" width="1" height="1" /><rect shape-rendering="crispEdges" fill="rgb(180, 172, 205)"  x="22" y="21" width="1" height="1" /><rect shape-rendering="crispEdges" fill="rgb(180, 172, 205)"  x="22" y="22" width="1" height="1" /><rect shape-rendering="crispEdges" fill="rgb(164, 156, 189)"  x="22" y="23" width="1" height="1" /><rect shape-rendering="crispEdges" fill="rgb(180, 180, 205)"  x="22" y="24" width="1" height="1" /><rect shape-rendering="crispEdges" fill="rgb(164, 164, 189)"  x="22" y="25" width="1" height="1" /><rect shape-rendering="crispEdges" fill="rgb(123, 123, 156)"  x="23" y="20" width="1" height="1" /><rect shape-rendering="crispEdges" fill="rgb(148, 139, 172)"  x="23" y="21" width="1" height="1" /><rect shape-rendering="crispEdges" fill="rgb(148, 139, 172)"  x="23" y="22" width="1" height="1" /><rect shape-rendering="crispEdges" fill="rgb(164, 156, 189)"  x="23" y="23" width="1" height="1" /><rect shape-rendering="crispEdges" fill="rgb(164, 156, 189)"  x="23" y="24" width="1" height="1" /><rect shape-rendering="crispEdges" fill="rgb(180, 172, 205)"  x="23" y="25" width="1" height="1" /><rect shape-rendering="crispEdges" fill="rgb(131, 123, 164)"  x="23" y="26" width="1" height="1" /><rect shape-rendering="crispEdges" fill="rgb(123, 123, 156)"  x="24" y="21" width="1" height="1" /><rect shape-rendering="crispEdges" fill="rgb(148, 139, 172)"  x="24" y="22" width="1" height="1" /><rect shape-rendering="crispEdges" fill="rgb(148, 139, 172)"  x="24" y="23" width="1" height="1" /><rect shape-rendering="crispEdges" fill="rgb(164, 156, 189)"  x="24" y="24" width="1" height="1" /><rect shape-rendering="crispEdges" fill="rgb(164, 156, 189)"  x="24" y="25" width="1" height="1" /><rect shape-rendering="crispEdges" fill="rgb(164, 156, 189)"  x="24" y="26" width="1" height="1" /><rect shape-rendering="crispEdges" fill="rgb(131, 123, 164)"  x="24" y="27" width="1" height="1" /><rect shape-rendering="crispEdges" fill="rgb(123, 123, 156)"  x="25" y="22" width="1" height="1" /><rect shape-rendering="crispEdges" fill="rgb(148, 139, 172)"  x="25" y="23" width="1" height="1" /><rect shape-rendering="crispEdges" fill="rgb(148, 139, 172)"  x="25" y="24" width="1" height="1" /><rect shape-rendering="crispEdges" fill="rgb(164, 156, 189)"  x="25" y="25" width="1" height="1" /><rect shape-rendering="crispEdges" fill="rgb(164, 156, 189)"  x="25" y="26" width="1" height="1" /><rect shape-rendering="crispEdges" fill="rgb(164, 156, 189)"  x="25" y="27" width="1" height="1" /><rect shape-rendering="crispEdges" fill="rgb(131, 123, 164)"  x="25" y="28" width="1" height="1" /><rect shape-rendering="crispEdges" fill="rgb(98, 98, 123)"  x="26" y="23" width="1" height="1" /><rect shape-rendering="crispEdges" fill="rgb(148, 139, 172)"  x="26" y="24" width="1" height="1" /><rect shape-rendering="crispEdges" fill="rgb(148, 139, 172)"  x="26" y="25" width="1" height="1" /><rect shape-rendering="crispEdges" fill="rgb(164, 156, 189)"  x="26" y="26" width="1" height="1" /><rect shape-rendering="crispEdges" fill="rgb(164, 156, 189)"  x="26" y="27" width="1" height="1" /><rect shape-rendering="crispEdges" fill="rgb(164, 156, 189)"  x="26" y="28" width="1" height="1" /><rect shape-rendering="crispEdges" fill="rgb(131, 123, 164)"  x="26" y="29" width="1" height="1" /><rect shape-rendering="crispEdges" fill="rgb(123, 115, 148)"  x="26" y="30" width="1" height="1" /><rect shape-rendering="crispEdges" fill="rgb(98, 98, 123)"  x="27" y="24" width="1" height="1" /><rect shape-rendering="crispEdges" fill="rgb(148, 139, 172)"  x="27" y="25" width="1" height="1" /><rect shape-rendering="crispEdges" fill="rgb(148, 139, 172)"  x="27" y="26" width="1" height="1" /><rect shape-rendering="crispEdges" fill="rgb(164, 156, 189)"  x="27" y="27" width="1" height="1" /><rect shape-rendering="crispEdges" fill="rgb(164, 156, 189)"  x="27" y="28" width="1" height="1" /><rect shape-rendering="crispEdges" fill="rgb(148, 139, 172)"  x="27" y="29" width="1" height="1" /><rect shape-rendering="crispEdges" fill="rgb(98, 98, 123)"  x="27" y="30" width="1" height="1" /><rect shape-rendering="crispEdges" fill="rgb(98, 98, 123)"  x="28" y="25" width="1" height="1" /><rect shape-rendering="crispEdges" fill="rgb(148, 139, 172)"  x="28" y="26" width="1" height="1" /><rect shape-rendering="crispEdges" fill="rgb(148, 139, 172)"  x="28" y="27" width="1" height="1" /><rect shape-rendering="crispEdges" fill="rgb(148, 139, 172)"  x="28" y="28" width="1" height="1" /><rect shape-rendering="crispEdges" fill="rgb(98, 98, 123)"  x="28" y="29" width="1" height="1" /><rect shape-rendering="crispEdges" fill="rgb(98, 98, 123)"  x="29" y="26" width="1" height="1" /><rect shape-rendering="crispEdges" fill="rgb(148, 139, 172)"  x="29" y="27" width="1" height="1" /><rect shape-rendering="crispEdges" fill="rgb(98, 98, 123)"  x="29" y="28" width="1" height="1" /><rect shape-rendering="crispEdges" fill="rgb(98, 98, 123)"  x="30" y="26" width="1" height="1" /><rect shape-rendering="crispEdges" fill="rgb(98, 98, 123)"  x="30" y="27" width="1" height="1" /></svg>