<svg xmlns="http://www.w3.org/2000/svg" xmlns:xlink= "http://www.w3.org/1999/xlink" width="32" height="32" viewBox ="0 0 32 32"><rect shape-rendering="crispEdges" fill="rgb(222, 230, 180)"  x="3" y="11" width="1" height="1" /><rect shape-rendering="crispEdges" fill="rgb(222, 230, 180)"  x="4" y="10" width="1" height="1" /><rect shape-rendering="crispEdges" fill="rgb(238, 255, 205)"  x="4" y="11" width="1" height="1" /><rect shape-rendering="crispEdges" fill="rgb(115, 123, 106)"  x="4" y="12" width="1" height="1" /><rect shape-rendering="crispEdges" fill="rgb(222, 230, 180)"  x="5" y="9" width="1" height="1" /><rect shape-rendering="crispEdges" fill="rgb(172, 164, 148)"  x="5" y="10" width="1" height="1" /><rect shape-rendering="crispEdges" fill="rgb(148, 164, 106)"  x="5" y="11" width="1" height="1" /><rect shape-rendering="crispEdges" fill="rgb(115, 123, 106)"  x="5" y="12" width="1" height="1" /><rect shape-rendering="crispEdges" fill="rgb(172, 164, 148)"  x="6" y="9" width="1" height="1" /><rect shape-rendering="crispEdges" fill="rgb(238, 255, 205)"  x="6" y="10" width="1" height="1" /><rect shape-rendering="crispEdges" fill="rgb(115, 123, 106)"  x="6" y="11" width="1" height="1" /><rect shape-rendering="crispEdges" fill="rgb(115, 123, 106)"  x="7" y="9" width="1" height="1" /><rect shape-rendering="crispEdges" fill="rgb(172, 164, 148)"  x="7" y="10" width="1" height="1" /><rect shape-rendering="crispEdges" fill="rgb(115, 123, 106)"  x="8" y="10" width="1" height="1" /><rect shape-rendering="crispEdges" fill="rgb(115, 123, 106)"  x="8" y="11" width="1" height="1" /><rect shape-rendering="crispEdges" fill="rgb(164, 164, 156)"  x="8" y="12" width="1" height="1" /><rect shape-rendering="crispEdges" fill="rgb(115, 123, 106)"  x="8" y="13" width="1" height="1" /><rect shape-rendering="crispEdges" fill="rgb(115, 123, 106)"  x="9" y="9" width="1" height="1" /><rect shape-rendering="crispEdges" fill="rgb(172, 164, 156)"  x="9" y="10" width="1" height="1" /><rect shape-rendering="crispEdges" fill="rgb(180, 172, 164)"  x="9" y="11" width="1" height="1" /><rect shape-rendering="crispEdges" fill="rgb(172, 172, 139)"  x="9" y="12" width="1" height="1" /><rect shape-rendering="crispEdges" fill="rgb(164, 164, 156)"  x="9" y="13" width="1" height="1" /><rect shape-rendering="crispEdges" fill="rgb(115, 123, 106)"  x="9" y="14" width="1" height="1" /><rect shape-rendering="crispEdges" fill="rgb(189, 180, 156)"  x="10" y="9" width="1" height="1" /><rect shape-rendering="crispEdges" fill="rgb(172, 164, 156)"  x="10" y="10" width="1" height="1" /><rect shape-rendering="crispEdges" fill="rgb(205, 205, 172)"  x="10" y="11" width="1" height="1" /><rect shape-rendering="crispEdges" fill="rgb(172, 172, 139)"  x="10" y="12" width="1" height="1" /><rect shape-rendering="crispEdges" fill="rgb(255, 255, 255)"  x="10" y="13" width="1" height="1" /><rect shape-rendering="crispEdges" fill="rgb(180, 172, 164)"  x="10" y="14" width="1" height="1" /><rect shape-rendering="crispEdges" fill="rgb(115, 123, 106)"  x="10" y="15" width="1" height="1" /><rect shape-rendering="crispEdges" fill="rgb(148, 131, 131)"  x="11" y="9" width="1" height="1" /><rect shape-rendering="crispEdges" fill="rgb(180, 197, 148)"  x="11" y="10" width="1" height="1" /><rect shape-rendering="crispEdges" fill="rgb(255, 255, 238)"  x="11" y="11" width="1" height="1" /><rect shape-rendering="crispEdges" fill="rgb(172, 172, 139)"  x="11" y="12" width="1" height="1" /><rect shape-rendering="crispEdges" fill="rgb(230, 255, 205)"  x="11" y="13" width="1" height="1" /><rect shape-rendering="crispEdges" fill="rgb(246, 255, 213)"  x="11" y="14" width="1" height="1" /><rect shape-rendering="crispEdges" fill="rgb(115, 123, 106)"  x="11" y="15" width="1" height="1" /><rect shape-rendering="crispEdges" fill="rgb(115, 123, 106)"  x="12" y="9" width="1" height="1" /><rect shape-rendering="crispEdges" fill="rgb(172, 164, 156)"  x="12" y="10" width="1" height="1" /><rect shape-rendering="crispEdges" fill="rgb(172, 172, 139)"  x="12" y="11" width="1" height="1" /><rect shape-rendering="crispEdges" fill="rgb(246, 255, 222)"  x="12" y="12" width="1" height="1" /><rect shape-rendering="crispEdges" fill="rgb(172, 172, 139)"  x="12" y="13" width="1" height="1" /><rect shape-rendering="crispEdges" fill="rgb(222, 230, 180)"  x="12" y="14" width="1" height="1" /><rect shape-rendering="crispEdges" fill="rgb(164, 164, 156)"  x="12" y="15" width="1" height="1" /><rect shape-rendering="crispEdges" fill="rgb(115, 123, 106)"  x="12" y="16" width="1" height="1" /><rect shape-rendering="crispEdges" fill="rgb(172, 164, 156)"  x="13" y="10" width="1" height="1" /><rect shape-rendering="crispEdges" fill="rgb(238, 255, 205)"  x="13" y="11" width="1" height="1" /><rect shape-rendering="crispEdges" fill="rgb(172, 172, 139)"  x="13" y="12" width="1" height="1" /><rect shape-rendering="crispEdges" fill="rgb(197, 205, 172)"  x="13" y="13" width="1" height="1" /><rect shape-rendering="crispEdges" fill="rgb(172, 172, 139)"  x="13" y="14" width="1" height="1" /><rect shape-rendering="crispEdges" fill="rgb(213, 230, 180)"  x="13" y="15" width="1" height="1" /><rect shape-rendering="crispEdges" fill="rgb(172, 189, 139)"  x="13" y="16" width="1" height="1" /><rect shape-rendering="crispEdges" fill="rgb(115, 123, 106)"  x="13" y="17" width="1" height="1" /><rect shape-rendering="crispEdges" fill="rgb(115, 123, 106)"  x="14" y="10" width="1" height="1" /><rect shape-rendering="crispEdges" fill="rgb(238, 255, 205)"  x="14" y="11" width="1" height="1" /><rect shape-rendering="crispEdges" fill="rgb(172, 172, 139)"  x="14" y="12" width="1" height="1" /><rect shape-rendering="crispEdges" fill="rgb(238, 255, 213)"  x="14" y="13" width="1" height="1" /><rect shape-rendering="crispEdges" fill="rgb(115, 123, 106)"  x="14" y="14" width="1" height="1" /><rect shape-rendering="crispEdges" fill="rgb(213, 230, 180)"  x="14" y="15" width="1" height="1" /><rect shape-rendering="crispEdges" fill="rgb(172, 172, 139)"  x="14" y="16" width="1" height="1" /><rect shape-rendering="crispEdges" fill="rgb(172, 189, 139)"  x="14" y="17" width="1" height="1" /><rect shape-rendering="crispEdges" fill="rgb(115, 123, 106)"  x="14" y="18" width="1" height="1" /><rect shape-rendering="crispEdges" fill="rgb(164, 164, 131)"  x="15" y="11" width="1" height="1" /><rect shape-rendering="crispEdges" fill="rgb(255, 255, 230)"  x="15" y="12" width="1" height="1" /><rect shape-rendering="crispEdges" fill="rgb(172, 172, 139)"  x="15" y="13" width="1" height="1" /><rect shape-rendering="crispEdges" fill="rgb(172, 172, 139)"  x="15" y="14" width="1" height="1" /><rect shape-rendering="crispEdges" fill="rgb(115, 123, 106)"  x="15" y="15" width="1" height="1" /><rect shape-rendering="crispEdges" fill="rgb(172, 172, 139)"  x="15" y="16" width="1" height="1" /><rect shape-rendering="crispEdges" fill="rgb(255, 255, 230)"  x="15" y="17" width="1" height="1" /><rect shape-rendering="crispEdges" fill="rgb(172, 189, 139)"  x="15" y="18" width="1" height="1" /><rect shape-rendering="crispEdges" fill="rgb(115, 123, 106)"  x="15" y="19" width="1" height="1" /><rect shape-rendering="crispEdges" fill="rgb(115, 123, 106)"  x="16" y="11" width="1" height="1" /><rect shape-rendering="crispEdges" fill="rgb(230, 255, 189)"  x="16" y="12" width="1" height="1" /><rect shape-rendering="crispEdges" fill="rgb(238, 255, 205)"  x="16" y="13" width="1" height="1" /><rect shape-rendering="crispEdges" fill="rgb(172, 172, 139)"  x="16" y="14" width="1" height="1" /><rect shape-rendering="crispEdges" fill="rgb(255, 255, 230)"  x="16" y="15" width="1" height="1" /><rect shape-rendering="crispEdges" fill="rgb(172, 172, 139)"  x="16" y="16" width="1" height="1" /><rect shape-rendering="crispEdges" fill="rgb(213, 230, 180)"  x="16" y="17" width="1" height="1" /><rect shape-rendering="crispEdges" fill="rgb(213, 230, 180)"  x="16" y="18" width="1" height="1" /><rect shape-rendering="crispEdges" fill="rgb(172, 189, 139)"  x="16" y="19" width="1" height="1" /><rect shape-rendering="crispEdges" fill="rgb(115, 123, 106)"  x="16" y="20" width="1" height="1" /><rect shape-rendering="crispEdges" fill="rgb(115, 123, 106)"  x="16" y="21" width="1" height="1" /><rect shape-rendering="crispEdges" fill="rgb(172, 172, 139)"  x="17" y="12" width="1" height="1" /><rect shape-rendering="crispEdges" fill="rgb(115, 123, 106)"  x="17" y="13" width="1" height="1" /><rect shape-rendering="crispEdges" fill="rgb(172, 172, 139)"  x="17" y="14" width="1" height="1" /><rect shape-rendering="crispEdges" fill="rgb(246, 255, 222)"  x="17" y="15" width="1" height="1" /><rect shape-rendering="crispEdges" fill="rgb(172, 172, 139)"  x="17" y="16" width="1" height="1" /><rect shape-rendering="crispEdges" fill="rgb(148, 139, 115)"  x="17" y="17" width="1" height="1" /><rect shape-rendering="crispEdges" fill="rgb(213, 230, 180)"  x="17" y="18" width="1" height="1" /><rect shape-rendering="crispEdges" fill="rgb(255, 255, 230)"  x="17" y="19" width="1" height="1" /><rect shape-rendering="crispEdges" fill="rgb(172, 189, 139)"  x="17" y="20" width="1" height="1" /><rect shape-rendering="crispEdges" fill="rgb(115, 123, 106)"  x="17" y="21" width="1" height="1" /><rect shape-rendering="crispEdges" fill="rgb(115, 123, 106)"  x="17" y="22" width="1" height="1" /><rect shape-rendering="crispEdges" fill="rgb(115, 123, 106)"  x="17" y="23" width="1" height="1" /><rect shape-rendering="crispEdges" fill="rgb(205, 213, 164)"  x="18" y="13" width="1" height="1" /><rect shape-rendering="crispEdges" fill="rgb(255, 255, 222)"  x="18" y="14" width="1" height="1" /><rect shape-rendering="crispEdges" fill="rgb(213, 222, 180)"  x="18" y="15" width="1" height="1" /><rect shape-rendering="crispEdges" fill="rgb(115, 123, 106)"  x="18" y="16" width="1" height="1" /><rect shape-rendering="crispEdges" fill="rgb(238, 255, 213)"  x="18" y="17" width="1" height="1" /><rect shape-rendering="crispEdges" fill="rgb(148, 139, 115)"  x="18" y="18" width="1" height="1" /><rect shape-rendering="crispEdges" fill="rgb(213, 230, 172)"  x="18" y="19" width="1" height="1" /><rect shape-rendering="crispEdges" fill="rgb(172, 172, 139)"  x="18" y="20" width="1" height="1" /><rect shape-rendering="crispEdges" fill="rgb(172, 172, 139)"  x="18" y="21" width="1" height="1" /><rect shape-rendering="crispEdges" fill="rgb(180, 172, 164)"  x="18" y="22" width="1" height="1" /><rect shape-rendering="crispEdges" fill="rgb(115, 123, 106)"  x="18" y="23" width="1" height="1" /><rect shape-rendering="crispEdges" fill="rgb(115, 123, 106)"  x="18" y="24" width="1" height="1" /><rect shape-rendering="crispEdges" fill="rgb(164, 164, 148)"  x="19" y="13" width="1" height="1" /><rect shape-rendering="crispEdges" fill="rgb(172, 172, 139)"  x="19" y="14" width="1" height="1" /><rect shape-rendering="crispEdges" fill="rgb(115, 123, 106)"  x="19" y="15" width="1" height="1" /><rect shape-rendering="crispEdges" fill="rgb(115, 123, 106)"  x="19" y="16" width="1" height="1" /><rect shape-rendering="crispEdges" fill="rgb(230, 255, 197)"  x="19" y="17" width="1" height="1" /><rect shape-rendering="crispEdges" fill="rgb(255, 255, 230)"  x="19" y="18" width="1" height="1" /><rect shape-rendering="crispEdges" fill="rgb(148, 139, 115)"  x="19" y="19" width="1" height="1" /><rect shape-rendering="crispEdges" fill="rgb(205, 213, 172)"  x="19" y="20" width="1" height="1" /><rect shape-rendering="crispEdges" fill="rgb(222, 230, 180)"  x="19" y="21" width="1" height="1" /><rect shape-rendering="crispEdges" fill="rgb(197, 213, 172)"  x="19" y="22" width="1" height="1" /><rect shape-rendering="crispEdges" fill="rgb(180, 172, 164)"  x="19" y="23" width="1" height="1" /><rect shape-rendering="crispEdges" fill="rgb(115, 123, 106)"  x="19" y="24" width="1" height="1" /><rect shape-rendering="crispEdges" fill="rgb(172, 164, 148)"  x="20" y="14" width="1" height="1" /><rect shape-rendering="crispEdges" fill="rgb(230, 255, 205)"  x="20" y="15" width="1" height="1" /><rect shape-rendering="crispEdges" fill="rgb(197, 205, 172)"  x="20" y="16" width="1" height="1" /><rect shape-rendering="crispEdges" fill="rgb(172, 172, 139)"  x="20" y="17" width="1" height="1" /><rect shape-rendering="crispEdges" fill="rgb(213, 238, 172)"  x="20" y="18" width="1" height="1" /><rect shape-rendering="crispEdges" fill="rgb(172, 172, 139)"  x="20" y="19" width="1" height="1" /><rect shape-rendering="crispEdges" fill="rgb(230, 255, 197)"  x="20" y="20" width="1" height="1" /><rect shape-rendering="crispEdges" fill="rgb(197, 213, 172)"  x="20" y="21" width="1" height="1" /><rect shape-rendering="crispEdges" fill="rgb(148, 139, 115)"  x="20" y="22" width="1" height="1" /><rect shape-rendering="crispEdges" fill="rgb(172, 164, 148)"  x="20" y="23" width="1" height="1" /><rect shape-rendering="crispEdges" fill="rgb(115, 123, 106)"  x="20" y="24" width="1" height="1" /><rect shape-rendering="crispEdges" fill="rgb(172, 164, 148)"  x="21" y="15" width="1" height="1" /><rect shape-rendering="crispEdges" fill="rgb(255, 255, 222)"  x="21" y="16" width="1" height="1" /><rect shape-rendering="crispEdges" fill="rgb(213, 230, 189)"  x="21" y="17" width="1" height="1" /><rect shape-rendering="crispEdges" fill="rgb(172, 172, 139)"  x="21" y="18" width="1" height="1" /><rect shape-rendering="crispEdges" fill="rgb(189, 197, 156)"  x="21" y="19" width="1" height="1" /><rect shape-rendering="crispEdges" fill="rgb(246, 255, 222)"  x="21" y="20" width="1" height="1" /><rect shape-rendering="crispEdges" fill="rgb(230, 255, 197)"  x="21" y="21" width="1" height="1" /><rect shape-rendering="crispEdges" fill="rgb(172, 180, 148)"  x="21" y="22" width="1" height="1" /><rect shape-rendering="crispEdges" fill="rgb(115, 123, 106)"  x="21" y="23" width="1" height="1" /><rect shape-rendering="crispEdges" fill="rgb(115, 123, 106)"  x="21" y="24" width="1" height="1" /><rect shape-rendering="crispEdges" fill="rgb(172, 164, 148)"  x="22" y="16" width="1" height="1" /><rect shape-rendering="crispEdges" fill="rgb(246, 255, 222)"  x="22" y="17" width="1" height="1" /><rect shape-rendering="crispEdges" fill="rgb(115, 123, 106)"  x="22" y="18" width="1" height="1" /><rect shape-rendering="crispEdges" fill="rgb(213, 213, 180)"  x="22" y="19" width="1" height="1" /><rect shape-rendering="crispEdges" fill="rgb(148, 139, 115)"  x="22" y="20" width="1" height="1" /><rect shape-rendering="crispEdges" fill="rgb(246, 255, 222)"  x="22" y="21" width="1" height="1" /><rect shape-rendering="crispEdges" fill="rgb(213, 238, 172)"  x="22" y="22" width="1" height="1" /><rect shape-rendering="crispEdges" fill="rgb(172, 164, 148)"  x="22" y="23" width="1" height="1" /><rect shape-rendering="crispEdges" fill="rgb(115, 123, 106)"  x="22" y="24" width="1" height="1" /><rect shape-rendering="crispEdges" fill="rgb(172, 164, 148)"  x="23" y="17" width="1" height="1" /><rect shape-rendering="crispEdges" fill="rgb(189, 205, 156)"  x="23" y="18" width="1" height="1" /><rect shape-rendering="crispEdges" fill="rgb(230, 255, 197)"  x="23" y="19" width="1" height="1" /><rect shape-rendering="crispEdges" fill="rgb(230, 255, 197)"  x="23" y="20" width="1" height="1" /><rect shape-rendering="crispEdges" fill="rgb(148, 139, 115)"  x="23" y="21" width="1" height="1" /><rect shape-rendering="crispEdges" fill="rgb(164, 164, 156)"  x="23" y="22" width="1" height="1" /><rect shape-rendering="crispEdges" fill="rgb(197, 213, 172)"  x="23" y="23" width="1" height="1" /><rect shape-rendering="crispEdges" fill="rgb(115, 123, 106)"  x="23" y="24" width="1" height="1" /><rect shape-rendering="crispEdges" fill="rgb(172, 164, 148)"  x="24" y="18" width="1" height="1" /><rect shape-rendering="crispEdges" fill="rgb(172, 197, 131)"  x="24" y="19" width="1" height="1" /><rect shape-rendering="crispEdges" fill="rgb(246, 255, 222)"  x="24" y="20" width="1" height="1" /><rect shape-rendering="crispEdges" fill="rgb(230, 255, 197)"  x="24" y="21" width="1" height="1" /><rect shape-rendering="crispEdges" fill="rgb(115, 123, 106)"  x="24" y="22" width="1" height="1" /><rect shape-rendering="crispEdges" fill="rgb(164, 164, 156)"  x="24" y="23" width="1" height="1" /><rect shape-rendering="crispEdges" fill="rgb(115, 123, 106)"  x="24" y="24" width="1" height="1" /><rect shape-rendering="crispEdges" fill="rgb(172, 164, 148)"  x="25" y="19" width="1" height="1" /><rect shape-rendering="crispEdges" fill="rgb(172, 197, 115)"  x="25" y="20" width="1" height="1" /><rect shape-rendering="crispEdges" fill="rgb(246, 255, 222)"  x="25" y="21" width="1" height="1" /><rect shape-rendering="crispEdges" fill="rgb(172, 164, 148)"  x="25" y="22" width="1" height="1" /><rect shape-rendering="crispEdges" fill="rgb(115, 123, 106)"  x="25" y="23" width="1" height="1" /><rect shape-rendering="crispEdges" fill="rgb(115, 123, 106)"  x="25" y="24" width="1" height="1" /><rect shape-rendering="crispEdges" fill="rgb(172, 164, 148)"  x="26" y="20" width="1" height="1" /><rect shape-rendering="crispEdges" fill="rgb(180, 172, 164)"  x="26" y="21" width="1" height="1" /><rect shape-rendering="crispEdges" fill="rgb(180, 172, 164)"  x="26" y="22" width="1" height="1" /><rect shape-rendering="crispEdges" fill="rgb(115, 123, 106)"  x="26" y="23" width="1" height="1" /><rect shape-rendering="crispEdges" fill="rgb(115, 123, 106)"  x="26" y="24" width="1" height="1" /><rect shape-rendering="crispEdges" fill="rgb(115, 123, 106)"  x="27" y="21" width="1" height="1" /><rect shape-rendering="crispEdges" fill="rgb(172, 164, 148)"  x="27" y="22" width="1" height="1" /><rect shape-rendering="crispEdges" fill="rgb(172, 164, 148)"  x="27" y="23" width="1" height="1" /><rect shape-rendering="crispEdges" fill="rgb(115, 123, 106)"  x="27" y="24" width="1" height="1" /><rect shape-rendering="crispEdges" fill="rgb(115, 123, 106)"  x="28" y="22" width="1" height="1" /><rect shape-rendering="crispEdges" fill="rgb(115, 123, 106)"  x="28" y="23" width="1" height="1" /><rect shape-rendering="crispEdges" fill="rgb(115, 123, 106)"  x="28" y="24" width="1" height="1" /></svg>