<svg xmlns="http://www.w3.org/2000/svg" xmlns:xlink= "http://www.w3.org/1999/xlink" width="32" height="32" viewBox ="0 0 32 32"><rect shape-rendering="crispEdges" fill="rgb(139, 90, 74)"  x="5" y="12" width="1" height="1" /><rect shape-rendering="crispEdges" fill="rgb(139, 90, 74)"  x="5" y="13" width="1" height="1" /><rect shape-rendering="crispEdges" fill="rgb(139, 90, 74)"  x="5" y="14" width="1" height="1" /><rect shape-rendering="crispEdges" fill="rgb(139, 90, 74)"  x="5" y="15" width="1" height="1" /><rect shape-rendering="crispEdges" fill="rgb(139, 90, 74)"  x="5" y="16" width="1" height="1" /><rect shape-rendering="crispEdges" fill="rgb(139, 90, 74)"  x="5" y="17" width="1" height="1" /><rect shape-rendering="crispEdges" fill="rgb(139, 90, 74)"  x="5" y="18" width="1" height="1" /><rect shape-rendering="crispEdges" fill="rgb(139, 90, 74)"  x="6" y="11" width="1" height="1" /><rect shape-rendering="crispEdges" fill="rgb(238, 180, 131)"  x="6" y="12" width="1" height="1" /><rect shape-rendering="crispEdges" fill="rgb(255, 246, 189)"  x="6" y="13" width="1" height="1" /><rect shape-rendering="crispEdges" fill="rgb(180, 115, 90)"  x="6" y="14" width="1" height="1" /><rect shape-rendering="crispEdges" fill="rgb(180, 115, 90)"  x="6" y="15" width="1" height="1" /><rect shape-rendering="crispEdges" fill="rgb(180, 115, 90)"  x="6" y="16" width="1" height="1" /><rect shape-rendering="crispEdges" fill="rgb(139, 90, 74)"  x="6" y="17" width="1" height="1" /><rect shape-rendering="crispEdges" fill="rgb(139, 90, 74)"  x="7" y="10" width="1" height="1" /><rect shape-rendering="crispEdges" fill="rgb(238, 180, 131)"  x="7" y="11" width="1" height="1" /><rect shape-rendering="crispEdges" fill="rgb(255, 246, 189)"  x="7" y="12" width="1" height="1" /><rect shape-rendering="crispEdges" fill="rgb(180, 115, 90)"  x="7" y="13" width="1" height="1" /><rect shape-rendering="crispEdges" fill="rgb(238, 180, 131)"  x="7" y="14" width="1" height="1" /><rect shape-rendering="crispEdges" fill="rgb(238, 180, 131)"  x="7" y="15" width="1" height="1" /><rect shape-rendering="crispEdges" fill="rgb(238, 213, 148)"  x="7" y="16" width="1" height="1" /><rect shape-rendering="crispEdges" fill="rgb(139, 90, 74)"  x="7" y="17" width="1" height="1" /><rect shape-rendering="crispEdges" fill="rgb(139, 90, 74)"  x="8" y="5" width="1" height="1" /><rect shape-rendering="crispEdges" fill="rgb(180, 115, 90)"  x="8" y="6" width="1" height="1" /><rect shape-rendering="crispEdges" fill="rgb(180, 115, 90)"  x="8" y="7" width="1" height="1" /><rect shape-rendering="crispEdges" fill="rgb(180, 115, 90)"  x="8" y="8" width="1" height="1" /><rect shape-rendering="crispEdges" fill="rgb(139, 90, 74)"  x="8" y="10" width="1" height="1" /><rect shape-rendering="crispEdges" fill="rgb(238, 180, 131)"  x="8" y="11" width="1" height="1" /><rect shape-rendering="crispEdges" fill="rgb(180, 115, 90)"  x="8" y="12" width="1" height="1" /><rect shape-rendering="crispEdges" fill="rgb(238, 180, 131)"  x="8" y="13" width="1" height="1" /><rect shape-rendering="crispEdges" fill="rgb(238, 180, 131)"  x="8" y="14" width="1" height="1" /><rect shape-rendering="crispEdges" fill="rgb(238, 213, 148)"  x="8" y="15" width="1" height="1" /><rect shape-rendering="crispEdges" fill="rgb(139, 90, 74)"  x="8" y="16" width="1" height="1" /><rect shape-rendering="crispEdges" fill="rgb(238, 180, 131)"  x="9" y="8" width="1" height="1" /><rect shape-rendering="crispEdges" fill="rgb(180, 115, 90)"  x="9" y="9" width="1" height="1" /><rect shape-rendering="crispEdges" fill="rgb(139, 90, 74)"  x="9" y="10" width="1" height="1" /><rect shape-rendering="crispEdges" fill="rgb(180, 115, 90)"  x="9" y="11" width="1" height="1" /><rect shape-rendering="crispEdges" fill="rgb(238, 180, 131)"  x="9" y="12" width="1" height="1" /><rect shape-rendering="crispEdges" fill="rgb(255, 246, 189)"  x="9" y="13" width="1" height="1" /><rect shape-rendering="crispEdges" fill="rgb(255, 246, 189)"  x="9" y="14" width="1" height="1" /><rect shape-rendering="crispEdges" fill="rgb(139, 90, 74)"  x="9" y="15" width="1" height="1" /><rect shape-rendering="crispEdges" fill="rgb(238, 180, 131)"  x="10" y="9" width="1" height="1" /><rect shape-rendering="crispEdges" fill="rgb(180, 115, 90)"  x="10" y="10" width="1" height="1" /><rect shape-rendering="crispEdges" fill="rgb(139, 90, 74)"  x="10" y="11" width="1" height="1" /><rect shape-rendering="crispEdges" fill="rgb(139, 90, 74)"  x="10" y="12" width="1" height="1" /><rect shape-rendering="crispEdges" fill="rgb(139, 90, 74)"  x="10" y="13" width="1" height="1" /><rect shape-rendering="crispEdges" fill="rgb(139, 90, 74)"  x="10" y="14" width="1" height="1" /><rect shape-rendering="crispEdges" fill="rgb(139, 90, 74)"  x="10" y="19" width="1" height="1" /><rect shape-rendering="crispEdges" fill="rgb(139, 90, 74)"  x="10" y="20" width="1" height="1" /><rect shape-rendering="crispEdges" fill="rgb(139, 90, 74)"  x="10" y="21" width="1" height="1" /><rect shape-rendering="crispEdges" fill="rgb(106, 65, 49)"  x="10" y="22" width="1" height="1" /><rect shape-rendering="crispEdges" fill="rgb(238, 180, 131)"  x="11" y="10" width="1" height="1" /><rect shape-rendering="crispEdges" fill="rgb(180, 115, 90)"  x="11" y="11" width="1" height="1" /><rect shape-rendering="crispEdges" fill="rgb(180, 115, 90)"  x="11" y="18" width="1" height="1" /><rect shape-rendering="crispEdges" fill="rgb(180, 115, 90)"  x="11" y="19" width="1" height="1" /><rect shape-rendering="crispEdges" fill="rgb(180, 115, 90)"  x="11" y="20" width="1" height="1" /><rect shape-rendering="crispEdges" fill="rgb(180, 115, 90)"  x="11" y="21" width="1" height="1" /><rect shape-rendering="crispEdges" fill="rgb(139, 90, 74)"  x="11" y="22" width="1" height="1" /><rect shape-rendering="crispEdges" fill="rgb(139, 90, 74)"  x="11" y="23" width="1" height="1" /><rect shape-rendering="crispEdges" fill="rgb(139, 90, 74)"  x="11" y="24" width="1" height="1" /><rect shape-rendering="crispEdges" fill="rgb(139, 90, 74)"  x="12" y="7" width="1" height="1" /><rect shape-rendering="crispEdges" fill="rgb(139, 90, 74)"  x="12" y="8" width="1" height="1" /><rect shape-rendering="crispEdges" fill="rgb(139, 90, 74)"  x="12" y="9" width="1" height="1" /><rect shape-rendering="crispEdges" fill="rgb(238, 180, 131)"  x="12" y="10" width="1" height="1" /><rect shape-rendering="crispEdges" fill="rgb(180, 115, 90)"  x="12" y="11" width="1" height="1" /><rect shape-rendering="crispEdges" fill="rgb(180, 115, 90)"  x="12" y="16" width="1" height="1" /><rect shape-rendering="crispEdges" fill="rgb(180, 115, 90)"  x="12" y="17" width="1" height="1" /><rect shape-rendering="crispEdges" fill="rgb(180, 115, 90)"  x="12" y="18" width="1" height="1" /><rect shape-rendering="crispEdges" fill="rgb(180, 115, 90)"  x="12" y="19" width="1" height="1" /><rect shape-rendering="crispEdges" fill="rgb(180, 115, 90)"  x="12" y="20" width="1" height="1" /><rect shape-rendering="crispEdges" fill="rgb(180, 115, 90)"  x="12" y="21" width="1" height="1" /><rect shape-rendering="crispEdges" fill="rgb(180, 115, 90)"  x="12" y="22" width="1" height="1" /><rect shape-rendering="crispEdges" fill="rgb(139, 90, 74)"  x="12" y="23" width="1" height="1" /><rect shape-rendering="crispEdges" fill="rgb(139, 90, 74)"  x="12" y="24" width="1" height="1" /><rect shape-rendering="crispEdges" fill="rgb(139, 90, 74)"  x="12" y="25" width="1" height="1" /><rect shape-rendering="crispEdges" fill="rgb(139, 90, 74)"  x="13" y="6" width="1" height="1" /><rect shape-rendering="crispEdges" fill="rgb(238, 180, 131)"  x="13" y="7" width="1" height="1" /><rect shape-rendering="crispEdges" fill="rgb(238, 180, 131)"  x="13" y="8" width="1" height="1" /><rect shape-rendering="crispEdges" fill="rgb(180, 115, 90)"  x="13" y="9" width="1" height="1" /><rect shape-rendering="crispEdges" fill="rgb(238, 180, 131)"  x="13" y="10" width="1" height="1" /><rect shape-rendering="crispEdges" fill="rgb(180, 115, 90)"  x="13" y="11" width="1" height="1" /><rect shape-rendering="crispEdges" fill="rgb(180, 115, 90)"  x="13" y="12" width="1" height="1" /><rect shape-rendering="crispEdges" fill="rgb(139, 90, 74)"  x="13" y="15" width="1" height="1" /><rect shape-rendering="crispEdges" fill="rgb(180, 115, 90)"  x="13" y="16" width="1" height="1" /><rect shape-rendering="crispEdges" fill="rgb(180, 115, 90)"  x="13" y="17" width="1" height="1" /><rect shape-rendering="crispEdges" fill="rgb(238, 180, 131)"  x="13" y="18" width="1" height="1" /><rect shape-rendering="crispEdges" fill="rgb(222, 148, 115)"  x="13" y="19" width="1" height="1" /><rect shape-rendering="crispEdges" fill="rgb(222, 148, 115)"  x="13" y="20" width="1" height="1" /><rect shape-rendering="crispEdges" fill="rgb(180, 115, 90)"  x="13" y="21" width="1" height="1" /><rect shape-rendering="crispEdges" fill="rgb(180, 115, 90)"  x="13" y="22" width="1" height="1" /><rect shape-rendering="crispEdges" fill="rgb(180, 115, 90)"  x="13" y="23" width="1" height="1" /><rect shape-rendering="crispEdges" fill="rgb(139, 90, 74)"  x="13" y="24" width="1" height="1" /><rect shape-rendering="crispEdges" fill="rgb(139, 90, 74)"  x="13" y="25" width="1" height="1" /><rect shape-rendering="crispEdges" fill="rgb(139, 90, 74)"  x="13" y="26" width="1" height="1" /><rect shape-rendering="crispEdges" fill="rgb(139, 90, 74)"  x="14" y="5" width="1" height="1" /><rect shape-rendering="crispEdges" fill="rgb(238, 180, 131)"  x="14" y="6" width="1" height="1" /><rect shape-rendering="crispEdges" fill="rgb(255, 246, 189)"  x="14" y="7" width="1" height="1" /><rect shape-rendering="crispEdges" fill="rgb(180, 115, 90)"  x="14" y="8" width="1" height="1" /><rect shape-rendering="crispEdges" fill="rgb(238, 180, 131)"  x="14" y="9" width="1" height="1" /><rect shape-rendering="crispEdges" fill="rgb(139, 90, 74)"  x="14" y="10" width="1" height="1" /><rect shape-rendering="crispEdges" fill="rgb(139, 90, 74)"  x="14" y="11" width="1" height="1" /><rect shape-rendering="crispEdges" fill="rgb(238, 180, 131)"  x="14" y="12" width="1" height="1" /><rect shape-rendering="crispEdges" fill="rgb(180, 115, 90)"  x="14" y="13" width="1" height="1" /><rect shape-rendering="crispEdges" fill="rgb(139, 90, 74)"  x="14" y="14" width="1" height="1" /><rect shape-rendering="crispEdges" fill="rgb(180, 115, 90)"  x="14" y="15" width="1" height="1" /><rect shape-rendering="crispEdges" fill="rgb(180, 115, 90)"  x="14" y="16" width="1" height="1" /><rect shape-rendering="crispEdges" fill="rgb(238, 180, 131)"  x="14" y="17" width="1" height="1" /><rect shape-rendering="crispEdges" fill="rgb(238, 213, 148)"  x="14" y="18" width="1" height="1" /><rect shape-rendering="crispEdges" fill="rgb(238, 213, 148)"  x="14" y="19" width="1" height="1" /><rect shape-rendering="crispEdges" fill="rgb(238, 180, 131)"  x="14" y="20" width="1" height="1" /><rect shape-rendering="crispEdges" fill="rgb(222, 148, 115)"  x="14" y="21" width="1" height="1" /><rect shape-rendering="crispEdges" fill="rgb(222, 148, 115)"  x="14" y="22" width="1" height="1" /><rect shape-rendering="crispEdges" fill="rgb(180, 115, 90)"  x="14" y="23" width="1" height="1" /><rect shape-rendering="crispEdges" fill="rgb(139, 90, 74)"  x="14" y="24" width="1" height="1" /><rect shape-rendering="crispEdges" fill="rgb(139, 90, 74)"  x="14" y="25" width="1" height="1" /><rect shape-rendering="crispEdges" fill="rgb(139, 90, 74)"  x="14" y="26" width="1" height="1" /><rect shape-rendering="crispEdges" fill="rgb(139, 90, 74)"  x="14" y="27" width="1" height="1" /><rect shape-rendering="crispEdges" fill="rgb(139, 90, 74)"  x="15" y="5" width="1" height="1" /><rect shape-rendering="crispEdges" fill="rgb(255, 246, 189)"  x="15" y="6" width="1" height="1" /><rect shape-rendering="crispEdges" fill="rgb(180, 115, 90)"  x="15" y="7" width="1" height="1" /><rect shape-rendering="crispEdges" fill="rgb(238, 180, 131)"  x="15" y="8" width="1" height="1" /><rect shape-rendering="crispEdges" fill="rgb(255, 246, 189)"  x="15" y="9" width="1" height="1" /><rect shape-rendering="crispEdges" fill="rgb(139, 90, 74)"  x="15" y="10" width="1" height="1" /><rect shape-rendering="crispEdges" fill="rgb(238, 180, 131)"  x="15" y="13" width="1" height="1" /><rect shape-rendering="crispEdges" fill="rgb(139, 90, 74)"  x="15" y="14" width="1" height="1" /><rect shape-rendering="crispEdges" fill="rgb(180, 115, 90)"  x="15" y="15" width="1" height="1" /><rect shape-rendering="crispEdges" fill="rgb(222, 148, 115)"  x="15" y="16" width="1" height="1" /><rect shape-rendering="crispEdges" fill="rgb(222, 148, 115)"  x="15" y="17" width="1" height="1" /><rect shape-rendering="crispEdges" fill="rgb(238, 213, 148)"  x="15" y="18" width="1" height="1" /><rect shape-rendering="crispEdges" fill="rgb(222, 148, 115)"  x="15" y="19" width="1" height="1" /><rect shape-rendering="crispEdges" fill="rgb(106, 65, 49)"  x="15" y="20" width="1" height="1" /><rect shape-rendering="crispEdges" fill="rgb(139, 90, 74)"  x="15" y="21" width="1" height="1" /><rect shape-rendering="crispEdges" fill="rgb(222, 148, 115)"  x="15" y="22" width="1" height="1" /><rect shape-rendering="crispEdges" fill="rgb(180, 115, 90)"  x="15" y="23" width="1" height="1" /><rect shape-rendering="crispEdges" fill="rgb(139, 90, 74)"  x="15" y="24" width="1" height="1" /><rect shape-rendering="crispEdges" fill="rgb(180, 115, 90)"  x="15" y="25" width="1" height="1" /><rect shape-rendering="crispEdges" fill="rgb(139, 90, 74)"  x="15" y="26" width="1" height="1" /><rect shape-rendering="crispEdges" fill="rgb(139, 90, 74)"  x="15" y="27" width="1" height="1" /><rect shape-rendering="crispEdges" fill="rgb(139, 90, 74)"  x="16" y="5" width="1" height="1" /><rect shape-rendering="crispEdges" fill="rgb(180, 115, 90)"  x="16" y="6" width="1" height="1" /><rect shape-rendering="crispEdges" fill="rgb(238, 180, 131)"  x="16" y="7" width="1" height="1" /><rect shape-rendering="crispEdges" fill="rgb(238, 180, 131)"  x="16" y="8" width="1" height="1" /><rect shape-rendering="crispEdges" fill="rgb(255, 246, 189)"  x="16" y="9" width="1" height="1" /><rect shape-rendering="crispEdges" fill="rgb(139, 90, 74)"  x="16" y="10" width="1" height="1" /><rect shape-rendering="crispEdges" fill="rgb(180, 115, 90)"  x="16" y="13" width="1" height="1" /><rect shape-rendering="crispEdges" fill="rgb(222, 148, 115)"  x="16" y="14" width="1" height="1" /><rect shape-rendering="crispEdges" fill="rgb(222, 148, 115)"  x="16" y="15" width="1" height="1" /><rect shape-rendering="crispEdges" fill="rgb(222, 148, 115)"  x="16" y="16" width="1" height="1" /><rect shape-rendering="crispEdges" fill="rgb(222, 148, 115)"  x="16" y="17" width="1" height="1" /><rect shape-rendering="crispEdges" fill="rgb(222, 148, 115)"  x="16" y="18" width="1" height="1" /><rect shape-rendering="crispEdges" fill="rgb(106, 65, 49)"  x="16" y="19" width="1" height="1" /><rect shape-rendering="crispEdges" fill="rgb(139, 90, 74)"  x="16" y="20" width="1" height="1" /><rect shape-rendering="crispEdges" fill="rgb(222, 148, 115)"  x="16" y="21" width="1" height="1" /><rect shape-rendering="crispEdges" fill="rgb(222, 148, 115)"  x="16" y="22" width="1" height="1" /><rect shape-rendering="crispEdges" fill="rgb(180, 115, 90)"  x="16" y="23" width="1" height="1" /><rect shape-rendering="crispEdges" fill="rgb(139, 90, 74)"  x="16" y="24" width="1" height="1" /><rect shape-rendering="crispEdges" fill="rgb(180, 115, 90)"  x="16" y="25" width="1" height="1" /><rect shape-rendering="crispEdges" fill="rgb(139, 90, 74)"  x="16" y="26" width="1" height="1" /><rect shape-rendering="crispEdges" fill="rgb(139, 90, 74)"  x="16" y="27" width="1" height="1" /><rect shape-rendering="crispEdges" fill="rgb(139, 90, 74)"  x="17" y="5" width="1" height="1" /><rect shape-rendering="crispEdges" fill="rgb(180, 115, 90)"  x="17" y="6" width="1" height="1" /><rect shape-rendering="crispEdges" fill="rgb(238, 180, 131)"  x="17" y="7" width="1" height="1" /><rect shape-rendering="crispEdges" fill="rgb(238, 213, 148)"  x="17" y="8" width="1" height="1" /><rect shape-rendering="crispEdges" fill="rgb(139, 90, 74)"  x="17" y="9" width="1" height="1" /><rect shape-rendering="crispEdges" fill="rgb(180, 115, 90)"  x="17" y="13" width="1" height="1" /><rect shape-rendering="crispEdges" fill="rgb(222, 148, 115)"  x="17" y="14" width="1" height="1" /><rect shape-rendering="crispEdges" fill="rgb(238, 180, 131)"  x="17" y="15" width="1" height="1" /><rect shape-rendering="crispEdges" fill="rgb(238, 180, 131)"  x="17" y="16" width="1" height="1" /><rect shape-rendering="crispEdges" fill="rgb(238, 180, 131)"  x="17" y="17" width="1" height="1" /><rect shape-rendering="crispEdges" fill="rgb(222, 148, 115)"  x="17" y="18" width="1" height="1" /><rect shape-rendering="crispEdges" fill="rgb(222, 148, 115)"  x="17" y="19" width="1" height="1" /><rect shape-rendering="crispEdges" fill="rgb(238, 180, 131)"  x="17" y="20" width="1" height="1" /><rect shape-rendering="crispEdges" fill="rgb(222, 148, 115)"  x="17" y="21" width="1" height="1" /><rect shape-rendering="crispEdges" fill="rgb(222, 148, 115)"  x="17" y="22" width="1" height="1" /><rect shape-rendering="crispEdges" fill="rgb(139, 90, 74)"  x="17" y="23" width="1" height="1" /><rect shape-rendering="crispEdges" fill="rgb(139, 90, 74)"  x="17" y="24" width="1" height="1" /><rect shape-rendering="crispEdges" fill="rgb(180, 115, 90)"  x="17" y="25" width="1" height="1" /><rect shape-rendering="crispEdges" fill="rgb(139, 90, 74)"  x="17" y="26" width="1" height="1" /><rect shape-rendering="crispEdges" fill="rgb(139, 90, 74)"  x="17" y="27" width="1" height="1" /><rect shape-rendering="crispEdges" fill="rgb(139, 90, 74)"  x="18" y="5" width="1" height="1" /><rect shape-rendering="crispEdges" fill="rgb(180, 115, 90)"  x="18" y="6" width="1" height="1" /><rect shape-rendering="crispEdges" fill="rgb(238, 213, 148)"  x="18" y="7" width="1" height="1" /><rect shape-rendering="crispEdges" fill="rgb(139, 90, 74)"  x="18" y="8" width="1" height="1" /><rect shape-rendering="crispEdges" fill="rgb(222, 148, 115)"  x="18" y="13" width="1" height="1" /><rect shape-rendering="crispEdges" fill="rgb(238, 180, 131)"  x="18" y="14" width="1" height="1" /><rect shape-rendering="crispEdges" fill="rgb(238, 180, 131)"  x="18" y="15" width="1" height="1" /><rect shape-rendering="crispEdges" fill="rgb(238, 180, 131)"  x="18" y="16" width="1" height="1" /><rect shape-rendering="crispEdges" fill="rgb(238, 180, 131)"  x="18" y="17" width="1" height="1" /><rect shape-rendering="crispEdges" fill="rgb(106, 65, 49)"  x="18" y="18" width="1" height="1" /><rect shape-rendering="crispEdges" fill="rgb(106, 65, 49)"  x="18" y="19" width="1" height="1" /><rect shape-rendering="crispEdges" fill="rgb(222, 148, 115)"  x="18" y="20" width="1" height="1" /><rect shape-rendering="crispEdges" fill="rgb(222, 148, 115)"  x="18" y="21" width="1" height="1" /><rect shape-rendering="crispEdges" fill="rgb(222, 148, 115)"  x="18" y="22" width="1" height="1" /><rect shape-rendering="crispEdges" fill="rgb(139, 90, 74)"  x="18" y="23" width="1" height="1" /><rect shape-rendering="crispEdges" fill="rgb(180, 115, 90)"  x="18" y="24" width="1" height="1" /><rect shape-rendering="crispEdges" fill="rgb(222, 148, 115)"  x="18" y="25" width="1" height="1" /><rect shape-rendering="crispEdges" fill="rgb(139, 90, 74)"  x="18" y="26" width="1" height="1" /><rect shape-rendering="crispEdges" fill="rgb(139, 90, 74)"  x="18" y="27" width="1" height="1" /><rect shape-rendering="crispEdges" fill="rgb(139, 90, 74)"  x="19" y="5" width="1" height="1" /><rect shape-rendering="crispEdges" fill="rgb(139, 90, 74)"  x="19" y="6" width="1" height="1" /><rect shape-rendering="crispEdges" fill="rgb(139, 90, 74)"  x="19" y="7" width="1" height="1" /><rect shape-rendering="crispEdges" fill="rgb(222, 148, 115)"  x="19" y="13" width="1" height="1" /><rect shape-rendering="crispEdges" fill="rgb(238, 180, 131)"  x="19" y="14" width="1" height="1" /><rect shape-rendering="crispEdges" fill="rgb(238, 213, 148)"  x="19" y="15" width="1" height="1" /><rect shape-rendering="crispEdges" fill="rgb(238, 213, 148)"  x="19" y="16" width="1" height="1" /><rect shape-rendering="crispEdges" fill="rgb(238, 213, 148)"  x="19" y="17" width="1" height="1" /><rect shape-rendering="crispEdges" fill="rgb(106, 65, 49)"  x="19" y="18" width="1" height="1" /><rect shape-rendering="crispEdges" fill="rgb(139, 90, 74)"  x="19" y="19" width="1" height="1" /><rect shape-rendering="crispEdges" fill="rgb(238, 180, 131)"  x="19" y="20" width="1" height="1" /><rect shape-rendering="crispEdges" fill="rgb(222, 148, 115)"  x="19" y="21" width="1" height="1" /><rect shape-rendering="crispEdges" fill="rgb(222, 148, 115)"  x="19" y="22" width="1" height="1" /><rect shape-rendering="crispEdges" fill="rgb(180, 115, 90)"  x="19" y="23" width="1" height="1" /><rect shape-rendering="crispEdges" fill="rgb(222, 148, 115)"  x="19" y="24" width="1" height="1" /><rect shape-rendering="crispEdges" fill="rgb(222, 148, 115)"  x="19" y="25" width="1" height="1" /><rect shape-rendering="crispEdges" fill="rgb(222, 148, 115)"  x="19" y="26" width="1" height="1" /><rect shape-rendering="crispEdges" fill="rgb(139, 90, 74)"  x="19" y="27" width="1" height="1" /><rect shape-rendering="crispEdges" fill="rgb(139, 90, 74)"  x="20" y="5" width="1" height="1" /><rect shape-rendering="crispEdges" fill="rgb(222, 148, 115)"  x="20" y="13" width="1" height="1" /><rect shape-rendering="crispEdges" fill="rgb(238, 213, 148)"  x="20" y="14" width="1" height="1" /><rect shape-rendering="crispEdges" fill="rgb(238, 213, 148)"  x="20" y="15" width="1" height="1" /><rect shape-rendering="crispEdges" fill="rgb(255, 246, 189)"  x="20" y="16" width="1" height="1" /><rect shape-rendering="crispEdges" fill="rgb(255, 246, 189)"  x="20" y="17" width="1" height="1" /><rect shape-rendering="crispEdges" fill="rgb(238, 213, 148)"  x="20" y="18" width="1" height="1" /><rect shape-rendering="crispEdges" fill="rgb(238, 213, 148)"  x="20" y="19" width="1" height="1" /><rect shape-rendering="crispEdges" fill="rgb(238, 180, 131)"  x="20" y="20" width="1" height="1" /><rect shape-rendering="crispEdges" fill="rgb(222, 148, 115)"  x="20" y="21" width="1" height="1" /><rect shape-rendering="crispEdges" fill="rgb(222, 148, 115)"  x="20" y="22" width="1" height="1" /><rect shape-rendering="crispEdges" fill="rgb(222, 148, 115)"  x="20" y="23" width="1" height="1" /><rect shape-rendering="crispEdges" fill="rgb(238, 213, 148)"  x="20" y="24" width="1" height="1" /><rect shape-rendering="crispEdges" fill="rgb(222, 148, 115)"  x="20" y="25" width="1" height="1" /><rect shape-rendering="crispEdges" fill="rgb(222, 148, 115)"  x="20" y="26" width="1" height="1" /><rect shape-rendering="crispEdges" fill="rgb(139, 90, 74)"  x="20" y="27" width="1" height="1" /><rect shape-rendering="crispEdges" fill="rgb(222, 148, 115)"  x="21" y="13" width="1" height="1" /><rect shape-rendering="crispEdges" fill="rgb(238, 213, 148)"  x="21" y="14" width="1" height="1" /><rect shape-rendering="crispEdges" fill="rgb(255, 246, 189)"  x="21" y="15" width="1" height="1" /><rect shape-rendering="crispEdges" fill="rgb(255, 246, 189)"  x="21" y="16" width="1" height="1" /><rect shape-rendering="crispEdges" fill="rgb(255, 246, 189)"  x="21" y="17" width="1" height="1" /><rect shape-rendering="crispEdges" fill="rgb(106, 65, 49)"  x="21" y="18" width="1" height="1" /><rect shape-rendering="crispEdges" fill="rgb(139, 90, 74)"  x="21" y="19" width="1" height="1" /><rect shape-rendering="crispEdges" fill="rgb(238, 180, 131)"  x="21" y="20" width="1" height="1" /><rect shape-rendering="crispEdges" fill="rgb(238, 180, 131)"  x="21" y="21" width="1" height="1" /><rect shape-rendering="crispEdges" fill="rgb(222, 148, 115)"  x="21" y="22" width="1" height="1" /><rect shape-rendering="crispEdges" fill="rgb(222, 148, 115)"  x="21" y="23" width="1" height="1" /><rect shape-rendering="crispEdges" fill="rgb(238, 213, 148)"  x="21" y="24" width="1" height="1" /><rect shape-rendering="crispEdges" fill="rgb(222, 148, 115)"  x="21" y="25" width="1" height="1" /><rect shape-rendering="crispEdges" fill="rgb(139, 90, 74)"  x="21" y="26" width="1" height="1" /><rect shape-rendering="crispEdges" fill="rgb(139, 90, 74)"  x="21" y="27" width="1" height="1" /><rect shape-rendering="crispEdges" fill="rgb(180, 115, 90)"  x="22" y="13" width="1" height="1" /><rect shape-rendering="crispEdges" fill="rgb(238, 213, 148)"  x="22" y="14" width="1" height="1" /><rect shape-rendering="crispEdges" fill="rgb(238, 213, 148)"  x="22" y="15" width="1" height="1" /><rect shape-rendering="crispEdges" fill="rgb(255, 246, 189)"  x="22" y="16" width="1" height="1" /><rect shape-rendering="crispEdges" fill="rgb(255, 246, 189)"  x="22" y="17" width="1" height="1" /><rect shape-rendering="crispEdges" fill="rgb(106, 65, 49)"  x="22" y="18" width="1" height="1" /><rect shape-rendering="crispEdges" fill="rgb(139, 90, 74)"  x="22" y="19" width="1" height="1" /><rect shape-rendering="crispEdges" fill="rgb(238, 213, 148)"  x="22" y="20" width="1" height="1" /><rect shape-rendering="crispEdges" fill="rgb(238, 180, 131)"  x="22" y="21" width="1" height="1" /><rect shape-rendering="crispEdges" fill="rgb(238, 180, 131)"  x="22" y="22" width="1" height="1" /><rect shape-rendering="crispEdges" fill="rgb(238, 213, 148)"  x="22" y="23" width="1" height="1" /><rect shape-rendering="crispEdges" fill="rgb(238, 213, 148)"  x="22" y="24" width="1" height="1" /><rect shape-rendering="crispEdges" fill="rgb(139, 90, 74)"  x="22" y="25" width="1" height="1" /><rect shape-rendering="crispEdges" fill="rgb(139, 90, 74)"  x="22" y="26" width="1" height="1" /><rect shape-rendering="crispEdges" fill="rgb(180, 115, 90)"  x="23" y="14" width="1" height="1" /><rect shape-rendering="crispEdges" fill="rgb(222, 189, 98)"  x="23" y="15" width="1" height="1" /><rect shape-rendering="crispEdges" fill="rgb(238, 180, 131)"  x="23" y="16" width="1" height="1" /><rect shape-rendering="crispEdges" fill="rgb(255, 255, 255)"  x="23" y="17" width="1" height="1" /><rect shape-rendering="crispEdges" fill="rgb(238, 213, 148)"  x="23" y="19" width="1" height="1" /><rect shape-rendering="crispEdges" fill="rgb(238, 213, 148)"  x="23" y="20" width="1" height="1" /><rect shape-rendering="crispEdges" fill="rgb(238, 213, 148)"  x="23" y="21" width="1" height="1" /><rect shape-rendering="crispEdges" fill="rgb(238, 213, 148)"  x="23" y="22" width="1" height="1" /><rect shape-rendering="crispEdges" fill="rgb(238, 180, 131)"  x="23" y="23" width="1" height="1" /><rect shape-rendering="crispEdges" fill="rgb(238, 180, 131)"  x="23" y="24" width="1" height="1" /><rect shape-rendering="crispEdges" fill="rgb(139, 90, 74)"  x="23" y="25" width="1" height="1" /><rect shape-rendering="crispEdges" fill="rgb(180, 115, 90)"  x="24" y="15" width="1" height="1" /><rect shape-rendering="crispEdges" fill="rgb(238, 180, 131)"  x="24" y="16" width="1" height="1" /><rect shape-rendering="crispEdges" fill="rgb(238, 180, 131)"  x="24" y="17" width="1" height="1" /><rect shape-rendering="crispEdges" fill="rgb(255, 246, 189)"  x="24" y="18" width="1" height="1" /><rect shape-rendering="crispEdges" fill="rgb(106, 65, 49)"  x="24" y="19" width="1" height="1" /><rect shape-rendering="crispEdges" fill="rgb(139, 90, 74)"  x="24" y="20" width="1" height="1" /><rect shape-rendering="crispEdges" fill="rgb(238, 213, 148)"  x="24" y="21" width="1" height="1" /><rect shape-rendering="crispEdges" fill="rgb(238, 180, 131)"  x="24" y="22" width="1" height="1" /><rect shape-rendering="crispEdges" fill="rgb(238, 180, 131)"  x="24" y="23" width="1" height="1" /><rect shape-rendering="crispEdges" fill="rgb(139, 90, 74)"  x="24" y="24" width="1" height="1" /><rect shape-rendering="crispEdges" fill="rgb(106, 65, 49)"  x="24" y="25" width="1" height="1" /><rect shape-rendering="crispEdges" fill="rgb(180, 115, 90)"  x="25" y="16" width="1" height="1" /><rect shape-rendering="crispEdges" fill="rgb(180, 115, 90)"  x="25" y="17" width="1" height="1" /><rect shape-rendering="crispEdges" fill="rgb(238, 180, 131)"  x="25" y="18" width="1" height="1" /><rect shape-rendering="crispEdges" fill="rgb(238, 180, 131)"  x="25" y="19" width="1" height="1" /><rect shape-rendering="crispEdges" fill="rgb(106, 65, 49)"  x="25" y="20" width="1" height="1" /><rect shape-rendering="crispEdges" fill="rgb(139, 90, 74)"  x="25" y="21" width="1" height="1" /><rect shape-rendering="crispEdges" fill="rgb(238, 180, 131)"  x="25" y="22" width="1" height="1" /><rect shape-rendering="crispEdges" fill="rgb(139, 90, 74)"  x="25" y="23" width="1" height="1" /><rect shape-rendering="crispEdges" fill="rgb(180, 115, 90)"  x="25" y="24" width="1" height="1" /><rect shape-rendering="crispEdges" fill="rgb(180, 115, 90)"  x="26" y="18" width="1" height="1" /><rect shape-rendering="crispEdges" fill="rgb(180, 115, 90)"  x="26" y="19" width="1" height="1" /><rect shape-rendering="crispEdges" fill="rgb(180, 115, 90)"  x="26" y="20" width="1" height="1" /><rect shape-rendering="crispEdges" fill="rgb(180, 115, 90)"  x="26" y="21" width="1" height="1" /><rect shape-rendering="crispEdges" fill="rgb(180, 115, 90)"  x="26" y="22" width="1" height="1" /><rect shape-rendering="crispEdges" fill="rgb(180, 115, 90)"  x="26" y="23" width="1" height="1" /></svg>