<svg xmlns="http://www.w3.org/2000/svg" xmlns:xlink= "http://www.w3.org/1999/xlink" width="32" height="32" viewBox ="0 0 32 32"><rect shape-rendering="crispEdges" fill="rgb(164, 98, 131)"  x="5" y="14" width="1" height="1" /><rect shape-rendering="crispEdges" fill="rgb(164, 98, 131)"  x="5" y="15" width="1" height="1" /><rect shape-rendering="crispEdges" fill="rgb(131, 82, 115)"  x="5" y="16" width="1" height="1" /><rect shape-rendering="crispEdges" fill="rgb(131, 82, 115)"  x="5" y="17" width="1" height="1" /><rect shape-rendering="crispEdges" fill="rgb(24, 164, 148)"  x="6" y="4" width="1" height="1" /><rect shape-rendering="crispEdges" fill="rgb(0, 148, 131)"  x="6" y="5" width="1" height="1" /><rect shape-rendering="crispEdges" fill="rgb(164, 98, 131)"  x="6" y="13" width="1" height="1" /><rect shape-rendering="crispEdges" fill="rgb(189, 115, 148)"  x="6" y="14" width="1" height="1" /><rect shape-rendering="crispEdges" fill="rgb(213, 148, 172)"  x="6" y="15" width="1" height="1" /><rect shape-rendering="crispEdges" fill="rgb(238, 172, 197)"  x="6" y="16" width="1" height="1" /><rect shape-rendering="crispEdges" fill="rgb(238, 172, 197)"  x="6" y="17" width="1" height="1" /><rect shape-rendering="crispEdges" fill="rgb(131, 82, 115)"  x="6" y="18" width="1" height="1" /><rect shape-rendering="crispEdges" fill="rgb(0, 148, 131)"  x="7" y="3" width="1" height="1" /><rect shape-rendering="crispEdges" fill="rgb(57, 180, 164)"  x="7" y="4" width="1" height="1" /><rect shape-rendering="crispEdges" fill="rgb(82, 205, 172)"  x="7" y="5" width="1" height="1" /><rect shape-rendering="crispEdges" fill="rgb(0, 148, 131)"  x="7" y="6" width="1" height="1" /><rect shape-rendering="crispEdges" fill="rgb(8, 115, 106)"  x="7" y="7" width="1" height="1" /><rect shape-rendering="crispEdges" fill="rgb(164, 98, 131)"  x="7" y="12" width="1" height="1" /><rect shape-rendering="crispEdges" fill="rgb(189, 115, 148)"  x="7" y="13" width="1" height="1" /><rect shape-rendering="crispEdges" fill="rgb(213, 148, 172)"  x="7" y="14" width="1" height="1" /><rect shape-rendering="crispEdges" fill="rgb(213, 148, 172)"  x="7" y="15" width="1" height="1" /><rect shape-rendering="crispEdges" fill="rgb(213, 148, 172)"  x="7" y="16" width="1" height="1" /><rect shape-rendering="crispEdges" fill="rgb(213, 148, 172)"  x="7" y="17" width="1" height="1" /><rect shape-rendering="crispEdges" fill="rgb(213, 148, 172)"  x="7" y="18" width="1" height="1" /><rect shape-rendering="crispEdges" fill="rgb(131, 82, 115)"  x="7" y="19" width="1" height="1" /><rect shape-rendering="crispEdges" fill="rgb(205, 74, 255)"  x="8" y="3" width="1" height="1" /><rect shape-rendering="crispEdges" fill="rgb(172, 41, 222)"  x="8" y="4" width="1" height="1" /><rect shape-rendering="crispEdges" fill="rgb(172, 41, 222)"  x="8" y="5" width="1" height="1" /><rect shape-rendering="crispEdges" fill="rgb(24, 164, 148)"  x="8" y="6" width="1" height="1" /><rect shape-rendering="crispEdges" fill="rgb(106, 222, 189)"  x="8" y="7" width="1" height="1" /><rect shape-rendering="crispEdges" fill="rgb(8, 115, 106)"  x="8" y="8" width="1" height="1" /><rect shape-rendering="crispEdges" fill="rgb(164, 98, 131)"  x="8" y="11" width="1" height="1" /><rect shape-rendering="crispEdges" fill="rgb(213, 148, 172)"  x="8" y="12" width="1" height="1" /><rect shape-rendering="crispEdges" fill="rgb(213, 148, 172)"  x="8" y="13" width="1" height="1" /><rect shape-rendering="crispEdges" fill="rgb(213, 148, 172)"  x="8" y="18" width="1" height="1" /><rect shape-rendering="crispEdges" fill="rgb(213, 148, 172)"  x="8" y="19" width="1" height="1" /><rect shape-rendering="crispEdges" fill="rgb(131, 82, 115)"  x="8" y="20" width="1" height="1" /><rect shape-rendering="crispEdges" fill="rgb(230, 106, 255)"  x="9" y="2" width="1" height="1" /><rect shape-rendering="crispEdges" fill="rgb(255, 131, 255)"  x="9" y="3" width="1" height="1" /><rect shape-rendering="crispEdges" fill="rgb(230, 106, 255)"  x="9" y="4" width="1" height="1" /><rect shape-rendering="crispEdges" fill="rgb(255, 164, 255)"  x="9" y="5" width="1" height="1" /><rect shape-rendering="crispEdges" fill="rgb(172, 41, 222)"  x="9" y="6" width="1" height="1" /><rect shape-rendering="crispEdges" fill="rgb(57, 180, 164)"  x="9" y="7" width="1" height="1" /><rect shape-rendering="crispEdges" fill="rgb(0, 148, 131)"  x="9" y="8" width="1" height="1" /><rect shape-rendering="crispEdges" fill="rgb(131, 82, 115)"  x="9" y="9" width="1" height="1" /><rect shape-rendering="crispEdges" fill="rgb(164, 98, 131)"  x="9" y="10" width="1" height="1" /><rect shape-rendering="crispEdges" fill="rgb(189, 115, 148)"  x="9" y="11" width="1" height="1" /><rect shape-rendering="crispEdges" fill="rgb(213, 148, 172)"  x="9" y="12" width="1" height="1" /><rect shape-rendering="crispEdges" fill="rgb(189, 115, 148)"  x="9" y="16" width="1" height="1" /><rect shape-rendering="crispEdges" fill="rgb(238, 172, 197)"  x="9" y="18" width="1" height="1" /><rect shape-rendering="crispEdges" fill="rgb(213, 148, 172)"  x="9" y="19" width="1" height="1" /><rect shape-rendering="crispEdges" fill="rgb(131, 82, 115)"  x="9" y="20" width="1" height="1" /><rect shape-rendering="crispEdges" fill="rgb(230, 106, 255)"  x="10" y="2" width="1" height="1" /><rect shape-rendering="crispEdges" fill="rgb(255, 255, 123)"  x="10" y="3" width="1" height="1" /><rect shape-rendering="crispEdges" fill="rgb(255, 131, 255)"  x="10" y="4" width="1" height="1" /><rect shape-rendering="crispEdges" fill="rgb(255, 164, 255)"  x="10" y="5" width="1" height="1" /><rect shape-rendering="crispEdges" fill="rgb(172, 41, 222)"  x="10" y="6" width="1" height="1" /><rect shape-rendering="crispEdges" fill="rgb(0, 148, 131)"  x="10" y="7" width="1" height="1" /><rect shape-rendering="crispEdges" fill="rgb(131, 82, 115)"  x="10" y="8" width="1" height="1" /><rect shape-rendering="crispEdges" fill="rgb(131, 82, 115)"  x="10" y="9" width="1" height="1" /><rect shape-rendering="crispEdges" fill="rgb(189, 115, 148)"  x="10" y="10" width="1" height="1" /><rect shape-rendering="crispEdges" fill="rgb(213, 148, 172)"  x="10" y="11" width="1" height="1" /><rect shape-rendering="crispEdges" fill="rgb(106, 57, 98)"  x="10" y="13" width="1" height="1" /><rect shape-rendering="crispEdges" fill="rgb(106, 57, 98)"  x="10" y="14" width="1" height="1" /><rect shape-rendering="crispEdges" fill="rgb(106, 57, 98)"  x="10" y="15" width="1" height="1" /><rect shape-rendering="crispEdges" fill="rgb(213, 148, 172)"  x="10" y="16" width="1" height="1" /><rect shape-rendering="crispEdges" fill="rgb(131, 82, 115)"  x="10" y="17" width="1" height="1" /><rect shape-rendering="crispEdges" fill="rgb(238, 172, 197)"  x="10" y="18" width="1" height="1" /><rect shape-rendering="crispEdges" fill="rgb(213, 148, 172)"  x="10" y="19" width="1" height="1" /><rect shape-rendering="crispEdges" fill="rgb(164, 98, 131)"  x="10" y="20" width="1" height="1" /><rect shape-rendering="crispEdges" fill="rgb(180, 49, 246)"  x="10" y="25" width="1" height="1" /><rect shape-rendering="crispEdges" fill="rgb(172, 41, 222)"  x="10" y="26" width="1" height="1" /><rect shape-rendering="crispEdges" fill="rgb(230, 106, 255)"  x="11" y="3" width="1" height="1" /><rect shape-rendering="crispEdges" fill="rgb(205, 74, 255)"  x="11" y="4" width="1" height="1" /><rect shape-rendering="crispEdges" fill="rgb(172, 41, 222)"  x="11" y="5" width="1" height="1" /><rect shape-rendering="crispEdges" fill="rgb(24, 164, 148)"  x="11" y="6" width="1" height="1" /><rect shape-rendering="crispEdges" fill="rgb(106, 222, 189)"  x="11" y="7" width="1" height="1" /><rect shape-rendering="crispEdges" fill="rgb(0, 148, 131)"  x="11" y="8" width="1" height="1" /><rect shape-rendering="crispEdges" fill="rgb(131, 82, 115)"  x="11" y="9" width="1" height="1" /><rect shape-rendering="crispEdges" fill="rgb(131, 82, 115)"  x="11" y="10" width="1" height="1" /><rect shape-rendering="crispEdges" fill="rgb(106, 57, 98)"  x="11" y="12" width="1" height="1" /><rect shape-rendering="crispEdges" fill="rgb(106, 57, 98)"  x="11" y="13" width="1" height="1" /><rect shape-rendering="crispEdges" fill="rgb(106, 57, 98)"  x="11" y="14" width="1" height="1" /><rect shape-rendering="crispEdges" fill="rgb(106, 57, 98)"  x="11" y="15" width="1" height="1" /><rect shape-rendering="crispEdges" fill="rgb(213, 148, 172)"  x="11" y="16" width="1" height="1" /><rect shape-rendering="crispEdges" fill="rgb(238, 172, 197)"  x="11" y="17" width="1" height="1" /><rect shape-rendering="crispEdges" fill="rgb(238, 172, 197)"  x="11" y="18" width="1" height="1" /><rect shape-rendering="crispEdges" fill="rgb(164, 98, 131)"  x="11" y="19" width="1" height="1" /><rect shape-rendering="crispEdges" fill="rgb(205, 74, 255)"  x="11" y="24" width="1" height="1" /><rect shape-rendering="crispEdges" fill="rgb(230, 106, 255)"  x="11" y="25" width="1" height="1" /><rect shape-rendering="crispEdges" fill="rgb(255, 164, 255)"  x="11" y="26" width="1" height="1" /><rect shape-rendering="crispEdges" fill="rgb(172, 41, 222)"  x="11" y="27" width="1" height="1" /><rect shape-rendering="crispEdges" fill="rgb(8, 90, 82)"  x="12" y="2" width="1" height="1" /><rect shape-rendering="crispEdges" fill="rgb(0, 148, 131)"  x="12" y="3" width="1" height="1" /><rect shape-rendering="crispEdges" fill="rgb(82, 205, 172)"  x="12" y="4" width="1" height="1" /><rect shape-rendering="crispEdges" fill="rgb(82, 205, 172)"  x="12" y="5" width="1" height="1" /><rect shape-rendering="crispEdges" fill="rgb(0, 148, 131)"  x="12" y="6" width="1" height="1" /><rect shape-rendering="crispEdges" fill="rgb(57, 180, 164)"  x="12" y="7" width="1" height="1" /><rect shape-rendering="crispEdges" fill="rgb(0, 148, 131)"  x="12" y="8" width="1" height="1" /><rect shape-rendering="crispEdges" fill="rgb(213, 148, 172)"  x="12" y="9" width="1" height="1" /><rect shape-rendering="crispEdges" fill="rgb(164, 98, 131)"  x="12" y="10" width="1" height="1" /><rect shape-rendering="crispEdges" fill="rgb(106, 57, 98)"  x="12" y="11" width="1" height="1" /><rect shape-rendering="crispEdges" fill="rgb(106, 57, 98)"  x="12" y="12" width="1" height="1" /><rect shape-rendering="crispEdges" fill="rgb(106, 57, 98)"  x="12" y="13" width="1" height="1" /><rect shape-rendering="crispEdges" fill="rgb(164, 98, 131)"  x="12" y="16" width="1" height="1" /><rect shape-rendering="crispEdges" fill="rgb(213, 148, 172)"  x="12" y="17" width="1" height="1" /><rect shape-rendering="crispEdges" fill="rgb(164, 98, 131)"  x="12" y="18" width="1" height="1" /><rect shape-rendering="crispEdges" fill="rgb(180, 49, 246)"  x="12" y="19" width="1" height="1" /><rect shape-rendering="crispEdges" fill="rgb(148, 32, 180)"  x="12" y="20" width="1" height="1" /><rect shape-rendering="crispEdges" fill="rgb(205, 74, 255)"  x="12" y="23" width="1" height="1" /><rect shape-rendering="crispEdges" fill="rgb(255, 131, 255)"  x="12" y="24" width="1" height="1" /><rect shape-rendering="crispEdges" fill="rgb(205, 74, 255)"  x="12" y="25" width="1" height="1" /><rect shape-rendering="crispEdges" fill="rgb(230, 106, 255)"  x="12" y="26" width="1" height="1" /><rect shape-rendering="crispEdges" fill="rgb(255, 164, 255)"  x="12" y="27" width="1" height="1" /><rect shape-rendering="crispEdges" fill="rgb(205, 74, 255)"  x="12" y="28" width="1" height="1" /><rect shape-rendering="crispEdges" fill="rgb(131, 24, 156)"  x="13" y="2" width="1" height="1" /><rect shape-rendering="crispEdges" fill="rgb(131, 24, 156)"  x="13" y="3" width="1" height="1" /><rect shape-rendering="crispEdges" fill="rgb(24, 164, 148)"  x="13" y="4" width="1" height="1" /><rect shape-rendering="crispEdges" fill="rgb(0, 148, 131)"  x="13" y="5" width="1" height="1" /><rect shape-rendering="crispEdges" fill="rgb(0, 148, 131)"  x="13" y="6" width="1" height="1" /><rect shape-rendering="crispEdges" fill="rgb(0, 148, 131)"  x="13" y="7" width="1" height="1" /><rect shape-rendering="crispEdges" fill="rgb(213, 148, 172)"  x="13" y="10" width="1" height="1" /><rect shape-rendering="crispEdges" fill="rgb(164, 98, 131)"  x="13" y="11" width="1" height="1" /><rect shape-rendering="crispEdges" fill="rgb(106, 57, 98)"  x="13" y="12" width="1" height="1" /><rect shape-rendering="crispEdges" fill="rgb(189, 115, 148)"  x="13" y="15" width="1" height="1" /><rect shape-rendering="crispEdges" fill="rgb(189, 115, 148)"  x="13" y="16" width="1" height="1" /><rect shape-rendering="crispEdges" fill="rgb(164, 98, 131)"  x="13" y="17" width="1" height="1" /><rect shape-rendering="crispEdges" fill="rgb(131, 82, 115)"  x="13" y="18" width="1" height="1" /><rect shape-rendering="crispEdges" fill="rgb(230, 106, 255)"  x="13" y="19" width="1" height="1" /><rect shape-rendering="crispEdges" fill="rgb(255, 131, 255)"  x="13" y="20" width="1" height="1" /><rect shape-rendering="crispEdges" fill="rgb(148, 32, 180)"  x="13" y="21" width="1" height="1" /><rect shape-rendering="crispEdges" fill="rgb(230, 106, 255)"  x="13" y="22" width="1" height="1" /><rect shape-rendering="crispEdges" fill="rgb(255, 205, 255)"  x="13" y="23" width="1" height="1" /><rect shape-rendering="crispEdges" fill="rgb(255, 255, 123)"  x="13" y="24" width="1" height="1" /><rect shape-rendering="crispEdges" fill="rgb(180, 49, 246)"  x="13" y="25" width="1" height="1" /><rect shape-rendering="crispEdges" fill="rgb(180, 49, 246)"  x="13" y="26" width="1" height="1" /><rect shape-rendering="crispEdges" fill="rgb(205, 74, 255)"  x="13" y="27" width="1" height="1" /><rect shape-rendering="crispEdges" fill="rgb(255, 164, 255)"  x="13" y="28" width="1" height="1" /><rect shape-rendering="crispEdges" fill="rgb(205, 74, 255)"  x="13" y="29" width="1" height="1" /><rect shape-rendering="crispEdges" fill="rgb(164, 32, 205)"  x="14" y="1" width="1" height="1" /><rect shape-rendering="crispEdges" fill="rgb(164, 32, 205)"  x="14" y="2" width="1" height="1" /><rect shape-rendering="crispEdges" fill="rgb(131, 24, 156)"  x="14" y="3" width="1" height="1" /><rect shape-rendering="crispEdges" fill="rgb(164, 32, 205)"  x="14" y="4" width="1" height="1" /><rect shape-rendering="crispEdges" fill="rgb(131, 24, 156)"  x="14" y="5" width="1" height="1" /><rect shape-rendering="crispEdges" fill="rgb(8, 90, 82)"  x="14" y="6" width="1" height="1" /><rect shape-rendering="crispEdges" fill="rgb(8, 90, 82)"  x="14" y="7" width="1" height="1" /><rect shape-rendering="crispEdges" fill="rgb(57, 32, 57)"  x="14" y="8" width="1" height="1" /><rect shape-rendering="crispEdges" fill="rgb(82, 41, 82)"  x="14" y="9" width="1" height="1" /><rect shape-rendering="crispEdges" fill="rgb(213, 148, 172)"  x="14" y="10" width="1" height="1" /><rect shape-rendering="crispEdges" fill="rgb(213, 148, 172)"  x="14" y="11" width="1" height="1" /><rect shape-rendering="crispEdges" fill="rgb(164, 98, 131)"  x="14" y="12" width="1" height="1" /><rect shape-rendering="crispEdges" fill="rgb(189, 115, 148)"  x="14" y="14" width="1" height="1" /><rect shape-rendering="crispEdges" fill="rgb(213, 148, 172)"  x="14" y="15" width="1" height="1" /><rect shape-rendering="crispEdges" fill="rgb(213, 148, 172)"  x="14" y="16" width="1" height="1" /><rect shape-rendering="crispEdges" fill="rgb(238, 172, 197)"  x="14" y="17" width="1" height="1" /><rect shape-rendering="crispEdges" fill="rgb(164, 98, 131)"  x="14" y="18" width="1" height="1" /><rect shape-rendering="crispEdges" fill="rgb(205, 74, 255)"  x="14" y="19" width="1" height="1" /><rect shape-rendering="crispEdges" fill="rgb(230, 106, 255)"  x="14" y="20" width="1" height="1" /><rect shape-rendering="crispEdges" fill="rgb(255, 131, 255)"  x="14" y="23" width="1" height="1" /><rect shape-rendering="crispEdges" fill="rgb(255, 255, 123)"  x="14" y="24" width="1" height="1" /><rect shape-rendering="crispEdges" fill="rgb(255, 255, 123)"  x="14" y="25" width="1" height="1" /><rect shape-rendering="crispEdges" fill="rgb(255, 205, 255)"  x="14" y="26" width="1" height="1" /><rect shape-rendering="crispEdges" fill="rgb(255, 131, 255)"  x="14" y="27" width="1" height="1" /><rect shape-rendering="crispEdges" fill="rgb(205, 74, 255)"  x="14" y="28" width="1" height="1" /><rect shape-rendering="crispEdges" fill="rgb(164, 32, 205)"  x="15" y="1" width="1" height="1" /><rect shape-rendering="crispEdges" fill="rgb(164, 197, 65)"  x="15" y="2" width="1" height="1" /><rect shape-rendering="crispEdges" fill="rgb(164, 32, 205)"  x="15" y="3" width="1" height="1" /><rect shape-rendering="crispEdges" fill="rgb(164, 32, 205)"  x="15" y="4" width="1" height="1" /><rect shape-rendering="crispEdges" fill="rgb(131, 24, 156)"  x="15" y="5" width="1" height="1" /><rect shape-rendering="crispEdges" fill="rgb(8, 90, 82)"  x="15" y="6" width="1" height="1" /><rect shape-rendering="crispEdges" fill="rgb(57, 32, 57)"  x="15" y="7" width="1" height="1" /><rect shape-rendering="crispEdges" fill="rgb(57, 32, 57)"  x="15" y="8" width="1" height="1" /><rect shape-rendering="crispEdges" fill="rgb(106, 57, 98)"  x="15" y="9" width="1" height="1" /><rect shape-rendering="crispEdges" fill="rgb(131, 82, 115)"  x="15" y="10" width="1" height="1" /><rect shape-rendering="crispEdges" fill="rgb(213, 148, 172)"  x="15" y="11" width="1" height="1" /><rect shape-rendering="crispEdges" fill="rgb(189, 115, 148)"  x="15" y="12" width="1" height="1" /><rect shape-rendering="crispEdges" fill="rgb(189, 115, 148)"  x="15" y="14" width="1" height="1" /><rect shape-rendering="crispEdges" fill="rgb(106, 57, 98)"  x="15" y="15" width="1" height="1" /><rect shape-rendering="crispEdges" fill="rgb(189, 115, 148)"  x="15" y="16" width="1" height="1" /><rect shape-rendering="crispEdges" fill="rgb(238, 172, 197)"  x="15" y="17" width="1" height="1" /><rect shape-rendering="crispEdges" fill="rgb(164, 98, 131)"  x="15" y="18" width="1" height="1" /><rect shape-rendering="crispEdges" fill="rgb(82, 41, 82)"  x="15" y="19" width="1" height="1" /><rect shape-rendering="crispEdges" fill="rgb(255, 131, 255)"  x="15" y="24" width="1" height="1" /><rect shape-rendering="crispEdges" fill="rgb(255, 205, 255)"  x="15" y="25" width="1" height="1" /><rect shape-rendering="crispEdges" fill="rgb(255, 131, 255)"  x="15" y="26" width="1" height="1" /><rect shape-rendering="crispEdges" fill="rgb(205, 74, 255)"  x="15" y="27" width="1" height="1" /><rect shape-rendering="crispEdges" fill="rgb(164, 32, 205)"  x="16" y="2" width="1" height="1" /><rect shape-rendering="crispEdges" fill="rgb(148, 32, 180)"  x="16" y="3" width="1" height="1" /><rect shape-rendering="crispEdges" fill="rgb(131, 24, 156)"  x="16" y="4" width="1" height="1" /><rect shape-rendering="crispEdges" fill="rgb(8, 90, 82)"  x="16" y="5" width="1" height="1" /><rect shape-rendering="crispEdges" fill="rgb(8, 115, 106)"  x="16" y="6" width="1" height="1" /><rect shape-rendering="crispEdges" fill="rgb(8, 90, 82)"  x="16" y="7" width="1" height="1" /><rect shape-rendering="crispEdges" fill="rgb(57, 32, 57)"  x="16" y="8" width="1" height="1" /><rect shape-rendering="crispEdges" fill="rgb(57, 32, 57)"  x="16" y="9" width="1" height="1" /><rect shape-rendering="crispEdges" fill="rgb(213, 148, 172)"  x="16" y="11" width="1" height="1" /><rect shape-rendering="crispEdges" fill="rgb(213, 148, 172)"  x="16" y="12" width="1" height="1" /><rect shape-rendering="crispEdges" fill="rgb(189, 115, 148)"  x="16" y="13" width="1" height="1" /><rect shape-rendering="crispEdges" fill="rgb(106, 57, 98)"  x="16" y="14" width="1" height="1" /><rect shape-rendering="crispEdges" fill="rgb(131, 82, 115)"  x="16" y="15" width="1" height="1" /><rect shape-rendering="crispEdges" fill="rgb(189, 115, 148)"  x="16" y="16" width="1" height="1" /><rect shape-rendering="crispEdges" fill="rgb(213, 148, 172)"  x="16" y="17" width="1" height="1" /><rect shape-rendering="crispEdges" fill="rgb(189, 115, 148)"  x="16" y="18" width="1" height="1" /><rect shape-rendering="crispEdges" fill="rgb(148, 32, 180)"  x="16" y="23" width="1" height="1" /><rect shape-rendering="crispEdges" fill="rgb(131, 24, 156)"  x="16" y="24" width="1" height="1" /><rect shape-rendering="crispEdges" fill="rgb(205, 74, 255)"  x="16" y="25" width="1" height="1" /><rect shape-rendering="crispEdges" fill="rgb(230, 106, 255)"  x="16" y="26" width="1" height="1" /><rect shape-rendering="crispEdges" fill="rgb(8, 90, 82)"  x="17" y="2" width="1" height="1" /><rect shape-rendering="crispEdges" fill="rgb(8, 115, 106)"  x="17" y="3" width="1" height="1" /><rect shape-rendering="crispEdges" fill="rgb(8, 115, 106)"  x="17" y="4" width="1" height="1" /><rect shape-rendering="crispEdges" fill="rgb(8, 90, 82)"  x="17" y="5" width="1" height="1" /><rect shape-rendering="crispEdges" fill="rgb(8, 115, 106)"  x="17" y="6" width="1" height="1" /><rect shape-rendering="crispEdges" fill="rgb(8, 90, 82)"  x="17" y="7" width="1" height="1" /><rect shape-rendering="crispEdges" fill="rgb(131, 82, 115)"  x="17" y="8" width="1" height="1" /><rect shape-rendering="crispEdges" fill="rgb(82, 41, 82)"  x="17" y="9" width="1" height="1" /><rect shape-rendering="crispEdges" fill="rgb(57, 32, 57)"  x="17" y="10" width="1" height="1" /><rect shape-rendering="crispEdges" fill="rgb(213, 148, 172)"  x="17" y="12" width="1" height="1" /><rect shape-rendering="crispEdges" fill="rgb(238, 172, 197)"  x="17" y="13" width="1" height="1" /><rect shape-rendering="crispEdges" fill="rgb(238, 172, 197)"  x="17" y="14" width="1" height="1" /><rect shape-rendering="crispEdges" fill="rgb(213, 148, 172)"  x="17" y="15" width="1" height="1" /><rect shape-rendering="crispEdges" fill="rgb(213, 148, 172)"  x="17" y="16" width="1" height="1" /><rect shape-rendering="crispEdges" fill="rgb(164, 98, 131)"  x="17" y="17" width="1" height="1" /><rect shape-rendering="crispEdges" fill="rgb(131, 24, 156)"  x="17" y="18" width="1" height="1" /><rect shape-rendering="crispEdges" fill="rgb(131, 24, 156)"  x="17" y="19" width="1" height="1" /><rect shape-rendering="crispEdges" fill="rgb(148, 32, 180)"  x="17" y="22" width="1" height="1" /><rect shape-rendering="crispEdges" fill="rgb(164, 32, 205)"  x="17" y="23" width="1" height="1" /><rect shape-rendering="crispEdges" fill="rgb(131, 24, 156)"  x="17" y="24" width="1" height="1" /><rect shape-rendering="crispEdges" fill="rgb(131, 24, 156)"  x="17" y="25" width="1" height="1" /><rect shape-rendering="crispEdges" fill="rgb(131, 24, 156)"  x="17" y="26" width="1" height="1" /><rect shape-rendering="crispEdges" fill="rgb(148, 32, 180)"  x="17" y="27" width="1" height="1" /><rect shape-rendering="crispEdges" fill="rgb(8, 90, 82)"  x="18" y="3" width="1" height="1" /><rect shape-rendering="crispEdges" fill="rgb(8, 90, 82)"  x="18" y="4" width="1" height="1" /><rect shape-rendering="crispEdges" fill="rgb(8, 90, 82)"  x="18" y="5" width="1" height="1" /><rect shape-rendering="crispEdges" fill="rgb(8, 90, 82)"  x="18" y="6" width="1" height="1" /><rect shape-rendering="crispEdges" fill="rgb(131, 82, 115)"  x="18" y="9" width="1" height="1" /><rect shape-rendering="crispEdges" fill="rgb(82, 41, 82)"  x="18" y="10" width="1" height="1" /><rect shape-rendering="crispEdges" fill="rgb(189, 115, 148)"  x="18" y="13" width="1" height="1" /><rect shape-rendering="crispEdges" fill="rgb(189, 115, 148)"  x="18" y="14" width="1" height="1" /><rect shape-rendering="crispEdges" fill="rgb(189, 115, 148)"  x="18" y="15" width="1" height="1" /><rect shape-rendering="crispEdges" fill="rgb(164, 98, 131)"  x="18" y="16" width="1" height="1" /><rect shape-rendering="crispEdges" fill="rgb(164, 32, 205)"  x="18" y="18" width="1" height="1" /><rect shape-rendering="crispEdges" fill="rgb(164, 32, 205)"  x="18" y="19" width="1" height="1" /><rect shape-rendering="crispEdges" fill="rgb(131, 24, 156)"  x="18" y="20" width="1" height="1" /><rect shape-rendering="crispEdges" fill="rgb(164, 32, 205)"  x="18" y="21" width="1" height="1" /><rect shape-rendering="crispEdges" fill="rgb(164, 32, 205)"  x="18" y="22" width="1" height="1" /><rect shape-rendering="crispEdges" fill="rgb(164, 32, 205)"  x="18" y="23" width="1" height="1" /><rect shape-rendering="crispEdges" fill="rgb(164, 32, 205)"  x="18" y="24" width="1" height="1" /><rect shape-rendering="crispEdges" fill="rgb(164, 32, 205)"  x="18" y="25" width="1" height="1" /><rect shape-rendering="crispEdges" fill="rgb(164, 32, 205)"  x="18" y="26" width="1" height="1" /><rect shape-rendering="crispEdges" fill="rgb(164, 32, 205)"  x="18" y="27" width="1" height="1" /><rect shape-rendering="crispEdges" fill="rgb(148, 32, 180)"  x="18" y="28" width="1" height="1" /><rect shape-rendering="crispEdges" fill="rgb(131, 82, 115)"  x="19" y="9" width="1" height="1" /><rect shape-rendering="crispEdges" fill="rgb(131, 82, 115)"  x="19" y="10" width="1" height="1" /><rect shape-rendering="crispEdges" fill="rgb(82, 41, 82)"  x="19" y="11" width="1" height="1" /><rect shape-rendering="crispEdges" fill="rgb(106, 57, 98)"  x="19" y="13" width="1" height="1" /><rect shape-rendering="crispEdges" fill="rgb(106, 57, 98)"  x="19" y="14" width="1" height="1" /><rect shape-rendering="crispEdges" fill="rgb(106, 57, 98)"  x="19" y="15" width="1" height="1" /><rect shape-rendering="crispEdges" fill="rgb(106, 57, 98)"  x="19" y="16" width="1" height="1" /><rect shape-rendering="crispEdges" fill="rgb(82, 41, 82)"  x="19" y="17" width="1" height="1" /><rect shape-rendering="crispEdges" fill="rgb(148, 32, 180)"  x="19" y="18" width="1" height="1" /><rect shape-rendering="crispEdges" fill="rgb(164, 32, 205)"  x="19" y="19" width="1" height="1" /><rect shape-rendering="crispEdges" fill="rgb(164, 32, 205)"  x="19" y="22" width="1" height="1" /><rect shape-rendering="crispEdges" fill="rgb(189, 115, 148)"  x="19" y="23" width="1" height="1" /><rect shape-rendering="crispEdges" fill="rgb(189, 115, 148)"  x="19" y="24" width="1" height="1" /><rect shape-rendering="crispEdges" fill="rgb(189, 115, 148)"  x="19" y="25" width="1" height="1" /><rect shape-rendering="crispEdges" fill="rgb(164, 32, 205)"  x="19" y="26" width="1" height="1" /><rect shape-rendering="crispEdges" fill="rgb(148, 32, 180)"  x="19" y="27" width="1" height="1" /><rect shape-rendering="crispEdges" fill="rgb(131, 82, 115)"  x="20" y="10" width="1" height="1" /><rect shape-rendering="crispEdges" fill="rgb(106, 57, 98)"  x="20" y="11" width="1" height="1" /><rect shape-rendering="crispEdges" fill="rgb(106, 57, 98)"  x="20" y="13" width="1" height="1" /><rect shape-rendering="crispEdges" fill="rgb(106, 57, 98)"  x="20" y="15" width="1" height="1" /><rect shape-rendering="crispEdges" fill="rgb(106, 57, 98)"  x="20" y="16" width="1" height="1" /><rect shape-rendering="crispEdges" fill="rgb(82, 41, 82)"  x="20" y="17" width="1" height="1" /><rect shape-rendering="crispEdges" fill="rgb(164, 32, 205)"  x="20" y="23" width="1" height="1" /><rect shape-rendering="crispEdges" fill="rgb(189, 115, 148)"  x="20" y="24" width="1" height="1" /><rect shape-rendering="crispEdges" fill="rgb(164, 32, 205)"  x="20" y="25" width="1" height="1" /><rect shape-rendering="crispEdges" fill="rgb(148, 32, 180)"  x="20" y="26" width="1" height="1" /><rect shape-rendering="crispEdges" fill="rgb(131, 82, 115)"  x="21" y="10" width="1" height="1" /><rect shape-rendering="crispEdges" fill="rgb(131, 82, 115)"  x="21" y="11" width="1" height="1" /><rect shape-rendering="crispEdges" fill="rgb(106, 57, 98)"  x="21" y="12" width="1" height="1" /><rect shape-rendering="crispEdges" fill="rgb(106, 57, 98)"  x="21" y="15" width="1" height="1" /><rect shape-rendering="crispEdges" fill="rgb(106, 57, 98)"  x="21" y="16" width="1" height="1" /><rect shape-rendering="crispEdges" fill="rgb(106, 57, 98)"  x="21" y="17" width="1" height="1" /><rect shape-rendering="crispEdges" fill="rgb(164, 32, 205)"  x="21" y="24" width="1" height="1" /><rect shape-rendering="crispEdges" fill="rgb(164, 32, 205)"  x="21" y="25" width="1" height="1" /><rect shape-rendering="crispEdges" fill="rgb(131, 82, 115)"  x="22" y="11" width="1" height="1" /><rect shape-rendering="crispEdges" fill="rgb(164, 98, 131)"  x="22" y="12" width="1" height="1" /><rect shape-rendering="crispEdges" fill="rgb(164, 98, 131)"  x="22" y="13" width="1" height="1" /><rect shape-rendering="crispEdges" fill="rgb(131, 82, 115)"  x="22" y="14" width="1" height="1" /><rect shape-rendering="crispEdges" fill="rgb(106, 57, 98)"  x="22" y="15" width="1" height="1" /><rect shape-rendering="crispEdges" fill="rgb(82, 41, 82)"  x="22" y="16" width="1" height="1" /><rect shape-rendering="crispEdges" fill="rgb(106, 57, 98)"  x="23" y="12" width="1" height="1" /><rect shape-rendering="crispEdges" fill="rgb(106, 57, 98)"  x="23" y="13" width="1" height="1" /><rect shape-rendering="crispEdges" fill="rgb(106, 57, 98)"  x="23" y="14" width="1" height="1" /><rect shape-rendering="crispEdges" fill="rgb(82, 41, 82)"  x="23" y="15" width="1" height="1" /></svg>