<svg xmlns="http://www.w3.org/2000/svg" xmlns:xlink= "http://www.w3.org/1999/xlink" width="32" height="32" viewBox ="0 0 32 32"><rect shape-rendering="crispEdges" fill="rgb(230, 106, 255)"  x="6" y="1" width="1" height="1" /><rect shape-rendering="crispEdges" fill="rgb(255, 205, 255)"  x="6" y="2" width="1" height="1" /><rect shape-rendering="crispEdges" fill="rgb(255, 205, 255)"  x="6" y="3" width="1" height="1" /><rect shape-rendering="crispEdges" fill="rgb(255, 164, 255)"  x="6" y="4" width="1" height="1" /><rect shape-rendering="crispEdges" fill="rgb(255, 222, 57)"  x="6" y="5" width="1" height="1" /><rect shape-rendering="crispEdges" fill="rgb(255, 131, 255)"  x="6" y="6" width="1" height="1" /><rect shape-rendering="crispEdges" fill="rgb(255, 222, 57)"  x="6" y="7" width="1" height="1" /><rect shape-rendering="crispEdges" fill="rgb(255, 222, 57)"  x="6" y="8" width="1" height="1" /><rect shape-rendering="crispEdges" fill="rgb(255, 222, 57)"  x="6" y="9" width="1" height="1" /><rect shape-rendering="crispEdges" fill="rgb(255, 189, 98)"  x="6" y="10" width="1" height="1" /><rect shape-rendering="crispEdges" fill="rgb(205, 74, 255)"  x="6" y="11" width="1" height="1" /><rect shape-rendering="crispEdges" fill="rgb(205, 74, 255)"  x="6" y="12" width="1" height="1" /><rect shape-rendering="crispEdges" fill="rgb(230, 106, 255)"  x="7" y="1" width="1" height="1" /><rect shape-rendering="crispEdges" fill="rgb(255, 205, 255)"  x="7" y="2" width="1" height="1" /><rect shape-rendering="crispEdges" fill="rgb(255, 222, 57)"  x="7" y="3" width="1" height="1" /><rect shape-rendering="crispEdges" fill="rgb(255, 222, 57)"  x="7" y="4" width="1" height="1" /><rect shape-rendering="crispEdges" fill="rgb(255, 156, 49)"  x="7" y="5" width="1" height="1" /><rect shape-rendering="crispEdges" fill="rgb(255, 131, 255)"  x="7" y="6" width="1" height="1" /><rect shape-rendering="crispEdges" fill="rgb(255, 222, 57)"  x="7" y="7" width="1" height="1" /><rect shape-rendering="crispEdges" fill="rgb(255, 156, 49)"  x="7" y="8" width="1" height="1" /><rect shape-rendering="crispEdges" fill="rgb(255, 156, 49)"  x="7" y="9" width="1" height="1" /><rect shape-rendering="crispEdges" fill="rgb(222, 131, 41)"  x="7" y="10" width="1" height="1" /><rect shape-rendering="crispEdges" fill="rgb(205, 74, 255)"  x="7" y="11" width="1" height="1" /><rect shape-rendering="crispEdges" fill="rgb(205, 74, 255)"  x="7" y="12" width="1" height="1" /><rect shape-rendering="crispEdges" fill="rgb(205, 74, 255)"  x="8" y="1" width="1" height="1" /><rect shape-rendering="crispEdges" fill="rgb(255, 189, 98)"  x="8" y="2" width="1" height="1" /><rect shape-rendering="crispEdges" fill="rgb(255, 205, 255)"  x="8" y="3" width="1" height="1" /><rect shape-rendering="crispEdges" fill="rgb(255, 164, 255)"  x="8" y="4" width="1" height="1" /><rect shape-rendering="crispEdges" fill="rgb(255, 131, 255)"  x="8" y="5" width="1" height="1" /><rect shape-rendering="crispEdges" fill="rgb(230, 106, 255)"  x="8" y="6" width="1" height="1" /><rect shape-rendering="crispEdges" fill="rgb(255, 222, 57)"  x="8" y="7" width="1" height="1" /><rect shape-rendering="crispEdges" fill="rgb(255, 156, 49)"  x="8" y="8" width="1" height="1" /><rect shape-rendering="crispEdges" fill="rgb(205, 74, 255)"  x="8" y="9" width="1" height="1" /><rect shape-rendering="crispEdges" fill="rgb(205, 74, 255)"  x="8" y="10" width="1" height="1" /><rect shape-rendering="crispEdges" fill="rgb(205, 74, 255)"  x="8" y="11" width="1" height="1" /><rect shape-rendering="crispEdges" fill="rgb(180, 49, 246)"  x="8" y="12" width="1" height="1" /><rect shape-rendering="crispEdges" fill="rgb(180, 131, 106)"  x="8" y="13" width="1" height="1" /><rect shape-rendering="crispEdges" fill="rgb(205, 74, 255)"  x="9" y="1" width="1" height="1" /><rect shape-rendering="crispEdges" fill="rgb(255, 189, 98)"  x="9" y="2" width="1" height="1" /><rect shape-rendering="crispEdges" fill="rgb(230, 106, 255)"  x="9" y="3" width="1" height="1" /><rect shape-rendering="crispEdges" fill="rgb(255, 189, 98)"  x="9" y="4" width="1" height="1" /><rect shape-rendering="crispEdges" fill="rgb(255, 222, 57)"  x="9" y="5" width="1" height="1" /><rect shape-rendering="crispEdges" fill="rgb(255, 222, 57)"  x="9" y="6" width="1" height="1" /><rect shape-rendering="crispEdges" fill="rgb(255, 189, 98)"  x="9" y="7" width="1" height="1" /><rect shape-rendering="crispEdges" fill="rgb(255, 156, 49)"  x="9" y="8" width="1" height="1" /><rect shape-rendering="crispEdges" fill="rgb(230, 106, 255)"  x="9" y="9" width="1" height="1" /><rect shape-rendering="crispEdges" fill="rgb(230, 106, 255)"  x="9" y="10" width="1" height="1" /><rect shape-rendering="crispEdges" fill="rgb(230, 106, 255)"  x="9" y="11" width="1" height="1" /><rect shape-rendering="crispEdges" fill="rgb(148, 32, 180)"  x="9" y="12" width="1" height="1" /><rect shape-rendering="crispEdges" fill="rgb(230, 180, 139)"  x="9" y="13" width="1" height="1" /><rect shape-rendering="crispEdges" fill="rgb(180, 131, 106)"  x="9" y="14" width="1" height="1" /><rect shape-rendering="crispEdges" fill="rgb(255, 156, 49)"  x="10" y="1" width="1" height="1" /><rect shape-rendering="crispEdges" fill="rgb(255, 156, 49)"  x="10" y="2" width="1" height="1" /><rect shape-rendering="crispEdges" fill="rgb(205, 74, 255)"  x="10" y="3" width="1" height="1" /><rect shape-rendering="crispEdges" fill="rgb(255, 222, 57)"  x="10" y="4" width="1" height="1" /><rect shape-rendering="crispEdges" fill="rgb(255, 156, 49)"  x="10" y="5" width="1" height="1" /><rect shape-rendering="crispEdges" fill="rgb(255, 156, 49)"  x="10" y="6" width="1" height="1" /><rect shape-rendering="crispEdges" fill="rgb(255, 156, 49)"  x="10" y="7" width="1" height="1" /><rect shape-rendering="crispEdges" fill="rgb(255, 156, 49)"  x="10" y="8" width="1" height="1" /><rect shape-rendering="crispEdges" fill="rgb(255, 131, 255)"  x="10" y="9" width="1" height="1" /><rect shape-rendering="crispEdges" fill="rgb(255, 131, 255)"  x="10" y="10" width="1" height="1" /><rect shape-rendering="crispEdges" fill="rgb(230, 106, 255)"  x="10" y="11" width="1" height="1" /><rect shape-rendering="crispEdges" fill="rgb(148, 32, 180)"  x="10" y="12" width="1" height="1" /><rect shape-rendering="crispEdges" fill="rgb(230, 180, 139)"  x="10" y="13" width="1" height="1" /><rect shape-rendering="crispEdges" fill="rgb(156, 123, 106)"  x="10" y="14" width="1" height="1" /><rect shape-rendering="crispEdges" fill="rgb(131, 98, 90)"  x="10" y="15" width="1" height="1" /><rect shape-rendering="crispEdges" fill="rgb(156, 123, 106)"  x="10" y="16" width="1" height="1" /><rect shape-rendering="crispEdges" fill="rgb(172, 41, 222)"  x="11" y="1" width="1" height="1" /><rect shape-rendering="crispEdges" fill="rgb(180, 49, 246)"  x="11" y="2" width="1" height="1" /><rect shape-rendering="crispEdges" fill="rgb(180, 49, 246)"  x="11" y="3" width="1" height="1" /><rect shape-rendering="crispEdges" fill="rgb(255, 222, 57)"  x="11" y="4" width="1" height="1" /><rect shape-rendering="crispEdges" fill="rgb(255, 156, 49)"  x="11" y="5" width="1" height="1" /><rect shape-rendering="crispEdges" fill="rgb(205, 74, 255)"  x="11" y="6" width="1" height="1" /><rect shape-rendering="crispEdges" fill="rgb(230, 106, 255)"  x="11" y="7" width="1" height="1" /><rect shape-rendering="crispEdges" fill="rgb(255, 131, 255)"  x="11" y="8" width="1" height="1" /><rect shape-rendering="crispEdges" fill="rgb(255, 205, 255)"  x="11" y="9" width="1" height="1" /><rect shape-rendering="crispEdges" fill="rgb(255, 131, 255)"  x="11" y="10" width="1" height="1" /><rect shape-rendering="crispEdges" fill="rgb(148, 32, 180)"  x="11" y="11" width="1" height="1" /><rect shape-rendering="crispEdges" fill="rgb(49, 90, 222)"  x="11" y="12" width="1" height="1" /><rect shape-rendering="crispEdges" fill="rgb(205, 156, 123)"  x="11" y="13" width="1" height="1" /><rect shape-rendering="crispEdges" fill="rgb(131, 98, 90)"  x="11" y="14" width="1" height="1" /><rect shape-rendering="crispEdges" fill="rgb(156, 123, 106)"  x="11" y="15" width="1" height="1" /><rect shape-rendering="crispEdges" fill="rgb(156, 123, 106)"  x="11" y="16" width="1" height="1" /><rect shape-rendering="crispEdges" fill="rgb(131, 98, 90)"  x="11" y="17" width="1" height="1" /><rect shape-rendering="crispEdges" fill="rgb(255, 156, 49)"  x="12" y="1" width="1" height="1" /><rect shape-rendering="crispEdges" fill="rgb(255, 222, 57)"  x="12" y="2" width="1" height="1" /><rect shape-rendering="crispEdges" fill="rgb(255, 222, 57)"  x="12" y="3" width="1" height="1" /><rect shape-rendering="crispEdges" fill="rgb(255, 189, 98)"  x="12" y="4" width="1" height="1" /><rect shape-rendering="crispEdges" fill="rgb(255, 156, 49)"  x="12" y="5" width="1" height="1" /><rect shape-rendering="crispEdges" fill="rgb(205, 74, 255)"  x="12" y="6" width="1" height="1" /><rect shape-rendering="crispEdges" fill="rgb(230, 106, 255)"  x="12" y="7" width="1" height="1" /><rect shape-rendering="crispEdges" fill="rgb(255, 131, 255)"  x="12" y="8" width="1" height="1" /><rect shape-rendering="crispEdges" fill="rgb(255, 131, 255)"  x="12" y="9" width="1" height="1" /><rect shape-rendering="crispEdges" fill="rgb(230, 106, 255)"  x="12" y="10" width="1" height="1" /><rect shape-rendering="crispEdges" fill="rgb(148, 32, 180)"  x="12" y="11" width="1" height="1" /><rect shape-rendering="crispEdges" fill="rgb(49, 90, 222)"  x="12" y="12" width="1" height="1" /><rect shape-rendering="crispEdges" fill="rgb(49, 90, 222)"  x="12" y="13" width="1" height="1" /><rect shape-rendering="crispEdges" fill="rgb(156, 123, 106)"  x="12" y="14" width="1" height="1" /><rect shape-rendering="crispEdges" fill="rgb(156, 123, 106)"  x="12" y="15" width="1" height="1" /><rect shape-rendering="crispEdges" fill="rgb(131, 98, 90)"  x="12" y="16" width="1" height="1" /><rect shape-rendering="crispEdges" fill="rgb(156, 123, 106)"  x="12" y="17" width="1" height="1" /><rect shape-rendering="crispEdges" fill="rgb(131, 98, 90)"  x="12" y="18" width="1" height="1" /><rect shape-rendering="crispEdges" fill="rgb(255, 156, 49)"  x="13" y="1" width="1" height="1" /><rect shape-rendering="crispEdges" fill="rgb(222, 131, 41)"  x="13" y="2" width="1" height="1" /><rect shape-rendering="crispEdges" fill="rgb(222, 131, 41)"  x="13" y="3" width="1" height="1" /><rect shape-rendering="crispEdges" fill="rgb(222, 131, 41)"  x="13" y="4" width="1" height="1" /><rect shape-rendering="crispEdges" fill="rgb(222, 131, 41)"  x="13" y="5" width="1" height="1" /><rect shape-rendering="crispEdges" fill="rgb(205, 74, 255)"  x="13" y="6" width="1" height="1" /><rect shape-rendering="crispEdges" fill="rgb(230, 106, 255)"  x="13" y="7" width="1" height="1" /><rect shape-rendering="crispEdges" fill="rgb(230, 106, 255)"  x="13" y="8" width="1" height="1" /><rect shape-rendering="crispEdges" fill="rgb(205, 74, 255)"  x="13" y="9" width="1" height="1" /><rect shape-rendering="crispEdges" fill="rgb(65, 65, 189)"  x="13" y="10" width="1" height="1" /><rect shape-rendering="crispEdges" fill="rgb(49, 90, 213)"  x="13" y="11" width="1" height="1" /><rect shape-rendering="crispEdges" fill="rgb(32, 115, 255)"  x="13" y="12" width="1" height="1" /><rect shape-rendering="crispEdges" fill="rgb(156, 123, 106)"  x="13" y="13" width="1" height="1" /><rect shape-rendering="crispEdges" fill="rgb(180, 148, 131)"  x="13" y="14" width="1" height="1" /><rect shape-rendering="crispEdges" fill="rgb(131, 98, 90)"  x="13" y="15" width="1" height="1" /><rect shape-rendering="crispEdges" fill="rgb(156, 123, 106)"  x="13" y="16" width="1" height="1" /><rect shape-rendering="crispEdges" fill="rgb(156, 123, 106)"  x="13" y="17" width="1" height="1" /><rect shape-rendering="crispEdges" fill="rgb(131, 98, 90)"  x="13" y="18" width="1" height="1" /><rect shape-rendering="crispEdges" fill="rgb(131, 98, 90)"  x="13" y="19" width="1" height="1" /><rect shape-rendering="crispEdges" fill="rgb(180, 106, 32)"  x="14" y="1" width="1" height="1" /><rect shape-rendering="crispEdges" fill="rgb(172, 41, 222)"  x="14" y="2" width="1" height="1" /><rect shape-rendering="crispEdges" fill="rgb(172, 41, 222)"  x="14" y="3" width="1" height="1" /><rect shape-rendering="crispEdges" fill="rgb(172, 41, 222)"  x="14" y="4" width="1" height="1" /><rect shape-rendering="crispEdges" fill="rgb(180, 49, 246)"  x="14" y="5" width="1" height="1" /><rect shape-rendering="crispEdges" fill="rgb(205, 74, 255)"  x="14" y="6" width="1" height="1" /><rect shape-rendering="crispEdges" fill="rgb(205, 74, 255)"  x="14" y="7" width="1" height="1" /><rect shape-rendering="crispEdges" fill="rgb(205, 74, 255)"  x="14" y="8" width="1" height="1" /><rect shape-rendering="crispEdges" fill="rgb(65, 65, 189)"  x="14" y="9" width="1" height="1" /><rect shape-rendering="crispEdges" fill="rgb(49, 90, 213)"  x="14" y="10" width="1" height="1" /><rect shape-rendering="crispEdges" fill="rgb(32, 115, 255)"  x="14" y="11" width="1" height="1" /><rect shape-rendering="crispEdges" fill="rgb(180, 148, 131)"  x="14" y="12" width="1" height="1" /><rect shape-rendering="crispEdges" fill="rgb(205, 180, 148)"  x="14" y="13" width="1" height="1" /><rect shape-rendering="crispEdges" fill="rgb(131, 98, 90)"  x="14" y="14" width="1" height="1" /><rect shape-rendering="crispEdges" fill="rgb(180, 148, 131)"  x="14" y="15" width="1" height="1" /><rect shape-rendering="crispEdges" fill="rgb(156, 123, 106)"  x="14" y="16" width="1" height="1" /><rect shape-rendering="crispEdges" fill="rgb(131, 98, 90)"  x="14" y="17" width="1" height="1" /><rect shape-rendering="crispEdges" fill="rgb(131, 98, 90)"  x="14" y="18" width="1" height="1" /><rect shape-rendering="crispEdges" fill="rgb(156, 98, 82)"  x="14" y="19" width="1" height="1" /><rect shape-rendering="crispEdges" fill="rgb(180, 106, 32)"  x="15" y="1" width="1" height="1" /><rect shape-rendering="crispEdges" fill="rgb(172, 41, 222)"  x="15" y="2" width="1" height="1" /><rect shape-rendering="crispEdges" fill="rgb(172, 41, 222)"  x="15" y="3" width="1" height="1" /><rect shape-rendering="crispEdges" fill="rgb(172, 41, 222)"  x="15" y="4" width="1" height="1" /><rect shape-rendering="crispEdges" fill="rgb(180, 49, 246)"  x="15" y="5" width="1" height="1" /><rect shape-rendering="crispEdges" fill="rgb(180, 49, 246)"  x="15" y="6" width="1" height="1" /><rect shape-rendering="crispEdges" fill="rgb(164, 32, 205)"  x="15" y="7" width="1" height="1" /><rect shape-rendering="crispEdges" fill="rgb(65, 65, 189)"  x="15" y="8" width="1" height="1" /><rect shape-rendering="crispEdges" fill="rgb(49, 90, 213)"  x="15" y="9" width="1" height="1" /><rect shape-rendering="crispEdges" fill="rgb(32, 115, 255)"  x="15" y="10" width="1" height="1" /><rect shape-rendering="crispEdges" fill="rgb(180, 148, 131)"  x="15" y="11" width="1" height="1" /><rect shape-rendering="crispEdges" fill="rgb(230, 213, 172)"  x="15" y="12" width="1" height="1" /><rect shape-rendering="crispEdges" fill="rgb(156, 123, 106)"  x="15" y="13" width="1" height="1" /><rect shape-rendering="crispEdges" fill="rgb(205, 180, 148)"  x="15" y="14" width="1" height="1" /><rect shape-rendering="crispEdges" fill="rgb(156, 123, 106)"  x="15" y="15" width="1" height="1" /><rect shape-rendering="crispEdges" fill="rgb(131, 98, 90)"  x="15" y="16" width="1" height="1" /><rect shape-rendering="crispEdges" fill="rgb(131, 98, 90)"  x="15" y="17" width="1" height="1" /><rect shape-rendering="crispEdges" fill="rgb(156, 98, 82)"  x="15" y="18" width="1" height="1" /><rect shape-rendering="crispEdges" fill="rgb(180, 131, 106)"  x="15" y="19" width="1" height="1" /><rect shape-rendering="crispEdges" fill="rgb(180, 131, 106)"  x="15" y="20" width="1" height="1" /><rect shape-rendering="crispEdges" fill="rgb(148, 32, 180)"  x="16" y="1" width="1" height="1" /><rect shape-rendering="crispEdges" fill="rgb(172, 41, 222)"  x="16" y="2" width="1" height="1" /><rect shape-rendering="crispEdges" fill="rgb(172, 41, 222)"  x="16" y="3" width="1" height="1" /><rect shape-rendering="crispEdges" fill="rgb(172, 41, 222)"  x="16" y="4" width="1" height="1" /><rect shape-rendering="crispEdges" fill="rgb(172, 41, 222)"  x="16" y="5" width="1" height="1" /><rect shape-rendering="crispEdges" fill="rgb(148, 32, 180)"  x="16" y="6" width="1" height="1" /><rect shape-rendering="crispEdges" fill="rgb(65, 65, 189)"  x="16" y="7" width="1" height="1" /><rect shape-rendering="crispEdges" fill="rgb(49, 90, 213)"  x="16" y="8" width="1" height="1" /><rect shape-rendering="crispEdges" fill="rgb(32, 115, 255)"  x="16" y="9" width="1" height="1" /><rect shape-rendering="crispEdges" fill="rgb(180, 148, 131)"  x="16" y="10" width="1" height="1" /><rect shape-rendering="crispEdges" fill="rgb(230, 213, 172)"  x="16" y="11" width="1" height="1" /><rect shape-rendering="crispEdges" fill="rgb(156, 123, 106)"  x="16" y="12" width="1" height="1" /><rect shape-rendering="crispEdges" fill="rgb(230, 213, 172)"  x="16" y="13" width="1" height="1" /><rect shape-rendering="crispEdges" fill="rgb(156, 123, 106)"  x="16" y="14" width="1" height="1" /><rect shape-rendering="crispEdges" fill="rgb(49, 90, 222)"  x="16" y="15" width="1" height="1" /><rect shape-rendering="crispEdges" fill="rgb(255, 222, 139)"  x="16" y="16" width="1" height="1" /><rect shape-rendering="crispEdges" fill="rgb(49, 90, 222)"  x="16" y="17" width="1" height="1" /><rect shape-rendering="crispEdges" fill="rgb(156, 98, 82)"  x="16" y="18" width="1" height="1" /><rect shape-rendering="crispEdges" fill="rgb(156, 98, 82)"  x="16" y="19" width="1" height="1" /><rect shape-rendering="crispEdges" fill="rgb(205, 156, 123)"  x="16" y="20" width="1" height="1" /><rect shape-rendering="crispEdges" fill="rgb(156, 98, 82)"  x="16" y="21" width="1" height="1" /><rect shape-rendering="crispEdges" fill="rgb(148, 32, 180)"  x="17" y="1" width="1" height="1" /><rect shape-rendering="crispEdges" fill="rgb(148, 32, 180)"  x="17" y="2" width="1" height="1" /><rect shape-rendering="crispEdges" fill="rgb(148, 32, 180)"  x="17" y="3" width="1" height="1" /><rect shape-rendering="crispEdges" fill="rgb(148, 32, 180)"  x="17" y="4" width="1" height="1" /><rect shape-rendering="crispEdges" fill="rgb(148, 32, 180)"  x="17" y="5" width="1" height="1" /><rect shape-rendering="crispEdges" fill="rgb(65, 65, 189)"  x="17" y="6" width="1" height="1" /><rect shape-rendering="crispEdges" fill="rgb(49, 90, 213)"  x="17" y="7" width="1" height="1" /><rect shape-rendering="crispEdges" fill="rgb(32, 115, 255)"  x="17" y="8" width="1" height="1" /><rect shape-rendering="crispEdges" fill="rgb(180, 148, 131)"  x="17" y="9" width="1" height="1" /><rect shape-rendering="crispEdges" fill="rgb(205, 180, 148)"  x="17" y="10" width="1" height="1" /><rect shape-rendering="crispEdges" fill="rgb(156, 123, 106)"  x="17" y="11" width="1" height="1" /><rect shape-rendering="crispEdges" fill="rgb(230, 213, 172)"  x="17" y="12" width="1" height="1" /><rect shape-rendering="crispEdges" fill="rgb(156, 123, 106)"  x="17" y="13" width="1" height="1" /><rect shape-rendering="crispEdges" fill="rgb(49, 90, 222)"  x="17" y="14" width="1" height="1" /><rect shape-rendering="crispEdges" fill="rgb(32, 115, 255)"  x="17" y="15" width="1" height="1" /><rect shape-rendering="crispEdges" fill="rgb(255, 189, 98)"  x="17" y="16" width="1" height="1" /><rect shape-rendering="crispEdges" fill="rgb(255, 156, 49)"  x="17" y="17" width="1" height="1" /><rect shape-rendering="crispEdges" fill="rgb(49, 90, 222)"  x="17" y="18" width="1" height="1" /><rect shape-rendering="crispEdges" fill="rgb(156, 98, 82)"  x="17" y="19" width="1" height="1" /><rect shape-rendering="crispEdges" fill="rgb(180, 131, 106)"  x="17" y="20" width="1" height="1" /><rect shape-rendering="crispEdges" fill="rgb(205, 156, 123)"  x="17" y="21" width="1" height="1" /><rect shape-rendering="crispEdges" fill="rgb(180, 131, 106)"  x="17" y="22" width="1" height="1" /><rect shape-rendering="crispEdges" fill="rgb(156, 98, 82)"  x="17" y="23" width="1" height="1" /><rect shape-rendering="crispEdges" fill="rgb(49, 90, 222)"  x="18" y="7" width="1" height="1" /><rect shape-rendering="crispEdges" fill="rgb(156, 123, 106)"  x="18" y="8" width="1" height="1" /><rect shape-rendering="crispEdges" fill="rgb(180, 148, 131)"  x="18" y="9" width="1" height="1" /><rect shape-rendering="crispEdges" fill="rgb(156, 123, 106)"  x="18" y="10" width="1" height="1" /><rect shape-rendering="crispEdges" fill="rgb(205, 180, 148)"  x="18" y="11" width="1" height="1" /><rect shape-rendering="crispEdges" fill="rgb(156, 123, 106)"  x="18" y="12" width="1" height="1" /><rect shape-rendering="crispEdges" fill="rgb(49, 90, 222)"  x="18" y="13" width="1" height="1" /><rect shape-rendering="crispEdges" fill="rgb(32, 115, 255)"  x="18" y="14" width="1" height="1" /><rect shape-rendering="crispEdges" fill="rgb(32, 115, 255)"  x="18" y="15" width="1" height="1" /><rect shape-rendering="crispEdges" fill="rgb(49, 139, 255)"  x="18" y="16" width="1" height="1" /><rect shape-rendering="crispEdges" fill="rgb(74, 172, 255)"  x="18" y="17" width="1" height="1" /><rect shape-rendering="crispEdges" fill="rgb(49, 90, 222)"  x="18" y="18" width="1" height="1" /><rect shape-rendering="crispEdges" fill="rgb(156, 98, 82)"  x="18" y="20" width="1" height="1" /><rect shape-rendering="crispEdges" fill="rgb(230, 180, 139)"  x="18" y="21" width="1" height="1" /><rect shape-rendering="crispEdges" fill="rgb(230, 180, 139)"  x="18" y="22" width="1" height="1" /><rect shape-rendering="crispEdges" fill="rgb(205, 156, 123)"  x="18" y="23" width="1" height="1" /><rect shape-rendering="crispEdges" fill="rgb(156, 98, 82)"  x="18" y="24" width="1" height="1" /><rect shape-rendering="crispEdges" fill="rgb(131, 98, 90)"  x="19" y="7" width="1" height="1" /><rect shape-rendering="crispEdges" fill="rgb(156, 123, 106)"  x="19" y="8" width="1" height="1" /><rect shape-rendering="crispEdges" fill="rgb(131, 98, 90)"  x="19" y="9" width="1" height="1" /><rect shape-rendering="crispEdges" fill="rgb(156, 123, 106)"  x="19" y="10" width="1" height="1" /><rect shape-rendering="crispEdges" fill="rgb(131, 98, 90)"  x="19" y="11" width="1" height="1" /><rect shape-rendering="crispEdges" fill="rgb(49, 90, 222)"  x="19" y="12" width="1" height="1" /><rect shape-rendering="crispEdges" fill="rgb(32, 115, 255)"  x="19" y="13" width="1" height="1" /><rect shape-rendering="crispEdges" fill="rgb(255, 222, 139)"  x="19" y="14" width="1" height="1" /><rect shape-rendering="crispEdges" fill="rgb(255, 189, 98)"  x="19" y="15" width="1" height="1" /><rect shape-rendering="crispEdges" fill="rgb(49, 139, 255)"  x="19" y="16" width="1" height="1" /><rect shape-rendering="crispEdges" fill="rgb(90, 197, 255)"  x="19" y="17" width="1" height="1" /><rect shape-rendering="crispEdges" fill="rgb(49, 90, 222)"  x="19" y="18" width="1" height="1" /><rect shape-rendering="crispEdges" fill="rgb(180, 131, 106)"  x="19" y="21" width="1" height="1" /><rect shape-rendering="crispEdges" fill="rgb(230, 180, 139)"  x="19" y="22" width="1" height="1" /><rect shape-rendering="crispEdges" fill="rgb(180, 148, 131)"  x="19" y="23" width="1" height="1" /><rect shape-rendering="crispEdges" fill="rgb(180, 148, 131)"  x="19" y="24" width="1" height="1" /><rect shape-rendering="crispEdges" fill="rgb(156, 98, 82)"  x="19" y="25" width="1" height="1" /><rect shape-rendering="crispEdges" fill="rgb(131, 98, 90)"  x="20" y="7" width="1" height="1" /><rect shape-rendering="crispEdges" fill="rgb(131, 98, 90)"  x="20" y="8" width="1" height="1" /><rect shape-rendering="crispEdges" fill="rgb(156, 123, 106)"  x="20" y="9" width="1" height="1" /><rect shape-rendering="crispEdges" fill="rgb(131, 98, 90)"  x="20" y="10" width="1" height="1" /><rect shape-rendering="crispEdges" fill="rgb(49, 90, 222)"  x="20" y="11" width="1" height="1" /><rect shape-rendering="crispEdges" fill="rgb(32, 115, 255)"  x="20" y="12" width="1" height="1" /><rect shape-rendering="crispEdges" fill="rgb(32, 115, 255)"  x="20" y="13" width="1" height="1" /><rect shape-rendering="crispEdges" fill="rgb(255, 156, 49)"  x="20" y="14" width="1" height="1" /><rect shape-rendering="crispEdges" fill="rgb(255, 189, 98)"  x="20" y="15" width="1" height="1" /><rect shape-rendering="crispEdges" fill="rgb(74, 172, 255)"  x="20" y="16" width="1" height="1" /><rect shape-rendering="crispEdges" fill="rgb(90, 197, 255)"  x="20" y="17" width="1" height="1" /><rect shape-rendering="crispEdges" fill="rgb(49, 90, 222)"  x="20" y="18" width="1" height="1" /><rect shape-rendering="crispEdges" fill="rgb(180, 131, 106)"  x="20" y="22" width="1" height="1" /><rect shape-rendering="crispEdges" fill="rgb(230, 180, 139)"  x="20" y="23" width="1" height="1" /><rect shape-rendering="crispEdges" fill="rgb(180, 148, 131)"  x="20" y="24" width="1" height="1" /><rect shape-rendering="crispEdges" fill="rgb(205, 156, 123)"  x="20" y="25" width="1" height="1" /><rect shape-rendering="crispEdges" fill="rgb(156, 98, 82)"  x="20" y="26" width="1" height="1" /><rect shape-rendering="crispEdges" fill="rgb(131, 98, 90)"  x="21" y="8" width="1" height="1" /><rect shape-rendering="crispEdges" fill="rgb(131, 98, 90)"  x="21" y="9" width="1" height="1" /><rect shape-rendering="crispEdges" fill="rgb(49, 90, 222)"  x="21" y="10" width="1" height="1" /><rect shape-rendering="crispEdges" fill="rgb(255, 189, 98)"  x="21" y="11" width="1" height="1" /><rect shape-rendering="crispEdges" fill="rgb(32, 115, 255)"  x="21" y="12" width="1" height="1" /><rect shape-rendering="crispEdges" fill="rgb(32, 115, 255)"  x="21" y="13" width="1" height="1" /><rect shape-rendering="crispEdges" fill="rgb(49, 139, 255)"  x="21" y="14" width="1" height="1" /><rect shape-rendering="crispEdges" fill="rgb(74, 172, 255)"  x="21" y="15" width="1" height="1" /><rect shape-rendering="crispEdges" fill="rgb(90, 197, 255)"  x="21" y="16" width="1" height="1" /><rect shape-rendering="crispEdges" fill="rgb(49, 90, 222)"  x="21" y="17" width="1" height="1" /><rect shape-rendering="crispEdges" fill="rgb(98, 74, 65)"  x="21" y="18" width="1" height="1" /><rect shape-rendering="crispEdges" fill="rgb(180, 131, 106)"  x="21" y="23" width="1" height="1" /><rect shape-rendering="crispEdges" fill="rgb(180, 131, 106)"  x="21" y="24" width="1" height="1" /><rect shape-rendering="crispEdges" fill="rgb(180, 148, 131)"  x="21" y="25" width="1" height="1" /><rect shape-rendering="crispEdges" fill="rgb(205, 156, 123)"  x="21" y="26" width="1" height="1" /><rect shape-rendering="crispEdges" fill="rgb(156, 98, 82)"  x="21" y="27" width="1" height="1" /><rect shape-rendering="crispEdges" fill="rgb(49, 90, 222)"  x="22" y="11" width="1" height="1" /><rect shape-rendering="crispEdges" fill="rgb(255, 189, 98)"  x="22" y="12" width="1" height="1" /><rect shape-rendering="crispEdges" fill="rgb(49, 139, 255)"  x="22" y="13" width="1" height="1" /><rect shape-rendering="crispEdges" fill="rgb(74, 172, 255)"  x="22" y="14" width="1" height="1" /><rect shape-rendering="crispEdges" fill="rgb(90, 197, 255)"  x="22" y="15" width="1" height="1" /><rect shape-rendering="crispEdges" fill="rgb(49, 90, 222)"  x="22" y="16" width="1" height="1" /><rect shape-rendering="crispEdges" fill="rgb(131, 98, 90)"  x="22" y="17" width="1" height="1" /><rect shape-rendering="crispEdges" fill="rgb(156, 123, 106)"  x="22" y="18" width="1" height="1" /><rect shape-rendering="crispEdges" fill="rgb(98, 74, 65)"  x="22" y="19" width="1" height="1" /><rect shape-rendering="crispEdges" fill="rgb(180, 148, 131)"  x="22" y="25" width="1" height="1" /><rect shape-rendering="crispEdges" fill="rgb(230, 180, 139)"  x="22" y="26" width="1" height="1" /><rect shape-rendering="crispEdges" fill="rgb(180, 148, 131)"  x="22" y="27" width="1" height="1" /><rect shape-rendering="crispEdges" fill="rgb(156, 98, 82)"  x="22" y="28" width="1" height="1" /><rect shape-rendering="crispEdges" fill="rgb(49, 90, 222)"  x="23" y="12" width="1" height="1" /><rect shape-rendering="crispEdges" fill="rgb(32, 115, 255)"  x="23" y="13" width="1" height="1" /><rect shape-rendering="crispEdges" fill="rgb(32, 115, 255)"  x="23" y="14" width="1" height="1" /><rect shape-rendering="crispEdges" fill="rgb(49, 90, 222)"  x="23" y="15" width="1" height="1" /><rect shape-rendering="crispEdges" fill="rgb(131, 98, 90)"  x="23" y="18" width="1" height="1" /><rect shape-rendering="crispEdges" fill="rgb(156, 123, 106)"  x="23" y="19" width="1" height="1" /><rect shape-rendering="crispEdges" fill="rgb(98, 74, 65)"  x="23" y="20" width="1" height="1" /><rect shape-rendering="crispEdges" fill="rgb(156, 123, 106)"  x="23" y="26" width="1" height="1" /><rect shape-rendering="crispEdges" fill="rgb(180, 148, 131)"  x="23" y="27" width="1" height="1" /><rect shape-rendering="crispEdges" fill="rgb(180, 131, 106)"  x="23" y="28" width="1" height="1" /><rect shape-rendering="crispEdges" fill="rgb(156, 98, 82)"  x="23" y="29" width="1" height="1" /><rect shape-rendering="crispEdges" fill="rgb(131, 98, 90)"  x="24" y="19" width="1" height="1" /><rect shape-rendering="crispEdges" fill="rgb(180, 148, 131)"  x="24" y="20" width="1" height="1" /><rect shape-rendering="crispEdges" fill="rgb(98, 74, 65)"  x="24" y="21" width="1" height="1" /><rect shape-rendering="crispEdges" fill="rgb(180, 131, 106)"  x="24" y="27" width="1" height="1" /><rect shape-rendering="crispEdges" fill="rgb(156, 98, 82)"  x="24" y="28" width="1" height="1" /><rect shape-rendering="crispEdges" fill="rgb(156, 98, 82)"  x="24" y="29" width="1" height="1" /><rect shape-rendering="crispEdges" fill="rgb(180, 148, 131)"  x="25" y="20" width="1" height="1" /><rect shape-rendering="crispEdges" fill="rgb(98, 74, 65)"  x="25" y="21" width="1" height="1" /><rect shape-rendering="crispEdges" fill="rgb(156, 98, 82)"  x="25" y="28" width="1" height="1" /><rect shape-rendering="crispEdges" fill="rgb(156, 98, 82)"  x="25" y="29" width="1" height="1" /><rect shape-rendering="crispEdges" fill="rgb(180, 148, 131)"  x="26" y="19" width="1" height="1" /><rect shape-rendering="crispEdges" fill="rgb(131, 98, 90)"  x="26" y="20" width="1" height="1" /><rect shape-rendering="crispEdges" fill="rgb(98, 74, 65)"  x="26" y="21" width="1" height="1" /><rect shape-rendering="crispEdges" fill="rgb(180, 148, 131)"  x="27" y="18" width="1" height="1" /><rect shape-rendering="crispEdges" fill="rgb(131, 98, 90)"  x="27" y="19" width="1" height="1" /><rect shape-rendering="crispEdges" fill="rgb(98, 74, 65)"  x="27" y="20" width="1" height="1" /></svg>