<svg xmlns="http://www.w3.org/2000/svg" xmlns:xlink= "http://www.w3.org/1999/xlink" width="32" height="32" viewBox ="0 0 32 32"><rect shape-rendering="crispEdges" fill="rgb(14, 250, 29)"  x="4" y="16" width="1" height="1" /><rect shape-rendering="crispEdges" fill="rgb(48, 250, 56)"  x="4" y="17" width="1" height="1" /><rect shape-rendering="crispEdges" fill="rgb(34, 167, 31)"  x="4" y="18" width="1" height="1" /><rect shape-rendering="crispEdges" fill="rgb(16, 250, 31)"  x="5" y="14" width="1" height="1" /><rect shape-rendering="crispEdges" fill="rgb(15, 250, 30)"  x="5" y="15" width="1" height="1" /><rect shape-rendering="crispEdges" fill="rgb(16, 250, 31)"  x="5" y="16" width="1" height="1" /><rect shape-rendering="crispEdges" fill="rgb(54, 250, 60)"  x="5" y="17" width="1" height="1" /><rect shape-rendering="crispEdges" fill="rgb(44, 175, 41)"  x="5" y="18" width="1" height="1" /><rect shape-rendering="crispEdges" fill="rgb(5, 153, 7)"  x="5" y="19" width="1" height="1" /><rect shape-rendering="crispEdges" fill="rgb(18, 250, 32)"  x="6" y="12" width="1" height="1" /><rect shape-rendering="crispEdges" fill="rgb(17, 250, 32)"  x="6" y="13" width="1" height="1" /><rect shape-rendering="crispEdges" fill="rgb(17, 250, 31)"  x="6" y="14" width="1" height="1" /><rect shape-rendering="crispEdges" fill="rgb(16, 250, 31)"  x="6" y="15" width="1" height="1" /><rect shape-rendering="crispEdges" fill="rgb(18, 250, 32)"  x="6" y="16" width="1" height="1" /><rect shape-rendering="crispEdges" fill="rgb(62, 251, 65)"  x="6" y="17" width="1" height="1" /><rect shape-rendering="crispEdges" fill="rgb(53, 182, 50)"  x="6" y="18" width="1" height="1" /><rect shape-rendering="crispEdges" fill="rgb(5, 153, 7)"  x="6" y="19" width="1" height="1" /><rect shape-rendering="crispEdges" fill="rgb(6, 157, 8)"  x="6" y="20" width="1" height="1" /><rect shape-rendering="crispEdges" fill="rgb(18, 250, 32)"  x="7" y="11" width="1" height="1" /><rect shape-rendering="crispEdges" fill="rgb(19, 250, 33)"  x="7" y="12" width="1" height="1" /><rect shape-rendering="crispEdges" fill="rgb(18, 250, 32)"  x="7" y="13" width="1" height="1" /><rect shape-rendering="crispEdges" fill="rgb(18, 250, 32)"  x="7" y="14" width="1" height="1" /><rect shape-rendering="crispEdges" fill="rgb(17, 250, 31)"  x="7" y="15" width="1" height="1" /><rect shape-rendering="crispEdges" fill="rgb(20, 250, 33)"  x="7" y="16" width="1" height="1" /><rect shape-rendering="crispEdges" fill="rgb(70, 251, 71)"  x="7" y="17" width="1" height="1" /><rect shape-rendering="crispEdges" fill="rgb(64, 189, 57)"  x="7" y="18" width="1" height="1" /><rect shape-rendering="crispEdges" fill="rgb(5, 152, 7)"  x="7" y="19" width="1" height="1" /><rect shape-rendering="crispEdges" fill="rgb(6, 156, 8)"  x="7" y="20" width="1" height="1" /><rect shape-rendering="crispEdges" fill="rgb(57, 252, 52)"  x="8" y="9" width="1" height="1" /><rect shape-rendering="crispEdges" fill="rgb(27, 251, 36)"  x="8" y="10" width="1" height="1" /><rect shape-rendering="crispEdges" fill="rgb(17, 250, 32)"  x="8" y="11" width="1" height="1" /><rect shape-rendering="crispEdges" fill="rgb(19, 250, 33)"  x="8" y="12" width="1" height="1" /><rect shape-rendering="crispEdges" fill="rgb(19, 250, 33)"  x="8" y="13" width="1" height="1" /><rect shape-rendering="crispEdges" fill="rgb(18, 250, 32)"  x="8" y="14" width="1" height="1" /><rect shape-rendering="crispEdges" fill="rgb(18, 250, 32)"  x="8" y="15" width="1" height="1" /><rect shape-rendering="crispEdges" fill="rgb(23, 250, 35)"  x="8" y="16" width="1" height="1" /><rect shape-rendering="crispEdges" fill="rgb(75, 251, 75)"  x="8" y="17" width="1" height="1" /><rect shape-rendering="crispEdges" fill="rgb(76, 195, 64)"  x="8" y="18" width="1" height="1" /><rect shape-rendering="crispEdges" fill="rgb(5, 151, 6)"  x="8" y="19" width="1" height="1" /><rect shape-rendering="crispEdges" fill="rgb(19, 116, 62)"  x="8" y="20" width="1" height="1" /><rect shape-rendering="crispEdges" fill="rgb(23, 106, 76)"  x="8" y="21" width="1" height="1" /><rect shape-rendering="crispEdges" fill="rgb(82, 253, 65)"  x="9" y="7" width="1" height="1" /><rect shape-rendering="crispEdges" fill="rgb(74, 253, 61)"  x="9" y="8" width="1" height="1" /><rect shape-rendering="crispEdges" fill="rgb(65, 253, 56)"  x="9" y="9" width="1" height="1" /><rect shape-rendering="crispEdges" fill="rgb(43, 200, 69)"  x="9" y="10" width="1" height="1" /><rect shape-rendering="crispEdges" fill="rgb(43, 126, 105)"  x="9" y="11" width="1" height="1" /><rect shape-rendering="crispEdges" fill="rgb(36, 163, 84)"  x="9" y="12" width="1" height="1" /><rect shape-rendering="crispEdges" fill="rgb(19, 250, 33)"  x="9" y="13" width="1" height="1" /><rect shape-rendering="crispEdges" fill="rgb(18, 250, 32)"  x="9" y="14" width="1" height="1" /><rect shape-rendering="crispEdges" fill="rgb(19, 250, 33)"  x="9" y="15" width="1" height="1" /><rect shape-rendering="crispEdges" fill="rgb(26, 250, 37)"  x="9" y="16" width="1" height="1" /><rect shape-rendering="crispEdges" fill="rgb(80, 251, 78)"  x="9" y="17" width="1" height="1" /><rect shape-rendering="crispEdges" fill="rgb(85, 200, 68)"  x="9" y="18" width="1" height="1" /><rect shape-rendering="crispEdges" fill="rgb(4, 150, 5)"  x="9" y="19" width="1" height="1" /><rect shape-rendering="crispEdges" fill="rgb(15, 127, 46)"  x="9" y="20" width="1" height="1" /><rect shape-rendering="crispEdges" fill="rgb(23, 107, 75)"  x="9" y="21" width="1" height="1" /><rect shape-rendering="crispEdges" fill="rgb(20, 119, 63)"  x="9" y="22" width="1" height="1" /><rect shape-rendering="crispEdges" fill="rgb(93, 254, 70)"  x="10" y="5" width="1" height="1" /><rect shape-rendering="crispEdges" fill="rgb(85, 253, 66)"  x="10" y="6" width="1" height="1" /><rect shape-rendering="crispEdges" fill="rgb(79, 253, 63)"  x="10" y="7" width="1" height="1" /><rect shape-rendering="crispEdges" fill="rgb(75, 253, 61)"  x="10" y="8" width="1" height="1" /><rect shape-rendering="crispEdges" fill="rgb(68, 253, 58)"  x="10" y="9" width="1" height="1" /><rect shape-rendering="crispEdges" fill="rgb(44, 126, 106)"  x="10" y="10" width="1" height="1" /><rect shape-rendering="crispEdges" fill="rgb(44, 120, 109)"  x="10" y="11" width="1" height="1" /><rect shape-rendering="crispEdges" fill="rgb(43, 126, 106)"  x="10" y="12" width="1" height="1" /><rect shape-rendering="crispEdges" fill="rgb(19, 250, 33)"  x="10" y="13" width="1" height="1" /><rect shape-rendering="crispEdges" fill="rgb(18, 250, 32)"  x="10" y="14" width="1" height="1" /><rect shape-rendering="crispEdges" fill="rgb(20, 250, 34)"  x="10" y="15" width="1" height="1" /><rect shape-rendering="crispEdges" fill="rgb(31, 251, 40)"  x="10" y="16" width="1" height="1" /><rect shape-rendering="crispEdges" fill="rgb(87, 251, 82)"  x="10" y="17" width="1" height="1" /><rect shape-rendering="crispEdges" fill="rgb(99, 207, 77)"  x="10" y="18" width="1" height="1" /><rect shape-rendering="crispEdges" fill="rgb(4, 150, 5)"  x="10" y="19" width="1" height="1" /><rect shape-rendering="crispEdges" fill="rgb(5, 154, 7)"  x="10" y="20" width="1" height="1" /><rect shape-rendering="crispEdges" fill="rgb(6, 159, 8)"  x="10" y="21" width="1" height="1" /><rect shape-rendering="crispEdges" fill="rgb(7, 165, 10)"  x="10" y="22" width="1" height="1" /><rect shape-rendering="crispEdges" fill="rgb(8, 169, 11)"  x="10" y="23" width="1" height="1" /><rect shape-rendering="crispEdges" fill="rgb(106, 254, 81)"  x="11" y="4" width="1" height="1" /><rect shape-rendering="crispEdges" fill="rgb(97, 254, 76)"  x="11" y="5" width="1" height="1" /><rect shape-rendering="crispEdges" fill="rgb(89, 253, 73)"  x="11" y="6" width="1" height="1" /><rect shape-rendering="crispEdges" fill="rgb(83, 253, 69)"  x="11" y="7" width="1" height="1" /><rect shape-rendering="crispEdges" fill="rgb(78, 253, 67)"  x="11" y="8" width="1" height="1" /><rect shape-rendering="crispEdges" fill="rgb(72, 253, 63)"  x="11" y="9" width="1" height="1" /><rect shape-rendering="crispEdges" fill="rgb(50, 162, 92)"  x="11" y="10" width="1" height="1" /><rect shape-rendering="crispEdges" fill="rgb(44, 125, 106)"  x="11" y="11" width="1" height="1" /><rect shape-rendering="crispEdges" fill="rgb(32, 197, 67)"  x="11" y="12" width="1" height="1" /><rect shape-rendering="crispEdges" fill="rgb(22, 250, 36)"  x="11" y="13" width="1" height="1" /><rect shape-rendering="crispEdges" fill="rgb(22, 250, 35)"  x="11" y="14" width="1" height="1" /><rect shape-rendering="crispEdges" fill="rgb(25, 251, 37)"  x="11" y="15" width="1" height="1" /><rect shape-rendering="crispEdges" fill="rgb(38, 251, 44)"  x="11" y="16" width="1" height="1" /><rect shape-rendering="crispEdges" fill="rgb(90, 251, 83)"  x="11" y="17" width="1" height="1" /><rect shape-rendering="crispEdges" fill="rgb(107, 212, 84)"  x="11" y="18" width="1" height="1" /><rect shape-rendering="crispEdges" fill="rgb(3, 147, 4)"  x="11" y="19" width="1" height="1" /><rect shape-rendering="crispEdges" fill="rgb(5, 153, 6)"  x="11" y="20" width="1" height="1" /><rect shape-rendering="crispEdges" fill="rgb(6, 159, 8)"  x="11" y="21" width="1" height="1" /><rect shape-rendering="crispEdges" fill="rgb(7, 165, 9)"  x="11" y="22" width="1" height="1" /><rect shape-rendering="crispEdges" fill="rgb(9, 171, 11)"  x="11" y="23" width="1" height="1" /><rect shape-rendering="crispEdges" fill="rgb(9, 174, 12)"  x="11" y="24" width="1" height="1" /><rect shape-rendering="crispEdges" fill="rgb(131, 255, 97)"  x="12" y="2" width="1" height="1" /><rect shape-rendering="crispEdges" fill="rgb(126, 254, 95)"  x="12" y="3" width="1" height="1" /><rect shape-rendering="crispEdges" fill="rgb(120, 253, 94)"  x="12" y="4" width="1" height="1" /><rect shape-rendering="crispEdges" fill="rgb(113, 253, 91)"  x="12" y="5" width="1" height="1" /><rect shape-rendering="crispEdges" fill="rgb(107, 253, 88)"  x="12" y="6" width="1" height="1" /><rect shape-rendering="crispEdges" fill="rgb(101, 253, 84)"  x="12" y="7" width="1" height="1" /><rect shape-rendering="crispEdges" fill="rgb(94, 252, 82)"  x="12" y="8" width="1" height="1" /><rect shape-rendering="crispEdges" fill="rgb(89, 252, 79)"  x="12" y="9" width="1" height="1" /><rect shape-rendering="crispEdges" fill="rgb(77, 252, 72)"  x="12" y="10" width="1" height="1" /><rect shape-rendering="crispEdges" fill="rgb(53, 251, 60)"  x="12" y="11" width="1" height="1" /><rect shape-rendering="crispEdges" fill="rgb(41, 251, 52)"  x="12" y="12" width="1" height="1" /><rect shape-rendering="crispEdges" fill="rgb(38, 251, 49)"  x="12" y="13" width="1" height="1" /><rect shape-rendering="crispEdges" fill="rgb(34, 250, 45)"  x="12" y="14" width="1" height="1" /><rect shape-rendering="crispEdges" fill="rgb(37, 250, 47)"  x="12" y="15" width="1" height="1" /><rect shape-rendering="crispEdges" fill="rgb(50, 251, 54)"  x="12" y="16" width="1" height="1" /><rect shape-rendering="crispEdges" fill="rgb(96, 252, 85)"  x="12" y="17" width="1" height="1" /><rect shape-rendering="crispEdges" fill="rgb(114, 216, 88)"  x="12" y="18" width="1" height="1" /><rect shape-rendering="crispEdges" fill="rgb(6, 146, 6)"  x="12" y="19" width="1" height="1" /><rect shape-rendering="crispEdges" fill="rgb(4, 152, 5)"  x="12" y="20" width="1" height="1" /><rect shape-rendering="crispEdges" fill="rgb(5, 158, 7)"  x="12" y="21" width="1" height="1" /><rect shape-rendering="crispEdges" fill="rgb(7, 165, 9)"  x="12" y="22" width="1" height="1" /><rect shape-rendering="crispEdges" fill="rgb(9, 172, 11)"  x="12" y="23" width="1" height="1" /><rect shape-rendering="crispEdges" fill="rgb(9, 177, 12)"  x="12" y="24" width="1" height="1" /><rect shape-rendering="crispEdges" fill="rgb(132, 254, 113)"  x="13" y="2" width="1" height="1" /><rect shape-rendering="crispEdges" fill="rgb(142, 254, 118)"  x="13" y="3" width="1" height="1" /><rect shape-rendering="crispEdges" fill="rgb(138, 254, 111)"  x="13" y="4" width="1" height="1" /><rect shape-rendering="crispEdges" fill="rgb(132, 253, 106)"  x="13" y="5" width="1" height="1" /><rect shape-rendering="crispEdges" fill="rgb(129, 253, 103)"  x="13" y="6" width="1" height="1" /><rect shape-rendering="crispEdges" fill="rgb(123, 253, 101)"  x="13" y="7" width="1" height="1" /><rect shape-rendering="crispEdges" fill="rgb(119, 253, 101)"  x="13" y="8" width="1" height="1" /><rect shape-rendering="crispEdges" fill="rgb(115, 253, 100)"  x="13" y="9" width="1" height="1" /><rect shape-rendering="crispEdges" fill="rgb(104, 253, 94)"  x="13" y="10" width="1" height="1" /><rect shape-rendering="crispEdges" fill="rgb(85, 252, 85)"  x="13" y="11" width="1" height="1" /><rect shape-rendering="crispEdges" fill="rgb(76, 252, 79)"  x="13" y="12" width="1" height="1" /><rect shape-rendering="crispEdges" fill="rgb(67, 252, 73)"  x="13" y="13" width="1" height="1" /><rect shape-rendering="crispEdges" fill="rgb(61, 251, 68)"  x="13" y="14" width="1" height="1" /><rect shape-rendering="crispEdges" fill="rgb(63, 251, 67)"  x="13" y="15" width="1" height="1" /><rect shape-rendering="crispEdges" fill="rgb(72, 252, 70)"  x="13" y="16" width="1" height="1" /><rect shape-rendering="crispEdges" fill="rgb(108, 252, 95)"  x="13" y="17" width="1" height="1" /><rect shape-rendering="crispEdges" fill="rgb(119, 219, 92)"  x="13" y="18" width="1" height="1" /><rect shape-rendering="crispEdges" fill="rgb(9, 147, 6)"  x="13" y="19" width="1" height="1" /><rect shape-rendering="crispEdges" fill="rgb(4, 150, 5)"  x="13" y="20" width="1" height="1" /><rect shape-rendering="crispEdges" fill="rgb(5, 157, 7)"  x="13" y="21" width="1" height="1" /><rect shape-rendering="crispEdges" fill="rgb(7, 164, 8)"  x="13" y="22" width="1" height="1" /><rect shape-rendering="crispEdges" fill="rgb(8, 171, 11)"  x="13" y="23" width="1" height="1" /><rect shape-rendering="crispEdges" fill="rgb(9, 177, 12)"  x="13" y="24" width="1" height="1" /><rect shape-rendering="crispEdges" fill="rgb(10, 181, 13)"  x="13" y="25" width="1" height="1" /><rect shape-rendering="crispEdges" fill="rgb(28, 163, 26)"  x="14" y="2" width="1" height="1" /><rect shape-rendering="crispEdges" fill="rgb(57, 180, 53)"  x="14" y="3" width="1" height="1" /><rect shape-rendering="crispEdges" fill="rgb(79, 194, 74)"  x="14" y="4" width="1" height="1" /><rect shape-rendering="crispEdges" fill="rgb(96, 206, 90)"  x="14" y="5" width="1" height="1" /><rect shape-rendering="crispEdges" fill="rgb(111, 220, 103)"  x="14" y="6" width="1" height="1" /><rect shape-rendering="crispEdges" fill="rgb(127, 235, 115)"  x="14" y="7" width="1" height="1" /><rect shape-rendering="crispEdges" fill="rgb(148, 248, 127)"  x="14" y="8" width="1" height="1" /><rect shape-rendering="crispEdges" fill="rgb(151, 252, 124)"  x="14" y="9" width="1" height="1" /><rect shape-rendering="crispEdges" fill="rgb(147, 253, 120)"  x="14" y="10" width="1" height="1" /><rect shape-rendering="crispEdges" fill="rgb(143, 254, 119)"  x="14" y="11" width="1" height="1" /><rect shape-rendering="crispEdges" fill="rgb(137, 253, 118)"  x="14" y="12" width="1" height="1" /><rect shape-rendering="crispEdges" fill="rgb(123, 252, 112)"  x="14" y="13" width="1" height="1" /><rect shape-rendering="crispEdges" fill="rgb(110, 252, 105)"  x="14" y="14" width="1" height="1" /><rect shape-rendering="crispEdges" fill="rgb(101, 252, 95)"  x="14" y="15" width="1" height="1" /><rect shape-rendering="crispEdges" fill="rgb(100, 252, 91)"  x="14" y="16" width="1" height="1" /><rect shape-rendering="crispEdges" fill="rgb(113, 253, 97)"  x="14" y="17" width="1" height="1" /><rect shape-rendering="crispEdges" fill="rgb(101, 214, 80)"  x="14" y="18" width="1" height="1" /><rect shape-rendering="crispEdges" fill="rgb(2, 142, 3)"  x="14" y="19" width="1" height="1" /><rect shape-rendering="crispEdges" fill="rgb(3, 147, 4)"  x="14" y="20" width="1" height="1" /><rect shape-rendering="crispEdges" fill="rgb(4, 153, 6)"  x="14" y="21" width="1" height="1" /><rect shape-rendering="crispEdges" fill="rgb(6, 161, 8)"  x="14" y="22" width="1" height="1" /><rect shape-rendering="crispEdges" fill="rgb(7, 168, 9)"  x="14" y="23" width="1" height="1" /><rect shape-rendering="crispEdges" fill="rgb(20, 123, 63)"  x="14" y="24" width="1" height="1" /><rect shape-rendering="crispEdges" fill="rgb(24, 111, 77)"  x="14" y="25" width="1" height="1" /><rect shape-rendering="crispEdges" fill="rgb(18, 140, 51)"  x="14" y="26" width="1" height="1" /><rect shape-rendering="crispEdges" fill="rgb(4, 149, 3)"  x="15" y="2" width="1" height="1" /><rect shape-rendering="crispEdges" fill="rgb(15, 86, 54)"  x="15" y="3" width="1" height="1" /><rect shape-rendering="crispEdges" fill="rgb(19, 67, 69)"  x="15" y="4" width="1" height="1" /><rect shape-rendering="crispEdges" fill="rgb(12, 112, 31)"  x="15" y="5" width="1" height="1" /><rect shape-rendering="crispEdges" fill="rgb(8, 137, 8)"  x="15" y="6" width="1" height="1" /><rect shape-rendering="crispEdges" fill="rgb(9, 135, 8)"  x="15" y="7" width="1" height="1" /><rect shape-rendering="crispEdges" fill="rgb(21, 140, 19)"  x="15" y="8" width="1" height="1" /><rect shape-rendering="crispEdges" fill="rgb(53, 163, 47)"  x="15" y="9" width="1" height="1" /><rect shape-rendering="crispEdges" fill="rgb(85, 185, 74)"  x="15" y="10" width="1" height="1" /><rect shape-rendering="crispEdges" fill="rgb(113, 206, 97)"  x="15" y="11" width="1" height="1" /><rect shape-rendering="crispEdges" fill="rgb(136, 223, 113)"  x="15" y="12" width="1" height="1" /><rect shape-rendering="crispEdges" fill="rgb(152, 236, 125)"  x="15" y="13" width="1" height="1" /><rect shape-rendering="crispEdges" fill="rgb(165, 247, 133)"  x="15" y="14" width="1" height="1" /><rect shape-rendering="crispEdges" fill="rgb(167, 252, 135)"  x="15" y="15" width="1" height="1" /><rect shape-rendering="crispEdges" fill="rgb(159, 252, 128)"  x="15" y="16" width="1" height="1" /><rect shape-rendering="crispEdges" fill="rgb(162, 253, 130)"  x="15" y="17" width="1" height="1" /><rect shape-rendering="crispEdges" fill="rgb(156, 238, 123)"  x="15" y="18" width="1" height="1" /><rect shape-rendering="crispEdges" fill="rgb(37, 160, 25)"  x="15" y="19" width="1" height="1" /><rect shape-rendering="crispEdges" fill="rgb(4, 145, 4)"  x="15" y="20" width="1" height="1" /><rect shape-rendering="crispEdges" fill="rgb(4, 150, 5)"  x="15" y="21" width="1" height="1" /><rect shape-rendering="crispEdges" fill="rgb(5, 157, 7)"  x="15" y="22" width="1" height="1" /><rect shape-rendering="crispEdges" fill="rgb(7, 164, 8)"  x="15" y="23" width="1" height="1" /><rect shape-rendering="crispEdges" fill="rgb(17, 136, 48)"  x="15" y="24" width="1" height="1" /><rect shape-rendering="crispEdges" fill="rgb(23, 110, 76)"  x="15" y="25" width="1" height="1" /><rect shape-rendering="crispEdges" fill="rgb(21, 124, 64)"  x="15" y="26" width="1" height="1" /><rect shape-rendering="crispEdges" fill="rgb(10, 184, 13)"  x="15" y="27" width="1" height="1" /><rect shape-rendering="crispEdges" fill="rgb(19, 67, 69)"  x="16" y="3" width="1" height="1" /><rect shape-rendering="crispEdges" fill="rgb(20, 62, 73)"  x="16" y="4" width="1" height="1" /><rect shape-rendering="crispEdges" fill="rgb(19, 68, 68)"  x="16" y="5" width="1" height="1" /><rect shape-rendering="crispEdges" fill="rgb(4, 136, 4)"  x="16" y="6" width="1" height="1" /><rect shape-rendering="crispEdges" fill="rgb(4, 132, 3)"  x="16" y="7" width="1" height="1" /><rect shape-rendering="crispEdges" fill="rgb(3, 129, 3)"  x="16" y="8" width="1" height="1" /><rect shape-rendering="crispEdges" fill="rgb(2, 127, 2)"  x="16" y="9" width="1" height="1" /><rect shape-rendering="crispEdges" fill="rgb(2, 124, 2)"  x="16" y="10" width="1" height="1" /><rect shape-rendering="crispEdges" fill="rgb(2, 124, 2)"  x="16" y="11" width="1" height="1" /><rect shape-rendering="crispEdges" fill="rgb(1, 123, 2)"  x="16" y="12" width="1" height="1" /><rect shape-rendering="crispEdges" fill="rgb(8, 128, 8)"  x="16" y="13" width="1" height="1" /><rect shape-rendering="crispEdges" fill="rgb(20, 136, 18)"  x="16" y="14" width="1" height="1" /><rect shape-rendering="crispEdges" fill="rgb(42, 153, 37)"  x="16" y="15" width="1" height="1" /><rect shape-rendering="crispEdges" fill="rgb(68, 174, 58)"  x="16" y="16" width="1" height="1" /><rect shape-rendering="crispEdges" fill="rgb(126, 214, 97)"  x="16" y="17" width="1" height="1" /><rect shape-rendering="crispEdges" fill="rgb(182, 253, 134)"  x="16" y="18" width="1" height="1" /><rect shape-rendering="crispEdges" fill="rgb(132, 233, 106)"  x="16" y="19" width="1" height="1" /><rect shape-rendering="crispEdges" fill="rgb(91, 204, 75)"  x="16" y="20" width="1" height="1" /><rect shape-rendering="crispEdges" fill="rgb(83, 196, 64)"  x="16" y="21" width="1" height="1" /><rect shape-rendering="crispEdges" fill="rgb(66, 188, 50)"  x="16" y="22" width="1" height="1" /><rect shape-rendering="crispEdges" fill="rgb(39, 177, 31)"  x="16" y="23" width="1" height="1" /><rect shape-rendering="crispEdges" fill="rgb(22, 173, 19)"  x="16" y="24" width="1" height="1" /><rect shape-rendering="crispEdges" fill="rgb(13, 174, 13)"  x="16" y="25" width="1" height="1" /><rect shape-rendering="crispEdges" fill="rgb(9, 177, 11)"  x="16" y="26" width="1" height="1" /><rect shape-rendering="crispEdges" fill="rgb(9, 180, 12)"  x="16" y="27" width="1" height="1" /><rect shape-rendering="crispEdges" fill="rgb(9, 182, 12)"  x="16" y="28" width="1" height="1" /><rect shape-rendering="crispEdges" fill="rgb(19, 68, 69)"  x="17" y="4" width="1" height="1" /><rect shape-rendering="crispEdges" fill="rgb(16, 89, 52)"  x="17" y="5" width="1" height="1" /><rect shape-rendering="crispEdges" fill="rgb(7, 141, 6)"  x="17" y="6" width="1" height="1" /><rect shape-rendering="crispEdges" fill="rgb(6, 137, 5)"  x="17" y="7" width="1" height="1" /><rect shape-rendering="crispEdges" fill="rgb(4, 132, 4)"  x="17" y="8" width="1" height="1" /><rect shape-rendering="crispEdges" fill="rgb(2, 128, 2)"  x="17" y="9" width="1" height="1" /><rect shape-rendering="crispEdges" fill="rgb(2, 126, 2)"  x="17" y="10" width="1" height="1" /><rect shape-rendering="crispEdges" fill="rgb(1, 125, 2)"  x="17" y="11" width="1" height="1" /><rect shape-rendering="crispEdges" fill="rgb(2, 123, 2)"  x="17" y="12" width="1" height="1" /><rect shape-rendering="crispEdges" fill="rgb(1, 123, 2)"  x="17" y="13" width="1" height="1" /><rect shape-rendering="crispEdges" fill="rgb(14, 81, 52)"  x="17" y="14" width="1" height="1" /><rect shape-rendering="crispEdges" fill="rgb(19, 66, 69)"  x="17" y="15" width="1" height="1" /><rect shape-rendering="crispEdges" fill="rgb(8, 102, 28)"  x="17" y="16" width="1" height="1" /><rect shape-rendering="crispEdges" fill="rgb(25, 144, 19)"  x="17" y="17" width="1" height="1" /><rect shape-rendering="crispEdges" fill="rgb(69, 169, 51)"  x="17" y="18" width="1" height="1" /><rect shape-rendering="crispEdges" fill="rgb(23, 105, 18)"  x="17" y="19" width="1" height="1" /><rect shape-rendering="crispEdges" fill="rgb(30, 116, 25)"  x="17" y="20" width="1" height="1" /><rect shape-rendering="crispEdges" fill="rgb(52, 146, 43)"  x="17" y="21" width="1" height="1" /><rect shape-rendering="crispEdges" fill="rgb(63, 164, 51)"  x="17" y="22" width="1" height="1" /><rect shape-rendering="crispEdges" fill="rgb(59, 172, 45)"  x="17" y="23" width="1" height="1" /><rect shape-rendering="crispEdges" fill="rgb(46, 176, 35)"  x="17" y="24" width="1" height="1" /><rect shape-rendering="crispEdges" fill="rgb(38, 183, 30)"  x="17" y="25" width="1" height="1" /><rect shape-rendering="crispEdges" fill="rgb(25, 180, 21)"  x="17" y="26" width="1" height="1" /><rect shape-rendering="crispEdges" fill="rgb(17, 179, 16)"  x="17" y="27" width="1" height="1" /><rect shape-rendering="crispEdges" fill="rgb(13, 179, 13)"  x="17" y="28" width="1" height="1" /><rect shape-rendering="crispEdges" fill="rgb(12, 179, 13)"  x="17" y="29" width="1" height="1" /><rect shape-rendering="crispEdges" fill="rgb(12, 153, 8)"  x="18" y="5" width="1" height="1" /><rect shape-rendering="crispEdges" fill="rgb(10, 147, 8)"  x="18" y="6" width="1" height="1" /><rect shape-rendering="crispEdges" fill="rgb(8, 142, 6)"  x="18" y="7" width="1" height="1" /><rect shape-rendering="crispEdges" fill="rgb(5, 137, 5)"  x="18" y="8" width="1" height="1" /><rect shape-rendering="crispEdges" fill="rgb(4, 132, 3)"  x="18" y="9" width="1" height="1" /><rect shape-rendering="crispEdges" fill="rgb(2, 130, 2)"  x="18" y="10" width="1" height="1" /><rect shape-rendering="crispEdges" fill="rgb(1, 126, 2)"  x="18" y="11" width="1" height="1" /><rect shape-rendering="crispEdges" fill="rgb(2, 125, 2)"  x="18" y="12" width="1" height="1" /><rect shape-rendering="crispEdges" fill="rgb(2, 125, 2)"  x="18" y="13" width="1" height="1" /><rect shape-rendering="crispEdges" fill="rgb(19, 66, 69)"  x="18" y="14" width="1" height="1" /><rect shape-rendering="crispEdges" fill="rgb(20, 62, 73)"  x="18" y="15" width="1" height="1" /><rect shape-rendering="crispEdges" fill="rgb(19, 67, 68)"  x="18" y="16" width="1" height="1" /><rect shape-rendering="crispEdges" fill="rgb(38, 152, 29)"  x="18" y="17" width="1" height="1" /><rect shape-rendering="crispEdges" fill="rgb(14, 96, 11)"  x="18" y="18" width="1" height="1" /><rect shape-rendering="crispEdges" fill="rgb(10, 70, 38)"  x="18" y="19" width="1" height="1" /><rect shape-rendering="crispEdges" fill="rgb(14, 67, 50)"  x="18" y="20" width="1" height="1" /><rect shape-rendering="crispEdges" fill="rgb(0, 79, 0)"  x="18" y="21" width="1" height="1" /><rect shape-rendering="crispEdges" fill="rgb(0, 81, 0)"  x="18" y="22" width="1" height="1" /><rect shape-rendering="crispEdges" fill="rgb(0, 82, 0)"  x="18" y="23" width="1" height="1" /><rect shape-rendering="crispEdges" fill="rgb(0, 85, 0)"  x="18" y="24" width="1" height="1" /><rect shape-rendering="crispEdges" fill="rgb(12, 76, 39)"  x="18" y="25" width="1" height="1" /><rect shape-rendering="crispEdges" fill="rgb(15, 76, 51)"  x="18" y="26" width="1" height="1" /><rect shape-rendering="crispEdges" fill="rgb(5, 119, 4)"  x="18" y="27" width="1" height="1" /><rect shape-rendering="crispEdges" fill="rgb(9, 135, 6)"  x="18" y="28" width="1" height="1" /><rect shape-rendering="crispEdges" fill="rgb(12, 150, 8)"  x="18" y="29" width="1" height="1" /><rect shape-rendering="crispEdges" fill="rgb(12, 154, 9)"  x="19" y="6" width="1" height="1" /><rect shape-rendering="crispEdges" fill="rgb(9, 148, 7)"  x="19" y="7" width="1" height="1" /><rect shape-rendering="crispEdges" fill="rgb(7, 143, 5)"  x="19" y="8" width="1" height="1" /><rect shape-rendering="crispEdges" fill="rgb(5, 138, 4)"  x="19" y="9" width="1" height="1" /><rect shape-rendering="crispEdges" fill="rgb(3, 134, 3)"  x="19" y="10" width="1" height="1" /><rect shape-rendering="crispEdges" fill="rgb(2, 130, 2)"  x="19" y="11" width="1" height="1" /><rect shape-rendering="crispEdges" fill="rgb(1, 129, 2)"  x="19" y="12" width="1" height="1" /><rect shape-rendering="crispEdges" fill="rgb(1, 127, 2)"  x="19" y="13" width="1" height="1" /><rect shape-rendering="crispEdges" fill="rgb(8, 101, 29)"  x="19" y="14" width="1" height="1" /><rect shape-rendering="crispEdges" fill="rgb(19, 65, 69)"  x="19" y="15" width="1" height="1" /><rect shape-rendering="crispEdges" fill="rgb(22, 90, 55)"  x="19" y="16" width="1" height="1" /><rect shape-rendering="crispEdges" fill="rgb(42, 145, 31)"  x="19" y="17" width="1" height="1" /><rect shape-rendering="crispEdges" fill="rgb(3, 83, 2)"  x="19" y="18" width="1" height="1" /><rect shape-rendering="crispEdges" fill="rgb(14, 67, 51)"  x="19" y="19" width="1" height="1" /><rect shape-rendering="crispEdges" fill="rgb(11, 70, 39)"  x="19" y="20" width="1" height="1" /><rect shape-rendering="crispEdges" fill="rgb(0, 80, 0)"  x="19" y="21" width="1" height="1" /><rect shape-rendering="crispEdges" fill="rgb(0, 83, 0)"  x="19" y="22" width="1" height="1" /><rect shape-rendering="crispEdges" fill="rgb(0, 86, 0)"  x="19" y="23" width="1" height="1" /><rect shape-rendering="crispEdges" fill="rgb(0, 89, 0)"  x="19" y="24" width="1" height="1" /><rect shape-rendering="crispEdges" fill="rgb(14, 72, 51)"  x="19" y="25" width="1" height="1" /><rect shape-rendering="crispEdges" fill="rgb(11, 79, 39)"  x="19" y="26" width="1" height="1" /><rect shape-rendering="crispEdges" fill="rgb(0, 105, 0)"  x="19" y="27" width="1" height="1" /><rect shape-rendering="crispEdges" fill="rgb(0, 110, 0)"  x="19" y="28" width="1" height="1" /><rect shape-rendering="crispEdges" fill="rgb(11, 155, 8)"  x="20" y="7" width="1" height="1" /><rect shape-rendering="crispEdges" fill="rgb(8, 150, 6)"  x="20" y="8" width="1" height="1" /><rect shape-rendering="crispEdges" fill="rgb(5, 145, 5)"  x="20" y="9" width="1" height="1" /><rect shape-rendering="crispEdges" fill="rgb(4, 140, 3)"  x="20" y="10" width="1" height="1" /><rect shape-rendering="crispEdges" fill="rgb(2, 137, 2)"  x="20" y="11" width="1" height="1" /><rect shape-rendering="crispEdges" fill="rgb(1, 134, 2)"  x="20" y="12" width="1" height="1" /><rect shape-rendering="crispEdges" fill="rgb(1, 132, 2)"  x="20" y="13" width="1" height="1" /><rect shape-rendering="crispEdges" fill="rgb(1, 130, 2)"  x="20" y="14" width="1" height="1" /><rect shape-rendering="crispEdges" fill="rgb(1, 129, 1)"  x="20" y="15" width="1" height="1" /><rect shape-rendering="crispEdges" fill="rgb(23, 144, 17)"  x="20" y="16" width="1" height="1" /><rect shape-rendering="crispEdges" fill="rgb(35, 127, 26)"  x="20" y="17" width="1" height="1" /><rect shape-rendering="crispEdges" fill="rgb(0, 80, 0)"  x="20" y="18" width="1" height="1" /><rect shape-rendering="crispEdges" fill="rgb(0, 80, 0)"  x="20" y="19" width="1" height="1" /><rect shape-rendering="crispEdges" fill="rgb(0, 81, 0)"  x="20" y="20" width="1" height="1" /><rect shape-rendering="crispEdges" fill="rgb(0, 83, 0)"  x="20" y="21" width="1" height="1" /><rect shape-rendering="crispEdges" fill="rgb(0, 86, 0)"  x="20" y="22" width="1" height="1" /><rect shape-rendering="crispEdges" fill="rgb(0, 90, 0)"  x="20" y="23" width="1" height="1" /><rect shape-rendering="crispEdges" fill="rgb(0, 94, 0)"  x="20" y="24" width="1" height="1" /><rect shape-rendering="crispEdges" fill="rgb(0, 100, 0)"  x="20" y="25" width="1" height="1" /><rect shape-rendering="crispEdges" fill="rgb(0, 106, 0)"  x="20" y="26" width="1" height="1" /><rect shape-rendering="crispEdges" fill="rgb(0, 112, 0)"  x="20" y="27" width="1" height="1" /><rect shape-rendering="crispEdges" fill="rgb(8, 156, 6)"  x="21" y="8" width="1" height="1" /><rect shape-rendering="crispEdges" fill="rgb(5, 151, 5)"  x="21" y="9" width="1" height="1" /><rect shape-rendering="crispEdges" fill="rgb(4, 148, 3)"  x="21" y="10" width="1" height="1" /><rect shape-rendering="crispEdges" fill="rgb(2, 144, 2)"  x="21" y="11" width="1" height="1" /><rect shape-rendering="crispEdges" fill="rgb(1, 140, 1)"  x="21" y="12" width="1" height="1" /><rect shape-rendering="crispEdges" fill="rgb(1, 137, 1)"  x="21" y="13" width="1" height="1" /><rect shape-rendering="crispEdges" fill="rgb(1, 134, 1)"  x="21" y="14" width="1" height="1" /><rect shape-rendering="crispEdges" fill="rgb(1, 133, 1)"  x="21" y="15" width="1" height="1" /><rect shape-rendering="crispEdges" fill="rgb(29, 149, 21)"  x="21" y="16" width="1" height="1" /><rect shape-rendering="crispEdges" fill="rgb(16, 100, 12)"  x="21" y="17" width="1" height="1" /><rect shape-rendering="crispEdges" fill="rgb(0, 81, 0)"  x="21" y="18" width="1" height="1" /><rect shape-rendering="crispEdges" fill="rgb(0, 82, 0)"  x="21" y="19" width="1" height="1" /><rect shape-rendering="crispEdges" fill="rgb(0, 85, 0)"  x="21" y="20" width="1" height="1" /><rect shape-rendering="crispEdges" fill="rgb(0, 86, 0)"  x="21" y="21" width="1" height="1" /><rect shape-rendering="crispEdges" fill="rgb(0, 91, 0)"  x="21" y="22" width="1" height="1" /><rect shape-rendering="crispEdges" fill="rgb(0, 95, 0)"  x="21" y="23" width="1" height="1" /><rect shape-rendering="crispEdges" fill="rgb(0, 101, 0)"  x="21" y="24" width="1" height="1" /><rect shape-rendering="crispEdges" fill="rgb(0, 108, 0)"  x="21" y="25" width="1" height="1" /><rect shape-rendering="crispEdges" fill="rgb(6, 158, 4)"  x="22" y="9" width="1" height="1" /><rect shape-rendering="crispEdges" fill="rgb(4, 154, 3)"  x="22" y="10" width="1" height="1" /><rect shape-rendering="crispEdges" fill="rgb(3, 150, 2)"  x="22" y="11" width="1" height="1" /><rect shape-rendering="crispEdges" fill="rgb(1, 147, 2)"  x="22" y="12" width="1" height="1" /><rect shape-rendering="crispEdges" fill="rgb(1, 143, 1)"  x="22" y="13" width="1" height="1" /><rect shape-rendering="crispEdges" fill="rgb(0, 142, 1)"  x="22" y="14" width="1" height="1" /><rect shape-rendering="crispEdges" fill="rgb(3, 141, 3)"  x="22" y="15" width="1" height="1" /><rect shape-rendering="crispEdges" fill="rgb(29, 138, 21)"  x="22" y="16" width="1" height="1" /><rect shape-rendering="crispEdges" fill="rgb(3, 87, 2)"  x="22" y="17" width="1" height="1" /><rect shape-rendering="crispEdges" fill="rgb(0, 84, 0)"  x="22" y="18" width="1" height="1" /><rect shape-rendering="crispEdges" fill="rgb(0, 86, 0)"  x="22" y="19" width="1" height="1" /><rect shape-rendering="crispEdges" fill="rgb(0, 89, 0)"  x="22" y="20" width="1" height="1" /><rect shape-rendering="crispEdges" fill="rgb(11, 76, 40)"  x="22" y="21" width="1" height="1" /><rect shape-rendering="crispEdges" fill="rgb(14, 73, 50)"  x="22" y="22" width="1" height="1" /><rect shape-rendering="crispEdges" fill="rgb(0, 103, 0)"  x="22" y="23" width="1" height="1" /><rect shape-rendering="crispEdges" fill="rgb(0, 109, 0)"  x="22" y="24" width="1" height="1" /><rect shape-rendering="crispEdges" fill="rgb(3, 159, 3)"  x="23" y="10" width="1" height="1" /><rect shape-rendering="crispEdges" fill="rgb(2, 156, 2)"  x="23" y="11" width="1" height="1" /><rect shape-rendering="crispEdges" fill="rgb(1, 153, 1)"  x="23" y="12" width="1" height="1" /><rect shape-rendering="crispEdges" fill="rgb(1, 151, 1)"  x="23" y="13" width="1" height="1" /><rect shape-rendering="crispEdges" fill="rgb(1, 148, 1)"  x="23" y="14" width="1" height="1" /><rect shape-rendering="crispEdges" fill="rgb(11, 153, 9)"  x="23" y="15" width="1" height="1" /><rect shape-rendering="crispEdges" fill="rgb(23, 122, 18)"  x="23" y="16" width="1" height="1" /><rect shape-rendering="crispEdges" fill="rgb(0, 88, 0)"  x="23" y="17" width="1" height="1" /><rect shape-rendering="crispEdges" fill="rgb(0, 88, 0)"  x="23" y="18" width="1" height="1" /><rect shape-rendering="crispEdges" fill="rgb(0, 91, 0)"  x="23" y="19" width="1" height="1" /><rect shape-rendering="crispEdges" fill="rgb(0, 94, 0)"  x="23" y="20" width="1" height="1" /><rect shape-rendering="crispEdges" fill="rgb(15, 72, 53)"  x="23" y="21" width="1" height="1" /><rect shape-rendering="crispEdges" fill="rgb(11, 82, 39)"  x="23" y="22" width="1" height="1" /><rect shape-rendering="crispEdges" fill="rgb(3, 164, 2)"  x="24" y="10" width="1" height="1" /><rect shape-rendering="crispEdges" fill="rgb(14, 92, 51)"  x="24" y="11" width="1" height="1" /><rect shape-rendering="crispEdges" fill="rgb(19, 68, 68)"  x="24" y="12" width="1" height="1" /><rect shape-rendering="crispEdges" fill="rgb(8, 123, 26)"  x="24" y="13" width="1" height="1" /><rect shape-rendering="crispEdges" fill="rgb(0, 153, 0)"  x="24" y="14" width="1" height="1" /><rect shape-rendering="crispEdges" fill="rgb(18, 154, 13)"  x="24" y="15" width="1" height="1" /><rect shape-rendering="crispEdges" fill="rgb(24, 90, 47)"  x="24" y="16" width="1" height="1" /><rect shape-rendering="crispEdges" fill="rgb(14, 70, 53)"  x="24" y="17" width="1" height="1" /><rect shape-rendering="crispEdges" fill="rgb(0, 94, 0)"  x="24" y="18" width="1" height="1" /><rect shape-rendering="crispEdges" fill="rgb(0, 97, 0)"  x="24" y="19" width="1" height="1" /><rect shape-rendering="crispEdges" fill="rgb(0, 101, 0)"  x="24" y="20" width="1" height="1" /><rect shape-rendering="crispEdges" fill="rgb(0, 107, 0)"  x="24" y="21" width="1" height="1" /><rect shape-rendering="crispEdges" fill="rgb(19, 68, 69)"  x="25" y="11" width="1" height="1" /><rect shape-rendering="crispEdges" fill="rgb(20, 62, 73)"  x="25" y="12" width="1" height="1" /><rect shape-rendering="crispEdges" fill="rgb(19, 69, 68)"  x="25" y="13" width="1" height="1" /><rect shape-rendering="crispEdges" fill="rgb(0, 158, 0)"  x="25" y="14" width="1" height="1" /><rect shape-rendering="crispEdges" fill="rgb(12, 135, 9)"  x="25" y="15" width="1" height="1" /><rect shape-rendering="crispEdges" fill="rgb(18, 76, 54)"  x="25" y="16" width="1" height="1" /><rect shape-rendering="crispEdges" fill="rgb(11, 78, 39)"  x="25" y="17" width="1" height="1" /><rect shape-rendering="crispEdges" fill="rgb(0, 100, 0)"  x="25" y="18" width="1" height="1" /><rect shape-rendering="crispEdges" fill="rgb(0, 104, 0)"  x="25" y="19" width="1" height="1" /><rect shape-rendering="crispEdges" fill="rgb(19, 67, 69)"  x="26" y="12" width="1" height="1" /><rect shape-rendering="crispEdges" fill="rgb(14, 93, 51)"  x="26" y="13" width="1" height="1" /><rect shape-rendering="crispEdges" fill="rgb(0, 161, 0)"  x="26" y="14" width="1" height="1" /><rect shape-rendering="crispEdges" fill="rgb(4, 110, 3)"  x="26" y="15" width="1" height="1" /><rect shape-rendering="crispEdges" fill="rgb(0, 100, 0)"  x="26" y="16" width="1" height="1" /><rect shape-rendering="crispEdges" fill="rgb(0, 102, 0)"  x="26" y="17" width="1" height="1" /><rect shape-rendering="crispEdges" fill="rgb(0, 106, 0)"  x="26" y="18" width="1" height="1" /><rect shape-rendering="crispEdges" fill="rgb(0, 164, 0)"  x="27" y="13" width="1" height="1" /><rect shape-rendering="crispEdges" fill="rgb(0, 148, 0)"  x="27" y="14" width="1" height="1" /><rect shape-rendering="crispEdges" fill="rgb(0, 103, 0)"  x="27" y="15" width="1" height="1" /><rect shape-rendering="crispEdges" fill="rgb(0, 105, 0)"  x="27" y="16" width="1" height="1" /><rect shape-rendering="crispEdges" fill="rgb(4, 130, 3)"  x="28" y="14" width="1" height="1" /><rect shape-rendering="crispEdges" fill="rgb(0, 107, 0)"  x="28" y="15" width="1" height="1" /></svg>