<svg xmlns="http://www.w3.org/2000/svg" xmlns:xlink= "http://www.w3.org/1999/xlink" width="32" height="32" viewBox ="0 0 32 32"><rect shape-rendering="crispEdges" fill="rgb(131, 8, 8)"  x="4" y="16" width="1" height="1" /><rect shape-rendering="crispEdges" fill="rgb(180, 49, 32)"  x="4" y="17" width="1" height="1" /><rect shape-rendering="crispEdges" fill="rgb(180, 49, 32)"  x="4" y="18" width="1" height="1" /><rect shape-rendering="crispEdges" fill="rgb(131, 8, 8)"  x="4" y="19" width="1" height="1" /><rect shape-rendering="crispEdges" fill="rgb(131, 8, 8)"  x="4" y="20" width="1" height="1" /><rect shape-rendering="crispEdges" fill="rgb(131, 8, 8)"  x="4" y="21" width="1" height="1" /><rect shape-rendering="crispEdges" fill="rgb(131, 8, 8)"  x="4" y="22" width="1" height="1" /><rect shape-rendering="crispEdges" fill="rgb(131, 8, 8)"  x="5" y="15" width="1" height="1" /><rect shape-rendering="crispEdges" fill="rgb(213, 106, 74)"  x="5" y="16" width="1" height="1" /><rect shape-rendering="crispEdges" fill="rgb(255, 82, 65)"  x="5" y="17" width="1" height="1" /><rect shape-rendering="crispEdges" fill="rgb(255, 74, 82)"  x="5" y="18" width="1" height="1" /><rect shape-rendering="crispEdges" fill="rgb(255, 131, 106)"  x="5" y="19" width="1" height="1" /><rect shape-rendering="crispEdges" fill="rgb(255, 57, 24)"  x="5" y="20" width="1" height="1" /><rect shape-rendering="crispEdges" fill="rgb(255, 0, 0)"  x="5" y="21" width="1" height="1" /><rect shape-rendering="crispEdges" fill="rgb(246, 0, 0)"  x="5" y="22" width="1" height="1" /><rect shape-rendering="crispEdges" fill="rgb(139, 0, 0)"  x="5" y="23" width="1" height="1" /><rect shape-rendering="crispEdges" fill="rgb(131, 41, 32)"  x="6" y="14" width="1" height="1" /><rect shape-rendering="crispEdges" fill="rgb(197, 123, 106)"  x="6" y="15" width="1" height="1" /><rect shape-rendering="crispEdges" fill="rgb(255, 82, 74)"  x="6" y="16" width="1" height="1" /><rect shape-rendering="crispEdges" fill="rgb(238, 8, 16)"  x="6" y="17" width="1" height="1" /><rect shape-rendering="crispEdges" fill="rgb(246, 8, 8)"  x="6" y="18" width="1" height="1" /><rect shape-rendering="crispEdges" fill="rgb(255, 164, 148)"  x="6" y="19" width="1" height="1" /><rect shape-rendering="crispEdges" fill="rgb(255, 90, 57)"  x="6" y="20" width="1" height="1" /><rect shape-rendering="crispEdges" fill="rgb(255, 0, 0)"  x="6" y="21" width="1" height="1" /><rect shape-rendering="crispEdges" fill="rgb(255, 0, 0)"  x="6" y="22" width="1" height="1" /><rect shape-rendering="crispEdges" fill="rgb(164, 0, 0)"  x="6" y="23" width="1" height="1" /><rect shape-rendering="crispEdges" fill="rgb(123, 0, 0)"  x="6" y="24" width="1" height="1" /><rect shape-rendering="crispEdges" fill="rgb(123, 32, 24)"  x="7" y="13" width="1" height="1" /><rect shape-rendering="crispEdges" fill="rgb(180, 115, 82)"  x="7" y="14" width="1" height="1" /><rect shape-rendering="crispEdges" fill="rgb(255, 139, 115)"  x="7" y="15" width="1" height="1" /><rect shape-rendering="crispEdges" fill="rgb(246, 65, 65)"  x="7" y="16" width="1" height="1" /><rect shape-rendering="crispEdges" fill="rgb(197, 0, 8)"  x="7" y="17" width="1" height="1" /><rect shape-rendering="crispEdges" fill="rgb(222, 0, 0)"  x="7" y="18" width="1" height="1" /><rect shape-rendering="crispEdges" fill="rgb(255, 139, 131)"  x="7" y="19" width="1" height="1" /><rect shape-rendering="crispEdges" fill="rgb(255, 156, 115)"  x="7" y="20" width="1" height="1" /><rect shape-rendering="crispEdges" fill="rgb(255, 16, 0)"  x="7" y="21" width="1" height="1" /><rect shape-rendering="crispEdges" fill="rgb(255, 0, 0)"  x="7" y="22" width="1" height="1" /><rect shape-rendering="crispEdges" fill="rgb(189, 0, 0)"  x="7" y="23" width="1" height="1" /><rect shape-rendering="crispEdges" fill="rgb(115, 0, 0)"  x="7" y="24" width="1" height="1" /><rect shape-rendering="crispEdges" fill="rgb(131, 41, 32)"  x="8" y="12" width="1" height="1" /><rect shape-rendering="crispEdges" fill="rgb(172, 57, 32)"  x="8" y="13" width="1" height="1" /><rect shape-rendering="crispEdges" fill="rgb(255, 148, 82)"  x="8" y="14" width="1" height="1" /><rect shape-rendering="crispEdges" fill="rgb(255, 222, 172)"  x="8" y="15" width="1" height="1" /><rect shape-rendering="crispEdges" fill="rgb(255, 255, 222)"  x="8" y="16" width="1" height="1" /><rect shape-rendering="crispEdges" fill="rgb(197, 82, 74)"  x="8" y="17" width="1" height="1" /><rect shape-rendering="crispEdges" fill="rgb(189, 0, 0)"  x="8" y="18" width="1" height="1" /><rect shape-rendering="crispEdges" fill="rgb(246, 49, 49)"  x="8" y="19" width="1" height="1" /><rect shape-rendering="crispEdges" fill="rgb(255, 197, 164)"  x="8" y="20" width="1" height="1" /><rect shape-rendering="crispEdges" fill="rgb(246, 41, 16)"  x="8" y="21" width="1" height="1" /><rect shape-rendering="crispEdges" fill="rgb(255, 0, 0)"  x="8" y="22" width="1" height="1" /><rect shape-rendering="crispEdges" fill="rgb(238, 0, 0)"  x="8" y="23" width="1" height="1" /><rect shape-rendering="crispEdges" fill="rgb(139, 0, 0)"  x="8" y="24" width="1" height="1" /><rect shape-rendering="crispEdges" fill="rgb(131, 49, 32)"  x="9" y="11" width="1" height="1" /><rect shape-rendering="crispEdges" fill="rgb(164, 32, 24)"  x="9" y="12" width="1" height="1" /><rect shape-rendering="crispEdges" fill="rgb(255, 49, 24)"  x="9" y="13" width="1" height="1" /><rect shape-rendering="crispEdges" fill="rgb(255, 82, 24)"  x="9" y="14" width="1" height="1" /><rect shape-rendering="crispEdges" fill="rgb(255, 213, 139)"  x="9" y="15" width="1" height="1" /><rect shape-rendering="crispEdges" fill="rgb(255, 255, 230)"  x="9" y="16" width="1" height="1" /><rect shape-rendering="crispEdges" fill="rgb(230, 180, 156)"  x="9" y="17" width="1" height="1" /><rect shape-rendering="crispEdges" fill="rgb(180, 0, 0)"  x="9" y="18" width="1" height="1" /><rect shape-rendering="crispEdges" fill="rgb(238, 0, 0)"  x="9" y="19" width="1" height="1" /><rect shape-rendering="crispEdges" fill="rgb(255, 164, 148)"  x="9" y="20" width="1" height="1" /><rect shape-rendering="crispEdges" fill="rgb(222, 74, 49)"  x="9" y="21" width="1" height="1" /><rect shape-rendering="crispEdges" fill="rgb(230, 0, 0)"  x="9" y="22" width="1" height="1" /><rect shape-rendering="crispEdges" fill="rgb(255, 0, 0)"  x="9" y="23" width="1" height="1" /><rect shape-rendering="crispEdges" fill="rgb(172, 0, 0)"  x="9" y="24" width="1" height="1" /><rect shape-rendering="crispEdges" fill="rgb(131, 0, 0)"  x="9" y="25" width="1" height="1" /><rect shape-rendering="crispEdges" fill="rgb(131, 41, 24)"  x="10" y="10" width="1" height="1" /><rect shape-rendering="crispEdges" fill="rgb(164, 24, 16)"  x="10" y="11" width="1" height="1" /><rect shape-rendering="crispEdges" fill="rgb(238, 8, 0)"  x="10" y="12" width="1" height="1" /><rect shape-rendering="crispEdges" fill="rgb(255, 0, 0)"  x="10" y="13" width="1" height="1" /><rect shape-rendering="crispEdges" fill="rgb(255, 41, 0)"  x="10" y="14" width="1" height="1" /><rect shape-rendering="crispEdges" fill="rgb(255, 172, 82)"  x="10" y="15" width="1" height="1" /><rect shape-rendering="crispEdges" fill="rgb(255, 255, 205)"  x="10" y="16" width="1" height="1" /><rect shape-rendering="crispEdges" fill="rgb(255, 238, 205)"  x="10" y="17" width="1" height="1" /><rect shape-rendering="crispEdges" fill="rgb(180, 32, 24)"  x="10" y="18" width="1" height="1" /><rect shape-rendering="crispEdges" fill="rgb(213, 0, 0)"  x="10" y="19" width="1" height="1" /><rect shape-rendering="crispEdges" fill="rgb(255, 115, 106)"  x="10" y="20" width="1" height="1" /><rect shape-rendering="crispEdges" fill="rgb(222, 131, 106)"  x="10" y="21" width="1" height="1" /><rect shape-rendering="crispEdges" fill="rgb(197, 0, 0)"  x="10" y="22" width="1" height="1" /><rect shape-rendering="crispEdges" fill="rgb(230, 0, 0)"  x="10" y="23" width="1" height="1" /><rect shape-rendering="crispEdges" fill="rgb(189, 0, 0)"  x="10" y="24" width="1" height="1" /><rect shape-rendering="crispEdges" fill="rgb(139, 0, 0)"  x="10" y="25" width="1" height="1" /><rect shape-rendering="crispEdges" fill="rgb(115, 8, 8)"  x="11" y="9" width="1" height="1" /><rect shape-rendering="crispEdges" fill="rgb(123, 16, 8)"  x="11" y="10" width="1" height="1" /><rect shape-rendering="crispEdges" fill="rgb(222, 8, 0)"  x="11" y="11" width="1" height="1" /><rect shape-rendering="crispEdges" fill="rgb(197, 0, 0)"  x="11" y="12" width="1" height="1" /><rect shape-rendering="crispEdges" fill="rgb(222, 0, 0)"  x="11" y="13" width="1" height="1" /><rect shape-rendering="crispEdges" fill="rgb(246, 8, 0)"  x="11" y="14" width="1" height="1" /><rect shape-rendering="crispEdges" fill="rgb(255, 123, 41)"  x="11" y="15" width="1" height="1" /><rect shape-rendering="crispEdges" fill="rgb(255, 238, 172)"  x="11" y="16" width="1" height="1" /><rect shape-rendering="crispEdges" fill="rgb(255, 255, 222)"  x="11" y="17" width="1" height="1" /><rect shape-rendering="crispEdges" fill="rgb(205, 82, 74)"  x="11" y="18" width="1" height="1" /><rect shape-rendering="crispEdges" fill="rgb(189, 0, 0)"  x="11" y="19" width="1" height="1" /><rect shape-rendering="crispEdges" fill="rgb(246, 32, 41)"  x="11" y="20" width="1" height="1" /><rect shape-rendering="crispEdges" fill="rgb(246, 180, 148)"  x="11" y="21" width="1" height="1" /><rect shape-rendering="crispEdges" fill="rgb(189, 8, 0)"  x="11" y="22" width="1" height="1" /><rect shape-rendering="crispEdges" fill="rgb(180, 0, 0)"  x="11" y="23" width="1" height="1" /><rect shape-rendering="crispEdges" fill="rgb(189, 0, 0)"  x="11" y="24" width="1" height="1" /><rect shape-rendering="crispEdges" fill="rgb(148, 0, 0)"  x="11" y="25" width="1" height="1" /><rect shape-rendering="crispEdges" fill="rgb(115, 8, 8)"  x="12" y="8" width="1" height="1" /><rect shape-rendering="crispEdges" fill="rgb(115, 8, 8)"  x="12" y="9" width="1" height="1" /><rect shape-rendering="crispEdges" fill="rgb(213, 115, 90)"  x="12" y="10" width="1" height="1" /><rect shape-rendering="crispEdges" fill="rgb(197, 24, 16)"  x="12" y="11" width="1" height="1" /><rect shape-rendering="crispEdges" fill="rgb(189, 0, 0)"  x="12" y="12" width="1" height="1" /><rect shape-rendering="crispEdges" fill="rgb(222, 0, 0)"  x="12" y="13" width="1" height="1" /><rect shape-rendering="crispEdges" fill="rgb(246, 0, 0)"  x="12" y="14" width="1" height="1" /><rect shape-rendering="crispEdges" fill="rgb(255, 65, 8)"  x="12" y="15" width="1" height="1" /><rect shape-rendering="crispEdges" fill="rgb(255, 213, 123)"  x="12" y="16" width="1" height="1" /><rect shape-rendering="crispEdges" fill="rgb(255, 255, 213)"  x="12" y="17" width="1" height="1" /><rect shape-rendering="crispEdges" fill="rgb(255, 255, 213)"  x="12" y="18" width="1" height="1" /><rect shape-rendering="crispEdges" fill="rgb(180, 0, 0)"  x="12" y="19" width="1" height="1" /><rect shape-rendering="crispEdges" fill="rgb(213, 8, 8)"  x="12" y="20" width="1" height="1" /><rect shape-rendering="crispEdges" fill="rgb(255, 189, 164)"  x="12" y="21" width="1" height="1" /><rect shape-rendering="crispEdges" fill="rgb(197, 41, 24)"  x="12" y="22" width="1" height="1" /><rect shape-rendering="crispEdges" fill="rgb(172, 0, 0)"  x="12" y="23" width="1" height="1" /><rect shape-rendering="crispEdges" fill="rgb(180, 0, 0)"  x="12" y="24" width="1" height="1" /><rect shape-rendering="crispEdges" fill="rgb(148, 0, 0)"  x="12" y="25" width="1" height="1" /><rect shape-rendering="crispEdges" fill="rgb(115, 0, 0)"  x="13" y="7" width="1" height="1" /><rect shape-rendering="crispEdges" fill="rgb(115, 8, 8)"  x="13" y="8" width="1" height="1" /><rect shape-rendering="crispEdges" fill="rgb(255, 213, 123)"  x="13" y="9" width="1" height="1" /><rect shape-rendering="crispEdges" fill="rgb(172, 0, 0)"  x="13" y="10" width="1" height="1" /><rect shape-rendering="crispEdges" fill="rgb(172, 0, 0)"  x="13" y="11" width="1" height="1" /><rect shape-rendering="crispEdges" fill="rgb(205, 0, 0)"  x="13" y="12" width="1" height="1" /><rect shape-rendering="crispEdges" fill="rgb(230, 0, 0)"  x="13" y="13" width="1" height="1" /><rect shape-rendering="crispEdges" fill="rgb(238, 0, 0)"  x="13" y="14" width="1" height="1" /><rect shape-rendering="crispEdges" fill="rgb(255, 32, 0)"  x="13" y="15" width="1" height="1" /><rect shape-rendering="crispEdges" fill="rgb(255, 172, 74)"  x="13" y="16" width="1" height="1" /><rect shape-rendering="crispEdges" fill="rgb(255, 255, 213)"  x="13" y="17" width="1" height="1" /><rect shape-rendering="crispEdges" fill="rgb(255, 255, 213)"  x="13" y="18" width="1" height="1" /><rect shape-rendering="crispEdges" fill="rgb(197, 8, 0)"  x="13" y="19" width="1" height="1" /><rect shape-rendering="crispEdges" fill="rgb(213, 65, 41)"  x="13" y="20" width="1" height="1" /><rect shape-rendering="crispEdges" fill="rgb(255, 156, 131)"  x="13" y="21" width="1" height="1" /><rect shape-rendering="crispEdges" fill="rgb(205, 49, 32)"  x="13" y="22" width="1" height="1" /><rect shape-rendering="crispEdges" fill="rgb(172, 0, 0)"  x="13" y="23" width="1" height="1" /><rect shape-rendering="crispEdges" fill="rgb(172, 0, 0)"  x="13" y="24" width="1" height="1" /><rect shape-rendering="crispEdges" fill="rgb(164, 0, 0)"  x="13" y="25" width="1" height="1" /><rect shape-rendering="crispEdges" fill="rgb(115, 0, 0)"  x="14" y="7" width="1" height="1" /><rect shape-rendering="crispEdges" fill="rgb(255, 213, 123)"  x="14" y="8" width="1" height="1" /><rect shape-rendering="crispEdges" fill="rgb(205, 16, 0)"  x="14" y="9" width="1" height="1" /><rect shape-rendering="crispEdges" fill="rgb(172, 0, 0)"  x="14" y="10" width="1" height="1" /><rect shape-rendering="crispEdges" fill="rgb(180, 0, 0)"  x="14" y="11" width="1" height="1" /><rect shape-rendering="crispEdges" fill="rgb(213, 0, 0)"  x="14" y="12" width="1" height="1" /><rect shape-rendering="crispEdges" fill="rgb(230, 0, 0)"  x="14" y="13" width="1" height="1" /><rect shape-rendering="crispEdges" fill="rgb(246, 0, 0)"  x="14" y="14" width="1" height="1" /><rect shape-rendering="crispEdges" fill="rgb(255, 16, 0)"  x="14" y="15" width="1" height="1" /><rect shape-rendering="crispEdges" fill="rgb(255, 139, 49)"  x="14" y="16" width="1" height="1" /><rect shape-rendering="crispEdges" fill="rgb(255, 230, 172)"  x="14" y="17" width="1" height="1" /><rect shape-rendering="crispEdges" fill="rgb(230, 57, 49)"  x="14" y="18" width="1" height="1" /><rect shape-rendering="crispEdges" fill="rgb(246, 131, 82)"  x="14" y="19" width="1" height="1" /><rect shape-rendering="crispEdges" fill="rgb(255, 197, 123)"  x="14" y="20" width="1" height="1" /><rect shape-rendering="crispEdges" fill="rgb(255, 164, 98)"  x="14" y="21" width="1" height="1" /><rect shape-rendering="crispEdges" fill="rgb(180, 8, 8)"  x="14" y="22" width="1" height="1" /><rect shape-rendering="crispEdges" fill="rgb(156, 0, 0)"  x="14" y="23" width="1" height="1" /><rect shape-rendering="crispEdges" fill="rgb(172, 0, 0)"  x="14" y="24" width="1" height="1" /><rect shape-rendering="crispEdges" fill="rgb(148, 0, 0)"  x="14" y="25" width="1" height="1" /><rect shape-rendering="crispEdges" fill="rgb(106, 0, 0)"  x="15" y="6" width="1" height="1" /><rect shape-rendering="crispEdges" fill="rgb(180, 115, 90)"  x="15" y="7" width="1" height="1" /><rect shape-rendering="crispEdges" fill="rgb(230, 49, 8)"  x="15" y="8" width="1" height="1" /><rect shape-rendering="crispEdges" fill="rgb(172, 0, 0)"  x="15" y="9" width="1" height="1" /><rect shape-rendering="crispEdges" fill="rgb(172, 0, 0)"  x="15" y="10" width="1" height="1" /><rect shape-rendering="crispEdges" fill="rgb(180, 0, 0)"  x="15" y="11" width="1" height="1" /><rect shape-rendering="crispEdges" fill="rgb(222, 0, 0)"  x="15" y="12" width="1" height="1" /><rect shape-rendering="crispEdges" fill="rgb(230, 0, 0)"  x="15" y="13" width="1" height="1" /><rect shape-rendering="crispEdges" fill="rgb(246, 0, 0)"  x="15" y="14" width="1" height="1" /><rect shape-rendering="crispEdges" fill="rgb(255, 0, 0)"  x="15" y="15" width="1" height="1" /><rect shape-rendering="crispEdges" fill="rgb(255, 123, 41)"  x="15" y="16" width="1" height="1" /><rect shape-rendering="crispEdges" fill="rgb(238, 115, 74)"  x="15" y="17" width="1" height="1" /><rect shape-rendering="crispEdges" fill="rgb(222, 32, 24)"  x="15" y="18" width="1" height="1" /><rect shape-rendering="crispEdges" fill="rgb(255, 180, 106)"  x="15" y="19" width="1" height="1" /><rect shape-rendering="crispEdges" fill="rgb(255, 189, 115)"  x="15" y="20" width="1" height="1" /><rect shape-rendering="crispEdges" fill="rgb(255, 180, 131)"  x="15" y="21" width="1" height="1" /><rect shape-rendering="crispEdges" fill="rgb(222, 98, 82)"  x="15" y="22" width="1" height="1" /><rect shape-rendering="crispEdges" fill="rgb(205, 98, 74)"  x="15" y="23" width="1" height="1" /><rect shape-rendering="crispEdges" fill="rgb(197, 49, 41)"  x="15" y="24" width="1" height="1" /><rect shape-rendering="crispEdges" fill="rgb(115, 0, 0)"  x="15" y="25" width="1" height="1" /><rect shape-rendering="crispEdges" fill="rgb(123, 16, 8)"  x="16" y="6" width="1" height="1" /><rect shape-rendering="crispEdges" fill="rgb(222, 131, 106)"  x="16" y="7" width="1" height="1" /><rect shape-rendering="crispEdges" fill="rgb(164, 24, 24)"  x="16" y="8" width="1" height="1" /><rect shape-rendering="crispEdges" fill="rgb(172, 0, 0)"  x="16" y="9" width="1" height="1" /><rect shape-rendering="crispEdges" fill="rgb(180, 0, 0)"  x="16" y="10" width="1" height="1" /><rect shape-rendering="crispEdges" fill="rgb(189, 0, 0)"  x="16" y="11" width="1" height="1" /><rect shape-rendering="crispEdges" fill="rgb(222, 0, 0)"  x="16" y="12" width="1" height="1" /><rect shape-rendering="crispEdges" fill="rgb(238, 0, 0)"  x="16" y="13" width="1" height="1" /><rect shape-rendering="crispEdges" fill="rgb(255, 0, 0)"  x="16" y="14" width="1" height="1" /><rect shape-rendering="crispEdges" fill="rgb(255, 0, 0)"  x="16" y="15" width="1" height="1" /><rect shape-rendering="crispEdges" fill="rgb(246, 41, 8)"  x="16" y="16" width="1" height="1" /><rect shape-rendering="crispEdges" fill="rgb(205, 16, 8)"  x="16" y="17" width="1" height="1" /><rect shape-rendering="crispEdges" fill="rgb(205, 0, 0)"  x="16" y="18" width="1" height="1" /><rect shape-rendering="crispEdges" fill="rgb(246, 74, 49)"  x="16" y="19" width="1" height="1" /><rect shape-rendering="crispEdges" fill="rgb(255, 197, 148)"  x="16" y="20" width="1" height="1" /><rect shape-rendering="crispEdges" fill="rgb(255, 255, 213)"  x="16" y="21" width="1" height="1" /><rect shape-rendering="crispEdges" fill="rgb(255, 255, 213)"  x="16" y="22" width="1" height="1" /><rect shape-rendering="crispEdges" fill="rgb(255, 255, 213)"  x="16" y="23" width="1" height="1" /><rect shape-rendering="crispEdges" fill="rgb(197, 131, 106)"  x="16" y="24" width="1" height="1" /><rect shape-rendering="crispEdges" fill="rgb(82, 0, 0)"  x="16" y="25" width="1" height="1" /><rect shape-rendering="crispEdges" fill="rgb(148, 16, 8)"  x="17" y="6" width="1" height="1" /><rect shape-rendering="crispEdges" fill="rgb(189, 0, 0)"  x="17" y="7" width="1" height="1" /><rect shape-rendering="crispEdges" fill="rgb(148, 0, 0)"  x="17" y="8" width="1" height="1" /><rect shape-rendering="crispEdges" fill="rgb(172, 0, 0)"  x="17" y="9" width="1" height="1" /><rect shape-rendering="crispEdges" fill="rgb(180, 0, 0)"  x="17" y="10" width="1" height="1" /><rect shape-rendering="crispEdges" fill="rgb(189, 0, 0)"  x="17" y="11" width="1" height="1" /><rect shape-rendering="crispEdges" fill="rgb(222, 0, 0)"  x="17" y="12" width="1" height="1" /><rect shape-rendering="crispEdges" fill="rgb(238, 0, 0)"  x="17" y="13" width="1" height="1" /><rect shape-rendering="crispEdges" fill="rgb(255, 0, 0)"  x="17" y="14" width="1" height="1" /><rect shape-rendering="crispEdges" fill="rgb(246, 0, 0)"  x="17" y="15" width="1" height="1" /><rect shape-rendering="crispEdges" fill="rgb(197, 0, 0)"  x="17" y="16" width="1" height="1" /><rect shape-rendering="crispEdges" fill="rgb(197, 0, 0)"  x="17" y="17" width="1" height="1" /><rect shape-rendering="crispEdges" fill="rgb(205, 0, 0)"  x="17" y="18" width="1" height="1" /><rect shape-rendering="crispEdges" fill="rgb(230, 74, 65)"  x="17" y="19" width="1" height="1" /><rect shape-rendering="crispEdges" fill="rgb(255, 213, 164)"  x="17" y="20" width="1" height="1" /><rect shape-rendering="crispEdges" fill="rgb(255, 189, 123)"  x="17" y="21" width="1" height="1" /><rect shape-rendering="crispEdges" fill="rgb(255, 222, 156)"  x="17" y="22" width="1" height="1" /><rect shape-rendering="crispEdges" fill="rgb(222, 164, 123)"  x="17" y="23" width="1" height="1" /><rect shape-rendering="crispEdges" fill="rgb(98, 16, 16)"  x="17" y="24" width="1" height="1" /><rect shape-rendering="crispEdges" fill="rgb(82, 0, 0)"  x="17" y="25" width="1" height="1" /><rect shape-rendering="crispEdges" fill="rgb(189, 32, 8)"  x="18" y="6" width="1" height="1" /><rect shape-rendering="crispEdges" fill="rgb(205, 16, 0)"  x="18" y="7" width="1" height="1" /><rect shape-rendering="crispEdges" fill="rgb(148, 0, 0)"  x="18" y="8" width="1" height="1" /><rect shape-rendering="crispEdges" fill="rgb(172, 0, 0)"  x="18" y="9" width="1" height="1" /><rect shape-rendering="crispEdges" fill="rgb(180, 0, 0)"  x="18" y="10" width="1" height="1" /><rect shape-rendering="crispEdges" fill="rgb(197, 0, 0)"  x="18" y="11" width="1" height="1" /><rect shape-rendering="crispEdges" fill="rgb(222, 0, 0)"  x="18" y="12" width="1" height="1" /><rect shape-rendering="crispEdges" fill="rgb(246, 0, 0)"  x="18" y="13" width="1" height="1" /><rect shape-rendering="crispEdges" fill="rgb(255, 8, 8)"  x="18" y="14" width="1" height="1" /><rect shape-rendering="crispEdges" fill="rgb(205, 16, 8)"  x="18" y="15" width="1" height="1" /><rect shape-rendering="crispEdges" fill="rgb(189, 0, 0)"  x="18" y="16" width="1" height="1" /><rect shape-rendering="crispEdges" fill="rgb(205, 0, 0)"  x="18" y="17" width="1" height="1" /><rect shape-rendering="crispEdges" fill="rgb(213, 32, 32)"  x="18" y="18" width="1" height="1" /><rect shape-rendering="crispEdges" fill="rgb(255, 180, 131)"  x="18" y="19" width="1" height="1" /><rect shape-rendering="crispEdges" fill="rgb(255, 156, 74)"  x="18" y="20" width="1" height="1" /><rect shape-rendering="crispEdges" fill="rgb(255, 180, 90)"  x="18" y="21" width="1" height="1" /><rect shape-rendering="crispEdges" fill="rgb(230, 139, 82)"  x="18" y="22" width="1" height="1" /><rect shape-rendering="crispEdges" fill="rgb(148, 41, 16)"  x="18" y="23" width="1" height="1" /><rect shape-rendering="crispEdges" fill="rgb(131, 16, 0)"  x="18" y="24" width="1" height="1" /><rect shape-rendering="crispEdges" fill="rgb(180, 41, 16)"  x="19" y="6" width="1" height="1" /><rect shape-rendering="crispEdges" fill="rgb(230, 49, 8)"  x="19" y="7" width="1" height="1" /><rect shape-rendering="crispEdges" fill="rgb(148, 0, 0)"  x="19" y="8" width="1" height="1" /><rect shape-rendering="crispEdges" fill="rgb(172, 0, 0)"  x="19" y="9" width="1" height="1" /><rect shape-rendering="crispEdges" fill="rgb(180, 0, 0)"  x="19" y="10" width="1" height="1" /><rect shape-rendering="crispEdges" fill="rgb(197, 0, 0)"  x="19" y="11" width="1" height="1" /><rect shape-rendering="crispEdges" fill="rgb(222, 0, 0)"  x="19" y="12" width="1" height="1" /><rect shape-rendering="crispEdges" fill="rgb(246, 24, 16)"  x="19" y="13" width="1" height="1" /><rect shape-rendering="crispEdges" fill="rgb(222, 82, 57)"  x="19" y="14" width="1" height="1" /><rect shape-rendering="crispEdges" fill="rgb(164, 24, 16)"  x="19" y="15" width="1" height="1" /><rect shape-rendering="crispEdges" fill="rgb(189, 0, 0)"  x="19" y="16" width="1" height="1" /><rect shape-rendering="crispEdges" fill="rgb(213, 16, 16)"  x="19" y="17" width="1" height="1" /><rect shape-rendering="crispEdges" fill="rgb(246, 148, 106)"  x="19" y="18" width="1" height="1" /><rect shape-rendering="crispEdges" fill="rgb(255, 148, 65)"  x="19" y="19" width="1" height="1" /><rect shape-rendering="crispEdges" fill="rgb(255, 131, 49)"  x="19" y="20" width="1" height="1" /><rect shape-rendering="crispEdges" fill="rgb(222, 82, 32)"  x="19" y="21" width="1" height="1" /><rect shape-rendering="crispEdges" fill="rgb(131, 16, 0)"  x="19" y="22" width="1" height="1" /><rect shape-rendering="crispEdges" fill="rgb(123, 8, 0)"  x="19" y="23" width="1" height="1" /><rect shape-rendering="crispEdges" fill="rgb(148, 41, 24)"  x="20" y="6" width="1" height="1" /><rect shape-rendering="crispEdges" fill="rgb(246, 74, 24)"  x="20" y="7" width="1" height="1" /><rect shape-rendering="crispEdges" fill="rgb(148, 0, 0)"  x="20" y="8" width="1" height="1" /><rect shape-rendering="crispEdges" fill="rgb(156, 0, 0)"  x="20" y="9" width="1" height="1" /><rect shape-rendering="crispEdges" fill="rgb(180, 0, 0)"  x="20" y="10" width="1" height="1" /><rect shape-rendering="crispEdges" fill="rgb(205, 0, 0)"  x="20" y="11" width="1" height="1" /><rect shape-rendering="crispEdges" fill="rgb(238, 24, 24)"  x="20" y="12" width="1" height="1" /><rect shape-rendering="crispEdges" fill="rgb(238, 115, 82)"  x="20" y="13" width="1" height="1" /><rect shape-rendering="crispEdges" fill="rgb(164, 32, 24)"  x="20" y="14" width="1" height="1" /><rect shape-rendering="crispEdges" fill="rgb(156, 0, 0)"  x="20" y="15" width="1" height="1" /><rect shape-rendering="crispEdges" fill="rgb(197, 8, 8)"  x="20" y="16" width="1" height="1" /><rect shape-rendering="crispEdges" fill="rgb(246, 98, 74)"  x="20" y="17" width="1" height="1" /><rect shape-rendering="crispEdges" fill="rgb(255, 65, 32)"  x="20" y="18" width="1" height="1" /><rect shape-rendering="crispEdges" fill="rgb(255, 57, 16)"  x="20" y="19" width="1" height="1" /><rect shape-rendering="crispEdges" fill="rgb(222, 41, 8)"  x="20" y="20" width="1" height="1" /><rect shape-rendering="crispEdges" fill="rgb(131, 16, 0)"  x="20" y="21" width="1" height="1" /><rect shape-rendering="crispEdges" fill="rgb(115, 16, 0)"  x="20" y="22" width="1" height="1" /><rect shape-rendering="crispEdges" fill="rgb(131, 41, 24)"  x="21" y="6" width="1" height="1" /><rect shape-rendering="crispEdges" fill="rgb(230, 74, 32)"  x="21" y="7" width="1" height="1" /><rect shape-rendering="crispEdges" fill="rgb(148, 0, 0)"  x="21" y="8" width="1" height="1" /><rect shape-rendering="crispEdges" fill="rgb(148, 0, 0)"  x="21" y="9" width="1" height="1" /><rect shape-rendering="crispEdges" fill="rgb(164, 0, 0)"  x="21" y="10" width="1" height="1" /><rect shape-rendering="crispEdges" fill="rgb(222, 24, 16)"  x="21" y="11" width="1" height="1" /><rect shape-rendering="crispEdges" fill="rgb(238, 123, 90)"  x="21" y="12" width="1" height="1" /><rect shape-rendering="crispEdges" fill="rgb(172, 41, 24)"  x="21" y="13" width="1" height="1" /><rect shape-rendering="crispEdges" fill="rgb(148, 0, 0)"  x="21" y="14" width="1" height="1" /><rect shape-rendering="crispEdges" fill="rgb(180, 0, 0)"  x="21" y="15" width="1" height="1" /><rect shape-rendering="crispEdges" fill="rgb(246, 82, 65)"  x="21" y="16" width="1" height="1" /><rect shape-rendering="crispEdges" fill="rgb(255, 41, 41)"  x="21" y="17" width="1" height="1" /><rect shape-rendering="crispEdges" fill="rgb(255, 0, 0)"  x="21" y="18" width="1" height="1" /><rect shape-rendering="crispEdges" fill="rgb(238, 0, 0)"  x="21" y="19" width="1" height="1" /><rect shape-rendering="crispEdges" fill="rgb(156, 0, 0)"  x="21" y="20" width="1" height="1" /><rect shape-rendering="crispEdges" fill="rgb(123, 16, 8)"  x="21" y="21" width="1" height="1" /><rect shape-rendering="crispEdges" fill="rgb(131, 32, 24)"  x="22" y="6" width="1" height="1" /><rect shape-rendering="crispEdges" fill="rgb(205, 74, 32)"  x="22" y="7" width="1" height="1" /><rect shape-rendering="crispEdges" fill="rgb(230, 49, 16)"  x="22" y="8" width="1" height="1" /><rect shape-rendering="crispEdges" fill="rgb(148, 0, 0)"  x="22" y="9" width="1" height="1" /><rect shape-rendering="crispEdges" fill="rgb(164, 16, 8)"  x="22" y="10" width="1" height="1" /><rect shape-rendering="crispEdges" fill="rgb(238, 148, 106)"  x="22" y="11" width="1" height="1" /><rect shape-rendering="crispEdges" fill="rgb(172, 49, 32)"  x="22" y="12" width="1" height="1" /><rect shape-rendering="crispEdges" fill="rgb(148, 0, 0)"  x="22" y="13" width="1" height="1" /><rect shape-rendering="crispEdges" fill="rgb(164, 0, 0)"  x="22" y="14" width="1" height="1" /><rect shape-rendering="crispEdges" fill="rgb(238, 8, 8)"  x="22" y="15" width="1" height="1" /><rect shape-rendering="crispEdges" fill="rgb(255, 41, 32)"  x="22" y="16" width="1" height="1" /><rect shape-rendering="crispEdges" fill="rgb(255, 0, 0)"  x="22" y="17" width="1" height="1" /><rect shape-rendering="crispEdges" fill="rgb(238, 0, 0)"  x="22" y="18" width="1" height="1" /><rect shape-rendering="crispEdges" fill="rgb(156, 0, 0)"  x="22" y="19" width="1" height="1" /><rect shape-rendering="crispEdges" fill="rgb(139, 0, 0)"  x="22" y="20" width="1" height="1" /><rect shape-rendering="crispEdges" fill="rgb(131, 41, 32)"  x="23" y="6" width="1" height="1" /><rect shape-rendering="crispEdges" fill="rgb(172, 57, 32)"  x="23" y="7" width="1" height="1" /><rect shape-rendering="crispEdges" fill="rgb(238, 65, 24)"  x="23" y="8" width="1" height="1" /><rect shape-rendering="crispEdges" fill="rgb(172, 24, 16)"  x="23" y="9" width="1" height="1" /><rect shape-rendering="crispEdges" fill="rgb(205, 123, 90)"  x="23" y="10" width="1" height="1" /><rect shape-rendering="crispEdges" fill="rgb(172, 90, 65)"  x="23" y="11" width="1" height="1" /><rect shape-rendering="crispEdges" fill="rgb(139, 0, 0)"  x="23" y="12" width="1" height="1" /><rect shape-rendering="crispEdges" fill="rgb(148, 0, 0)"  x="23" y="13" width="1" height="1" /><rect shape-rendering="crispEdges" fill="rgb(222, 0, 0)"  x="23" y="14" width="1" height="1" /><rect shape-rendering="crispEdges" fill="rgb(255, 0, 0)"  x="23" y="15" width="1" height="1" /><rect shape-rendering="crispEdges" fill="rgb(255, 0, 0)"  x="23" y="16" width="1" height="1" /><rect shape-rendering="crispEdges" fill="rgb(246, 0, 0)"  x="23" y="17" width="1" height="1" /><rect shape-rendering="crispEdges" fill="rgb(156, 0, 0)"  x="23" y="18" width="1" height="1" /><rect shape-rendering="crispEdges" fill="rgb(131, 0, 0)"  x="23" y="19" width="1" height="1" /><rect shape-rendering="crispEdges" fill="rgb(148, 49, 32)"  x="24" y="7" width="1" height="1" /><rect shape-rendering="crispEdges" fill="rgb(238, 65, 32)"  x="24" y="8" width="1" height="1" /><rect shape-rendering="crispEdges" fill="rgb(230, 106, 74)"  x="24" y="9" width="1" height="1" /><rect shape-rendering="crispEdges" fill="rgb(197, 98, 65)"  x="24" y="10" width="1" height="1" /><rect shape-rendering="crispEdges" fill="rgb(131, 0, 0)"  x="24" y="11" width="1" height="1" /><rect shape-rendering="crispEdges" fill="rgb(139, 0, 0)"  x="24" y="12" width="1" height="1" /><rect shape-rendering="crispEdges" fill="rgb(197, 8, 0)"  x="24" y="13" width="1" height="1" /><rect shape-rendering="crispEdges" fill="rgb(255, 8, 0)"  x="24" y="14" width="1" height="1" /><rect shape-rendering="crispEdges" fill="rgb(255, 0, 0)"  x="24" y="15" width="1" height="1" /><rect shape-rendering="crispEdges" fill="rgb(246, 0, 0)"  x="24" y="16" width="1" height="1" /><rect shape-rendering="crispEdges" fill="rgb(148, 0, 0)"  x="24" y="17" width="1" height="1" /><rect shape-rendering="crispEdges" fill="rgb(123, 0, 0)"  x="24" y="18" width="1" height="1" /><rect shape-rendering="crispEdges" fill="rgb(139, 32, 24)"  x="25" y="7" width="1" height="1" /><rect shape-rendering="crispEdges" fill="rgb(222, 98, 65)"  x="25" y="8" width="1" height="1" /><rect shape-rendering="crispEdges" fill="rgb(255, 255, 213)"  x="25" y="9" width="1" height="1" /><rect shape-rendering="crispEdges" fill="rgb(213, 90, 57)"  x="25" y="10" width="1" height="1" /><rect shape-rendering="crispEdges" fill="rgb(139, 0, 0)"  x="25" y="11" width="1" height="1" /><rect shape-rendering="crispEdges" fill="rgb(180, 16, 0)"  x="25" y="12" width="1" height="1" /><rect shape-rendering="crispEdges" fill="rgb(255, 0, 0)"  x="25" y="13" width="1" height="1" /><rect shape-rendering="crispEdges" fill="rgb(255, 0, 0)"  x="25" y="14" width="1" height="1" /><rect shape-rendering="crispEdges" fill="rgb(255, 0, 0)"  x="25" y="15" width="1" height="1" /><rect shape-rendering="crispEdges" fill="rgb(148, 0, 0)"  x="25" y="16" width="1" height="1" /><rect shape-rendering="crispEdges" fill="rgb(98, 0, 0)"  x="25" y="17" width="1" height="1" /><rect shape-rendering="crispEdges" fill="rgb(131, 32, 24)"  x="26" y="7" width="1" height="1" /><rect shape-rendering="crispEdges" fill="rgb(189, 82, 57)"  x="26" y="8" width="1" height="1" /><rect shape-rendering="crispEdges" fill="rgb(255, 255, 213)"  x="26" y="9" width="1" height="1" /><rect shape-rendering="crispEdges" fill="rgb(222, 106, 74)"  x="26" y="10" width="1" height="1" /><rect shape-rendering="crispEdges" fill="rgb(180, 8, 0)"  x="26" y="11" width="1" height="1" /><rect shape-rendering="crispEdges" fill="rgb(246, 41, 0)"  x="26" y="12" width="1" height="1" /><rect shape-rendering="crispEdges" fill="rgb(255, 0, 0)"  x="26" y="13" width="1" height="1" /><rect shape-rendering="crispEdges" fill="rgb(180, 16, 16)"  x="26" y="14" width="1" height="1" /><rect shape-rendering="crispEdges" fill="rgb(164, 24, 16)"  x="26" y="15" width="1" height="1" /><rect shape-rendering="crispEdges" fill="rgb(123, 32, 16)"  x="26" y="16" width="1" height="1" /><rect shape-rendering="crispEdges" fill="rgb(139, 41, 24)"  x="27" y="8" width="1" height="1" /><rect shape-rendering="crispEdges" fill="rgb(180, 16, 16)"  x="27" y="9" width="1" height="1" /><rect shape-rendering="crispEdges" fill="rgb(180, 16, 16)"  x="27" y="10" width="1" height="1" /><rect shape-rendering="crispEdges" fill="rgb(180, 16, 16)"  x="27" y="11" width="1" height="1" /><rect shape-rendering="crispEdges" fill="rgb(180, 16, 16)"  x="27" y="12" width="1" height="1" /><rect shape-rendering="crispEdges" fill="rgb(123, 49, 32)"  x="27" y="13" width="1" height="1" /><rect shape-rendering="crispEdges" fill="rgb(123, 49, 32)"  x="27" y="14" width="1" height="1" /><rect shape-rendering="crispEdges" fill="rgb(123, 49, 32)"  x="27" y="15" width="1" height="1" /></svg>