<svg xmlns="http://www.w3.org/2000/svg" xmlns:xlink= "http://www.w3.org/1999/xlink" width="32" height="32" viewBox ="0 0 32 32"><rect shape-rendering="crispEdges" fill="rgb(90, 0, 0)"  x="0" y="6" width="1" height="1" /><rect shape-rendering="crispEdges" fill="rgb(123, 24, 24)"  x="0" y="7" width="1" height="1" /><rect shape-rendering="crispEdges" fill="rgb(156, 41, 41)"  x="1" y="5" width="1" height="1" /><rect shape-rendering="crispEdges" fill="rgb(230, 74, 74)"  x="1" y="6" width="1" height="1" /><rect shape-rendering="crispEdges" fill="rgb(123, 24, 24)"  x="1" y="7" width="1" height="1" /><rect shape-rendering="crispEdges" fill="rgb(156, 41, 41)"  x="2" y="4" width="1" height="1" /><rect shape-rendering="crispEdges" fill="rgb(197, 115, 82)"  x="2" y="5" width="1" height="1" /><rect shape-rendering="crispEdges" fill="rgb(230, 74, 74)"  x="2" y="6" width="1" height="1" /><rect shape-rendering="crispEdges" fill="rgb(156, 41, 41)"  x="2" y="7" width="1" height="1" /><rect shape-rendering="crispEdges" fill="rgb(123, 24, 24)"  x="2" y="8" width="1" height="1" /><rect shape-rendering="crispEdges" fill="rgb(156, 41, 41)"  x="3" y="3" width="1" height="1" /><rect shape-rendering="crispEdges" fill="rgb(246, 148, 131)"  x="3" y="4" width="1" height="1" /><rect shape-rendering="crispEdges" fill="rgb(230, 74, 74)"  x="3" y="5" width="1" height="1" /><rect shape-rendering="crispEdges" fill="rgb(197, 57, 57)"  x="3" y="6" width="1" height="1" /><rect shape-rendering="crispEdges" fill="rgb(246, 172, 24)"  x="3" y="7" width="1" height="1" /><rect shape-rendering="crispEdges" fill="rgb(156, 41, 41)"  x="3" y="8" width="1" height="1" /><rect shape-rendering="crispEdges" fill="rgb(156, 41, 41)"  x="4" y="2" width="1" height="1" /><rect shape-rendering="crispEdges" fill="rgb(246, 148, 131)"  x="4" y="3" width="1" height="1" /><rect shape-rendering="crispEdges" fill="rgb(230, 74, 74)"  x="4" y="4" width="1" height="1" /><rect shape-rendering="crispEdges" fill="rgb(197, 57, 57)"  x="4" y="5" width="1" height="1" /><rect shape-rendering="crispEdges" fill="rgb(246, 172, 24)"  x="4" y="6" width="1" height="1" /><rect shape-rendering="crispEdges" fill="rgb(255, 238, 90)"  x="4" y="7" width="1" height="1" /><rect shape-rendering="crispEdges" fill="rgb(213, 115, 8)"  x="4" y="8" width="1" height="1" /><rect shape-rendering="crispEdges" fill="rgb(156, 41, 41)"  x="4" y="9" width="1" height="1" /><rect shape-rendering="crispEdges" fill="rgb(156, 41, 41)"  x="5" y="1" width="1" height="1" /><rect shape-rendering="crispEdges" fill="rgb(246, 148, 131)"  x="5" y="2" width="1" height="1" /><rect shape-rendering="crispEdges" fill="rgb(230, 74, 74)"  x="5" y="3" width="1" height="1" /><rect shape-rendering="crispEdges" fill="rgb(156, 41, 41)"  x="5" y="4" width="1" height="1" /><rect shape-rendering="crispEdges" fill="rgb(255, 213, 57)"  x="5" y="5" width="1" height="1" /><rect shape-rendering="crispEdges" fill="rgb(255, 238, 90)"  x="5" y="6" width="1" height="1" /><rect shape-rendering="crispEdges" fill="rgb(255, 238, 90)"  x="5" y="7" width="1" height="1" /><rect shape-rendering="crispEdges" fill="rgb(230, 74, 74)"  x="5" y="8" width="1" height="1" /><rect shape-rendering="crispEdges" fill="rgb(123, 24, 24)"  x="5" y="9" width="1" height="1" /><rect shape-rendering="crispEdges" fill="rgb(156, 41, 41)"  x="6" y="0" width="1" height="1" /><rect shape-rendering="crispEdges" fill="rgb(238, 115, 106)"  x="6" y="1" width="1" height="1" /><rect shape-rendering="crispEdges" fill="rgb(230, 74, 74)"  x="6" y="2" width="1" height="1" /><rect shape-rendering="crispEdges" fill="rgb(156, 41, 41)"  x="6" y="3" width="1" height="1" /><rect shape-rendering="crispEdges" fill="rgb(255, 213, 57)"  x="6" y="4" width="1" height="1" /><rect shape-rendering="crispEdges" fill="rgb(255, 238, 90)"  x="6" y="5" width="1" height="1" /><rect shape-rendering="crispEdges" fill="rgb(255, 238, 90)"  x="6" y="6" width="1" height="1" /><rect shape-rendering="crispEdges" fill="rgb(255, 213, 57)"  x="6" y="7" width="1" height="1" /><rect shape-rendering="crispEdges" fill="rgb(246, 172, 24)"  x="6" y="8" width="1" height="1" /><rect shape-rendering="crispEdges" fill="rgb(213, 115, 8)"  x="6" y="9" width="1" height="1" /><rect shape-rendering="crispEdges" fill="rgb(156, 41, 41)"  x="6" y="10" width="1" height="1" /><rect shape-rendering="crispEdges" fill="rgb(156, 41, 41)"  x="7" y="0" width="1" height="1" /><rect shape-rendering="crispEdges" fill="rgb(156, 41, 41)"  x="7" y="1" width="1" height="1" /><rect shape-rendering="crispEdges" fill="rgb(156, 41, 41)"  x="7" y="2" width="1" height="1" /><rect shape-rendering="crispEdges" fill="rgb(238, 115, 106)"  x="7" y="3" width="1" height="1" /><rect shape-rendering="crispEdges" fill="rgb(255, 238, 90)"  x="7" y="4" width="1" height="1" /><rect shape-rendering="crispEdges" fill="rgb(255, 238, 90)"  x="7" y="5" width="1" height="1" /><rect shape-rendering="crispEdges" fill="rgb(255, 213, 57)"  x="7" y="6" width="1" height="1" /><rect shape-rendering="crispEdges" fill="rgb(255, 213, 57)"  x="7" y="7" width="1" height="1" /><rect shape-rendering="crispEdges" fill="rgb(246, 172, 24)"  x="7" y="8" width="1" height="1" /><rect shape-rendering="crispEdges" fill="rgb(230, 74, 74)"  x="7" y="9" width="1" height="1" /><rect shape-rendering="crispEdges" fill="rgb(123, 24, 24)"  x="7" y="10" width="1" height="1" /><rect shape-rendering="crispEdges" fill="rgb(156, 41, 41)"  x="8" y="2" width="1" height="1" /><rect shape-rendering="crispEdges" fill="rgb(197, 57, 57)"  x="8" y="3" width="1" height="1" /><rect shape-rendering="crispEdges" fill="rgb(238, 115, 106)"  x="8" y="4" width="1" height="1" /><rect shape-rendering="crispEdges" fill="rgb(255, 213, 57)"  x="8" y="5" width="1" height="1" /><rect shape-rendering="crispEdges" fill="rgb(255, 213, 57)"  x="8" y="6" width="1" height="1" /><rect shape-rendering="crispEdges" fill="rgb(246, 172, 24)"  x="8" y="7" width="1" height="1" /><rect shape-rendering="crispEdges" fill="rgb(246, 172, 24)"  x="8" y="8" width="1" height="1" /><rect shape-rendering="crispEdges" fill="rgb(238, 148, 16)"  x="8" y="9" width="1" height="1" /><rect shape-rendering="crispEdges" fill="rgb(189, 82, 0)"  x="8" y="10" width="1" height="1" /><rect shape-rendering="crispEdges" fill="rgb(123, 24, 24)"  x="8" y="11" width="1" height="1" /><rect shape-rendering="crispEdges" fill="rgb(197, 57, 57)"  x="9" y="4" width="1" height="1" /><rect shape-rendering="crispEdges" fill="rgb(230, 74, 74)"  x="9" y="5" width="1" height="1" /><rect shape-rendering="crispEdges" fill="rgb(246, 172, 24)"  x="9" y="6" width="1" height="1" /><rect shape-rendering="crispEdges" fill="rgb(246, 172, 24)"  x="9" y="7" width="1" height="1" /><rect shape-rendering="crispEdges" fill="rgb(238, 148, 16)"  x="9" y="8" width="1" height="1" /><rect shape-rendering="crispEdges" fill="rgb(238, 148, 16)"  x="9" y="9" width="1" height="1" /><rect shape-rendering="crispEdges" fill="rgb(189, 82, 0)"  x="9" y="10" width="1" height="1" /><rect shape-rendering="crispEdges" fill="rgb(123, 24, 24)"  x="9" y="11" width="1" height="1" /><rect shape-rendering="crispEdges" fill="rgb(82, 57, 90)"  x="9" y="12" width="1" height="1" /><rect shape-rendering="crispEdges" fill="rgb(82, 57, 90)"  x="9" y="13" width="1" height="1" /><rect shape-rendering="crispEdges" fill="rgb(197, 57, 57)"  x="10" y="6" width="1" height="1" /><rect shape-rendering="crispEdges" fill="rgb(238, 115, 106)"  x="10" y="7" width="1" height="1" /><rect shape-rendering="crispEdges" fill="rgb(238, 148, 16)"  x="10" y="8" width="1" height="1" /><rect shape-rendering="crispEdges" fill="rgb(189, 82, 0)"  x="10" y="9" width="1" height="1" /><rect shape-rendering="crispEdges" fill="rgb(189, 82, 0)"  x="10" y="10" width="1" height="1" /><rect shape-rendering="crispEdges" fill="rgb(82, 57, 90)"  x="10" y="11" width="1" height="1" /><rect shape-rendering="crispEdges" fill="rgb(139, 139, 189)"  x="10" y="12" width="1" height="1" /><rect shape-rendering="crispEdges" fill="rgb(98, 90, 123)"  x="10" y="13" width="1" height="1" /><rect shape-rendering="crispEdges" fill="rgb(123, 24, 24)"  x="10" y="14" width="1" height="1" /><rect shape-rendering="crispEdges" fill="rgb(197, 57, 57)"  x="11" y="7" width="1" height="1" /><rect shape-rendering="crispEdges" fill="rgb(197, 57, 57)"  x="11" y="8" width="1" height="1" /><rect shape-rendering="crispEdges" fill="rgb(189, 82, 0)"  x="11" y="9" width="1" height="1" /><rect shape-rendering="crispEdges" fill="rgb(98, 90, 123)"  x="11" y="10" width="1" height="1" /><rect shape-rendering="crispEdges" fill="rgb(180, 172, 205)"  x="11" y="11" width="1" height="1" /><rect shape-rendering="crispEdges" fill="rgb(98, 90, 123)"  x="11" y="12" width="1" height="1" /><rect shape-rendering="crispEdges" fill="rgb(197, 57, 57)"  x="11" y="13" width="1" height="1" /><rect shape-rendering="crispEdges" fill="rgb(123, 24, 24)"  x="11" y="14" width="1" height="1" /><rect shape-rendering="crispEdges" fill="rgb(189, 82, 0)"  x="11" y="15" width="1" height="1" /><rect shape-rendering="crispEdges" fill="rgb(189, 82, 0)"  x="11" y="16" width="1" height="1" /><rect shape-rendering="crispEdges" fill="rgb(189, 82, 0)"  x="11" y="17" width="1" height="1" /><rect shape-rendering="crispEdges" fill="rgb(123, 115, 156)"  x="12" y="9" width="1" height="1" /><rect shape-rendering="crispEdges" fill="rgb(180, 172, 205)"  x="12" y="10" width="1" height="1" /><rect shape-rendering="crispEdges" fill="rgb(98, 90, 123)"  x="12" y="11" width="1" height="1" /><rect shape-rendering="crispEdges" fill="rgb(197, 57, 57)"  x="12" y="12" width="1" height="1" /><rect shape-rendering="crispEdges" fill="rgb(123, 24, 24)"  x="12" y="13" width="1" height="1" /><rect shape-rendering="crispEdges" fill="rgb(238, 148, 16)"  x="12" y="14" width="1" height="1" /><rect shape-rendering="crispEdges" fill="rgb(213, 115, 8)"  x="12" y="15" width="1" height="1" /><rect shape-rendering="crispEdges" fill="rgb(238, 57, 0)"  x="12" y="16" width="1" height="1" /><rect shape-rendering="crispEdges" fill="rgb(189, 82, 0)"  x="12" y="17" width="1" height="1" /><rect shape-rendering="crispEdges" fill="rgb(189, 82, 0)"  x="12" y="18" width="1" height="1" /><rect shape-rendering="crispEdges" fill="rgb(123, 115, 156)"  x="13" y="9" width="1" height="1" /><rect shape-rendering="crispEdges" fill="rgb(98, 90, 123)"  x="13" y="10" width="1" height="1" /><rect shape-rendering="crispEdges" fill="rgb(197, 57, 57)"  x="13" y="11" width="1" height="1" /><rect shape-rendering="crispEdges" fill="rgb(197, 57, 57)"  x="13" y="12" width="1" height="1" /><rect shape-rendering="crispEdges" fill="rgb(82, 57, 90)"  x="13" y="13" width="1" height="1" /><rect shape-rendering="crispEdges" fill="rgb(246, 172, 24)"  x="13" y="14" width="1" height="1" /><rect shape-rendering="crispEdges" fill="rgb(238, 148, 16)"  x="13" y="15" width="1" height="1" /><rect shape-rendering="crispEdges" fill="rgb(213, 115, 8)"  x="13" y="16" width="1" height="1" /><rect shape-rendering="crispEdges" fill="rgb(238, 57, 0)"  x="13" y="17" width="1" height="1" /><rect shape-rendering="crispEdges" fill="rgb(189, 82, 0)"  x="13" y="18" width="1" height="1" /><rect shape-rendering="crispEdges" fill="rgb(123, 24, 24)"  x="14" y="10" width="1" height="1" /><rect shape-rendering="crispEdges" fill="rgb(156, 41, 41)"  x="14" y="11" width="1" height="1" /><rect shape-rendering="crispEdges" fill="rgb(255, 213, 57)"  x="14" y="12" width="1" height="1" /><rect shape-rendering="crispEdges" fill="rgb(98, 90, 123)"  x="14" y="13" width="1" height="1" /><rect shape-rendering="crispEdges" fill="rgb(82, 57, 90)"  x="14" y="14" width="1" height="1" /><rect shape-rendering="crispEdges" fill="rgb(246, 172, 24)"  x="14" y="15" width="1" height="1" /><rect shape-rendering="crispEdges" fill="rgb(255, 131, 0)"  x="14" y="16" width="1" height="1" /><rect shape-rendering="crispEdges" fill="rgb(189, 82, 0)"  x="14" y="17" width="1" height="1" /><rect shape-rendering="crispEdges" fill="rgb(189, 82, 0)"  x="14" y="18" width="1" height="1" /><rect shape-rendering="crispEdges" fill="rgb(238, 148, 16)"  x="15" y="11" width="1" height="1" /><rect shape-rendering="crispEdges" fill="rgb(255, 238, 90)"  x="15" y="12" width="1" height="1" /><rect shape-rendering="crispEdges" fill="rgb(139, 139, 189)"  x="15" y="13" width="1" height="1" /><rect shape-rendering="crispEdges" fill="rgb(82, 57, 90)"  x="15" y="14" width="1" height="1" /><rect shape-rendering="crispEdges" fill="rgb(255, 222, 57)"  x="15" y="15" width="1" height="1" /><rect shape-rendering="crispEdges" fill="rgb(255, 131, 0)"  x="15" y="16" width="1" height="1" /><rect shape-rendering="crispEdges" fill="rgb(230, 16, 0)"  x="15" y="17" width="1" height="1" /><rect shape-rendering="crispEdges" fill="rgb(238, 148, 16)"  x="16" y="11" width="1" height="1" /><rect shape-rendering="crispEdges" fill="rgb(255, 213, 57)"  x="16" y="12" width="1" height="1" /><rect shape-rendering="crispEdges" fill="rgb(255, 213, 57)"  x="16" y="13" width="1" height="1" /><rect shape-rendering="crispEdges" fill="rgb(255, 222, 57)"  x="16" y="14" width="1" height="1" /><rect shape-rendering="crispEdges" fill="rgb(255, 164, 16)"  x="16" y="15" width="1" height="1" /><rect shape-rendering="crispEdges" fill="rgb(238, 57, 0)"  x="16" y="16" width="1" height="1" /><rect shape-rendering="crispEdges" fill="rgb(156, 41, 41)"  x="16" y="17" width="1" height="1" /><rect shape-rendering="crispEdges" fill="rgb(123, 24, 24)"  x="16" y="18" width="1" height="1" /><rect shape-rendering="crispEdges" fill="rgb(213, 115, 8)"  x="16" y="20" width="1" height="1" /><rect shape-rendering="crispEdges" fill="rgb(213, 115, 8)"  x="16" y="21" width="1" height="1" /><rect shape-rendering="crispEdges" fill="rgb(213, 115, 8)"  x="16" y="22" width="1" height="1" /><rect shape-rendering="crispEdges" fill="rgb(213, 115, 8)"  x="16" y="23" width="1" height="1" /><rect shape-rendering="crispEdges" fill="rgb(156, 41, 41)"  x="16" y="24" width="1" height="1" /><rect shape-rendering="crispEdges" fill="rgb(238, 148, 16)"  x="17" y="11" width="1" height="1" /><rect shape-rendering="crispEdges" fill="rgb(238, 148, 16)"  x="17" y="12" width="1" height="1" /><rect shape-rendering="crispEdges" fill="rgb(255, 164, 16)"  x="17" y="13" width="1" height="1" /><rect shape-rendering="crispEdges" fill="rgb(255, 164, 16)"  x="17" y="14" width="1" height="1" /><rect shape-rendering="crispEdges" fill="rgb(238, 57, 0)"  x="17" y="15" width="1" height="1" /><rect shape-rendering="crispEdges" fill="rgb(197, 57, 57)"  x="17" y="16" width="1" height="1" /><rect shape-rendering="crispEdges" fill="rgb(197, 57, 57)"  x="17" y="17" width="1" height="1" /><rect shape-rendering="crispEdges" fill="rgb(156, 41, 41)"  x="17" y="18" width="1" height="1" /><rect shape-rendering="crispEdges" fill="rgb(213, 115, 8)"  x="17" y="19" width="1" height="1" /><rect shape-rendering="crispEdges" fill="rgb(246, 172, 24)"  x="17" y="20" width="1" height="1" /><rect shape-rendering="crispEdges" fill="rgb(246, 172, 24)"  x="17" y="21" width="1" height="1" /><rect shape-rendering="crispEdges" fill="rgb(246, 172, 24)"  x="17" y="22" width="1" height="1" /><rect shape-rendering="crispEdges" fill="rgb(246, 172, 24)"  x="17" y="23" width="1" height="1" /><rect shape-rendering="crispEdges" fill="rgb(246, 172, 24)"  x="17" y="24" width="1" height="1" /><rect shape-rendering="crispEdges" fill="rgb(156, 41, 41)"  x="17" y="25" width="1" height="1" /><rect shape-rendering="crispEdges" fill="rgb(156, 41, 41)"  x="17" y="26" width="1" height="1" /><rect shape-rendering="crispEdges" fill="rgb(213, 115, 8)"  x="18" y="12" width="1" height="1" /><rect shape-rendering="crispEdges" fill="rgb(213, 115, 8)"  x="18" y="13" width="1" height="1" /><rect shape-rendering="crispEdges" fill="rgb(213, 115, 8)"  x="18" y="14" width="1" height="1" /><rect shape-rendering="crispEdges" fill="rgb(123, 24, 24)"  x="18" y="16" width="1" height="1" /><rect shape-rendering="crispEdges" fill="rgb(238, 115, 106)"  x="18" y="17" width="1" height="1" /><rect shape-rendering="crispEdges" fill="rgb(213, 115, 8)"  x="18" y="18" width="1" height="1" /><rect shape-rendering="crispEdges" fill="rgb(246, 172, 24)"  x="18" y="19" width="1" height="1" /><rect shape-rendering="crispEdges" fill="rgb(246, 172, 24)"  x="18" y="20" width="1" height="1" /><rect shape-rendering="crispEdges" fill="rgb(238, 57, 0)"  x="18" y="21" width="1" height="1" /><rect shape-rendering="crispEdges" fill="rgb(238, 57, 0)"  x="18" y="22" width="1" height="1" /><rect shape-rendering="crispEdges" fill="rgb(238, 57, 0)"  x="18" y="23" width="1" height="1" /><rect shape-rendering="crispEdges" fill="rgb(156, 41, 41)"  x="18" y="24" width="1" height="1" /><rect shape-rendering="crispEdges" fill="rgb(156, 41, 41)"  x="18" y="25" width="1" height="1" /><rect shape-rendering="crispEdges" fill="rgb(123, 24, 24)"  x="18" y="26" width="1" height="1" /><rect shape-rendering="crispEdges" fill="rgb(156, 41, 41)"  x="18" y="27" width="1" height="1" /><rect shape-rendering="crispEdges" fill="rgb(213, 115, 8)"  x="19" y="17" width="1" height="1" /><rect shape-rendering="crispEdges" fill="rgb(255, 238, 90)"  x="19" y="18" width="1" height="1" /><rect shape-rendering="crispEdges" fill="rgb(246, 172, 24)"  x="19" y="19" width="1" height="1" /><rect shape-rendering="crispEdges" fill="rgb(238, 57, 0)"  x="19" y="20" width="1" height="1" /><rect shape-rendering="crispEdges" fill="rgb(123, 24, 24)"  x="19" y="21" width="1" height="1" /><rect shape-rendering="crispEdges" fill="rgb(123, 24, 24)"  x="19" y="22" width="1" height="1" /><rect shape-rendering="crispEdges" fill="rgb(123, 24, 24)"  x="19" y="23" width="1" height="1" /><rect shape-rendering="crispEdges" fill="rgb(156, 41, 41)"  x="19" y="24" width="1" height="1" /><rect shape-rendering="crispEdges" fill="rgb(156, 41, 41)"  x="19" y="25" width="1" height="1" /><rect shape-rendering="crispEdges" fill="rgb(156, 41, 41)"  x="19" y="26" width="1" height="1" /><rect shape-rendering="crispEdges" fill="rgb(189, 82, 0)"  x="19" y="27" width="1" height="1" /><rect shape-rendering="crispEdges" fill="rgb(238, 148, 16)"  x="20" y="16" width="1" height="1" /><rect shape-rendering="crispEdges" fill="rgb(255, 238, 90)"  x="20" y="17" width="1" height="1" /><rect shape-rendering="crispEdges" fill="rgb(246, 172, 24)"  x="20" y="18" width="1" height="1" /><rect shape-rendering="crispEdges" fill="rgb(238, 57, 0)"  x="20" y="19" width="1" height="1" /><rect shape-rendering="crispEdges" fill="rgb(123, 24, 24)"  x="20" y="20" width="1" height="1" /><rect shape-rendering="crispEdges" fill="rgb(238, 189, 148)"  x="20" y="21" width="1" height="1" /><rect shape-rendering="crispEdges" fill="rgb(238, 189, 148)"  x="20" y="22" width="1" height="1" /><rect shape-rendering="crispEdges" fill="rgb(197, 115, 82)"  x="20" y="23" width="1" height="1" /><rect shape-rendering="crispEdges" fill="rgb(123, 24, 24)"  x="20" y="24" width="1" height="1" /><rect shape-rendering="crispEdges" fill="rgb(123, 24, 24)"  x="20" y="25" width="1" height="1" /><rect shape-rendering="crispEdges" fill="rgb(238, 148, 16)"  x="20" y="26" width="1" height="1" /><rect shape-rendering="crispEdges" fill="rgb(189, 82, 0)"  x="20" y="27" width="1" height="1" /><rect shape-rendering="crispEdges" fill="rgb(189, 82, 0)"  x="21" y="15" width="1" height="1" /><rect shape-rendering="crispEdges" fill="rgb(246, 172, 24)"  x="21" y="16" width="1" height="1" /><rect shape-rendering="crispEdges" fill="rgb(255, 238, 90)"  x="21" y="17" width="1" height="1" /><rect shape-rendering="crispEdges" fill="rgb(238, 57, 0)"  x="21" y="18" width="1" height="1" /><rect shape-rendering="crispEdges" fill="rgb(123, 24, 24)"  x="21" y="19" width="1" height="1" /><rect shape-rendering="crispEdges" fill="rgb(213, 156, 115)"  x="21" y="20" width="1" height="1" /><rect shape-rendering="crispEdges" fill="rgb(164, 98, 65)"  x="21" y="21" width="1" height="1" /><rect shape-rendering="crispEdges" fill="rgb(164, 98, 65)"  x="21" y="22" width="1" height="1" /><rect shape-rendering="crispEdges" fill="rgb(213, 156, 115)"  x="21" y="23" width="1" height="1" /><rect shape-rendering="crispEdges" fill="rgb(123, 24, 24)"  x="21" y="24" width="1" height="1" /><rect shape-rendering="crispEdges" fill="rgb(238, 57, 0)"  x="21" y="25" width="1" height="1" /><rect shape-rendering="crispEdges" fill="rgb(238, 148, 16)"  x="21" y="26" width="1" height="1" /><rect shape-rendering="crispEdges" fill="rgb(189, 82, 0)"  x="21" y="27" width="1" height="1" /><rect shape-rendering="crispEdges" fill="rgb(189, 82, 0)"  x="22" y="14" width="1" height="1" /><rect shape-rendering="crispEdges" fill="rgb(255, 213, 57)"  x="22" y="15" width="1" height="1" /><rect shape-rendering="crispEdges" fill="rgb(246, 172, 24)"  x="22" y="16" width="1" height="1" /><rect shape-rendering="crispEdges" fill="rgb(255, 238, 90)"  x="22" y="17" width="1" height="1" /><rect shape-rendering="crispEdges" fill="rgb(238, 57, 0)"  x="22" y="18" width="1" height="1" /><rect shape-rendering="crispEdges" fill="rgb(123, 24, 24)"  x="22" y="19" width="1" height="1" /><rect shape-rendering="crispEdges" fill="rgb(238, 189, 148)"  x="22" y="20" width="1" height="1" /><rect shape-rendering="crispEdges" fill="rgb(213, 156, 115)"  x="22" y="21" width="1" height="1" /><rect shape-rendering="crispEdges" fill="rgb(213, 156, 115)"  x="22" y="22" width="1" height="1" /><rect shape-rendering="crispEdges" fill="rgb(238, 189, 148)"  x="22" y="23" width="1" height="1" /><rect shape-rendering="crispEdges" fill="rgb(123, 24, 24)"  x="22" y="24" width="1" height="1" /><rect shape-rendering="crispEdges" fill="rgb(238, 57, 0)"  x="22" y="25" width="1" height="1" /><rect shape-rendering="crispEdges" fill="rgb(246, 172, 24)"  x="22" y="26" width="1" height="1" /><rect shape-rendering="crispEdges" fill="rgb(189, 82, 0)"  x="22" y="27" width="1" height="1" /><rect shape-rendering="crispEdges" fill="rgb(98, 90, 123)"  x="23" y="12" width="1" height="1" /><rect shape-rendering="crispEdges" fill="rgb(98, 90, 123)"  x="23" y="13" width="1" height="1" /><rect shape-rendering="crispEdges" fill="rgb(238, 148, 16)"  x="23" y="14" width="1" height="1" /><rect shape-rendering="crispEdges" fill="rgb(213, 115, 8)"  x="23" y="15" width="1" height="1" /><rect shape-rendering="crispEdges" fill="rgb(238, 148, 16)"  x="23" y="16" width="1" height="1" /><rect shape-rendering="crispEdges" fill="rgb(255, 238, 90)"  x="23" y="17" width="1" height="1" /><rect shape-rendering="crispEdges" fill="rgb(238, 57, 0)"  x="23" y="18" width="1" height="1" /><rect shape-rendering="crispEdges" fill="rgb(123, 24, 24)"  x="23" y="19" width="1" height="1" /><rect shape-rendering="crispEdges" fill="rgb(213, 156, 115)"  x="23" y="20" width="1" height="1" /><rect shape-rendering="crispEdges" fill="rgb(164, 98, 65)"  x="23" y="21" width="1" height="1" /><rect shape-rendering="crispEdges" fill="rgb(164, 98, 65)"  x="23" y="22" width="1" height="1" /><rect shape-rendering="crispEdges" fill="rgb(213, 156, 115)"  x="23" y="23" width="1" height="1" /><rect shape-rendering="crispEdges" fill="rgb(123, 24, 24)"  x="23" y="24" width="1" height="1" /><rect shape-rendering="crispEdges" fill="rgb(238, 57, 0)"  x="23" y="25" width="1" height="1" /><rect shape-rendering="crispEdges" fill="rgb(246, 172, 24)"  x="23" y="26" width="1" height="1" /><rect shape-rendering="crispEdges" fill="rgb(213, 115, 8)"  x="23" y="27" width="1" height="1" /><rect shape-rendering="crispEdges" fill="rgb(98, 90, 123)"  x="24" y="11" width="1" height="1" /><rect shape-rendering="crispEdges" fill="rgb(180, 172, 205)"  x="24" y="12" width="1" height="1" /><rect shape-rendering="crispEdges" fill="rgb(82, 57, 90)"  x="24" y="13" width="1" height="1" /><rect shape-rendering="crispEdges" fill="rgb(213, 115, 8)"  x="24" y="14" width="1" height="1" /><rect shape-rendering="crispEdges" fill="rgb(189, 82, 0)"  x="24" y="15" width="1" height="1" /><rect shape-rendering="crispEdges" fill="rgb(238, 148, 16)"  x="24" y="16" width="1" height="1" /><rect shape-rendering="crispEdges" fill="rgb(255, 238, 90)"  x="24" y="17" width="1" height="1" /><rect shape-rendering="crispEdges" fill="rgb(255, 164, 16)"  x="24" y="18" width="1" height="1" /><rect shape-rendering="crispEdges" fill="rgb(156, 41, 41)"  x="24" y="19" width="1" height="1" /><rect shape-rendering="crispEdges" fill="rgb(197, 115, 82)"  x="24" y="20" width="1" height="1" /><rect shape-rendering="crispEdges" fill="rgb(238, 189, 148)"  x="24" y="21" width="1" height="1" /><rect shape-rendering="crispEdges" fill="rgb(213, 156, 115)"  x="24" y="22" width="1" height="1" /><rect shape-rendering="crispEdges" fill="rgb(123, 24, 24)"  x="24" y="23" width="1" height="1" /><rect shape-rendering="crispEdges" fill="rgb(156, 41, 41)"  x="24" y="24" width="1" height="1" /><rect shape-rendering="crispEdges" fill="rgb(123, 24, 24)"  x="24" y="25" width="1" height="1" /><rect shape-rendering="crispEdges" fill="rgb(246, 172, 24)"  x="24" y="26" width="1" height="1" /><rect shape-rendering="crispEdges" fill="rgb(213, 115, 8)"  x="24" y="27" width="1" height="1" /><rect shape-rendering="crispEdges" fill="rgb(98, 90, 123)"  x="25" y="11" width="1" height="1" /><rect shape-rendering="crispEdges" fill="rgb(123, 24, 24)"  x="25" y="12" width="1" height="1" /><rect shape-rendering="crispEdges" fill="rgb(123, 24, 24)"  x="25" y="13" width="1" height="1" /><rect shape-rendering="crispEdges" fill="rgb(238, 148, 16)"  x="25" y="16" width="1" height="1" /><rect shape-rendering="crispEdges" fill="rgb(255, 213, 57)"  x="25" y="17" width="1" height="1" /><rect shape-rendering="crispEdges" fill="rgb(255, 238, 90)"  x="25" y="18" width="1" height="1" /><rect shape-rendering="crispEdges" fill="rgb(255, 164, 16)"  x="25" y="19" width="1" height="1" /><rect shape-rendering="crispEdges" fill="rgb(156, 41, 41)"  x="25" y="20" width="1" height="1" /><rect shape-rendering="crispEdges" fill="rgb(123, 24, 24)"  x="25" y="21" width="1" height="1" /><rect shape-rendering="crispEdges" fill="rgb(123, 24, 24)"  x="25" y="22" width="1" height="1" /><rect shape-rendering="crispEdges" fill="rgb(156, 41, 41)"  x="25" y="23" width="1" height="1" /><rect shape-rendering="crispEdges" fill="rgb(156, 41, 41)"  x="25" y="24" width="1" height="1" /><rect shape-rendering="crispEdges" fill="rgb(156, 41, 41)"  x="25" y="25" width="1" height="1" /><rect shape-rendering="crispEdges" fill="rgb(123, 24, 24)"  x="25" y="26" width="1" height="1" /><rect shape-rendering="crispEdges" fill="rgb(123, 24, 24)"  x="25" y="28" width="1" height="1" /><rect shape-rendering="crispEdges" fill="rgb(123, 24, 24)"  x="25" y="29" width="1" height="1" /><rect shape-rendering="crispEdges" fill="rgb(123, 24, 24)"  x="26" y="12" width="1" height="1" /><rect shape-rendering="crispEdges" fill="rgb(230, 74, 74)"  x="26" y="13" width="1" height="1" /><rect shape-rendering="crispEdges" fill="rgb(156, 41, 41)"  x="26" y="14" width="1" height="1" /><rect shape-rendering="crispEdges" fill="rgb(213, 115, 8)"  x="26" y="16" width="1" height="1" /><rect shape-rendering="crispEdges" fill="rgb(238, 148, 16)"  x="26" y="17" width="1" height="1" /><rect shape-rendering="crispEdges" fill="rgb(255, 238, 90)"  x="26" y="18" width="1" height="1" /><rect shape-rendering="crispEdges" fill="rgb(255, 238, 90)"  x="26" y="19" width="1" height="1" /><rect shape-rendering="crispEdges" fill="rgb(255, 222, 57)"  x="26" y="20" width="1" height="1" /><rect shape-rendering="crispEdges" fill="rgb(255, 164, 16)"  x="26" y="21" width="1" height="1" /><rect shape-rendering="crispEdges" fill="rgb(255, 164, 16)"  x="26" y="22" width="1" height="1" /><rect shape-rendering="crispEdges" fill="rgb(156, 41, 41)"  x="26" y="23" width="1" height="1" /><rect shape-rendering="crispEdges" fill="rgb(156, 41, 41)"  x="26" y="24" width="1" height="1" /><rect shape-rendering="crispEdges" fill="rgb(156, 41, 41)"  x="26" y="25" width="1" height="1" /><rect shape-rendering="crispEdges" fill="rgb(123, 24, 24)"  x="26" y="26" width="1" height="1" /><rect shape-rendering="crispEdges" fill="rgb(156, 41, 41)"  x="26" y="27" width="1" height="1" /><rect shape-rendering="crispEdges" fill="rgb(197, 57, 57)"  x="26" y="28" width="1" height="1" /><rect shape-rendering="crispEdges" fill="rgb(123, 24, 24)"  x="26" y="29" width="1" height="1" /><rect shape-rendering="crispEdges" fill="rgb(156, 41, 41)"  x="27" y="13" width="1" height="1" /><rect shape-rendering="crispEdges" fill="rgb(230, 74, 74)"  x="27" y="14" width="1" height="1" /><rect shape-rendering="crispEdges" fill="rgb(123, 24, 24)"  x="27" y="15" width="1" height="1" /><rect shape-rendering="crispEdges" fill="rgb(213, 115, 8)"  x="27" y="17" width="1" height="1" /><rect shape-rendering="crispEdges" fill="rgb(238, 148, 16)"  x="27" y="18" width="1" height="1" /><rect shape-rendering="crispEdges" fill="rgb(246, 172, 24)"  x="27" y="19" width="1" height="1" /><rect shape-rendering="crispEdges" fill="rgb(255, 238, 90)"  x="27" y="20" width="1" height="1" /><rect shape-rendering="crispEdges" fill="rgb(255, 238, 90)"  x="27" y="21" width="1" height="1" /><rect shape-rendering="crispEdges" fill="rgb(246, 172, 24)"  x="27" y="22" width="1" height="1" /><rect shape-rendering="crispEdges" fill="rgb(255, 213, 57)"  x="27" y="23" width="1" height="1" /><rect shape-rendering="crispEdges" fill="rgb(156, 41, 41)"  x="27" y="24" width="1" height="1" /><rect shape-rendering="crispEdges" fill="rgb(156, 41, 41)"  x="27" y="25" width="1" height="1" /><rect shape-rendering="crispEdges" fill="rgb(197, 57, 57)"  x="27" y="26" width="1" height="1" /><rect shape-rendering="crispEdges" fill="rgb(197, 57, 57)"  x="27" y="27" width="1" height="1" /><rect shape-rendering="crispEdges" fill="rgb(123, 24, 24)"  x="27" y="28" width="1" height="1" /><rect shape-rendering="crispEdges" fill="rgb(123, 24, 24)"  x="28" y="14" width="1" height="1" /><rect shape-rendering="crispEdges" fill="rgb(156, 41, 41)"  x="28" y="15" width="1" height="1" /><rect shape-rendering="crispEdges" fill="rgb(98, 90, 123)"  x="28" y="16" width="1" height="1" /><rect shape-rendering="crispEdges" fill="rgb(98, 90, 123)"  x="28" y="17" width="1" height="1" /><rect shape-rendering="crispEdges" fill="rgb(189, 82, 0)"  x="28" y="18" width="1" height="1" /><rect shape-rendering="crispEdges" fill="rgb(238, 148, 16)"  x="28" y="19" width="1" height="1" /><rect shape-rendering="crispEdges" fill="rgb(238, 148, 16)"  x="28" y="20" width="1" height="1" /><rect shape-rendering="crispEdges" fill="rgb(213, 115, 8)"  x="28" y="21" width="1" height="1" /><rect shape-rendering="crispEdges" fill="rgb(213, 115, 8)"  x="28" y="22" width="1" height="1" /><rect shape-rendering="crispEdges" fill="rgb(213, 115, 8)"  x="28" y="23" width="1" height="1" /><rect shape-rendering="crispEdges" fill="rgb(213, 115, 8)"  x="28" y="24" width="1" height="1" /><rect shape-rendering="crispEdges" fill="rgb(197, 57, 57)"  x="28" y="26" width="1" height="1" /><rect shape-rendering="crispEdges" fill="rgb(123, 24, 24)"  x="28" y="27" width="1" height="1" /><rect shape-rendering="crispEdges" fill="rgb(189, 82, 0)"  x="28" y="28" width="1" height="1" /><rect shape-rendering="crispEdges" fill="rgb(172, 57, 0)"  x="28" y="29" width="1" height="1" /><rect shape-rendering="crispEdges" fill="rgb(123, 115, 156)"  x="29" y="15" width="1" height="1" /><rect shape-rendering="crispEdges" fill="rgb(180, 172, 205)"  x="29" y="16" width="1" height="1" /><rect shape-rendering="crispEdges" fill="rgb(139, 139, 189)"  x="29" y="17" width="1" height="1" /><rect shape-rendering="crispEdges" fill="rgb(98, 90, 123)"  x="29" y="18" width="1" height="1" /><rect shape-rendering="crispEdges" fill="rgb(238, 148, 16)"  x="29" y="28" width="1" height="1" /><rect shape-rendering="crispEdges" fill="rgb(213, 115, 8)"  x="29" y="29" width="1" height="1" /><rect shape-rendering="crispEdges" fill="rgb(57, 32, 57)"  x="29" y="30" width="1" height="1" /><rect shape-rendering="crispEdges" fill="rgb(98, 90, 123)"  x="30" y="16" width="1" height="1" /><rect shape-rendering="crispEdges" fill="rgb(98, 90, 123)"  x="30" y="17" width="1" height="1" /><rect shape-rendering="crispEdges" fill="rgb(238, 148, 16)"  x="30" y="28" width="1" height="1" /><rect shape-rendering="crispEdges" fill="rgb(213, 115, 8)"  x="30" y="29" width="1" height="1" /><rect shape-rendering="crispEdges" fill="rgb(57, 32, 57)"  x="30" y="30" width="1" height="1" /></svg>