<svg xmlns="http://www.w3.org/2000/svg" xmlns:xlink= "http://www.w3.org/1999/xlink" width="32" height="32" viewBox ="0 0 32 32"><rect shape-rendering="crispEdges" fill="rgb(65, 82, 82)"  x="1" y="10" width="1" height="1" /><rect shape-rendering="crispEdges" fill="rgb(65, 82, 82)"  x="1" y="11" width="1" height="1" /><rect shape-rendering="crispEdges" fill="rgb(65, 82, 82)"  x="1" y="12" width="1" height="1" /><rect shape-rendering="crispEdges" fill="rgb(65, 82, 82)"  x="1" y="13" width="1" height="1" /><rect shape-rendering="crispEdges" fill="rgb(57, 74, 74)"  x="1" y="14" width="1" height="1" /><rect shape-rendering="crispEdges" fill="rgb(57, 65, 65)"  x="1" y="15" width="1" height="1" /><rect shape-rendering="crispEdges" fill="rgb(65, 98, 98)"  x="2" y="9" width="1" height="1" /><rect shape-rendering="crispEdges" fill="rgb(82, 131, 131)"  x="2" y="10" width="1" height="1" /><rect shape-rendering="crispEdges" fill="rgb(74, 115, 123)"  x="2" y="11" width="1" height="1" /><rect shape-rendering="crispEdges" fill="rgb(74, 115, 115)"  x="2" y="12" width="1" height="1" /><rect shape-rendering="crispEdges" fill="rgb(74, 115, 115)"  x="2" y="13" width="1" height="1" /><rect shape-rendering="crispEdges" fill="rgb(74, 123, 123)"  x="2" y="14" width="1" height="1" /><rect shape-rendering="crispEdges" fill="rgb(65, 90, 98)"  x="2" y="15" width="1" height="1" /><rect shape-rendering="crispEdges" fill="rgb(65, 82, 90)"  x="2" y="16" width="1" height="1" /><rect shape-rendering="crispEdges" fill="rgb(65, 74, 74)"  x="2" y="17" width="1" height="1" /><rect shape-rendering="crispEdges" fill="rgb(57, 65, 65)"  x="2" y="18" width="1" height="1" /><rect shape-rendering="crispEdges" fill="rgb(65, 82, 74)"  x="3" y="8" width="1" height="1" /><rect shape-rendering="crispEdges" fill="rgb(74, 115, 115)"  x="3" y="9" width="1" height="1" /><rect shape-rendering="crispEdges" fill="rgb(41, 32, 41)"  x="3" y="10" width="1" height="1" /><rect shape-rendering="crispEdges" fill="rgb(49, 57, 65)"  x="3" y="11" width="1" height="1" /><rect shape-rendering="crispEdges" fill="rgb(41, 32, 41)"  x="3" y="12" width="1" height="1" /><rect shape-rendering="crispEdges" fill="rgb(41, 41, 41)"  x="3" y="13" width="1" height="1" /><rect shape-rendering="crispEdges" fill="rgb(41, 32, 41)"  x="3" y="14" width="1" height="1" /><rect shape-rendering="crispEdges" fill="rgb(41, 41, 41)"  x="3" y="15" width="1" height="1" /><rect shape-rendering="crispEdges" fill="rgb(49, 74, 74)"  x="3" y="16" width="1" height="1" /><rect shape-rendering="crispEdges" fill="rgb(65, 106, 115)"  x="3" y="17" width="1" height="1" /><rect shape-rendering="crispEdges" fill="rgb(65, 82, 90)"  x="3" y="18" width="1" height="1" /><rect shape-rendering="crispEdges" fill="rgb(57, 74, 74)"  x="3" y="19" width="1" height="1" /><rect shape-rendering="crispEdges" fill="rgb(57, 74, 74)"  x="3" y="20" width="1" height="1" /><rect shape-rendering="crispEdges" fill="rgb(65, 90, 90)"  x="4" y="8" width="1" height="1" /><rect shape-rendering="crispEdges" fill="rgb(82, 156, 156)"  x="4" y="9" width="1" height="1" /><rect shape-rendering="crispEdges" fill="rgb(49, 41, 49)"  x="4" y="10" width="1" height="1" /><rect shape-rendering="crispEdges" fill="rgb(57, 57, 65)"  x="4" y="11" width="1" height="1" /><rect shape-rendering="crispEdges" fill="rgb(57, 57, 65)"  x="4" y="12" width="1" height="1" /><rect shape-rendering="crispEdges" fill="rgb(49, 49, 57)"  x="4" y="13" width="1" height="1" /><rect shape-rendering="crispEdges" fill="rgb(49, 49, 57)"  x="4" y="14" width="1" height="1" /><rect shape-rendering="crispEdges" fill="rgb(49, 41, 49)"  x="4" y="15" width="1" height="1" /><rect shape-rendering="crispEdges" fill="rgb(41, 32, 41)"  x="4" y="16" width="1" height="1" /><rect shape-rendering="crispEdges" fill="rgb(32, 24, 32)"  x="4" y="17" width="1" height="1" /><rect shape-rendering="crispEdges" fill="rgb(41, 41, 49)"  x="4" y="18" width="1" height="1" /><rect shape-rendering="crispEdges" fill="rgb(57, 98, 98)"  x="4" y="19" width="1" height="1" /><rect shape-rendering="crispEdges" fill="rgb(74, 115, 123)"  x="4" y="20" width="1" height="1" /><rect shape-rendering="crispEdges" fill="rgb(65, 82, 74)"  x="4" y="21" width="1" height="1" /><rect shape-rendering="crispEdges" fill="rgb(65, 82, 74)"  x="5" y="8" width="1" height="1" /><rect shape-rendering="crispEdges" fill="rgb(90, 180, 172)"  x="5" y="9" width="1" height="1" /><rect shape-rendering="crispEdges" fill="rgb(65, 82, 82)"  x="5" y="10" width="1" height="1" /><rect shape-rendering="crispEdges" fill="rgb(90, 74, 90)"  x="5" y="11" width="1" height="1" /><rect shape-rendering="crispEdges" fill="rgb(115, 106, 123)"  x="5" y="12" width="1" height="1" /><rect shape-rendering="crispEdges" fill="rgb(115, 106, 123)"  x="5" y="13" width="1" height="1" /><rect shape-rendering="crispEdges" fill="rgb(106, 106, 115)"  x="5" y="14" width="1" height="1" /><rect shape-rendering="crispEdges" fill="rgb(74, 74, 82)"  x="5" y="15" width="1" height="1" /><rect shape-rendering="crispEdges" fill="rgb(57, 57, 65)"  x="5" y="16" width="1" height="1" /><rect shape-rendering="crispEdges" fill="rgb(49, 49, 49)"  x="5" y="17" width="1" height="1" /><rect shape-rendering="crispEdges" fill="rgb(41, 32, 41)"  x="5" y="18" width="1" height="1" /><rect shape-rendering="crispEdges" fill="rgb(32, 16, 24)"  x="5" y="19" width="1" height="1" /><rect shape-rendering="crispEdges" fill="rgb(41, 41, 41)"  x="5" y="20" width="1" height="1" /><rect shape-rendering="crispEdges" fill="rgb(74, 115, 123)"  x="5" y="21" width="1" height="1" /><rect shape-rendering="crispEdges" fill="rgb(57, 74, 74)"  x="5" y="22" width="1" height="1" /><rect shape-rendering="crispEdges" fill="rgb(65, 98, 98)"  x="6" y="9" width="1" height="1" /><rect shape-rendering="crispEdges" fill="rgb(82, 156, 156)"  x="6" y="10" width="1" height="1" /><rect shape-rendering="crispEdges" fill="rgb(57, 74, 82)"  x="6" y="11" width="1" height="1" /><rect shape-rendering="crispEdges" fill="rgb(148, 131, 148)"  x="6" y="12" width="1" height="1" /><rect shape-rendering="crispEdges" fill="rgb(164, 148, 172)"  x="6" y="13" width="1" height="1" /><rect shape-rendering="crispEdges" fill="rgb(156, 148, 164)"  x="6" y="14" width="1" height="1" /><rect shape-rendering="crispEdges" fill="rgb(148, 131, 156)"  x="6" y="15" width="1" height="1" /><rect shape-rendering="crispEdges" fill="rgb(106, 98, 115)"  x="6" y="16" width="1" height="1" /><rect shape-rendering="crispEdges" fill="rgb(74, 65, 82)"  x="6" y="17" width="1" height="1" /><rect shape-rendering="crispEdges" fill="rgb(57, 49, 57)"  x="6" y="18" width="1" height="1" /><rect shape-rendering="crispEdges" fill="rgb(41, 41, 49)"  x="6" y="19" width="1" height="1" /><rect shape-rendering="crispEdges" fill="rgb(32, 32, 32)"  x="6" y="20" width="1" height="1" /><rect shape-rendering="crispEdges" fill="rgb(32, 24, 24)"  x="6" y="21" width="1" height="1" /><rect shape-rendering="crispEdges" fill="rgb(65, 82, 90)"  x="6" y="22" width="1" height="1" /><rect shape-rendering="crispEdges" fill="rgb(57, 57, 57)"  x="6" y="23" width="1" height="1" /><rect shape-rendering="crispEdges" fill="rgb(65, 98, 98)"  x="7" y="10" width="1" height="1" /><rect shape-rendering="crispEdges" fill="rgb(82, 156, 156)"  x="7" y="11" width="1" height="1" /><rect shape-rendering="crispEdges" fill="rgb(106, 106, 115)"  x="7" y="12" width="1" height="1" /><rect shape-rendering="crispEdges" fill="rgb(164, 148, 164)"  x="7" y="13" width="1" height="1" /><rect shape-rendering="crispEdges" fill="rgb(172, 156, 172)"  x="7" y="14" width="1" height="1" /><rect shape-rendering="crispEdges" fill="rgb(156, 148, 164)"  x="7" y="15" width="1" height="1" /><rect shape-rendering="crispEdges" fill="rgb(123, 115, 131)"  x="7" y="16" width="1" height="1" /><rect shape-rendering="crispEdges" fill="rgb(90, 82, 90)"  x="7" y="17" width="1" height="1" /><rect shape-rendering="crispEdges" fill="rgb(65, 57, 74)"  x="7" y="18" width="1" height="1" /><rect shape-rendering="crispEdges" fill="rgb(49, 49, 57)"  x="7" y="19" width="1" height="1" /><rect shape-rendering="crispEdges" fill="rgb(41, 41, 49)"  x="7" y="20" width="1" height="1" /><rect shape-rendering="crispEdges" fill="rgb(32, 32, 32)"  x="7" y="21" width="1" height="1" /><rect shape-rendering="crispEdges" fill="rgb(41, 24, 32)"  x="7" y="22" width="1" height="1" /><rect shape-rendering="crispEdges" fill="rgb(82, 131, 131)"  x="7" y="23" width="1" height="1" /><rect shape-rendering="crispEdges" fill="rgb(65, 82, 82)"  x="7" y="24" width="1" height="1" /><rect shape-rendering="crispEdges" fill="rgb(65, 98, 98)"  x="8" y="9" width="1" height="1" /><rect shape-rendering="crispEdges" fill="rgb(82, 156, 156)"  x="8" y="10" width="1" height="1" /><rect shape-rendering="crispEdges" fill="rgb(82, 74, 82)"  x="8" y="11" width="1" height="1" /><rect shape-rendering="crispEdges" fill="rgb(123, 106, 123)"  x="8" y="12" width="1" height="1" /><rect shape-rendering="crispEdges" fill="rgb(156, 148, 172)"  x="8" y="13" width="1" height="1" /><rect shape-rendering="crispEdges" fill="rgb(156, 148, 164)"  x="8" y="14" width="1" height="1" /><rect shape-rendering="crispEdges" fill="rgb(131, 123, 139)"  x="8" y="15" width="1" height="1" /><rect shape-rendering="crispEdges" fill="rgb(98, 90, 106)"  x="8" y="16" width="1" height="1" /><rect shape-rendering="crispEdges" fill="rgb(74, 65, 74)"  x="8" y="17" width="1" height="1" /><rect shape-rendering="crispEdges" fill="rgb(57, 49, 57)"  x="8" y="18" width="1" height="1" /><rect shape-rendering="crispEdges" fill="rgb(41, 41, 49)"  x="8" y="19" width="1" height="1" /><rect shape-rendering="crispEdges" fill="rgb(32, 32, 41)"  x="8" y="20" width="1" height="1" /><rect shape-rendering="crispEdges" fill="rgb(32, 24, 32)"  x="8" y="21" width="1" height="1" /><rect shape-rendering="crispEdges" fill="rgb(57, 90, 90)"  x="8" y="22" width="1" height="1" /><rect shape-rendering="crispEdges" fill="rgb(82, 139, 139)"  x="8" y="23" width="1" height="1" /><rect shape-rendering="crispEdges" fill="rgb(65, 82, 82)"  x="8" y="24" width="1" height="1" /><rect shape-rendering="crispEdges" fill="rgb(65, 98, 90)"  x="9" y="9" width="1" height="1" /><rect shape-rendering="crispEdges" fill="rgb(82, 156, 148)"  x="9" y="10" width="1" height="1" /><rect shape-rendering="crispEdges" fill="rgb(65, 98, 106)"  x="9" y="11" width="1" height="1" /><rect shape-rendering="crispEdges" fill="rgb(82, 74, 82)"  x="9" y="12" width="1" height="1" /><rect shape-rendering="crispEdges" fill="rgb(115, 106, 123)"  x="9" y="13" width="1" height="1" /><rect shape-rendering="crispEdges" fill="rgb(115, 106, 123)"  x="9" y="14" width="1" height="1" /><rect shape-rendering="crispEdges" fill="rgb(98, 90, 106)"  x="9" y="15" width="1" height="1" /><rect shape-rendering="crispEdges" fill="rgb(74, 74, 82)"  x="9" y="16" width="1" height="1" /><rect shape-rendering="crispEdges" fill="rgb(57, 57, 65)"  x="9" y="17" width="1" height="1" /><rect shape-rendering="crispEdges" fill="rgb(49, 41, 49)"  x="9" y="18" width="1" height="1" /><rect shape-rendering="crispEdges" fill="rgb(32, 32, 41)"  x="9" y="19" width="1" height="1" /><rect shape-rendering="crispEdges" fill="rgb(32, 16, 24)"  x="9" y="20" width="1" height="1" /><rect shape-rendering="crispEdges" fill="rgb(57, 82, 82)"  x="9" y="21" width="1" height="1" /><rect shape-rendering="crispEdges" fill="rgb(82, 148, 148)"  x="9" y="22" width="1" height="1" /><rect shape-rendering="crispEdges" fill="rgb(65, 82, 82)"  x="9" y="23" width="1" height="1" /><rect shape-rendering="crispEdges" fill="rgb(65, 98, 98)"  x="10" y="10" width="1" height="1" /><rect shape-rendering="crispEdges" fill="rgb(90, 164, 164)"  x="10" y="11" width="1" height="1" /><rect shape-rendering="crispEdges" fill="rgb(57, 74, 82)"  x="10" y="12" width="1" height="1" /><rect shape-rendering="crispEdges" fill="rgb(49, 41, 49)"  x="10" y="13" width="1" height="1" /><rect shape-rendering="crispEdges" fill="rgb(65, 57, 65)"  x="10" y="14" width="1" height="1" /><rect shape-rendering="crispEdges" fill="rgb(65, 65, 74)"  x="10" y="15" width="1" height="1" /><rect shape-rendering="crispEdges" fill="rgb(65, 65, 74)"  x="10" y="16" width="1" height="1" /><rect shape-rendering="crispEdges" fill="rgb(57, 57, 65)"  x="10" y="17" width="1" height="1" /><rect shape-rendering="crispEdges" fill="rgb(41, 32, 41)"  x="10" y="18" width="1" height="1" /><rect shape-rendering="crispEdges" fill="rgb(32, 16, 24)"  x="10" y="19" width="1" height="1" /><rect shape-rendering="crispEdges" fill="rgb(57, 82, 82)"  x="10" y="20" width="1" height="1" /><rect shape-rendering="crispEdges" fill="rgb(82, 148, 148)"  x="10" y="21" width="1" height="1" /><rect shape-rendering="crispEdges" fill="rgb(65, 90, 90)"  x="10" y="22" width="1" height="1" /><rect shape-rendering="crispEdges" fill="rgb(65, 90, 90)"  x="11" y="11" width="1" height="1" /><rect shape-rendering="crispEdges" fill="rgb(82, 156, 156)"  x="11" y="12" width="1" height="1" /><rect shape-rendering="crispEdges" fill="rgb(74, 123, 123)"  x="11" y="13" width="1" height="1" /><rect shape-rendering="crispEdges" fill="rgb(49, 57, 57)"  x="11" y="14" width="1" height="1" /><rect shape-rendering="crispEdges" fill="rgb(49, 41, 41)"  x="11" y="15" width="1" height="1" /><rect shape-rendering="crispEdges" fill="rgb(49, 41, 49)"  x="11" y="16" width="1" height="1" /><rect shape-rendering="crispEdges" fill="rgb(41, 32, 41)"  x="11" y="17" width="1" height="1" /><rect shape-rendering="crispEdges" fill="rgb(41, 41, 41)"  x="11" y="18" width="1" height="1" /><rect shape-rendering="crispEdges" fill="rgb(65, 115, 115)"  x="11" y="19" width="1" height="1" /><rect shape-rendering="crispEdges" fill="rgb(82, 156, 156)"  x="11" y="20" width="1" height="1" /><rect shape-rendering="crispEdges" fill="rgb(65, 90, 90)"  x="11" y="21" width="1" height="1" /><rect shape-rendering="crispEdges" fill="rgb(65, 90, 90)"  x="12" y="12" width="1" height="1" /><rect shape-rendering="crispEdges" fill="rgb(74, 123, 123)"  x="12" y="13" width="1" height="1" /><rect shape-rendering="crispEdges" fill="rgb(74, 156, 156)"  x="12" y="14" width="1" height="1" /><rect shape-rendering="crispEdges" fill="rgb(74, 131, 131)"  x="12" y="15" width="1" height="1" /><rect shape-rendering="crispEdges" fill="rgb(57, 90, 90)"  x="12" y="16" width="1" height="1" /><rect shape-rendering="crispEdges" fill="rgb(57, 74, 82)"  x="12" y="17" width="1" height="1" /><rect shape-rendering="crispEdges" fill="rgb(74, 139, 148)"  x="12" y="18" width="1" height="1" /><rect shape-rendering="crispEdges" fill="rgb(82, 164, 164)"  x="12" y="19" width="1" height="1" /><rect shape-rendering="crispEdges" fill="rgb(65, 90, 90)"  x="12" y="20" width="1" height="1" /><rect shape-rendering="crispEdges" fill="rgb(65, 74, 74)"  x="13" y="13" width="1" height="1" /><rect shape-rendering="crispEdges" fill="rgb(65, 82, 82)"  x="13" y="14" width="1" height="1" /><rect shape-rendering="crispEdges" fill="rgb(74, 115, 115)"  x="13" y="15" width="1" height="1" /><rect shape-rendering="crispEdges" fill="rgb(74, 123, 131)"  x="13" y="16" width="1" height="1" /><rect shape-rendering="crispEdges" fill="rgb(74, 131, 139)"  x="13" y="17" width="1" height="1" /><rect shape-rendering="crispEdges" fill="rgb(57, 90, 90)"  x="13" y="18" width="1" height="1" /><rect shape-rendering="crispEdges" fill="rgb(74, 115, 115)"  x="13" y="19" width="1" height="1" /><rect shape-rendering="crispEdges" fill="rgb(57, 57, 57)"  x="14" y="14" width="1" height="1" /><rect shape-rendering="crispEdges" fill="rgb(65, 82, 82)"  x="14" y="15" width="1" height="1" /><rect shape-rendering="crispEdges" fill="rgb(74, 115, 115)"  x="14" y="16" width="1" height="1" /><rect shape-rendering="crispEdges" fill="rgb(57, 90, 90)"  x="14" y="17" width="1" height="1" /><rect shape-rendering="crispEdges" fill="rgb(74, 131, 139)"  x="14" y="18" width="1" height="1" /><rect shape-rendering="crispEdges" fill="rgb(65, 82, 82)"  x="14" y="19" width="1" height="1" /><rect shape-rendering="crispEdges" fill="rgb(65, 106, 106)"  x="15" y="13" width="1" height="1" /><rect shape-rendering="crispEdges" fill="rgb(74, 156, 156)"  x="15" y="14" width="1" height="1" /><rect shape-rendering="crispEdges" fill="rgb(74, 148, 148)"  x="15" y="15" width="1" height="1" /><rect shape-rendering="crispEdges" fill="rgb(74, 139, 139)"  x="15" y="16" width="1" height="1" /><rect shape-rendering="crispEdges" fill="rgb(82, 148, 148)"  x="15" y="17" width="1" height="1" /><rect shape-rendering="crispEdges" fill="rgb(82, 156, 164)"  x="15" y="18" width="1" height="1" /><rect shape-rendering="crispEdges" fill="rgb(74, 148, 156)"  x="15" y="19" width="1" height="1" /><rect shape-rendering="crispEdges" fill="rgb(65, 82, 82)"  x="15" y="20" width="1" height="1" /><rect shape-rendering="crispEdges" fill="rgb(65, 90, 82)"  x="16" y="11" width="1" height="1" /><rect shape-rendering="crispEdges" fill="rgb(82, 148, 148)"  x="16" y="12" width="1" height="1" /><rect shape-rendering="crispEdges" fill="rgb(82, 156, 156)"  x="16" y="13" width="1" height="1" /><rect shape-rendering="crispEdges" fill="rgb(57, 82, 90)"  x="16" y="14" width="1" height="1" /><rect shape-rendering="crispEdges" fill="rgb(49, 49, 49)"  x="16" y="15" width="1" height="1" /><rect shape-rendering="crispEdges" fill="rgb(41, 32, 41)"  x="16" y="16" width="1" height="1" /><rect shape-rendering="crispEdges" fill="rgb(41, 41, 49)"  x="16" y="17" width="1" height="1" /><rect shape-rendering="crispEdges" fill="rgb(57, 90, 90)"  x="16" y="18" width="1" height="1" /><rect shape-rendering="crispEdges" fill="rgb(90, 180, 172)"  x="16" y="19" width="1" height="1" /><rect shape-rendering="crispEdges" fill="rgb(74, 131, 131)"  x="16" y="20" width="1" height="1" /><rect shape-rendering="crispEdges" fill="rgb(65, 98, 98)"  x="17" y="10" width="1" height="1" /><rect shape-rendering="crispEdges" fill="rgb(74, 123, 123)"  x="17" y="11" width="1" height="1" /><rect shape-rendering="crispEdges" fill="rgb(82, 148, 139)"  x="17" y="12" width="1" height="1" /><rect shape-rendering="crispEdges" fill="rgb(49, 41, 49)"  x="17" y="13" width="1" height="1" /><rect shape-rendering="crispEdges" fill="rgb(49, 41, 49)"  x="17" y="14" width="1" height="1" /><rect shape-rendering="crispEdges" fill="rgb(57, 49, 57)"  x="17" y="15" width="1" height="1" /><rect shape-rendering="crispEdges" fill="rgb(57, 57, 65)"  x="17" y="16" width="1" height="1" /><rect shape-rendering="crispEdges" fill="rgb(49, 49, 57)"  x="17" y="17" width="1" height="1" /><rect shape-rendering="crispEdges" fill="rgb(32, 24, 32)"  x="17" y="18" width="1" height="1" /><rect shape-rendering="crispEdges" fill="rgb(41, 41, 49)"  x="17" y="19" width="1" height="1" /><rect shape-rendering="crispEdges" fill="rgb(82, 164, 156)"  x="17" y="20" width="1" height="1" /><rect shape-rendering="crispEdges" fill="rgb(74, 115, 115)"  x="17" y="21" width="1" height="1" /><rect shape-rendering="crispEdges" fill="rgb(65, 98, 98)"  x="18" y="10" width="1" height="1" /><rect shape-rendering="crispEdges" fill="rgb(82, 156, 156)"  x="18" y="11" width="1" height="1" /><rect shape-rendering="crispEdges" fill="rgb(65, 74, 74)"  x="18" y="12" width="1" height="1" /><rect shape-rendering="crispEdges" fill="rgb(65, 57, 65)"  x="18" y="13" width="1" height="1" /><rect shape-rendering="crispEdges" fill="rgb(82, 74, 90)"  x="18" y="14" width="1" height="1" /><rect shape-rendering="crispEdges" fill="rgb(82, 74, 82)"  x="18" y="15" width="1" height="1" /><rect shape-rendering="crispEdges" fill="rgb(74, 65, 74)"  x="18" y="16" width="1" height="1" /><rect shape-rendering="crispEdges" fill="rgb(65, 57, 65)"  x="18" y="17" width="1" height="1" /><rect shape-rendering="crispEdges" fill="rgb(49, 49, 57)"  x="18" y="18" width="1" height="1" /><rect shape-rendering="crispEdges" fill="rgb(32, 24, 32)"  x="18" y="19" width="1" height="1" /><rect shape-rendering="crispEdges" fill="rgb(32, 32, 32)"  x="18" y="20" width="1" height="1" /><rect shape-rendering="crispEdges" fill="rgb(82, 156, 156)"  x="18" y="21" width="1" height="1" /><rect shape-rendering="crispEdges" fill="rgb(65, 98, 106)"  x="18" y="22" width="1" height="1" /><rect shape-rendering="crispEdges" fill="rgb(65, 98, 98)"  x="19" y="10" width="1" height="1" /><rect shape-rendering="crispEdges" fill="rgb(82, 164, 156)"  x="19" y="11" width="1" height="1" /><rect shape-rendering="crispEdges" fill="rgb(74, 74, 74)"  x="19" y="12" width="1" height="1" /><rect shape-rendering="crispEdges" fill="rgb(115, 106, 123)"  x="19" y="13" width="1" height="1" /><rect shape-rendering="crispEdges" fill="rgb(131, 123, 139)"  x="19" y="14" width="1" height="1" /><rect shape-rendering="crispEdges" fill="rgb(123, 106, 131)"  x="19" y="15" width="1" height="1" /><rect shape-rendering="crispEdges" fill="rgb(90, 90, 98)"  x="19" y="16" width="1" height="1" /><rect shape-rendering="crispEdges" fill="rgb(74, 74, 82)"  x="19" y="17" width="1" height="1" /><rect shape-rendering="crispEdges" fill="rgb(57, 57, 57)"  x="19" y="18" width="1" height="1" /><rect shape-rendering="crispEdges" fill="rgb(41, 41, 49)"  x="19" y="19" width="1" height="1" /><rect shape-rendering="crispEdges" fill="rgb(32, 24, 32)"  x="19" y="20" width="1" height="1" /><rect shape-rendering="crispEdges" fill="rgb(41, 41, 41)"  x="19" y="21" width="1" height="1" /><rect shape-rendering="crispEdges" fill="rgb(90, 164, 164)"  x="19" y="22" width="1" height="1" /><rect shape-rendering="crispEdges" fill="rgb(65, 90, 90)"  x="19" y="23" width="1" height="1" /><rect shape-rendering="crispEdges" fill="rgb(65, 90, 90)"  x="20" y="10" width="1" height="1" /><rect shape-rendering="crispEdges" fill="rgb(82, 148, 148)"  x="20" y="11" width="1" height="1" /><rect shape-rendering="crispEdges" fill="rgb(82, 106, 115)"  x="20" y="12" width="1" height="1" /><rect shape-rendering="crispEdges" fill="rgb(131, 106, 131)"  x="20" y="13" width="1" height="1" /><rect shape-rendering="crispEdges" fill="rgb(156, 148, 164)"  x="20" y="14" width="1" height="1" /><rect shape-rendering="crispEdges" fill="rgb(148, 139, 164)"  x="20" y="15" width="1" height="1" /><rect shape-rendering="crispEdges" fill="rgb(131, 115, 139)"  x="20" y="16" width="1" height="1" /><rect shape-rendering="crispEdges" fill="rgb(90, 82, 98)"  x="20" y="17" width="1" height="1" /><rect shape-rendering="crispEdges" fill="rgb(65, 65, 65)"  x="20" y="18" width="1" height="1" /><rect shape-rendering="crispEdges" fill="rgb(49, 49, 57)"  x="20" y="19" width="1" height="1" /><rect shape-rendering="crispEdges" fill="rgb(41, 32, 41)"  x="20" y="20" width="1" height="1" /><rect shape-rendering="crispEdges" fill="rgb(32, 24, 32)"  x="20" y="21" width="1" height="1" /><rect shape-rendering="crispEdges" fill="rgb(49, 65, 65)"  x="20" y="22" width="1" height="1" /><rect shape-rendering="crispEdges" fill="rgb(90, 164, 164)"  x="20" y="23" width="1" height="1" /><rect shape-rendering="crispEdges" fill="rgb(65, 98, 98)"  x="20" y="24" width="1" height="1" /><rect shape-rendering="crispEdges" fill="rgb(57, 82, 82)"  x="21" y="11" width="1" height="1" /><rect shape-rendering="crispEdges" fill="rgb(82, 164, 156)"  x="21" y="12" width="1" height="1" /><rect shape-rendering="crispEdges" fill="rgb(98, 106, 115)"  x="21" y="13" width="1" height="1" /><rect shape-rendering="crispEdges" fill="rgb(156, 139, 164)"  x="21" y="14" width="1" height="1" /><rect shape-rendering="crispEdges" fill="rgb(172, 156, 180)"  x="21" y="15" width="1" height="1" /><rect shape-rendering="crispEdges" fill="rgb(156, 139, 164)"  x="21" y="16" width="1" height="1" /><rect shape-rendering="crispEdges" fill="rgb(115, 106, 123)"  x="21" y="17" width="1" height="1" /><rect shape-rendering="crispEdges" fill="rgb(82, 74, 82)"  x="21" y="18" width="1" height="1" /><rect shape-rendering="crispEdges" fill="rgb(57, 57, 65)"  x="21" y="19" width="1" height="1" /><rect shape-rendering="crispEdges" fill="rgb(49, 41, 49)"  x="21" y="20" width="1" height="1" /><rect shape-rendering="crispEdges" fill="rgb(32, 32, 41)"  x="21" y="21" width="1" height="1" /><rect shape-rendering="crispEdges" fill="rgb(32, 16, 24)"  x="21" y="22" width="1" height="1" /><rect shape-rendering="crispEdges" fill="rgb(65, 98, 98)"  x="21" y="23" width="1" height="1" /><rect shape-rendering="crispEdges" fill="rgb(82, 139, 139)"  x="21" y="24" width="1" height="1" /><rect shape-rendering="crispEdges" fill="rgb(65, 98, 98)"  x="21" y="25" width="1" height="1" /><rect shape-rendering="crispEdges" fill="rgb(74, 115, 115)"  x="22" y="11" width="1" height="1" /><rect shape-rendering="crispEdges" fill="rgb(90, 164, 156)"  x="22" y="12" width="1" height="1" /><rect shape-rendering="crispEdges" fill="rgb(106, 106, 115)"  x="22" y="13" width="1" height="1" /><rect shape-rendering="crispEdges" fill="rgb(156, 148, 164)"  x="22" y="14" width="1" height="1" /><rect shape-rendering="crispEdges" fill="rgb(164, 156, 172)"  x="22" y="15" width="1" height="1" /><rect shape-rendering="crispEdges" fill="rgb(164, 148, 172)"  x="22" y="16" width="1" height="1" /><rect shape-rendering="crispEdges" fill="rgb(131, 123, 139)"  x="22" y="17" width="1" height="1" /><rect shape-rendering="crispEdges" fill="rgb(98, 90, 98)"  x="22" y="18" width="1" height="1" /><rect shape-rendering="crispEdges" fill="rgb(65, 65, 74)"  x="22" y="19" width="1" height="1" /><rect shape-rendering="crispEdges" fill="rgb(49, 49, 57)"  x="22" y="20" width="1" height="1" /><rect shape-rendering="crispEdges" fill="rgb(41, 41, 41)"  x="22" y="21" width="1" height="1" /><rect shape-rendering="crispEdges" fill="rgb(32, 32, 32)"  x="22" y="22" width="1" height="1" /><rect shape-rendering="crispEdges" fill="rgb(41, 24, 32)"  x="22" y="23" width="1" height="1" /><rect shape-rendering="crispEdges" fill="rgb(82, 139, 139)"  x="22" y="24" width="1" height="1" /><rect shape-rendering="crispEdges" fill="rgb(74, 115, 115)"  x="22" y="25" width="1" height="1" /><rect shape-rendering="crispEdges" fill="rgb(65, 90, 90)"  x="22" y="26" width="1" height="1" /><rect shape-rendering="crispEdges" fill="rgb(74, 106, 106)"  x="23" y="10" width="1" height="1" /><rect shape-rendering="crispEdges" fill="rgb(90, 180, 172)"  x="23" y="11" width="1" height="1" /><rect shape-rendering="crispEdges" fill="rgb(74, 74, 82)"  x="23" y="12" width="1" height="1" /><rect shape-rendering="crispEdges" fill="rgb(139, 123, 139)"  x="23" y="13" width="1" height="1" /><rect shape-rendering="crispEdges" fill="rgb(164, 148, 172)"  x="23" y="14" width="1" height="1" /><rect shape-rendering="crispEdges" fill="rgb(148, 139, 164)"  x="23" y="15" width="1" height="1" /><rect shape-rendering="crispEdges" fill="rgb(148, 139, 156)"  x="23" y="16" width="1" height="1" /><rect shape-rendering="crispEdges" fill="rgb(123, 115, 131)"  x="23" y="17" width="1" height="1" /><rect shape-rendering="crispEdges" fill="rgb(82, 82, 90)"  x="23" y="18" width="1" height="1" /><rect shape-rendering="crispEdges" fill="rgb(65, 57, 65)"  x="23" y="19" width="1" height="1" /><rect shape-rendering="crispEdges" fill="rgb(49, 49, 57)"  x="23" y="20" width="1" height="1" /><rect shape-rendering="crispEdges" fill="rgb(41, 41, 41)"  x="23" y="21" width="1" height="1" /><rect shape-rendering="crispEdges" fill="rgb(32, 32, 41)"  x="23" y="22" width="1" height="1" /><rect shape-rendering="crispEdges" fill="rgb(32, 24, 24)"  x="23" y="23" width="1" height="1" /><rect shape-rendering="crispEdges" fill="rgb(65, 82, 82)"  x="23" y="24" width="1" height="1" /><rect shape-rendering="crispEdges" fill="rgb(90, 172, 172)"  x="23" y="25" width="1" height="1" /><rect shape-rendering="crispEdges" fill="rgb(65, 82, 82)"  x="23" y="26" width="1" height="1" /><rect shape-rendering="crispEdges" fill="rgb(65, 90, 90)"  x="24" y="9" width="1" height="1" /><rect shape-rendering="crispEdges" fill="rgb(90, 172, 172)"  x="24" y="10" width="1" height="1" /><rect shape-rendering="crispEdges" fill="rgb(65, 98, 98)"  x="24" y="11" width="1" height="1" /><rect shape-rendering="crispEdges" fill="rgb(74, 57, 65)"  x="24" y="12" width="1" height="1" /><rect shape-rendering="crispEdges" fill="rgb(106, 106, 123)"  x="24" y="13" width="1" height="1" /><rect shape-rendering="crispEdges" fill="rgb(123, 115, 131)"  x="24" y="14" width="1" height="1" /><rect shape-rendering="crispEdges" fill="rgb(131, 123, 148)"  x="24" y="15" width="1" height="1" /><rect shape-rendering="crispEdges" fill="rgb(115, 106, 115)"  x="24" y="16" width="1" height="1" /><rect shape-rendering="crispEdges" fill="rgb(74, 74, 82)"  x="24" y="17" width="1" height="1" /><rect shape-rendering="crispEdges" fill="rgb(57, 57, 65)"  x="24" y="18" width="1" height="1" /><rect shape-rendering="crispEdges" fill="rgb(49, 49, 57)"  x="24" y="19" width="1" height="1" /><rect shape-rendering="crispEdges" fill="rgb(41, 41, 41)"  x="24" y="20" width="1" height="1" /><rect shape-rendering="crispEdges" fill="rgb(32, 32, 41)"  x="24" y="21" width="1" height="1" /><rect shape-rendering="crispEdges" fill="rgb(32, 24, 24)"  x="24" y="22" width="1" height="1" /><rect shape-rendering="crispEdges" fill="rgb(57, 65, 74)"  x="24" y="23" width="1" height="1" /><rect shape-rendering="crispEdges" fill="rgb(90, 164, 164)"  x="24" y="24" width="1" height="1" /><rect shape-rendering="crispEdges" fill="rgb(57, 65, 65)"  x="24" y="25" width="1" height="1" /><rect shape-rendering="crispEdges" fill="rgb(65, 90, 90)"  x="25" y="9" width="1" height="1" /><rect shape-rendering="crispEdges" fill="rgb(90, 164, 164)"  x="25" y="10" width="1" height="1" /><rect shape-rendering="crispEdges" fill="rgb(57, 74, 74)"  x="25" y="11" width="1" height="1" /><rect shape-rendering="crispEdges" fill="rgb(57, 57, 65)"  x="25" y="12" width="1" height="1" /><rect shape-rendering="crispEdges" fill="rgb(74, 65, 74)"  x="25" y="13" width="1" height="1" /><rect shape-rendering="crispEdges" fill="rgb(74, 65, 74)"  x="25" y="14" width="1" height="1" /><rect shape-rendering="crispEdges" fill="rgb(65, 65, 74)"  x="25" y="15" width="1" height="1" /><rect shape-rendering="crispEdges" fill="rgb(57, 57, 65)"  x="25" y="16" width="1" height="1" /><rect shape-rendering="crispEdges" fill="rgb(57, 57, 65)"  x="25" y="17" width="1" height="1" /><rect shape-rendering="crispEdges" fill="rgb(49, 49, 57)"  x="25" y="18" width="1" height="1" /><rect shape-rendering="crispEdges" fill="rgb(41, 41, 49)"  x="25" y="19" width="1" height="1" /><rect shape-rendering="crispEdges" fill="rgb(32, 32, 41)"  x="25" y="20" width="1" height="1" /><rect shape-rendering="crispEdges" fill="rgb(32, 16, 24)"  x="25" y="21" width="1" height="1" /><rect shape-rendering="crispEdges" fill="rgb(57, 74, 74)"  x="25" y="22" width="1" height="1" /><rect shape-rendering="crispEdges" fill="rgb(90, 164, 164)"  x="25" y="23" width="1" height="1" /><rect shape-rendering="crispEdges" fill="rgb(57, 65, 74)"  x="25" y="24" width="1" height="1" /><rect shape-rendering="crispEdges" fill="rgb(65, 90, 90)"  x="26" y="9" width="1" height="1" /><rect shape-rendering="crispEdges" fill="rgb(82, 172, 164)"  x="26" y="10" width="1" height="1" /><rect shape-rendering="crispEdges" fill="rgb(57, 74, 74)"  x="26" y="11" width="1" height="1" /><rect shape-rendering="crispEdges" fill="rgb(49, 41, 49)"  x="26" y="12" width="1" height="1" /><rect shape-rendering="crispEdges" fill="rgb(49, 49, 57)"  x="26" y="13" width="1" height="1" /><rect shape-rendering="crispEdges" fill="rgb(49, 49, 57)"  x="26" y="14" width="1" height="1" /><rect shape-rendering="crispEdges" fill="rgb(49, 49, 57)"  x="26" y="15" width="1" height="1" /><rect shape-rendering="crispEdges" fill="rgb(49, 49, 57)"  x="26" y="16" width="1" height="1" /><rect shape-rendering="crispEdges" fill="rgb(49, 41, 49)"  x="26" y="17" width="1" height="1" /><rect shape-rendering="crispEdges" fill="rgb(41, 32, 41)"  x="26" y="18" width="1" height="1" /><rect shape-rendering="crispEdges" fill="rgb(32, 24, 32)"  x="26" y="19" width="1" height="1" /><rect shape-rendering="crispEdges" fill="rgb(32, 24, 32)"  x="26" y="20" width="1" height="1" /><rect shape-rendering="crispEdges" fill="rgb(65, 98, 106)"  x="26" y="21" width="1" height="1" /><rect shape-rendering="crispEdges" fill="rgb(82, 156, 156)"  x="26" y="22" width="1" height="1" /><rect shape-rendering="crispEdges" fill="rgb(57, 65, 65)"  x="26" y="23" width="1" height="1" /><rect shape-rendering="crispEdges" fill="rgb(65, 82, 82)"  x="27" y="10" width="1" height="1" /><rect shape-rendering="crispEdges" fill="rgb(74, 131, 131)"  x="27" y="11" width="1" height="1" /><rect shape-rendering="crispEdges" fill="rgb(41, 32, 32)"  x="27" y="12" width="1" height="1" /><rect shape-rendering="crispEdges" fill="rgb(41, 41, 41)"  x="27" y="13" width="1" height="1" /><rect shape-rendering="crispEdges" fill="rgb(49, 49, 49)"  x="27" y="14" width="1" height="1" /><rect shape-rendering="crispEdges" fill="rgb(49, 41, 49)"  x="27" y="15" width="1" height="1" /><rect shape-rendering="crispEdges" fill="rgb(41, 32, 41)"  x="27" y="16" width="1" height="1" /><rect shape-rendering="crispEdges" fill="rgb(32, 24, 32)"  x="27" y="17" width="1" height="1" /><rect shape-rendering="crispEdges" fill="rgb(32, 32, 32)"  x="27" y="18" width="1" height="1" /><rect shape-rendering="crispEdges" fill="rgb(49, 74, 82)"  x="27" y="19" width="1" height="1" /><rect shape-rendering="crispEdges" fill="rgb(74, 139, 148)"  x="27" y="20" width="1" height="1" /><rect shape-rendering="crispEdges" fill="rgb(74, 115, 115)"  x="27" y="21" width="1" height="1" /><rect shape-rendering="crispEdges" fill="rgb(57, 65, 65)"  x="27" y="22" width="1" height="1" /><rect shape-rendering="crispEdges" fill="rgb(65, 82, 82)"  x="28" y="10" width="1" height="1" /><rect shape-rendering="crispEdges" fill="rgb(90, 172, 164)"  x="28" y="11" width="1" height="1" /><rect shape-rendering="crispEdges" fill="rgb(82, 131, 131)"  x="28" y="12" width="1" height="1" /><rect shape-rendering="crispEdges" fill="rgb(57, 65, 74)"  x="28" y="13" width="1" height="1" /><rect shape-rendering="crispEdges" fill="rgb(41, 41, 41)"  x="28" y="14" width="1" height="1" /><rect shape-rendering="crispEdges" fill="rgb(41, 49, 49)"  x="28" y="15" width="1" height="1" /><rect shape-rendering="crispEdges" fill="rgb(49, 65, 74)"  x="28" y="16" width="1" height="1" /><rect shape-rendering="crispEdges" fill="rgb(57, 106, 106)"  x="28" y="17" width="1" height="1" /><rect shape-rendering="crispEdges" fill="rgb(74, 131, 139)"  x="28" y="18" width="1" height="1" /><rect shape-rendering="crispEdges" fill="rgb(74, 123, 131)"  x="28" y="19" width="1" height="1" /><rect shape-rendering="crispEdges" fill="rgb(57, 65, 65)"  x="28" y="20" width="1" height="1" /><rect shape-rendering="crispEdges" fill="rgb(57, 65, 65)"  x="28" y="21" width="1" height="1" /><rect shape-rendering="crispEdges" fill="rgb(57, 74, 74)"  x="29" y="11" width="1" height="1" /><rect shape-rendering="crispEdges" fill="rgb(82, 148, 148)"  x="29" y="12" width="1" height="1" /><rect shape-rendering="crispEdges" fill="rgb(90, 172, 164)"  x="29" y="13" width="1" height="1" /><rect shape-rendering="crispEdges" fill="rgb(90, 172, 164)"  x="29" y="14" width="1" height="1" /><rect shape-rendering="crispEdges" fill="rgb(82, 164, 156)"  x="29" y="15" width="1" height="1" /><rect shape-rendering="crispEdges" fill="rgb(82, 156, 156)"  x="29" y="16" width="1" height="1" /><rect shape-rendering="crispEdges" fill="rgb(74, 123, 115)"  x="29" y="17" width="1" height="1" /><rect shape-rendering="crispEdges" fill="rgb(57, 65, 74)"  x="29" y="18" width="1" height="1" /><rect shape-rendering="crispEdges" fill="rgb(57, 65, 65)"  x="29" y="19" width="1" height="1" /><rect shape-rendering="crispEdges" fill="rgb(65, 82, 74)"  x="30" y="12" width="1" height="1" /><rect shape-rendering="crispEdges" fill="rgb(65, 82, 74)"  x="30" y="13" width="1" height="1" /><rect shape-rendering="crispEdges" fill="rgb(65, 82, 74)"  x="30" y="14" width="1" height="1" /><rect shape-rendering="crispEdges" fill="rgb(57, 65, 65)"  x="30" y="15" width="1" height="1" /><rect shape-rendering="crispEdges" fill="rgb(57, 65, 65)"  x="30" y="16" width="1" height="1" /><rect shape-rendering="crispEdges" fill="rgb(57, 57, 57)"  x="30" y="17" width="1" height="1" /></svg>