<svg xmlns="http://www.w3.org/2000/svg" xmlns:xlink= "http://www.w3.org/1999/xlink" width="32" height="32" viewBox ="0 0 32 32"><rect shape-rendering="crispEdges" fill="rgb(90, 57, 139)"  x="6" y="9" width="1" height="1" /><rect shape-rendering="crispEdges" fill="rgb(82, 57, 139)"  x="6" y="10" width="1" height="1" /><rect shape-rendering="crispEdges" fill="rgb(90, 123, 189)"  x="6" y="11" width="1" height="1" /><rect shape-rendering="crispEdges" fill="rgb(57, 156, 238)"  x="6" y="12" width="1" height="1" /><rect shape-rendering="crispEdges" fill="rgb(41, 123, 197)"  x="6" y="13" width="1" height="1" /><rect shape-rendering="crispEdges" fill="rgb(16, 74, 131)"  x="6" y="14" width="1" height="1" /><rect shape-rendering="crispEdges" fill="rgb(82, 57, 131)"  x="7" y="3" width="1" height="1" /><rect shape-rendering="crispEdges" fill="rgb(82, 65, 156)"  x="7" y="4" width="1" height="1" /><rect shape-rendering="crispEdges" fill="rgb(74, 74, 164)"  x="7" y="5" width="1" height="1" /><rect shape-rendering="crispEdges" fill="rgb(65, 82, 172)"  x="7" y="6" width="1" height="1" /><rect shape-rendering="crispEdges" fill="rgb(74, 57, 148)"  x="7" y="7" width="1" height="1" /><rect shape-rendering="crispEdges" fill="rgb(82, 57, 131)"  x="7" y="8" width="1" height="1" /><rect shape-rendering="crispEdges" fill="rgb(82, 49, 131)"  x="7" y="9" width="1" height="1" /><rect shape-rendering="crispEdges" fill="rgb(115, 131, 189)"  x="7" y="10" width="1" height="1" /><rect shape-rendering="crispEdges" fill="rgb(156, 172, 230)"  x="7" y="11" width="1" height="1" /><rect shape-rendering="crispEdges" fill="rgb(82, 74, 156)"  x="7" y="12" width="1" height="1" /><rect shape-rendering="crispEdges" fill="rgb(82, 98, 172)"  x="7" y="13" width="1" height="1" /><rect shape-rendering="crispEdges" fill="rgb(32, 115, 180)"  x="7" y="14" width="1" height="1" /><rect shape-rendering="crispEdges" fill="rgb(16, 65, 131)"  x="7" y="15" width="1" height="1" /><rect shape-rendering="crispEdges" fill="rgb(90, 65, 148)"  x="8" y="2" width="1" height="1" /><rect shape-rendering="crispEdges" fill="rgb(139, 98, 197)"  x="8" y="3" width="1" height="1" /><rect shape-rendering="crispEdges" fill="rgb(156, 139, 255)"  x="8" y="4" width="1" height="1" /><rect shape-rendering="crispEdges" fill="rgb(115, 156, 255)"  x="8" y="5" width="1" height="1" /><rect shape-rendering="crispEdges" fill="rgb(98, 189, 255)"  x="8" y="6" width="1" height="1" /><rect shape-rendering="crispEdges" fill="rgb(98, 189, 246)"  x="8" y="7" width="1" height="1" /><rect shape-rendering="crispEdges" fill="rgb(74, 131, 213)"  x="8" y="8" width="1" height="1" /><rect shape-rendering="crispEdges" fill="rgb(41, 49, 123)"  x="8" y="9" width="1" height="1" /><rect shape-rendering="crispEdges" fill="rgb(139, 172, 205)"  x="8" y="10" width="1" height="1" /><rect shape-rendering="crispEdges" fill="rgb(139, 115, 180)"  x="8" y="11" width="1" height="1" /><rect shape-rendering="crispEdges" fill="rgb(74, 49, 131)"  x="8" y="12" width="1" height="1" /><rect shape-rendering="crispEdges" fill="rgb(98, 123, 189)"  x="8" y="13" width="1" height="1" /><rect shape-rendering="crispEdges" fill="rgb(49, 115, 172)"  x="8" y="14" width="1" height="1" /><rect shape-rendering="crispEdges" fill="rgb(8, 57, 123)"  x="8" y="15" width="1" height="1" /><rect shape-rendering="crispEdges" fill="rgb(24, 82, 148)"  x="8" y="16" width="1" height="1" /><rect shape-rendering="crispEdges" fill="rgb(41, 106, 172)"  x="8" y="17" width="1" height="1" /><rect shape-rendering="crispEdges" fill="rgb(32, 90, 156)"  x="8" y="18" width="1" height="1" /><rect shape-rendering="crispEdges" fill="rgb(16, 74, 131)"  x="8" y="19" width="1" height="1" /><rect shape-rendering="crispEdges" fill="rgb(16, 74, 131)"  x="8" y="20" width="1" height="1" /><rect shape-rendering="crispEdges" fill="rgb(82, 57, 131)"  x="9" y="1" width="1" height="1" /><rect shape-rendering="crispEdges" fill="rgb(180, 123, 222)"  x="9" y="2" width="1" height="1" /><rect shape-rendering="crispEdges" fill="rgb(213, 148, 255)"  x="9" y="3" width="1" height="1" /><rect shape-rendering="crispEdges" fill="rgb(106, 98, 189)"  x="9" y="4" width="1" height="1" /><rect shape-rendering="crispEdges" fill="rgb(57, 90, 148)"  x="9" y="5" width="1" height="1" /><rect shape-rendering="crispEdges" fill="rgb(49, 98, 139)"  x="9" y="6" width="1" height="1" /><rect shape-rendering="crispEdges" fill="rgb(98, 164, 189)"  x="9" y="7" width="1" height="1" /><rect shape-rendering="crispEdges" fill="rgb(148, 238, 255)"  x="9" y="8" width="1" height="1" /><rect shape-rendering="crispEdges" fill="rgb(74, 164, 222)"  x="9" y="9" width="1" height="1" /><rect shape-rendering="crispEdges" fill="rgb(123, 172, 222)"  x="9" y="10" width="1" height="1" /><rect shape-rendering="crispEdges" fill="rgb(164, 164, 213)"  x="9" y="11" width="1" height="1" /><rect shape-rendering="crispEdges" fill="rgb(65, 57, 139)"  x="9" y="12" width="1" height="1" /><rect shape-rendering="crispEdges" fill="rgb(32, 98, 156)"  x="9" y="13" width="1" height="1" /><rect shape-rendering="crispEdges" fill="rgb(16, 74, 131)"  x="9" y="14" width="1" height="1" /><rect shape-rendering="crispEdges" fill="rgb(32, 123, 180)"  x="9" y="15" width="1" height="1" /><rect shape-rendering="crispEdges" fill="rgb(82, 205, 246)"  x="9" y="16" width="1" height="1" /><rect shape-rendering="crispEdges" fill="rgb(115, 246, 255)"  x="9" y="17" width="1" height="1" /><rect shape-rendering="crispEdges" fill="rgb(90, 213, 255)"  x="9" y="18" width="1" height="1" /><rect shape-rendering="crispEdges" fill="rgb(41, 131, 205)"  x="9" y="19" width="1" height="1" /><rect shape-rendering="crispEdges" fill="rgb(16, 74, 139)"  x="9" y="20" width="1" height="1" /><rect shape-rendering="crispEdges" fill="rgb(16, 74, 131)"  x="9" y="21" width="1" height="1" /><rect shape-rendering="crispEdges" fill="rgb(16, 74, 131)"  x="9" y="22" width="1" height="1" /><rect shape-rendering="crispEdges" fill="rgb(115, 82, 164)"  x="10" y="1" width="1" height="1" /><rect shape-rendering="crispEdges" fill="rgb(230, 156, 255)"  x="10" y="2" width="1" height="1" /><rect shape-rendering="crispEdges" fill="rgb(57, 82, 148)"  x="10" y="3" width="1" height="1" /><rect shape-rendering="crispEdges" fill="rgb(0, 57, 98)"  x="10" y="4" width="1" height="1" /><rect shape-rendering="crispEdges" fill="rgb(8, 65, 106)"  x="10" y="5" width="1" height="1" /><rect shape-rendering="crispEdges" fill="rgb(8, 57, 106)"  x="10" y="6" width="1" height="1" /><rect shape-rendering="crispEdges" fill="rgb(0, 49, 98)"  x="10" y="7" width="1" height="1" /><rect shape-rendering="crispEdges" fill="rgb(57, 115, 148)"  x="10" y="8" width="1" height="1" /><rect shape-rendering="crispEdges" fill="rgb(164, 238, 246)"  x="10" y="9" width="1" height="1" /><rect shape-rendering="crispEdges" fill="rgb(98, 180, 246)"  x="10" y="10" width="1" height="1" /><rect shape-rendering="crispEdges" fill="rgb(156, 180, 255)"  x="10" y="11" width="1" height="1" /><rect shape-rendering="crispEdges" fill="rgb(90, 139, 222)"  x="10" y="12" width="1" height="1" /><rect shape-rendering="crispEdges" fill="rgb(41, 131, 205)"  x="10" y="13" width="1" height="1" /><rect shape-rendering="crispEdges" fill="rgb(49, 172, 230)"  x="10" y="14" width="1" height="1" /><rect shape-rendering="crispEdges" fill="rgb(49, 164, 213)"  x="10" y="15" width="1" height="1" /><rect shape-rendering="crispEdges" fill="rgb(24, 98, 131)"  x="10" y="16" width="1" height="1" /><rect shape-rendering="crispEdges" fill="rgb(32, 98, 123)"  x="10" y="17" width="1" height="1" /><rect shape-rendering="crispEdges" fill="rgb(98, 222, 230)"  x="10" y="18" width="1" height="1" /><rect shape-rendering="crispEdges" fill="rgb(90, 230, 255)"  x="10" y="19" width="1" height="1" /><rect shape-rendering="crispEdges" fill="rgb(32, 148, 222)"  x="10" y="20" width="1" height="1" /><rect shape-rendering="crispEdges" fill="rgb(16, 82, 148)"  x="10" y="21" width="1" height="1" /><rect shape-rendering="crispEdges" fill="rgb(16, 65, 123)"  x="10" y="22" width="1" height="1" /><rect shape-rendering="crispEdges" fill="rgb(16, 74, 139)"  x="10" y="23" width="1" height="1" /><rect shape-rendering="crispEdges" fill="rgb(16, 74, 131)"  x="10" y="24" width="1" height="1" /><rect shape-rendering="crispEdges" fill="rgb(139, 115, 172)"  x="11" y="1" width="1" height="1" /><rect shape-rendering="crispEdges" fill="rgb(222, 180, 255)"  x="11" y="2" width="1" height="1" /><rect shape-rendering="crispEdges" fill="rgb(24, 65, 123)"  x="11" y="3" width="1" height="1" /><rect shape-rendering="crispEdges" fill="rgb(32, 74, 123)"  x="11" y="4" width="1" height="1" /><rect shape-rendering="crispEdges" fill="rgb(106, 115, 180)"  x="11" y="5" width="1" height="1" /><rect shape-rendering="crispEdges" fill="rgb(131, 156, 213)"  x="11" y="6" width="1" height="1" /><rect shape-rendering="crispEdges" fill="rgb(41, 90, 139)"  x="11" y="7" width="1" height="1" /><rect shape-rendering="crispEdges" fill="rgb(0, 49, 98)"  x="11" y="8" width="1" height="1" /><rect shape-rendering="crispEdges" fill="rgb(65, 123, 156)"  x="11" y="9" width="1" height="1" /><rect shape-rendering="crispEdges" fill="rgb(148, 246, 255)"  x="11" y="10" width="1" height="1" /><rect shape-rendering="crispEdges" fill="rgb(74, 172, 246)"  x="11" y="11" width="1" height="1" /><rect shape-rendering="crispEdges" fill="rgb(65, 156, 230)"  x="11" y="12" width="1" height="1" /><rect shape-rendering="crispEdges" fill="rgb(32, 115, 172)"  x="11" y="13" width="1" height="1" /><rect shape-rendering="crispEdges" fill="rgb(24, 82, 123)"  x="11" y="14" width="1" height="1" /><rect shape-rendering="crispEdges" fill="rgb(8, 49, 82)"  x="11" y="15" width="1" height="1" /><rect shape-rendering="crispEdges" fill="rgb(8, 49, 82)"  x="11" y="16" width="1" height="1" /><rect shape-rendering="crispEdges" fill="rgb(8, 41, 82)"  x="11" y="17" width="1" height="1" /><rect shape-rendering="crispEdges" fill="rgb(16, 74, 106)"  x="11" y="18" width="1" height="1" /><rect shape-rendering="crispEdges" fill="rgb(115, 238, 246)"  x="11" y="19" width="1" height="1" /><rect shape-rendering="crispEdges" fill="rgb(106, 238, 255)"  x="11" y="20" width="1" height="1" /><rect shape-rendering="crispEdges" fill="rgb(49, 172, 230)"  x="11" y="21" width="1" height="1" /><rect shape-rendering="crispEdges" fill="rgb(16, 98, 139)"  x="11" y="22" width="1" height="1" /><rect shape-rendering="crispEdges" fill="rgb(8, 74, 115)"  x="11" y="23" width="1" height="1" /><rect shape-rendering="crispEdges" fill="rgb(16, 74, 123)"  x="11" y="24" width="1" height="1" /><rect shape-rendering="crispEdges" fill="rgb(16, 74, 123)"  x="11" y="25" width="1" height="1" /><rect shape-rendering="crispEdges" fill="rgb(16, 65, 131)"  x="11" y="26" width="1" height="1" /><rect shape-rendering="crispEdges" fill="rgb(16, 65, 131)"  x="11" y="27" width="1" height="1" /><rect shape-rendering="crispEdges" fill="rgb(115, 98, 148)"  x="12" y="1" width="1" height="1" /><rect shape-rendering="crispEdges" fill="rgb(230, 213, 255)"  x="12" y="2" width="1" height="1" /><rect shape-rendering="crispEdges" fill="rgb(16, 65, 115)"  x="12" y="3" width="1" height="1" /><rect shape-rendering="crispEdges" fill="rgb(65, 90, 148)"  x="12" y="4" width="1" height="1" /><rect shape-rendering="crispEdges" fill="rgb(90, 82, 156)"  x="12" y="5" width="1" height="1" /><rect shape-rendering="crispEdges" fill="rgb(123, 131, 164)"  x="12" y="6" width="1" height="1" /><rect shape-rendering="crispEdges" fill="rgb(131, 156, 197)"  x="12" y="7" width="1" height="1" /><rect shape-rendering="crispEdges" fill="rgb(0, 57, 106)"  x="12" y="8" width="1" height="1" /><rect shape-rendering="crispEdges" fill="rgb(16, 57, 106)"  x="12" y="9" width="1" height="1" /><rect shape-rendering="crispEdges" fill="rgb(115, 205, 222)"  x="12" y="10" width="1" height="1" /><rect shape-rendering="crispEdges" fill="rgb(106, 238, 255)"  x="12" y="11" width="1" height="1" /><rect shape-rendering="crispEdges" fill="rgb(65, 180, 246)"  x="12" y="12" width="1" height="1" /><rect shape-rendering="crispEdges" fill="rgb(41, 123, 189)"  x="12" y="13" width="1" height="1" /><rect shape-rendering="crispEdges" fill="rgb(24, 82, 123)"  x="12" y="14" width="1" height="1" /><rect shape-rendering="crispEdges" fill="rgb(16, 65, 106)"  x="12" y="15" width="1" height="1" /><rect shape-rendering="crispEdges" fill="rgb(16, 57, 90)"  x="12" y="16" width="1" height="1" /><rect shape-rendering="crispEdges" fill="rgb(16, 49, 90)"  x="12" y="17" width="1" height="1" /><rect shape-rendering="crispEdges" fill="rgb(8, 41, 82)"  x="12" y="18" width="1" height="1" /><rect shape-rendering="crispEdges" fill="rgb(65, 164, 205)"  x="12" y="19" width="1" height="1" /><rect shape-rendering="crispEdges" fill="rgb(148, 255, 255)"  x="12" y="20" width="1" height="1" /><rect shape-rendering="crispEdges" fill="rgb(98, 246, 255)"  x="12" y="21" width="1" height="1" /><rect shape-rendering="crispEdges" fill="rgb(49, 205, 238)"  x="12" y="22" width="1" height="1" /><rect shape-rendering="crispEdges" fill="rgb(16, 131, 156)"  x="12" y="23" width="1" height="1" /><rect shape-rendering="crispEdges" fill="rgb(8, 90, 106)"  x="12" y="24" width="1" height="1" /><rect shape-rendering="crispEdges" fill="rgb(16, 106, 139)"  x="12" y="25" width="1" height="1" /><rect shape-rendering="crispEdges" fill="rgb(16, 115, 164)"  x="12" y="26" width="1" height="1" /><rect shape-rendering="crispEdges" fill="rgb(16, 106, 164)"  x="12" y="27" width="1" height="1" /><rect shape-rendering="crispEdges" fill="rgb(16, 82, 131)"  x="12" y="28" width="1" height="1" /><rect shape-rendering="crispEdges" fill="rgb(8, 57, 82)"  x="12" y="29" width="1" height="1" /><rect shape-rendering="crispEdges" fill="rgb(49, 41, 82)"  x="13" y="1" width="1" height="1" /><rect shape-rendering="crispEdges" fill="rgb(246, 230, 255)"  x="13" y="2" width="1" height="1" /><rect shape-rendering="crispEdges" fill="rgb(123, 123, 189)"  x="13" y="3" width="1" height="1" /><rect shape-rendering="crispEdges" fill="rgb(0, 49, 98)"  x="13" y="4" width="1" height="1" /><rect shape-rendering="crispEdges" fill="rgb(32, 65, 123)"  x="13" y="5" width="1" height="1" /><rect shape-rendering="crispEdges" fill="rgb(164, 156, 213)"  x="13" y="6" width="1" height="1" /><rect shape-rendering="crispEdges" fill="rgb(115, 131, 180)"  x="13" y="7" width="1" height="1" /><rect shape-rendering="crispEdges" fill="rgb(32, 65, 123)"  x="13" y="8" width="1" height="1" /><rect shape-rendering="crispEdges" fill="rgb(8, 57, 106)"  x="13" y="9" width="1" height="1" /><rect shape-rendering="crispEdges" fill="rgb(41, 98, 139)"  x="13" y="10" width="1" height="1" /><rect shape-rendering="crispEdges" fill="rgb(123, 246, 246)"  x="13" y="11" width="1" height="1" /><rect shape-rendering="crispEdges" fill="rgb(90, 238, 255)"  x="13" y="12" width="1" height="1" /><rect shape-rendering="crispEdges" fill="rgb(65, 205, 255)"  x="13" y="13" width="1" height="1" /><rect shape-rendering="crispEdges" fill="rgb(57, 189, 255)"  x="13" y="14" width="1" height="1" /><rect shape-rendering="crispEdges" fill="rgb(41, 164, 230)"  x="13" y="15" width="1" height="1" /><rect shape-rendering="crispEdges" fill="rgb(24, 148, 205)"  x="13" y="16" width="1" height="1" /><rect shape-rendering="crispEdges" fill="rgb(24, 139, 205)"  x="13" y="17" width="1" height="1" /><rect shape-rendering="crispEdges" fill="rgb(16, 139, 197)"  x="13" y="18" width="1" height="1" /><rect shape-rendering="crispEdges" fill="rgb(24, 156, 222)"  x="13" y="19" width="1" height="1" /><rect shape-rendering="crispEdges" fill="rgb(90, 230, 255)"  x="13" y="20" width="1" height="1" /><rect shape-rendering="crispEdges" fill="rgb(98, 255, 255)"  x="13" y="21" width="1" height="1" /><rect shape-rendering="crispEdges" fill="rgb(65, 255, 255)"  x="13" y="22" width="1" height="1" /><rect shape-rendering="crispEdges" fill="rgb(32, 197, 230)"  x="13" y="23" width="1" height="1" /><rect shape-rendering="crispEdges" fill="rgb(24, 139, 172)"  x="13" y="24" width="1" height="1" /><rect shape-rendering="crispEdges" fill="rgb(115, 115, 115)"  x="13" y="25" width="1" height="1" /><rect shape-rendering="crispEdges" fill="rgb(139, 139, 139)"  x="13" y="26" width="1" height="1" /><rect shape-rendering="crispEdges" fill="rgb(131, 131, 131)"  x="13" y="27" width="1" height="1" /><rect shape-rendering="crispEdges" fill="rgb(106, 106, 106)"  x="13" y="28" width="1" height="1" /><rect shape-rendering="crispEdges" fill="rgb(90, 90, 90)"  x="13" y="29" width="1" height="1" /><rect shape-rendering="crispEdges" fill="rgb(82, 82, 82)"  x="13" y="30" width="1" height="1" /><rect shape-rendering="crispEdges" fill="rgb(0, 0, 24)"  x="14" y="1" width="1" height="1" /><rect shape-rendering="crispEdges" fill="rgb(106, 98, 131)"  x="14" y="2" width="1" height="1" /><rect shape-rendering="crispEdges" fill="rgb(238, 205, 255)"  x="14" y="3" width="1" height="1" /><rect shape-rendering="crispEdges" fill="rgb(139, 123, 222)"  x="14" y="4" width="1" height="1" /><rect shape-rendering="crispEdges" fill="rgb(131, 123, 222)"  x="14" y="5" width="1" height="1" /><rect shape-rendering="crispEdges" fill="rgb(148, 139, 230)"  x="14" y="6" width="1" height="1" /><rect shape-rendering="crispEdges" fill="rgb(57, 65, 139)"  x="14" y="7" width="1" height="1" /><rect shape-rendering="crispEdges" fill="rgb(8, 49, 98)"  x="14" y="10" width="1" height="1" /><rect shape-rendering="crispEdges" fill="rgb(57, 156, 180)"  x="14" y="11" width="1" height="1" /><rect shape-rendering="crispEdges" fill="rgb(106, 255, 255)"  x="14" y="12" width="1" height="1" /><rect shape-rendering="crispEdges" fill="rgb(74, 238, 255)"  x="14" y="13" width="1" height="1" /><rect shape-rendering="crispEdges" fill="rgb(57, 222, 255)"  x="14" y="14" width="1" height="1" /><rect shape-rendering="crispEdges" fill="rgb(57, 222, 255)"  x="14" y="15" width="1" height="1" /><rect shape-rendering="crispEdges" fill="rgb(57, 222, 255)"  x="14" y="16" width="1" height="1" /><rect shape-rendering="crispEdges" fill="rgb(41, 222, 255)"  x="14" y="17" width="1" height="1" /><rect shape-rendering="crispEdges" fill="rgb(24, 230, 255)"  x="14" y="18" width="1" height="1" /><rect shape-rendering="crispEdges" fill="rgb(16, 213, 255)"  x="14" y="19" width="1" height="1" /><rect shape-rendering="crispEdges" fill="rgb(57, 230, 255)"  x="14" y="20" width="1" height="1" /><rect shape-rendering="crispEdges" fill="rgb(65, 255, 255)"  x="14" y="21" width="1" height="1" /><rect shape-rendering="crispEdges" fill="rgb(65, 255, 255)"  x="14" y="22" width="1" height="1" /><rect shape-rendering="crispEdges" fill="rgb(32, 222, 238)"  x="14" y="23" width="1" height="1" /><rect shape-rendering="crispEdges" fill="rgb(16, 139, 164)"  x="14" y="24" width="1" height="1" /><rect shape-rendering="crispEdges" fill="rgb(197, 197, 197)"  x="14" y="25" width="1" height="1" /><rect shape-rendering="crispEdges" fill="rgb(222, 222, 222)"  x="14" y="26" width="1" height="1" /><rect shape-rendering="crispEdges" fill="rgb(205, 205, 205)"  x="14" y="27" width="1" height="1" /><rect shape-rendering="crispEdges" fill="rgb(189, 189, 189)"  x="14" y="28" width="1" height="1" /><rect shape-rendering="crispEdges" fill="rgb(164, 164, 164)"  x="14" y="29" width="1" height="1" /><rect shape-rendering="crispEdges" fill="rgb(106, 106, 106)"  x="14" y="30" width="1" height="1" /><rect shape-rendering="crispEdges" fill="rgb(90, 90, 90)"  x="14" y="31" width="1" height="1" /><rect shape-rendering="crispEdges" fill="rgb(0, 0, 24)"  x="15" y="2" width="1" height="1" /><rect shape-rendering="crispEdges" fill="rgb(57, 49, 82)"  x="15" y="3" width="1" height="1" /><rect shape-rendering="crispEdges" fill="rgb(90, 74, 139)"  x="15" y="4" width="1" height="1" /><rect shape-rendering="crispEdges" fill="rgb(74, 74, 148)"  x="15" y="5" width="1" height="1" /><rect shape-rendering="crispEdges" fill="rgb(16, 24, 57)"  x="15" y="6" width="1" height="1" /><rect shape-rendering="crispEdges" fill="rgb(16, 65, 106)"  x="15" y="10" width="1" height="1" /><rect shape-rendering="crispEdges" fill="rgb(16, 65, 115)"  x="15" y="11" width="1" height="1" /><rect shape-rendering="crispEdges" fill="rgb(41, 131, 164)"  x="15" y="12" width="1" height="1" /><rect shape-rendering="crispEdges" fill="rgb(82, 238, 246)"  x="15" y="13" width="1" height="1" /><rect shape-rendering="crispEdges" fill="rgb(65, 255, 255)"  x="15" y="14" width="1" height="1" /><rect shape-rendering="crispEdges" fill="rgb(49, 238, 255)"  x="15" y="15" width="1" height="1" /><rect shape-rendering="crispEdges" fill="rgb(41, 246, 255)"  x="15" y="16" width="1" height="1" /><rect shape-rendering="crispEdges" fill="rgb(41, 246, 255)"  x="15" y="17" width="1" height="1" /><rect shape-rendering="crispEdges" fill="rgb(24, 255, 255)"  x="15" y="18" width="1" height="1" /><rect shape-rendering="crispEdges" fill="rgb(24, 255, 255)"  x="15" y="19" width="1" height="1" /><rect shape-rendering="crispEdges" fill="rgb(32, 238, 255)"  x="15" y="20" width="1" height="1" /><rect shape-rendering="crispEdges" fill="rgb(32, 255, 255)"  x="15" y="21" width="1" height="1" /><rect shape-rendering="crispEdges" fill="rgb(32, 255, 255)"  x="15" y="22" width="1" height="1" /><rect shape-rendering="crispEdges" fill="rgb(24, 238, 246)"  x="15" y="23" width="1" height="1" /><rect shape-rendering="crispEdges" fill="rgb(8, 131, 156)"  x="15" y="24" width="1" height="1" /><rect shape-rendering="crispEdges" fill="rgb(180, 180, 180)"  x="15" y="25" width="1" height="1" /><rect shape-rendering="crispEdges" fill="rgb(255, 255, 255)"  x="15" y="26" width="1" height="1" /><rect shape-rendering="crispEdges" fill="rgb(238, 238, 238)"  x="15" y="27" width="1" height="1" /><rect shape-rendering="crispEdges" fill="rgb(230, 230, 230)"  x="15" y="28" width="1" height="1" /><rect shape-rendering="crispEdges" fill="rgb(222, 222, 222)"  x="15" y="29" width="1" height="1" /><rect shape-rendering="crispEdges" fill="rgb(164, 164, 164)"  x="15" y="30" width="1" height="1" /><rect shape-rendering="crispEdges" fill="rgb(98, 98, 98)"  x="15" y="31" width="1" height="1" /><rect shape-rendering="crispEdges" fill="rgb(8, 65, 106)"  x="16" y="7" width="1" height="1" /><rect shape-rendering="crispEdges" fill="rgb(16, 65, 115)"  x="16" y="8" width="1" height="1" /><rect shape-rendering="crispEdges" fill="rgb(41, 65, 131)"  x="16" y="9" width="1" height="1" /><rect shape-rendering="crispEdges" fill="rgb(16, 57, 106)"  x="16" y="10" width="1" height="1" /><rect shape-rendering="crispEdges" fill="rgb(8, 49, 98)"  x="16" y="12" width="1" height="1" /><rect shape-rendering="crispEdges" fill="rgb(24, 90, 139)"  x="16" y="13" width="1" height="1" /><rect shape-rendering="crispEdges" fill="rgb(49, 180, 213)"  x="16" y="14" width="1" height="1" /><rect shape-rendering="crispEdges" fill="rgb(65, 238, 255)"  x="16" y="15" width="1" height="1" /><rect shape-rendering="crispEdges" fill="rgb(49, 246, 255)"  x="16" y="16" width="1" height="1" /><rect shape-rendering="crispEdges" fill="rgb(32, 246, 255)"  x="16" y="17" width="1" height="1" /><rect shape-rendering="crispEdges" fill="rgb(16, 246, 255)"  x="16" y="18" width="1" height="1" /><rect shape-rendering="crispEdges" fill="rgb(16, 246, 255)"  x="16" y="19" width="1" height="1" /><rect shape-rendering="crispEdges" fill="rgb(24, 255, 255)"  x="16" y="20" width="1" height="1" /><rect shape-rendering="crispEdges" fill="rgb(24, 255, 255)"  x="16" y="21" width="1" height="1" /><rect shape-rendering="crispEdges" fill="rgb(24, 255, 255)"  x="16" y="22" width="1" height="1" /><rect shape-rendering="crispEdges" fill="rgb(16, 255, 255)"  x="16" y="23" width="1" height="1" /><rect shape-rendering="crispEdges" fill="rgb(8, 139, 172)"  x="16" y="24" width="1" height="1" /><rect shape-rendering="crispEdges" fill="rgb(180, 180, 180)"  x="16" y="25" width="1" height="1" /><rect shape-rendering="crispEdges" fill="rgb(255, 255, 255)"  x="16" y="26" width="1" height="1" /><rect shape-rendering="crispEdges" fill="rgb(246, 246, 246)"  x="16" y="27" width="1" height="1" /><rect shape-rendering="crispEdges" fill="rgb(238, 238, 238)"  x="16" y="28" width="1" height="1" /><rect shape-rendering="crispEdges" fill="rgb(238, 238, 238)"  x="16" y="29" width="1" height="1" /><rect shape-rendering="crispEdges" fill="rgb(189, 189, 189)"  x="16" y="30" width="1" height="1" /><rect shape-rendering="crispEdges" fill="rgb(115, 115, 115)"  x="16" y="31" width="1" height="1" /><rect shape-rendering="crispEdges" fill="rgb(8, 65, 115)"  x="17" y="6" width="1" height="1" /><rect shape-rendering="crispEdges" fill="rgb(24, 74, 131)"  x="17" y="7" width="1" height="1" /><rect shape-rendering="crispEdges" fill="rgb(98, 115, 205)"  x="17" y="8" width="1" height="1" /><rect shape-rendering="crispEdges" fill="rgb(106, 123, 213)"  x="17" y="9" width="1" height="1" /><rect shape-rendering="crispEdges" fill="rgb(41, 90, 156)"  x="17" y="10" width="1" height="1" /><rect shape-rendering="crispEdges" fill="rgb(8, 57, 106)"  x="17" y="11" width="1" height="1" /><rect shape-rendering="crispEdges" fill="rgb(16, 57, 106)"  x="17" y="14" width="1" height="1" /><rect shape-rendering="crispEdges" fill="rgb(32, 115, 172)"  x="17" y="15" width="1" height="1" /><rect shape-rendering="crispEdges" fill="rgb(49, 180, 246)"  x="17" y="16" width="1" height="1" /><rect shape-rendering="crispEdges" fill="rgb(32, 213, 246)"  x="17" y="17" width="1" height="1" /><rect shape-rendering="crispEdges" fill="rgb(24, 246, 255)"  x="17" y="18" width="1" height="1" /><rect shape-rendering="crispEdges" fill="rgb(24, 255, 255)"  x="17" y="19" width="1" height="1" /><rect shape-rendering="crispEdges" fill="rgb(32, 255, 255)"  x="17" y="20" width="1" height="1" /><rect shape-rendering="crispEdges" fill="rgb(32, 255, 255)"  x="17" y="21" width="1" height="1" /><rect shape-rendering="crispEdges" fill="rgb(24, 255, 255)"  x="17" y="22" width="1" height="1" /><rect shape-rendering="crispEdges" fill="rgb(16, 255, 255)"  x="17" y="23" width="1" height="1" /><rect shape-rendering="crispEdges" fill="rgb(8, 148, 172)"  x="17" y="24" width="1" height="1" /><rect shape-rendering="crispEdges" fill="rgb(180, 180, 180)"  x="17" y="25" width="1" height="1" /><rect shape-rendering="crispEdges" fill="rgb(255, 255, 255)"  x="17" y="26" width="1" height="1" /><rect shape-rendering="crispEdges" fill="rgb(246, 246, 246)"  x="17" y="27" width="1" height="1" /><rect shape-rendering="crispEdges" fill="rgb(230, 230, 230)"  x="17" y="28" width="1" height="1" /><rect shape-rendering="crispEdges" fill="rgb(230, 230, 230)"  x="17" y="29" width="1" height="1" /><rect shape-rendering="crispEdges" fill="rgb(172, 172, 172)"  x="17" y="30" width="1" height="1" /><rect shape-rendering="crispEdges" fill="rgb(106, 106, 106)"  x="17" y="31" width="1" height="1" /><rect shape-rendering="crispEdges" fill="rgb(8, 65, 106)"  x="18" y="6" width="1" height="1" /><rect shape-rendering="crispEdges" fill="rgb(131, 156, 230)"  x="18" y="7" width="1" height="1" /><rect shape-rendering="crispEdges" fill="rgb(123, 131, 222)"  x="18" y="8" width="1" height="1" /><rect shape-rendering="crispEdges" fill="rgb(49, 82, 148)"  x="18" y="9" width="1" height="1" /><rect shape-rendering="crispEdges" fill="rgb(57, 139, 197)"  x="18" y="10" width="1" height="1" /><rect shape-rendering="crispEdges" fill="rgb(32, 98, 148)"  x="18" y="11" width="1" height="1" /><rect shape-rendering="crispEdges" fill="rgb(16, 57, 106)"  x="18" y="13" width="1" height="1" /><rect shape-rendering="crispEdges" fill="rgb(16, 74, 123)"  x="18" y="14" width="1" height="1" /><rect shape-rendering="crispEdges" fill="rgb(65, 164, 222)"  x="18" y="15" width="1" height="1" /><rect shape-rendering="crispEdges" fill="rgb(57, 205, 255)"  x="18" y="16" width="1" height="1" /><rect shape-rendering="crispEdges" fill="rgb(41, 230, 255)"  x="18" y="17" width="1" height="1" /><rect shape-rendering="crispEdges" fill="rgb(32, 255, 255)"  x="18" y="18" width="1" height="1" /><rect shape-rendering="crispEdges" fill="rgb(24, 255, 255)"  x="18" y="19" width="1" height="1" /><rect shape-rendering="crispEdges" fill="rgb(24, 255, 255)"  x="18" y="20" width="1" height="1" /><rect shape-rendering="crispEdges" fill="rgb(24, 255, 255)"  x="18" y="21" width="1" height="1" /><rect shape-rendering="crispEdges" fill="rgb(24, 255, 255)"  x="18" y="22" width="1" height="1" /><rect shape-rendering="crispEdges" fill="rgb(16, 246, 255)"  x="18" y="23" width="1" height="1" /><rect shape-rendering="crispEdges" fill="rgb(16, 148, 180)"  x="18" y="24" width="1" height="1" /><rect shape-rendering="crispEdges" fill="rgb(180, 180, 180)"  x="18" y="25" width="1" height="1" /><rect shape-rendering="crispEdges" fill="rgb(238, 238, 238)"  x="18" y="26" width="1" height="1" /><rect shape-rendering="crispEdges" fill="rgb(213, 213, 213)"  x="18" y="27" width="1" height="1" /><rect shape-rendering="crispEdges" fill="rgb(205, 205, 205)"  x="18" y="28" width="1" height="1" /><rect shape-rendering="crispEdges" fill="rgb(189, 189, 189)"  x="18" y="29" width="1" height="1" /><rect shape-rendering="crispEdges" fill="rgb(123, 123, 123)"  x="18" y="30" width="1" height="1" /><rect shape-rendering="crispEdges" fill="rgb(90, 90, 90)"  x="18" y="31" width="1" height="1" /><rect shape-rendering="crispEdges" fill="rgb(65, 106, 148)"  x="19" y="6" width="1" height="1" /><rect shape-rendering="crispEdges" fill="rgb(180, 189, 246)"  x="19" y="7" width="1" height="1" /><rect shape-rendering="crispEdges" fill="rgb(16, 65, 123)"  x="19" y="8" width="1" height="1" /><rect shape-rendering="crispEdges" fill="rgb(8, 57, 98)"  x="19" y="9" width="1" height="1" /><rect shape-rendering="crispEdges" fill="rgb(49, 148, 189)"  x="19" y="10" width="1" height="1" /><rect shape-rendering="crispEdges" fill="rgb(57, 131, 164)"  x="19" y="11" width="1" height="1" /><rect shape-rendering="crispEdges" fill="rgb(8, 49, 98)"  x="19" y="12" width="1" height="1" /><rect shape-rendering="crispEdges" fill="rgb(16, 74, 123)"  x="19" y="13" width="1" height="1" /><rect shape-rendering="crispEdges" fill="rgb(90, 189, 230)"  x="19" y="14" width="1" height="1" /><rect shape-rendering="crispEdges" fill="rgb(90, 230, 255)"  x="19" y="15" width="1" height="1" /><rect shape-rendering="crispEdges" fill="rgb(65, 230, 255)"  x="19" y="16" width="1" height="1" /><rect shape-rendering="crispEdges" fill="rgb(49, 238, 255)"  x="19" y="17" width="1" height="1" /><rect shape-rendering="crispEdges" fill="rgb(41, 238, 255)"  x="19" y="18" width="1" height="1" /><rect shape-rendering="crispEdges" fill="rgb(32, 246, 255)"  x="19" y="19" width="1" height="1" /><rect shape-rendering="crispEdges" fill="rgb(24, 255, 255)"  x="19" y="20" width="1" height="1" /><rect shape-rendering="crispEdges" fill="rgb(16, 255, 255)"  x="19" y="21" width="1" height="1" /><rect shape-rendering="crispEdges" fill="rgb(24, 255, 255)"  x="19" y="22" width="1" height="1" /><rect shape-rendering="crispEdges" fill="rgb(16, 246, 255)"  x="19" y="23" width="1" height="1" /><rect shape-rendering="crispEdges" fill="rgb(16, 172, 222)"  x="19" y="24" width="1" height="1" /><rect shape-rendering="crispEdges" fill="rgb(148, 148, 148)"  x="19" y="25" width="1" height="1" /><rect shape-rendering="crispEdges" fill="rgb(164, 164, 164)"  x="19" y="26" width="1" height="1" /><rect shape-rendering="crispEdges" fill="rgb(148, 148, 148)"  x="19" y="27" width="1" height="1" /><rect shape-rendering="crispEdges" fill="rgb(131, 131, 131)"  x="19" y="28" width="1" height="1" /><rect shape-rendering="crispEdges" fill="rgb(106, 106, 106)"  x="19" y="29" width="1" height="1" /><rect shape-rendering="crispEdges" fill="rgb(82, 82, 82)"  x="19" y="30" width="1" height="1" /><rect shape-rendering="crispEdges" fill="rgb(82, 123, 156)"  x="20" y="6" width="1" height="1" /><rect shape-rendering="crispEdges" fill="rgb(189, 197, 230)"  x="20" y="7" width="1" height="1" /><rect shape-rendering="crispEdges" fill="rgb(0, 49, 98)"  x="20" y="8" width="1" height="1" /><rect shape-rendering="crispEdges" fill="rgb(16, 74, 123)"  x="20" y="9" width="1" height="1" /><rect shape-rendering="crispEdges" fill="rgb(41, 131, 180)"  x="20" y="10" width="1" height="1" /><rect shape-rendering="crispEdges" fill="rgb(24, 74, 123)"  x="20" y="11" width="1" height="1" /><rect shape-rendering="crispEdges" fill="rgb(16, 65, 123)"  x="20" y="12" width="1" height="1" /><rect shape-rendering="crispEdges" fill="rgb(98, 197, 230)"  x="20" y="13" width="1" height="1" /><rect shape-rendering="crispEdges" fill="rgb(115, 246, 255)"  x="20" y="14" width="1" height="1" /><rect shape-rendering="crispEdges" fill="rgb(98, 238, 255)"  x="20" y="15" width="1" height="1" /><rect shape-rendering="crispEdges" fill="rgb(57, 205, 246)"  x="20" y="16" width="1" height="1" /><rect shape-rendering="crispEdges" fill="rgb(41, 189, 246)"  x="20" y="17" width="1" height="1" /><rect shape-rendering="crispEdges" fill="rgb(32, 172, 238)"  x="20" y="18" width="1" height="1" /><rect shape-rendering="crispEdges" fill="rgb(41, 197, 246)"  x="20" y="19" width="1" height="1" /><rect shape-rendering="crispEdges" fill="rgb(41, 246, 255)"  x="20" y="20" width="1" height="1" /><rect shape-rendering="crispEdges" fill="rgb(41, 255, 255)"  x="20" y="21" width="1" height="1" /><rect shape-rendering="crispEdges" fill="rgb(41, 255, 255)"  x="20" y="22" width="1" height="1" /><rect shape-rendering="crispEdges" fill="rgb(24, 238, 255)"  x="20" y="23" width="1" height="1" /><rect shape-rendering="crispEdges" fill="rgb(16, 156, 197)"  x="20" y="24" width="1" height="1" /><rect shape-rendering="crispEdges" fill="rgb(32, 139, 205)"  x="20" y="25" width="1" height="1" /><rect shape-rendering="crispEdges" fill="rgb(41, 164, 222)"  x="20" y="26" width="1" height="1" /><rect shape-rendering="crispEdges" fill="rgb(32, 172, 213)"  x="20" y="27" width="1" height="1" /><rect shape-rendering="crispEdges" fill="rgb(16, 148, 189)"  x="20" y="28" width="1" height="1" /><rect shape-rendering="crispEdges" fill="rgb(8, 90, 131)"  x="20" y="29" width="1" height="1" /><rect shape-rendering="crispEdges" fill="rgb(41, 98, 139)"  x="21" y="6" width="1" height="1" /><rect shape-rendering="crispEdges" fill="rgb(205, 222, 255)"  x="21" y="7" width="1" height="1" /><rect shape-rendering="crispEdges" fill="rgb(74, 106, 180)"  x="21" y="8" width="1" height="1" /><rect shape-rendering="crispEdges" fill="rgb(8, 57, 106)"  x="21" y="9" width="1" height="1" /><rect shape-rendering="crispEdges" fill="rgb(8, 49, 98)"  x="21" y="10" width="1" height="1" /><rect shape-rendering="crispEdges" fill="rgb(16, 74, 123)"  x="21" y="11" width="1" height="1" /><rect shape-rendering="crispEdges" fill="rgb(65, 172, 222)"  x="21" y="12" width="1" height="1" /><rect shape-rendering="crispEdges" fill="rgb(106, 222, 246)"  x="21" y="13" width="1" height="1" /><rect shape-rendering="crispEdges" fill="rgb(90, 189, 230)"  x="21" y="14" width="1" height="1" /><rect shape-rendering="crispEdges" fill="rgb(49, 131, 180)"  x="21" y="15" width="1" height="1" /><rect shape-rendering="crispEdges" fill="rgb(16, 82, 139)"  x="21" y="16" width="1" height="1" /><rect shape-rendering="crispEdges" fill="rgb(16, 74, 139)"  x="21" y="17" width="1" height="1" /><rect shape-rendering="crispEdges" fill="rgb(32, 106, 172)"  x="21" y="18" width="1" height="1" /><rect shape-rendering="crispEdges" fill="rgb(57, 213, 255)"  x="21" y="19" width="1" height="1" /><rect shape-rendering="crispEdges" fill="rgb(57, 230, 255)"  x="21" y="20" width="1" height="1" /><rect shape-rendering="crispEdges" fill="rgb(57, 230, 255)"  x="21" y="21" width="1" height="1" /><rect shape-rendering="crispEdges" fill="rgb(41, 222, 255)"  x="21" y="22" width="1" height="1" /><rect shape-rendering="crispEdges" fill="rgb(24, 172, 230)"  x="21" y="23" width="1" height="1" /><rect shape-rendering="crispEdges" fill="rgb(8, 115, 156)"  x="21" y="24" width="1" height="1" /><rect shape-rendering="crispEdges" fill="rgb(8, 90, 131)"  x="21" y="25" width="1" height="1" /><rect shape-rendering="crispEdges" fill="rgb(16, 74, 131)"  x="21" y="26" width="1" height="1" /><rect shape-rendering="crispEdges" fill="rgb(16, 74, 131)"  x="21" y="27" width="1" height="1" /><rect shape-rendering="crispEdges" fill="rgb(16, 65, 123)"  x="21" y="28" width="1" height="1" /><rect shape-rendering="crispEdges" fill="rgb(8, 57, 106)"  x="22" y="6" width="1" height="1" /><rect shape-rendering="crispEdges" fill="rgb(90, 131, 180)"  x="22" y="7" width="1" height="1" /><rect shape-rendering="crispEdges" fill="rgb(172, 189, 255)"  x="22" y="8" width="1" height="1" /><rect shape-rendering="crispEdges" fill="rgb(74, 139, 222)"  x="22" y="9" width="1" height="1" /><rect shape-rendering="crispEdges" fill="rgb(32, 139, 205)"  x="22" y="10" width="1" height="1" /><rect shape-rendering="crispEdges" fill="rgb(49, 172, 230)"  x="22" y="11" width="1" height="1" /><rect shape-rendering="crispEdges" fill="rgb(32, 115, 172)"  x="22" y="12" width="1" height="1" /><rect shape-rendering="crispEdges" fill="rgb(24, 123, 189)"  x="22" y="13" width="1" height="1" /><rect shape-rendering="crispEdges" fill="rgb(24, 115, 189)"  x="22" y="14" width="1" height="1" /><rect shape-rendering="crispEdges" fill="rgb(16, 65, 131)"  x="22" y="15" width="1" height="1" /><rect shape-rendering="crispEdges" fill="rgb(16, 65, 131)"  x="22" y="16" width="1" height="1" /><rect shape-rendering="crispEdges" fill="rgb(16, 74, 139)"  x="22" y="17" width="1" height="1" /><rect shape-rendering="crispEdges" fill="rgb(74, 205, 230)"  x="22" y="18" width="1" height="1" /><rect shape-rendering="crispEdges" fill="rgb(98, 246, 255)"  x="22" y="19" width="1" height="1" /><rect shape-rendering="crispEdges" fill="rgb(74, 213, 255)"  x="22" y="20" width="1" height="1" /><rect shape-rendering="crispEdges" fill="rgb(49, 164, 230)"  x="22" y="21" width="1" height="1" /><rect shape-rendering="crispEdges" fill="rgb(24, 106, 172)"  x="22" y="22" width="1" height="1" /><rect shape-rendering="crispEdges" fill="rgb(16, 74, 131)"  x="22" y="23" width="1" height="1" /><rect shape-rendering="crispEdges" fill="rgb(16, 74, 131)"  x="22" y="24" width="1" height="1" /><rect shape-rendering="crispEdges" fill="rgb(16, 74, 131)"  x="22" y="25" width="1" height="1" /><rect shape-rendering="crispEdges" fill="rgb(16, 74, 131)"  x="22" y="26" width="1" height="1" /><rect shape-rendering="crispEdges" fill="rgb(8, 57, 106)"  x="23" y="7" width="1" height="1" /><rect shape-rendering="crispEdges" fill="rgb(90, 123, 172)"  x="23" y="8" width="1" height="1" /><rect shape-rendering="crispEdges" fill="rgb(82, 148, 205)"  x="23" y="9" width="1" height="1" /><rect shape-rendering="crispEdges" fill="rgb(41, 164, 230)"  x="23" y="10" width="1" height="1" /><rect shape-rendering="crispEdges" fill="rgb(24, 106, 164)"  x="23" y="11" width="1" height="1" /><rect shape-rendering="crispEdges" fill="rgb(41, 148, 205)"  x="23" y="12" width="1" height="1" /><rect shape-rendering="crispEdges" fill="rgb(24, 131, 205)"  x="23" y="13" width="1" height="1" /><rect shape-rendering="crispEdges" fill="rgb(24, 123, 197)"  x="23" y="14" width="1" height="1" /><rect shape-rendering="crispEdges" fill="rgb(32, 123, 180)"  x="23" y="15" width="1" height="1" /><rect shape-rendering="crispEdges" fill="rgb(8, 57, 123)"  x="23" y="16" width="1" height="1" /><rect shape-rendering="crispEdges" fill="rgb(65, 156, 197)"  x="23" y="17" width="1" height="1" /><rect shape-rendering="crispEdges" fill="rgb(139, 255, 255)"  x="23" y="18" width="1" height="1" /><rect shape-rendering="crispEdges" fill="rgb(90, 189, 230)"  x="23" y="19" width="1" height="1" /><rect shape-rendering="crispEdges" fill="rgb(32, 106, 172)"  x="23" y="20" width="1" height="1" /><rect shape-rendering="crispEdges" fill="rgb(16, 74, 131)"  x="23" y="21" width="1" height="1" /><rect shape-rendering="crispEdges" fill="rgb(16, 65, 123)"  x="23" y="22" width="1" height="1" /><rect shape-rendering="crispEdges" fill="rgb(16, 74, 131)"  x="23" y="23" width="1" height="1" /><rect shape-rendering="crispEdges" fill="rgb(16, 65, 115)"  x="24" y="7" width="1" height="1" /><rect shape-rendering="crispEdges" fill="rgb(8, 57, 98)"  x="24" y="8" width="1" height="1" /><rect shape-rendering="crispEdges" fill="rgb(16, 74, 123)"  x="24" y="9" width="1" height="1" /><rect shape-rendering="crispEdges" fill="rgb(16, 90, 156)"  x="24" y="10" width="1" height="1" /><rect shape-rendering="crispEdges" fill="rgb(32, 90, 148)"  x="24" y="11" width="1" height="1" /><rect shape-rendering="crispEdges" fill="rgb(82, 189, 238)"  x="24" y="12" width="1" height="1" /><rect shape-rendering="crispEdges" fill="rgb(8, 57, 106)"  x="24" y="13" width="1" height="1" /><rect shape-rendering="crispEdges" fill="rgb(24, 98, 139)"  x="24" y="14" width="1" height="1" /><rect shape-rendering="crispEdges" fill="rgb(41, 123, 180)"  x="24" y="15" width="1" height="1" /><rect shape-rendering="crispEdges" fill="rgb(16, 74, 131)"  x="24" y="16" width="1" height="1" /><rect shape-rendering="crispEdges" fill="rgb(123, 230, 246)"  x="24" y="17" width="1" height="1" /><rect shape-rendering="crispEdges" fill="rgb(106, 180, 222)"  x="24" y="18" width="1" height="1" /><rect shape-rendering="crispEdges" fill="rgb(16, 74, 139)"  x="24" y="19" width="1" height="1" /><rect shape-rendering="crispEdges" fill="rgb(8, 65, 123)"  x="24" y="20" width="1" height="1" /><rect shape-rendering="crispEdges" fill="rgb(32, 90, 148)"  x="25" y="11" width="1" height="1" /><rect shape-rendering="crispEdges" fill="rgb(98, 205, 230)"  x="25" y="12" width="1" height="1" /><rect shape-rendering="crispEdges" fill="rgb(16, 82, 139)"  x="25" y="13" width="1" height="1" /><rect shape-rendering="crispEdges" fill="rgb(32, 106, 156)"  x="25" y="14" width="1" height="1" /><rect shape-rendering="crispEdges" fill="rgb(24, 98, 164)"  x="25" y="15" width="1" height="1" /><rect shape-rendering="crispEdges" fill="rgb(65, 156, 213)"  x="25" y="16" width="1" height="1" /><rect shape-rendering="crispEdges" fill="rgb(82, 172, 222)"  x="25" y="17" width="1" height="1" /><rect shape-rendering="crispEdges" fill="rgb(16, 74, 131)"  x="25" y="18" width="1" height="1" /><rect shape-rendering="crispEdges" fill="rgb(16, 74, 131)"  x="25" y="19" width="1" height="1" /><rect shape-rendering="crispEdges" fill="rgb(8, 65, 131)"  x="26" y="11" width="1" height="1" /><rect shape-rendering="crispEdges" fill="rgb(57, 148, 189)"  x="26" y="12" width="1" height="1" /><rect shape-rendering="crispEdges" fill="rgb(57, 189, 238)"  x="26" y="13" width="1" height="1" /><rect shape-rendering="crispEdges" fill="rgb(24, 123, 180)"  x="26" y="14" width="1" height="1" /><rect shape-rendering="crispEdges" fill="rgb(32, 156, 213)"  x="26" y="15" width="1" height="1" /><rect shape-rendering="crispEdges" fill="rgb(49, 164, 230)"  x="26" y="16" width="1" height="1" /><rect shape-rendering="crispEdges" fill="rgb(16, 74, 139)"  x="26" y="17" width="1" height="1" /><rect shape-rendering="crispEdges" fill="rgb(16, 74, 131)"  x="26" y="18" width="1" height="1" /><rect shape-rendering="crispEdges" fill="rgb(16, 65, 131)"  x="27" y="12" width="1" height="1" /><rect shape-rendering="crispEdges" fill="rgb(24, 98, 156)"  x="27" y="13" width="1" height="1" /><rect shape-rendering="crispEdges" fill="rgb(32, 148, 205)"  x="27" y="14" width="1" height="1" /><rect shape-rendering="crispEdges" fill="rgb(24, 123, 189)"  x="27" y="15" width="1" height="1" /><rect shape-rendering="crispEdges" fill="rgb(16, 74, 139)"  x="27" y="16" width="1" height="1" /><rect shape-rendering="crispEdges" fill="rgb(16, 74, 131)"  x="27" y="17" width="1" height="1" /></svg>