<svg xmlns="http://www.w3.org/2000/svg" xmlns:xlink= "http://www.w3.org/1999/xlink" width="32" height="32" viewBox ="0 0 32 32"><rect shape-rendering="crispEdges" fill="rgb(90, 16, 65)"  x="1" y="15" width="1" height="1" /><rect shape-rendering="crispEdges" fill="rgb(98, 16, 65)"  x="1" y="16" width="1" height="1" /><rect shape-rendering="crispEdges" fill="rgb(90, 8, 49)"  x="1" y="17" width="1" height="1" /><rect shape-rendering="crispEdges" fill="rgb(74, 8, 41)"  x="1" y="18" width="1" height="1" /><rect shape-rendering="crispEdges" fill="rgb(74, 8, 32)"  x="1" y="19" width="1" height="1" /><rect shape-rendering="crispEdges" fill="rgb(57, 8, 16)"  x="1" y="20" width="1" height="1" /><rect shape-rendering="crispEdges" fill="rgb(98, 16, 65)"  x="2" y="14" width="1" height="1" /><rect shape-rendering="crispEdges" fill="rgb(172, 49, 115)"  x="2" y="15" width="1" height="1" /><rect shape-rendering="crispEdges" fill="rgb(139, 32, 90)"  x="2" y="16" width="1" height="1" /><rect shape-rendering="crispEdges" fill="rgb(106, 24, 65)"  x="2" y="17" width="1" height="1" /><rect shape-rendering="crispEdges" fill="rgb(98, 8, 57)"  x="2" y="18" width="1" height="1" /><rect shape-rendering="crispEdges" fill="rgb(82, 8, 41)"  x="2" y="19" width="1" height="1" /><rect shape-rendering="crispEdges" fill="rgb(65, 16, 16)"  x="2" y="20" width="1" height="1" /><rect shape-rendering="crispEdges" fill="rgb(49, 8, 8)"  x="2" y="21" width="1" height="1" /><rect shape-rendering="crispEdges" fill="rgb(82, 16, 57)"  x="3" y="13" width="1" height="1" /><rect shape-rendering="crispEdges" fill="rgb(180, 57, 115)"  x="3" y="14" width="1" height="1" /><rect shape-rendering="crispEdges" fill="rgb(164, 57, 115)"  x="3" y="15" width="1" height="1" /><rect shape-rendering="crispEdges" fill="rgb(139, 32, 90)"  x="3" y="16" width="1" height="1" /><rect shape-rendering="crispEdges" fill="rgb(106, 24, 65)"  x="3" y="17" width="1" height="1" /><rect shape-rendering="crispEdges" fill="rgb(98, 8, 57)"  x="3" y="18" width="1" height="1" /><rect shape-rendering="crispEdges" fill="rgb(74, 8, 32)"  x="3" y="19" width="1" height="1" /><rect shape-rendering="crispEdges" fill="rgb(65, 16, 16)"  x="3" y="20" width="1" height="1" /><rect shape-rendering="crispEdges" fill="rgb(49, 8, 8)"  x="3" y="21" width="1" height="1" /><rect shape-rendering="crispEdges" fill="rgb(123, 8, 106)"  x="4" y="12" width="1" height="1" /><rect shape-rendering="crispEdges" fill="rgb(180, 49, 115)"  x="4" y="13" width="1" height="1" /><rect shape-rendering="crispEdges" fill="rgb(164, 49, 106)"  x="4" y="14" width="1" height="1" /><rect shape-rendering="crispEdges" fill="rgb(164, 57, 115)"  x="4" y="15" width="1" height="1" /><rect shape-rendering="crispEdges" fill="rgb(148, 41, 98)"  x="4" y="16" width="1" height="1" /><rect shape-rendering="crispEdges" fill="rgb(115, 24, 65)"  x="4" y="17" width="1" height="1" /><rect shape-rendering="crispEdges" fill="rgb(98, 8, 57)"  x="4" y="18" width="1" height="1" /><rect shape-rendering="crispEdges" fill="rgb(74, 8, 41)"  x="4" y="19" width="1" height="1" /><rect shape-rendering="crispEdges" fill="rgb(65, 16, 24)"  x="4" y="20" width="1" height="1" /><rect shape-rendering="crispEdges" fill="rgb(57, 8, 8)"  x="4" y="21" width="1" height="1" /><rect shape-rendering="crispEdges" fill="rgb(123, 8, 106)"  x="5" y="11" width="1" height="1" /><rect shape-rendering="crispEdges" fill="rgb(180, 65, 131)"  x="5" y="12" width="1" height="1" /><rect shape-rendering="crispEdges" fill="rgb(164, 49, 106)"  x="5" y="13" width="1" height="1" /><rect shape-rendering="crispEdges" fill="rgb(156, 41, 98)"  x="5" y="14" width="1" height="1" /><rect shape-rendering="crispEdges" fill="rgb(156, 49, 106)"  x="5" y="15" width="1" height="1" /><rect shape-rendering="crispEdges" fill="rgb(148, 41, 98)"  x="5" y="16" width="1" height="1" /><rect shape-rendering="crispEdges" fill="rgb(106, 24, 74)"  x="5" y="17" width="1" height="1" /><rect shape-rendering="crispEdges" fill="rgb(98, 16, 57)"  x="5" y="18" width="1" height="1" /><rect shape-rendering="crispEdges" fill="rgb(74, 8, 41)"  x="5" y="19" width="1" height="1" /><rect shape-rendering="crispEdges" fill="rgb(65, 8, 24)"  x="5" y="20" width="1" height="1" /><rect shape-rendering="crispEdges" fill="rgb(57, 8, 8)"  x="5" y="21" width="1" height="1" /><rect shape-rendering="crispEdges" fill="rgb(90, 0, 82)"  x="6" y="10" width="1" height="1" /><rect shape-rendering="crispEdges" fill="rgb(106, 24, 74)"  x="6" y="11" width="1" height="1" /><rect shape-rendering="crispEdges" fill="rgb(131, 49, 98)"  x="6" y="12" width="1" height="1" /><rect shape-rendering="crispEdges" fill="rgb(180, 65, 123)"  x="6" y="13" width="1" height="1" /><rect shape-rendering="crispEdges" fill="rgb(148, 41, 98)"  x="6" y="14" width="1" height="1" /><rect shape-rendering="crispEdges" fill="rgb(156, 41, 98)"  x="6" y="15" width="1" height="1" /><rect shape-rendering="crispEdges" fill="rgb(139, 32, 90)"  x="6" y="16" width="1" height="1" /><rect shape-rendering="crispEdges" fill="rgb(106, 24, 65)"  x="6" y="17" width="1" height="1" /><rect shape-rendering="crispEdges" fill="rgb(98, 8, 57)"  x="6" y="18" width="1" height="1" /><rect shape-rendering="crispEdges" fill="rgb(74, 8, 41)"  x="6" y="19" width="1" height="1" /><rect shape-rendering="crispEdges" fill="rgb(65, 8, 24)"  x="6" y="20" width="1" height="1" /><rect shape-rendering="crispEdges" fill="rgb(49, 8, 8)"  x="6" y="21" width="1" height="1" /><rect shape-rendering="crispEdges" fill="rgb(65, 16, 57)"  x="7" y="9" width="1" height="1" /><rect shape-rendering="crispEdges" fill="rgb(123, 41, 90)"  x="7" y="10" width="1" height="1" /><rect shape-rendering="crispEdges" fill="rgb(90, 24, 57)"  x="7" y="11" width="1" height="1" /><rect shape-rendering="crispEdges" fill="rgb(98, 24, 74)"  x="7" y="12" width="1" height="1" /><rect shape-rendering="crispEdges" fill="rgb(164, 57, 115)"  x="7" y="13" width="1" height="1" /><rect shape-rendering="crispEdges" fill="rgb(172, 57, 115)"  x="7" y="14" width="1" height="1" /><rect shape-rendering="crispEdges" fill="rgb(148, 41, 98)"  x="7" y="15" width="1" height="1" /><rect shape-rendering="crispEdges" fill="rgb(139, 32, 90)"  x="7" y="16" width="1" height="1" /><rect shape-rendering="crispEdges" fill="rgb(106, 24, 65)"  x="7" y="17" width="1" height="1" /><rect shape-rendering="crispEdges" fill="rgb(98, 8, 57)"  x="7" y="18" width="1" height="1" /><rect shape-rendering="crispEdges" fill="rgb(82, 8, 49)"  x="7" y="19" width="1" height="1" /><rect shape-rendering="crispEdges" fill="rgb(65, 8, 16)"  x="7" y="20" width="1" height="1" /><rect shape-rendering="crispEdges" fill="rgb(49, 8, 8)"  x="7" y="21" width="1" height="1" /><rect shape-rendering="crispEdges" fill="rgb(82, 8, 74)"  x="8" y="7" width="1" height="1" /><rect shape-rendering="crispEdges" fill="rgb(106, 32, 74)"  x="8" y="8" width="1" height="1" /><rect shape-rendering="crispEdges" fill="rgb(106, 32, 74)"  x="8" y="9" width="1" height="1" /><rect shape-rendering="crispEdges" fill="rgb(82, 24, 41)"  x="8" y="10" width="1" height="1" /><rect shape-rendering="crispEdges" fill="rgb(98, 24, 57)"  x="8" y="11" width="1" height="1" /><rect shape-rendering="crispEdges" fill="rgb(90, 16, 65)"  x="8" y="12" width="1" height="1" /><rect shape-rendering="crispEdges" fill="rgb(98, 32, 74)"  x="8" y="13" width="1" height="1" /><rect shape-rendering="crispEdges" fill="rgb(172, 65, 123)"  x="8" y="14" width="1" height="1" /><rect shape-rendering="crispEdges" fill="rgb(172, 57, 115)"  x="8" y="15" width="1" height="1" /><rect shape-rendering="crispEdges" fill="rgb(131, 32, 90)"  x="8" y="16" width="1" height="1" /><rect shape-rendering="crispEdges" fill="rgb(106, 24, 65)"  x="8" y="17" width="1" height="1" /><rect shape-rendering="crispEdges" fill="rgb(98, 8, 57)"  x="8" y="18" width="1" height="1" /><rect shape-rendering="crispEdges" fill="rgb(74, 8, 41)"  x="8" y="19" width="1" height="1" /><rect shape-rendering="crispEdges" fill="rgb(57, 8, 16)"  x="8" y="20" width="1" height="1" /><rect shape-rendering="crispEdges" fill="rgb(49, 8, 8)"  x="8" y="21" width="1" height="1" /><rect shape-rendering="crispEdges" fill="rgb(90, 8, 74)"  x="9" y="5" width="1" height="1" /><rect shape-rendering="crispEdges" fill="rgb(90, 24, 57)"  x="9" y="6" width="1" height="1" /><rect shape-rendering="crispEdges" fill="rgb(115, 32, 65)"  x="9" y="7" width="1" height="1" /><rect shape-rendering="crispEdges" fill="rgb(82, 16, 41)"  x="9" y="8" width="1" height="1" /><rect shape-rendering="crispEdges" fill="rgb(90, 32, 57)"  x="9" y="9" width="1" height="1" /><rect shape-rendering="crispEdges" fill="rgb(90, 24, 65)"  x="9" y="10" width="1" height="1" /><rect shape-rendering="crispEdges" fill="rgb(98, 32, 74)"  x="9" y="11" width="1" height="1" /><rect shape-rendering="crispEdges" fill="rgb(98, 24, 65)"  x="9" y="12" width="1" height="1" /><rect shape-rendering="crispEdges" fill="rgb(90, 16, 57)"  x="9" y="13" width="1" height="1" /><rect shape-rendering="crispEdges" fill="rgb(156, 49, 106)"  x="9" y="14" width="1" height="1" /><rect shape-rendering="crispEdges" fill="rgb(172, 57, 115)"  x="9" y="15" width="1" height="1" /><rect shape-rendering="crispEdges" fill="rgb(131, 32, 82)"  x="9" y="16" width="1" height="1" /><rect shape-rendering="crispEdges" fill="rgb(106, 16, 65)"  x="9" y="17" width="1" height="1" /><rect shape-rendering="crispEdges" fill="rgb(90, 8, 57)"  x="9" y="18" width="1" height="1" /><rect shape-rendering="crispEdges" fill="rgb(74, 8, 41)"  x="9" y="19" width="1" height="1" /><rect shape-rendering="crispEdges" fill="rgb(57, 8, 16)"  x="9" y="20" width="1" height="1" /><rect shape-rendering="crispEdges" fill="rgb(41, 8, 8)"  x="9" y="21" width="1" height="1" /><rect shape-rendering="crispEdges" fill="rgb(106, 32, 82)"  x="10" y="4" width="1" height="1" /><rect shape-rendering="crispEdges" fill="rgb(106, 32, 57)"  x="10" y="5" width="1" height="1" /><rect shape-rendering="crispEdges" fill="rgb(98, 32, 57)"  x="10" y="6" width="1" height="1" /><rect shape-rendering="crispEdges" fill="rgb(90, 24, 65)"  x="10" y="7" width="1" height="1" /><rect shape-rendering="crispEdges" fill="rgb(106, 41, 82)"  x="10" y="8" width="1" height="1" /><rect shape-rendering="crispEdges" fill="rgb(98, 32, 74)"  x="10" y="9" width="1" height="1" /><rect shape-rendering="crispEdges" fill="rgb(90, 24, 65)"  x="10" y="10" width="1" height="1" /><rect shape-rendering="crispEdges" fill="rgb(82, 16, 57)"  x="10" y="11" width="1" height="1" /><rect shape-rendering="crispEdges" fill="rgb(82, 16, 57)"  x="10" y="12" width="1" height="1" /><rect shape-rendering="crispEdges" fill="rgb(98, 24, 65)"  x="10" y="13" width="1" height="1" /><rect shape-rendering="crispEdges" fill="rgb(148, 41, 98)"  x="10" y="14" width="1" height="1" /><rect shape-rendering="crispEdges" fill="rgb(131, 32, 82)"  x="10" y="15" width="1" height="1" /><rect shape-rendering="crispEdges" fill="rgb(115, 24, 74)"  x="10" y="16" width="1" height="1" /><rect shape-rendering="crispEdges" fill="rgb(98, 8, 57)"  x="10" y="17" width="1" height="1" /><rect shape-rendering="crispEdges" fill="rgb(90, 8, 57)"  x="10" y="18" width="1" height="1" /><rect shape-rendering="crispEdges" fill="rgb(74, 8, 32)"  x="10" y="19" width="1" height="1" /><rect shape-rendering="crispEdges" fill="rgb(57, 8, 8)"  x="10" y="20" width="1" height="1" /><rect shape-rendering="crispEdges" fill="rgb(106, 32, 74)"  x="11" y="3" width="1" height="1" /><rect shape-rendering="crispEdges" fill="rgb(115, 32, 82)"  x="11" y="4" width="1" height="1" /><rect shape-rendering="crispEdges" fill="rgb(98, 32, 74)"  x="11" y="5" width="1" height="1" /><rect shape-rendering="crispEdges" fill="rgb(106, 41, 82)"  x="11" y="6" width="1" height="1" /><rect shape-rendering="crispEdges" fill="rgb(106, 32, 74)"  x="11" y="7" width="1" height="1" /><rect shape-rendering="crispEdges" fill="rgb(90, 24, 65)"  x="11" y="8" width="1" height="1" /><rect shape-rendering="crispEdges" fill="rgb(82, 24, 57)"  x="11" y="9" width="1" height="1" /><rect shape-rendering="crispEdges" fill="rgb(90, 16, 57)"  x="11" y="10" width="1" height="1" /><rect shape-rendering="crispEdges" fill="rgb(90, 16, 57)"  x="11" y="11" width="1" height="1" /><rect shape-rendering="crispEdges" fill="rgb(82, 24, 57)"  x="11" y="12" width="1" height="1" /><rect shape-rendering="crispEdges" fill="rgb(106, 32, 74)"  x="11" y="13" width="1" height="1" /><rect shape-rendering="crispEdges" fill="rgb(123, 32, 82)"  x="11" y="14" width="1" height="1" /><rect shape-rendering="crispEdges" fill="rgb(106, 24, 65)"  x="11" y="15" width="1" height="1" /><rect shape-rendering="crispEdges" fill="rgb(106, 16, 65)"  x="11" y="16" width="1" height="1" /><rect shape-rendering="crispEdges" fill="rgb(98, 8, 57)"  x="11" y="17" width="1" height="1" /><rect shape-rendering="crispEdges" fill="rgb(82, 8, 49)"  x="11" y="18" width="1" height="1" /><rect shape-rendering="crispEdges" fill="rgb(65, 8, 16)"  x="11" y="19" width="1" height="1" /><rect shape-rendering="crispEdges" fill="rgb(41, 8, 8)"  x="11" y="20" width="1" height="1" /><rect shape-rendering="crispEdges" fill="rgb(106, 32, 74)"  x="12" y="2" width="1" height="1" /><rect shape-rendering="crispEdges" fill="rgb(131, 49, 98)"  x="12" y="3" width="1" height="1" /><rect shape-rendering="crispEdges" fill="rgb(115, 41, 90)"  x="12" y="4" width="1" height="1" /><rect shape-rendering="crispEdges" fill="rgb(90, 24, 65)"  x="12" y="5" width="1" height="1" /><rect shape-rendering="crispEdges" fill="rgb(90, 24, 65)"  x="12" y="6" width="1" height="1" /><rect shape-rendering="crispEdges" fill="rgb(90, 24, 65)"  x="12" y="7" width="1" height="1" /><rect shape-rendering="crispEdges" fill="rgb(90, 16, 57)"  x="12" y="8" width="1" height="1" /><rect shape-rendering="crispEdges" fill="rgb(98, 24, 65)"  x="12" y="9" width="1" height="1" /><rect shape-rendering="crispEdges" fill="rgb(90, 24, 65)"  x="12" y="10" width="1" height="1" /><rect shape-rendering="crispEdges" fill="rgb(98, 24, 65)"  x="12" y="11" width="1" height="1" /><rect shape-rendering="crispEdges" fill="rgb(90, 24, 65)"  x="12" y="12" width="1" height="1" /><rect shape-rendering="crispEdges" fill="rgb(106, 32, 74)"  x="12" y="13" width="1" height="1" /><rect shape-rendering="crispEdges" fill="rgb(123, 32, 82)"  x="12" y="14" width="1" height="1" /><rect shape-rendering="crispEdges" fill="rgb(106, 16, 57)"  x="12" y="15" width="1" height="1" /><rect shape-rendering="crispEdges" fill="rgb(98, 8, 57)"  x="12" y="16" width="1" height="1" /><rect shape-rendering="crispEdges" fill="rgb(82, 8, 49)"  x="12" y="17" width="1" height="1" /><rect shape-rendering="crispEdges" fill="rgb(57, 8, 24)"  x="12" y="18" width="1" height="1" /><rect shape-rendering="crispEdges" fill="rgb(57, 8, 8)"  x="12" y="19" width="1" height="1" /><rect shape-rendering="crispEdges" fill="rgb(106, 32, 74)"  x="13" y="2" width="1" height="1" /><rect shape-rendering="crispEdges" fill="rgb(123, 49, 98)"  x="13" y="3" width="1" height="1" /><rect shape-rendering="crispEdges" fill="rgb(123, 49, 98)"  x="13" y="4" width="1" height="1" /><rect shape-rendering="crispEdges" fill="rgb(115, 41, 82)"  x="13" y="5" width="1" height="1" /><rect shape-rendering="crispEdges" fill="rgb(98, 24, 74)"  x="13" y="6" width="1" height="1" /><rect shape-rendering="crispEdges" fill="rgb(90, 24, 65)"  x="13" y="7" width="1" height="1" /><rect shape-rendering="crispEdges" fill="rgb(98, 24, 65)"  x="13" y="8" width="1" height="1" /><rect shape-rendering="crispEdges" fill="rgb(98, 24, 74)"  x="13" y="9" width="1" height="1" /><rect shape-rendering="crispEdges" fill="rgb(98, 32, 74)"  x="13" y="10" width="1" height="1" /><rect shape-rendering="crispEdges" fill="rgb(98, 24, 65)"  x="13" y="11" width="1" height="1" /><rect shape-rendering="crispEdges" fill="rgb(90, 24, 65)"  x="13" y="12" width="1" height="1" /><rect shape-rendering="crispEdges" fill="rgb(98, 24, 65)"  x="13" y="13" width="1" height="1" /><rect shape-rendering="crispEdges" fill="rgb(115, 24, 74)"  x="13" y="14" width="1" height="1" /><rect shape-rendering="crispEdges" fill="rgb(90, 8, 49)"  x="13" y="15" width="1" height="1" /><rect shape-rendering="crispEdges" fill="rgb(82, 8, 49)"  x="13" y="16" width="1" height="1" /><rect shape-rendering="crispEdges" fill="rgb(65, 8, 24)"  x="13" y="17" width="1" height="1" /><rect shape-rendering="crispEdges" fill="rgb(57, 8, 8)"  x="13" y="18" width="1" height="1" /><rect shape-rendering="crispEdges" fill="rgb(106, 8, 98)"  x="14" y="2" width="1" height="1" /><rect shape-rendering="crispEdges" fill="rgb(131, 49, 98)"  x="14" y="3" width="1" height="1" /><rect shape-rendering="crispEdges" fill="rgb(123, 49, 98)"  x="14" y="4" width="1" height="1" /><rect shape-rendering="crispEdges" fill="rgb(123, 49, 90)"  x="14" y="5" width="1" height="1" /><rect shape-rendering="crispEdges" fill="rgb(106, 32, 74)"  x="14" y="6" width="1" height="1" /><rect shape-rendering="crispEdges" fill="rgb(90, 24, 65)"  x="14" y="7" width="1" height="1" /><rect shape-rendering="crispEdges" fill="rgb(98, 32, 74)"  x="14" y="8" width="1" height="1" /><rect shape-rendering="crispEdges" fill="rgb(98, 24, 65)"  x="14" y="9" width="1" height="1" /><rect shape-rendering="crispEdges" fill="rgb(98, 32, 74)"  x="14" y="10" width="1" height="1" /><rect shape-rendering="crispEdges" fill="rgb(90, 24, 65)"  x="14" y="11" width="1" height="1" /><rect shape-rendering="crispEdges" fill="rgb(90, 16, 57)"  x="14" y="12" width="1" height="1" /><rect shape-rendering="crispEdges" fill="rgb(90, 24, 57)"  x="14" y="13" width="1" height="1" /><rect shape-rendering="crispEdges" fill="rgb(98, 24, 65)"  x="14" y="14" width="1" height="1" /><rect shape-rendering="crispEdges" fill="rgb(106, 16, 65)"  x="14" y="15" width="1" height="1" /><rect shape-rendering="crispEdges" fill="rgb(65, 8, 32)"  x="14" y="16" width="1" height="1" /><rect shape-rendering="crispEdges" fill="rgb(57, 8, 8)"  x="14" y="17" width="1" height="1" /><rect shape-rendering="crispEdges" fill="rgb(98, 24, 82)"  x="15" y="2" width="1" height="1" /><rect shape-rendering="crispEdges" fill="rgb(131, 49, 98)"  x="15" y="3" width="1" height="1" /><rect shape-rendering="crispEdges" fill="rgb(123, 49, 98)"  x="15" y="4" width="1" height="1" /><rect shape-rendering="crispEdges" fill="rgb(123, 49, 98)"  x="15" y="5" width="1" height="1" /><rect shape-rendering="crispEdges" fill="rgb(98, 32, 74)"  x="15" y="6" width="1" height="1" /><rect shape-rendering="crispEdges" fill="rgb(98, 24, 65)"  x="15" y="7" width="1" height="1" /><rect shape-rendering="crispEdges" fill="rgb(98, 24, 74)"  x="15" y="8" width="1" height="1" /><rect shape-rendering="crispEdges" fill="rgb(98, 32, 74)"  x="15" y="9" width="1" height="1" /><rect shape-rendering="crispEdges" fill="rgb(98, 24, 65)"  x="15" y="10" width="1" height="1" /><rect shape-rendering="crispEdges" fill="rgb(90, 24, 57)"  x="15" y="11" width="1" height="1" /><rect shape-rendering="crispEdges" fill="rgb(90, 24, 57)"  x="15" y="12" width="1" height="1" /><rect shape-rendering="crispEdges" fill="rgb(82, 16, 57)"  x="15" y="13" width="1" height="1" /><rect shape-rendering="crispEdges" fill="rgb(74, 8, 41)"  x="15" y="14" width="1" height="1" /><rect shape-rendering="crispEdges" fill="rgb(65, 8, 49)"  x="15" y="15" width="1" height="1" /><rect shape-rendering="crispEdges" fill="rgb(57, 8, 24)"  x="15" y="16" width="1" height="1" /><rect shape-rendering="crispEdges" fill="rgb(41, 8, 8)"  x="15" y="17" width="1" height="1" /><rect shape-rendering="crispEdges" fill="rgb(98, 24, 65)"  x="16" y="2" width="1" height="1" /><rect shape-rendering="crispEdges" fill="rgb(123, 41, 90)"  x="16" y="3" width="1" height="1" /><rect shape-rendering="crispEdges" fill="rgb(123, 49, 90)"  x="16" y="4" width="1" height="1" /><rect shape-rendering="crispEdges" fill="rgb(123, 49, 98)"  x="16" y="5" width="1" height="1" /><rect shape-rendering="crispEdges" fill="rgb(98, 24, 65)"  x="16" y="6" width="1" height="1" /><rect shape-rendering="crispEdges" fill="rgb(98, 24, 65)"  x="16" y="7" width="1" height="1" /><rect shape-rendering="crispEdges" fill="rgb(98, 24, 65)"  x="16" y="8" width="1" height="1" /><rect shape-rendering="crispEdges" fill="rgb(98, 32, 74)"  x="16" y="9" width="1" height="1" /><rect shape-rendering="crispEdges" fill="rgb(90, 24, 65)"  x="16" y="10" width="1" height="1" /><rect shape-rendering="crispEdges" fill="rgb(82, 24, 57)"  x="16" y="11" width="1" height="1" /><rect shape-rendering="crispEdges" fill="rgb(82, 16, 57)"  x="16" y="12" width="1" height="1" /><rect shape-rendering="crispEdges" fill="rgb(74, 8, 49)"  x="16" y="13" width="1" height="1" /><rect shape-rendering="crispEdges" fill="rgb(74, 8, 41)"  x="16" y="14" width="1" height="1" /><rect shape-rendering="crispEdges" fill="rgb(49, 8, 32)"  x="16" y="15" width="1" height="1" /><rect shape-rendering="crispEdges" fill="rgb(49, 8, 8)"  x="16" y="16" width="1" height="1" /><rect shape-rendering="crispEdges" fill="rgb(49, 8, 8)"  x="16" y="17" width="1" height="1" /><rect shape-rendering="crispEdges" fill="rgb(115, 41, 90)"  x="17" y="3" width="1" height="1" /><rect shape-rendering="crispEdges" fill="rgb(131, 49, 98)"  x="17" y="4" width="1" height="1" /><rect shape-rendering="crispEdges" fill="rgb(123, 49, 98)"  x="17" y="5" width="1" height="1" /><rect shape-rendering="crispEdges" fill="rgb(98, 32, 65)"  x="17" y="6" width="1" height="1" /><rect shape-rendering="crispEdges" fill="rgb(98, 24, 65)"  x="17" y="7" width="1" height="1" /><rect shape-rendering="crispEdges" fill="rgb(98, 24, 65)"  x="17" y="8" width="1" height="1" /><rect shape-rendering="crispEdges" fill="rgb(98, 32, 74)"  x="17" y="9" width="1" height="1" /><rect shape-rendering="crispEdges" fill="rgb(90, 24, 65)"  x="17" y="10" width="1" height="1" /><rect shape-rendering="crispEdges" fill="rgb(82, 16, 57)"  x="17" y="11" width="1" height="1" /><rect shape-rendering="crispEdges" fill="rgb(74, 16, 49)"  x="17" y="12" width="1" height="1" /><rect shape-rendering="crispEdges" fill="rgb(65, 8, 41)"  x="17" y="13" width="1" height="1" /><rect shape-rendering="crispEdges" fill="rgb(65, 8, 41)"  x="17" y="14" width="1" height="1" /><rect shape-rendering="crispEdges" fill="rgb(49, 8, 24)"  x="17" y="15" width="1" height="1" /><rect shape-rendering="crispEdges" fill="rgb(57, 8, 8)"  x="17" y="16" width="1" height="1" /><rect shape-rendering="crispEdges" fill="rgb(41, 8, 8)"  x="17" y="17" width="1" height="1" /><rect shape-rendering="crispEdges" fill="rgb(98, 24, 65)"  x="18" y="3" width="1" height="1" /><rect shape-rendering="crispEdges" fill="rgb(139, 49, 106)"  x="18" y="4" width="1" height="1" /><rect shape-rendering="crispEdges" fill="rgb(123, 41, 90)"  x="18" y="5" width="1" height="1" /><rect shape-rendering="crispEdges" fill="rgb(106, 32, 74)"  x="18" y="6" width="1" height="1" /><rect shape-rendering="crispEdges" fill="rgb(106, 32, 74)"  x="18" y="7" width="1" height="1" /><rect shape-rendering="crispEdges" fill="rgb(106, 32, 74)"  x="18" y="8" width="1" height="1" /><rect shape-rendering="crispEdges" fill="rgb(106, 32, 74)"  x="18" y="9" width="1" height="1" /><rect shape-rendering="crispEdges" fill="rgb(98, 24, 65)"  x="18" y="10" width="1" height="1" /><rect shape-rendering="crispEdges" fill="rgb(82, 16, 57)"  x="18" y="11" width="1" height="1" /><rect shape-rendering="crispEdges" fill="rgb(74, 8, 49)"  x="18" y="12" width="1" height="1" /><rect shape-rendering="crispEdges" fill="rgb(74, 8, 49)"  x="18" y="13" width="1" height="1" /><rect shape-rendering="crispEdges" fill="rgb(65, 8, 41)"  x="18" y="14" width="1" height="1" /><rect shape-rendering="crispEdges" fill="rgb(57, 8, 8)"  x="18" y="15" width="1" height="1" /><rect shape-rendering="crispEdges" fill="rgb(32, 8, 8)"  x="18" y="16" width="1" height="1" /><rect shape-rendering="crispEdges" fill="rgb(49, 8, 8)"  x="18" y="17" width="1" height="1" /><rect shape-rendering="crispEdges" fill="rgb(106, 8, 82)"  x="18" y="19" width="1" height="1" /><rect shape-rendering="crispEdges" fill="rgb(82, 16, 57)"  x="18" y="20" width="1" height="1" /><rect shape-rendering="crispEdges" fill="rgb(82, 8, 49)"  x="18" y="21" width="1" height="1" /><rect shape-rendering="crispEdges" fill="rgb(65, 8, 41)"  x="18" y="22" width="1" height="1" /><rect shape-rendering="crispEdges" fill="rgb(57, 8, 32)"  x="18" y="23" width="1" height="1" /><rect shape-rendering="crispEdges" fill="rgb(49, 8, 16)"  x="18" y="24" width="1" height="1" /><rect shape-rendering="crispEdges" fill="rgb(49, 8, 41)"  x="18" y="25" width="1" height="1" /><rect shape-rendering="crispEdges" fill="rgb(98, 24, 65)"  x="19" y="4" width="1" height="1" /><rect shape-rendering="crispEdges" fill="rgb(115, 8, 106)"  x="19" y="5" width="1" height="1" /><rect shape-rendering="crispEdges" fill="rgb(98, 24, 65)"  x="19" y="6" width="1" height="1" /><rect shape-rendering="crispEdges" fill="rgb(74, 16, 57)"  x="19" y="7" width="1" height="1" /><rect shape-rendering="crispEdges" fill="rgb(82, 16, 57)"  x="19" y="8" width="1" height="1" /><rect shape-rendering="crispEdges" fill="rgb(90, 24, 65)"  x="19" y="9" width="1" height="1" /><rect shape-rendering="crispEdges" fill="rgb(106, 32, 74)"  x="19" y="10" width="1" height="1" /><rect shape-rendering="crispEdges" fill="rgb(90, 24, 65)"  x="19" y="11" width="1" height="1" /><rect shape-rendering="crispEdges" fill="rgb(65, 8, 41)"  x="19" y="12" width="1" height="1" /><rect shape-rendering="crispEdges" fill="rgb(57, 8, 41)"  x="19" y="13" width="1" height="1" /><rect shape-rendering="crispEdges" fill="rgb(57, 8, 24)"  x="19" y="14" width="1" height="1" /><rect shape-rendering="crispEdges" fill="rgb(49, 8, 8)"  x="19" y="15" width="1" height="1" /><rect shape-rendering="crispEdges" fill="rgb(82, 16, 49)"  x="19" y="16" width="1" height="1" /><rect shape-rendering="crispEdges" fill="rgb(106, 24, 65)"  x="19" y="17" width="1" height="1" /><rect shape-rendering="crispEdges" fill="rgb(156, 49, 106)"  x="19" y="18" width="1" height="1" /><rect shape-rendering="crispEdges" fill="rgb(172, 49, 115)"  x="19" y="19" width="1" height="1" /><rect shape-rendering="crispEdges" fill="rgb(148, 32, 90)"  x="19" y="20" width="1" height="1" /><rect shape-rendering="crispEdges" fill="rgb(115, 24, 74)"  x="19" y="21" width="1" height="1" /><rect shape-rendering="crispEdges" fill="rgb(106, 16, 65)"  x="19" y="22" width="1" height="1" /><rect shape-rendering="crispEdges" fill="rgb(98, 8, 57)"  x="19" y="23" width="1" height="1" /><rect shape-rendering="crispEdges" fill="rgb(74, 8, 32)"  x="19" y="24" width="1" height="1" /><rect shape-rendering="crispEdges" fill="rgb(74, 8, 16)"  x="19" y="25" width="1" height="1" /><rect shape-rendering="crispEdges" fill="rgb(41, 8, 8)"  x="19" y="26" width="1" height="1" /><rect shape-rendering="crispEdges" fill="rgb(98, 32, 74)"  x="20" y="6" width="1" height="1" /><rect shape-rendering="crispEdges" fill="rgb(123, 49, 90)"  x="20" y="7" width="1" height="1" /><rect shape-rendering="crispEdges" fill="rgb(82, 24, 57)"  x="20" y="8" width="1" height="1" /><rect shape-rendering="crispEdges" fill="rgb(90, 24, 65)"  x="20" y="9" width="1" height="1" /><rect shape-rendering="crispEdges" fill="rgb(98, 24, 65)"  x="20" y="10" width="1" height="1" /><rect shape-rendering="crispEdges" fill="rgb(98, 24, 65)"  x="20" y="11" width="1" height="1" /><rect shape-rendering="crispEdges" fill="rgb(90, 24, 65)"  x="20" y="12" width="1" height="1" /><rect shape-rendering="crispEdges" fill="rgb(82, 24, 57)"  x="20" y="13" width="1" height="1" /><rect shape-rendering="crispEdges" fill="rgb(82, 24, 57)"  x="20" y="14" width="1" height="1" /><rect shape-rendering="crispEdges" fill="rgb(90, 24, 65)"  x="20" y="15" width="1" height="1" /><rect shape-rendering="crispEdges" fill="rgb(106, 24, 74)"  x="20" y="16" width="1" height="1" /><rect shape-rendering="crispEdges" fill="rgb(139, 49, 98)"  x="20" y="17" width="1" height="1" /><rect shape-rendering="crispEdges" fill="rgb(189, 74, 131)"  x="20" y="18" width="1" height="1" /><rect shape-rendering="crispEdges" fill="rgb(156, 41, 98)"  x="20" y="19" width="1" height="1" /><rect shape-rendering="crispEdges" fill="rgb(148, 41, 98)"  x="20" y="20" width="1" height="1" /><rect shape-rendering="crispEdges" fill="rgb(131, 32, 90)"  x="20" y="21" width="1" height="1" /><rect shape-rendering="crispEdges" fill="rgb(106, 24, 65)"  x="20" y="22" width="1" height="1" /><rect shape-rendering="crispEdges" fill="rgb(98, 16, 57)"  x="20" y="23" width="1" height="1" /><rect shape-rendering="crispEdges" fill="rgb(82, 8, 49)"  x="20" y="24" width="1" height="1" /><rect shape-rendering="crispEdges" fill="rgb(65, 8, 32)"  x="20" y="25" width="1" height="1" /><rect shape-rendering="crispEdges" fill="rgb(65, 8, 8)"  x="20" y="26" width="1" height="1" /><rect shape-rendering="crispEdges" fill="rgb(57, 8, 8)"  x="20" y="27" width="1" height="1" /><rect shape-rendering="crispEdges" fill="rgb(82, 24, 65)"  x="21" y="5" width="1" height="1" /><rect shape-rendering="crispEdges" fill="rgb(148, 57, 106)"  x="21" y="6" width="1" height="1" /><rect shape-rendering="crispEdges" fill="rgb(98, 24, 65)"  x="21" y="7" width="1" height="1" /><rect shape-rendering="crispEdges" fill="rgb(98, 24, 65)"  x="21" y="8" width="1" height="1" /><rect shape-rendering="crispEdges" fill="rgb(90, 24, 65)"  x="21" y="9" width="1" height="1" /><rect shape-rendering="crispEdges" fill="rgb(98, 24, 65)"  x="21" y="10" width="1" height="1" /><rect shape-rendering="crispEdges" fill="rgb(90, 24, 65)"  x="21" y="11" width="1" height="1" /><rect shape-rendering="crispEdges" fill="rgb(90, 24, 65)"  x="21" y="12" width="1" height="1" /><rect shape-rendering="crispEdges" fill="rgb(90, 16, 65)"  x="21" y="13" width="1" height="1" /><rect shape-rendering="crispEdges" fill="rgb(82, 16, 57)"  x="21" y="14" width="1" height="1" /><rect shape-rendering="crispEdges" fill="rgb(98, 24, 65)"  x="21" y="15" width="1" height="1" /><rect shape-rendering="crispEdges" fill="rgb(82, 16, 57)"  x="21" y="16" width="1" height="1" /><rect shape-rendering="crispEdges" fill="rgb(123, 49, 90)"  x="21" y="17" width="1" height="1" /><rect shape-rendering="crispEdges" fill="rgb(172, 57, 115)"  x="21" y="18" width="1" height="1" /><rect shape-rendering="crispEdges" fill="rgb(148, 41, 98)"  x="21" y="19" width="1" height="1" /><rect shape-rendering="crispEdges" fill="rgb(156, 49, 98)"  x="21" y="20" width="1" height="1" /><rect shape-rendering="crispEdges" fill="rgb(156, 41, 98)"  x="21" y="21" width="1" height="1" /><rect shape-rendering="crispEdges" fill="rgb(123, 24, 82)"  x="21" y="22" width="1" height="1" /><rect shape-rendering="crispEdges" fill="rgb(106, 16, 65)"  x="21" y="23" width="1" height="1" /><rect shape-rendering="crispEdges" fill="rgb(98, 8, 57)"  x="21" y="24" width="1" height="1" /><rect shape-rendering="crispEdges" fill="rgb(74, 8, 32)"  x="21" y="25" width="1" height="1" /><rect shape-rendering="crispEdges" fill="rgb(65, 16, 24)"  x="21" y="26" width="1" height="1" /><rect shape-rendering="crispEdges" fill="rgb(49, 8, 8)"  x="21" y="27" width="1" height="1" /><rect shape-rendering="crispEdges" fill="rgb(41, 8, 16)"  x="21" y="28" width="1" height="1" /><rect shape-rendering="crispEdges" fill="rgb(98, 32, 74)"  x="22" y="5" width="1" height="1" /><rect shape-rendering="crispEdges" fill="rgb(115, 41, 82)"  x="22" y="6" width="1" height="1" /><rect shape-rendering="crispEdges" fill="rgb(90, 24, 65)"  x="22" y="7" width="1" height="1" /><rect shape-rendering="crispEdges" fill="rgb(98, 32, 74)"  x="22" y="8" width="1" height="1" /><rect shape-rendering="crispEdges" fill="rgb(106, 41, 90)"  x="22" y="9" width="1" height="1" /><rect shape-rendering="crispEdges" fill="rgb(106, 32, 74)"  x="22" y="10" width="1" height="1" /><rect shape-rendering="crispEdges" fill="rgb(106, 32, 82)"  x="22" y="11" width="1" height="1" /><rect shape-rendering="crispEdges" fill="rgb(98, 32, 74)"  x="22" y="12" width="1" height="1" /><rect shape-rendering="crispEdges" fill="rgb(98, 32, 74)"  x="22" y="13" width="1" height="1" /><rect shape-rendering="crispEdges" fill="rgb(98, 32, 74)"  x="22" y="14" width="1" height="1" /><rect shape-rendering="crispEdges" fill="rgb(98, 32, 74)"  x="22" y="15" width="1" height="1" /><rect shape-rendering="crispEdges" fill="rgb(82, 16, 57)"  x="22" y="16" width="1" height="1" /><rect shape-rendering="crispEdges" fill="rgb(148, 49, 106)"  x="22" y="17" width="1" height="1" /><rect shape-rendering="crispEdges" fill="rgb(172, 49, 106)"  x="22" y="18" width="1" height="1" /><rect shape-rendering="crispEdges" fill="rgb(156, 41, 98)"  x="22" y="19" width="1" height="1" /><rect shape-rendering="crispEdges" fill="rgb(164, 57, 106)"  x="22" y="20" width="1" height="1" /><rect shape-rendering="crispEdges" fill="rgb(156, 49, 106)"  x="22" y="21" width="1" height="1" /><rect shape-rendering="crispEdges" fill="rgb(131, 32, 82)"  x="22" y="22" width="1" height="1" /><rect shape-rendering="crispEdges" fill="rgb(106, 16, 65)"  x="22" y="23" width="1" height="1" /><rect shape-rendering="crispEdges" fill="rgb(98, 8, 57)"  x="22" y="24" width="1" height="1" /><rect shape-rendering="crispEdges" fill="rgb(82, 8, 49)"  x="22" y="25" width="1" height="1" /><rect shape-rendering="crispEdges" fill="rgb(74, 16, 32)"  x="22" y="26" width="1" height="1" /><rect shape-rendering="crispEdges" fill="rgb(49, 8, 8)"  x="22" y="27" width="1" height="1" /><rect shape-rendering="crispEdges" fill="rgb(57, 8, 8)"  x="22" y="28" width="1" height="1" /><rect shape-rendering="crispEdges" fill="rgb(115, 49, 90)"  x="23" y="5" width="1" height="1" /><rect shape-rendering="crispEdges" fill="rgb(115, 32, 82)"  x="23" y="6" width="1" height="1" /><rect shape-rendering="crispEdges" fill="rgb(115, 41, 90)"  x="23" y="7" width="1" height="1" /><rect shape-rendering="crispEdges" fill="rgb(90, 24, 49)"  x="23" y="8" width="1" height="1" /><rect shape-rendering="crispEdges" fill="rgb(90, 24, 41)"  x="23" y="9" width="1" height="1" /><rect shape-rendering="crispEdges" fill="rgb(74, 16, 41)"  x="23" y="10" width="1" height="1" /><rect shape-rendering="crispEdges" fill="rgb(90, 24, 49)"  x="23" y="11" width="1" height="1" /><rect shape-rendering="crispEdges" fill="rgb(82, 16, 41)"  x="23" y="12" width="1" height="1" /><rect shape-rendering="crispEdges" fill="rgb(90, 24, 49)"  x="23" y="13" width="1" height="1" /><rect shape-rendering="crispEdges" fill="rgb(90, 24, 41)"  x="23" y="14" width="1" height="1" /><rect shape-rendering="crispEdges" fill="rgb(90, 24, 41)"  x="23" y="15" width="1" height="1" /><rect shape-rendering="crispEdges" fill="rgb(98, 24, 74)"  x="23" y="16" width="1" height="1" /><rect shape-rendering="crispEdges" fill="rgb(148, 57, 106)"  x="23" y="17" width="1" height="1" /><rect shape-rendering="crispEdges" fill="rgb(156, 49, 106)"  x="23" y="18" width="1" height="1" /><rect shape-rendering="crispEdges" fill="rgb(156, 49, 106)"  x="23" y="19" width="1" height="1" /><rect shape-rendering="crispEdges" fill="rgb(164, 57, 115)"  x="23" y="20" width="1" height="1" /><rect shape-rendering="crispEdges" fill="rgb(164, 49, 106)"  x="23" y="21" width="1" height="1" /><rect shape-rendering="crispEdges" fill="rgb(131, 32, 82)"  x="23" y="22" width="1" height="1" /><rect shape-rendering="crispEdges" fill="rgb(106, 16, 65)"  x="23" y="23" width="1" height="1" /><rect shape-rendering="crispEdges" fill="rgb(98, 8, 57)"  x="23" y="24" width="1" height="1" /><rect shape-rendering="crispEdges" fill="rgb(82, 8, 49)"  x="23" y="25" width="1" height="1" /><rect shape-rendering="crispEdges" fill="rgb(82, 8, 41)"  x="23" y="26" width="1" height="1" /><rect shape-rendering="crispEdges" fill="rgb(65, 8, 16)"  x="23" y="27" width="1" height="1" /><rect shape-rendering="crispEdges" fill="rgb(49, 8, 8)"  x="23" y="28" width="1" height="1" /><rect shape-rendering="crispEdges" fill="rgb(49, 8, 8)"  x="23" y="29" width="1" height="1" /><rect shape-rendering="crispEdges" fill="rgb(131, 49, 98)"  x="24" y="5" width="1" height="1" /><rect shape-rendering="crispEdges" fill="rgb(106, 32, 74)"  x="24" y="6" width="1" height="1" /><rect shape-rendering="crispEdges" fill="rgb(106, 32, 74)"  x="24" y="7" width="1" height="1" /><rect shape-rendering="crispEdges" fill="rgb(98, 24, 57)"  x="24" y="8" width="1" height="1" /><rect shape-rendering="crispEdges" fill="rgb(98, 32, 65)"  x="24" y="9" width="1" height="1" /><rect shape-rendering="crispEdges" fill="rgb(82, 16, 49)"  x="24" y="10" width="1" height="1" /><rect shape-rendering="crispEdges" fill="rgb(98, 32, 65)"  x="24" y="11" width="1" height="1" /><rect shape-rendering="crispEdges" fill="rgb(82, 16, 49)"  x="24" y="12" width="1" height="1" /><rect shape-rendering="crispEdges" fill="rgb(90, 24, 57)"  x="24" y="13" width="1" height="1" /><rect shape-rendering="crispEdges" fill="rgb(90, 24, 49)"  x="24" y="14" width="1" height="1" /><rect shape-rendering="crispEdges" fill="rgb(90, 24, 57)"  x="24" y="15" width="1" height="1" /><rect shape-rendering="crispEdges" fill="rgb(82, 16, 57)"  x="24" y="16" width="1" height="1" /><rect shape-rendering="crispEdges" fill="rgb(148, 57, 106)"  x="24" y="17" width="1" height="1" /><rect shape-rendering="crispEdges" fill="rgb(164, 49, 106)"  x="24" y="18" width="1" height="1" /><rect shape-rendering="crispEdges" fill="rgb(156, 41, 98)"  x="24" y="19" width="1" height="1" /><rect shape-rendering="crispEdges" fill="rgb(164, 49, 106)"  x="24" y="20" width="1" height="1" /><rect shape-rendering="crispEdges" fill="rgb(156, 49, 106)"  x="24" y="21" width="1" height="1" /><rect shape-rendering="crispEdges" fill="rgb(131, 32, 90)"  x="24" y="22" width="1" height="1" /><rect shape-rendering="crispEdges" fill="rgb(106, 24, 65)"  x="24" y="23" width="1" height="1" /><rect shape-rendering="crispEdges" fill="rgb(98, 8, 57)"  x="24" y="24" width="1" height="1" /><rect shape-rendering="crispEdges" fill="rgb(82, 8, 49)"  x="24" y="25" width="1" height="1" /><rect shape-rendering="crispEdges" fill="rgb(74, 16, 32)"  x="24" y="26" width="1" height="1" /><rect shape-rendering="crispEdges" fill="rgb(57, 8, 8)"  x="24" y="27" width="1" height="1" /><rect shape-rendering="crispEdges" fill="rgb(49, 8, 8)"  x="24" y="28" width="1" height="1" /><rect shape-rendering="crispEdges" fill="rgb(49, 8, 8)"  x="24" y="29" width="1" height="1" /><rect shape-rendering="crispEdges" fill="rgb(123, 49, 98)"  x="25" y="5" width="1" height="1" /><rect shape-rendering="crispEdges" fill="rgb(106, 32, 82)"  x="25" y="6" width="1" height="1" /><rect shape-rendering="crispEdges" fill="rgb(90, 24, 65)"  x="25" y="7" width="1" height="1" /><rect shape-rendering="crispEdges" fill="rgb(106, 32, 74)"  x="25" y="8" width="1" height="1" /><rect shape-rendering="crispEdges" fill="rgb(106, 32, 74)"  x="25" y="9" width="1" height="1" /><rect shape-rendering="crispEdges" fill="rgb(106, 32, 82)"  x="25" y="10" width="1" height="1" /><rect shape-rendering="crispEdges" fill="rgb(106, 32, 82)"  x="25" y="11" width="1" height="1" /><rect shape-rendering="crispEdges" fill="rgb(106, 32, 82)"  x="25" y="12" width="1" height="1" /><rect shape-rendering="crispEdges" fill="rgb(106, 32, 82)"  x="25" y="13" width="1" height="1" /><rect shape-rendering="crispEdges" fill="rgb(98, 32, 74)"  x="25" y="14" width="1" height="1" /><rect shape-rendering="crispEdges" fill="rgb(106, 32, 82)"  x="25" y="15" width="1" height="1" /><rect shape-rendering="crispEdges" fill="rgb(90, 16, 57)"  x="25" y="16" width="1" height="1" /><rect shape-rendering="crispEdges" fill="rgb(139, 49, 98)"  x="25" y="17" width="1" height="1" /><rect shape-rendering="crispEdges" fill="rgb(172, 57, 115)"  x="25" y="18" width="1" height="1" /><rect shape-rendering="crispEdges" fill="rgb(148, 41, 98)"  x="25" y="19" width="1" height="1" /><rect shape-rendering="crispEdges" fill="rgb(156, 49, 106)"  x="25" y="20" width="1" height="1" /><rect shape-rendering="crispEdges" fill="rgb(156, 49, 106)"  x="25" y="21" width="1" height="1" /><rect shape-rendering="crispEdges" fill="rgb(131, 32, 82)"  x="25" y="22" width="1" height="1" /><rect shape-rendering="crispEdges" fill="rgb(106, 24, 65)"  x="25" y="23" width="1" height="1" /><rect shape-rendering="crispEdges" fill="rgb(98, 8, 57)"  x="25" y="24" width="1" height="1" /><rect shape-rendering="crispEdges" fill="rgb(74, 8, 41)"  x="25" y="25" width="1" height="1" /><rect shape-rendering="crispEdges" fill="rgb(65, 16, 24)"  x="25" y="26" width="1" height="1" /><rect shape-rendering="crispEdges" fill="rgb(49, 8, 8)"  x="25" y="27" width="1" height="1" /><rect shape-rendering="crispEdges" fill="rgb(49, 8, 8)"  x="25" y="28" width="1" height="1" /><rect shape-rendering="crispEdges" fill="rgb(49, 8, 8)"  x="25" y="29" width="1" height="1" /><rect shape-rendering="crispEdges" fill="rgb(123, 49, 98)"  x="26" y="5" width="1" height="1" /><rect shape-rendering="crispEdges" fill="rgb(123, 49, 98)"  x="26" y="6" width="1" height="1" /><rect shape-rendering="crispEdges" fill="rgb(90, 24, 65)"  x="26" y="7" width="1" height="1" /><rect shape-rendering="crispEdges" fill="rgb(98, 24, 65)"  x="26" y="8" width="1" height="1" /><rect shape-rendering="crispEdges" fill="rgb(98, 24, 65)"  x="26" y="9" width="1" height="1" /><rect shape-rendering="crispEdges" fill="rgb(98, 24, 65)"  x="26" y="10" width="1" height="1" /><rect shape-rendering="crispEdges" fill="rgb(98, 24, 65)"  x="26" y="11" width="1" height="1" /><rect shape-rendering="crispEdges" fill="rgb(98, 24, 65)"  x="26" y="12" width="1" height="1" /><rect shape-rendering="crispEdges" fill="rgb(98, 32, 74)"  x="26" y="13" width="1" height="1" /><rect shape-rendering="crispEdges" fill="rgb(98, 24, 65)"  x="26" y="14" width="1" height="1" /><rect shape-rendering="crispEdges" fill="rgb(106, 24, 65)"  x="26" y="15" width="1" height="1" /><rect shape-rendering="crispEdges" fill="rgb(98, 24, 65)"  x="26" y="16" width="1" height="1" /><rect shape-rendering="crispEdges" fill="rgb(131, 49, 98)"  x="26" y="17" width="1" height="1" /><rect shape-rendering="crispEdges" fill="rgb(180, 57, 115)"  x="26" y="18" width="1" height="1" /><rect shape-rendering="crispEdges" fill="rgb(148, 41, 98)"  x="26" y="19" width="1" height="1" /><rect shape-rendering="crispEdges" fill="rgb(156, 41, 98)"  x="26" y="20" width="1" height="1" /><rect shape-rendering="crispEdges" fill="rgb(148, 41, 98)"  x="26" y="21" width="1" height="1" /><rect shape-rendering="crispEdges" fill="rgb(123, 32, 82)"  x="26" y="22" width="1" height="1" /><rect shape-rendering="crispEdges" fill="rgb(98, 16, 65)"  x="26" y="23" width="1" height="1" /><rect shape-rendering="crispEdges" fill="rgb(98, 8, 57)"  x="26" y="24" width="1" height="1" /><rect shape-rendering="crispEdges" fill="rgb(74, 8, 32)"  x="26" y="25" width="1" height="1" /><rect shape-rendering="crispEdges" fill="rgb(65, 16, 24)"  x="26" y="26" width="1" height="1" /><rect shape-rendering="crispEdges" fill="rgb(49, 8, 8)"  x="26" y="27" width="1" height="1" /><rect shape-rendering="crispEdges" fill="rgb(41, 8, 8)"  x="26" y="28" width="1" height="1" /><rect shape-rendering="crispEdges" fill="rgb(98, 32, 74)"  x="27" y="5" width="1" height="1" /><rect shape-rendering="crispEdges" fill="rgb(148, 57, 115)"  x="27" y="6" width="1" height="1" /><rect shape-rendering="crispEdges" fill="rgb(115, 41, 90)"  x="27" y="7" width="1" height="1" /><rect shape-rendering="crispEdges" fill="rgb(98, 24, 65)"  x="27" y="8" width="1" height="1" /><rect shape-rendering="crispEdges" fill="rgb(98, 24, 65)"  x="27" y="9" width="1" height="1" /><rect shape-rendering="crispEdges" fill="rgb(98, 24, 65)"  x="27" y="10" width="1" height="1" /><rect shape-rendering="crispEdges" fill="rgb(98, 24, 65)"  x="27" y="11" width="1" height="1" /><rect shape-rendering="crispEdges" fill="rgb(90, 24, 65)"  x="27" y="12" width="1" height="1" /><rect shape-rendering="crispEdges" fill="rgb(98, 24, 65)"  x="27" y="13" width="1" height="1" /><rect shape-rendering="crispEdges" fill="rgb(90, 24, 65)"  x="27" y="14" width="1" height="1" /><rect shape-rendering="crispEdges" fill="rgb(90, 24, 65)"  x="27" y="15" width="1" height="1" /><rect shape-rendering="crispEdges" fill="rgb(98, 24, 65)"  x="27" y="16" width="1" height="1" /><rect shape-rendering="crispEdges" fill="rgb(139, 49, 98)"  x="27" y="17" width="1" height="1" /><rect shape-rendering="crispEdges" fill="rgb(180, 65, 123)"  x="27" y="18" width="1" height="1" /><rect shape-rendering="crispEdges" fill="rgb(148, 41, 98)"  x="27" y="19" width="1" height="1" /><rect shape-rendering="crispEdges" fill="rgb(148, 41, 98)"  x="27" y="20" width="1" height="1" /><rect shape-rendering="crispEdges" fill="rgb(139, 32, 90)"  x="27" y="21" width="1" height="1" /><rect shape-rendering="crispEdges" fill="rgb(115, 24, 74)"  x="27" y="22" width="1" height="1" /><rect shape-rendering="crispEdges" fill="rgb(106, 16, 65)"  x="27" y="23" width="1" height="1" /><rect shape-rendering="crispEdges" fill="rgb(90, 8, 49)"  x="27" y="24" width="1" height="1" /><rect shape-rendering="crispEdges" fill="rgb(65, 8, 32)"  x="27" y="25" width="1" height="1" /><rect shape-rendering="crispEdges" fill="rgb(74, 16, 24)"  x="27" y="26" width="1" height="1" /><rect shape-rendering="crispEdges" fill="rgb(49, 8, 8)"  x="27" y="27" width="1" height="1" /><rect shape-rendering="crispEdges" fill="rgb(41, 8, 16)"  x="27" y="28" width="1" height="1" /><rect shape-rendering="crispEdges" fill="rgb(98, 32, 74)"  x="28" y="6" width="1" height="1" /><rect shape-rendering="crispEdges" fill="rgb(98, 32, 74)"  x="28" y="7" width="1" height="1" /><rect shape-rendering="crispEdges" fill="rgb(90, 24, 65)"  x="28" y="8" width="1" height="1" /><rect shape-rendering="crispEdges" fill="rgb(106, 24, 74)"  x="28" y="9" width="1" height="1" /><rect shape-rendering="crispEdges" fill="rgb(106, 32, 74)"  x="28" y="10" width="1" height="1" /><rect shape-rendering="crispEdges" fill="rgb(106, 32, 74)"  x="28" y="11" width="1" height="1" /><rect shape-rendering="crispEdges" fill="rgb(106, 32, 82)"  x="28" y="12" width="1" height="1" /><rect shape-rendering="crispEdges" fill="rgb(106, 24, 74)"  x="28" y="13" width="1" height="1" /><rect shape-rendering="crispEdges" fill="rgb(98, 24, 65)"  x="28" y="14" width="1" height="1" /><rect shape-rendering="crispEdges" fill="rgb(98, 32, 74)"  x="28" y="15" width="1" height="1" /><rect shape-rendering="crispEdges" fill="rgb(139, 41, 90)"  x="28" y="16" width="1" height="1" /><rect shape-rendering="crispEdges" fill="rgb(139, 32, 90)"  x="28" y="17" width="1" height="1" /><rect shape-rendering="crispEdges" fill="rgb(164, 49, 115)"  x="28" y="18" width="1" height="1" /><rect shape-rendering="crispEdges" fill="rgb(156, 49, 106)"  x="28" y="19" width="1" height="1" /><rect shape-rendering="crispEdges" fill="rgb(139, 32, 90)"  x="28" y="20" width="1" height="1" /><rect shape-rendering="crispEdges" fill="rgb(115, 32, 82)"  x="28" y="21" width="1" height="1" /><rect shape-rendering="crispEdges" fill="rgb(106, 24, 65)"  x="28" y="22" width="1" height="1" /><rect shape-rendering="crispEdges" fill="rgb(98, 16, 65)"  x="28" y="23" width="1" height="1" /><rect shape-rendering="crispEdges" fill="rgb(82, 8, 49)"  x="28" y="24" width="1" height="1" /><rect shape-rendering="crispEdges" fill="rgb(65, 8, 24)"  x="28" y="25" width="1" height="1" /><rect shape-rendering="crispEdges" fill="rgb(57, 8, 8)"  x="28" y="26" width="1" height="1" /><rect shape-rendering="crispEdges" fill="rgb(49, 8, 8)"  x="28" y="27" width="1" height="1" /><rect shape-rendering="crispEdges" fill="rgb(115, 8, 106)"  x="29" y="11" width="1" height="1" /><rect shape-rendering="crispEdges" fill="rgb(90, 8, 57)"  x="29" y="12" width="1" height="1" /><rect shape-rendering="crispEdges" fill="rgb(90, 8, 57)"  x="29" y="13" width="1" height="1" /><rect shape-rendering="crispEdges" fill="rgb(90, 8, 57)"  x="29" y="14" width="1" height="1" /><rect shape-rendering="crispEdges" fill="rgb(90, 8, 57)"  x="29" y="15" width="1" height="1" /><rect shape-rendering="crispEdges" fill="rgb(90, 16, 57)"  x="29" y="16" width="1" height="1" /><rect shape-rendering="crispEdges" fill="rgb(90, 8, 57)"  x="29" y="17" width="1" height="1" /><rect shape-rendering="crispEdges" fill="rgb(90, 8, 49)"  x="29" y="18" width="1" height="1" /><rect shape-rendering="crispEdges" fill="rgb(115, 24, 74)"  x="29" y="19" width="1" height="1" /><rect shape-rendering="crispEdges" fill="rgb(123, 24, 74)"  x="29" y="20" width="1" height="1" /><rect shape-rendering="crispEdges" fill="rgb(115, 16, 65)"  x="29" y="21" width="1" height="1" /><rect shape-rendering="crispEdges" fill="rgb(106, 8, 65)"  x="29" y="22" width="1" height="1" /><rect shape-rendering="crispEdges" fill="rgb(98, 8, 57)"  x="29" y="23" width="1" height="1" /><rect shape-rendering="crispEdges" fill="rgb(74, 8, 32)"  x="29" y="24" width="1" height="1" /><rect shape-rendering="crispEdges" fill="rgb(65, 16, 16)"  x="29" y="25" width="1" height="1" /><rect shape-rendering="crispEdges" fill="rgb(49, 8, 8)"  x="29" y="26" width="1" height="1" /><rect shape-rendering="crispEdges" fill="rgb(57, 8, 8)"  x="29" y="27" width="1" height="1" /><rect shape-rendering="crispEdges" fill="rgb(106, 0, 98)"  x="30" y="21" width="1" height="1" /><rect shape-rendering="crispEdges" fill="rgb(90, 8, 49)"  x="30" y="22" width="1" height="1" /><rect shape-rendering="crispEdges" fill="rgb(74, 8, 32)"  x="30" y="23" width="1" height="1" /><rect shape-rendering="crispEdges" fill="rgb(57, 8, 8)"  x="30" y="24" width="1" height="1" /><rect shape-rendering="crispEdges" fill="rgb(57, 8, 8)"  x="30" y="25" width="1" height="1" /><rect shape-rendering="crispEdges" fill="rgb(41, 8, 24)"  x="30" y="26" width="1" height="1" /></svg>