<svg xmlns="http://www.w3.org/2000/svg" xmlns:xlink= "http://www.w3.org/1999/xlink" width="32" height="32" viewBox ="0 0 32 32"><rect shape-rendering="crispEdges" fill="rgb(1, 1, 1)"  x="6" y="16" width="1" height="1" /><rect shape-rendering="crispEdges" fill="rgb(1, 1, 1)"  x="6" y="17" width="1" height="1" /><rect shape-rendering="crispEdges" fill="rgb(1, 1, 1)"  x="6" y="18" width="1" height="1" /><rect shape-rendering="crispEdges" fill="rgb(1, 1, 1)"  x="6" y="19" width="1" height="1" /><rect shape-rendering="crispEdges" fill="rgb(20, 20, 20)"  x="7" y="10" width="1" height="1" /><rect shape-rendering="crispEdges" fill="rgb(9, 9, 9)"  x="7" y="11" width="1" height="1" /><rect shape-rendering="crispEdges" fill="rgb(10, 10, 10)"  x="7" y="12" width="1" height="1" /><rect shape-rendering="crispEdges" fill="rgb(9, 9, 9)"  x="7" y="13" width="1" height="1" /><rect shape-rendering="crispEdges" fill="rgb(5, 5, 5)"  x="7" y="14" width="1" height="1" /><rect shape-rendering="crispEdges" fill="rgb(5, 5, 5)"  x="7" y="15" width="1" height="1" /><rect shape-rendering="crispEdges" fill="rgb(95, 95, 95)"  x="7" y="16" width="1" height="1" /><rect shape-rendering="crispEdges" fill="rgb(93, 93, 93)"  x="7" y="17" width="1" height="1" /><rect shape-rendering="crispEdges" fill="rgb(80, 80, 80)"  x="7" y="18" width="1" height="1" /><rect shape-rendering="crispEdges" fill="rgb(47, 47, 47)"  x="7" y="19" width="1" height="1" /><rect shape-rendering="crispEdges" fill="rgb(1, 1, 1)"  x="7" y="20" width="1" height="1" /><rect shape-rendering="crispEdges" fill="rgb(3, 3, 3)"  x="7" y="25" width="1" height="1" /><rect shape-rendering="crispEdges" fill="rgb(2, 2, 2)"  x="7" y="26" width="1" height="1" /><rect shape-rendering="crispEdges" fill="rgb(1, 1, 1)"  x="7" y="27" width="1" height="1" /><rect shape-rendering="crispEdges" fill="rgb(1, 1, 1)"  x="7" y="28" width="1" height="1" /><rect shape-rendering="crispEdges" fill="rgb(20, 20, 20)"  x="8" y="5" width="1" height="1" /><rect shape-rendering="crispEdges" fill="rgb(20, 20, 20)"  x="8" y="6" width="1" height="1" /><rect shape-rendering="crispEdges" fill="rgb(20, 20, 20)"  x="8" y="7" width="1" height="1" /><rect shape-rendering="crispEdges" fill="rgb(20, 20, 20)"  x="8" y="8" width="1" height="1" /><rect shape-rendering="crispEdges" fill="rgb(20, 20, 20)"  x="8" y="9" width="1" height="1" /><rect shape-rendering="crispEdges" fill="rgb(101, 101, 101)"  x="8" y="10" width="1" height="1" /><rect shape-rendering="crispEdges" fill="rgb(109, 109, 109)"  x="8" y="11" width="1" height="1" /><rect shape-rendering="crispEdges" fill="rgb(109, 109, 109)"  x="8" y="12" width="1" height="1" /><rect shape-rendering="crispEdges" fill="rgb(114, 114, 114)"  x="8" y="13" width="1" height="1" /><rect shape-rendering="crispEdges" fill="rgb(114, 114, 114)"  x="8" y="14" width="1" height="1" /><rect shape-rendering="crispEdges" fill="rgb(114, 114, 114)"  x="8" y="15" width="1" height="1" /><rect shape-rendering="crispEdges" fill="rgb(103, 103, 103)"  x="8" y="16" width="1" height="1" /><rect shape-rendering="crispEdges" fill="rgb(71, 71, 71)"  x="8" y="17" width="1" height="1" /><rect shape-rendering="crispEdges" fill="rgb(47, 47, 47)"  x="8" y="18" width="1" height="1" /><rect shape-rendering="crispEdges" fill="rgb(29, 29, 29)"  x="8" y="19" width="1" height="1" /><rect shape-rendering="crispEdges" fill="rgb(3, 3, 3)"  x="8" y="20" width="1" height="1" /><rect shape-rendering="crispEdges" fill="rgb(1, 1, 1)"  x="8" y="22" width="1" height="1" /><rect shape-rendering="crispEdges" fill="rgb(3, 3, 3)"  x="8" y="23" width="1" height="1" /><rect shape-rendering="crispEdges" fill="rgb(4, 4, 4)"  x="8" y="24" width="1" height="1" /><rect shape-rendering="crispEdges" fill="rgb(27, 27, 27)"  x="8" y="25" width="1" height="1" /><rect shape-rendering="crispEdges" fill="rgb(29, 29, 29)"  x="8" y="26" width="1" height="1" /><rect shape-rendering="crispEdges" fill="rgb(6, 6, 6)"  x="8" y="27" width="1" height="1" /><rect shape-rendering="crispEdges" fill="rgb(1, 1, 1)"  x="8" y="28" width="1" height="1" /><rect shape-rendering="crispEdges" fill="rgb(20, 20, 20)"  x="9" y="4" width="1" height="1" /><rect shape-rendering="crispEdges" fill="rgb(62, 62, 62)"  x="9" y="5" width="1" height="1" /><rect shape-rendering="crispEdges" fill="rgb(71, 71, 71)"  x="9" y="6" width="1" height="1" /><rect shape-rendering="crispEdges" fill="rgb(71, 71, 71)"  x="9" y="7" width="1" height="1" /><rect shape-rendering="crispEdges" fill="rgb(5, 5, 5)"  x="9" y="8" width="1" height="1" /><rect shape-rendering="crispEdges" fill="rgb(64, 64, 64)"  x="9" y="9" width="1" height="1" /><rect shape-rendering="crispEdges" fill="rgb(80, 80, 80)"  x="9" y="10" width="1" height="1" /><rect shape-rendering="crispEdges" fill="rgb(80, 80, 80)"  x="9" y="11" width="1" height="1" /><rect shape-rendering="crispEdges" fill="rgb(57, 57, 57)"  x="9" y="12" width="1" height="1" /><rect shape-rendering="crispEdges" fill="rgb(47, 47, 47)"  x="9" y="13" width="1" height="1" /><rect shape-rendering="crispEdges" fill="rgb(47, 47, 47)"  x="9" y="14" width="1" height="1" /><rect shape-rendering="crispEdges" fill="rgb(34, 34, 34)"  x="9" y="15" width="1" height="1" /><rect shape-rendering="crispEdges" fill="rgb(29, 29, 29)"  x="9" y="16" width="1" height="1" /><rect shape-rendering="crispEdges" fill="rgb(27, 27, 27)"  x="9" y="17" width="1" height="1" /><rect shape-rendering="crispEdges" fill="rgb(25, 25, 25)"  x="9" y="18" width="1" height="1" /><rect shape-rendering="crispEdges" fill="rgb(25, 25, 25)"  x="9" y="19" width="1" height="1" /><rect shape-rendering="crispEdges" fill="rgb(2, 2, 2)"  x="9" y="20" width="1" height="1" /><rect shape-rendering="crispEdges" fill="rgb(4, 4, 4)"  x="9" y="21" width="1" height="1" /><rect shape-rendering="crispEdges" fill="rgb(45, 45, 45)"  x="9" y="22" width="1" height="1" /><rect shape-rendering="crispEdges" fill="rgb(47, 47, 47)"  x="9" y="23" width="1" height="1" /><rect shape-rendering="crispEdges" fill="rgb(47, 47, 47)"  x="9" y="24" width="1" height="1" /><rect shape-rendering="crispEdges" fill="rgb(32, 32, 32)"  x="9" y="25" width="1" height="1" /><rect shape-rendering="crispEdges" fill="rgb(1, 1, 1)"  x="9" y="26" width="1" height="1" /><rect shape-rendering="crispEdges" fill="rgb(1, 1, 1)"  x="9" y="27" width="1" height="1" /><rect shape-rendering="crispEdges" fill="rgb(1, 1, 1)"  x="9" y="28" width="1" height="1" /><rect shape-rendering="crispEdges" fill="rgb(1, 1, 1)"  x="9" y="29" width="1" height="1" /><rect shape-rendering="crispEdges" fill="rgb(20, 20, 20)"  x="10" y="4" width="1" height="1" /><rect shape-rendering="crispEdges" fill="rgb(1, 1, 1)"  x="10" y="5" width="1" height="1" /><rect shape-rendering="crispEdges" fill="rgb(1, 1, 1)"  x="10" y="6" width="1" height="1" /><rect shape-rendering="crispEdges" fill="rgb(89, 89, 89)"  x="10" y="7" width="1" height="1" /><rect shape-rendering="crispEdges" fill="rgb(109, 109, 109)"  x="10" y="8" width="1" height="1" /><rect shape-rendering="crispEdges" fill="rgb(4, 4, 4)"  x="10" y="9" width="1" height="1" /><rect shape-rendering="crispEdges" fill="rgb(4, 4, 4)"  x="10" y="10" width="1" height="1" /><rect shape-rendering="crispEdges" fill="rgb(4, 4, 4)"  x="10" y="11" width="1" height="1" /><rect shape-rendering="crispEdges" fill="rgb(4, 4, 4)"  x="10" y="12" width="1" height="1" /><rect shape-rendering="crispEdges" fill="rgb(4, 4, 4)"  x="10" y="13" width="1" height="1" /><rect shape-rendering="crispEdges" fill="rgb(1, 1, 1)"  x="10" y="14" width="1" height="1" /><rect shape-rendering="crispEdges" fill="rgb(1, 1, 1)"  x="10" y="15" width="1" height="1" /><rect shape-rendering="crispEdges" fill="rgb(1, 1, 1)"  x="10" y="16" width="1" height="1" /><rect shape-rendering="crispEdges" fill="rgb(2, 2, 2)"  x="10" y="17" width="1" height="1" /><rect shape-rendering="crispEdges" fill="rgb(1, 1, 1)"  x="10" y="18" width="1" height="1" /><rect shape-rendering="crispEdges" fill="rgb(1, 1, 1)"  x="10" y="19" width="1" height="1" /><rect shape-rendering="crispEdges" fill="rgb(80, 80, 80)"  x="10" y="20" width="1" height="1" /><rect shape-rendering="crispEdges" fill="rgb(57, 57, 57)"  x="10" y="21" width="1" height="1" /><rect shape-rendering="crispEdges" fill="rgb(47, 47, 47)"  x="10" y="22" width="1" height="1" /><rect shape-rendering="crispEdges" fill="rgb(47, 47, 47)"  x="10" y="23" width="1" height="1" /><rect shape-rendering="crispEdges" fill="rgb(32, 32, 32)"  x="10" y="24" width="1" height="1" /><rect shape-rendering="crispEdges" fill="rgb(1, 1, 1)"  x="10" y="25" width="1" height="1" /><rect shape-rendering="crispEdges" fill="rgb(50, 50, 50)"  x="10" y="26" width="1" height="1" /><rect shape-rendering="crispEdges" fill="rgb(109, 109, 109)"  x="10" y="27" width="1" height="1" /><rect shape-rendering="crispEdges" fill="rgb(99, 99, 99)"  x="10" y="28" width="1" height="1" /><rect shape-rendering="crispEdges" fill="rgb(105, 104, 104)"  x="10" y="29" width="1" height="1" /><rect shape-rendering="crispEdges" fill="rgb(20, 20, 20)"  x="11" y="3" width="1" height="1" /><rect shape-rendering="crispEdges" fill="rgb(87, 87, 87)"  x="11" y="4" width="1" height="1" /><rect shape-rendering="crispEdges" fill="rgb(99, 99, 99)"  x="11" y="5" width="1" height="1" /><rect shape-rendering="crispEdges" fill="rgb(89, 89, 89)"  x="11" y="6" width="1" height="1" /><rect shape-rendering="crispEdges" fill="rgb(1, 1, 1)"  x="11" y="7" width="1" height="1" /><rect shape-rendering="crispEdges" fill="rgb(1, 1, 1)"  x="11" y="8" width="1" height="1" /><rect shape-rendering="crispEdges" fill="rgb(99, 99, 99)"  x="11" y="9" width="1" height="1" /><rect shape-rendering="crispEdges" fill="rgb(114, 114, 114)"  x="11" y="10" width="1" height="1" /><rect shape-rendering="crispEdges" fill="rgb(103, 103, 103)"  x="11" y="11" width="1" height="1" /><rect shape-rendering="crispEdges" fill="rgb(71, 71, 71)"  x="11" y="12" width="1" height="1" /><rect shape-rendering="crispEdges" fill="rgb(50, 50, 50)"  x="11" y="13" width="1" height="1" /><rect shape-rendering="crispEdges" fill="rgb(43, 43, 43)"  x="11" y="14" width="1" height="1" /><rect shape-rendering="crispEdges" fill="rgb(43, 43, 43)"  x="11" y="15" width="1" height="1" /><rect shape-rendering="crispEdges" fill="rgb(47, 47, 47)"  x="11" y="16" width="1" height="1" /><rect shape-rendering="crispEdges" fill="rgb(71, 71, 71)"  x="11" y="17" width="1" height="1" /><rect shape-rendering="crispEdges" fill="rgb(114, 114, 114)"  x="11" y="18" width="1" height="1" /><rect shape-rendering="crispEdges" fill="rgb(126, 126, 126)"  x="11" y="19" width="1" height="1" /><rect shape-rendering="crispEdges" fill="rgb(114, 114, 114)"  x="11" y="20" width="1" height="1" /><rect shape-rendering="crispEdges" fill="rgb(89, 89, 89)"  x="11" y="21" width="1" height="1" /><rect shape-rendering="crispEdges" fill="rgb(76, 76, 76)"  x="11" y="22" width="1" height="1" /><rect shape-rendering="crispEdges" fill="rgb(32, 32, 32)"  x="11" y="23" width="1" height="1" /><rect shape-rendering="crispEdges" fill="rgb(1, 1, 1)"  x="11" y="24" width="1" height="1" /><rect shape-rendering="crispEdges" fill="rgb(64, 64, 64)"  x="11" y="25" width="1" height="1" /><rect shape-rendering="crispEdges" fill="rgb(99, 99, 99)"  x="11" y="26" width="1" height="1" /><rect shape-rendering="crispEdges" fill="rgb(93, 93, 93)"  x="11" y="27" width="1" height="1" /><rect shape-rendering="crispEdges" fill="rgb(99, 99, 99)"  x="11" y="28" width="1" height="1" /><rect shape-rendering="crispEdges" fill="rgb(113, 112, 112)"  x="11" y="29" width="1" height="1" /><rect shape-rendering="crispEdges" fill="rgb(20, 20, 20)"  x="12" y="2" width="1" height="1" /><rect shape-rendering="crispEdges" fill="rgb(0, 0, 0)"  x="12" y="3" width="1" height="1" /><rect shape-rendering="crispEdges" fill="rgb(1, 1, 1)"  x="12" y="4" width="1" height="1" /><rect shape-rendering="crispEdges" fill="rgb(103, 103, 103)"  x="12" y="5" width="1" height="1" /><rect shape-rendering="crispEdges" fill="rgb(120, 120, 120)"  x="12" y="6" width="1" height="1" /><rect shape-rendering="crispEdges" fill="rgb(93, 93, 93)"  x="12" y="7" width="1" height="1" /><rect shape-rendering="crispEdges" fill="rgb(103, 103, 103)"  x="12" y="8" width="1" height="1" /><rect shape-rendering="crispEdges" fill="rgb(1, 1, 1)"  x="12" y="9" width="1" height="1" /><rect shape-rendering="crispEdges" fill="rgb(71, 71, 71)"  x="12" y="10" width="1" height="1" /><rect shape-rendering="crispEdges" fill="rgb(89, 89, 89)"  x="12" y="11" width="1" height="1" /><rect shape-rendering="crispEdges" fill="rgb(114, 114, 114)"  x="12" y="12" width="1" height="1" /><rect shape-rendering="crispEdges" fill="rgb(103, 103, 103)"  x="12" y="13" width="1" height="1" /><rect shape-rendering="crispEdges" fill="rgb(89, 89, 89)"  x="12" y="14" width="1" height="1" /><rect shape-rendering="crispEdges" fill="rgb(80, 80, 80)"  x="12" y="15" width="1" height="1" /><rect shape-rendering="crispEdges" fill="rgb(99, 99, 99)"  x="12" y="16" width="1" height="1" /><rect shape-rendering="crispEdges" fill="rgb(114, 114, 114)"  x="12" y="17" width="1" height="1" /><rect shape-rendering="crispEdges" fill="rgb(114, 114, 114)"  x="12" y="18" width="1" height="1" /><rect shape-rendering="crispEdges" fill="rgb(109, 109, 109)"  x="12" y="19" width="1" height="1" /><rect shape-rendering="crispEdges" fill="rgb(80, 80, 80)"  x="12" y="20" width="1" height="1" /><rect shape-rendering="crispEdges" fill="rgb(43, 43, 43)"  x="12" y="21" width="1" height="1" /><rect shape-rendering="crispEdges" fill="rgb(23, 23, 23)"  x="12" y="22" width="1" height="1" /><rect shape-rendering="crispEdges" fill="rgb(2, 2, 2)"  x="12" y="23" width="1" height="1" /><rect shape-rendering="crispEdges" fill="rgb(99, 99, 99)"  x="12" y="24" width="1" height="1" /><rect shape-rendering="crispEdges" fill="rgb(89, 89, 89)"  x="12" y="25" width="1" height="1" /><rect shape-rendering="crispEdges" fill="rgb(40, 40, 40)"  x="12" y="26" width="1" height="1" /><rect shape-rendering="crispEdges" fill="rgb(34, 34, 34)"  x="12" y="27" width="1" height="1" /><rect shape-rendering="crispEdges" fill="rgb(50, 50, 50)"  x="12" y="28" width="1" height="1" /><rect shape-rendering="crispEdges" fill="rgb(62, 62, 62)"  x="12" y="29" width="1" height="1" /><rect shape-rendering="crispEdges" fill="rgb(0, 0, 0)"  x="13" y="2" width="1" height="1" /><rect shape-rendering="crispEdges" fill="rgb(103, 103, 103)"  x="13" y="3" width="1" height="1" /><rect shape-rendering="crispEdges" fill="rgb(71, 71, 71)"  x="13" y="4" width="1" height="1" /><rect shape-rendering="crispEdges" fill="rgb(3, 3, 3)"  x="13" y="5" width="1" height="1" /><rect shape-rendering="crispEdges" fill="rgb(1, 1, 1)"  x="13" y="6" width="1" height="1" /><rect shape-rendering="crispEdges" fill="rgb(0, 0, 0)"  x="13" y="7" width="1" height="1" /><rect shape-rendering="crispEdges" fill="rgb(0, 0, 0)"  x="13" y="8" width="1" height="1" /><rect shape-rendering="crispEdges" fill="rgb(0, 0, 0)"  x="13" y="9" width="1" height="1" /><rect shape-rendering="crispEdges" fill="rgb(0, 0, 0)"  x="13" y="10" width="1" height="1" /><rect shape-rendering="crispEdges" fill="rgb(9, 9, 9)"  x="13" y="11" width="1" height="1" /><rect shape-rendering="crispEdges" fill="rgb(10, 10, 10)"  x="13" y="12" width="1" height="1" /><rect shape-rendering="crispEdges" fill="rgb(10, 10, 10)"  x="13" y="13" width="1" height="1" /><rect shape-rendering="crispEdges" fill="rgb(11, 11, 11)"  x="13" y="14" width="1" height="1" /><rect shape-rendering="crispEdges" fill="rgb(4, 4, 4)"  x="13" y="15" width="1" height="1" /><rect shape-rendering="crispEdges" fill="rgb(9, 9, 9)"  x="13" y="16" width="1" height="1" /><rect shape-rendering="crispEdges" fill="rgb(5, 5, 5)"  x="13" y="17" width="1" height="1" /><rect shape-rendering="crispEdges" fill="rgb(3, 3, 3)"  x="13" y="18" width="1" height="1" /><rect shape-rendering="crispEdges" fill="rgb(0, 0, 0)"  x="13" y="19" width="1" height="1" /><rect shape-rendering="crispEdges" fill="rgb(0, 0, 0)"  x="13" y="20" width="1" height="1" /><rect shape-rendering="crispEdges" fill="rgb(0, 0, 0)"  x="13" y="21" width="1" height="1" /><rect shape-rendering="crispEdges" fill="rgb(0, 0, 0)"  x="13" y="22" width="1" height="1" /><rect shape-rendering="crispEdges" fill="rgb(47, 47, 47)"  x="13" y="23" width="1" height="1" /><rect shape-rendering="crispEdges" fill="rgb(67, 67, 67)"  x="13" y="24" width="1" height="1" /><rect shape-rendering="crispEdges" fill="rgb(40, 40, 40)"  x="13" y="25" width="1" height="1" /><rect shape-rendering="crispEdges" fill="rgb(34, 34, 34)"  x="13" y="26" width="1" height="1" /><rect shape-rendering="crispEdges" fill="rgb(40, 40, 40)"  x="13" y="27" width="1" height="1" /><rect shape-rendering="crispEdges" fill="rgb(47, 47, 47)"  x="13" y="28" width="1" height="1" /><rect shape-rendering="crispEdges" fill="rgb(42, 42, 42)"  x="13" y="29" width="1" height="1" /><rect shape-rendering="crispEdges" fill="rgb(0, 0, 0)"  x="14" y="2" width="1" height="1" /><rect shape-rendering="crispEdges" fill="rgb(0, 0, 0)"  x="14" y="3" width="1" height="1" /><rect shape-rendering="crispEdges" fill="rgb(23, 23, 23)"  x="14" y="4" width="1" height="1" /><rect shape-rendering="crispEdges" fill="rgb(0, 0, 0)"  x="14" y="5" width="1" height="1" /><rect shape-rendering="crispEdges" fill="rgb(43, 43, 43)"  x="14" y="6" width="1" height="1" /><rect shape-rendering="crispEdges" fill="rgb(20, 20, 20)"  x="14" y="7" width="1" height="1" /><rect shape-rendering="crispEdges" fill="rgb(11, 11, 11)"  x="14" y="8" width="1" height="1" /><rect shape-rendering="crispEdges" fill="rgb(6, 6, 6)"  x="14" y="9" width="1" height="1" /><rect shape-rendering="crispEdges" fill="rgb(0, 0, 0)"  x="14" y="10" width="1" height="1" /><rect shape-rendering="crispEdges" fill="rgb(40, 40, 40)"  x="14" y="11" width="1" height="1" /><rect shape-rendering="crispEdges" fill="rgb(60, 60, 60)"  x="14" y="12" width="1" height="1" /><rect shape-rendering="crispEdges" fill="rgb(71, 71, 71)"  x="14" y="13" width="1" height="1" /><rect shape-rendering="crispEdges" fill="rgb(80, 80, 80)"  x="14" y="14" width="1" height="1" /><rect shape-rendering="crispEdges" fill="rgb(80, 80, 80)"  x="14" y="15" width="1" height="1" /><rect shape-rendering="crispEdges" fill="rgb(80, 80, 80)"  x="14" y="16" width="1" height="1" /><rect shape-rendering="crispEdges" fill="rgb(76, 76, 76)"  x="14" y="17" width="1" height="1" /><rect shape-rendering="crispEdges" fill="rgb(71, 71, 71)"  x="14" y="18" width="1" height="1" /><rect shape-rendering="crispEdges" fill="rgb(71, 71, 71)"  x="14" y="19" width="1" height="1" /><rect shape-rendering="crispEdges" fill="rgb(37, 37, 37)"  x="14" y="20" width="1" height="1" /><rect shape-rendering="crispEdges" fill="rgb(0, 0, 0)"  x="14" y="21" width="1" height="1" /><rect shape-rendering="crispEdges" fill="rgb(29, 29, 29)"  x="14" y="22" width="1" height="1" /><rect shape-rendering="crispEdges" fill="rgb(11, 11, 11)"  x="14" y="23" width="1" height="1" /><rect shape-rendering="crispEdges" fill="rgb(16, 16, 16)"  x="14" y="24" width="1" height="1" /><rect shape-rendering="crispEdges" fill="rgb(27, 27, 27)"  x="14" y="25" width="1" height="1" /><rect shape-rendering="crispEdges" fill="rgb(25, 25, 25)"  x="14" y="26" width="1" height="1" /><rect shape-rendering="crispEdges" fill="rgb(20, 20, 20)"  x="14" y="27" width="1" height="1" /><rect shape-rendering="crispEdges" fill="rgb(1, 1, 1)"  x="14" y="28" width="1" height="1" /><rect shape-rendering="crispEdges" fill="rgb(1, 1, 1)"  x="14" y="29" width="1" height="1" /><rect shape-rendering="crispEdges" fill="rgb(0, 0, 0)"  x="15" y="2" width="1" height="1" /><rect shape-rendering="crispEdges" fill="rgb(0, 0, 0)"  x="15" y="3" width="1" height="1" /><rect shape-rendering="crispEdges" fill="rgb(0, 0, 0)"  x="15" y="4" width="1" height="1" /><rect shape-rendering="crispEdges" fill="rgb(40, 40, 40)"  x="15" y="5" width="1" height="1" /><rect shape-rendering="crispEdges" fill="rgb(67, 67, 67)"  x="15" y="6" width="1" height="1" /><rect shape-rendering="crispEdges" fill="rgb(43, 43, 43)"  x="15" y="7" width="1" height="1" /><rect shape-rendering="crispEdges" fill="rgb(13, 13, 13)"  x="15" y="8" width="1" height="1" /><rect shape-rendering="crispEdges" fill="rgb(10, 10, 10)"  x="15" y="9" width="1" height="1" /><rect shape-rendering="crispEdges" fill="rgb(25, 25, 25)"  x="15" y="10" width="1" height="1" /><rect shape-rendering="crispEdges" fill="rgb(1, 1, 1)"  x="15" y="11" width="1" height="1" /><rect shape-rendering="crispEdges" fill="rgb(4, 4, 4)"  x="15" y="12" width="1" height="1" /><rect shape-rendering="crispEdges" fill="rgb(149, 149, 149)"  x="15" y="13" width="1" height="1" /><rect shape-rendering="crispEdges" fill="rgb(3, 3, 3)"  x="15" y="14" width="1" height="1" /><rect shape-rendering="crispEdges" fill="rgb(149, 149, 149)"  x="15" y="15" width="1" height="1" /><rect shape-rendering="crispEdges" fill="rgb(3, 3, 3)"  x="15" y="16" width="1" height="1" /><rect shape-rendering="crispEdges" fill="rgb(149, 149, 149)"  x="15" y="17" width="1" height="1" /><rect shape-rendering="crispEdges" fill="rgb(2, 2, 2)"  x="15" y="18" width="1" height="1" /><rect shape-rendering="crispEdges" fill="rgb(149, 149, 149)"  x="15" y="19" width="1" height="1" /><rect shape-rendering="crispEdges" fill="rgb(1, 1, 1)"  x="15" y="20" width="1" height="1" /><rect shape-rendering="crispEdges" fill="rgb(40, 40, 40)"  x="15" y="21" width="1" height="1" /><rect shape-rendering="crispEdges" fill="rgb(23, 23, 23)"  x="15" y="22" width="1" height="1" /><rect shape-rendering="crispEdges" fill="rgb(2, 2, 2)"  x="15" y="23" width="1" height="1" /><rect shape-rendering="crispEdges" fill="rgb(3, 3, 3)"  x="15" y="24" width="1" height="1" /><rect shape-rendering="crispEdges" fill="rgb(4, 4, 4)"  x="15" y="25" width="1" height="1" /><rect shape-rendering="crispEdges" fill="rgb(1, 1, 1)"  x="15" y="26" width="1" height="1" /><rect shape-rendering="crispEdges" fill="rgb(1, 1, 1)"  x="15" y="27" width="1" height="1" /><rect shape-rendering="crispEdges" fill="rgb(0, 0, 0)"  x="16" y="2" width="1" height="1" /><rect shape-rendering="crispEdges" fill="rgb(0, 0, 0)"  x="16" y="3" width="1" height="1" /><rect shape-rendering="crispEdges" fill="rgb(13, 13, 13)"  x="16" y="4" width="1" height="1" /><rect shape-rendering="crispEdges" fill="rgb(16, 16, 16)"  x="16" y="5" width="1" height="1" /><rect shape-rendering="crispEdges" fill="rgb(43, 43, 43)"  x="16" y="6" width="1" height="1" /><rect shape-rendering="crispEdges" fill="rgb(23, 23, 23)"  x="16" y="7" width="1" height="1" /><rect shape-rendering="crispEdges" fill="rgb(43, 39, 35)"  x="16" y="8" width="1" height="1" /><rect shape-rendering="crispEdges" fill="rgb(27, 30, 20)"  x="16" y="9" width="1" height="1" /><rect shape-rendering="crispEdges" fill="rgb(27, 30, 20)"  x="16" y="10" width="1" height="1" /><rect shape-rendering="crispEdges" fill="rgb(34, 34, 34)"  x="16" y="11" width="1" height="1" /><rect shape-rendering="crispEdges" fill="rgb(32, 32, 32)"  x="16" y="12" width="1" height="1" /><rect shape-rendering="crispEdges" fill="rgb(50, 50, 50)"  x="16" y="13" width="1" height="1" /><rect shape-rendering="crispEdges" fill="rgb(50, 50, 50)"  x="16" y="14" width="1" height="1" /><rect shape-rendering="crispEdges" fill="rgb(53, 53, 53)"  x="16" y="15" width="1" height="1" /><rect shape-rendering="crispEdges" fill="rgb(43, 43, 43)"  x="16" y="16" width="1" height="1" /><rect shape-rendering="crispEdges" fill="rgb(47, 47, 47)"  x="16" y="17" width="1" height="1" /><rect shape-rendering="crispEdges" fill="rgb(47, 47, 47)"  x="16" y="18" width="1" height="1" /><rect shape-rendering="crispEdges" fill="rgb(71, 71, 71)"  x="16" y="19" width="1" height="1" /><rect shape-rendering="crispEdges" fill="rgb(71, 71, 71)"  x="16" y="20" width="1" height="1" /><rect shape-rendering="crispEdges" fill="rgb(1, 1, 1)"  x="16" y="21" width="1" height="1" /><rect shape-rendering="crispEdges" fill="rgb(47, 47, 47)"  x="16" y="22" width="1" height="1" /><rect shape-rendering="crispEdges" fill="rgb(25, 25, 25)"  x="16" y="23" width="1" height="1" /><rect shape-rendering="crispEdges" fill="rgb(29, 29, 29)"  x="16" y="24" width="1" height="1" /><rect shape-rendering="crispEdges" fill="rgb(29, 29, 29)"  x="16" y="25" width="1" height="1" /><rect shape-rendering="crispEdges" fill="rgb(40, 40, 40)"  x="16" y="26" width="1" height="1" /><rect shape-rendering="crispEdges" fill="rgb(25, 25, 25)"  x="16" y="27" width="1" height="1" /><rect shape-rendering="crispEdges" fill="rgb(1, 1, 1)"  x="16" y="28" width="1" height="1" /><rect shape-rendering="crispEdges" fill="rgb(1, 1, 1)"  x="16" y="29" width="1" height="1" /><rect shape-rendering="crispEdges" fill="rgb(1, 0, 0)"  x="17" y="2" width="1" height="1" /><rect shape-rendering="crispEdges" fill="rgb(99, 99, 99)"  x="17" y="3" width="1" height="1" /><rect shape-rendering="crispEdges" fill="rgb(114, 114, 114)"  x="17" y="4" width="1" height="1" /><rect shape-rendering="crispEdges" fill="rgb(11, 11, 11)"  x="17" y="5" width="1" height="1" /><rect shape-rendering="crispEdges" fill="rgb(92, 77, 36)"  x="17" y="6" width="1" height="1" /><rect shape-rendering="crispEdges" fill="rgb(137, 114, 53)"  x="17" y="7" width="1" height="1" /><rect shape-rendering="crispEdges" fill="rgb(65, 81, 28)"  x="17" y="8" width="1" height="1" /><rect shape-rendering="crispEdges" fill="rgb(63, 77, 31)"  x="17" y="9" width="1" height="1" /><rect shape-rendering="crispEdges" fill="rgb(53, 49, 25)"  x="17" y="10" width="1" height="1" /><rect shape-rendering="crispEdges" fill="rgb(1, 1, 1)"  x="17" y="11" width="1" height="1" /><rect shape-rendering="crispEdges" fill="rgb(18, 18, 18)"  x="17" y="12" width="1" height="1" /><rect shape-rendering="crispEdges" fill="rgb(20, 20, 20)"  x="17" y="13" width="1" height="1" /><rect shape-rendering="crispEdges" fill="rgb(20, 20, 20)"  x="17" y="14" width="1" height="1" /><rect shape-rendering="crispEdges" fill="rgb(8, 8, 8)"  x="17" y="15" width="1" height="1" /><rect shape-rendering="crispEdges" fill="rgb(8, 8, 8)"  x="17" y="16" width="1" height="1" /><rect shape-rendering="crispEdges" fill="rgb(4, 4, 4)"  x="17" y="17" width="1" height="1" /><rect shape-rendering="crispEdges" fill="rgb(2, 2, 2)"  x="17" y="18" width="1" height="1" /><rect shape-rendering="crispEdges" fill="rgb(1, 1, 1)"  x="17" y="19" width="1" height="1" /><rect shape-rendering="crispEdges" fill="rgb(0, 0, 0)"  x="17" y="20" width="1" height="1" /><rect shape-rendering="crispEdges" fill="rgb(0, 0, 0)"  x="17" y="21" width="1" height="1" /><rect shape-rendering="crispEdges" fill="rgb(0, 0, 0)"  x="17" y="22" width="1" height="1" /><rect shape-rendering="crispEdges" fill="rgb(50, 50, 50)"  x="17" y="23" width="1" height="1" /><rect shape-rendering="crispEdges" fill="rgb(80, 80, 80)"  x="17" y="24" width="1" height="1" /><rect shape-rendering="crispEdges" fill="rgb(29, 29, 29)"  x="17" y="25" width="1" height="1" /><rect shape-rendering="crispEdges" fill="rgb(29, 29, 29)"  x="17" y="26" width="1" height="1" /><rect shape-rendering="crispEdges" fill="rgb(40, 40, 40)"  x="17" y="27" width="1" height="1" /><rect shape-rendering="crispEdges" fill="rgb(43, 43, 43)"  x="17" y="28" width="1" height="1" /><rect shape-rendering="crispEdges" fill="rgb(34, 34, 34)"  x="17" y="29" width="1" height="1" /><rect shape-rendering="crispEdges" fill="rgb(20, 20, 20)"  x="18" y="2" width="1" height="1" /><rect shape-rendering="crispEdges" fill="rgb(1, 1, 1)"  x="18" y="3" width="1" height="1" /><rect shape-rendering="crispEdges" fill="rgb(2, 2, 2)"  x="18" y="4" width="1" height="1" /><rect shape-rendering="crispEdges" fill="rgb(1, 1, 1)"  x="18" y="5" width="1" height="1" /><rect shape-rendering="crispEdges" fill="rgb(106, 97, 62)"  x="18" y="6" width="1" height="1" /><rect shape-rendering="crispEdges" fill="rgb(128, 109, 66)"  x="18" y="7" width="1" height="1" /><rect shape-rendering="crispEdges" fill="rgb(141, 118, 53)"  x="18" y="8" width="1" height="1" /><rect shape-rendering="crispEdges" fill="rgb(49, 43, 16)"  x="18" y="9" width="1" height="1" /><rect shape-rendering="crispEdges" fill="rgb(105, 103, 100)"  x="18" y="10" width="1" height="1" /><rect shape-rendering="crispEdges" fill="rgb(114, 114, 114)"  x="18" y="11" width="1" height="1" /><rect shape-rendering="crispEdges" fill="rgb(114, 114, 114)"  x="18" y="12" width="1" height="1" /><rect shape-rendering="crispEdges" fill="rgb(109, 109, 109)"  x="18" y="13" width="1" height="1" /><rect shape-rendering="crispEdges" fill="rgb(114, 114, 114)"  x="18" y="14" width="1" height="1" /><rect shape-rendering="crispEdges" fill="rgb(114, 114, 114)"  x="18" y="15" width="1" height="1" /><rect shape-rendering="crispEdges" fill="rgb(114, 114, 114)"  x="18" y="16" width="1" height="1" /><rect shape-rendering="crispEdges" fill="rgb(114, 114, 114)"  x="18" y="17" width="1" height="1" /><rect shape-rendering="crispEdges" fill="rgb(114, 114, 114)"  x="18" y="18" width="1" height="1" /><rect shape-rendering="crispEdges" fill="rgb(120, 120, 120)"  x="18" y="19" width="1" height="1" /><rect shape-rendering="crispEdges" fill="rgb(126, 126, 126)"  x="18" y="20" width="1" height="1" /><rect shape-rendering="crispEdges" fill="rgb(114, 114, 114)"  x="18" y="21" width="1" height="1" /><rect shape-rendering="crispEdges" fill="rgb(50, 50, 50)"  x="18" y="22" width="1" height="1" /><rect shape-rendering="crispEdges" fill="rgb(1, 1, 1)"  x="18" y="23" width="1" height="1" /><rect shape-rendering="crispEdges" fill="rgb(64, 64, 64)"  x="18" y="24" width="1" height="1" /><rect shape-rendering="crispEdges" fill="rgb(71, 71, 71)"  x="18" y="25" width="1" height="1" /><rect shape-rendering="crispEdges" fill="rgb(34, 34, 34)"  x="18" y="26" width="1" height="1" /><rect shape-rendering="crispEdges" fill="rgb(40, 40, 40)"  x="18" y="27" width="1" height="1" /><rect shape-rendering="crispEdges" fill="rgb(53, 53, 53)"  x="18" y="28" width="1" height="1" /><rect shape-rendering="crispEdges" fill="rgb(59, 58, 58)"  x="18" y="29" width="1" height="1" /><rect shape-rendering="crispEdges" fill="rgb(20, 20, 20)"  x="19" y="3" width="1" height="1" /><rect shape-rendering="crispEdges" fill="rgb(103, 103, 103)"  x="19" y="4" width="1" height="1" /><rect shape-rendering="crispEdges" fill="rgb(126, 126, 126)"  x="19" y="5" width="1" height="1" /><rect shape-rendering="crispEdges" fill="rgb(89, 89, 89)"  x="19" y="6" width="1" height="1" /><rect shape-rendering="crispEdges" fill="rgb(57, 57, 54)"  x="19" y="7" width="1" height="1" /><rect shape-rendering="crispEdges" fill="rgb(23, 22, 19)"  x="19" y="8" width="1" height="1" /><rect shape-rendering="crispEdges" fill="rgb(99, 99, 99)"  x="19" y="9" width="1" height="1" /><rect shape-rendering="crispEdges" fill="rgb(126, 126, 126)"  x="19" y="10" width="1" height="1" /><rect shape-rendering="crispEdges" fill="rgb(114, 114, 114)"  x="19" y="11" width="1" height="1" /><rect shape-rendering="crispEdges" fill="rgb(80, 80, 80)"  x="19" y="12" width="1" height="1" /><rect shape-rendering="crispEdges" fill="rgb(53, 53, 53)"  x="19" y="13" width="1" height="1" /><rect shape-rendering="crispEdges" fill="rgb(40, 40, 40)"  x="19" y="14" width="1" height="1" /><rect shape-rendering="crispEdges" fill="rgb(53, 53, 53)"  x="19" y="15" width="1" height="1" /><rect shape-rendering="crispEdges" fill="rgb(77, 77, 77)"  x="19" y="16" width="1" height="1" /><rect shape-rendering="crispEdges" fill="rgb(103, 103, 103)"  x="19" y="17" width="1" height="1" /><rect shape-rendering="crispEdges" fill="rgb(126, 126, 126)"  x="19" y="18" width="1" height="1" /><rect shape-rendering="crispEdges" fill="rgb(126, 126, 126)"  x="19" y="19" width="1" height="1" /><rect shape-rendering="crispEdges" fill="rgb(126, 126, 126)"  x="19" y="20" width="1" height="1" /><rect shape-rendering="crispEdges" fill="rgb(114, 114, 114)"  x="19" y="21" width="1" height="1" /><rect shape-rendering="crispEdges" fill="rgb(93, 93, 93)"  x="19" y="22" width="1" height="1" /><rect shape-rendering="crispEdges" fill="rgb(80, 80, 80)"  x="19" y="23" width="1" height="1" /><rect shape-rendering="crispEdges" fill="rgb(3, 3, 3)"  x="19" y="24" width="1" height="1" /><rect shape-rendering="crispEdges" fill="rgb(2, 2, 2)"  x="19" y="25" width="1" height="1" /><rect shape-rendering="crispEdges" fill="rgb(64, 64, 64)"  x="19" y="26" width="1" height="1" /><rect shape-rendering="crispEdges" fill="rgb(80, 80, 80)"  x="19" y="27" width="1" height="1" /><rect shape-rendering="crispEdges" fill="rgb(80, 80, 80)"  x="19" y="28" width="1" height="1" /><rect shape-rendering="crispEdges" fill="rgb(99, 97, 97)"  x="19" y="29" width="1" height="1" /><rect shape-rendering="crispEdges" fill="rgb(20, 20, 20)"  x="20" y="3" width="1" height="1" /><rect shape-rendering="crispEdges" fill="rgb(4, 4, 4)"  x="20" y="4" width="1" height="1" /><rect shape-rendering="crispEdges" fill="rgb(4, 4, 4)"  x="20" y="5" width="1" height="1" /><rect shape-rendering="crispEdges" fill="rgb(0, 0, 0)"  x="20" y="6" width="1" height="1" /><rect shape-rendering="crispEdges" fill="rgb(0, 0, 0)"  x="20" y="7" width="1" height="1" /><rect shape-rendering="crispEdges" fill="rgb(126, 126, 126)"  x="20" y="8" width="1" height="1" /><rect shape-rendering="crispEdges" fill="rgb(114, 114, 114)"  x="20" y="9" width="1" height="1" /><rect shape-rendering="crispEdges" fill="rgb(4, 4, 4)"  x="20" y="10" width="1" height="1" /><rect shape-rendering="crispEdges" fill="rgb(4, 4, 4)"  x="20" y="11" width="1" height="1" /><rect shape-rendering="crispEdges" fill="rgb(4, 4, 4)"  x="20" y="12" width="1" height="1" /><rect shape-rendering="crispEdges" fill="rgb(4, 4, 4)"  x="20" y="13" width="1" height="1" /><rect shape-rendering="crispEdges" fill="rgb(1, 1, 1)"  x="20" y="14" width="1" height="1" /><rect shape-rendering="crispEdges" fill="rgb(1, 1, 1)"  x="20" y="15" width="1" height="1" /><rect shape-rendering="crispEdges" fill="rgb(1, 1, 1)"  x="20" y="16" width="1" height="1" /><rect shape-rendering="crispEdges" fill="rgb(1, 1, 1)"  x="20" y="17" width="1" height="1" /><rect shape-rendering="crispEdges" fill="rgb(1, 1, 1)"  x="20" y="18" width="1" height="1" /><rect shape-rendering="crispEdges" fill="rgb(71, 71, 71)"  x="20" y="19" width="1" height="1" /><rect shape-rendering="crispEdges" fill="rgb(80, 80, 80)"  x="20" y="20" width="1" height="1" /><rect shape-rendering="crispEdges" fill="rgb(71, 71, 71)"  x="20" y="21" width="1" height="1" /><rect shape-rendering="crispEdges" fill="rgb(57, 57, 57)"  x="20" y="22" width="1" height="1" /><rect shape-rendering="crispEdges" fill="rgb(71, 71, 71)"  x="20" y="23" width="1" height="1" /><rect shape-rendering="crispEdges" fill="rgb(64, 64, 64)"  x="20" y="24" width="1" height="1" /><rect shape-rendering="crispEdges" fill="rgb(34, 34, 34)"  x="20" y="25" width="1" height="1" /><rect shape-rendering="crispEdges" fill="rgb(2, 2, 2)"  x="20" y="26" width="1" height="1" /><rect shape-rendering="crispEdges" fill="rgb(60, 60, 60)"  x="20" y="27" width="1" height="1" /><rect shape-rendering="crispEdges" fill="rgb(89, 89, 89)"  x="20" y="28" width="1" height="1" /><rect shape-rendering="crispEdges" fill="rgb(124, 122, 122)"  x="20" y="29" width="1" height="1" /><rect shape-rendering="crispEdges" fill="rgb(20, 20, 20)"  x="21" y="4" width="1" height="1" /><rect shape-rendering="crispEdges" fill="rgb(40, 40, 40)"  x="21" y="5" width="1" height="1" /><rect shape-rendering="crispEdges" fill="rgb(89, 89, 89)"  x="21" y="6" width="1" height="1" /><rect shape-rendering="crispEdges" fill="rgb(109, 109, 109)"  x="21" y="7" width="1" height="1" /><rect shape-rendering="crispEdges" fill="rgb(80, 80, 80)"  x="21" y="8" width="1" height="1" /><rect shape-rendering="crispEdges" fill="rgb(4, 4, 4)"  x="21" y="9" width="1" height="1" /><rect shape-rendering="crispEdges" fill="rgb(40, 40, 40)"  x="21" y="10" width="1" height="1" /><rect shape-rendering="crispEdges" fill="rgb(57, 57, 57)"  x="21" y="11" width="1" height="1" /><rect shape-rendering="crispEdges" fill="rgb(47, 47, 47)"  x="21" y="12" width="1" height="1" /><rect shape-rendering="crispEdges" fill="rgb(40, 40, 40)"  x="21" y="13" width="1" height="1" /><rect shape-rendering="crispEdges" fill="rgb(34, 34, 34)"  x="21" y="14" width="1" height="1" /><rect shape-rendering="crispEdges" fill="rgb(27, 27, 27)"  x="21" y="15" width="1" height="1" /><rect shape-rendering="crispEdges" fill="rgb(25, 25, 25)"  x="21" y="16" width="1" height="1" /><rect shape-rendering="crispEdges" fill="rgb(16, 16, 16)"  x="21" y="17" width="1" height="1" /><rect shape-rendering="crispEdges" fill="rgb(4, 4, 4)"  x="21" y="18" width="1" height="1" /><rect shape-rendering="crispEdges" fill="rgb(4, 4, 4)"  x="21" y="19" width="1" height="1" /><rect shape-rendering="crispEdges" fill="rgb(4, 4, 4)"  x="21" y="20" width="1" height="1" /><rect shape-rendering="crispEdges" fill="rgb(53, 53, 53)"  x="21" y="21" width="1" height="1" /><rect shape-rendering="crispEdges" fill="rgb(57, 57, 57)"  x="21" y="22" width="1" height="1" /><rect shape-rendering="crispEdges" fill="rgb(64, 64, 64)"  x="21" y="23" width="1" height="1" /><rect shape-rendering="crispEdges" fill="rgb(57, 57, 57)"  x="21" y="24" width="1" height="1" /><rect shape-rendering="crispEdges" fill="rgb(64, 64, 64)"  x="21" y="25" width="1" height="1" /><rect shape-rendering="crispEdges" fill="rgb(47, 47, 47)"  x="21" y="26" width="1" height="1" /><rect shape-rendering="crispEdges" fill="rgb(1, 1, 1)"  x="21" y="27" width="1" height="1" /><rect shape-rendering="crispEdges" fill="rgb(32, 32, 32)"  x="21" y="28" width="1" height="1" /><rect shape-rendering="crispEdges" fill="rgb(42, 42, 42)"  x="21" y="29" width="1" height="1" /><rect shape-rendering="crispEdges" fill="rgb(20, 20, 20)"  x="22" y="5" width="1" height="1" /><rect shape-rendering="crispEdges" fill="rgb(59, 59, 59)"  x="22" y="6" width="1" height="1" /><rect shape-rendering="crispEdges" fill="rgb(34, 34, 34)"  x="22" y="7" width="1" height="1" /><rect shape-rendering="crispEdges" fill="rgb(4, 4, 4)"  x="22" y="8" width="1" height="1" /><rect shape-rendering="crispEdges" fill="rgb(89, 89, 89)"  x="22" y="9" width="1" height="1" /><rect shape-rendering="crispEdges" fill="rgb(114, 114, 114)"  x="22" y="10" width="1" height="1" /><rect shape-rendering="crispEdges" fill="rgb(109, 109, 109)"  x="22" y="11" width="1" height="1" /><rect shape-rendering="crispEdges" fill="rgb(103, 103, 103)"  x="22" y="12" width="1" height="1" /><rect shape-rendering="crispEdges" fill="rgb(103, 103, 103)"  x="22" y="13" width="1" height="1" /><rect shape-rendering="crispEdges" fill="rgb(89, 89, 89)"  x="22" y="14" width="1" height="1" /><rect shape-rendering="crispEdges" fill="rgb(67, 67, 67)"  x="22" y="15" width="1" height="1" /><rect shape-rendering="crispEdges" fill="rgb(50, 50, 50)"  x="22" y="16" width="1" height="1" /><rect shape-rendering="crispEdges" fill="rgb(40, 40, 40)"  x="22" y="17" width="1" height="1" /><rect shape-rendering="crispEdges" fill="rgb(29, 29, 29)"  x="22" y="18" width="1" height="1" /><rect shape-rendering="crispEdges" fill="rgb(25, 25, 25)"  x="22" y="19" width="1" height="1" /><rect shape-rendering="crispEdges" fill="rgb(3, 3, 3)"  x="22" y="20" width="1" height="1" /><rect shape-rendering="crispEdges" fill="rgb(4, 4, 4)"  x="22" y="21" width="1" height="1" /><rect shape-rendering="crispEdges" fill="rgb(4, 4, 4)"  x="22" y="22" width="1" height="1" /><rect shape-rendering="crispEdges" fill="rgb(2, 2, 2)"  x="22" y="23" width="1" height="1" /><rect shape-rendering="crispEdges" fill="rgb(1, 1, 1)"  x="22" y="24" width="1" height="1" /><rect shape-rendering="crispEdges" fill="rgb(47, 47, 47)"  x="22" y="25" width="1" height="1" /><rect shape-rendering="crispEdges" fill="rgb(40, 40, 40)"  x="22" y="26" width="1" height="1" /><rect shape-rendering="crispEdges" fill="rgb(27, 27, 27)"  x="22" y="27" width="1" height="1" /><rect shape-rendering="crispEdges" fill="rgb(2, 2, 2)"  x="22" y="28" width="1" height="1" /><rect shape-rendering="crispEdges" fill="rgb(2, 2, 2)"  x="22" y="29" width="1" height="1" /><rect shape-rendering="crispEdges" fill="rgb(20, 20, 20)"  x="23" y="6" width="1" height="1" /><rect shape-rendering="crispEdges" fill="rgb(20, 20, 20)"  x="23" y="7" width="1" height="1" /><rect shape-rendering="crispEdges" fill="rgb(15, 15, 15)"  x="23" y="8" width="1" height="1" /><rect shape-rendering="crispEdges" fill="rgb(11, 11, 11)"  x="23" y="9" width="1" height="1" /><rect shape-rendering="crispEdges" fill="rgb(11, 11, 11)"  x="23" y="10" width="1" height="1" /><rect shape-rendering="crispEdges" fill="rgb(15, 15, 15)"  x="23" y="11" width="1" height="1" /><rect shape-rendering="crispEdges" fill="rgb(91, 91, 91)"  x="23" y="12" width="1" height="1" /><rect shape-rendering="crispEdges" fill="rgb(109, 109, 109)"  x="23" y="13" width="1" height="1" /><rect shape-rendering="crispEdges" fill="rgb(114, 114, 114)"  x="23" y="14" width="1" height="1" /><rect shape-rendering="crispEdges" fill="rgb(109, 109, 109)"  x="23" y="15" width="1" height="1" /><rect shape-rendering="crispEdges" fill="rgb(109, 109, 109)"  x="23" y="16" width="1" height="1" /><rect shape-rendering="crispEdges" fill="rgb(109, 109, 109)"  x="23" y="17" width="1" height="1" /><rect shape-rendering="crispEdges" fill="rgb(103, 103, 103)"  x="23" y="18" width="1" height="1" /><rect shape-rendering="crispEdges" fill="rgb(71, 71, 71)"  x="23" y="19" width="1" height="1" /><rect shape-rendering="crispEdges" fill="rgb(40, 40, 40)"  x="23" y="20" width="1" height="1" /><rect shape-rendering="crispEdges" fill="rgb(2, 2, 2)"  x="23" y="21" width="1" height="1" /><rect shape-rendering="crispEdges" fill="rgb(3, 3, 3)"  x="23" y="25" width="1" height="1" /><rect shape-rendering="crispEdges" fill="rgb(2, 2, 2)"  x="23" y="26" width="1" height="1" /><rect shape-rendering="crispEdges" fill="rgb(2, 2, 2)"  x="23" y="27" width="1" height="1" /><rect shape-rendering="crispEdges" fill="rgb(2, 2, 2)"  x="23" y="28" width="1" height="1" /><rect shape-rendering="crispEdges" fill="rgb(15, 15, 15)"  x="24" y="12" width="1" height="1" /><rect shape-rendering="crispEdges" fill="rgb(13, 13, 13)"  x="24" y="13" width="1" height="1" /><rect shape-rendering="crispEdges" fill="rgb(15, 15, 15)"  x="24" y="14" width="1" height="1" /><rect shape-rendering="crispEdges" fill="rgb(9, 9, 9)"  x="24" y="15" width="1" height="1" /><rect shape-rendering="crispEdges" fill="rgb(99, 99, 98)"  x="24" y="16" width="1" height="1" /><rect shape-rendering="crispEdges" fill="rgb(93, 93, 93)"  x="24" y="17" width="1" height="1" /><rect shape-rendering="crispEdges" fill="rgb(89, 89, 89)"  x="24" y="18" width="1" height="1" /><rect shape-rendering="crispEdges" fill="rgb(50, 50, 50)"  x="24" y="19" width="1" height="1" /><rect shape-rendering="crispEdges" fill="rgb(39, 36, 36)"  x="24" y="20" width="1" height="1" /><rect shape-rendering="crispEdges" fill="rgb(2, 2, 2)"  x="24" y="21" width="1" height="1" /><rect shape-rendering="crispEdges" fill="rgb(5, 5, 5)"  x="25" y="16" width="1" height="1" /><rect shape-rendering="crispEdges" fill="rgb(3, 3, 3)"  x="25" y="17" width="1" height="1" /><rect shape-rendering="crispEdges" fill="rgb(1, 1, 1)"  x="25" y="18" width="1" height="1" /><rect shape-rendering="crispEdges" fill="rgb(0, 0, 0)"  x="25" y="19" width="1" height="1" /><rect shape-rendering="crispEdges" fill="rgb(0, 0, 0)"  x="25" y="20" width="1" height="1" /></svg>