<svg xmlns="http://www.w3.org/2000/svg" xmlns:xlink= "http://www.w3.org/1999/xlink" width="32" height="32" viewBox ="0 0 32 32"><rect shape-rendering="crispEdges" fill="rgb(106, 139, 172)"  x="2" y="10" width="1" height="1" /><rect shape-rendering="crispEdges" fill="rgb(172, 222, 238)"  x="3" y="9" width="1" height="1" /><rect shape-rendering="crispEdges" fill="rgb(131, 164, 189)"  x="3" y="10" width="1" height="1" /><rect shape-rendering="crispEdges" fill="rgb(98, 123, 156)"  x="3" y="11" width="1" height="1" /><rect shape-rendering="crispEdges" fill="rgb(172, 213, 230)"  x="4" y="8" width="1" height="1" /><rect shape-rendering="crispEdges" fill="rgb(180, 222, 238)"  x="4" y="9" width="1" height="1" /><rect shape-rendering="crispEdges" fill="rgb(180, 230, 238)"  x="4" y="10" width="1" height="1" /><rect shape-rendering="crispEdges" fill="rgb(131, 172, 197)"  x="4" y="11" width="1" height="1" /><rect shape-rendering="crispEdges" fill="rgb(90, 123, 156)"  x="4" y="12" width="1" height="1" /><rect shape-rendering="crispEdges" fill="rgb(115, 65, 16)"  x="4" y="27" width="1" height="1" /><rect shape-rendering="crispEdges" fill="rgb(115, 65, 16)"  x="4" y="28" width="1" height="1" /><rect shape-rendering="crispEdges" fill="rgb(115, 74, 16)"  x="4" y="29" width="1" height="1" /><rect shape-rendering="crispEdges" fill="rgb(180, 230, 246)"  x="5" y="7" width="1" height="1" /><rect shape-rendering="crispEdges" fill="rgb(189, 230, 246)"  x="5" y="8" width="1" height="1" /><rect shape-rendering="crispEdges" fill="rgb(131, 172, 197)"  x="5" y="9" width="1" height="1" /><rect shape-rendering="crispEdges" fill="rgb(148, 189, 213)"  x="5" y="10" width="1" height="1" /><rect shape-rendering="crispEdges" fill="rgb(139, 164, 197)"  x="5" y="11" width="1" height="1" /><rect shape-rendering="crispEdges" fill="rgb(115, 131, 164)"  x="5" y="12" width="1" height="1" /><rect shape-rendering="crispEdges" fill="rgb(123, 74, 16)"  x="5" y="25" width="1" height="1" /><rect shape-rendering="crispEdges" fill="rgb(131, 90, 24)"  x="5" y="26" width="1" height="1" /><rect shape-rendering="crispEdges" fill="rgb(180, 139, 65)"  x="5" y="27" width="1" height="1" /><rect shape-rendering="crispEdges" fill="rgb(180, 139, 65)"  x="5" y="28" width="1" height="1" /><rect shape-rendering="crispEdges" fill="rgb(180, 139, 65)"  x="5" y="29" width="1" height="1" /><rect shape-rendering="crispEdges" fill="rgb(180, 230, 238)"  x="6" y="6" width="1" height="1" /><rect shape-rendering="crispEdges" fill="rgb(180, 230, 238)"  x="6" y="7" width="1" height="1" /><rect shape-rendering="crispEdges" fill="rgb(197, 230, 246)"  x="6" y="8" width="1" height="1" /><rect shape-rendering="crispEdges" fill="rgb(164, 205, 222)"  x="6" y="9" width="1" height="1" /><rect shape-rendering="crispEdges" fill="rgb(123, 139, 172)"  x="6" y="10" width="1" height="1" /><rect shape-rendering="crispEdges" fill="rgb(115, 123, 164)"  x="6" y="11" width="1" height="1" /><rect shape-rendering="crispEdges" fill="rgb(148, 180, 213)"  x="6" y="17" width="1" height="1" /><rect shape-rendering="crispEdges" fill="rgb(123, 74, 16)"  x="6" y="22" width="1" height="1" /><rect shape-rendering="crispEdges" fill="rgb(139, 90, 32)"  x="6" y="23" width="1" height="1" /><rect shape-rendering="crispEdges" fill="rgb(156, 115, 49)"  x="6" y="24" width="1" height="1" /><rect shape-rendering="crispEdges" fill="rgb(180, 139, 65)"  x="6" y="25" width="1" height="1" /><rect shape-rendering="crispEdges" fill="rgb(180, 139, 65)"  x="6" y="26" width="1" height="1" /><rect shape-rendering="crispEdges" fill="rgb(180, 139, 65)"  x="6" y="27" width="1" height="1" /><rect shape-rendering="crispEdges" fill="rgb(164, 123, 49)"  x="6" y="28" width="1" height="1" /><rect shape-rendering="crispEdges" fill="rgb(156, 106, 41)"  x="6" y="29" width="1" height="1" /><rect shape-rendering="crispEdges" fill="rgb(180, 230, 238)"  x="7" y="5" width="1" height="1" /><rect shape-rendering="crispEdges" fill="rgb(180, 222, 238)"  x="7" y="6" width="1" height="1" /><rect shape-rendering="crispEdges" fill="rgb(197, 230, 246)"  x="7" y="7" width="1" height="1" /><rect shape-rendering="crispEdges" fill="rgb(189, 230, 246)"  x="7" y="8" width="1" height="1" /><rect shape-rendering="crispEdges" fill="rgb(131, 148, 180)"  x="7" y="9" width="1" height="1" /><rect shape-rendering="crispEdges" fill="rgb(90, 106, 148)"  x="7" y="10" width="1" height="1" /><rect shape-rendering="crispEdges" fill="rgb(139, 139, 172)"  x="7" y="15" width="1" height="1" /><rect shape-rendering="crispEdges" fill="rgb(106, 131, 164)"  x="7" y="16" width="1" height="1" /><rect shape-rendering="crispEdges" fill="rgb(148, 180, 205)"  x="7" y="17" width="1" height="1" /><rect shape-rendering="crispEdges" fill="rgb(156, 123, 90)"  x="7" y="18" width="1" height="1" /><rect shape-rendering="crispEdges" fill="rgb(148, 98, 32)"  x="7" y="19" width="1" height="1" /><rect shape-rendering="crispEdges" fill="rgb(156, 115, 41)"  x="7" y="20" width="1" height="1" /><rect shape-rendering="crispEdges" fill="rgb(180, 139, 65)"  x="7" y="21" width="1" height="1" /><rect shape-rendering="crispEdges" fill="rgb(180, 139, 65)"  x="7" y="22" width="1" height="1" /><rect shape-rendering="crispEdges" fill="rgb(180, 139, 65)"  x="7" y="23" width="1" height="1" /><rect shape-rendering="crispEdges" fill="rgb(180, 139, 65)"  x="7" y="24" width="1" height="1" /><rect shape-rendering="crispEdges" fill="rgb(180, 139, 65)"  x="7" y="25" width="1" height="1" /><rect shape-rendering="crispEdges" fill="rgb(180, 139, 65)"  x="7" y="26" width="1" height="1" /><rect shape-rendering="crispEdges" fill="rgb(180, 139, 57)"  x="7" y="27" width="1" height="1" /><rect shape-rendering="crispEdges" fill="rgb(156, 115, 49)"  x="7" y="28" width="1" height="1" /><rect shape-rendering="crispEdges" fill="rgb(139, 90, 32)"  x="7" y="29" width="1" height="1" /><rect shape-rendering="crispEdges" fill="rgb(180, 230, 238)"  x="8" y="4" width="1" height="1" /><rect shape-rendering="crispEdges" fill="rgb(180, 222, 238)"  x="8" y="5" width="1" height="1" /><rect shape-rendering="crispEdges" fill="rgb(172, 213, 230)"  x="8" y="6" width="1" height="1" /><rect shape-rendering="crispEdges" fill="rgb(131, 164, 189)"  x="8" y="7" width="1" height="1" /><rect shape-rendering="crispEdges" fill="rgb(148, 164, 189)"  x="8" y="8" width="1" height="1" /><rect shape-rendering="crispEdges" fill="rgb(82, 98, 148)"  x="8" y="9" width="1" height="1" /><rect shape-rendering="crispEdges" fill="rgb(115, 123, 164)"  x="8" y="13" width="1" height="1" /><rect shape-rendering="crispEdges" fill="rgb(131, 139, 172)"  x="8" y="14" width="1" height="1" /><rect shape-rendering="crispEdges" fill="rgb(106, 131, 164)"  x="8" y="15" width="1" height="1" /><rect shape-rendering="crispEdges" fill="rgb(106, 148, 180)"  x="8" y="16" width="1" height="1" /><rect shape-rendering="crispEdges" fill="rgb(123, 156, 180)"  x="8" y="17" width="1" height="1" /><rect shape-rendering="crispEdges" fill="rgb(139, 115, 74)"  x="8" y="18" width="1" height="1" /><rect shape-rendering="crispEdges" fill="rgb(180, 139, 65)"  x="8" y="19" width="1" height="1" /><rect shape-rendering="crispEdges" fill="rgb(180, 139, 65)"  x="8" y="20" width="1" height="1" /><rect shape-rendering="crispEdges" fill="rgb(180, 139, 65)"  x="8" y="21" width="1" height="1" /><rect shape-rendering="crispEdges" fill="rgb(189, 148, 65)"  x="8" y="22" width="1" height="1" /><rect shape-rendering="crispEdges" fill="rgb(189, 148, 65)"  x="8" y="23" width="1" height="1" /><rect shape-rendering="crispEdges" fill="rgb(180, 139, 65)"  x="8" y="24" width="1" height="1" /><rect shape-rendering="crispEdges" fill="rgb(180, 139, 57)"  x="8" y="25" width="1" height="1" /><rect shape-rendering="crispEdges" fill="rgb(156, 115, 41)"  x="8" y="26" width="1" height="1" /><rect shape-rendering="crispEdges" fill="rgb(123, 74, 16)"  x="8" y="27" width="1" height="1" /><rect shape-rendering="crispEdges" fill="rgb(115, 65, 16)"  x="8" y="28" width="1" height="1" /><rect shape-rendering="crispEdges" fill="rgb(115, 74, 16)"  x="8" y="29" width="1" height="1" /><rect shape-rendering="crispEdges" fill="rgb(180, 230, 238)"  x="9" y="3" width="1" height="1" /><rect shape-rendering="crispEdges" fill="rgb(180, 230, 246)"  x="9" y="4" width="1" height="1" /><rect shape-rendering="crispEdges" fill="rgb(180, 222, 238)"  x="9" y="5" width="1" height="1" /><rect shape-rendering="crispEdges" fill="rgb(180, 222, 238)"  x="9" y="6" width="1" height="1" /><rect shape-rendering="crispEdges" fill="rgb(180, 222, 238)"  x="9" y="7" width="1" height="1" /><rect shape-rendering="crispEdges" fill="rgb(115, 156, 180)"  x="9" y="8" width="1" height="1" /><rect shape-rendering="crispEdges" fill="rgb(57, 90, 139)"  x="9" y="9" width="1" height="1" /><rect shape-rendering="crispEdges" fill="rgb(65, 90, 139)"  x="9" y="10" width="1" height="1" /><rect shape-rendering="crispEdges" fill="rgb(98, 106, 156)"  x="9" y="11" width="1" height="1" /><rect shape-rendering="crispEdges" fill="rgb(131, 131, 172)"  x="9" y="12" width="1" height="1" /><rect shape-rendering="crispEdges" fill="rgb(123, 131, 172)"  x="9" y="13" width="1" height="1" /><rect shape-rendering="crispEdges" fill="rgb(131, 164, 189)"  x="9" y="14" width="1" height="1" /><rect shape-rendering="crispEdges" fill="rgb(123, 164, 189)"  x="9" y="15" width="1" height="1" /><rect shape-rendering="crispEdges" fill="rgb(156, 197, 230)"  x="9" y="16" width="1" height="1" /><rect shape-rendering="crispEdges" fill="rgb(106, 148, 189)"  x="9" y="17" width="1" height="1" /><rect shape-rendering="crispEdges" fill="rgb(131, 148, 156)"  x="9" y="18" width="1" height="1" /><rect shape-rendering="crispEdges" fill="rgb(172, 131, 49)"  x="9" y="19" width="1" height="1" /><rect shape-rendering="crispEdges" fill="rgb(180, 148, 65)"  x="9" y="20" width="1" height="1" /><rect shape-rendering="crispEdges" fill="rgb(172, 131, 57)"  x="9" y="21" width="1" height="1" /><rect shape-rendering="crispEdges" fill="rgb(156, 115, 41)"  x="9" y="22" width="1" height="1" /><rect shape-rendering="crispEdges" fill="rgb(131, 90, 24)"  x="9" y="23" width="1" height="1" /><rect shape-rendering="crispEdges" fill="rgb(131, 82, 24)"  x="9" y="24" width="1" height="1" /><rect shape-rendering="crispEdges" fill="rgb(139, 98, 32)"  x="9" y="25" width="1" height="1" /><rect shape-rendering="crispEdges" fill="rgb(115, 74, 16)"  x="9" y="26" width="1" height="1" /><rect shape-rendering="crispEdges" fill="rgb(115, 65, 16)"  x="9" y="27" width="1" height="1" /><rect shape-rendering="crispEdges" fill="rgb(115, 65, 16)"  x="9" y="28" width="1" height="1" /><rect shape-rendering="crispEdges" fill="rgb(115, 74, 24)"  x="9" y="29" width="1" height="1" /><rect shape-rendering="crispEdges" fill="rgb(197, 230, 246)"  x="10" y="3" width="1" height="1" /><rect shape-rendering="crispEdges" fill="rgb(156, 197, 213)"  x="10" y="4" width="1" height="1" /><rect shape-rendering="crispEdges" fill="rgb(123, 156, 189)"  x="10" y="5" width="1" height="1" /><rect shape-rendering="crispEdges" fill="rgb(123, 164, 189)"  x="10" y="6" width="1" height="1" /><rect shape-rendering="crispEdges" fill="rgb(180, 222, 238)"  x="10" y="7" width="1" height="1" /><rect shape-rendering="crispEdges" fill="rgb(180, 230, 238)"  x="10" y="8" width="1" height="1" /><rect shape-rendering="crispEdges" fill="rgb(156, 197, 222)"  x="10" y="9" width="1" height="1" /><rect shape-rendering="crispEdges" fill="rgb(148, 180, 205)"  x="10" y="10" width="1" height="1" /><rect shape-rendering="crispEdges" fill="rgb(172, 213, 230)"  x="10" y="11" width="1" height="1" /><rect shape-rendering="crispEdges" fill="rgb(164, 197, 222)"  x="10" y="12" width="1" height="1" /><rect shape-rendering="crispEdges" fill="rgb(115, 148, 172)"  x="10" y="13" width="1" height="1" /><rect shape-rendering="crispEdges" fill="rgb(180, 222, 238)"  x="10" y="14" width="1" height="1" /><rect shape-rendering="crispEdges" fill="rgb(156, 197, 213)"  x="10" y="15" width="1" height="1" /><rect shape-rendering="crispEdges" fill="rgb(131, 156, 172)"  x="10" y="16" width="1" height="1" /><rect shape-rendering="crispEdges" fill="rgb(115, 123, 123)"  x="10" y="17" width="1" height="1" /><rect shape-rendering="crispEdges" fill="rgb(123, 115, 98)"  x="10" y="18" width="1" height="1" /><rect shape-rendering="crispEdges" fill="rgb(139, 90, 32)"  x="10" y="19" width="1" height="1" /><rect shape-rendering="crispEdges" fill="rgb(180, 139, 65)"  x="10" y="20" width="1" height="1" /><rect shape-rendering="crispEdges" fill="rgb(156, 115, 41)"  x="10" y="21" width="1" height="1" /><rect shape-rendering="crispEdges" fill="rgb(123, 82, 24)"  x="10" y="22" width="1" height="1" /><rect shape-rendering="crispEdges" fill="rgb(115, 74, 16)"  x="10" y="23" width="1" height="1" /><rect shape-rendering="crispEdges" fill="rgb(123, 74, 24)"  x="10" y="24" width="1" height="1" /><rect shape-rendering="crispEdges" fill="rgb(115, 74, 16)"  x="10" y="25" width="1" height="1" /><rect shape-rendering="crispEdges" fill="rgb(115, 65, 16)"  x="10" y="26" width="1" height="1" /><rect shape-rendering="crispEdges" fill="rgb(115, 74, 24)"  x="10" y="27" width="1" height="1" /><rect shape-rendering="crispEdges" fill="rgb(123, 82, 32)"  x="10" y="28" width="1" height="1" /><rect shape-rendering="crispEdges" fill="rgb(131, 98, 49)"  x="10" y="29" width="1" height="1" /><rect shape-rendering="crispEdges" fill="rgb(197, 230, 246)"  x="11" y="3" width="1" height="1" /><rect shape-rendering="crispEdges" fill="rgb(57, 90, 131)"  x="11" y="4" width="1" height="1" /><rect shape-rendering="crispEdges" fill="rgb(32, 74, 123)"  x="11" y="5" width="1" height="1" /><rect shape-rendering="crispEdges" fill="rgb(115, 148, 180)"  x="11" y="6" width="1" height="1" /><rect shape-rendering="crispEdges" fill="rgb(115, 148, 180)"  x="11" y="7" width="1" height="1" /><rect shape-rendering="crispEdges" fill="rgb(180, 230, 238)"  x="11" y="8" width="1" height="1" /><rect shape-rendering="crispEdges" fill="rgb(180, 230, 238)"  x="11" y="9" width="1" height="1" /><rect shape-rendering="crispEdges" fill="rgb(131, 164, 189)"  x="11" y="10" width="1" height="1" /><rect shape-rendering="crispEdges" fill="rgb(131, 164, 189)"  x="11" y="11" width="1" height="1" /><rect shape-rendering="crispEdges" fill="rgb(156, 189, 213)"  x="11" y="12" width="1" height="1" /><rect shape-rendering="crispEdges" fill="rgb(123, 156, 180)"  x="11" y="13" width="1" height="1" /><rect shape-rendering="crispEdges" fill="rgb(32, 32, 24)"  x="11" y="14" width="1" height="1" /><rect shape-rendering="crispEdges" fill="rgb(24, 24, 16)"  x="11" y="15" width="1" height="1" /><rect shape-rendering="crispEdges" fill="rgb(139, 98, 41)"  x="11" y="16" width="1" height="1" /><rect shape-rendering="crispEdges" fill="rgb(139, 98, 32)"  x="11" y="17" width="1" height="1" /><rect shape-rendering="crispEdges" fill="rgb(148, 98, 32)"  x="11" y="18" width="1" height="1" /><rect shape-rendering="crispEdges" fill="rgb(115, 74, 16)"  x="11" y="19" width="1" height="1" /><rect shape-rendering="crispEdges" fill="rgb(164, 123, 49)"  x="11" y="20" width="1" height="1" /><rect shape-rendering="crispEdges" fill="rgb(148, 106, 41)"  x="11" y="21" width="1" height="1" /><rect shape-rendering="crispEdges" fill="rgb(115, 74, 16)"  x="11" y="22" width="1" height="1" /><rect shape-rendering="crispEdges" fill="rgb(115, 74, 16)"  x="11" y="23" width="1" height="1" /><rect shape-rendering="crispEdges" fill="rgb(106, 65, 16)"  x="11" y="24" width="1" height="1" /><rect shape-rendering="crispEdges" fill="rgb(115, 74, 24)"  x="11" y="25" width="1" height="1" /><rect shape-rendering="crispEdges" fill="rgb(115, 82, 24)"  x="11" y="26" width="1" height="1" /><rect shape-rendering="crispEdges" fill="rgb(123, 90, 49)"  x="11" y="27" width="1" height="1" /><rect shape-rendering="crispEdges" fill="rgb(131, 106, 65)"  x="11" y="28" width="1" height="1" /><rect shape-rendering="crispEdges" fill="rgb(131, 106, 65)"  x="11" y="29" width="1" height="1" /><rect shape-rendering="crispEdges" fill="rgb(197, 230, 246)"  x="12" y="3" width="1" height="1" /><rect shape-rendering="crispEdges" fill="rgb(32, 74, 123)"  x="12" y="4" width="1" height="1" /><rect shape-rendering="crispEdges" fill="rgb(41, 74, 123)"  x="12" y="5" width="1" height="1" /><rect shape-rendering="crispEdges" fill="rgb(41, 82, 131)"  x="12" y="6" width="1" height="1" /><rect shape-rendering="crispEdges" fill="rgb(41, 82, 131)"  x="12" y="7" width="1" height="1" /><rect shape-rendering="crispEdges" fill="rgb(32, 74, 123)"  x="12" y="8" width="1" height="1" /><rect shape-rendering="crispEdges" fill="rgb(98, 131, 164)"  x="12" y="9" width="1" height="1" /><rect shape-rendering="crispEdges" fill="rgb(24, 24, 16)"  x="12" y="10" width="1" height="1" /><rect shape-rendering="crispEdges" fill="rgb(115, 148, 180)"  x="12" y="11" width="1" height="1" /><rect shape-rendering="crispEdges" fill="rgb(82, 106, 131)"  x="12" y="12" width="1" height="1" /><rect shape-rendering="crispEdges" fill="rgb(65, 90, 123)"  x="12" y="13" width="1" height="1" /><rect shape-rendering="crispEdges" fill="rgb(24, 24, 16)"  x="12" y="14" width="1" height="1" /><rect shape-rendering="crispEdges" fill="rgb(24, 24, 16)"  x="12" y="15" width="1" height="1" /><rect shape-rendering="crispEdges" fill="rgb(131, 90, 24)"  x="12" y="16" width="1" height="1" /><rect shape-rendering="crispEdges" fill="rgb(123, 74, 16)"  x="12" y="17" width="1" height="1" /><rect shape-rendering="crispEdges" fill="rgb(139, 98, 32)"  x="12" y="18" width="1" height="1" /><rect shape-rendering="crispEdges" fill="rgb(115, 74, 16)"  x="12" y="19" width="1" height="1" /><rect shape-rendering="crispEdges" fill="rgb(156, 123, 49)"  x="12" y="20" width="1" height="1" /><rect shape-rendering="crispEdges" fill="rgb(115, 74, 24)"  x="12" y="21" width="1" height="1" /><rect shape-rendering="crispEdges" fill="rgb(115, 74, 24)"  x="12" y="22" width="1" height="1" /><rect shape-rendering="crispEdges" fill="rgb(115, 82, 32)"  x="12" y="23" width="1" height="1" /><rect shape-rendering="crispEdges" fill="rgb(115, 82, 24)"  x="12" y="24" width="1" height="1" /><rect shape-rendering="crispEdges" fill="rgb(123, 90, 41)"  x="12" y="25" width="1" height="1" /><rect shape-rendering="crispEdges" fill="rgb(131, 106, 57)"  x="12" y="26" width="1" height="1" /><rect shape-rendering="crispEdges" fill="rgb(131, 106, 65)"  x="12" y="27" width="1" height="1" /><rect shape-rendering="crispEdges" fill="rgb(123, 90, 41)"  x="12" y="28" width="1" height="1" /><rect shape-rendering="crispEdges" fill="rgb(197, 230, 246)"  x="13" y="3" width="1" height="1" /><rect shape-rendering="crispEdges" fill="rgb(41, 74, 123)"  x="13" y="4" width="1" height="1" /><rect shape-rendering="crispEdges" fill="rgb(49, 90, 139)"  x="13" y="5" width="1" height="1" /><rect shape-rendering="crispEdges" fill="rgb(41, 74, 131)"  x="13" y="6" width="1" height="1" /><rect shape-rendering="crispEdges" fill="rgb(41, 74, 123)"  x="13" y="7" width="1" height="1" /><rect shape-rendering="crispEdges" fill="rgb(41, 74, 123)"  x="13" y="8" width="1" height="1" /><rect shape-rendering="crispEdges" fill="rgb(49, 90, 131)"  x="13" y="9" width="1" height="1" /><rect shape-rendering="crispEdges" fill="rgb(32, 32, 32)"  x="13" y="10" width="1" height="1" /><rect shape-rendering="crispEdges" fill="rgb(98, 131, 156)"  x="13" y="11" width="1" height="1" /><rect shape-rendering="crispEdges" fill="rgb(49, 65, 82)"  x="13" y="12" width="1" height="1" /><rect shape-rendering="crispEdges" fill="rgb(41, 74, 123)"  x="13" y="13" width="1" height="1" /><rect shape-rendering="crispEdges" fill="rgb(197, 172, 156)"  x="13" y="14" width="1" height="1" /><rect shape-rendering="crispEdges" fill="rgb(197, 172, 156)"  x="13" y="15" width="1" height="1" /><rect shape-rendering="crispEdges" fill="rgb(115, 74, 16)"  x="13" y="16" width="1" height="1" /><rect shape-rendering="crispEdges" fill="rgb(115, 65, 16)"  x="13" y="17" width="1" height="1" /><rect shape-rendering="crispEdges" fill="rgb(123, 82, 24)"  x="13" y="18" width="1" height="1" /><rect shape-rendering="crispEdges" fill="rgb(115, 65, 16)"  x="13" y="19" width="1" height="1" /><rect shape-rendering="crispEdges" fill="rgb(115, 74, 24)"  x="13" y="20" width="1" height="1" /><rect shape-rendering="crispEdges" fill="rgb(115, 82, 32)"  x="13" y="21" width="1" height="1" /><rect shape-rendering="crispEdges" fill="rgb(131, 98, 57)"  x="13" y="22" width="1" height="1" /><rect shape-rendering="crispEdges" fill="rgb(123, 98, 49)"  x="13" y="23" width="1" height="1" /><rect shape-rendering="crispEdges" fill="rgb(131, 106, 65)"  x="13" y="24" width="1" height="1" /><rect shape-rendering="crispEdges" fill="rgb(131, 98, 57)"  x="13" y="25" width="1" height="1" /><rect shape-rendering="crispEdges" fill="rgb(197, 230, 246)"  x="14" y="3" width="1" height="1" /><rect shape-rendering="crispEdges" fill="rgb(41, 74, 123)"  x="14" y="4" width="1" height="1" /><rect shape-rendering="crispEdges" fill="rgb(57, 98, 139)"  x="14" y="5" width="1" height="1" /><rect shape-rendering="crispEdges" fill="rgb(57, 98, 139)"  x="14" y="6" width="1" height="1" /><rect shape-rendering="crispEdges" fill="rgb(49, 90, 139)"  x="14" y="7" width="1" height="1" /><rect shape-rendering="crispEdges" fill="rgb(41, 82, 131)"  x="14" y="8" width="1" height="1" /><rect shape-rendering="crispEdges" fill="rgb(49, 82, 131)"  x="14" y="9" width="1" height="1" /><rect shape-rendering="crispEdges" fill="rgb(57, 74, 90)"  x="14" y="10" width="1" height="1" /><rect shape-rendering="crispEdges" fill="rgb(82, 106, 139)"  x="14" y="11" width="1" height="1" /><rect shape-rendering="crispEdges" fill="rgb(49, 65, 82)"  x="14" y="12" width="1" height="1" /><rect shape-rendering="crispEdges" fill="rgb(41, 74, 115)"  x="14" y="13" width="1" height="1" /><rect shape-rendering="crispEdges" fill="rgb(197, 172, 156)"  x="14" y="14" width="1" height="1" /><rect shape-rendering="crispEdges" fill="rgb(197, 172, 156)"  x="14" y="15" width="1" height="1" /><rect shape-rendering="crispEdges" fill="rgb(156, 115, 49)"  x="14" y="16" width="1" height="1" /><rect shape-rendering="crispEdges" fill="rgb(115, 74, 16)"  x="14" y="17" width="1" height="1" /><rect shape-rendering="crispEdges" fill="rgb(115, 65, 16)"  x="14" y="18" width="1" height="1" /><rect shape-rendering="crispEdges" fill="rgb(115, 74, 16)"  x="14" y="19" width="1" height="1" /><rect shape-rendering="crispEdges" fill="rgb(123, 90, 41)"  x="14" y="20" width="1" height="1" /><rect shape-rendering="crispEdges" fill="rgb(131, 115, 65)"  x="14" y="21" width="1" height="1" /><rect shape-rendering="crispEdges" fill="rgb(131, 115, 74)"  x="14" y="22" width="1" height="1" /><rect shape-rendering="crispEdges" fill="rgb(197, 230, 246)"  x="15" y="3" width="1" height="1" /><rect shape-rendering="crispEdges" fill="rgb(32, 74, 123)"  x="15" y="4" width="1" height="1" /><rect shape-rendering="crispEdges" fill="rgb(41, 82, 131)"  x="15" y="5" width="1" height="1" /><rect shape-rendering="crispEdges" fill="rgb(49, 90, 139)"  x="15" y="6" width="1" height="1" /><rect shape-rendering="crispEdges" fill="rgb(41, 74, 131)"  x="15" y="7" width="1" height="1" /><rect shape-rendering="crispEdges" fill="rgb(41, 74, 123)"  x="15" y="8" width="1" height="1" /><rect shape-rendering="crispEdges" fill="rgb(82, 123, 164)"  x="15" y="9" width="1" height="1" /><rect shape-rendering="crispEdges" fill="rgb(24, 24, 16)"  x="15" y="10" width="1" height="1" /><rect shape-rendering="crispEdges" fill="rgb(98, 131, 156)"  x="15" y="11" width="1" height="1" /><rect shape-rendering="crispEdges" fill="rgb(24, 24, 16)"  x="15" y="12" width="1" height="1" /><rect shape-rendering="crispEdges" fill="rgb(65, 98, 131)"  x="15" y="13" width="1" height="1" /><rect shape-rendering="crispEdges" fill="rgb(24, 24, 16)"  x="15" y="14" width="1" height="1" /><rect shape-rendering="crispEdges" fill="rgb(24, 24, 16)"  x="15" y="15" width="1" height="1" /><rect shape-rendering="crispEdges" fill="rgb(139, 90, 24)"  x="15" y="16" width="1" height="1" /><rect shape-rendering="crispEdges" fill="rgb(123, 74, 16)"  x="15" y="17" width="1" height="1" /><rect shape-rendering="crispEdges" fill="rgb(106, 65, 16)"  x="15" y="18" width="1" height="1" /><rect shape-rendering="crispEdges" fill="rgb(115, 82, 32)"  x="15" y="19" width="1" height="1" /><rect shape-rendering="crispEdges" fill="rgb(131, 98, 49)"  x="15" y="20" width="1" height="1" /><rect shape-rendering="crispEdges" fill="rgb(197, 230, 246)"  x="16" y="3" width="1" height="1" /><rect shape-rendering="crispEdges" fill="rgb(32, 74, 123)"  x="16" y="4" width="1" height="1" /><rect shape-rendering="crispEdges" fill="rgb(41, 74, 123)"  x="16" y="5" width="1" height="1" /><rect shape-rendering="crispEdges" fill="rgb(41, 82, 131)"  x="16" y="6" width="1" height="1" /><rect shape-rendering="crispEdges" fill="rgb(74, 123, 164)"  x="16" y="7" width="1" height="1" /><rect shape-rendering="crispEdges" fill="rgb(98, 139, 172)"  x="16" y="8" width="1" height="1" /><rect shape-rendering="crispEdges" fill="rgb(123, 164, 189)"  x="16" y="9" width="1" height="1" /><rect shape-rendering="crispEdges" fill="rgb(131, 164, 197)"  x="16" y="10" width="1" height="1" /><rect shape-rendering="crispEdges" fill="rgb(123, 156, 189)"  x="16" y="11" width="1" height="1" /><rect shape-rendering="crispEdges" fill="rgb(123, 156, 189)"  x="16" y="12" width="1" height="1" /><rect shape-rendering="crispEdges" fill="rgb(123, 156, 180)"  x="16" y="13" width="1" height="1" /><rect shape-rendering="crispEdges" fill="rgb(24, 24, 16)"  x="16" y="14" width="1" height="1" /><rect shape-rendering="crispEdges" fill="rgb(24, 24, 16)"  x="16" y="15" width="1" height="1" /><rect shape-rendering="crispEdges" fill="rgb(180, 148, 65)"  x="16" y="16" width="1" height="1" /><rect shape-rendering="crispEdges" fill="rgb(123, 90, 49)"  x="16" y="17" width="1" height="1" /><rect shape-rendering="crispEdges" fill="rgb(123, 82, 24)"  x="16" y="18" width="1" height="1" /><rect shape-rendering="crispEdges" fill="rgb(123, 82, 32)"  x="16" y="19" width="1" height="1" /><rect shape-rendering="crispEdges" fill="rgb(197, 230, 246)"  x="17" y="3" width="1" height="1" /><rect shape-rendering="crispEdges" fill="rgb(32, 74, 123)"  x="17" y="4" width="1" height="1" /><rect shape-rendering="crispEdges" fill="rgb(32, 74, 123)"  x="17" y="5" width="1" height="1" /><rect shape-rendering="crispEdges" fill="rgb(115, 164, 189)"  x="17" y="6" width="1" height="1" /><rect shape-rendering="crispEdges" fill="rgb(106, 148, 172)"  x="17" y="7" width="1" height="1" /><rect shape-rendering="crispEdges" fill="rgb(131, 172, 197)"  x="17" y="8" width="1" height="1" /><rect shape-rendering="crispEdges" fill="rgb(172, 222, 238)"  x="17" y="9" width="1" height="1" /><rect shape-rendering="crispEdges" fill="rgb(148, 189, 213)"  x="17" y="10" width="1" height="1" /><rect shape-rendering="crispEdges" fill="rgb(115, 139, 172)"  x="17" y="11" width="1" height="1" /><rect shape-rendering="crispEdges" fill="rgb(148, 189, 213)"  x="17" y="12" width="1" height="1" /><rect shape-rendering="crispEdges" fill="rgb(123, 156, 189)"  x="17" y="13" width="1" height="1" /><rect shape-rendering="crispEdges" fill="rgb(172, 213, 238)"  x="17" y="14" width="1" height="1" /><rect shape-rendering="crispEdges" fill="rgb(164, 205, 238)"  x="17" y="15" width="1" height="1" /><rect shape-rendering="crispEdges" fill="rgb(156, 197, 230)"  x="17" y="16" width="1" height="1" /><rect shape-rendering="crispEdges" fill="rgb(123, 156, 180)"  x="17" y="17" width="1" height="1" /><rect shape-rendering="crispEdges" fill="rgb(115, 123, 123)"  x="17" y="18" width="1" height="1" /><rect shape-rendering="crispEdges" fill="rgb(123, 82, 24)"  x="17" y="19" width="1" height="1" /><rect shape-rendering="crispEdges" fill="rgb(123, 82, 32)"  x="17" y="20" width="1" height="1" /><rect shape-rendering="crispEdges" fill="rgb(131, 98, 49)"  x="17" y="21" width="1" height="1" /><rect shape-rendering="crispEdges" fill="rgb(189, 230, 246)"  x="18" y="3" width="1" height="1" /><rect shape-rendering="crispEdges" fill="rgb(98, 139, 172)"  x="18" y="4" width="1" height="1" /><rect shape-rendering="crispEdges" fill="rgb(172, 205, 230)"  x="18" y="5" width="1" height="1" /><rect shape-rendering="crispEdges" fill="rgb(131, 172, 197)"  x="18" y="6" width="1" height="1" /><rect shape-rendering="crispEdges" fill="rgb(180, 230, 238)"  x="18" y="7" width="1" height="1" /><rect shape-rendering="crispEdges" fill="rgb(180, 230, 238)"  x="18" y="8" width="1" height="1" /><rect shape-rendering="crispEdges" fill="rgb(172, 222, 238)"  x="18" y="9" width="1" height="1" /><rect shape-rendering="crispEdges" fill="rgb(123, 156, 189)"  x="18" y="10" width="1" height="1" /><rect shape-rendering="crispEdges" fill="rgb(189, 222, 238)"  x="18" y="11" width="1" height="1" /><rect shape-rendering="crispEdges" fill="rgb(180, 230, 238)"  x="18" y="12" width="1" height="1" /><rect shape-rendering="crispEdges" fill="rgb(148, 189, 213)"  x="18" y="13" width="1" height="1" /><rect shape-rendering="crispEdges" fill="rgb(148, 180, 213)"  x="18" y="14" width="1" height="1" /><rect shape-rendering="crispEdges" fill="rgb(172, 222, 238)"  x="18" y="15" width="1" height="1" /><rect shape-rendering="crispEdges" fill="rgb(180, 222, 238)"  x="18" y="16" width="1" height="1" /><rect shape-rendering="crispEdges" fill="rgb(131, 164, 197)"  x="18" y="17" width="1" height="1" /><rect shape-rendering="crispEdges" fill="rgb(131, 139, 148)"  x="18" y="18" width="1" height="1" /><rect shape-rendering="crispEdges" fill="rgb(123, 74, 16)"  x="18" y="19" width="1" height="1" /><rect shape-rendering="crispEdges" fill="rgb(115, 74, 16)"  x="18" y="20" width="1" height="1" /><rect shape-rendering="crispEdges" fill="rgb(115, 74, 16)"  x="18" y="21" width="1" height="1" /><rect shape-rendering="crispEdges" fill="rgb(123, 90, 41)"  x="18" y="22" width="1" height="1" /><rect shape-rendering="crispEdges" fill="rgb(139, 123, 82)"  x="18" y="23" width="1" height="1" /><rect shape-rendering="crispEdges" fill="rgb(180, 222, 238)"  x="19" y="3" width="1" height="1" /><rect shape-rendering="crispEdges" fill="rgb(131, 164, 189)"  x="19" y="4" width="1" height="1" /><rect shape-rendering="crispEdges" fill="rgb(131, 164, 189)"  x="19" y="5" width="1" height="1" /><rect shape-rendering="crispEdges" fill="rgb(180, 230, 238)"  x="19" y="6" width="1" height="1" /><rect shape-rendering="crispEdges" fill="rgb(180, 230, 238)"  x="19" y="7" width="1" height="1" /><rect shape-rendering="crispEdges" fill="rgb(180, 230, 238)"  x="19" y="8" width="1" height="1" /><rect shape-rendering="crispEdges" fill="rgb(148, 180, 205)"  x="19" y="9" width="1" height="1" /><rect shape-rendering="crispEdges" fill="rgb(115, 148, 180)"  x="19" y="10" width="1" height="1" /><rect shape-rendering="crispEdges" fill="rgb(164, 197, 213)"  x="19" y="11" width="1" height="1" /><rect shape-rendering="crispEdges" fill="rgb(180, 230, 246)"  x="19" y="12" width="1" height="1" /><rect shape-rendering="crispEdges" fill="rgb(189, 230, 246)"  x="19" y="13" width="1" height="1" /><rect shape-rendering="crispEdges" fill="rgb(148, 180, 205)"  x="19" y="14" width="1" height="1" /><rect shape-rendering="crispEdges" fill="rgb(139, 172, 205)"  x="19" y="15" width="1" height="1" /><rect shape-rendering="crispEdges" fill="rgb(164, 197, 230)"  x="19" y="16" width="1" height="1" /><rect shape-rendering="crispEdges" fill="rgb(123, 164, 197)"  x="19" y="17" width="1" height="1" /><rect shape-rendering="crispEdges" fill="rgb(131, 131, 123)"  x="19" y="18" width="1" height="1" /><rect shape-rendering="crispEdges" fill="rgb(115, 65, 16)"  x="19" y="19" width="1" height="1" /><rect shape-rendering="crispEdges" fill="rgb(139, 90, 32)"  x="19" y="20" width="1" height="1" /><rect shape-rendering="crispEdges" fill="rgb(115, 74, 16)"  x="19" y="21" width="1" height="1" /><rect shape-rendering="crispEdges" fill="rgb(115, 74, 16)"  x="19" y="22" width="1" height="1" /><rect shape-rendering="crispEdges" fill="rgb(115, 74, 24)"  x="19" y="23" width="1" height="1" /><rect shape-rendering="crispEdges" fill="rgb(131, 106, 65)"  x="19" y="24" width="1" height="1" /><rect shape-rendering="crispEdges" fill="rgb(139, 123, 82)"  x="19" y="25" width="1" height="1" /><rect shape-rendering="crispEdges" fill="rgb(180, 222, 238)"  x="20" y="3" width="1" height="1" /><rect shape-rendering="crispEdges" fill="rgb(180, 222, 238)"  x="20" y="4" width="1" height="1" /><rect shape-rendering="crispEdges" fill="rgb(180, 222, 238)"  x="20" y="5" width="1" height="1" /><rect shape-rendering="crispEdges" fill="rgb(180, 222, 238)"  x="20" y="6" width="1" height="1" /><rect shape-rendering="crispEdges" fill="rgb(180, 222, 238)"  x="20" y="7" width="1" height="1" /><rect shape-rendering="crispEdges" fill="rgb(148, 189, 213)"  x="20" y="8" width="1" height="1" /><rect shape-rendering="crispEdges" fill="rgb(131, 156, 189)"  x="20" y="9" width="1" height="1" /><rect shape-rendering="crispEdges" fill="rgb(123, 131, 172)"  x="20" y="10" width="1" height="1" /><rect shape-rendering="crispEdges" fill="rgb(106, 131, 164)"  x="20" y="11" width="1" height="1" /><rect shape-rendering="crispEdges" fill="rgb(156, 197, 213)"  x="20" y="12" width="1" height="1" /><rect shape-rendering="crispEdges" fill="rgb(180, 230, 238)"  x="20" y="13" width="1" height="1" /><rect shape-rendering="crispEdges" fill="rgb(131, 172, 197)"  x="20" y="14" width="1" height="1" /><rect shape-rendering="crispEdges" fill="rgb(123, 148, 180)"  x="20" y="15" width="1" height="1" /><rect shape-rendering="crispEdges" fill="rgb(139, 172, 205)"  x="20" y="16" width="1" height="1" /><rect shape-rendering="crispEdges" fill="rgb(123, 164, 197)"  x="20" y="17" width="1" height="1" /><rect shape-rendering="crispEdges" fill="rgb(139, 123, 98)"  x="20" y="18" width="1" height="1" /><rect shape-rendering="crispEdges" fill="rgb(131, 90, 24)"  x="20" y="19" width="1" height="1" /><rect shape-rendering="crispEdges" fill="rgb(164, 123, 49)"  x="20" y="20" width="1" height="1" /><rect shape-rendering="crispEdges" fill="rgb(139, 98, 32)"  x="20" y="21" width="1" height="1" /><rect shape-rendering="crispEdges" fill="rgb(115, 65, 16)"  x="20" y="22" width="1" height="1" /><rect shape-rendering="crispEdges" fill="rgb(115, 74, 16)"  x="20" y="23" width="1" height="1" /><rect shape-rendering="crispEdges" fill="rgb(115, 74, 16)"  x="20" y="24" width="1" height="1" /><rect shape-rendering="crispEdges" fill="rgb(115, 74, 16)"  x="20" y="25" width="1" height="1" /><rect shape-rendering="crispEdges" fill="rgb(123, 90, 41)"  x="20" y="26" width="1" height="1" /><rect shape-rendering="crispEdges" fill="rgb(139, 123, 82)"  x="20" y="27" width="1" height="1" /><rect shape-rendering="crispEdges" fill="rgb(139, 131, 90)"  x="20" y="28" width="1" height="1" /><rect shape-rendering="crispEdges" fill="rgb(180, 222, 238)"  x="21" y="3" width="1" height="1" /><rect shape-rendering="crispEdges" fill="rgb(180, 222, 238)"  x="21" y="4" width="1" height="1" /><rect shape-rendering="crispEdges" fill="rgb(172, 222, 238)"  x="21" y="5" width="1" height="1" /><rect shape-rendering="crispEdges" fill="rgb(115, 148, 180)"  x="21" y="6" width="1" height="1" /><rect shape-rendering="crispEdges" fill="rgb(123, 156, 189)"  x="21" y="7" width="1" height="1" /><rect shape-rendering="crispEdges" fill="rgb(106, 131, 164)"  x="21" y="8" width="1" height="1" /><rect shape-rendering="crispEdges" fill="rgb(123, 131, 172)"  x="21" y="9" width="1" height="1" /><rect shape-rendering="crispEdges" fill="rgb(106, 115, 156)"  x="21" y="10" width="1" height="1" /><rect shape-rendering="crispEdges" fill="rgb(139, 139, 172)"  x="21" y="11" width="1" height="1" /><rect shape-rendering="crispEdges" fill="rgb(131, 148, 180)"  x="21" y="12" width="1" height="1" /><rect shape-rendering="crispEdges" fill="rgb(115, 148, 180)"  x="21" y="13" width="1" height="1" /><rect shape-rendering="crispEdges" fill="rgb(115, 139, 172)"  x="21" y="14" width="1" height="1" /><rect shape-rendering="crispEdges" fill="rgb(131, 139, 172)"  x="21" y="15" width="1" height="1" /><rect shape-rendering="crispEdges" fill="rgb(106, 139, 172)"  x="21" y="16" width="1" height="1" /><rect shape-rendering="crispEdges" fill="rgb(115, 148, 189)"  x="21" y="17" width="1" height="1" /><rect shape-rendering="crispEdges" fill="rgb(123, 106, 74)"  x="21" y="18" width="1" height="1" /><rect shape-rendering="crispEdges" fill="rgb(180, 139, 65)"  x="21" y="19" width="1" height="1" /><rect shape-rendering="crispEdges" fill="rgb(180, 139, 65)"  x="21" y="20" width="1" height="1" /><rect shape-rendering="crispEdges" fill="rgb(189, 148, 65)"  x="21" y="21" width="1" height="1" /><rect shape-rendering="crispEdges" fill="rgb(131, 90, 24)"  x="21" y="22" width="1" height="1" /><rect shape-rendering="crispEdges" fill="rgb(123, 82, 24)"  x="21" y="23" width="1" height="1" /><rect shape-rendering="crispEdges" fill="rgb(123, 74, 24)"  x="21" y="24" width="1" height="1" /><rect shape-rendering="crispEdges" fill="rgb(115, 74, 24)"  x="21" y="25" width="1" height="1" /><rect shape-rendering="crispEdges" fill="rgb(115, 74, 16)"  x="21" y="26" width="1" height="1" /><rect shape-rendering="crispEdges" fill="rgb(115, 74, 24)"  x="21" y="27" width="1" height="1" /><rect shape-rendering="crispEdges" fill="rgb(131, 106, 65)"  x="21" y="28" width="1" height="1" /><rect shape-rendering="crispEdges" fill="rgb(139, 123, 82)"  x="21" y="29" width="1" height="1" /><rect shape-rendering="crispEdges" fill="rgb(180, 222, 238)"  x="22" y="3" width="1" height="1" /><rect shape-rendering="crispEdges" fill="rgb(180, 222, 238)"  x="22" y="4" width="1" height="1" /><rect shape-rendering="crispEdges" fill="rgb(180, 222, 238)"  x="22" y="5" width="1" height="1" /><rect shape-rendering="crispEdges" fill="rgb(123, 156, 180)"  x="22" y="6" width="1" height="1" /><rect shape-rendering="crispEdges" fill="rgb(98, 131, 156)"  x="22" y="7" width="1" height="1" /><rect shape-rendering="crispEdges" fill="rgb(131, 139, 172)"  x="22" y="8" width="1" height="1" /><rect shape-rendering="crispEdges" fill="rgb(90, 106, 148)"  x="22" y="9" width="1" height="1" /><rect shape-rendering="crispEdges" fill="rgb(74, 98, 139)"  x="22" y="12" width="1" height="1" /><rect shape-rendering="crispEdges" fill="rgb(123, 131, 172)"  x="22" y="13" width="1" height="1" /><rect shape-rendering="crispEdges" fill="rgb(131, 139, 172)"  x="22" y="14" width="1" height="1" /><rect shape-rendering="crispEdges" fill="rgb(139, 139, 172)"  x="22" y="15" width="1" height="1" /><rect shape-rendering="crispEdges" fill="rgb(106, 131, 164)"  x="22" y="16" width="1" height="1" /><rect shape-rendering="crispEdges" fill="rgb(106, 139, 172)"  x="22" y="17" width="1" height="1" /><rect shape-rendering="crispEdges" fill="rgb(115, 82, 41)"  x="22" y="18" width="1" height="1" /><rect shape-rendering="crispEdges" fill="rgb(148, 106, 41)"  x="22" y="19" width="1" height="1" /><rect shape-rendering="crispEdges" fill="rgb(180, 139, 65)"  x="22" y="20" width="1" height="1" /><rect shape-rendering="crispEdges" fill="rgb(180, 139, 65)"  x="22" y="21" width="1" height="1" /><rect shape-rendering="crispEdges" fill="rgb(180, 139, 65)"  x="22" y="22" width="1" height="1" /><rect shape-rendering="crispEdges" fill="rgb(180, 148, 65)"  x="22" y="23" width="1" height="1" /><rect shape-rendering="crispEdges" fill="rgb(164, 123, 49)"  x="22" y="24" width="1" height="1" /><rect shape-rendering="crispEdges" fill="rgb(131, 90, 32)"  x="22" y="25" width="1" height="1" /><rect shape-rendering="crispEdges" fill="rgb(115, 74, 16)"  x="22" y="26" width="1" height="1" /><rect shape-rendering="crispEdges" fill="rgb(115, 74, 16)"  x="22" y="27" width="1" height="1" /><rect shape-rendering="crispEdges" fill="rgb(123, 74, 24)"  x="22" y="28" width="1" height="1" /><rect shape-rendering="crispEdges" fill="rgb(123, 82, 32)"  x="22" y="29" width="1" height="1" /><rect shape-rendering="crispEdges" fill="rgb(180, 222, 238)"  x="23" y="4" width="1" height="1" /><rect shape-rendering="crispEdges" fill="rgb(180, 230, 238)"  x="23" y="5" width="1" height="1" /><rect shape-rendering="crispEdges" fill="rgb(180, 222, 238)"  x="23" y="6" width="1" height="1" /><rect shape-rendering="crispEdges" fill="rgb(148, 180, 205)"  x="23" y="7" width="1" height="1" /><rect shape-rendering="crispEdges" fill="rgb(156, 180, 205)"  x="23" y="8" width="1" height="1" /><rect shape-rendering="crispEdges" fill="rgb(139, 139, 172)"  x="23" y="9" width="1" height="1" /><rect shape-rendering="crispEdges" fill="rgb(74, 90, 139)"  x="23" y="14" width="1" height="1" /><rect shape-rendering="crispEdges" fill="rgb(123, 131, 172)"  x="23" y="15" width="1" height="1" /><rect shape-rendering="crispEdges" fill="rgb(123, 131, 172)"  x="23" y="16" width="1" height="1" /><rect shape-rendering="crispEdges" fill="rgb(98, 131, 164)"  x="23" y="17" width="1" height="1" /><rect shape-rendering="crispEdges" fill="rgb(106, 82, 49)"  x="23" y="18" width="1" height="1" /><rect shape-rendering="crispEdges" fill="rgb(131, 90, 24)"  x="23" y="19" width="1" height="1" /><rect shape-rendering="crispEdges" fill="rgb(172, 131, 57)"  x="23" y="20" width="1" height="1" /><rect shape-rendering="crispEdges" fill="rgb(180, 139, 65)"  x="23" y="21" width="1" height="1" /><rect shape-rendering="crispEdges" fill="rgb(180, 139, 65)"  x="23" y="22" width="1" height="1" /><rect shape-rendering="crispEdges" fill="rgb(180, 139, 65)"  x="23" y="23" width="1" height="1" /><rect shape-rendering="crispEdges" fill="rgb(180, 139, 65)"  x="23" y="24" width="1" height="1" /><rect shape-rendering="crispEdges" fill="rgb(180, 139, 65)"  x="23" y="25" width="1" height="1" /><rect shape-rendering="crispEdges" fill="rgb(148, 106, 41)"  x="23" y="26" width="1" height="1" /><rect shape-rendering="crispEdges" fill="rgb(123, 74, 24)"  x="23" y="27" width="1" height="1" /><rect shape-rendering="crispEdges" fill="rgb(115, 74, 16)"  x="23" y="28" width="1" height="1" /><rect shape-rendering="crispEdges" fill="rgb(123, 74, 24)"  x="23" y="29" width="1" height="1" /><rect shape-rendering="crispEdges" fill="rgb(172, 213, 238)"  x="24" y="5" width="1" height="1" /><rect shape-rendering="crispEdges" fill="rgb(180, 230, 246)"  x="24" y="6" width="1" height="1" /><rect shape-rendering="crispEdges" fill="rgb(189, 230, 246)"  x="24" y="7" width="1" height="1" /><rect shape-rendering="crispEdges" fill="rgb(156, 197, 213)"  x="24" y="8" width="1" height="1" /><rect shape-rendering="crispEdges" fill="rgb(123, 148, 180)"  x="24" y="9" width="1" height="1" /><rect shape-rendering="crispEdges" fill="rgb(115, 123, 164)"  x="24" y="10" width="1" height="1" /><rect shape-rendering="crispEdges" fill="rgb(106, 115, 156)"  x="24" y="16" width="1" height="1" /><rect shape-rendering="crispEdges" fill="rgb(131, 139, 172)"  x="24" y="17" width="1" height="1" /><rect shape-rendering="crispEdges" fill="rgb(106, 82, 57)"  x="24" y="18" width="1" height="1" /><rect shape-rendering="crispEdges" fill="rgb(123, 74, 16)"  x="24" y="19" width="1" height="1" /><rect shape-rendering="crispEdges" fill="rgb(156, 106, 41)"  x="24" y="20" width="1" height="1" /><rect shape-rendering="crispEdges" fill="rgb(180, 139, 65)"  x="24" y="21" width="1" height="1" /><rect shape-rendering="crispEdges" fill="rgb(180, 139, 65)"  x="24" y="22" width="1" height="1" /><rect shape-rendering="crispEdges" fill="rgb(180, 139, 65)"  x="24" y="23" width="1" height="1" /><rect shape-rendering="crispEdges" fill="rgb(180, 139, 65)"  x="24" y="24" width="1" height="1" /><rect shape-rendering="crispEdges" fill="rgb(180, 139, 65)"  x="24" y="25" width="1" height="1" /><rect shape-rendering="crispEdges" fill="rgb(172, 131, 57)"  x="24" y="26" width="1" height="1" /><rect shape-rendering="crispEdges" fill="rgb(156, 115, 49)"  x="24" y="27" width="1" height="1" /><rect shape-rendering="crispEdges" fill="rgb(139, 98, 32)"  x="24" y="28" width="1" height="1" /><rect shape-rendering="crispEdges" fill="rgb(123, 82, 24)"  x="24" y="29" width="1" height="1" /><rect shape-rendering="crispEdges" fill="rgb(172, 213, 238)"  x="25" y="6" width="1" height="1" /><rect shape-rendering="crispEdges" fill="rgb(172, 222, 238)"  x="25" y="7" width="1" height="1" /><rect shape-rendering="crispEdges" fill="rgb(180, 230, 246)"  x="25" y="8" width="1" height="1" /><rect shape-rendering="crispEdges" fill="rgb(197, 230, 246)"  x="25" y="9" width="1" height="1" /><rect shape-rendering="crispEdges" fill="rgb(106, 148, 172)"  x="25" y="10" width="1" height="1" /><rect shape-rendering="crispEdges" fill="rgb(90, 123, 156)"  x="25" y="11" width="1" height="1" /><rect shape-rendering="crispEdges" fill="rgb(98, 106, 156)"  x="25" y="17" width="1" height="1" /><rect shape-rendering="crispEdges" fill="rgb(98, 74, 41)"  x="25" y="20" width="1" height="1" /><rect shape-rendering="crispEdges" fill="rgb(123, 82, 24)"  x="25" y="21" width="1" height="1" /><rect shape-rendering="crispEdges" fill="rgb(148, 98, 41)"  x="25" y="22" width="1" height="1" /><rect shape-rendering="crispEdges" fill="rgb(156, 115, 49)"  x="25" y="23" width="1" height="1" /><rect shape-rendering="crispEdges" fill="rgb(164, 115, 49)"  x="25" y="24" width="1" height="1" /><rect shape-rendering="crispEdges" fill="rgb(156, 115, 41)"  x="25" y="25" width="1" height="1" /><rect shape-rendering="crispEdges" fill="rgb(148, 106, 41)"  x="25" y="26" width="1" height="1" /><rect shape-rendering="crispEdges" fill="rgb(148, 106, 41)"  x="25" y="27" width="1" height="1" /><rect shape-rendering="crispEdges" fill="rgb(148, 106, 41)"  x="25" y="28" width="1" height="1" /><rect shape-rendering="crispEdges" fill="rgb(148, 106, 41)"  x="25" y="29" width="1" height="1" /><rect shape-rendering="crispEdges" fill="rgb(156, 205, 222)"  x="26" y="7" width="1" height="1" /><rect shape-rendering="crispEdges" fill="rgb(189, 230, 246)"  x="26" y="8" width="1" height="1" /><rect shape-rendering="crispEdges" fill="rgb(164, 205, 230)"  x="26" y="9" width="1" height="1" /><rect shape-rendering="crispEdges" fill="rgb(156, 197, 213)"  x="26" y="10" width="1" height="1" /><rect shape-rendering="crispEdges" fill="rgb(98, 139, 164)"  x="26" y="11" width="1" height="1" /><rect shape-rendering="crispEdges" fill="rgb(90, 123, 156)"  x="26" y="12" width="1" height="1" /><rect shape-rendering="crispEdges" fill="rgb(98, 74, 41)"  x="26" y="22" width="1" height="1" /><rect shape-rendering="crispEdges" fill="rgb(131, 90, 32)"  x="26" y="23" width="1" height="1" /><rect shape-rendering="crispEdges" fill="rgb(148, 106, 41)"  x="26" y="24" width="1" height="1" /><rect shape-rendering="crispEdges" fill="rgb(148, 106, 41)"  x="26" y="25" width="1" height="1" /><rect shape-rendering="crispEdges" fill="rgb(148, 106, 41)"  x="26" y="26" width="1" height="1" /><rect shape-rendering="crispEdges" fill="rgb(148, 106, 41)"  x="26" y="27" width="1" height="1" /><rect shape-rendering="crispEdges" fill="rgb(148, 106, 41)"  x="26" y="28" width="1" height="1" /><rect shape-rendering="crispEdges" fill="rgb(148, 106, 41)"  x="26" y="29" width="1" height="1" /><rect shape-rendering="crispEdges" fill="rgb(172, 213, 230)"  x="27" y="8" width="1" height="1" /><rect shape-rendering="crispEdges" fill="rgb(189, 230, 246)"  x="27" y="9" width="1" height="1" /><rect shape-rendering="crispEdges" fill="rgb(189, 230, 246)"  x="27" y="10" width="1" height="1" /><rect shape-rendering="crispEdges" fill="rgb(148, 189, 213)"  x="27" y="11" width="1" height="1" /><rect shape-rendering="crispEdges" fill="rgb(90, 123, 156)"  x="27" y="12" width="1" height="1" /><rect shape-rendering="crispEdges" fill="rgb(139, 123, 82)"  x="27" y="25" width="1" height="1" /><rect shape-rendering="crispEdges" fill="rgb(148, 115, 65)"  x="27" y="26" width="1" height="1" /><rect shape-rendering="crispEdges" fill="rgb(148, 115, 49)"  x="27" y="27" width="1" height="1" /><rect shape-rendering="crispEdges" fill="rgb(148, 106, 49)"  x="27" y="28" width="1" height="1" /><rect shape-rendering="crispEdges" fill="rgb(148, 115, 49)"  x="27" y="29" width="1" height="1" /><rect shape-rendering="crispEdges" fill="rgb(180, 230, 246)"  x="28" y="9" width="1" height="1" /><rect shape-rendering="crispEdges" fill="rgb(172, 222, 230)"  x="28" y="10" width="1" height="1" /><rect shape-rendering="crispEdges" fill="rgb(106, 148, 172)"  x="28" y="11" width="1" height="1" /><rect shape-rendering="crispEdges" fill="rgb(74, 106, 139)"  x="28" y="12" width="1" height="1" /><rect shape-rendering="crispEdges" fill="rgb(139, 123, 82)"  x="28" y="27" width="1" height="1" /><rect shape-rendering="crispEdges" fill="rgb(139, 123, 82)"  x="28" y="28" width="1" height="1" /><rect shape-rendering="crispEdges" fill="rgb(139, 123, 82)"  x="28" y="29" width="1" height="1" /><rect shape-rendering="crispEdges" fill="rgb(98, 139, 164)"  x="29" y="10" width="1" height="1" /><rect shape-rendering="crispEdges" fill="rgb(82, 115, 148)"  x="29" y="11" width="1" height="1" /></svg>