<svg xmlns="http://www.w3.org/2000/svg" xmlns:xlink= "http://www.w3.org/1999/xlink" width="32" height="32" viewBox ="0 0 32 32"><rect shape-rendering="crispEdges" fill="rgb(134, 80, 124)"  x="1" y="20" width="1" height="1" /><rect shape-rendering="crispEdges" fill="rgb(28, 10, 44)"  x="1" y="21" width="1" height="1" /><rect shape-rendering="crispEdges" fill="rgb(118, 82, 141)"  x="2" y="18" width="1" height="1" /><rect shape-rendering="crispEdges" fill="rgb(36, 18, 61)"  x="2" y="19" width="1" height="1" /><rect shape-rendering="crispEdges" fill="rgb(118, 82, 141)"  x="2" y="20" width="1" height="1" /><rect shape-rendering="crispEdges" fill="rgb(143, 107, 163)"  x="2" y="21" width="1" height="1" /><rect shape-rendering="crispEdges" fill="rgb(123, 87, 146)"  x="2" y="22" width="1" height="1" /><rect shape-rendering="crispEdges" fill="rgb(161, 52, 95)"  x="2" y="23" width="1" height="1" /><rect shape-rendering="crispEdges" fill="rgb(127, 91, 149)"  x="3" y="16" width="1" height="1" /><rect shape-rendering="crispEdges" fill="rgb(40, 21, 65)"  x="3" y="17" width="1" height="1" /><rect shape-rendering="crispEdges" fill="rgb(118, 82, 141)"  x="3" y="18" width="1" height="1" /><rect shape-rendering="crispEdges" fill="rgb(143, 107, 163)"  x="3" y="19" width="1" height="1" /><rect shape-rendering="crispEdges" fill="rgb(139, 103, 160)"  x="3" y="20" width="1" height="1" /><rect shape-rendering="crispEdges" fill="rgb(127, 91, 149)"  x="3" y="21" width="1" height="1" /><rect shape-rendering="crispEdges" fill="rgb(114, 78, 138)"  x="3" y="22" width="1" height="1" /><rect shape-rendering="crispEdges" fill="rgb(102, 67, 127)"  x="3" y="23" width="1" height="1" /><rect shape-rendering="crispEdges" fill="rgb(128, 91, 148)"  x="4" y="14" width="1" height="1" /><rect shape-rendering="crispEdges" fill="rgb(40, 21, 65)"  x="4" y="15" width="1" height="1" /><rect shape-rendering="crispEdges" fill="rgb(48, 26, 75)"  x="4" y="16" width="1" height="1" /><rect shape-rendering="crispEdges" fill="rgb(164, 130, 181)"  x="4" y="17" width="1" height="1" /><rect shape-rendering="crispEdges" fill="rgb(192, 165, 204)"  x="4" y="18" width="1" height="1" /><rect shape-rendering="crispEdges" fill="rgb(139, 103, 160)"  x="4" y="19" width="1" height="1" /><rect shape-rendering="crispEdges" fill="rgb(119, 83, 142)"  x="4" y="20" width="1" height="1" /><rect shape-rendering="crispEdges" fill="rgb(102, 67, 127)"  x="4" y="21" width="1" height="1" /><rect shape-rendering="crispEdges" fill="rgb(29, 14, 49)"  x="4" y="22" width="1" height="1" /><rect shape-rendering="crispEdges" fill="rgb(114, 20, 82)"  x="4" y="23" width="1" height="1" /><rect shape-rendering="crispEdges" fill="rgb(42, 22, 61)"  x="5" y="12" width="1" height="1" /><rect shape-rendering="crispEdges" fill="rgb(48, 26, 75)"  x="5" y="13" width="1" height="1" /><rect shape-rendering="crispEdges" fill="rgb(57, 32, 84)"  x="5" y="14" width="1" height="1" /><rect shape-rendering="crispEdges" fill="rgb(176, 145, 191)"  x="5" y="15" width="1" height="1" /><rect shape-rendering="crispEdges" fill="rgb(209, 187, 218)"  x="5" y="16" width="1" height="1" /><rect shape-rendering="crispEdges" fill="rgb(217, 199, 225)"  x="5" y="17" width="1" height="1" /><rect shape-rendering="crispEdges" fill="rgb(48, 26, 75)"  x="5" y="18" width="1" height="1" /><rect shape-rendering="crispEdges" fill="rgb(106, 71, 131)"  x="5" y="19" width="1" height="1" /><rect shape-rendering="crispEdges" fill="rgb(24, 11, 44)"  x="5" y="20" width="1" height="1" /><rect shape-rendering="crispEdges" fill="rgb(91, 38, 95)"  x="5" y="21" width="1" height="1" /><rect shape-rendering="crispEdges" fill="rgb(24, 11, 44)"  x="5" y="28" width="1" height="1" /><rect shape-rendering="crispEdges" fill="rgb(133, 96, 141)"  x="6" y="10" width="1" height="1" /><rect shape-rendering="crispEdges" fill="rgb(57, 32, 84)"  x="6" y="11" width="1" height="1" /><rect shape-rendering="crispEdges" fill="rgb(57, 32, 84)"  x="6" y="12" width="1" height="1" /><rect shape-rendering="crispEdges" fill="rgb(57, 32, 84)"  x="6" y="13" width="1" height="1" /><rect shape-rendering="crispEdges" fill="rgb(217, 199, 225)"  x="6" y="14" width="1" height="1" /><rect shape-rendering="crispEdges" fill="rgb(221, 205, 228)"  x="6" y="15" width="1" height="1" /><rect shape-rendering="crispEdges" fill="rgb(48, 26, 75)"  x="6" y="16" width="1" height="1" /><rect shape-rendering="crispEdges" fill="rgb(36, 18, 61)"  x="6" y="17" width="1" height="1" /><rect shape-rendering="crispEdges" fill="rgb(127, 91, 149)"  x="6" y="18" width="1" height="1" /><rect shape-rendering="crispEdges" fill="rgb(87, 53, 112)"  x="6" y="19" width="1" height="1" /><rect shape-rendering="crispEdges" fill="rgb(24, 11, 44)"  x="6" y="26" width="1" height="1" /><rect shape-rendering="crispEdges" fill="rgb(24, 11, 44)"  x="6" y="27" width="1" height="1" /><rect shape-rendering="crispEdges" fill="rgb(176, 145, 191)"  x="6" y="28" width="1" height="1" /><rect shape-rendering="crispEdges" fill="rgb(57, 31, 52)"  x="7" y="8" width="1" height="1" /><rect shape-rendering="crispEdges" fill="rgb(58, 32, 82)"  x="7" y="9" width="1" height="1" /><rect shape-rendering="crispEdges" fill="rgb(57, 32, 84)"  x="7" y="10" width="1" height="1" /><rect shape-rendering="crispEdges" fill="rgb(201, 177, 212)"  x="7" y="11" width="1" height="1" /><rect shape-rendering="crispEdges" fill="rgb(65, 38, 92)"  x="7" y="12" width="1" height="1" /><rect shape-rendering="crispEdges" fill="rgb(225, 210, 231)"  x="7" y="13" width="1" height="1" /><rect shape-rendering="crispEdges" fill="rgb(40, 21, 65)"  x="7" y="14" width="1" height="1" /><rect shape-rendering="crispEdges" fill="rgb(48, 26, 75)"  x="7" y="15" width="1" height="1" /><rect shape-rendering="crispEdges" fill="rgb(127, 91, 149)"  x="7" y="16" width="1" height="1" /><rect shape-rendering="crispEdges" fill="rgb(16, 7, 32)"  x="7" y="17" width="1" height="1" /><rect shape-rendering="crispEdges" fill="rgb(18, 8, 28)"  x="7" y="18" width="1" height="1" /><rect shape-rendering="crispEdges" fill="rgb(49, 8, 32)"  x="7" y="23" width="1" height="1" /><rect shape-rendering="crispEdges" fill="rgb(33, 12, 29)"  x="7" y="24" width="1" height="1" /><rect shape-rendering="crispEdges" fill="rgb(32, 16, 56)"  x="7" y="25" width="1" height="1" /><rect shape-rendering="crispEdges" fill="rgb(172, 140, 188)"  x="7" y="26" width="1" height="1" /><rect shape-rendering="crispEdges" fill="rgb(192, 165, 204)"  x="7" y="27" width="1" height="1" /><rect shape-rendering="crispEdges" fill="rgb(63, 37, 70)"  x="7" y="28" width="1" height="1" /><rect shape-rendering="crispEdges" fill="rgb(60, 32, 44)"  x="8" y="6" width="1" height="1" /><rect shape-rendering="crispEdges" fill="rgb(50, 27, 69)"  x="8" y="7" width="1" height="1" /><rect shape-rendering="crispEdges" fill="rgb(48, 26, 75)"  x="8" y="8" width="1" height="1" /><rect shape-rendering="crispEdges" fill="rgb(201, 177, 212)"  x="8" y="9" width="1" height="1" /><rect shape-rendering="crispEdges" fill="rgb(230, 217, 235)"  x="8" y="10" width="1" height="1" /><rect shape-rendering="crispEdges" fill="rgb(48, 26, 75)"  x="8" y="11" width="1" height="1" /><rect shape-rendering="crispEdges" fill="rgb(180, 150, 194)"  x="8" y="12" width="1" height="1" /><rect shape-rendering="crispEdges" fill="rgb(40, 21, 65)"  x="8" y="13" width="1" height="1" /><rect shape-rendering="crispEdges" fill="rgb(24, 11, 44)"  x="8" y="14" width="1" height="1" /><rect shape-rendering="crispEdges" fill="rgb(16, 7, 32)"  x="8" y="15" width="1" height="1" /><rect shape-rendering="crispEdges" fill="rgb(16, 7, 32)"  x="8" y="16" width="1" height="1" /><rect shape-rendering="crispEdges" fill="rgb(134, 97, 140)"  x="8" y="17" width="1" height="1" /><rect shape-rendering="crispEdges" fill="rgb(28, 13, 36)"  x="8" y="20" width="1" height="1" /><rect shape-rendering="crispEdges" fill="rgb(24, 11, 44)"  x="8" y="21" width="1" height="1" /><rect shape-rendering="crispEdges" fill="rgb(127, 91, 149)"  x="8" y="22" width="1" height="1" /><rect shape-rendering="crispEdges" fill="rgb(28, 14, 50)"  x="8" y="23" width="1" height="1" /><rect shape-rendering="crispEdges" fill="rgb(164, 130, 181)"  x="8" y="24" width="1" height="1" /><rect shape-rendering="crispEdges" fill="rgb(209, 187, 218)"  x="8" y="25" width="1" height="1" /><rect shape-rendering="crispEdges" fill="rgb(57, 32, 84)"  x="8" y="26" width="1" height="1" /><rect shape-rendering="crispEdges" fill="rgb(58, 33, 81)"  x="8" y="27" width="1" height="1" /><rect shape-rendering="crispEdges" fill="rgb(61, 32, 42)"  x="9" y="5" width="1" height="1" /><rect shape-rendering="crispEdges" fill="rgb(69, 41, 96)"  x="9" y="6" width="1" height="1" /><rect shape-rendering="crispEdges" fill="rgb(65, 38, 92)"  x="9" y="7" width="1" height="1" /><rect shape-rendering="crispEdges" fill="rgb(217, 199, 225)"  x="9" y="8" width="1" height="1" /><rect shape-rendering="crispEdges" fill="rgb(32, 16, 56)"  x="9" y="9" width="1" height="1" /><rect shape-rendering="crispEdges" fill="rgb(73, 43, 100)"  x="9" y="10" width="1" height="1" /><rect shape-rendering="crispEdges" fill="rgb(77, 46, 104)"  x="9" y="11" width="1" height="1" /><rect shape-rendering="crispEdges" fill="rgb(32, 16, 56)"  x="9" y="12" width="1" height="1" /><rect shape-rendering="crispEdges" fill="rgb(127, 91, 149)"  x="9" y="13" width="1" height="1" /><rect shape-rendering="crispEdges" fill="rgb(24, 11, 44)"  x="9" y="14" width="1" height="1" /><rect shape-rendering="crispEdges" fill="rgb(20, 10, 38)"  x="9" y="15" width="1" height="1" /><rect shape-rendering="crispEdges" fill="rgb(24, 11, 44)"  x="9" y="16" width="1" height="1" /><rect shape-rendering="crispEdges" fill="rgb(127, 91, 149)"  x="9" y="17" width="1" height="1" /><rect shape-rendering="crispEdges" fill="rgb(24, 11, 44)"  x="9" y="18" width="1" height="1" /><rect shape-rendering="crispEdges" fill="rgb(24, 11, 44)"  x="9" y="19" width="1" height="1" /><rect shape-rendering="crispEdges" fill="rgb(28, 14, 50)"  x="9" y="20" width="1" height="1" /><rect shape-rendering="crispEdges" fill="rgb(32, 16, 56)"  x="9" y="21" width="1" height="1" /><rect shape-rendering="crispEdges" fill="rgb(155, 120, 174)"  x="9" y="22" width="1" height="1" /><rect shape-rendering="crispEdges" fill="rgb(201, 177, 212)"  x="9" y="23" width="1" height="1" /><rect shape-rendering="crispEdges" fill="rgb(61, 35, 88)"  x="9" y="24" width="1" height="1" /><rect shape-rendering="crispEdges" fill="rgb(57, 32, 84)"  x="9" y="25" width="1" height="1" /><rect shape-rendering="crispEdges" fill="rgb(57, 32, 84)"  x="9" y="26" width="1" height="1" /><rect shape-rendering="crispEdges" fill="rgb(52, 29, 63)"  x="10" y="5" width="1" height="1" /><rect shape-rendering="crispEdges" fill="rgb(209, 187, 218)"  x="10" y="6" width="1" height="1" /><rect shape-rendering="crispEdges" fill="rgb(209, 187, 218)"  x="10" y="7" width="1" height="1" /><rect shape-rendering="crispEdges" fill="rgb(48, 26, 75)"  x="10" y="8" width="1" height="1" /><rect shape-rendering="crispEdges" fill="rgb(65, 38, 92)"  x="10" y="9" width="1" height="1" /><rect shape-rendering="crispEdges" fill="rgb(118, 82, 141)"  x="10" y="10" width="1" height="1" /><rect shape-rendering="crispEdges" fill="rgb(213, 193, 221)"  x="10" y="11" width="1" height="1" /><rect shape-rendering="crispEdges" fill="rgb(118, 82, 141)"  x="10" y="12" width="1" height="1" /><rect shape-rendering="crispEdges" fill="rgb(32, 16, 56)"  x="10" y="13" width="1" height="1" /><rect shape-rendering="crispEdges" fill="rgb(184, 155, 198)"  x="10" y="14" width="1" height="1" /><rect shape-rendering="crispEdges" fill="rgb(201, 177, 212)"  x="10" y="15" width="1" height="1" /><rect shape-rendering="crispEdges" fill="rgb(209, 187, 218)"  x="10" y="16" width="1" height="1" /><rect shape-rendering="crispEdges" fill="rgb(209, 187, 218)"  x="10" y="17" width="1" height="1" /><rect shape-rendering="crispEdges" fill="rgb(209, 187, 218)"  x="10" y="18" width="1" height="1" /><rect shape-rendering="crispEdges" fill="rgb(213, 193, 221)"  x="10" y="19" width="1" height="1" /><rect shape-rendering="crispEdges" fill="rgb(217, 199, 225)"  x="10" y="20" width="1" height="1" /><rect shape-rendering="crispEdges" fill="rgb(225, 210, 231)"  x="10" y="21" width="1" height="1" /><rect shape-rendering="crispEdges" fill="rgb(57, 32, 84)"  x="10" y="22" width="1" height="1" /><rect shape-rendering="crispEdges" fill="rgb(57, 32, 84)"  x="10" y="23" width="1" height="1" /><rect shape-rendering="crispEdges" fill="rgb(233, 209, 238)"  x="10" y="24" width="1" height="1" /><rect shape-rendering="crispEdges" fill="rgb(95, 59, 122)"  x="10" y="25" width="1" height="1" /><rect shape-rendering="crispEdges" fill="rgb(61, 35, 88)"  x="11" y="5" width="1" height="1" /><rect shape-rendering="crispEdges" fill="rgb(48, 26, 75)"  x="11" y="6" width="1" height="1" /><rect shape-rendering="crispEdges" fill="rgb(40, 21, 65)"  x="11" y="7" width="1" height="1" /><rect shape-rendering="crispEdges" fill="rgb(77, 46, 104)"  x="11" y="8" width="1" height="1" /><rect shape-rendering="crispEdges" fill="rgb(164, 130, 181)"  x="11" y="9" width="1" height="1" /><rect shape-rendering="crispEdges" fill="rgb(225, 210, 231)"  x="11" y="10" width="1" height="1" /><rect shape-rendering="crispEdges" fill="rgb(209, 187, 218)"  x="11" y="11" width="1" height="1" /><rect shape-rendering="crispEdges" fill="rgb(139, 103, 160)"  x="11" y="12" width="1" height="1" /><rect shape-rendering="crispEdges" fill="rgb(81, 50, 108)"  x="11" y="13" width="1" height="1" /><rect shape-rendering="crispEdges" fill="rgb(32, 16, 56)"  x="11" y="14" width="1" height="1" /><rect shape-rendering="crispEdges" fill="rgb(40, 21, 65)"  x="11" y="15" width="1" height="1" /><rect shape-rendering="crispEdges" fill="rgb(48, 26, 76)"  x="11" y="16" width="1" height="1" /><rect shape-rendering="crispEdges" fill="rgb(226, 208, 232)"  x="11" y="17" width="1" height="1" /><rect shape-rendering="crispEdges" fill="rgb(58, 31, 86)"  x="11" y="18" width="1" height="1" /><rect shape-rendering="crispEdges" fill="rgb(59, 30, 87)"  x="11" y="19" width="1" height="1" /><rect shape-rendering="crispEdges" fill="rgb(59, 30, 88)"  x="11" y="20" width="1" height="1" /><rect shape-rendering="crispEdges" fill="rgb(59, 30, 88)"  x="11" y="21" width="1" height="1" /><rect shape-rendering="crispEdges" fill="rgb(58, 31, 86)"  x="11" y="22" width="1" height="1" /><rect shape-rendering="crispEdges" fill="rgb(127, 71, 152)"  x="11" y="23" width="1" height="1" /><rect shape-rendering="crispEdges" fill="rgb(124, 28, 169)"  x="11" y="24" width="1" height="1" /><rect shape-rendering="crispEdges" fill="rgb(93, 53, 122)"  x="11" y="25" width="1" height="1" /><rect shape-rendering="crispEdges" fill="rgb(162, 123, 155)"  x="12" y="3" width="1" height="1" /><rect shape-rendering="crispEdges" fill="rgb(139, 103, 160)"  x="12" y="4" width="1" height="1" /><rect shape-rendering="crispEdges" fill="rgb(131, 95, 153)"  x="12" y="5" width="1" height="1" /><rect shape-rendering="crispEdges" fill="rgb(32, 16, 56)"  x="12" y="6" width="1" height="1" /><rect shape-rendering="crispEdges" fill="rgb(118, 82, 141)"  x="12" y="7" width="1" height="1" /><rect shape-rendering="crispEdges" fill="rgb(164, 130, 181)"  x="12" y="8" width="1" height="1" /><rect shape-rendering="crispEdges" fill="rgb(196, 170, 208)"  x="12" y="9" width="1" height="1" /><rect shape-rendering="crispEdges" fill="rgb(176, 145, 191)"  x="12" y="10" width="1" height="1" /><rect shape-rendering="crispEdges" fill="rgb(147, 112, 167)"  x="12" y="11" width="1" height="1" /><rect shape-rendering="crispEdges" fill="rgb(118, 82, 141)"  x="12" y="12" width="1" height="1" /><rect shape-rendering="crispEdges" fill="rgb(127, 91, 149)"  x="12" y="13" width="1" height="1" /><rect shape-rendering="crispEdges" fill="rgb(94, 60, 120)"  x="12" y="14" width="1" height="1" /><rect shape-rendering="crispEdges" fill="rgb(86, 16, 131)"  x="12" y="15" width="1" height="1" /><rect shape-rendering="crispEdges" fill="rgb(91, 18, 137)"  x="12" y="16" width="1" height="1" /><rect shape-rendering="crispEdges" fill="rgb(107, 22, 154)"  x="12" y="17" width="1" height="1" /><rect shape-rendering="crispEdges" fill="rgb(107, 22, 154)"  x="12" y="18" width="1" height="1" /><rect shape-rendering="crispEdges" fill="rgb(102, 20, 148)"  x="12" y="19" width="1" height="1" /><rect shape-rendering="crispEdges" fill="rgb(91, 18, 137)"  x="12" y="20" width="1" height="1" /><rect shape-rendering="crispEdges" fill="rgb(86, 16, 131)"  x="12" y="21" width="1" height="1" /><rect shape-rendering="crispEdges" fill="rgb(86, 16, 131)"  x="12" y="22" width="1" height="1" /><rect shape-rendering="crispEdges" fill="rgb(158, 36, 190)"  x="12" y="23" width="1" height="1" /><rect shape-rendering="crispEdges" fill="rgb(135, 29, 181)"  x="12" y="24" width="1" height="1" /><rect shape-rendering="crispEdges" fill="rgb(96, 51, 126)"  x="12" y="25" width="1" height="1" /><rect shape-rendering="crispEdges" fill="rgb(57, 32, 84)"  x="13" y="3" width="1" height="1" /><rect shape-rendering="crispEdges" fill="rgb(221, 205, 228)"  x="13" y="4" width="1" height="1" /><rect shape-rendering="crispEdges" fill="rgb(221, 205, 228)"  x="13" y="5" width="1" height="1" /><rect shape-rendering="crispEdges" fill="rgb(110, 74, 134)"  x="13" y="6" width="1" height="1" /><rect shape-rendering="crispEdges" fill="rgb(106, 71, 131)"  x="13" y="7" width="1" height="1" /><rect shape-rendering="crispEdges" fill="rgb(106, 71, 131)"  x="13" y="8" width="1" height="1" /><rect shape-rendering="crispEdges" fill="rgb(114, 78, 138)"  x="13" y="9" width="1" height="1" /><rect shape-rendering="crispEdges" fill="rgb(176, 145, 191)"  x="13" y="10" width="1" height="1" /><rect shape-rendering="crispEdges" fill="rgb(196, 170, 208)"  x="13" y="11" width="1" height="1" /><rect shape-rendering="crispEdges" fill="rgb(205, 182, 215)"  x="13" y="12" width="1" height="1" /><rect shape-rendering="crispEdges" fill="rgb(221, 205, 228)"  x="13" y="13" width="1" height="1" /><rect shape-rendering="crispEdges" fill="rgb(143, 107, 163)"  x="13" y="14" width="1" height="1" /><rect shape-rendering="crispEdges" fill="rgb(91, 18, 137)"  x="13" y="15" width="1" height="1" /><rect shape-rendering="crispEdges" fill="rgb(107, 22, 154)"  x="13" y="16" width="1" height="1" /><rect shape-rendering="crispEdges" fill="rgb(114, 23, 160)"  x="13" y="17" width="1" height="1" /><rect shape-rendering="crispEdges" fill="rgb(114, 23, 160)"  x="13" y="18" width="1" height="1" /><rect shape-rendering="crispEdges" fill="rgb(114, 23, 160)"  x="13" y="19" width="1" height="1" /><rect shape-rendering="crispEdges" fill="rgb(114, 23, 160)"  x="13" y="20" width="1" height="1" /><rect shape-rendering="crispEdges" fill="rgb(114, 23, 160)"  x="13" y="21" width="1" height="1" /><rect shape-rendering="crispEdges" fill="rgb(102, 20, 148)"  x="13" y="22" width="1" height="1" /><rect shape-rendering="crispEdges" fill="rgb(91, 18, 137)"  x="13" y="23" width="1" height="1" /><rect shape-rendering="crispEdges" fill="rgb(156, 35, 190)"  x="13" y="24" width="1" height="1" /><rect shape-rendering="crispEdges" fill="rgb(98, 48, 130)"  x="13" y="25" width="1" height="1" /><rect shape-rendering="crispEdges" fill="rgb(57, 32, 84)"  x="14" y="3" width="1" height="1" /><rect shape-rendering="crispEdges" fill="rgb(102, 67, 127)"  x="14" y="4" width="1" height="1" /><rect shape-rendering="crispEdges" fill="rgb(147, 112, 167)"  x="14" y="5" width="1" height="1" /><rect shape-rendering="crispEdges" fill="rgb(131, 95, 153)"  x="14" y="6" width="1" height="1" /><rect shape-rendering="crispEdges" fill="rgb(127, 91, 149)"  x="14" y="7" width="1" height="1" /><rect shape-rendering="crispEdges" fill="rgb(164, 130, 181)"  x="14" y="8" width="1" height="1" /><rect shape-rendering="crispEdges" fill="rgb(209, 187, 218)"  x="14" y="9" width="1" height="1" /><rect shape-rendering="crispEdges" fill="rgb(242, 235, 245)"  x="14" y="10" width="1" height="1" /><rect shape-rendering="crispEdges" fill="rgb(250, 247, 251)"  x="14" y="11" width="1" height="1" /><rect shape-rendering="crispEdges" fill="rgb(250, 247, 251)"  x="14" y="12" width="1" height="1" /><rect shape-rendering="crispEdges" fill="rgb(250, 247, 251)"  x="14" y="13" width="1" height="1" /><rect shape-rendering="crispEdges" fill="rgb(131, 95, 153)"  x="14" y="14" width="1" height="1" /><rect shape-rendering="crispEdges" fill="rgb(91, 18, 137)"  x="14" y="15" width="1" height="1" /><rect shape-rendering="crispEdges" fill="rgb(179, 46, 202)"  x="14" y="16" width="1" height="1" /><rect shape-rendering="crispEdges" fill="rgb(114, 23, 160)"  x="14" y="17" width="1" height="1" /><rect shape-rendering="crispEdges" fill="rgb(168, 39, 194)"  x="14" y="18" width="1" height="1" /><rect shape-rendering="crispEdges" fill="rgb(114, 23, 160)"  x="14" y="19" width="1" height="1" /><rect shape-rendering="crispEdges" fill="rgb(158, 36, 190)"  x="14" y="20" width="1" height="1" /><rect shape-rendering="crispEdges" fill="rgb(114, 23, 160)"  x="14" y="21" width="1" height="1" /><rect shape-rendering="crispEdges" fill="rgb(125, 26, 171)"  x="14" y="22" width="1" height="1" /><rect shape-rendering="crispEdges" fill="rgb(162, 37, 192)"  x="14" y="23" width="1" height="1" /><rect shape-rendering="crispEdges" fill="rgb(163, 38, 193)"  x="14" y="24" width="1" height="1" /><rect shape-rendering="crispEdges" fill="rgb(100, 46, 134)"  x="14" y="25" width="1" height="1" /><rect shape-rendering="crispEdges" fill="rgb(57, 32, 84)"  x="15" y="3" width="1" height="1" /><rect shape-rendering="crispEdges" fill="rgb(57, 32, 84)"  x="15" y="4" width="1" height="1" /><rect shape-rendering="crispEdges" fill="rgb(114, 78, 138)"  x="15" y="5" width="1" height="1" /><rect shape-rendering="crispEdges" fill="rgb(180, 150, 194)"  x="15" y="6" width="1" height="1" /><rect shape-rendering="crispEdges" fill="rgb(209, 187, 218)"  x="15" y="7" width="1" height="1" /><rect shape-rendering="crispEdges" fill="rgb(221, 205, 228)"  x="15" y="8" width="1" height="1" /><rect shape-rendering="crispEdges" fill="rgb(234, 223, 238)"  x="15" y="9" width="1" height="1" /><rect shape-rendering="crispEdges" fill="rgb(238, 229, 241)"  x="15" y="10" width="1" height="1" /><rect shape-rendering="crispEdges" fill="rgb(238, 229, 241)"  x="15" y="11" width="1" height="1" /><rect shape-rendering="crispEdges" fill="rgb(242, 235, 245)"  x="15" y="12" width="1" height="1" /><rect shape-rendering="crispEdges" fill="rgb(246, 241, 248)"  x="15" y="13" width="1" height="1" /><rect shape-rendering="crispEdges" fill="rgb(77, 46, 104)"  x="15" y="14" width="1" height="1" /><rect shape-rendering="crispEdges" fill="rgb(91, 18, 137)"  x="15" y="15" width="1" height="1" /><rect shape-rendering="crispEdges" fill="rgb(114, 23, 160)"  x="15" y="16" width="1" height="1" /><rect shape-rendering="crispEdges" fill="rgb(114, 23, 160)"  x="15" y="17" width="1" height="1" /><rect shape-rendering="crispEdges" fill="rgb(114, 23, 160)"  x="15" y="18" width="1" height="1" /><rect shape-rendering="crispEdges" fill="rgb(114, 23, 160)"  x="15" y="19" width="1" height="1" /><rect shape-rendering="crispEdges" fill="rgb(114, 23, 160)"  x="15" y="20" width="1" height="1" /><rect shape-rendering="crispEdges" fill="rgb(114, 23, 160)"  x="15" y="21" width="1" height="1" /><rect shape-rendering="crispEdges" fill="rgb(107, 22, 154)"  x="15" y="22" width="1" height="1" /><rect shape-rendering="crispEdges" fill="rgb(86, 16, 131)"  x="15" y="23" width="1" height="1" /><rect shape-rendering="crispEdges" fill="rgb(163, 38, 193)"  x="15" y="24" width="1" height="1" /><rect shape-rendering="crispEdges" fill="rgb(108, 44, 143)"  x="15" y="25" width="1" height="1" /><rect shape-rendering="crispEdges" fill="rgb(57, 32, 84)"  x="16" y="3" width="1" height="1" /><rect shape-rendering="crispEdges" fill="rgb(110, 74, 134)"  x="16" y="4" width="1" height="1" /><rect shape-rendering="crispEdges" fill="rgb(159, 125, 177)"  x="16" y="5" width="1" height="1" /><rect shape-rendering="crispEdges" fill="rgb(106, 71, 131)"  x="16" y="6" width="1" height="1" /><rect shape-rendering="crispEdges" fill="rgb(81, 50, 108)"  x="16" y="7" width="1" height="1" /><rect shape-rendering="crispEdges" fill="rgb(106, 71, 131)"  x="16" y="8" width="1" height="1" /><rect shape-rendering="crispEdges" fill="rgb(159, 125, 177)"  x="16" y="9" width="1" height="1" /><rect shape-rendering="crispEdges" fill="rgb(180, 150, 194)"  x="16" y="10" width="1" height="1" /><rect shape-rendering="crispEdges" fill="rgb(196, 170, 208)"  x="16" y="11" width="1" height="1" /><rect shape-rendering="crispEdges" fill="rgb(205, 182, 215)"  x="16" y="12" width="1" height="1" /><rect shape-rendering="crispEdges" fill="rgb(221, 205, 228)"  x="16" y="13" width="1" height="1" /><rect shape-rendering="crispEdges" fill="rgb(61, 35, 88)"  x="16" y="14" width="1" height="1" /><rect shape-rendering="crispEdges" fill="rgb(91, 18, 137)"  x="16" y="15" width="1" height="1" /><rect shape-rendering="crispEdges" fill="rgb(102, 20, 148)"  x="16" y="16" width="1" height="1" /><rect shape-rendering="crispEdges" fill="rgb(114, 23, 160)"  x="16" y="17" width="1" height="1" /><rect shape-rendering="crispEdges" fill="rgb(114, 23, 160)"  x="16" y="18" width="1" height="1" /><rect shape-rendering="crispEdges" fill="rgb(107, 22, 154)"  x="16" y="19" width="1" height="1" /><rect shape-rendering="crispEdges" fill="rgb(97, 19, 143)"  x="16" y="20" width="1" height="1" /><rect shape-rendering="crispEdges" fill="rgb(91, 18, 137)"  x="16" y="21" width="1" height="1" /><rect shape-rendering="crispEdges" fill="rgb(81, 15, 126)"  x="16" y="22" width="1" height="1" /><rect shape-rendering="crispEdges" fill="rgb(162, 37, 192)"  x="16" y="23" width="1" height="1" /><rect shape-rendering="crispEdges" fill="rgb(168, 39, 194)"  x="16" y="24" width="1" height="1" /><rect shape-rendering="crispEdges" fill="rgb(112, 41, 149)"  x="16" y="25" width="1" height="1" /><rect shape-rendering="crispEdges" fill="rgb(57, 32, 84)"  x="17" y="3" width="1" height="1" /><rect shape-rendering="crispEdges" fill="rgb(164, 130, 181)"  x="17" y="4" width="1" height="1" /><rect shape-rendering="crispEdges" fill="rgb(221, 205, 228)"  x="17" y="5" width="1" height="1" /><rect shape-rendering="crispEdges" fill="rgb(106, 71, 131)"  x="17" y="6" width="1" height="1" /><rect shape-rendering="crispEdges" fill="rgb(127, 91, 149)"  x="17" y="7" width="1" height="1" /><rect shape-rendering="crispEdges" fill="rgb(159, 125, 177)"  x="17" y="8" width="1" height="1" /><rect shape-rendering="crispEdges" fill="rgb(164, 130, 181)"  x="17" y="9" width="1" height="1" /><rect shape-rendering="crispEdges" fill="rgb(164, 130, 181)"  x="17" y="10" width="1" height="1" /><rect shape-rendering="crispEdges" fill="rgb(131, 95, 153)"  x="17" y="11" width="1" height="1" /><rect shape-rendering="crispEdges" fill="rgb(122, 86, 145)"  x="17" y="12" width="1" height="1" /><rect shape-rendering="crispEdges" fill="rgb(131, 95, 153)"  x="17" y="13" width="1" height="1" /><rect shape-rendering="crispEdges" fill="rgb(73, 43, 100)"  x="17" y="14" width="1" height="1" /><rect shape-rendering="crispEdges" fill="rgb(57, 32, 84)"  x="17" y="15" width="1" height="1" /><rect shape-rendering="crispEdges" fill="rgb(57, 32, 84)"  x="17" y="16" width="1" height="1" /><rect shape-rendering="crispEdges" fill="rgb(192, 165, 204)"  x="17" y="17" width="1" height="1" /><rect shape-rendering="crispEdges" fill="rgb(57, 32, 84)"  x="17" y="18" width="1" height="1" /><rect shape-rendering="crispEdges" fill="rgb(57, 32, 84)"  x="17" y="19" width="1" height="1" /><rect shape-rendering="crispEdges" fill="rgb(57, 32, 84)"  x="17" y="20" width="1" height="1" /><rect shape-rendering="crispEdges" fill="rgb(57, 32, 84)"  x="17" y="21" width="1" height="1" /><rect shape-rendering="crispEdges" fill="rgb(57, 32, 84)"  x="17" y="22" width="1" height="1" /><rect shape-rendering="crispEdges" fill="rgb(143, 51, 173)"  x="17" y="23" width="1" height="1" /><rect shape-rendering="crispEdges" fill="rgb(163, 38, 193)"  x="17" y="24" width="1" height="1" /><rect shape-rendering="crispEdges" fill="rgb(110, 35, 150)"  x="17" y="25" width="1" height="1" /><rect shape-rendering="crispEdges" fill="rgb(155, 120, 174)"  x="18" y="3" width="1" height="1" /><rect shape-rendering="crispEdges" fill="rgb(225, 210, 231)"  x="18" y="4" width="1" height="1" /><rect shape-rendering="crispEdges" fill="rgb(217, 199, 225)"  x="18" y="5" width="1" height="1" /><rect shape-rendering="crispEdges" fill="rgb(57, 32, 84)"  x="18" y="6" width="1" height="1" /><rect shape-rendering="crispEdges" fill="rgb(94, 60, 120)"  x="18" y="7" width="1" height="1" /><rect shape-rendering="crispEdges" fill="rgb(127, 91, 149)"  x="18" y="8" width="1" height="1" /><rect shape-rendering="crispEdges" fill="rgb(201, 177, 212)"  x="18" y="9" width="1" height="1" /><rect shape-rendering="crispEdges" fill="rgb(225, 210, 231)"  x="18" y="10" width="1" height="1" /><rect shape-rendering="crispEdges" fill="rgb(209, 187, 218)"  x="18" y="11" width="1" height="1" /><rect shape-rendering="crispEdges" fill="rgb(172, 140, 188)"  x="18" y="12" width="1" height="1" /><rect shape-rendering="crispEdges" fill="rgb(118, 82, 141)"  x="18" y="13" width="1" height="1" /><rect shape-rendering="crispEdges" fill="rgb(40, 21, 65)"  x="18" y="14" width="1" height="1" /><rect shape-rendering="crispEdges" fill="rgb(143, 107, 163)"  x="18" y="15" width="1" height="1" /><rect shape-rendering="crispEdges" fill="rgb(114, 78, 138)"  x="18" y="16" width="1" height="1" /><rect shape-rendering="crispEdges" fill="rgb(217, 199, 225)"  x="18" y="17" width="1" height="1" /><rect shape-rendering="crispEdges" fill="rgb(53, 29, 80)"  x="18" y="18" width="1" height="1" /><rect shape-rendering="crispEdges" fill="rgb(127, 91, 149)"  x="18" y="19" width="1" height="1" /><rect shape-rendering="crispEdges" fill="rgb(119, 83, 142)"  x="18" y="20" width="1" height="1" /><rect shape-rendering="crispEdges" fill="rgb(57, 32, 84)"  x="18" y="21" width="1" height="1" /><rect shape-rendering="crispEdges" fill="rgb(48, 26, 75)"  x="18" y="22" width="1" height="1" /><rect shape-rendering="crispEdges" fill="rgb(49, 25, 78)"  x="18" y="23" width="1" height="1" /><rect shape-rendering="crispEdges" fill="rgb(153, 39, 186)"  x="18" y="24" width="1" height="1" /><rect shape-rendering="crispEdges" fill="rgb(115, 30, 159)"  x="18" y="25" width="1" height="1" /><rect shape-rendering="crispEdges" fill="rgb(138, 98, 136)"  x="19" y="3" width="1" height="1" /><rect shape-rendering="crispEdges" fill="rgb(110, 74, 134)"  x="19" y="4" width="1" height="1" /><rect shape-rendering="crispEdges" fill="rgb(110, 74, 134)"  x="19" y="5" width="1" height="1" /><rect shape-rendering="crispEdges" fill="rgb(61, 35, 88)"  x="19" y="6" width="1" height="1" /><rect shape-rendering="crispEdges" fill="rgb(57, 32, 84)"  x="19" y="7" width="1" height="1" /><rect shape-rendering="crispEdges" fill="rgb(61, 35, 88)"  x="19" y="8" width="1" height="1" /><rect shape-rendering="crispEdges" fill="rgb(123, 87, 146)"  x="19" y="9" width="1" height="1" /><rect shape-rendering="crispEdges" fill="rgb(176, 145, 191)"  x="19" y="10" width="1" height="1" /><rect shape-rendering="crispEdges" fill="rgb(234, 223, 238)"  x="19" y="11" width="1" height="1" /><rect shape-rendering="crispEdges" fill="rgb(242, 235, 245)"  x="19" y="12" width="1" height="1" /><rect shape-rendering="crispEdges" fill="rgb(114, 78, 138)"  x="19" y="13" width="1" height="1" /><rect shape-rendering="crispEdges" fill="rgb(40, 21, 65)"  x="19" y="14" width="1" height="1" /><rect shape-rendering="crispEdges" fill="rgb(57, 32, 84)"  x="19" y="15" width="1" height="1" /><rect shape-rendering="crispEdges" fill="rgb(53, 29, 80)"  x="19" y="16" width="1" height="1" /><rect shape-rendering="crispEdges" fill="rgb(217, 199, 225)"  x="19" y="17" width="1" height="1" /><rect shape-rendering="crispEdges" fill="rgb(48, 26, 75)"  x="19" y="18" width="1" height="1" /><rect shape-rendering="crispEdges" fill="rgb(57, 32, 84)"  x="19" y="19" width="1" height="1" /><rect shape-rendering="crispEdges" fill="rgb(57, 32, 84)"  x="19" y="20" width="1" height="1" /><rect shape-rendering="crispEdges" fill="rgb(53, 29, 80)"  x="19" y="21" width="1" height="1" /><rect shape-rendering="crispEdges" fill="rgb(48, 26, 75)"  x="19" y="22" width="1" height="1" /><rect shape-rendering="crispEdges" fill="rgb(48, 26, 75)"  x="19" y="23" width="1" height="1" /><rect shape-rendering="crispEdges" fill="rgb(228, 201, 234)"  x="19" y="24" width="1" height="1" /><rect shape-rendering="crispEdges" fill="rgb(115, 37, 155)"  x="19" y="25" width="1" height="1" /><rect shape-rendering="crispEdges" fill="rgb(48, 26, 75)"  x="20" y="5" width="1" height="1" /><rect shape-rendering="crispEdges" fill="rgb(65, 38, 92)"  x="20" y="6" width="1" height="1" /><rect shape-rendering="crispEdges" fill="rgb(65, 38, 92)"  x="20" y="7" width="1" height="1" /><rect shape-rendering="crispEdges" fill="rgb(65, 38, 92)"  x="20" y="8" width="1" height="1" /><rect shape-rendering="crispEdges" fill="rgb(57, 32, 84)"  x="20" y="9" width="1" height="1" /><rect shape-rendering="crispEdges" fill="rgb(98, 64, 123)"  x="20" y="10" width="1" height="1" /><rect shape-rendering="crispEdges" fill="rgb(201, 177, 212)"  x="20" y="11" width="1" height="1" /><rect shape-rendering="crispEdges" fill="rgb(131, 95, 153)"  x="20" y="12" width="1" height="1" /><rect shape-rendering="crispEdges" fill="rgb(32, 16, 56)"  x="20" y="13" width="1" height="1" /><rect shape-rendering="crispEdges" fill="rgb(127, 91, 149)"  x="20" y="14" width="1" height="1" /><rect shape-rendering="crispEdges" fill="rgb(127, 91, 149)"  x="20" y="15" width="1" height="1" /><rect shape-rendering="crispEdges" fill="rgb(147, 112, 167)"  x="20" y="16" width="1" height="1" /><rect shape-rendering="crispEdges" fill="rgb(168, 136, 185)"  x="20" y="17" width="1" height="1" /><rect shape-rendering="crispEdges" fill="rgb(184, 155, 198)"  x="20" y="18" width="1" height="1" /><rect shape-rendering="crispEdges" fill="rgb(205, 182, 215)"  x="20" y="19" width="1" height="1" /><rect shape-rendering="crispEdges" fill="rgb(213, 193, 221)"  x="20" y="20" width="1" height="1" /><rect shape-rendering="crispEdges" fill="rgb(225, 210, 231)"  x="20" y="21" width="1" height="1" /><rect shape-rendering="crispEdges" fill="rgb(57, 32, 84)"  x="20" y="22" width="1" height="1" /><rect shape-rendering="crispEdges" fill="rgb(48, 26, 75)"  x="20" y="23" width="1" height="1" /><rect shape-rendering="crispEdges" fill="rgb(221, 205, 228)"  x="20" y="24" width="1" height="1" /><rect shape-rendering="crispEdges" fill="rgb(48, 26, 75)"  x="20" y="25" width="1" height="1" /><rect shape-rendering="crispEdges" fill="rgb(48, 26, 75)"  x="21" y="5" width="1" height="1" /><rect shape-rendering="crispEdges" fill="rgb(221, 205, 228)"  x="21" y="6" width="1" height="1" /><rect shape-rendering="crispEdges" fill="rgb(205, 182, 215)"  x="21" y="7" width="1" height="1" /><rect shape-rendering="crispEdges" fill="rgb(44, 24, 70)"  x="21" y="8" width="1" height="1" /><rect shape-rendering="crispEdges" fill="rgb(36, 18, 61)"  x="21" y="9" width="1" height="1" /><rect shape-rendering="crispEdges" fill="rgb(127, 91, 149)"  x="21" y="10" width="1" height="1" /><rect shape-rendering="crispEdges" fill="rgb(73, 43, 100)"  x="21" y="11" width="1" height="1" /><rect shape-rendering="crispEdges" fill="rgb(28, 14, 50)"  x="21" y="12" width="1" height="1" /><rect shape-rendering="crispEdges" fill="rgb(28, 14, 50)"  x="21" y="13" width="1" height="1" /><rect shape-rendering="crispEdges" fill="rgb(32, 16, 56)"  x="21" y="14" width="1" height="1" /><rect shape-rendering="crispEdges" fill="rgb(24, 11, 44)"  x="21" y="15" width="1" height="1" /><rect shape-rendering="crispEdges" fill="rgb(24, 11, 44)"  x="21" y="16" width="1" height="1" /><rect shape-rendering="crispEdges" fill="rgb(127, 91, 149)"  x="21" y="17" width="1" height="1" /><rect shape-rendering="crispEdges" fill="rgb(32, 16, 56)"  x="21" y="18" width="1" height="1" /><rect shape-rendering="crispEdges" fill="rgb(32, 16, 56)"  x="21" y="19" width="1" height="1" /><rect shape-rendering="crispEdges" fill="rgb(32, 16, 56)"  x="21" y="20" width="1" height="1" /><rect shape-rendering="crispEdges" fill="rgb(36, 18, 61)"  x="21" y="21" width="1" height="1" /><rect shape-rendering="crispEdges" fill="rgb(164, 130, 181)"  x="21" y="22" width="1" height="1" /><rect shape-rendering="crispEdges" fill="rgb(213, 193, 221)"  x="21" y="23" width="1" height="1" /><rect shape-rendering="crispEdges" fill="rgb(48, 26, 75)"  x="21" y="24" width="1" height="1" /><rect shape-rendering="crispEdges" fill="rgb(48, 26, 75)"  x="21" y="25" width="1" height="1" /><rect shape-rendering="crispEdges" fill="rgb(56, 30, 53)"  x="21" y="26" width="1" height="1" /><rect shape-rendering="crispEdges" fill="rgb(49, 24, 48)"  x="22" y="5" width="1" height="1" /><rect shape-rendering="crispEdges" fill="rgb(48, 26, 75)"  x="22" y="6" width="1" height="1" /><rect shape-rendering="crispEdges" fill="rgb(48, 26, 75)"  x="22" y="7" width="1" height="1" /><rect shape-rendering="crispEdges" fill="rgb(225, 210, 231)"  x="22" y="8" width="1" height="1" /><rect shape-rendering="crispEdges" fill="rgb(213, 193, 221)"  x="22" y="9" width="1" height="1" /><rect shape-rendering="crispEdges" fill="rgb(65, 38, 92)"  x="22" y="10" width="1" height="1" /><rect shape-rendering="crispEdges" fill="rgb(127, 91, 149)"  x="22" y="11" width="1" height="1" /><rect shape-rendering="crispEdges" fill="rgb(24, 11, 44)"  x="22" y="12" width="1" height="1" /><rect shape-rendering="crispEdges" fill="rgb(32, 16, 56)"  x="22" y="13" width="1" height="1" /><rect shape-rendering="crispEdges" fill="rgb(28, 14, 50)"  x="22" y="14" width="1" height="1" /><rect shape-rendering="crispEdges" fill="rgb(28, 14, 50)"  x="22" y="15" width="1" height="1" /><rect shape-rendering="crispEdges" fill="rgb(24, 11, 44)"  x="22" y="16" width="1" height="1" /><rect shape-rendering="crispEdges" fill="rgb(127, 91, 149)"  x="22" y="17" width="1" height="1" /><rect shape-rendering="crispEdges" fill="rgb(16, 7, 32)"  x="22" y="18" width="1" height="1" /><rect shape-rendering="crispEdges" fill="rgb(20, 10, 38)"  x="22" y="19" width="1" height="1" /><rect shape-rendering="crispEdges" fill="rgb(24, 11, 44)"  x="22" y="20" width="1" height="1" /><rect shape-rendering="crispEdges" fill="rgb(32, 16, 56)"  x="22" y="21" width="1" height="1" /><rect shape-rendering="crispEdges" fill="rgb(32, 16, 56)"  x="22" y="22" width="1" height="1" /><rect shape-rendering="crispEdges" fill="rgb(135, 99, 157)"  x="22" y="23" width="1" height="1" /><rect shape-rendering="crispEdges" fill="rgb(184, 155, 198)"  x="22" y="24" width="1" height="1" /><rect shape-rendering="crispEdges" fill="rgb(221, 205, 228)"  x="22" y="25" width="1" height="1" /><rect shape-rendering="crispEdges" fill="rgb(44, 24, 70)"  x="22" y="26" width="1" height="1" /><rect shape-rendering="crispEdges" fill="rgb(56, 30, 53)"  x="22" y="27" width="1" height="1" /><rect shape-rendering="crispEdges" fill="rgb(57, 31, 52)"  x="23" y="6" width="1" height="1" /><rect shape-rendering="crispEdges" fill="rgb(48, 26, 75)"  x="23" y="7" width="1" height="1" /><rect shape-rendering="crispEdges" fill="rgb(61, 35, 88)"  x="23" y="8" width="1" height="1" /><rect shape-rendering="crispEdges" fill="rgb(69, 41, 96)"  x="23" y="9" width="1" height="1" /><rect shape-rendering="crispEdges" fill="rgb(221, 205, 228)"  x="23" y="10" width="1" height="1" /><rect shape-rendering="crispEdges" fill="rgb(217, 199, 225)"  x="23" y="11" width="1" height="1" /><rect shape-rendering="crispEdges" fill="rgb(53, 29, 80)"  x="23" y="12" width="1" height="1" /><rect shape-rendering="crispEdges" fill="rgb(48, 26, 75)"  x="23" y="13" width="1" height="1" /><rect shape-rendering="crispEdges" fill="rgb(32, 16, 56)"  x="23" y="14" width="1" height="1" /><rect shape-rendering="crispEdges" fill="rgb(40, 21, 65)"  x="23" y="15" width="1" height="1" /><rect shape-rendering="crispEdges" fill="rgb(127, 91, 149)"  x="23" y="16" width="1" height="1" /><rect shape-rendering="crispEdges" fill="rgb(28, 14, 50)"  x="23" y="17" width="1" height="1" /><rect shape-rendering="crispEdges" fill="rgb(50, 6, 44)"  x="23" y="21" width="1" height="1" /><rect shape-rendering="crispEdges" fill="rgb(28, 13, 36)"  x="23" y="22" width="1" height="1" /><rect shape-rendering="crispEdges" fill="rgb(127, 91, 149)"  x="23" y="23" width="1" height="1" /><rect shape-rendering="crispEdges" fill="rgb(36, 18, 61)"  x="23" y="24" width="1" height="1" /><rect shape-rendering="crispEdges" fill="rgb(48, 26, 75)"  x="23" y="25" width="1" height="1" /><rect shape-rendering="crispEdges" fill="rgb(201, 177, 212)"  x="23" y="26" width="1" height="1" /><rect shape-rendering="crispEdges" fill="rgb(221, 205, 228)"  x="23" y="27" width="1" height="1" /><rect shape-rendering="crispEdges" fill="rgb(56, 30, 53)"  x="23" y="28" width="1" height="1" /><rect shape-rendering="crispEdges" fill="rgb(48, 26, 75)"  x="24" y="8" width="1" height="1" /><rect shape-rendering="crispEdges" fill="rgb(127, 91, 149)"  x="24" y="9" width="1" height="1" /><rect shape-rendering="crispEdges" fill="rgb(48, 26, 75)"  x="24" y="10" width="1" height="1" /><rect shape-rendering="crispEdges" fill="rgb(65, 38, 92)"  x="24" y="11" width="1" height="1" /><rect shape-rendering="crispEdges" fill="rgb(221, 205, 228)"  x="24" y="12" width="1" height="1" /><rect shape-rendering="crispEdges" fill="rgb(225, 210, 231)"  x="24" y="13" width="1" height="1" /><rect shape-rendering="crispEdges" fill="rgb(48, 26, 75)"  x="24" y="14" width="1" height="1" /><rect shape-rendering="crispEdges" fill="rgb(213, 193, 221)"  x="24" y="15" width="1" height="1" /><rect shape-rendering="crispEdges" fill="rgb(48, 26, 75)"  x="24" y="16" width="1" height="1" /><rect shape-rendering="crispEdges" fill="rgb(40, 21, 65)"  x="24" y="17" width="1" height="1" /><rect shape-rendering="crispEdges" fill="rgb(127, 91, 149)"  x="24" y="18" width="1" height="1" /><rect shape-rendering="crispEdges" fill="rgb(34, 17, 51)"  x="24" y="19" width="1" height="1" /><rect shape-rendering="crispEdges" fill="rgb(143, 102, 130)"  x="24" y="23" width="1" height="1" /><rect shape-rendering="crispEdges" fill="rgb(28, 13, 36)"  x="24" y="24" width="1" height="1" /><rect shape-rendering="crispEdges" fill="rgb(40, 21, 65)"  x="24" y="25" width="1" height="1" /><rect shape-rendering="crispEdges" fill="rgb(48, 26, 75)"  x="24" y="26" width="1" height="1" /><rect shape-rendering="crispEdges" fill="rgb(48, 26, 75)"  x="24" y="27" width="1" height="1" /><rect shape-rendering="crispEdges" fill="rgb(209, 187, 218)"  x="24" y="28" width="1" height="1" /><rect shape-rendering="crispEdges" fill="rgb(48, 26, 75)"  x="25" y="10" width="1" height="1" /><rect shape-rendering="crispEdges" fill="rgb(44, 24, 70)"  x="25" y="11" width="1" height="1" /><rect shape-rendering="crispEdges" fill="rgb(57, 32, 84)"  x="25" y="12" width="1" height="1" /><rect shape-rendering="crispEdges" fill="rgb(57, 32, 84)"  x="25" y="13" width="1" height="1" /><rect shape-rendering="crispEdges" fill="rgb(217, 199, 225)"  x="25" y="14" width="1" height="1" /><rect shape-rendering="crispEdges" fill="rgb(225, 210, 231)"  x="25" y="15" width="1" height="1" /><rect shape-rendering="crispEdges" fill="rgb(225, 210, 231)"  x="25" y="16" width="1" height="1" /><rect shape-rendering="crispEdges" fill="rgb(221, 205, 228)"  x="25" y="17" width="1" height="1" /><rect shape-rendering="crispEdges" fill="rgb(48, 26, 75)"  x="25" y="18" width="1" height="1" /><rect shape-rendering="crispEdges" fill="rgb(40, 21, 65)"  x="25" y="19" width="1" height="1" /><rect shape-rendering="crispEdges" fill="rgb(91, 56, 116)"  x="25" y="20" width="1" height="1" /><rect shape-rendering="crispEdges" fill="rgb(40, 17, 39)"  x="25" y="21" width="1" height="1" /><rect shape-rendering="crispEdges" fill="rgb(37, 10, 22)"  x="25" y="25" width="1" height="1" /><rect shape-rendering="crispEdges" fill="rgb(44, 23, 57)"  x="25" y="26" width="1" height="1" /><rect shape-rendering="crispEdges" fill="rgb(40, 21, 65)"  x="25" y="27" width="1" height="1" /><rect shape-rendering="crispEdges" fill="rgb(40, 21, 65)"  x="25" y="28" width="1" height="1" /><rect shape-rendering="crispEdges" fill="rgb(49, 26, 72)"  x="26" y="12" width="1" height="1" /><rect shape-rendering="crispEdges" fill="rgb(40, 21, 65)"  x="26" y="13" width="1" height="1" /><rect shape-rendering="crispEdges" fill="rgb(127, 91, 149)"  x="26" y="14" width="1" height="1" /><rect shape-rendering="crispEdges" fill="rgb(53, 29, 80)"  x="26" y="15" width="1" height="1" /><rect shape-rendering="crispEdges" fill="rgb(48, 26, 75)"  x="26" y="16" width="1" height="1" /><rect shape-rendering="crispEdges" fill="rgb(209, 187, 218)"  x="26" y="17" width="1" height="1" /><rect shape-rendering="crispEdges" fill="rgb(176, 145, 191)"  x="26" y="18" width="1" height="1" /><rect shape-rendering="crispEdges" fill="rgb(118, 82, 141)"  x="26" y="19" width="1" height="1" /><rect shape-rendering="crispEdges" fill="rgb(40, 21, 65)"  x="26" y="20" width="1" height="1" /><rect shape-rendering="crispEdges" fill="rgb(40, 21, 65)"  x="26" y="21" width="1" height="1" /><rect shape-rendering="crispEdges" fill="rgb(94, 41, 98)"  x="26" y="22" width="1" height="1" /><rect shape-rendering="crispEdges" fill="rgb(54, 18, 43)"  x="26" y="23" width="1" height="1" /><rect shape-rendering="crispEdges" fill="rgb(37, 10, 22)"  x="26" y="27" width="1" height="1" /><rect shape-rendering="crispEdges" fill="rgb(36, 18, 47)"  x="26" y="28" width="1" height="1" /><rect shape-rendering="crispEdges" fill="rgb(50, 27, 69)"  x="27" y="14" width="1" height="1" /><rect shape-rendering="crispEdges" fill="rgb(40, 21, 65)"  x="27" y="15" width="1" height="1" /><rect shape-rendering="crispEdges" fill="rgb(131, 95, 153)"  x="27" y="16" width="1" height="1" /><rect shape-rendering="crispEdges" fill="rgb(48, 26, 75)"  x="27" y="17" width="1" height="1" /><rect shape-rendering="crispEdges" fill="rgb(48, 26, 75)"  x="27" y="18" width="1" height="1" /><rect shape-rendering="crispEdges" fill="rgb(143, 107, 163)"  x="27" y="19" width="1" height="1" /><rect shape-rendering="crispEdges" fill="rgb(119, 83, 142)"  x="27" y="20" width="1" height="1" /><rect shape-rendering="crispEdges" fill="rgb(118, 82, 141)"  x="27" y="21" width="1" height="1" /><rect shape-rendering="crispEdges" fill="rgb(44, 24, 70)"  x="27" y="22" width="1" height="1" /><rect shape-rendering="crispEdges" fill="rgb(49, 26, 73)"  x="27" y="23" width="1" height="1" /><rect shape-rendering="crispEdges" fill="rgb(130, 28, 81)"  x="27" y="24" width="1" height="1" /><rect shape-rendering="crispEdges" fill="rgb(52, 28, 64)"  x="28" y="16" width="1" height="1" /><rect shape-rendering="crispEdges" fill="rgb(40, 21, 65)"  x="28" y="17" width="1" height="1" /><rect shape-rendering="crispEdges" fill="rgb(118, 82, 141)"  x="28" y="18" width="1" height="1" /><rect shape-rendering="crispEdges" fill="rgb(131, 95, 153)"  x="28" y="19" width="1" height="1" /><rect shape-rendering="crispEdges" fill="rgb(127, 91, 149)"  x="28" y="20" width="1" height="1" /><rect shape-rendering="crispEdges" fill="rgb(123, 87, 146)"  x="28" y="21" width="1" height="1" /><rect shape-rendering="crispEdges" fill="rgb(110, 74, 134)"  x="28" y="22" width="1" height="1" /><rect shape-rendering="crispEdges" fill="rgb(118, 82, 141)"  x="28" y="23" width="1" height="1" /><rect shape-rendering="crispEdges" fill="rgb(140, 71, 115)"  x="29" y="18" width="1" height="1" /><rect shape-rendering="crispEdges" fill="rgb(40, 21, 65)"  x="29" y="19" width="1" height="1" /><rect shape-rendering="crispEdges" fill="rgb(118, 82, 141)"  x="29" y="20" width="1" height="1" /><rect shape-rendering="crispEdges" fill="rgb(135, 99, 157)"  x="29" y="21" width="1" height="1" /><rect shape-rendering="crispEdges" fill="rgb(123, 87, 146)"  x="29" y="22" width="1" height="1" /><rect shape-rendering="crispEdges" fill="rgb(161, 60, 89)"  x="29" y="23" width="1" height="1" /><rect shape-rendering="crispEdges" fill="rgb(52, 29, 63)"  x="30" y="20" width="1" height="1" /><rect shape-rendering="crispEdges" fill="rgb(48, 26, 75)"  x="30" y="21" width="1" height="1" /><rect shape-rendering="crispEdges" fill="rgb(161, 60, 89)"  x="30" y="22" width="1" height="1" /></svg>