<svg xmlns="http://www.w3.org/2000/svg" xmlns:xlink= "http://www.w3.org/1999/xlink" width="32" height="32" viewBox ="0 0 32 32"><rect shape-rendering="crispEdges" fill="rgb(16, 8, 8)"  x="1" y="18" width="1" height="1" /><rect shape-rendering="crispEdges" fill="rgb(24, 16, 8)"  x="1" y="19" width="1" height="1" /><rect shape-rendering="crispEdges" fill="rgb(32, 24, 16)"  x="1" y="20" width="1" height="1" /><rect shape-rendering="crispEdges" fill="rgb(32, 24, 16)"  x="1" y="21" width="1" height="1" /><rect shape-rendering="crispEdges" fill="rgb(24, 16, 8)"  x="1" y="22" width="1" height="1" /><rect shape-rendering="crispEdges" fill="rgb(16, 8, 8)"  x="1" y="23" width="1" height="1" /><rect shape-rendering="crispEdges" fill="rgb(49, 24, 16)"  x="2" y="17" width="1" height="1" /><rect shape-rendering="crispEdges" fill="rgb(115, 57, 41)"  x="2" y="18" width="1" height="1" /><rect shape-rendering="crispEdges" fill="rgb(164, 74, 65)"  x="2" y="19" width="1" height="1" /><rect shape-rendering="crispEdges" fill="rgb(106, 49, 32)"  x="2" y="20" width="1" height="1" /><rect shape-rendering="crispEdges" fill="rgb(82, 41, 32)"  x="2" y="21" width="1" height="1" /><rect shape-rendering="crispEdges" fill="rgb(32, 32, 16)"  x="2" y="22" width="1" height="1" /><rect shape-rendering="crispEdges" fill="rgb(16, 16, 8)"  x="2" y="23" width="1" height="1" /><rect shape-rendering="crispEdges" fill="rgb(8, 8, 0)"  x="2" y="24" width="1" height="1" /><rect shape-rendering="crispEdges" fill="rgb(74, 32, 24)"  x="3" y="16" width="1" height="1" /><rect shape-rendering="crispEdges" fill="rgb(90, 41, 24)"  x="3" y="17" width="1" height="1" /><rect shape-rendering="crispEdges" fill="rgb(180, 82, 74)"  x="3" y="18" width="1" height="1" /><rect shape-rendering="crispEdges" fill="rgb(238, 213, 213)"  x="3" y="19" width="1" height="1" /><rect shape-rendering="crispEdges" fill="rgb(131, 65, 57)"  x="3" y="20" width="1" height="1" /><rect shape-rendering="crispEdges" fill="rgb(98, 49, 32)"  x="3" y="21" width="1" height="1" /><rect shape-rendering="crispEdges" fill="rgb(49, 32, 16)"  x="3" y="22" width="1" height="1" /><rect shape-rendering="crispEdges" fill="rgb(32, 24, 16)"  x="3" y="23" width="1" height="1" /><rect shape-rendering="crispEdges" fill="rgb(8, 8, 0)"  x="3" y="24" width="1" height="1" /><rect shape-rendering="crispEdges" fill="rgb(57, 24, 16)"  x="4" y="15" width="1" height="1" /><rect shape-rendering="crispEdges" fill="rgb(90, 41, 24)"  x="4" y="16" width="1" height="1" /><rect shape-rendering="crispEdges" fill="rgb(106, 49, 32)"  x="4" y="17" width="1" height="1" /><rect shape-rendering="crispEdges" fill="rgb(172, 82, 65)"  x="4" y="18" width="1" height="1" /><rect shape-rendering="crispEdges" fill="rgb(131, 65, 49)"  x="4" y="19" width="1" height="1" /><rect shape-rendering="crispEdges" fill="rgb(98, 41, 24)"  x="4" y="20" width="1" height="1" /><rect shape-rendering="crispEdges" fill="rgb(106, 41, 32)"  x="4" y="21" width="1" height="1" /><rect shape-rendering="crispEdges" fill="rgb(65, 32, 24)"  x="4" y="22" width="1" height="1" /><rect shape-rendering="crispEdges" fill="rgb(41, 32, 24)"  x="4" y="23" width="1" height="1" /><rect shape-rendering="crispEdges" fill="rgb(8, 16, 8)"  x="4" y="24" width="1" height="1" /><rect shape-rendering="crispEdges" fill="rgb(8, 8, 0)"  x="4" y="25" width="1" height="1" /><rect shape-rendering="crispEdges" fill="rgb(24, 16, 8)"  x="5" y="14" width="1" height="1" /><rect shape-rendering="crispEdges" fill="rgb(65, 32, 24)"  x="5" y="15" width="1" height="1" /><rect shape-rendering="crispEdges" fill="rgb(106, 49, 32)"  x="5" y="16" width="1" height="1" /><rect shape-rendering="crispEdges" fill="rgb(180, 82, 65)"  x="5" y="17" width="1" height="1" /><rect shape-rendering="crispEdges" fill="rgb(115, 49, 32)"  x="5" y="18" width="1" height="1" /><rect shape-rendering="crispEdges" fill="rgb(98, 32, 24)"  x="5" y="19" width="1" height="1" /><rect shape-rendering="crispEdges" fill="rgb(123, 41, 32)"  x="5" y="20" width="1" height="1" /><rect shape-rendering="crispEdges" fill="rgb(115, 41, 32)"  x="5" y="21" width="1" height="1" /><rect shape-rendering="crispEdges" fill="rgb(65, 32, 24)"  x="5" y="22" width="1" height="1" /><rect shape-rendering="crispEdges" fill="rgb(32, 24, 16)"  x="5" y="23" width="1" height="1" /><rect shape-rendering="crispEdges" fill="rgb(16, 16, 8)"  x="5" y="24" width="1" height="1" /><rect shape-rendering="crispEdges" fill="rgb(8, 8, 0)"  x="5" y="25" width="1" height="1" /><rect shape-rendering="crispEdges" fill="rgb(16, 8, 8)"  x="6" y="13" width="1" height="1" /><rect shape-rendering="crispEdges" fill="rgb(49, 32, 16)"  x="6" y="14" width="1" height="1" /><rect shape-rendering="crispEdges" fill="rgb(82, 41, 24)"  x="6" y="15" width="1" height="1" /><rect shape-rendering="crispEdges" fill="rgb(164, 74, 57)"  x="6" y="16" width="1" height="1" /><rect shape-rendering="crispEdges" fill="rgb(131, 57, 41)"  x="6" y="17" width="1" height="1" /><rect shape-rendering="crispEdges" fill="rgb(98, 41, 24)"  x="6" y="18" width="1" height="1" /><rect shape-rendering="crispEdges" fill="rgb(123, 41, 32)"  x="6" y="19" width="1" height="1" /><rect shape-rendering="crispEdges" fill="rgb(115, 41, 32)"  x="6" y="20" width="1" height="1" /><rect shape-rendering="crispEdges" fill="rgb(98, 41, 32)"  x="6" y="21" width="1" height="1" /><rect shape-rendering="crispEdges" fill="rgb(57, 32, 16)"  x="6" y="22" width="1" height="1" /><rect shape-rendering="crispEdges" fill="rgb(32, 24, 16)"  x="6" y="23" width="1" height="1" /><rect shape-rendering="crispEdges" fill="rgb(8, 16, 8)"  x="6" y="24" width="1" height="1" /><rect shape-rendering="crispEdges" fill="rgb(8, 8, 0)"  x="6" y="25" width="1" height="1" /><rect shape-rendering="crispEdges" fill="rgb(32, 16, 8)"  x="7" y="12" width="1" height="1" /><rect shape-rendering="crispEdges" fill="rgb(65, 32, 24)"  x="7" y="13" width="1" height="1" /><rect shape-rendering="crispEdges" fill="rgb(90, 41, 32)"  x="7" y="14" width="1" height="1" /><rect shape-rendering="crispEdges" fill="rgb(164, 74, 57)"  x="7" y="15" width="1" height="1" /><rect shape-rendering="crispEdges" fill="rgb(148, 65, 49)"  x="7" y="16" width="1" height="1" /><rect shape-rendering="crispEdges" fill="rgb(90, 41, 24)"  x="7" y="17" width="1" height="1" /><rect shape-rendering="crispEdges" fill="rgb(106, 41, 32)"  x="7" y="18" width="1" height="1" /><rect shape-rendering="crispEdges" fill="rgb(115, 41, 32)"  x="7" y="19" width="1" height="1" /><rect shape-rendering="crispEdges" fill="rgb(106, 41, 32)"  x="7" y="20" width="1" height="1" /><rect shape-rendering="crispEdges" fill="rgb(82, 41, 24)"  x="7" y="21" width="1" height="1" /><rect shape-rendering="crispEdges" fill="rgb(41, 24, 16)"  x="7" y="22" width="1" height="1" /><rect shape-rendering="crispEdges" fill="rgb(24, 24, 16)"  x="7" y="23" width="1" height="1" /><rect shape-rendering="crispEdges" fill="rgb(8, 8, 8)"  x="7" y="24" width="1" height="1" /><rect shape-rendering="crispEdges" fill="rgb(8, 8, 0)"  x="7" y="25" width="1" height="1" /><rect shape-rendering="crispEdges" fill="rgb(41, 24, 16)"  x="8" y="11" width="1" height="1" /><rect shape-rendering="crispEdges" fill="rgb(98, 49, 32)"  x="8" y="12" width="1" height="1" /><rect shape-rendering="crispEdges" fill="rgb(131, 57, 49)"  x="8" y="13" width="1" height="1" /><rect shape-rendering="crispEdges" fill="rgb(148, 65, 49)"  x="8" y="14" width="1" height="1" /><rect shape-rendering="crispEdges" fill="rgb(131, 57, 49)"  x="8" y="15" width="1" height="1" /><rect shape-rendering="crispEdges" fill="rgb(98, 41, 24)"  x="8" y="16" width="1" height="1" /><rect shape-rendering="crispEdges" fill="rgb(106, 49, 32)"  x="8" y="17" width="1" height="1" /><rect shape-rendering="crispEdges" fill="rgb(98, 41, 32)"  x="8" y="18" width="1" height="1" /><rect shape-rendering="crispEdges" fill="rgb(106, 41, 32)"  x="8" y="19" width="1" height="1" /><rect shape-rendering="crispEdges" fill="rgb(90, 41, 24)"  x="8" y="20" width="1" height="1" /><rect shape-rendering="crispEdges" fill="rgb(57, 32, 16)"  x="8" y="21" width="1" height="1" /><rect shape-rendering="crispEdges" fill="rgb(32, 24, 16)"  x="8" y="22" width="1" height="1" /><rect shape-rendering="crispEdges" fill="rgb(24, 16, 8)"  x="8" y="23" width="1" height="1" /><rect shape-rendering="crispEdges" fill="rgb(8, 8, 0)"  x="8" y="24" width="1" height="1" /><rect shape-rendering="crispEdges" fill="rgb(82, 41, 24)"  x="9" y="10" width="1" height="1" /><rect shape-rendering="crispEdges" fill="rgb(123, 57, 41)"  x="9" y="11" width="1" height="1" /><rect shape-rendering="crispEdges" fill="rgb(90, 41, 32)"  x="9" y="12" width="1" height="1" /><rect shape-rendering="crispEdges" fill="rgb(98, 49, 41)"  x="9" y="13" width="1" height="1" /><rect shape-rendering="crispEdges" fill="rgb(156, 65, 49)"  x="9" y="14" width="1" height="1" /><rect shape-rendering="crispEdges" fill="rgb(131, 57, 41)"  x="9" y="15" width="1" height="1" /><rect shape-rendering="crispEdges" fill="rgb(90, 41, 24)"  x="9" y="16" width="1" height="1" /><rect shape-rendering="crispEdges" fill="rgb(106, 49, 24)"  x="9" y="17" width="1" height="1" /><rect shape-rendering="crispEdges" fill="rgb(98, 41, 32)"  x="9" y="18" width="1" height="1" /><rect shape-rendering="crispEdges" fill="rgb(90, 41, 24)"  x="9" y="19" width="1" height="1" /><rect shape-rendering="crispEdges" fill="rgb(74, 32, 24)"  x="9" y="20" width="1" height="1" /><rect shape-rendering="crispEdges" fill="rgb(49, 24, 16)"  x="9" y="21" width="1" height="1" /><rect shape-rendering="crispEdges" fill="rgb(32, 24, 16)"  x="9" y="22" width="1" height="1" /><rect shape-rendering="crispEdges" fill="rgb(16, 16, 8)"  x="9" y="23" width="1" height="1" /><rect shape-rendering="crispEdges" fill="rgb(8, 8, 0)"  x="9" y="24" width="1" height="1" /><rect shape-rendering="crispEdges" fill="rgb(57, 32, 16)"  x="10" y="9" width="1" height="1" /><rect shape-rendering="crispEdges" fill="rgb(106, 49, 32)"  x="10" y="10" width="1" height="1" /><rect shape-rendering="crispEdges" fill="rgb(82, 41, 24)"  x="10" y="11" width="1" height="1" /><rect shape-rendering="crispEdges" fill="rgb(106, 49, 32)"  x="10" y="12" width="1" height="1" /><rect shape-rendering="crispEdges" fill="rgb(98, 49, 32)"  x="10" y="13" width="1" height="1" /><rect shape-rendering="crispEdges" fill="rgb(98, 49, 32)"  x="10" y="14" width="1" height="1" /><rect shape-rendering="crispEdges" fill="rgb(131, 57, 24)"  x="10" y="15" width="1" height="1" /><rect shape-rendering="crispEdges" fill="rgb(106, 49, 24)"  x="10" y="16" width="1" height="1" /><rect shape-rendering="crispEdges" fill="rgb(98, 41, 32)"  x="10" y="17" width="1" height="1" /><rect shape-rendering="crispEdges" fill="rgb(90, 41, 24)"  x="10" y="18" width="1" height="1" /><rect shape-rendering="crispEdges" fill="rgb(74, 41, 24)"  x="10" y="19" width="1" height="1" /><rect shape-rendering="crispEdges" fill="rgb(49, 32, 16)"  x="10" y="20" width="1" height="1" /><rect shape-rendering="crispEdges" fill="rgb(32, 24, 16)"  x="10" y="21" width="1" height="1" /><rect shape-rendering="crispEdges" fill="rgb(24, 16, 8)"  x="10" y="22" width="1" height="1" /><rect shape-rendering="crispEdges" fill="rgb(8, 8, 8)"  x="10" y="23" width="1" height="1" /><rect shape-rendering="crispEdges" fill="rgb(49, 24, 16)"  x="11" y="9" width="1" height="1" /><rect shape-rendering="crispEdges" fill="rgb(148, 65, 49)"  x="11" y="10" width="1" height="1" /><rect shape-rendering="crispEdges" fill="rgb(115, 57, 41)"  x="11" y="11" width="1" height="1" /><rect shape-rendering="crispEdges" fill="rgb(148, 74, 49)"  x="11" y="12" width="1" height="1" /><rect shape-rendering="crispEdges" fill="rgb(139, 65, 41)"  x="11" y="13" width="1" height="1" /><rect shape-rendering="crispEdges" fill="rgb(82, 41, 24)"  x="11" y="14" width="1" height="1" /><rect shape-rendering="crispEdges" fill="rgb(98, 49, 24)"  x="11" y="15" width="1" height="1" /><rect shape-rendering="crispEdges" fill="rgb(115, 57, 24)"  x="11" y="16" width="1" height="1" /><rect shape-rendering="crispEdges" fill="rgb(74, 41, 24)"  x="11" y="17" width="1" height="1" /><rect shape-rendering="crispEdges" fill="rgb(57, 32, 16)"  x="11" y="18" width="1" height="1" /><rect shape-rendering="crispEdges" fill="rgb(49, 32, 16)"  x="11" y="19" width="1" height="1" /><rect shape-rendering="crispEdges" fill="rgb(32, 24, 8)"  x="11" y="20" width="1" height="1" /><rect shape-rendering="crispEdges" fill="rgb(16, 16, 8)"  x="11" y="21" width="1" height="1" /><rect shape-rendering="crispEdges" fill="rgb(8, 8, 0)"  x="11" y="22" width="1" height="1" /><rect shape-rendering="crispEdges" fill="rgb(24, 24, 16)"  x="11" y="23" width="1" height="1" /><rect shape-rendering="crispEdges" fill="rgb(57, 32, 24)"  x="12" y="9" width="1" height="1" /><rect shape-rendering="crispEdges" fill="rgb(82, 41, 24)"  x="12" y="10" width="1" height="1" /><rect shape-rendering="crispEdges" fill="rgb(148, 65, 41)"  x="12" y="11" width="1" height="1" /><rect shape-rendering="crispEdges" fill="rgb(90, 41, 32)"  x="12" y="12" width="1" height="1" /><rect shape-rendering="crispEdges" fill="rgb(123, 57, 41)"  x="12" y="13" width="1" height="1" /><rect shape-rendering="crispEdges" fill="rgb(115, 57, 24)"  x="12" y="14" width="1" height="1" /><rect shape-rendering="crispEdges" fill="rgb(106, 49, 32)"  x="12" y="15" width="1" height="1" /><rect shape-rendering="crispEdges" fill="rgb(106, 49, 32)"  x="12" y="16" width="1" height="1" /><rect shape-rendering="crispEdges" fill="rgb(65, 32, 24)"  x="12" y="17" width="1" height="1" /><rect shape-rendering="crispEdges" fill="rgb(32, 24, 8)"  x="12" y="18" width="1" height="1" /><rect shape-rendering="crispEdges" fill="rgb(32, 16, 8)"  x="12" y="19" width="1" height="1" /><rect shape-rendering="crispEdges" fill="rgb(24, 24, 16)"  x="12" y="20" width="1" height="1" /><rect shape-rendering="crispEdges" fill="rgb(16, 16, 8)"  x="12" y="21" width="1" height="1" /><rect shape-rendering="crispEdges" fill="rgb(16, 16, 8)"  x="12" y="22" width="1" height="1" /><rect shape-rendering="crispEdges" fill="rgb(65, 32, 24)"  x="13" y="9" width="1" height="1" /><rect shape-rendering="crispEdges" fill="rgb(41, 24, 16)"  x="13" y="10" width="1" height="1" /><rect shape-rendering="crispEdges" fill="rgb(82, 41, 24)"  x="13" y="11" width="1" height="1" /><rect shape-rendering="crispEdges" fill="rgb(123, 57, 24)"  x="13" y="12" width="1" height="1" /><rect shape-rendering="crispEdges" fill="rgb(82, 41, 24)"  x="13" y="13" width="1" height="1" /><rect shape-rendering="crispEdges" fill="rgb(74, 41, 24)"  x="13" y="14" width="1" height="1" /><rect shape-rendering="crispEdges" fill="rgb(82, 41, 24)"  x="13" y="15" width="1" height="1" /><rect shape-rendering="crispEdges" fill="rgb(90, 49, 24)"  x="13" y="16" width="1" height="1" /><rect shape-rendering="crispEdges" fill="rgb(65, 32, 24)"  x="13" y="17" width="1" height="1" /><rect shape-rendering="crispEdges" fill="rgb(24, 16, 8)"  x="13" y="18" width="1" height="1" /><rect shape-rendering="crispEdges" fill="rgb(24, 16, 8)"  x="13" y="19" width="1" height="1" /><rect shape-rendering="crispEdges" fill="rgb(24, 16, 16)"  x="13" y="20" width="1" height="1" /><rect shape-rendering="crispEdges" fill="rgb(24, 16, 8)"  x="13" y="21" width="1" height="1" /><rect shape-rendering="crispEdges" fill="rgb(106, 49, 32)"  x="14" y="8" width="1" height="1" /><rect shape-rendering="crispEdges" fill="rgb(74, 41, 24)"  x="14" y="9" width="1" height="1" /><rect shape-rendering="crispEdges" fill="rgb(49, 32, 16)"  x="14" y="10" width="1" height="1" /><rect shape-rendering="crispEdges" fill="rgb(49, 41, 24)"  x="14" y="11" width="1" height="1" /><rect shape-rendering="crispEdges" fill="rgb(74, 32, 16)"  x="14" y="12" width="1" height="1" /><rect shape-rendering="crispEdges" fill="rgb(106, 49, 24)"  x="14" y="13" width="1" height="1" /><rect shape-rendering="crispEdges" fill="rgb(82, 41, 24)"  x="14" y="14" width="1" height="1" /><rect shape-rendering="crispEdges" fill="rgb(57, 32, 16)"  x="14" y="15" width="1" height="1" /><rect shape-rendering="crispEdges" fill="rgb(49, 32, 16)"  x="14" y="16" width="1" height="1" /><rect shape-rendering="crispEdges" fill="rgb(41, 24, 16)"  x="14" y="17" width="1" height="1" /><rect shape-rendering="crispEdges" fill="rgb(32, 24, 24)"  x="14" y="18" width="1" height="1" /><rect shape-rendering="crispEdges" fill="rgb(24, 16, 16)"  x="14" y="19" width="1" height="1" /><rect shape-rendering="crispEdges" fill="rgb(16, 16, 8)"  x="14" y="20" width="1" height="1" /><rect shape-rendering="crispEdges" fill="rgb(139, 65, 49)"  x="15" y="8" width="1" height="1" /><rect shape-rendering="crispEdges" fill="rgb(90, 49, 32)"  x="15" y="9" width="1" height="1" /><rect shape-rendering="crispEdges" fill="rgb(82, 74, 49)"  x="15" y="10" width="1" height="1" /><rect shape-rendering="crispEdges" fill="rgb(90, 82, 49)"  x="15" y="11" width="1" height="1" /><rect shape-rendering="crispEdges" fill="rgb(49, 41, 24)"  x="15" y="12" width="1" height="1" /><rect shape-rendering="crispEdges" fill="rgb(90, 41, 24)"  x="15" y="13" width="1" height="1" /><rect shape-rendering="crispEdges" fill="rgb(82, 41, 24)"  x="15" y="14" width="1" height="1" /><rect shape-rendering="crispEdges" fill="rgb(74, 41, 24)"  x="15" y="15" width="1" height="1" /><rect shape-rendering="crispEdges" fill="rgb(41, 24, 16)"  x="15" y="16" width="1" height="1" /><rect shape-rendering="crispEdges" fill="rgb(32, 24, 16)"  x="15" y="17" width="1" height="1" /><rect shape-rendering="crispEdges" fill="rgb(57, 41, 32)"  x="15" y="18" width="1" height="1" /><rect shape-rendering="crispEdges" fill="rgb(32, 24, 16)"  x="15" y="19" width="1" height="1" /><rect shape-rendering="crispEdges" fill="rgb(16, 16, 8)"  x="15" y="20" width="1" height="1" /><rect shape-rendering="crispEdges" fill="rgb(139, 65, 49)"  x="16" y="8" width="1" height="1" /><rect shape-rendering="crispEdges" fill="rgb(82, 49, 32)"  x="16" y="9" width="1" height="1" /><rect shape-rendering="crispEdges" fill="rgb(90, 82, 49)"  x="16" y="10" width="1" height="1" /><rect shape-rendering="crispEdges" fill="rgb(90, 82, 57)"  x="16" y="11" width="1" height="1" /><rect shape-rendering="crispEdges" fill="rgb(49, 41, 24)"  x="16" y="12" width="1" height="1" /><rect shape-rendering="crispEdges" fill="rgb(90, 41, 24)"  x="16" y="13" width="1" height="1" /><rect shape-rendering="crispEdges" fill="rgb(49, 32, 16)"  x="16" y="14" width="1" height="1" /><rect shape-rendering="crispEdges" fill="rgb(41, 24, 16)"  x="16" y="15" width="1" height="1" /><rect shape-rendering="crispEdges" fill="rgb(32, 16, 16)"  x="16" y="16" width="1" height="1" /><rect shape-rendering="crispEdges" fill="rgb(49, 32, 32)"  x="16" y="17" width="1" height="1" /><rect shape-rendering="crispEdges" fill="rgb(49, 32, 24)"  x="16" y="18" width="1" height="1" /><rect shape-rendering="crispEdges" fill="rgb(8, 8, 8)"  x="16" y="19" width="1" height="1" /><rect shape-rendering="crispEdges" fill="rgb(98, 49, 32)"  x="17" y="8" width="1" height="1" /><rect shape-rendering="crispEdges" fill="rgb(57, 32, 24)"  x="17" y="9" width="1" height="1" /><rect shape-rendering="crispEdges" fill="rgb(82, 82, 49)"  x="17" y="10" width="1" height="1" /><rect shape-rendering="crispEdges" fill="rgb(82, 74, 49)"  x="17" y="11" width="1" height="1" /><rect shape-rendering="crispEdges" fill="rgb(49, 32, 16)"  x="17" y="12" width="1" height="1" /><rect shape-rendering="crispEdges" fill="rgb(82, 32, 24)"  x="17" y="13" width="1" height="1" /><rect shape-rendering="crispEdges" fill="rgb(41, 24, 16)"  x="17" y="14" width="1" height="1" /><rect shape-rendering="crispEdges" fill="rgb(24, 16, 8)"  x="17" y="15" width="1" height="1" /><rect shape-rendering="crispEdges" fill="rgb(32, 24, 16)"  x="17" y="16" width="1" height="1" /><rect shape-rendering="crispEdges" fill="rgb(57, 41, 32)"  x="17" y="17" width="1" height="1" /><rect shape-rendering="crispEdges" fill="rgb(24, 16, 16)"  x="17" y="18" width="1" height="1" /><rect shape-rendering="crispEdges" fill="rgb(115, 49, 32)"  x="18" y="8" width="1" height="1" /><rect shape-rendering="crispEdges" fill="rgb(65, 32, 24)"  x="18" y="9" width="1" height="1" /><rect shape-rendering="crispEdges" fill="rgb(41, 32, 16)"  x="18" y="10" width="1" height="1" /><rect shape-rendering="crispEdges" fill="rgb(41, 41, 24)"  x="18" y="11" width="1" height="1" /><rect shape-rendering="crispEdges" fill="rgb(74, 32, 24)"  x="18" y="12" width="1" height="1" /><rect shape-rendering="crispEdges" fill="rgb(74, 32, 24)"  x="18" y="13" width="1" height="1" /><rect shape-rendering="crispEdges" fill="rgb(32, 16, 8)"  x="18" y="14" width="1" height="1" /><rect shape-rendering="crispEdges" fill="rgb(24, 24, 16)"  x="18" y="15" width="1" height="1" /><rect shape-rendering="crispEdges" fill="rgb(49, 41, 32)"  x="18" y="16" width="1" height="1" /><rect shape-rendering="crispEdges" fill="rgb(41, 24, 24)"  x="18" y="17" width="1" height="1" /><rect shape-rendering="crispEdges" fill="rgb(98, 49, 32)"  x="19" y="9" width="1" height="1" /><rect shape-rendering="crispEdges" fill="rgb(82, 41, 24)"  x="19" y="10" width="1" height="1" /><rect shape-rendering="crispEdges" fill="rgb(65, 32, 24)"  x="19" y="11" width="1" height="1" /><rect shape-rendering="crispEdges" fill="rgb(74, 32, 24)"  x="19" y="12" width="1" height="1" /><rect shape-rendering="crispEdges" fill="rgb(32, 24, 8)"  x="19" y="13" width="1" height="1" /><rect shape-rendering="crispEdges" fill="rgb(24, 16, 8)"  x="19" y="14" width="1" height="1" /><rect shape-rendering="crispEdges" fill="rgb(41, 32, 24)"  x="19" y="15" width="1" height="1" /><rect shape-rendering="crispEdges" fill="rgb(41, 32, 24)"  x="19" y="16" width="1" height="1" /><rect shape-rendering="crispEdges" fill="rgb(24, 16, 8)"  x="19" y="17" width="1" height="1" /><rect shape-rendering="crispEdges" fill="rgb(32, 24, 16)"  x="19" y="18" width="1" height="1" /><rect shape-rendering="crispEdges" fill="rgb(41, 32, 16)"  x="19" y="19" width="1" height="1" /><rect shape-rendering="crispEdges" fill="rgb(49, 32, 24)"  x="19" y="20" width="1" height="1" /><rect shape-rendering="crispEdges" fill="rgb(49, 32, 16)"  x="19" y="21" width="1" height="1" /><rect shape-rendering="crispEdges" fill="rgb(49, 32, 16)"  x="19" y="22" width="1" height="1" /><rect shape-rendering="crispEdges" fill="rgb(49, 24, 16)"  x="19" y="23" width="1" height="1" /><rect shape-rendering="crispEdges" fill="rgb(49, 32, 24)"  x="19" y="24" width="1" height="1" /><rect shape-rendering="crispEdges" fill="rgb(41, 32, 24)"  x="19" y="25" width="1" height="1" /><rect shape-rendering="crispEdges" fill="rgb(41, 32, 24)"  x="19" y="26" width="1" height="1" /><rect shape-rendering="crispEdges" fill="rgb(49, 24, 16)"  x="20" y="10" width="1" height="1" /><rect shape-rendering="crispEdges" fill="rgb(57, 32, 16)"  x="20" y="11" width="1" height="1" /><rect shape-rendering="crispEdges" fill="rgb(57, 32, 16)"  x="20" y="12" width="1" height="1" /><rect shape-rendering="crispEdges" fill="rgb(41, 24, 16)"  x="20" y="13" width="1" height="1" /><rect shape-rendering="crispEdges" fill="rgb(16, 16, 8)"  x="20" y="14" width="1" height="1" /><rect shape-rendering="crispEdges" fill="rgb(24, 16, 8)"  x="20" y="15" width="1" height="1" /><rect shape-rendering="crispEdges" fill="rgb(24, 16, 8)"  x="20" y="16" width="1" height="1" /><rect shape-rendering="crispEdges" fill="rgb(32, 24, 8)"  x="20" y="17" width="1" height="1" /><rect shape-rendering="crispEdges" fill="rgb(49, 32, 16)"  x="20" y="18" width="1" height="1" /><rect shape-rendering="crispEdges" fill="rgb(57, 32, 16)"  x="20" y="19" width="1" height="1" /><rect shape-rendering="crispEdges" fill="rgb(65, 32, 24)"  x="20" y="20" width="1" height="1" /><rect shape-rendering="crispEdges" fill="rgb(74, 32, 24)"  x="20" y="21" width="1" height="1" /><rect shape-rendering="crispEdges" fill="rgb(74, 32, 16)"  x="20" y="22" width="1" height="1" /><rect shape-rendering="crispEdges" fill="rgb(74, 41, 24)"  x="20" y="23" width="1" height="1" /><rect shape-rendering="crispEdges" fill="rgb(49, 24, 16)"  x="20" y="24" width="1" height="1" /><rect shape-rendering="crispEdges" fill="rgb(49, 32, 24)"  x="20" y="25" width="1" height="1" /><rect shape-rendering="crispEdges" fill="rgb(41, 41, 24)"  x="20" y="26" width="1" height="1" /><rect shape-rendering="crispEdges" fill="rgb(32, 32, 24)"  x="20" y="27" width="1" height="1" /><rect shape-rendering="crispEdges" fill="rgb(41, 24, 16)"  x="21" y="9" width="1" height="1" /><rect shape-rendering="crispEdges" fill="rgb(65, 32, 24)"  x="21" y="10" width="1" height="1" /><rect shape-rendering="crispEdges" fill="rgb(49, 24, 16)"  x="21" y="11" width="1" height="1" /><rect shape-rendering="crispEdges" fill="rgb(41, 32, 16)"  x="21" y="12" width="1" height="1" /><rect shape-rendering="crispEdges" fill="rgb(49, 32, 16)"  x="21" y="13" width="1" height="1" /><rect shape-rendering="crispEdges" fill="rgb(49, 24, 16)"  x="21" y="14" width="1" height="1" /><rect shape-rendering="crispEdges" fill="rgb(41, 24, 16)"  x="21" y="15" width="1" height="1" /><rect shape-rendering="crispEdges" fill="rgb(57, 32, 16)"  x="21" y="16" width="1" height="1" /><rect shape-rendering="crispEdges" fill="rgb(74, 41, 24)"  x="21" y="17" width="1" height="1" /><rect shape-rendering="crispEdges" fill="rgb(98, 49, 32)"  x="21" y="18" width="1" height="1" /><rect shape-rendering="crispEdges" fill="rgb(98, 49, 32)"  x="21" y="19" width="1" height="1" /><rect shape-rendering="crispEdges" fill="rgb(115, 41, 32)"  x="21" y="20" width="1" height="1" /><rect shape-rendering="crispEdges" fill="rgb(139, 49, 41)"  x="21" y="21" width="1" height="1" /><rect shape-rendering="crispEdges" fill="rgb(164, 65, 57)"  x="21" y="22" width="1" height="1" /><rect shape-rendering="crispEdges" fill="rgb(123, 49, 41)"  x="21" y="23" width="1" height="1" /><rect shape-rendering="crispEdges" fill="rgb(90, 41, 24)"  x="21" y="24" width="1" height="1" /><rect shape-rendering="crispEdges" fill="rgb(49, 24, 16)"  x="21" y="25" width="1" height="1" /><rect shape-rendering="crispEdges" fill="rgb(41, 32, 16)"  x="21" y="26" width="1" height="1" /><rect shape-rendering="crispEdges" fill="rgb(41, 41, 24)"  x="21" y="27" width="1" height="1" /><rect shape-rendering="crispEdges" fill="rgb(32, 24, 16)"  x="21" y="28" width="1" height="1" /><rect shape-rendering="crispEdges" fill="rgb(98, 49, 32)"  x="22" y="8" width="1" height="1" /><rect shape-rendering="crispEdges" fill="rgb(123, 57, 41)"  x="22" y="9" width="1" height="1" /><rect shape-rendering="crispEdges" fill="rgb(65, 41, 24)"  x="22" y="10" width="1" height="1" /><rect shape-rendering="crispEdges" fill="rgb(24, 24, 16)"  x="22" y="11" width="1" height="1" /><rect shape-rendering="crispEdges" fill="rgb(57, 32, 16)"  x="22" y="12" width="1" height="1" /><rect shape-rendering="crispEdges" fill="rgb(123, 57, 32)"  x="22" y="13" width="1" height="1" /><rect shape-rendering="crispEdges" fill="rgb(98, 49, 32)"  x="22" y="14" width="1" height="1" /><rect shape-rendering="crispEdges" fill="rgb(65, 32, 24)"  x="22" y="15" width="1" height="1" /><rect shape-rendering="crispEdges" fill="rgb(98, 41, 32)"  x="22" y="16" width="1" height="1" /><rect shape-rendering="crispEdges" fill="rgb(106, 49, 32)"  x="22" y="17" width="1" height="1" /><rect shape-rendering="crispEdges" fill="rgb(106, 49, 32)"  x="22" y="18" width="1" height="1" /><rect shape-rendering="crispEdges" fill="rgb(115, 49, 32)"  x="22" y="19" width="1" height="1" /><rect shape-rendering="crispEdges" fill="rgb(131, 49, 32)"  x="22" y="20" width="1" height="1" /><rect shape-rendering="crispEdges" fill="rgb(172, 57, 49)"  x="22" y="21" width="1" height="1" /><rect shape-rendering="crispEdges" fill="rgb(246, 222, 222)"  x="22" y="22" width="1" height="1" /><rect shape-rendering="crispEdges" fill="rgb(205, 131, 123)"  x="22" y="23" width="1" height="1" /><rect shape-rendering="crispEdges" fill="rgb(115, 49, 32)"  x="22" y="24" width="1" height="1" /><rect shape-rendering="crispEdges" fill="rgb(82, 41, 24)"  x="22" y="25" width="1" height="1" /><rect shape-rendering="crispEdges" fill="rgb(49, 24, 16)"  x="22" y="26" width="1" height="1" /><rect shape-rendering="crispEdges" fill="rgb(32, 32, 16)"  x="22" y="27" width="1" height="1" /><rect shape-rendering="crispEdges" fill="rgb(41, 32, 24)"  x="22" y="28" width="1" height="1" /><rect shape-rendering="crispEdges" fill="rgb(49, 32, 32)"  x="22" y="29" width="1" height="1" /><rect shape-rendering="crispEdges" fill="rgb(148, 65, 49)"  x="23" y="8" width="1" height="1" /><rect shape-rendering="crispEdges" fill="rgb(115, 57, 32)"  x="23" y="9" width="1" height="1" /><rect shape-rendering="crispEdges" fill="rgb(57, 57, 32)"  x="23" y="10" width="1" height="1" /><rect shape-rendering="crispEdges" fill="rgb(74, 74, 49)"  x="23" y="11" width="1" height="1" /><rect shape-rendering="crispEdges" fill="rgb(115, 57, 41)"  x="23" y="12" width="1" height="1" /><rect shape-rendering="crispEdges" fill="rgb(148, 65, 49)"  x="23" y="13" width="1" height="1" /><rect shape-rendering="crispEdges" fill="rgb(115, 57, 41)"  x="23" y="14" width="1" height="1" /><rect shape-rendering="crispEdges" fill="rgb(98, 49, 24)"  x="23" y="15" width="1" height="1" /><rect shape-rendering="crispEdges" fill="rgb(90, 41, 24)"  x="23" y="16" width="1" height="1" /><rect shape-rendering="crispEdges" fill="rgb(90, 41, 24)"  x="23" y="17" width="1" height="1" /><rect shape-rendering="crispEdges" fill="rgb(90, 41, 24)"  x="23" y="18" width="1" height="1" /><rect shape-rendering="crispEdges" fill="rgb(98, 41, 24)"  x="23" y="19" width="1" height="1" /><rect shape-rendering="crispEdges" fill="rgb(106, 41, 32)"  x="23" y="20" width="1" height="1" /><rect shape-rendering="crispEdges" fill="rgb(106, 41, 32)"  x="23" y="21" width="1" height="1" /><rect shape-rendering="crispEdges" fill="rgb(172, 98, 90)"  x="23" y="22" width="1" height="1" /><rect shape-rendering="crispEdges" fill="rgb(148, 82, 65)"  x="23" y="23" width="1" height="1" /><rect shape-rendering="crispEdges" fill="rgb(98, 41, 24)"  x="23" y="24" width="1" height="1" /><rect shape-rendering="crispEdges" fill="rgb(90, 41, 24)"  x="23" y="25" width="1" height="1" /><rect shape-rendering="crispEdges" fill="rgb(57, 32, 16)"  x="23" y="26" width="1" height="1" /><rect shape-rendering="crispEdges" fill="rgb(32, 24, 16)"  x="23" y="27" width="1" height="1" /><rect shape-rendering="crispEdges" fill="rgb(32, 32, 16)"  x="23" y="28" width="1" height="1" /><rect shape-rendering="crispEdges" fill="rgb(16, 16, 8)"  x="23" y="29" width="1" height="1" /><rect shape-rendering="crispEdges" fill="rgb(156, 74, 49)"  x="24" y="8" width="1" height="1" /><rect shape-rendering="crispEdges" fill="rgb(90, 49, 32)"  x="24" y="9" width="1" height="1" /><rect shape-rendering="crispEdges" fill="rgb(82, 74, 49)"  x="24" y="10" width="1" height="1" /><rect shape-rendering="crispEdges" fill="rgb(90, 82, 49)"  x="24" y="11" width="1" height="1" /><rect shape-rendering="crispEdges" fill="rgb(156, 74, 57)"  x="24" y="12" width="1" height="1" /><rect shape-rendering="crispEdges" fill="rgb(156, 74, 57)"  x="24" y="13" width="1" height="1" /><rect shape-rendering="crispEdges" fill="rgb(139, 65, 49)"  x="24" y="14" width="1" height="1" /><rect shape-rendering="crispEdges" fill="rgb(123, 57, 32)"  x="24" y="15" width="1" height="1" /><rect shape-rendering="crispEdges" fill="rgb(98, 49, 32)"  x="24" y="16" width="1" height="1" /><rect shape-rendering="crispEdges" fill="rgb(156, 74, 57)"  x="24" y="17" width="1" height="1" /><rect shape-rendering="crispEdges" fill="rgb(164, 74, 57)"  x="24" y="18" width="1" height="1" /><rect shape-rendering="crispEdges" fill="rgb(164, 74, 57)"  x="24" y="19" width="1" height="1" /><rect shape-rendering="crispEdges" fill="rgb(164, 74, 57)"  x="24" y="20" width="1" height="1" /><rect shape-rendering="crispEdges" fill="rgb(156, 74, 57)"  x="24" y="21" width="1" height="1" /><rect shape-rendering="crispEdges" fill="rgb(148, 74, 57)"  x="24" y="22" width="1" height="1" /><rect shape-rendering="crispEdges" fill="rgb(139, 65, 49)"  x="24" y="23" width="1" height="1" /><rect shape-rendering="crispEdges" fill="rgb(139, 57, 49)"  x="24" y="24" width="1" height="1" /><rect shape-rendering="crispEdges" fill="rgb(131, 57, 49)"  x="24" y="25" width="1" height="1" /><rect shape-rendering="crispEdges" fill="rgb(57, 32, 16)"  x="24" y="26" width="1" height="1" /><rect shape-rendering="crispEdges" fill="rgb(32, 24, 16)"  x="24" y="27" width="1" height="1" /><rect shape-rendering="crispEdges" fill="rgb(32, 32, 16)"  x="24" y="28" width="1" height="1" /><rect shape-rendering="crispEdges" fill="rgb(16, 16, 8)"  x="24" y="29" width="1" height="1" /><rect shape-rendering="crispEdges" fill="rgb(131, 57, 41)"  x="25" y="8" width="1" height="1" /><rect shape-rendering="crispEdges" fill="rgb(82, 41, 24)"  x="25" y="9" width="1" height="1" /><rect shape-rendering="crispEdges" fill="rgb(82, 74, 49)"  x="25" y="10" width="1" height="1" /><rect shape-rendering="crispEdges" fill="rgb(90, 82, 49)"  x="25" y="11" width="1" height="1" /><rect shape-rendering="crispEdges" fill="rgb(156, 74, 57)"  x="25" y="12" width="1" height="1" /><rect shape-rendering="crispEdges" fill="rgb(115, 49, 32)"  x="25" y="13" width="1" height="1" /><rect shape-rendering="crispEdges" fill="rgb(123, 57, 49)"  x="25" y="14" width="1" height="1" /><rect shape-rendering="crispEdges" fill="rgb(139, 65, 32)"  x="25" y="15" width="1" height="1" /><rect shape-rendering="crispEdges" fill="rgb(98, 49, 32)"  x="25" y="16" width="1" height="1" /><rect shape-rendering="crispEdges" fill="rgb(106, 49, 32)"  x="25" y="17" width="1" height="1" /><rect shape-rendering="crispEdges" fill="rgb(98, 49, 32)"  x="25" y="18" width="1" height="1" /><rect shape-rendering="crispEdges" fill="rgb(98, 49, 32)"  x="25" y="19" width="1" height="1" /><rect shape-rendering="crispEdges" fill="rgb(106, 49, 32)"  x="25" y="20" width="1" height="1" /><rect shape-rendering="crispEdges" fill="rgb(106, 49, 32)"  x="25" y="21" width="1" height="1" /><rect shape-rendering="crispEdges" fill="rgb(106, 49, 32)"  x="25" y="22" width="1" height="1" /><rect shape-rendering="crispEdges" fill="rgb(106, 49, 32)"  x="25" y="23" width="1" height="1" /><rect shape-rendering="crispEdges" fill="rgb(98, 49, 32)"  x="25" y="24" width="1" height="1" /><rect shape-rendering="crispEdges" fill="rgb(98, 41, 32)"  x="25" y="25" width="1" height="1" /><rect shape-rendering="crispEdges" fill="rgb(57, 32, 16)"  x="25" y="26" width="1" height="1" /><rect shape-rendering="crispEdges" fill="rgb(32, 24, 16)"  x="25" y="27" width="1" height="1" /><rect shape-rendering="crispEdges" fill="rgb(32, 32, 16)"  x="25" y="28" width="1" height="1" /><rect shape-rendering="crispEdges" fill="rgb(16, 24, 8)"  x="25" y="29" width="1" height="1" /><rect shape-rendering="crispEdges" fill="rgb(106, 49, 32)"  x="26" y="8" width="1" height="1" /><rect shape-rendering="crispEdges" fill="rgb(82, 41, 24)"  x="26" y="9" width="1" height="1" /><rect shape-rendering="crispEdges" fill="rgb(57, 49, 32)"  x="26" y="10" width="1" height="1" /><rect shape-rendering="crispEdges" fill="rgb(74, 65, 41)"  x="26" y="11" width="1" height="1" /><rect shape-rendering="crispEdges" fill="rgb(90, 57, 32)"  x="26" y="12" width="1" height="1" /><rect shape-rendering="crispEdges" fill="rgb(90, 41, 24)"  x="26" y="13" width="1" height="1" /><rect shape-rendering="crispEdges" fill="rgb(65, 41, 24)"  x="26" y="14" width="1" height="1" /><rect shape-rendering="crispEdges" fill="rgb(98, 49, 24)"  x="26" y="15" width="1" height="1" /><rect shape-rendering="crispEdges" fill="rgb(65, 32, 24)"  x="26" y="16" width="1" height="1" /><rect shape-rendering="crispEdges" fill="rgb(90, 49, 32)"  x="26" y="17" width="1" height="1" /><rect shape-rendering="crispEdges" fill="rgb(90, 41, 32)"  x="26" y="18" width="1" height="1" /><rect shape-rendering="crispEdges" fill="rgb(90, 41, 24)"  x="26" y="19" width="1" height="1" /><rect shape-rendering="crispEdges" fill="rgb(98, 41, 24)"  x="26" y="20" width="1" height="1" /><rect shape-rendering="crispEdges" fill="rgb(115, 41, 32)"  x="26" y="21" width="1" height="1" /><rect shape-rendering="crispEdges" fill="rgb(115, 41, 32)"  x="26" y="22" width="1" height="1" /><rect shape-rendering="crispEdges" fill="rgb(123, 41, 32)"  x="26" y="23" width="1" height="1" /><rect shape-rendering="crispEdges" fill="rgb(123, 49, 32)"  x="26" y="24" width="1" height="1" /><rect shape-rendering="crispEdges" fill="rgb(82, 41, 24)"  x="26" y="25" width="1" height="1" /><rect shape-rendering="crispEdges" fill="rgb(49, 24, 16)"  x="26" y="26" width="1" height="1" /><rect shape-rendering="crispEdges" fill="rgb(32, 16, 8)"  x="26" y="27" width="1" height="1" /><rect shape-rendering="crispEdges" fill="rgb(8, 8, 0)"  x="26" y="28" width="1" height="1" /><rect shape-rendering="crispEdges" fill="rgb(8, 8, 0)"  x="26" y="29" width="1" height="1" /><rect shape-rendering="crispEdges" fill="rgb(82, 41, 24)"  x="27" y="9" width="1" height="1" /><rect shape-rendering="crispEdges" fill="rgb(82, 41, 24)"  x="27" y="10" width="1" height="1" /><rect shape-rendering="crispEdges" fill="rgb(49, 32, 24)"  x="27" y="11" width="1" height="1" /><rect shape-rendering="crispEdges" fill="rgb(49, 32, 16)"  x="27" y="12" width="1" height="1" /><rect shape-rendering="crispEdges" fill="rgb(82, 41, 24)"  x="27" y="13" width="1" height="1" /><rect shape-rendering="crispEdges" fill="rgb(41, 24, 16)"  x="27" y="14" width="1" height="1" /><rect shape-rendering="crispEdges" fill="rgb(65, 32, 24)"  x="27" y="15" width="1" height="1" /><rect shape-rendering="crispEdges" fill="rgb(65, 32, 24)"  x="27" y="16" width="1" height="1" /><rect shape-rendering="crispEdges" fill="rgb(90, 41, 24)"  x="27" y="17" width="1" height="1" /><rect shape-rendering="crispEdges" fill="rgb(98, 49, 32)"  x="27" y="18" width="1" height="1" /><rect shape-rendering="crispEdges" fill="rgb(98, 41, 24)"  x="27" y="19" width="1" height="1" /><rect shape-rendering="crispEdges" fill="rgb(106, 41, 32)"  x="27" y="20" width="1" height="1" /><rect shape-rendering="crispEdges" fill="rgb(123, 41, 32)"  x="27" y="21" width="1" height="1" /><rect shape-rendering="crispEdges" fill="rgb(131, 49, 32)"  x="27" y="22" width="1" height="1" /><rect shape-rendering="crispEdges" fill="rgb(131, 49, 32)"  x="27" y="23" width="1" height="1" /><rect shape-rendering="crispEdges" fill="rgb(115, 49, 32)"  x="27" y="24" width="1" height="1" /><rect shape-rendering="crispEdges" fill="rgb(65, 32, 24)"  x="27" y="25" width="1" height="1" /><rect shape-rendering="crispEdges" fill="rgb(41, 24, 16)"  x="27" y="26" width="1" height="1" /><rect shape-rendering="crispEdges" fill="rgb(16, 16, 8)"  x="27" y="27" width="1" height="1" /><rect shape-rendering="crispEdges" fill="rgb(8, 8, 0)"  x="27" y="28" width="1" height="1" /><rect shape-rendering="crispEdges" fill="rgb(90, 41, 32)"  x="28" y="10" width="1" height="1" /><rect shape-rendering="crispEdges" fill="rgb(106, 41, 32)"  x="28" y="11" width="1" height="1" /><rect shape-rendering="crispEdges" fill="rgb(57, 32, 24)"  x="28" y="12" width="1" height="1" /><rect shape-rendering="crispEdges" fill="rgb(32, 24, 8)"  x="28" y="13" width="1" height="1" /><rect shape-rendering="crispEdges" fill="rgb(16, 8, 8)"  x="28" y="14" width="1" height="1" /><rect shape-rendering="crispEdges" fill="rgb(16, 16, 8)"  x="28" y="15" width="1" height="1" /><rect shape-rendering="crispEdges" fill="rgb(32, 16, 8)"  x="28" y="16" width="1" height="1" /><rect shape-rendering="crispEdges" fill="rgb(65, 32, 16)"  x="28" y="17" width="1" height="1" /><rect shape-rendering="crispEdges" fill="rgb(98, 49, 32)"  x="28" y="18" width="1" height="1" /><rect shape-rendering="crispEdges" fill="rgb(98, 41, 24)"  x="28" y="19" width="1" height="1" /><rect shape-rendering="crispEdges" fill="rgb(98, 41, 32)"  x="28" y="20" width="1" height="1" /><rect shape-rendering="crispEdges" fill="rgb(106, 41, 32)"  x="28" y="21" width="1" height="1" /><rect shape-rendering="crispEdges" fill="rgb(115, 49, 32)"  x="28" y="22" width="1" height="1" /><rect shape-rendering="crispEdges" fill="rgb(106, 49, 32)"  x="28" y="23" width="1" height="1" /><rect shape-rendering="crispEdges" fill="rgb(74, 32, 24)"  x="28" y="24" width="1" height="1" /><rect shape-rendering="crispEdges" fill="rgb(49, 24, 16)"  x="28" y="25" width="1" height="1" /><rect shape-rendering="crispEdges" fill="rgb(24, 16, 8)"  x="28" y="26" width="1" height="1" /><rect shape-rendering="crispEdges" fill="rgb(8, 8, 0)"  x="28" y="27" width="1" height="1" /><rect shape-rendering="crispEdges" fill="rgb(8, 8, 0)"  x="28" y="28" width="1" height="1" /><rect shape-rendering="crispEdges" fill="rgb(65, 41, 24)"  x="29" y="12" width="1" height="1" /><rect shape-rendering="crispEdges" fill="rgb(24, 16, 8)"  x="29" y="13" width="1" height="1" /><rect shape-rendering="crispEdges" fill="rgb(8, 8, 8)"  x="29" y="14" width="1" height="1" /><rect shape-rendering="crispEdges" fill="rgb(8, 8, 8)"  x="29" y="15" width="1" height="1" /><rect shape-rendering="crispEdges" fill="rgb(16, 16, 8)"  x="29" y="16" width="1" height="1" /><rect shape-rendering="crispEdges" fill="rgb(32, 16, 8)"  x="29" y="17" width="1" height="1" /><rect shape-rendering="crispEdges" fill="rgb(57, 32, 24)"  x="29" y="18" width="1" height="1" /><rect shape-rendering="crispEdges" fill="rgb(65, 32, 16)"  x="29" y="19" width="1" height="1" /><rect shape-rendering="crispEdges" fill="rgb(65, 32, 16)"  x="29" y="20" width="1" height="1" /><rect shape-rendering="crispEdges" fill="rgb(74, 32, 24)"  x="29" y="21" width="1" height="1" /><rect shape-rendering="crispEdges" fill="rgb(65, 32, 24)"  x="29" y="22" width="1" height="1" /><rect shape-rendering="crispEdges" fill="rgb(57, 32, 16)"  x="29" y="23" width="1" height="1" /><rect shape-rendering="crispEdges" fill="rgb(41, 24, 16)"  x="29" y="24" width="1" height="1" /><rect shape-rendering="crispEdges" fill="rgb(32, 16, 8)"  x="29" y="25" width="1" height="1" /><rect shape-rendering="crispEdges" fill="rgb(8, 8, 8)"  x="29" y="26" width="1" height="1" /></svg>