<svg xmlns="http://www.w3.org/2000/svg" xmlns:xlink= "http://www.w3.org/1999/xlink" width="32" height="32" viewBox ="0 0 32 32"><rect shape-rendering="crispEdges" fill="rgb(41, 32, 32)"  x="2" y="3" width="1" height="1" /><rect shape-rendering="crispEdges" fill="rgb(41, 32, 32)"  x="2" y="4" width="1" height="1" /><rect shape-rendering="crispEdges" fill="rgb(41, 32, 32)"  x="2" y="5" width="1" height="1" /><rect shape-rendering="crispEdges" fill="rgb(41, 32, 32)"  x="3" y="2" width="1" height="1" /><rect shape-rendering="crispEdges" fill="rgb(65, 41, 41)"  x="3" y="3" width="1" height="1" /><rect shape-rendering="crispEdges" fill="rgb(65, 49, 41)"  x="3" y="4" width="1" height="1" /><rect shape-rendering="crispEdges" fill="rgb(65, 49, 41)"  x="3" y="5" width="1" height="1" /><rect shape-rendering="crispEdges" fill="rgb(41, 32, 32)"  x="3" y="6" width="1" height="1" /><rect shape-rendering="crispEdges" fill="rgb(41, 32, 32)"  x="3" y="7" width="1" height="1" /><rect shape-rendering="crispEdges" fill="rgb(41, 32, 32)"  x="3" y="8" width="1" height="1" /><rect shape-rendering="crispEdges" fill="rgb(41, 32, 32)"  x="3" y="9" width="1" height="1" /><rect shape-rendering="crispEdges" fill="rgb(41, 32, 32)"  x="3" y="10" width="1" height="1" /><rect shape-rendering="crispEdges" fill="rgb(41, 32, 32)"  x="3" y="11" width="1" height="1" /><rect shape-rendering="crispEdges" fill="rgb(41, 32, 32)"  x="3" y="12" width="1" height="1" /><rect shape-rendering="crispEdges" fill="rgb(41, 32, 32)"  x="3" y="22" width="1" height="1" /><rect shape-rendering="crispEdges" fill="rgb(41, 32, 32)"  x="3" y="23" width="1" height="1" /><rect shape-rendering="crispEdges" fill="rgb(41, 32, 32)"  x="3" y="24" width="1" height="1" /><rect shape-rendering="crispEdges" fill="rgb(41, 32, 32)"  x="3" y="25" width="1" height="1" /><rect shape-rendering="crispEdges" fill="rgb(41, 32, 32)"  x="3" y="26" width="1" height="1" /><rect shape-rendering="crispEdges" fill="rgb(41, 32, 32)"  x="4" y="3" width="1" height="1" /><rect shape-rendering="crispEdges" fill="rgb(74, 57, 49)"  x="4" y="4" width="1" height="1" /><rect shape-rendering="crispEdges" fill="rgb(90, 65, 57)"  x="4" y="5" width="1" height="1" /><rect shape-rendering="crispEdges" fill="rgb(115, 65, 74)"  x="4" y="6" width="1" height="1" /><rect shape-rendering="crispEdges" fill="rgb(123, 65, 74)"  x="4" y="7" width="1" height="1" /><rect shape-rendering="crispEdges" fill="rgb(74, 41, 41)"  x="4" y="8" width="1" height="1" /><rect shape-rendering="crispEdges" fill="rgb(82, 57, 57)"  x="4" y="9" width="1" height="1" /><rect shape-rendering="crispEdges" fill="rgb(82, 57, 57)"  x="4" y="10" width="1" height="1" /><rect shape-rendering="crispEdges" fill="rgb(65, 49, 49)"  x="4" y="11" width="1" height="1" /><rect shape-rendering="crispEdges" fill="rgb(49, 41, 32)"  x="4" y="12" width="1" height="1" /><rect shape-rendering="crispEdges" fill="rgb(41, 32, 32)"  x="4" y="13" width="1" height="1" /><rect shape-rendering="crispEdges" fill="rgb(41, 32, 32)"  x="4" y="14" width="1" height="1" /><rect shape-rendering="crispEdges" fill="rgb(41, 32, 32)"  x="4" y="15" width="1" height="1" /><rect shape-rendering="crispEdges" fill="rgb(41, 32, 32)"  x="4" y="16" width="1" height="1" /><rect shape-rendering="crispEdges" fill="rgb(41, 32, 32)"  x="4" y="21" width="1" height="1" /><rect shape-rendering="crispEdges" fill="rgb(57, 65, 123)"  x="4" y="22" width="1" height="1" /><rect shape-rendering="crispEdges" fill="rgb(82, 123, 189)"  x="4" y="23" width="1" height="1" /><rect shape-rendering="crispEdges" fill="rgb(57, 57, 115)"  x="4" y="24" width="1" height="1" /><rect shape-rendering="crispEdges" fill="rgb(49, 32, 49)"  x="4" y="25" width="1" height="1" /><rect shape-rendering="crispEdges" fill="rgb(57, 32, 49)"  x="4" y="26" width="1" height="1" /><rect shape-rendering="crispEdges" fill="rgb(41, 32, 32)"  x="4" y="27" width="1" height="1" /><rect shape-rendering="crispEdges" fill="rgb(41, 32, 32)"  x="5" y="4" width="1" height="1" /><rect shape-rendering="crispEdges" fill="rgb(74, 57, 49)"  x="5" y="5" width="1" height="1" /><rect shape-rendering="crispEdges" fill="rgb(90, 65, 57)"  x="5" y="6" width="1" height="1" /><rect shape-rendering="crispEdges" fill="rgb(106, 82, 74)"  x="5" y="7" width="1" height="1" /><rect shape-rendering="crispEdges" fill="rgb(115, 65, 65)"  x="5" y="8" width="1" height="1" /><rect shape-rendering="crispEdges" fill="rgb(156, 82, 98)"  x="5" y="9" width="1" height="1" /><rect shape-rendering="crispEdges" fill="rgb(246, 148, 172)"  x="5" y="10" width="1" height="1" /><rect shape-rendering="crispEdges" fill="rgb(255, 164, 189)"  x="5" y="11" width="1" height="1" /><rect shape-rendering="crispEdges" fill="rgb(180, 115, 123)"  x="5" y="12" width="1" height="1" /><rect shape-rendering="crispEdges" fill="rgb(82, 49, 49)"  x="5" y="13" width="1" height="1" /><rect shape-rendering="crispEdges" fill="rgb(49, 32, 24)"  x="5" y="14" width="1" height="1" /><rect shape-rendering="crispEdges" fill="rgb(57, 32, 32)"  x="5" y="15" width="1" height="1" /><rect shape-rendering="crispEdges" fill="rgb(41, 24, 24)"  x="5" y="16" width="1" height="1" /><rect shape-rendering="crispEdges" fill="rgb(41, 32, 32)"  x="5" y="17" width="1" height="1" /><rect shape-rendering="crispEdges" fill="rgb(41, 32, 32)"  x="5" y="18" width="1" height="1" /><rect shape-rendering="crispEdges" fill="rgb(41, 32, 32)"  x="5" y="19" width="1" height="1" /><rect shape-rendering="crispEdges" fill="rgb(41, 32, 32)"  x="5" y="20" width="1" height="1" /><rect shape-rendering="crispEdges" fill="rgb(57, 32, 57)"  x="5" y="21" width="1" height="1" /><rect shape-rendering="crispEdges" fill="rgb(57, 41, 57)"  x="5" y="22" width="1" height="1" /><rect shape-rendering="crispEdges" fill="rgb(74, 106, 180)"  x="5" y="23" width="1" height="1" /><rect shape-rendering="crispEdges" fill="rgb(65, 65, 131)"  x="5" y="24" width="1" height="1" /><rect shape-rendering="crispEdges" fill="rgb(57, 41, 57)"  x="5" y="25" width="1" height="1" /><rect shape-rendering="crispEdges" fill="rgb(65, 41, 65)"  x="5" y="26" width="1" height="1" /><rect shape-rendering="crispEdges" fill="rgb(41, 32, 32)"  x="5" y="27" width="1" height="1" /><rect shape-rendering="crispEdges" fill="rgb(41, 32, 32)"  x="6" y="5" width="1" height="1" /><rect shape-rendering="crispEdges" fill="rgb(82, 57, 57)"  x="6" y="6" width="1" height="1" /><rect shape-rendering="crispEdges" fill="rgb(74, 49, 49)"  x="6" y="7" width="1" height="1" /><rect shape-rendering="crispEdges" fill="rgb(74, 57, 49)"  x="6" y="8" width="1" height="1" /><rect shape-rendering="crispEdges" fill="rgb(90, 65, 65)"  x="6" y="9" width="1" height="1" /><rect shape-rendering="crispEdges" fill="rgb(106, 74, 74)"  x="6" y="10" width="1" height="1" /><rect shape-rendering="crispEdges" fill="rgb(90, 41, 49)"  x="6" y="11" width="1" height="1" /><rect shape-rendering="crispEdges" fill="rgb(180, 82, 98)"  x="6" y="12" width="1" height="1" /><rect shape-rendering="crispEdges" fill="rgb(230, 115, 131)"  x="6" y="13" width="1" height="1" /><rect shape-rendering="crispEdges" fill="rgb(222, 115, 139)"  x="6" y="14" width="1" height="1" /><rect shape-rendering="crispEdges" fill="rgb(246, 148, 164)"  x="6" y="15" width="1" height="1" /><rect shape-rendering="crispEdges" fill="rgb(189, 123, 131)"  x="6" y="16" width="1" height="1" /><rect shape-rendering="crispEdges" fill="rgb(74, 49, 49)"  x="6" y="17" width="1" height="1" /><rect shape-rendering="crispEdges" fill="rgb(57, 49, 41)"  x="6" y="18" width="1" height="1" /><rect shape-rendering="crispEdges" fill="rgb(49, 41, 32)"  x="6" y="19" width="1" height="1" /><rect shape-rendering="crispEdges" fill="rgb(41, 32, 32)"  x="6" y="20" width="1" height="1" /><rect shape-rendering="crispEdges" fill="rgb(57, 41, 49)"  x="6" y="21" width="1" height="1" /><rect shape-rendering="crispEdges" fill="rgb(65, 49, 65)"  x="6" y="22" width="1" height="1" /><rect shape-rendering="crispEdges" fill="rgb(82, 115, 189)"  x="6" y="23" width="1" height="1" /><rect shape-rendering="crispEdges" fill="rgb(74, 82, 156)"  x="6" y="24" width="1" height="1" /><rect shape-rendering="crispEdges" fill="rgb(65, 49, 65)"  x="6" y="25" width="1" height="1" /><rect shape-rendering="crispEdges" fill="rgb(65, 49, 65)"  x="6" y="26" width="1" height="1" /><rect shape-rendering="crispEdges" fill="rgb(57, 41, 57)"  x="6" y="27" width="1" height="1" /><rect shape-rendering="crispEdges" fill="rgb(41, 32, 32)"  x="6" y="28" width="1" height="1" /><rect shape-rendering="crispEdges" fill="rgb(41, 32, 32)"  x="7" y="6" width="1" height="1" /><rect shape-rendering="crispEdges" fill="rgb(57, 41, 41)"  x="7" y="7" width="1" height="1" /><rect shape-rendering="crispEdges" fill="rgb(74, 49, 49)"  x="7" y="8" width="1" height="1" /><rect shape-rendering="crispEdges" fill="rgb(74, 57, 49)"  x="7" y="9" width="1" height="1" /><rect shape-rendering="crispEdges" fill="rgb(74, 49, 49)"  x="7" y="10" width="1" height="1" /><rect shape-rendering="crispEdges" fill="rgb(74, 49, 49)"  x="7" y="11" width="1" height="1" /><rect shape-rendering="crispEdges" fill="rgb(82, 57, 57)"  x="7" y="12" width="1" height="1" /><rect shape-rendering="crispEdges" fill="rgb(57, 32, 32)"  x="7" y="13" width="1" height="1" /><rect shape-rendering="crispEdges" fill="rgb(74, 32, 32)"  x="7" y="14" width="1" height="1" /><rect shape-rendering="crispEdges" fill="rgb(172, 74, 90)"  x="7" y="15" width="1" height="1" /><rect shape-rendering="crispEdges" fill="rgb(205, 90, 106)"  x="7" y="16" width="1" height="1" /><rect shape-rendering="crispEdges" fill="rgb(189, 82, 98)"  x="7" y="17" width="1" height="1" /><rect shape-rendering="crispEdges" fill="rgb(115, 65, 65)"  x="7" y="18" width="1" height="1" /><rect shape-rendering="crispEdges" fill="rgb(41, 24, 24)"  x="7" y="19" width="1" height="1" /><rect shape-rendering="crispEdges" fill="rgb(65, 49, 49)"  x="7" y="20" width="1" height="1" /><rect shape-rendering="crispEdges" fill="rgb(65, 41, 49)"  x="7" y="21" width="1" height="1" /><rect shape-rendering="crispEdges" fill="rgb(74, 49, 74)"  x="7" y="22" width="1" height="1" /><rect shape-rendering="crispEdges" fill="rgb(74, 90, 156)"  x="7" y="23" width="1" height="1" /><rect shape-rendering="crispEdges" fill="rgb(74, 82, 148)"  x="7" y="24" width="1" height="1" /><rect shape-rendering="crispEdges" fill="rgb(57, 57, 115)"  x="7" y="25" width="1" height="1" /><rect shape-rendering="crispEdges" fill="rgb(65, 49, 65)"  x="7" y="26" width="1" height="1" /><rect shape-rendering="crispEdges" fill="rgb(65, 41, 57)"  x="7" y="27" width="1" height="1" /><rect shape-rendering="crispEdges" fill="rgb(41, 32, 32)"  x="7" y="28" width="1" height="1" /><rect shape-rendering="crispEdges" fill="rgb(41, 32, 32)"  x="8" y="7" width="1" height="1" /><rect shape-rendering="crispEdges" fill="rgb(41, 32, 32)"  x="8" y="8" width="1" height="1" /><rect shape-rendering="crispEdges" fill="rgb(41, 32, 32)"  x="8" y="9" width="1" height="1" /><rect shape-rendering="crispEdges" fill="rgb(74, 57, 57)"  x="8" y="10" width="1" height="1" /><rect shape-rendering="crispEdges" fill="rgb(74, 57, 57)"  x="8" y="11" width="1" height="1" /><rect shape-rendering="crispEdges" fill="rgb(74, 49, 49)"  x="8" y="12" width="1" height="1" /><rect shape-rendering="crispEdges" fill="rgb(65, 49, 41)"  x="8" y="13" width="1" height="1" /><rect shape-rendering="crispEdges" fill="rgb(65, 57, 49)"  x="8" y="14" width="1" height="1" /><rect shape-rendering="crispEdges" fill="rgb(82, 65, 65)"  x="8" y="15" width="1" height="1" /><rect shape-rendering="crispEdges" fill="rgb(82, 65, 65)"  x="8" y="16" width="1" height="1" /><rect shape-rendering="crispEdges" fill="rgb(98, 49, 57)"  x="8" y="17" width="1" height="1" /><rect shape-rendering="crispEdges" fill="rgb(74, 49, 49)"  x="8" y="18" width="1" height="1" /><rect shape-rendering="crispEdges" fill="rgb(82, 65, 65)"  x="8" y="19" width="1" height="1" /><rect shape-rendering="crispEdges" fill="rgb(74, 65, 65)"  x="8" y="20" width="1" height="1" /><rect shape-rendering="crispEdges" fill="rgb(57, 49, 49)"  x="8" y="21" width="1" height="1" /><rect shape-rendering="crispEdges" fill="rgb(74, 49, 74)"  x="8" y="22" width="1" height="1" /><rect shape-rendering="crispEdges" fill="rgb(74, 82, 156)"  x="8" y="23" width="1" height="1" /><rect shape-rendering="crispEdges" fill="rgb(90, 123, 197)"  x="8" y="24" width="1" height="1" /><rect shape-rendering="crispEdges" fill="rgb(65, 65, 131)"  x="8" y="25" width="1" height="1" /><rect shape-rendering="crispEdges" fill="rgb(74, 49, 65)"  x="8" y="26" width="1" height="1" /><rect shape-rendering="crispEdges" fill="rgb(74, 57, 74)"  x="8" y="27" width="1" height="1" /><rect shape-rendering="crispEdges" fill="rgb(41, 32, 32)"  x="8" y="28" width="1" height="1" /><rect shape-rendering="crispEdges" fill="rgb(41, 32, 32)"  x="9" y="10" width="1" height="1" /><rect shape-rendering="crispEdges" fill="rgb(41, 32, 32)"  x="9" y="11" width="1" height="1" /><rect shape-rendering="crispEdges" fill="rgb(41, 32, 32)"  x="9" y="12" width="1" height="1" /><rect shape-rendering="crispEdges" fill="rgb(74, 57, 49)"  x="9" y="13" width="1" height="1" /><rect shape-rendering="crispEdges" fill="rgb(65, 49, 49)"  x="9" y="14" width="1" height="1" /><rect shape-rendering="crispEdges" fill="rgb(65, 49, 41)"  x="9" y="15" width="1" height="1" /><rect shape-rendering="crispEdges" fill="rgb(57, 41, 41)"  x="9" y="16" width="1" height="1" /><rect shape-rendering="crispEdges" fill="rgb(57, 41, 32)"  x="9" y="17" width="1" height="1" /><rect shape-rendering="crispEdges" fill="rgb(65, 49, 49)"  x="9" y="18" width="1" height="1" /><rect shape-rendering="crispEdges" fill="rgb(49, 32, 32)"  x="9" y="19" width="1" height="1" /><rect shape-rendering="crispEdges" fill="rgb(41, 24, 16)"  x="9" y="20" width="1" height="1" /><rect shape-rendering="crispEdges" fill="rgb(32, 16, 16)"  x="9" y="21" width="1" height="1" /><rect shape-rendering="crispEdges" fill="rgb(74, 57, 74)"  x="9" y="22" width="1" height="1" /><rect shape-rendering="crispEdges" fill="rgb(65, 74, 131)"  x="9" y="23" width="1" height="1" /><rect shape-rendering="crispEdges" fill="rgb(90, 139, 205)"  x="9" y="24" width="1" height="1" /><rect shape-rendering="crispEdges" fill="rgb(74, 74, 148)"  x="9" y="25" width="1" height="1" /><rect shape-rendering="crispEdges" fill="rgb(74, 49, 65)"  x="9" y="26" width="1" height="1" /><rect shape-rendering="crispEdges" fill="rgb(74, 57, 74)"  x="9" y="27" width="1" height="1" /><rect shape-rendering="crispEdges" fill="rgb(41, 32, 32)"  x="9" y="28" width="1" height="1" /><rect shape-rendering="crispEdges" fill="rgb(41, 32, 32)"  x="10" y="13" width="1" height="1" /><rect shape-rendering="crispEdges" fill="rgb(41, 32, 32)"  x="10" y="14" width="1" height="1" /><rect shape-rendering="crispEdges" fill="rgb(41, 32, 32)"  x="10" y="15" width="1" height="1" /><rect shape-rendering="crispEdges" fill="rgb(41, 32, 32)"  x="10" y="16" width="1" height="1" /><rect shape-rendering="crispEdges" fill="rgb(41, 32, 32)"  x="10" y="17" width="1" height="1" /><rect shape-rendering="crispEdges" fill="rgb(41, 32, 32)"  x="10" y="18" width="1" height="1" /><rect shape-rendering="crispEdges" fill="rgb(49, 32, 32)"  x="10" y="19" width="1" height="1" /><rect shape-rendering="crispEdges" fill="rgb(49, 32, 24)"  x="10" y="20" width="1" height="1" /><rect shape-rendering="crispEdges" fill="rgb(41, 32, 24)"  x="10" y="21" width="1" height="1" /><rect shape-rendering="crispEdges" fill="rgb(74, 57, 74)"  x="10" y="22" width="1" height="1" /><rect shape-rendering="crispEdges" fill="rgb(65, 65, 131)"  x="10" y="23" width="1" height="1" /><rect shape-rendering="crispEdges" fill="rgb(74, 106, 164)"  x="10" y="24" width="1" height="1" /><rect shape-rendering="crispEdges" fill="rgb(65, 74, 131)"  x="10" y="25" width="1" height="1" /><rect shape-rendering="crispEdges" fill="rgb(74, 49, 65)"  x="10" y="26" width="1" height="1" /><rect shape-rendering="crispEdges" fill="rgb(74, 49, 65)"  x="10" y="27" width="1" height="1" /><rect shape-rendering="crispEdges" fill="rgb(65, 41, 57)"  x="10" y="28" width="1" height="1" /><rect shape-rendering="crispEdges" fill="rgb(41, 32, 32)"  x="10" y="29" width="1" height="1" /><rect shape-rendering="crispEdges" fill="rgb(41, 32, 32)"  x="11" y="19" width="1" height="1" /><rect shape-rendering="crispEdges" fill="rgb(41, 32, 32)"  x="11" y="20" width="1" height="1" /><rect shape-rendering="crispEdges" fill="rgb(41, 32, 32)"  x="11" y="21" width="1" height="1" /><rect shape-rendering="crispEdges" fill="rgb(74, 57, 74)"  x="11" y="22" width="1" height="1" /><rect shape-rendering="crispEdges" fill="rgb(74, 49, 65)"  x="11" y="23" width="1" height="1" /><rect shape-rendering="crispEdges" fill="rgb(82, 115, 180)"  x="11" y="24" width="1" height="1" /><rect shape-rendering="crispEdges" fill="rgb(74, 82, 156)"  x="11" y="25" width="1" height="1" /><rect shape-rendering="crispEdges" fill="rgb(74, 49, 65)"  x="11" y="26" width="1" height="1" /><rect shape-rendering="crispEdges" fill="rgb(74, 57, 74)"  x="11" y="27" width="1" height="1" /><rect shape-rendering="crispEdges" fill="rgb(65, 41, 49)"  x="11" y="28" width="1" height="1" /><rect shape-rendering="crispEdges" fill="rgb(41, 32, 32)"  x="11" y="29" width="1" height="1" /><rect shape-rendering="crispEdges" fill="rgb(41, 32, 32)"  x="12" y="21" width="1" height="1" /><rect shape-rendering="crispEdges" fill="rgb(74, 49, 74)"  x="12" y="22" width="1" height="1" /><rect shape-rendering="crispEdges" fill="rgb(74, 49, 74)"  x="12" y="23" width="1" height="1" /><rect shape-rendering="crispEdges" fill="rgb(74, 98, 164)"  x="12" y="24" width="1" height="1" /><rect shape-rendering="crispEdges" fill="rgb(82, 98, 172)"  x="12" y="25" width="1" height="1" /><rect shape-rendering="crispEdges" fill="rgb(74, 57, 65)"  x="12" y="26" width="1" height="1" /><rect shape-rendering="crispEdges" fill="rgb(74, 49, 65)"  x="12" y="27" width="1" height="1" /><rect shape-rendering="crispEdges" fill="rgb(74, 41, 57)"  x="12" y="28" width="1" height="1" /><rect shape-rendering="crispEdges" fill="rgb(41, 32, 32)"  x="12" y="29" width="1" height="1" /><rect shape-rendering="crispEdges" fill="rgb(41, 32, 32)"  x="13" y="21" width="1" height="1" /><rect shape-rendering="crispEdges" fill="rgb(74, 49, 65)"  x="13" y="22" width="1" height="1" /><rect shape-rendering="crispEdges" fill="rgb(74, 49, 74)"  x="13" y="23" width="1" height="1" /><rect shape-rendering="crispEdges" fill="rgb(74, 90, 148)"  x="13" y="24" width="1" height="1" /><rect shape-rendering="crispEdges" fill="rgb(74, 98, 156)"  x="13" y="25" width="1" height="1" /><rect shape-rendering="crispEdges" fill="rgb(57, 57, 115)"  x="13" y="26" width="1" height="1" /><rect shape-rendering="crispEdges" fill="rgb(74, 57, 65)"  x="13" y="27" width="1" height="1" /><rect shape-rendering="crispEdges" fill="rgb(74, 57, 74)"  x="13" y="28" width="1" height="1" /><rect shape-rendering="crispEdges" fill="rgb(41, 32, 32)"  x="13" y="29" width="1" height="1" /><rect shape-rendering="crispEdges" fill="rgb(41, 32, 32)"  x="14" y="21" width="1" height="1" /><rect shape-rendering="crispEdges" fill="rgb(65, 41, 57)"  x="14" y="22" width="1" height="1" /><rect shape-rendering="crispEdges" fill="rgb(74, 57, 74)"  x="14" y="23" width="1" height="1" /><rect shape-rendering="crispEdges" fill="rgb(74, 90, 148)"  x="14" y="24" width="1" height="1" /><rect shape-rendering="crispEdges" fill="rgb(82, 106, 180)"  x="14" y="25" width="1" height="1" /><rect shape-rendering="crispEdges" fill="rgb(57, 57, 115)"  x="14" y="26" width="1" height="1" /><rect shape-rendering="crispEdges" fill="rgb(74, 57, 74)"  x="14" y="27" width="1" height="1" /><rect shape-rendering="crispEdges" fill="rgb(74, 57, 74)"  x="14" y="28" width="1" height="1" /><rect shape-rendering="crispEdges" fill="rgb(41, 32, 32)"  x="14" y="29" width="1" height="1" /><rect shape-rendering="crispEdges" fill="rgb(41, 32, 32)"  x="15" y="22" width="1" height="1" /><rect shape-rendering="crispEdges" fill="rgb(74, 57, 74)"  x="15" y="23" width="1" height="1" /><rect shape-rendering="crispEdges" fill="rgb(65, 74, 131)"  x="15" y="24" width="1" height="1" /><rect shape-rendering="crispEdges" fill="rgb(90, 123, 189)"  x="15" y="25" width="1" height="1" /><rect shape-rendering="crispEdges" fill="rgb(74, 82, 148)"  x="15" y="26" width="1" height="1" /><rect shape-rendering="crispEdges" fill="rgb(74, 57, 74)"  x="15" y="27" width="1" height="1" /><rect shape-rendering="crispEdges" fill="rgb(74, 57, 74)"  x="15" y="28" width="1" height="1" /><rect shape-rendering="crispEdges" fill="rgb(41, 32, 32)"  x="15" y="29" width="1" height="1" /><rect shape-rendering="crispEdges" fill="rgb(41, 32, 32)"  x="16" y="22" width="1" height="1" /><rect shape-rendering="crispEdges" fill="rgb(74, 57, 74)"  x="16" y="23" width="1" height="1" /><rect shape-rendering="crispEdges" fill="rgb(74, 57, 65)"  x="16" y="24" width="1" height="1" /><rect shape-rendering="crispEdges" fill="rgb(74, 98, 164)"  x="16" y="25" width="1" height="1" /><rect shape-rendering="crispEdges" fill="rgb(74, 82, 148)"  x="16" y="26" width="1" height="1" /><rect shape-rendering="crispEdges" fill="rgb(74, 57, 65)"  x="16" y="27" width="1" height="1" /><rect shape-rendering="crispEdges" fill="rgb(74, 57, 74)"  x="16" y="28" width="1" height="1" /><rect shape-rendering="crispEdges" fill="rgb(65, 41, 57)"  x="16" y="29" width="1" height="1" /><rect shape-rendering="crispEdges" fill="rgb(41, 32, 32)"  x="16" y="30" width="1" height="1" /><rect shape-rendering="crispEdges" fill="rgb(41, 32, 32)"  x="17" y="18" width="1" height="1" /><rect shape-rendering="crispEdges" fill="rgb(41, 32, 32)"  x="17" y="19" width="1" height="1" /><rect shape-rendering="crispEdges" fill="rgb(41, 32, 32)"  x="17" y="22" width="1" height="1" /><rect shape-rendering="crispEdges" fill="rgb(74, 57, 74)"  x="17" y="23" width="1" height="1" /><rect shape-rendering="crispEdges" fill="rgb(74, 57, 74)"  x="17" y="24" width="1" height="1" /><rect shape-rendering="crispEdges" fill="rgb(82, 106, 180)"  x="17" y="25" width="1" height="1" /><rect shape-rendering="crispEdges" fill="rgb(74, 82, 148)"  x="17" y="26" width="1" height="1" /><rect shape-rendering="crispEdges" fill="rgb(74, 57, 74)"  x="17" y="27" width="1" height="1" /><rect shape-rendering="crispEdges" fill="rgb(74, 57, 74)"  x="17" y="28" width="1" height="1" /><rect shape-rendering="crispEdges" fill="rgb(65, 41, 49)"  x="17" y="29" width="1" height="1" /><rect shape-rendering="crispEdges" fill="rgb(41, 32, 32)"  x="17" y="30" width="1" height="1" /><rect shape-rendering="crispEdges" fill="rgb(41, 32, 32)"  x="18" y="13" width="1" height="1" /><rect shape-rendering="crispEdges" fill="rgb(41, 32, 32)"  x="18" y="14" width="1" height="1" /><rect shape-rendering="crispEdges" fill="rgb(41, 32, 32)"  x="18" y="15" width="1" height="1" /><rect shape-rendering="crispEdges" fill="rgb(41, 32, 32)"  x="18" y="16" width="1" height="1" /><rect shape-rendering="crispEdges" fill="rgb(41, 32, 32)"  x="18" y="17" width="1" height="1" /><rect shape-rendering="crispEdges" fill="rgb(49, 32, 32)"  x="18" y="18" width="1" height="1" /><rect shape-rendering="crispEdges" fill="rgb(49, 32, 32)"  x="18" y="19" width="1" height="1" /><rect shape-rendering="crispEdges" fill="rgb(41, 32, 32)"  x="18" y="20" width="1" height="1" /><rect shape-rendering="crispEdges" fill="rgb(41, 32, 32)"  x="18" y="21" width="1" height="1" /><rect shape-rendering="crispEdges" fill="rgb(41, 32, 32)"  x="18" y="22" width="1" height="1" /><rect shape-rendering="crispEdges" fill="rgb(74, 49, 65)"  x="18" y="23" width="1" height="1" /><rect shape-rendering="crispEdges" fill="rgb(74, 57, 74)"  x="18" y="24" width="1" height="1" /><rect shape-rendering="crispEdges" fill="rgb(82, 98, 164)"  x="18" y="25" width="1" height="1" /><rect shape-rendering="crispEdges" fill="rgb(82, 106, 180)"  x="18" y="26" width="1" height="1" /><rect shape-rendering="crispEdges" fill="rgb(65, 65, 123)"  x="18" y="27" width="1" height="1" /><rect shape-rendering="crispEdges" fill="rgb(74, 57, 74)"  x="18" y="28" width="1" height="1" /><rect shape-rendering="crispEdges" fill="rgb(65, 49, 65)"  x="18" y="29" width="1" height="1" /><rect shape-rendering="crispEdges" fill="rgb(41, 32, 32)"  x="18" y="30" width="1" height="1" /><rect shape-rendering="crispEdges" fill="rgb(41, 32, 32)"  x="19" y="11" width="1" height="1" /><rect shape-rendering="crispEdges" fill="rgb(41, 32, 32)"  x="19" y="12" width="1" height="1" /><rect shape-rendering="crispEdges" fill="rgb(49, 32, 24)"  x="19" y="13" width="1" height="1" /><rect shape-rendering="crispEdges" fill="rgb(57, 32, 32)"  x="19" y="14" width="1" height="1" /><rect shape-rendering="crispEdges" fill="rgb(57, 41, 41)"  x="19" y="15" width="1" height="1" /><rect shape-rendering="crispEdges" fill="rgb(57, 41, 49)"  x="19" y="16" width="1" height="1" /><rect shape-rendering="crispEdges" fill="rgb(65, 49, 57)"  x="19" y="17" width="1" height="1" /><rect shape-rendering="crispEdges" fill="rgb(74, 57, 57)"  x="19" y="18" width="1" height="1" /><rect shape-rendering="crispEdges" fill="rgb(57, 49, 49)"  x="19" y="19" width="1" height="1" /><rect shape-rendering="crispEdges" fill="rgb(57, 41, 41)"  x="19" y="20" width="1" height="1" /><rect shape-rendering="crispEdges" fill="rgb(49, 32, 32)"  x="19" y="21" width="1" height="1" /><rect shape-rendering="crispEdges" fill="rgb(41, 32, 32)"  x="19" y="22" width="1" height="1" /><rect shape-rendering="crispEdges" fill="rgb(65, 41, 57)"  x="19" y="23" width="1" height="1" /><rect shape-rendering="crispEdges" fill="rgb(74, 57, 74)"  x="19" y="24" width="1" height="1" /><rect shape-rendering="crispEdges" fill="rgb(65, 65, 123)"  x="19" y="25" width="1" height="1" /><rect shape-rendering="crispEdges" fill="rgb(82, 115, 180)"  x="19" y="26" width="1" height="1" /><rect shape-rendering="crispEdges" fill="rgb(74, 74, 139)"  x="19" y="27" width="1" height="1" /><rect shape-rendering="crispEdges" fill="rgb(74, 57, 74)"  x="19" y="28" width="1" height="1" /><rect shape-rendering="crispEdges" fill="rgb(74, 57, 74)"  x="19" y="29" width="1" height="1" /><rect shape-rendering="crispEdges" fill="rgb(41, 32, 32)"  x="19" y="30" width="1" height="1" /><rect shape-rendering="crispEdges" fill="rgb(41, 32, 32)"  x="20" y="9" width="1" height="1" /><rect shape-rendering="crispEdges" fill="rgb(41, 32, 32)"  x="20" y="10" width="1" height="1" /><rect shape-rendering="crispEdges" fill="rgb(65, 41, 41)"  x="20" y="11" width="1" height="1" /><rect shape-rendering="crispEdges" fill="rgb(65, 49, 49)"  x="20" y="12" width="1" height="1" /><rect shape-rendering="crispEdges" fill="rgb(65, 49, 49)"  x="20" y="13" width="1" height="1" /><rect shape-rendering="crispEdges" fill="rgb(74, 57, 57)"  x="20" y="14" width="1" height="1" /><rect shape-rendering="crispEdges" fill="rgb(98, 82, 82)"  x="20" y="15" width="1" height="1" /><rect shape-rendering="crispEdges" fill="rgb(57, 41, 41)"  x="20" y="16" width="1" height="1" /><rect shape-rendering="crispEdges" fill="rgb(106, 57, 57)"  x="20" y="17" width="1" height="1" /><rect shape-rendering="crispEdges" fill="rgb(65, 49, 49)"  x="20" y="18" width="1" height="1" /><rect shape-rendering="crispEdges" fill="rgb(82, 65, 65)"  x="20" y="19" width="1" height="1" /><rect shape-rendering="crispEdges" fill="rgb(74, 65, 65)"  x="20" y="20" width="1" height="1" /><rect shape-rendering="crispEdges" fill="rgb(65, 49, 49)"  x="20" y="21" width="1" height="1" /><rect shape-rendering="crispEdges" fill="rgb(49, 41, 41)"  x="20" y="22" width="1" height="1" /><rect shape-rendering="crispEdges" fill="rgb(41, 32, 32)"  x="20" y="23" width="1" height="1" /><rect shape-rendering="crispEdges" fill="rgb(74, 57, 74)"  x="20" y="24" width="1" height="1" /><rect shape-rendering="crispEdges" fill="rgb(65, 65, 139)"  x="20" y="25" width="1" height="1" /><rect shape-rendering="crispEdges" fill="rgb(98, 139, 213)"  x="20" y="26" width="1" height="1" /><rect shape-rendering="crispEdges" fill="rgb(65, 74, 131)"  x="20" y="27" width="1" height="1" /><rect shape-rendering="crispEdges" fill="rgb(74, 57, 74)"  x="20" y="28" width="1" height="1" /><rect shape-rendering="crispEdges" fill="rgb(74, 57, 74)"  x="20" y="29" width="1" height="1" /><rect shape-rendering="crispEdges" fill="rgb(41, 32, 32)"  x="20" y="30" width="1" height="1" /><rect shape-rendering="crispEdges" fill="rgb(41, 32, 32)"  x="21" y="6" width="1" height="1" /><rect shape-rendering="crispEdges" fill="rgb(41, 32, 32)"  x="21" y="7" width="1" height="1" /><rect shape-rendering="crispEdges" fill="rgb(41, 32, 32)"  x="21" y="8" width="1" height="1" /><rect shape-rendering="crispEdges" fill="rgb(65, 49, 49)"  x="21" y="9" width="1" height="1" /><rect shape-rendering="crispEdges" fill="rgb(74, 49, 49)"  x="21" y="10" width="1" height="1" /><rect shape-rendering="crispEdges" fill="rgb(74, 57, 49)"  x="21" y="11" width="1" height="1" /><rect shape-rendering="crispEdges" fill="rgb(82, 57, 57)"  x="21" y="12" width="1" height="1" /><rect shape-rendering="crispEdges" fill="rgb(65, 41, 41)"  x="21" y="13" width="1" height="1" /><rect shape-rendering="crispEdges" fill="rgb(49, 32, 32)"  x="21" y="14" width="1" height="1" /><rect shape-rendering="crispEdges" fill="rgb(74, 41, 41)"  x="21" y="15" width="1" height="1" /><rect shape-rendering="crispEdges" fill="rgb(180, 82, 90)"  x="21" y="16" width="1" height="1" /><rect shape-rendering="crispEdges" fill="rgb(106, 57, 57)"  x="21" y="17" width="1" height="1" /><rect shape-rendering="crispEdges" fill="rgb(74, 49, 49)"  x="21" y="18" width="1" height="1" /><rect shape-rendering="crispEdges" fill="rgb(49, 41, 41)"  x="21" y="19" width="1" height="1" /><rect shape-rendering="crispEdges" fill="rgb(74, 65, 57)"  x="21" y="20" width="1" height="1" /><rect shape-rendering="crispEdges" fill="rgb(65, 49, 49)"  x="21" y="21" width="1" height="1" /><rect shape-rendering="crispEdges" fill="rgb(49, 32, 41)"  x="21" y="22" width="1" height="1" /><rect shape-rendering="crispEdges" fill="rgb(41, 32, 32)"  x="21" y="23" width="1" height="1" /><rect shape-rendering="crispEdges" fill="rgb(74, 57, 74)"  x="21" y="24" width="1" height="1" /><rect shape-rendering="crispEdges" fill="rgb(74, 49, 65)"  x="21" y="25" width="1" height="1" /><rect shape-rendering="crispEdges" fill="rgb(98, 148, 222)"  x="21" y="26" width="1" height="1" /><rect shape-rendering="crispEdges" fill="rgb(82, 90, 172)"  x="21" y="27" width="1" height="1" /><rect shape-rendering="crispEdges" fill="rgb(74, 57, 74)"  x="21" y="28" width="1" height="1" /><rect shape-rendering="crispEdges" fill="rgb(74, 57, 74)"  x="21" y="29" width="1" height="1" /><rect shape-rendering="crispEdges" fill="rgb(41, 32, 32)"  x="21" y="30" width="1" height="1" /><rect shape-rendering="crispEdges" fill="rgb(41, 32, 32)"  x="22" y="4" width="1" height="1" /><rect shape-rendering="crispEdges" fill="rgb(41, 32, 32)"  x="22" y="5" width="1" height="1" /><rect shape-rendering="crispEdges" fill="rgb(74, 49, 49)"  x="22" y="6" width="1" height="1" /><rect shape-rendering="crispEdges" fill="rgb(74, 57, 49)"  x="22" y="7" width="1" height="1" /><rect shape-rendering="crispEdges" fill="rgb(82, 65, 57)"  x="22" y="8" width="1" height="1" /><rect shape-rendering="crispEdges" fill="rgb(98, 74, 74)"  x="22" y="9" width="1" height="1" /><rect shape-rendering="crispEdges" fill="rgb(106, 74, 65)"  x="22" y="10" width="1" height="1" /><rect shape-rendering="crispEdges" fill="rgb(90, 57, 49)"  x="22" y="11" width="1" height="1" /><rect shape-rendering="crispEdges" fill="rgb(57, 24, 32)"  x="22" y="12" width="1" height="1" /><rect shape-rendering="crispEdges" fill="rgb(123, 49, 57)"  x="22" y="13" width="1" height="1" /><rect shape-rendering="crispEdges" fill="rgb(197, 82, 106)"  x="22" y="14" width="1" height="1" /><rect shape-rendering="crispEdges" fill="rgb(222, 90, 115)"  x="22" y="15" width="1" height="1" /><rect shape-rendering="crispEdges" fill="rgb(222, 90, 106)"  x="22" y="16" width="1" height="1" /><rect shape-rendering="crispEdges" fill="rgb(205, 98, 115)"  x="22" y="17" width="1" height="1" /><rect shape-rendering="crispEdges" fill="rgb(74, 41, 41)"  x="22" y="18" width="1" height="1" /><rect shape-rendering="crispEdges" fill="rgb(57, 41, 41)"  x="22" y="19" width="1" height="1" /><rect shape-rendering="crispEdges" fill="rgb(65, 57, 57)"  x="22" y="20" width="1" height="1" /><rect shape-rendering="crispEdges" fill="rgb(49, 41, 41)"  x="22" y="21" width="1" height="1" /><rect shape-rendering="crispEdges" fill="rgb(41, 32, 32)"  x="22" y="22" width="1" height="1" /><rect shape-rendering="crispEdges" fill="rgb(41, 32, 32)"  x="22" y="23" width="1" height="1" /><rect shape-rendering="crispEdges" fill="rgb(74, 49, 74)"  x="22" y="24" width="1" height="1" /><rect shape-rendering="crispEdges" fill="rgb(74, 57, 74)"  x="22" y="25" width="1" height="1" /><rect shape-rendering="crispEdges" fill="rgb(82, 115, 189)"  x="22" y="26" width="1" height="1" /><rect shape-rendering="crispEdges" fill="rgb(90, 98, 172)"  x="22" y="27" width="1" height="1" /><rect shape-rendering="crispEdges" fill="rgb(74, 49, 65)"  x="22" y="28" width="1" height="1" /><rect shape-rendering="crispEdges" fill="rgb(74, 49, 74)"  x="22" y="29" width="1" height="1" /><rect shape-rendering="crispEdges" fill="rgb(41, 32, 32)"  x="22" y="30" width="1" height="1" /><rect shape-rendering="crispEdges" fill="rgb(41, 32, 32)"  x="23" y="3" width="1" height="1" /><rect shape-rendering="crispEdges" fill="rgb(74, 49, 49)"  x="23" y="4" width="1" height="1" /><rect shape-rendering="crispEdges" fill="rgb(82, 65, 57)"  x="23" y="5" width="1" height="1" /><rect shape-rendering="crispEdges" fill="rgb(90, 74, 65)"  x="23" y="6" width="1" height="1" /><rect shape-rendering="crispEdges" fill="rgb(98, 74, 74)"  x="23" y="7" width="1" height="1" /><rect shape-rendering="crispEdges" fill="rgb(115, 82, 82)"  x="23" y="8" width="1" height="1" /><rect shape-rendering="crispEdges" fill="rgb(106, 65, 65)"  x="23" y="9" width="1" height="1" /><rect shape-rendering="crispEdges" fill="rgb(123, 57, 65)"  x="23" y="10" width="1" height="1" /><rect shape-rendering="crispEdges" fill="rgb(205, 90, 106)"  x="23" y="11" width="1" height="1" /><rect shape-rendering="crispEdges" fill="rgb(255, 115, 139)"  x="23" y="12" width="1" height="1" /><rect shape-rendering="crispEdges" fill="rgb(246, 131, 148)"  x="23" y="13" width="1" height="1" /><rect shape-rendering="crispEdges" fill="rgb(246, 123, 139)"  x="23" y="14" width="1" height="1" /><rect shape-rendering="crispEdges" fill="rgb(238, 123, 139)"  x="23" y="15" width="1" height="1" /><rect shape-rendering="crispEdges" fill="rgb(246, 139, 156)"  x="23" y="16" width="1" height="1" /><rect shape-rendering="crispEdges" fill="rgb(164, 98, 115)"  x="23" y="17" width="1" height="1" /><rect shape-rendering="crispEdges" fill="rgb(41, 24, 24)"  x="23" y="18" width="1" height="1" /><rect shape-rendering="crispEdges" fill="rgb(49, 41, 41)"  x="23" y="19" width="1" height="1" /><rect shape-rendering="crispEdges" fill="rgb(49, 41, 41)"  x="23" y="20" width="1" height="1" /><rect shape-rendering="crispEdges" fill="rgb(41, 32, 32)"  x="23" y="21" width="1" height="1" /><rect shape-rendering="crispEdges" fill="rgb(41, 32, 32)"  x="23" y="23" width="1" height="1" /><rect shape-rendering="crispEdges" fill="rgb(65, 41, 57)"  x="23" y="24" width="1" height="1" /><rect shape-rendering="crispEdges" fill="rgb(74, 49, 74)"  x="23" y="25" width="1" height="1" /><rect shape-rendering="crispEdges" fill="rgb(74, 82, 148)"  x="23" y="26" width="1" height="1" /><rect shape-rendering="crispEdges" fill="rgb(82, 106, 180)"  x="23" y="27" width="1" height="1" /><rect shape-rendering="crispEdges" fill="rgb(57, 57, 115)"  x="23" y="28" width="1" height="1" /><rect shape-rendering="crispEdges" fill="rgb(65, 49, 65)"  x="23" y="29" width="1" height="1" /><rect shape-rendering="crispEdges" fill="rgb(57, 41, 57)"  x="23" y="30" width="1" height="1" /><rect shape-rendering="crispEdges" fill="rgb(41, 32, 32)"  x="23" y="31" width="1" height="1" /><rect shape-rendering="crispEdges" fill="rgb(41, 32, 32)"  x="24" y="2" width="1" height="1" /><rect shape-rendering="crispEdges" fill="rgb(74, 57, 49)"  x="24" y="3" width="1" height="1" /><rect shape-rendering="crispEdges" fill="rgb(82, 65, 57)"  x="24" y="4" width="1" height="1" /><rect shape-rendering="crispEdges" fill="rgb(123, 82, 82)"  x="24" y="5" width="1" height="1" /><rect shape-rendering="crispEdges" fill="rgb(106, 65, 65)"  x="24" y="6" width="1" height="1" /><rect shape-rendering="crispEdges" fill="rgb(123, 65, 65)"  x="24" y="7" width="1" height="1" /><rect shape-rendering="crispEdges" fill="rgb(197, 106, 115)"  x="24" y="8" width="1" height="1" /><rect shape-rendering="crispEdges" fill="rgb(255, 164, 189)"  x="24" y="9" width="1" height="1" /><rect shape-rendering="crispEdges" fill="rgb(255, 180, 213)"  x="24" y="10" width="1" height="1" /><rect shape-rendering="crispEdges" fill="rgb(255, 180, 205)"  x="24" y="11" width="1" height="1" /><rect shape-rendering="crispEdges" fill="rgb(255, 164, 180)"  x="24" y="12" width="1" height="1" /><rect shape-rendering="crispEdges" fill="rgb(255, 156, 180)"  x="24" y="13" width="1" height="1" /><rect shape-rendering="crispEdges" fill="rgb(255, 172, 189)"  x="24" y="14" width="1" height="1" /><rect shape-rendering="crispEdges" fill="rgb(172, 115, 115)"  x="24" y="15" width="1" height="1" /><rect shape-rendering="crispEdges" fill="rgb(57, 32, 32)"  x="24" y="16" width="1" height="1" /><rect shape-rendering="crispEdges" fill="rgb(57, 49, 41)"  x="24" y="17" width="1" height="1" /><rect shape-rendering="crispEdges" fill="rgb(57, 41, 41)"  x="24" y="18" width="1" height="1" /><rect shape-rendering="crispEdges" fill="rgb(49, 41, 32)"  x="24" y="19" width="1" height="1" /><rect shape-rendering="crispEdges" fill="rgb(41, 32, 32)"  x="24" y="20" width="1" height="1" /><rect shape-rendering="crispEdges" fill="rgb(41, 32, 32)"  x="24" y="24" width="1" height="1" /><rect shape-rendering="crispEdges" fill="rgb(65, 49, 65)"  x="24" y="25" width="1" height="1" /><rect shape-rendering="crispEdges" fill="rgb(65, 49, 65)"  x="24" y="26" width="1" height="1" /><rect shape-rendering="crispEdges" fill="rgb(98, 131, 205)"  x="24" y="27" width="1" height="1" /><rect shape-rendering="crispEdges" fill="rgb(74, 74, 148)"  x="24" y="28" width="1" height="1" /><rect shape-rendering="crispEdges" fill="rgb(65, 49, 65)"  x="24" y="29" width="1" height="1" /><rect shape-rendering="crispEdges" fill="rgb(57, 41, 57)"  x="24" y="30" width="1" height="1" /><rect shape-rendering="crispEdges" fill="rgb(41, 32, 32)"  x="24" y="31" width="1" height="1" /><rect shape-rendering="crispEdges" fill="rgb(41, 32, 32)"  x="25" y="1" width="1" height="1" /><rect shape-rendering="crispEdges" fill="rgb(65, 49, 49)"  x="25" y="2" width="1" height="1" /><rect shape-rendering="crispEdges" fill="rgb(90, 65, 57)"  x="25" y="3" width="1" height="1" /><rect shape-rendering="crispEdges" fill="rgb(90, 49, 41)"  x="25" y="4" width="1" height="1" /><rect shape-rendering="crispEdges" fill="rgb(164, 90, 106)"  x="25" y="5" width="1" height="1" /><rect shape-rendering="crispEdges" fill="rgb(255, 172, 189)"  x="25" y="6" width="1" height="1" /><rect shape-rendering="crispEdges" fill="rgb(246, 156, 180)"  x="25" y="7" width="1" height="1" /><rect shape-rendering="crispEdges" fill="rgb(164, 90, 106)"  x="25" y="8" width="1" height="1" /><rect shape-rendering="crispEdges" fill="rgb(255, 164, 180)"  x="25" y="9" width="1" height="1" /><rect shape-rendering="crispEdges" fill="rgb(222, 148, 156)"  x="25" y="10" width="1" height="1" /><rect shape-rendering="crispEdges" fill="rgb(106, 65, 65)"  x="25" y="11" width="1" height="1" /><rect shape-rendering="crispEdges" fill="rgb(74, 49, 41)"  x="25" y="12" width="1" height="1" /><rect shape-rendering="crispEdges" fill="rgb(49, 24, 24)"  x="25" y="13" width="1" height="1" /><rect shape-rendering="crispEdges" fill="rgb(49, 24, 24)"  x="25" y="14" width="1" height="1" /><rect shape-rendering="crispEdges" fill="rgb(74, 49, 57)"  x="25" y="15" width="1" height="1" /><rect shape-rendering="crispEdges" fill="rgb(49, 32, 32)"  x="25" y="16" width="1" height="1" /><rect shape-rendering="crispEdges" fill="rgb(41, 32, 32)"  x="25" y="17" width="1" height="1" /><rect shape-rendering="crispEdges" fill="rgb(41, 32, 32)"  x="25" y="18" width="1" height="1" /><rect shape-rendering="crispEdges" fill="rgb(41, 32, 32)"  x="25" y="19" width="1" height="1" /><rect shape-rendering="crispEdges" fill="rgb(41, 32, 32)"  x="25" y="24" width="1" height="1" /><rect shape-rendering="crispEdges" fill="rgb(65, 41, 65)"  x="25" y="25" width="1" height="1" /><rect shape-rendering="crispEdges" fill="rgb(65, 41, 65)"  x="25" y="26" width="1" height="1" /><rect shape-rendering="crispEdges" fill="rgb(90, 131, 197)"  x="25" y="27" width="1" height="1" /><rect shape-rendering="crispEdges" fill="rgb(65, 74, 139)"  x="25" y="28" width="1" height="1" /><rect shape-rendering="crispEdges" fill="rgb(57, 41, 57)"  x="25" y="29" width="1" height="1" /><rect shape-rendering="crispEdges" fill="rgb(65, 41, 65)"  x="25" y="30" width="1" height="1" /><rect shape-rendering="crispEdges" fill="rgb(41, 32, 32)"  x="25" y="31" width="1" height="1" /><rect shape-rendering="crispEdges" fill="rgb(41, 32, 32)"  x="26" y="1" width="1" height="1" /><rect shape-rendering="crispEdges" fill="rgb(74, 57, 57)"  x="26" y="2" width="1" height="1" /><rect shape-rendering="crispEdges" fill="rgb(74, 57, 57)"  x="26" y="3" width="1" height="1" /><rect shape-rendering="crispEdges" fill="rgb(90, 65, 65)"  x="26" y="4" width="1" height="1" /><rect shape-rendering="crispEdges" fill="rgb(90, 65, 65)"  x="26" y="5" width="1" height="1" /><rect shape-rendering="crispEdges" fill="rgb(82, 57, 57)"  x="26" y="6" width="1" height="1" /><rect shape-rendering="crispEdges" fill="rgb(106, 74, 74)"  x="26" y="7" width="1" height="1" /><rect shape-rendering="crispEdges" fill="rgb(106, 74, 74)"  x="26" y="8" width="1" height="1" /><rect shape-rendering="crispEdges" fill="rgb(82, 57, 57)"  x="26" y="9" width="1" height="1" /><rect shape-rendering="crispEdges" fill="rgb(65, 41, 41)"  x="26" y="10" width="1" height="1" /><rect shape-rendering="crispEdges" fill="rgb(65, 49, 41)"  x="26" y="11" width="1" height="1" /><rect shape-rendering="crispEdges" fill="rgb(49, 32, 32)"  x="26" y="12" width="1" height="1" /><rect shape-rendering="crispEdges" fill="rgb(49, 32, 32)"  x="26" y="13" width="1" height="1" /><rect shape-rendering="crispEdges" fill="rgb(49, 32, 32)"  x="26" y="14" width="1" height="1" /><rect shape-rendering="crispEdges" fill="rgb(41, 32, 32)"  x="26" y="15" width="1" height="1" /><rect shape-rendering="crispEdges" fill="rgb(41, 32, 32)"  x="26" y="16" width="1" height="1" /><rect shape-rendering="crispEdges" fill="rgb(41, 32, 32)"  x="26" y="17" width="1" height="1" /><rect shape-rendering="crispEdges" fill="rgb(41, 32, 32)"  x="26" y="24" width="1" height="1" /><rect shape-rendering="crispEdges" fill="rgb(41, 24, 41)"  x="26" y="25" width="1" height="1" /><rect shape-rendering="crispEdges" fill="rgb(49, 32, 49)"  x="26" y="26" width="1" height="1" /><rect shape-rendering="crispEdges" fill="rgb(65, 74, 139)"  x="26" y="27" width="1" height="1" /><rect shape-rendering="crispEdges" fill="rgb(74, 98, 164)"  x="26" y="28" width="1" height="1" /><rect shape-rendering="crispEdges" fill="rgb(57, 32, 57)"  x="26" y="29" width="1" height="1" /><rect shape-rendering="crispEdges" fill="rgb(57, 41, 57)"  x="26" y="30" width="1" height="1" /><rect shape-rendering="crispEdges" fill="rgb(41, 32, 32)"  x="26" y="31" width="1" height="1" /><rect shape-rendering="crispEdges" fill="rgb(41, 32, 32)"  x="27" y="2" width="1" height="1" /><rect shape-rendering="crispEdges" fill="rgb(41, 32, 32)"  x="27" y="3" width="1" height="1" /><rect shape-rendering="crispEdges" fill="rgb(41, 32, 32)"  x="27" y="4" width="1" height="1" /><rect shape-rendering="crispEdges" fill="rgb(41, 32, 32)"  x="27" y="5" width="1" height="1" /><rect shape-rendering="crispEdges" fill="rgb(57, 41, 41)"  x="27" y="6" width="1" height="1" /><rect shape-rendering="crispEdges" fill="rgb(65, 41, 41)"  x="27" y="7" width="1" height="1" /><rect shape-rendering="crispEdges" fill="rgb(65, 49, 41)"  x="27" y="8" width="1" height="1" /><rect shape-rendering="crispEdges" fill="rgb(41, 32, 32)"  x="27" y="9" width="1" height="1" /><rect shape-rendering="crispEdges" fill="rgb(41, 32, 32)"  x="27" y="10" width="1" height="1" /><rect shape-rendering="crispEdges" fill="rgb(41, 32, 32)"  x="27" y="11" width="1" height="1" /><rect shape-rendering="crispEdges" fill="rgb(41, 32, 32)"  x="27" y="12" width="1" height="1" /><rect shape-rendering="crispEdges" fill="rgb(41, 32, 32)"  x="27" y="13" width="1" height="1" /><rect shape-rendering="crispEdges" fill="rgb(41, 32, 32)"  x="27" y="14" width="1" height="1" /><rect shape-rendering="crispEdges" fill="rgb(41, 32, 32)"  x="27" y="25" width="1" height="1" /><rect shape-rendering="crispEdges" fill="rgb(41, 32, 32)"  x="27" y="26" width="1" height="1" /><rect shape-rendering="crispEdges" fill="rgb(41, 32, 32)"  x="27" y="27" width="1" height="1" /><rect shape-rendering="crispEdges" fill="rgb(74, 98, 164)"  x="27" y="28" width="1" height="1" /><rect shape-rendering="crispEdges" fill="rgb(57, 65, 123)"  x="27" y="29" width="1" height="1" /><rect shape-rendering="crispEdges" fill="rgb(41, 24, 41)"  x="27" y="30" width="1" height="1" /><rect shape-rendering="crispEdges" fill="rgb(41, 32, 32)"  x="27" y="31" width="1" height="1" /><rect shape-rendering="crispEdges" fill="rgb(41, 32, 32)"  x="28" y="6" width="1" height="1" /><rect shape-rendering="crispEdges" fill="rgb(41, 32, 32)"  x="28" y="7" width="1" height="1" /><rect shape-rendering="crispEdges" fill="rgb(41, 32, 32)"  x="28" y="8" width="1" height="1" /><rect shape-rendering="crispEdges" fill="rgb(41, 32, 32)"  x="28" y="28" width="1" height="1" /><rect shape-rendering="crispEdges" fill="rgb(41, 32, 32)"  x="28" y="29" width="1" height="1" /><rect shape-rendering="crispEdges" fill="rgb(41, 32, 32)"  x="28" y="30" width="1" height="1" /></svg>