<svg xmlns="http://www.w3.org/2000/svg" xmlns:xlink= "http://www.w3.org/1999/xlink" width="32" height="32" viewBox ="0 0 32 32"><rect shape-rendering="crispEdges" fill="rgb(213, 65, 24)"  x="1" y="20" width="1" height="1" /><rect shape-rendering="crispEdges" fill="rgb(41, 8, 24)"  x="1" y="21" width="1" height="1" /><rect shape-rendering="crispEdges" fill="rgb(205, 32, 32)"  x="1" y="22" width="1" height="1" /><rect shape-rendering="crispEdges" fill="rgb(205, 32, 32)"  x="2" y="18" width="1" height="1" /><rect shape-rendering="crispEdges" fill="rgb(49, 24, 24)"  x="2" y="19" width="1" height="1" /><rect shape-rendering="crispEdges" fill="rgb(205, 32, 32)"  x="2" y="20" width="1" height="1" /><rect shape-rendering="crispEdges" fill="rgb(255, 255, 32)"  x="2" y="21" width="1" height="1" /><rect shape-rendering="crispEdges" fill="rgb(230, 189, 16)"  x="2" y="22" width="1" height="1" /><rect shape-rendering="crispEdges" fill="rgb(205, 32, 32)"  x="2" y="23" width="1" height="1" /><rect shape-rendering="crispEdges" fill="rgb(148, 106, 123)"  x="3" y="16" width="1" height="1" /><rect shape-rendering="crispEdges" fill="rgb(57, 24, 32)"  x="3" y="17" width="1" height="1" /><rect shape-rendering="crispEdges" fill="rgb(205, 32, 32)"  x="3" y="18" width="1" height="1" /><rect shape-rendering="crispEdges" fill="rgb(255, 255, 32)"  x="3" y="19" width="1" height="1" /><rect shape-rendering="crispEdges" fill="rgb(255, 222, 24)"  x="3" y="20" width="1" height="1" /><rect shape-rendering="crispEdges" fill="rgb(238, 189, 16)"  x="3" y="21" width="1" height="1" /><rect shape-rendering="crispEdges" fill="rgb(213, 131, 16)"  x="3" y="22" width="1" height="1" /><rect shape-rendering="crispEdges" fill="rgb(180, 24, 49)"  x="3" y="23" width="1" height="1" /><rect shape-rendering="crispEdges" fill="rgb(148, 106, 123)"  x="4" y="14" width="1" height="1" /><rect shape-rendering="crispEdges" fill="rgb(57, 24, 32)"  x="4" y="15" width="1" height="1" /><rect shape-rendering="crispEdges" fill="rgb(65, 32, 32)"  x="4" y="16" width="1" height="1" /><rect shape-rendering="crispEdges" fill="rgb(180, 148, 156)"  x="4" y="17" width="1" height="1" /><rect shape-rendering="crispEdges" fill="rgb(205, 180, 180)"  x="4" y="18" width="1" height="1" /><rect shape-rendering="crispEdges" fill="rgb(255, 222, 24)"  x="4" y="19" width="1" height="1" /><rect shape-rendering="crispEdges" fill="rgb(222, 156, 16)"  x="4" y="20" width="1" height="1" /><rect shape-rendering="crispEdges" fill="rgb(180, 24, 49)"  x="4" y="21" width="1" height="1" /><rect shape-rendering="crispEdges" fill="rgb(41, 16, 24)"  x="4" y="22" width="1" height="1" /><rect shape-rendering="crispEdges" fill="rgb(139, 0, 74)"  x="4" y="23" width="1" height="1" /><rect shape-rendering="crispEdges" fill="rgb(57, 24, 32)"  x="5" y="12" width="1" height="1" /><rect shape-rendering="crispEdges" fill="rgb(65, 32, 32)"  x="5" y="13" width="1" height="1" /><rect shape-rendering="crispEdges" fill="rgb(74, 41, 41)"  x="5" y="14" width="1" height="1" /><rect shape-rendering="crispEdges" fill="rgb(189, 164, 172)"  x="5" y="15" width="1" height="1" /><rect shape-rendering="crispEdges" fill="rgb(222, 197, 197)"  x="5" y="16" width="1" height="1" /><rect shape-rendering="crispEdges" fill="rgb(230, 205, 205)"  x="5" y="17" width="1" height="1" /><rect shape-rendering="crispEdges" fill="rgb(65, 32, 32)"  x="5" y="18" width="1" height="1" /><rect shape-rendering="crispEdges" fill="rgb(189, 24, 41)"  x="5" y="19" width="1" height="1" /><rect shape-rendering="crispEdges" fill="rgb(41, 8, 16)"  x="5" y="20" width="1" height="1" /><rect shape-rendering="crispEdges" fill="rgb(148, 0, 74)"  x="5" y="21" width="1" height="1" /><rect shape-rendering="crispEdges" fill="rgb(41, 8, 16)"  x="5" y="28" width="1" height="1" /><rect shape-rendering="crispEdges" fill="rgb(148, 106, 123)"  x="6" y="10" width="1" height="1" /><rect shape-rendering="crispEdges" fill="rgb(74, 41, 41)"  x="6" y="11" width="1" height="1" /><rect shape-rendering="crispEdges" fill="rgb(74, 41, 41)"  x="6" y="12" width="1" height="1" /><rect shape-rendering="crispEdges" fill="rgb(74, 41, 41)"  x="6" y="13" width="1" height="1" /><rect shape-rendering="crispEdges" fill="rgb(230, 213, 205)"  x="6" y="14" width="1" height="1" /><rect shape-rendering="crispEdges" fill="rgb(230, 213, 213)"  x="6" y="15" width="1" height="1" /><rect shape-rendering="crispEdges" fill="rgb(65, 32, 32)"  x="6" y="16" width="1" height="1" /><rect shape-rendering="crispEdges" fill="rgb(49, 24, 24)"  x="6" y="17" width="1" height="1" /><rect shape-rendering="crispEdges" fill="rgb(148, 106, 123)"  x="6" y="18" width="1" height="1" /><rect shape-rendering="crispEdges" fill="rgb(164, 8, 65)"  x="6" y="19" width="1" height="1" /><rect shape-rendering="crispEdges" fill="rgb(41, 8, 16)"  x="6" y="26" width="1" height="1" /><rect shape-rendering="crispEdges" fill="rgb(41, 8, 16)"  x="6" y="27" width="1" height="1" /><rect shape-rendering="crispEdges" fill="rgb(189, 164, 164)"  x="6" y="28" width="1" height="1" /><rect shape-rendering="crispEdges" fill="rgb(65, 32, 32)"  x="7" y="8" width="1" height="1" /><rect shape-rendering="crispEdges" fill="rgb(74, 41, 41)"  x="7" y="9" width="1" height="1" /><rect shape-rendering="crispEdges" fill="rgb(74, 41, 41)"  x="7" y="10" width="1" height="1" /><rect shape-rendering="crispEdges" fill="rgb(213, 189, 189)"  x="7" y="11" width="1" height="1" /><rect shape-rendering="crispEdges" fill="rgb(82, 49, 49)"  x="7" y="12" width="1" height="1" /><rect shape-rendering="crispEdges" fill="rgb(238, 222, 213)"  x="7" y="13" width="1" height="1" /><rect shape-rendering="crispEdges" fill="rgb(57, 24, 24)"  x="7" y="14" width="1" height="1" /><rect shape-rendering="crispEdges" fill="rgb(65, 32, 32)"  x="7" y="15" width="1" height="1" /><rect shape-rendering="crispEdges" fill="rgb(148, 106, 123)"  x="7" y="16" width="1" height="1" /><rect shape-rendering="crispEdges" fill="rgb(32, 0, 8)"  x="7" y="17" width="1" height="1" /><rect shape-rendering="crispEdges" fill="rgb(32, 0, 8)"  x="7" y="18" width="1" height="1" /><rect shape-rendering="crispEdges" fill="rgb(49, 8, 32)"  x="7" y="23" width="1" height="1" /><rect shape-rendering="crispEdges" fill="rgb(41, 8, 16)"  x="7" y="24" width="1" height="1" /><rect shape-rendering="crispEdges" fill="rgb(49, 16, 24)"  x="7" y="25" width="1" height="1" /><rect shape-rendering="crispEdges" fill="rgb(189, 156, 164)"  x="7" y="26" width="1" height="1" /><rect shape-rendering="crispEdges" fill="rgb(205, 180, 180)"  x="7" y="27" width="1" height="1" /><rect shape-rendering="crispEdges" fill="rgb(74, 41, 41)"  x="7" y="28" width="1" height="1" /><rect shape-rendering="crispEdges" fill="rgb(65, 32, 32)"  x="8" y="6" width="1" height="1" /><rect shape-rendering="crispEdges" fill="rgb(65, 32, 32)"  x="8" y="7" width="1" height="1" /><rect shape-rendering="crispEdges" fill="rgb(65, 32, 32)"  x="8" y="8" width="1" height="1" /><rect shape-rendering="crispEdges" fill="rgb(213, 189, 189)"  x="8" y="9" width="1" height="1" /><rect shape-rendering="crispEdges" fill="rgb(238, 222, 222)"  x="8" y="10" width="1" height="1" /><rect shape-rendering="crispEdges" fill="rgb(65, 32, 32)"  x="8" y="11" width="1" height="1" /><rect shape-rendering="crispEdges" fill="rgb(197, 164, 172)"  x="8" y="12" width="1" height="1" /><rect shape-rendering="crispEdges" fill="rgb(57, 24, 32)"  x="8" y="13" width="1" height="1" /><rect shape-rendering="crispEdges" fill="rgb(41, 8, 16)"  x="8" y="14" width="1" height="1" /><rect shape-rendering="crispEdges" fill="rgb(32, 0, 16)"  x="8" y="15" width="1" height="1" /><rect shape-rendering="crispEdges" fill="rgb(32, 0, 8)"  x="8" y="16" width="1" height="1" /><rect shape-rendering="crispEdges" fill="rgb(148, 106, 123)"  x="8" y="17" width="1" height="1" /><rect shape-rendering="crispEdges" fill="rgb(41, 8, 16)"  x="8" y="20" width="1" height="1" /><rect shape-rendering="crispEdges" fill="rgb(41, 8, 16)"  x="8" y="21" width="1" height="1" /><rect shape-rendering="crispEdges" fill="rgb(148, 106, 123)"  x="8" y="22" width="1" height="1" /><rect shape-rendering="crispEdges" fill="rgb(41, 16, 24)"  x="8" y="23" width="1" height="1" /><rect shape-rendering="crispEdges" fill="rgb(180, 148, 156)"  x="8" y="24" width="1" height="1" /><rect shape-rendering="crispEdges" fill="rgb(222, 197, 197)"  x="8" y="25" width="1" height="1" /><rect shape-rendering="crispEdges" fill="rgb(74, 41, 41)"  x="8" y="26" width="1" height="1" /><rect shape-rendering="crispEdges" fill="rgb(74, 41, 41)"  x="8" y="27" width="1" height="1" /><rect shape-rendering="crispEdges" fill="rgb(65, 32, 32)"  x="9" y="5" width="1" height="1" /><rect shape-rendering="crispEdges" fill="rgb(90, 57, 49)"  x="9" y="6" width="1" height="1" /><rect shape-rendering="crispEdges" fill="rgb(82, 49, 49)"  x="9" y="7" width="1" height="1" /><rect shape-rendering="crispEdges" fill="rgb(230, 213, 205)"  x="9" y="8" width="1" height="1" /><rect shape-rendering="crispEdges" fill="rgb(49, 16, 24)"  x="9" y="9" width="1" height="1" /><rect shape-rendering="crispEdges" fill="rgb(98, 49, 82)"  x="9" y="10" width="1" height="1" /><rect shape-rendering="crispEdges" fill="rgb(98, 57, 82)"  x="9" y="11" width="1" height="1" /><rect shape-rendering="crispEdges" fill="rgb(49, 16, 24)"  x="9" y="12" width="1" height="1" /><rect shape-rendering="crispEdges" fill="rgb(148, 106, 123)"  x="9" y="13" width="1" height="1" /><rect shape-rendering="crispEdges" fill="rgb(41, 8, 16)"  x="9" y="14" width="1" height="1" /><rect shape-rendering="crispEdges" fill="rgb(32, 8, 16)"  x="9" y="15" width="1" height="1" /><rect shape-rendering="crispEdges" fill="rgb(41, 8, 16)"  x="9" y="16" width="1" height="1" /><rect shape-rendering="crispEdges" fill="rgb(148, 106, 123)"  x="9" y="17" width="1" height="1" /><rect shape-rendering="crispEdges" fill="rgb(41, 8, 16)"  x="9" y="18" width="1" height="1" /><rect shape-rendering="crispEdges" fill="rgb(41, 8, 16)"  x="9" y="19" width="1" height="1" /><rect shape-rendering="crispEdges" fill="rgb(41, 16, 24)"  x="9" y="20" width="1" height="1" /><rect shape-rendering="crispEdges" fill="rgb(49, 16, 24)"  x="9" y="21" width="1" height="1" /><rect shape-rendering="crispEdges" fill="rgb(172, 139, 148)"  x="9" y="22" width="1" height="1" /><rect shape-rendering="crispEdges" fill="rgb(213, 189, 189)"  x="9" y="23" width="1" height="1" /><rect shape-rendering="crispEdges" fill="rgb(82, 41, 41)"  x="9" y="24" width="1" height="1" /><rect shape-rendering="crispEdges" fill="rgb(74, 41, 41)"  x="9" y="25" width="1" height="1" /><rect shape-rendering="crispEdges" fill="rgb(74, 41, 41)"  x="9" y="26" width="1" height="1" /><rect shape-rendering="crispEdges" fill="rgb(65, 32, 32)"  x="10" y="5" width="1" height="1" /><rect shape-rendering="crispEdges" fill="rgb(222, 197, 197)"  x="10" y="6" width="1" height="1" /><rect shape-rendering="crispEdges" fill="rgb(222, 197, 197)"  x="10" y="7" width="1" height="1" /><rect shape-rendering="crispEdges" fill="rgb(65, 32, 41)"  x="10" y="8" width="1" height="1" /><rect shape-rendering="crispEdges" fill="rgb(90, 41, 74)"  x="10" y="9" width="1" height="1" /><rect shape-rendering="crispEdges" fill="rgb(139, 98, 115)"  x="10" y="10" width="1" height="1" /><rect shape-rendering="crispEdges" fill="rgb(222, 205, 205)"  x="10" y="11" width="1" height="1" /><rect shape-rendering="crispEdges" fill="rgb(139, 98, 123)"  x="10" y="12" width="1" height="1" /><rect shape-rendering="crispEdges" fill="rgb(49, 16, 24)"  x="10" y="13" width="1" height="1" /><rect shape-rendering="crispEdges" fill="rgb(197, 172, 172)"  x="10" y="14" width="1" height="1" /><rect shape-rendering="crispEdges" fill="rgb(213, 189, 189)"  x="10" y="15" width="1" height="1" /><rect shape-rendering="crispEdges" fill="rgb(222, 197, 197)"  x="10" y="16" width="1" height="1" /><rect shape-rendering="crispEdges" fill="rgb(222, 197, 197)"  x="10" y="17" width="1" height="1" /><rect shape-rendering="crispEdges" fill="rgb(222, 197, 197)"  x="10" y="18" width="1" height="1" /><rect shape-rendering="crispEdges" fill="rgb(222, 205, 205)"  x="10" y="19" width="1" height="1" /><rect shape-rendering="crispEdges" fill="rgb(230, 213, 205)"  x="10" y="20" width="1" height="1" /><rect shape-rendering="crispEdges" fill="rgb(238, 222, 213)"  x="10" y="21" width="1" height="1" /><rect shape-rendering="crispEdges" fill="rgb(74, 41, 41)"  x="10" y="22" width="1" height="1" /><rect shape-rendering="crispEdges" fill="rgb(74, 41, 41)"  x="10" y="23" width="1" height="1" /><rect shape-rendering="crispEdges" fill="rgb(238, 222, 222)"  x="10" y="24" width="1" height="1" /><rect shape-rendering="crispEdges" fill="rgb(172, 16, 49)"  x="10" y="25" width="1" height="1" /><rect shape-rendering="crispEdges" fill="rgb(82, 41, 57)"  x="11" y="5" width="1" height="1" /><rect shape-rendering="crispEdges" fill="rgb(65, 32, 32)"  x="11" y="6" width="1" height="1" /><rect shape-rendering="crispEdges" fill="rgb(57, 24, 24)"  x="11" y="7" width="1" height="1" /><rect shape-rendering="crispEdges" fill="rgb(98, 57, 82)"  x="11" y="8" width="1" height="1" /><rect shape-rendering="crispEdges" fill="rgb(180, 148, 156)"  x="11" y="9" width="1" height="1" /><rect shape-rendering="crispEdges" fill="rgb(238, 222, 213)"  x="11" y="10" width="1" height="1" /><rect shape-rendering="crispEdges" fill="rgb(222, 205, 197)"  x="11" y="11" width="1" height="1" /><rect shape-rendering="crispEdges" fill="rgb(156, 123, 131)"  x="11" y="12" width="1" height="1" /><rect shape-rendering="crispEdges" fill="rgb(106, 57, 82)"  x="11" y="13" width="1" height="1" /><rect shape-rendering="crispEdges" fill="rgb(49, 16, 24)"  x="11" y="14" width="1" height="1" /><rect shape-rendering="crispEdges" fill="rgb(57, 24, 24)"  x="11" y="15" width="1" height="1" /><rect shape-rendering="crispEdges" fill="rgb(65, 32, 32)"  x="11" y="16" width="1" height="1" /><rect shape-rendering="crispEdges" fill="rgb(238, 222, 213)"  x="11" y="17" width="1" height="1" /><rect shape-rendering="crispEdges" fill="rgb(74, 41, 41)"  x="11" y="18" width="1" height="1" /><rect shape-rendering="crispEdges" fill="rgb(74, 41, 41)"  x="11" y="19" width="1" height="1" /><rect shape-rendering="crispEdges" fill="rgb(74, 41, 41)"  x="11" y="20" width="1" height="1" /><rect shape-rendering="crispEdges" fill="rgb(74, 41, 41)"  x="11" y="21" width="1" height="1" /><rect shape-rendering="crispEdges" fill="rgb(82, 32, 49)"  x="11" y="22" width="1" height="1" /><rect shape-rendering="crispEdges" fill="rgb(205, 32, 32)"  x="11" y="23" width="1" height="1" /><rect shape-rendering="crispEdges" fill="rgb(172, 16, 57)"  x="11" y="24" width="1" height="1" /><rect shape-rendering="crispEdges" fill="rgb(164, 16, 65)"  x="11" y="25" width="1" height="1" /><rect shape-rendering="crispEdges" fill="rgb(172, 131, 139)"  x="12" y="3" width="1" height="1" /><rect shape-rendering="crispEdges" fill="rgb(156, 123, 139)"  x="12" y="4" width="1" height="1" /><rect shape-rendering="crispEdges" fill="rgb(148, 115, 131)"  x="12" y="5" width="1" height="1" /><rect shape-rendering="crispEdges" fill="rgb(49, 16, 24)"  x="12" y="6" width="1" height="1" /><rect shape-rendering="crispEdges" fill="rgb(139, 98, 115)"  x="12" y="7" width="1" height="1" /><rect shape-rendering="crispEdges" fill="rgb(180, 148, 156)"  x="12" y="8" width="1" height="1" /><rect shape-rendering="crispEdges" fill="rgb(213, 189, 180)"  x="12" y="9" width="1" height="1" /><rect shape-rendering="crispEdges" fill="rgb(197, 164, 156)"  x="12" y="10" width="1" height="1" /><rect shape-rendering="crispEdges" fill="rgb(164, 131, 131)"  x="12" y="11" width="1" height="1" /><rect shape-rendering="crispEdges" fill="rgb(139, 98, 106)"  x="12" y="12" width="1" height="1" /><rect shape-rendering="crispEdges" fill="rgb(148, 106, 123)"  x="12" y="13" width="1" height="1" /><rect shape-rendering="crispEdges" fill="rgb(115, 74, 98)"  x="12" y="14" width="1" height="1" /><rect shape-rendering="crispEdges" fill="rgb(115, 16, 24)"  x="12" y="15" width="1" height="1" /><rect shape-rendering="crispEdges" fill="rgb(123, 16, 24)"  x="12" y="16" width="1" height="1" /><rect shape-rendering="crispEdges" fill="rgb(139, 24, 24)"  x="12" y="17" width="1" height="1" /><rect shape-rendering="crispEdges" fill="rgb(139, 24, 24)"  x="12" y="18" width="1" height="1" /><rect shape-rendering="crispEdges" fill="rgb(131, 24, 24)"  x="12" y="19" width="1" height="1" /><rect shape-rendering="crispEdges" fill="rgb(123, 16, 24)"  x="12" y="20" width="1" height="1" /><rect shape-rendering="crispEdges" fill="rgb(115, 16, 24)"  x="12" y="21" width="1" height="1" /><rect shape-rendering="crispEdges" fill="rgb(115, 16, 24)"  x="12" y="22" width="1" height="1" /><rect shape-rendering="crispEdges" fill="rgb(197, 41, 41)"  x="12" y="23" width="1" height="1" /><rect shape-rendering="crispEdges" fill="rgb(180, 24, 49)"  x="12" y="24" width="1" height="1" /><rect shape-rendering="crispEdges" fill="rgb(164, 16, 65)"  x="12" y="25" width="1" height="1" /><rect shape-rendering="crispEdges" fill="rgb(82, 32, 65)"  x="13" y="3" width="1" height="1" /><rect shape-rendering="crispEdges" fill="rgb(230, 213, 213)"  x="13" y="4" width="1" height="1" /><rect shape-rendering="crispEdges" fill="rgb(230, 222, 213)"  x="13" y="5" width="1" height="1" /><rect shape-rendering="crispEdges" fill="rgb(131, 90, 106)"  x="13" y="6" width="1" height="1" /><rect shape-rendering="crispEdges" fill="rgb(131, 82, 106)"  x="13" y="7" width="1" height="1" /><rect shape-rendering="crispEdges" fill="rgb(131, 82, 106)"  x="13" y="8" width="1" height="1" /><rect shape-rendering="crispEdges" fill="rgb(139, 90, 106)"  x="13" y="9" width="1" height="1" /><rect shape-rendering="crispEdges" fill="rgb(197, 156, 156)"  x="13" y="10" width="1" height="1" /><rect shape-rendering="crispEdges" fill="rgb(213, 180, 180)"  x="13" y="11" width="1" height="1" /><rect shape-rendering="crispEdges" fill="rgb(222, 197, 189)"  x="13" y="12" width="1" height="1" /><rect shape-rendering="crispEdges" fill="rgb(238, 213, 205)"  x="13" y="13" width="1" height="1" /><rect shape-rendering="crispEdges" fill="rgb(164, 123, 131)"  x="13" y="14" width="1" height="1" /><rect shape-rendering="crispEdges" fill="rgb(123, 16, 24)"  x="13" y="15" width="1" height="1" /><rect shape-rendering="crispEdges" fill="rgb(139, 24, 24)"  x="13" y="16" width="1" height="1" /><rect shape-rendering="crispEdges" fill="rgb(148, 32, 24)"  x="13" y="17" width="1" height="1" /><rect shape-rendering="crispEdges" fill="rgb(148, 32, 24)"  x="13" y="18" width="1" height="1" /><rect shape-rendering="crispEdges" fill="rgb(148, 32, 24)"  x="13" y="19" width="1" height="1" /><rect shape-rendering="crispEdges" fill="rgb(148, 32, 24)"  x="13" y="20" width="1" height="1" /><rect shape-rendering="crispEdges" fill="rgb(148, 32, 24)"  x="13" y="21" width="1" height="1" /><rect shape-rendering="crispEdges" fill="rgb(131, 24, 24)"  x="13" y="22" width="1" height="1" /><rect shape-rendering="crispEdges" fill="rgb(123, 16, 24)"  x="13" y="23" width="1" height="1" /><rect shape-rendering="crispEdges" fill="rgb(205, 32, 32)"  x="13" y="24" width="1" height="1" /><rect shape-rendering="crispEdges" fill="rgb(164, 16, 65)"  x="13" y="25" width="1" height="1" /><rect shape-rendering="crispEdges" fill="rgb(82, 32, 65)"  x="14" y="3" width="1" height="1" /><rect shape-rendering="crispEdges" fill="rgb(123, 82, 106)"  x="14" y="4" width="1" height="1" /><rect shape-rendering="crispEdges" fill="rgb(164, 131, 131)"  x="14" y="5" width="1" height="1" /><rect shape-rendering="crispEdges" fill="rgb(148, 115, 123)"  x="14" y="6" width="1" height="1" /><rect shape-rendering="crispEdges" fill="rgb(148, 106, 123)"  x="14" y="7" width="1" height="1" /><rect shape-rendering="crispEdges" fill="rgb(180, 148, 156)"  x="14" y="8" width="1" height="1" /><rect shape-rendering="crispEdges" fill="rgb(222, 197, 197)"  x="14" y="9" width="1" height="1" /><rect shape-rendering="crispEdges" fill="rgb(246, 238, 238)"  x="14" y="10" width="1" height="1" /><rect shape-rendering="crispEdges" fill="rgb(255, 246, 246)"  x="14" y="11" width="1" height="1" /><rect shape-rendering="crispEdges" fill="rgb(255, 255, 246)"  x="14" y="12" width="1" height="1" /><rect shape-rendering="crispEdges" fill="rgb(255, 246, 246)"  x="14" y="13" width="1" height="1" /><rect shape-rendering="crispEdges" fill="rgb(156, 106, 123)"  x="14" y="14" width="1" height="1" /><rect shape-rendering="crispEdges" fill="rgb(123, 16, 24)"  x="14" y="15" width="1" height="1" /><rect shape-rendering="crispEdges" fill="rgb(255, 255, 32)"  x="14" y="16" width="1" height="1" /><rect shape-rendering="crispEdges" fill="rgb(148, 32, 24)"  x="14" y="17" width="1" height="1" /><rect shape-rendering="crispEdges" fill="rgb(238, 205, 16)"  x="14" y="18" width="1" height="1" /><rect shape-rendering="crispEdges" fill="rgb(148, 32, 24)"  x="14" y="19" width="1" height="1" /><rect shape-rendering="crispEdges" fill="rgb(222, 172, 16)"  x="14" y="20" width="1" height="1" /><rect shape-rendering="crispEdges" fill="rgb(148, 32, 24)"  x="14" y="21" width="1" height="1" /><rect shape-rendering="crispEdges" fill="rgb(172, 16, 57)"  x="14" y="22" width="1" height="1" /><rect shape-rendering="crispEdges" fill="rgb(213, 74, 32)"  x="14" y="23" width="1" height="1" /><rect shape-rendering="crispEdges" fill="rgb(222, 65, 24)"  x="14" y="24" width="1" height="1" /><rect shape-rendering="crispEdges" fill="rgb(164, 16, 65)"  x="14" y="25" width="1" height="1" /><rect shape-rendering="crispEdges" fill="rgb(82, 32, 65)"  x="15" y="3" width="1" height="1" /><rect shape-rendering="crispEdges" fill="rgb(82, 32, 65)"  x="15" y="4" width="1" height="1" /><rect shape-rendering="crispEdges" fill="rgb(139, 90, 106)"  x="15" y="5" width="1" height="1" /><rect shape-rendering="crispEdges" fill="rgb(197, 172, 164)"  x="15" y="6" width="1" height="1" /><rect shape-rendering="crispEdges" fill="rgb(222, 205, 197)"  x="15" y="7" width="1" height="1" /><rect shape-rendering="crispEdges" fill="rgb(238, 213, 205)"  x="15" y="8" width="1" height="1" /><rect shape-rendering="crispEdges" fill="rgb(246, 230, 222)"  x="15" y="9" width="1" height="1" /><rect shape-rendering="crispEdges" fill="rgb(246, 238, 230)"  x="15" y="10" width="1" height="1" /><rect shape-rendering="crispEdges" fill="rgb(246, 238, 230)"  x="15" y="11" width="1" height="1" /><rect shape-rendering="crispEdges" fill="rgb(246, 238, 238)"  x="15" y="12" width="1" height="1" /><rect shape-rendering="crispEdges" fill="rgb(255, 238, 238)"  x="15" y="13" width="1" height="1" /><rect shape-rendering="crispEdges" fill="rgb(106, 49, 74)"  x="15" y="14" width="1" height="1" /><rect shape-rendering="crispEdges" fill="rgb(123, 16, 24)"  x="15" y="15" width="1" height="1" /><rect shape-rendering="crispEdges" fill="rgb(148, 32, 24)"  x="15" y="16" width="1" height="1" /><rect shape-rendering="crispEdges" fill="rgb(148, 32, 24)"  x="15" y="17" width="1" height="1" /><rect shape-rendering="crispEdges" fill="rgb(148, 32, 24)"  x="15" y="18" width="1" height="1" /><rect shape-rendering="crispEdges" fill="rgb(148, 32, 24)"  x="15" y="19" width="1" height="1" /><rect shape-rendering="crispEdges" fill="rgb(148, 32, 24)"  x="15" y="20" width="1" height="1" /><rect shape-rendering="crispEdges" fill="rgb(148, 32, 24)"  x="15" y="21" width="1" height="1" /><rect shape-rendering="crispEdges" fill="rgb(139, 32, 24)"  x="15" y="22" width="1" height="1" /><rect shape-rendering="crispEdges" fill="rgb(115, 16, 24)"  x="15" y="23" width="1" height="1" /><rect shape-rendering="crispEdges" fill="rgb(222, 82, 24)"  x="15" y="24" width="1" height="1" /><rect shape-rendering="crispEdges" fill="rgb(172, 16, 57)"  x="15" y="25" width="1" height="1" /><rect shape-rendering="crispEdges" fill="rgb(82, 32, 65)"  x="16" y="3" width="1" height="1" /><rect shape-rendering="crispEdges" fill="rgb(131, 90, 106)"  x="16" y="4" width="1" height="1" /><rect shape-rendering="crispEdges" fill="rgb(180, 139, 148)"  x="16" y="5" width="1" height="1" /><rect shape-rendering="crispEdges" fill="rgb(131, 82, 106)"  x="16" y="6" width="1" height="1" /><rect shape-rendering="crispEdges" fill="rgb(106, 57, 82)"  x="16" y="7" width="1" height="1" /><rect shape-rendering="crispEdges" fill="rgb(131, 82, 98)"  x="16" y="8" width="1" height="1" /><rect shape-rendering="crispEdges" fill="rgb(180, 139, 139)"  x="16" y="9" width="1" height="1" /><rect shape-rendering="crispEdges" fill="rgb(197, 164, 164)"  x="16" y="10" width="1" height="1" /><rect shape-rendering="crispEdges" fill="rgb(213, 180, 180)"  x="16" y="11" width="1" height="1" /><rect shape-rendering="crispEdges" fill="rgb(222, 197, 189)"  x="16" y="12" width="1" height="1" /><rect shape-rendering="crispEdges" fill="rgb(238, 213, 205)"  x="16" y="13" width="1" height="1" /><rect shape-rendering="crispEdges" fill="rgb(90, 32, 57)"  x="16" y="14" width="1" height="1" /><rect shape-rendering="crispEdges" fill="rgb(123, 16, 24)"  x="16" y="15" width="1" height="1" /><rect shape-rendering="crispEdges" fill="rgb(131, 24, 24)"  x="16" y="16" width="1" height="1" /><rect shape-rendering="crispEdges" fill="rgb(148, 32, 24)"  x="16" y="17" width="1" height="1" /><rect shape-rendering="crispEdges" fill="rgb(148, 32, 24)"  x="16" y="18" width="1" height="1" /><rect shape-rendering="crispEdges" fill="rgb(139, 32, 24)"  x="16" y="19" width="1" height="1" /><rect shape-rendering="crispEdges" fill="rgb(123, 24, 24)"  x="16" y="20" width="1" height="1" /><rect shape-rendering="crispEdges" fill="rgb(123, 16, 24)"  x="16" y="21" width="1" height="1" /><rect shape-rendering="crispEdges" fill="rgb(115, 8, 24)"  x="16" y="22" width="1" height="1" /><rect shape-rendering="crispEdges" fill="rgb(213, 57, 32)"  x="16" y="23" width="1" height="1" /><rect shape-rendering="crispEdges" fill="rgb(230, 90, 24)"  x="16" y="24" width="1" height="1" /><rect shape-rendering="crispEdges" fill="rgb(172, 16, 57)"  x="16" y="25" width="1" height="1" /><rect shape-rendering="crispEdges" fill="rgb(82, 32, 65)"  x="17" y="3" width="1" height="1" /><rect shape-rendering="crispEdges" fill="rgb(180, 148, 164)"  x="17" y="4" width="1" height="1" /><rect shape-rendering="crispEdges" fill="rgb(230, 213, 213)"  x="17" y="5" width="1" height="1" /><rect shape-rendering="crispEdges" fill="rgb(131, 82, 106)"  x="17" y="6" width="1" height="1" /><rect shape-rendering="crispEdges" fill="rgb(148, 106, 123)"  x="17" y="7" width="1" height="1" /><rect shape-rendering="crispEdges" fill="rgb(180, 139, 148)"  x="17" y="8" width="1" height="1" /><rect shape-rendering="crispEdges" fill="rgb(180, 148, 148)"  x="17" y="9" width="1" height="1" /><rect shape-rendering="crispEdges" fill="rgb(180, 148, 148)"  x="17" y="10" width="1" height="1" /><rect shape-rendering="crispEdges" fill="rgb(148, 115, 123)"  x="17" y="11" width="1" height="1" /><rect shape-rendering="crispEdges" fill="rgb(139, 106, 115)"  x="17" y="12" width="1" height="1" /><rect shape-rendering="crispEdges" fill="rgb(148, 115, 123)"  x="17" y="13" width="1" height="1" /><rect shape-rendering="crispEdges" fill="rgb(98, 49, 82)"  x="17" y="14" width="1" height="1" /><rect shape-rendering="crispEdges" fill="rgb(74, 41, 41)"  x="17" y="15" width="1" height="1" /><rect shape-rendering="crispEdges" fill="rgb(74, 41, 41)"  x="17" y="16" width="1" height="1" /><rect shape-rendering="crispEdges" fill="rgb(205, 180, 180)"  x="17" y="17" width="1" height="1" /><rect shape-rendering="crispEdges" fill="rgb(74, 41, 41)"  x="17" y="18" width="1" height="1" /><rect shape-rendering="crispEdges" fill="rgb(74, 41, 41)"  x="17" y="19" width="1" height="1" /><rect shape-rendering="crispEdges" fill="rgb(74, 41, 41)"  x="17" y="20" width="1" height="1" /><rect shape-rendering="crispEdges" fill="rgb(74, 41, 41)"  x="17" y="21" width="1" height="1" /><rect shape-rendering="crispEdges" fill="rgb(74, 41, 41)"  x="17" y="22" width="1" height="1" /><rect shape-rendering="crispEdges" fill="rgb(205, 49, 32)"  x="17" y="23" width="1" height="1" /><rect shape-rendering="crispEdges" fill="rgb(222, 74, 24)"  x="17" y="24" width="1" height="1" /><rect shape-rendering="crispEdges" fill="rgb(164, 16, 65)"  x="17" y="25" width="1" height="1" /><rect shape-rendering="crispEdges" fill="rgb(172, 139, 148)"  x="18" y="3" width="1" height="1" /><rect shape-rendering="crispEdges" fill="rgb(238, 222, 213)"  x="18" y="4" width="1" height="1" /><rect shape-rendering="crispEdges" fill="rgb(230, 205, 205)"  x="18" y="5" width="1" height="1" /><rect shape-rendering="crispEdges" fill="rgb(74, 41, 49)"  x="18" y="6" width="1" height="1" /><rect shape-rendering="crispEdges" fill="rgb(115, 74, 98)"  x="18" y="7" width="1" height="1" /><rect shape-rendering="crispEdges" fill="rgb(148, 106, 115)"  x="18" y="8" width="1" height="1" /><rect shape-rendering="crispEdges" fill="rgb(213, 189, 189)"  x="18" y="9" width="1" height="1" /><rect shape-rendering="crispEdges" fill="rgb(238, 222, 213)"  x="18" y="10" width="1" height="1" /><rect shape-rendering="crispEdges" fill="rgb(222, 197, 197)"  x="18" y="11" width="1" height="1" /><rect shape-rendering="crispEdges" fill="rgb(189, 156, 156)"  x="18" y="12" width="1" height="1" /><rect shape-rendering="crispEdges" fill="rgb(139, 98, 115)"  x="18" y="13" width="1" height="1" /><rect shape-rendering="crispEdges" fill="rgb(57, 24, 32)"  x="18" y="14" width="1" height="1" /><rect shape-rendering="crispEdges" fill="rgb(255, 255, 32)"  x="18" y="15" width="1" height="1" /><rect shape-rendering="crispEdges" fill="rgb(213, 148, 16)"  x="18" y="16" width="1" height="1" /><rect shape-rendering="crispEdges" fill="rgb(230, 213, 205)"  x="18" y="17" width="1" height="1" /><rect shape-rendering="crispEdges" fill="rgb(74, 32, 41)"  x="18" y="18" width="1" height="1" /><rect shape-rendering="crispEdges" fill="rgb(238, 205, 16)"  x="18" y="19" width="1" height="1" /><rect shape-rendering="crispEdges" fill="rgb(222, 148, 16)"  x="18" y="20" width="1" height="1" /><rect shape-rendering="crispEdges" fill="rgb(74, 41, 41)"  x="18" y="21" width="1" height="1" /><rect shape-rendering="crispEdges" fill="rgb(65, 32, 32)"  x="18" y="22" width="1" height="1" /><rect shape-rendering="crispEdges" fill="rgb(65, 32, 32)"  x="18" y="23" width="1" height="1" /><rect shape-rendering="crispEdges" fill="rgb(205, 32, 32)"  x="18" y="24" width="1" height="1" /><rect shape-rendering="crispEdges" fill="rgb(164, 16, 65)"  x="18" y="25" width="1" height="1" /><rect shape-rendering="crispEdges" fill="rgb(148, 106, 123)"  x="19" y="3" width="1" height="1" /><rect shape-rendering="crispEdges" fill="rgb(131, 90, 106)"  x="19" y="4" width="1" height="1" /><rect shape-rendering="crispEdges" fill="rgb(131, 90, 106)"  x="19" y="5" width="1" height="1" /><rect shape-rendering="crispEdges" fill="rgb(82, 49, 41)"  x="19" y="6" width="1" height="1" /><rect shape-rendering="crispEdges" fill="rgb(74, 41, 41)"  x="19" y="7" width="1" height="1" /><rect shape-rendering="crispEdges" fill="rgb(82, 41, 74)"  x="19" y="8" width="1" height="1" /><rect shape-rendering="crispEdges" fill="rgb(148, 98, 115)"  x="19" y="9" width="1" height="1" /><rect shape-rendering="crispEdges" fill="rgb(189, 164, 164)"  x="19" y="10" width="1" height="1" /><rect shape-rendering="crispEdges" fill="rgb(246, 230, 222)"  x="19" y="11" width="1" height="1" /><rect shape-rendering="crispEdges" fill="rgb(255, 246, 230)"  x="19" y="12" width="1" height="1" /><rect shape-rendering="crispEdges" fill="rgb(131, 98, 115)"  x="19" y="13" width="1" height="1" /><rect shape-rendering="crispEdges" fill="rgb(57, 24, 32)"  x="19" y="14" width="1" height="1" /><rect shape-rendering="crispEdges" fill="rgb(74, 41, 41)"  x="19" y="15" width="1" height="1" /><rect shape-rendering="crispEdges" fill="rgb(74, 32, 41)"  x="19" y="16" width="1" height="1" /><rect shape-rendering="crispEdges" fill="rgb(230, 205, 205)"  x="19" y="17" width="1" height="1" /><rect shape-rendering="crispEdges" fill="rgb(65, 32, 41)"  x="19" y="18" width="1" height="1" /><rect shape-rendering="crispEdges" fill="rgb(74, 41, 41)"  x="19" y="19" width="1" height="1" /><rect shape-rendering="crispEdges" fill="rgb(74, 41, 41)"  x="19" y="20" width="1" height="1" /><rect shape-rendering="crispEdges" fill="rgb(74, 32, 41)"  x="19" y="21" width="1" height="1" /><rect shape-rendering="crispEdges" fill="rgb(65, 32, 32)"  x="19" y="22" width="1" height="1" /><rect shape-rendering="crispEdges" fill="rgb(65, 32, 32)"  x="19" y="23" width="1" height="1" /><rect shape-rendering="crispEdges" fill="rgb(238, 222, 213)"  x="19" y="24" width="1" height="1" /><rect shape-rendering="crispEdges" fill="rgb(172, 16, 57)"  x="19" y="25" width="1" height="1" /><rect shape-rendering="crispEdges" fill="rgb(65, 32, 32)"  x="20" y="5" width="1" height="1" /><rect shape-rendering="crispEdges" fill="rgb(82, 49, 49)"  x="20" y="6" width="1" height="1" /><rect shape-rendering="crispEdges" fill="rgb(82, 49, 49)"  x="20" y="7" width="1" height="1" /><rect shape-rendering="crispEdges" fill="rgb(82, 49, 49)"  x="20" y="8" width="1" height="1" /><rect shape-rendering="crispEdges" fill="rgb(82, 32, 65)"  x="20" y="9" width="1" height="1" /><rect shape-rendering="crispEdges" fill="rgb(123, 74, 98)"  x="20" y="10" width="1" height="1" /><rect shape-rendering="crispEdges" fill="rgb(213, 189, 189)"  x="20" y="11" width="1" height="1" /><rect shape-rendering="crispEdges" fill="rgb(148, 115, 131)"  x="20" y="12" width="1" height="1" /><rect shape-rendering="crispEdges" fill="rgb(49, 16, 24)"  x="20" y="13" width="1" height="1" /><rect shape-rendering="crispEdges" fill="rgb(148, 106, 123)"  x="20" y="14" width="1" height="1" /><rect shape-rendering="crispEdges" fill="rgb(148, 106, 123)"  x="20" y="15" width="1" height="1" /><rect shape-rendering="crispEdges" fill="rgb(164, 131, 148)"  x="20" y="16" width="1" height="1" /><rect shape-rendering="crispEdges" fill="rgb(180, 156, 164)"  x="20" y="17" width="1" height="1" /><rect shape-rendering="crispEdges" fill="rgb(197, 172, 180)"  x="20" y="18" width="1" height="1" /><rect shape-rendering="crispEdges" fill="rgb(213, 197, 197)"  x="20" y="19" width="1" height="1" /><rect shape-rendering="crispEdges" fill="rgb(222, 205, 205)"  x="20" y="20" width="1" height="1" /><rect shape-rendering="crispEdges" fill="rgb(238, 213, 213)"  x="20" y="21" width="1" height="1" /><rect shape-rendering="crispEdges" fill="rgb(74, 41, 41)"  x="20" y="22" width="1" height="1" /><rect shape-rendering="crispEdges" fill="rgb(65, 32, 32)"  x="20" y="23" width="1" height="1" /><rect shape-rendering="crispEdges" fill="rgb(230, 213, 213)"  x="20" y="24" width="1" height="1" /><rect shape-rendering="crispEdges" fill="rgb(65, 32, 32)"  x="20" y="25" width="1" height="1" /><rect shape-rendering="crispEdges" fill="rgb(65, 32, 32)"  x="21" y="5" width="1" height="1" /><rect shape-rendering="crispEdges" fill="rgb(230, 213, 213)"  x="21" y="6" width="1" height="1" /><rect shape-rendering="crispEdges" fill="rgb(213, 197, 197)"  x="21" y="7" width="1" height="1" /><rect shape-rendering="crispEdges" fill="rgb(57, 32, 32)"  x="21" y="8" width="1" height="1" /><rect shape-rendering="crispEdges" fill="rgb(49, 24, 24)"  x="21" y="9" width="1" height="1" /><rect shape-rendering="crispEdges" fill="rgb(148, 106, 123)"  x="21" y="10" width="1" height="1" /><rect shape-rendering="crispEdges" fill="rgb(98, 49, 82)"  x="21" y="11" width="1" height="1" /><rect shape-rendering="crispEdges" fill="rgb(41, 16, 24)"  x="21" y="12" width="1" height="1" /><rect shape-rendering="crispEdges" fill="rgb(41, 16, 24)"  x="21" y="13" width="1" height="1" /><rect shape-rendering="crispEdges" fill="rgb(49, 16, 24)"  x="21" y="14" width="1" height="1" /><rect shape-rendering="crispEdges" fill="rgb(41, 8, 16)"  x="21" y="15" width="1" height="1" /><rect shape-rendering="crispEdges" fill="rgb(41, 8, 16)"  x="21" y="16" width="1" height="1" /><rect shape-rendering="crispEdges" fill="rgb(148, 106, 123)"  x="21" y="17" width="1" height="1" /><rect shape-rendering="crispEdges" fill="rgb(49, 16, 24)"  x="21" y="18" width="1" height="1" /><rect shape-rendering="crispEdges" fill="rgb(49, 16, 24)"  x="21" y="19" width="1" height="1" /><rect shape-rendering="crispEdges" fill="rgb(49, 16, 24)"  x="21" y="20" width="1" height="1" /><rect shape-rendering="crispEdges" fill="rgb(49, 24, 24)"  x="21" y="21" width="1" height="1" /><rect shape-rendering="crispEdges" fill="rgb(180, 148, 156)"  x="21" y="22" width="1" height="1" /><rect shape-rendering="crispEdges" fill="rgb(222, 205, 205)"  x="21" y="23" width="1" height="1" /><rect shape-rendering="crispEdges" fill="rgb(65, 32, 32)"  x="21" y="24" width="1" height="1" /><rect shape-rendering="crispEdges" fill="rgb(65, 32, 32)"  x="21" y="25" width="1" height="1" /><rect shape-rendering="crispEdges" fill="rgb(65, 32, 32)"  x="21" y="26" width="1" height="1" /><rect shape-rendering="crispEdges" fill="rgb(57, 24, 32)"  x="22" y="5" width="1" height="1" /><rect shape-rendering="crispEdges" fill="rgb(65, 32, 41)"  x="22" y="6" width="1" height="1" /><rect shape-rendering="crispEdges" fill="rgb(65, 32, 32)"  x="22" y="7" width="1" height="1" /><rect shape-rendering="crispEdges" fill="rgb(238, 222, 213)"  x="22" y="8" width="1" height="1" /><rect shape-rendering="crispEdges" fill="rgb(222, 205, 205)"  x="22" y="9" width="1" height="1" /><rect shape-rendering="crispEdges" fill="rgb(82, 49, 49)"  x="22" y="10" width="1" height="1" /><rect shape-rendering="crispEdges" fill="rgb(148, 106, 123)"  x="22" y="11" width="1" height="1" /><rect shape-rendering="crispEdges" fill="rgb(41, 8, 16)"  x="22" y="12" width="1" height="1" /><rect shape-rendering="crispEdges" fill="rgb(49, 16, 24)"  x="22" y="13" width="1" height="1" /><rect shape-rendering="crispEdges" fill="rgb(41, 16, 24)"  x="22" y="14" width="1" height="1" /><rect shape-rendering="crispEdges" fill="rgb(41, 16, 24)"  x="22" y="15" width="1" height="1" /><rect shape-rendering="crispEdges" fill="rgb(41, 8, 16)"  x="22" y="16" width="1" height="1" /><rect shape-rendering="crispEdges" fill="rgb(148, 106, 123)"  x="22" y="17" width="1" height="1" /><rect shape-rendering="crispEdges" fill="rgb(32, 0, 16)"  x="22" y="18" width="1" height="1" /><rect shape-rendering="crispEdges" fill="rgb(32, 8, 16)"  x="22" y="19" width="1" height="1" /><rect shape-rendering="crispEdges" fill="rgb(41, 8, 16)"  x="22" y="20" width="1" height="1" /><rect shape-rendering="crispEdges" fill="rgb(49, 16, 24)"  x="22" y="21" width="1" height="1" /><rect shape-rendering="crispEdges" fill="rgb(49, 16, 24)"  x="22" y="22" width="1" height="1" /><rect shape-rendering="crispEdges" fill="rgb(156, 115, 131)"  x="22" y="23" width="1" height="1" /><rect shape-rendering="crispEdges" fill="rgb(197, 172, 172)"  x="22" y="24" width="1" height="1" /><rect shape-rendering="crispEdges" fill="rgb(230, 213, 213)"  x="22" y="25" width="1" height="1" /><rect shape-rendering="crispEdges" fill="rgb(57, 32, 32)"  x="22" y="26" width="1" height="1" /><rect shape-rendering="crispEdges" fill="rgb(65, 32, 32)"  x="22" y="27" width="1" height="1" /><rect shape-rendering="crispEdges" fill="rgb(65, 32, 32)"  x="23" y="6" width="1" height="1" /><rect shape-rendering="crispEdges" fill="rgb(65, 32, 41)"  x="23" y="7" width="1" height="1" /><rect shape-rendering="crispEdges" fill="rgb(82, 41, 41)"  x="23" y="8" width="1" height="1" /><rect shape-rendering="crispEdges" fill="rgb(90, 49, 49)"  x="23" y="9" width="1" height="1" /><rect shape-rendering="crispEdges" fill="rgb(230, 213, 213)"  x="23" y="10" width="1" height="1" /><rect shape-rendering="crispEdges" fill="rgb(230, 213, 205)"  x="23" y="11" width="1" height="1" /><rect shape-rendering="crispEdges" fill="rgb(74, 32, 41)"  x="23" y="12" width="1" height="1" /><rect shape-rendering="crispEdges" fill="rgb(65, 32, 32)"  x="23" y="13" width="1" height="1" /><rect shape-rendering="crispEdges" fill="rgb(49, 16, 24)"  x="23" y="14" width="1" height="1" /><rect shape-rendering="crispEdges" fill="rgb(57, 24, 24)"  x="23" y="15" width="1" height="1" /><rect shape-rendering="crispEdges" fill="rgb(148, 106, 123)"  x="23" y="16" width="1" height="1" /><rect shape-rendering="crispEdges" fill="rgb(41, 16, 24)"  x="23" y="17" width="1" height="1" /><rect shape-rendering="crispEdges" fill="rgb(57, 0, 41)"  x="23" y="21" width="1" height="1" /><rect shape-rendering="crispEdges" fill="rgb(41, 8, 16)"  x="23" y="22" width="1" height="1" /><rect shape-rendering="crispEdges" fill="rgb(148, 106, 123)"  x="23" y="23" width="1" height="1" /><rect shape-rendering="crispEdges" fill="rgb(49, 24, 24)"  x="23" y="24" width="1" height="1" /><rect shape-rendering="crispEdges" fill="rgb(65, 32, 41)"  x="23" y="25" width="1" height="1" /><rect shape-rendering="crispEdges" fill="rgb(213, 189, 189)"  x="23" y="26" width="1" height="1" /><rect shape-rendering="crispEdges" fill="rgb(230, 213, 213)"  x="23" y="27" width="1" height="1" /><rect shape-rendering="crispEdges" fill="rgb(65, 32, 32)"  x="23" y="28" width="1" height="1" /><rect shape-rendering="crispEdges" fill="rgb(65, 32, 32)"  x="24" y="8" width="1" height="1" /><rect shape-rendering="crispEdges" fill="rgb(148, 106, 123)"  x="24" y="9" width="1" height="1" /><rect shape-rendering="crispEdges" fill="rgb(65, 32, 41)"  x="24" y="10" width="1" height="1" /><rect shape-rendering="crispEdges" fill="rgb(82, 49, 49)"  x="24" y="11" width="1" height="1" /><rect shape-rendering="crispEdges" fill="rgb(230, 213, 213)"  x="24" y="12" width="1" height="1" /><rect shape-rendering="crispEdges" fill="rgb(238, 222, 213)"  x="24" y="13" width="1" height="1" /><rect shape-rendering="crispEdges" fill="rgb(65, 32, 32)"  x="24" y="14" width="1" height="1" /><rect shape-rendering="crispEdges" fill="rgb(222, 205, 205)"  x="24" y="15" width="1" height="1" /><rect shape-rendering="crispEdges" fill="rgb(65, 32, 32)"  x="24" y="16" width="1" height="1" /><rect shape-rendering="crispEdges" fill="rgb(57, 24, 32)"  x="24" y="17" width="1" height="1" /><rect shape-rendering="crispEdges" fill="rgb(148, 106, 123)"  x="24" y="18" width="1" height="1" /><rect shape-rendering="crispEdges" fill="rgb(49, 16, 24)"  x="24" y="19" width="1" height="1" /><rect shape-rendering="crispEdges" fill="rgb(148, 106, 123)"  x="24" y="23" width="1" height="1" /><rect shape-rendering="crispEdges" fill="rgb(41, 8, 16)"  x="24" y="24" width="1" height="1" /><rect shape-rendering="crispEdges" fill="rgb(57, 24, 24)"  x="24" y="25" width="1" height="1" /><rect shape-rendering="crispEdges" fill="rgb(65, 32, 41)"  x="24" y="26" width="1" height="1" /><rect shape-rendering="crispEdges" fill="rgb(65, 32, 32)"  x="24" y="27" width="1" height="1" /><rect shape-rendering="crispEdges" fill="rgb(222, 197, 197)"  x="24" y="28" width="1" height="1" /><rect shape-rendering="crispEdges" fill="rgb(65, 32, 32)"  x="25" y="10" width="1" height="1" /><rect shape-rendering="crispEdges" fill="rgb(65, 24, 32)"  x="25" y="11" width="1" height="1" /><rect shape-rendering="crispEdges" fill="rgb(74, 41, 41)"  x="25" y="12" width="1" height="1" /><rect shape-rendering="crispEdges" fill="rgb(74, 41, 41)"  x="25" y="13" width="1" height="1" /><rect shape-rendering="crispEdges" fill="rgb(230, 205, 205)"  x="25" y="14" width="1" height="1" /><rect shape-rendering="crispEdges" fill="rgb(238, 222, 213)"  x="25" y="15" width="1" height="1" /><rect shape-rendering="crispEdges" fill="rgb(238, 222, 213)"  x="25" y="16" width="1" height="1" /><rect shape-rendering="crispEdges" fill="rgb(230, 213, 213)"  x="25" y="17" width="1" height="1" /><rect shape-rendering="crispEdges" fill="rgb(65, 32, 32)"  x="25" y="18" width="1" height="1" /><rect shape-rendering="crispEdges" fill="rgb(57, 24, 32)"  x="25" y="19" width="1" height="1" /><rect shape-rendering="crispEdges" fill="rgb(164, 16, 65)"  x="25" y="20" width="1" height="1" /><rect shape-rendering="crispEdges" fill="rgb(49, 16, 24)"  x="25" y="21" width="1" height="1" /><rect shape-rendering="crispEdges" fill="rgb(41, 8, 16)"  x="25" y="25" width="1" height="1" /><rect shape-rendering="crispEdges" fill="rgb(57, 24, 32)"  x="25" y="26" width="1" height="1" /><rect shape-rendering="crispEdges" fill="rgb(57, 24, 32)"  x="25" y="27" width="1" height="1" /><rect shape-rendering="crispEdges" fill="rgb(57, 24, 32)"  x="25" y="28" width="1" height="1" /><rect shape-rendering="crispEdges" fill="rgb(65, 32, 32)"  x="26" y="12" width="1" height="1" /><rect shape-rendering="crispEdges" fill="rgb(57, 24, 32)"  x="26" y="13" width="1" height="1" /><rect shape-rendering="crispEdges" fill="rgb(148, 106, 123)"  x="26" y="14" width="1" height="1" /><rect shape-rendering="crispEdges" fill="rgb(74, 32, 41)"  x="26" y="15" width="1" height="1" /><rect shape-rendering="crispEdges" fill="rgb(65, 32, 41)"  x="26" y="16" width="1" height="1" /><rect shape-rendering="crispEdges" fill="rgb(222, 205, 197)"  x="26" y="17" width="1" height="1" /><rect shape-rendering="crispEdges" fill="rgb(189, 164, 164)"  x="26" y="18" width="1" height="1" /><rect shape-rendering="crispEdges" fill="rgb(205, 32, 32)"  x="26" y="19" width="1" height="1" /><rect shape-rendering="crispEdges" fill="rgb(57, 24, 32)"  x="26" y="20" width="1" height="1" /><rect shape-rendering="crispEdges" fill="rgb(57, 24, 32)"  x="26" y="21" width="1" height="1" /><rect shape-rendering="crispEdges" fill="rgb(148, 8, 74)"  x="26" y="22" width="1" height="1" /><rect shape-rendering="crispEdges" fill="rgb(57, 16, 41)"  x="26" y="23" width="1" height="1" /><rect shape-rendering="crispEdges" fill="rgb(41, 8, 16)"  x="26" y="27" width="1" height="1" /><rect shape-rendering="crispEdges" fill="rgb(49, 16, 24)"  x="26" y="28" width="1" height="1" /><rect shape-rendering="crispEdges" fill="rgb(65, 32, 32)"  x="27" y="14" width="1" height="1" /><rect shape-rendering="crispEdges" fill="rgb(57, 24, 32)"  x="27" y="15" width="1" height="1" /><rect shape-rendering="crispEdges" fill="rgb(148, 115, 123)"  x="27" y="16" width="1" height="1" /><rect shape-rendering="crispEdges" fill="rgb(65, 32, 32)"  x="27" y="17" width="1" height="1" /><rect shape-rendering="crispEdges" fill="rgb(65, 32, 32)"  x="27" y="18" width="1" height="1" /><rect shape-rendering="crispEdges" fill="rgb(255, 255, 32)"  x="27" y="19" width="1" height="1" /><rect shape-rendering="crispEdges" fill="rgb(222, 156, 16)"  x="27" y="20" width="1" height="1" /><rect shape-rendering="crispEdges" fill="rgb(205, 32, 32)"  x="27" y="21" width="1" height="1" /><rect shape-rendering="crispEdges" fill="rgb(57, 32, 32)"  x="27" y="22" width="1" height="1" /><rect shape-rendering="crispEdges" fill="rgb(65, 32, 32)"  x="27" y="23" width="1" height="1" /><rect shape-rendering="crispEdges" fill="rgb(156, 8, 65)"  x="27" y="24" width="1" height="1" /><rect shape-rendering="crispEdges" fill="rgb(65, 32, 32)"  x="28" y="16" width="1" height="1" /><rect shape-rendering="crispEdges" fill="rgb(57, 24, 32)"  x="28" y="17" width="1" height="1" /><rect shape-rendering="crispEdges" fill="rgb(205, 32, 32)"  x="28" y="18" width="1" height="1" /><rect shape-rendering="crispEdges" fill="rgb(246, 213, 16)"  x="28" y="19" width="1" height="1" /><rect shape-rendering="crispEdges" fill="rgb(238, 205, 16)"  x="28" y="20" width="1" height="1" /><rect shape-rendering="crispEdges" fill="rgb(222, 164, 24)"  x="28" y="21" width="1" height="1" /><rect shape-rendering="crispEdges" fill="rgb(205, 131, 16)"  x="28" y="22" width="1" height="1" /><rect shape-rendering="crispEdges" fill="rgb(205, 32, 32)"  x="28" y="23" width="1" height="1" /><rect shape-rendering="crispEdges" fill="rgb(205, 32, 32)"  x="29" y="18" width="1" height="1" /><rect shape-rendering="crispEdges" fill="rgb(57, 24, 24)"  x="29" y="19" width="1" height="1" /><rect shape-rendering="crispEdges" fill="rgb(205, 32, 32)"  x="29" y="20" width="1" height="1" /><rect shape-rendering="crispEdges" fill="rgb(255, 213, 16)"  x="29" y="21" width="1" height="1" /><rect shape-rendering="crispEdges" fill="rgb(230, 172, 16)"  x="29" y="22" width="1" height="1" /><rect shape-rendering="crispEdges" fill="rgb(205, 32, 32)"  x="29" y="23" width="1" height="1" /><rect shape-rendering="crispEdges" fill="rgb(65, 32, 32)"  x="30" y="20" width="1" height="1" /><rect shape-rendering="crispEdges" fill="rgb(65, 32, 32)"  x="30" y="21" width="1" height="1" /><rect shape-rendering="crispEdges" fill="rgb(205, 32, 32)"  x="30" y="22" width="1" height="1" /></svg>