<svg xmlns="http://www.w3.org/2000/svg" xmlns:xlink= "http://www.w3.org/1999/xlink" width="32" height="32" viewBox ="0 0 32 32"><rect shape-rendering="crispEdges" fill="rgb(98, 65, 16)"  x="1" y="20" width="1" height="1" /><rect shape-rendering="crispEdges" fill="rgb(123, 82, 32)"  x="1" y="21" width="1" height="1" /><rect shape-rendering="crispEdges" fill="rgb(98, 65, 16)"  x="1" y="22" width="1" height="1" /><rect shape-rendering="crispEdges" fill="rgb(74, 41, 24)"  x="2" y="19" width="1" height="1" /><rect shape-rendering="crispEdges" fill="rgb(139, 90, 32)"  x="2" y="20" width="1" height="1" /><rect shape-rendering="crispEdges" fill="rgb(148, 98, 41)"  x="2" y="21" width="1" height="1" /><rect shape-rendering="crispEdges" fill="rgb(139, 90, 32)"  x="2" y="22" width="1" height="1" /><rect shape-rendering="crispEdges" fill="rgb(98, 65, 16)"  x="2" y="23" width="1" height="1" /><rect shape-rendering="crispEdges" fill="rgb(74, 41, 24)"  x="3" y="18" width="1" height="1" /><rect shape-rendering="crispEdges" fill="rgb(90, 65, 16)"  x="3" y="19" width="1" height="1" /><rect shape-rendering="crispEdges" fill="rgb(82, 57, 16)"  x="3" y="20" width="1" height="1" /><rect shape-rendering="crispEdges" fill="rgb(115, 74, 32)"  x="3" y="21" width="1" height="1" /><rect shape-rendering="crispEdges" fill="rgb(139, 90, 41)"  x="3" y="22" width="1" height="1" /><rect shape-rendering="crispEdges" fill="rgb(123, 82, 24)"  x="3" y="23" width="1" height="1" /><rect shape-rendering="crispEdges" fill="rgb(98, 65, 16)"  x="3" y="24" width="1" height="1" /><rect shape-rendering="crispEdges" fill="rgb(74, 41, 24)"  x="4" y="17" width="1" height="1" /><rect shape-rendering="crispEdges" fill="rgb(90, 65, 16)"  x="4" y="18" width="1" height="1" /><rect shape-rendering="crispEdges" fill="rgb(98, 57, 32)"  x="4" y="19" width="1" height="1" /><rect shape-rendering="crispEdges" fill="rgb(98, 57, 32)"  x="4" y="20" width="1" height="1" /><rect shape-rendering="crispEdges" fill="rgb(98, 65, 16)"  x="4" y="21" width="1" height="1" /><rect shape-rendering="crispEdges" fill="rgb(131, 82, 32)"  x="4" y="22" width="1" height="1" /><rect shape-rendering="crispEdges" fill="rgb(131, 82, 32)"  x="4" y="23" width="1" height="1" /><rect shape-rendering="crispEdges" fill="rgb(106, 74, 16)"  x="4" y="24" width="1" height="1" /><rect shape-rendering="crispEdges" fill="rgb(74, 57, 16)"  x="4" y="25" width="1" height="1" /><rect shape-rendering="crispEdges" fill="rgb(57, 41, 16)"  x="5" y="15" width="1" height="1" /><rect shape-rendering="crispEdges" fill="rgb(90, 65, 16)"  x="5" y="16" width="1" height="1" /><rect shape-rendering="crispEdges" fill="rgb(98, 65, 16)"  x="5" y="17" width="1" height="1" /><rect shape-rendering="crispEdges" fill="rgb(82, 57, 24)"  x="5" y="18" width="1" height="1" /><rect shape-rendering="crispEdges" fill="rgb(156, 82, 65)"  x="5" y="19" width="1" height="1" /><rect shape-rendering="crispEdges" fill="rgb(139, 74, 57)"  x="5" y="20" width="1" height="1" /><rect shape-rendering="crispEdges" fill="rgb(98, 57, 24)"  x="5" y="21" width="1" height="1" /><rect shape-rendering="crispEdges" fill="rgb(106, 74, 24)"  x="5" y="22" width="1" height="1" /><rect shape-rendering="crispEdges" fill="rgb(131, 82, 32)"  x="5" y="23" width="1" height="1" /><rect shape-rendering="crispEdges" fill="rgb(123, 82, 24)"  x="5" y="24" width="1" height="1" /><rect shape-rendering="crispEdges" fill="rgb(98, 65, 16)"  x="5" y="25" width="1" height="1" /><rect shape-rendering="crispEdges" fill="rgb(98, 65, 16)"  x="6" y="13" width="1" height="1" /><rect shape-rendering="crispEdges" fill="rgb(131, 90, 32)"  x="6" y="14" width="1" height="1" /><rect shape-rendering="crispEdges" fill="rgb(123, 82, 24)"  x="6" y="15" width="1" height="1" /><rect shape-rendering="crispEdges" fill="rgb(106, 74, 24)"  x="6" y="16" width="1" height="1" /><rect shape-rendering="crispEdges" fill="rgb(106, 74, 24)"  x="6" y="17" width="1" height="1" /><rect shape-rendering="crispEdges" fill="rgb(82, 57, 8)"  x="6" y="18" width="1" height="1" /><rect shape-rendering="crispEdges" fill="rgb(123, 74, 41)"  x="6" y="19" width="1" height="1" /><rect shape-rendering="crispEdges" fill="rgb(156, 98, 65)"  x="6" y="20" width="1" height="1" /><rect shape-rendering="crispEdges" fill="rgb(131, 74, 49)"  x="6" y="21" width="1" height="1" /><rect shape-rendering="crispEdges" fill="rgb(82, 57, 16)"  x="6" y="22" width="1" height="1" /><rect shape-rendering="crispEdges" fill="rgb(131, 90, 41)"  x="6" y="23" width="1" height="1" /><rect shape-rendering="crispEdges" fill="rgb(115, 74, 24)"  x="6" y="24" width="1" height="1" /><rect shape-rendering="crispEdges" fill="rgb(90, 57, 16)"  x="6" y="25" width="1" height="1" /><rect shape-rendering="crispEdges" fill="rgb(90, 65, 16)"  x="7" y="10" width="1" height="1" /><rect shape-rendering="crispEdges" fill="rgb(90, 57, 16)"  x="7" y="11" width="1" height="1" /><rect shape-rendering="crispEdges" fill="rgb(131, 90, 24)"  x="7" y="12" width="1" height="1" /><rect shape-rendering="crispEdges" fill="rgb(123, 82, 24)"  x="7" y="13" width="1" height="1" /><rect shape-rendering="crispEdges" fill="rgb(106, 74, 24)"  x="7" y="14" width="1" height="1" /><rect shape-rendering="crispEdges" fill="rgb(106, 74, 24)"  x="7" y="15" width="1" height="1" /><rect shape-rendering="crispEdges" fill="rgb(106, 65, 24)"  x="7" y="16" width="1" height="1" /><rect shape-rendering="crispEdges" fill="rgb(106, 65, 24)"  x="7" y="17" width="1" height="1" /><rect shape-rendering="crispEdges" fill="rgb(98, 65, 16)"  x="7" y="18" width="1" height="1" /><rect shape-rendering="crispEdges" fill="rgb(74, 49, 8)"  x="7" y="19" width="1" height="1" /><rect shape-rendering="crispEdges" fill="rgb(131, 74, 57)"  x="7" y="20" width="1" height="1" /><rect shape-rendering="crispEdges" fill="rgb(156, 98, 65)"  x="7" y="21" width="1" height="1" /><rect shape-rendering="crispEdges" fill="rgb(106, 65, 32)"  x="7" y="22" width="1" height="1" /><rect shape-rendering="crispEdges" fill="rgb(115, 82, 32)"  x="7" y="23" width="1" height="1" /><rect shape-rendering="crispEdges" fill="rgb(115, 82, 24)"  x="7" y="24" width="1" height="1" /><rect shape-rendering="crispEdges" fill="rgb(98, 65, 24)"  x="7" y="25" width="1" height="1" /><rect shape-rendering="crispEdges" fill="rgb(74, 57, 16)"  x="7" y="26" width="1" height="1" /><rect shape-rendering="crispEdges" fill="rgb(90, 65, 16)"  x="8" y="9" width="1" height="1" /><rect shape-rendering="crispEdges" fill="rgb(139, 90, 24)"  x="8" y="10" width="1" height="1" /><rect shape-rendering="crispEdges" fill="rgb(123, 82, 24)"  x="8" y="11" width="1" height="1" /><rect shape-rendering="crispEdges" fill="rgb(106, 74, 24)"  x="8" y="12" width="1" height="1" /><rect shape-rendering="crispEdges" fill="rgb(115, 74, 24)"  x="8" y="13" width="1" height="1" /><rect shape-rendering="crispEdges" fill="rgb(106, 74, 24)"  x="8" y="14" width="1" height="1" /><rect shape-rendering="crispEdges" fill="rgb(106, 74, 24)"  x="8" y="15" width="1" height="1" /><rect shape-rendering="crispEdges" fill="rgb(106, 65, 24)"  x="8" y="16" width="1" height="1" /><rect shape-rendering="crispEdges" fill="rgb(98, 74, 16)"  x="8" y="17" width="1" height="1" /><rect shape-rendering="crispEdges" fill="rgb(98, 65, 24)"  x="8" y="18" width="1" height="1" /><rect shape-rendering="crispEdges" fill="rgb(74, 41, 8)"  x="8" y="19" width="1" height="1" /><rect shape-rendering="crispEdges" fill="rgb(98, 57, 32)"  x="8" y="20" width="1" height="1" /><rect shape-rendering="crispEdges" fill="rgb(139, 82, 57)"  x="8" y="21" width="1" height="1" /><rect shape-rendering="crispEdges" fill="rgb(106, 65, 32)"  x="8" y="22" width="1" height="1" /><rect shape-rendering="crispEdges" fill="rgb(106, 74, 24)"  x="8" y="23" width="1" height="1" /><rect shape-rendering="crispEdges" fill="rgb(115, 74, 32)"  x="8" y="24" width="1" height="1" /><rect shape-rendering="crispEdges" fill="rgb(98, 65, 16)"  x="8" y="25" width="1" height="1" /><rect shape-rendering="crispEdges" fill="rgb(65, 24, 32)"  x="8" y="26" width="1" height="1" /><rect shape-rendering="crispEdges" fill="rgb(90, 57, 16)"  x="9" y="8" width="1" height="1" /><rect shape-rendering="crispEdges" fill="rgb(131, 82, 32)"  x="9" y="9" width="1" height="1" /><rect shape-rendering="crispEdges" fill="rgb(106, 74, 24)"  x="9" y="10" width="1" height="1" /><rect shape-rendering="crispEdges" fill="rgb(106, 74, 16)"  x="9" y="11" width="1" height="1" /><rect shape-rendering="crispEdges" fill="rgb(106, 74, 24)"  x="9" y="12" width="1" height="1" /><rect shape-rendering="crispEdges" fill="rgb(106, 74, 24)"  x="9" y="13" width="1" height="1" /><rect shape-rendering="crispEdges" fill="rgb(106, 74, 24)"  x="9" y="14" width="1" height="1" /><rect shape-rendering="crispEdges" fill="rgb(106, 74, 24)"  x="9" y="15" width="1" height="1" /><rect shape-rendering="crispEdges" fill="rgb(106, 74, 24)"  x="9" y="16" width="1" height="1" /><rect shape-rendering="crispEdges" fill="rgb(106, 65, 16)"  x="9" y="17" width="1" height="1" /><rect shape-rendering="crispEdges" fill="rgb(98, 65, 24)"  x="9" y="18" width="1" height="1" /><rect shape-rendering="crispEdges" fill="rgb(82, 57, 8)"  x="9" y="19" width="1" height="1" /><rect shape-rendering="crispEdges" fill="rgb(106, 65, 32)"  x="9" y="20" width="1" height="1" /><rect shape-rendering="crispEdges" fill="rgb(156, 90, 65)"  x="9" y="21" width="1" height="1" /><rect shape-rendering="crispEdges" fill="rgb(123, 74, 49)"  x="9" y="22" width="1" height="1" /><rect shape-rendering="crispEdges" fill="rgb(98, 65, 16)"  x="9" y="23" width="1" height="1" /><rect shape-rendering="crispEdges" fill="rgb(123, 82, 32)"  x="9" y="24" width="1" height="1" /><rect shape-rendering="crispEdges" fill="rgb(106, 65, 24)"  x="9" y="25" width="1" height="1" /><rect shape-rendering="crispEdges" fill="rgb(57, 32, 16)"  x="9" y="26" width="1" height="1" /><rect shape-rendering="crispEdges" fill="rgb(82, 57, 16)"  x="10" y="7" width="1" height="1" /><rect shape-rendering="crispEdges" fill="rgb(131, 82, 24)"  x="10" y="8" width="1" height="1" /><rect shape-rendering="crispEdges" fill="rgb(106, 74, 24)"  x="10" y="9" width="1" height="1" /><rect shape-rendering="crispEdges" fill="rgb(115, 74, 24)"  x="10" y="10" width="1" height="1" /><rect shape-rendering="crispEdges" fill="rgb(115, 74, 24)"  x="10" y="11" width="1" height="1" /><rect shape-rendering="crispEdges" fill="rgb(115, 74, 24)"  x="10" y="12" width="1" height="1" /><rect shape-rendering="crispEdges" fill="rgb(106, 74, 24)"  x="10" y="13" width="1" height="1" /><rect shape-rendering="crispEdges" fill="rgb(106, 74, 24)"  x="10" y="14" width="1" height="1" /><rect shape-rendering="crispEdges" fill="rgb(106, 74, 24)"  x="10" y="15" width="1" height="1" /><rect shape-rendering="crispEdges" fill="rgb(106, 65, 24)"  x="10" y="16" width="1" height="1" /><rect shape-rendering="crispEdges" fill="rgb(106, 65, 16)"  x="10" y="17" width="1" height="1" /><rect shape-rendering="crispEdges" fill="rgb(98, 65, 24)"  x="10" y="18" width="1" height="1" /><rect shape-rendering="crispEdges" fill="rgb(90, 65, 16)"  x="10" y="19" width="1" height="1" /><rect shape-rendering="crispEdges" fill="rgb(74, 49, 16)"  x="10" y="20" width="1" height="1" /><rect shape-rendering="crispEdges" fill="rgb(115, 57, 41)"  x="10" y="21" width="1" height="1" /><rect shape-rendering="crispEdges" fill="rgb(156, 90, 65)"  x="10" y="22" width="1" height="1" /><rect shape-rendering="crispEdges" fill="rgb(90, 57, 24)"  x="10" y="23" width="1" height="1" /><rect shape-rendering="crispEdges" fill="rgb(123, 82, 32)"  x="10" y="24" width="1" height="1" /><rect shape-rendering="crispEdges" fill="rgb(106, 74, 24)"  x="10" y="25" width="1" height="1" /><rect shape-rendering="crispEdges" fill="rgb(65, 41, 16)"  x="10" y="26" width="1" height="1" /><rect shape-rendering="crispEdges" fill="rgb(98, 65, 16)"  x="11" y="7" width="1" height="1" /><rect shape-rendering="crispEdges" fill="rgb(115, 74, 24)"  x="11" y="8" width="1" height="1" /><rect shape-rendering="crispEdges" fill="rgb(115, 74, 24)"  x="11" y="9" width="1" height="1" /><rect shape-rendering="crispEdges" fill="rgb(115, 74, 24)"  x="11" y="10" width="1" height="1" /><rect shape-rendering="crispEdges" fill="rgb(115, 74, 24)"  x="11" y="11" width="1" height="1" /><rect shape-rendering="crispEdges" fill="rgb(115, 74, 24)"  x="11" y="12" width="1" height="1" /><rect shape-rendering="crispEdges" fill="rgb(115, 74, 24)"  x="11" y="13" width="1" height="1" /><rect shape-rendering="crispEdges" fill="rgb(106, 74, 24)"  x="11" y="14" width="1" height="1" /><rect shape-rendering="crispEdges" fill="rgb(106, 65, 24)"  x="11" y="15" width="1" height="1" /><rect shape-rendering="crispEdges" fill="rgb(106, 65, 24)"  x="11" y="16" width="1" height="1" /><rect shape-rendering="crispEdges" fill="rgb(106, 65, 16)"  x="11" y="17" width="1" height="1" /><rect shape-rendering="crispEdges" fill="rgb(98, 65, 16)"  x="11" y="18" width="1" height="1" /><rect shape-rendering="crispEdges" fill="rgb(90, 57, 16)"  x="11" y="19" width="1" height="1" /><rect shape-rendering="crispEdges" fill="rgb(82, 49, 16)"  x="11" y="20" width="1" height="1" /><rect shape-rendering="crispEdges" fill="rgb(139, 74, 49)"  x="11" y="21" width="1" height="1" /><rect shape-rendering="crispEdges" fill="rgb(148, 90, 65)"  x="11" y="22" width="1" height="1" /><rect shape-rendering="crispEdges" fill="rgb(98, 65, 24)"  x="11" y="23" width="1" height="1" /><rect shape-rendering="crispEdges" fill="rgb(123, 90, 41)"  x="11" y="24" width="1" height="1" /><rect shape-rendering="crispEdges" fill="rgb(115, 74, 24)"  x="11" y="25" width="1" height="1" /><rect shape-rendering="crispEdges" fill="rgb(74, 57, 16)"  x="11" y="26" width="1" height="1" /><rect shape-rendering="crispEdges" fill="rgb(74, 49, 16)"  x="11" y="27" width="1" height="1" /><rect shape-rendering="crispEdges" fill="rgb(90, 57, 16)"  x="12" y="7" width="1" height="1" /><rect shape-rendering="crispEdges" fill="rgb(106, 74, 24)"  x="12" y="8" width="1" height="1" /><rect shape-rendering="crispEdges" fill="rgb(115, 74, 24)"  x="12" y="9" width="1" height="1" /><rect shape-rendering="crispEdges" fill="rgb(115, 74, 24)"  x="12" y="10" width="1" height="1" /><rect shape-rendering="crispEdges" fill="rgb(115, 74, 24)"  x="12" y="11" width="1" height="1" /><rect shape-rendering="crispEdges" fill="rgb(115, 74, 24)"  x="12" y="12" width="1" height="1" /><rect shape-rendering="crispEdges" fill="rgb(115, 74, 24)"  x="12" y="13" width="1" height="1" /><rect shape-rendering="crispEdges" fill="rgb(106, 74, 24)"  x="12" y="14" width="1" height="1" /><rect shape-rendering="crispEdges" fill="rgb(106, 74, 24)"  x="12" y="15" width="1" height="1" /><rect shape-rendering="crispEdges" fill="rgb(106, 65, 24)"  x="12" y="16" width="1" height="1" /><rect shape-rendering="crispEdges" fill="rgb(106, 74, 24)"  x="12" y="17" width="1" height="1" /><rect shape-rendering="crispEdges" fill="rgb(98, 65, 24)"  x="12" y="18" width="1" height="1" /><rect shape-rendering="crispEdges" fill="rgb(90, 57, 16)"  x="12" y="19" width="1" height="1" /><rect shape-rendering="crispEdges" fill="rgb(82, 57, 24)"  x="12" y="20" width="1" height="1" /><rect shape-rendering="crispEdges" fill="rgb(156, 98, 65)"  x="12" y="21" width="1" height="1" /><rect shape-rendering="crispEdges" fill="rgb(123, 65, 41)"  x="12" y="22" width="1" height="1" /><rect shape-rendering="crispEdges" fill="rgb(98, 57, 24)"  x="12" y="23" width="1" height="1" /><rect shape-rendering="crispEdges" fill="rgb(123, 90, 32)"  x="12" y="24" width="1" height="1" /><rect shape-rendering="crispEdges" fill="rgb(115, 74, 24)"  x="12" y="25" width="1" height="1" /><rect shape-rendering="crispEdges" fill="rgb(82, 57, 16)"  x="12" y="26" width="1" height="1" /><rect shape-rendering="crispEdges" fill="rgb(57, 32, 16)"  x="12" y="27" width="1" height="1" /><rect shape-rendering="crispEdges" fill="rgb(90, 57, 16)"  x="13" y="7" width="1" height="1" /><rect shape-rendering="crispEdges" fill="rgb(106, 65, 24)"  x="13" y="8" width="1" height="1" /><rect shape-rendering="crispEdges" fill="rgb(106, 74, 24)"  x="13" y="9" width="1" height="1" /><rect shape-rendering="crispEdges" fill="rgb(115, 74, 24)"  x="13" y="10" width="1" height="1" /><rect shape-rendering="crispEdges" fill="rgb(115, 74, 24)"  x="13" y="11" width="1" height="1" /><rect shape-rendering="crispEdges" fill="rgb(115, 74, 24)"  x="13" y="12" width="1" height="1" /><rect shape-rendering="crispEdges" fill="rgb(106, 74, 24)"  x="13" y="13" width="1" height="1" /><rect shape-rendering="crispEdges" fill="rgb(106, 74, 24)"  x="13" y="14" width="1" height="1" /><rect shape-rendering="crispEdges" fill="rgb(106, 74, 24)"  x="13" y="15" width="1" height="1" /><rect shape-rendering="crispEdges" fill="rgb(106, 74, 24)"  x="13" y="16" width="1" height="1" /><rect shape-rendering="crispEdges" fill="rgb(106, 74, 24)"  x="13" y="17" width="1" height="1" /><rect shape-rendering="crispEdges" fill="rgb(98, 74, 16)"  x="13" y="18" width="1" height="1" /><rect shape-rendering="crispEdges" fill="rgb(90, 57, 16)"  x="13" y="19" width="1" height="1" /><rect shape-rendering="crispEdges" fill="rgb(74, 41, 16)"  x="13" y="20" width="1" height="1" /><rect shape-rendering="crispEdges" fill="rgb(106, 57, 32)"  x="13" y="21" width="1" height="1" /><rect shape-rendering="crispEdges" fill="rgb(156, 90, 74)"  x="13" y="22" width="1" height="1" /><rect shape-rendering="crispEdges" fill="rgb(106, 65, 32)"  x="13" y="23" width="1" height="1" /><rect shape-rendering="crispEdges" fill="rgb(123, 82, 32)"  x="13" y="24" width="1" height="1" /><rect shape-rendering="crispEdges" fill="rgb(115, 74, 32)"  x="13" y="25" width="1" height="1" /><rect shape-rendering="crispEdges" fill="rgb(82, 57, 16)"  x="13" y="26" width="1" height="1" /><rect shape-rendering="crispEdges" fill="rgb(57, 32, 16)"  x="13" y="27" width="1" height="1" /><rect shape-rendering="crispEdges" fill="rgb(90, 57, 16)"  x="14" y="7" width="1" height="1" /><rect shape-rendering="crispEdges" fill="rgb(98, 65, 24)"  x="14" y="8" width="1" height="1" /><rect shape-rendering="crispEdges" fill="rgb(115, 74, 24)"  x="14" y="9" width="1" height="1" /><rect shape-rendering="crispEdges" fill="rgb(115, 74, 32)"  x="14" y="10" width="1" height="1" /><rect shape-rendering="crispEdges" fill="rgb(115, 74, 16)"  x="14" y="11" width="1" height="1" /><rect shape-rendering="crispEdges" fill="rgb(106, 74, 16)"  x="14" y="12" width="1" height="1" /><rect shape-rendering="crispEdges" fill="rgb(98, 74, 24)"  x="14" y="13" width="1" height="1" /><rect shape-rendering="crispEdges" fill="rgb(106, 74, 24)"  x="14" y="14" width="1" height="1" /><rect shape-rendering="crispEdges" fill="rgb(106, 74, 24)"  x="14" y="15" width="1" height="1" /><rect shape-rendering="crispEdges" fill="rgb(106, 74, 24)"  x="14" y="16" width="1" height="1" /><rect shape-rendering="crispEdges" fill="rgb(106, 65, 24)"  x="14" y="17" width="1" height="1" /><rect shape-rendering="crispEdges" fill="rgb(106, 65, 16)"  x="14" y="18" width="1" height="1" /><rect shape-rendering="crispEdges" fill="rgb(98, 65, 16)"  x="14" y="19" width="1" height="1" /><rect shape-rendering="crispEdges" fill="rgb(82, 41, 8)"  x="14" y="20" width="1" height="1" /><rect shape-rendering="crispEdges" fill="rgb(156, 90, 65)"  x="14" y="21" width="1" height="1" /><rect shape-rendering="crispEdges" fill="rgb(115, 57, 41)"  x="14" y="22" width="1" height="1" /><rect shape-rendering="crispEdges" fill="rgb(106, 65, 32)"  x="14" y="23" width="1" height="1" /><rect shape-rendering="crispEdges" fill="rgb(131, 90, 32)"  x="14" y="24" width="1" height="1" /><rect shape-rendering="crispEdges" fill="rgb(115, 74, 24)"  x="14" y="25" width="1" height="1" /><rect shape-rendering="crispEdges" fill="rgb(82, 57, 16)"  x="14" y="26" width="1" height="1" /><rect shape-rendering="crispEdges" fill="rgb(57, 32, 16)"  x="14" y="27" width="1" height="1" /><rect shape-rendering="crispEdges" fill="rgb(65, 41, 8)"  x="15" y="7" width="1" height="1" /><rect shape-rendering="crispEdges" fill="rgb(98, 65, 24)"  x="15" y="8" width="1" height="1" /><rect shape-rendering="crispEdges" fill="rgb(115, 74, 24)"  x="15" y="9" width="1" height="1" /><rect shape-rendering="crispEdges" fill="rgb(115, 74, 24)"  x="15" y="10" width="1" height="1" /><rect shape-rendering="crispEdges" fill="rgb(106, 74, 16)"  x="15" y="11" width="1" height="1" /><rect shape-rendering="crispEdges" fill="rgb(106, 74, 24)"  x="15" y="12" width="1" height="1" /><rect shape-rendering="crispEdges" fill="rgb(115, 74, 24)"  x="15" y="13" width="1" height="1" /><rect shape-rendering="crispEdges" fill="rgb(115, 74, 24)"  x="15" y="14" width="1" height="1" /><rect shape-rendering="crispEdges" fill="rgb(115, 74, 24)"  x="15" y="15" width="1" height="1" /><rect shape-rendering="crispEdges" fill="rgb(106, 74, 24)"  x="15" y="16" width="1" height="1" /><rect shape-rendering="crispEdges" fill="rgb(106, 65, 24)"  x="15" y="17" width="1" height="1" /><rect shape-rendering="crispEdges" fill="rgb(106, 65, 24)"  x="15" y="18" width="1" height="1" /><rect shape-rendering="crispEdges" fill="rgb(98, 65, 16)"  x="15" y="19" width="1" height="1" /><rect shape-rendering="crispEdges" fill="rgb(90, 57, 16)"  x="15" y="20" width="1" height="1" /><rect shape-rendering="crispEdges" fill="rgb(123, 74, 49)"  x="15" y="21" width="1" height="1" /><rect shape-rendering="crispEdges" fill="rgb(139, 74, 57)"  x="15" y="22" width="1" height="1" /><rect shape-rendering="crispEdges" fill="rgb(106, 65, 32)"  x="15" y="23" width="1" height="1" /><rect shape-rendering="crispEdges" fill="rgb(123, 82, 32)"  x="15" y="24" width="1" height="1" /><rect shape-rendering="crispEdges" fill="rgb(115, 74, 24)"  x="15" y="25" width="1" height="1" /><rect shape-rendering="crispEdges" fill="rgb(82, 49, 16)"  x="15" y="26" width="1" height="1" /><rect shape-rendering="crispEdges" fill="rgb(57, 32, 16)"  x="15" y="27" width="1" height="1" /><rect shape-rendering="crispEdges" fill="rgb(57, 32, 8)"  x="16" y="7" width="1" height="1" /><rect shape-rendering="crispEdges" fill="rgb(106, 74, 24)"  x="16" y="8" width="1" height="1" /><rect shape-rendering="crispEdges" fill="rgb(115, 74, 24)"  x="16" y="9" width="1" height="1" /><rect shape-rendering="crispEdges" fill="rgb(115, 74, 24)"  x="16" y="10" width="1" height="1" /><rect shape-rendering="crispEdges" fill="rgb(115, 74, 24)"  x="16" y="11" width="1" height="1" /><rect shape-rendering="crispEdges" fill="rgb(115, 74, 24)"  x="16" y="12" width="1" height="1" /><rect shape-rendering="crispEdges" fill="rgb(106, 74, 24)"  x="16" y="13" width="1" height="1" /><rect shape-rendering="crispEdges" fill="rgb(115, 74, 24)"  x="16" y="14" width="1" height="1" /><rect shape-rendering="crispEdges" fill="rgb(115, 74, 24)"  x="16" y="15" width="1" height="1" /><rect shape-rendering="crispEdges" fill="rgb(115, 74, 24)"  x="16" y="16" width="1" height="1" /><rect shape-rendering="crispEdges" fill="rgb(106, 74, 24)"  x="16" y="17" width="1" height="1" /><rect shape-rendering="crispEdges" fill="rgb(106, 65, 24)"  x="16" y="18" width="1" height="1" /><rect shape-rendering="crispEdges" fill="rgb(106, 65, 16)"  x="16" y="19" width="1" height="1" /><rect shape-rendering="crispEdges" fill="rgb(90, 57, 8)"  x="16" y="20" width="1" height="1" /><rect shape-rendering="crispEdges" fill="rgb(156, 90, 65)"  x="16" y="21" width="1" height="1" /><rect shape-rendering="crispEdges" fill="rgb(123, 65, 49)"  x="16" y="22" width="1" height="1" /><rect shape-rendering="crispEdges" fill="rgb(106, 65, 24)"  x="16" y="23" width="1" height="1" /><rect shape-rendering="crispEdges" fill="rgb(123, 82, 32)"  x="16" y="24" width="1" height="1" /><rect shape-rendering="crispEdges" fill="rgb(123, 74, 32)"  x="16" y="25" width="1" height="1" /><rect shape-rendering="crispEdges" fill="rgb(74, 41, 8)"  x="16" y="26" width="1" height="1" /><rect shape-rendering="crispEdges" fill="rgb(57, 32, 16)"  x="16" y="27" width="1" height="1" /><rect shape-rendering="crispEdges" fill="rgb(65, 41, 16)"  x="17" y="7" width="1" height="1" /><rect shape-rendering="crispEdges" fill="rgb(106, 65, 24)"  x="17" y="8" width="1" height="1" /><rect shape-rendering="crispEdges" fill="rgb(123, 74, 24)"  x="17" y="9" width="1" height="1" /><rect shape-rendering="crispEdges" fill="rgb(115, 74, 24)"  x="17" y="10" width="1" height="1" /><rect shape-rendering="crispEdges" fill="rgb(115, 74, 24)"  x="17" y="11" width="1" height="1" /><rect shape-rendering="crispEdges" fill="rgb(106, 74, 24)"  x="17" y="12" width="1" height="1" /><rect shape-rendering="crispEdges" fill="rgb(106, 74, 24)"  x="17" y="13" width="1" height="1" /><rect shape-rendering="crispEdges" fill="rgb(106, 74, 24)"  x="17" y="14" width="1" height="1" /><rect shape-rendering="crispEdges" fill="rgb(106, 74, 24)"  x="17" y="15" width="1" height="1" /><rect shape-rendering="crispEdges" fill="rgb(106, 74, 24)"  x="17" y="16" width="1" height="1" /><rect shape-rendering="crispEdges" fill="rgb(106, 65, 24)"  x="17" y="17" width="1" height="1" /><rect shape-rendering="crispEdges" fill="rgb(98, 65, 16)"  x="17" y="18" width="1" height="1" /><rect shape-rendering="crispEdges" fill="rgb(98, 65, 16)"  x="17" y="19" width="1" height="1" /><rect shape-rendering="crispEdges" fill="rgb(90, 57, 16)"  x="17" y="20" width="1" height="1" /><rect shape-rendering="crispEdges" fill="rgb(123, 65, 49)"  x="17" y="21" width="1" height="1" /><rect shape-rendering="crispEdges" fill="rgb(123, 57, 49)"  x="17" y="22" width="1" height="1" /><rect shape-rendering="crispEdges" fill="rgb(98, 57, 24)"  x="17" y="23" width="1" height="1" /><rect shape-rendering="crispEdges" fill="rgb(131, 90, 32)"  x="17" y="24" width="1" height="1" /><rect shape-rendering="crispEdges" fill="rgb(106, 74, 24)"  x="17" y="25" width="1" height="1" /><rect shape-rendering="crispEdges" fill="rgb(74, 49, 16)"  x="17" y="26" width="1" height="1" /><rect shape-rendering="crispEdges" fill="rgb(57, 32, 16)"  x="17" y="27" width="1" height="1" /><rect shape-rendering="crispEdges" fill="rgb(65, 32, 32)"  x="18" y="7" width="1" height="1" /><rect shape-rendering="crispEdges" fill="rgb(115, 74, 24)"  x="18" y="8" width="1" height="1" /><rect shape-rendering="crispEdges" fill="rgb(106, 74, 24)"  x="18" y="9" width="1" height="1" /><rect shape-rendering="crispEdges" fill="rgb(106, 74, 24)"  x="18" y="10" width="1" height="1" /><rect shape-rendering="crispEdges" fill="rgb(106, 74, 24)"  x="18" y="11" width="1" height="1" /><rect shape-rendering="crispEdges" fill="rgb(106, 65, 24)"  x="18" y="12" width="1" height="1" /><rect shape-rendering="crispEdges" fill="rgb(106, 74, 24)"  x="18" y="13" width="1" height="1" /><rect shape-rendering="crispEdges" fill="rgb(106, 74, 24)"  x="18" y="14" width="1" height="1" /><rect shape-rendering="crispEdges" fill="rgb(106, 74, 24)"  x="18" y="15" width="1" height="1" /><rect shape-rendering="crispEdges" fill="rgb(106, 74, 24)"  x="18" y="16" width="1" height="1" /><rect shape-rendering="crispEdges" fill="rgb(106, 65, 24)"  x="18" y="17" width="1" height="1" /><rect shape-rendering="crispEdges" fill="rgb(98, 65, 24)"  x="18" y="18" width="1" height="1" /><rect shape-rendering="crispEdges" fill="rgb(90, 65, 16)"  x="18" y="19" width="1" height="1" /><rect shape-rendering="crispEdges" fill="rgb(90, 57, 32)"  x="18" y="20" width="1" height="1" /><rect shape-rendering="crispEdges" fill="rgb(148, 90, 57)"  x="18" y="21" width="1" height="1" /><rect shape-rendering="crispEdges" fill="rgb(139, 74, 57)"  x="18" y="22" width="1" height="1" /><rect shape-rendering="crispEdges" fill="rgb(106, 65, 32)"  x="18" y="23" width="1" height="1" /><rect shape-rendering="crispEdges" fill="rgb(131, 82, 32)"  x="18" y="24" width="1" height="1" /><rect shape-rendering="crispEdges" fill="rgb(106, 74, 24)"  x="18" y="25" width="1" height="1" /><rect shape-rendering="crispEdges" fill="rgb(65, 41, 16)"  x="18" y="26" width="1" height="1" /><rect shape-rendering="crispEdges" fill="rgb(74, 49, 16)"  x="18" y="27" width="1" height="1" /><rect shape-rendering="crispEdges" fill="rgb(90, 57, 16)"  x="19" y="8" width="1" height="1" /><rect shape-rendering="crispEdges" fill="rgb(98, 65, 24)"  x="19" y="9" width="1" height="1" /><rect shape-rendering="crispEdges" fill="rgb(106, 65, 16)"  x="19" y="10" width="1" height="1" /><rect shape-rendering="crispEdges" fill="rgb(106, 65, 24)"  x="19" y="11" width="1" height="1" /><rect shape-rendering="crispEdges" fill="rgb(98, 65, 24)"  x="19" y="12" width="1" height="1" /><rect shape-rendering="crispEdges" fill="rgb(98, 65, 24)"  x="19" y="13" width="1" height="1" /><rect shape-rendering="crispEdges" fill="rgb(106, 74, 24)"  x="19" y="14" width="1" height="1" /><rect shape-rendering="crispEdges" fill="rgb(106, 74, 24)"  x="19" y="15" width="1" height="1" /><rect shape-rendering="crispEdges" fill="rgb(106, 65, 24)"  x="19" y="16" width="1" height="1" /><rect shape-rendering="crispEdges" fill="rgb(98, 65, 16)"  x="19" y="17" width="1" height="1" /><rect shape-rendering="crispEdges" fill="rgb(98, 65, 16)"  x="19" y="18" width="1" height="1" /><rect shape-rendering="crispEdges" fill="rgb(90, 57, 16)"  x="19" y="19" width="1" height="1" /><rect shape-rendering="crispEdges" fill="rgb(82, 49, 16)"  x="19" y="20" width="1" height="1" /><rect shape-rendering="crispEdges" fill="rgb(131, 74, 49)"  x="19" y="21" width="1" height="1" /><rect shape-rendering="crispEdges" fill="rgb(106, 57, 41)"  x="19" y="22" width="1" height="1" /><rect shape-rendering="crispEdges" fill="rgb(98, 65, 24)"  x="19" y="23" width="1" height="1" /><rect shape-rendering="crispEdges" fill="rgb(131, 90, 32)"  x="19" y="24" width="1" height="1" /><rect shape-rendering="crispEdges" fill="rgb(115, 74, 24)"  x="19" y="25" width="1" height="1" /><rect shape-rendering="crispEdges" fill="rgb(57, 32, 8)"  x="19" y="26" width="1" height="1" /><rect shape-rendering="crispEdges" fill="rgb(65, 41, 8)"  x="20" y="8" width="1" height="1" /><rect shape-rendering="crispEdges" fill="rgb(123, 74, 24)"  x="20" y="9" width="1" height="1" /><rect shape-rendering="crispEdges" fill="rgb(98, 65, 16)"  x="20" y="10" width="1" height="1" /><rect shape-rendering="crispEdges" fill="rgb(90, 57, 16)"  x="20" y="11" width="1" height="1" /><rect shape-rendering="crispEdges" fill="rgb(98, 65, 16)"  x="20" y="12" width="1" height="1" /><rect shape-rendering="crispEdges" fill="rgb(106, 65, 16)"  x="20" y="13" width="1" height="1" /><rect shape-rendering="crispEdges" fill="rgb(106, 65, 24)"  x="20" y="14" width="1" height="1" /><rect shape-rendering="crispEdges" fill="rgb(98, 65, 24)"  x="20" y="15" width="1" height="1" /><rect shape-rendering="crispEdges" fill="rgb(98, 65, 24)"  x="20" y="16" width="1" height="1" /><rect shape-rendering="crispEdges" fill="rgb(98, 65, 24)"  x="20" y="17" width="1" height="1" /><rect shape-rendering="crispEdges" fill="rgb(98, 65, 16)"  x="20" y="18" width="1" height="1" /><rect shape-rendering="crispEdges" fill="rgb(82, 49, 8)"  x="20" y="19" width="1" height="1" /><rect shape-rendering="crispEdges" fill="rgb(98, 57, 32)"  x="20" y="20" width="1" height="1" /><rect shape-rendering="crispEdges" fill="rgb(131, 65, 49)"  x="20" y="21" width="1" height="1" /><rect shape-rendering="crispEdges" fill="rgb(131, 74, 49)"  x="20" y="22" width="1" height="1" /><rect shape-rendering="crispEdges" fill="rgb(90, 57, 16)"  x="20" y="23" width="1" height="1" /><rect shape-rendering="crispEdges" fill="rgb(131, 90, 32)"  x="20" y="24" width="1" height="1" /><rect shape-rendering="crispEdges" fill="rgb(106, 74, 24)"  x="20" y="25" width="1" height="1" /><rect shape-rendering="crispEdges" fill="rgb(57, 32, 16)"  x="20" y="26" width="1" height="1" /><rect shape-rendering="crispEdges" fill="rgb(65, 41, 8)"  x="21" y="9" width="1" height="1" /><rect shape-rendering="crispEdges" fill="rgb(90, 57, 16)"  x="21" y="10" width="1" height="1" /><rect shape-rendering="crispEdges" fill="rgb(106, 74, 24)"  x="21" y="11" width="1" height="1" /><rect shape-rendering="crispEdges" fill="rgb(90, 65, 24)"  x="21" y="12" width="1" height="1" /><rect shape-rendering="crispEdges" fill="rgb(98, 57, 16)"  x="21" y="13" width="1" height="1" /><rect shape-rendering="crispEdges" fill="rgb(98, 65, 16)"  x="21" y="14" width="1" height="1" /><rect shape-rendering="crispEdges" fill="rgb(98, 65, 24)"  x="21" y="15" width="1" height="1" /><rect shape-rendering="crispEdges" fill="rgb(90, 57, 24)"  x="21" y="16" width="1" height="1" /><rect shape-rendering="crispEdges" fill="rgb(90, 57, 16)"  x="21" y="17" width="1" height="1" /><rect shape-rendering="crispEdges" fill="rgb(82, 57, 16)"  x="21" y="18" width="1" height="1" /><rect shape-rendering="crispEdges" fill="rgb(65, 41, 8)"  x="21" y="19" width="1" height="1" /><rect shape-rendering="crispEdges" fill="rgb(139, 74, 57)"  x="21" y="20" width="1" height="1" /><rect shape-rendering="crispEdges" fill="rgb(156, 98, 65)"  x="21" y="21" width="1" height="1" /><rect shape-rendering="crispEdges" fill="rgb(98, 65, 32)"  x="21" y="22" width="1" height="1" /><rect shape-rendering="crispEdges" fill="rgb(98, 65, 24)"  x="21" y="23" width="1" height="1" /><rect shape-rendering="crispEdges" fill="rgb(131, 90, 41)"  x="21" y="24" width="1" height="1" /><rect shape-rendering="crispEdges" fill="rgb(115, 74, 24)"  x="21" y="25" width="1" height="1" /><rect shape-rendering="crispEdges" fill="rgb(57, 32, 16)"  x="21" y="26" width="1" height="1" /><rect shape-rendering="crispEdges" fill="rgb(65, 41, 8)"  x="22" y="11" width="1" height="1" /><rect shape-rendering="crispEdges" fill="rgb(90, 57, 16)"  x="22" y="12" width="1" height="1" /><rect shape-rendering="crispEdges" fill="rgb(106, 65, 24)"  x="22" y="13" width="1" height="1" /><rect shape-rendering="crispEdges" fill="rgb(98, 57, 16)"  x="22" y="14" width="1" height="1" /><rect shape-rendering="crispEdges" fill="rgb(90, 57, 16)"  x="22" y="15" width="1" height="1" /><rect shape-rendering="crispEdges" fill="rgb(82, 57, 8)"  x="22" y="16" width="1" height="1" /><rect shape-rendering="crispEdges" fill="rgb(82, 57, 8)"  x="22" y="17" width="1" height="1" /><rect shape-rendering="crispEdges" fill="rgb(82, 57, 16)"  x="22" y="18" width="1" height="1" /><rect shape-rendering="crispEdges" fill="rgb(98, 65, 32)"  x="22" y="19" width="1" height="1" /><rect shape-rendering="crispEdges" fill="rgb(148, 74, 57)"  x="22" y="20" width="1" height="1" /><rect shape-rendering="crispEdges" fill="rgb(131, 74, 49)"  x="22" y="21" width="1" height="1" /><rect shape-rendering="crispEdges" fill="rgb(74, 57, 8)"  x="22" y="22" width="1" height="1" /><rect shape-rendering="crispEdges" fill="rgb(131, 82, 32)"  x="22" y="23" width="1" height="1" /><rect shape-rendering="crispEdges" fill="rgb(139, 90, 41)"  x="22" y="24" width="1" height="1" /><rect shape-rendering="crispEdges" fill="rgb(57, 41, 8)"  x="22" y="25" width="1" height="1" /><rect shape-rendering="crispEdges" fill="rgb(65, 41, 8)"  x="23" y="13" width="1" height="1" /><rect shape-rendering="crispEdges" fill="rgb(90, 57, 16)"  x="23" y="14" width="1" height="1" /><rect shape-rendering="crispEdges" fill="rgb(65, 49, 8)"  x="23" y="15" width="1" height="1" /><rect shape-rendering="crispEdges" fill="rgb(98, 65, 32)"  x="23" y="16" width="1" height="1" /><rect shape-rendering="crispEdges" fill="rgb(148, 82, 65)"  x="23" y="17" width="1" height="1" /><rect shape-rendering="crispEdges" fill="rgb(123, 65, 41)"  x="23" y="18" width="1" height="1" /><rect shape-rendering="crispEdges" fill="rgb(131, 65, 49)"  x="23" y="19" width="1" height="1" /><rect shape-rendering="crispEdges" fill="rgb(106, 57, 41)"  x="23" y="20" width="1" height="1" /><rect shape-rendering="crispEdges" fill="rgb(82, 57, 24)"  x="23" y="21" width="1" height="1" /><rect shape-rendering="crispEdges" fill="rgb(98, 65, 16)"  x="23" y="22" width="1" height="1" /><rect shape-rendering="crispEdges" fill="rgb(139, 90, 41)"  x="23" y="23" width="1" height="1" /><rect shape-rendering="crispEdges" fill="rgb(115, 74, 24)"  x="23" y="24" width="1" height="1" /><rect shape-rendering="crispEdges" fill="rgb(57, 32, 16)"  x="23" y="25" width="1" height="1" /><rect shape-rendering="crispEdges" fill="rgb(115, 32, 82)"  x="24" y="14" width="1" height="1" /><rect shape-rendering="crispEdges" fill="rgb(106, 32, 74)"  x="24" y="15" width="1" height="1" /><rect shape-rendering="crispEdges" fill="rgb(197, 74, 57)"  x="24" y="16" width="1" height="1" /><rect shape-rendering="crispEdges" fill="rgb(164, 57, 49)"  x="24" y="17" width="1" height="1" /><rect shape-rendering="crispEdges" fill="rgb(156, 41, 32)"  x="24" y="18" width="1" height="1" /><rect shape-rendering="crispEdges" fill="rgb(148, 49, 41)"  x="24" y="19" width="1" height="1" /><rect shape-rendering="crispEdges" fill="rgb(65, 49, 8)"  x="24" y="20" width="1" height="1" /><rect shape-rendering="crispEdges" fill="rgb(82, 57, 8)"  x="24" y="21" width="1" height="1" /><rect shape-rendering="crispEdges" fill="rgb(115, 74, 32)"  x="24" y="22" width="1" height="1" /><rect shape-rendering="crispEdges" fill="rgb(139, 98, 41)"  x="24" y="23" width="1" height="1" /><rect shape-rendering="crispEdges" fill="rgb(65, 41, 8)"  x="24" y="24" width="1" height="1" /><rect shape-rendering="crispEdges" fill="rgb(115, 49, 49)"  x="25" y="12" width="1" height="1" /><rect shape-rendering="crispEdges" fill="rgb(148, 65, 57)"  x="25" y="13" width="1" height="1" /><rect shape-rendering="crispEdges" fill="rgb(180, 74, 57)"  x="25" y="14" width="1" height="1" /><rect shape-rendering="crispEdges" fill="rgb(172, 74, 57)"  x="25" y="15" width="1" height="1" /><rect shape-rendering="crispEdges" fill="rgb(148, 49, 32)"  x="25" y="16" width="1" height="1" /><rect shape-rendering="crispEdges" fill="rgb(180, 57, 49)"  x="25" y="17" width="1" height="1" /><rect shape-rendering="crispEdges" fill="rgb(139, 74, 49)"  x="25" y="18" width="1" height="1" /><rect shape-rendering="crispEdges" fill="rgb(90, 65, 16)"  x="25" y="19" width="1" height="1" /><rect shape-rendering="crispEdges" fill="rgb(106, 65, 16)"  x="25" y="20" width="1" height="1" /><rect shape-rendering="crispEdges" fill="rgb(115, 74, 24)"  x="25" y="21" width="1" height="1" /><rect shape-rendering="crispEdges" fill="rgb(156, 98, 41)"  x="25" y="22" width="1" height="1" /><rect shape-rendering="crispEdges" fill="rgb(90, 65, 24)"  x="25" y="23" width="1" height="1" /><rect shape-rendering="crispEdges" fill="rgb(65, 41, 16)"  x="25" y="24" width="1" height="1" /><rect shape-rendering="crispEdges" fill="rgb(115, 49, 49)"  x="26" y="11" width="1" height="1" /><rect shape-rendering="crispEdges" fill="rgb(172, 74, 57)"  x="26" y="12" width="1" height="1" /><rect shape-rendering="crispEdges" fill="rgb(205, 82, 65)"  x="26" y="13" width="1" height="1" /><rect shape-rendering="crispEdges" fill="rgb(172, 65, 49)"  x="26" y="14" width="1" height="1" /><rect shape-rendering="crispEdges" fill="rgb(164, 57, 41)"  x="26" y="15" width="1" height="1" /><rect shape-rendering="crispEdges" fill="rgb(230, 90, 65)"  x="26" y="16" width="1" height="1" /><rect shape-rendering="crispEdges" fill="rgb(115, 32, 82)"  x="26" y="17" width="1" height="1" /><rect shape-rendering="crispEdges" fill="rgb(106, 24, 98)"  x="26" y="18" width="1" height="1" /><rect shape-rendering="crispEdges" fill="rgb(139, 90, 32)"  x="26" y="19" width="1" height="1" /><rect shape-rendering="crispEdges" fill="rgb(131, 90, 32)"  x="26" y="20" width="1" height="1" /><rect shape-rendering="crispEdges" fill="rgb(123, 82, 32)"  x="26" y="21" width="1" height="1" /><rect shape-rendering="crispEdges" fill="rgb(90, 65, 24)"  x="26" y="22" width="1" height="1" /><rect shape-rendering="crispEdges" fill="rgb(65, 41, 16)"  x="26" y="23" width="1" height="1" /><rect shape-rendering="crispEdges" fill="rgb(115, 49, 49)"  x="27" y="9" width="1" height="1" /><rect shape-rendering="crispEdges" fill="rgb(164, 74, 65)"  x="27" y="10" width="1" height="1" /><rect shape-rendering="crispEdges" fill="rgb(213, 90, 74)"  x="27" y="11" width="1" height="1" /><rect shape-rendering="crispEdges" fill="rgb(180, 65, 57)"  x="27" y="12" width="1" height="1" /><rect shape-rendering="crispEdges" fill="rgb(164, 74, 57)"  x="27" y="13" width="1" height="1" /><rect shape-rendering="crispEdges" fill="rgb(189, 65, 49)"  x="27" y="14" width="1" height="1" /><rect shape-rendering="crispEdges" fill="rgb(222, 106, 82)"  x="27" y="15" width="1" height="1" /><rect shape-rendering="crispEdges" fill="rgb(131, 24, 115)"  x="27" y="16" width="1" height="1" /><rect shape-rendering="crispEdges" fill="rgb(90, 65, 24)"  x="27" y="19" width="1" height="1" /><rect shape-rendering="crispEdges" fill="rgb(65, 41, 16)"  x="27" y="20" width="1" height="1" /><rect shape-rendering="crispEdges" fill="rgb(65, 41, 16)"  x="27" y="21" width="1" height="1" /><rect shape-rendering="crispEdges" fill="rgb(115, 49, 49)"  x="28" y="8" width="1" height="1" /><rect shape-rendering="crispEdges" fill="rgb(222, 90, 74)"  x="28" y="9" width="1" height="1" /><rect shape-rendering="crispEdges" fill="rgb(222, 90, 65)"  x="28" y="10" width="1" height="1" /><rect shape-rendering="crispEdges" fill="rgb(172, 65, 57)"  x="28" y="11" width="1" height="1" /><rect shape-rendering="crispEdges" fill="rgb(164, 65, 49)"  x="28" y="12" width="1" height="1" /><rect shape-rendering="crispEdges" fill="rgb(213, 98, 74)"  x="28" y="13" width="1" height="1" /><rect shape-rendering="crispEdges" fill="rgb(197, 98, 82)"  x="28" y="14" width="1" height="1" /><rect shape-rendering="crispEdges" fill="rgb(115, 32, 82)"  x="28" y="15" width="1" height="1" /><rect shape-rendering="crispEdges" fill="rgb(106, 24, 90)"  x="29" y="7" width="1" height="1" /><rect shape-rendering="crispEdges" fill="rgb(222, 90, 74)"  x="29" y="8" width="1" height="1" /><rect shape-rendering="crispEdges" fill="rgb(238, 90, 65)"  x="29" y="9" width="1" height="1" /><rect shape-rendering="crispEdges" fill="rgb(189, 82, 57)"  x="29" y="10" width="1" height="1" /><rect shape-rendering="crispEdges" fill="rgb(164, 90, 74)"  x="29" y="11" width="1" height="1" /><rect shape-rendering="crispEdges" fill="rgb(222, 90, 65)"  x="29" y="12" width="1" height="1" /><rect shape-rendering="crispEdges" fill="rgb(164, 74, 57)"  x="29" y="13" width="1" height="1" /><rect shape-rendering="crispEdges" fill="rgb(115, 32, 82)"  x="29" y="14" width="1" height="1" /><rect shape-rendering="crispEdges" fill="rgb(106, 32, 74)"  x="30" y="7" width="1" height="1" /><rect shape-rendering="crispEdges" fill="rgb(222, 90, 74)"  x="30" y="8" width="1" height="1" /><rect shape-rendering="crispEdges" fill="rgb(98, 41, 41)"  x="30" y="9" width="1" height="1" /><rect shape-rendering="crispEdges" fill="rgb(115, 57, 57)"  x="30" y="10" width="1" height="1" /><rect shape-rendering="crispEdges" fill="rgb(115, 57, 57)"  x="30" y="11" width="1" height="1" /><rect shape-rendering="crispEdges" fill="rgb(222, 90, 74)"  x="30" y="12" width="1" height="1" /><rect shape-rendering="crispEdges" fill="rgb(115, 32, 82)"  x="30" y="13" width="1" height="1" /><rect shape-rendering="crispEdges" fill="rgb(123, 24, 90)"  x="31" y="6" width="1" height="1" /><rect shape-rendering="crispEdges" fill="rgb(222, 98, 74)"  x="31" y="7" width="1" height="1" /><rect shape-rendering="crispEdges" fill="rgb(106, 32, 65)"  x="31" y="8" width="1" height="1" /><rect shape-rendering="crispEdges" fill="rgb(115, 57, 57)"  x="31" y="11" width="1" height="1" /><rect shape-rendering="crispEdges" fill="rgb(115, 32, 82)"  x="31" y="12" width="1" height="1" /></svg>