<svg xmlns="http://www.w3.org/2000/svg" xmlns:xlink= "http://www.w3.org/1999/xlink" width="32" height="32" viewBox ="0 0 32 32"><rect shape-rendering="crispEdges" fill="rgb(90, 90, 98)"  x="4" y="8" width="1" height="1" /><rect shape-rendering="crispEdges" fill="rgb(90, 90, 98)"  x="4" y="9" width="1" height="1" /><rect shape-rendering="crispEdges" fill="rgb(90, 98, 98)"  x="4" y="10" width="1" height="1" /><rect shape-rendering="crispEdges" fill="rgb(98, 57, 41)"  x="4" y="11" width="1" height="1" /><rect shape-rendering="crispEdges" fill="rgb(98, 106, 115)"  x="5" y="6" width="1" height="1" /><rect shape-rendering="crispEdges" fill="rgb(148, 131, 98)"  x="5" y="7" width="1" height="1" /><rect shape-rendering="crispEdges" fill="rgb(180, 164, 123)"  x="5" y="8" width="1" height="1" /><rect shape-rendering="crispEdges" fill="rgb(180, 164, 115)"  x="5" y="9" width="1" height="1" /><rect shape-rendering="crispEdges" fill="rgb(180, 172, 123)"  x="5" y="10" width="1" height="1" /><rect shape-rendering="crispEdges" fill="rgb(115, 82, 57)"  x="5" y="11" width="1" height="1" /><rect shape-rendering="crispEdges" fill="rgb(98, 57, 41)"  x="5" y="12" width="1" height="1" /><rect shape-rendering="crispEdges" fill="rgb(74, 41, 32)"  x="5" y="13" width="1" height="1" /><rect shape-rendering="crispEdges" fill="rgb(98, 106, 115)"  x="6" y="4" width="1" height="1" /><rect shape-rendering="crispEdges" fill="rgb(98, 106, 115)"  x="6" y="5" width="1" height="1" /><rect shape-rendering="crispEdges" fill="rgb(172, 156, 106)"  x="6" y="6" width="1" height="1" /><rect shape-rendering="crispEdges" fill="rgb(213, 189, 131)"  x="6" y="7" width="1" height="1" /><rect shape-rendering="crispEdges" fill="rgb(197, 172, 115)"  x="6" y="8" width="1" height="1" /><rect shape-rendering="crispEdges" fill="rgb(197, 180, 131)"  x="6" y="9" width="1" height="1" /><rect shape-rendering="crispEdges" fill="rgb(164, 139, 98)"  x="6" y="10" width="1" height="1" /><rect shape-rendering="crispEdges" fill="rgb(164, 90, 65)"  x="6" y="11" width="1" height="1" /><rect shape-rendering="crispEdges" fill="rgb(172, 98, 74)"  x="6" y="12" width="1" height="1" /><rect shape-rendering="crispEdges" fill="rgb(139, 74, 49)"  x="6" y="13" width="1" height="1" /><rect shape-rendering="crispEdges" fill="rgb(74, 41, 32)"  x="6" y="14" width="1" height="1" /><rect shape-rendering="crispEdges" fill="rgb(90, 49, 74)"  x="6" y="18" width="1" height="1" /><rect shape-rendering="crispEdges" fill="rgb(90, 41, 49)"  x="6" y="19" width="1" height="1" /><rect shape-rendering="crispEdges" fill="rgb(74, 32, 41)"  x="6" y="20" width="1" height="1" /><rect shape-rendering="crispEdges" fill="rgb(82, 41, 57)"  x="6" y="21" width="1" height="1" /><rect shape-rendering="crispEdges" fill="rgb(90, 41, 65)"  x="6" y="22" width="1" height="1" /><rect shape-rendering="crispEdges" fill="rgb(82, 41, 57)"  x="6" y="23" width="1" height="1" /><rect shape-rendering="crispEdges" fill="rgb(65, 49, 57)"  x="6" y="24" width="1" height="1" /><rect shape-rendering="crispEdges" fill="rgb(98, 106, 106)"  x="7" y="2" width="1" height="1" /><rect shape-rendering="crispEdges" fill="rgb(90, 98, 90)"  x="7" y="3" width="1" height="1" /><rect shape-rendering="crispEdges" fill="rgb(148, 131, 90)"  x="7" y="4" width="1" height="1" /><rect shape-rendering="crispEdges" fill="rgb(205, 172, 115)"  x="7" y="5" width="1" height="1" /><rect shape-rendering="crispEdges" fill="rgb(213, 180, 123)"  x="7" y="6" width="1" height="1" /><rect shape-rendering="crispEdges" fill="rgb(180, 156, 106)"  x="7" y="7" width="1" height="1" /><rect shape-rendering="crispEdges" fill="rgb(189, 164, 115)"  x="7" y="8" width="1" height="1" /><rect shape-rendering="crispEdges" fill="rgb(180, 148, 106)"  x="7" y="9" width="1" height="1" /><rect shape-rendering="crispEdges" fill="rgb(139, 74, 49)"  x="7" y="10" width="1" height="1" /><rect shape-rendering="crispEdges" fill="rgb(148, 82, 57)"  x="7" y="11" width="1" height="1" /><rect shape-rendering="crispEdges" fill="rgb(197, 115, 74)"  x="7" y="12" width="1" height="1" /><rect shape-rendering="crispEdges" fill="rgb(148, 74, 41)"  x="7" y="13" width="1" height="1" /><rect shape-rendering="crispEdges" fill="rgb(98, 57, 41)"  x="7" y="14" width="1" height="1" /><rect shape-rendering="crispEdges" fill="rgb(90, 41, 41)"  x="7" y="15" width="1" height="1" /><rect shape-rendering="crispEdges" fill="rgb(115, 41, 49)"  x="7" y="16" width="1" height="1" /><rect shape-rendering="crispEdges" fill="rgb(90, 49, 74)"  x="7" y="17" width="1" height="1" /><rect shape-rendering="crispEdges" fill="rgb(74, 49, 65)"  x="7" y="18" width="1" height="1" /><rect shape-rendering="crispEdges" fill="rgb(57, 32, 57)"  x="7" y="19" width="1" height="1" /><rect shape-rendering="crispEdges" fill="rgb(57, 32, 57)"  x="7" y="20" width="1" height="1" /><rect shape-rendering="crispEdges" fill="rgb(49, 41, 57)"  x="7" y="21" width="1" height="1" /><rect shape-rendering="crispEdges" fill="rgb(41, 41, 57)"  x="7" y="22" width="1" height="1" /><rect shape-rendering="crispEdges" fill="rgb(24, 32, 65)"  x="7" y="23" width="1" height="1" /><rect shape-rendering="crispEdges" fill="rgb(24, 32, 57)"  x="7" y="24" width="1" height="1" /><rect shape-rendering="crispEdges" fill="rgb(65, 32, 57)"  x="7" y="25" width="1" height="1" /><rect shape-rendering="crispEdges" fill="rgb(65, 32, 49)"  x="7" y="26" width="1" height="1" /><rect shape-rendering="crispEdges" fill="rgb(90, 98, 90)"  x="8" y="1" width="1" height="1" /><rect shape-rendering="crispEdges" fill="rgb(139, 123, 90)"  x="8" y="2" width="1" height="1" /><rect shape-rendering="crispEdges" fill="rgb(189, 164, 106)"  x="8" y="3" width="1" height="1" /><rect shape-rendering="crispEdges" fill="rgb(189, 164, 106)"  x="8" y="4" width="1" height="1" /><rect shape-rendering="crispEdges" fill="rgb(148, 131, 90)"  x="8" y="5" width="1" height="1" /><rect shape-rendering="crispEdges" fill="rgb(115, 106, 90)"  x="8" y="6" width="1" height="1" /><rect shape-rendering="crispEdges" fill="rgb(98, 98, 90)"  x="8" y="7" width="1" height="1" /><rect shape-rendering="crispEdges" fill="rgb(106, 106, 90)"  x="8" y="8" width="1" height="1" /><rect shape-rendering="crispEdges" fill="rgb(98, 90, 82)"  x="8" y="9" width="1" height="1" /><rect shape-rendering="crispEdges" fill="rgb(98, 57, 41)"  x="8" y="10" width="1" height="1" /><rect shape-rendering="crispEdges" fill="rgb(131, 65, 41)"  x="8" y="11" width="1" height="1" /><rect shape-rendering="crispEdges" fill="rgb(98, 49, 32)"  x="8" y="12" width="1" height="1" /><rect shape-rendering="crispEdges" fill="rgb(82, 57, 32)"  x="8" y="13" width="1" height="1" /><rect shape-rendering="crispEdges" fill="rgb(123, 57, 65)"  x="8" y="14" width="1" height="1" /><rect shape-rendering="crispEdges" fill="rgb(106, 49, 74)"  x="8" y="15" width="1" height="1" /><rect shape-rendering="crispEdges" fill="rgb(24, 41, 65)"  x="8" y="16" width="1" height="1" /><rect shape-rendering="crispEdges" fill="rgb(24, 41, 57)"  x="8" y="17" width="1" height="1" /><rect shape-rendering="crispEdges" fill="rgb(41, 49, 90)"  x="8" y="18" width="1" height="1" /><rect shape-rendering="crispEdges" fill="rgb(32, 41, 65)"  x="8" y="19" width="1" height="1" /><rect shape-rendering="crispEdges" fill="rgb(16, 24, 49)"  x="8" y="20" width="1" height="1" /><rect shape-rendering="crispEdges" fill="rgb(24, 32, 49)"  x="8" y="21" width="1" height="1" /><rect shape-rendering="crispEdges" fill="rgb(24, 32, 49)"  x="8" y="22" width="1" height="1" /><rect shape-rendering="crispEdges" fill="rgb(24, 32, 57)"  x="8" y="23" width="1" height="1" /><rect shape-rendering="crispEdges" fill="rgb(32, 32, 65)"  x="8" y="24" width="1" height="1" /><rect shape-rendering="crispEdges" fill="rgb(32, 41, 65)"  x="8" y="25" width="1" height="1" /><rect shape-rendering="crispEdges" fill="rgb(41, 32, 49)"  x="8" y="26" width="1" height="1" /><rect shape-rendering="crispEdges" fill="rgb(49, 16, 24)"  x="8" y="27" width="1" height="1" /><rect shape-rendering="crispEdges" fill="rgb(98, 106, 98)"  x="9" y="2" width="1" height="1" /><rect shape-rendering="crispEdges" fill="rgb(98, 106, 98)"  x="9" y="3" width="1" height="1" /><rect shape-rendering="crispEdges" fill="rgb(90, 98, 90)"  x="9" y="4" width="1" height="1" /><rect shape-rendering="crispEdges" fill="rgb(90, 98, 90)"  x="9" y="5" width="1" height="1" /><rect shape-rendering="crispEdges" fill="rgb(98, 49, 32)"  x="9" y="11" width="1" height="1" /><rect shape-rendering="crispEdges" fill="rgb(90, 32, 32)"  x="9" y="12" width="1" height="1" /><rect shape-rendering="crispEdges" fill="rgb(123, 57, 74)"  x="9" y="13" width="1" height="1" /><rect shape-rendering="crispEdges" fill="rgb(49, 41, 74)"  x="9" y="14" width="1" height="1" /><rect shape-rendering="crispEdges" fill="rgb(24, 49, 82)"  x="9" y="15" width="1" height="1" /><rect shape-rendering="crispEdges" fill="rgb(41, 49, 82)"  x="9" y="16" width="1" height="1" /><rect shape-rendering="crispEdges" fill="rgb(24, 24, 49)"  x="9" y="17" width="1" height="1" /><rect shape-rendering="crispEdges" fill="rgb(32, 32, 57)"  x="9" y="18" width="1" height="1" /><rect shape-rendering="crispEdges" fill="rgb(49, 65, 90)"  x="9" y="19" width="1" height="1" /><rect shape-rendering="crispEdges" fill="rgb(49, 49, 74)"  x="9" y="20" width="1" height="1" /><rect shape-rendering="crispEdges" fill="rgb(32, 32, 49)"  x="9" y="21" width="1" height="1" /><rect shape-rendering="crispEdges" fill="rgb(24, 32, 49)"  x="9" y="22" width="1" height="1" /><rect shape-rendering="crispEdges" fill="rgb(24, 24, 41)"  x="9" y="23" width="1" height="1" /><rect shape-rendering="crispEdges" fill="rgb(24, 32, 57)"  x="9" y="24" width="1" height="1" /><rect shape-rendering="crispEdges" fill="rgb(32, 32, 57)"  x="9" y="25" width="1" height="1" /><rect shape-rendering="crispEdges" fill="rgb(32, 41, 57)"  x="9" y="26" width="1" height="1" /><rect shape-rendering="crispEdges" fill="rgb(32, 41, 57)"  x="9" y="27" width="1" height="1" /><rect shape-rendering="crispEdges" fill="rgb(32, 16, 41)"  x="9" y="28" width="1" height="1" /><rect shape-rendering="crispEdges" fill="rgb(172, 65, 90)"  x="10" y="12" width="1" height="1" /><rect shape-rendering="crispEdges" fill="rgb(41, 41, 65)"  x="10" y="13" width="1" height="1" /><rect shape-rendering="crispEdges" fill="rgb(16, 41, 74)"  x="10" y="14" width="1" height="1" /><rect shape-rendering="crispEdges" fill="rgb(32, 32, 49)"  x="10" y="15" width="1" height="1" /><rect shape-rendering="crispEdges" fill="rgb(41, 41, 57)"  x="10" y="16" width="1" height="1" /><rect shape-rendering="crispEdges" fill="rgb(49, 49, 82)"  x="10" y="17" width="1" height="1" /><rect shape-rendering="crispEdges" fill="rgb(24, 32, 49)"  x="10" y="18" width="1" height="1" /><rect shape-rendering="crispEdges" fill="rgb(32, 32, 65)"  x="10" y="19" width="1" height="1" /><rect shape-rendering="crispEdges" fill="rgb(49, 49, 90)"  x="10" y="20" width="1" height="1" /><rect shape-rendering="crispEdges" fill="rgb(49, 57, 90)"  x="10" y="21" width="1" height="1" /><rect shape-rendering="crispEdges" fill="rgb(41, 41, 57)"  x="10" y="22" width="1" height="1" /><rect shape-rendering="crispEdges" fill="rgb(32, 32, 49)"  x="10" y="23" width="1" height="1" /><rect shape-rendering="crispEdges" fill="rgb(24, 24, 41)"  x="10" y="24" width="1" height="1" /><rect shape-rendering="crispEdges" fill="rgb(24, 24, 49)"  x="10" y="25" width="1" height="1" /><rect shape-rendering="crispEdges" fill="rgb(41, 41, 57)"  x="10" y="26" width="1" height="1" /><rect shape-rendering="crispEdges" fill="rgb(32, 32, 49)"  x="10" y="27" width="1" height="1" /><rect shape-rendering="crispEdges" fill="rgb(32, 32, 65)"  x="10" y="28" width="1" height="1" /><rect shape-rendering="crispEdges" fill="rgb(41, 32, 41)"  x="10" y="29" width="1" height="1" /><rect shape-rendering="crispEdges" fill="rgb(90, 57, 90)"  x="11" y="11" width="1" height="1" /><rect shape-rendering="crispEdges" fill="rgb(156, 65, 90)"  x="11" y="12" width="1" height="1" /><rect shape-rendering="crispEdges" fill="rgb(8, 32, 49)"  x="11" y="13" width="1" height="1" /><rect shape-rendering="crispEdges" fill="rgb(24, 32, 49)"  x="11" y="14" width="1" height="1" /><rect shape-rendering="crispEdges" fill="rgb(24, 41, 57)"  x="11" y="15" width="1" height="1" /><rect shape-rendering="crispEdges" fill="rgb(32, 41, 57)"  x="11" y="16" width="1" height="1" /><rect shape-rendering="crispEdges" fill="rgb(41, 49, 74)"  x="11" y="17" width="1" height="1" /><rect shape-rendering="crispEdges" fill="rgb(49, 57, 82)"  x="11" y="18" width="1" height="1" /><rect shape-rendering="crispEdges" fill="rgb(24, 24, 49)"  x="11" y="19" width="1" height="1" /><rect shape-rendering="crispEdges" fill="rgb(32, 32, 49)"  x="11" y="20" width="1" height="1" /><rect shape-rendering="crispEdges" fill="rgb(49, 49, 74)"  x="11" y="21" width="1" height="1" /><rect shape-rendering="crispEdges" fill="rgb(57, 57, 74)"  x="11" y="22" width="1" height="1" /><rect shape-rendering="crispEdges" fill="rgb(49, 49, 82)"  x="11" y="23" width="1" height="1" /><rect shape-rendering="crispEdges" fill="rgb(41, 41, 65)"  x="11" y="24" width="1" height="1" /><rect shape-rendering="crispEdges" fill="rgb(16, 24, 49)"  x="11" y="25" width="1" height="1" /><rect shape-rendering="crispEdges" fill="rgb(32, 32, 57)"  x="11" y="26" width="1" height="1" /><rect shape-rendering="crispEdges" fill="rgb(41, 41, 65)"  x="11" y="27" width="1" height="1" /><rect shape-rendering="crispEdges" fill="rgb(41, 41, 57)"  x="11" y="28" width="1" height="1" /><rect shape-rendering="crispEdges" fill="rgb(16, 24, 41)"  x="11" y="29" width="1" height="1" /><rect shape-rendering="crispEdges" fill="rgb(90, 57, 90)"  x="12" y="10" width="1" height="1" /><rect shape-rendering="crispEdges" fill="rgb(139, 65, 98)"  x="12" y="11" width="1" height="1" /><rect shape-rendering="crispEdges" fill="rgb(74, 41, 65)"  x="12" y="12" width="1" height="1" /><rect shape-rendering="crispEdges" fill="rgb(8, 32, 49)"  x="12" y="13" width="1" height="1" /><rect shape-rendering="crispEdges" fill="rgb(24, 32, 49)"  x="12" y="14" width="1" height="1" /><rect shape-rendering="crispEdges" fill="rgb(32, 49, 82)"  x="12" y="15" width="1" height="1" /><rect shape-rendering="crispEdges" fill="rgb(32, 41, 82)"  x="12" y="16" width="1" height="1" /><rect shape-rendering="crispEdges" fill="rgb(24, 41, 65)"  x="12" y="17" width="1" height="1" /><rect shape-rendering="crispEdges" fill="rgb(41, 41, 65)"  x="12" y="18" width="1" height="1" /><rect shape-rendering="crispEdges" fill="rgb(41, 41, 65)"  x="12" y="19" width="1" height="1" /><rect shape-rendering="crispEdges" fill="rgb(24, 24, 49)"  x="12" y="20" width="1" height="1" /><rect shape-rendering="crispEdges" fill="rgb(24, 24, 49)"  x="12" y="21" width="1" height="1" /><rect shape-rendering="crispEdges" fill="rgb(41, 41, 65)"  x="12" y="22" width="1" height="1" /><rect shape-rendering="crispEdges" fill="rgb(49, 57, 82)"  x="12" y="23" width="1" height="1" /><rect shape-rendering="crispEdges" fill="rgb(49, 57, 74)"  x="12" y="24" width="1" height="1" /><rect shape-rendering="crispEdges" fill="rgb(32, 32, 49)"  x="12" y="25" width="1" height="1" /><rect shape-rendering="crispEdges" fill="rgb(24, 32, 49)"  x="12" y="26" width="1" height="1" /><rect shape-rendering="crispEdges" fill="rgb(41, 41, 65)"  x="12" y="27" width="1" height="1" /><rect shape-rendering="crispEdges" fill="rgb(41, 41, 57)"  x="12" y="28" width="1" height="1" /><rect shape-rendering="crispEdges" fill="rgb(24, 24, 41)"  x="12" y="29" width="1" height="1" /><rect shape-rendering="crispEdges" fill="rgb(16, 24, 41)"  x="12" y="30" width="1" height="1" /><rect shape-rendering="crispEdges" fill="rgb(65, 65, 90)"  x="13" y="10" width="1" height="1" /><rect shape-rendering="crispEdges" fill="rgb(164, 74, 98)"  x="13" y="11" width="1" height="1" /><rect shape-rendering="crispEdges" fill="rgb(16, 32, 49)"  x="13" y="12" width="1" height="1" /><rect shape-rendering="crispEdges" fill="rgb(16, 24, 32)"  x="13" y="13" width="1" height="1" /><rect shape-rendering="crispEdges" fill="rgb(24, 32, 41)"  x="13" y="14" width="1" height="1" /><rect shape-rendering="crispEdges" fill="rgb(24, 32, 49)"  x="13" y="15" width="1" height="1" /><rect shape-rendering="crispEdges" fill="rgb(24, 32, 49)"  x="13" y="16" width="1" height="1" /><rect shape-rendering="crispEdges" fill="rgb(24, 24, 49)"  x="13" y="17" width="1" height="1" /><rect shape-rendering="crispEdges" fill="rgb(24, 41, 65)"  x="13" y="18" width="1" height="1" /><rect shape-rendering="crispEdges" fill="rgb(49, 49, 65)"  x="13" y="19" width="1" height="1" /><rect shape-rendering="crispEdges" fill="rgb(32, 32, 49)"  x="13" y="20" width="1" height="1" /><rect shape-rendering="crispEdges" fill="rgb(24, 24, 49)"  x="13" y="21" width="1" height="1" /><rect shape-rendering="crispEdges" fill="rgb(24, 24, 41)"  x="13" y="22" width="1" height="1" /><rect shape-rendering="crispEdges" fill="rgb(49, 49, 74)"  x="13" y="23" width="1" height="1" /><rect shape-rendering="crispEdges" fill="rgb(49, 49, 74)"  x="13" y="24" width="1" height="1" /><rect shape-rendering="crispEdges" fill="rgb(49, 49, 65)"  x="13" y="25" width="1" height="1" /><rect shape-rendering="crispEdges" fill="rgb(32, 24, 57)"  x="13" y="26" width="1" height="1" /><rect shape-rendering="crispEdges" fill="rgb(41, 49, 65)"  x="13" y="27" width="1" height="1" /><rect shape-rendering="crispEdges" fill="rgb(41, 41, 65)"  x="13" y="28" width="1" height="1" /><rect shape-rendering="crispEdges" fill="rgb(32, 32, 49)"  x="13" y="29" width="1" height="1" /><rect shape-rendering="crispEdges" fill="rgb(32, 32, 41)"  x="13" y="30" width="1" height="1" /><rect shape-rendering="crispEdges" fill="rgb(65, 65, 90)"  x="14" y="10" width="1" height="1" /><rect shape-rendering="crispEdges" fill="rgb(164, 74, 98)"  x="14" y="11" width="1" height="1" /><rect shape-rendering="crispEdges" fill="rgb(16, 32, 49)"  x="14" y="12" width="1" height="1" /><rect shape-rendering="crispEdges" fill="rgb(16, 24, 32)"  x="14" y="13" width="1" height="1" /><rect shape-rendering="crispEdges" fill="rgb(24, 32, 41)"  x="14" y="14" width="1" height="1" /><rect shape-rendering="crispEdges" fill="rgb(24, 32, 49)"  x="14" y="15" width="1" height="1" /><rect shape-rendering="crispEdges" fill="rgb(24, 32, 49)"  x="14" y="16" width="1" height="1" /><rect shape-rendering="crispEdges" fill="rgb(24, 24, 49)"  x="14" y="17" width="1" height="1" /><rect shape-rendering="crispEdges" fill="rgb(24, 32, 49)"  x="14" y="18" width="1" height="1" /><rect shape-rendering="crispEdges" fill="rgb(49, 49, 65)"  x="14" y="19" width="1" height="1" /><rect shape-rendering="crispEdges" fill="rgb(32, 32, 49)"  x="14" y="20" width="1" height="1" /><rect shape-rendering="crispEdges" fill="rgb(24, 32, 57)"  x="14" y="21" width="1" height="1" /><rect shape-rendering="crispEdges" fill="rgb(24, 24, 41)"  x="14" y="22" width="1" height="1" /><rect shape-rendering="crispEdges" fill="rgb(49, 49, 74)"  x="14" y="23" width="1" height="1" /><rect shape-rendering="crispEdges" fill="rgb(49, 49, 74)"  x="14" y="24" width="1" height="1" /><rect shape-rendering="crispEdges" fill="rgb(49, 49, 65)"  x="14" y="25" width="1" height="1" /><rect shape-rendering="crispEdges" fill="rgb(32, 24, 57)"  x="14" y="26" width="1" height="1" /><rect shape-rendering="crispEdges" fill="rgb(41, 49, 65)"  x="14" y="27" width="1" height="1" /><rect shape-rendering="crispEdges" fill="rgb(41, 41, 65)"  x="14" y="28" width="1" height="1" /><rect shape-rendering="crispEdges" fill="rgb(32, 32, 49)"  x="14" y="29" width="1" height="1" /><rect shape-rendering="crispEdges" fill="rgb(24, 24, 49)"  x="14" y="30" width="1" height="1" /><rect shape-rendering="crispEdges" fill="rgb(57, 65, 106)"  x="15" y="10" width="1" height="1" /><rect shape-rendering="crispEdges" fill="rgb(180, 74, 90)"  x="15" y="11" width="1" height="1" /><rect shape-rendering="crispEdges" fill="rgb(49, 49, 65)"  x="15" y="12" width="1" height="1" /><rect shape-rendering="crispEdges" fill="rgb(8, 24, 49)"  x="15" y="13" width="1" height="1" /><rect shape-rendering="crispEdges" fill="rgb(24, 32, 49)"  x="15" y="14" width="1" height="1" /><rect shape-rendering="crispEdges" fill="rgb(16, 32, 49)"  x="15" y="15" width="1" height="1" /><rect shape-rendering="crispEdges" fill="rgb(24, 32, 49)"  x="15" y="16" width="1" height="1" /><rect shape-rendering="crispEdges" fill="rgb(24, 24, 49)"  x="15" y="17" width="1" height="1" /><rect shape-rendering="crispEdges" fill="rgb(24, 32, 49)"  x="15" y="18" width="1" height="1" /><rect shape-rendering="crispEdges" fill="rgb(32, 32, 57)"  x="15" y="19" width="1" height="1" /><rect shape-rendering="crispEdges" fill="rgb(32, 41, 57)"  x="15" y="20" width="1" height="1" /><rect shape-rendering="crispEdges" fill="rgb(32, 41, 74)"  x="15" y="21" width="1" height="1" /><rect shape-rendering="crispEdges" fill="rgb(32, 41, 65)"  x="15" y="22" width="1" height="1" /><rect shape-rendering="crispEdges" fill="rgb(32, 32, 49)"  x="15" y="23" width="1" height="1" /><rect shape-rendering="crispEdges" fill="rgb(49, 49, 65)"  x="15" y="24" width="1" height="1" /><rect shape-rendering="crispEdges" fill="rgb(49, 49, 74)"  x="15" y="25" width="1" height="1" /><rect shape-rendering="crispEdges" fill="rgb(41, 41, 57)"  x="15" y="26" width="1" height="1" /><rect shape-rendering="crispEdges" fill="rgb(41, 49, 65)"  x="15" y="27" width="1" height="1" /><rect shape-rendering="crispEdges" fill="rgb(32, 32, 57)"  x="15" y="28" width="1" height="1" /><rect shape-rendering="crispEdges" fill="rgb(24, 32, 49)"  x="15" y="29" width="1" height="1" /><rect shape-rendering="crispEdges" fill="rgb(24, 16, 41)"  x="15" y="30" width="1" height="1" /><rect shape-rendering="crispEdges" fill="rgb(49, 57, 106)"  x="16" y="10" width="1" height="1" /><rect shape-rendering="crispEdges" fill="rgb(156, 65, 90)"  x="16" y="11" width="1" height="1" /><rect shape-rendering="crispEdges" fill="rgb(123, 57, 74)"  x="16" y="12" width="1" height="1" /><rect shape-rendering="crispEdges" fill="rgb(8, 32, 49)"  x="16" y="13" width="1" height="1" /><rect shape-rendering="crispEdges" fill="rgb(24, 32, 57)"  x="16" y="14" width="1" height="1" /><rect shape-rendering="crispEdges" fill="rgb(32, 49, 74)"  x="16" y="15" width="1" height="1" /><rect shape-rendering="crispEdges" fill="rgb(24, 32, 49)"  x="16" y="16" width="1" height="1" /><rect shape-rendering="crispEdges" fill="rgb(24, 24, 49)"  x="16" y="17" width="1" height="1" /><rect shape-rendering="crispEdges" fill="rgb(24, 32, 49)"  x="16" y="18" width="1" height="1" /><rect shape-rendering="crispEdges" fill="rgb(24, 24, 49)"  x="16" y="19" width="1" height="1" /><rect shape-rendering="crispEdges" fill="rgb(24, 24, 57)"  x="16" y="20" width="1" height="1" /><rect shape-rendering="crispEdges" fill="rgb(24, 24, 57)"  x="16" y="21" width="1" height="1" /><rect shape-rendering="crispEdges" fill="rgb(24, 32, 57)"  x="16" y="22" width="1" height="1" /><rect shape-rendering="crispEdges" fill="rgb(24, 41, 49)"  x="16" y="23" width="1" height="1" /><rect shape-rendering="crispEdges" fill="rgb(32, 41, 65)"  x="16" y="24" width="1" height="1" /><rect shape-rendering="crispEdges" fill="rgb(49, 49, 74)"  x="16" y="25" width="1" height="1" /><rect shape-rendering="crispEdges" fill="rgb(41, 41, 57)"  x="16" y="26" width="1" height="1" /><rect shape-rendering="crispEdges" fill="rgb(32, 41, 57)"  x="16" y="27" width="1" height="1" /><rect shape-rendering="crispEdges" fill="rgb(24, 24, 49)"  x="16" y="28" width="1" height="1" /><rect shape-rendering="crispEdges" fill="rgb(24, 24, 49)"  x="16" y="29" width="1" height="1" /><rect shape-rendering="crispEdges" fill="rgb(24, 24, 41)"  x="16" y="30" width="1" height="1" /><rect shape-rendering="crispEdges" fill="rgb(41, 57, 90)"  x="17" y="10" width="1" height="1" /><rect shape-rendering="crispEdges" fill="rgb(123, 74, 106)"  x="17" y="11" width="1" height="1" /><rect shape-rendering="crispEdges" fill="rgb(164, 65, 74)"  x="17" y="12" width="1" height="1" /><rect shape-rendering="crispEdges" fill="rgb(16, 32, 65)"  x="17" y="13" width="1" height="1" /><rect shape-rendering="crispEdges" fill="rgb(24, 32, 57)"  x="17" y="14" width="1" height="1" /><rect shape-rendering="crispEdges" fill="rgb(32, 41, 57)"  x="17" y="15" width="1" height="1" /><rect shape-rendering="crispEdges" fill="rgb(32, 49, 82)"  x="17" y="16" width="1" height="1" /><rect shape-rendering="crispEdges" fill="rgb(32, 32, 65)"  x="17" y="17" width="1" height="1" /><rect shape-rendering="crispEdges" fill="rgb(24, 32, 41)"  x="17" y="18" width="1" height="1" /><rect shape-rendering="crispEdges" fill="rgb(49, 49, 65)"  x="17" y="19" width="1" height="1" /><rect shape-rendering="crispEdges" fill="rgb(41, 41, 57)"  x="17" y="20" width="1" height="1" /><rect shape-rendering="crispEdges" fill="rgb(24, 32, 65)"  x="17" y="21" width="1" height="1" /><rect shape-rendering="crispEdges" fill="rgb(24, 41, 57)"  x="17" y="22" width="1" height="1" /><rect shape-rendering="crispEdges" fill="rgb(24, 32, 49)"  x="17" y="23" width="1" height="1" /><rect shape-rendering="crispEdges" fill="rgb(32, 32, 49)"  x="17" y="24" width="1" height="1" /><rect shape-rendering="crispEdges" fill="rgb(41, 41, 57)"  x="17" y="25" width="1" height="1" /><rect shape-rendering="crispEdges" fill="rgb(41, 41, 57)"  x="17" y="26" width="1" height="1" /><rect shape-rendering="crispEdges" fill="rgb(41, 41, 57)"  x="17" y="27" width="1" height="1" /><rect shape-rendering="crispEdges" fill="rgb(32, 41, 57)"  x="17" y="28" width="1" height="1" /><rect shape-rendering="crispEdges" fill="rgb(24, 32, 57)"  x="17" y="29" width="1" height="1" /><rect shape-rendering="crispEdges" fill="rgb(24, 24, 49)"  x="17" y="30" width="1" height="1" /><rect shape-rendering="crispEdges" fill="rgb(32, 41, 98)"  x="18" y="10" width="1" height="1" /><rect shape-rendering="crispEdges" fill="rgb(82, 74, 115)"  x="18" y="11" width="1" height="1" /><rect shape-rendering="crispEdges" fill="rgb(197, 65, 82)"  x="18" y="12" width="1" height="1" /><rect shape-rendering="crispEdges" fill="rgb(41, 41, 65)"  x="18" y="13" width="1" height="1" /><rect shape-rendering="crispEdges" fill="rgb(16, 49, 74)"  x="18" y="14" width="1" height="1" /><rect shape-rendering="crispEdges" fill="rgb(32, 32, 49)"  x="18" y="15" width="1" height="1" /><rect shape-rendering="crispEdges" fill="rgb(32, 41, 57)"  x="18" y="16" width="1" height="1" /><rect shape-rendering="crispEdges" fill="rgb(41, 49, 74)"  x="18" y="17" width="1" height="1" /><rect shape-rendering="crispEdges" fill="rgb(49, 49, 74)"  x="18" y="18" width="1" height="1" /><rect shape-rendering="crispEdges" fill="rgb(41, 41, 65)"  x="18" y="19" width="1" height="1" /><rect shape-rendering="crispEdges" fill="rgb(24, 24, 49)"  x="18" y="20" width="1" height="1" /><rect shape-rendering="crispEdges" fill="rgb(24, 32, 57)"  x="18" y="21" width="1" height="1" /><rect shape-rendering="crispEdges" fill="rgb(24, 32, 57)"  x="18" y="22" width="1" height="1" /><rect shape-rendering="crispEdges" fill="rgb(32, 32, 49)"  x="18" y="23" width="1" height="1" /><rect shape-rendering="crispEdges" fill="rgb(32, 41, 65)"  x="18" y="24" width="1" height="1" /><rect shape-rendering="crispEdges" fill="rgb(41, 49, 74)"  x="18" y="25" width="1" height="1" /><rect shape-rendering="crispEdges" fill="rgb(41, 41, 57)"  x="18" y="26" width="1" height="1" /><rect shape-rendering="crispEdges" fill="rgb(41, 49, 65)"  x="18" y="27" width="1" height="1" /><rect shape-rendering="crispEdges" fill="rgb(41, 41, 57)"  x="18" y="28" width="1" height="1" /><rect shape-rendering="crispEdges" fill="rgb(24, 32, 49)"  x="18" y="29" width="1" height="1" /><rect shape-rendering="crispEdges" fill="rgb(24, 16, 41)"  x="18" y="30" width="1" height="1" /><rect shape-rendering="crispEdges" fill="rgb(32, 41, 98)"  x="19" y="11" width="1" height="1" /><rect shape-rendering="crispEdges" fill="rgb(156, 65, 90)"  x="19" y="12" width="1" height="1" /><rect shape-rendering="crispEdges" fill="rgb(189, 65, 82)"  x="19" y="13" width="1" height="1" /><rect shape-rendering="crispEdges" fill="rgb(49, 41, 57)"  x="19" y="14" width="1" height="1" /><rect shape-rendering="crispEdges" fill="rgb(24, 57, 82)"  x="19" y="15" width="1" height="1" /><rect shape-rendering="crispEdges" fill="rgb(41, 41, 82)"  x="19" y="16" width="1" height="1" /><rect shape-rendering="crispEdges" fill="rgb(41, 41, 65)"  x="19" y="17" width="1" height="1" /><rect shape-rendering="crispEdges" fill="rgb(32, 32, 57)"  x="19" y="18" width="1" height="1" /><rect shape-rendering="crispEdges" fill="rgb(24, 24, 49)"  x="19" y="19" width="1" height="1" /><rect shape-rendering="crispEdges" fill="rgb(24, 24, 49)"  x="19" y="20" width="1" height="1" /><rect shape-rendering="crispEdges" fill="rgb(32, 32, 49)"  x="19" y="21" width="1" height="1" /><rect shape-rendering="crispEdges" fill="rgb(32, 32, 49)"  x="19" y="22" width="1" height="1" /><rect shape-rendering="crispEdges" fill="rgb(49, 41, 65)"  x="19" y="23" width="1" height="1" /><rect shape-rendering="crispEdges" fill="rgb(49, 49, 74)"  x="19" y="24" width="1" height="1" /><rect shape-rendering="crispEdges" fill="rgb(49, 49, 74)"  x="19" y="25" width="1" height="1" /><rect shape-rendering="crispEdges" fill="rgb(32, 24, 57)"  x="19" y="26" width="1" height="1" /><rect shape-rendering="crispEdges" fill="rgb(41, 41, 65)"  x="19" y="27" width="1" height="1" /><rect shape-rendering="crispEdges" fill="rgb(16, 32, 49)"  x="19" y="28" width="1" height="1" /><rect shape-rendering="crispEdges" fill="rgb(49, 16, 41)"  x="19" y="29" width="1" height="1" /><rect shape-rendering="crispEdges" fill="rgb(24, 16, 41)"  x="19" y="30" width="1" height="1" /><rect shape-rendering="crispEdges" fill="rgb(115, 106, 90)"  x="20" y="2" width="1" height="1" /><rect shape-rendering="crispEdges" fill="rgb(139, 123, 90)"  x="20" y="3" width="1" height="1" /><rect shape-rendering="crispEdges" fill="rgb(139, 123, 90)"  x="20" y="4" width="1" height="1" /><rect shape-rendering="crispEdges" fill="rgb(115, 49, 32)"  x="20" y="9" width="1" height="1" /><rect shape-rendering="crispEdges" fill="rgb(82, 57, 57)"  x="20" y="10" width="1" height="1" /><rect shape-rendering="crispEdges" fill="rgb(74, 41, 24)"  x="20" y="11" width="1" height="1" /><rect shape-rendering="crispEdges" fill="rgb(41, 32, 32)"  x="20" y="12" width="1" height="1" /><rect shape-rendering="crispEdges" fill="rgb(131, 74, 90)"  x="20" y="13" width="1" height="1" /><rect shape-rendering="crispEdges" fill="rgb(189, 65, 74)"  x="20" y="14" width="1" height="1" /><rect shape-rendering="crispEdges" fill="rgb(74, 41, 65)"  x="20" y="15" width="1" height="1" /><rect shape-rendering="crispEdges" fill="rgb(8, 41, 65)"  x="20" y="16" width="1" height="1" /><rect shape-rendering="crispEdges" fill="rgb(24, 32, 57)"  x="20" y="17" width="1" height="1" /><rect shape-rendering="crispEdges" fill="rgb(32, 41, 65)"  x="20" y="18" width="1" height="1" /><rect shape-rendering="crispEdges" fill="rgb(49, 57, 90)"  x="20" y="19" width="1" height="1" /><rect shape-rendering="crispEdges" fill="rgb(49, 49, 90)"  x="20" y="20" width="1" height="1" /><rect shape-rendering="crispEdges" fill="rgb(49, 57, 82)"  x="20" y="21" width="1" height="1" /><rect shape-rendering="crispEdges" fill="rgb(57, 57, 74)"  x="20" y="22" width="1" height="1" /><rect shape-rendering="crispEdges" fill="rgb(49, 57, 82)"  x="20" y="23" width="1" height="1" /><rect shape-rendering="crispEdges" fill="rgb(57, 57, 82)"  x="20" y="24" width="1" height="1" /><rect shape-rendering="crispEdges" fill="rgb(32, 32, 57)"  x="20" y="25" width="1" height="1" /><rect shape-rendering="crispEdges" fill="rgb(24, 24, 49)"  x="20" y="26" width="1" height="1" /><rect shape-rendering="crispEdges" fill="rgb(32, 41, 57)"  x="20" y="27" width="1" height="1" /><rect shape-rendering="crispEdges" fill="rgb(41, 24, 49)"  x="20" y="28" width="1" height="1" /><rect shape-rendering="crispEdges" fill="rgb(82, 16, 32)"  x="20" y="29" width="1" height="1" /><rect shape-rendering="crispEdges" fill="rgb(115, 106, 90)"  x="21" y="1" width="1" height="1" /><rect shape-rendering="crispEdges" fill="rgb(205, 180, 123)"  x="21" y="2" width="1" height="1" /><rect shape-rendering="crispEdges" fill="rgb(222, 189, 123)"  x="21" y="3" width="1" height="1" /><rect shape-rendering="crispEdges" fill="rgb(197, 164, 115)"  x="21" y="4" width="1" height="1" /><rect shape-rendering="crispEdges" fill="rgb(172, 148, 106)"  x="21" y="5" width="1" height="1" /><rect shape-rendering="crispEdges" fill="rgb(164, 139, 98)"  x="21" y="6" width="1" height="1" /><rect shape-rendering="crispEdges" fill="rgb(131, 123, 90)"  x="21" y="7" width="1" height="1" /><rect shape-rendering="crispEdges" fill="rgb(131, 123, 90)"  x="21" y="8" width="1" height="1" /><rect shape-rendering="crispEdges" fill="rgb(123, 82, 57)"  x="21" y="9" width="1" height="1" /><rect shape-rendering="crispEdges" fill="rgb(139, 65, 49)"  x="21" y="10" width="1" height="1" /><rect shape-rendering="crispEdges" fill="rgb(156, 82, 57)"  x="21" y="11" width="1" height="1" /><rect shape-rendering="crispEdges" fill="rgb(115, 49, 32)"  x="21" y="12" width="1" height="1" /><rect shape-rendering="crispEdges" fill="rgb(49, 49, 41)"  x="21" y="13" width="1" height="1" /><rect shape-rendering="crispEdges" fill="rgb(106, 57, 82)"  x="21" y="14" width="1" height="1" /><rect shape-rendering="crispEdges" fill="rgb(197, 65, 82)"  x="21" y="15" width="1" height="1" /><rect shape-rendering="crispEdges" fill="rgb(106, 49, 65)"  x="21" y="16" width="1" height="1" /><rect shape-rendering="crispEdges" fill="rgb(49, 49, 74)"  x="21" y="17" width="1" height="1" /><rect shape-rendering="crispEdges" fill="rgb(32, 41, 65)"  x="21" y="18" width="1" height="1" /><rect shape-rendering="crispEdges" fill="rgb(24, 49, 65)"  x="21" y="19" width="1" height="1" /><rect shape-rendering="crispEdges" fill="rgb(24, 49, 65)"  x="21" y="20" width="1" height="1" /><rect shape-rendering="crispEdges" fill="rgb(32, 32, 57)"  x="21" y="21" width="1" height="1" /><rect shape-rendering="crispEdges" fill="rgb(41, 41, 57)"  x="21" y="22" width="1" height="1" /><rect shape-rendering="crispEdges" fill="rgb(49, 49, 65)"  x="21" y="23" width="1" height="1" /><rect shape-rendering="crispEdges" fill="rgb(49, 41, 65)"  x="21" y="24" width="1" height="1" /><rect shape-rendering="crispEdges" fill="rgb(16, 24, 49)"  x="21" y="25" width="1" height="1" /><rect shape-rendering="crispEdges" fill="rgb(16, 24, 41)"  x="21" y="26" width="1" height="1" /><rect shape-rendering="crispEdges" fill="rgb(74, 32, 49)"  x="21" y="27" width="1" height="1" /><rect shape-rendering="crispEdges" fill="rgb(106, 0, 32)"  x="21" y="28" width="1" height="1" /><rect shape-rendering="crispEdges" fill="rgb(32, 41, 57)"  x="21" y="29" width="1" height="1" /><rect shape-rendering="crispEdges" fill="rgb(115, 106, 90)"  x="22" y="2" width="1" height="1" /><rect shape-rendering="crispEdges" fill="rgb(148, 131, 90)"  x="22" y="3" width="1" height="1" /><rect shape-rendering="crispEdges" fill="rgb(213, 189, 131)"  x="22" y="4" width="1" height="1" /><rect shape-rendering="crispEdges" fill="rgb(213, 189, 139)"  x="22" y="5" width="1" height="1" /><rect shape-rendering="crispEdges" fill="rgb(197, 180, 123)"  x="22" y="6" width="1" height="1" /><rect shape-rendering="crispEdges" fill="rgb(197, 172, 115)"  x="22" y="7" width="1" height="1" /><rect shape-rendering="crispEdges" fill="rgb(197, 172, 123)"  x="22" y="8" width="1" height="1" /><rect shape-rendering="crispEdges" fill="rgb(180, 164, 115)"  x="22" y="9" width="1" height="1" /><rect shape-rendering="crispEdges" fill="rgb(139, 82, 57)"  x="22" y="10" width="1" height="1" /><rect shape-rendering="crispEdges" fill="rgb(172, 98, 74)"  x="22" y="11" width="1" height="1" /><rect shape-rendering="crispEdges" fill="rgb(205, 115, 82)"  x="22" y="12" width="1" height="1" /><rect shape-rendering="crispEdges" fill="rgb(123, 65, 41)"  x="22" y="13" width="1" height="1" /><rect shape-rendering="crispEdges" fill="rgb(82, 65, 49)"  x="22" y="14" width="1" height="1" /><rect shape-rendering="crispEdges" fill="rgb(106, 49, 65)"  x="22" y="15" width="1" height="1" /><rect shape-rendering="crispEdges" fill="rgb(172, 57, 74)"  x="22" y="16" width="1" height="1" /><rect shape-rendering="crispEdges" fill="rgb(164, 49, 74)"  x="22" y="17" width="1" height="1" /><rect shape-rendering="crispEdges" fill="rgb(156, 49, 65)"  x="22" y="18" width="1" height="1" /><rect shape-rendering="crispEdges" fill="rgb(115, 41, 57)"  x="22" y="19" width="1" height="1" /><rect shape-rendering="crispEdges" fill="rgb(74, 41, 57)"  x="22" y="20" width="1" height="1" /><rect shape-rendering="crispEdges" fill="rgb(32, 32, 57)"  x="22" y="21" width="1" height="1" /><rect shape-rendering="crispEdges" fill="rgb(16, 24, 49)"  x="22" y="22" width="1" height="1" /><rect shape-rendering="crispEdges" fill="rgb(8, 24, 41)"  x="22" y="23" width="1" height="1" /><rect shape-rendering="crispEdges" fill="rgb(8, 24, 41)"  x="22" y="24" width="1" height="1" /><rect shape-rendering="crispEdges" fill="rgb(16, 24, 41)"  x="22" y="25" width="1" height="1" /><rect shape-rendering="crispEdges" fill="rgb(115, 32, 49)"  x="22" y="26" width="1" height="1" /><rect shape-rendering="crispEdges" fill="rgb(115, 16, 41)"  x="22" y="27" width="1" height="1" /><rect shape-rendering="crispEdges" fill="rgb(32, 41, 57)"  x="22" y="28" width="1" height="1" /><rect shape-rendering="crispEdges" fill="rgb(98, 106, 106)"  x="23" y="3" width="1" height="1" /><rect shape-rendering="crispEdges" fill="rgb(148, 131, 90)"  x="23" y="4" width="1" height="1" /><rect shape-rendering="crispEdges" fill="rgb(180, 156, 98)"  x="23" y="5" width="1" height="1" /><rect shape-rendering="crispEdges" fill="rgb(213, 189, 139)"  x="23" y="6" width="1" height="1" /><rect shape-rendering="crispEdges" fill="rgb(205, 197, 148)"  x="23" y="7" width="1" height="1" /><rect shape-rendering="crispEdges" fill="rgb(197, 189, 131)"  x="23" y="8" width="1" height="1" /><rect shape-rendering="crispEdges" fill="rgb(205, 197, 148)"  x="23" y="9" width="1" height="1" /><rect shape-rendering="crispEdges" fill="rgb(172, 148, 106)"  x="23" y="10" width="1" height="1" /><rect shape-rendering="crispEdges" fill="rgb(180, 98, 74)"  x="23" y="11" width="1" height="1" /><rect shape-rendering="crispEdges" fill="rgb(172, 98, 65)"  x="23" y="12" width="1" height="1" /><rect shape-rendering="crispEdges" fill="rgb(131, 74, 57)"  x="23" y="13" width="1" height="1" /><rect shape-rendering="crispEdges" fill="rgb(115, 49, 32)"  x="23" y="14" width="1" height="1" /><rect shape-rendering="crispEdges" fill="rgb(49, 49, 41)"  x="23" y="15" width="1" height="1" /><rect shape-rendering="crispEdges" fill="rgb(98, 65, 49)"  x="23" y="16" width="1" height="1" /><rect shape-rendering="crispEdges" fill="rgb(123, 65, 65)"  x="23" y="17" width="1" height="1" /><rect shape-rendering="crispEdges" fill="rgb(98, 41, 65)"  x="23" y="18" width="1" height="1" /><rect shape-rendering="crispEdges" fill="rgb(131, 49, 74)"  x="23" y="19" width="1" height="1" /><rect shape-rendering="crispEdges" fill="rgb(164, 57, 74)"  x="23" y="20" width="1" height="1" /><rect shape-rendering="crispEdges" fill="rgb(156, 49, 65)"  x="23" y="21" width="1" height="1" /><rect shape-rendering="crispEdges" fill="rgb(139, 49, 65)"  x="23" y="22" width="1" height="1" /><rect shape-rendering="crispEdges" fill="rgb(106, 41, 65)"  x="23" y="23" width="1" height="1" /><rect shape-rendering="crispEdges" fill="rgb(82, 32, 49)"  x="23" y="24" width="1" height="1" /><rect shape-rendering="crispEdges" fill="rgb(139, 41, 65)"  x="23" y="25" width="1" height="1" /><rect shape-rendering="crispEdges" fill="rgb(98, 41, 65)"  x="23" y="26" width="1" height="1" /><rect shape-rendering="crispEdges" fill="rgb(32, 41, 57)"  x="23" y="27" width="1" height="1" /><rect shape-rendering="crispEdges" fill="rgb(98, 106, 106)"  x="24" y="5" width="1" height="1" /><rect shape-rendering="crispEdges" fill="rgb(156, 131, 90)"  x="24" y="6" width="1" height="1" /><rect shape-rendering="crispEdges" fill="rgb(205, 172, 115)"  x="24" y="7" width="1" height="1" /><rect shape-rendering="crispEdges" fill="rgb(197, 172, 115)"  x="24" y="8" width="1" height="1" /><rect shape-rendering="crispEdges" fill="rgb(213, 189, 123)"  x="24" y="9" width="1" height="1" /><rect shape-rendering="crispEdges" fill="rgb(172, 139, 90)"  x="24" y="10" width="1" height="1" /><rect shape-rendering="crispEdges" fill="rgb(139, 65, 49)"  x="24" y="11" width="1" height="1" /><rect shape-rendering="crispEdges" fill="rgb(106, 49, 32)"  x="24" y="12" width="1" height="1" /><rect shape-rendering="crispEdges" fill="rgb(115, 49, 32)"  x="24" y="13" width="1" height="1" /><rect shape-rendering="crispEdges" fill="rgb(65, 41, 24)"  x="24" y="14" width="1" height="1" /><rect shape-rendering="crispEdges" fill="rgb(65, 49, 41)"  x="24" y="15" width="1" height="1" /><rect shape-rendering="crispEdges" fill="rgb(180, 115, 90)"  x="24" y="16" width="1" height="1" /><rect shape-rendering="crispEdges" fill="rgb(98, 65, 49)"  x="24" y="17" width="1" height="1" /><rect shape-rendering="crispEdges" fill="rgb(49, 41, 49)"  x="24" y="18" width="1" height="1" /><rect shape-rendering="crispEdges" fill="rgb(49, 57, 57)"  x="24" y="19" width="1" height="1" /><rect shape-rendering="crispEdges" fill="rgb(24, 32, 65)"  x="24" y="20" width="1" height="1" /><rect shape-rendering="crispEdges" fill="rgb(74, 49, 82)"  x="24" y="21" width="1" height="1" /><rect shape-rendering="crispEdges" fill="rgb(106, 49, 82)"  x="24" y="22" width="1" height="1" /><rect shape-rendering="crispEdges" fill="rgb(156, 65, 74)"  x="24" y="23" width="1" height="1" /><rect shape-rendering="crispEdges" fill="rgb(131, 57, 74)"  x="24" y="24" width="1" height="1" /><rect shape-rendering="crispEdges" fill="rgb(57, 41, 65)"  x="24" y="25" width="1" height="1" /><rect shape-rendering="crispEdges" fill="rgb(24, 41, 65)"  x="24" y="26" width="1" height="1" /><rect shape-rendering="crispEdges" fill="rgb(98, 98, 82)"  x="25" y="7" width="1" height="1" /><rect shape-rendering="crispEdges" fill="rgb(115, 106, 90)"  x="25" y="8" width="1" height="1" /><rect shape-rendering="crispEdges" fill="rgb(131, 123, 90)"  x="25" y="9" width="1" height="1" /><rect shape-rendering="crispEdges" fill="rgb(115, 90, 65)"  x="25" y="10" width="1" height="1" /><rect shape-rendering="crispEdges" fill="rgb(90, 65, 57)"  x="25" y="11" width="1" height="1" /><rect shape-rendering="crispEdges" fill="rgb(98, 65, 49)"  x="25" y="15" width="1" height="1" /><rect shape-rendering="crispEdges" fill="rgb(115, 74, 57)"  x="25" y="16" width="1" height="1" /><rect shape-rendering="crispEdges" fill="rgb(57, 41, 32)"  x="25" y="17" width="1" height="1" /><rect shape-rendering="crispEdges" fill="rgb(123, 74, 57)"  x="25" y="18" width="1" height="1" /><rect shape-rendering="crispEdges" fill="rgb(139, 90, 65)"  x="25" y="19" width="1" height="1" /><rect shape-rendering="crispEdges" fill="rgb(49, 41, 41)"  x="25" y="20" width="1" height="1" /><rect shape-rendering="crispEdges" fill="rgb(16, 24, 49)"  x="25" y="21" width="1" height="1" /><rect shape-rendering="crispEdges" fill="rgb(24, 41, 82)"  x="25" y="22" width="1" height="1" /><rect shape-rendering="crispEdges" fill="rgb(32, 49, 90)"  x="25" y="23" width="1" height="1" /><rect shape-rendering="crispEdges" fill="rgb(32, 49, 65)"  x="25" y="24" width="1" height="1" /><rect shape-rendering="crispEdges" fill="rgb(49, 65, 65)"  x="25" y="25" width="1" height="1" /><rect shape-rendering="crispEdges" fill="rgb(98, 65, 49)"  x="26" y="18" width="1" height="1" /><rect shape-rendering="crispEdges" fill="rgb(98, 65, 49)"  x="26" y="19" width="1" height="1" /><rect shape-rendering="crispEdges" fill="rgb(74, 74, 65)"  x="26" y="21" width="1" height="1" /><rect shape-rendering="crispEdges" fill="rgb(65, 74, 65)"  x="26" y="22" width="1" height="1" /><rect shape-rendering="crispEdges" fill="rgb(49, 65, 65)"  x="26" y="23" width="1" height="1" /></svg>