<svg xmlns="http://www.w3.org/2000/svg" xmlns:xlink= "http://www.w3.org/1999/xlink" width="32" height="32" viewBox ="0 0 32 32"><rect shape-rendering="crispEdges" fill="rgb(32, 32, 41)"  x="1" y="19" width="1" height="1" /><rect shape-rendering="crispEdges" fill="rgb(16, 8, 16)"  x="1" y="20" width="1" height="1" /><rect shape-rendering="crispEdges" fill="rgb(16, 8, 16)"  x="1" y="21" width="1" height="1" /><rect shape-rendering="crispEdges" fill="rgb(16, 8, 16)"  x="1" y="22" width="1" height="1" /><rect shape-rendering="crispEdges" fill="rgb(16, 8, 16)"  x="1" y="23" width="1" height="1" /><rect shape-rendering="crispEdges" fill="rgb(16, 8, 16)"  x="1" y="24" width="1" height="1" /><rect shape-rendering="crispEdges" fill="rgb(32, 32, 57)"  x="2" y="18" width="1" height="1" /><rect shape-rendering="crispEdges" fill="rgb(74, 106, 164)"  x="2" y="19" width="1" height="1" /><rect shape-rendering="crispEdges" fill="rgb(65, 90, 164)"  x="2" y="20" width="1" height="1" /><rect shape-rendering="crispEdges" fill="rgb(49, 65, 131)"  x="2" y="21" width="1" height="1" /><rect shape-rendering="crispEdges" fill="rgb(41, 41, 82)"  x="2" y="22" width="1" height="1" /><rect shape-rendering="crispEdges" fill="rgb(49, 57, 131)"  x="2" y="23" width="1" height="1" /><rect shape-rendering="crispEdges" fill="rgb(16, 0, 8)"  x="2" y="24" width="1" height="1" /><rect shape-rendering="crispEdges" fill="rgb(32, 32, 65)"  x="3" y="17" width="1" height="1" /><rect shape-rendering="crispEdges" fill="rgb(57, 74, 139)"  x="3" y="18" width="1" height="1" /><rect shape-rendering="crispEdges" fill="rgb(106, 164, 230)"  x="3" y="19" width="1" height="1" /><rect shape-rendering="crispEdges" fill="rgb(65, 98, 156)"  x="3" y="20" width="1" height="1" /><rect shape-rendering="crispEdges" fill="rgb(49, 57, 123)"  x="3" y="21" width="1" height="1" /><rect shape-rendering="crispEdges" fill="rgb(41, 49, 106)"  x="3" y="22" width="1" height="1" /><rect shape-rendering="crispEdges" fill="rgb(49, 57, 131)"  x="3" y="23" width="1" height="1" /><rect shape-rendering="crispEdges" fill="rgb(16, 8, 8)"  x="3" y="24" width="1" height="1" /><rect shape-rendering="crispEdges" fill="rgb(16, 0, 0)"  x="3" y="25" width="1" height="1" /><rect shape-rendering="crispEdges" fill="rgb(41, 49, 90)"  x="4" y="16" width="1" height="1" /><rect shape-rendering="crispEdges" fill="rgb(49, 90, 164)"  x="4" y="17" width="1" height="1" /><rect shape-rendering="crispEdges" fill="rgb(57, 106, 180)"  x="4" y="18" width="1" height="1" /><rect shape-rendering="crispEdges" fill="rgb(49, 74, 123)"  x="4" y="19" width="1" height="1" /><rect shape-rendering="crispEdges" fill="rgb(41, 74, 123)"  x="4" y="20" width="1" height="1" /><rect shape-rendering="crispEdges" fill="rgb(49, 82, 156)"  x="4" y="21" width="1" height="1" /><rect shape-rendering="crispEdges" fill="rgb(49, 65, 131)"  x="4" y="22" width="1" height="1" /><rect shape-rendering="crispEdges" fill="rgb(32, 32, 74)"  x="4" y="23" width="1" height="1" /><rect shape-rendering="crispEdges" fill="rgb(49, 57, 131)"  x="4" y="24" width="1" height="1" /><rect shape-rendering="crispEdges" fill="rgb(16, 0, 0)"  x="4" y="25" width="1" height="1" /><rect shape-rendering="crispEdges" fill="rgb(24, 24, 57)"  x="5" y="15" width="1" height="1" /><rect shape-rendering="crispEdges" fill="rgb(57, 90, 172)"  x="5" y="16" width="1" height="1" /><rect shape-rendering="crispEdges" fill="rgb(57, 115, 189)"  x="5" y="17" width="1" height="1" /><rect shape-rendering="crispEdges" fill="rgb(41, 74, 123)"  x="5" y="18" width="1" height="1" /><rect shape-rendering="crispEdges" fill="rgb(41, 74, 123)"  x="5" y="19" width="1" height="1" /><rect shape-rendering="crispEdges" fill="rgb(49, 115, 197)"  x="5" y="20" width="1" height="1" /><rect shape-rendering="crispEdges" fill="rgb(49, 106, 180)"  x="5" y="21" width="1" height="1" /><rect shape-rendering="crispEdges" fill="rgb(49, 74, 131)"  x="5" y="22" width="1" height="1" /><rect shape-rendering="crispEdges" fill="rgb(32, 32, 74)"  x="5" y="23" width="1" height="1" /><rect shape-rendering="crispEdges" fill="rgb(49, 57, 131)"  x="5" y="24" width="1" height="1" /><rect shape-rendering="crispEdges" fill="rgb(16, 0, 0)"  x="5" y="25" width="1" height="1" /><rect shape-rendering="crispEdges" fill="rgb(24, 24, 49)"  x="6" y="14" width="1" height="1" /><rect shape-rendering="crispEdges" fill="rgb(49, 90, 156)"  x="6" y="15" width="1" height="1" /><rect shape-rendering="crispEdges" fill="rgb(65, 115, 189)"  x="6" y="16" width="1" height="1" /><rect shape-rendering="crispEdges" fill="rgb(41, 74, 131)"  x="6" y="17" width="1" height="1" /><rect shape-rendering="crispEdges" fill="rgb(41, 82, 148)"  x="6" y="18" width="1" height="1" /><rect shape-rendering="crispEdges" fill="rgb(49, 106, 180)"  x="6" y="19" width="1" height="1" /><rect shape-rendering="crispEdges" fill="rgb(49, 115, 189)"  x="6" y="20" width="1" height="1" /><rect shape-rendering="crispEdges" fill="rgb(49, 98, 172)"  x="6" y="21" width="1" height="1" /><rect shape-rendering="crispEdges" fill="rgb(41, 65, 123)"  x="6" y="22" width="1" height="1" /><rect shape-rendering="crispEdges" fill="rgb(32, 24, 57)"  x="6" y="23" width="1" height="1" /><rect shape-rendering="crispEdges" fill="rgb(49, 57, 131)"  x="6" y="24" width="1" height="1" /><rect shape-rendering="crispEdges" fill="rgb(16, 0, 0)"  x="6" y="25" width="1" height="1" /><rect shape-rendering="crispEdges" fill="rgb(32, 32, 65)"  x="7" y="13" width="1" height="1" /><rect shape-rendering="crispEdges" fill="rgb(57, 90, 164)"  x="7" y="14" width="1" height="1" /><rect shape-rendering="crispEdges" fill="rgb(57, 115, 189)"  x="7" y="15" width="1" height="1" /><rect shape-rendering="crispEdges" fill="rgb(49, 65, 123)"  x="7" y="16" width="1" height="1" /><rect shape-rendering="crispEdges" fill="rgb(41, 90, 148)"  x="7" y="17" width="1" height="1" /><rect shape-rendering="crispEdges" fill="rgb(49, 106, 180)"  x="7" y="18" width="1" height="1" /><rect shape-rendering="crispEdges" fill="rgb(49, 106, 180)"  x="7" y="19" width="1" height="1" /><rect shape-rendering="crispEdges" fill="rgb(49, 106, 180)"  x="7" y="20" width="1" height="1" /><rect shape-rendering="crispEdges" fill="rgb(49, 82, 156)"  x="7" y="21" width="1" height="1" /><rect shape-rendering="crispEdges" fill="rgb(41, 49, 98)"  x="7" y="22" width="1" height="1" /><rect shape-rendering="crispEdges" fill="rgb(49, 57, 131)"  x="7" y="23" width="1" height="1" /><rect shape-rendering="crispEdges" fill="rgb(16, 8, 8)"  x="7" y="24" width="1" height="1" /><rect shape-rendering="crispEdges" fill="rgb(16, 0, 0)"  x="7" y="25" width="1" height="1" /><rect shape-rendering="crispEdges" fill="rgb(24, 16, 41)"  x="8" y="11" width="1" height="1" /><rect shape-rendering="crispEdges" fill="rgb(41, 41, 90)"  x="8" y="12" width="1" height="1" /><rect shape-rendering="crispEdges" fill="rgb(49, 82, 156)"  x="8" y="13" width="1" height="1" /><rect shape-rendering="crispEdges" fill="rgb(65, 106, 180)"  x="8" y="14" width="1" height="1" /><rect shape-rendering="crispEdges" fill="rgb(49, 74, 131)"  x="8" y="15" width="1" height="1" /><rect shape-rendering="crispEdges" fill="rgb(49, 106, 180)"  x="8" y="16" width="1" height="1" /><rect shape-rendering="crispEdges" fill="rgb(57, 123, 205)"  x="8" y="17" width="1" height="1" /><rect shape-rendering="crispEdges" fill="rgb(49, 106, 189)"  x="8" y="18" width="1" height="1" /><rect shape-rendering="crispEdges" fill="rgb(49, 90, 164)"  x="8" y="19" width="1" height="1" /><rect shape-rendering="crispEdges" fill="rgb(49, 82, 148)"  x="8" y="20" width="1" height="1" /><rect shape-rendering="crispEdges" fill="rgb(41, 57, 115)"  x="8" y="21" width="1" height="1" /><rect shape-rendering="crispEdges" fill="rgb(32, 32, 65)"  x="8" y="22" width="1" height="1" /><rect shape-rendering="crispEdges" fill="rgb(49, 57, 131)"  x="8" y="23" width="1" height="1" /><rect shape-rendering="crispEdges" fill="rgb(16, 8, 8)"  x="8" y="24" width="1" height="1" /><rect shape-rendering="crispEdges" fill="rgb(16, 0, 0)"  x="8" y="25" width="1" height="1" /><rect shape-rendering="crispEdges" fill="rgb(32, 32, 57)"  x="9" y="10" width="1" height="1" /><rect shape-rendering="crispEdges" fill="rgb(57, 98, 164)"  x="9" y="11" width="1" height="1" /><rect shape-rendering="crispEdges" fill="rgb(74, 98, 164)"  x="9" y="12" width="1" height="1" /><rect shape-rendering="crispEdges" fill="rgb(41, 74, 131)"  x="9" y="13" width="1" height="1" /><rect shape-rendering="crispEdges" fill="rgb(49, 65, 123)"  x="9" y="14" width="1" height="1" /><rect shape-rendering="crispEdges" fill="rgb(57, 123, 205)"  x="9" y="15" width="1" height="1" /><rect shape-rendering="crispEdges" fill="rgb(49, 106, 189)"  x="9" y="16" width="1" height="1" /><rect shape-rendering="crispEdges" fill="rgb(57, 123, 205)"  x="9" y="17" width="1" height="1" /><rect shape-rendering="crispEdges" fill="rgb(57, 106, 180)"  x="9" y="18" width="1" height="1" /><rect shape-rendering="crispEdges" fill="rgb(49, 82, 148)"  x="9" y="19" width="1" height="1" /><rect shape-rendering="crispEdges" fill="rgb(49, 65, 123)"  x="9" y="20" width="1" height="1" /><rect shape-rendering="crispEdges" fill="rgb(32, 41, 90)"  x="9" y="21" width="1" height="1" /><rect shape-rendering="crispEdges" fill="rgb(41, 32, 65)"  x="9" y="22" width="1" height="1" /><rect shape-rendering="crispEdges" fill="rgb(49, 57, 131)"  x="9" y="23" width="1" height="1" /><rect shape-rendering="crispEdges" fill="rgb(16, 0, 8)"  x="9" y="24" width="1" height="1" /><rect shape-rendering="crispEdges" fill="rgb(32, 32, 41)"  x="10" y="9" width="1" height="1" /><rect shape-rendering="crispEdges" fill="rgb(57, 123, 197)"  x="10" y="10" width="1" height="1" /><rect shape-rendering="crispEdges" fill="rgb(49, 98, 164)"  x="10" y="11" width="1" height="1" /><rect shape-rendering="crispEdges" fill="rgb(49, 74, 131)"  x="10" y="12" width="1" height="1" /><rect shape-rendering="crispEdges" fill="rgb(57, 123, 205)"  x="10" y="13" width="1" height="1" /><rect shape-rendering="crispEdges" fill="rgb(49, 65, 131)"  x="10" y="14" width="1" height="1" /><rect shape-rendering="crispEdges" fill="rgb(57, 115, 189)"  x="10" y="15" width="1" height="1" /><rect shape-rendering="crispEdges" fill="rgb(57, 115, 197)"  x="10" y="16" width="1" height="1" /><rect shape-rendering="crispEdges" fill="rgb(49, 74, 148)"  x="10" y="17" width="1" height="1" /><rect shape-rendering="crispEdges" fill="rgb(49, 65, 131)"  x="10" y="18" width="1" height="1" /><rect shape-rendering="crispEdges" fill="rgb(49, 65, 123)"  x="10" y="19" width="1" height="1" /><rect shape-rendering="crispEdges" fill="rgb(41, 41, 98)"  x="10" y="20" width="1" height="1" /><rect shape-rendering="crispEdges" fill="rgb(32, 32, 65)"  x="10" y="21" width="1" height="1" /><rect shape-rendering="crispEdges" fill="rgb(49, 57, 131)"  x="10" y="22" width="1" height="1" /><rect shape-rendering="crispEdges" fill="rgb(16, 8, 8)"  x="10" y="23" width="1" height="1" /><rect shape-rendering="crispEdges" fill="rgb(16, 8, 8)"  x="10" y="24" width="1" height="1" /><rect shape-rendering="crispEdges" fill="rgb(32, 32, 41)"  x="11" y="9" width="1" height="1" /><rect shape-rendering="crispEdges" fill="rgb(57, 123, 197)"  x="11" y="10" width="1" height="1" /><rect shape-rendering="crispEdges" fill="rgb(49, 82, 148)"  x="11" y="11" width="1" height="1" /><rect shape-rendering="crispEdges" fill="rgb(49, 57, 115)"  x="11" y="12" width="1" height="1" /><rect shape-rendering="crispEdges" fill="rgb(57, 90, 164)"  x="11" y="13" width="1" height="1" /><rect shape-rendering="crispEdges" fill="rgb(57, 123, 205)"  x="11" y="14" width="1" height="1" /><rect shape-rendering="crispEdges" fill="rgb(49, 98, 180)"  x="11" y="15" width="1" height="1" /><rect shape-rendering="crispEdges" fill="rgb(57, 106, 180)"  x="11" y="16" width="1" height="1" /><rect shape-rendering="crispEdges" fill="rgb(49, 90, 164)"  x="11" y="17" width="1" height="1" /><rect shape-rendering="crispEdges" fill="rgb(41, 65, 123)"  x="11" y="18" width="1" height="1" /><rect shape-rendering="crispEdges" fill="rgb(32, 41, 82)"  x="11" y="19" width="1" height="1" /><rect shape-rendering="crispEdges" fill="rgb(32, 32, 65)"  x="11" y="20" width="1" height="1" /><rect shape-rendering="crispEdges" fill="rgb(32, 24, 41)"  x="11" y="21" width="1" height="1" /><rect shape-rendering="crispEdges" fill="rgb(24, 8, 16)"  x="11" y="22" width="1" height="1" /><rect shape-rendering="crispEdges" fill="rgb(16, 0, 0)"  x="11" y="23" width="1" height="1" /><rect shape-rendering="crispEdges" fill="rgb(32, 32, 57)"  x="12" y="9" width="1" height="1" /><rect shape-rendering="crispEdges" fill="rgb(57, 123, 205)"  x="12" y="10" width="1" height="1" /><rect shape-rendering="crispEdges" fill="rgb(49, 90, 156)"  x="12" y="11" width="1" height="1" /><rect shape-rendering="crispEdges" fill="rgb(49, 65, 123)"  x="12" y="12" width="1" height="1" /><rect shape-rendering="crispEdges" fill="rgb(49, 57, 106)"  x="12" y="13" width="1" height="1" /><rect shape-rendering="crispEdges" fill="rgb(49, 82, 148)"  x="12" y="14" width="1" height="1" /><rect shape-rendering="crispEdges" fill="rgb(57, 123, 205)"  x="12" y="15" width="1" height="1" /><rect shape-rendering="crispEdges" fill="rgb(57, 98, 180)"  x="12" y="16" width="1" height="1" /><rect shape-rendering="crispEdges" fill="rgb(49, 90, 156)"  x="12" y="17" width="1" height="1" /><rect shape-rendering="crispEdges" fill="rgb(41, 74, 131)"  x="12" y="18" width="1" height="1" /><rect shape-rendering="crispEdges" fill="rgb(24, 24, 57)"  x="12" y="19" width="1" height="1" /><rect shape-rendering="crispEdges" fill="rgb(32, 24, 49)"  x="12" y="20" width="1" height="1" /><rect shape-rendering="crispEdges" fill="rgb(32, 24, 32)"  x="12" y="21" width="1" height="1" /><rect shape-rendering="crispEdges" fill="rgb(16, 8, 8)"  x="12" y="22" width="1" height="1" /><rect shape-rendering="crispEdges" fill="rgb(32, 32, 49)"  x="13" y="9" width="1" height="1" /><rect shape-rendering="crispEdges" fill="rgb(41, 65, 106)"  x="13" y="10" width="1" height="1" /><rect shape-rendering="crispEdges" fill="rgb(57, 123, 205)"  x="13" y="11" width="1" height="1" /><rect shape-rendering="crispEdges" fill="rgb(57, 123, 205)"  x="13" y="12" width="1" height="1" /><rect shape-rendering="crispEdges" fill="rgb(49, 90, 156)"  x="13" y="13" width="1" height="1" /><rect shape-rendering="crispEdges" fill="rgb(41, 57, 106)"  x="13" y="14" width="1" height="1" /><rect shape-rendering="crispEdges" fill="rgb(41, 57, 115)"  x="13" y="15" width="1" height="1" /><rect shape-rendering="crispEdges" fill="rgb(49, 74, 148)"  x="13" y="16" width="1" height="1" /><rect shape-rendering="crispEdges" fill="rgb(49, 57, 123)"  x="13" y="17" width="1" height="1" /><rect shape-rendering="crispEdges" fill="rgb(32, 32, 65)"  x="13" y="18" width="1" height="1" /><rect shape-rendering="crispEdges" fill="rgb(32, 24, 32)"  x="13" y="19" width="1" height="1" /><rect shape-rendering="crispEdges" fill="rgb(32, 24, 32)"  x="13" y="20" width="1" height="1" /><rect shape-rendering="crispEdges" fill="rgb(16, 8, 8)"  x="13" y="21" width="1" height="1" /><rect shape-rendering="crispEdges" fill="rgb(32, 32, 41)"  x="14" y="8" width="1" height="1" /><rect shape-rendering="crispEdges" fill="rgb(57, 123, 205)"  x="14" y="9" width="1" height="1" /><rect shape-rendering="crispEdges" fill="rgb(32, 32, 74)"  x="14" y="10" width="1" height="1" /><rect shape-rendering="crispEdges" fill="rgb(32, 41, 65)"  x="14" y="11" width="1" height="1" /><rect shape-rendering="crispEdges" fill="rgb(41, 57, 98)"  x="14" y="12" width="1" height="1" /><rect shape-rendering="crispEdges" fill="rgb(57, 123, 205)"  x="14" y="13" width="1" height="1" /><rect shape-rendering="crispEdges" fill="rgb(49, 90, 156)"  x="14" y="14" width="1" height="1" /><rect shape-rendering="crispEdges" fill="rgb(41, 41, 98)"  x="14" y="15" width="1" height="1" /><rect shape-rendering="crispEdges" fill="rgb(41, 41, 82)"  x="14" y="16" width="1" height="1" /><rect shape-rendering="crispEdges" fill="rgb(32, 32, 82)"  x="14" y="17" width="1" height="1" /><rect shape-rendering="crispEdges" fill="rgb(41, 41, 57)"  x="14" y="18" width="1" height="1" /><rect shape-rendering="crispEdges" fill="rgb(49, 49, 49)"  x="14" y="19" width="1" height="1" /><rect shape-rendering="crispEdges" fill="rgb(24, 24, 24)"  x="14" y="20" width="1" height="1" /><rect shape-rendering="crispEdges" fill="rgb(32, 32, 41)"  x="15" y="8" width="1" height="1" /><rect shape-rendering="crispEdges" fill="rgb(57, 123, 205)"  x="15" y="9" width="1" height="1" /><rect shape-rendering="crispEdges" fill="rgb(49, 41, 74)"  x="15" y="10" width="1" height="1" /><rect shape-rendering="crispEdges" fill="rgb(90, 65, 98)"  x="15" y="11" width="1" height="1" /><rect shape-rendering="crispEdges" fill="rgb(49, 32, 57)"  x="15" y="12" width="1" height="1" /><rect shape-rendering="crispEdges" fill="rgb(32, 41, 65)"  x="15" y="13" width="1" height="1" /><rect shape-rendering="crispEdges" fill="rgb(49, 65, 131)"  x="15" y="14" width="1" height="1" /><rect shape-rendering="crispEdges" fill="rgb(49, 49, 115)"  x="15" y="15" width="1" height="1" /><rect shape-rendering="crispEdges" fill="rgb(41, 41, 90)"  x="15" y="16" width="1" height="1" /><rect shape-rendering="crispEdges" fill="rgb(32, 32, 49)"  x="15" y="17" width="1" height="1" /><rect shape-rendering="crispEdges" fill="rgb(57, 65, 65)"  x="15" y="18" width="1" height="1" /><rect shape-rendering="crispEdges" fill="rgb(65, 74, 74)"  x="15" y="19" width="1" height="1" /><rect shape-rendering="crispEdges" fill="rgb(32, 24, 24)"  x="15" y="20" width="1" height="1" /><rect shape-rendering="crispEdges" fill="rgb(32, 32, 41)"  x="16" y="8" width="1" height="1" /><rect shape-rendering="crispEdges" fill="rgb(57, 123, 205)"  x="16" y="9" width="1" height="1" /><rect shape-rendering="crispEdges" fill="rgb(82, 57, 90)"  x="16" y="10" width="1" height="1" /><rect shape-rendering="crispEdges" fill="rgb(90, 65, 98)"  x="16" y="11" width="1" height="1" /><rect shape-rendering="crispEdges" fill="rgb(65, 49, 74)"  x="16" y="12" width="1" height="1" /><rect shape-rendering="crispEdges" fill="rgb(32, 32, 49)"  x="16" y="13" width="1" height="1" /><rect shape-rendering="crispEdges" fill="rgb(41, 57, 115)"  x="16" y="14" width="1" height="1" /><rect shape-rendering="crispEdges" fill="rgb(32, 32, 65)"  x="16" y="15" width="1" height="1" /><rect shape-rendering="crispEdges" fill="rgb(32, 32, 57)"  x="16" y="16" width="1" height="1" /><rect shape-rendering="crispEdges" fill="rgb(41, 41, 49)"  x="16" y="17" width="1" height="1" /><rect shape-rendering="crispEdges" fill="rgb(74, 74, 82)"  x="16" y="18" width="1" height="1" /><rect shape-rendering="crispEdges" fill="rgb(32, 32, 32)"  x="16" y="19" width="1" height="1" /><rect shape-rendering="crispEdges" fill="rgb(32, 32, 41)"  x="17" y="8" width="1" height="1" /><rect shape-rendering="crispEdges" fill="rgb(57, 123, 205)"  x="17" y="9" width="1" height="1" /><rect shape-rendering="crispEdges" fill="rgb(82, 65, 98)"  x="17" y="10" width="1" height="1" /><rect shape-rendering="crispEdges" fill="rgb(90, 65, 98)"  x="17" y="11" width="1" height="1" /><rect shape-rendering="crispEdges" fill="rgb(57, 41, 65)"  x="17" y="12" width="1" height="1" /><rect shape-rendering="crispEdges" fill="rgb(32, 32, 57)"  x="17" y="13" width="1" height="1" /><rect shape-rendering="crispEdges" fill="rgb(41, 49, 90)"  x="17" y="14" width="1" height="1" /><rect shape-rendering="crispEdges" fill="rgb(24, 24, 49)"  x="17" y="15" width="1" height="1" /><rect shape-rendering="crispEdges" fill="rgb(24, 24, 32)"  x="17" y="16" width="1" height="1" /><rect shape-rendering="crispEdges" fill="rgb(65, 74, 74)"  x="17" y="17" width="1" height="1" /><rect shape-rendering="crispEdges" fill="rgb(32, 32, 32)"  x="17" y="18" width="1" height="1" /><rect shape-rendering="crispEdges" fill="rgb(32, 32, 49)"  x="18" y="8" width="1" height="1" /><rect shape-rendering="crispEdges" fill="rgb(57, 123, 205)"  x="18" y="9" width="1" height="1" /><rect shape-rendering="crispEdges" fill="rgb(90, 65, 98)"  x="18" y="10" width="1" height="1" /><rect shape-rendering="crispEdges" fill="rgb(65, 49, 74)"  x="18" y="11" width="1" height="1" /><rect shape-rendering="crispEdges" fill="rgb(32, 24, 41)"  x="18" y="12" width="1" height="1" /><rect shape-rendering="crispEdges" fill="rgb(57, 123, 205)"  x="18" y="13" width="1" height="1" /><rect shape-rendering="crispEdges" fill="rgb(32, 32, 74)"  x="18" y="14" width="1" height="1" /><rect shape-rendering="crispEdges" fill="rgb(24, 16, 41)"  x="18" y="15" width="1" height="1" /><rect shape-rendering="crispEdges" fill="rgb(57, 57, 65)"  x="18" y="16" width="1" height="1" /><rect shape-rendering="crispEdges" fill="rgb(32, 32, 32)"  x="18" y="17" width="1" height="1" /><rect shape-rendering="crispEdges" fill="rgb(32, 32, 41)"  x="19" y="9" width="1" height="1" /><rect shape-rendering="crispEdges" fill="rgb(57, 123, 205)"  x="19" y="10" width="1" height="1" /><rect shape-rendering="crispEdges" fill="rgb(57, 123, 205)"  x="19" y="11" width="1" height="1" /><rect shape-rendering="crispEdges" fill="rgb(57, 123, 205)"  x="19" y="12" width="1" height="1" /><rect shape-rendering="crispEdges" fill="rgb(32, 41, 74)"  x="19" y="13" width="1" height="1" /><rect shape-rendering="crispEdges" fill="rgb(24, 16, 41)"  x="19" y="14" width="1" height="1" /><rect shape-rendering="crispEdges" fill="rgb(41, 41, 49)"  x="19" y="15" width="1" height="1" /><rect shape-rendering="crispEdges" fill="rgb(32, 32, 32)"  x="19" y="16" width="1" height="1" /><rect shape-rendering="crispEdges" fill="rgb(41, 32, 57)"  x="19" y="20" width="1" height="1" /><rect shape-rendering="crispEdges" fill="rgb(41, 32, 57)"  x="19" y="21" width="1" height="1" /><rect shape-rendering="crispEdges" fill="rgb(41, 41, 74)"  x="19" y="22" width="1" height="1" /><rect shape-rendering="crispEdges" fill="rgb(32, 41, 74)"  x="19" y="23" width="1" height="1" /><rect shape-rendering="crispEdges" fill="rgb(41, 41, 74)"  x="19" y="24" width="1" height="1" /><rect shape-rendering="crispEdges" fill="rgb(57, 57, 74)"  x="19" y="25" width="1" height="1" /><rect shape-rendering="crispEdges" fill="rgb(32, 32, 49)"  x="20" y="10" width="1" height="1" /><rect shape-rendering="crispEdges" fill="rgb(32, 32, 49)"  x="20" y="11" width="1" height="1" /><rect shape-rendering="crispEdges" fill="rgb(32, 32, 57)"  x="20" y="12" width="1" height="1" /><rect shape-rendering="crispEdges" fill="rgb(32, 32, 57)"  x="20" y="13" width="1" height="1" /><rect shape-rendering="crispEdges" fill="rgb(32, 24, 32)"  x="20" y="14" width="1" height="1" /><rect shape-rendering="crispEdges" fill="rgb(24, 16, 32)"  x="20" y="15" width="1" height="1" /><rect shape-rendering="crispEdges" fill="rgb(32, 24, 41)"  x="20" y="16" width="1" height="1" /><rect shape-rendering="crispEdges" fill="rgb(24, 24, 49)"  x="20" y="17" width="1" height="1" /><rect shape-rendering="crispEdges" fill="rgb(32, 32, 65)"  x="20" y="18" width="1" height="1" /><rect shape-rendering="crispEdges" fill="rgb(32, 32, 74)"  x="20" y="19" width="1" height="1" /><rect shape-rendering="crispEdges" fill="rgb(41, 41, 90)"  x="20" y="20" width="1" height="1" /><rect shape-rendering="crispEdges" fill="rgb(41, 49, 106)"  x="20" y="21" width="1" height="1" /><rect shape-rendering="crispEdges" fill="rgb(41, 49, 106)"  x="20" y="22" width="1" height="1" /><rect shape-rendering="crispEdges" fill="rgb(41, 49, 115)"  x="20" y="23" width="1" height="1" /><rect shape-rendering="crispEdges" fill="rgb(41, 41, 98)"  x="20" y="24" width="1" height="1" /><rect shape-rendering="crispEdges" fill="rgb(32, 32, 74)"  x="20" y="25" width="1" height="1" /><rect shape-rendering="crispEdges" fill="rgb(49, 32, 49)"  x="20" y="26" width="1" height="1" /><rect shape-rendering="crispEdges" fill="rgb(24, 16, 16)"  x="20" y="27" width="1" height="1" /><rect shape-rendering="crispEdges" fill="rgb(24, 32, 57)"  x="21" y="9" width="1" height="1" /><rect shape-rendering="crispEdges" fill="rgb(57, 123, 205)"  x="21" y="10" width="1" height="1" /><rect shape-rendering="crispEdges" fill="rgb(57, 123, 205)"  x="21" y="11" width="1" height="1" /><rect shape-rendering="crispEdges" fill="rgb(41, 32, 65)"  x="21" y="12" width="1" height="1" /><rect shape-rendering="crispEdges" fill="rgb(32, 32, 41)"  x="21" y="13" width="1" height="1" /><rect shape-rendering="crispEdges" fill="rgb(32, 32, 74)"  x="21" y="14" width="1" height="1" /><rect shape-rendering="crispEdges" fill="rgb(32, 32, 74)"  x="21" y="15" width="1" height="1" /><rect shape-rendering="crispEdges" fill="rgb(32, 32, 74)"  x="21" y="16" width="1" height="1" /><rect shape-rendering="crispEdges" fill="rgb(41, 49, 98)"  x="21" y="17" width="1" height="1" /><rect shape-rendering="crispEdges" fill="rgb(49, 57, 123)"  x="21" y="18" width="1" height="1" /><rect shape-rendering="crispEdges" fill="rgb(49, 65, 139)"  x="21" y="19" width="1" height="1" /><rect shape-rendering="crispEdges" fill="rgb(49, 74, 148)"  x="21" y="20" width="1" height="1" /><rect shape-rendering="crispEdges" fill="rgb(49, 90, 164)"  x="21" y="21" width="1" height="1" /><rect shape-rendering="crispEdges" fill="rgb(74, 123, 197)"  x="21" y="22" width="1" height="1" /><rect shape-rendering="crispEdges" fill="rgb(74, 115, 180)"  x="21" y="23" width="1" height="1" /><rect shape-rendering="crispEdges" fill="rgb(49, 74, 148)"  x="21" y="24" width="1" height="1" /><rect shape-rendering="crispEdges" fill="rgb(41, 41, 98)"  x="21" y="25" width="1" height="1" /><rect shape-rendering="crispEdges" fill="rgb(41, 32, 65)"  x="21" y="26" width="1" height="1" /><rect shape-rendering="crispEdges" fill="rgb(32, 16, 24)"  x="21" y="27" width="1" height="1" /><rect shape-rendering="crispEdges" fill="rgb(24, 16, 16)"  x="21" y="28" width="1" height="1" /><rect shape-rendering="crispEdges" fill="rgb(32, 32, 41)"  x="22" y="8" width="1" height="1" /><rect shape-rendering="crispEdges" fill="rgb(41, 74, 131)"  x="22" y="9" width="1" height="1" /><rect shape-rendering="crispEdges" fill="rgb(49, 41, 74)"  x="22" y="10" width="1" height="1" /><rect shape-rendering="crispEdges" fill="rgb(74, 49, 82)"  x="22" y="11" width="1" height="1" /><rect shape-rendering="crispEdges" fill="rgb(41, 24, 49)"  x="22" y="12" width="1" height="1" /><rect shape-rendering="crispEdges" fill="rgb(49, 57, 115)"  x="22" y="13" width="1" height="1" /><rect shape-rendering="crispEdges" fill="rgb(57, 74, 148)"  x="22" y="14" width="1" height="1" /><rect shape-rendering="crispEdges" fill="rgb(41, 49, 98)"  x="22" y="15" width="1" height="1" /><rect shape-rendering="crispEdges" fill="rgb(49, 65, 131)"  x="22" y="16" width="1" height="1" /><rect shape-rendering="crispEdges" fill="rgb(57, 98, 180)"  x="22" y="17" width="1" height="1" /><rect shape-rendering="crispEdges" fill="rgb(57, 74, 148)"  x="22" y="18" width="1" height="1" /><rect shape-rendering="crispEdges" fill="rgb(57, 74, 156)"  x="22" y="19" width="1" height="1" /><rect shape-rendering="crispEdges" fill="rgb(57, 90, 164)"  x="22" y="20" width="1" height="1" /><rect shape-rendering="crispEdges" fill="rgb(57, 106, 189)"  x="22" y="21" width="1" height="1" /><rect shape-rendering="crispEdges" fill="rgb(90, 156, 238)"  x="22" y="22" width="1" height="1" /><rect shape-rendering="crispEdges" fill="rgb(106, 172, 246)"  x="22" y="23" width="1" height="1" /><rect shape-rendering="crispEdges" fill="rgb(65, 98, 180)"  x="22" y="24" width="1" height="1" /><rect shape-rendering="crispEdges" fill="rgb(49, 65, 139)"  x="22" y="25" width="1" height="1" /><rect shape-rendering="crispEdges" fill="rgb(32, 41, 90)"  x="22" y="26" width="1" height="1" /><rect shape-rendering="crispEdges" fill="rgb(41, 32, 49)"  x="22" y="27" width="1" height="1" /><rect shape-rendering="crispEdges" fill="rgb(32, 24, 32)"  x="22" y="28" width="1" height="1" /><rect shape-rendering="crispEdges" fill="rgb(32, 24, 24)"  x="22" y="29" width="1" height="1" /><rect shape-rendering="crispEdges" fill="rgb(32, 32, 41)"  x="23" y="8" width="1" height="1" /><rect shape-rendering="crispEdges" fill="rgb(57, 123, 205)"  x="23" y="9" width="1" height="1" /><rect shape-rendering="crispEdges" fill="rgb(74, 57, 90)"  x="23" y="10" width="1" height="1" /><rect shape-rendering="crispEdges" fill="rgb(90, 65, 98)"  x="23" y="11" width="1" height="1" /><rect shape-rendering="crispEdges" fill="rgb(32, 32, 41)"  x="23" y="12" width="1" height="1" /><rect shape-rendering="crispEdges" fill="rgb(57, 123, 205)"  x="23" y="13" width="1" height="1" /><rect shape-rendering="crispEdges" fill="rgb(57, 98, 172)"  x="23" y="14" width="1" height="1" /><rect shape-rendering="crispEdges" fill="rgb(49, 65, 131)"  x="23" y="15" width="1" height="1" /><rect shape-rendering="crispEdges" fill="rgb(57, 106, 180)"  x="23" y="16" width="1" height="1" /><rect shape-rendering="crispEdges" fill="rgb(57, 98, 172)"  x="23" y="17" width="1" height="1" /><rect shape-rendering="crispEdges" fill="rgb(57, 90, 164)"  x="23" y="18" width="1" height="1" /><rect shape-rendering="crispEdges" fill="rgb(49, 82, 148)"  x="23" y="19" width="1" height="1" /><rect shape-rendering="crispEdges" fill="rgb(49, 90, 156)"  x="23" y="20" width="1" height="1" /><rect shape-rendering="crispEdges" fill="rgb(49, 106, 172)"  x="23" y="21" width="1" height="1" /><rect shape-rendering="crispEdges" fill="rgb(49, 106, 180)"  x="23" y="22" width="1" height="1" /><rect shape-rendering="crispEdges" fill="rgb(57, 106, 180)"  x="23" y="23" width="1" height="1" /><rect shape-rendering="crispEdges" fill="rgb(49, 90, 164)"  x="23" y="24" width="1" height="1" /><rect shape-rendering="crispEdges" fill="rgb(49, 74, 139)"  x="23" y="25" width="1" height="1" /><rect shape-rendering="crispEdges" fill="rgb(41, 57, 106)"  x="23" y="26" width="1" height="1" /><rect shape-rendering="crispEdges" fill="rgb(41, 49, 90)"  x="23" y="27" width="1" height="1" /><rect shape-rendering="crispEdges" fill="rgb(41, 65, 106)"  x="23" y="28" width="1" height="1" /><rect shape-rendering="crispEdges" fill="rgb(16, 8, 8)"  x="23" y="29" width="1" height="1" /><rect shape-rendering="crispEdges" fill="rgb(32, 32, 41)"  x="24" y="8" width="1" height="1" /><rect shape-rendering="crispEdges" fill="rgb(57, 123, 205)"  x="24" y="9" width="1" height="1" /><rect shape-rendering="crispEdges" fill="rgb(90, 65, 98)"  x="24" y="10" width="1" height="1" /><rect shape-rendering="crispEdges" fill="rgb(90, 65, 98)"  x="24" y="11" width="1" height="1" /><rect shape-rendering="crispEdges" fill="rgb(32, 32, 41)"  x="24" y="12" width="1" height="1" /><rect shape-rendering="crispEdges" fill="rgb(57, 123, 205)"  x="24" y="13" width="1" height="1" /><rect shape-rendering="crispEdges" fill="rgb(57, 106, 172)"  x="24" y="14" width="1" height="1" /><rect shape-rendering="crispEdges" fill="rgb(57, 106, 180)"  x="24" y="15" width="1" height="1" /><rect shape-rendering="crispEdges" fill="rgb(57, 106, 180)"  x="24" y="16" width="1" height="1" /><rect shape-rendering="crispEdges" fill="rgb(65, 98, 156)"  x="24" y="17" width="1" height="1" /><rect shape-rendering="crispEdges" fill="rgb(74, 115, 189)"  x="24" y="18" width="1" height="1" /><rect shape-rendering="crispEdges" fill="rgb(74, 106, 180)"  x="24" y="19" width="1" height="1" /><rect shape-rendering="crispEdges" fill="rgb(65, 115, 189)"  x="24" y="20" width="1" height="1" /><rect shape-rendering="crispEdges" fill="rgb(65, 123, 197)"  x="24" y="21" width="1" height="1" /><rect shape-rendering="crispEdges" fill="rgb(57, 123, 197)"  x="24" y="22" width="1" height="1" /><rect shape-rendering="crispEdges" fill="rgb(57, 115, 197)"  x="24" y="23" width="1" height="1" /><rect shape-rendering="crispEdges" fill="rgb(65, 106, 180)"  x="24" y="24" width="1" height="1" /><rect shape-rendering="crispEdges" fill="rgb(65, 98, 164)"  x="24" y="25" width="1" height="1" /><rect shape-rendering="crispEdges" fill="rgb(57, 74, 131)"  x="24" y="26" width="1" height="1" /><rect shape-rendering="crispEdges" fill="rgb(41, 49, 82)"  x="24" y="27" width="1" height="1" /><rect shape-rendering="crispEdges" fill="rgb(49, 74, 131)"  x="24" y="28" width="1" height="1" /><rect shape-rendering="crispEdges" fill="rgb(24, 16, 16)"  x="24" y="29" width="1" height="1" /><rect shape-rendering="crispEdges" fill="rgb(32, 32, 41)"  x="25" y="8" width="1" height="1" /><rect shape-rendering="crispEdges" fill="rgb(57, 123, 205)"  x="25" y="9" width="1" height="1" /><rect shape-rendering="crispEdges" fill="rgb(82, 57, 90)"  x="25" y="10" width="1" height="1" /><rect shape-rendering="crispEdges" fill="rgb(90, 65, 98)"  x="25" y="11" width="1" height="1" /><rect shape-rendering="crispEdges" fill="rgb(32, 32, 41)"  x="25" y="12" width="1" height="1" /><rect shape-rendering="crispEdges" fill="rgb(49, 98, 164)"  x="25" y="13" width="1" height="1" /><rect shape-rendering="crispEdges" fill="rgb(32, 41, 82)"  x="25" y="14" width="1" height="1" /><rect shape-rendering="crispEdges" fill="rgb(32, 49, 90)"  x="25" y="15" width="1" height="1" /><rect shape-rendering="crispEdges" fill="rgb(32, 41, 82)"  x="25" y="16" width="1" height="1" /><rect shape-rendering="crispEdges" fill="rgb(32, 41, 82)"  x="25" y="17" width="1" height="1" /><rect shape-rendering="crispEdges" fill="rgb(41, 49, 98)"  x="25" y="18" width="1" height="1" /><rect shape-rendering="crispEdges" fill="rgb(41, 49, 98)"  x="25" y="19" width="1" height="1" /><rect shape-rendering="crispEdges" fill="rgb(41, 57, 106)"  x="25" y="20" width="1" height="1" /><rect shape-rendering="crispEdges" fill="rgb(41, 65, 115)"  x="25" y="21" width="1" height="1" /><rect shape-rendering="crispEdges" fill="rgb(41, 65, 115)"  x="25" y="22" width="1" height="1" /><rect shape-rendering="crispEdges" fill="rgb(41, 74, 123)"  x="25" y="23" width="1" height="1" /><rect shape-rendering="crispEdges" fill="rgb(41, 74, 131)"  x="25" y="24" width="1" height="1" /><rect shape-rendering="crispEdges" fill="rgb(49, 65, 131)"  x="25" y="25" width="1" height="1" /><rect shape-rendering="crispEdges" fill="rgb(41, 49, 98)"  x="25" y="26" width="1" height="1" /><rect shape-rendering="crispEdges" fill="rgb(24, 32, 65)"  x="25" y="27" width="1" height="1" /><rect shape-rendering="crispEdges" fill="rgb(41, 65, 115)"  x="25" y="28" width="1" height="1" /><rect shape-rendering="crispEdges" fill="rgb(24, 24, 41)"  x="25" y="29" width="1" height="1" /><rect shape-rendering="crispEdges" fill="rgb(32, 32, 49)"  x="26" y="8" width="1" height="1" /><rect shape-rendering="crispEdges" fill="rgb(41, 74, 139)"  x="26" y="9" width="1" height="1" /><rect shape-rendering="crispEdges" fill="rgb(82, 57, 90)"  x="26" y="10" width="1" height="1" /><rect shape-rendering="crispEdges" fill="rgb(90, 65, 98)"  x="26" y="11" width="1" height="1" /><rect shape-rendering="crispEdges" fill="rgb(32, 32, 41)"  x="26" y="12" width="1" height="1" /><rect shape-rendering="crispEdges" fill="rgb(49, 82, 148)"  x="26" y="13" width="1" height="1" /><rect shape-rendering="crispEdges" fill="rgb(41, 41, 90)"  x="26" y="14" width="1" height="1" /><rect shape-rendering="crispEdges" fill="rgb(49, 65, 131)"  x="26" y="15" width="1" height="1" /><rect shape-rendering="crispEdges" fill="rgb(49, 74, 131)"  x="26" y="16" width="1" height="1" /><rect shape-rendering="crispEdges" fill="rgb(41, 49, 106)"  x="26" y="17" width="1" height="1" /><rect shape-rendering="crispEdges" fill="rgb(49, 65, 131)"  x="26" y="18" width="1" height="1" /><rect shape-rendering="crispEdges" fill="rgb(49, 57, 123)"  x="26" y="19" width="1" height="1" /><rect shape-rendering="crispEdges" fill="rgb(41, 65, 131)"  x="26" y="20" width="1" height="1" /><rect shape-rendering="crispEdges" fill="rgb(49, 82, 148)"  x="26" y="21" width="1" height="1" /><rect shape-rendering="crispEdges" fill="rgb(49, 90, 156)"  x="26" y="22" width="1" height="1" /><rect shape-rendering="crispEdges" fill="rgb(49, 90, 164)"  x="26" y="23" width="1" height="1" /><rect shape-rendering="crispEdges" fill="rgb(49, 90, 164)"  x="26" y="24" width="1" height="1" /><rect shape-rendering="crispEdges" fill="rgb(49, 74, 139)"  x="26" y="25" width="1" height="1" /><rect shape-rendering="crispEdges" fill="rgb(41, 49, 98)"  x="26" y="26" width="1" height="1" /><rect shape-rendering="crispEdges" fill="rgb(32, 41, 82)"  x="26" y="27" width="1" height="1" /><rect shape-rendering="crispEdges" fill="rgb(32, 49, 90)"  x="26" y="28" width="1" height="1" /><rect shape-rendering="crispEdges" fill="rgb(16, 16, 24)"  x="26" y="29" width="1" height="1" /><rect shape-rendering="crispEdges" fill="rgb(32, 32, 41)"  x="27" y="9" width="1" height="1" /><rect shape-rendering="crispEdges" fill="rgb(57, 123, 205)"  x="27" y="10" width="1" height="1" /><rect shape-rendering="crispEdges" fill="rgb(57, 123, 205)"  x="27" y="11" width="1" height="1" /><rect shape-rendering="crispEdges" fill="rgb(41, 41, 65)"  x="27" y="12" width="1" height="1" /><rect shape-rendering="crispEdges" fill="rgb(32, 32, 49)"  x="27" y="13" width="1" height="1" /><rect shape-rendering="crispEdges" fill="rgb(41, 49, 98)"  x="27" y="14" width="1" height="1" /><rect shape-rendering="crispEdges" fill="rgb(32, 41, 82)"  x="27" y="15" width="1" height="1" /><rect shape-rendering="crispEdges" fill="rgb(49, 82, 148)"  x="27" y="16" width="1" height="1" /><rect shape-rendering="crispEdges" fill="rgb(41, 57, 115)"  x="27" y="17" width="1" height="1" /><rect shape-rendering="crispEdges" fill="rgb(57, 74, 148)"  x="27" y="18" width="1" height="1" /><rect shape-rendering="crispEdges" fill="rgb(49, 65, 139)"  x="27" y="19" width="1" height="1" /><rect shape-rendering="crispEdges" fill="rgb(49, 74, 139)"  x="27" y="20" width="1" height="1" /><rect shape-rendering="crispEdges" fill="rgb(49, 82, 156)"  x="27" y="21" width="1" height="1" /><rect shape-rendering="crispEdges" fill="rgb(49, 98, 172)"  x="27" y="22" width="1" height="1" /><rect shape-rendering="crispEdges" fill="rgb(57, 98, 180)"  x="27" y="23" width="1" height="1" /><rect shape-rendering="crispEdges" fill="rgb(57, 90, 172)"  x="27" y="24" width="1" height="1" /><rect shape-rendering="crispEdges" fill="rgb(49, 65, 131)"  x="27" y="25" width="1" height="1" /><rect shape-rendering="crispEdges" fill="rgb(32, 41, 82)"  x="27" y="26" width="1" height="1" /><rect shape-rendering="crispEdges" fill="rgb(24, 24, 49)"  x="27" y="27" width="1" height="1" /><rect shape-rendering="crispEdges" fill="rgb(24, 24, 32)"  x="27" y="28" width="1" height="1" /><rect shape-rendering="crispEdges" fill="rgb(32, 32, 41)"  x="28" y="11" width="1" height="1" /><rect shape-rendering="crispEdges" fill="rgb(49, 82, 139)"  x="28" y="12" width="1" height="1" /><rect shape-rendering="crispEdges" fill="rgb(32, 32, 57)"  x="28" y="13" width="1" height="1" /><rect shape-rendering="crispEdges" fill="rgb(24, 16, 41)"  x="28" y="14" width="1" height="1" /><rect shape-rendering="crispEdges" fill="rgb(24, 8, 16)"  x="28" y="15" width="1" height="1" /><rect shape-rendering="crispEdges" fill="rgb(32, 24, 41)"  x="28" y="16" width="1" height="1" /><rect shape-rendering="crispEdges" fill="rgb(32, 24, 65)"  x="28" y="17" width="1" height="1" /><rect shape-rendering="crispEdges" fill="rgb(49, 57, 123)"  x="28" y="18" width="1" height="1" /><rect shape-rendering="crispEdges" fill="rgb(49, 65, 139)"  x="28" y="19" width="1" height="1" /><rect shape-rendering="crispEdges" fill="rgb(49, 65, 139)"  x="28" y="20" width="1" height="1" /><rect shape-rendering="crispEdges" fill="rgb(49, 74, 148)"  x="28" y="21" width="1" height="1" /><rect shape-rendering="crispEdges" fill="rgb(49, 82, 156)"  x="28" y="22" width="1" height="1" /><rect shape-rendering="crispEdges" fill="rgb(57, 82, 156)"  x="28" y="23" width="1" height="1" /><rect shape-rendering="crispEdges" fill="rgb(49, 65, 131)"  x="28" y="24" width="1" height="1" /><rect shape-rendering="crispEdges" fill="rgb(41, 41, 90)"  x="28" y="25" width="1" height="1" /><rect shape-rendering="crispEdges" fill="rgb(32, 24, 65)"  x="28" y="26" width="1" height="1" /><rect shape-rendering="crispEdges" fill="rgb(24, 16, 24)"  x="28" y="27" width="1" height="1" /><rect shape-rendering="crispEdges" fill="rgb(16, 8, 8)"  x="28" y="28" width="1" height="1" /><rect shape-rendering="crispEdges" fill="rgb(32, 24, 41)"  x="29" y="17" width="1" height="1" /><rect shape-rendering="crispEdges" fill="rgb(32, 32, 57)"  x="29" y="18" width="1" height="1" /><rect shape-rendering="crispEdges" fill="rgb(32, 41, 74)"  x="29" y="19" width="1" height="1" /><rect shape-rendering="crispEdges" fill="rgb(32, 32, 65)"  x="29" y="20" width="1" height="1" /><rect shape-rendering="crispEdges" fill="rgb(41, 41, 82)"  x="29" y="21" width="1" height="1" /><rect shape-rendering="crispEdges" fill="rgb(41, 49, 90)"  x="29" y="22" width="1" height="1" /><rect shape-rendering="crispEdges" fill="rgb(32, 41, 90)"  x="29" y="23" width="1" height="1" /><rect shape-rendering="crispEdges" fill="rgb(32, 32, 74)"  x="29" y="24" width="1" height="1" /><rect shape-rendering="crispEdges" fill="rgb(24, 24, 65)"  x="29" y="25" width="1" height="1" /><rect shape-rendering="crispEdges" fill="rgb(24, 16, 32)"  x="29" y="26" width="1" height="1" /><rect shape-rendering="crispEdges" fill="rgb(16, 8, 8)"  x="29" y="27" width="1" height="1" /><rect shape-rendering="crispEdges" fill="rgb(24, 24, 32)"  x="30" y="23" width="1" height="1" /><rect shape-rendering="crispEdges" fill="rgb(24, 16, 41)"  x="30" y="24" width="1" height="1" /><rect shape-rendering="crispEdges" fill="rgb(16, 16, 24)"  x="30" y="25" width="1" height="1" /></svg>