<svg xmlns="http://www.w3.org/2000/svg" xmlns:xlink= "http://www.w3.org/1999/xlink" width="32" height="32" viewBox ="0 0 32 32"><rect shape-rendering="crispEdges" fill="rgb(255, 222, 148)"  x="2" y="14" width="1" height="1" /><rect shape-rendering="crispEdges" fill="rgb(222, 156, 74)"  x="3" y="14" width="1" height="1" /><rect shape-rendering="crispEdges" fill="rgb(255, 189, 106)"  x="3" y="15" width="1" height="1" /><rect shape-rendering="crispEdges" fill="rgb(255, 222, 148)"  x="4" y="13" width="1" height="1" /><rect shape-rendering="crispEdges" fill="rgb(189, 131, 49)"  x="4" y="14" width="1" height="1" /><rect shape-rendering="crispEdges" fill="rgb(213, 197, 205)"  x="4" y="15" width="1" height="1" /><rect shape-rendering="crispEdges" fill="rgb(213, 197, 205)"  x="5" y="13" width="1" height="1" /><rect shape-rendering="crispEdges" fill="rgb(246, 230, 238)"  x="5" y="14" width="1" height="1" /><rect shape-rendering="crispEdges" fill="rgb(213, 197, 205)"  x="5" y="15" width="1" height="1" /><rect shape-rendering="crispEdges" fill="rgb(213, 197, 205)"  x="6" y="13" width="1" height="1" /><rect shape-rendering="crispEdges" fill="rgb(246, 230, 246)"  x="6" y="14" width="1" height="1" /><rect shape-rendering="crispEdges" fill="rgb(238, 222, 238)"  x="6" y="15" width="1" height="1" /><rect shape-rendering="crispEdges" fill="rgb(213, 197, 205)"  x="6" y="16" width="1" height="1" /><rect shape-rendering="crispEdges" fill="rgb(213, 197, 205)"  x="7" y="13" width="1" height="1" /><rect shape-rendering="crispEdges" fill="rgb(246, 230, 238)"  x="7" y="14" width="1" height="1" /><rect shape-rendering="crispEdges" fill="rgb(246, 230, 238)"  x="7" y="15" width="1" height="1" /><rect shape-rendering="crispEdges" fill="rgb(213, 197, 205)"  x="7" y="16" width="1" height="1" /><rect shape-rendering="crispEdges" fill="rgb(246, 246, 246)"  x="7" y="21" width="1" height="1" /><rect shape-rendering="crispEdges" fill="rgb(164, 156, 164)"  x="7" y="22" width="1" height="1" /><rect shape-rendering="crispEdges" fill="rgb(213, 197, 205)"  x="8" y="13" width="1" height="1" /><rect shape-rendering="crispEdges" fill="rgb(246, 230, 238)"  x="8" y="14" width="1" height="1" /><rect shape-rendering="crispEdges" fill="rgb(246, 230, 238)"  x="8" y="15" width="1" height="1" /><rect shape-rendering="crispEdges" fill="rgb(246, 230, 238)"  x="8" y="16" width="1" height="1" /><rect shape-rendering="crispEdges" fill="rgb(205, 197, 205)"  x="8" y="17" width="1" height="1" /><rect shape-rendering="crispEdges" fill="rgb(172, 164, 172)"  x="8" y="18" width="1" height="1" /><rect shape-rendering="crispEdges" fill="rgb(164, 148, 164)"  x="8" y="19" width="1" height="1" /><rect shape-rendering="crispEdges" fill="rgb(139, 131, 139)"  x="8" y="20" width="1" height="1" /><rect shape-rendering="crispEdges" fill="rgb(115, 115, 123)"  x="8" y="21" width="1" height="1" /><rect shape-rendering="crispEdges" fill="rgb(131, 123, 115)"  x="8" y="22" width="1" height="1" /><rect shape-rendering="crispEdges" fill="rgb(164, 156, 164)"  x="8" y="23" width="1" height="1" /><rect shape-rendering="crispEdges" fill="rgb(213, 197, 205)"  x="9" y="13" width="1" height="1" /><rect shape-rendering="crispEdges" fill="rgb(246, 230, 238)"  x="9" y="14" width="1" height="1" /><rect shape-rendering="crispEdges" fill="rgb(246, 230, 238)"  x="9" y="15" width="1" height="1" /><rect shape-rendering="crispEdges" fill="rgb(246, 230, 246)"  x="9" y="16" width="1" height="1" /><rect shape-rendering="crispEdges" fill="rgb(180, 180, 180)"  x="9" y="17" width="1" height="1" /><rect shape-rendering="crispEdges" fill="rgb(148, 139, 164)"  x="9" y="18" width="1" height="1" /><rect shape-rendering="crispEdges" fill="rgb(197, 180, 197)"  x="9" y="19" width="1" height="1" /><rect shape-rendering="crispEdges" fill="rgb(213, 197, 213)"  x="9" y="20" width="1" height="1" /><rect shape-rendering="crispEdges" fill="rgb(222, 205, 222)"  x="9" y="21" width="1" height="1" /><rect shape-rendering="crispEdges" fill="rgb(255, 246, 180)"  x="9" y="22" width="1" height="1" /><rect shape-rendering="crispEdges" fill="rgb(230, 205, 156)"  x="9" y="23" width="1" height="1" /><rect shape-rendering="crispEdges" fill="rgb(222, 205, 222)"  x="9" y="24" width="1" height="1" /><rect shape-rendering="crispEdges" fill="rgb(213, 197, 205)"  x="10" y="12" width="1" height="1" /><rect shape-rendering="crispEdges" fill="rgb(246, 230, 238)"  x="10" y="13" width="1" height="1" /><rect shape-rendering="crispEdges" fill="rgb(246, 230, 238)"  x="10" y="14" width="1" height="1" /><rect shape-rendering="crispEdges" fill="rgb(246, 230, 238)"  x="10" y="15" width="1" height="1" /><rect shape-rendering="crispEdges" fill="rgb(246, 230, 238)"  x="10" y="16" width="1" height="1" /><rect shape-rendering="crispEdges" fill="rgb(255, 238, 246)"  x="10" y="17" width="1" height="1" /><rect shape-rendering="crispEdges" fill="rgb(180, 180, 180)"  x="10" y="18" width="1" height="1" /><rect shape-rendering="crispEdges" fill="rgb(180, 172, 197)"  x="10" y="19" width="1" height="1" /><rect shape-rendering="crispEdges" fill="rgb(255, 238, 246)"  x="10" y="20" width="1" height="1" /><rect shape-rendering="crispEdges" fill="rgb(246, 238, 246)"  x="10" y="21" width="1" height="1" /><rect shape-rendering="crispEdges" fill="rgb(255, 238, 246)"  x="10" y="22" width="1" height="1" /><rect shape-rendering="crispEdges" fill="rgb(255, 246, 180)"  x="10" y="23" width="1" height="1" /><rect shape-rendering="crispEdges" fill="rgb(255, 238, 230)"  x="10" y="24" width="1" height="1" /><rect shape-rendering="crispEdges" fill="rgb(222, 205, 222)"  x="10" y="25" width="1" height="1" /><rect shape-rendering="crispEdges" fill="rgb(213, 197, 205)"  x="11" y="12" width="1" height="1" /><rect shape-rendering="crispEdges" fill="rgb(246, 230, 246)"  x="11" y="13" width="1" height="1" /><rect shape-rendering="crispEdges" fill="rgb(246, 230, 238)"  x="11" y="14" width="1" height="1" /><rect shape-rendering="crispEdges" fill="rgb(246, 230, 238)"  x="11" y="15" width="1" height="1" /><rect shape-rendering="crispEdges" fill="rgb(246, 230, 238)"  x="11" y="16" width="1" height="1" /><rect shape-rendering="crispEdges" fill="rgb(255, 238, 246)"  x="11" y="17" width="1" height="1" /><rect shape-rendering="crispEdges" fill="rgb(255, 238, 246)"  x="11" y="18" width="1" height="1" /><rect shape-rendering="crispEdges" fill="rgb(255, 222, 148)"  x="11" y="19" width="1" height="1" /><rect shape-rendering="crispEdges" fill="rgb(213, 197, 213)"  x="11" y="20" width="1" height="1" /><rect shape-rendering="crispEdges" fill="rgb(246, 230, 238)"  x="11" y="21" width="1" height="1" /><rect shape-rendering="crispEdges" fill="rgb(255, 238, 230)"  x="11" y="22" width="1" height="1" /><rect shape-rendering="crispEdges" fill="rgb(255, 246, 180)"  x="11" y="23" width="1" height="1" /><rect shape-rendering="crispEdges" fill="rgb(255, 230, 156)"  x="11" y="24" width="1" height="1" /><rect shape-rendering="crispEdges" fill="rgb(255, 238, 230)"  x="11" y="25" width="1" height="1" /><rect shape-rendering="crispEdges" fill="rgb(222, 205, 222)"  x="11" y="26" width="1" height="1" /><rect shape-rendering="crispEdges" fill="rgb(213, 197, 205)"  x="12" y="12" width="1" height="1" /><rect shape-rendering="crispEdges" fill="rgb(246, 230, 238)"  x="12" y="13" width="1" height="1" /><rect shape-rendering="crispEdges" fill="rgb(246, 230, 238)"  x="12" y="14" width="1" height="1" /><rect shape-rendering="crispEdges" fill="rgb(255, 238, 246)"  x="12" y="15" width="1" height="1" /><rect shape-rendering="crispEdges" fill="rgb(255, 238, 246)"  x="12" y="16" width="1" height="1" /><rect shape-rendering="crispEdges" fill="rgb(255, 238, 246)"  x="12" y="17" width="1" height="1" /><rect shape-rendering="crispEdges" fill="rgb(255, 238, 246)"  x="12" y="18" width="1" height="1" /><rect shape-rendering="crispEdges" fill="rgb(255, 189, 106)"  x="12" y="19" width="1" height="1" /><rect shape-rendering="crispEdges" fill="rgb(222, 156, 74)"  x="12" y="20" width="1" height="1" /><rect shape-rendering="crispEdges" fill="rgb(255, 230, 205)"  x="12" y="21" width="1" height="1" /><rect shape-rendering="crispEdges" fill="rgb(255, 246, 180)"  x="12" y="22" width="1" height="1" /><rect shape-rendering="crispEdges" fill="rgb(255, 230, 156)"  x="12" y="23" width="1" height="1" /><rect shape-rendering="crispEdges" fill="rgb(255, 238, 230)"  x="12" y="24" width="1" height="1" /><rect shape-rendering="crispEdges" fill="rgb(222, 197, 123)"  x="12" y="25" width="1" height="1" /><rect shape-rendering="crispEdges" fill="rgb(255, 238, 230)"  x="12" y="26" width="1" height="1" /><rect shape-rendering="crispEdges" fill="rgb(222, 205, 222)"  x="12" y="27" width="1" height="1" /><rect shape-rendering="crispEdges" fill="rgb(213, 197, 205)"  x="13" y="12" width="1" height="1" /><rect shape-rendering="crispEdges" fill="rgb(246, 230, 238)"  x="13" y="13" width="1" height="1" /><rect shape-rendering="crispEdges" fill="rgb(255, 230, 238)"  x="13" y="14" width="1" height="1" /><rect shape-rendering="crispEdges" fill="rgb(246, 230, 238)"  x="13" y="15" width="1" height="1" /><rect shape-rendering="crispEdges" fill="rgb(180, 205, 230)"  x="13" y="16" width="1" height="1" /><rect shape-rendering="crispEdges" fill="rgb(148, 213, 238)"  x="13" y="17" width="1" height="1" /><rect shape-rendering="crispEdges" fill="rgb(98, 180, 213)"  x="13" y="18" width="1" height="1" /><rect shape-rendering="crispEdges" fill="rgb(32, 139, 148)"  x="13" y="19" width="1" height="1" /><rect shape-rendering="crispEdges" fill="rgb(98, 115, 131)"  x="13" y="20" width="1" height="1" /><rect shape-rendering="crispEdges" fill="rgb(164, 148, 156)"  x="13" y="21" width="1" height="1" /><rect shape-rendering="crispEdges" fill="rgb(222, 197, 123)"  x="13" y="22" width="1" height="1" /><rect shape-rendering="crispEdges" fill="rgb(255, 238, 230)"  x="13" y="23" width="1" height="1" /><rect shape-rendering="crispEdges" fill="rgb(255, 238, 230)"  x="13" y="24" width="1" height="1" /><rect shape-rendering="crispEdges" fill="rgb(255, 238, 230)"  x="13" y="25" width="1" height="1" /><rect shape-rendering="crispEdges" fill="rgb(189, 180, 205)"  x="13" y="26" width="1" height="1" /><rect shape-rendering="crispEdges" fill="rgb(189, 180, 180)"  x="13" y="27" width="1" height="1" /><rect shape-rendering="crispEdges" fill="rgb(164, 156, 156)"  x="13" y="28" width="1" height="1" /><rect shape-rendering="crispEdges" fill="rgb(213, 197, 205)"  x="14" y="11" width="1" height="1" /><rect shape-rendering="crispEdges" fill="rgb(255, 238, 246)"  x="14" y="12" width="1" height="1" /><rect shape-rendering="crispEdges" fill="rgb(255, 238, 238)"  x="14" y="13" width="1" height="1" /><rect shape-rendering="crispEdges" fill="rgb(74, 172, 222)"  x="14" y="14" width="1" height="1" /><rect shape-rendering="crispEdges" fill="rgb(106, 197, 230)"  x="14" y="15" width="1" height="1" /><rect shape-rendering="crispEdges" fill="rgb(148, 213, 238)"  x="14" y="16" width="1" height="1" /><rect shape-rendering="crispEdges" fill="rgb(98, 180, 213)"  x="14" y="17" width="1" height="1" /><rect shape-rendering="crispEdges" fill="rgb(41, 156, 197)"  x="14" y="18" width="1" height="1" /><rect shape-rendering="crispEdges" fill="rgb(41, 156, 197)"  x="14" y="19" width="1" height="1" /><rect shape-rendering="crispEdges" fill="rgb(41, 156, 197)"  x="14" y="20" width="1" height="1" /><rect shape-rendering="crispEdges" fill="rgb(41, 156, 197)"  x="14" y="21" width="1" height="1" /><rect shape-rendering="crispEdges" fill="rgb(156, 148, 148)"  x="14" y="22" width="1" height="1" /><rect shape-rendering="crispEdges" fill="rgb(255, 189, 106)"  x="14" y="23" width="1" height="1" /><rect shape-rendering="crispEdges" fill="rgb(189, 180, 205)"  x="14" y="24" width="1" height="1" /><rect shape-rendering="crispEdges" fill="rgb(189, 180, 205)"  x="14" y="25" width="1" height="1" /><rect shape-rendering="crispEdges" fill="rgb(189, 180, 205)"  x="14" y="26" width="1" height="1" /><rect shape-rendering="crispEdges" fill="rgb(164, 156, 156)"  x="14" y="27" width="1" height="1" /><rect shape-rendering="crispEdges" fill="rgb(213, 197, 205)"  x="15" y="11" width="1" height="1" /><rect shape-rendering="crispEdges" fill="rgb(255, 238, 238)"  x="15" y="12" width="1" height="1" /><rect shape-rendering="crispEdges" fill="rgb(98, 148, 222)"  x="15" y="13" width="1" height="1" /><rect shape-rendering="crispEdges" fill="rgb(90, 189, 222)"  x="15" y="14" width="1" height="1" /><rect shape-rendering="crispEdges" fill="rgb(172, 230, 246)"  x="15" y="15" width="1" height="1" /><rect shape-rendering="crispEdges" fill="rgb(98, 180, 213)"  x="15" y="16" width="1" height="1" /><rect shape-rendering="crispEdges" fill="rgb(41, 156, 197)"  x="15" y="17" width="1" height="1" /><rect shape-rendering="crispEdges" fill="rgb(74, 180, 213)"  x="15" y="18" width="1" height="1" /><rect shape-rendering="crispEdges" fill="rgb(106, 197, 230)"  x="15" y="19" width="1" height="1" /><rect shape-rendering="crispEdges" fill="rgb(74, 148, 180)"  x="15" y="20" width="1" height="1" /><rect shape-rendering="crispEdges" fill="rgb(156, 156, 156)"  x="15" y="21" width="1" height="1" /><rect shape-rendering="crispEdges" fill="rgb(172, 156, 156)"  x="15" y="22" width="1" height="1" /><rect shape-rendering="crispEdges" fill="rgb(255, 189, 106)"  x="15" y="23" width="1" height="1" /><rect shape-rendering="crispEdges" fill="rgb(255, 238, 230)"  x="15" y="24" width="1" height="1" /><rect shape-rendering="crispEdges" fill="rgb(230, 205, 139)"  x="15" y="25" width="1" height="1" /><rect shape-rendering="crispEdges" fill="rgb(156, 148, 131)"  x="15" y="26" width="1" height="1" /><rect shape-rendering="crispEdges" fill="rgb(189, 180, 205)"  x="15" y="27" width="1" height="1" /><rect shape-rendering="crispEdges" fill="rgb(255, 222, 148)"  x="16" y="11" width="1" height="1" /><rect shape-rendering="crispEdges" fill="rgb(98, 148, 222)"  x="16" y="12" width="1" height="1" /><rect shape-rendering="crispEdges" fill="rgb(74, 172, 222)"  x="16" y="13" width="1" height="1" /><rect shape-rendering="crispEdges" fill="rgb(98, 189, 230)"  x="16" y="14" width="1" height="1" /><rect shape-rendering="crispEdges" fill="rgb(98, 180, 213)"  x="16" y="15" width="1" height="1" /><rect shape-rendering="crispEdges" fill="rgb(41, 156, 197)"  x="16" y="16" width="1" height="1" /><rect shape-rendering="crispEdges" fill="rgb(74, 180, 213)"  x="16" y="17" width="1" height="1" /><rect shape-rendering="crispEdges" fill="rgb(123, 205, 238)"  x="16" y="18" width="1" height="1" /><rect shape-rendering="crispEdges" fill="rgb(74, 148, 180)"  x="16" y="19" width="1" height="1" /><rect shape-rendering="crispEdges" fill="rgb(98, 115, 148)"  x="16" y="20" width="1" height="1" /><rect shape-rendering="crispEdges" fill="rgb(106, 106, 156)"  x="16" y="21" width="1" height="1" /><rect shape-rendering="crispEdges" fill="rgb(189, 180, 205)"  x="16" y="22" width="1" height="1" /><rect shape-rendering="crispEdges" fill="rgb(189, 180, 205)"  x="16" y="23" width="1" height="1" /><rect shape-rendering="crispEdges" fill="rgb(255, 230, 156)"  x="16" y="24" width="1" height="1" /><rect shape-rendering="crispEdges" fill="rgb(255, 189, 106)"  x="16" y="25" width="1" height="1" /><rect shape-rendering="crispEdges" fill="rgb(164, 156, 156)"  x="16" y="26" width="1" height="1" /><rect shape-rendering="crispEdges" fill="rgb(255, 222, 148)"  x="17" y="10" width="1" height="1" /><rect shape-rendering="crispEdges" fill="rgb(98, 148, 222)"  x="17" y="11" width="1" height="1" /><rect shape-rendering="crispEdges" fill="rgb(115, 164, 222)"  x="17" y="12" width="1" height="1" /><rect shape-rendering="crispEdges" fill="rgb(123, 197, 238)"  x="17" y="13" width="1" height="1" /><rect shape-rendering="crispEdges" fill="rgb(82, 180, 222)"  x="17" y="14" width="1" height="1" /><rect shape-rendering="crispEdges" fill="rgb(49, 164, 205)"  x="17" y="15" width="1" height="1" /><rect shape-rendering="crispEdges" fill="rgb(90, 180, 222)"  x="17" y="16" width="1" height="1" /><rect shape-rendering="crispEdges" fill="rgb(123, 205, 230)"  x="17" y="17" width="1" height="1" /><rect shape-rendering="crispEdges" fill="rgb(74, 180, 213)"  x="17" y="18" width="1" height="1" /><rect shape-rendering="crispEdges" fill="rgb(172, 172, 189)"  x="17" y="19" width="1" height="1" /><rect shape-rendering="crispEdges" fill="rgb(189, 180, 205)"  x="17" y="20" width="1" height="1" /><rect shape-rendering="crispEdges" fill="rgb(189, 180, 205)"  x="17" y="21" width="1" height="1" /><rect shape-rendering="crispEdges" fill="rgb(189, 180, 205)"  x="17" y="22" width="1" height="1" /><rect shape-rendering="crispEdges" fill="rgb(197, 189, 172)"  x="17" y="23" width="1" height="1" /><rect shape-rendering="crispEdges" fill="rgb(255, 189, 106)"  x="17" y="24" width="1" height="1" /><rect shape-rendering="crispEdges" fill="rgb(156, 148, 131)"  x="17" y="25" width="1" height="1" /><rect shape-rendering="crispEdges" fill="rgb(189, 180, 205)"  x="17" y="26" width="1" height="1" /><rect shape-rendering="crispEdges" fill="rgb(49, 90, 197)"  x="18" y="9" width="1" height="1" /><rect shape-rendering="crispEdges" fill="rgb(98, 148, 222)"  x="18" y="10" width="1" height="1" /><rect shape-rendering="crispEdges" fill="rgb(123, 172, 238)"  x="18" y="11" width="1" height="1" /><rect shape-rendering="crispEdges" fill="rgb(131, 189, 238)"  x="18" y="12" width="1" height="1" /><rect shape-rendering="crispEdges" fill="rgb(98, 180, 222)"  x="18" y="13" width="1" height="1" /><rect shape-rendering="crispEdges" fill="rgb(82, 172, 222)"  x="18" y="14" width="1" height="1" /><rect shape-rendering="crispEdges" fill="rgb(98, 180, 222)"  x="18" y="15" width="1" height="1" /><rect shape-rendering="crispEdges" fill="rgb(131, 213, 238)"  x="18" y="16" width="1" height="1" /><rect shape-rendering="crispEdges" fill="rgb(74, 180, 213)"  x="18" y="17" width="1" height="1" /><rect shape-rendering="crispEdges" fill="rgb(230, 222, 230)"  x="18" y="18" width="1" height="1" /><rect shape-rendering="crispEdges" fill="rgb(180, 164, 172)"  x="18" y="19" width="1" height="1" /><rect shape-rendering="crispEdges" fill="rgb(189, 180, 205)"  x="18" y="20" width="1" height="1" /><rect shape-rendering="crispEdges" fill="rgb(238, 222, 238)"  x="18" y="21" width="1" height="1" /><rect shape-rendering="crispEdges" fill="rgb(189, 180, 205)"  x="18" y="22" width="1" height="1" /><rect shape-rendering="crispEdges" fill="rgb(222, 205, 180)"  x="18" y="23" width="1" height="1" /><rect shape-rendering="crispEdges" fill="rgb(255, 189, 106)"  x="18" y="24" width="1" height="1" /><rect shape-rendering="crispEdges" fill="rgb(164, 156, 156)"  x="18" y="25" width="1" height="1" /><rect shape-rendering="crispEdges" fill="rgb(49, 90, 197)"  x="19" y="7" width="1" height="1" /><rect shape-rendering="crispEdges" fill="rgb(49, 90, 197)"  x="19" y="8" width="1" height="1" /><rect shape-rendering="crispEdges" fill="rgb(32, 90, 197)"  x="19" y="9" width="1" height="1" /><rect shape-rendering="crispEdges" fill="rgb(57, 115, 205)"  x="19" y="10" width="1" height="1" /><rect shape-rendering="crispEdges" fill="rgb(90, 148, 222)"  x="19" y="11" width="1" height="1" /><rect shape-rendering="crispEdges" fill="rgb(90, 148, 222)"  x="19" y="12" width="1" height="1" /><rect shape-rendering="crispEdges" fill="rgb(82, 139, 213)"  x="19" y="13" width="1" height="1" /><rect shape-rendering="crispEdges" fill="rgb(156, 213, 238)"  x="19" y="14" width="1" height="1" /><rect shape-rendering="crispEdges" fill="rgb(106, 189, 230)"  x="19" y="15" width="1" height="1" /><rect shape-rendering="crispEdges" fill="rgb(74, 180, 213)"  x="19" y="16" width="1" height="1" /><rect shape-rendering="crispEdges" fill="rgb(230, 222, 238)"  x="19" y="17" width="1" height="1" /><rect shape-rendering="crispEdges" fill="rgb(230, 222, 230)"  x="19" y="18" width="1" height="1" /><rect shape-rendering="crispEdges" fill="rgb(172, 164, 180)"  x="19" y="19" width="1" height="1" /><rect shape-rendering="crispEdges" fill="rgb(230, 222, 230)"  x="19" y="20" width="1" height="1" /><rect shape-rendering="crispEdges" fill="rgb(238, 222, 238)"  x="19" y="21" width="1" height="1" /><rect shape-rendering="crispEdges" fill="rgb(213, 205, 230)"  x="19" y="22" width="1" height="1" /><rect shape-rendering="crispEdges" fill="rgb(255, 230, 156)"  x="19" y="23" width="1" height="1" /><rect shape-rendering="crispEdges" fill="rgb(180, 164, 131)"  x="19" y="24" width="1" height="1" /><rect shape-rendering="crispEdges" fill="rgb(164, 156, 156)"  x="19" y="25" width="1" height="1" /><rect shape-rendering="crispEdges" fill="rgb(0, 49, 172)"  x="20" y="4" width="1" height="1" /><rect shape-rendering="crispEdges" fill="rgb(0, 49, 172)"  x="20" y="5" width="1" height="1" /><rect shape-rendering="crispEdges" fill="rgb(0, 49, 172)"  x="20" y="6" width="1" height="1" /><rect shape-rendering="crispEdges" fill="rgb(0, 49, 180)"  x="20" y="7" width="1" height="1" /><rect shape-rendering="crispEdges" fill="rgb(49, 90, 205)"  x="20" y="8" width="1" height="1" /><rect shape-rendering="crispEdges" fill="rgb(65, 106, 213)"  x="20" y="9" width="1" height="1" /><rect shape-rendering="crispEdges" fill="rgb(90, 131, 222)"  x="20" y="10" width="1" height="1" /><rect shape-rendering="crispEdges" fill="rgb(106, 148, 222)"  x="20" y="11" width="1" height="1" /><rect shape-rendering="crispEdges" fill="rgb(82, 139, 213)"  x="20" y="12" width="1" height="1" /><rect shape-rendering="crispEdges" fill="rgb(131, 180, 238)"  x="20" y="13" width="1" height="1" /><rect shape-rendering="crispEdges" fill="rgb(74, 180, 213)"  x="20" y="14" width="1" height="1" /><rect shape-rendering="crispEdges" fill="rgb(74, 180, 213)"  x="20" y="15" width="1" height="1" /><rect shape-rendering="crispEdges" fill="rgb(230, 222, 230)"  x="20" y="16" width="1" height="1" /><rect shape-rendering="crispEdges" fill="rgb(230, 222, 230)"  x="20" y="17" width="1" height="1" /><rect shape-rendering="crispEdges" fill="rgb(255, 238, 246)"  x="20" y="18" width="1" height="1" /><rect shape-rendering="crispEdges" fill="rgb(180, 172, 189)"  x="20" y="19" width="1" height="1" /><rect shape-rendering="crispEdges" fill="rgb(230, 222, 230)"  x="20" y="20" width="1" height="1" /><rect shape-rendering="crispEdges" fill="rgb(246, 230, 246)"  x="20" y="21" width="1" height="1" /><rect shape-rendering="crispEdges" fill="rgb(246, 238, 255)"  x="20" y="22" width="1" height="1" /><rect shape-rendering="crispEdges" fill="rgb(255, 189, 106)"  x="20" y="23" width="1" height="1" /><rect shape-rendering="crispEdges" fill="rgb(180, 172, 164)"  x="20" y="24" width="1" height="1" /><rect shape-rendering="crispEdges" fill="rgb(189, 180, 205)"  x="20" y="25" width="1" height="1" /><rect shape-rendering="crispEdges" fill="rgb(49, 90, 205)"  x="21" y="7" width="1" height="1" /><rect shape-rendering="crispEdges" fill="rgb(32, 82, 189)"  x="21" y="8" width="1" height="1" /><rect shape-rendering="crispEdges" fill="rgb(49, 90, 205)"  x="21" y="9" width="1" height="1" /><rect shape-rendering="crispEdges" fill="rgb(49, 90, 205)"  x="21" y="10" width="1" height="1" /><rect shape-rendering="crispEdges" fill="rgb(74, 123, 213)"  x="21" y="11" width="1" height="1" /><rect shape-rendering="crispEdges" fill="rgb(74, 180, 213)"  x="21" y="12" width="1" height="1" /><rect shape-rendering="crispEdges" fill="rgb(74, 180, 213)"  x="21" y="13" width="1" height="1" /><rect shape-rendering="crispEdges" fill="rgb(230, 222, 230)"  x="21" y="14" width="1" height="1" /><rect shape-rendering="crispEdges" fill="rgb(230, 222, 230)"  x="21" y="15" width="1" height="1" /><rect shape-rendering="crispEdges" fill="rgb(230, 222, 230)"  x="21" y="16" width="1" height="1" /><rect shape-rendering="crispEdges" fill="rgb(230, 222, 230)"  x="21" y="17" width="1" height="1" /><rect shape-rendering="crispEdges" fill="rgb(255, 238, 246)"  x="21" y="18" width="1" height="1" /><rect shape-rendering="crispEdges" fill="rgb(164, 156, 172)"  x="21" y="19" width="1" height="1" /><rect shape-rendering="crispEdges" fill="rgb(230, 222, 230)"  x="21" y="20" width="1" height="1" /><rect shape-rendering="crispEdges" fill="rgb(246, 238, 255)"  x="21" y="21" width="1" height="1" /><rect shape-rendering="crispEdges" fill="rgb(255, 246, 180)"  x="21" y="22" width="1" height="1" /><rect shape-rendering="crispEdges" fill="rgb(238, 213, 148)"  x="21" y="23" width="1" height="1" /><rect shape-rendering="crispEdges" fill="rgb(164, 156, 156)"  x="21" y="24" width="1" height="1" /><rect shape-rendering="crispEdges" fill="rgb(213, 205, 213)"  x="22" y="13" width="1" height="1" /><rect shape-rendering="crispEdges" fill="rgb(230, 222, 230)"  x="22" y="14" width="1" height="1" /><rect shape-rendering="crispEdges" fill="rgb(230, 222, 230)"  x="22" y="15" width="1" height="1" /><rect shape-rendering="crispEdges" fill="rgb(230, 222, 230)"  x="22" y="16" width="1" height="1" /><rect shape-rendering="crispEdges" fill="rgb(255, 238, 246)"  x="22" y="17" width="1" height="1" /><rect shape-rendering="crispEdges" fill="rgb(213, 197, 205)"  x="22" y="18" width="1" height="1" /><rect shape-rendering="crispEdges" fill="rgb(172, 164, 180)"  x="22" y="19" width="1" height="1" /><rect shape-rendering="crispEdges" fill="rgb(230, 222, 230)"  x="22" y="20" width="1" height="1" /><rect shape-rendering="crispEdges" fill="rgb(230, 222, 230)"  x="22" y="21" width="1" height="1" /><rect shape-rendering="crispEdges" fill="rgb(255, 189, 106)"  x="22" y="22" width="1" height="1" /><rect shape-rendering="crispEdges" fill="rgb(222, 197, 123)"  x="22" y="23" width="1" height="1" /><rect shape-rendering="crispEdges" fill="rgb(189, 180, 205)"  x="22" y="24" width="1" height="1" /><rect shape-rendering="crispEdges" fill="rgb(213, 197, 213)"  x="23" y="14" width="1" height="1" /><rect shape-rendering="crispEdges" fill="rgb(230, 222, 230)"  x="23" y="15" width="1" height="1" /><rect shape-rendering="crispEdges" fill="rgb(230, 222, 230)"  x="23" y="16" width="1" height="1" /><rect shape-rendering="crispEdges" fill="rgb(255, 238, 246)"  x="23" y="17" width="1" height="1" /><rect shape-rendering="crispEdges" fill="rgb(213, 197, 205)"  x="23" y="18" width="1" height="1" /><rect shape-rendering="crispEdges" fill="rgb(164, 156, 172)"  x="23" y="19" width="1" height="1" /><rect shape-rendering="crispEdges" fill="rgb(164, 156, 172)"  x="23" y="20" width="1" height="1" /><rect shape-rendering="crispEdges" fill="rgb(164, 156, 172)"  x="23" y="21" width="1" height="1" /><rect shape-rendering="crispEdges" fill="rgb(164, 156, 156)"  x="23" y="22" width="1" height="1" /><rect shape-rendering="crispEdges" fill="rgb(156, 139, 123)"  x="23" y="23" width="1" height="1" /><rect shape-rendering="crispEdges" fill="rgb(106, 98, 106)"  x="23" y="24" width="1" height="1" /><rect shape-rendering="crispEdges" fill="rgb(213, 205, 213)"  x="24" y="14" width="1" height="1" /><rect shape-rendering="crispEdges" fill="rgb(238, 222, 238)"  x="24" y="15" width="1" height="1" /><rect shape-rendering="crispEdges" fill="rgb(255, 238, 246)"  x="24" y="16" width="1" height="1" /><rect shape-rendering="crispEdges" fill="rgb(255, 238, 246)"  x="24" y="17" width="1" height="1" /><rect shape-rendering="crispEdges" fill="rgb(180, 180, 180)"  x="24" y="18" width="1" height="1" /><rect shape-rendering="crispEdges" fill="rgb(164, 156, 172)"  x="24" y="19" width="1" height="1" /><rect shape-rendering="crispEdges" fill="rgb(230, 230, 230)"  x="24" y="21" width="1" height="1" /><rect shape-rendering="crispEdges" fill="rgb(164, 156, 156)"  x="24" y="22" width="1" height="1" /><rect shape-rendering="crispEdges" fill="rgb(106, 98, 106)"  x="24" y="23" width="1" height="1" /><rect shape-rendering="crispEdges" fill="rgb(106, 98, 106)"  x="24" y="24" width="1" height="1" /><rect shape-rendering="crispEdges" fill="rgb(222, 205, 222)"  x="25" y="15" width="1" height="1" /><rect shape-rendering="crispEdges" fill="rgb(246, 230, 246)"  x="25" y="16" width="1" height="1" /><rect shape-rendering="crispEdges" fill="rgb(255, 238, 246)"  x="25" y="17" width="1" height="1" /><rect shape-rendering="crispEdges" fill="rgb(205, 189, 205)"  x="25" y="18" width="1" height="1" /><rect shape-rendering="crispEdges" fill="rgb(164, 156, 156)"  x="25" y="23" width="1" height="1" /><rect shape-rendering="crispEdges" fill="rgb(164, 156, 156)"  x="25" y="24" width="1" height="1" /><rect shape-rendering="crispEdges" fill="rgb(222, 205, 222)"  x="26" y="15" width="1" height="1" /><rect shape-rendering="crispEdges" fill="rgb(246, 230, 246)"  x="26" y="16" width="1" height="1" /><rect shape-rendering="crispEdges" fill="rgb(255, 238, 246)"  x="26" y="17" width="1" height="1" /><rect shape-rendering="crispEdges" fill="rgb(255, 222, 148)"  x="26" y="18" width="1" height="1" /><rect shape-rendering="crispEdges" fill="rgb(255, 222, 148)"  x="27" y="15" width="1" height="1" /><rect shape-rendering="crispEdges" fill="rgb(246, 230, 246)"  x="27" y="16" width="1" height="1" /><rect shape-rendering="crispEdges" fill="rgb(255, 238, 246)"  x="27" y="17" width="1" height="1" /><rect shape-rendering="crispEdges" fill="rgb(255, 222, 148)"  x="27" y="18" width="1" height="1" /><rect shape-rendering="crispEdges" fill="rgb(222, 156, 74)"  x="28" y="16" width="1" height="1" /><rect shape-rendering="crispEdges" fill="rgb(255, 222, 148)"  x="28" y="17" width="1" height="1" /><rect shape-rendering="crispEdges" fill="rgb(205, 148, 82)"  x="28" y="18" width="1" height="1" /><rect shape-rendering="crispEdges" fill="rgb(222, 156, 74)"  x="29" y="16" width="1" height="1" /><rect shape-rendering="crispEdges" fill="rgb(197, 106, 0)"  x="29" y="17" width="1" height="1" /><rect shape-rendering="crispEdges" fill="rgb(197, 106, 0)"  x="29" y="18" width="1" height="1" /><rect shape-rendering="crispEdges" fill="rgb(189, 123, 49)"  x="30" y="17" width="1" height="1" /></svg>