<svg xmlns="http://www.w3.org/2000/svg" xmlns:xlink= "http://www.w3.org/1999/xlink" width="32" height="32" viewBox ="0 0 32 32"><rect shape-rendering="crispEdges" fill="rgb(65, 0, 0)"  x="1" y="18" width="1" height="1" /><rect shape-rendering="crispEdges" fill="rgb(65, 0, 0)"  x="2" y="17" width="1" height="1" /><rect shape-rendering="crispEdges" fill="rgb(148, 131, 106)"  x="2" y="18" width="1" height="1" /><rect shape-rendering="crispEdges" fill="rgb(65, 0, 0)"  x="2" y="19" width="1" height="1" /><rect shape-rendering="crispEdges" fill="rgb(65, 0, 0)"  x="3" y="17" width="1" height="1" /><rect shape-rendering="crispEdges" fill="rgb(123, 57, 32)"  x="3" y="18" width="1" height="1" /><rect shape-rendering="crispEdges" fill="rgb(65, 0, 0)"  x="3" y="19" width="1" height="1" /><rect shape-rendering="crispEdges" fill="rgb(65, 0, 0)"  x="4" y="17" width="1" height="1" /><rect shape-rendering="crispEdges" fill="rgb(197, 131, 74)"  x="4" y="18" width="1" height="1" /><rect shape-rendering="crispEdges" fill="rgb(65, 0, 0)"  x="4" y="19" width="1" height="1" /><rect shape-rendering="crispEdges" fill="rgb(65, 0, 0)"  x="5" y="17" width="1" height="1" /><rect shape-rendering="crispEdges" fill="rgb(213, 172, 106)"  x="5" y="18" width="1" height="1" /><rect shape-rendering="crispEdges" fill="rgb(156, 82, 57)"  x="5" y="19" width="1" height="1" /><rect shape-rendering="crispEdges" fill="rgb(65, 0, 0)"  x="5" y="20" width="1" height="1" /><rect shape-rendering="crispEdges" fill="rgb(65, 0, 0)"  x="5" y="23" width="1" height="1" /><rect shape-rendering="crispEdges" fill="rgb(65, 0, 0)"  x="6" y="16" width="1" height="1" /><rect shape-rendering="crispEdges" fill="rgb(156, 82, 49)"  x="6" y="17" width="1" height="1" /><rect shape-rendering="crispEdges" fill="rgb(197, 131, 74)"  x="6" y="18" width="1" height="1" /><rect shape-rendering="crispEdges" fill="rgb(123, 57, 41)"  x="6" y="19" width="1" height="1" /><rect shape-rendering="crispEdges" fill="rgb(65, 0, 0)"  x="6" y="20" width="1" height="1" /><rect shape-rendering="crispEdges" fill="rgb(65, 0, 0)"  x="6" y="22" width="1" height="1" /><rect shape-rendering="crispEdges" fill="rgb(197, 180, 180)"  x="6" y="23" width="1" height="1" /><rect shape-rendering="crispEdges" fill="rgb(65, 0, 0)"  x="6" y="24" width="1" height="1" /><rect shape-rendering="crispEdges" fill="rgb(65, 0, 0)"  x="7" y="16" width="1" height="1" /><rect shape-rendering="crispEdges" fill="rgb(115, 41, 32)"  x="7" y="17" width="1" height="1" /><rect shape-rendering="crispEdges" fill="rgb(213, 172, 106)"  x="7" y="18" width="1" height="1" /><rect shape-rendering="crispEdges" fill="rgb(115, 49, 41)"  x="7" y="19" width="1" height="1" /><rect shape-rendering="crispEdges" fill="rgb(156, 82, 57)"  x="7" y="20" width="1" height="1" /><rect shape-rendering="crispEdges" fill="rgb(65, 0, 0)"  x="7" y="21" width="1" height="1" /><rect shape-rendering="crispEdges" fill="rgb(197, 180, 180)"  x="7" y="22" width="1" height="1" /><rect shape-rendering="crispEdges" fill="rgb(131, 139, 98)"  x="7" y="23" width="1" height="1" /><rect shape-rendering="crispEdges" fill="rgb(197, 180, 180)"  x="7" y="24" width="1" height="1" /><rect shape-rendering="crispEdges" fill="rgb(65, 0, 0)"  x="7" y="25" width="1" height="1" /><rect shape-rendering="crispEdges" fill="rgb(65, 0, 0)"  x="8" y="16" width="1" height="1" /><rect shape-rendering="crispEdges" fill="rgb(205, 131, 82)"  x="8" y="17" width="1" height="1" /><rect shape-rendering="crispEdges" fill="rgb(197, 131, 74)"  x="8" y="18" width="1" height="1" /><rect shape-rendering="crispEdges" fill="rgb(205, 131, 82)"  x="8" y="19" width="1" height="1" /><rect shape-rendering="crispEdges" fill="rgb(156, 82, 57)"  x="8" y="20" width="1" height="1" /><rect shape-rendering="crispEdges" fill="rgb(65, 0, 0)"  x="8" y="21" width="1" height="1" /><rect shape-rendering="crispEdges" fill="rgb(98, 24, 32)"  x="8" y="22" width="1" height="1" /><rect shape-rendering="crispEdges" fill="rgb(98, 49, 41)"  x="8" y="23" width="1" height="1" /><rect shape-rendering="crispEdges" fill="rgb(65, 0, 0)"  x="8" y="24" width="1" height="1" /><rect shape-rendering="crispEdges" fill="rgb(65, 0, 0)"  x="8" y="25" width="1" height="1" /><rect shape-rendering="crispEdges" fill="rgb(65, 0, 0)"  x="9" y="15" width="1" height="1" /><rect shape-rendering="crispEdges" fill="rgb(156, 115, 82)"  x="9" y="16" width="1" height="1" /><rect shape-rendering="crispEdges" fill="rgb(139, 74, 41)"  x="9" y="17" width="1" height="1" /><rect shape-rendering="crispEdges" fill="rgb(213, 172, 106)"  x="9" y="18" width="1" height="1" /><rect shape-rendering="crispEdges" fill="rgb(156, 82, 57)"  x="9" y="19" width="1" height="1" /><rect shape-rendering="crispEdges" fill="rgb(156, 82, 57)"  x="9" y="20" width="1" height="1" /><rect shape-rendering="crispEdges" fill="rgb(65, 0, 0)"  x="9" y="21" width="1" height="1" /><rect shape-rendering="crispEdges" fill="rgb(98, 32, 32)"  x="9" y="22" width="1" height="1" /><rect shape-rendering="crispEdges" fill="rgb(98, 24, 32)"  x="9" y="23" width="1" height="1" /><rect shape-rendering="crispEdges" fill="rgb(98, 24, 32)"  x="9" y="24" width="1" height="1" /><rect shape-rendering="crispEdges" fill="rgb(65, 0, 0)"  x="9" y="25" width="1" height="1" /><rect shape-rendering="crispEdges" fill="rgb(65, 0, 0)"  x="10" y="15" width="1" height="1" /><rect shape-rendering="crispEdges" fill="rgb(156, 82, 57)"  x="10" y="16" width="1" height="1" /><rect shape-rendering="crispEdges" fill="rgb(139, 74, 41)"  x="10" y="17" width="1" height="1" /><rect shape-rendering="crispEdges" fill="rgb(197, 131, 74)"  x="10" y="18" width="1" height="1" /><rect shape-rendering="crispEdges" fill="rgb(156, 82, 57)"  x="10" y="19" width="1" height="1" /><rect shape-rendering="crispEdges" fill="rgb(139, 74, 57)"  x="10" y="20" width="1" height="1" /><rect shape-rendering="crispEdges" fill="rgb(156, 82, 57)"  x="10" y="21" width="1" height="1" /><rect shape-rendering="crispEdges" fill="rgb(65, 0, 0)"  x="10" y="22" width="1" height="1" /><rect shape-rendering="crispEdges" fill="rgb(98, 32, 32)"  x="10" y="23" width="1" height="1" /><rect shape-rendering="crispEdges" fill="rgb(106, 32, 32)"  x="10" y="24" width="1" height="1" /><rect shape-rendering="crispEdges" fill="rgb(90, 16, 24)"  x="10" y="25" width="1" height="1" /><rect shape-rendering="crispEdges" fill="rgb(65, 0, 0)"  x="10" y="26" width="1" height="1" /><rect shape-rendering="crispEdges" fill="rgb(65, 0, 0)"  x="11" y="14" width="1" height="1" /><rect shape-rendering="crispEdges" fill="rgb(156, 115, 82)"  x="11" y="15" width="1" height="1" /><rect shape-rendering="crispEdges" fill="rgb(156, 82, 57)"  x="11" y="16" width="1" height="1" /><rect shape-rendering="crispEdges" fill="rgb(139, 74, 41)"  x="11" y="17" width="1" height="1" /><rect shape-rendering="crispEdges" fill="rgb(213, 172, 106)"  x="11" y="18" width="1" height="1" /><rect shape-rendering="crispEdges" fill="rgb(115, 41, 41)"  x="11" y="19" width="1" height="1" /><rect shape-rendering="crispEdges" fill="rgb(156, 82, 57)"  x="11" y="20" width="1" height="1" /><rect shape-rendering="crispEdges" fill="rgb(156, 82, 57)"  x="11" y="21" width="1" height="1" /><rect shape-rendering="crispEdges" fill="rgb(65, 0, 0)"  x="11" y="22" width="1" height="1" /><rect shape-rendering="crispEdges" fill="rgb(98, 32, 32)"  x="11" y="23" width="1" height="1" /><rect shape-rendering="crispEdges" fill="rgb(98, 32, 32)"  x="11" y="24" width="1" height="1" /><rect shape-rendering="crispEdges" fill="rgb(98, 24, 32)"  x="11" y="25" width="1" height="1" /><rect shape-rendering="crispEdges" fill="rgb(98, 24, 24)"  x="11" y="26" width="1" height="1" /><rect shape-rendering="crispEdges" fill="rgb(65, 0, 0)"  x="11" y="27" width="1" height="1" /><rect shape-rendering="crispEdges" fill="rgb(65, 0, 0)"  x="12" y="14" width="1" height="1" /><rect shape-rendering="crispEdges" fill="rgb(156, 115, 82)"  x="12" y="15" width="1" height="1" /><rect shape-rendering="crispEdges" fill="rgb(156, 82, 57)"  x="12" y="16" width="1" height="1" /><rect shape-rendering="crispEdges" fill="rgb(139, 74, 41)"  x="12" y="17" width="1" height="1" /><rect shape-rendering="crispEdges" fill="rgb(197, 131, 74)"  x="12" y="18" width="1" height="1" /><rect shape-rendering="crispEdges" fill="rgb(123, 49, 41)"  x="12" y="19" width="1" height="1" /><rect shape-rendering="crispEdges" fill="rgb(156, 82, 57)"  x="12" y="20" width="1" height="1" /><rect shape-rendering="crispEdges" fill="rgb(156, 82, 57)"  x="12" y="21" width="1" height="1" /><rect shape-rendering="crispEdges" fill="rgb(156, 82, 57)"  x="12" y="22" width="1" height="1" /><rect shape-rendering="crispEdges" fill="rgb(65, 0, 0)"  x="12" y="23" width="1" height="1" /><rect shape-rendering="crispEdges" fill="rgb(98, 41, 41)"  x="12" y="24" width="1" height="1" /><rect shape-rendering="crispEdges" fill="rgb(98, 24, 24)"  x="12" y="25" width="1" height="1" /><rect shape-rendering="crispEdges" fill="rgb(106, 32, 32)"  x="12" y="26" width="1" height="1" /><rect shape-rendering="crispEdges" fill="rgb(65, 0, 0)"  x="12" y="27" width="1" height="1" /><rect shape-rendering="crispEdges" fill="rgb(65, 0, 0)"  x="13" y="14" width="1" height="1" /><rect shape-rendering="crispEdges" fill="rgb(156, 82, 57)"  x="13" y="15" width="1" height="1" /><rect shape-rendering="crispEdges" fill="rgb(139, 74, 41)"  x="13" y="16" width="1" height="1" /><rect shape-rendering="crispEdges" fill="rgb(139, 74, 41)"  x="13" y="17" width="1" height="1" /><rect shape-rendering="crispEdges" fill="rgb(213, 172, 106)"  x="13" y="18" width="1" height="1" /><rect shape-rendering="crispEdges" fill="rgb(139, 74, 41)"  x="13" y="19" width="1" height="1" /><rect shape-rendering="crispEdges" fill="rgb(156, 82, 57)"  x="13" y="20" width="1" height="1" /><rect shape-rendering="crispEdges" fill="rgb(65, 0, 0)"  x="13" y="21" width="1" height="1" /><rect shape-rendering="crispEdges" fill="rgb(65, 0, 0)"  x="13" y="22" width="1" height="1" /><rect shape-rendering="crispEdges" fill="rgb(65, 0, 0)"  x="13" y="23" width="1" height="1" /><rect shape-rendering="crispEdges" fill="rgb(115, 57, 57)"  x="13" y="24" width="1" height="1" /><rect shape-rendering="crispEdges" fill="rgb(98, 24, 24)"  x="13" y="25" width="1" height="1" /><rect shape-rendering="crispEdges" fill="rgb(98, 24, 24)"  x="13" y="26" width="1" height="1" /><rect shape-rendering="crispEdges" fill="rgb(98, 24, 24)"  x="13" y="27" width="1" height="1" /><rect shape-rendering="crispEdges" fill="rgb(65, 0, 0)"  x="13" y="28" width="1" height="1" /><rect shape-rendering="crispEdges" fill="rgb(65, 0, 0)"  x="14" y="13" width="1" height="1" /><rect shape-rendering="crispEdges" fill="rgb(156, 82, 57)"  x="14" y="14" width="1" height="1" /><rect shape-rendering="crispEdges" fill="rgb(139, 74, 41)"  x="14" y="15" width="1" height="1" /><rect shape-rendering="crispEdges" fill="rgb(139, 74, 41)"  x="14" y="16" width="1" height="1" /><rect shape-rendering="crispEdges" fill="rgb(139, 74, 41)"  x="14" y="17" width="1" height="1" /><rect shape-rendering="crispEdges" fill="rgb(197, 131, 74)"  x="14" y="18" width="1" height="1" /><rect shape-rendering="crispEdges" fill="rgb(255, 213, 123)"  x="14" y="19" width="1" height="1" /><rect shape-rendering="crispEdges" fill="rgb(65, 0, 0)"  x="14" y="20" width="1" height="1" /><rect shape-rendering="crispEdges" fill="rgb(255, 164, 41)"  x="14" y="21" width="1" height="1" /><rect shape-rendering="crispEdges" fill="rgb(222, 148, 90)"  x="14" y="22" width="1" height="1" /><rect shape-rendering="crispEdges" fill="rgb(172, 106, 57)"  x="14" y="23" width="1" height="1" /><rect shape-rendering="crispEdges" fill="rgb(65, 0, 0)"  x="14" y="24" width="1" height="1" /><rect shape-rendering="crispEdges" fill="rgb(65, 0, 0)"  x="14" y="25" width="1" height="1" /><rect shape-rendering="crispEdges" fill="rgb(98, 24, 24)"  x="14" y="26" width="1" height="1" /><rect shape-rendering="crispEdges" fill="rgb(98, 24, 24)"  x="14" y="27" width="1" height="1" /><rect shape-rendering="crispEdges" fill="rgb(197, 180, 180)"  x="14" y="28" width="1" height="1" /><rect shape-rendering="crispEdges" fill="rgb(65, 0, 0)"  x="14" y="29" width="1" height="1" /><rect shape-rendering="crispEdges" fill="rgb(65, 0, 0)"  x="15" y="12" width="1" height="1" /><rect shape-rendering="crispEdges" fill="rgb(164, 131, 131)"  x="15" y="13" width="1" height="1" /><rect shape-rendering="crispEdges" fill="rgb(139, 74, 41)"  x="15" y="14" width="1" height="1" /><rect shape-rendering="crispEdges" fill="rgb(139, 74, 41)"  x="15" y="15" width="1" height="1" /><rect shape-rendering="crispEdges" fill="rgb(139, 74, 41)"  x="15" y="16" width="1" height="1" /><rect shape-rendering="crispEdges" fill="rgb(139, 74, 41)"  x="15" y="17" width="1" height="1" /><rect shape-rendering="crispEdges" fill="rgb(255, 213, 123)"  x="15" y="18" width="1" height="1" /><rect shape-rendering="crispEdges" fill="rgb(65, 0, 0)"  x="15" y="19" width="1" height="1" /><rect shape-rendering="crispEdges" fill="rgb(255, 213, 123)"  x="15" y="20" width="1" height="1" /><rect shape-rendering="crispEdges" fill="rgb(255, 164, 41)"  x="15" y="21" width="1" height="1" /><rect shape-rendering="crispEdges" fill="rgb(255, 123, 0)"  x="15" y="22" width="1" height="1" /><rect shape-rendering="crispEdges" fill="rgb(189, 82, 24)"  x="15" y="23" width="1" height="1" /><rect shape-rendering="crispEdges" fill="rgb(148, 131, 106)"  x="15" y="24" width="1" height="1" /><rect shape-rendering="crispEdges" fill="rgb(197, 180, 180)"  x="15" y="25" width="1" height="1" /><rect shape-rendering="crispEdges" fill="rgb(65, 0, 0)"  x="15" y="26" width="1" height="1" /><rect shape-rendering="crispEdges" fill="rgb(197, 180, 180)"  x="15" y="27" width="1" height="1" /><rect shape-rendering="crispEdges" fill="rgb(164, 131, 131)"  x="15" y="28" width="1" height="1" /><rect shape-rendering="crispEdges" fill="rgb(197, 180, 180)"  x="15" y="29" width="1" height="1" /><rect shape-rendering="crispEdges" fill="rgb(65, 0, 0)"  x="15" y="30" width="1" height="1" /><rect shape-rendering="crispEdges" fill="rgb(65, 0, 0)"  x="16" y="11" width="1" height="1" /><rect shape-rendering="crispEdges" fill="rgb(197, 180, 180)"  x="16" y="12" width="1" height="1" /><rect shape-rendering="crispEdges" fill="rgb(156, 82, 57)"  x="16" y="13" width="1" height="1" /><rect shape-rendering="crispEdges" fill="rgb(197, 180, 180)"  x="16" y="14" width="1" height="1" /><rect shape-rendering="crispEdges" fill="rgb(197, 131, 74)"  x="16" y="15" width="1" height="1" /><rect shape-rendering="crispEdges" fill="rgb(156, 82, 57)"  x="16" y="16" width="1" height="1" /><rect shape-rendering="crispEdges" fill="rgb(65, 0, 0)"  x="16" y="17" width="1" height="1" /><rect shape-rendering="crispEdges" fill="rgb(65, 0, 0)"  x="16" y="18" width="1" height="1" /><rect shape-rendering="crispEdges" fill="rgb(255, 230, 164)"  x="16" y="19" width="1" height="1" /><rect shape-rendering="crispEdges" fill="rgb(255, 156, 32)"  x="16" y="20" width="1" height="1" /><rect shape-rendering="crispEdges" fill="rgb(238, 106, 8)"  x="16" y="21" width="1" height="1" /><rect shape-rendering="crispEdges" fill="rgb(246, 115, 16)"  x="16" y="22" width="1" height="1" /><rect shape-rendering="crispEdges" fill="rgb(255, 148, 24)"  x="16" y="23" width="1" height="1" /><rect shape-rendering="crispEdges" fill="rgb(213, 123, 49)"  x="16" y="24" width="1" height="1" /><rect shape-rendering="crispEdges" fill="rgb(148, 131, 106)"  x="16" y="25" width="1" height="1" /><rect shape-rendering="crispEdges" fill="rgb(65, 0, 0)"  x="16" y="26" width="1" height="1" /><rect shape-rendering="crispEdges" fill="rgb(106, 24, 24)"  x="16" y="27" width="1" height="1" /><rect shape-rendering="crispEdges" fill="rgb(197, 180, 180)"  x="16" y="28" width="1" height="1" /><rect shape-rendering="crispEdges" fill="rgb(65, 0, 0)"  x="16" y="29" width="1" height="1" /><rect shape-rendering="crispEdges" fill="rgb(65, 0, 0)"  x="17" y="12" width="1" height="1" /><rect shape-rendering="crispEdges" fill="rgb(164, 131, 131)"  x="17" y="13" width="1" height="1" /><rect shape-rendering="crispEdges" fill="rgb(156, 82, 57)"  x="17" y="14" width="1" height="1" /><rect shape-rendering="crispEdges" fill="rgb(156, 82, 57)"  x="17" y="15" width="1" height="1" /><rect shape-rendering="crispEdges" fill="rgb(65, 0, 0)"  x="17" y="16" width="1" height="1" /><rect shape-rendering="crispEdges" fill="rgb(255, 246, 164)"  x="17" y="17" width="1" height="1" /><rect shape-rendering="crispEdges" fill="rgb(255, 213, 123)"  x="17" y="18" width="1" height="1" /><rect shape-rendering="crispEdges" fill="rgb(255, 139, 8)"  x="17" y="19" width="1" height="1" /><rect shape-rendering="crispEdges" fill="rgb(238, 98, 16)"  x="17" y="20" width="1" height="1" /><rect shape-rendering="crispEdges" fill="rgb(246, 123, 24)"  x="17" y="21" width="1" height="1" /><rect shape-rendering="crispEdges" fill="rgb(255, 164, 32)"  x="17" y="22" width="1" height="1" /><rect shape-rendering="crispEdges" fill="rgb(255, 172, 57)"  x="17" y="23" width="1" height="1" /><rect shape-rendering="crispEdges" fill="rgb(222, 148, 74)"  x="17" y="24" width="1" height="1" /><rect shape-rendering="crispEdges" fill="rgb(65, 0, 0)"  x="17" y="25" width="1" height="1" /><rect shape-rendering="crispEdges" fill="rgb(90, 24, 16)"  x="17" y="26" width="1" height="1" /><rect shape-rendering="crispEdges" fill="rgb(98, 24, 24)"  x="17" y="27" width="1" height="1" /><rect shape-rendering="crispEdges" fill="rgb(82, 16, 24)"  x="17" y="28" width="1" height="1" /><rect shape-rendering="crispEdges" fill="rgb(65, 0, 0)"  x="18" y="13" width="1" height="1" /><rect shape-rendering="crispEdges" fill="rgb(65, 0, 0)"  x="18" y="14" width="1" height="1" /><rect shape-rendering="crispEdges" fill="rgb(65, 0, 0)"  x="18" y="15" width="1" height="1" /><rect shape-rendering="crispEdges" fill="rgb(255, 197, 65)"  x="18" y="16" width="1" height="1" /><rect shape-rendering="crispEdges" fill="rgb(255, 164, 41)"  x="18" y="17" width="1" height="1" /><rect shape-rendering="crispEdges" fill="rgb(255, 148, 24)"  x="18" y="18" width="1" height="1" /><rect shape-rendering="crispEdges" fill="rgb(255, 131, 0)"  x="18" y="19" width="1" height="1" /><rect shape-rendering="crispEdges" fill="rgb(255, 139, 16)"  x="18" y="20" width="1" height="1" /><rect shape-rendering="crispEdges" fill="rgb(255, 180, 74)"  x="18" y="21" width="1" height="1" /><rect shape-rendering="crispEdges" fill="rgb(255, 205, 115)"  x="18" y="22" width="1" height="1" /><rect shape-rendering="crispEdges" fill="rgb(238, 164, 98)"  x="18" y="23" width="1" height="1" /><rect shape-rendering="crispEdges" fill="rgb(65, 0, 0)"  x="18" y="24" width="1" height="1" /><rect shape-rendering="crispEdges" fill="rgb(65, 0, 0)"  x="18" y="25" width="1" height="1" /><rect shape-rendering="crispEdges" fill="rgb(74, 16, 16)"  x="18" y="26" width="1" height="1" /><rect shape-rendering="crispEdges" fill="rgb(82, 16, 24)"  x="18" y="27" width="1" height="1" /><rect shape-rendering="crispEdges" fill="rgb(65, 0, 0)"  x="18" y="28" width="1" height="1" /><rect shape-rendering="crispEdges" fill="rgb(255, 197, 82)"  x="19" y="13" width="1" height="1" /><rect shape-rendering="crispEdges" fill="rgb(255, 197, 82)"  x="19" y="14" width="1" height="1" /><rect shape-rendering="crispEdges" fill="rgb(255, 197, 82)"  x="19" y="15" width="1" height="1" /><rect shape-rendering="crispEdges" fill="rgb(255, 255, 255)"  x="19" y="16" width="1" height="1" /><rect shape-rendering="crispEdges" fill="rgb(255, 156, 24)"  x="19" y="17" width="1" height="1" /><rect shape-rendering="crispEdges" fill="rgb(255, 148, 16)"  x="19" y="18" width="1" height="1" /><rect shape-rendering="crispEdges" fill="rgb(255, 164, 41)"  x="19" y="19" width="1" height="1" /><rect shape-rendering="crispEdges" fill="rgb(255, 180, 82)"  x="19" y="20" width="1" height="1" /><rect shape-rendering="crispEdges" fill="rgb(255, 230, 164)"  x="19" y="21" width="1" height="1" /><rect shape-rendering="crispEdges" fill="rgb(255, 213, 123)"  x="19" y="22" width="1" height="1" /><rect shape-rendering="crispEdges" fill="rgb(65, 0, 0)"  x="19" y="23" width="1" height="1" /><rect shape-rendering="crispEdges" fill="rgb(65, 0, 0)"  x="19" y="24" width="1" height="1" /><rect shape-rendering="crispEdges" fill="rgb(82, 16, 24)"  x="19" y="25" width="1" height="1" /><rect shape-rendering="crispEdges" fill="rgb(82, 16, 24)"  x="19" y="26" width="1" height="1" /><rect shape-rendering="crispEdges" fill="rgb(82, 16, 24)"  x="19" y="27" width="1" height="1" /><rect shape-rendering="crispEdges" fill="rgb(65, 0, 0)"  x="19" y="28" width="1" height="1" /><rect shape-rendering="crispEdges" fill="rgb(255, 197, 82)"  x="20" y="7" width="1" height="1" /><rect shape-rendering="crispEdges" fill="rgb(255, 197, 82)"  x="20" y="8" width="1" height="1" /><rect shape-rendering="crispEdges" fill="rgb(255, 213, 106)"  x="20" y="9" width="1" height="1" /><rect shape-rendering="crispEdges" fill="rgb(255, 213, 106)"  x="20" y="10" width="1" height="1" /><rect shape-rendering="crispEdges" fill="rgb(255, 213, 106)"  x="20" y="11" width="1" height="1" /><rect shape-rendering="crispEdges" fill="rgb(255, 213, 106)"  x="20" y="12" width="1" height="1" /><rect shape-rendering="crispEdges" fill="rgb(255, 213, 106)"  x="20" y="13" width="1" height="1" /><rect shape-rendering="crispEdges" fill="rgb(255, 213, 106)"  x="20" y="14" width="1" height="1" /><rect shape-rendering="crispEdges" fill="rgb(255, 180, 57)"  x="20" y="15" width="1" height="1" /><rect shape-rendering="crispEdges" fill="rgb(255, 156, 16)"  x="20" y="16" width="1" height="1" /><rect shape-rendering="crispEdges" fill="rgb(255, 156, 24)"  x="20" y="17" width="1" height="1" /><rect shape-rendering="crispEdges" fill="rgb(255, 180, 65)"  x="20" y="18" width="1" height="1" /><rect shape-rendering="crispEdges" fill="rgb(255, 213, 131)"  x="20" y="19" width="1" height="1" /><rect shape-rendering="crispEdges" fill="rgb(246, 180, 123)"  x="20" y="20" width="1" height="1" /><rect shape-rendering="crispEdges" fill="rgb(65, 0, 0)"  x="20" y="21" width="1" height="1" /><rect shape-rendering="crispEdges" fill="rgb(238, 197, 148)"  x="20" y="22" width="1" height="1" /><rect shape-rendering="crispEdges" fill="rgb(65, 0, 0)"  x="20" y="23" width="1" height="1" /><rect shape-rendering="crispEdges" fill="rgb(82, 16, 24)"  x="20" y="24" width="1" height="1" /><rect shape-rendering="crispEdges" fill="rgb(82, 16, 24)"  x="20" y="25" width="1" height="1" /><rect shape-rendering="crispEdges" fill="rgb(82, 16, 24)"  x="20" y="26" width="1" height="1" /><rect shape-rendering="crispEdges" fill="rgb(65, 0, 0)"  x="20" y="27" width="1" height="1" /><rect shape-rendering="crispEdges" fill="rgb(255, 255, 0)"  x="21" y="3" width="1" height="1" /><rect shape-rendering="crispEdges" fill="rgb(255, 255, 148)"  x="21" y="4" width="1" height="1" /><rect shape-rendering="crispEdges" fill="rgb(255, 255, 0)"  x="21" y="5" width="1" height="1" /><rect shape-rendering="crispEdges" fill="rgb(255, 255, 0)"  x="21" y="6" width="1" height="1" /><rect shape-rendering="crispEdges" fill="rgb(255, 255, 0)"  x="21" y="7" width="1" height="1" /><rect shape-rendering="crispEdges" fill="rgb(255, 255, 0)"  x="21" y="8" width="1" height="1" /><rect shape-rendering="crispEdges" fill="rgb(255, 255, 255)"  x="21" y="9" width="1" height="1" /><rect shape-rendering="crispEdges" fill="rgb(255, 197, 82)"  x="21" y="10" width="1" height="1" /><rect shape-rendering="crispEdges" fill="rgb(255, 197, 82)"  x="21" y="11" width="1" height="1" /><rect shape-rendering="crispEdges" fill="rgb(255, 197, 82)"  x="21" y="12" width="1" height="1" /><rect shape-rendering="crispEdges" fill="rgb(255, 164, 32)"  x="21" y="13" width="1" height="1" /><rect shape-rendering="crispEdges" fill="rgb(255, 164, 32)"  x="21" y="14" width="1" height="1" /><rect shape-rendering="crispEdges" fill="rgb(255, 189, 74)"  x="21" y="15" width="1" height="1" /><rect shape-rendering="crispEdges" fill="rgb(255, 197, 90)"  x="21" y="16" width="1" height="1" /><rect shape-rendering="crispEdges" fill="rgb(255, 213, 106)"  x="21" y="17" width="1" height="1" /><rect shape-rendering="crispEdges" fill="rgb(255, 222, 139)"  x="21" y="18" width="1" height="1" /><rect shape-rendering="crispEdges" fill="rgb(230, 180, 123)"  x="21" y="19" width="1" height="1" /><rect shape-rendering="crispEdges" fill="rgb(65, 0, 0)"  x="21" y="20" width="1" height="1" /><rect shape-rendering="crispEdges" fill="rgb(139, 74, 57)"  x="21" y="21" width="1" height="1" /><rect shape-rendering="crispEdges" fill="rgb(255, 230, 164)"  x="21" y="22" width="1" height="1" /><rect shape-rendering="crispEdges" fill="rgb(65, 0, 0)"  x="21" y="23" width="1" height="1" /><rect shape-rendering="crispEdges" fill="rgb(82, 16, 24)"  x="21" y="24" width="1" height="1" /><rect shape-rendering="crispEdges" fill="rgb(82, 16, 24)"  x="21" y="25" width="1" height="1" /><rect shape-rendering="crispEdges" fill="rgb(65, 0, 0)"  x="21" y="26" width="1" height="1" /><rect shape-rendering="crispEdges" fill="rgb(255, 255, 148)"  x="22" y="1" width="1" height="1" /><rect shape-rendering="crispEdges" fill="rgb(255, 213, 106)"  x="22" y="2" width="1" height="1" /><rect shape-rendering="crispEdges" fill="rgb(255, 205, 98)"  x="22" y="3" width="1" height="1" /><rect shape-rendering="crispEdges" fill="rgb(255, 205, 98)"  x="22" y="4" width="1" height="1" /><rect shape-rendering="crispEdges" fill="rgb(255, 205, 98)"  x="22" y="5" width="1" height="1" /><rect shape-rendering="crispEdges" fill="rgb(255, 238, 131)"  x="22" y="6" width="1" height="1" /><rect shape-rendering="crispEdges" fill="rgb(255, 205, 98)"  x="22" y="7" width="1" height="1" /><rect shape-rendering="crispEdges" fill="rgb(255, 213, 106)"  x="22" y="8" width="1" height="1" /><rect shape-rendering="crispEdges" fill="rgb(255, 205, 82)"  x="22" y="9" width="1" height="1" /><rect shape-rendering="crispEdges" fill="rgb(255, 205, 82)"  x="22" y="10" width="1" height="1" /><rect shape-rendering="crispEdges" fill="rgb(255, 180, 57)"  x="22" y="11" width="1" height="1" /><rect shape-rendering="crispEdges" fill="rgb(255, 172, 32)"  x="22" y="12" width="1" height="1" /><rect shape-rendering="crispEdges" fill="rgb(255, 197, 82)"  x="22" y="13" width="1" height="1" /><rect shape-rendering="crispEdges" fill="rgb(255, 197, 82)"  x="22" y="14" width="1" height="1" /><rect shape-rendering="crispEdges" fill="rgb(255, 222, 139)"  x="22" y="15" width="1" height="1" /><rect shape-rendering="crispEdges" fill="rgb(255, 213, 123)"  x="22" y="16" width="1" height="1" /><rect shape-rendering="crispEdges" fill="rgb(246, 197, 115)"  x="22" y="17" width="1" height="1" /><rect shape-rendering="crispEdges" fill="rgb(213, 156, 98)"  x="22" y="18" width="1" height="1" /><rect shape-rendering="crispEdges" fill="rgb(65, 0, 0)"  x="22" y="19" width="1" height="1" /><rect shape-rendering="crispEdges" fill="rgb(156, 82, 57)"  x="22" y="20" width="1" height="1" /><rect shape-rendering="crispEdges" fill="rgb(255, 230, 164)"  x="22" y="21" width="1" height="1" /><rect shape-rendering="crispEdges" fill="rgb(65, 0, 0)"  x="22" y="22" width="1" height="1" /><rect shape-rendering="crispEdges" fill="rgb(82, 16, 24)"  x="22" y="23" width="1" height="1" /><rect shape-rendering="crispEdges" fill="rgb(82, 16, 24)"  x="22" y="24" width="1" height="1" /><rect shape-rendering="crispEdges" fill="rgb(65, 0, 0)"  x="22" y="25" width="1" height="1" /><rect shape-rendering="crispEdges" fill="rgb(255, 255, 0)"  x="23" y="3" width="1" height="1" /><rect shape-rendering="crispEdges" fill="rgb(255, 255, 148)"  x="23" y="4" width="1" height="1" /><rect shape-rendering="crispEdges" fill="rgb(255, 255, 148)"  x="23" y="5" width="1" height="1" /><rect shape-rendering="crispEdges" fill="rgb(255, 255, 148)"  x="23" y="6" width="1" height="1" /><rect shape-rendering="crispEdges" fill="rgb(255, 255, 0)"  x="23" y="7" width="1" height="1" /><rect shape-rendering="crispEdges" fill="rgb(255, 255, 32)"  x="23" y="8" width="1" height="1" /><rect shape-rendering="crispEdges" fill="rgb(255, 238, 57)"  x="23" y="9" width="1" height="1" /><rect shape-rendering="crispEdges" fill="rgb(255, 238, 57)"  x="23" y="10" width="1" height="1" /><rect shape-rendering="crispEdges" fill="rgb(255, 230, 49)"  x="23" y="11" width="1" height="1" /><rect shape-rendering="crispEdges" fill="rgb(255, 238, 41)"  x="23" y="12" width="1" height="1" /><rect shape-rendering="crispEdges" fill="rgb(255, 255, 255)"  x="23" y="13" width="1" height="1" /><rect shape-rendering="crispEdges" fill="rgb(246, 213, 131)"  x="23" y="14" width="1" height="1" /><rect shape-rendering="crispEdges" fill="rgb(255, 230, 156)"  x="23" y="15" width="1" height="1" /><rect shape-rendering="crispEdges" fill="rgb(189, 139, 90)"  x="23" y="16" width="1" height="1" /><rect shape-rendering="crispEdges" fill="rgb(65, 0, 0)"  x="23" y="17" width="1" height="1" /><rect shape-rendering="crispEdges" fill="rgb(65, 0, 0)"  x="23" y="18" width="1" height="1" /><rect shape-rendering="crispEdges" fill="rgb(139, 74, 57)"  x="23" y="19" width="1" height="1" /><rect shape-rendering="crispEdges" fill="rgb(156, 82, 57)"  x="23" y="20" width="1" height="1" /><rect shape-rendering="crispEdges" fill="rgb(156, 82, 57)"  x="23" y="21" width="1" height="1" /><rect shape-rendering="crispEdges" fill="rgb(65, 0, 0)"  x="23" y="22" width="1" height="1" /><rect shape-rendering="crispEdges" fill="rgb(82, 16, 24)"  x="23" y="23" width="1" height="1" /><rect shape-rendering="crispEdges" fill="rgb(65, 0, 0)"  x="23" y="24" width="1" height="1" /><rect shape-rendering="crispEdges" fill="rgb(255, 197, 82)"  x="24" y="5" width="1" height="1" /><rect shape-rendering="crispEdges" fill="rgb(255, 197, 82)"  x="24" y="6" width="1" height="1" /><rect shape-rendering="crispEdges" fill="rgb(255, 197, 82)"  x="24" y="7" width="1" height="1" /><rect shape-rendering="crispEdges" fill="rgb(255, 213, 106)"  x="24" y="8" width="1" height="1" /><rect shape-rendering="crispEdges" fill="rgb(255, 213, 106)"  x="24" y="9" width="1" height="1" /><rect shape-rendering="crispEdges" fill="rgb(255, 213, 106)"  x="24" y="10" width="1" height="1" /><rect shape-rendering="crispEdges" fill="rgb(255, 213, 106)"  x="24" y="11" width="1" height="1" /><rect shape-rendering="crispEdges" fill="rgb(255, 213, 106)"  x="24" y="12" width="1" height="1" /><rect shape-rendering="crispEdges" fill="rgb(255, 213, 106)"  x="24" y="13" width="1" height="1" /><rect shape-rendering="crispEdges" fill="rgb(255, 222, 106)"  x="24" y="14" width="1" height="1" /><rect shape-rendering="crispEdges" fill="rgb(65, 0, 0)"  x="24" y="15" width="1" height="1" /><rect shape-rendering="crispEdges" fill="rgb(90, 16, 24)"  x="24" y="16" width="1" height="1" /><rect shape-rendering="crispEdges" fill="rgb(139, 74, 41)"  x="24" y="17" width="1" height="1" /><rect shape-rendering="crispEdges" fill="rgb(213, 172, 106)"  x="24" y="18" width="1" height="1" /><rect shape-rendering="crispEdges" fill="rgb(139, 74, 57)"  x="24" y="19" width="1" height="1" /><rect shape-rendering="crispEdges" fill="rgb(156, 82, 57)"  x="24" y="20" width="1" height="1" /><rect shape-rendering="crispEdges" fill="rgb(65, 0, 0)"  x="24" y="21" width="1" height="1" /><rect shape-rendering="crispEdges" fill="rgb(131, 139, 98)"  x="24" y="22" width="1" height="1" /><rect shape-rendering="crispEdges" fill="rgb(197, 180, 180)"  x="24" y="23" width="1" height="1" /><rect shape-rendering="crispEdges" fill="rgb(65, 0, 0)"  x="24" y="24" width="1" height="1" /><rect shape-rendering="crispEdges" fill="rgb(65, 0, 0)"  x="25" y="16" width="1" height="1" /><rect shape-rendering="crispEdges" fill="rgb(139, 74, 41)"  x="25" y="17" width="1" height="1" /><rect shape-rendering="crispEdges" fill="rgb(197, 131, 74)"  x="25" y="18" width="1" height="1" /><rect shape-rendering="crispEdges" fill="rgb(156, 82, 57)"  x="25" y="19" width="1" height="1" /><rect shape-rendering="crispEdges" fill="rgb(65, 0, 0)"  x="25" y="20" width="1" height="1" /><rect shape-rendering="crispEdges" fill="rgb(65, 0, 0)"  x="25" y="21" width="1" height="1" /><rect shape-rendering="crispEdges" fill="rgb(197, 180, 180)"  x="25" y="22" width="1" height="1" /><rect shape-rendering="crispEdges" fill="rgb(65, 0, 0)"  x="25" y="23" width="1" height="1" /><rect shape-rendering="crispEdges" fill="rgb(65, 0, 0)"  x="26" y="16" width="1" height="1" /><rect shape-rendering="crispEdges" fill="rgb(139, 74, 41)"  x="26" y="17" width="1" height="1" /><rect shape-rendering="crispEdges" fill="rgb(213, 172, 106)"  x="26" y="18" width="1" height="1" /><rect shape-rendering="crispEdges" fill="rgb(156, 82, 57)"  x="26" y="19" width="1" height="1" /><rect shape-rendering="crispEdges" fill="rgb(65, 0, 0)"  x="26" y="20" width="1" height="1" /><rect shape-rendering="crispEdges" fill="rgb(65, 0, 0)"  x="26" y="22" width="1" height="1" /><rect shape-rendering="crispEdges" fill="rgb(65, 0, 0)"  x="27" y="17" width="1" height="1" /><rect shape-rendering="crispEdges" fill="rgb(197, 131, 74)"  x="27" y="18" width="1" height="1" /><rect shape-rendering="crispEdges" fill="rgb(65, 0, 0)"  x="27" y="19" width="1" height="1" /><rect shape-rendering="crispEdges" fill="rgb(65, 0, 0)"  x="28" y="17" width="1" height="1" /><rect shape-rendering="crispEdges" fill="rgb(213, 172, 106)"  x="28" y="18" width="1" height="1" /><rect shape-rendering="crispEdges" fill="rgb(65, 0, 0)"  x="28" y="19" width="1" height="1" /><rect shape-rendering="crispEdges" fill="rgb(65, 0, 0)"  x="29" y="17" width="1" height="1" /><rect shape-rendering="crispEdges" fill="rgb(148, 131, 106)"  x="29" y="18" width="1" height="1" /><rect shape-rendering="crispEdges" fill="rgb(65, 0, 0)"  x="29" y="19" width="1" height="1" /><rect shape-rendering="crispEdges" fill="rgb(65, 0, 0)"  x="30" y="18" width="1" height="1" /></svg>