<svg xmlns="http://www.w3.org/2000/svg" xmlns:xlink= "http://www.w3.org/1999/xlink" width="32" height="32" viewBox ="0 0 32 32"><rect shape-rendering="crispEdges" fill="rgb(189, 213, 213)"  x="1" y="13" width="1" height="1" /><rect shape-rendering="crispEdges" fill="rgb(148, 172, 180)"  x="1" y="14" width="1" height="1" /><rect shape-rendering="crispEdges" fill="rgb(148, 172, 180)"  x="1" y="15" width="1" height="1" /><rect shape-rendering="crispEdges" fill="rgb(106, 123, 139)"  x="1" y="16" width="1" height="1" /><rect shape-rendering="crispEdges" fill="rgb(189, 213, 213)"  x="2" y="12" width="1" height="1" /><rect shape-rendering="crispEdges" fill="rgb(222, 238, 230)"  x="2" y="13" width="1" height="1" /><rect shape-rendering="crispEdges" fill="rgb(148, 172, 189)"  x="2" y="14" width="1" height="1" /><rect shape-rendering="crispEdges" fill="rgb(164, 189, 197)"  x="2" y="15" width="1" height="1" /><rect shape-rendering="crispEdges" fill="rgb(106, 123, 139)"  x="2" y="16" width="1" height="1" /><rect shape-rendering="crispEdges" fill="rgb(189, 213, 213)"  x="3" y="11" width="1" height="1" /><rect shape-rendering="crispEdges" fill="rgb(222, 238, 238)"  x="3" y="12" width="1" height="1" /><rect shape-rendering="crispEdges" fill="rgb(131, 148, 156)"  x="3" y="13" width="1" height="1" /><rect shape-rendering="crispEdges" fill="rgb(115, 148, 164)"  x="3" y="14" width="1" height="1" /><rect shape-rendering="crispEdges" fill="rgb(172, 189, 197)"  x="3" y="15" width="1" height="1" /><rect shape-rendering="crispEdges" fill="rgb(49, 65, 82)"  x="3" y="16" width="1" height="1" /><rect shape-rendering="crispEdges" fill="rgb(189, 213, 213)"  x="4" y="10" width="1" height="1" /><rect shape-rendering="crispEdges" fill="rgb(222, 238, 238)"  x="4" y="11" width="1" height="1" /><rect shape-rendering="crispEdges" fill="rgb(82, 106, 115)"  x="4" y="12" width="1" height="1" /><rect shape-rendering="crispEdges" fill="rgb(106, 131, 148)"  x="4" y="13" width="1" height="1" /><rect shape-rendering="crispEdges" fill="rgb(90, 106, 123)"  x="4" y="14" width="1" height="1" /><rect shape-rendering="crispEdges" fill="rgb(106, 123, 139)"  x="4" y="15" width="1" height="1" /><rect shape-rendering="crispEdges" fill="rgb(90, 106, 131)"  x="4" y="16" width="1" height="1" /><rect shape-rendering="crispEdges" fill="rgb(197, 222, 222)"  x="5" y="10" width="1" height="1" /><rect shape-rendering="crispEdges" fill="rgb(82, 98, 115)"  x="5" y="11" width="1" height="1" /><rect shape-rendering="crispEdges" fill="rgb(74, 82, 106)"  x="5" y="12" width="1" height="1" /><rect shape-rendering="crispEdges" fill="rgb(24, 32, 49)"  x="5" y="13" width="1" height="1" /><rect shape-rendering="crispEdges" fill="rgb(148, 172, 189)"  x="5" y="14" width="1" height="1" /><rect shape-rendering="crispEdges" fill="rgb(115, 139, 148)"  x="5" y="15" width="1" height="1" /><rect shape-rendering="crispEdges" fill="rgb(74, 90, 123)"  x="5" y="16" width="1" height="1" /><rect shape-rendering="crispEdges" fill="rgb(148, 172, 180)"  x="6" y="9" width="1" height="1" /><rect shape-rendering="crispEdges" fill="rgb(156, 180, 180)"  x="6" y="10" width="1" height="1" /><rect shape-rendering="crispEdges" fill="rgb(41, 49, 65)"  x="6" y="11" width="1" height="1" /><rect shape-rendering="crispEdges" fill="rgb(74, 82, 90)"  x="6" y="12" width="1" height="1" /><rect shape-rendering="crispEdges" fill="rgb(24, 24, 41)"  x="6" y="13" width="1" height="1" /><rect shape-rendering="crispEdges" fill="rgb(172, 197, 213)"  x="6" y="14" width="1" height="1" /><rect shape-rendering="crispEdges" fill="rgb(139, 164, 172)"  x="6" y="15" width="1" height="1" /><rect shape-rendering="crispEdges" fill="rgb(98, 115, 148)"  x="6" y="16" width="1" height="1" /><rect shape-rendering="crispEdges" fill="rgb(148, 172, 180)"  x="7" y="9" width="1" height="1" /><rect shape-rendering="crispEdges" fill="rgb(164, 172, 180)"  x="7" y="10" width="1" height="1" /><rect shape-rendering="crispEdges" fill="rgb(49, 57, 82)"  x="7" y="11" width="1" height="1" /><rect shape-rendering="crispEdges" fill="rgb(8, 16, 24)"  x="7" y="12" width="1" height="1" /><rect shape-rendering="crispEdges" fill="rgb(16, 24, 41)"  x="7" y="13" width="1" height="1" /><rect shape-rendering="crispEdges" fill="rgb(222, 230, 230)"  x="7" y="14" width="1" height="1" /><rect shape-rendering="crispEdges" fill="rgb(156, 172, 172)"  x="7" y="15" width="1" height="1" /><rect shape-rendering="crispEdges" fill="rgb(148, 172, 197)"  x="7" y="16" width="1" height="1" /><rect shape-rendering="crispEdges" fill="rgb(49, 57, 74)"  x="8" y="9" width="1" height="1" /><rect shape-rendering="crispEdges" fill="rgb(65, 74, 98)"  x="8" y="10" width="1" height="1" /><rect shape-rendering="crispEdges" fill="rgb(49, 57, 74)"  x="8" y="11" width="1" height="1" /><rect shape-rendering="crispEdges" fill="rgb(32, 32, 49)"  x="8" y="12" width="1" height="1" /><rect shape-rendering="crispEdges" fill="rgb(16, 24, 32)"  x="8" y="13" width="1" height="1" /><rect shape-rendering="crispEdges" fill="rgb(238, 246, 246)"  x="8" y="14" width="1" height="1" /><rect shape-rendering="crispEdges" fill="rgb(156, 180, 172)"  x="8" y="15" width="1" height="1" /><rect shape-rendering="crispEdges" fill="rgb(148, 164, 180)"  x="8" y="16" width="1" height="1" /><rect shape-rendering="crispEdges" fill="rgb(57, 65, 74)"  x="9" y="8" width="1" height="1" /><rect shape-rendering="crispEdges" fill="rgb(82, 90, 115)"  x="9" y="9" width="1" height="1" /><rect shape-rendering="crispEdges" fill="rgb(57, 65, 82)"  x="9" y="10" width="1" height="1" /><rect shape-rendering="crispEdges" fill="rgb(49, 57, 82)"  x="9" y="11" width="1" height="1" /><rect shape-rendering="crispEdges" fill="rgb(41, 57, 65)"  x="9" y="12" width="1" height="1" /><rect shape-rendering="crispEdges" fill="rgb(16, 24, 32)"  x="9" y="13" width="1" height="1" /><rect shape-rendering="crispEdges" fill="rgb(238, 246, 255)"  x="9" y="14" width="1" height="1" /><rect shape-rendering="crispEdges" fill="rgb(148, 156, 164)"  x="9" y="15" width="1" height="1" /><rect shape-rendering="crispEdges" fill="rgb(139, 164, 180)"  x="9" y="16" width="1" height="1" /><rect shape-rendering="crispEdges" fill="rgb(49, 65, 74)"  x="10" y="7" width="1" height="1" /><rect shape-rendering="crispEdges" fill="rgb(57, 74, 90)"  x="10" y="8" width="1" height="1" /><rect shape-rendering="crispEdges" fill="rgb(74, 82, 106)"  x="10" y="9" width="1" height="1" /><rect shape-rendering="crispEdges" fill="rgb(57, 65, 82)"  x="10" y="10" width="1" height="1" /><rect shape-rendering="crispEdges" fill="rgb(41, 57, 74)"  x="10" y="11" width="1" height="1" /><rect shape-rendering="crispEdges" fill="rgb(41, 49, 65)"  x="10" y="12" width="1" height="1" /><rect shape-rendering="crispEdges" fill="rgb(16, 24, 32)"  x="10" y="13" width="1" height="1" /><rect shape-rendering="crispEdges" fill="rgb(189, 213, 230)"  x="10" y="14" width="1" height="1" /><rect shape-rendering="crispEdges" fill="rgb(139, 148, 156)"  x="10" y="15" width="1" height="1" /><rect shape-rendering="crispEdges" fill="rgb(115, 131, 156)"  x="10" y="16" width="1" height="1" /><rect shape-rendering="crispEdges" fill="rgb(82, 139, 172)"  x="11" y="5" width="1" height="1" /><rect shape-rendering="crispEdges" fill="rgb(49, 74, 98)"  x="11" y="6" width="1" height="1" /><rect shape-rendering="crispEdges" fill="rgb(16, 32, 41)"  x="11" y="7" width="1" height="1" /><rect shape-rendering="crispEdges" fill="rgb(24, 32, 49)"  x="11" y="8" width="1" height="1" /><rect shape-rendering="crispEdges" fill="rgb(57, 65, 82)"  x="11" y="9" width="1" height="1" /><rect shape-rendering="crispEdges" fill="rgb(49, 57, 74)"  x="11" y="10" width="1" height="1" /><rect shape-rendering="crispEdges" fill="rgb(41, 49, 65)"  x="11" y="11" width="1" height="1" /><rect shape-rendering="crispEdges" fill="rgb(32, 49, 65)"  x="11" y="12" width="1" height="1" /><rect shape-rendering="crispEdges" fill="rgb(24, 32, 32)"  x="11" y="13" width="1" height="1" /><rect shape-rendering="crispEdges" fill="rgb(106, 131, 172)"  x="11" y="14" width="1" height="1" /><rect shape-rendering="crispEdges" fill="rgb(139, 156, 180)"  x="11" y="15" width="1" height="1" /><rect shape-rendering="crispEdges" fill="rgb(82, 90, 115)"  x="11" y="16" width="1" height="1" /><rect shape-rendering="crispEdges" fill="rgb(49, 74, 90)"  x="12" y="4" width="1" height="1" /><rect shape-rendering="crispEdges" fill="rgb(24, 24, 32)"  x="12" y="5" width="1" height="1" /><rect shape-rendering="crispEdges" fill="rgb(32, 41, 57)"  x="12" y="6" width="1" height="1" /><rect shape-rendering="crispEdges" fill="rgb(41, 49, 65)"  x="12" y="7" width="1" height="1" /><rect shape-rendering="crispEdges" fill="rgb(57, 65, 82)"  x="12" y="8" width="1" height="1" /><rect shape-rendering="crispEdges" fill="rgb(24, 32, 49)"  x="12" y="9" width="1" height="1" /><rect shape-rendering="crispEdges" fill="rgb(16, 24, 41)"  x="12" y="10" width="1" height="1" /><rect shape-rendering="crispEdges" fill="rgb(41, 49, 65)"  x="12" y="11" width="1" height="1" /><rect shape-rendering="crispEdges" fill="rgb(24, 41, 57)"  x="12" y="12" width="1" height="1" /><rect shape-rendering="crispEdges" fill="rgb(123, 131, 131)"  x="12" y="13" width="1" height="1" /><rect shape-rendering="crispEdges" fill="rgb(74, 90, 115)"  x="12" y="14" width="1" height="1" /><rect shape-rendering="crispEdges" fill="rgb(82, 106, 139)"  x="12" y="15" width="1" height="1" /><rect shape-rendering="crispEdges" fill="rgb(49, 65, 98)"  x="12" y="16" width="1" height="1" /><rect shape-rendering="crispEdges" fill="rgb(49, 57, 65)"  x="13" y="3" width="1" height="1" /><rect shape-rendering="crispEdges" fill="rgb(32, 49, 57)"  x="13" y="4" width="1" height="1" /><rect shape-rendering="crispEdges" fill="rgb(57, 65, 82)"  x="13" y="5" width="1" height="1" /><rect shape-rendering="crispEdges" fill="rgb(32, 41, 57)"  x="13" y="6" width="1" height="1" /><rect shape-rendering="crispEdges" fill="rgb(32, 41, 57)"  x="13" y="7" width="1" height="1" /><rect shape-rendering="crispEdges" fill="rgb(41, 49, 65)"  x="13" y="8" width="1" height="1" /><rect shape-rendering="crispEdges" fill="rgb(41, 57, 65)"  x="13" y="9" width="1" height="1" /><rect shape-rendering="crispEdges" fill="rgb(49, 57, 74)"  x="13" y="10" width="1" height="1" /><rect shape-rendering="crispEdges" fill="rgb(24, 32, 49)"  x="13" y="11" width="1" height="1" /><rect shape-rendering="crispEdges" fill="rgb(8, 16, 24)"  x="13" y="12" width="1" height="1" /><rect shape-rendering="crispEdges" fill="rgb(123, 148, 172)"  x="13" y="13" width="1" height="1" /><rect shape-rendering="crispEdges" fill="rgb(106, 115, 131)"  x="13" y="14" width="1" height="1" /><rect shape-rendering="crispEdges" fill="rgb(49, 65, 98)"  x="13" y="15" width="1" height="1" /><rect shape-rendering="crispEdges" fill="rgb(41, 49, 57)"  x="14" y="3" width="1" height="1" /><rect shape-rendering="crispEdges" fill="rgb(32, 41, 57)"  x="14" y="4" width="1" height="1" /><rect shape-rendering="crispEdges" fill="rgb(57, 65, 82)"  x="14" y="5" width="1" height="1" /><rect shape-rendering="crispEdges" fill="rgb(32, 41, 57)"  x="14" y="6" width="1" height="1" /><rect shape-rendering="crispEdges" fill="rgb(32, 41, 57)"  x="14" y="7" width="1" height="1" /><rect shape-rendering="crispEdges" fill="rgb(32, 49, 57)"  x="14" y="8" width="1" height="1" /><rect shape-rendering="crispEdges" fill="rgb(41, 49, 65)"  x="14" y="9" width="1" height="1" /><rect shape-rendering="crispEdges" fill="rgb(32, 49, 65)"  x="14" y="10" width="1" height="1" /><rect shape-rendering="crispEdges" fill="rgb(24, 41, 57)"  x="14" y="11" width="1" height="1" /><rect shape-rendering="crispEdges" fill="rgb(24, 32, 32)"  x="14" y="12" width="1" height="1" /><rect shape-rendering="crispEdges" fill="rgb(57, 74, 106)"  x="14" y="13" width="1" height="1" /><rect shape-rendering="crispEdges" fill="rgb(49, 65, 98)"  x="14" y="14" width="1" height="1" /><rect shape-rendering="crispEdges" fill="rgb(41, 49, 65)"  x="15" y="3" width="1" height="1" /><rect shape-rendering="crispEdges" fill="rgb(32, 41, 57)"  x="15" y="4" width="1" height="1" /><rect shape-rendering="crispEdges" fill="rgb(57, 65, 82)"  x="15" y="5" width="1" height="1" /><rect shape-rendering="crispEdges" fill="rgb(24, 41, 49)"  x="15" y="6" width="1" height="1" /><rect shape-rendering="crispEdges" fill="rgb(32, 41, 57)"  x="15" y="7" width="1" height="1" /><rect shape-rendering="crispEdges" fill="rgb(32, 49, 57)"  x="15" y="8" width="1" height="1" /><rect shape-rendering="crispEdges" fill="rgb(32, 49, 65)"  x="15" y="9" width="1" height="1" /><rect shape-rendering="crispEdges" fill="rgb(32, 41, 57)"  x="15" y="10" width="1" height="1" /><rect shape-rendering="crispEdges" fill="rgb(16, 32, 41)"  x="15" y="11" width="1" height="1" /><rect shape-rendering="crispEdges" fill="rgb(115, 123, 131)"  x="15" y="12" width="1" height="1" /><rect shape-rendering="crispEdges" fill="rgb(49, 65, 98)"  x="15" y="13" width="1" height="1" /><rect shape-rendering="crispEdges" fill="rgb(32, 41, 57)"  x="16" y="3" width="1" height="1" /><rect shape-rendering="crispEdges" fill="rgb(32, 41, 57)"  x="16" y="4" width="1" height="1" /><rect shape-rendering="crispEdges" fill="rgb(57, 65, 82)"  x="16" y="5" width="1" height="1" /><rect shape-rendering="crispEdges" fill="rgb(24, 32, 49)"  x="16" y="6" width="1" height="1" /><rect shape-rendering="crispEdges" fill="rgb(32, 41, 57)"  x="16" y="7" width="1" height="1" /><rect shape-rendering="crispEdges" fill="rgb(32, 49, 57)"  x="16" y="8" width="1" height="1" /><rect shape-rendering="crispEdges" fill="rgb(41, 49, 65)"  x="16" y="9" width="1" height="1" /><rect shape-rendering="crispEdges" fill="rgb(32, 41, 57)"  x="16" y="10" width="1" height="1" /><rect shape-rendering="crispEdges" fill="rgb(24, 32, 49)"  x="16" y="11" width="1" height="1" /><rect shape-rendering="crispEdges" fill="rgb(65, 90, 123)"  x="16" y="12" width="1" height="1" /><rect shape-rendering="crispEdges" fill="rgb(49, 65, 98)"  x="16" y="13" width="1" height="1" /><rect shape-rendering="crispEdges" fill="rgb(24, 32, 41)"  x="17" y="3" width="1" height="1" /><rect shape-rendering="crispEdges" fill="rgb(32, 41, 57)"  x="17" y="4" width="1" height="1" /><rect shape-rendering="crispEdges" fill="rgb(57, 65, 82)"  x="17" y="5" width="1" height="1" /><rect shape-rendering="crispEdges" fill="rgb(24, 41, 49)"  x="17" y="6" width="1" height="1" /><rect shape-rendering="crispEdges" fill="rgb(32, 41, 57)"  x="17" y="7" width="1" height="1" /><rect shape-rendering="crispEdges" fill="rgb(32, 41, 57)"  x="17" y="8" width="1" height="1" /><rect shape-rendering="crispEdges" fill="rgb(32, 49, 65)"  x="17" y="9" width="1" height="1" /><rect shape-rendering="crispEdges" fill="rgb(24, 41, 57)"  x="17" y="10" width="1" height="1" /><rect shape-rendering="crispEdges" fill="rgb(24, 32, 49)"  x="17" y="11" width="1" height="1" /><rect shape-rendering="crispEdges" fill="rgb(74, 90, 123)"  x="17" y="12" width="1" height="1" /><rect shape-rendering="crispEdges" fill="rgb(49, 65, 98)"  x="17" y="13" width="1" height="1" /><rect shape-rendering="crispEdges" fill="rgb(98, 106, 123)"  x="17" y="23" width="1" height="1" /><rect shape-rendering="crispEdges" fill="rgb(57, 74, 98)"  x="17" y="24" width="1" height="1" /><rect shape-rendering="crispEdges" fill="rgb(57, 74, 98)"  x="17" y="25" width="1" height="1" /><rect shape-rendering="crispEdges" fill="rgb(57, 74, 98)"  x="17" y="26" width="1" height="1" /><rect shape-rendering="crispEdges" fill="rgb(32, 41, 49)"  x="18" y="3" width="1" height="1" /><rect shape-rendering="crispEdges" fill="rgb(32, 41, 57)"  x="18" y="4" width="1" height="1" /><rect shape-rendering="crispEdges" fill="rgb(49, 57, 74)"  x="18" y="5" width="1" height="1" /><rect shape-rendering="crispEdges" fill="rgb(24, 41, 49)"  x="18" y="6" width="1" height="1" /><rect shape-rendering="crispEdges" fill="rgb(24, 41, 49)"  x="18" y="7" width="1" height="1" /><rect shape-rendering="crispEdges" fill="rgb(24, 41, 49)"  x="18" y="8" width="1" height="1" /><rect shape-rendering="crispEdges" fill="rgb(32, 41, 57)"  x="18" y="9" width="1" height="1" /><rect shape-rendering="crispEdges" fill="rgb(16, 32, 41)"  x="18" y="10" width="1" height="1" /><rect shape-rendering="crispEdges" fill="rgb(115, 131, 131)"  x="18" y="11" width="1" height="1" /><rect shape-rendering="crispEdges" fill="rgb(74, 90, 115)"  x="18" y="12" width="1" height="1" /><rect shape-rendering="crispEdges" fill="rgb(74, 90, 123)"  x="18" y="13" width="1" height="1" /><rect shape-rendering="crispEdges" fill="rgb(74, 90, 115)"  x="18" y="14" width="1" height="1" /><rect shape-rendering="crispEdges" fill="rgb(32, 41, 49)"  x="18" y="21" width="1" height="1" /><rect shape-rendering="crispEdges" fill="rgb(32, 49, 65)"  x="18" y="22" width="1" height="1" /><rect shape-rendering="crispEdges" fill="rgb(49, 65, 74)"  x="18" y="23" width="1" height="1" /><rect shape-rendering="crispEdges" fill="rgb(115, 139, 156)"  x="18" y="24" width="1" height="1" /><rect shape-rendering="crispEdges" fill="rgb(90, 106, 123)"  x="18" y="25" width="1" height="1" /><rect shape-rendering="crispEdges" fill="rgb(148, 164, 180)"  x="18" y="26" width="1" height="1" /><rect shape-rendering="crispEdges" fill="rgb(98, 123, 148)"  x="18" y="27" width="1" height="1" /><rect shape-rendering="crispEdges" fill="rgb(41, 49, 65)"  x="19" y="3" width="1" height="1" /><rect shape-rendering="crispEdges" fill="rgb(57, 65, 82)"  x="19" y="4" width="1" height="1" /><rect shape-rendering="crispEdges" fill="rgb(24, 32, 49)"  x="19" y="5" width="1" height="1" /><rect shape-rendering="crispEdges" fill="rgb(24, 32, 49)"  x="19" y="6" width="1" height="1" /><rect shape-rendering="crispEdges" fill="rgb(24, 32, 49)"  x="19" y="7" width="1" height="1" /><rect shape-rendering="crispEdges" fill="rgb(24, 32, 49)"  x="19" y="8" width="1" height="1" /><rect shape-rendering="crispEdges" fill="rgb(24, 41, 49)"  x="19" y="9" width="1" height="1" /><rect shape-rendering="crispEdges" fill="rgb(16, 24, 41)"  x="19" y="10" width="1" height="1" /><rect shape-rendering="crispEdges" fill="rgb(164, 180, 197)"  x="19" y="11" width="1" height="1" /><rect shape-rendering="crispEdges" fill="rgb(115, 131, 148)"  x="19" y="12" width="1" height="1" /><rect shape-rendering="crispEdges" fill="rgb(164, 180, 205)"  x="19" y="13" width="1" height="1" /><rect shape-rendering="crispEdges" fill="rgb(74, 90, 115)"  x="19" y="14" width="1" height="1" /><rect shape-rendering="crispEdges" fill="rgb(57, 74, 90)"  x="19" y="19" width="1" height="1" /><rect shape-rendering="crispEdges" fill="rgb(49, 57, 74)"  x="19" y="20" width="1" height="1" /><rect shape-rendering="crispEdges" fill="rgb(49, 57, 74)"  x="19" y="21" width="1" height="1" /><rect shape-rendering="crispEdges" fill="rgb(74, 74, 98)"  x="19" y="22" width="1" height="1" /><rect shape-rendering="crispEdges" fill="rgb(115, 148, 156)"  x="19" y="23" width="1" height="1" /><rect shape-rendering="crispEdges" fill="rgb(90, 106, 123)"  x="19" y="24" width="1" height="1" /><rect shape-rendering="crispEdges" fill="rgb(148, 172, 189)"  x="19" y="25" width="1" height="1" /><rect shape-rendering="crispEdges" fill="rgb(139, 164, 180)"  x="19" y="26" width="1" height="1" /><rect shape-rendering="crispEdges" fill="rgb(172, 197, 197)"  x="19" y="27" width="1" height="1" /><rect shape-rendering="crispEdges" fill="rgb(148, 172, 180)"  x="19" y="28" width="1" height="1" /><rect shape-rendering="crispEdges" fill="rgb(24, 32, 41)"  x="20" y="4" width="1" height="1" /><rect shape-rendering="crispEdges" fill="rgb(24, 41, 49)"  x="20" y="5" width="1" height="1" /><rect shape-rendering="crispEdges" fill="rgb(24, 41, 57)"  x="20" y="6" width="1" height="1" /><rect shape-rendering="crispEdges" fill="rgb(24, 41, 49)"  x="20" y="7" width="1" height="1" /><rect shape-rendering="crispEdges" fill="rgb(24, 32, 49)"  x="20" y="8" width="1" height="1" /><rect shape-rendering="crispEdges" fill="rgb(16, 32, 49)"  x="20" y="9" width="1" height="1" /><rect shape-rendering="crispEdges" fill="rgb(32, 41, 41)"  x="20" y="10" width="1" height="1" /><rect shape-rendering="crispEdges" fill="rgb(189, 213, 222)"  x="20" y="11" width="1" height="1" /><rect shape-rendering="crispEdges" fill="rgb(197, 213, 230)"  x="20" y="12" width="1" height="1" /><rect shape-rendering="crispEdges" fill="rgb(205, 222, 230)"  x="20" y="13" width="1" height="1" /><rect shape-rendering="crispEdges" fill="rgb(106, 123, 139)"  x="20" y="14" width="1" height="1" /><rect shape-rendering="crispEdges" fill="rgb(57, 74, 90)"  x="20" y="17" width="1" height="1" /><rect shape-rendering="crispEdges" fill="rgb(57, 65, 82)"  x="20" y="18" width="1" height="1" /><rect shape-rendering="crispEdges" fill="rgb(49, 57, 74)"  x="20" y="19" width="1" height="1" /><rect shape-rendering="crispEdges" fill="rgb(57, 74, 82)"  x="20" y="20" width="1" height="1" /><rect shape-rendering="crispEdges" fill="rgb(57, 57, 82)"  x="20" y="21" width="1" height="1" /><rect shape-rendering="crispEdges" fill="rgb(41, 57, 74)"  x="20" y="22" width="1" height="1" /><rect shape-rendering="crispEdges" fill="rgb(156, 189, 205)"  x="20" y="23" width="1" height="1" /><rect shape-rendering="crispEdges" fill="rgb(123, 148, 148)"  x="20" y="24" width="1" height="1" /><rect shape-rendering="crispEdges" fill="rgb(222, 246, 238)"  x="20" y="25" width="1" height="1" /><rect shape-rendering="crispEdges" fill="rgb(230, 246, 246)"  x="20" y="26" width="1" height="1" /><rect shape-rendering="crispEdges" fill="rgb(222, 238, 230)"  x="20" y="27" width="1" height="1" /><rect shape-rendering="crispEdges" fill="rgb(189, 213, 213)"  x="20" y="28" width="1" height="1" /><rect shape-rendering="crispEdges" fill="rgb(148, 172, 180)"  x="20" y="29" width="1" height="1" /><rect shape-rendering="crispEdges" fill="rgb(65, 74, 82)"  x="21" y="6" width="1" height="1" /><rect shape-rendering="crispEdges" fill="rgb(57, 65, 74)"  x="21" y="7" width="1" height="1" /><rect shape-rendering="crispEdges" fill="rgb(57, 65, 82)"  x="21" y="8" width="1" height="1" /><rect shape-rendering="crispEdges" fill="rgb(57, 65, 82)"  x="21" y="9" width="1" height="1" /><rect shape-rendering="crispEdges" fill="rgb(65, 82, 90)"  x="21" y="10" width="1" height="1" /><rect shape-rendering="crispEdges" fill="rgb(74, 90, 98)"  x="21" y="11" width="1" height="1" /><rect shape-rendering="crispEdges" fill="rgb(74, 90, 98)"  x="21" y="12" width="1" height="1" /><rect shape-rendering="crispEdges" fill="rgb(82, 90, 106)"  x="21" y="13" width="1" height="1" /><rect shape-rendering="crispEdges" fill="rgb(8, 16, 24)"  x="21" y="15" width="1" height="1" /><rect shape-rendering="crispEdges" fill="rgb(57, 65, 90)"  x="21" y="16" width="1" height="1" /><rect shape-rendering="crispEdges" fill="rgb(65, 74, 98)"  x="21" y="17" width="1" height="1" /><rect shape-rendering="crispEdges" fill="rgb(74, 82, 98)"  x="21" y="18" width="1" height="1" /><rect shape-rendering="crispEdges" fill="rgb(139, 156, 156)"  x="21" y="19" width="1" height="1" /><rect shape-rendering="crispEdges" fill="rgb(156, 180, 180)"  x="21" y="20" width="1" height="1" /><rect shape-rendering="crispEdges" fill="rgb(164, 197, 205)"  x="21" y="21" width="1" height="1" /><rect shape-rendering="crispEdges" fill="rgb(213, 238, 238)"  x="21" y="22" width="1" height="1" /><rect shape-rendering="crispEdges" fill="rgb(230, 246, 246)"  x="21" y="23" width="1" height="1" /><rect shape-rendering="crispEdges" fill="rgb(189, 197, 197)"  x="21" y="24" width="1" height="1" /><rect shape-rendering="crispEdges" fill="rgb(255, 255, 255)"  x="21" y="25" width="1" height="1" /><rect shape-rendering="crispEdges" fill="rgb(246, 255, 255)"  x="21" y="26" width="1" height="1" /><rect shape-rendering="crispEdges" fill="rgb(222, 238, 238)"  x="21" y="27" width="1" height="1" /><rect shape-rendering="crispEdges" fill="rgb(180, 205, 205)"  x="21" y="28" width="1" height="1" /><rect shape-rendering="crispEdges" fill="rgb(106, 131, 148)"  x="21" y="29" width="1" height="1" /><rect shape-rendering="crispEdges" fill="rgb(32, 41, 57)"  x="22" y="9" width="1" height="1" /><rect shape-rendering="crispEdges" fill="rgb(41, 49, 65)"  x="22" y="10" width="1" height="1" /><rect shape-rendering="crispEdges" fill="rgb(24, 32, 41)"  x="22" y="11" width="1" height="1" /><rect shape-rendering="crispEdges" fill="rgb(32, 41, 57)"  x="22" y="12" width="1" height="1" /><rect shape-rendering="crispEdges" fill="rgb(32, 49, 65)"  x="22" y="13" width="1" height="1" /><rect shape-rendering="crispEdges" fill="rgb(49, 57, 74)"  x="22" y="14" width="1" height="1" /><rect shape-rendering="crispEdges" fill="rgb(24, 32, 49)"  x="22" y="15" width="1" height="1" /><rect shape-rendering="crispEdges" fill="rgb(82, 90, 106)"  x="22" y="16" width="1" height="1" /><rect shape-rendering="crispEdges" fill="rgb(82, 90, 115)"  x="22" y="17" width="1" height="1" /><rect shape-rendering="crispEdges" fill="rgb(49, 57, 74)"  x="22" y="18" width="1" height="1" /><rect shape-rendering="crispEdges" fill="rgb(156, 180, 180)"  x="22" y="19" width="1" height="1" /><rect shape-rendering="crispEdges" fill="rgb(230, 238, 238)"  x="22" y="20" width="1" height="1" /><rect shape-rendering="crispEdges" fill="rgb(230, 246, 238)"  x="22" y="21" width="1" height="1" /><rect shape-rendering="crispEdges" fill="rgb(222, 246, 238)"  x="22" y="22" width="1" height="1" /><rect shape-rendering="crispEdges" fill="rgb(189, 222, 230)"  x="22" y="23" width="1" height="1" /><rect shape-rendering="crispEdges" fill="rgb(123, 148, 148)"  x="22" y="24" width="1" height="1" /><rect shape-rendering="crispEdges" fill="rgb(222, 238, 238)"  x="22" y="25" width="1" height="1" /><rect shape-rendering="crispEdges" fill="rgb(172, 197, 197)"  x="22" y="26" width="1" height="1" /><rect shape-rendering="crispEdges" fill="rgb(148, 180, 180)"  x="22" y="27" width="1" height="1" /><rect shape-rendering="crispEdges" fill="rgb(189, 213, 213)"  x="22" y="28" width="1" height="1" /><rect shape-rendering="crispEdges" fill="rgb(98, 123, 148)"  x="22" y="29" width="1" height="1" /><rect shape-rendering="crispEdges" fill="rgb(32, 41, 57)"  x="23" y="8" width="1" height="1" /><rect shape-rendering="crispEdges" fill="rgb(32, 41, 57)"  x="23" y="9" width="1" height="1" /><rect shape-rendering="crispEdges" fill="rgb(24, 32, 41)"  x="23" y="10" width="1" height="1" /><rect shape-rendering="crispEdges" fill="rgb(82, 139, 180)"  x="23" y="11" width="1" height="1" /><rect shape-rendering="crispEdges" fill="rgb(41, 82, 115)"  x="23" y="12" width="1" height="1" /><rect shape-rendering="crispEdges" fill="rgb(32, 49, 65)"  x="23" y="13" width="1" height="1" /><rect shape-rendering="crispEdges" fill="rgb(8, 8, 24)"  x="23" y="14" width="1" height="1" /><rect shape-rendering="crispEdges" fill="rgb(49, 65, 74)"  x="23" y="15" width="1" height="1" /><rect shape-rendering="crispEdges" fill="rgb(65, 65, 82)"  x="23" y="16" width="1" height="1" /><rect shape-rendering="crispEdges" fill="rgb(32, 41, 57)"  x="23" y="17" width="1" height="1" /><rect shape-rendering="crispEdges" fill="rgb(24, 32, 41)"  x="23" y="18" width="1" height="1" /><rect shape-rendering="crispEdges" fill="rgb(213, 222, 222)"  x="23" y="19" width="1" height="1" /><rect shape-rendering="crispEdges" fill="rgb(164, 197, 197)"  x="23" y="20" width="1" height="1" /><rect shape-rendering="crispEdges" fill="rgb(172, 205, 213)"  x="23" y="21" width="1" height="1" /><rect shape-rendering="crispEdges" fill="rgb(115, 139, 148)"  x="23" y="22" width="1" height="1" /><rect shape-rendering="crispEdges" fill="rgb(115, 148, 148)"  x="23" y="23" width="1" height="1" /><rect shape-rendering="crispEdges" fill="rgb(164, 197, 213)"  x="23" y="24" width="1" height="1" /><rect shape-rendering="crispEdges" fill="rgb(131, 148, 156)"  x="23" y="25" width="1" height="1" /><rect shape-rendering="crispEdges" fill="rgb(148, 164, 180)"  x="23" y="26" width="1" height="1" /><rect shape-rendering="crispEdges" fill="rgb(139, 156, 172)"  x="23" y="27" width="1" height="1" /><rect shape-rendering="crispEdges" fill="rgb(156, 172, 189)"  x="23" y="28" width="1" height="1" /><rect shape-rendering="crispEdges" fill="rgb(106, 131, 156)"  x="23" y="29" width="1" height="1" /><rect shape-rendering="crispEdges" fill="rgb(24, 32, 49)"  x="24" y="7" width="1" height="1" /><rect shape-rendering="crispEdges" fill="rgb(32, 41, 57)"  x="24" y="8" width="1" height="1" /><rect shape-rendering="crispEdges" fill="rgb(24, 41, 49)"  x="24" y="9" width="1" height="1" /><rect shape-rendering="crispEdges" fill="rgb(74, 115, 139)"  x="24" y="10" width="1" height="1" /><rect shape-rendering="crispEdges" fill="rgb(139, 213, 230)"  x="24" y="11" width="1" height="1" /><rect shape-rendering="crispEdges" fill="rgb(82, 139, 180)"  x="24" y="12" width="1" height="1" /><rect shape-rendering="crispEdges" fill="rgb(49, 82, 98)"  x="24" y="13" width="1" height="1" /><rect shape-rendering="crispEdges" fill="rgb(8, 8, 16)"  x="24" y="14" width="1" height="1" /><rect shape-rendering="crispEdges" fill="rgb(32, 41, 57)"  x="24" y="15" width="1" height="1" /><rect shape-rendering="crispEdges" fill="rgb(57, 65, 82)"  x="24" y="16" width="1" height="1" /><rect shape-rendering="crispEdges" fill="rgb(82, 90, 115)"  x="24" y="17" width="1" height="1" /><rect shape-rendering="crispEdges" fill="rgb(82, 90, 106)"  x="24" y="18" width="1" height="1" /><rect shape-rendering="crispEdges" fill="rgb(49, 57, 74)"  x="24" y="19" width="1" height="1" /><rect shape-rendering="crispEdges" fill="rgb(189, 205, 197)"  x="24" y="20" width="1" height="1" /><rect shape-rendering="crispEdges" fill="rgb(32, 41, 57)"  x="24" y="21" width="1" height="1" /><rect shape-rendering="crispEdges" fill="rgb(74, 82, 106)"  x="24" y="22" width="1" height="1" /><rect shape-rendering="crispEdges" fill="rgb(49, 57, 74)"  x="24" y="23" width="1" height="1" /><rect shape-rendering="crispEdges" fill="rgb(123, 148, 164)"  x="24" y="24" width="1" height="1" /><rect shape-rendering="crispEdges" fill="rgb(90, 106, 123)"  x="24" y="25" width="1" height="1" /><rect shape-rendering="crispEdges" fill="rgb(106, 131, 156)"  x="24" y="26" width="1" height="1" /><rect shape-rendering="crispEdges" fill="rgb(139, 156, 172)"  x="24" y="27" width="1" height="1" /><rect shape-rendering="crispEdges" fill="rgb(106, 131, 156)"  x="24" y="28" width="1" height="1" /><rect shape-rendering="crispEdges" fill="rgb(32, 41, 49)"  x="25" y="7" width="1" height="1" /><rect shape-rendering="crispEdges" fill="rgb(32, 41, 57)"  x="25" y="8" width="1" height="1" /><rect shape-rendering="crispEdges" fill="rgb(32, 41, 57)"  x="25" y="9" width="1" height="1" /><rect shape-rendering="crispEdges" fill="rgb(24, 32, 41)"  x="25" y="10" width="1" height="1" /><rect shape-rendering="crispEdges" fill="rgb(49, 82, 106)"  x="25" y="11" width="1" height="1" /><rect shape-rendering="crispEdges" fill="rgb(41, 82, 115)"  x="25" y="12" width="1" height="1" /><rect shape-rendering="crispEdges" fill="rgb(32, 41, 57)"  x="25" y="13" width="1" height="1" /><rect shape-rendering="crispEdges" fill="rgb(41, 49, 65)"  x="25" y="14" width="1" height="1" /><rect shape-rendering="crispEdges" fill="rgb(16, 24, 32)"  x="25" y="15" width="1" height="1" /><rect shape-rendering="crispEdges" fill="rgb(82, 90, 106)"  x="25" y="16" width="1" height="1" /><rect shape-rendering="crispEdges" fill="rgb(74, 82, 106)"  x="25" y="17" width="1" height="1" /><rect shape-rendering="crispEdges" fill="rgb(74, 82, 98)"  x="25" y="18" width="1" height="1" /><rect shape-rendering="crispEdges" fill="rgb(65, 74, 98)"  x="25" y="19" width="1" height="1" /><rect shape-rendering="crispEdges" fill="rgb(82, 90, 106)"  x="25" y="20" width="1" height="1" /><rect shape-rendering="crispEdges" fill="rgb(65, 74, 98)"  x="25" y="21" width="1" height="1" /><rect shape-rendering="crispEdges" fill="rgb(41, 49, 65)"  x="25" y="22" width="1" height="1" /><rect shape-rendering="crispEdges" fill="rgb(65, 74, 90)"  x="25" y="23" width="1" height="1" /><rect shape-rendering="crispEdges" fill="rgb(32, 49, 65)"  x="25" y="24" width="1" height="1" /><rect shape-rendering="crispEdges" fill="rgb(90, 115, 148)"  x="25" y="25" width="1" height="1" /><rect shape-rendering="crispEdges" fill="rgb(90, 106, 123)"  x="25" y="26" width="1" height="1" /><rect shape-rendering="crispEdges" fill="rgb(115, 139, 156)"  x="25" y="27" width="1" height="1" /><rect shape-rendering="crispEdges" fill="rgb(106, 131, 156)"  x="25" y="28" width="1" height="1" /><rect shape-rendering="crispEdges" fill="rgb(24, 32, 49)"  x="26" y="7" width="1" height="1" /><rect shape-rendering="crispEdges" fill="rgb(32, 41, 57)"  x="26" y="8" width="1" height="1" /><rect shape-rendering="crispEdges" fill="rgb(32, 41, 57)"  x="26" y="9" width="1" height="1" /><rect shape-rendering="crispEdges" fill="rgb(32, 41, 57)"  x="26" y="10" width="1" height="1" /><rect shape-rendering="crispEdges" fill="rgb(57, 65, 82)"  x="26" y="11" width="1" height="1" /><rect shape-rendering="crispEdges" fill="rgb(32, 41, 57)"  x="26" y="12" width="1" height="1" /><rect shape-rendering="crispEdges" fill="rgb(32, 49, 57)"  x="26" y="13" width="1" height="1" /><rect shape-rendering="crispEdges" fill="rgb(41, 57, 65)"  x="26" y="14" width="1" height="1" /><rect shape-rendering="crispEdges" fill="rgb(16, 24, 41)"  x="26" y="15" width="1" height="1" /><rect shape-rendering="crispEdges" fill="rgb(49, 65, 74)"  x="26" y="16" width="1" height="1" /><rect shape-rendering="crispEdges" fill="rgb(65, 74, 90)"  x="26" y="17" width="1" height="1" /><rect shape-rendering="crispEdges" fill="rgb(65, 74, 90)"  x="26" y="18" width="1" height="1" /><rect shape-rendering="crispEdges" fill="rgb(49, 65, 74)"  x="26" y="19" width="1" height="1" /><rect shape-rendering="crispEdges" fill="rgb(49, 57, 82)"  x="26" y="20" width="1" height="1" /><rect shape-rendering="crispEdges" fill="rgb(41, 49, 65)"  x="26" y="21" width="1" height="1" /><rect shape-rendering="crispEdges" fill="rgb(90, 98, 98)"  x="26" y="22" width="1" height="1" /><rect shape-rendering="crispEdges" fill="rgb(32, 41, 57)"  x="26" y="23" width="1" height="1" /><rect shape-rendering="crispEdges" fill="rgb(65, 65, 65)"  x="26" y="24" width="1" height="1" /><rect shape-rendering="crispEdges" fill="rgb(106, 131, 156)"  x="26" y="25" width="1" height="1" /><rect shape-rendering="crispEdges" fill="rgb(98, 123, 139)"  x="26" y="26" width="1" height="1" /><rect shape-rendering="crispEdges" fill="rgb(90, 106, 139)"  x="26" y="27" width="1" height="1" /><rect shape-rendering="crispEdges" fill="rgb(32, 41, 49)"  x="27" y="7" width="1" height="1" /><rect shape-rendering="crispEdges" fill="rgb(32, 41, 57)"  x="27" y="8" width="1" height="1" /><rect shape-rendering="crispEdges" fill="rgb(32, 41, 57)"  x="27" y="9" width="1" height="1" /><rect shape-rendering="crispEdges" fill="rgb(32, 41, 57)"  x="27" y="10" width="1" height="1" /><rect shape-rendering="crispEdges" fill="rgb(57, 65, 82)"  x="27" y="11" width="1" height="1" /><rect shape-rendering="crispEdges" fill="rgb(32, 41, 57)"  x="27" y="12" width="1" height="1" /><rect shape-rendering="crispEdges" fill="rgb(32, 41, 57)"  x="27" y="13" width="1" height="1" /><rect shape-rendering="crispEdges" fill="rgb(41, 49, 65)"  x="27" y="14" width="1" height="1" /><rect shape-rendering="crispEdges" fill="rgb(57, 65, 82)"  x="27" y="15" width="1" height="1" /><rect shape-rendering="crispEdges" fill="rgb(16, 24, 49)"  x="27" y="16" width="1" height="1" /><rect shape-rendering="crispEdges" fill="rgb(49, 57, 74)"  x="27" y="17" width="1" height="1" /><rect shape-rendering="crispEdges" fill="rgb(49, 57, 74)"  x="27" y="18" width="1" height="1" /><rect shape-rendering="crispEdges" fill="rgb(49, 57, 74)"  x="27" y="19" width="1" height="1" /><rect shape-rendering="crispEdges" fill="rgb(49, 57, 74)"  x="27" y="20" width="1" height="1" /><rect shape-rendering="crispEdges" fill="rgb(32, 41, 57)"  x="27" y="21" width="1" height="1" /><rect shape-rendering="crispEdges" fill="rgb(32, 49, 65)"  x="27" y="22" width="1" height="1" /><rect shape-rendering="crispEdges" fill="rgb(16, 16, 24)"  x="27" y="23" width="1" height="1" /><rect shape-rendering="crispEdges" fill="rgb(172, 189, 205)"  x="27" y="24" width="1" height="1" /><rect shape-rendering="crispEdges" fill="rgb(123, 148, 172)"  x="27" y="25" width="1" height="1" /><rect shape-rendering="crispEdges" fill="rgb(131, 156, 172)"  x="27" y="26" width="1" height="1" /><rect shape-rendering="crispEdges" fill="rgb(106, 131, 156)"  x="27" y="27" width="1" height="1" /><rect shape-rendering="crispEdges" fill="rgb(24, 32, 49)"  x="28" y="7" width="1" height="1" /><rect shape-rendering="crispEdges" fill="rgb(32, 41, 57)"  x="28" y="8" width="1" height="1" /><rect shape-rendering="crispEdges" fill="rgb(32, 41, 57)"  x="28" y="9" width="1" height="1" /><rect shape-rendering="crispEdges" fill="rgb(57, 65, 82)"  x="28" y="10" width="1" height="1" /><rect shape-rendering="crispEdges" fill="rgb(24, 32, 49)"  x="28" y="11" width="1" height="1" /><rect shape-rendering="crispEdges" fill="rgb(32, 41, 57)"  x="28" y="12" width="1" height="1" /><rect shape-rendering="crispEdges" fill="rgb(32, 41, 57)"  x="28" y="13" width="1" height="1" /><rect shape-rendering="crispEdges" fill="rgb(32, 49, 65)"  x="28" y="14" width="1" height="1" /><rect shape-rendering="crispEdges" fill="rgb(41, 49, 65)"  x="28" y="15" width="1" height="1" /><rect shape-rendering="crispEdges" fill="rgb(41, 57, 65)"  x="28" y="16" width="1" height="1" /><rect shape-rendering="crispEdges" fill="rgb(24, 32, 57)"  x="28" y="17" width="1" height="1" /><rect shape-rendering="crispEdges" fill="rgb(41, 49, 65)"  x="28" y="18" width="1" height="1" /><rect shape-rendering="crispEdges" fill="rgb(41, 49, 65)"  x="28" y="19" width="1" height="1" /><rect shape-rendering="crispEdges" fill="rgb(41, 49, 74)"  x="28" y="20" width="1" height="1" /><rect shape-rendering="crispEdges" fill="rgb(32, 41, 57)"  x="28" y="21" width="1" height="1" /><rect shape-rendering="crispEdges" fill="rgb(16, 24, 32)"  x="28" y="22" width="1" height="1" /><rect shape-rendering="crispEdges" fill="rgb(222, 222, 222)"  x="28" y="23" width="1" height="1" /><rect shape-rendering="crispEdges" fill="rgb(197, 213, 230)"  x="28" y="24" width="1" height="1" /><rect shape-rendering="crispEdges" fill="rgb(189, 205, 205)"  x="28" y="25" width="1" height="1" /><rect shape-rendering="crispEdges" fill="rgb(106, 123, 139)"  x="28" y="26" width="1" height="1" /><rect shape-rendering="crispEdges" fill="rgb(32, 49, 65)"  x="29" y="8" width="1" height="1" /><rect shape-rendering="crispEdges" fill="rgb(57, 65, 82)"  x="29" y="9" width="1" height="1" /><rect shape-rendering="crispEdges" fill="rgb(32, 49, 65)"  x="29" y="10" width="1" height="1" /><rect shape-rendering="crispEdges" fill="rgb(32, 41, 57)"  x="29" y="11" width="1" height="1" /><rect shape-rendering="crispEdges" fill="rgb(32, 41, 57)"  x="29" y="12" width="1" height="1" /><rect shape-rendering="crispEdges" fill="rgb(32, 49, 57)"  x="29" y="13" width="1" height="1" /><rect shape-rendering="crispEdges" fill="rgb(41, 49, 65)"  x="29" y="14" width="1" height="1" /><rect shape-rendering="crispEdges" fill="rgb(32, 49, 65)"  x="29" y="15" width="1" height="1" /><rect shape-rendering="crispEdges" fill="rgb(32, 41, 57)"  x="29" y="16" width="1" height="1" /><rect shape-rendering="crispEdges" fill="rgb(24, 41, 49)"  x="29" y="17" width="1" height="1" /><rect shape-rendering="crispEdges" fill="rgb(24, 32, 49)"  x="29" y="18" width="1" height="1" /><rect shape-rendering="crispEdges" fill="rgb(32, 41, 57)"  x="29" y="19" width="1" height="1" /><rect shape-rendering="crispEdges" fill="rgb(32, 41, 49)"  x="29" y="20" width="1" height="1" /><rect shape-rendering="crispEdges" fill="rgb(49, 65, 74)"  x="29" y="21" width="1" height="1" /><rect shape-rendering="crispEdges" fill="rgb(74, 90, 115)"  x="29" y="22" width="1" height="1" /><rect shape-rendering="crispEdges" fill="rgb(74, 90, 115)"  x="29" y="23" width="1" height="1" /><rect shape-rendering="crispEdges" fill="rgb(106, 123, 139)"  x="29" y="24" width="1" height="1" /><rect shape-rendering="crispEdges" fill="rgb(106, 123, 139)"  x="29" y="25" width="1" height="1" /><rect shape-rendering="crispEdges" fill="rgb(49, 57, 65)"  x="30" y="9" width="1" height="1" /><rect shape-rendering="crispEdges" fill="rgb(16, 32, 32)"  x="30" y="10" width="1" height="1" /><rect shape-rendering="crispEdges" fill="rgb(24, 32, 41)"  x="30" y="11" width="1" height="1" /><rect shape-rendering="crispEdges" fill="rgb(16, 32, 41)"  x="30" y="12" width="1" height="1" /><rect shape-rendering="crispEdges" fill="rgb(24, 32, 49)"  x="30" y="13" width="1" height="1" /><rect shape-rendering="crispEdges" fill="rgb(32, 41, 57)"  x="30" y="14" width="1" height="1" /><rect shape-rendering="crispEdges" fill="rgb(49, 65, 74)"  x="30" y="15" width="1" height="1" /><rect shape-rendering="crispEdges" fill="rgb(74, 82, 90)"  x="30" y="16" width="1" height="1" /><rect shape-rendering="crispEdges" fill="rgb(49, 65, 74)"  x="30" y="17" width="1" height="1" /><rect shape-rendering="crispEdges" fill="rgb(41, 49, 65)"  x="30" y="18" width="1" height="1" /></svg>