<svg xmlns="http://www.w3.org/2000/svg" xmlns:xlink= "http://www.w3.org/1999/xlink" width="32" height="32" viewBox ="0 0 32 32"><rect shape-rendering="crispEdges" fill="rgb(172, 156, 156)"  x="2" y="14" width="1" height="1" /><rect shape-rendering="crispEdges" fill="rgb(255, 255, 255)"  x="2" y="15" width="1" height="1" /><rect shape-rendering="crispEdges" fill="rgb(255, 238, 238)"  x="2" y="16" width="1" height="1" /><rect shape-rendering="crispEdges" fill="rgb(172, 172, 164)"  x="3" y="13" width="1" height="1" /><rect shape-rendering="crispEdges" fill="rgb(172, 172, 164)"  x="3" y="14" width="1" height="1" /><rect shape-rendering="crispEdges" fill="rgb(255, 255, 255)"  x="3" y="15" width="1" height="1" /><rect shape-rendering="crispEdges" fill="rgb(8, 24, 49)"  x="3" y="16" width="1" height="1" /><rect shape-rendering="crispEdges" fill="rgb(8, 16, 32)"  x="3" y="17" width="1" height="1" /><rect shape-rendering="crispEdges" fill="rgb(8, 16, 32)"  x="3" y="18" width="1" height="1" /><rect shape-rendering="crispEdges" fill="rgb(8, 16, 32)"  x="3" y="19" width="1" height="1" /><rect shape-rendering="crispEdges" fill="rgb(8, 16, 32)"  x="3" y="20" width="1" height="1" /><rect shape-rendering="crispEdges" fill="rgb(172, 172, 164)"  x="4" y="12" width="1" height="1" /><rect shape-rendering="crispEdges" fill="rgb(156, 164, 164)"  x="4" y="13" width="1" height="1" /><rect shape-rendering="crispEdges" fill="rgb(246, 230, 222)"  x="4" y="14" width="1" height="1" /><rect shape-rendering="crispEdges" fill="rgb(49, 57, 82)"  x="4" y="15" width="1" height="1" /><rect shape-rendering="crispEdges" fill="rgb(41, 57, 65)"  x="4" y="16" width="1" height="1" /><rect shape-rendering="crispEdges" fill="rgb(41, 57, 65)"  x="4" y="17" width="1" height="1" /><rect shape-rendering="crispEdges" fill="rgb(41, 57, 65)"  x="4" y="18" width="1" height="1" /><rect shape-rendering="crispEdges" fill="rgb(8, 16, 32)"  x="4" y="19" width="1" height="1" /><rect shape-rendering="crispEdges" fill="rgb(8, 16, 32)"  x="4" y="20" width="1" height="1" /><rect shape-rendering="crispEdges" fill="rgb(41, 41, 65)"  x="4" y="21" width="1" height="1" /><rect shape-rendering="crispEdges" fill="rgb(197, 189, 189)"  x="5" y="11" width="1" height="1" /><rect shape-rendering="crispEdges" fill="rgb(197, 189, 189)"  x="5" y="12" width="1" height="1" /><rect shape-rendering="crispEdges" fill="rgb(115, 98, 90)"  x="5" y="13" width="1" height="1" /><rect shape-rendering="crispEdges" fill="rgb(205, 197, 205)"  x="5" y="14" width="1" height="1" /><rect shape-rendering="crispEdges" fill="rgb(8, 16, 41)"  x="5" y="15" width="1" height="1" /><rect shape-rendering="crispEdges" fill="rgb(32, 41, 49)"  x="5" y="16" width="1" height="1" /><rect shape-rendering="crispEdges" fill="rgb(8, 16, 32)"  x="5" y="17" width="1" height="1" /><rect shape-rendering="crispEdges" fill="rgb(8, 16, 32)"  x="5" y="18" width="1" height="1" /><rect shape-rendering="crispEdges" fill="rgb(8, 16, 32)"  x="5" y="19" width="1" height="1" /><rect shape-rendering="crispEdges" fill="rgb(57, 74, 98)"  x="5" y="20" width="1" height="1" /><rect shape-rendering="crispEdges" fill="rgb(41, 41, 65)"  x="5" y="21" width="1" height="1" /><rect shape-rendering="crispEdges" fill="rgb(41, 41, 65)"  x="5" y="22" width="1" height="1" /><rect shape-rendering="crispEdges" fill="rgb(41, 41, 65)"  x="5" y="23" width="1" height="1" /><rect shape-rendering="crispEdges" fill="rgb(197, 189, 189)"  x="6" y="10" width="1" height="1" /><rect shape-rendering="crispEdges" fill="rgb(180, 172, 172)"  x="6" y="11" width="1" height="1" /><rect shape-rendering="crispEdges" fill="rgb(82, 74, 82)"  x="6" y="12" width="1" height="1" /><rect shape-rendering="crispEdges" fill="rgb(189, 180, 172)"  x="6" y="13" width="1" height="1" /><rect shape-rendering="crispEdges" fill="rgb(148, 148, 156)"  x="6" y="14" width="1" height="1" /><rect shape-rendering="crispEdges" fill="rgb(0, 16, 32)"  x="6" y="15" width="1" height="1" /><rect shape-rendering="crispEdges" fill="rgb(41, 57, 65)"  x="6" y="16" width="1" height="1" /><rect shape-rendering="crispEdges" fill="rgb(74, 90, 115)"  x="6" y="17" width="1" height="1" /><rect shape-rendering="crispEdges" fill="rgb(49, 57, 82)"  x="6" y="18" width="1" height="1" /><rect shape-rendering="crispEdges" fill="rgb(8, 16, 32)"  x="6" y="19" width="1" height="1" /><rect shape-rendering="crispEdges" fill="rgb(32, 41, 57)"  x="6" y="20" width="1" height="1" /><rect shape-rendering="crispEdges" fill="rgb(32, 41, 57)"  x="6" y="21" width="1" height="1" /><rect shape-rendering="crispEdges" fill="rgb(49, 57, 82)"  x="6" y="22" width="1" height="1" /><rect shape-rendering="crispEdges" fill="rgb(49, 57, 74)"  x="6" y="23" width="1" height="1" /><rect shape-rendering="crispEdges" fill="rgb(41, 41, 65)"  x="6" y="24" width="1" height="1" /><rect shape-rendering="crispEdges" fill="rgb(222, 205, 205)"  x="7" y="9" width="1" height="1" /><rect shape-rendering="crispEdges" fill="rgb(164, 156, 148)"  x="7" y="10" width="1" height="1" /><rect shape-rendering="crispEdges" fill="rgb(98, 90, 98)"  x="7" y="11" width="1" height="1" /><rect shape-rendering="crispEdges" fill="rgb(148, 139, 139)"  x="7" y="12" width="1" height="1" /><rect shape-rendering="crispEdges" fill="rgb(238, 222, 213)"  x="7" y="13" width="1" height="1" /><rect shape-rendering="crispEdges" fill="rgb(123, 123, 131)"  x="7" y="14" width="1" height="1" /><rect shape-rendering="crispEdges" fill="rgb(41, 57, 65)"  x="7" y="15" width="1" height="1" /><rect shape-rendering="crispEdges" fill="rgb(49, 74, 106)"  x="7" y="16" width="1" height="1" /><rect shape-rendering="crispEdges" fill="rgb(0, 16, 32)"  x="7" y="17" width="1" height="1" /><rect shape-rendering="crispEdges" fill="rgb(16, 32, 41)"  x="7" y="18" width="1" height="1" /><rect shape-rendering="crispEdges" fill="rgb(74, 82, 106)"  x="7" y="19" width="1" height="1" /><rect shape-rendering="crispEdges" fill="rgb(57, 65, 82)"  x="7" y="20" width="1" height="1" /><rect shape-rendering="crispEdges" fill="rgb(32, 41, 49)"  x="7" y="21" width="1" height="1" /><rect shape-rendering="crispEdges" fill="rgb(65, 82, 106)"  x="7" y="22" width="1" height="1" /><rect shape-rendering="crispEdges" fill="rgb(74, 90, 131)"  x="7" y="23" width="1" height="1" /><rect shape-rendering="crispEdges" fill="rgb(49, 57, 74)"  x="7" y="24" width="1" height="1" /><rect shape-rendering="crispEdges" fill="rgb(49, 57, 74)"  x="7" y="25" width="1" height="1" /><rect shape-rendering="crispEdges" fill="rgb(24, 32, 82)"  x="7" y="26" width="1" height="1" /><rect shape-rendering="crispEdges" fill="rgb(222, 205, 205)"  x="8" y="8" width="1" height="1" /><rect shape-rendering="crispEdges" fill="rgb(172, 164, 156)"  x="8" y="9" width="1" height="1" /><rect shape-rendering="crispEdges" fill="rgb(180, 172, 172)"  x="8" y="10" width="1" height="1" /><rect shape-rendering="crispEdges" fill="rgb(172, 164, 172)"  x="8" y="11" width="1" height="1" /><rect shape-rendering="crispEdges" fill="rgb(238, 222, 213)"  x="8" y="12" width="1" height="1" /><rect shape-rendering="crispEdges" fill="rgb(98, 106, 115)"  x="8" y="13" width="1" height="1" /><rect shape-rendering="crispEdges" fill="rgb(41, 57, 65)"  x="8" y="14" width="1" height="1" /><rect shape-rendering="crispEdges" fill="rgb(49, 74, 106)"  x="8" y="15" width="1" height="1" /><rect shape-rendering="crispEdges" fill="rgb(74, 82, 90)"  x="8" y="16" width="1" height="1" /><rect shape-rendering="crispEdges" fill="rgb(197, 197, 197)"  x="8" y="17" width="1" height="1" /><rect shape-rendering="crispEdges" fill="rgb(255, 255, 255)"  x="8" y="18" width="1" height="1" /><rect shape-rendering="crispEdges" fill="rgb(222, 213, 205)"  x="8" y="19" width="1" height="1" /><rect shape-rendering="crispEdges" fill="rgb(24, 32, 57)"  x="8" y="20" width="1" height="1" /><rect shape-rendering="crispEdges" fill="rgb(41, 49, 65)"  x="8" y="21" width="1" height="1" /><rect shape-rendering="crispEdges" fill="rgb(32, 41, 57)"  x="8" y="22" width="1" height="1" /><rect shape-rendering="crispEdges" fill="rgb(32, 41, 57)"  x="8" y="23" width="1" height="1" /><rect shape-rendering="crispEdges" fill="rgb(74, 90, 131)"  x="8" y="24" width="1" height="1" /><rect shape-rendering="crispEdges" fill="rgb(74, 90, 131)"  x="8" y="25" width="1" height="1" /><rect shape-rendering="crispEdges" fill="rgb(24, 32, 82)"  x="8" y="26" width="1" height="1" /><rect shape-rendering="crispEdges" fill="rgb(57, 74, 82)"  x="8" y="27" width="1" height="1" /><rect shape-rendering="crispEdges" fill="rgb(32, 49, 74)"  x="9" y="7" width="1" height="1" /><rect shape-rendering="crispEdges" fill="rgb(131, 115, 98)"  x="9" y="8" width="1" height="1" /><rect shape-rendering="crispEdges" fill="rgb(222, 205, 205)"  x="9" y="9" width="1" height="1" /><rect shape-rendering="crispEdges" fill="rgb(180, 180, 172)"  x="9" y="10" width="1" height="1" /><rect shape-rendering="crispEdges" fill="rgb(230, 222, 213)"  x="9" y="11" width="1" height="1" /><rect shape-rendering="crispEdges" fill="rgb(255, 255, 255)"  x="9" y="12" width="1" height="1" /><rect shape-rendering="crispEdges" fill="rgb(8, 24, 57)"  x="9" y="13" width="1" height="1" /><rect shape-rendering="crispEdges" fill="rgb(24, 49, 82)"  x="9" y="14" width="1" height="1" /><rect shape-rendering="crispEdges" fill="rgb(106, 98, 98)"  x="9" y="15" width="1" height="1" /><rect shape-rendering="crispEdges" fill="rgb(255, 255, 255)"  x="9" y="16" width="1" height="1" /><rect shape-rendering="crispEdges" fill="rgb(57, 41, 41)"  x="9" y="17" width="1" height="1" /><rect shape-rendering="crispEdges" fill="rgb(139, 115, 106)"  x="9" y="18" width="1" height="1" /><rect shape-rendering="crispEdges" fill="rgb(139, 139, 148)"  x="9" y="19" width="1" height="1" /><rect shape-rendering="crispEdges" fill="rgb(24, 49, 82)"  x="9" y="20" width="1" height="1" /><rect shape-rendering="crispEdges" fill="rgb(65, 82, 106)"  x="9" y="21" width="1" height="1" /><rect shape-rendering="crispEdges" fill="rgb(32, 41, 57)"  x="9" y="22" width="1" height="1" /><rect shape-rendering="crispEdges" fill="rgb(32, 41, 57)"  x="9" y="23" width="1" height="1" /><rect shape-rendering="crispEdges" fill="rgb(32, 41, 57)"  x="9" y="24" width="1" height="1" /><rect shape-rendering="crispEdges" fill="rgb(74, 90, 131)"  x="9" y="25" width="1" height="1" /><rect shape-rendering="crispEdges" fill="rgb(74, 90, 131)"  x="9" y="26" width="1" height="1" /><rect shape-rendering="crispEdges" fill="rgb(32, 41, 57)"  x="9" y="27" width="1" height="1" /><rect shape-rendering="crispEdges" fill="rgb(156, 189, 238)"  x="10" y="5" width="1" height="1" /><rect shape-rendering="crispEdges" fill="rgb(106, 106, 131)"  x="10" y="6" width="1" height="1" /><rect shape-rendering="crispEdges" fill="rgb(106, 106, 131)"  x="10" y="7" width="1" height="1" /><rect shape-rendering="crispEdges" fill="rgb(131, 115, 115)"  x="10" y="8" width="1" height="1" /><rect shape-rendering="crispEdges" fill="rgb(115, 98, 90)"  x="10" y="9" width="1" height="1" /><rect shape-rendering="crispEdges" fill="rgb(164, 156, 156)"  x="10" y="10" width="1" height="1" /><rect shape-rendering="crispEdges" fill="rgb(148, 148, 139)"  x="10" y="11" width="1" height="1" /><rect shape-rendering="crispEdges" fill="rgb(205, 197, 197)"  x="10" y="12" width="1" height="1" /><rect shape-rendering="crispEdges" fill="rgb(106, 123, 139)"  x="10" y="13" width="1" height="1" /><rect shape-rendering="crispEdges" fill="rgb(32, 24, 32)"  x="10" y="14" width="1" height="1" /><rect shape-rendering="crispEdges" fill="rgb(255, 255, 246)"  x="10" y="15" width="1" height="1" /><rect shape-rendering="crispEdges" fill="rgb(172, 164, 156)"  x="10" y="16" width="1" height="1" /><rect shape-rendering="crispEdges" fill="rgb(98, 90, 82)"  x="10" y="17" width="1" height="1" /><rect shape-rendering="crispEdges" fill="rgb(255, 255, 246)"  x="10" y="18" width="1" height="1" /><rect shape-rendering="crispEdges" fill="rgb(90, 98, 115)"  x="10" y="19" width="1" height="1" /><rect shape-rendering="crispEdges" fill="rgb(8, 24, 49)"  x="10" y="20" width="1" height="1" /><rect shape-rendering="crispEdges" fill="rgb(41, 49, 74)"  x="10" y="21" width="1" height="1" /><rect shape-rendering="crispEdges" fill="rgb(82, 106, 139)"  x="10" y="22" width="1" height="1" /><rect shape-rendering="crispEdges" fill="rgb(32, 41, 57)"  x="10" y="23" width="1" height="1" /><rect shape-rendering="crispEdges" fill="rgb(32, 41, 57)"  x="10" y="24" width="1" height="1" /><rect shape-rendering="crispEdges" fill="rgb(32, 41, 57)"  x="10" y="25" width="1" height="1" /><rect shape-rendering="crispEdges" fill="rgb(57, 65, 90)"  x="10" y="26" width="1" height="1" /><rect shape-rendering="crispEdges" fill="rgb(16, 41, 49)"  x="10" y="27" width="1" height="1" /><rect shape-rendering="crispEdges" fill="rgb(148, 131, 123)"  x="11" y="3" width="1" height="1" /><rect shape-rendering="crispEdges" fill="rgb(197, 172, 156)"  x="11" y="4" width="1" height="1" /><rect shape-rendering="crispEdges" fill="rgb(222, 205, 205)"  x="11" y="5" width="1" height="1" /><rect shape-rendering="crispEdges" fill="rgb(222, 205, 205)"  x="11" y="6" width="1" height="1" /><rect shape-rendering="crispEdges" fill="rgb(238, 222, 213)"  x="11" y="7" width="1" height="1" /><rect shape-rendering="crispEdges" fill="rgb(238, 222, 213)"  x="11" y="8" width="1" height="1" /><rect shape-rendering="crispEdges" fill="rgb(180, 156, 148)"  x="11" y="9" width="1" height="1" /><rect shape-rendering="crispEdges" fill="rgb(74, 74, 82)"  x="11" y="10" width="1" height="1" /><rect shape-rendering="crispEdges" fill="rgb(8, 24, 49)"  x="11" y="11" width="1" height="1" /><rect shape-rendering="crispEdges" fill="rgb(123, 123, 131)"  x="11" y="12" width="1" height="1" /><rect shape-rendering="crispEdges" fill="rgb(131, 131, 139)"  x="11" y="13" width="1" height="1" /><rect shape-rendering="crispEdges" fill="rgb(213, 205, 189)"  x="11" y="14" width="1" height="1" /><rect shape-rendering="crispEdges" fill="rgb(222, 213, 213)"  x="11" y="15" width="1" height="1" /><rect shape-rendering="crispEdges" fill="rgb(131, 115, 115)"  x="11" y="16" width="1" height="1" /><rect shape-rendering="crispEdges" fill="rgb(246, 238, 238)"  x="11" y="17" width="1" height="1" /><rect shape-rendering="crispEdges" fill="rgb(164, 156, 156)"  x="11" y="18" width="1" height="1" /><rect shape-rendering="crispEdges" fill="rgb(222, 222, 213)"  x="11" y="19" width="1" height="1" /><rect shape-rendering="crispEdges" fill="rgb(222, 213, 205)"  x="11" y="20" width="1" height="1" /><rect shape-rendering="crispEdges" fill="rgb(32, 49, 82)"  x="11" y="21" width="1" height="1" /><rect shape-rendering="crispEdges" fill="rgb(106, 131, 180)"  x="11" y="22" width="1" height="1" /><rect shape-rendering="crispEdges" fill="rgb(65, 82, 123)"  x="11" y="23" width="1" height="1" /><rect shape-rendering="crispEdges" fill="rgb(65, 74, 106)"  x="11" y="24" width="1" height="1" /><rect shape-rendering="crispEdges" fill="rgb(49, 57, 74)"  x="11" y="25" width="1" height="1" /><rect shape-rendering="crispEdges" fill="rgb(41, 41, 65)"  x="11" y="26" width="1" height="1" /><rect shape-rendering="crispEdges" fill="rgb(41, 41, 65)"  x="11" y="27" width="1" height="1" /><rect shape-rendering="crispEdges" fill="rgb(41, 41, 65)"  x="11" y="28" width="1" height="1" /><rect shape-rendering="crispEdges" fill="rgb(156, 148, 156)"  x="12" y="3" width="1" height="1" /><rect shape-rendering="crispEdges" fill="rgb(123, 106, 98)"  x="12" y="4" width="1" height="1" /><rect shape-rendering="crispEdges" fill="rgb(123, 106, 98)"  x="12" y="5" width="1" height="1" /><rect shape-rendering="crispEdges" fill="rgb(123, 106, 98)"  x="12" y="6" width="1" height="1" /><rect shape-rendering="crispEdges" fill="rgb(164, 148, 139)"  x="12" y="7" width="1" height="1" /><rect shape-rendering="crispEdges" fill="rgb(164, 148, 139)"  x="12" y="8" width="1" height="1" /><rect shape-rendering="crispEdges" fill="rgb(238, 222, 213)"  x="12" y="9" width="1" height="1" /><rect shape-rendering="crispEdges" fill="rgb(131, 123, 123)"  x="12" y="10" width="1" height="1" /><rect shape-rendering="crispEdges" fill="rgb(0, 0, 24)"  x="12" y="11" width="1" height="1" /><rect shape-rendering="crispEdges" fill="rgb(180, 172, 164)"  x="12" y="12" width="1" height="1" /><rect shape-rendering="crispEdges" fill="rgb(255, 255, 255)"  x="12" y="13" width="1" height="1" /><rect shape-rendering="crispEdges" fill="rgb(222, 222, 213)"  x="12" y="14" width="1" height="1" /><rect shape-rendering="crispEdges" fill="rgb(156, 148, 139)"  x="12" y="15" width="1" height="1" /><rect shape-rendering="crispEdges" fill="rgb(230, 222, 222)"  x="12" y="16" width="1" height="1" /><rect shape-rendering="crispEdges" fill="rgb(172, 156, 156)"  x="12" y="17" width="1" height="1" /><rect shape-rendering="crispEdges" fill="rgb(131, 115, 115)"  x="12" y="18" width="1" height="1" /><rect shape-rendering="crispEdges" fill="rgb(90, 82, 74)"  x="12" y="19" width="1" height="1" /><rect shape-rendering="crispEdges" fill="rgb(189, 180, 180)"  x="12" y="20" width="1" height="1" /><rect shape-rendering="crispEdges" fill="rgb(0, 0, 32)"  x="12" y="21" width="1" height="1" /><rect shape-rendering="crispEdges" fill="rgb(24, 32, 65)"  x="12" y="22" width="1" height="1" /><rect shape-rendering="crispEdges" fill="rgb(74, 74, 90)"  x="12" y="23" width="1" height="1" /><rect shape-rendering="crispEdges" fill="rgb(41, 41, 65)"  x="12" y="24" width="1" height="1" /><rect shape-rendering="crispEdges" fill="rgb(41, 41, 65)"  x="12" y="25" width="1" height="1" /><rect shape-rendering="crispEdges" fill="rgb(41, 41, 65)"  x="12" y="26" width="1" height="1" /><rect shape-rendering="crispEdges" fill="rgb(106, 123, 164)"  x="12" y="27" width="1" height="1" /><rect shape-rendering="crispEdges" fill="rgb(41, 41, 65)"  x="12" y="28" width="1" height="1" /><rect shape-rendering="crispEdges" fill="rgb(139, 172, 213)"  x="13" y="3" width="1" height="1" /><rect shape-rendering="crispEdges" fill="rgb(156, 180, 230)"  x="13" y="4" width="1" height="1" /><rect shape-rendering="crispEdges" fill="rgb(115, 148, 197)"  x="13" y="5" width="1" height="1" /><rect shape-rendering="crispEdges" fill="rgb(115, 148, 197)"  x="13" y="6" width="1" height="1" /><rect shape-rendering="crispEdges" fill="rgb(115, 148, 197)"  x="13" y="7" width="1" height="1" /><rect shape-rendering="crispEdges" fill="rgb(106, 106, 131)"  x="13" y="8" width="1" height="1" /><rect shape-rendering="crispEdges" fill="rgb(106, 106, 131)"  x="13" y="9" width="1" height="1" /><rect shape-rendering="crispEdges" fill="rgb(197, 172, 164)"  x="13" y="10" width="1" height="1" /><rect shape-rendering="crispEdges" fill="rgb(82, 82, 82)"  x="13" y="11" width="1" height="1" /><rect shape-rendering="crispEdges" fill="rgb(189, 180, 180)"  x="13" y="12" width="1" height="1" /><rect shape-rendering="crispEdges" fill="rgb(246, 246, 238)"  x="13" y="13" width="1" height="1" /><rect shape-rendering="crispEdges" fill="rgb(172, 164, 164)"  x="13" y="14" width="1" height="1" /><rect shape-rendering="crispEdges" fill="rgb(255, 255, 255)"  x="13" y="15" width="1" height="1" /><rect shape-rendering="crispEdges" fill="rgb(65, 57, 49)"  x="13" y="16" width="1" height="1" /><rect shape-rendering="crispEdges" fill="rgb(65, 57, 57)"  x="13" y="17" width="1" height="1" /><rect shape-rendering="crispEdges" fill="rgb(172, 164, 164)"  x="13" y="18" width="1" height="1" /><rect shape-rendering="crispEdges" fill="rgb(123, 106, 106)"  x="13" y="19" width="1" height="1" /><rect shape-rendering="crispEdges" fill="rgb(205, 205, 205)"  x="13" y="20" width="1" height="1" /><rect shape-rendering="crispEdges" fill="rgb(213, 213, 222)"  x="13" y="21" width="1" height="1" /><rect shape-rendering="crispEdges" fill="rgb(255, 255, 255)"  x="13" y="22" width="1" height="1" /><rect shape-rendering="crispEdges" fill="rgb(139, 139, 148)"  x="13" y="23" width="1" height="1" /><rect shape-rendering="crispEdges" fill="rgb(41, 41, 65)"  x="13" y="24" width="1" height="1" /><rect shape-rendering="crispEdges" fill="rgb(41, 49, 74)"  x="13" y="25" width="1" height="1" /><rect shape-rendering="crispEdges" fill="rgb(49, 65, 82)"  x="13" y="26" width="1" height="1" /><rect shape-rendering="crispEdges" fill="rgb(82, 98, 131)"  x="13" y="27" width="1" height="1" /><rect shape-rendering="crispEdges" fill="rgb(41, 41, 65)"  x="13" y="28" width="1" height="1" /><rect shape-rendering="crispEdges" fill="rgb(172, 213, 255)"  x="14" y="4" width="1" height="1" /><rect shape-rendering="crispEdges" fill="rgb(222, 238, 255)"  x="14" y="5" width="1" height="1" /><rect shape-rendering="crispEdges" fill="rgb(180, 197, 213)"  x="14" y="6" width="1" height="1" /><rect shape-rendering="crispEdges" fill="rgb(238, 246, 246)"  x="14" y="7" width="1" height="1" /><rect shape-rendering="crispEdges" fill="rgb(164, 213, 255)"  x="14" y="8" width="1" height="1" /><rect shape-rendering="crispEdges" fill="rgb(189, 197, 222)"  x="14" y="9" width="1" height="1" /><rect shape-rendering="crispEdges" fill="rgb(172, 148, 123)"  x="14" y="10" width="1" height="1" /><rect shape-rendering="crispEdges" fill="rgb(148, 131, 123)"  x="14" y="11" width="1" height="1" /><rect shape-rendering="crispEdges" fill="rgb(164, 156, 156)"  x="14" y="12" width="1" height="1" /><rect shape-rendering="crispEdges" fill="rgb(197, 180, 180)"  x="14" y="13" width="1" height="1" /><rect shape-rendering="crispEdges" fill="rgb(255, 255, 255)"  x="14" y="14" width="1" height="1" /><rect shape-rendering="crispEdges" fill="rgb(65, 57, 57)"  x="14" y="15" width="1" height="1" /><rect shape-rendering="crispEdges" fill="rgb(65, 57, 57)"  x="14" y="16" width="1" height="1" /><rect shape-rendering="crispEdges" fill="rgb(123, 115, 115)"  x="14" y="17" width="1" height="1" /><rect shape-rendering="crispEdges" fill="rgb(98, 90, 90)"  x="14" y="18" width="1" height="1" /><rect shape-rendering="crispEdges" fill="rgb(238, 230, 222)"  x="14" y="19" width="1" height="1" /><rect shape-rendering="crispEdges" fill="rgb(197, 197, 189)"  x="14" y="20" width="1" height="1" /><rect shape-rendering="crispEdges" fill="rgb(115, 98, 90)"  x="14" y="21" width="1" height="1" /><rect shape-rendering="crispEdges" fill="rgb(255, 255, 255)"  x="14" y="22" width="1" height="1" /><rect shape-rendering="crispEdges" fill="rgb(98, 98, 106)"  x="14" y="23" width="1" height="1" /><rect shape-rendering="crispEdges" fill="rgb(41, 65, 98)"  x="14" y="24" width="1" height="1" /><rect shape-rendering="crispEdges" fill="rgb(57, 74, 98)"  x="14" y="25" width="1" height="1" /><rect shape-rendering="crispEdges" fill="rgb(49, 57, 74)"  x="14" y="26" width="1" height="1" /><rect shape-rendering="crispEdges" fill="rgb(65, 74, 98)"  x="14" y="27" width="1" height="1" /><rect shape-rendering="crispEdges" fill="rgb(41, 41, 65)"  x="14" y="28" width="1" height="1" /><rect shape-rendering="crispEdges" fill="rgb(230, 246, 255)"  x="15" y="4" width="1" height="1" /><rect shape-rendering="crispEdges" fill="rgb(238, 246, 246)"  x="15" y="5" width="1" height="1" /><rect shape-rendering="crispEdges" fill="rgb(238, 246, 246)"  x="15" y="6" width="1" height="1" /><rect shape-rendering="crispEdges" fill="rgb(156, 180, 213)"  x="15" y="7" width="1" height="1" /><rect shape-rendering="crispEdges" fill="rgb(180, 189, 213)"  x="15" y="8" width="1" height="1" /><rect shape-rendering="crispEdges" fill="rgb(205, 230, 255)"  x="15" y="9" width="1" height="1" /><rect shape-rendering="crispEdges" fill="rgb(139, 123, 115)"  x="15" y="10" width="1" height="1" /><rect shape-rendering="crispEdges" fill="rgb(197, 180, 172)"  x="15" y="11" width="1" height="1" /><rect shape-rendering="crispEdges" fill="rgb(180, 180, 172)"  x="15" y="12" width="1" height="1" /><rect shape-rendering="crispEdges" fill="rgb(246, 246, 238)"  x="15" y="13" width="1" height="1" /><rect shape-rendering="crispEdges" fill="rgb(156, 148, 148)"  x="15" y="14" width="1" height="1" /><rect shape-rendering="crispEdges" fill="rgb(65, 57, 57)"  x="15" y="15" width="1" height="1" /><rect shape-rendering="crispEdges" fill="rgb(139, 123, 123)"  x="15" y="16" width="1" height="1" /><rect shape-rendering="crispEdges" fill="rgb(65, 49, 49)"  x="15" y="17" width="1" height="1" /><rect shape-rendering="crispEdges" fill="rgb(180, 172, 172)"  x="15" y="18" width="1" height="1" /><rect shape-rendering="crispEdges" fill="rgb(255, 255, 255)"  x="15" y="19" width="1" height="1" /><rect shape-rendering="crispEdges" fill="rgb(24, 16, 8)"  x="15" y="20" width="1" height="1" /><rect shape-rendering="crispEdges" fill="rgb(123, 115, 115)"  x="15" y="21" width="1" height="1" /><rect shape-rendering="crispEdges" fill="rgb(246, 238, 238)"  x="15" y="22" width="1" height="1" /><rect shape-rendering="crispEdges" fill="rgb(189, 180, 172)"  x="15" y="23" width="1" height="1" /><rect shape-rendering="crispEdges" fill="rgb(24, 41, 65)"  x="15" y="24" width="1" height="1" /><rect shape-rendering="crispEdges" fill="rgb(74, 98, 131)"  x="15" y="25" width="1" height="1" /><rect shape-rendering="crispEdges" fill="rgb(65, 74, 98)"  x="15" y="26" width="1" height="1" /><rect shape-rendering="crispEdges" fill="rgb(41, 41, 65)"  x="15" y="27" width="1" height="1" /><rect shape-rendering="crispEdges" fill="rgb(180, 189, 213)"  x="16" y="4" width="1" height="1" /><rect shape-rendering="crispEdges" fill="rgb(222, 238, 255)"  x="16" y="5" width="1" height="1" /><rect shape-rendering="crispEdges" fill="rgb(156, 180, 213)"  x="16" y="6" width="1" height="1" /><rect shape-rendering="crispEdges" fill="rgb(148, 164, 189)"  x="16" y="7" width="1" height="1" /><rect shape-rendering="crispEdges" fill="rgb(230, 238, 246)"  x="16" y="8" width="1" height="1" /><rect shape-rendering="crispEdges" fill="rgb(189, 205, 222)"  x="16" y="9" width="1" height="1" /><rect shape-rendering="crispEdges" fill="rgb(197, 189, 189)"  x="16" y="10" width="1" height="1" /><rect shape-rendering="crispEdges" fill="rgb(213, 197, 189)"  x="16" y="11" width="1" height="1" /><rect shape-rendering="crispEdges" fill="rgb(156, 148, 156)"  x="16" y="12" width="1" height="1" /><rect shape-rendering="crispEdges" fill="rgb(246, 246, 238)"  x="16" y="13" width="1" height="1" /><rect shape-rendering="crispEdges" fill="rgb(255, 246, 246)"  x="16" y="14" width="1" height="1" /><rect shape-rendering="crispEdges" fill="rgb(65, 57, 57)"  x="16" y="15" width="1" height="1" /><rect shape-rendering="crispEdges" fill="rgb(65, 57, 57)"  x="16" y="16" width="1" height="1" /><rect shape-rendering="crispEdges" fill="rgb(156, 148, 148)"  x="16" y="17" width="1" height="1" /><rect shape-rendering="crispEdges" fill="rgb(255, 255, 255)"  x="16" y="18" width="1" height="1" /><rect shape-rendering="crispEdges" fill="rgb(131, 123, 123)"  x="16" y="19" width="1" height="1" /><rect shape-rendering="crispEdges" fill="rgb(189, 180, 180)"  x="16" y="20" width="1" height="1" /><rect shape-rendering="crispEdges" fill="rgb(238, 230, 230)"  x="16" y="21" width="1" height="1" /><rect shape-rendering="crispEdges" fill="rgb(98, 82, 82)"  x="16" y="22" width="1" height="1" /><rect shape-rendering="crispEdges" fill="rgb(213, 205, 197)"  x="16" y="23" width="1" height="1" /><rect shape-rendering="crispEdges" fill="rgb(8, 24, 41)"  x="16" y="24" width="1" height="1" /><rect shape-rendering="crispEdges" fill="rgb(65, 82, 106)"  x="16" y="25" width="1" height="1" /><rect shape-rendering="crispEdges" fill="rgb(41, 41, 65)"  x="16" y="26" width="1" height="1" /><rect shape-rendering="crispEdges" fill="rgb(106, 131, 164)"  x="17" y="5" width="1" height="1" /><rect shape-rendering="crispEdges" fill="rgb(115, 156, 213)"  x="17" y="6" width="1" height="1" /><rect shape-rendering="crispEdges" fill="rgb(213, 230, 255)"  x="17" y="7" width="1" height="1" /><rect shape-rendering="crispEdges" fill="rgb(197, 205, 222)"  x="17" y="8" width="1" height="1" /><rect shape-rendering="crispEdges" fill="rgb(230, 222, 230)"  x="17" y="9" width="1" height="1" /><rect shape-rendering="crispEdges" fill="rgb(189, 172, 156)"  x="17" y="10" width="1" height="1" /><rect shape-rendering="crispEdges" fill="rgb(205, 189, 180)"  x="17" y="11" width="1" height="1" /><rect shape-rendering="crispEdges" fill="rgb(123, 115, 115)"  x="17" y="12" width="1" height="1" /><rect shape-rendering="crispEdges" fill="rgb(189, 172, 172)"  x="17" y="13" width="1" height="1" /><rect shape-rendering="crispEdges" fill="rgb(246, 246, 238)"  x="17" y="14" width="1" height="1" /><rect shape-rendering="crispEdges" fill="rgb(189, 180, 180)"  x="17" y="15" width="1" height="1" /><rect shape-rendering="crispEdges" fill="rgb(164, 156, 156)"  x="17" y="16" width="1" height="1" /><rect shape-rendering="crispEdges" fill="rgb(255, 255, 255)"  x="17" y="17" width="1" height="1" /><rect shape-rendering="crispEdges" fill="rgb(197, 189, 180)"  x="17" y="18" width="1" height="1" /><rect shape-rendering="crispEdges" fill="rgb(189, 180, 172)"  x="17" y="19" width="1" height="1" /><rect shape-rendering="crispEdges" fill="rgb(222, 213, 213)"  x="17" y="20" width="1" height="1" /><rect shape-rendering="crispEdges" fill="rgb(106, 98, 90)"  x="17" y="21" width="1" height="1" /><rect shape-rendering="crispEdges" fill="rgb(180, 172, 164)"  x="17" y="22" width="1" height="1" /><rect shape-rendering="crispEdges" fill="rgb(148, 148, 156)"  x="17" y="23" width="1" height="1" /><rect shape-rendering="crispEdges" fill="rgb(8, 24, 41)"  x="17" y="24" width="1" height="1" /><rect shape-rendering="crispEdges" fill="rgb(32, 41, 57)"  x="17" y="25" width="1" height="1" /><rect shape-rendering="crispEdges" fill="rgb(115, 123, 180)"  x="18" y="4" width="1" height="1" /><rect shape-rendering="crispEdges" fill="rgb(164, 205, 255)"  x="18" y="5" width="1" height="1" /><rect shape-rendering="crispEdges" fill="rgb(222, 246, 255)"  x="18" y="6" width="1" height="1" /><rect shape-rendering="crispEdges" fill="rgb(197, 213, 213)"  x="18" y="7" width="1" height="1" /><rect shape-rendering="crispEdges" fill="rgb(189, 197, 205)"  x="18" y="8" width="1" height="1" /><rect shape-rendering="crispEdges" fill="rgb(164, 148, 131)"  x="18" y="9" width="1" height="1" /><rect shape-rendering="crispEdges" fill="rgb(156, 148, 148)"  x="18" y="10" width="1" height="1" /><rect shape-rendering="crispEdges" fill="rgb(115, 115, 123)"  x="18" y="11" width="1" height="1" /><rect shape-rendering="crispEdges" fill="rgb(139, 123, 115)"  x="18" y="12" width="1" height="1" /><rect shape-rendering="crispEdges" fill="rgb(205, 197, 197)"  x="18" y="13" width="1" height="1" /><rect shape-rendering="crispEdges" fill="rgb(189, 180, 180)"  x="18" y="14" width="1" height="1" /><rect shape-rendering="crispEdges" fill="rgb(255, 255, 255)"  x="18" y="15" width="1" height="1" /><rect shape-rendering="crispEdges" fill="rgb(255, 255, 255)"  x="18" y="16" width="1" height="1" /><rect shape-rendering="crispEdges" fill="rgb(189, 180, 180)"  x="18" y="17" width="1" height="1" /><rect shape-rendering="crispEdges" fill="rgb(164, 156, 148)"  x="18" y="18" width="1" height="1" /><rect shape-rendering="crispEdges" fill="rgb(189, 180, 180)"  x="18" y="19" width="1" height="1" /><rect shape-rendering="crispEdges" fill="rgb(115, 106, 98)"  x="18" y="20" width="1" height="1" /><rect shape-rendering="crispEdges" fill="rgb(156, 148, 148)"  x="18" y="21" width="1" height="1" /><rect shape-rendering="crispEdges" fill="rgb(213, 205, 197)"  x="18" y="22" width="1" height="1" /><rect shape-rendering="crispEdges" fill="rgb(65, 74, 90)"  x="18" y="23" width="1" height="1" /><rect shape-rendering="crispEdges" fill="rgb(24, 32, 57)"  x="18" y="24" width="1" height="1" /><rect shape-rendering="crispEdges" fill="rgb(41, 41, 65)"  x="18" y="25" width="1" height="1" /><rect shape-rendering="crispEdges" fill="rgb(41, 41, 65)"  x="18" y="26" width="1" height="1" /><rect shape-rendering="crispEdges" fill="rgb(172, 205, 255)"  x="19" y="5" width="1" height="1" /><rect shape-rendering="crispEdges" fill="rgb(238, 238, 246)"  x="19" y="6" width="1" height="1" /><rect shape-rendering="crispEdges" fill="rgb(164, 180, 205)"  x="19" y="7" width="1" height="1" /><rect shape-rendering="crispEdges" fill="rgb(189, 172, 156)"  x="19" y="8" width="1" height="1" /><rect shape-rendering="crispEdges" fill="rgb(172, 156, 148)"  x="19" y="9" width="1" height="1" /><rect shape-rendering="crispEdges" fill="rgb(106, 106, 131)"  x="19" y="10" width="1" height="1" /><rect shape-rendering="crispEdges" fill="rgb(139, 156, 180)"  x="19" y="11" width="1" height="1" /><rect shape-rendering="crispEdges" fill="rgb(123, 106, 90)"  x="19" y="12" width="1" height="1" /><rect shape-rendering="crispEdges" fill="rgb(98, 90, 82)"  x="19" y="13" width="1" height="1" /><rect shape-rendering="crispEdges" fill="rgb(82, 74, 74)"  x="19" y="14" width="1" height="1" /><rect shape-rendering="crispEdges" fill="rgb(180, 172, 172)"  x="19" y="15" width="1" height="1" /><rect shape-rendering="crispEdges" fill="rgb(255, 246, 246)"  x="19" y="16" width="1" height="1" /><rect shape-rendering="crispEdges" fill="rgb(139, 123, 123)"  x="19" y="17" width="1" height="1" /><rect shape-rendering="crispEdges" fill="rgb(156, 148, 148)"  x="19" y="18" width="1" height="1" /><rect shape-rendering="crispEdges" fill="rgb(90, 74, 74)"  x="19" y="19" width="1" height="1" /><rect shape-rendering="crispEdges" fill="rgb(139, 123, 123)"  x="19" y="20" width="1" height="1" /><rect shape-rendering="crispEdges" fill="rgb(139, 123, 115)"  x="19" y="21" width="1" height="1" /><rect shape-rendering="crispEdges" fill="rgb(205, 189, 180)"  x="19" y="22" width="1" height="1" /><rect shape-rendering="crispEdges" fill="rgb(57, 65, 82)"  x="19" y="23" width="1" height="1" /><rect shape-rendering="crispEdges" fill="rgb(41, 49, 74)"  x="19" y="24" width="1" height="1" /><rect shape-rendering="crispEdges" fill="rgb(65, 82, 106)"  x="19" y="25" width="1" height="1" /><rect shape-rendering="crispEdges" fill="rgb(90, 98, 131)"  x="19" y="26" width="1" height="1" /><rect shape-rendering="crispEdges" fill="rgb(41, 41, 65)"  x="19" y="27" width="1" height="1" /><rect shape-rendering="crispEdges" fill="rgb(246, 255, 255)"  x="20" y="5" width="1" height="1" /><rect shape-rendering="crispEdges" fill="rgb(255, 255, 255)"  x="20" y="6" width="1" height="1" /><rect shape-rendering="crispEdges" fill="rgb(213, 197, 197)"  x="20" y="7" width="1" height="1" /><rect shape-rendering="crispEdges" fill="rgb(172, 148, 139)"  x="20" y="8" width="1" height="1" /><rect shape-rendering="crispEdges" fill="rgb(238, 246, 246)"  x="20" y="9" width="1" height="1" /><rect shape-rendering="crispEdges" fill="rgb(255, 255, 255)"  x="20" y="10" width="1" height="1" /><rect shape-rendering="crispEdges" fill="rgb(222, 238, 255)"  x="20" y="11" width="1" height="1" /><rect shape-rendering="crispEdges" fill="rgb(90, 98, 115)"  x="20" y="12" width="1" height="1" /><rect shape-rendering="crispEdges" fill="rgb(131, 115, 106)"  x="20" y="13" width="1" height="1" /><rect shape-rendering="crispEdges" fill="rgb(164, 156, 148)"  x="20" y="14" width="1" height="1" /><rect shape-rendering="crispEdges" fill="rgb(65, 57, 49)"  x="20" y="15" width="1" height="1" /><rect shape-rendering="crispEdges" fill="rgb(148, 139, 139)"  x="20" y="16" width="1" height="1" /><rect shape-rendering="crispEdges" fill="rgb(238, 230, 230)"  x="20" y="17" width="1" height="1" /><rect shape-rendering="crispEdges" fill="rgb(255, 246, 246)"  x="20" y="18" width="1" height="1" /><rect shape-rendering="crispEdges" fill="rgb(205, 197, 197)"  x="20" y="19" width="1" height="1" /><rect shape-rendering="crispEdges" fill="rgb(189, 172, 172)"  x="20" y="20" width="1" height="1" /><rect shape-rendering="crispEdges" fill="rgb(180, 180, 180)"  x="20" y="21" width="1" height="1" /><rect shape-rendering="crispEdges" fill="rgb(24, 41, 65)"  x="20" y="22" width="1" height="1" /><rect shape-rendering="crispEdges" fill="rgb(32, 49, 65)"  x="20" y="23" width="1" height="1" /><rect shape-rendering="crispEdges" fill="rgb(49, 65, 82)"  x="20" y="24" width="1" height="1" /><rect shape-rendering="crispEdges" fill="rgb(49, 65, 82)"  x="20" y="25" width="1" height="1" /><rect shape-rendering="crispEdges" fill="rgb(82, 98, 131)"  x="20" y="26" width="1" height="1" /><rect shape-rendering="crispEdges" fill="rgb(41, 41, 65)"  x="20" y="27" width="1" height="1" /><rect shape-rendering="crispEdges" fill="rgb(222, 238, 255)"  x="21" y="5" width="1" height="1" /><rect shape-rendering="crispEdges" fill="rgb(213, 205, 205)"  x="21" y="6" width="1" height="1" /><rect shape-rendering="crispEdges" fill="rgb(180, 164, 148)"  x="21" y="7" width="1" height="1" /><rect shape-rendering="crispEdges" fill="rgb(172, 180, 197)"  x="21" y="8" width="1" height="1" /><rect shape-rendering="crispEdges" fill="rgb(106, 106, 131)"  x="21" y="9" width="1" height="1" /><rect shape-rendering="crispEdges" fill="rgb(213, 230, 255)"  x="21" y="10" width="1" height="1" /><rect shape-rendering="crispEdges" fill="rgb(189, 197, 213)"  x="21" y="11" width="1" height="1" /><rect shape-rendering="crispEdges" fill="rgb(180, 189, 205)"  x="21" y="12" width="1" height="1" /><rect shape-rendering="crispEdges" fill="rgb(197, 189, 180)"  x="21" y="13" width="1" height="1" /><rect shape-rendering="crispEdges" fill="rgb(180, 172, 172)"  x="21" y="14" width="1" height="1" /><rect shape-rendering="crispEdges" fill="rgb(172, 156, 156)"  x="21" y="15" width="1" height="1" /><rect shape-rendering="crispEdges" fill="rgb(41, 32, 24)"  x="21" y="16" width="1" height="1" /><rect shape-rendering="crispEdges" fill="rgb(106, 90, 90)"  x="21" y="17" width="1" height="1" /><rect shape-rendering="crispEdges" fill="rgb(164, 156, 148)"  x="21" y="18" width="1" height="1" /><rect shape-rendering="crispEdges" fill="rgb(222, 213, 205)"  x="21" y="19" width="1" height="1" /><rect shape-rendering="crispEdges" fill="rgb(255, 238, 238)"  x="21" y="20" width="1" height="1" /><rect shape-rendering="crispEdges" fill="rgb(255, 255, 255)"  x="21" y="21" width="1" height="1" /><rect shape-rendering="crispEdges" fill="rgb(205, 205, 205)"  x="21" y="22" width="1" height="1" /><rect shape-rendering="crispEdges" fill="rgb(32, 49, 65)"  x="21" y="23" width="1" height="1" /><rect shape-rendering="crispEdges" fill="rgb(32, 49, 65)"  x="21" y="24" width="1" height="1" /><rect shape-rendering="crispEdges" fill="rgb(65, 82, 106)"  x="21" y="25" width="1" height="1" /><rect shape-rendering="crispEdges" fill="rgb(82, 106, 139)"  x="21" y="26" width="1" height="1" /><rect shape-rendering="crispEdges" fill="rgb(41, 41, 65)"  x="21" y="27" width="1" height="1" /><rect shape-rendering="crispEdges" fill="rgb(222, 213, 213)"  x="22" y="6" width="1" height="1" /><rect shape-rendering="crispEdges" fill="rgb(156, 139, 131)"  x="22" y="7" width="1" height="1" /><rect shape-rendering="crispEdges" fill="rgb(213, 205, 205)"  x="22" y="8" width="1" height="1" /><rect shape-rendering="crispEdges" fill="rgb(189, 205, 238)"  x="22" y="9" width="1" height="1" /><rect shape-rendering="crispEdges" fill="rgb(205, 205, 213)"  x="22" y="10" width="1" height="1" /><rect shape-rendering="crispEdges" fill="rgb(189, 180, 172)"  x="22" y="11" width="1" height="1" /><rect shape-rendering="crispEdges" fill="rgb(148, 131, 123)"  x="22" y="12" width="1" height="1" /><rect shape-rendering="crispEdges" fill="rgb(98, 82, 74)"  x="22" y="13" width="1" height="1" /><rect shape-rendering="crispEdges" fill="rgb(115, 90, 74)"  x="22" y="14" width="1" height="1" /><rect shape-rendering="crispEdges" fill="rgb(180, 164, 156)"  x="22" y="15" width="1" height="1" /><rect shape-rendering="crispEdges" fill="rgb(189, 180, 180)"  x="22" y="16" width="1" height="1" /><rect shape-rendering="crispEdges" fill="rgb(49, 41, 41)"  x="22" y="17" width="1" height="1" /><rect shape-rendering="crispEdges" fill="rgb(57, 49, 49)"  x="22" y="18" width="1" height="1" /><rect shape-rendering="crispEdges" fill="rgb(115, 106, 106)"  x="22" y="19" width="1" height="1" /><rect shape-rendering="crispEdges" fill="rgb(123, 131, 148)"  x="22" y="20" width="1" height="1" /><rect shape-rendering="crispEdges" fill="rgb(65, 82, 98)"  x="22" y="21" width="1" height="1" /><rect shape-rendering="crispEdges" fill="rgb(32, 49, 65)"  x="22" y="22" width="1" height="1" /><rect shape-rendering="crispEdges" fill="rgb(32, 49, 65)"  x="22" y="23" width="1" height="1" /><rect shape-rendering="crispEdges" fill="rgb(65, 82, 98)"  x="22" y="24" width="1" height="1" /><rect shape-rendering="crispEdges" fill="rgb(49, 65, 82)"  x="22" y="25" width="1" height="1" /><rect shape-rendering="crispEdges" fill="rgb(41, 41, 65)"  x="22" y="26" width="1" height="1" /><rect shape-rendering="crispEdges" fill="rgb(148, 139, 131)"  x="23" y="6" width="1" height="1" /><rect shape-rendering="crispEdges" fill="rgb(180, 164, 156)"  x="23" y="7" width="1" height="1" /><rect shape-rendering="crispEdges" fill="rgb(172, 156, 139)"  x="23" y="8" width="1" height="1" /><rect shape-rendering="crispEdges" fill="rgb(180, 156, 139)"  x="23" y="9" width="1" height="1" /><rect shape-rendering="crispEdges" fill="rgb(148, 131, 115)"  x="23" y="10" width="1" height="1" /><rect shape-rendering="crispEdges" fill="rgb(131, 106, 90)"  x="23" y="11" width="1" height="1" /><rect shape-rendering="crispEdges" fill="rgb(98, 82, 65)"  x="23" y="12" width="1" height="1" /><rect shape-rendering="crispEdges" fill="rgb(106, 106, 131)"  x="23" y="13" width="1" height="1" /><rect shape-rendering="crispEdges" fill="rgb(148, 172, 213)"  x="23" y="14" width="1" height="1" /><rect shape-rendering="crispEdges" fill="rgb(115, 90, 74)"  x="23" y="15" width="1" height="1" /><rect shape-rendering="crispEdges" fill="rgb(131, 115, 106)"  x="23" y="16" width="1" height="1" /><rect shape-rendering="crispEdges" fill="rgb(189, 180, 172)"  x="23" y="17" width="1" height="1" /><rect shape-rendering="crispEdges" fill="rgb(65, 74, 90)"  x="23" y="18" width="1" height="1" /><rect shape-rendering="crispEdges" fill="rgb(0, 0, 32)"  x="23" y="19" width="1" height="1" /><rect shape-rendering="crispEdges" fill="rgb(32, 41, 74)"  x="23" y="20" width="1" height="1" /><rect shape-rendering="crispEdges" fill="rgb(49, 74, 98)"  x="23" y="21" width="1" height="1" /><rect shape-rendering="crispEdges" fill="rgb(65, 90, 115)"  x="23" y="22" width="1" height="1" /><rect shape-rendering="crispEdges" fill="rgb(41, 41, 65)"  x="23" y="23" width="1" height="1" /><rect shape-rendering="crispEdges" fill="rgb(41, 41, 65)"  x="23" y="24" width="1" height="1" /><rect shape-rendering="crispEdges" fill="rgb(197, 180, 172)"  x="24" y="7" width="1" height="1" /><rect shape-rendering="crispEdges" fill="rgb(115, 98, 90)"  x="24" y="8" width="1" height="1" /><rect shape-rendering="crispEdges" fill="rgb(115, 98, 90)"  x="24" y="9" width="1" height="1" /><rect shape-rendering="crispEdges" fill="rgb(148, 131, 123)"  x="24" y="10" width="1" height="1" /><rect shape-rendering="crispEdges" fill="rgb(106, 106, 131)"  x="24" y="11" width="1" height="1" /><rect shape-rendering="crispEdges" fill="rgb(106, 106, 131)"  x="24" y="12" width="1" height="1" /><rect shape-rendering="crispEdges" fill="rgb(148, 172, 213)"  x="24" y="13" width="1" height="1" /><rect shape-rendering="crispEdges" fill="rgb(164, 205, 255)"  x="24" y="14" width="1" height="1" /><rect shape-rendering="crispEdges" fill="rgb(148, 156, 189)"  x="24" y="15" width="1" height="1" /><rect shape-rendering="crispEdges" fill="rgb(106, 82, 65)"  x="24" y="16" width="1" height="1" /><rect shape-rendering="crispEdges" fill="rgb(90, 74, 65)"  x="24" y="17" width="1" height="1" /><rect shape-rendering="crispEdges" fill="rgb(148, 131, 123)"  x="24" y="18" width="1" height="1" /><rect shape-rendering="crispEdges" fill="rgb(82, 82, 98)"  x="24" y="19" width="1" height="1" /><rect shape-rendering="crispEdges" fill="rgb(24, 41, 65)"  x="24" y="20" width="1" height="1" /><rect shape-rendering="crispEdges" fill="rgb(41, 57, 74)"  x="24" y="21" width="1" height="1" /><rect shape-rendering="crispEdges" fill="rgb(41, 41, 65)"  x="24" y="22" width="1" height="1" /><rect shape-rendering="crispEdges" fill="rgb(148, 189, 255)"  x="25" y="8" width="1" height="1" /><rect shape-rendering="crispEdges" fill="rgb(230, 238, 255)"  x="25" y="9" width="1" height="1" /><rect shape-rendering="crispEdges" fill="rgb(213, 230, 255)"  x="25" y="10" width="1" height="1" /><rect shape-rendering="crispEdges" fill="rgb(148, 172, 213)"  x="25" y="11" width="1" height="1" /><rect shape-rendering="crispEdges" fill="rgb(148, 172, 213)"  x="25" y="12" width="1" height="1" /><rect shape-rendering="crispEdges" fill="rgb(148, 172, 213)"  x="25" y="13" width="1" height="1" /><rect shape-rendering="crispEdges" fill="rgb(205, 205, 213)"  x="25" y="14" width="1" height="1" /><rect shape-rendering="crispEdges" fill="rgb(222, 238, 255)"  x="25" y="15" width="1" height="1" /><rect shape-rendering="crispEdges" fill="rgb(205, 213, 230)"  x="25" y="16" width="1" height="1" /><rect shape-rendering="crispEdges" fill="rgb(106, 106, 131)"  x="25" y="17" width="1" height="1" /><rect shape-rendering="crispEdges" fill="rgb(90, 74, 57)"  x="25" y="18" width="1" height="1" /><rect shape-rendering="crispEdges" fill="rgb(139, 115, 106)"  x="25" y="19" width="1" height="1" /><rect shape-rendering="crispEdges" fill="rgb(164, 156, 148)"  x="25" y="20" width="1" height="1" /><rect shape-rendering="crispEdges" fill="rgb(255, 255, 255)"  x="26" y="9" width="1" height="1" /><rect shape-rendering="crispEdges" fill="rgb(222, 230, 230)"  x="26" y="10" width="1" height="1" /><rect shape-rendering="crispEdges" fill="rgb(205, 205, 205)"  x="26" y="11" width="1" height="1" /><rect shape-rendering="crispEdges" fill="rgb(197, 197, 205)"  x="26" y="12" width="1" height="1" /><rect shape-rendering="crispEdges" fill="rgb(180, 189, 205)"  x="26" y="13" width="1" height="1" /><rect shape-rendering="crispEdges" fill="rgb(156, 172, 189)"  x="26" y="14" width="1" height="1" /><rect shape-rendering="crispEdges" fill="rgb(164, 180, 197)"  x="26" y="15" width="1" height="1" /><rect shape-rendering="crispEdges" fill="rgb(205, 213, 230)"  x="26" y="16" width="1" height="1" /><rect shape-rendering="crispEdges" fill="rgb(106, 106, 131)"  x="26" y="17" width="1" height="1" /><rect shape-rendering="crispEdges" fill="rgb(98, 90, 98)"  x="26" y="18" width="1" height="1" /><rect shape-rendering="crispEdges" fill="rgb(106, 74, 57)"  x="26" y="19" width="1" height="1" /><rect shape-rendering="crispEdges" fill="rgb(197, 213, 238)"  x="27" y="10" width="1" height="1" /><rect shape-rendering="crispEdges" fill="rgb(156, 180, 213)"  x="27" y="11" width="1" height="1" /><rect shape-rendering="crispEdges" fill="rgb(139, 172, 213)"  x="27" y="12" width="1" height="1" /><rect shape-rendering="crispEdges" fill="rgb(148, 172, 213)"  x="27" y="13" width="1" height="1" /><rect shape-rendering="crispEdges" fill="rgb(106, 139, 189)"  x="27" y="14" width="1" height="1" /><rect shape-rendering="crispEdges" fill="rgb(189, 205, 222)"  x="27" y="15" width="1" height="1" /><rect shape-rendering="crispEdges" fill="rgb(164, 172, 189)"  x="27" y="16" width="1" height="1" /><rect shape-rendering="crispEdges" fill="rgb(106, 106, 131)"  x="27" y="17" width="1" height="1" /><rect shape-rendering="crispEdges" fill="rgb(131, 156, 197)"  x="27" y="18" width="1" height="1" /><rect shape-rendering="crispEdges" fill="rgb(213, 255, 255)"  x="28" y="11" width="1" height="1" /><rect shape-rendering="crispEdges" fill="rgb(180, 222, 255)"  x="28" y="12" width="1" height="1" /><rect shape-rendering="crispEdges" fill="rgb(180, 213, 255)"  x="28" y="13" width="1" height="1" /><rect shape-rendering="crispEdges" fill="rgb(115, 139, 180)"  x="28" y="14" width="1" height="1" /><rect shape-rendering="crispEdges" fill="rgb(205, 213, 222)"  x="28" y="15" width="1" height="1" /><rect shape-rendering="crispEdges" fill="rgb(139, 148, 172)"  x="28" y="16" width="1" height="1" /><rect shape-rendering="crispEdges" fill="rgb(131, 156, 197)"  x="28" y="17" width="1" height="1" /><rect shape-rendering="crispEdges" fill="rgb(180, 213, 255)"  x="29" y="12" width="1" height="1" /><rect shape-rendering="crispEdges" fill="rgb(148, 172, 213)"  x="29" y="13" width="1" height="1" /><rect shape-rendering="crispEdges" fill="rgb(123, 139, 180)"  x="29" y="14" width="1" height="1" /><rect shape-rendering="crispEdges" fill="rgb(213, 213, 222)"  x="29" y="15" width="1" height="1" /><rect shape-rendering="crispEdges" fill="rgb(123, 139, 172)"  x="29" y="16" width="1" height="1" /><rect shape-rendering="crispEdges" fill="rgb(180, 213, 255)"  x="29" y="17" width="1" height="1" /><rect shape-rendering="crispEdges" fill="rgb(123, 139, 180)"  x="30" y="13" width="1" height="1" /><rect shape-rendering="crispEdges" fill="rgb(123, 139, 180)"  x="30" y="14" width="1" height="1" /><rect shape-rendering="crispEdges" fill="rgb(238, 238, 246)"  x="30" y="15" width="1" height="1" /><rect shape-rendering="crispEdges" fill="rgb(131, 156, 205)"  x="30" y="16" width="1" height="1" /></svg>