<svg xmlns="http://www.w3.org/2000/svg" xmlns:xlink= "http://www.w3.org/1999/xlink" width="32" height="32" viewBox ="0 0 32 32"><rect shape-rendering="crispEdges" fill="rgb(197, 189, 197)"  x="2" y="13" width="1" height="1" /><rect shape-rendering="crispEdges" fill="rgb(189, 172, 180)"  x="2" y="14" width="1" height="1" /><rect shape-rendering="crispEdges" fill="rgb(189, 172, 180)"  x="2" y="15" width="1" height="1" /><rect shape-rendering="crispEdges" fill="rgb(148, 123, 115)"  x="2" y="16" width="1" height="1" /><rect shape-rendering="crispEdges" fill="rgb(156, 106, 98)"  x="2" y="17" width="1" height="1" /><rect shape-rendering="crispEdges" fill="rgb(180, 139, 115)"  x="2" y="18" width="1" height="1" /><rect shape-rendering="crispEdges" fill="rgb(156, 106, 98)"  x="2" y="19" width="1" height="1" /><rect shape-rendering="crispEdges" fill="rgb(197, 189, 197)"  x="3" y="12" width="1" height="1" /><rect shape-rendering="crispEdges" fill="rgb(246, 238, 246)"  x="3" y="13" width="1" height="1" /><rect shape-rendering="crispEdges" fill="rgb(255, 246, 246)"  x="3" y="14" width="1" height="1" /><rect shape-rendering="crispEdges" fill="rgb(246, 230, 230)"  x="3" y="15" width="1" height="1" /><rect shape-rendering="crispEdges" fill="rgb(148, 123, 156)"  x="3" y="16" width="1" height="1" /><rect shape-rendering="crispEdges" fill="rgb(172, 131, 115)"  x="3" y="17" width="1" height="1" /><rect shape-rendering="crispEdges" fill="rgb(230, 205, 164)"  x="3" y="18" width="1" height="1" /><rect shape-rendering="crispEdges" fill="rgb(156, 106, 98)"  x="3" y="19" width="1" height="1" /><rect shape-rendering="crispEdges" fill="rgb(197, 189, 197)"  x="4" y="12" width="1" height="1" /><rect shape-rendering="crispEdges" fill="rgb(246, 238, 238)"  x="4" y="13" width="1" height="1" /><rect shape-rendering="crispEdges" fill="rgb(246, 238, 238)"  x="4" y="14" width="1" height="1" /><rect shape-rendering="crispEdges" fill="rgb(222, 205, 213)"  x="4" y="15" width="1" height="1" /><rect shape-rendering="crispEdges" fill="rgb(156, 131, 164)"  x="4" y="16" width="1" height="1" /><rect shape-rendering="crispEdges" fill="rgb(131, 98, 98)"  x="4" y="17" width="1" height="1" /><rect shape-rendering="crispEdges" fill="rgb(213, 197, 156)"  x="4" y="18" width="1" height="1" /><rect shape-rendering="crispEdges" fill="rgb(156, 106, 98)"  x="4" y="19" width="1" height="1" /><rect shape-rendering="crispEdges" fill="rgb(172, 156, 180)"  x="5" y="12" width="1" height="1" /><rect shape-rendering="crispEdges" fill="rgb(238, 230, 238)"  x="5" y="13" width="1" height="1" /><rect shape-rendering="crispEdges" fill="rgb(230, 222, 230)"  x="5" y="14" width="1" height="1" /><rect shape-rendering="crispEdges" fill="rgb(205, 189, 197)"  x="5" y="15" width="1" height="1" /><rect shape-rendering="crispEdges" fill="rgb(139, 115, 148)"  x="5" y="16" width="1" height="1" /><rect shape-rendering="crispEdges" fill="rgb(139, 98, 90)"  x="5" y="17" width="1" height="1" /><rect shape-rendering="crispEdges" fill="rgb(205, 172, 139)"  x="5" y="18" width="1" height="1" /><rect shape-rendering="crispEdges" fill="rgb(156, 106, 98)"  x="5" y="19" width="1" height="1" /><rect shape-rendering="crispEdges" fill="rgb(148, 115, 123)"  x="6" y="12" width="1" height="1" /><rect shape-rendering="crispEdges" fill="rgb(189, 172, 197)"  x="6" y="13" width="1" height="1" /><rect shape-rendering="crispEdges" fill="rgb(213, 197, 213)"  x="6" y="14" width="1" height="1" /><rect shape-rendering="crispEdges" fill="rgb(164, 148, 172)"  x="6" y="15" width="1" height="1" /><rect shape-rendering="crispEdges" fill="rgb(115, 82, 115)"  x="6" y="16" width="1" height="1" /><rect shape-rendering="crispEdges" fill="rgb(131, 90, 90)"  x="6" y="17" width="1" height="1" /><rect shape-rendering="crispEdges" fill="rgb(139, 98, 90)"  x="6" y="18" width="1" height="1" /><rect shape-rendering="crispEdges" fill="rgb(156, 106, 98)"  x="6" y="19" width="1" height="1" /><rect shape-rendering="crispEdges" fill="rgb(115, 82, 74)"  x="7" y="11" width="1" height="1" /><rect shape-rendering="crispEdges" fill="rgb(230, 213, 180)"  x="7" y="12" width="1" height="1" /><rect shape-rendering="crispEdges" fill="rgb(189, 164, 148)"  x="7" y="13" width="1" height="1" /><rect shape-rendering="crispEdges" fill="rgb(156, 139, 156)"  x="7" y="14" width="1" height="1" /><rect shape-rendering="crispEdges" fill="rgb(156, 131, 139)"  x="7" y="15" width="1" height="1" /><rect shape-rendering="crispEdges" fill="rgb(115, 74, 74)"  x="7" y="16" width="1" height="1" /><rect shape-rendering="crispEdges" fill="rgb(139, 98, 98)"  x="7" y="17" width="1" height="1" /><rect shape-rendering="crispEdges" fill="rgb(139, 98, 90)"  x="7" y="18" width="1" height="1" /><rect shape-rendering="crispEdges" fill="rgb(156, 106, 98)"  x="7" y="19" width="1" height="1" /><rect shape-rendering="crispEdges" fill="rgb(148, 106, 98)"  x="8" y="11" width="1" height="1" /><rect shape-rendering="crispEdges" fill="rgb(246, 238, 180)"  x="8" y="12" width="1" height="1" /><rect shape-rendering="crispEdges" fill="rgb(213, 189, 156)"  x="8" y="13" width="1" height="1" /><rect shape-rendering="crispEdges" fill="rgb(197, 148, 131)"  x="8" y="14" width="1" height="1" /><rect shape-rendering="crispEdges" fill="rgb(172, 123, 106)"  x="8" y="15" width="1" height="1" /><rect shape-rendering="crispEdges" fill="rgb(115, 82, 74)"  x="8" y="16" width="1" height="1" /><rect shape-rendering="crispEdges" fill="rgb(180, 139, 123)"  x="8" y="17" width="1" height="1" /><rect shape-rendering="crispEdges" fill="rgb(131, 98, 82)"  x="8" y="18" width="1" height="1" /><rect shape-rendering="crispEdges" fill="rgb(156, 106, 98)"  x="8" y="19" width="1" height="1" /><rect shape-rendering="crispEdges" fill="rgb(123, 90, 74)"  x="9" y="4" width="1" height="1" /><rect shape-rendering="crispEdges" fill="rgb(123, 90, 74)"  x="9" y="5" width="1" height="1" /><rect shape-rendering="crispEdges" fill="rgb(123, 90, 74)"  x="9" y="6" width="1" height="1" /><rect shape-rendering="crispEdges" fill="rgb(65, 32, 49)"  x="9" y="9" width="1" height="1" /><rect shape-rendering="crispEdges" fill="rgb(82, 49, 74)"  x="9" y="10" width="1" height="1" /><rect shape-rendering="crispEdges" fill="rgb(230, 213, 164)"  x="9" y="11" width="1" height="1" /><rect shape-rendering="crispEdges" fill="rgb(222, 189, 156)"  x="9" y="12" width="1" height="1" /><rect shape-rendering="crispEdges" fill="rgb(205, 164, 148)"  x="9" y="13" width="1" height="1" /><rect shape-rendering="crispEdges" fill="rgb(180, 139, 131)"  x="9" y="14" width="1" height="1" /><rect shape-rendering="crispEdges" fill="rgb(156, 115, 106)"  x="9" y="15" width="1" height="1" /><rect shape-rendering="crispEdges" fill="rgb(115, 82, 74)"  x="9" y="16" width="1" height="1" /><rect shape-rendering="crispEdges" fill="rgb(164, 123, 106)"  x="9" y="17" width="1" height="1" /><rect shape-rendering="crispEdges" fill="rgb(123, 90, 74)"  x="9" y="18" width="1" height="1" /><rect shape-rendering="crispEdges" fill="rgb(156, 106, 98)"  x="9" y="19" width="1" height="1" /><rect shape-rendering="crispEdges" fill="rgb(131, 98, 90)"  x="10" y="3" width="1" height="1" /><rect shape-rendering="crispEdges" fill="rgb(106, 57, 74)"  x="10" y="4" width="1" height="1" /><rect shape-rendering="crispEdges" fill="rgb(213, 180, 139)"  x="10" y="5" width="1" height="1" /><rect shape-rendering="crispEdges" fill="rgb(230, 197, 164)"  x="10" y="6" width="1" height="1" /><rect shape-rendering="crispEdges" fill="rgb(82, 49, 74)"  x="10" y="7" width="1" height="1" /><rect shape-rendering="crispEdges" fill="rgb(65, 32, 49)"  x="10" y="8" width="1" height="1" /><rect shape-rendering="crispEdges" fill="rgb(164, 65, 123)"  x="10" y="9" width="1" height="1" /><rect shape-rendering="crispEdges" fill="rgb(156, 49, 115)"  x="10" y="10" width="1" height="1" /><rect shape-rendering="crispEdges" fill="rgb(180, 148, 131)"  x="10" y="11" width="1" height="1" /><rect shape-rendering="crispEdges" fill="rgb(164, 123, 123)"  x="10" y="12" width="1" height="1" /><rect shape-rendering="crispEdges" fill="rgb(148, 106, 115)"  x="10" y="13" width="1" height="1" /><rect shape-rendering="crispEdges" fill="rgb(156, 115, 106)"  x="10" y="14" width="1" height="1" /><rect shape-rendering="crispEdges" fill="rgb(148, 98, 98)"  x="10" y="15" width="1" height="1" /><rect shape-rendering="crispEdges" fill="rgb(123, 90, 82)"  x="10" y="16" width="1" height="1" /><rect shape-rendering="crispEdges" fill="rgb(139, 98, 90)"  x="10" y="17" width="1" height="1" /><rect shape-rendering="crispEdges" fill="rgb(156, 106, 98)"  x="10" y="18" width="1" height="1" /><rect shape-rendering="crispEdges" fill="rgb(148, 106, 106)"  x="11" y="2" width="1" height="1" /><rect shape-rendering="crispEdges" fill="rgb(139, 98, 90)"  x="11" y="3" width="1" height="1" /><rect shape-rendering="crispEdges" fill="rgb(131, 90, 90)"  x="11" y="4" width="1" height="1" /><rect shape-rendering="crispEdges" fill="rgb(98, 49, 65)"  x="11" y="5" width="1" height="1" /><rect shape-rendering="crispEdges" fill="rgb(156, 123, 106)"  x="11" y="6" width="1" height="1" /><rect shape-rendering="crispEdges" fill="rgb(156, 106, 106)"  x="11" y="7" width="1" height="1" /><rect shape-rendering="crispEdges" fill="rgb(98, 57, 74)"  x="11" y="8" width="1" height="1" /><rect shape-rendering="crispEdges" fill="rgb(106, 41, 90)"  x="11" y="9" width="1" height="1" /><rect shape-rendering="crispEdges" fill="rgb(98, 49, 82)"  x="11" y="10" width="1" height="1" /><rect shape-rendering="crispEdges" fill="rgb(115, 74, 82)"  x="11" y="11" width="1" height="1" /><rect shape-rendering="crispEdges" fill="rgb(115, 74, 82)"  x="11" y="12" width="1" height="1" /><rect shape-rendering="crispEdges" fill="rgb(123, 74, 82)"  x="11" y="13" width="1" height="1" /><rect shape-rendering="crispEdges" fill="rgb(115, 74, 82)"  x="11" y="14" width="1" height="1" /><rect shape-rendering="crispEdges" fill="rgb(106, 65, 74)"  x="11" y="15" width="1" height="1" /><rect shape-rendering="crispEdges" fill="rgb(115, 74, 82)"  x="11" y="16" width="1" height="1" /><rect shape-rendering="crispEdges" fill="rgb(123, 82, 82)"  x="11" y="17" width="1" height="1" /><rect shape-rendering="crispEdges" fill="rgb(156, 106, 98)"  x="11" y="18" width="1" height="1" /><rect shape-rendering="crispEdges" fill="rgb(148, 106, 106)"  x="12" y="2" width="1" height="1" /><rect shape-rendering="crispEdges" fill="rgb(205, 156, 139)"  x="12" y="3" width="1" height="1" /><rect shape-rendering="crispEdges" fill="rgb(164, 115, 106)"  x="12" y="4" width="1" height="1" /><rect shape-rendering="crispEdges" fill="rgb(106, 65, 74)"  x="12" y="5" width="1" height="1" /><rect shape-rendering="crispEdges" fill="rgb(123, 82, 82)"  x="12" y="6" width="1" height="1" /><rect shape-rendering="crispEdges" fill="rgb(115, 65, 82)"  x="12" y="7" width="1" height="1" /><rect shape-rendering="crispEdges" fill="rgb(98, 57, 65)"  x="12" y="8" width="1" height="1" /><rect shape-rendering="crispEdges" fill="rgb(74, 24, 65)"  x="12" y="9" width="1" height="1" /><rect shape-rendering="crispEdges" fill="rgb(98, 57, 74)"  x="12" y="10" width="1" height="1" /><rect shape-rendering="crispEdges" fill="rgb(98, 57, 65)"  x="12" y="11" width="1" height="1" /><rect shape-rendering="crispEdges" fill="rgb(98, 57, 65)"  x="12" y="12" width="1" height="1" /><rect shape-rendering="crispEdges" fill="rgb(98, 65, 74)"  x="12" y="13" width="1" height="1" /><rect shape-rendering="crispEdges" fill="rgb(98, 57, 74)"  x="12" y="14" width="1" height="1" /><rect shape-rendering="crispEdges" fill="rgb(82, 49, 57)"  x="12" y="15" width="1" height="1" /><rect shape-rendering="crispEdges" fill="rgb(106, 65, 74)"  x="12" y="16" width="1" height="1" /><rect shape-rendering="crispEdges" fill="rgb(123, 90, 82)"  x="12" y="17" width="1" height="1" /><rect shape-rendering="crispEdges" fill="rgb(106, 65, 82)"  x="13" y="6" width="1" height="1" /><rect shape-rendering="crispEdges" fill="rgb(98, 57, 65)"  x="13" y="7" width="1" height="1" /><rect shape-rendering="crispEdges" fill="rgb(90, 57, 65)"  x="13" y="8" width="1" height="1" /><rect shape-rendering="crispEdges" fill="rgb(65, 24, 65)"  x="13" y="9" width="1" height="1" /><rect shape-rendering="crispEdges" fill="rgb(98, 65, 74)"  x="13" y="10" width="1" height="1" /><rect shape-rendering="crispEdges" fill="rgb(98, 57, 65)"  x="13" y="11" width="1" height="1" /><rect shape-rendering="crispEdges" fill="rgb(98, 57, 74)"  x="13" y="12" width="1" height="1" /><rect shape-rendering="crispEdges" fill="rgb(98, 57, 65)"  x="13" y="13" width="1" height="1" /><rect shape-rendering="crispEdges" fill="rgb(106, 74, 74)"  x="13" y="14" width="1" height="1" /><rect shape-rendering="crispEdges" fill="rgb(74, 32, 49)"  x="13" y="15" width="1" height="1" /><rect shape-rendering="crispEdges" fill="rgb(123, 82, 90)"  x="13" y="16" width="1" height="1" /><rect shape-rendering="crispEdges" fill="rgb(131, 98, 82)"  x="13" y="17" width="1" height="1" /><rect shape-rendering="crispEdges" fill="rgb(148, 106, 106)"  x="14" y="2" width="1" height="1" /><rect shape-rendering="crispEdges" fill="rgb(156, 115, 115)"  x="14" y="3" width="1" height="1" /><rect shape-rendering="crispEdges" fill="rgb(172, 131, 123)"  x="14" y="4" width="1" height="1" /><rect shape-rendering="crispEdges" fill="rgb(106, 65, 82)"  x="14" y="5" width="1" height="1" /><rect shape-rendering="crispEdges" fill="rgb(189, 139, 123)"  x="14" y="6" width="1" height="1" /><rect shape-rendering="crispEdges" fill="rgb(98, 57, 74)"  x="14" y="7" width="1" height="1" /><rect shape-rendering="crispEdges" fill="rgb(90, 49, 65)"  x="14" y="8" width="1" height="1" /><rect shape-rendering="crispEdges" fill="rgb(115, 82, 82)"  x="14" y="9" width="1" height="1" /><rect shape-rendering="crispEdges" fill="rgb(106, 74, 74)"  x="14" y="10" width="1" height="1" /><rect shape-rendering="crispEdges" fill="rgb(106, 74, 74)"  x="14" y="11" width="1" height="1" /><rect shape-rendering="crispEdges" fill="rgb(106, 74, 74)"  x="14" y="12" width="1" height="1" /><rect shape-rendering="crispEdges" fill="rgb(115, 82, 82)"  x="14" y="13" width="1" height="1" /><rect shape-rendering="crispEdges" fill="rgb(65, 32, 57)"  x="14" y="14" width="1" height="1" /><rect shape-rendering="crispEdges" fill="rgb(82, 41, 74)"  x="14" y="15" width="1" height="1" /><rect shape-rendering="crispEdges" fill="rgb(82, 57, 49)"  x="14" y="16" width="1" height="1" /><rect shape-rendering="crispEdges" fill="rgb(148, 106, 106)"  x="15" y="2" width="1" height="1" /><rect shape-rendering="crispEdges" fill="rgb(156, 106, 98)"  x="15" y="3" width="1" height="1" /><rect shape-rendering="crispEdges" fill="rgb(106, 65, 74)"  x="15" y="4" width="1" height="1" /><rect shape-rendering="crispEdges" fill="rgb(131, 82, 82)"  x="15" y="5" width="1" height="1" /><rect shape-rendering="crispEdges" fill="rgb(139, 98, 98)"  x="15" y="6" width="1" height="1" /><rect shape-rendering="crispEdges" fill="rgb(106, 57, 98)"  x="15" y="7" width="1" height="1" /><rect shape-rendering="crispEdges" fill="rgb(115, 74, 82)"  x="15" y="8" width="1" height="1" /><rect shape-rendering="crispEdges" fill="rgb(82, 41, 57)"  x="15" y="9" width="1" height="1" /><rect shape-rendering="crispEdges" fill="rgb(65, 32, 41)"  x="15" y="10" width="1" height="1" /><rect shape-rendering="crispEdges" fill="rgb(74, 41, 57)"  x="15" y="11" width="1" height="1" /><rect shape-rendering="crispEdges" fill="rgb(74, 32, 57)"  x="15" y="12" width="1" height="1" /><rect shape-rendering="crispEdges" fill="rgb(74, 24, 65)"  x="15" y="13" width="1" height="1" /><rect shape-rendering="crispEdges" fill="rgb(74, 32, 57)"  x="15" y="14" width="1" height="1" /><rect shape-rendering="crispEdges" fill="rgb(82, 41, 65)"  x="15" y="15" width="1" height="1" /><rect shape-rendering="crispEdges" fill="rgb(115, 74, 74)"  x="15" y="16" width="1" height="1" /><rect shape-rendering="crispEdges" fill="rgb(164, 156, 164)"  x="15" y="24" width="1" height="1" /><rect shape-rendering="crispEdges" fill="rgb(156, 131, 156)"  x="15" y="25" width="1" height="1" /><rect shape-rendering="crispEdges" fill="rgb(90, 65, 74)"  x="15" y="26" width="1" height="1" /><rect shape-rendering="crispEdges" fill="rgb(156, 106, 98)"  x="15" y="27" width="1" height="1" /><rect shape-rendering="crispEdges" fill="rgb(156, 106, 98)"  x="15" y="28" width="1" height="1" /><rect shape-rendering="crispEdges" fill="rgb(148, 106, 106)"  x="16" y="2" width="1" height="1" /><rect shape-rendering="crispEdges" fill="rgb(156, 106, 90)"  x="16" y="3" width="1" height="1" /><rect shape-rendering="crispEdges" fill="rgb(189, 131, 115)"  x="16" y="4" width="1" height="1" /><rect shape-rendering="crispEdges" fill="rgb(180, 123, 115)"  x="16" y="5" width="1" height="1" /><rect shape-rendering="crispEdges" fill="rgb(172, 123, 115)"  x="16" y="6" width="1" height="1" /><rect shape-rendering="crispEdges" fill="rgb(115, 74, 82)"  x="16" y="7" width="1" height="1" /><rect shape-rendering="crispEdges" fill="rgb(82, 41, 57)"  x="16" y="8" width="1" height="1" /><rect shape-rendering="crispEdges" fill="rgb(65, 24, 57)"  x="16" y="9" width="1" height="1" /><rect shape-rendering="crispEdges" fill="rgb(74, 32, 57)"  x="16" y="10" width="1" height="1" /><rect shape-rendering="crispEdges" fill="rgb(90, 32, 65)"  x="16" y="11" width="1" height="1" /><rect shape-rendering="crispEdges" fill="rgb(98, 41, 74)"  x="16" y="12" width="1" height="1" /><rect shape-rendering="crispEdges" fill="rgb(98, 41, 74)"  x="16" y="13" width="1" height="1" /><rect shape-rendering="crispEdges" fill="rgb(74, 32, 65)"  x="16" y="14" width="1" height="1" /><rect shape-rendering="crispEdges" fill="rgb(98, 57, 74)"  x="16" y="15" width="1" height="1" /><rect shape-rendering="crispEdges" fill="rgb(123, 82, 82)"  x="16" y="16" width="1" height="1" /><rect shape-rendering="crispEdges" fill="rgb(189, 172, 180)"  x="16" y="23" width="1" height="1" /><rect shape-rendering="crispEdges" fill="rgb(246, 230, 238)"  x="16" y="24" width="1" height="1" /><rect shape-rendering="crispEdges" fill="rgb(230, 213, 222)"  x="16" y="25" width="1" height="1" /><rect shape-rendering="crispEdges" fill="rgb(123, 90, 131)"  x="16" y="26" width="1" height="1" /><rect shape-rendering="crispEdges" fill="rgb(189, 148, 123)"  x="16" y="27" width="1" height="1" /><rect shape-rendering="crispEdges" fill="rgb(180, 148, 123)"  x="16" y="28" width="1" height="1" /><rect shape-rendering="crispEdges" fill="rgb(156, 106, 98)"  x="16" y="29" width="1" height="1" /><rect shape-rendering="crispEdges" fill="rgb(148, 106, 106)"  x="17" y="2" width="1" height="1" /><rect shape-rendering="crispEdges" fill="rgb(205, 156, 139)"  x="17" y="3" width="1" height="1" /><rect shape-rendering="crispEdges" fill="rgb(213, 164, 131)"  x="17" y="4" width="1" height="1" /><rect shape-rendering="crispEdges" fill="rgb(238, 197, 156)"  x="17" y="5" width="1" height="1" /><rect shape-rendering="crispEdges" fill="rgb(123, 82, 82)"  x="17" y="6" width="1" height="1" /><rect shape-rendering="crispEdges" fill="rgb(156, 98, 106)"  x="17" y="7" width="1" height="1" /><rect shape-rendering="crispEdges" fill="rgb(98, 49, 74)"  x="17" y="8" width="1" height="1" /><rect shape-rendering="crispEdges" fill="rgb(106, 41, 90)"  x="17" y="9" width="1" height="1" /><rect shape-rendering="crispEdges" fill="rgb(106, 41, 82)"  x="17" y="10" width="1" height="1" /><rect shape-rendering="crispEdges" fill="rgb(115, 41, 82)"  x="17" y="11" width="1" height="1" /><rect shape-rendering="crispEdges" fill="rgb(106, 41, 82)"  x="17" y="12" width="1" height="1" /><rect shape-rendering="crispEdges" fill="rgb(106, 49, 82)"  x="17" y="13" width="1" height="1" /><rect shape-rendering="crispEdges" fill="rgb(98, 41, 82)"  x="17" y="14" width="1" height="1" /><rect shape-rendering="crispEdges" fill="rgb(148, 98, 98)"  x="17" y="15" width="1" height="1" /><rect shape-rendering="crispEdges" fill="rgb(74, 41, 57)"  x="17" y="16" width="1" height="1" /><rect shape-rendering="crispEdges" fill="rgb(197, 189, 197)"  x="17" y="22" width="1" height="1" /><rect shape-rendering="crispEdges" fill="rgb(246, 238, 246)"  x="17" y="23" width="1" height="1" /><rect shape-rendering="crispEdges" fill="rgb(255, 246, 238)"  x="17" y="24" width="1" height="1" /><rect shape-rendering="crispEdges" fill="rgb(255, 238, 238)"  x="17" y="25" width="1" height="1" /><rect shape-rendering="crispEdges" fill="rgb(222, 213, 222)"  x="17" y="26" width="1" height="1" /><rect shape-rendering="crispEdges" fill="rgb(115, 90, 106)"  x="17" y="27" width="1" height="1" /><rect shape-rendering="crispEdges" fill="rgb(230, 205, 164)"  x="17" y="28" width="1" height="1" /><rect shape-rendering="crispEdges" fill="rgb(246, 230, 180)"  x="17" y="29" width="1" height="1" /><rect shape-rendering="crispEdges" fill="rgb(180, 139, 115)"  x="17" y="30" width="1" height="1" /><rect shape-rendering="crispEdges" fill="rgb(148, 106, 106)"  x="18" y="3" width="1" height="1" /><rect shape-rendering="crispEdges" fill="rgb(238, 222, 172)"  x="18" y="4" width="1" height="1" /><rect shape-rendering="crispEdges" fill="rgb(189, 148, 123)"  x="18" y="5" width="1" height="1" /><rect shape-rendering="crispEdges" fill="rgb(123, 82, 82)"  x="18" y="6" width="1" height="1" /><rect shape-rendering="crispEdges" fill="rgb(74, 32, 57)"  x="18" y="7" width="1" height="1" /><rect shape-rendering="crispEdges" fill="rgb(74, 32, 57)"  x="18" y="8" width="1" height="1" /><rect shape-rendering="crispEdges" fill="rgb(74, 32, 57)"  x="18" y="9" width="1" height="1" /><rect shape-rendering="crispEdges" fill="rgb(74, 32, 57)"  x="18" y="10" width="1" height="1" /><rect shape-rendering="crispEdges" fill="rgb(74, 32, 57)"  x="18" y="11" width="1" height="1" /><rect shape-rendering="crispEdges" fill="rgb(74, 32, 57)"  x="18" y="12" width="1" height="1" /><rect shape-rendering="crispEdges" fill="rgb(74, 32, 57)"  x="18" y="13" width="1" height="1" /><rect shape-rendering="crispEdges" fill="rgb(74, 32, 57)"  x="18" y="14" width="1" height="1" /><rect shape-rendering="crispEdges" fill="rgb(74, 41, 57)"  x="18" y="15" width="1" height="1" /><rect shape-rendering="crispEdges" fill="rgb(148, 106, 98)"  x="18" y="20" width="1" height="1" /><rect shape-rendering="crispEdges" fill="rgb(148, 106, 98)"  x="18" y="21" width="1" height="1" /><rect shape-rendering="crispEdges" fill="rgb(222, 213, 230)"  x="18" y="22" width="1" height="1" /><rect shape-rendering="crispEdges" fill="rgb(246, 238, 238)"  x="18" y="23" width="1" height="1" /><rect shape-rendering="crispEdges" fill="rgb(255, 238, 238)"  x="18" y="24" width="1" height="1" /><rect shape-rendering="crispEdges" fill="rgb(255, 246, 246)"  x="18" y="25" width="1" height="1" /><rect shape-rendering="crispEdges" fill="rgb(246, 246, 246)"  x="18" y="26" width="1" height="1" /><rect shape-rendering="crispEdges" fill="rgb(148, 123, 164)"  x="18" y="27" width="1" height="1" /><rect shape-rendering="crispEdges" fill="rgb(213, 197, 156)"  x="18" y="28" width="1" height="1" /><rect shape-rendering="crispEdges" fill="rgb(238, 222, 180)"  x="18" y="29" width="1" height="1" /><rect shape-rendering="crispEdges" fill="rgb(180, 139, 115)"  x="18" y="30" width="1" height="1" /><rect shape-rendering="crispEdges" fill="rgb(148, 106, 106)"  x="19" y="4" width="1" height="1" /><rect shape-rendering="crispEdges" fill="rgb(148, 106, 106)"  x="19" y="5" width="1" height="1" /><rect shape-rendering="crispEdges" fill="rgb(123, 90, 74)"  x="19" y="8" width="1" height="1" /><rect shape-rendering="crispEdges" fill="rgb(106, 57, 74)"  x="19" y="9" width="1" height="1" /><rect shape-rendering="crispEdges" fill="rgb(106, 57, 74)"  x="19" y="10" width="1" height="1" /><rect shape-rendering="crispEdges" fill="rgb(106, 57, 74)"  x="19" y="11" width="1" height="1" /><rect shape-rendering="crispEdges" fill="rgb(148, 106, 98)"  x="19" y="18" width="1" height="1" /><rect shape-rendering="crispEdges" fill="rgb(148, 106, 98)"  x="19" y="19" width="1" height="1" /><rect shape-rendering="crispEdges" fill="rgb(230, 197, 164)"  x="19" y="20" width="1" height="1" /><rect shape-rendering="crispEdges" fill="rgb(172, 148, 139)"  x="19" y="21" width="1" height="1" /><rect shape-rendering="crispEdges" fill="rgb(222, 205, 222)"  x="19" y="22" width="1" height="1" /><rect shape-rendering="crispEdges" fill="rgb(246, 238, 238)"  x="19" y="23" width="1" height="1" /><rect shape-rendering="crispEdges" fill="rgb(246, 238, 238)"  x="19" y="24" width="1" height="1" /><rect shape-rendering="crispEdges" fill="rgb(246, 238, 238)"  x="19" y="25" width="1" height="1" /><rect shape-rendering="crispEdges" fill="rgb(255, 246, 246)"  x="19" y="26" width="1" height="1" /><rect shape-rendering="crispEdges" fill="rgb(197, 180, 205)"  x="19" y="27" width="1" height="1" /><rect shape-rendering="crispEdges" fill="rgb(164, 139, 131)"  x="19" y="28" width="1" height="1" /><rect shape-rendering="crispEdges" fill="rgb(246, 238, 189)"  x="19" y="29" width="1" height="1" /><rect shape-rendering="crispEdges" fill="rgb(180, 139, 115)"  x="19" y="30" width="1" height="1" /><rect shape-rendering="crispEdges" fill="rgb(123, 90, 74)"  x="20" y="8" width="1" height="1" /><rect shape-rendering="crispEdges" fill="rgb(205, 164, 139)"  x="20" y="9" width="1" height="1" /><rect shape-rendering="crispEdges" fill="rgb(164, 123, 106)"  x="20" y="10" width="1" height="1" /><rect shape-rendering="crispEdges" fill="rgb(123, 74, 90)"  x="20" y="11" width="1" height="1" /><rect shape-rendering="crispEdges" fill="rgb(82, 49, 57)"  x="20" y="12" width="1" height="1" /><rect shape-rendering="crispEdges" fill="rgb(57, 24, 41)"  x="20" y="13" width="1" height="1" /><rect shape-rendering="crispEdges" fill="rgb(57, 24, 49)"  x="20" y="14" width="1" height="1" /><rect shape-rendering="crispEdges" fill="rgb(123, 82, 90)"  x="20" y="15" width="1" height="1" /><rect shape-rendering="crispEdges" fill="rgb(139, 106, 98)"  x="20" y="16" width="1" height="1" /><rect shape-rendering="crispEdges" fill="rgb(148, 106, 106)"  x="20" y="17" width="1" height="1" /><rect shape-rendering="crispEdges" fill="rgb(156, 115, 115)"  x="20" y="18" width="1" height="1" /><rect shape-rendering="crispEdges" fill="rgb(213, 180, 156)"  x="20" y="19" width="1" height="1" /><rect shape-rendering="crispEdges" fill="rgb(222, 205, 164)"  x="20" y="20" width="1" height="1" /><rect shape-rendering="crispEdges" fill="rgb(180, 156, 139)"  x="20" y="21" width="1" height="1" /><rect shape-rendering="crispEdges" fill="rgb(213, 205, 222)"  x="20" y="22" width="1" height="1" /><rect shape-rendering="crispEdges" fill="rgb(246, 238, 238)"  x="20" y="23" width="1" height="1" /><rect shape-rendering="crispEdges" fill="rgb(246, 238, 238)"  x="20" y="24" width="1" height="1" /><rect shape-rendering="crispEdges" fill="rgb(246, 238, 238)"  x="20" y="25" width="1" height="1" /><rect shape-rendering="crispEdges" fill="rgb(255, 246, 246)"  x="20" y="26" width="1" height="1" /><rect shape-rendering="crispEdges" fill="rgb(213, 205, 222)"  x="20" y="27" width="1" height="1" /><rect shape-rendering="crispEdges" fill="rgb(115, 90, 106)"  x="20" y="28" width="1" height="1" /><rect shape-rendering="crispEdges" fill="rgb(238, 213, 164)"  x="20" y="29" width="1" height="1" /><rect shape-rendering="crispEdges" fill="rgb(180, 139, 115)"  x="20" y="30" width="1" height="1" /><rect shape-rendering="crispEdges" fill="rgb(123, 90, 74)"  x="21" y="6" width="1" height="1" /><rect shape-rendering="crispEdges" fill="rgb(123, 90, 74)"  x="21" y="7" width="1" height="1" /><rect shape-rendering="crispEdges" fill="rgb(115, 82, 74)"  x="21" y="8" width="1" height="1" /><rect shape-rendering="crispEdges" fill="rgb(98, 57, 65)"  x="21" y="9" width="1" height="1" /><rect shape-rendering="crispEdges" fill="rgb(238, 222, 164)"  x="21" y="10" width="1" height="1" /><rect shape-rendering="crispEdges" fill="rgb(213, 180, 148)"  x="21" y="11" width="1" height="1" /><rect shape-rendering="crispEdges" fill="rgb(148, 98, 106)"  x="21" y="12" width="1" height="1" /><rect shape-rendering="crispEdges" fill="rgb(82, 32, 57)"  x="21" y="13" width="1" height="1" /><rect shape-rendering="crispEdges" fill="rgb(98, 41, 82)"  x="21" y="14" width="1" height="1" /><rect shape-rendering="crispEdges" fill="rgb(115, 49, 90)"  x="21" y="15" width="1" height="1" /><rect shape-rendering="crispEdges" fill="rgb(131, 57, 98)"  x="21" y="16" width="1" height="1" /><rect shape-rendering="crispEdges" fill="rgb(164, 131, 123)"  x="21" y="17" width="1" height="1" /><rect shape-rendering="crispEdges" fill="rgb(189, 164, 139)"  x="21" y="18" width="1" height="1" /><rect shape-rendering="crispEdges" fill="rgb(246, 222, 172)"  x="21" y="19" width="1" height="1" /><rect shape-rendering="crispEdges" fill="rgb(213, 197, 164)"  x="21" y="20" width="1" height="1" /><rect shape-rendering="crispEdges" fill="rgb(197, 180, 148)"  x="21" y="21" width="1" height="1" /><rect shape-rendering="crispEdges" fill="rgb(189, 180, 197)"  x="21" y="22" width="1" height="1" /><rect shape-rendering="crispEdges" fill="rgb(246, 238, 238)"  x="21" y="23" width="1" height="1" /><rect shape-rendering="crispEdges" fill="rgb(246, 238, 238)"  x="21" y="24" width="1" height="1" /><rect shape-rendering="crispEdges" fill="rgb(246, 238, 238)"  x="21" y="25" width="1" height="1" /><rect shape-rendering="crispEdges" fill="rgb(255, 238, 238)"  x="21" y="26" width="1" height="1" /><rect shape-rendering="crispEdges" fill="rgb(213, 197, 213)"  x="21" y="27" width="1" height="1" /><rect shape-rendering="crispEdges" fill="rgb(106, 82, 106)"  x="21" y="28" width="1" height="1" /><rect shape-rendering="crispEdges" fill="rgb(205, 172, 139)"  x="21" y="29" width="1" height="1" /><rect shape-rendering="crispEdges" fill="rgb(180, 139, 115)"  x="21" y="30" width="1" height="1" /><rect shape-rendering="crispEdges" fill="rgb(148, 106, 90)"  x="22" y="6" width="1" height="1" /><rect shape-rendering="crispEdges" fill="rgb(197, 139, 123)"  x="22" y="7" width="1" height="1" /><rect shape-rendering="crispEdges" fill="rgb(139, 90, 98)"  x="22" y="8" width="1" height="1" /><rect shape-rendering="crispEdges" fill="rgb(115, 65, 82)"  x="22" y="9" width="1" height="1" /><rect shape-rendering="crispEdges" fill="rgb(238, 222, 172)"  x="22" y="10" width="1" height="1" /><rect shape-rendering="crispEdges" fill="rgb(255, 238, 189)"  x="22" y="11" width="1" height="1" /><rect shape-rendering="crispEdges" fill="rgb(238, 222, 172)"  x="22" y="12" width="1" height="1" /><rect shape-rendering="crispEdges" fill="rgb(213, 189, 148)"  x="22" y="13" width="1" height="1" /><rect shape-rendering="crispEdges" fill="rgb(90, 41, 74)"  x="22" y="14" width="1" height="1" /><rect shape-rendering="crispEdges" fill="rgb(164, 65, 123)"  x="22" y="15" width="1" height="1" /><rect shape-rendering="crispEdges" fill="rgb(172, 65, 115)"  x="22" y="16" width="1" height="1" /><rect shape-rendering="crispEdges" fill="rgb(148, 49, 115)"  x="22" y="17" width="1" height="1" /><rect shape-rendering="crispEdges" fill="rgb(205, 189, 156)"  x="22" y="18" width="1" height="1" /><rect shape-rendering="crispEdges" fill="rgb(230, 222, 164)"  x="22" y="19" width="1" height="1" /><rect shape-rendering="crispEdges" fill="rgb(230, 213, 164)"  x="22" y="20" width="1" height="1" /><rect shape-rendering="crispEdges" fill="rgb(222, 205, 172)"  x="22" y="21" width="1" height="1" /><rect shape-rendering="crispEdges" fill="rgb(156, 131, 148)"  x="22" y="22" width="1" height="1" /><rect shape-rendering="crispEdges" fill="rgb(230, 222, 230)"  x="22" y="23" width="1" height="1" /><rect shape-rendering="crispEdges" fill="rgb(238, 230, 238)"  x="22" y="24" width="1" height="1" /><rect shape-rendering="crispEdges" fill="rgb(246, 238, 238)"  x="22" y="25" width="1" height="1" /><rect shape-rendering="crispEdges" fill="rgb(246, 238, 238)"  x="22" y="26" width="1" height="1" /><rect shape-rendering="crispEdges" fill="rgb(205, 189, 205)"  x="22" y="27" width="1" height="1" /><rect shape-rendering="crispEdges" fill="rgb(106, 74, 106)"  x="22" y="28" width="1" height="1" /><rect shape-rendering="crispEdges" fill="rgb(180, 139, 115)"  x="22" y="29" width="1" height="1" /><rect shape-rendering="crispEdges" fill="rgb(156, 106, 98)"  x="22" y="30" width="1" height="1" /><rect shape-rendering="crispEdges" fill="rgb(148, 106, 90)"  x="23" y="6" width="1" height="1" /><rect shape-rendering="crispEdges" fill="rgb(197, 139, 123)"  x="23" y="7" width="1" height="1" /><rect shape-rendering="crispEdges" fill="rgb(180, 131, 115)"  x="23" y="8" width="1" height="1" /><rect shape-rendering="crispEdges" fill="rgb(180, 115, 106)"  x="23" y="9" width="1" height="1" /><rect shape-rendering="crispEdges" fill="rgb(222, 197, 156)"  x="23" y="10" width="1" height="1" /><rect shape-rendering="crispEdges" fill="rgb(230, 205, 164)"  x="23" y="11" width="1" height="1" /><rect shape-rendering="crispEdges" fill="rgb(205, 172, 139)"  x="23" y="12" width="1" height="1" /><rect shape-rendering="crispEdges" fill="rgb(205, 164, 139)"  x="23" y="13" width="1" height="1" /><rect shape-rendering="crispEdges" fill="rgb(106, 57, 74)"  x="23" y="14" width="1" height="1" /><rect shape-rendering="crispEdges" fill="rgb(156, 65, 115)"  x="23" y="15" width="1" height="1" /><rect shape-rendering="crispEdges" fill="rgb(164, 65, 115)"  x="23" y="16" width="1" height="1" /><rect shape-rendering="crispEdges" fill="rgb(148, 49, 106)"  x="23" y="17" width="1" height="1" /><rect shape-rendering="crispEdges" fill="rgb(197, 180, 148)"  x="23" y="18" width="1" height="1" /><rect shape-rendering="crispEdges" fill="rgb(222, 197, 156)"  x="23" y="19" width="1" height="1" /><rect shape-rendering="crispEdges" fill="rgb(246, 238, 180)"  x="23" y="20" width="1" height="1" /><rect shape-rendering="crispEdges" fill="rgb(205, 180, 148)"  x="23" y="21" width="1" height="1" /><rect shape-rendering="crispEdges" fill="rgb(180, 156, 139)"  x="23" y="22" width="1" height="1" /><rect shape-rendering="crispEdges" fill="rgb(189, 180, 197)"  x="23" y="23" width="1" height="1" /><rect shape-rendering="crispEdges" fill="rgb(238, 230, 238)"  x="23" y="24" width="1" height="1" /><rect shape-rendering="crispEdges" fill="rgb(238, 230, 238)"  x="23" y="25" width="1" height="1" /><rect shape-rendering="crispEdges" fill="rgb(222, 213, 222)"  x="23" y="26" width="1" height="1" /><rect shape-rendering="crispEdges" fill="rgb(189, 172, 189)"  x="23" y="27" width="1" height="1" /><rect shape-rendering="crispEdges" fill="rgb(123, 90, 106)"  x="23" y="28" width="1" height="1" /><rect shape-rendering="crispEdges" fill="rgb(180, 131, 115)"  x="23" y="29" width="1" height="1" /><rect shape-rendering="crispEdges" fill="rgb(156, 106, 98)"  x="23" y="30" width="1" height="1" /><rect shape-rendering="crispEdges" fill="rgb(172, 131, 106)"  x="24" y="6" width="1" height="1" /><rect shape-rendering="crispEdges" fill="rgb(230, 180, 148)"  x="24" y="7" width="1" height="1" /><rect shape-rendering="crispEdges" fill="rgb(222, 172, 139)"  x="24" y="8" width="1" height="1" /><rect shape-rendering="crispEdges" fill="rgb(238, 180, 148)"  x="24" y="9" width="1" height="1" /><rect shape-rendering="crispEdges" fill="rgb(156, 115, 106)"  x="24" y="10" width="1" height="1" /><rect shape-rendering="crispEdges" fill="rgb(172, 131, 123)"  x="24" y="11" width="1" height="1" /><rect shape-rendering="crispEdges" fill="rgb(148, 106, 106)"  x="24" y="12" width="1" height="1" /><rect shape-rendering="crispEdges" fill="rgb(123, 74, 82)"  x="24" y="13" width="1" height="1" /><rect shape-rendering="crispEdges" fill="rgb(74, 32, 65)"  x="24" y="14" width="1" height="1" /><rect shape-rendering="crispEdges" fill="rgb(115, 49, 90)"  x="24" y="15" width="1" height="1" /><rect shape-rendering="crispEdges" fill="rgb(115, 41, 90)"  x="24" y="16" width="1" height="1" /><rect shape-rendering="crispEdges" fill="rgb(139, 106, 106)"  x="24" y="17" width="1" height="1" /><rect shape-rendering="crispEdges" fill="rgb(172, 131, 123)"  x="24" y="18" width="1" height="1" /><rect shape-rendering="crispEdges" fill="rgb(180, 139, 131)"  x="24" y="19" width="1" height="1" /><rect shape-rendering="crispEdges" fill="rgb(205, 172, 148)"  x="24" y="20" width="1" height="1" /><rect shape-rendering="crispEdges" fill="rgb(230, 197, 156)"  x="24" y="21" width="1" height="1" /><rect shape-rendering="crispEdges" fill="rgb(205, 172, 148)"  x="24" y="22" width="1" height="1" /><rect shape-rendering="crispEdges" fill="rgb(164, 139, 148)"  x="24" y="23" width="1" height="1" /><rect shape-rendering="crispEdges" fill="rgb(197, 180, 189)"  x="24" y="24" width="1" height="1" /><rect shape-rendering="crispEdges" fill="rgb(180, 156, 172)"  x="24" y="25" width="1" height="1" /><rect shape-rendering="crispEdges" fill="rgb(148, 115, 148)"  x="24" y="26" width="1" height="1" /><rect shape-rendering="crispEdges" fill="rgb(123, 82, 98)"  x="24" y="27" width="1" height="1" /><rect shape-rendering="crispEdges" fill="rgb(164, 115, 106)"  x="24" y="28" width="1" height="1" /><rect shape-rendering="crispEdges" fill="rgb(156, 106, 98)"  x="24" y="29" width="1" height="1" /><rect shape-rendering="crispEdges" fill="rgb(189, 164, 139)"  x="25" y="6" width="1" height="1" /><rect shape-rendering="crispEdges" fill="rgb(255, 238, 180)"  x="25" y="7" width="1" height="1" /><rect shape-rendering="crispEdges" fill="rgb(255, 238, 180)"  x="25" y="8" width="1" height="1" /><rect shape-rendering="crispEdges" fill="rgb(255, 238, 189)"  x="25" y="9" width="1" height="1" /><rect shape-rendering="crispEdges" fill="rgb(106, 65, 74)"  x="25" y="10" width="1" height="1" /><rect shape-rendering="crispEdges" fill="rgb(123, 82, 90)"  x="25" y="11" width="1" height="1" /><rect shape-rendering="crispEdges" fill="rgb(106, 65, 74)"  x="25" y="12" width="1" height="1" /><rect shape-rendering="crispEdges" fill="rgb(98, 57, 74)"  x="25" y="13" width="1" height="1" /><rect shape-rendering="crispEdges" fill="rgb(65, 24, 57)"  x="25" y="14" width="1" height="1" /><rect shape-rendering="crispEdges" fill="rgb(82, 32, 74)"  x="25" y="15" width="1" height="1" /><rect shape-rendering="crispEdges" fill="rgb(106, 74, 82)"  x="25" y="16" width="1" height="1" /><rect shape-rendering="crispEdges" fill="rgb(106, 65, 74)"  x="25" y="17" width="1" height="1" /><rect shape-rendering="crispEdges" fill="rgb(123, 82, 98)"  x="25" y="18" width="1" height="1" /><rect shape-rendering="crispEdges" fill="rgb(139, 90, 106)"  x="25" y="19" width="1" height="1" /><rect shape-rendering="crispEdges" fill="rgb(156, 115, 115)"  x="25" y="20" width="1" height="1" /><rect shape-rendering="crispEdges" fill="rgb(172, 131, 123)"  x="25" y="21" width="1" height="1" /><rect shape-rendering="crispEdges" fill="rgb(180, 139, 123)"  x="25" y="22" width="1" height="1" /><rect shape-rendering="crispEdges" fill="rgb(172, 123, 106)"  x="25" y="23" width="1" height="1" /><rect shape-rendering="crispEdges" fill="rgb(148, 106, 82)"  x="25" y="24" width="1" height="1" /><rect shape-rendering="crispEdges" fill="rgb(115, 82, 74)"  x="25" y="25" width="1" height="1" /><rect shape-rendering="crispEdges" fill="rgb(148, 106, 98)"  x="25" y="26" width="1" height="1" /><rect shape-rendering="crispEdges" fill="rgb(172, 123, 106)"  x="25" y="27" width="1" height="1" /><rect shape-rendering="crispEdges" fill="rgb(156, 106, 98)"  x="25" y="28" width="1" height="1" /><rect shape-rendering="crispEdges" fill="rgb(164, 131, 115)"  x="26" y="6" width="1" height="1" /><rect shape-rendering="crispEdges" fill="rgb(246, 213, 164)"  x="26" y="7" width="1" height="1" /><rect shape-rendering="crispEdges" fill="rgb(246, 197, 156)"  x="26" y="8" width="1" height="1" /><rect shape-rendering="crispEdges" fill="rgb(213, 172, 139)"  x="26" y="9" width="1" height="1" /><rect shape-rendering="crispEdges" fill="rgb(115, 74, 74)"  x="26" y="10" width="1" height="1" /><rect shape-rendering="crispEdges" fill="rgb(115, 65, 82)"  x="26" y="11" width="1" height="1" /><rect shape-rendering="crispEdges" fill="rgb(90, 57, 65)"  x="26" y="12" width="1" height="1" /><rect shape-rendering="crispEdges" fill="rgb(65, 32, 49)"  x="26" y="13" width="1" height="1" /><rect shape-rendering="crispEdges" fill="rgb(82, 49, 74)"  x="26" y="14" width="1" height="1" /><rect shape-rendering="crispEdges" fill="rgb(98, 65, 65)"  x="26" y="15" width="1" height="1" /><rect shape-rendering="crispEdges" fill="rgb(98, 57, 65)"  x="26" y="16" width="1" height="1" /><rect shape-rendering="crispEdges" fill="rgb(98, 57, 65)"  x="26" y="17" width="1" height="1" /><rect shape-rendering="crispEdges" fill="rgb(98, 57, 65)"  x="26" y="18" width="1" height="1" /><rect shape-rendering="crispEdges" fill="rgb(106, 65, 74)"  x="26" y="19" width="1" height="1" /><rect shape-rendering="crispEdges" fill="rgb(106, 65, 74)"  x="26" y="20" width="1" height="1" /><rect shape-rendering="crispEdges" fill="rgb(106, 65, 74)"  x="26" y="21" width="1" height="1" /><rect shape-rendering="crispEdges" fill="rgb(106, 65, 74)"  x="26" y="22" width="1" height="1" /><rect shape-rendering="crispEdges" fill="rgb(115, 74, 82)"  x="26" y="23" width="1" height="1" /><rect shape-rendering="crispEdges" fill="rgb(123, 82, 82)"  x="26" y="24" width="1" height="1" /><rect shape-rendering="crispEdges" fill="rgb(148, 106, 98)"  x="26" y="25" width="1" height="1" /><rect shape-rendering="crispEdges" fill="rgb(123, 90, 74)"  x="26" y="26" width="1" height="1" /><rect shape-rendering="crispEdges" fill="rgb(156, 106, 98)"  x="26" y="27" width="1" height="1" /><rect shape-rendering="crispEdges" fill="rgb(148, 115, 98)"  x="27" y="6" width="1" height="1" /><rect shape-rendering="crispEdges" fill="rgb(180, 123, 106)"  x="27" y="7" width="1" height="1" /><rect shape-rendering="crispEdges" fill="rgb(205, 148, 131)"  x="27" y="8" width="1" height="1" /><rect shape-rendering="crispEdges" fill="rgb(172, 131, 115)"  x="27" y="9" width="1" height="1" /><rect shape-rendering="crispEdges" fill="rgb(156, 106, 106)"  x="27" y="10" width="1" height="1" /><rect shape-rendering="crispEdges" fill="rgb(65, 32, 49)"  x="27" y="11" width="1" height="1" /><rect shape-rendering="crispEdges" fill="rgb(65, 32, 49)"  x="27" y="12" width="1" height="1" /><rect shape-rendering="crispEdges" fill="rgb(65, 32, 49)"  x="27" y="13" width="1" height="1" /><rect shape-rendering="crispEdges" fill="rgb(74, 32, 57)"  x="27" y="14" width="1" height="1" /><rect shape-rendering="crispEdges" fill="rgb(74, 32, 49)"  x="27" y="15" width="1" height="1" /><rect shape-rendering="crispEdges" fill="rgb(82, 41, 57)"  x="27" y="16" width="1" height="1" /><rect shape-rendering="crispEdges" fill="rgb(90, 57, 65)"  x="27" y="17" width="1" height="1" /><rect shape-rendering="crispEdges" fill="rgb(98, 65, 65)"  x="27" y="18" width="1" height="1" /><rect shape-rendering="crispEdges" fill="rgb(106, 65, 74)"  x="27" y="19" width="1" height="1" /><rect shape-rendering="crispEdges" fill="rgb(90, 49, 65)"  x="27" y="20" width="1" height="1" /><rect shape-rendering="crispEdges" fill="rgb(82, 41, 65)"  x="27" y="21" width="1" height="1" /><rect shape-rendering="crispEdges" fill="rgb(90, 57, 65)"  x="27" y="22" width="1" height="1" /><rect shape-rendering="crispEdges" fill="rgb(106, 65, 82)"  x="27" y="23" width="1" height="1" /><rect shape-rendering="crispEdges" fill="rgb(123, 90, 74)"  x="27" y="24" width="1" height="1" /><rect shape-rendering="crispEdges" fill="rgb(123, 90, 74)"  x="27" y="25" width="1" height="1" /><rect shape-rendering="crispEdges" fill="rgb(139, 98, 82)"  x="28" y="7" width="1" height="1" /><rect shape-rendering="crispEdges" fill="rgb(164, 123, 106)"  x="28" y="8" width="1" height="1" /><rect shape-rendering="crispEdges" fill="rgb(123, 90, 74)"  x="28" y="9" width="1" height="1" /><rect shape-rendering="crispEdges" fill="rgb(65, 32, 49)"  x="28" y="14" width="1" height="1" /><rect shape-rendering="crispEdges" fill="rgb(65, 32, 49)"  x="28" y="15" width="1" height="1" /><rect shape-rendering="crispEdges" fill="rgb(65, 32, 49)"  x="28" y="16" width="1" height="1" /><rect shape-rendering="crispEdges" fill="rgb(65, 32, 49)"  x="28" y="17" width="1" height="1" /><rect shape-rendering="crispEdges" fill="rgb(65, 32, 49)"  x="28" y="18" width="1" height="1" /><rect shape-rendering="crispEdges" fill="rgb(65, 32, 49)"  x="28" y="19" width="1" height="1" /><rect shape-rendering="crispEdges" fill="rgb(65, 32, 49)"  x="28" y="20" width="1" height="1" /><rect shape-rendering="crispEdges" fill="rgb(74, 41, 57)"  x="28" y="21" width="1" height="1" /><rect shape-rendering="crispEdges" fill="rgb(74, 41, 57)"  x="28" y="22" width="1" height="1" /></svg>