<svg xmlns="http://www.w3.org/2000/svg" xmlns:xlink= "http://www.w3.org/1999/xlink" width="32" height="32" viewBox ="0 0 32 32"><rect shape-rendering="crispEdges" fill="rgb(106, 148, 189)"  x="0" y="22" width="1" height="1" /><rect shape-rendering="crispEdges" fill="rgb(106, 139, 172)"  x="0" y="23" width="1" height="1" /><rect shape-rendering="crispEdges" fill="rgb(65, 106, 156)"  x="0" y="24" width="1" height="1" /><rect shape-rendering="crispEdges" fill="rgb(32, 57, 90)"  x="0" y="25" width="1" height="1" /><rect shape-rendering="crispEdges" fill="rgb(32, 49, 74)"  x="0" y="26" width="1" height="1" /><rect shape-rendering="crispEdges" fill="rgb(115, 164, 213)"  x="1" y="21" width="1" height="1" /><rect shape-rendering="crispEdges" fill="rgb(8, 16, 32)"  x="1" y="22" width="1" height="1" /><rect shape-rendering="crispEdges" fill="rgb(82, 164, 230)"  x="1" y="23" width="1" height="1" /><rect shape-rendering="crispEdges" fill="rgb(8, 8, 16)"  x="1" y="24" width="1" height="1" /><rect shape-rendering="crispEdges" fill="rgb(24, 49, 82)"  x="1" y="25" width="1" height="1" /><rect shape-rendering="crispEdges" fill="rgb(24, 49, 74)"  x="1" y="26" width="1" height="1" /><rect shape-rendering="crispEdges" fill="rgb(24, 49, 74)"  x="1" y="27" width="1" height="1" /><rect shape-rendering="crispEdges" fill="rgb(98, 148, 180)"  x="2" y="20" width="1" height="1" /><rect shape-rendering="crispEdges" fill="rgb(24, 41, 57)"  x="2" y="21" width="1" height="1" /><rect shape-rendering="crispEdges" fill="rgb(0, 0, 0)"  x="2" y="22" width="1" height="1" /><rect shape-rendering="crispEdges" fill="rgb(41, 49, 65)"  x="2" y="23" width="1" height="1" /><rect shape-rendering="crispEdges" fill="rgb(82, 131, 180)"  x="2" y="24" width="1" height="1" /><rect shape-rendering="crispEdges" fill="rgb(0, 8, 8)"  x="2" y="25" width="1" height="1" /><rect shape-rendering="crispEdges" fill="rgb(16, 32, 41)"  x="2" y="26" width="1" height="1" /><rect shape-rendering="crispEdges" fill="rgb(24, 49, 74)"  x="2" y="27" width="1" height="1" /><rect shape-rendering="crispEdges" fill="rgb(32, 65, 98)"  x="2" y="28" width="1" height="1" /><rect shape-rendering="crispEdges" fill="rgb(106, 156, 189)"  x="3" y="20" width="1" height="1" /><rect shape-rendering="crispEdges" fill="rgb(8, 16, 32)"  x="3" y="21" width="1" height="1" /><rect shape-rendering="crispEdges" fill="rgb(0, 8, 8)"  x="3" y="22" width="1" height="1" /><rect shape-rendering="crispEdges" fill="rgb(32, 49, 74)"  x="3" y="23" width="1" height="1" /><rect shape-rendering="crispEdges" fill="rgb(131, 180, 222)"  x="3" y="24" width="1" height="1" /><rect shape-rendering="crispEdges" fill="rgb(8, 24, 49)"  x="3" y="25" width="1" height="1" /><rect shape-rendering="crispEdges" fill="rgb(32, 57, 98)"  x="3" y="26" width="1" height="1" /><rect shape-rendering="crispEdges" fill="rgb(24, 41, 57)"  x="3" y="27" width="1" height="1" /><rect shape-rendering="crispEdges" fill="rgb(32, 57, 90)"  x="3" y="28" width="1" height="1" /><rect shape-rendering="crispEdges" fill="rgb(106, 148, 189)"  x="4" y="20" width="1" height="1" /><rect shape-rendering="crispEdges" fill="rgb(8, 24, 49)"  x="4" y="21" width="1" height="1" /><rect shape-rendering="crispEdges" fill="rgb(8, 8, 16)"  x="4" y="22" width="1" height="1" /><rect shape-rendering="crispEdges" fill="rgb(32, 57, 74)"  x="4" y="23" width="1" height="1" /><rect shape-rendering="crispEdges" fill="rgb(123, 164, 205)"  x="4" y="24" width="1" height="1" /><rect shape-rendering="crispEdges" fill="rgb(16, 32, 49)"  x="4" y="25" width="1" height="1" /><rect shape-rendering="crispEdges" fill="rgb(49, 98, 139)"  x="4" y="26" width="1" height="1" /><rect shape-rendering="crispEdges" fill="rgb(24, 41, 74)"  x="4" y="27" width="1" height="1" /><rect shape-rendering="crispEdges" fill="rgb(32, 57, 90)"  x="4" y="28" width="1" height="1" /><rect shape-rendering="crispEdges" fill="rgb(106, 148, 180)"  x="5" y="20" width="1" height="1" /><rect shape-rendering="crispEdges" fill="rgb(16, 41, 65)"  x="5" y="21" width="1" height="1" /><rect shape-rendering="crispEdges" fill="rgb(0, 8, 8)"  x="5" y="22" width="1" height="1" /><rect shape-rendering="crispEdges" fill="rgb(32, 41, 57)"  x="5" y="23" width="1" height="1" /><rect shape-rendering="crispEdges" fill="rgb(123, 172, 205)"  x="5" y="24" width="1" height="1" /><rect shape-rendering="crispEdges" fill="rgb(8, 24, 41)"  x="5" y="25" width="1" height="1" /><rect shape-rendering="crispEdges" fill="rgb(82, 139, 189)"  x="5" y="26" width="1" height="1" /><rect shape-rendering="crispEdges" fill="rgb(49, 98, 139)"  x="5" y="27" width="1" height="1" /><rect shape-rendering="crispEdges" fill="rgb(24, 49, 74)"  x="5" y="28" width="1" height="1" /><rect shape-rendering="crispEdges" fill="rgb(98, 139, 180)"  x="6" y="20" width="1" height="1" /><rect shape-rendering="crispEdges" fill="rgb(41, 74, 98)"  x="6" y="21" width="1" height="1" /><rect shape-rendering="crispEdges" fill="rgb(16, 41, 65)"  x="6" y="22" width="1" height="1" /><rect shape-rendering="crispEdges" fill="rgb(74, 115, 156)"  x="6" y="23" width="1" height="1" /><rect shape-rendering="crispEdges" fill="rgb(57, 131, 189)"  x="6" y="24" width="1" height="1" /><rect shape-rendering="crispEdges" fill="rgb(131, 164, 197)"  x="6" y="25" width="1" height="1" /><rect shape-rendering="crispEdges" fill="rgb(82, 156, 222)"  x="6" y="26" width="1" height="1" /><rect shape-rendering="crispEdges" fill="rgb(32, 57, 82)"  x="6" y="27" width="1" height="1" /><rect shape-rendering="crispEdges" fill="rgb(32, 57, 90)"  x="6" y="28" width="1" height="1" /><rect shape-rendering="crispEdges" fill="rgb(106, 148, 180)"  x="7" y="21" width="1" height="1" /><rect shape-rendering="crispEdges" fill="rgb(32, 65, 82)"  x="7" y="22" width="1" height="1" /><rect shape-rendering="crispEdges" fill="rgb(74, 148, 205)"  x="7" y="23" width="1" height="1" /><rect shape-rendering="crispEdges" fill="rgb(24, 32, 49)"  x="7" y="24" width="1" height="1" /><rect shape-rendering="crispEdges" fill="rgb(57, 106, 139)"  x="7" y="25" width="1" height="1" /><rect shape-rendering="crispEdges" fill="rgb(32, 57, 82)"  x="7" y="26" width="1" height="1" /><rect shape-rendering="crispEdges" fill="rgb(24, 41, 65)"  x="7" y="27" width="1" height="1" /><rect shape-rendering="crispEdges" fill="rgb(123, 164, 205)"  x="8" y="22" width="1" height="1" /><rect shape-rendering="crispEdges" fill="rgb(57, 98, 139)"  x="8" y="23" width="1" height="1" /><rect shape-rendering="crispEdges" fill="rgb(24, 57, 82)"  x="8" y="24" width="1" height="1" /><rect shape-rendering="crispEdges" fill="rgb(8, 16, 16)"  x="8" y="25" width="1" height="1" /><rect shape-rendering="crispEdges" fill="rgb(32, 49, 82)"  x="8" y="26" width="1" height="1" /><rect shape-rendering="crispEdges" fill="rgb(49, 74, 98)"  x="9" y="10" width="1" height="1" /><rect shape-rendering="crispEdges" fill="rgb(49, 74, 106)"  x="9" y="11" width="1" height="1" /><rect shape-rendering="crispEdges" fill="rgb(32, 49, 65)"  x="9" y="12" width="1" height="1" /><rect shape-rendering="crispEdges" fill="rgb(24, 41, 57)"  x="9" y="13" width="1" height="1" /><rect shape-rendering="crispEdges" fill="rgb(16, 24, 41)"  x="9" y="14" width="1" height="1" /><rect shape-rendering="crispEdges" fill="rgb(16, 24, 32)"  x="9" y="15" width="1" height="1" /><rect shape-rendering="crispEdges" fill="rgb(16, 24, 32)"  x="9" y="16" width="1" height="1" /><rect shape-rendering="crispEdges" fill="rgb(49, 57, 65)"  x="9" y="17" width="1" height="1" /><rect shape-rendering="crispEdges" fill="rgb(65, 82, 90)"  x="9" y="18" width="1" height="1" /><rect shape-rendering="crispEdges" fill="rgb(49, 98, 131)"  x="9" y="23" width="1" height="1" /><rect shape-rendering="crispEdges" fill="rgb(139, 189, 230)"  x="9" y="24" width="1" height="1" /><rect shape-rendering="crispEdges" fill="rgb(32, 65, 106)"  x="9" y="25" width="1" height="1" /><rect shape-rendering="crispEdges" fill="rgb(32, 49, 74)"  x="9" y="26" width="1" height="1" /><rect shape-rendering="crispEdges" fill="rgb(65, 98, 139)"  x="10" y="8" width="1" height="1" /><rect shape-rendering="crispEdges" fill="rgb(74, 106, 148)"  x="10" y="9" width="1" height="1" /><rect shape-rendering="crispEdges" fill="rgb(41, 65, 98)"  x="10" y="10" width="1" height="1" /><rect shape-rendering="crispEdges" fill="rgb(41, 65, 90)"  x="10" y="11" width="1" height="1" /><rect shape-rendering="crispEdges" fill="rgb(41, 65, 90)"  x="10" y="12" width="1" height="1" /><rect shape-rendering="crispEdges" fill="rgb(41, 57, 82)"  x="10" y="13" width="1" height="1" /><rect shape-rendering="crispEdges" fill="rgb(32, 49, 74)"  x="10" y="14" width="1" height="1" /><rect shape-rendering="crispEdges" fill="rgb(16, 32, 57)"  x="10" y="15" width="1" height="1" /><rect shape-rendering="crispEdges" fill="rgb(8, 16, 32)"  x="10" y="16" width="1" height="1" /><rect shape-rendering="crispEdges" fill="rgb(0, 0, 0)"  x="10" y="17" width="1" height="1" /><rect shape-rendering="crispEdges" fill="rgb(0, 0, 0)"  x="10" y="18" width="1" height="1" /><rect shape-rendering="crispEdges" fill="rgb(16, 24, 32)"  x="10" y="19" width="1" height="1" /><rect shape-rendering="crispEdges" fill="rgb(57, 65, 74)"  x="10" y="20" width="1" height="1" /><rect shape-rendering="crispEdges" fill="rgb(41, 74, 106)"  x="10" y="22" width="1" height="1" /><rect shape-rendering="crispEdges" fill="rgb(24, 49, 82)"  x="10" y="23" width="1" height="1" /><rect shape-rendering="crispEdges" fill="rgb(32, 57, 90)"  x="10" y="24" width="1" height="1" /><rect shape-rendering="crispEdges" fill="rgb(32, 65, 98)"  x="10" y="25" width="1" height="1" /><rect shape-rendering="crispEdges" fill="rgb(24, 49, 74)"  x="10" y="26" width="1" height="1" /><rect shape-rendering="crispEdges" fill="rgb(57, 90, 123)"  x="11" y="7" width="1" height="1" /><rect shape-rendering="crispEdges" fill="rgb(74, 115, 148)"  x="11" y="8" width="1" height="1" /><rect shape-rendering="crispEdges" fill="rgb(82, 131, 172)"  x="11" y="9" width="1" height="1" /><rect shape-rendering="crispEdges" fill="rgb(82, 115, 148)"  x="11" y="10" width="1" height="1" /><rect shape-rendering="crispEdges" fill="rgb(65, 98, 131)"  x="11" y="11" width="1" height="1" /><rect shape-rendering="crispEdges" fill="rgb(57, 90, 123)"  x="11" y="12" width="1" height="1" /><rect shape-rendering="crispEdges" fill="rgb(49, 82, 106)"  x="11" y="13" width="1" height="1" /><rect shape-rendering="crispEdges" fill="rgb(32, 65, 90)"  x="11" y="14" width="1" height="1" /><rect shape-rendering="crispEdges" fill="rgb(32, 49, 74)"  x="11" y="15" width="1" height="1" /><rect shape-rendering="crispEdges" fill="rgb(24, 49, 57)"  x="11" y="16" width="1" height="1" /><rect shape-rendering="crispEdges" fill="rgb(16, 24, 41)"  x="11" y="17" width="1" height="1" /><rect shape-rendering="crispEdges" fill="rgb(16, 24, 24)"  x="11" y="18" width="1" height="1" /><rect shape-rendering="crispEdges" fill="rgb(0, 0, 0)"  x="11" y="19" width="1" height="1" /><rect shape-rendering="crispEdges" fill="rgb(0, 0, 0)"  x="11" y="20" width="1" height="1" /><rect shape-rendering="crispEdges" fill="rgb(49, 90, 131)"  x="11" y="21" width="1" height="1" /><rect shape-rendering="crispEdges" fill="rgb(82, 123, 156)"  x="11" y="22" width="1" height="1" /><rect shape-rendering="crispEdges" fill="rgb(139, 189, 230)"  x="11" y="23" width="1" height="1" /><rect shape-rendering="crispEdges" fill="rgb(32, 65, 98)"  x="11" y="24" width="1" height="1" /><rect shape-rendering="crispEdges" fill="rgb(24, 41, 65)"  x="11" y="25" width="1" height="1" /><rect shape-rendering="crispEdges" fill="rgb(57, 90, 123)"  x="12" y="6" width="1" height="1" /><rect shape-rendering="crispEdges" fill="rgb(74, 123, 164)"  x="12" y="7" width="1" height="1" /><rect shape-rendering="crispEdges" fill="rgb(98, 139, 172)"  x="12" y="8" width="1" height="1" /><rect shape-rendering="crispEdges" fill="rgb(98, 148, 172)"  x="12" y="9" width="1" height="1" /><rect shape-rendering="crispEdges" fill="rgb(115, 156, 189)"  x="12" y="10" width="1" height="1" /><rect shape-rendering="crispEdges" fill="rgb(98, 148, 180)"  x="12" y="11" width="1" height="1" /><rect shape-rendering="crispEdges" fill="rgb(82, 123, 156)"  x="12" y="12" width="1" height="1" /><rect shape-rendering="crispEdges" fill="rgb(74, 106, 148)"  x="12" y="13" width="1" height="1" /><rect shape-rendering="crispEdges" fill="rgb(57, 90, 123)"  x="12" y="14" width="1" height="1" /><rect shape-rendering="crispEdges" fill="rgb(41, 65, 98)"  x="12" y="15" width="1" height="1" /><rect shape-rendering="crispEdges" fill="rgb(32, 49, 74)"  x="12" y="16" width="1" height="1" /><rect shape-rendering="crispEdges" fill="rgb(24, 41, 57)"  x="12" y="17" width="1" height="1" /><rect shape-rendering="crispEdges" fill="rgb(16, 24, 41)"  x="12" y="18" width="1" height="1" /><rect shape-rendering="crispEdges" fill="rgb(16, 24, 32)"  x="12" y="19" width="1" height="1" /><rect shape-rendering="crispEdges" fill="rgb(0, 0, 8)"  x="12" y="20" width="1" height="1" /><rect shape-rendering="crispEdges" fill="rgb(0, 0, 0)"  x="12" y="21" width="1" height="1" /><rect shape-rendering="crispEdges" fill="rgb(32, 65, 98)"  x="12" y="22" width="1" height="1" /><rect shape-rendering="crispEdges" fill="rgb(8, 24, 49)"  x="12" y="23" width="1" height="1" /><rect shape-rendering="crispEdges" fill="rgb(24, 49, 74)"  x="12" y="24" width="1" height="1" /><rect shape-rendering="crispEdges" fill="rgb(57, 90, 123)"  x="13" y="5" width="1" height="1" /><rect shape-rendering="crispEdges" fill="rgb(82, 131, 164)"  x="13" y="6" width="1" height="1" /><rect shape-rendering="crispEdges" fill="rgb(115, 164, 189)"  x="13" y="7" width="1" height="1" /><rect shape-rendering="crispEdges" fill="rgb(131, 180, 205)"  x="13" y="8" width="1" height="1" /><rect shape-rendering="crispEdges" fill="rgb(131, 180, 197)"  x="13" y="9" width="1" height="1" /><rect shape-rendering="crispEdges" fill="rgb(123, 164, 197)"  x="13" y="10" width="1" height="1" /><rect shape-rendering="crispEdges" fill="rgb(106, 156, 189)"  x="13" y="11" width="1" height="1" /><rect shape-rendering="crispEdges" fill="rgb(98, 148, 172)"  x="13" y="12" width="1" height="1" /><rect shape-rendering="crispEdges" fill="rgb(74, 115, 148)"  x="13" y="13" width="1" height="1" /><rect shape-rendering="crispEdges" fill="rgb(65, 98, 131)"  x="13" y="14" width="1" height="1" /><rect shape-rendering="crispEdges" fill="rgb(49, 82, 115)"  x="13" y="15" width="1" height="1" /><rect shape-rendering="crispEdges" fill="rgb(41, 74, 98)"  x="13" y="16" width="1" height="1" /><rect shape-rendering="crispEdges" fill="rgb(32, 49, 74)"  x="13" y="17" width="1" height="1" /><rect shape-rendering="crispEdges" fill="rgb(24, 41, 57)"  x="13" y="18" width="1" height="1" /><rect shape-rendering="crispEdges" fill="rgb(16, 24, 41)"  x="13" y="19" width="1" height="1" /><rect shape-rendering="crispEdges" fill="rgb(8, 16, 32)"  x="13" y="20" width="1" height="1" /><rect shape-rendering="crispEdges" fill="rgb(0, 8, 8)"  x="13" y="21" width="1" height="1" /><rect shape-rendering="crispEdges" fill="rgb(0, 0, 0)"  x="13" y="22" width="1" height="1" /><rect shape-rendering="crispEdges" fill="rgb(49, 74, 90)"  x="13" y="23" width="1" height="1" /><rect shape-rendering="crispEdges" fill="rgb(65, 98, 131)"  x="14" y="4" width="1" height="1" /><rect shape-rendering="crispEdges" fill="rgb(90, 131, 156)"  x="14" y="5" width="1" height="1" /><rect shape-rendering="crispEdges" fill="rgb(106, 156, 180)"  x="14" y="6" width="1" height="1" /><rect shape-rendering="crispEdges" fill="rgb(148, 189, 205)"  x="14" y="7" width="1" height="1" /><rect shape-rendering="crispEdges" fill="rgb(180, 213, 230)"  x="14" y="8" width="1" height="1" /><rect shape-rendering="crispEdges" fill="rgb(189, 222, 230)"  x="14" y="9" width="1" height="1" /><rect shape-rendering="crispEdges" fill="rgb(148, 189, 213)"  x="14" y="10" width="1" height="1" /><rect shape-rendering="crispEdges" fill="rgb(123, 172, 197)"  x="14" y="11" width="1" height="1" /><rect shape-rendering="crispEdges" fill="rgb(98, 156, 189)"  x="14" y="12" width="1" height="1" /><rect shape-rendering="crispEdges" fill="rgb(82, 131, 172)"  x="14" y="13" width="1" height="1" /><rect shape-rendering="crispEdges" fill="rgb(65, 106, 156)"  x="14" y="14" width="1" height="1" /><rect shape-rendering="crispEdges" fill="rgb(49, 82, 115)"  x="14" y="15" width="1" height="1" /><rect shape-rendering="crispEdges" fill="rgb(41, 74, 115)"  x="14" y="16" width="1" height="1" /><rect shape-rendering="crispEdges" fill="rgb(32, 57, 82)"  x="14" y="17" width="1" height="1" /><rect shape-rendering="crispEdges" fill="rgb(24, 49, 65)"  x="14" y="18" width="1" height="1" /><rect shape-rendering="crispEdges" fill="rgb(16, 32, 49)"  x="14" y="19" width="1" height="1" /><rect shape-rendering="crispEdges" fill="rgb(16, 24, 32)"  x="14" y="20" width="1" height="1" /><rect shape-rendering="crispEdges" fill="rgb(8, 16, 24)"  x="14" y="21" width="1" height="1" /><rect shape-rendering="crispEdges" fill="rgb(0, 8, 16)"  x="14" y="22" width="1" height="1" /><rect shape-rendering="crispEdges" fill="rgb(0, 0, 0)"  x="14" y="23" width="1" height="1" /><rect shape-rendering="crispEdges" fill="rgb(32, 74, 106)"  x="14" y="24" width="1" height="1" /><rect shape-rendering="crispEdges" fill="rgb(49, 82, 123)"  x="15" y="4" width="1" height="1" /><rect shape-rendering="crispEdges" fill="rgb(106, 156, 180)"  x="15" y="5" width="1" height="1" /><rect shape-rendering="crispEdges" fill="rgb(115, 156, 189)"  x="15" y="6" width="1" height="1" /><rect shape-rendering="crispEdges" fill="rgb(156, 189, 213)"  x="15" y="7" width="1" height="1" /><rect shape-rendering="crispEdges" fill="rgb(246, 246, 255)"  x="15" y="8" width="1" height="1" /><rect shape-rendering="crispEdges" fill="rgb(255, 255, 255)"  x="15" y="9" width="1" height="1" /><rect shape-rendering="crispEdges" fill="rgb(180, 213, 230)"  x="15" y="10" width="1" height="1" /><rect shape-rendering="crispEdges" fill="rgb(131, 180, 205)"  x="15" y="11" width="1" height="1" /><rect shape-rendering="crispEdges" fill="rgb(106, 164, 197)"  x="15" y="12" width="1" height="1" /><rect shape-rendering="crispEdges" fill="rgb(82, 139, 180)"  x="15" y="13" width="1" height="1" /><rect shape-rendering="crispEdges" fill="rgb(74, 115, 156)"  x="15" y="14" width="1" height="1" /><rect shape-rendering="crispEdges" fill="rgb(57, 98, 139)"  x="15" y="15" width="1" height="1" /><rect shape-rendering="crispEdges" fill="rgb(41, 74, 106)"  x="15" y="16" width="1" height="1" /><rect shape-rendering="crispEdges" fill="rgb(32, 57, 90)"  x="15" y="17" width="1" height="1" /><rect shape-rendering="crispEdges" fill="rgb(32, 49, 74)"  x="15" y="18" width="1" height="1" /><rect shape-rendering="crispEdges" fill="rgb(24, 32, 57)"  x="15" y="19" width="1" height="1" /><rect shape-rendering="crispEdges" fill="rgb(16, 32, 41)"  x="15" y="20" width="1" height="1" /><rect shape-rendering="crispEdges" fill="rgb(16, 24, 32)"  x="15" y="21" width="1" height="1" /><rect shape-rendering="crispEdges" fill="rgb(8, 24, 24)"  x="15" y="22" width="1" height="1" /><rect shape-rendering="crispEdges" fill="rgb(0, 0, 0)"  x="15" y="23" width="1" height="1" /><rect shape-rendering="crispEdges" fill="rgb(41, 57, 57)"  x="15" y="24" width="1" height="1" /><rect shape-rendering="crispEdges" fill="rgb(74, 106, 148)"  x="16" y="3" width="1" height="1" /><rect shape-rendering="crispEdges" fill="rgb(106, 139, 156)"  x="16" y="4" width="1" height="1" /><rect shape-rendering="crispEdges" fill="rgb(98, 148, 180)"  x="16" y="5" width="1" height="1" /><rect shape-rendering="crispEdges" fill="rgb(172, 197, 213)"  x="16" y="6" width="1" height="1" /><rect shape-rendering="crispEdges" fill="rgb(189, 213, 222)"  x="16" y="7" width="1" height="1" /><rect shape-rendering="crispEdges" fill="rgb(205, 230, 238)"  x="16" y="8" width="1" height="1" /><rect shape-rendering="crispEdges" fill="rgb(230, 238, 246)"  x="16" y="9" width="1" height="1" /><rect shape-rendering="crispEdges" fill="rgb(164, 205, 222)"  x="16" y="10" width="1" height="1" /><rect shape-rendering="crispEdges" fill="rgb(123, 180, 213)"  x="16" y="11" width="1" height="1" /><rect shape-rendering="crispEdges" fill="rgb(106, 164, 189)"  x="16" y="12" width="1" height="1" /><rect shape-rendering="crispEdges" fill="rgb(98, 139, 180)"  x="16" y="13" width="1" height="1" /><rect shape-rendering="crispEdges" fill="rgb(74, 123, 172)"  x="16" y="14" width="1" height="1" /><rect shape-rendering="crispEdges" fill="rgb(57, 106, 148)"  x="16" y="15" width="1" height="1" /><rect shape-rendering="crispEdges" fill="rgb(49, 74, 123)"  x="16" y="16" width="1" height="1" /><rect shape-rendering="crispEdges" fill="rgb(32, 65, 98)"  x="16" y="17" width="1" height="1" /><rect shape-rendering="crispEdges" fill="rgb(32, 49, 74)"  x="16" y="18" width="1" height="1" /><rect shape-rendering="crispEdges" fill="rgb(32, 49, 74)"  x="16" y="19" width="1" height="1" /><rect shape-rendering="crispEdges" fill="rgb(24, 41, 57)"  x="16" y="20" width="1" height="1" /><rect shape-rendering="crispEdges" fill="rgb(16, 24, 32)"  x="16" y="21" width="1" height="1" /><rect shape-rendering="crispEdges" fill="rgb(16, 16, 24)"  x="16" y="22" width="1" height="1" /><rect shape-rendering="crispEdges" fill="rgb(8, 16, 24)"  x="16" y="23" width="1" height="1" /><rect shape-rendering="crispEdges" fill="rgb(16, 16, 24)"  x="16" y="24" width="1" height="1" /><rect shape-rendering="crispEdges" fill="rgb(32, 57, 98)"  x="16" y="25" width="1" height="1" /><rect shape-rendering="crispEdges" fill="rgb(57, 90, 131)"  x="17" y="3" width="1" height="1" /><rect shape-rendering="crispEdges" fill="rgb(106, 148, 172)"  x="17" y="4" width="1" height="1" /><rect shape-rendering="crispEdges" fill="rgb(98, 148, 172)"  x="17" y="5" width="1" height="1" /><rect shape-rendering="crispEdges" fill="rgb(139, 180, 205)"  x="17" y="6" width="1" height="1" /><rect shape-rendering="crispEdges" fill="rgb(156, 189, 213)"  x="17" y="7" width="1" height="1" /><rect shape-rendering="crispEdges" fill="rgb(131, 180, 205)"  x="17" y="8" width="1" height="1" /><rect shape-rendering="crispEdges" fill="rgb(139, 189, 213)"  x="17" y="9" width="1" height="1" /><rect shape-rendering="crispEdges" fill="rgb(131, 180, 213)"  x="17" y="10" width="1" height="1" /><rect shape-rendering="crispEdges" fill="rgb(115, 172, 205)"  x="17" y="11" width="1" height="1" /><rect shape-rendering="crispEdges" fill="rgb(106, 164, 189)"  x="17" y="12" width="1" height="1" /><rect shape-rendering="crispEdges" fill="rgb(90, 148, 189)"  x="17" y="13" width="1" height="1" /><rect shape-rendering="crispEdges" fill="rgb(82, 131, 172)"  x="17" y="14" width="1" height="1" /><rect shape-rendering="crispEdges" fill="rgb(65, 106, 156)"  x="17" y="15" width="1" height="1" /><rect shape-rendering="crispEdges" fill="rgb(49, 90, 139)"  x="17" y="16" width="1" height="1" /><rect shape-rendering="crispEdges" fill="rgb(41, 57, 98)"  x="17" y="17" width="1" height="1" /><rect shape-rendering="crispEdges" fill="rgb(32, 57, 90)"  x="17" y="18" width="1" height="1" /><rect shape-rendering="crispEdges" fill="rgb(24, 41, 65)"  x="17" y="19" width="1" height="1" /><rect shape-rendering="crispEdges" fill="rgb(24, 32, 41)"  x="17" y="20" width="1" height="1" /><rect shape-rendering="crispEdges" fill="rgb(8, 16, 32)"  x="17" y="21" width="1" height="1" /><rect shape-rendering="crispEdges" fill="rgb(8, 16, 16)"  x="17" y="22" width="1" height="1" /><rect shape-rendering="crispEdges" fill="rgb(8, 16, 32)"  x="17" y="23" width="1" height="1" /><rect shape-rendering="crispEdges" fill="rgb(24, 41, 49)"  x="17" y="24" width="1" height="1" /><rect shape-rendering="crispEdges" fill="rgb(32, 57, 82)"  x="17" y="25" width="1" height="1" /><rect shape-rendering="crispEdges" fill="rgb(57, 90, 131)"  x="18" y="3" width="1" height="1" /><rect shape-rendering="crispEdges" fill="rgb(115, 148, 172)"  x="18" y="4" width="1" height="1" /><rect shape-rendering="crispEdges" fill="rgb(115, 156, 180)"  x="18" y="5" width="1" height="1" /><rect shape-rendering="crispEdges" fill="rgb(98, 148, 172)"  x="18" y="6" width="1" height="1" /><rect shape-rendering="crispEdges" fill="rgb(106, 148, 180)"  x="18" y="7" width="1" height="1" /><rect shape-rendering="crispEdges" fill="rgb(106, 156, 189)"  x="18" y="8" width="1" height="1" /><rect shape-rendering="crispEdges" fill="rgb(106, 164, 189)"  x="18" y="9" width="1" height="1" /><rect shape-rendering="crispEdges" fill="rgb(115, 172, 197)"  x="18" y="10" width="1" height="1" /><rect shape-rendering="crispEdges" fill="rgb(115, 164, 197)"  x="18" y="11" width="1" height="1" /><rect shape-rendering="crispEdges" fill="rgb(98, 148, 189)"  x="18" y="12" width="1" height="1" /><rect shape-rendering="crispEdges" fill="rgb(98, 148, 189)"  x="18" y="13" width="1" height="1" /><rect shape-rendering="crispEdges" fill="rgb(82, 131, 172)"  x="18" y="14" width="1" height="1" /><rect shape-rendering="crispEdges" fill="rgb(65, 106, 164)"  x="18" y="15" width="1" height="1" /><rect shape-rendering="crispEdges" fill="rgb(49, 90, 131)"  x="18" y="16" width="1" height="1" /><rect shape-rendering="crispEdges" fill="rgb(41, 74, 115)"  x="18" y="17" width="1" height="1" /><rect shape-rendering="crispEdges" fill="rgb(41, 65, 98)"  x="18" y="18" width="1" height="1" /><rect shape-rendering="crispEdges" fill="rgb(24, 49, 74)"  x="18" y="19" width="1" height="1" /><rect shape-rendering="crispEdges" fill="rgb(24, 32, 57)"  x="18" y="20" width="1" height="1" /><rect shape-rendering="crispEdges" fill="rgb(16, 24, 32)"  x="18" y="21" width="1" height="1" /><rect shape-rendering="crispEdges" fill="rgb(8, 16, 32)"  x="18" y="22" width="1" height="1" /><rect shape-rendering="crispEdges" fill="rgb(24, 24, 32)"  x="18" y="23" width="1" height="1" /><rect shape-rendering="crispEdges" fill="rgb(32, 65, 82)"  x="18" y="24" width="1" height="1" /><rect shape-rendering="crispEdges" fill="rgb(32, 49, 82)"  x="18" y="25" width="1" height="1" /><rect shape-rendering="crispEdges" fill="rgb(65, 98, 131)"  x="19" y="3" width="1" height="1" /><rect shape-rendering="crispEdges" fill="rgb(90, 139, 156)"  x="19" y="4" width="1" height="1" /><rect shape-rendering="crispEdges" fill="rgb(106, 148, 180)"  x="19" y="5" width="1" height="1" /><rect shape-rendering="crispEdges" fill="rgb(106, 148, 180)"  x="19" y="6" width="1" height="1" /><rect shape-rendering="crispEdges" fill="rgb(90, 139, 180)"  x="19" y="7" width="1" height="1" /><rect shape-rendering="crispEdges" fill="rgb(98, 148, 180)"  x="19" y="8" width="1" height="1" /><rect shape-rendering="crispEdges" fill="rgb(106, 156, 189)"  x="19" y="9" width="1" height="1" /><rect shape-rendering="crispEdges" fill="rgb(106, 164, 197)"  x="19" y="10" width="1" height="1" /><rect shape-rendering="crispEdges" fill="rgb(98, 148, 189)"  x="19" y="11" width="1" height="1" /><rect shape-rendering="crispEdges" fill="rgb(98, 148, 189)"  x="19" y="12" width="1" height="1" /><rect shape-rendering="crispEdges" fill="rgb(82, 139, 180)"  x="19" y="13" width="1" height="1" /><rect shape-rendering="crispEdges" fill="rgb(74, 123, 172)"  x="19" y="14" width="1" height="1" /><rect shape-rendering="crispEdges" fill="rgb(65, 106, 156)"  x="19" y="15" width="1" height="1" /><rect shape-rendering="crispEdges" fill="rgb(49, 82, 131)"  x="19" y="16" width="1" height="1" /><rect shape-rendering="crispEdges" fill="rgb(49, 65, 106)"  x="19" y="17" width="1" height="1" /><rect shape-rendering="crispEdges" fill="rgb(41, 65, 106)"  x="19" y="18" width="1" height="1" /><rect shape-rendering="crispEdges" fill="rgb(32, 49, 74)"  x="19" y="19" width="1" height="1" /><rect shape-rendering="crispEdges" fill="rgb(24, 32, 57)"  x="19" y="20" width="1" height="1" /><rect shape-rendering="crispEdges" fill="rgb(24, 32, 49)"  x="19" y="21" width="1" height="1" /><rect shape-rendering="crispEdges" fill="rgb(24, 24, 32)"  x="19" y="22" width="1" height="1" /><rect shape-rendering="crispEdges" fill="rgb(16, 32, 49)"  x="19" y="23" width="1" height="1" /><rect shape-rendering="crispEdges" fill="rgb(57, 82, 106)"  x="19" y="24" width="1" height="1" /><rect shape-rendering="crispEdges" fill="rgb(24, 49, 74)"  x="19" y="25" width="1" height="1" /><rect shape-rendering="crispEdges" fill="rgb(57, 98, 131)"  x="20" y="3" width="1" height="1" /><rect shape-rendering="crispEdges" fill="rgb(98, 139, 164)"  x="20" y="4" width="1" height="1" /><rect shape-rendering="crispEdges" fill="rgb(98, 139, 164)"  x="20" y="5" width="1" height="1" /><rect shape-rendering="crispEdges" fill="rgb(98, 139, 164)"  x="20" y="6" width="1" height="1" /><rect shape-rendering="crispEdges" fill="rgb(98, 148, 172)"  x="20" y="7" width="1" height="1" /><rect shape-rendering="crispEdges" fill="rgb(98, 148, 180)"  x="20" y="8" width="1" height="1" /><rect shape-rendering="crispEdges" fill="rgb(98, 156, 180)"  x="20" y="9" width="1" height="1" /><rect shape-rendering="crispEdges" fill="rgb(98, 148, 189)"  x="20" y="10" width="1" height="1" /><rect shape-rendering="crispEdges" fill="rgb(90, 148, 180)"  x="20" y="11" width="1" height="1" /><rect shape-rendering="crispEdges" fill="rgb(90, 139, 180)"  x="20" y="12" width="1" height="1" /><rect shape-rendering="crispEdges" fill="rgb(82, 131, 172)"  x="20" y="13" width="1" height="1" /><rect shape-rendering="crispEdges" fill="rgb(74, 123, 172)"  x="20" y="14" width="1" height="1" /><rect shape-rendering="crispEdges" fill="rgb(65, 98, 156)"  x="20" y="15" width="1" height="1" /><rect shape-rendering="crispEdges" fill="rgb(49, 90, 131)"  x="20" y="16" width="1" height="1" /><rect shape-rendering="crispEdges" fill="rgb(49, 74, 123)"  x="20" y="17" width="1" height="1" /><rect shape-rendering="crispEdges" fill="rgb(41, 65, 98)"  x="20" y="18" width="1" height="1" /><rect shape-rendering="crispEdges" fill="rgb(32, 49, 74)"  x="20" y="19" width="1" height="1" /><rect shape-rendering="crispEdges" fill="rgb(24, 41, 49)"  x="20" y="20" width="1" height="1" /><rect shape-rendering="crispEdges" fill="rgb(24, 32, 49)"  x="20" y="21" width="1" height="1" /><rect shape-rendering="crispEdges" fill="rgb(16, 32, 41)"  x="20" y="22" width="1" height="1" /><rect shape-rendering="crispEdges" fill="rgb(24, 41, 49)"  x="20" y="23" width="1" height="1" /><rect shape-rendering="crispEdges" fill="rgb(57, 90, 123)"  x="20" y="24" width="1" height="1" /><rect shape-rendering="crispEdges" fill="rgb(24, 49, 74)"  x="20" y="25" width="1" height="1" /><rect shape-rendering="crispEdges" fill="rgb(65, 98, 131)"  x="21" y="3" width="1" height="1" /><rect shape-rendering="crispEdges" fill="rgb(90, 131, 148)"  x="21" y="4" width="1" height="1" /><rect shape-rendering="crispEdges" fill="rgb(98, 139, 156)"  x="21" y="5" width="1" height="1" /><rect shape-rendering="crispEdges" fill="rgb(82, 123, 156)"  x="21" y="6" width="1" height="1" /><rect shape-rendering="crispEdges" fill="rgb(90, 131, 164)"  x="21" y="7" width="1" height="1" /><rect shape-rendering="crispEdges" fill="rgb(90, 139, 172)"  x="21" y="8" width="1" height="1" /><rect shape-rendering="crispEdges" fill="rgb(98, 148, 172)"  x="21" y="9" width="1" height="1" /><rect shape-rendering="crispEdges" fill="rgb(90, 139, 172)"  x="21" y="10" width="1" height="1" /><rect shape-rendering="crispEdges" fill="rgb(74, 131, 172)"  x="21" y="11" width="1" height="1" /><rect shape-rendering="crispEdges" fill="rgb(82, 123, 172)"  x="21" y="12" width="1" height="1" /><rect shape-rendering="crispEdges" fill="rgb(74, 123, 172)"  x="21" y="13" width="1" height="1" /><rect shape-rendering="crispEdges" fill="rgb(74, 123, 172)"  x="21" y="14" width="1" height="1" /><rect shape-rendering="crispEdges" fill="rgb(65, 106, 148)"  x="21" y="15" width="1" height="1" /><rect shape-rendering="crispEdges" fill="rgb(49, 82, 131)"  x="21" y="16" width="1" height="1" /><rect shape-rendering="crispEdges" fill="rgb(41, 65, 106)"  x="21" y="17" width="1" height="1" /><rect shape-rendering="crispEdges" fill="rgb(41, 74, 106)"  x="21" y="18" width="1" height="1" /><rect shape-rendering="crispEdges" fill="rgb(32, 49, 74)"  x="21" y="19" width="1" height="1" /><rect shape-rendering="crispEdges" fill="rgb(24, 41, 57)"  x="21" y="20" width="1" height="1" /><rect shape-rendering="crispEdges" fill="rgb(24, 32, 49)"  x="21" y="21" width="1" height="1" /><rect shape-rendering="crispEdges" fill="rgb(16, 32, 32)"  x="21" y="22" width="1" height="1" /><rect shape-rendering="crispEdges" fill="rgb(24, 41, 57)"  x="21" y="23" width="1" height="1" /><rect shape-rendering="crispEdges" fill="rgb(65, 106, 131)"  x="21" y="24" width="1" height="1" /><rect shape-rendering="crispEdges" fill="rgb(24, 41, 65)"  x="21" y="25" width="1" height="1" /><rect shape-rendering="crispEdges" fill="rgb(65, 106, 148)"  x="22" y="3" width="1" height="1" /><rect shape-rendering="crispEdges" fill="rgb(57, 90, 98)"  x="22" y="4" width="1" height="1" /><rect shape-rendering="crispEdges" fill="rgb(98, 131, 156)"  x="22" y="5" width="1" height="1" /><rect shape-rendering="crispEdges" fill="rgb(82, 115, 148)"  x="22" y="6" width="1" height="1" /><rect shape-rendering="crispEdges" fill="rgb(90, 131, 156)"  x="22" y="7" width="1" height="1" /><rect shape-rendering="crispEdges" fill="rgb(82, 123, 156)"  x="22" y="8" width="1" height="1" /><rect shape-rendering="crispEdges" fill="rgb(82, 123, 164)"  x="22" y="9" width="1" height="1" /><rect shape-rendering="crispEdges" fill="rgb(82, 123, 156)"  x="22" y="10" width="1" height="1" /><rect shape-rendering="crispEdges" fill="rgb(74, 123, 164)"  x="22" y="11" width="1" height="1" /><rect shape-rendering="crispEdges" fill="rgb(74, 115, 156)"  x="22" y="12" width="1" height="1" /><rect shape-rendering="crispEdges" fill="rgb(74, 115, 156)"  x="22" y="13" width="1" height="1" /><rect shape-rendering="crispEdges" fill="rgb(65, 98, 148)"  x="22" y="14" width="1" height="1" /><rect shape-rendering="crispEdges" fill="rgb(57, 90, 139)"  x="22" y="15" width="1" height="1" /><rect shape-rendering="crispEdges" fill="rgb(49, 82, 123)"  x="22" y="16" width="1" height="1" /><rect shape-rendering="crispEdges" fill="rgb(41, 74, 106)"  x="22" y="17" width="1" height="1" /><rect shape-rendering="crispEdges" fill="rgb(32, 57, 90)"  x="22" y="18" width="1" height="1" /><rect shape-rendering="crispEdges" fill="rgb(32, 49, 65)"  x="22" y="19" width="1" height="1" /><rect shape-rendering="crispEdges" fill="rgb(32, 41, 57)"  x="22" y="20" width="1" height="1" /><rect shape-rendering="crispEdges" fill="rgb(24, 41, 49)"  x="22" y="21" width="1" height="1" /><rect shape-rendering="crispEdges" fill="rgb(24, 32, 41)"  x="22" y="22" width="1" height="1" /><rect shape-rendering="crispEdges" fill="rgb(24, 57, 82)"  x="22" y="23" width="1" height="1" /><rect shape-rendering="crispEdges" fill="rgb(82, 98, 115)"  x="22" y="24" width="1" height="1" /><rect shape-rendering="crispEdges" fill="rgb(24, 41, 74)"  x="22" y="25" width="1" height="1" /><rect shape-rendering="crispEdges" fill="rgb(74, 115, 148)"  x="23" y="3" width="1" height="1" /><rect shape-rendering="crispEdges" fill="rgb(41, 65, 90)"  x="23" y="4" width="1" height="1" /><rect shape-rendering="crispEdges" fill="rgb(49, 90, 115)"  x="23" y="5" width="1" height="1" /><rect shape-rendering="crispEdges" fill="rgb(82, 115, 139)"  x="23" y="6" width="1" height="1" /><rect shape-rendering="crispEdges" fill="rgb(65, 106, 131)"  x="23" y="7" width="1" height="1" /><rect shape-rendering="crispEdges" fill="rgb(65, 98, 131)"  x="23" y="8" width="1" height="1" /><rect shape-rendering="crispEdges" fill="rgb(74, 115, 148)"  x="23" y="9" width="1" height="1" /><rect shape-rendering="crispEdges" fill="rgb(74, 115, 148)"  x="23" y="10" width="1" height="1" /><rect shape-rendering="crispEdges" fill="rgb(65, 106, 139)"  x="23" y="11" width="1" height="1" /><rect shape-rendering="crispEdges" fill="rgb(65, 98, 139)"  x="23" y="12" width="1" height="1" /><rect shape-rendering="crispEdges" fill="rgb(57, 90, 131)"  x="23" y="13" width="1" height="1" /><rect shape-rendering="crispEdges" fill="rgb(57, 98, 131)"  x="23" y="14" width="1" height="1" /><rect shape-rendering="crispEdges" fill="rgb(57, 90, 131)"  x="23" y="15" width="1" height="1" /><rect shape-rendering="crispEdges" fill="rgb(49, 82, 115)"  x="23" y="16" width="1" height="1" /><rect shape-rendering="crispEdges" fill="rgb(41, 65, 90)"  x="23" y="17" width="1" height="1" /><rect shape-rendering="crispEdges" fill="rgb(41, 65, 90)"  x="23" y="18" width="1" height="1" /><rect shape-rendering="crispEdges" fill="rgb(32, 49, 65)"  x="23" y="19" width="1" height="1" /><rect shape-rendering="crispEdges" fill="rgb(32, 49, 65)"  x="23" y="20" width="1" height="1" /><rect shape-rendering="crispEdges" fill="rgb(24, 41, 49)"  x="23" y="21" width="1" height="1" /><rect shape-rendering="crispEdges" fill="rgb(32, 41, 49)"  x="23" y="22" width="1" height="1" /><rect shape-rendering="crispEdges" fill="rgb(41, 82, 115)"  x="23" y="23" width="1" height="1" /><rect shape-rendering="crispEdges" fill="rgb(82, 123, 148)"  x="23" y="24" width="1" height="1" /><rect shape-rendering="crispEdges" fill="rgb(16, 32, 65)"  x="23" y="25" width="1" height="1" /><rect shape-rendering="crispEdges" fill="rgb(49, 65, 90)"  x="24" y="4" width="1" height="1" /><rect shape-rendering="crispEdges" fill="rgb(49, 74, 106)"  x="24" y="5" width="1" height="1" /><rect shape-rendering="crispEdges" fill="rgb(65, 98, 115)"  x="24" y="6" width="1" height="1" /><rect shape-rendering="crispEdges" fill="rgb(57, 90, 106)"  x="24" y="7" width="1" height="1" /><rect shape-rendering="crispEdges" fill="rgb(57, 82, 115)"  x="24" y="8" width="1" height="1" /><rect shape-rendering="crispEdges" fill="rgb(57, 98, 131)"  x="24" y="9" width="1" height="1" /><rect shape-rendering="crispEdges" fill="rgb(57, 90, 123)"  x="24" y="10" width="1" height="1" /><rect shape-rendering="crispEdges" fill="rgb(57, 90, 123)"  x="24" y="11" width="1" height="1" /><rect shape-rendering="crispEdges" fill="rgb(57, 90, 115)"  x="24" y="12" width="1" height="1" /><rect shape-rendering="crispEdges" fill="rgb(49, 82, 115)"  x="24" y="13" width="1" height="1" /><rect shape-rendering="crispEdges" fill="rgb(49, 74, 106)"  x="24" y="14" width="1" height="1" /><rect shape-rendering="crispEdges" fill="rgb(49, 74, 106)"  x="24" y="15" width="1" height="1" /><rect shape-rendering="crispEdges" fill="rgb(49, 74, 106)"  x="24" y="16" width="1" height="1" /><rect shape-rendering="crispEdges" fill="rgb(32, 65, 90)"  x="24" y="17" width="1" height="1" /><rect shape-rendering="crispEdges" fill="rgb(32, 49, 74)"  x="24" y="18" width="1" height="1" /><rect shape-rendering="crispEdges" fill="rgb(32, 49, 65)"  x="24" y="19" width="1" height="1" /><rect shape-rendering="crispEdges" fill="rgb(32, 49, 65)"  x="24" y="20" width="1" height="1" /><rect shape-rendering="crispEdges" fill="rgb(24, 32, 41)"  x="24" y="21" width="1" height="1" /><rect shape-rendering="crispEdges" fill="rgb(32, 65, 90)"  x="24" y="22" width="1" height="1" /><rect shape-rendering="crispEdges" fill="rgb(65, 106, 139)"  x="24" y="23" width="1" height="1" /><rect shape-rendering="crispEdges" fill="rgb(41, 57, 74)"  x="24" y="24" width="1" height="1" /><rect shape-rendering="crispEdges" fill="rgb(32, 65, 82)"  x="25" y="4" width="1" height="1" /><rect shape-rendering="crispEdges" fill="rgb(16, 32, 41)"  x="25" y="5" width="1" height="1" /><rect shape-rendering="crispEdges" fill="rgb(8, 32, 49)"  x="25" y="6" width="1" height="1" /><rect shape-rendering="crispEdges" fill="rgb(49, 82, 106)"  x="25" y="7" width="1" height="1" /><rect shape-rendering="crispEdges" fill="rgb(41, 74, 90)"  x="25" y="8" width="1" height="1" /><rect shape-rendering="crispEdges" fill="rgb(49, 74, 98)"  x="25" y="9" width="1" height="1" /><rect shape-rendering="crispEdges" fill="rgb(49, 82, 106)"  x="25" y="10" width="1" height="1" /><rect shape-rendering="crispEdges" fill="rgb(49, 74, 98)"  x="25" y="11" width="1" height="1" /><rect shape-rendering="crispEdges" fill="rgb(41, 57, 90)"  x="25" y="12" width="1" height="1" /><rect shape-rendering="crispEdges" fill="rgb(32, 65, 82)"  x="25" y="13" width="1" height="1" /><rect shape-rendering="crispEdges" fill="rgb(32, 49, 82)"  x="25" y="14" width="1" height="1" /><rect shape-rendering="crispEdges" fill="rgb(41, 57, 74)"  x="25" y="15" width="1" height="1" /><rect shape-rendering="crispEdges" fill="rgb(41, 65, 90)"  x="25" y="16" width="1" height="1" /><rect shape-rendering="crispEdges" fill="rgb(32, 57, 74)"  x="25" y="17" width="1" height="1" /><rect shape-rendering="crispEdges" fill="rgb(32, 49, 65)"  x="25" y="18" width="1" height="1" /><rect shape-rendering="crispEdges" fill="rgb(32, 49, 65)"  x="25" y="19" width="1" height="1" /><rect shape-rendering="crispEdges" fill="rgb(24, 41, 49)"  x="25" y="20" width="1" height="1" /><rect shape-rendering="crispEdges" fill="rgb(41, 49, 65)"  x="25" y="21" width="1" height="1" /><rect shape-rendering="crispEdges" fill="rgb(49, 90, 148)"  x="25" y="22" width="1" height="1" /><rect shape-rendering="crispEdges" fill="rgb(82, 115, 131)"  x="25" y="23" width="1" height="1" /><rect shape-rendering="crispEdges" fill="rgb(32, 65, 90)"  x="25" y="24" width="1" height="1" /><rect shape-rendering="crispEdges" fill="rgb(24, 49, 74)"  x="26" y="5" width="1" height="1" /><rect shape-rendering="crispEdges" fill="rgb(24, 41, 49)"  x="26" y="6" width="1" height="1" /><rect shape-rendering="crispEdges" fill="rgb(16, 41, 49)"  x="26" y="7" width="1" height="1" /><rect shape-rendering="crispEdges" fill="rgb(32, 57, 82)"  x="26" y="8" width="1" height="1" /><rect shape-rendering="crispEdges" fill="rgb(32, 57, 74)"  x="26" y="9" width="1" height="1" /><rect shape-rendering="crispEdges" fill="rgb(41, 57, 74)"  x="26" y="10" width="1" height="1" /><rect shape-rendering="crispEdges" fill="rgb(32, 57, 74)"  x="26" y="11" width="1" height="1" /><rect shape-rendering="crispEdges" fill="rgb(32, 49, 74)"  x="26" y="12" width="1" height="1" /><rect shape-rendering="crispEdges" fill="rgb(32, 49, 65)"  x="26" y="13" width="1" height="1" /><rect shape-rendering="crispEdges" fill="rgb(32, 49, 65)"  x="26" y="14" width="1" height="1" /><rect shape-rendering="crispEdges" fill="rgb(32, 49, 57)"  x="26" y="15" width="1" height="1" /><rect shape-rendering="crispEdges" fill="rgb(32, 49, 65)"  x="26" y="16" width="1" height="1" /><rect shape-rendering="crispEdges" fill="rgb(32, 49, 65)"  x="26" y="17" width="1" height="1" /><rect shape-rendering="crispEdges" fill="rgb(32, 49, 65)"  x="26" y="18" width="1" height="1" /><rect shape-rendering="crispEdges" fill="rgb(24, 32, 49)"  x="26" y="19" width="1" height="1" /><rect shape-rendering="crispEdges" fill="rgb(32, 57, 65)"  x="26" y="20" width="1" height="1" /><rect shape-rendering="crispEdges" fill="rgb(41, 90, 139)"  x="26" y="21" width="1" height="1" /><rect shape-rendering="crispEdges" fill="rgb(106, 123, 131)"  x="26" y="22" width="1" height="1" /><rect shape-rendering="crispEdges" fill="rgb(24, 57, 82)"  x="26" y="23" width="1" height="1" /><rect shape-rendering="crispEdges" fill="rgb(24, 49, 74)"  x="27" y="6" width="1" height="1" /><rect shape-rendering="crispEdges" fill="rgb(16, 41, 49)"  x="27" y="7" width="1" height="1" /><rect shape-rendering="crispEdges" fill="rgb(16, 32, 49)"  x="27" y="8" width="1" height="1" /><rect shape-rendering="crispEdges" fill="rgb(32, 41, 57)"  x="27" y="9" width="1" height="1" /><rect shape-rendering="crispEdges" fill="rgb(32, 49, 57)"  x="27" y="10" width="1" height="1" /><rect shape-rendering="crispEdges" fill="rgb(32, 41, 57)"  x="27" y="11" width="1" height="1" /><rect shape-rendering="crispEdges" fill="rgb(24, 49, 57)"  x="27" y="12" width="1" height="1" /><rect shape-rendering="crispEdges" fill="rgb(24, 41, 57)"  x="27" y="13" width="1" height="1" /><rect shape-rendering="crispEdges" fill="rgb(24, 41, 57)"  x="27" y="14" width="1" height="1" /><rect shape-rendering="crispEdges" fill="rgb(24, 41, 57)"  x="27" y="15" width="1" height="1" /><rect shape-rendering="crispEdges" fill="rgb(16, 32, 49)"  x="27" y="16" width="1" height="1" /><rect shape-rendering="crispEdges" fill="rgb(24, 32, 49)"  x="27" y="17" width="1" height="1" /><rect shape-rendering="crispEdges" fill="rgb(24, 32, 41)"  x="27" y="18" width="1" height="1" /><rect shape-rendering="crispEdges" fill="rgb(32, 49, 57)"  x="27" y="19" width="1" height="1" /><rect shape-rendering="crispEdges" fill="rgb(57, 106, 148)"  x="27" y="20" width="1" height="1" /><rect shape-rendering="crispEdges" fill="rgb(123, 139, 139)"  x="27" y="21" width="1" height="1" /><rect shape-rendering="crispEdges" fill="rgb(24, 49, 82)"  x="27" y="22" width="1" height="1" /><rect shape-rendering="crispEdges" fill="rgb(24, 49, 74)"  x="28" y="7" width="1" height="1" /><rect shape-rendering="crispEdges" fill="rgb(16, 41, 49)"  x="28" y="8" width="1" height="1" /><rect shape-rendering="crispEdges" fill="rgb(8, 24, 41)"  x="28" y="9" width="1" height="1" /><rect shape-rendering="crispEdges" fill="rgb(24, 32, 41)"  x="28" y="10" width="1" height="1" /><rect shape-rendering="crispEdges" fill="rgb(24, 32, 41)"  x="28" y="11" width="1" height="1" /><rect shape-rendering="crispEdges" fill="rgb(16, 24, 32)"  x="28" y="12" width="1" height="1" /><rect shape-rendering="crispEdges" fill="rgb(16, 24, 32)"  x="28" y="13" width="1" height="1" /><rect shape-rendering="crispEdges" fill="rgb(16, 24, 32)"  x="28" y="14" width="1" height="1" /><rect shape-rendering="crispEdges" fill="rgb(16, 32, 32)"  x="28" y="15" width="1" height="1" /><rect shape-rendering="crispEdges" fill="rgb(24, 32, 49)"  x="28" y="16" width="1" height="1" /><rect shape-rendering="crispEdges" fill="rgb(24, 32, 49)"  x="28" y="17" width="1" height="1" /><rect shape-rendering="crispEdges" fill="rgb(41, 57, 90)"  x="28" y="18" width="1" height="1" /><rect shape-rendering="crispEdges" fill="rgb(65, 106, 139)"  x="28" y="19" width="1" height="1" /><rect shape-rendering="crispEdges" fill="rgb(106, 123, 131)"  x="28" y="20" width="1" height="1" /><rect shape-rendering="crispEdges" fill="rgb(16, 49, 74)"  x="28" y="21" width="1" height="1" /><rect shape-rendering="crispEdges" fill="rgb(24, 49, 74)"  x="29" y="8" width="1" height="1" /><rect shape-rendering="crispEdges" fill="rgb(24, 49, 57)"  x="29" y="9" width="1" height="1" /><rect shape-rendering="crispEdges" fill="rgb(8, 32, 49)"  x="29" y="10" width="1" height="1" /><rect shape-rendering="crispEdges" fill="rgb(8, 8, 24)"  x="29" y="11" width="1" height="1" /><rect shape-rendering="crispEdges" fill="rgb(0, 8, 8)"  x="29" y="12" width="1" height="1" /><rect shape-rendering="crispEdges" fill="rgb(8, 16, 24)"  x="29" y="13" width="1" height="1" /><rect shape-rendering="crispEdges" fill="rgb(8, 24, 24)"  x="29" y="14" width="1" height="1" /><rect shape-rendering="crispEdges" fill="rgb(24, 41, 57)"  x="29" y="15" width="1" height="1" /><rect shape-rendering="crispEdges" fill="rgb(32, 57, 74)"  x="29" y="16" width="1" height="1" /><rect shape-rendering="crispEdges" fill="rgb(49, 74, 98)"  x="29" y="17" width="1" height="1" /><rect shape-rendering="crispEdges" fill="rgb(82, 115, 123)"  x="29" y="18" width="1" height="1" /><rect shape-rendering="crispEdges" fill="rgb(32, 57, 74)"  x="29" y="19" width="1" height="1" /><rect shape-rendering="crispEdges" fill="rgb(32, 65, 90)"  x="29" y="20" width="1" height="1" /><rect shape-rendering="crispEdges" fill="rgb(24, 41, 57)"  x="30" y="10" width="1" height="1" /><rect shape-rendering="crispEdges" fill="rgb(24, 49, 65)"  x="30" y="11" width="1" height="1" /><rect shape-rendering="crispEdges" fill="rgb(24, 49, 65)"  x="30" y="12" width="1" height="1" /><rect shape-rendering="crispEdges" fill="rgb(16, 41, 57)"  x="30" y="13" width="1" height="1" /><rect shape-rendering="crispEdges" fill="rgb(41, 65, 98)"  x="30" y="14" width="1" height="1" /><rect shape-rendering="crispEdges" fill="rgb(32, 49, 82)"  x="30" y="15" width="1" height="1" /><rect shape-rendering="crispEdges" fill="rgb(41, 74, 90)"  x="30" y="16" width="1" height="1" /><rect shape-rendering="crispEdges" fill="rgb(41, 65, 90)"  x="30" y="17" width="1" height="1" /><rect shape-rendering="crispEdges" fill="rgb(32, 65, 82)"  x="30" y="18" width="1" height="1" /></svg>