<svg xmlns="http://www.w3.org/2000/svg" xmlns:xlink= "http://www.w3.org/1999/xlink" width="32" height="32" viewBox ="0 0 32 32"><rect shape-rendering="crispEdges" fill="rgb(131, 98, 90)"  x="2" y="15" width="1" height="1" /><rect shape-rendering="crispEdges" fill="rgb(131, 98, 90)"  x="2" y="16" width="1" height="1" /><rect shape-rendering="crispEdges" fill="rgb(115, 74, 82)"  x="2" y="17" width="1" height="1" /><rect shape-rendering="crispEdges" fill="rgb(115, 74, 82)"  x="2" y="18" width="1" height="1" /><rect shape-rendering="crispEdges" fill="rgb(115, 74, 82)"  x="2" y="19" width="1" height="1" /><rect shape-rendering="crispEdges" fill="rgb(131, 98, 90)"  x="3" y="14" width="1" height="1" /><rect shape-rendering="crispEdges" fill="rgb(131, 98, 90)"  x="3" y="15" width="1" height="1" /><rect shape-rendering="crispEdges" fill="rgb(172, 139, 123)"  x="3" y="16" width="1" height="1" /><rect shape-rendering="crispEdges" fill="rgb(131, 98, 90)"  x="3" y="17" width="1" height="1" /><rect shape-rendering="crispEdges" fill="rgb(131, 98, 90)"  x="3" y="18" width="1" height="1" /><rect shape-rendering="crispEdges" fill="rgb(90, 57, 65)"  x="3" y="19" width="1" height="1" /><rect shape-rendering="crispEdges" fill="rgb(90, 57, 65)"  x="3" y="20" width="1" height="1" /><rect shape-rendering="crispEdges" fill="rgb(90, 57, 65)"  x="3" y="21" width="1" height="1" /><rect shape-rendering="crispEdges" fill="rgb(115, 74, 82)"  x="4" y="13" width="1" height="1" /><rect shape-rendering="crispEdges" fill="rgb(131, 98, 90)"  x="4" y="14" width="1" height="1" /><rect shape-rendering="crispEdges" fill="rgb(115, 74, 82)"  x="4" y="15" width="1" height="1" /><rect shape-rendering="crispEdges" fill="rgb(115, 74, 82)"  x="4" y="16" width="1" height="1" /><rect shape-rendering="crispEdges" fill="rgb(90, 57, 65)"  x="4" y="17" width="1" height="1" /><rect shape-rendering="crispEdges" fill="rgb(90, 57, 65)"  x="4" y="18" width="1" height="1" /><rect shape-rendering="crispEdges" fill="rgb(115, 74, 82)"  x="4" y="19" width="1" height="1" /><rect shape-rendering="crispEdges" fill="rgb(115, 74, 82)"  x="4" y="20" width="1" height="1" /><rect shape-rendering="crispEdges" fill="rgb(115, 74, 82)"  x="4" y="21" width="1" height="1" /><rect shape-rendering="crispEdges" fill="rgb(115, 74, 82)"  x="4" y="22" width="1" height="1" /><rect shape-rendering="crispEdges" fill="rgb(90, 57, 65)"  x="5" y="12" width="1" height="1" /><rect shape-rendering="crispEdges" fill="rgb(98, 74, 41)"  x="5" y="13" width="1" height="1" /><rect shape-rendering="crispEdges" fill="rgb(98, 74, 41)"  x="5" y="14" width="1" height="1" /><rect shape-rendering="crispEdges" fill="rgb(98, 74, 41)"  x="5" y="15" width="1" height="1" /><rect shape-rendering="crispEdges" fill="rgb(74, 41, 32)"  x="5" y="16" width="1" height="1" /><rect shape-rendering="crispEdges" fill="rgb(74, 41, 32)"  x="5" y="17" width="1" height="1" /><rect shape-rendering="crispEdges" fill="rgb(115, 74, 82)"  x="5" y="18" width="1" height="1" /><rect shape-rendering="crispEdges" fill="rgb(131, 98, 90)"  x="5" y="19" width="1" height="1" /><rect shape-rendering="crispEdges" fill="rgb(131, 98, 90)"  x="5" y="20" width="1" height="1" /><rect shape-rendering="crispEdges" fill="rgb(131, 98, 90)"  x="5" y="21" width="1" height="1" /><rect shape-rendering="crispEdges" fill="rgb(115, 74, 82)"  x="5" y="22" width="1" height="1" /><rect shape-rendering="crispEdges" fill="rgb(74, 41, 49)"  x="5" y="23" width="1" height="1" /><rect shape-rendering="crispEdges" fill="rgb(90, 57, 65)"  x="6" y="12" width="1" height="1" /><rect shape-rendering="crispEdges" fill="rgb(115, 98, 49)"  x="6" y="13" width="1" height="1" /><rect shape-rendering="crispEdges" fill="rgb(115, 98, 49)"  x="6" y="14" width="1" height="1" /><rect shape-rendering="crispEdges" fill="rgb(148, 172, 65)"  x="6" y="15" width="1" height="1" /><rect shape-rendering="crispEdges" fill="rgb(131, 139, 57)"  x="6" y="16" width="1" height="1" /><rect shape-rendering="crispEdges" fill="rgb(98, 74, 41)"  x="6" y="17" width="1" height="1" /><rect shape-rendering="crispEdges" fill="rgb(131, 98, 90)"  x="6" y="18" width="1" height="1" /><rect shape-rendering="crispEdges" fill="rgb(90, 57, 65)"  x="6" y="19" width="1" height="1" /><rect shape-rendering="crispEdges" fill="rgb(90, 57, 65)"  x="6" y="20" width="1" height="1" /><rect shape-rendering="crispEdges" fill="rgb(90, 57, 65)"  x="6" y="21" width="1" height="1" /><rect shape-rendering="crispEdges" fill="rgb(90, 57, 65)"  x="6" y="22" width="1" height="1" /><rect shape-rendering="crispEdges" fill="rgb(90, 57, 65)"  x="6" y="23" width="1" height="1" /><rect shape-rendering="crispEdges" fill="rgb(90, 57, 65)"  x="6" y="24" width="1" height="1" /><rect shape-rendering="crispEdges" fill="rgb(74, 41, 49)"  x="6" y="25" width="1" height="1" /><rect shape-rendering="crispEdges" fill="rgb(106, 32, 32)"  x="7" y="10" width="1" height="1" /><rect shape-rendering="crispEdges" fill="rgb(123, 41, 41)"  x="7" y="11" width="1" height="1" /><rect shape-rendering="crispEdges" fill="rgb(123, 41, 41)"  x="7" y="12" width="1" height="1" /><rect shape-rendering="crispEdges" fill="rgb(123, 41, 41)"  x="7" y="13" width="1" height="1" /><rect shape-rendering="crispEdges" fill="rgb(123, 41, 41)"  x="7" y="14" width="1" height="1" /><rect shape-rendering="crispEdges" fill="rgb(123, 41, 41)"  x="7" y="15" width="1" height="1" /><rect shape-rendering="crispEdges" fill="rgb(131, 139, 57)"  x="7" y="16" width="1" height="1" /><rect shape-rendering="crispEdges" fill="rgb(131, 139, 57)"  x="7" y="17" width="1" height="1" /><rect shape-rendering="crispEdges" fill="rgb(90, 57, 65)"  x="7" y="18" width="1" height="1" /><rect shape-rendering="crispEdges" fill="rgb(115, 74, 82)"  x="7" y="19" width="1" height="1" /><rect shape-rendering="crispEdges" fill="rgb(131, 98, 90)"  x="7" y="20" width="1" height="1" /><rect shape-rendering="crispEdges" fill="rgb(131, 98, 90)"  x="7" y="21" width="1" height="1" /><rect shape-rendering="crispEdges" fill="rgb(131, 98, 90)"  x="7" y="22" width="1" height="1" /><rect shape-rendering="crispEdges" fill="rgb(115, 74, 82)"  x="7" y="23" width="1" height="1" /><rect shape-rendering="crispEdges" fill="rgb(90, 57, 65)"  x="7" y="24" width="1" height="1" /><rect shape-rendering="crispEdges" fill="rgb(90, 57, 65)"  x="7" y="25" width="1" height="1" /><rect shape-rendering="crispEdges" fill="rgb(90, 57, 65)"  x="7" y="26" width="1" height="1" /><rect shape-rendering="crispEdges" fill="rgb(106, 32, 32)"  x="8" y="9" width="1" height="1" /><rect shape-rendering="crispEdges" fill="rgb(213, 115, 8)"  x="8" y="10" width="1" height="1" /><rect shape-rendering="crispEdges" fill="rgb(213, 115, 8)"  x="8" y="11" width="1" height="1" /><rect shape-rendering="crispEdges" fill="rgb(213, 115, 8)"  x="8" y="12" width="1" height="1" /><rect shape-rendering="crispEdges" fill="rgb(213, 115, 8)"  x="8" y="13" width="1" height="1" /><rect shape-rendering="crispEdges" fill="rgb(213, 115, 8)"  x="8" y="14" width="1" height="1" /><rect shape-rendering="crispEdges" fill="rgb(123, 41, 41)"  x="8" y="15" width="1" height="1" /><rect shape-rendering="crispEdges" fill="rgb(106, 32, 0)"  x="8" y="16" width="1" height="1" /><rect shape-rendering="crispEdges" fill="rgb(74, 41, 32)"  x="8" y="17" width="1" height="1" /><rect shape-rendering="crispEdges" fill="rgb(74, 41, 32)"  x="8" y="18" width="1" height="1" /><rect shape-rendering="crispEdges" fill="rgb(74, 41, 32)"  x="8" y="19" width="1" height="1" /><rect shape-rendering="crispEdges" fill="rgb(74, 41, 32)"  x="8" y="20" width="1" height="1" /><rect shape-rendering="crispEdges" fill="rgb(74, 41, 32)"  x="8" y="21" width="1" height="1" /><rect shape-rendering="crispEdges" fill="rgb(115, 74, 82)"  x="8" y="22" width="1" height="1" /><rect shape-rendering="crispEdges" fill="rgb(131, 98, 90)"  x="8" y="23" width="1" height="1" /><rect shape-rendering="crispEdges" fill="rgb(156, 115, 106)"  x="8" y="24" width="1" height="1" /><rect shape-rendering="crispEdges" fill="rgb(156, 115, 106)"  x="8" y="25" width="1" height="1" /><rect shape-rendering="crispEdges" fill="rgb(156, 115, 106)"  x="8" y="26" width="1" height="1" /><rect shape-rendering="crispEdges" fill="rgb(90, 57, 65)"  x="8" y="27" width="1" height="1" /><rect shape-rendering="crispEdges" fill="rgb(106, 32, 32)"  x="9" y="8" width="1" height="1" /><rect shape-rendering="crispEdges" fill="rgb(213, 115, 8)"  x="9" y="9" width="1" height="1" /><rect shape-rendering="crispEdges" fill="rgb(213, 115, 8)"  x="9" y="10" width="1" height="1" /><rect shape-rendering="crispEdges" fill="rgb(172, 57, 0)"  x="9" y="11" width="1" height="1" /><rect shape-rendering="crispEdges" fill="rgb(172, 57, 0)"  x="9" y="12" width="1" height="1" /><rect shape-rendering="crispEdges" fill="rgb(172, 57, 0)"  x="9" y="13" width="1" height="1" /><rect shape-rendering="crispEdges" fill="rgb(123, 41, 41)"  x="9" y="14" width="1" height="1" /><rect shape-rendering="crispEdges" fill="rgb(106, 32, 0)"  x="9" y="15" width="1" height="1" /><rect shape-rendering="crispEdges" fill="rgb(106, 32, 0)"  x="9" y="16" width="1" height="1" /><rect shape-rendering="crispEdges" fill="rgb(115, 98, 49)"  x="9" y="17" width="1" height="1" /><rect shape-rendering="crispEdges" fill="rgb(115, 98, 49)"  x="9" y="18" width="1" height="1" /><rect shape-rendering="crispEdges" fill="rgb(115, 98, 49)"  x="9" y="19" width="1" height="1" /><rect shape-rendering="crispEdges" fill="rgb(131, 139, 57)"  x="9" y="20" width="1" height="1" /><rect shape-rendering="crispEdges" fill="rgb(131, 139, 57)"  x="9" y="21" width="1" height="1" /><rect shape-rendering="crispEdges" fill="rgb(98, 74, 41)"  x="9" y="22" width="1" height="1" /><rect shape-rendering="crispEdges" fill="rgb(98, 74, 41)"  x="9" y="23" width="1" height="1" /><rect shape-rendering="crispEdges" fill="rgb(156, 115, 106)"  x="9" y="24" width="1" height="1" /><rect shape-rendering="crispEdges" fill="rgb(156, 115, 106)"  x="9" y="25" width="1" height="1" /><rect shape-rendering="crispEdges" fill="rgb(156, 115, 106)"  x="9" y="26" width="1" height="1" /><rect shape-rendering="crispEdges" fill="rgb(90, 57, 65)"  x="9" y="27" width="1" height="1" /><rect shape-rendering="crispEdges" fill="rgb(106, 32, 32)"  x="10" y="7" width="1" height="1" /><rect shape-rendering="crispEdges" fill="rgb(172, 57, 0)"  x="10" y="8" width="1" height="1" /><rect shape-rendering="crispEdges" fill="rgb(189, 82, 0)"  x="10" y="9" width="1" height="1" /><rect shape-rendering="crispEdges" fill="rgb(238, 148, 16)"  x="10" y="10" width="1" height="1" /><rect shape-rendering="crispEdges" fill="rgb(172, 82, 82)"  x="10" y="11" width="1" height="1" /><rect shape-rendering="crispEdges" fill="rgb(139, 57, 57)"  x="10" y="12" width="1" height="1" /><rect shape-rendering="crispEdges" fill="rgb(123, 41, 41)"  x="10" y="13" width="1" height="1" /><rect shape-rendering="crispEdges" fill="rgb(148, 49, 0)"  x="10" y="14" width="1" height="1" /><rect shape-rendering="crispEdges" fill="rgb(148, 49, 0)"  x="10" y="15" width="1" height="1" /><rect shape-rendering="crispEdges" fill="rgb(148, 49, 0)"  x="10" y="16" width="1" height="1" /><rect shape-rendering="crispEdges" fill="rgb(106, 32, 0)"  x="10" y="17" width="1" height="1" /><rect shape-rendering="crispEdges" fill="rgb(106, 32, 0)"  x="10" y="18" width="1" height="1" /><rect shape-rendering="crispEdges" fill="rgb(106, 32, 0)"  x="10" y="19" width="1" height="1" /><rect shape-rendering="crispEdges" fill="rgb(115, 98, 49)"  x="10" y="20" width="1" height="1" /><rect shape-rendering="crispEdges" fill="rgb(115, 98, 49)"  x="10" y="21" width="1" height="1" /><rect shape-rendering="crispEdges" fill="rgb(131, 139, 57)"  x="10" y="22" width="1" height="1" /><rect shape-rendering="crispEdges" fill="rgb(74, 41, 32)"  x="10" y="23" width="1" height="1" /><rect shape-rendering="crispEdges" fill="rgb(156, 115, 106)"  x="10" y="24" width="1" height="1" /><rect shape-rendering="crispEdges" fill="rgb(115, 74, 82)"  x="10" y="25" width="1" height="1" /><rect shape-rendering="crispEdges" fill="rgb(90, 57, 65)"  x="10" y="26" width="1" height="1" /><rect shape-rendering="crispEdges" fill="rgb(90, 57, 65)"  x="10" y="27" width="1" height="1" /><rect shape-rendering="crispEdges" fill="rgb(139, 57, 57)"  x="11" y="6" width="1" height="1" /><rect shape-rendering="crispEdges" fill="rgb(172, 57, 0)"  x="11" y="7" width="1" height="1" /><rect shape-rendering="crispEdges" fill="rgb(172, 82, 82)"  x="11" y="8" width="1" height="1" /><rect shape-rendering="crispEdges" fill="rgb(189, 82, 0)"  x="11" y="9" width="1" height="1" /><rect shape-rendering="crispEdges" fill="rgb(246, 172, 24)"  x="11" y="10" width="1" height="1" /><rect shape-rendering="crispEdges" fill="rgb(172, 82, 82)"  x="11" y="11" width="1" height="1" /><rect shape-rendering="crispEdges" fill="rgb(123, 41, 41)"  x="11" y="12" width="1" height="1" /><rect shape-rendering="crispEdges" fill="rgb(246, 172, 24)"  x="11" y="13" width="1" height="1" /><rect shape-rendering="crispEdges" fill="rgb(246, 172, 24)"  x="11" y="14" width="1" height="1" /><rect shape-rendering="crispEdges" fill="rgb(246, 172, 24)"  x="11" y="15" width="1" height="1" /><rect shape-rendering="crispEdges" fill="rgb(246, 172, 24)"  x="11" y="16" width="1" height="1" /><rect shape-rendering="crispEdges" fill="rgb(238, 148, 16)"  x="11" y="17" width="1" height="1" /><rect shape-rendering="crispEdges" fill="rgb(238, 148, 16)"  x="11" y="18" width="1" height="1" /><rect shape-rendering="crispEdges" fill="rgb(238, 148, 16)"  x="11" y="19" width="1" height="1" /><rect shape-rendering="crispEdges" fill="rgb(106, 32, 0)"  x="11" y="20" width="1" height="1" /><rect shape-rendering="crispEdges" fill="rgb(115, 98, 49)"  x="11" y="21" width="1" height="1" /><rect shape-rendering="crispEdges" fill="rgb(131, 139, 57)"  x="11" y="22" width="1" height="1" /><rect shape-rendering="crispEdges" fill="rgb(74, 41, 32)"  x="11" y="23" width="1" height="1" /><rect shape-rendering="crispEdges" fill="rgb(115, 74, 82)"  x="11" y="24" width="1" height="1" /><rect shape-rendering="crispEdges" fill="rgb(156, 115, 106)"  x="11" y="25" width="1" height="1" /><rect shape-rendering="crispEdges" fill="rgb(156, 115, 106)"  x="11" y="26" width="1" height="1" /><rect shape-rendering="crispEdges" fill="rgb(131, 98, 90)"  x="11" y="27" width="1" height="1" /><rect shape-rendering="crispEdges" fill="rgb(90, 57, 65)"  x="11" y="28" width="1" height="1" /><rect shape-rendering="crispEdges" fill="rgb(172, 82, 82)"  x="12" y="4" width="1" height="1" /><rect shape-rendering="crispEdges" fill="rgb(172, 82, 82)"  x="12" y="5" width="1" height="1" /><rect shape-rendering="crispEdges" fill="rgb(172, 57, 0)"  x="12" y="6" width="1" height="1" /><rect shape-rendering="crispEdges" fill="rgb(172, 82, 82)"  x="12" y="7" width="1" height="1" /><rect shape-rendering="crispEdges" fill="rgb(189, 82, 0)"  x="12" y="8" width="1" height="1" /><rect shape-rendering="crispEdges" fill="rgb(189, 82, 0)"  x="12" y="9" width="1" height="1" /><rect shape-rendering="crispEdges" fill="rgb(172, 57, 0)"  x="12" y="10" width="1" height="1" /><rect shape-rendering="crispEdges" fill="rgb(189, 82, 0)"  x="12" y="11" width="1" height="1" /><rect shape-rendering="crispEdges" fill="rgb(180, 74, 0)"  x="12" y="12" width="1" height="1" /><rect shape-rendering="crispEdges" fill="rgb(246, 172, 24)"  x="12" y="13" width="1" height="1" /><rect shape-rendering="crispEdges" fill="rgb(172, 57, 0)"  x="12" y="14" width="1" height="1" /><rect shape-rendering="crispEdges" fill="rgb(172, 57, 0)"  x="12" y="15" width="1" height="1" /><rect shape-rendering="crispEdges" fill="rgb(189, 82, 0)"  x="12" y="16" width="1" height="1" /><rect shape-rendering="crispEdges" fill="rgb(213, 115, 8)"  x="12" y="17" width="1" height="1" /><rect shape-rendering="crispEdges" fill="rgb(213, 115, 8)"  x="12" y="18" width="1" height="1" /><rect shape-rendering="crispEdges" fill="rgb(255, 213, 57)"  x="12" y="19" width="1" height="1" /><rect shape-rendering="crispEdges" fill="rgb(238, 148, 16)"  x="12" y="20" width="1" height="1" /><rect shape-rendering="crispEdges" fill="rgb(106, 32, 0)"  x="12" y="21" width="1" height="1" /><rect shape-rendering="crispEdges" fill="rgb(131, 139, 57)"  x="12" y="22" width="1" height="1" /><rect shape-rendering="crispEdges" fill="rgb(115, 98, 49)"  x="12" y="23" width="1" height="1" /><rect shape-rendering="crispEdges" fill="rgb(156, 115, 106)"  x="12" y="24" width="1" height="1" /><rect shape-rendering="crispEdges" fill="rgb(172, 139, 123)"  x="12" y="25" width="1" height="1" /><rect shape-rendering="crispEdges" fill="rgb(172, 139, 123)"  x="12" y="26" width="1" height="1" /><rect shape-rendering="crispEdges" fill="rgb(131, 98, 90)"  x="12" y="27" width="1" height="1" /><rect shape-rendering="crispEdges" fill="rgb(90, 57, 65)"  x="12" y="28" width="1" height="1" /><rect shape-rendering="crispEdges" fill="rgb(172, 82, 82)"  x="13" y="3" width="1" height="1" /><rect shape-rendering="crispEdges" fill="rgb(189, 82, 0)"  x="13" y="4" width="1" height="1" /><rect shape-rendering="crispEdges" fill="rgb(189, 82, 0)"  x="13" y="5" width="1" height="1" /><rect shape-rendering="crispEdges" fill="rgb(172, 82, 82)"  x="13" y="6" width="1" height="1" /><rect shape-rendering="crispEdges" fill="rgb(172, 82, 82)"  x="13" y="7" width="1" height="1" /><rect shape-rendering="crispEdges" fill="rgb(189, 82, 0)"  x="13" y="8" width="1" height="1" /><rect shape-rendering="crispEdges" fill="rgb(238, 148, 16)"  x="13" y="9" width="1" height="1" /><rect shape-rendering="crispEdges" fill="rgb(189, 82, 0)"  x="13" y="10" width="1" height="1" /><rect shape-rendering="crispEdges" fill="rgb(148, 49, 0)"  x="13" y="11" width="1" height="1" /><rect shape-rendering="crispEdges" fill="rgb(246, 197, 0)"  x="13" y="12" width="1" height="1" /><rect shape-rendering="crispEdges" fill="rgb(189, 82, 0)"  x="13" y="13" width="1" height="1" /><rect shape-rendering="crispEdges" fill="rgb(255, 255, 197)"  x="13" y="14" width="1" height="1" /><rect shape-rendering="crispEdges" fill="rgb(255, 205, 123)"  x="13" y="15" width="1" height="1" /><rect shape-rendering="crispEdges" fill="rgb(238, 148, 16)"  x="13" y="16" width="1" height="1" /><rect shape-rendering="crispEdges" fill="rgb(255, 255, 197)"  x="13" y="17" width="1" height="1" /><rect shape-rendering="crispEdges" fill="rgb(255, 255, 197)"  x="13" y="18" width="1" height="1" /><rect shape-rendering="crispEdges" fill="rgb(246, 172, 24)"  x="13" y="19" width="1" height="1" /><rect shape-rendering="crispEdges" fill="rgb(255, 238, 90)"  x="13" y="20" width="1" height="1" /><rect shape-rendering="crispEdges" fill="rgb(106, 32, 0)"  x="13" y="21" width="1" height="1" /><rect shape-rendering="crispEdges" fill="rgb(131, 139, 57)"  x="13" y="22" width="1" height="1" /><rect shape-rendering="crispEdges" fill="rgb(115, 98, 49)"  x="13" y="23" width="1" height="1" /><rect shape-rendering="crispEdges" fill="rgb(74, 41, 32)"  x="13" y="24" width="1" height="1" /><rect shape-rendering="crispEdges" fill="rgb(172, 139, 123)"  x="13" y="25" width="1" height="1" /><rect shape-rendering="crispEdges" fill="rgb(172, 139, 123)"  x="13" y="26" width="1" height="1" /><rect shape-rendering="crispEdges" fill="rgb(131, 98, 90)"  x="13" y="27" width="1" height="1" /><rect shape-rendering="crispEdges" fill="rgb(90, 57, 65)"  x="13" y="28" width="1" height="1" /><rect shape-rendering="crispEdges" fill="rgb(172, 82, 82)"  x="14" y="3" width="1" height="1" /><rect shape-rendering="crispEdges" fill="rgb(189, 82, 0)"  x="14" y="4" width="1" height="1" /><rect shape-rendering="crispEdges" fill="rgb(189, 82, 0)"  x="14" y="5" width="1" height="1" /><rect shape-rendering="crispEdges" fill="rgb(172, 82, 82)"  x="14" y="6" width="1" height="1" /><rect shape-rendering="crispEdges" fill="rgb(172, 82, 82)"  x="14" y="7" width="1" height="1" /><rect shape-rendering="crispEdges" fill="rgb(238, 148, 16)"  x="14" y="8" width="1" height="1" /><rect shape-rendering="crispEdges" fill="rgb(189, 82, 0)"  x="14" y="9" width="1" height="1" /><rect shape-rendering="crispEdges" fill="rgb(148, 49, 0)"  x="14" y="10" width="1" height="1" /><rect shape-rendering="crispEdges" fill="rgb(255, 213, 57)"  x="14" y="11" width="1" height="1" /><rect shape-rendering="crispEdges" fill="rgb(189, 82, 0)"  x="14" y="12" width="1" height="1" /><rect shape-rendering="crispEdges" fill="rgb(238, 148, 16)"  x="14" y="13" width="1" height="1" /><rect shape-rendering="crispEdges" fill="rgb(255, 222, 148)"  x="14" y="14" width="1" height="1" /><rect shape-rendering="crispEdges" fill="rgb(255, 205, 123)"  x="14" y="15" width="1" height="1" /><rect shape-rendering="crispEdges" fill="rgb(238, 148, 16)"  x="14" y="16" width="1" height="1" /><rect shape-rendering="crispEdges" fill="rgb(255, 255, 197)"  x="14" y="17" width="1" height="1" /><rect shape-rendering="crispEdges" fill="rgb(255, 255, 197)"  x="14" y="18" width="1" height="1" /><rect shape-rendering="crispEdges" fill="rgb(246, 172, 24)"  x="14" y="19" width="1" height="1" /><rect shape-rendering="crispEdges" fill="rgb(255, 238, 90)"  x="14" y="20" width="1" height="1" /><rect shape-rendering="crispEdges" fill="rgb(106, 32, 0)"  x="14" y="21" width="1" height="1" /><rect shape-rendering="crispEdges" fill="rgb(131, 139, 57)"  x="14" y="22" width="1" height="1" /><rect shape-rendering="crispEdges" fill="rgb(148, 172, 65)"  x="14" y="23" width="1" height="1" /><rect shape-rendering="crispEdges" fill="rgb(74, 41, 32)"  x="14" y="24" width="1" height="1" /><rect shape-rendering="crispEdges" fill="rgb(156, 115, 106)"  x="14" y="25" width="1" height="1" /><rect shape-rendering="crispEdges" fill="rgb(131, 98, 90)"  x="14" y="26" width="1" height="1" /><rect shape-rendering="crispEdges" fill="rgb(90, 57, 65)"  x="14" y="27" width="1" height="1" /><rect shape-rendering="crispEdges" fill="rgb(139, 57, 57)"  x="15" y="3" width="1" height="1" /><rect shape-rendering="crispEdges" fill="rgb(213, 115, 8)"  x="15" y="4" width="1" height="1" /><rect shape-rendering="crispEdges" fill="rgb(189, 82, 0)"  x="15" y="5" width="1" height="1" /><rect shape-rendering="crispEdges" fill="rgb(189, 82, 0)"  x="15" y="6" width="1" height="1" /><rect shape-rendering="crispEdges" fill="rgb(172, 82, 82)"  x="15" y="7" width="1" height="1" /><rect shape-rendering="crispEdges" fill="rgb(172, 82, 82)"  x="15" y="8" width="1" height="1" /><rect shape-rendering="crispEdges" fill="rgb(205, 115, 106)"  x="15" y="9" width="1" height="1" /><rect shape-rendering="crispEdges" fill="rgb(255, 213, 57)"  x="15" y="10" width="1" height="1" /><rect shape-rendering="crispEdges" fill="rgb(213, 115, 8)"  x="15" y="11" width="1" height="1" /><rect shape-rendering="crispEdges" fill="rgb(238, 148, 16)"  x="15" y="12" width="1" height="1" /><rect shape-rendering="crispEdges" fill="rgb(255, 205, 123)"  x="15" y="13" width="1" height="1" /><rect shape-rendering="crispEdges" fill="rgb(255, 238, 172)"  x="15" y="14" width="1" height="1" /><rect shape-rendering="crispEdges" fill="rgb(180, 106, 32)"  x="15" y="15" width="1" height="1" /><rect shape-rendering="crispEdges" fill="rgb(213, 115, 8)"  x="15" y="16" width="1" height="1" /><rect shape-rendering="crispEdges" fill="rgb(255, 255, 197)"  x="15" y="17" width="1" height="1" /><rect shape-rendering="crispEdges" fill="rgb(255, 255, 197)"  x="15" y="18" width="1" height="1" /><rect shape-rendering="crispEdges" fill="rgb(213, 115, 8)"  x="15" y="19" width="1" height="1" /><rect shape-rendering="crispEdges" fill="rgb(255, 238, 90)"  x="15" y="20" width="1" height="1" /><rect shape-rendering="crispEdges" fill="rgb(106, 32, 0)"  x="15" y="21" width="1" height="1" /><rect shape-rendering="crispEdges" fill="rgb(131, 139, 57)"  x="15" y="22" width="1" height="1" /><rect shape-rendering="crispEdges" fill="rgb(148, 172, 65)"  x="15" y="23" width="1" height="1" /><rect shape-rendering="crispEdges" fill="rgb(74, 41, 32)"  x="15" y="24" width="1" height="1" /><rect shape-rendering="crispEdges" fill="rgb(90, 57, 65)"  x="15" y="25" width="1" height="1" /><rect shape-rendering="crispEdges" fill="rgb(90, 57, 65)"  x="15" y="26" width="1" height="1" /><rect shape-rendering="crispEdges" fill="rgb(139, 57, 57)"  x="16" y="3" width="1" height="1" /><rect shape-rendering="crispEdges" fill="rgb(213, 115, 8)"  x="16" y="4" width="1" height="1" /><rect shape-rendering="crispEdges" fill="rgb(213, 115, 8)"  x="16" y="5" width="1" height="1" /><rect shape-rendering="crispEdges" fill="rgb(139, 57, 57)"  x="16" y="6" width="1" height="1" /><rect shape-rendering="crispEdges" fill="rgb(139, 57, 57)"  x="16" y="7" width="1" height="1" /><rect shape-rendering="crispEdges" fill="rgb(238, 148, 16)"  x="16" y="8" width="1" height="1" /><rect shape-rendering="crispEdges" fill="rgb(213, 115, 8)"  x="16" y="9" width="1" height="1" /><rect shape-rendering="crispEdges" fill="rgb(213, 115, 8)"  x="16" y="10" width="1" height="1" /><rect shape-rendering="crispEdges" fill="rgb(255, 205, 123)"  x="16" y="11" width="1" height="1" /><rect shape-rendering="crispEdges" fill="rgb(255, 205, 123)"  x="16" y="12" width="1" height="1" /><rect shape-rendering="crispEdges" fill="rgb(255, 205, 123)"  x="16" y="13" width="1" height="1" /><rect shape-rendering="crispEdges" fill="rgb(139, 82, 32)"  x="16" y="14" width="1" height="1" /><rect shape-rendering="crispEdges" fill="rgb(180, 106, 32)"  x="16" y="15" width="1" height="1" /><rect shape-rendering="crispEdges" fill="rgb(246, 172, 24)"  x="16" y="16" width="1" height="1" /><rect shape-rendering="crispEdges" fill="rgb(255, 213, 57)"  x="16" y="17" width="1" height="1" /><rect shape-rendering="crispEdges" fill="rgb(213, 115, 8)"  x="16" y="18" width="1" height="1" /><rect shape-rendering="crispEdges" fill="rgb(213, 115, 8)"  x="16" y="19" width="1" height="1" /><rect shape-rendering="crispEdges" fill="rgb(255, 238, 90)"  x="16" y="20" width="1" height="1" /><rect shape-rendering="crispEdges" fill="rgb(106, 32, 0)"  x="16" y="21" width="1" height="1" /><rect shape-rendering="crispEdges" fill="rgb(131, 139, 57)"  x="16" y="22" width="1" height="1" /><rect shape-rendering="crispEdges" fill="rgb(148, 172, 65)"  x="16" y="23" width="1" height="1" /><rect shape-rendering="crispEdges" fill="rgb(74, 41, 32)"  x="16" y="24" width="1" height="1" /><rect shape-rendering="crispEdges" fill="rgb(74, 41, 49)"  x="16" y="25" width="1" height="1" /><rect shape-rendering="crispEdges" fill="rgb(139, 57, 57)"  x="17" y="3" width="1" height="1" /><rect shape-rendering="crispEdges" fill="rgb(213, 115, 8)"  x="17" y="4" width="1" height="1" /><rect shape-rendering="crispEdges" fill="rgb(148, 49, 0)"  x="17" y="5" width="1" height="1" /><rect shape-rendering="crispEdges" fill="rgb(238, 148, 16)"  x="17" y="6" width="1" height="1" /><rect shape-rendering="crispEdges" fill="rgb(238, 148, 16)"  x="17" y="7" width="1" height="1" /><rect shape-rendering="crispEdges" fill="rgb(238, 148, 16)"  x="17" y="8" width="1" height="1" /><rect shape-rendering="crispEdges" fill="rgb(213, 115, 8)"  x="17" y="9" width="1" height="1" /><rect shape-rendering="crispEdges" fill="rgb(255, 205, 123)"  x="17" y="10" width="1" height="1" /><rect shape-rendering="crispEdges" fill="rgb(255, 205, 123)"  x="17" y="11" width="1" height="1" /><rect shape-rendering="crispEdges" fill="rgb(255, 205, 123)"  x="17" y="12" width="1" height="1" /><rect shape-rendering="crispEdges" fill="rgb(139, 82, 32)"  x="17" y="13" width="1" height="1" /><rect shape-rendering="crispEdges" fill="rgb(180, 106, 32)"  x="17" y="14" width="1" height="1" /><rect shape-rendering="crispEdges" fill="rgb(222, 131, 41)"  x="17" y="15" width="1" height="1" /><rect shape-rendering="crispEdges" fill="rgb(246, 172, 24)"  x="17" y="16" width="1" height="1" /><rect shape-rendering="crispEdges" fill="rgb(246, 172, 24)"  x="17" y="17" width="1" height="1" /><rect shape-rendering="crispEdges" fill="rgb(172, 57, 0)"  x="17" y="18" width="1" height="1" /><rect shape-rendering="crispEdges" fill="rgb(172, 57, 0)"  x="17" y="19" width="1" height="1" /><rect shape-rendering="crispEdges" fill="rgb(246, 172, 24)"  x="17" y="20" width="1" height="1" /><rect shape-rendering="crispEdges" fill="rgb(115, 74, 82)"  x="17" y="21" width="1" height="1" /><rect shape-rendering="crispEdges" fill="rgb(148, 172, 65)"  x="17" y="22" width="1" height="1" /><rect shape-rendering="crispEdges" fill="rgb(148, 172, 65)"  x="17" y="23" width="1" height="1" /><rect shape-rendering="crispEdges" fill="rgb(74, 41, 32)"  x="17" y="24" width="1" height="1" /><rect shape-rendering="crispEdges" fill="rgb(90, 57, 65)"  x="17" y="25" width="1" height="1" /><rect shape-rendering="crispEdges" fill="rgb(115, 74, 82)"  x="17" y="26" width="1" height="1" /><rect shape-rendering="crispEdges" fill="rgb(139, 57, 57)"  x="18" y="3" width="1" height="1" /><rect shape-rendering="crispEdges" fill="rgb(230, 164, 98)"  x="18" y="4" width="1" height="1" /><rect shape-rendering="crispEdges" fill="rgb(148, 49, 0)"  x="18" y="5" width="1" height="1" /><rect shape-rendering="crispEdges" fill="rgb(213, 115, 8)"  x="18" y="6" width="1" height="1" /><rect shape-rendering="crispEdges" fill="rgb(238, 148, 16)"  x="18" y="7" width="1" height="1" /><rect shape-rendering="crispEdges" fill="rgb(238, 148, 16)"  x="18" y="8" width="1" height="1" /><rect shape-rendering="crispEdges" fill="rgb(255, 205, 123)"  x="18" y="9" width="1" height="1" /><rect shape-rendering="crispEdges" fill="rgb(255, 205, 123)"  x="18" y="10" width="1" height="1" /><rect shape-rendering="crispEdges" fill="rgb(180, 106, 32)"  x="18" y="11" width="1" height="1" /><rect shape-rendering="crispEdges" fill="rgb(139, 82, 32)"  x="18" y="12" width="1" height="1" /><rect shape-rendering="crispEdges" fill="rgb(180, 106, 32)"  x="18" y="13" width="1" height="1" /><rect shape-rendering="crispEdges" fill="rgb(164, 123, 98)"  x="18" y="14" width="1" height="1" /><rect shape-rendering="crispEdges" fill="rgb(255, 255, 197)"  x="18" y="15" width="1" height="1" /><rect shape-rendering="crispEdges" fill="rgb(255, 213, 57)"  x="18" y="16" width="1" height="1" /><rect shape-rendering="crispEdges" fill="rgb(255, 255, 197)"  x="18" y="17" width="1" height="1" /><rect shape-rendering="crispEdges" fill="rgb(255, 255, 197)"  x="18" y="18" width="1" height="1" /><rect shape-rendering="crispEdges" fill="rgb(189, 82, 0)"  x="18" y="19" width="1" height="1" /><rect shape-rendering="crispEdges" fill="rgb(246, 172, 24)"  x="18" y="20" width="1" height="1" /><rect shape-rendering="crispEdges" fill="rgb(106, 32, 0)"  x="18" y="21" width="1" height="1" /><rect shape-rendering="crispEdges" fill="rgb(148, 172, 65)"  x="18" y="22" width="1" height="1" /><rect shape-rendering="crispEdges" fill="rgb(74, 41, 32)"  x="18" y="23" width="1" height="1" /><rect shape-rendering="crispEdges" fill="rgb(131, 98, 90)"  x="18" y="24" width="1" height="1" /><rect shape-rendering="crispEdges" fill="rgb(131, 98, 90)"  x="18" y="25" width="1" height="1" /><rect shape-rendering="crispEdges" fill="rgb(131, 98, 90)"  x="18" y="26" width="1" height="1" /><rect shape-rendering="crispEdges" fill="rgb(115, 74, 82)"  x="18" y="27" width="1" height="1" /><rect shape-rendering="crispEdges" fill="rgb(139, 57, 57)"  x="19" y="3" width="1" height="1" /><rect shape-rendering="crispEdges" fill="rgb(230, 164, 98)"  x="19" y="4" width="1" height="1" /><rect shape-rendering="crispEdges" fill="rgb(148, 49, 0)"  x="19" y="5" width="1" height="1" /><rect shape-rendering="crispEdges" fill="rgb(189, 82, 0)"  x="19" y="6" width="1" height="1" /><rect shape-rendering="crispEdges" fill="rgb(189, 82, 0)"  x="19" y="7" width="1" height="1" /><rect shape-rendering="crispEdges" fill="rgb(189, 82, 0)"  x="19" y="8" width="1" height="1" /><rect shape-rendering="crispEdges" fill="rgb(180, 106, 32)"  x="19" y="9" width="1" height="1" /><rect shape-rendering="crispEdges" fill="rgb(139, 82, 32)"  x="19" y="10" width="1" height="1" /><rect shape-rendering="crispEdges" fill="rgb(139, 82, 32)"  x="19" y="11" width="1" height="1" /><rect shape-rendering="crispEdges" fill="rgb(180, 106, 32)"  x="19" y="12" width="1" height="1" /><rect shape-rendering="crispEdges" fill="rgb(164, 123, 98)"  x="19" y="13" width="1" height="1" /><rect shape-rendering="crispEdges" fill="rgb(255, 255, 197)"  x="19" y="14" width="1" height="1" /><rect shape-rendering="crispEdges" fill="rgb(255, 255, 197)"  x="19" y="15" width="1" height="1" /><rect shape-rendering="crispEdges" fill="rgb(255, 213, 57)"  x="19" y="16" width="1" height="1" /><rect shape-rendering="crispEdges" fill="rgb(255, 255, 197)"  x="19" y="17" width="1" height="1" /><rect shape-rendering="crispEdges" fill="rgb(255, 255, 197)"  x="19" y="18" width="1" height="1" /><rect shape-rendering="crispEdges" fill="rgb(246, 172, 24)"  x="19" y="19" width="1" height="1" /><rect shape-rendering="crispEdges" fill="rgb(255, 213, 57)"  x="19" y="20" width="1" height="1" /><rect shape-rendering="crispEdges" fill="rgb(106, 32, 0)"  x="19" y="21" width="1" height="1" /><rect shape-rendering="crispEdges" fill="rgb(148, 172, 65)"  x="19" y="22" width="1" height="1" /><rect shape-rendering="crispEdges" fill="rgb(74, 41, 32)"  x="19" y="23" width="1" height="1" /><rect shape-rendering="crispEdges" fill="rgb(156, 115, 106)"  x="19" y="24" width="1" height="1" /><rect shape-rendering="crispEdges" fill="rgb(156, 115, 106)"  x="19" y="25" width="1" height="1" /><rect shape-rendering="crispEdges" fill="rgb(131, 98, 90)"  x="19" y="26" width="1" height="1" /><rect shape-rendering="crispEdges" fill="rgb(90, 57, 65)"  x="19" y="27" width="1" height="1" /><rect shape-rendering="crispEdges" fill="rgb(123, 41, 41)"  x="20" y="3" width="1" height="1" /><rect shape-rendering="crispEdges" fill="rgb(123, 41, 41)"  x="20" y="4" width="1" height="1" /><rect shape-rendering="crispEdges" fill="rgb(148, 49, 0)"  x="20" y="5" width="1" height="1" /><rect shape-rendering="crispEdges" fill="rgb(189, 82, 0)"  x="20" y="6" width="1" height="1" /><rect shape-rendering="crispEdges" fill="rgb(189, 82, 0)"  x="20" y="7" width="1" height="1" /><rect shape-rendering="crispEdges" fill="rgb(180, 106, 32)"  x="20" y="8" width="1" height="1" /><rect shape-rendering="crispEdges" fill="rgb(139, 82, 32)"  x="20" y="9" width="1" height="1" /><rect shape-rendering="crispEdges" fill="rgb(180, 106, 32)"  x="20" y="10" width="1" height="1" /><rect shape-rendering="crispEdges" fill="rgb(180, 106, 32)"  x="20" y="11" width="1" height="1" /><rect shape-rendering="crispEdges" fill="rgb(180, 106, 32)"  x="20" y="12" width="1" height="1" /><rect shape-rendering="crispEdges" fill="rgb(255, 255, 197)"  x="20" y="13" width="1" height="1" /><rect shape-rendering="crispEdges" fill="rgb(255, 255, 197)"  x="20" y="14" width="1" height="1" /><rect shape-rendering="crispEdges" fill="rgb(255, 255, 197)"  x="20" y="15" width="1" height="1" /><rect shape-rendering="crispEdges" fill="rgb(238, 148, 16)"  x="20" y="16" width="1" height="1" /><rect shape-rendering="crispEdges" fill="rgb(255, 255, 197)"  x="20" y="17" width="1" height="1" /><rect shape-rendering="crispEdges" fill="rgb(255, 255, 197)"  x="20" y="18" width="1" height="1" /><rect shape-rendering="crispEdges" fill="rgb(246, 172, 24)"  x="20" y="19" width="1" height="1" /><rect shape-rendering="crispEdges" fill="rgb(255, 213, 57)"  x="20" y="20" width="1" height="1" /><rect shape-rendering="crispEdges" fill="rgb(106, 32, 0)"  x="20" y="21" width="1" height="1" /><rect shape-rendering="crispEdges" fill="rgb(148, 172, 65)"  x="20" y="22" width="1" height="1" /><rect shape-rendering="crispEdges" fill="rgb(74, 41, 32)"  x="20" y="23" width="1" height="1" /><rect shape-rendering="crispEdges" fill="rgb(197, 156, 131)"  x="20" y="24" width="1" height="1" /><rect shape-rendering="crispEdges" fill="rgb(156, 115, 106)"  x="20" y="25" width="1" height="1" /><rect shape-rendering="crispEdges" fill="rgb(131, 98, 90)"  x="20" y="26" width="1" height="1" /><rect shape-rendering="crispEdges" fill="rgb(90, 57, 65)"  x="20" y="27" width="1" height="1" /><rect shape-rendering="crispEdges" fill="rgb(148, 49, 0)"  x="21" y="5" width="1" height="1" /><rect shape-rendering="crispEdges" fill="rgb(255, 255, 197)"  x="21" y="6" width="1" height="1" /><rect shape-rendering="crispEdges" fill="rgb(255, 255, 197)"  x="21" y="7" width="1" height="1" /><rect shape-rendering="crispEdges" fill="rgb(255, 255, 197)"  x="21" y="8" width="1" height="1" /><rect shape-rendering="crispEdges" fill="rgb(139, 82, 32)"  x="21" y="9" width="1" height="1" /><rect shape-rendering="crispEdges" fill="rgb(139, 82, 32)"  x="21" y="10" width="1" height="1" /><rect shape-rendering="crispEdges" fill="rgb(180, 106, 32)"  x="21" y="11" width="1" height="1" /><rect shape-rendering="crispEdges" fill="rgb(180, 106, 32)"  x="21" y="12" width="1" height="1" /><rect shape-rendering="crispEdges" fill="rgb(255, 255, 197)"  x="21" y="13" width="1" height="1" /><rect shape-rendering="crispEdges" fill="rgb(255, 255, 197)"  x="21" y="14" width="1" height="1" /><rect shape-rendering="crispEdges" fill="rgb(246, 172, 24)"  x="21" y="15" width="1" height="1" /><rect shape-rendering="crispEdges" fill="rgb(238, 148, 16)"  x="21" y="16" width="1" height="1" /><rect shape-rendering="crispEdges" fill="rgb(213, 115, 8)"  x="21" y="17" width="1" height="1" /><rect shape-rendering="crispEdges" fill="rgb(213, 115, 8)"  x="21" y="18" width="1" height="1" /><rect shape-rendering="crispEdges" fill="rgb(213, 115, 8)"  x="21" y="19" width="1" height="1" /><rect shape-rendering="crispEdges" fill="rgb(255, 238, 90)"  x="21" y="20" width="1" height="1" /><rect shape-rendering="crispEdges" fill="rgb(106, 32, 0)"  x="21" y="21" width="1" height="1" /><rect shape-rendering="crispEdges" fill="rgb(98, 74, 41)"  x="21" y="22" width="1" height="1" /><rect shape-rendering="crispEdges" fill="rgb(74, 41, 32)"  x="21" y="23" width="1" height="1" /><rect shape-rendering="crispEdges" fill="rgb(156, 115, 106)"  x="21" y="24" width="1" height="1" /><rect shape-rendering="crispEdges" fill="rgb(115, 74, 82)"  x="21" y="25" width="1" height="1" /><rect shape-rendering="crispEdges" fill="rgb(90, 57, 65)"  x="21" y="26" width="1" height="1" /><rect shape-rendering="crispEdges" fill="rgb(148, 49, 0)"  x="22" y="5" width="1" height="1" /><rect shape-rendering="crispEdges" fill="rgb(255, 255, 197)"  x="22" y="6" width="1" height="1" /><rect shape-rendering="crispEdges" fill="rgb(255, 255, 197)"  x="22" y="7" width="1" height="1" /><rect shape-rendering="crispEdges" fill="rgb(255, 205, 123)"  x="22" y="8" width="1" height="1" /><rect shape-rendering="crispEdges" fill="rgb(139, 82, 32)"  x="22" y="9" width="1" height="1" /><rect shape-rendering="crispEdges" fill="rgb(139, 82, 32)"  x="22" y="10" width="1" height="1" /><rect shape-rendering="crispEdges" fill="rgb(180, 106, 32)"  x="22" y="11" width="1" height="1" /><rect shape-rendering="crispEdges" fill="rgb(255, 222, 148)"  x="22" y="12" width="1" height="1" /><rect shape-rendering="crispEdges" fill="rgb(238, 148, 16)"  x="22" y="13" width="1" height="1" /><rect shape-rendering="crispEdges" fill="rgb(238, 148, 16)"  x="22" y="14" width="1" height="1" /><rect shape-rendering="crispEdges" fill="rgb(238, 148, 16)"  x="22" y="15" width="1" height="1" /><rect shape-rendering="crispEdges" fill="rgb(246, 172, 24)"  x="22" y="16" width="1" height="1" /><rect shape-rendering="crispEdges" fill="rgb(255, 213, 57)"  x="22" y="17" width="1" height="1" /><rect shape-rendering="crispEdges" fill="rgb(255, 213, 57)"  x="22" y="18" width="1" height="1" /><rect shape-rendering="crispEdges" fill="rgb(255, 213, 57)"  x="22" y="19" width="1" height="1" /><rect shape-rendering="crispEdges" fill="rgb(255, 238, 90)"  x="22" y="20" width="1" height="1" /><rect shape-rendering="crispEdges" fill="rgb(106, 32, 0)"  x="22" y="21" width="1" height="1" /><rect shape-rendering="crispEdges" fill="rgb(115, 98, 49)"  x="22" y="22" width="1" height="1" /><rect shape-rendering="crispEdges" fill="rgb(98, 74, 41)"  x="22" y="23" width="1" height="1" /><rect shape-rendering="crispEdges" fill="rgb(148, 49, 0)"  x="23" y="5" width="1" height="1" /><rect shape-rendering="crispEdges" fill="rgb(230, 164, 98)"  x="23" y="6" width="1" height="1" /><rect shape-rendering="crispEdges" fill="rgb(255, 205, 123)"  x="23" y="7" width="1" height="1" /><rect shape-rendering="crispEdges" fill="rgb(255, 222, 148)"  x="23" y="8" width="1" height="1" /><rect shape-rendering="crispEdges" fill="rgb(255, 222, 148)"  x="23" y="9" width="1" height="1" /><rect shape-rendering="crispEdges" fill="rgb(139, 82, 32)"  x="23" y="10" width="1" height="1" /><rect shape-rendering="crispEdges" fill="rgb(255, 222, 148)"  x="23" y="11" width="1" height="1" /><rect shape-rendering="crispEdges" fill="rgb(255, 222, 148)"  x="23" y="12" width="1" height="1" /><rect shape-rendering="crispEdges" fill="rgb(255, 255, 197)"  x="23" y="13" width="1" height="1" /><rect shape-rendering="crispEdges" fill="rgb(255, 255, 197)"  x="23" y="14" width="1" height="1" /><rect shape-rendering="crispEdges" fill="rgb(246, 172, 24)"  x="23" y="15" width="1" height="1" /><rect shape-rendering="crispEdges" fill="rgb(255, 213, 57)"  x="23" y="16" width="1" height="1" /><rect shape-rendering="crispEdges" fill="rgb(213, 115, 8)"  x="23" y="17" width="1" height="1" /><rect shape-rendering="crispEdges" fill="rgb(106, 32, 0)"  x="23" y="18" width="1" height="1" /><rect shape-rendering="crispEdges" fill="rgb(106, 32, 0)"  x="23" y="19" width="1" height="1" /><rect shape-rendering="crispEdges" fill="rgb(106, 32, 0)"  x="23" y="20" width="1" height="1" /><rect shape-rendering="crispEdges" fill="rgb(131, 139, 57)"  x="23" y="21" width="1" height="1" /><rect shape-rendering="crispEdges" fill="rgb(115, 98, 49)"  x="23" y="22" width="1" height="1" /><rect shape-rendering="crispEdges" fill="rgb(74, 41, 32)"  x="23" y="23" width="1" height="1" /><rect shape-rendering="crispEdges" fill="rgb(180, 74, 0)"  x="24" y="5" width="1" height="1" /><rect shape-rendering="crispEdges" fill="rgb(230, 164, 98)"  x="24" y="6" width="1" height="1" /><rect shape-rendering="crispEdges" fill="rgb(255, 205, 123)"  x="24" y="7" width="1" height="1" /><rect shape-rendering="crispEdges" fill="rgb(255, 222, 148)"  x="24" y="8" width="1" height="1" /><rect shape-rendering="crispEdges" fill="rgb(255, 222, 148)"  x="24" y="9" width="1" height="1" /><rect shape-rendering="crispEdges" fill="rgb(189, 82, 0)"  x="24" y="10" width="1" height="1" /><rect shape-rendering="crispEdges" fill="rgb(213, 115, 8)"  x="24" y="11" width="1" height="1" /><rect shape-rendering="crispEdges" fill="rgb(255, 255, 197)"  x="24" y="12" width="1" height="1" /><rect shape-rendering="crispEdges" fill="rgb(255, 255, 197)"  x="24" y="13" width="1" height="1" /><rect shape-rendering="crispEdges" fill="rgb(246, 172, 24)"  x="24" y="14" width="1" height="1" /><rect shape-rendering="crispEdges" fill="rgb(255, 238, 90)"  x="24" y="15" width="1" height="1" /><rect shape-rendering="crispEdges" fill="rgb(74, 41, 32)"  x="24" y="16" width="1" height="1" /><rect shape-rendering="crispEdges" fill="rgb(115, 98, 49)"  x="24" y="17" width="1" height="1" /><rect shape-rendering="crispEdges" fill="rgb(115, 98, 49)"  x="24" y="18" width="1" height="1" /><rect shape-rendering="crispEdges" fill="rgb(131, 139, 57)"  x="24" y="19" width="1" height="1" /><rect shape-rendering="crispEdges" fill="rgb(180, 189, 90)"  x="24" y="20" width="1" height="1" /><rect shape-rendering="crispEdges" fill="rgb(180, 189, 90)"  x="24" y="21" width="1" height="1" /><rect shape-rendering="crispEdges" fill="rgb(115, 98, 49)"  x="24" y="22" width="1" height="1" /><rect shape-rendering="crispEdges" fill="rgb(180, 74, 0)"  x="25" y="5" width="1" height="1" /><rect shape-rendering="crispEdges" fill="rgb(230, 164, 98)"  x="25" y="6" width="1" height="1" /><rect shape-rendering="crispEdges" fill="rgb(255, 222, 148)"  x="25" y="7" width="1" height="1" /><rect shape-rendering="crispEdges" fill="rgb(255, 222, 148)"  x="25" y="8" width="1" height="1" /><rect shape-rendering="crispEdges" fill="rgb(255, 222, 148)"  x="25" y="9" width="1" height="1" /><rect shape-rendering="crispEdges" fill="rgb(189, 82, 0)"  x="25" y="10" width="1" height="1" /><rect shape-rendering="crispEdges" fill="rgb(213, 115, 8)"  x="25" y="11" width="1" height="1" /><rect shape-rendering="crispEdges" fill="rgb(213, 115, 8)"  x="25" y="12" width="1" height="1" /><rect shape-rendering="crispEdges" fill="rgb(238, 148, 16)"  x="25" y="13" width="1" height="1" /><rect shape-rendering="crispEdges" fill="rgb(255, 213, 57)"  x="25" y="14" width="1" height="1" /><rect shape-rendering="crispEdges" fill="rgb(106, 32, 0)"  x="25" y="15" width="1" height="1" /><rect shape-rendering="crispEdges" fill="rgb(115, 98, 49)"  x="25" y="16" width="1" height="1" /><rect shape-rendering="crispEdges" fill="rgb(115, 98, 49)"  x="25" y="17" width="1" height="1" /><rect shape-rendering="crispEdges" fill="rgb(115, 98, 49)"  x="25" y="18" width="1" height="1" /><rect shape-rendering="crispEdges" fill="rgb(115, 98, 49)"  x="25" y="19" width="1" height="1" /><rect shape-rendering="crispEdges" fill="rgb(98, 74, 41)"  x="25" y="20" width="1" height="1" /><rect shape-rendering="crispEdges" fill="rgb(98, 74, 41)"  x="25" y="21" width="1" height="1" /><rect shape-rendering="crispEdges" fill="rgb(205, 115, 0)"  x="26" y="5" width="1" height="1" /><rect shape-rendering="crispEdges" fill="rgb(230, 164, 98)"  x="26" y="6" width="1" height="1" /><rect shape-rendering="crispEdges" fill="rgb(255, 222, 148)"  x="26" y="7" width="1" height="1" /><rect shape-rendering="crispEdges" fill="rgb(255, 255, 197)"  x="26" y="8" width="1" height="1" /><rect shape-rendering="crispEdges" fill="rgb(255, 189, 98)"  x="26" y="9" width="1" height="1" /><rect shape-rendering="crispEdges" fill="rgb(197, 148, 98)"  x="26" y="10" width="1" height="1" /><rect shape-rendering="crispEdges" fill="rgb(189, 82, 0)"  x="26" y="11" width="1" height="1" /><rect shape-rendering="crispEdges" fill="rgb(213, 115, 8)"  x="26" y="12" width="1" height="1" /><rect shape-rendering="crispEdges" fill="rgb(255, 213, 57)"  x="26" y="13" width="1" height="1" /><rect shape-rendering="crispEdges" fill="rgb(106, 32, 0)"  x="26" y="14" width="1" height="1" /><rect shape-rendering="crispEdges" fill="rgb(115, 98, 49)"  x="26" y="15" width="1" height="1" /><rect shape-rendering="crispEdges" fill="rgb(131, 139, 57)"  x="26" y="16" width="1" height="1" /><rect shape-rendering="crispEdges" fill="rgb(148, 172, 65)"  x="26" y="17" width="1" height="1" /><rect shape-rendering="crispEdges" fill="rgb(148, 172, 65)"  x="26" y="18" width="1" height="1" /><rect shape-rendering="crispEdges" fill="rgb(180, 189, 90)"  x="26" y="19" width="1" height="1" /><rect shape-rendering="crispEdges" fill="rgb(74, 41, 32)"  x="26" y="20" width="1" height="1" /><rect shape-rendering="crispEdges" fill="rgb(205, 115, 0)"  x="27" y="5" width="1" height="1" /><rect shape-rendering="crispEdges" fill="rgb(205, 115, 0)"  x="27" y="6" width="1" height="1" /><rect shape-rendering="crispEdges" fill="rgb(255, 255, 197)"  x="27" y="7" width="1" height="1" /><rect shape-rendering="crispEdges" fill="rgb(255, 255, 197)"  x="27" y="8" width="1" height="1" /><rect shape-rendering="crispEdges" fill="rgb(255, 189, 98)"  x="27" y="9" width="1" height="1" /><rect shape-rendering="crispEdges" fill="rgb(255, 189, 98)"  x="27" y="10" width="1" height="1" /><rect shape-rendering="crispEdges" fill="rgb(255, 213, 57)"  x="27" y="11" width="1" height="1" /><rect shape-rendering="crispEdges" fill="rgb(255, 213, 57)"  x="27" y="12" width="1" height="1" /><rect shape-rendering="crispEdges" fill="rgb(238, 148, 16)"  x="27" y="13" width="1" height="1" /><rect shape-rendering="crispEdges" fill="rgb(106, 32, 0)"  x="27" y="14" width="1" height="1" /><rect shape-rendering="crispEdges" fill="rgb(98, 74, 41)"  x="27" y="15" width="1" height="1" /><rect shape-rendering="crispEdges" fill="rgb(98, 74, 41)"  x="27" y="16" width="1" height="1" /><rect shape-rendering="crispEdges" fill="rgb(98, 74, 41)"  x="27" y="17" width="1" height="1" /><rect shape-rendering="crispEdges" fill="rgb(98, 74, 41)"  x="27" y="18" width="1" height="1" /><rect shape-rendering="crispEdges" fill="rgb(74, 41, 32)"  x="27" y="19" width="1" height="1" /><rect shape-rendering="crispEdges" fill="rgb(180, 74, 0)"  x="28" y="7" width="1" height="1" /><rect shape-rendering="crispEdges" fill="rgb(180, 74, 0)"  x="28" y="8" width="1" height="1" /><rect shape-rendering="crispEdges" fill="rgb(148, 49, 0)"  x="28" y="9" width="1" height="1" /><rect shape-rendering="crispEdges" fill="rgb(148, 49, 0)"  x="28" y="10" width="1" height="1" /><rect shape-rendering="crispEdges" fill="rgb(106, 32, 0)"  x="28" y="11" width="1" height="1" /><rect shape-rendering="crispEdges" fill="rgb(106, 32, 0)"  x="28" y="12" width="1" height="1" /><rect shape-rendering="crispEdges" fill="rgb(106, 32, 0)"  x="28" y="13" width="1" height="1" /><rect shape-rendering="crispEdges" fill="rgb(148, 172, 65)"  x="28" y="14" width="1" height="1" /><rect shape-rendering="crispEdges" fill="rgb(148, 172, 65)"  x="28" y="15" width="1" height="1" /><rect shape-rendering="crispEdges" fill="rgb(131, 139, 57)"  x="28" y="16" width="1" height="1" /><rect shape-rendering="crispEdges" fill="rgb(98, 74, 41)"  x="28" y="17" width="1" height="1" /><rect shape-rendering="crispEdges" fill="rgb(74, 41, 32)"  x="29" y="11" width="1" height="1" /><rect shape-rendering="crispEdges" fill="rgb(98, 74, 41)"  x="29" y="12" width="1" height="1" /><rect shape-rendering="crispEdges" fill="rgb(98, 74, 41)"  x="29" y="13" width="1" height="1" /><rect shape-rendering="crispEdges" fill="rgb(115, 98, 49)"  x="29" y="14" width="1" height="1" /><rect shape-rendering="crispEdges" fill="rgb(115, 98, 49)"  x="29" y="15" width="1" height="1" /></svg>