<svg xmlns="http://www.w3.org/2000/svg" xmlns:xlink= "http://www.w3.org/1999/xlink" width="32" height="32" viewBox ="0 0 32 32"><rect shape-rendering="crispEdges" fill="rgb(222, 164, 74)"  x="4" y="24" width="1" height="1" /><rect shape-rendering="crispEdges" fill="rgb(238, 238, 238)"  x="4" y="25" width="1" height="1" /><rect shape-rendering="crispEdges" fill="rgb(238, 238, 238)"  x="4" y="26" width="1" height="1" /><rect shape-rendering="crispEdges" fill="rgb(222, 164, 74)"  x="5" y="23" width="1" height="1" /><rect shape-rendering="crispEdges" fill="rgb(205, 123, 32)"  x="5" y="24" width="1" height="1" /><rect shape-rendering="crispEdges" fill="rgb(205, 123, 32)"  x="5" y="25" width="1" height="1" /><rect shape-rendering="crispEdges" fill="rgb(238, 238, 238)"  x="5" y="26" width="1" height="1" /><rect shape-rendering="crispEdges" fill="rgb(57, 49, 57)"  x="5" y="27" width="1" height="1" /><rect shape-rendering="crispEdges" fill="rgb(222, 164, 74)"  x="6" y="22" width="1" height="1" /><rect shape-rendering="crispEdges" fill="rgb(213, 148, 41)"  x="6" y="23" width="1" height="1" /><rect shape-rendering="crispEdges" fill="rgb(213, 148, 41)"  x="6" y="24" width="1" height="1" /><rect shape-rendering="crispEdges" fill="rgb(180, 98, 32)"  x="6" y="25" width="1" height="1" /><rect shape-rendering="crispEdges" fill="rgb(180, 189, 180)"  x="6" y="26" width="1" height="1" /><rect shape-rendering="crispEdges" fill="rgb(57, 49, 57)"  x="6" y="27" width="1" height="1" /><rect shape-rendering="crispEdges" fill="rgb(238, 222, 238)"  x="7" y="17" width="1" height="1" /><rect shape-rendering="crispEdges" fill="rgb(222, 164, 74)"  x="7" y="22" width="1" height="1" /><rect shape-rendering="crispEdges" fill="rgb(222, 156, 49)"  x="7" y="23" width="1" height="1" /><rect shape-rendering="crispEdges" fill="rgb(213, 148, 32)"  x="7" y="24" width="1" height="1" /><rect shape-rendering="crispEdges" fill="rgb(180, 98, 32)"  x="7" y="25" width="1" height="1" /><rect shape-rendering="crispEdges" fill="rgb(180, 189, 180)"  x="7" y="26" width="1" height="1" /><rect shape-rendering="crispEdges" fill="rgb(57, 49, 57)"  x="7" y="27" width="1" height="1" /><rect shape-rendering="crispEdges" fill="rgb(238, 222, 238)"  x="8" y="16" width="1" height="1" /><rect shape-rendering="crispEdges" fill="rgb(189, 180, 205)"  x="8" y="17" width="1" height="1" /><rect shape-rendering="crispEdges" fill="rgb(49, 41, 74)"  x="8" y="18" width="1" height="1" /><rect shape-rendering="crispEdges" fill="rgb(222, 164, 74)"  x="8" y="21" width="1" height="1" /><rect shape-rendering="crispEdges" fill="rgb(213, 148, 41)"  x="8" y="22" width="1" height="1" /><rect shape-rendering="crispEdges" fill="rgb(213, 148, 32)"  x="8" y="23" width="1" height="1" /><rect shape-rendering="crispEdges" fill="rgb(205, 123, 32)"  x="8" y="24" width="1" height="1" /><rect shape-rendering="crispEdges" fill="rgb(180, 98, 32)"  x="8" y="25" width="1" height="1" /><rect shape-rendering="crispEdges" fill="rgb(98, 98, 98)"  x="8" y="26" width="1" height="1" /><rect shape-rendering="crispEdges" fill="rgb(57, 49, 57)"  x="8" y="27" width="1" height="1" /><rect shape-rendering="crispEdges" fill="rgb(255, 255, 255)"  x="9" y="13" width="1" height="1" /><rect shape-rendering="crispEdges" fill="rgb(255, 255, 255)"  x="9" y="14" width="1" height="1" /><rect shape-rendering="crispEdges" fill="rgb(238, 222, 238)"  x="9" y="15" width="1" height="1" /><rect shape-rendering="crispEdges" fill="rgb(139, 115, 156)"  x="9" y="16" width="1" height="1" /><rect shape-rendering="crispEdges" fill="rgb(57, 41, 90)"  x="9" y="17" width="1" height="1" /><rect shape-rendering="crispEdges" fill="rgb(49, 41, 74)"  x="9" y="18" width="1" height="1" /><rect shape-rendering="crispEdges" fill="rgb(189, 172, 189)"  x="9" y="20" width="1" height="1" /><rect shape-rendering="crispEdges" fill="rgb(238, 238, 238)"  x="9" y="21" width="1" height="1" /><rect shape-rendering="crispEdges" fill="rgb(213, 148, 32)"  x="9" y="22" width="1" height="1" /><rect shape-rendering="crispEdges" fill="rgb(205, 148, 41)"  x="9" y="23" width="1" height="1" /><rect shape-rendering="crispEdges" fill="rgb(180, 98, 32)"  x="9" y="24" width="1" height="1" /><rect shape-rendering="crispEdges" fill="rgb(180, 189, 180)"  x="9" y="25" width="1" height="1" /><rect shape-rendering="crispEdges" fill="rgb(57, 49, 57)"  x="9" y="26" width="1" height="1" /><rect shape-rendering="crispEdges" fill="rgb(57, 49, 57)"  x="9" y="27" width="1" height="1" /><rect shape-rendering="crispEdges" fill="rgb(65, 49, 90)"  x="10" y="3" width="1" height="1" /><rect shape-rendering="crispEdges" fill="rgb(65, 49, 90)"  x="10" y="4" width="1" height="1" /><rect shape-rendering="crispEdges" fill="rgb(255, 255, 255)"  x="10" y="5" width="1" height="1" /><rect shape-rendering="crispEdges" fill="rgb(131, 115, 139)"  x="10" y="6" width="1" height="1" /><rect shape-rendering="crispEdges" fill="rgb(131, 115, 139)"  x="10" y="7" width="1" height="1" /><rect shape-rendering="crispEdges" fill="rgb(255, 255, 255)"  x="10" y="8" width="1" height="1" /><rect shape-rendering="crispEdges" fill="rgb(255, 255, 255)"  x="10" y="9" width="1" height="1" /><rect shape-rendering="crispEdges" fill="rgb(255, 255, 255)"  x="10" y="10" width="1" height="1" /><rect shape-rendering="crispEdges" fill="rgb(255, 255, 255)"  x="10" y="11" width="1" height="1" /><rect shape-rendering="crispEdges" fill="rgb(255, 255, 255)"  x="10" y="12" width="1" height="1" /><rect shape-rendering="crispEdges" fill="rgb(131, 115, 148)"  x="10" y="13" width="1" height="1" /><rect shape-rendering="crispEdges" fill="rgb(164, 139, 180)"  x="10" y="14" width="1" height="1" /><rect shape-rendering="crispEdges" fill="rgb(172, 156, 189)"  x="10" y="15" width="1" height="1" /><rect shape-rendering="crispEdges" fill="rgb(98, 74, 115)"  x="10" y="16" width="1" height="1" /><rect shape-rendering="crispEdges" fill="rgb(65, 49, 98)"  x="10" y="17" width="1" height="1" /><rect shape-rendering="crispEdges" fill="rgb(255, 213, 123)"  x="10" y="18" width="1" height="1" /><rect shape-rendering="crispEdges" fill="rgb(180, 131, 82)"  x="10" y="19" width="1" height="1" /><rect shape-rendering="crispEdges" fill="rgb(156, 148, 164)"  x="10" y="20" width="1" height="1" /><rect shape-rendering="crispEdges" fill="rgb(205, 189, 205)"  x="10" y="21" width="1" height="1" /><rect shape-rendering="crispEdges" fill="rgb(180, 189, 180)"  x="10" y="22" width="1" height="1" /><rect shape-rendering="crispEdges" fill="rgb(180, 98, 32)"  x="10" y="23" width="1" height="1" /><rect shape-rendering="crispEdges" fill="rgb(180, 98, 32)"  x="10" y="24" width="1" height="1" /><rect shape-rendering="crispEdges" fill="rgb(139, 139, 139)"  x="10" y="25" width="1" height="1" /><rect shape-rendering="crispEdges" fill="rgb(57, 49, 57)"  x="10" y="26" width="1" height="1" /><rect shape-rendering="crispEdges" fill="rgb(148, 139, 156)"  x="11" y="2" width="1" height="1" /><rect shape-rendering="crispEdges" fill="rgb(106, 90, 115)"  x="11" y="3" width="1" height="1" /><rect shape-rendering="crispEdges" fill="rgb(65, 49, 90)"  x="11" y="4" width="1" height="1" /><rect shape-rendering="crispEdges" fill="rgb(131, 115, 139)"  x="11" y="5" width="1" height="1" /><rect shape-rendering="crispEdges" fill="rgb(131, 115, 139)"  x="11" y="6" width="1" height="1" /><rect shape-rendering="crispEdges" fill="rgb(255, 255, 255)"  x="11" y="7" width="1" height="1" /><rect shape-rendering="crispEdges" fill="rgb(255, 238, 255)"  x="11" y="8" width="1" height="1" /><rect shape-rendering="crispEdges" fill="rgb(139, 115, 148)"  x="11" y="9" width="1" height="1" /><rect shape-rendering="crispEdges" fill="rgb(139, 115, 148)"  x="11" y="10" width="1" height="1" /><rect shape-rendering="crispEdges" fill="rgb(131, 115, 148)"  x="11" y="11" width="1" height="1" /><rect shape-rendering="crispEdges" fill="rgb(131, 115, 148)"  x="11" y="12" width="1" height="1" /><rect shape-rendering="crispEdges" fill="rgb(115, 82, 131)"  x="11" y="13" width="1" height="1" /><rect shape-rendering="crispEdges" fill="rgb(115, 82, 131)"  x="11" y="14" width="1" height="1" /><rect shape-rendering="crispEdges" fill="rgb(115, 82, 131)"  x="11" y="15" width="1" height="1" /><rect shape-rendering="crispEdges" fill="rgb(106, 74, 115)"  x="11" y="16" width="1" height="1" /><rect shape-rendering="crispEdges" fill="rgb(255, 213, 123)"  x="11" y="17" width="1" height="1" /><rect shape-rendering="crispEdges" fill="rgb(180, 139, 98)"  x="11" y="18" width="1" height="1" /><rect shape-rendering="crispEdges" fill="rgb(106, 82, 115)"  x="11" y="19" width="1" height="1" /><rect shape-rendering="crispEdges" fill="rgb(98, 82, 106)"  x="11" y="20" width="1" height="1" /><rect shape-rendering="crispEdges" fill="rgb(238, 238, 238)"  x="11" y="21" width="1" height="1" /><rect shape-rendering="crispEdges" fill="rgb(189, 172, 189)"  x="11" y="22" width="1" height="1" /><rect shape-rendering="crispEdges" fill="rgb(180, 98, 32)"  x="11" y="23" width="1" height="1" /><rect shape-rendering="crispEdges" fill="rgb(180, 189, 180)"  x="11" y="24" width="1" height="1" /><rect shape-rendering="crispEdges" fill="rgb(57, 49, 57)"  x="11" y="25" width="1" height="1" /><rect shape-rendering="crispEdges" fill="rgb(57, 49, 57)"  x="11" y="26" width="1" height="1" /><rect shape-rendering="crispEdges" fill="rgb(148, 139, 156)"  x="12" y="2" width="1" height="1" /><rect shape-rendering="crispEdges" fill="rgb(115, 115, 131)"  x="12" y="3" width="1" height="1" /><rect shape-rendering="crispEdges" fill="rgb(90, 74, 106)"  x="12" y="4" width="1" height="1" /><rect shape-rendering="crispEdges" fill="rgb(255, 255, 255)"  x="12" y="5" width="1" height="1" /><rect shape-rendering="crispEdges" fill="rgb(255, 255, 255)"  x="12" y="6" width="1" height="1" /><rect shape-rendering="crispEdges" fill="rgb(65, 49, 98)"  x="12" y="7" width="1" height="1" /><rect shape-rendering="crispEdges" fill="rgb(139, 115, 148)"  x="12" y="8" width="1" height="1" /><rect shape-rendering="crispEdges" fill="rgb(139, 115, 148)"  x="12" y="9" width="1" height="1" /><rect shape-rendering="crispEdges" fill="rgb(106, 74, 115)"  x="12" y="10" width="1" height="1" /><rect shape-rendering="crispEdges" fill="rgb(115, 82, 131)"  x="12" y="11" width="1" height="1" /><rect shape-rendering="crispEdges" fill="rgb(115, 82, 131)"  x="12" y="12" width="1" height="1" /><rect shape-rendering="crispEdges" fill="rgb(90, 65, 115)"  x="12" y="13" width="1" height="1" /><rect shape-rendering="crispEdges" fill="rgb(90, 65, 115)"  x="12" y="14" width="1" height="1" /><rect shape-rendering="crispEdges" fill="rgb(255, 213, 123)"  x="12" y="15" width="1" height="1" /><rect shape-rendering="crispEdges" fill="rgb(255, 213, 123)"  x="12" y="16" width="1" height="1" /><rect shape-rendering="crispEdges" fill="rgb(189, 139, 82)"  x="12" y="17" width="1" height="1" /><rect shape-rendering="crispEdges" fill="rgb(98, 82, 106)"  x="12" y="18" width="1" height="1" /><rect shape-rendering="crispEdges" fill="rgb(115, 90, 115)"  x="12" y="19" width="1" height="1" /><rect shape-rendering="crispEdges" fill="rgb(115, 90, 115)"  x="12" y="20" width="1" height="1" /><rect shape-rendering="crispEdges" fill="rgb(180, 189, 180)"  x="12" y="21" width="1" height="1" /><rect shape-rendering="crispEdges" fill="rgb(180, 98, 32)"  x="12" y="22" width="1" height="1" /><rect shape-rendering="crispEdges" fill="rgb(180, 98, 32)"  x="12" y="23" width="1" height="1" /><rect shape-rendering="crispEdges" fill="rgb(148, 148, 148)"  x="12" y="24" width="1" height="1" /><rect shape-rendering="crispEdges" fill="rgb(57, 49, 57)"  x="12" y="25" width="1" height="1" /><rect shape-rendering="crispEdges" fill="rgb(98, 82, 115)"  x="13" y="2" width="1" height="1" /><rect shape-rendering="crispEdges" fill="rgb(148, 156, 164)"  x="13" y="3" width="1" height="1" /><rect shape-rendering="crispEdges" fill="rgb(90, 74, 106)"  x="13" y="4" width="1" height="1" /><rect shape-rendering="crispEdges" fill="rgb(189, 164, 197)"  x="13" y="5" width="1" height="1" /><rect shape-rendering="crispEdges" fill="rgb(255, 255, 255)"  x="13" y="6" width="1" height="1" /><rect shape-rendering="crispEdges" fill="rgb(255, 255, 255)"  x="13" y="7" width="1" height="1" /><rect shape-rendering="crispEdges" fill="rgb(65, 49, 98)"  x="13" y="8" width="1" height="1" /><rect shape-rendering="crispEdges" fill="rgb(65, 49, 98)"  x="13" y="9" width="1" height="1" /><rect shape-rendering="crispEdges" fill="rgb(74, 57, 98)"  x="13" y="10" width="1" height="1" /><rect shape-rendering="crispEdges" fill="rgb(82, 65, 106)"  x="13" y="11" width="1" height="1" /><rect shape-rendering="crispEdges" fill="rgb(82, 57, 106)"  x="13" y="12" width="1" height="1" /><rect shape-rendering="crispEdges" fill="rgb(74, 49, 98)"  x="13" y="13" width="1" height="1" /><rect shape-rendering="crispEdges" fill="rgb(57, 41, 90)"  x="13" y="14" width="1" height="1" /><rect shape-rendering="crispEdges" fill="rgb(57, 41, 90)"  x="13" y="15" width="1" height="1" /><rect shape-rendering="crispEdges" fill="rgb(180, 106, 57)"  x="13" y="16" width="1" height="1" /><rect shape-rendering="crispEdges" fill="rgb(222, 131, 49)"  x="13" y="17" width="1" height="1" /><rect shape-rendering="crispEdges" fill="rgb(148, 74, 32)"  x="13" y="18" width="1" height="1" /><rect shape-rendering="crispEdges" fill="rgb(115, 90, 115)"  x="13" y="19" width="1" height="1" /><rect shape-rendering="crispEdges" fill="rgb(180, 189, 180)"  x="13" y="20" width="1" height="1" /><rect shape-rendering="crispEdges" fill="rgb(197, 156, 57)"  x="13" y="21" width="1" height="1" /><rect shape-rendering="crispEdges" fill="rgb(180, 98, 32)"  x="13" y="22" width="1" height="1" /><rect shape-rendering="crispEdges" fill="rgb(180, 189, 180)"  x="13" y="23" width="1" height="1" /><rect shape-rendering="crispEdges" fill="rgb(57, 49, 57)"  x="13" y="24" width="1" height="1" /><rect shape-rendering="crispEdges" fill="rgb(98, 82, 115)"  x="14" y="2" width="1" height="1" /><rect shape-rendering="crispEdges" fill="rgb(172, 172, 180)"  x="14" y="3" width="1" height="1" /><rect shape-rendering="crispEdges" fill="rgb(90, 74, 106)"  x="14" y="4" width="1" height="1" /><rect shape-rendering="crispEdges" fill="rgb(74, 49, 98)"  x="14" y="5" width="1" height="1" /><rect shape-rendering="crispEdges" fill="rgb(131, 115, 139)"  x="14" y="6" width="1" height="1" /><rect shape-rendering="crispEdges" fill="rgb(131, 115, 139)"  x="14" y="7" width="1" height="1" /><rect shape-rendering="crispEdges" fill="rgb(255, 255, 255)"  x="14" y="8" width="1" height="1" /><rect shape-rendering="crispEdges" fill="rgb(222, 213, 230)"  x="14" y="9" width="1" height="1" /><rect shape-rendering="crispEdges" fill="rgb(65, 49, 98)"  x="14" y="10" width="1" height="1" /><rect shape-rendering="crispEdges" fill="rgb(74, 49, 98)"  x="14" y="11" width="1" height="1" /><rect shape-rendering="crispEdges" fill="rgb(65, 49, 98)"  x="14" y="12" width="1" height="1" /><rect shape-rendering="crispEdges" fill="rgb(106, 74, 115)"  x="14" y="13" width="1" height="1" /><rect shape-rendering="crispEdges" fill="rgb(106, 74, 115)"  x="14" y="14" width="1" height="1" /><rect shape-rendering="crispEdges" fill="rgb(90, 65, 115)"  x="14" y="15" width="1" height="1" /><rect shape-rendering="crispEdges" fill="rgb(57, 41, 90)"  x="14" y="16" width="1" height="1" /><rect shape-rendering="crispEdges" fill="rgb(57, 41, 90)"  x="14" y="17" width="1" height="1" /><rect shape-rendering="crispEdges" fill="rgb(180, 106, 57)"  x="14" y="18" width="1" height="1" /><rect shape-rendering="crispEdges" fill="rgb(222, 131, 49)"  x="14" y="19" width="1" height="1" /><rect shape-rendering="crispEdges" fill="rgb(230, 205, 98)"  x="14" y="20" width="1" height="1" /><rect shape-rendering="crispEdges" fill="rgb(180, 106, 32)"  x="14" y="21" width="1" height="1" /><rect shape-rendering="crispEdges" fill="rgb(90, 65, 98)"  x="14" y="22" width="1" height="1" /><rect shape-rendering="crispEdges" fill="rgb(57, 49, 57)"  x="14" y="23" width="1" height="1" /><rect shape-rendering="crispEdges" fill="rgb(65, 49, 90)"  x="15" y="2" width="1" height="1" /><rect shape-rendering="crispEdges" fill="rgb(172, 172, 180)"  x="15" y="3" width="1" height="1" /><rect shape-rendering="crispEdges" fill="rgb(74, 49, 82)"  x="15" y="4" width="1" height="1" /><rect shape-rendering="crispEdges" fill="rgb(90, 65, 106)"  x="15" y="5" width="1" height="1" /><rect shape-rendering="crispEdges" fill="rgb(90, 65, 115)"  x="15" y="6" width="1" height="1" /><rect shape-rendering="crispEdges" fill="rgb(131, 115, 139)"  x="15" y="7" width="1" height="1" /><rect shape-rendering="crispEdges" fill="rgb(131, 115, 139)"  x="15" y="8" width="1" height="1" /><rect shape-rendering="crispEdges" fill="rgb(131, 115, 139)"  x="15" y="9" width="1" height="1" /><rect shape-rendering="crispEdges" fill="rgb(222, 213, 230)"  x="15" y="10" width="1" height="1" /><rect shape-rendering="crispEdges" fill="rgb(222, 213, 230)"  x="15" y="11" width="1" height="1" /><rect shape-rendering="crispEdges" fill="rgb(180, 180, 189)"  x="15" y="12" width="1" height="1" /><rect shape-rendering="crispEdges" fill="rgb(65, 49, 90)"  x="15" y="13" width="1" height="1" /><rect shape-rendering="crispEdges" fill="rgb(65, 49, 90)"  x="15" y="14" width="1" height="1" /><rect shape-rendering="crispEdges" fill="rgb(65, 49, 90)"  x="15" y="15" width="1" height="1" /><rect shape-rendering="crispEdges" fill="rgb(90, 65, 98)"  x="15" y="16" width="1" height="1" /><rect shape-rendering="crispEdges" fill="rgb(65, 49, 90)"  x="15" y="17" width="1" height="1" /><rect shape-rendering="crispEdges" fill="rgb(49, 41, 74)"  x="15" y="18" width="1" height="1" /><rect shape-rendering="crispEdges" fill="rgb(123, 82, 41)"  x="15" y="19" width="1" height="1" /><rect shape-rendering="crispEdges" fill="rgb(222, 131, 49)"  x="15" y="20" width="1" height="1" /><rect shape-rendering="crispEdges" fill="rgb(180, 148, 57)"  x="15" y="21" width="1" height="1" /><rect shape-rendering="crispEdges" fill="rgb(57, 49, 57)"  x="15" y="22" width="1" height="1" /><rect shape-rendering="crispEdges" fill="rgb(230, 189, 115)"  x="15" y="25" width="1" height="1" /><rect shape-rendering="crispEdges" fill="rgb(238, 238, 238)"  x="15" y="26" width="1" height="1" /><rect shape-rendering="crispEdges" fill="rgb(57, 49, 57)"  x="15" y="27" width="1" height="1" /><rect shape-rendering="crispEdges" fill="rgb(65, 49, 90)"  x="16" y="2" width="1" height="1" /><rect shape-rendering="crispEdges" fill="rgb(65, 49, 90)"  x="16" y="3" width="1" height="1" /><rect shape-rendering="crispEdges" fill="rgb(65, 49, 90)"  x="16" y="4" width="1" height="1" /><rect shape-rendering="crispEdges" fill="rgb(90, 65, 98)"  x="16" y="5" width="1" height="1" /><rect shape-rendering="crispEdges" fill="rgb(90, 65, 98)"  x="16" y="6" width="1" height="1" /><rect shape-rendering="crispEdges" fill="rgb(82, 57, 98)"  x="16" y="7" width="1" height="1" /><rect shape-rendering="crispEdges" fill="rgb(82, 57, 98)"  x="16" y="8" width="1" height="1" /><rect shape-rendering="crispEdges" fill="rgb(82, 57, 98)"  x="16" y="9" width="1" height="1" /><rect shape-rendering="crispEdges" fill="rgb(65, 49, 90)"  x="16" y="10" width="1" height="1" /><rect shape-rendering="crispEdges" fill="rgb(65, 49, 90)"  x="16" y="11" width="1" height="1" /><rect shape-rendering="crispEdges" fill="rgb(65, 49, 90)"  x="16" y="12" width="1" height="1" /><rect shape-rendering="crispEdges" fill="rgb(164, 148, 164)"  x="16" y="13" width="1" height="1" /><rect shape-rendering="crispEdges" fill="rgb(106, 74, 115)"  x="16" y="14" width="1" height="1" /><rect shape-rendering="crispEdges" fill="rgb(180, 180, 189)"  x="16" y="15" width="1" height="1" /><rect shape-rendering="crispEdges" fill="rgb(180, 180, 189)"  x="16" y="16" width="1" height="1" /><rect shape-rendering="crispEdges" fill="rgb(82, 57, 106)"  x="16" y="17" width="1" height="1" /><rect shape-rendering="crispEdges" fill="rgb(49, 41, 74)"  x="16" y="18" width="1" height="1" /><rect shape-rendering="crispEdges" fill="rgb(49, 41, 74)"  x="16" y="19" width="1" height="1" /><rect shape-rendering="crispEdges" fill="rgb(106, 106, 106)"  x="16" y="20" width="1" height="1" /><rect shape-rendering="crispEdges" fill="rgb(49, 41, 57)"  x="16" y="21" width="1" height="1" /><rect shape-rendering="crispEdges" fill="rgb(57, 49, 57)"  x="16" y="22" width="1" height="1" /><rect shape-rendering="crispEdges" fill="rgb(172, 90, 32)"  x="16" y="23" width="1" height="1" /><rect shape-rendering="crispEdges" fill="rgb(222, 164, 74)"  x="16" y="24" width="1" height="1" /><rect shape-rendering="crispEdges" fill="rgb(222, 164, 74)"  x="16" y="25" width="1" height="1" /><rect shape-rendering="crispEdges" fill="rgb(230, 189, 115)"  x="16" y="26" width="1" height="1" /><rect shape-rendering="crispEdges" fill="rgb(238, 238, 238)"  x="16" y="27" width="1" height="1" /><rect shape-rendering="crispEdges" fill="rgb(57, 49, 57)"  x="16" y="28" width="1" height="1" /><rect shape-rendering="crispEdges" fill="rgb(148, 139, 156)"  x="17" y="2" width="1" height="1" /><rect shape-rendering="crispEdges" fill="rgb(131, 123, 131)"  x="17" y="3" width="1" height="1" /><rect shape-rendering="crispEdges" fill="rgb(65, 49, 90)"  x="17" y="4" width="1" height="1" /><rect shape-rendering="crispEdges" fill="rgb(139, 115, 148)"  x="17" y="5" width="1" height="1" /><rect shape-rendering="crispEdges" fill="rgb(139, 115, 148)"  x="17" y="6" width="1" height="1" /><rect shape-rendering="crispEdges" fill="rgb(139, 106, 148)"  x="17" y="7" width="1" height="1" /><rect shape-rendering="crispEdges" fill="rgb(139, 106, 148)"  x="17" y="8" width="1" height="1" /><rect shape-rendering="crispEdges" fill="rgb(255, 255, 255)"  x="17" y="9" width="1" height="1" /><rect shape-rendering="crispEdges" fill="rgb(255, 255, 255)"  x="17" y="10" width="1" height="1" /><rect shape-rendering="crispEdges" fill="rgb(255, 255, 255)"  x="17" y="11" width="1" height="1" /><rect shape-rendering="crispEdges" fill="rgb(255, 255, 255)"  x="17" y="12" width="1" height="1" /><rect shape-rendering="crispEdges" fill="rgb(222, 213, 230)"  x="17" y="13" width="1" height="1" /><rect shape-rendering="crispEdges" fill="rgb(180, 180, 189)"  x="17" y="14" width="1" height="1" /><rect shape-rendering="crispEdges" fill="rgb(82, 57, 106)"  x="17" y="15" width="1" height="1" /><rect shape-rendering="crispEdges" fill="rgb(139, 106, 148)"  x="17" y="16" width="1" height="1" /><rect shape-rendering="crispEdges" fill="rgb(148, 123, 148)"  x="17" y="17" width="1" height="1" /><rect shape-rendering="crispEdges" fill="rgb(255, 213, 123)"  x="17" y="18" width="1" height="1" /><rect shape-rendering="crispEdges" fill="rgb(180, 156, 115)"  x="17" y="19" width="1" height="1" /><rect shape-rendering="crispEdges" fill="rgb(172, 90, 32)"  x="17" y="20" width="1" height="1" /><rect shape-rendering="crispEdges" fill="rgb(180, 106, 32)"  x="17" y="21" width="1" height="1" /><rect shape-rendering="crispEdges" fill="rgb(172, 90, 32)"  x="17" y="22" width="1" height="1" /><rect shape-rendering="crispEdges" fill="rgb(222, 164, 74)"  x="17" y="23" width="1" height="1" /><rect shape-rendering="crispEdges" fill="rgb(222, 156, 49)"  x="17" y="24" width="1" height="1" /><rect shape-rendering="crispEdges" fill="rgb(222, 156, 49)"  x="17" y="25" width="1" height="1" /><rect shape-rendering="crispEdges" fill="rgb(205, 148, 49)"  x="17" y="26" width="1" height="1" /><rect shape-rendering="crispEdges" fill="rgb(205, 189, 205)"  x="17" y="27" width="1" height="1" /><rect shape-rendering="crispEdges" fill="rgb(238, 238, 238)"  x="17" y="28" width="1" height="1" /><rect shape-rendering="crispEdges" fill="rgb(57, 49, 57)"  x="17" y="29" width="1" height="1" /><rect shape-rendering="crispEdges" fill="rgb(148, 139, 156)"  x="18" y="2" width="1" height="1" /><rect shape-rendering="crispEdges" fill="rgb(139, 148, 148)"  x="18" y="3" width="1" height="1" /><rect shape-rendering="crispEdges" fill="rgb(65, 49, 90)"  x="18" y="4" width="1" height="1" /><rect shape-rendering="crispEdges" fill="rgb(106, 74, 115)"  x="18" y="5" width="1" height="1" /><rect shape-rendering="crispEdges" fill="rgb(106, 74, 115)"  x="18" y="6" width="1" height="1" /><rect shape-rendering="crispEdges" fill="rgb(255, 255, 255)"  x="18" y="7" width="1" height="1" /><rect shape-rendering="crispEdges" fill="rgb(255, 255, 255)"  x="18" y="8" width="1" height="1" /><rect shape-rendering="crispEdges" fill="rgb(222, 213, 230)"  x="18" y="9" width="1" height="1" /><rect shape-rendering="crispEdges" fill="rgb(82, 57, 106)"  x="18" y="10" width="1" height="1" /><rect shape-rendering="crispEdges" fill="rgb(139, 106, 148)"  x="18" y="11" width="1" height="1" /><rect shape-rendering="crispEdges" fill="rgb(139, 106, 148)"  x="18" y="12" width="1" height="1" /><rect shape-rendering="crispEdges" fill="rgb(139, 106, 148)"  x="18" y="13" width="1" height="1" /><rect shape-rendering="crispEdges" fill="rgb(139, 106, 148)"  x="18" y="14" width="1" height="1" /><rect shape-rendering="crispEdges" fill="rgb(148, 115, 148)"  x="18" y="15" width="1" height="1" /><rect shape-rendering="crispEdges" fill="rgb(255, 213, 123)"  x="18" y="16" width="1" height="1" /><rect shape-rendering="crispEdges" fill="rgb(255, 213, 123)"  x="18" y="17" width="1" height="1" /><rect shape-rendering="crispEdges" fill="rgb(148, 123, 148)"  x="18" y="18" width="1" height="1" /><rect shape-rendering="crispEdges" fill="rgb(180, 156, 180)"  x="18" y="19" width="1" height="1" /><rect shape-rendering="crispEdges" fill="rgb(238, 238, 238)"  x="18" y="20" width="1" height="1" /><rect shape-rendering="crispEdges" fill="rgb(222, 164, 74)"  x="18" y="21" width="1" height="1" /><rect shape-rendering="crispEdges" fill="rgb(222, 164, 74)"  x="18" y="22" width="1" height="1" /><rect shape-rendering="crispEdges" fill="rgb(213, 148, 32)"  x="18" y="23" width="1" height="1" /><rect shape-rendering="crispEdges" fill="rgb(213, 148, 32)"  x="18" y="24" width="1" height="1" /><rect shape-rendering="crispEdges" fill="rgb(213, 148, 32)"  x="18" y="25" width="1" height="1" /><rect shape-rendering="crispEdges" fill="rgb(205, 131, 32)"  x="18" y="26" width="1" height="1" /><rect shape-rendering="crispEdges" fill="rgb(222, 156, 49)"  x="18" y="27" width="1" height="1" /><rect shape-rendering="crispEdges" fill="rgb(180, 189, 180)"  x="18" y="28" width="1" height="1" /><rect shape-rendering="crispEdges" fill="rgb(57, 49, 57)"  x="18" y="29" width="1" height="1" /><rect shape-rendering="crispEdges" fill="rgb(98, 82, 115)"  x="19" y="2" width="1" height="1" /><rect shape-rendering="crispEdges" fill="rgb(148, 156, 164)"  x="19" y="3" width="1" height="1" /><rect shape-rendering="crispEdges" fill="rgb(65, 49, 90)"  x="19" y="4" width="1" height="1" /><rect shape-rendering="crispEdges" fill="rgb(255, 255, 255)"  x="19" y="5" width="1" height="1" /><rect shape-rendering="crispEdges" fill="rgb(255, 255, 255)"  x="19" y="6" width="1" height="1" /><rect shape-rendering="crispEdges" fill="rgb(65, 41, 90)"  x="19" y="7" width="1" height="1" /><rect shape-rendering="crispEdges" fill="rgb(65, 41, 90)"  x="19" y="8" width="1" height="1" /><rect shape-rendering="crispEdges" fill="rgb(82, 57, 106)"  x="19" y="9" width="1" height="1" /><rect shape-rendering="crispEdges" fill="rgb(106, 74, 115)"  x="19" y="10" width="1" height="1" /><rect shape-rendering="crispEdges" fill="rgb(106, 74, 115)"  x="19" y="11" width="1" height="1" /><rect shape-rendering="crispEdges" fill="rgb(139, 106, 148)"  x="19" y="12" width="1" height="1" /><rect shape-rendering="crispEdges" fill="rgb(139, 106, 148)"  x="19" y="13" width="1" height="1" /><rect shape-rendering="crispEdges" fill="rgb(205, 164, 115)"  x="19" y="14" width="1" height="1" /><rect shape-rendering="crispEdges" fill="rgb(255, 213, 123)"  x="19" y="15" width="1" height="1" /><rect shape-rendering="crispEdges" fill="rgb(222, 189, 115)"  x="19" y="16" width="1" height="1" /><rect shape-rendering="crispEdges" fill="rgb(106, 90, 106)"  x="19" y="17" width="1" height="1" /><rect shape-rendering="crispEdges" fill="rgb(131, 106, 131)"  x="19" y="18" width="1" height="1" /><rect shape-rendering="crispEdges" fill="rgb(123, 98, 123)"  x="19" y="19" width="1" height="1" /><rect shape-rendering="crispEdges" fill="rgb(164, 148, 172)"  x="19" y="20" width="1" height="1" /><rect shape-rendering="crispEdges" fill="rgb(238, 238, 238)"  x="19" y="21" width="1" height="1" /><rect shape-rendering="crispEdges" fill="rgb(156, 123, 164)"  x="19" y="22" width="1" height="1" /><rect shape-rendering="crispEdges" fill="rgb(222, 172, 82)"  x="19" y="23" width="1" height="1" /><rect shape-rendering="crispEdges" fill="rgb(205, 131, 32)"  x="19" y="24" width="1" height="1" /><rect shape-rendering="crispEdges" fill="rgb(205, 139, 32)"  x="19" y="25" width="1" height="1" /><rect shape-rendering="crispEdges" fill="rgb(205, 123, 32)"  x="19" y="26" width="1" height="1" /><rect shape-rendering="crispEdges" fill="rgb(189, 115, 32)"  x="19" y="27" width="1" height="1" /><rect shape-rendering="crispEdges" fill="rgb(180, 189, 180)"  x="19" y="28" width="1" height="1" /><rect shape-rendering="crispEdges" fill="rgb(57, 49, 57)"  x="19" y="29" width="1" height="1" /><rect shape-rendering="crispEdges" fill="rgb(98, 82, 115)"  x="20" y="2" width="1" height="1" /><rect shape-rendering="crispEdges" fill="rgb(172, 172, 180)"  x="20" y="3" width="1" height="1" /><rect shape-rendering="crispEdges" fill="rgb(65, 49, 90)"  x="20" y="4" width="1" height="1" /><rect shape-rendering="crispEdges" fill="rgb(65, 41, 90)"  x="20" y="5" width="1" height="1" /><rect shape-rendering="crispEdges" fill="rgb(131, 115, 139)"  x="20" y="6" width="1" height="1" /><rect shape-rendering="crispEdges" fill="rgb(255, 255, 255)"  x="20" y="7" width="1" height="1" /><rect shape-rendering="crispEdges" fill="rgb(180, 180, 189)"  x="20" y="8" width="1" height="1" /><rect shape-rendering="crispEdges" fill="rgb(82, 65, 106)"  x="20" y="9" width="1" height="1" /><rect shape-rendering="crispEdges" fill="rgb(74, 49, 98)"  x="20" y="10" width="1" height="1" /><rect shape-rendering="crispEdges" fill="rgb(82, 65, 106)"  x="20" y="11" width="1" height="1" /><rect shape-rendering="crispEdges" fill="rgb(82, 57, 115)"  x="20" y="12" width="1" height="1" /><rect shape-rendering="crispEdges" fill="rgb(222, 131, 49)"  x="20" y="13" width="1" height="1" /><rect shape-rendering="crispEdges" fill="rgb(222, 131, 49)"  x="20" y="14" width="1" height="1" /><rect shape-rendering="crispEdges" fill="rgb(222, 131, 49)"  x="20" y="15" width="1" height="1" /><rect shape-rendering="crispEdges" fill="rgb(82, 65, 82)"  x="20" y="16" width="1" height="1" /><rect shape-rendering="crispEdges" fill="rgb(82, 65, 82)"  x="20" y="17" width="1" height="1" /><rect shape-rendering="crispEdges" fill="rgb(106, 82, 115)"  x="20" y="18" width="1" height="1" /><rect shape-rendering="crispEdges" fill="rgb(90, 74, 98)"  x="20" y="19" width="1" height="1" /><rect shape-rendering="crispEdges" fill="rgb(82, 65, 82)"  x="20" y="20" width="1" height="1" /><rect shape-rendering="crispEdges" fill="rgb(139, 123, 139)"  x="20" y="21" width="1" height="1" /><rect shape-rendering="crispEdges" fill="rgb(180, 189, 180)"  x="20" y="22" width="1" height="1" /><rect shape-rendering="crispEdges" fill="rgb(222, 156, 65)"  x="20" y="23" width="1" height="1" /><rect shape-rendering="crispEdges" fill="rgb(205, 131, 32)"  x="20" y="24" width="1" height="1" /><rect shape-rendering="crispEdges" fill="rgb(205, 131, 32)"  x="20" y="25" width="1" height="1" /><rect shape-rendering="crispEdges" fill="rgb(189, 115, 32)"  x="20" y="26" width="1" height="1" /><rect shape-rendering="crispEdges" fill="rgb(189, 115, 32)"  x="20" y="27" width="1" height="1" /><rect shape-rendering="crispEdges" fill="rgb(139, 139, 139)"  x="20" y="28" width="1" height="1" /><rect shape-rendering="crispEdges" fill="rgb(57, 49, 57)"  x="20" y="29" width="1" height="1" /><rect shape-rendering="crispEdges" fill="rgb(65, 49, 90)"  x="21" y="2" width="1" height="1" /><rect shape-rendering="crispEdges" fill="rgb(172, 172, 180)"  x="21" y="3" width="1" height="1" /><rect shape-rendering="crispEdges" fill="rgb(65, 49, 90)"  x="21" y="4" width="1" height="1" /><rect shape-rendering="crispEdges" fill="rgb(156, 148, 164)"  x="21" y="5" width="1" height="1" /><rect shape-rendering="crispEdges" fill="rgb(74, 49, 98)"  x="21" y="6" width="1" height="1" /><rect shape-rendering="crispEdges" fill="rgb(74, 49, 98)"  x="21" y="7" width="1" height="1" /><rect shape-rendering="crispEdges" fill="rgb(74, 49, 98)"  x="21" y="8" width="1" height="1" /><rect shape-rendering="crispEdges" fill="rgb(255, 255, 255)"  x="21" y="9" width="1" height="1" /><rect shape-rendering="crispEdges" fill="rgb(180, 180, 189)"  x="21" y="10" width="1" height="1" /><rect shape-rendering="crispEdges" fill="rgb(74, 57, 98)"  x="21" y="11" width="1" height="1" /><rect shape-rendering="crispEdges" fill="rgb(82, 57, 106)"  x="21" y="12" width="1" height="1" /><rect shape-rendering="crispEdges" fill="rgb(82, 57, 106)"  x="21" y="13" width="1" height="1" /><rect shape-rendering="crispEdges" fill="rgb(82, 57, 106)"  x="21" y="14" width="1" height="1" /><rect shape-rendering="crispEdges" fill="rgb(180, 106, 57)"  x="21" y="15" width="1" height="1" /><rect shape-rendering="crispEdges" fill="rgb(222, 131, 49)"  x="21" y="16" width="1" height="1" /><rect shape-rendering="crispEdges" fill="rgb(82, 65, 82)"  x="21" y="17" width="1" height="1" /><rect shape-rendering="crispEdges" fill="rgb(106, 90, 106)"  x="21" y="18" width="1" height="1" /><rect shape-rendering="crispEdges" fill="rgb(82, 65, 82)"  x="21" y="19" width="1" height="1" /><rect shape-rendering="crispEdges" fill="rgb(180, 189, 180)"  x="21" y="20" width="1" height="1" /><rect shape-rendering="crispEdges" fill="rgb(180, 189, 180)"  x="21" y="21" width="1" height="1" /><rect shape-rendering="crispEdges" fill="rgb(205, 123, 32)"  x="21" y="22" width="1" height="1" /><rect shape-rendering="crispEdges" fill="rgb(205, 131, 32)"  x="21" y="23" width="1" height="1" /><rect shape-rendering="crispEdges" fill="rgb(205, 131, 32)"  x="21" y="24" width="1" height="1" /><rect shape-rendering="crispEdges" fill="rgb(189, 115, 32)"  x="21" y="25" width="1" height="1" /><rect shape-rendering="crispEdges" fill="rgb(189, 115, 32)"  x="21" y="26" width="1" height="1" /><rect shape-rendering="crispEdges" fill="rgb(180, 172, 180)"  x="21" y="27" width="1" height="1" /><rect shape-rendering="crispEdges" fill="rgb(139, 139, 139)"  x="21" y="28" width="1" height="1" /><rect shape-rendering="crispEdges" fill="rgb(57, 49, 57)"  x="21" y="29" width="1" height="1" /><rect shape-rendering="crispEdges" fill="rgb(65, 49, 90)"  x="22" y="2" width="1" height="1" /><rect shape-rendering="crispEdges" fill="rgb(65, 49, 90)"  x="22" y="3" width="1" height="1" /><rect shape-rendering="crispEdges" fill="rgb(180, 172, 180)"  x="22" y="4" width="1" height="1" /><rect shape-rendering="crispEdges" fill="rgb(255, 255, 255)"  x="22" y="5" width="1" height="1" /><rect shape-rendering="crispEdges" fill="rgb(180, 172, 180)"  x="22" y="6" width="1" height="1" /><rect shape-rendering="crispEdges" fill="rgb(123, 106, 131)"  x="22" y="7" width="1" height="1" /><rect shape-rendering="crispEdges" fill="rgb(139, 131, 156)"  x="22" y="8" width="1" height="1" /><rect shape-rendering="crispEdges" fill="rgb(74, 49, 98)"  x="22" y="9" width="1" height="1" /><rect shape-rendering="crispEdges" fill="rgb(74, 49, 98)"  x="22" y="10" width="1" height="1" /><rect shape-rendering="crispEdges" fill="rgb(189, 189, 205)"  x="22" y="11" width="1" height="1" /><rect shape-rendering="crispEdges" fill="rgb(180, 180, 189)"  x="22" y="12" width="1" height="1" /><rect shape-rendering="crispEdges" fill="rgb(82, 57, 106)"  x="22" y="13" width="1" height="1" /><rect shape-rendering="crispEdges" fill="rgb(82, 57, 106)"  x="22" y="14" width="1" height="1" /><rect shape-rendering="crispEdges" fill="rgb(82, 57, 106)"  x="22" y="15" width="1" height="1" /><rect shape-rendering="crispEdges" fill="rgb(180, 106, 57)"  x="22" y="16" width="1" height="1" /><rect shape-rendering="crispEdges" fill="rgb(222, 131, 49)"  x="22" y="17" width="1" height="1" /><rect shape-rendering="crispEdges" fill="rgb(106, 90, 106)"  x="22" y="18" width="1" height="1" /><rect shape-rendering="crispEdges" fill="rgb(180, 189, 180)"  x="22" y="19" width="1" height="1" /><rect shape-rendering="crispEdges" fill="rgb(180, 106, 32)"  x="22" y="20" width="1" height="1" /><rect shape-rendering="crispEdges" fill="rgb(189, 106, 32)"  x="22" y="21" width="1" height="1" /><rect shape-rendering="crispEdges" fill="rgb(189, 115, 32)"  x="22" y="22" width="1" height="1" /><rect shape-rendering="crispEdges" fill="rgb(189, 115, 32)"  x="22" y="23" width="1" height="1" /><rect shape-rendering="crispEdges" fill="rgb(189, 115, 32)"  x="22" y="24" width="1" height="1" /><rect shape-rendering="crispEdges" fill="rgb(189, 115, 32)"  x="22" y="25" width="1" height="1" /><rect shape-rendering="crispEdges" fill="rgb(148, 139, 148)"  x="22" y="26" width="1" height="1" /><rect shape-rendering="crispEdges" fill="rgb(139, 139, 139)"  x="22" y="27" width="1" height="1" /><rect shape-rendering="crispEdges" fill="rgb(57, 49, 57)"  x="22" y="28" width="1" height="1" /><rect shape-rendering="crispEdges" fill="rgb(180, 172, 180)"  x="23" y="3" width="1" height="1" /><rect shape-rendering="crispEdges" fill="rgb(222, 222, 222)"  x="23" y="4" width="1" height="1" /><rect shape-rendering="crispEdges" fill="rgb(180, 172, 172)"  x="23" y="5" width="1" height="1" /><rect shape-rendering="crispEdges" fill="rgb(180, 172, 180)"  x="23" y="6" width="1" height="1" /><rect shape-rendering="crispEdges" fill="rgb(180, 172, 180)"  x="23" y="7" width="1" height="1" /><rect shape-rendering="crispEdges" fill="rgb(255, 255, 255)"  x="23" y="8" width="1" height="1" /><rect shape-rendering="crispEdges" fill="rgb(131, 123, 131)"  x="23" y="9" width="1" height="1" /><rect shape-rendering="crispEdges" fill="rgb(180, 172, 180)"  x="23" y="10" width="1" height="1" /><rect shape-rendering="crispEdges" fill="rgb(74, 49, 98)"  x="23" y="11" width="1" height="1" /><rect shape-rendering="crispEdges" fill="rgb(74, 49, 98)"  x="23" y="12" width="1" height="1" /><rect shape-rendering="crispEdges" fill="rgb(189, 189, 205)"  x="23" y="13" width="1" height="1" /><rect shape-rendering="crispEdges" fill="rgb(189, 189, 205)"  x="23" y="14" width="1" height="1" /><rect shape-rendering="crispEdges" fill="rgb(180, 180, 189)"  x="23" y="15" width="1" height="1" /><rect shape-rendering="crispEdges" fill="rgb(180, 180, 189)"  x="23" y="16" width="1" height="1" /><rect shape-rendering="crispEdges" fill="rgb(156, 123, 115)"  x="23" y="17" width="1" height="1" /><rect shape-rendering="crispEdges" fill="rgb(222, 131, 49)"  x="23" y="18" width="1" height="1" /><rect shape-rendering="crispEdges" fill="rgb(172, 90, 32)"  x="23" y="19" width="1" height="1" /><rect shape-rendering="crispEdges" fill="rgb(172, 90, 32)"  x="23" y="20" width="1" height="1" /><rect shape-rendering="crispEdges" fill="rgb(172, 90, 32)"  x="23" y="21" width="1" height="1" /><rect shape-rendering="crispEdges" fill="rgb(172, 90, 32)"  x="23" y="22" width="1" height="1" /><rect shape-rendering="crispEdges" fill="rgb(172, 90, 32)"  x="23" y="23" width="1" height="1" /><rect shape-rendering="crispEdges" fill="rgb(172, 90, 32)"  x="23" y="24" width="1" height="1" /><rect shape-rendering="crispEdges" fill="rgb(148, 139, 148)"  x="23" y="25" width="1" height="1" /><rect shape-rendering="crispEdges" fill="rgb(57, 49, 57)"  x="23" y="26" width="1" height="1" /><rect shape-rendering="crispEdges" fill="rgb(57, 49, 57)"  x="23" y="27" width="1" height="1" /><rect shape-rendering="crispEdges" fill="rgb(222, 222, 222)"  x="24" y="7" width="1" height="1" /><rect shape-rendering="crispEdges" fill="rgb(180, 172, 172)"  x="24" y="8" width="1" height="1" /><rect shape-rendering="crispEdges" fill="rgb(131, 123, 131)"  x="24" y="9" width="1" height="1" /><rect shape-rendering="crispEdges" fill="rgb(222, 222, 222)"  x="24" y="10" width="1" height="1" /><rect shape-rendering="crispEdges" fill="rgb(213, 213, 213)"  x="24" y="11" width="1" height="1" /><rect shape-rendering="crispEdges" fill="rgb(115, 115, 123)"  x="24" y="12" width="1" height="1" /><rect shape-rendering="crispEdges" fill="rgb(74, 49, 98)"  x="24" y="13" width="1" height="1" /><rect shape-rendering="crispEdges" fill="rgb(74, 49, 98)"  x="24" y="14" width="1" height="1" /><rect shape-rendering="crispEdges" fill="rgb(74, 49, 98)"  x="24" y="15" width="1" height="1" /><rect shape-rendering="crispEdges" fill="rgb(82, 57, 106)"  x="24" y="16" width="1" height="1" /><rect shape-rendering="crispEdges" fill="rgb(49, 41, 74)"  x="24" y="17" width="1" height="1" /><rect shape-rendering="crispEdges" fill="rgb(222, 222, 222)"  x="25" y="9" width="1" height="1" /><rect shape-rendering="crispEdges" fill="rgb(180, 172, 172)"  x="25" y="10" width="1" height="1" /><rect shape-rendering="crispEdges" fill="rgb(255, 255, 255)"  x="25" y="11" width="1" height="1" /><rect shape-rendering="crispEdges" fill="rgb(180, 172, 180)"  x="25" y="12" width="1" height="1" /><rect shape-rendering="crispEdges" fill="rgb(238, 238, 238)"  x="25" y="13" width="1" height="1" /><rect shape-rendering="crispEdges" fill="rgb(180, 172, 180)"  x="25" y="14" width="1" height="1" /><rect shape-rendering="crispEdges" fill="rgb(74, 49, 98)"  x="25" y="15" width="1" height="1" /><rect shape-rendering="crispEdges" fill="rgb(74, 49, 98)"  x="25" y="16" width="1" height="1" /><rect shape-rendering="crispEdges" fill="rgb(49, 41, 74)"  x="25" y="17" width="1" height="1" /><rect shape-rendering="crispEdges" fill="rgb(222, 222, 222)"  x="26" y="11" width="1" height="1" /><rect shape-rendering="crispEdges" fill="rgb(180, 172, 172)"  x="26" y="12" width="1" height="1" /><rect shape-rendering="crispEdges" fill="rgb(255, 255, 255)"  x="26" y="13" width="1" height="1" /><rect shape-rendering="crispEdges" fill="rgb(238, 230, 238)"  x="26" y="14" width="1" height="1" /><rect shape-rendering="crispEdges" fill="rgb(180, 172, 180)"  x="26" y="15" width="1" height="1" /><rect shape-rendering="crispEdges" fill="rgb(74, 49, 98)"  x="26" y="16" width="1" height="1" /><rect shape-rendering="crispEdges" fill="rgb(49, 41, 74)"  x="26" y="17" width="1" height="1" /><rect shape-rendering="crispEdges" fill="rgb(222, 222, 222)"  x="27" y="13" width="1" height="1" /><rect shape-rendering="crispEdges" fill="rgb(222, 222, 222)"  x="27" y="14" width="1" height="1" /><rect shape-rendering="crispEdges" fill="rgb(180, 172, 172)"  x="27" y="15" width="1" height="1" /><rect shape-rendering="crispEdges" fill="rgb(90, 65, 106)"  x="27" y="16" width="1" height="1" /></svg>