<svg xmlns="http://www.w3.org/2000/svg" xmlns:xlink= "http://www.w3.org/1999/xlink" width="32" height="32" viewBox ="0 0 32 32"><rect shape-rendering="crispEdges" fill="rgb(246, 238, 180)"  x="1" y="11" width="1" height="1" /><rect shape-rendering="crispEdges" fill="rgb(222, 180, 115)"  x="1" y="12" width="1" height="1" /><rect shape-rendering="crispEdges" fill="rgb(246, 230, 189)"  x="2" y="10" width="1" height="1" /><rect shape-rendering="crispEdges" fill="rgb(180, 139, 82)"  x="2" y="11" width="1" height="1" /><rect shape-rendering="crispEdges" fill="rgb(205, 172, 90)"  x="2" y="15" width="1" height="1" /><rect shape-rendering="crispEdges" fill="rgb(230, 197, 148)"  x="2" y="16" width="1" height="1" /><rect shape-rendering="crispEdges" fill="rgb(205, 172, 90)"  x="2" y="17" width="1" height="1" /><rect shape-rendering="crispEdges" fill="rgb(205, 172, 90)"  x="2" y="18" width="1" height="1" /><rect shape-rendering="crispEdges" fill="rgb(205, 172, 90)"  x="2" y="19" width="1" height="1" /><rect shape-rendering="crispEdges" fill="rgb(180, 139, 82)"  x="2" y="20" width="1" height="1" /><rect shape-rendering="crispEdges" fill="rgb(180, 139, 82)"  x="2" y="21" width="1" height="1" /><rect shape-rendering="crispEdges" fill="rgb(246, 205, 139)"  x="3" y="9" width="1" height="1" /><rect shape-rendering="crispEdges" fill="rgb(246, 255, 246)"  x="3" y="10" width="1" height="1" /><rect shape-rendering="crispEdges" fill="rgb(180, 139, 82)"  x="3" y="11" width="1" height="1" /><rect shape-rendering="crispEdges" fill="rgb(205, 172, 90)"  x="3" y="13" width="1" height="1" /><rect shape-rendering="crispEdges" fill="rgb(230, 197, 148)"  x="3" y="14" width="1" height="1" /><rect shape-rendering="crispEdges" fill="rgb(246, 213, 172)"  x="3" y="15" width="1" height="1" /><rect shape-rendering="crispEdges" fill="rgb(246, 238, 180)"  x="3" y="16" width="1" height="1" /><rect shape-rendering="crispEdges" fill="rgb(246, 213, 156)"  x="3" y="17" width="1" height="1" /><rect shape-rendering="crispEdges" fill="rgb(238, 197, 139)"  x="3" y="18" width="1" height="1" /><rect shape-rendering="crispEdges" fill="rgb(180, 139, 82)"  x="3" y="19" width="1" height="1" /><rect shape-rendering="crispEdges" fill="rgb(238, 131, 24)"  x="4" y="8" width="1" height="1" /><rect shape-rendering="crispEdges" fill="rgb(222, 222, 131)"  x="4" y="9" width="1" height="1" /><rect shape-rendering="crispEdges" fill="rgb(246, 255, 246)"  x="4" y="10" width="1" height="1" /><rect shape-rendering="crispEdges" fill="rgb(246, 222, 180)"  x="4" y="11" width="1" height="1" /><rect shape-rendering="crispEdges" fill="rgb(180, 139, 82)"  x="4" y="12" width="1" height="1" /><rect shape-rendering="crispEdges" fill="rgb(255, 246, 222)"  x="4" y="13" width="1" height="1" /><rect shape-rendering="crispEdges" fill="rgb(246, 255, 246)"  x="4" y="14" width="1" height="1" /><rect shape-rendering="crispEdges" fill="rgb(255, 246, 205)"  x="4" y="15" width="1" height="1" /><rect shape-rendering="crispEdges" fill="rgb(246, 213, 156)"  x="4" y="16" width="1" height="1" /><rect shape-rendering="crispEdges" fill="rgb(246, 222, 180)"  x="4" y="17" width="1" height="1" /><rect shape-rendering="crispEdges" fill="rgb(180, 139, 82)"  x="4" y="18" width="1" height="1" /><rect shape-rendering="crispEdges" fill="rgb(238, 131, 24)"  x="5" y="7" width="1" height="1" /><rect shape-rendering="crispEdges" fill="rgb(255, 238, 180)"  x="5" y="8" width="1" height="1" /><rect shape-rendering="crispEdges" fill="rgb(213, 115, 0)"  x="5" y="9" width="1" height="1" /><rect shape-rendering="crispEdges" fill="rgb(246, 255, 246)"  x="5" y="10" width="1" height="1" /><rect shape-rendering="crispEdges" fill="rgb(246, 255, 246)"  x="5" y="11" width="1" height="1" /><rect shape-rendering="crispEdges" fill="rgb(246, 222, 197)"  x="5" y="12" width="1" height="1" /><rect shape-rendering="crispEdges" fill="rgb(246, 255, 246)"  x="5" y="13" width="1" height="1" /><rect shape-rendering="crispEdges" fill="rgb(238, 131, 24)"  x="5" y="14" width="1" height="1" /><rect shape-rendering="crispEdges" fill="rgb(246, 255, 246)"  x="5" y="15" width="1" height="1" /><rect shape-rendering="crispEdges" fill="rgb(246, 230, 189)"  x="5" y="16" width="1" height="1" /><rect shape-rendering="crispEdges" fill="rgb(246, 213, 156)"  x="5" y="17" width="1" height="1" /><rect shape-rendering="crispEdges" fill="rgb(180, 139, 82)"  x="5" y="18" width="1" height="1" /><rect shape-rendering="crispEdges" fill="rgb(238, 131, 24)"  x="6" y="7" width="1" height="1" /><rect shape-rendering="crispEdges" fill="rgb(255, 238, 180)"  x="6" y="8" width="1" height="1" /><rect shape-rendering="crispEdges" fill="rgb(213, 115, 0)"  x="6" y="9" width="1" height="1" /><rect shape-rendering="crispEdges" fill="rgb(238, 222, 123)"  x="6" y="10" width="1" height="1" /><rect shape-rendering="crispEdges" fill="rgb(255, 246, 222)"  x="6" y="11" width="1" height="1" /><rect shape-rendering="crispEdges" fill="rgb(246, 222, 148)"  x="6" y="12" width="1" height="1" /><rect shape-rendering="crispEdges" fill="rgb(238, 131, 24)"  x="6" y="13" width="1" height="1" /><rect shape-rendering="crispEdges" fill="rgb(213, 115, 0)"  x="6" y="14" width="1" height="1" /><rect shape-rendering="crispEdges" fill="rgb(246, 255, 246)"  x="6" y="15" width="1" height="1" /><rect shape-rendering="crispEdges" fill="rgb(246, 255, 246)"  x="6" y="16" width="1" height="1" /><rect shape-rendering="crispEdges" fill="rgb(246, 230, 172)"  x="6" y="17" width="1" height="1" /><rect shape-rendering="crispEdges" fill="rgb(180, 139, 82)"  x="6" y="18" width="1" height="1" /><rect shape-rendering="crispEdges" fill="rgb(238, 131, 24)"  x="7" y="7" width="1" height="1" /><rect shape-rendering="crispEdges" fill="rgb(255, 238, 180)"  x="7" y="8" width="1" height="1" /><rect shape-rendering="crispEdges" fill="rgb(255, 172, 74)"  x="7" y="9" width="1" height="1" /><rect shape-rendering="crispEdges" fill="rgb(213, 115, 0)"  x="7" y="10" width="1" height="1" /><rect shape-rendering="crispEdges" fill="rgb(238, 131, 24)"  x="7" y="11" width="1" height="1" /><rect shape-rendering="crispEdges" fill="rgb(238, 131, 24)"  x="7" y="12" width="1" height="1" /><rect shape-rendering="crispEdges" fill="rgb(255, 180, 115)"  x="7" y="13" width="1" height="1" /><rect shape-rendering="crispEdges" fill="rgb(197, 98, 0)"  x="7" y="14" width="1" height="1" /><rect shape-rendering="crispEdges" fill="rgb(246, 255, 246)"  x="7" y="15" width="1" height="1" /><rect shape-rendering="crispEdges" fill="rgb(246, 230, 172)"  x="7" y="16" width="1" height="1" /><rect shape-rendering="crispEdges" fill="rgb(180, 139, 82)"  x="7" y="17" width="1" height="1" /><rect shape-rendering="crispEdges" fill="rgb(238, 131, 24)"  x="8" y="6" width="1" height="1" /><rect shape-rendering="crispEdges" fill="rgb(197, 98, 0)"  x="8" y="7" width="1" height="1" /><rect shape-rendering="crispEdges" fill="rgb(255, 238, 180)"  x="8" y="8" width="1" height="1" /><rect shape-rendering="crispEdges" fill="rgb(255, 197, 115)"  x="8" y="9" width="1" height="1" /><rect shape-rendering="crispEdges" fill="rgb(255, 172, 74)"  x="8" y="10" width="1" height="1" /><rect shape-rendering="crispEdges" fill="rgb(255, 172, 74)"  x="8" y="11" width="1" height="1" /><rect shape-rendering="crispEdges" fill="rgb(255, 238, 180)"  x="8" y="12" width="1" height="1" /><rect shape-rendering="crispEdges" fill="rgb(197, 98, 0)"  x="8" y="13" width="1" height="1" /><rect shape-rendering="crispEdges" fill="rgb(255, 238, 189)"  x="8" y="14" width="1" height="1" /><rect shape-rendering="crispEdges" fill="rgb(246, 238, 197)"  x="8" y="15" width="1" height="1" /><rect shape-rendering="crispEdges" fill="rgb(246, 230, 172)"  x="8" y="16" width="1" height="1" /><rect shape-rendering="crispEdges" fill="rgb(180, 139, 82)"  x="8" y="17" width="1" height="1" /><rect shape-rendering="crispEdges" fill="rgb(180, 139, 82)"  x="8" y="18" width="1" height="1" /><rect shape-rendering="crispEdges" fill="rgb(205, 172, 90)"  x="8" y="19" width="1" height="1" /><rect shape-rendering="crispEdges" fill="rgb(205, 172, 90)"  x="8" y="20" width="1" height="1" /><rect shape-rendering="crispEdges" fill="rgb(230, 197, 148)"  x="8" y="21" width="1" height="1" /><rect shape-rendering="crispEdges" fill="rgb(230, 197, 148)"  x="8" y="22" width="1" height="1" /><rect shape-rendering="crispEdges" fill="rgb(238, 131, 24)"  x="9" y="5" width="1" height="1" /><rect shape-rendering="crispEdges" fill="rgb(197, 98, 0)"  x="9" y="6" width="1" height="1" /><rect shape-rendering="crispEdges" fill="rgb(197, 98, 0)"  x="9" y="7" width="1" height="1" /><rect shape-rendering="crispEdges" fill="rgb(197, 98, 0)"  x="9" y="8" width="1" height="1" /><rect shape-rendering="crispEdges" fill="rgb(197, 98, 0)"  x="9" y="9" width="1" height="1" /><rect shape-rendering="crispEdges" fill="rgb(246, 164, 65)"  x="9" y="10" width="1" height="1" /><rect shape-rendering="crispEdges" fill="rgb(255, 205, 123)"  x="9" y="11" width="1" height="1" /><rect shape-rendering="crispEdges" fill="rgb(255, 238, 180)"  x="9" y="12" width="1" height="1" /><rect shape-rendering="crispEdges" fill="rgb(197, 98, 0)"  x="9" y="13" width="1" height="1" /><rect shape-rendering="crispEdges" fill="rgb(255, 246, 205)"  x="9" y="14" width="1" height="1" /><rect shape-rendering="crispEdges" fill="rgb(255, 246, 205)"  x="9" y="15" width="1" height="1" /><rect shape-rendering="crispEdges" fill="rgb(246, 230, 189)"  x="9" y="16" width="1" height="1" /><rect shape-rendering="crispEdges" fill="rgb(255, 255, 238)"  x="9" y="17" width="1" height="1" /><rect shape-rendering="crispEdges" fill="rgb(255, 255, 222)"  x="9" y="18" width="1" height="1" /><rect shape-rendering="crispEdges" fill="rgb(255, 246, 205)"  x="9" y="19" width="1" height="1" /><rect shape-rendering="crispEdges" fill="rgb(246, 230, 189)"  x="9" y="20" width="1" height="1" /><rect shape-rendering="crispEdges" fill="rgb(246, 213, 156)"  x="9" y="21" width="1" height="1" /><rect shape-rendering="crispEdges" fill="rgb(246, 222, 180)"  x="9" y="22" width="1" height="1" /><rect shape-rendering="crispEdges" fill="rgb(246, 205, 148)"  x="9" y="23" width="1" height="1" /><rect shape-rendering="crispEdges" fill="rgb(230, 189, 139)"  x="9" y="24" width="1" height="1" /><rect shape-rendering="crispEdges" fill="rgb(197, 98, 0)"  x="10" y="10" width="1" height="1" /><rect shape-rendering="crispEdges" fill="rgb(238, 172, 98)"  x="10" y="11" width="1" height="1" /><rect shape-rendering="crispEdges" fill="rgb(255, 238, 197)"  x="10" y="12" width="1" height="1" /><rect shape-rendering="crispEdges" fill="rgb(238, 131, 24)"  x="10" y="13" width="1" height="1" /><rect shape-rendering="crispEdges" fill="rgb(238, 131, 24)"  x="10" y="14" width="1" height="1" /><rect shape-rendering="crispEdges" fill="rgb(246, 230, 90)"  x="10" y="15" width="1" height="1" /><rect shape-rendering="crispEdges" fill="rgb(230, 222, 131)"  x="10" y="16" width="1" height="1" /><rect shape-rendering="crispEdges" fill="rgb(246, 255, 246)"  x="10" y="17" width="1" height="1" /><rect shape-rendering="crispEdges" fill="rgb(246, 255, 238)"  x="10" y="18" width="1" height="1" /><rect shape-rendering="crispEdges" fill="rgb(246, 255, 238)"  x="10" y="19" width="1" height="1" /><rect shape-rendering="crispEdges" fill="rgb(246, 213, 156)"  x="10" y="20" width="1" height="1" /><rect shape-rendering="crispEdges" fill="rgb(246, 222, 180)"  x="10" y="21" width="1" height="1" /><rect shape-rendering="crispEdges" fill="rgb(246, 213, 156)"  x="10" y="22" width="1" height="1" /><rect shape-rendering="crispEdges" fill="rgb(230, 197, 131)"  x="10" y="23" width="1" height="1" /><rect shape-rendering="crispEdges" fill="rgb(222, 180, 115)"  x="10" y="24" width="1" height="1" /><rect shape-rendering="crispEdges" fill="rgb(180, 139, 82)"  x="10" y="25" width="1" height="1" /><rect shape-rendering="crispEdges" fill="rgb(180, 139, 82)"  x="10" y="26" width="1" height="1" /><rect shape-rendering="crispEdges" fill="rgb(197, 98, 0)"  x="11" y="11" width="1" height="1" /><rect shape-rendering="crispEdges" fill="rgb(255, 238, 180)"  x="11" y="12" width="1" height="1" /><rect shape-rendering="crispEdges" fill="rgb(255, 205, 123)"  x="11" y="13" width="1" height="1" /><rect shape-rendering="crispEdges" fill="rgb(255, 197, 98)"  x="11" y="14" width="1" height="1" /><rect shape-rendering="crispEdges" fill="rgb(213, 115, 0)"  x="11" y="15" width="1" height="1" /><rect shape-rendering="crispEdges" fill="rgb(213, 115, 0)"  x="11" y="16" width="1" height="1" /><rect shape-rendering="crispEdges" fill="rgb(255, 246, 197)"  x="11" y="17" width="1" height="1" /><rect shape-rendering="crispEdges" fill="rgb(246, 255, 246)"  x="11" y="18" width="1" height="1" /><rect shape-rendering="crispEdges" fill="rgb(255, 246, 205)"  x="11" y="19" width="1" height="1" /><rect shape-rendering="crispEdges" fill="rgb(230, 189, 131)"  x="11" y="20" width="1" height="1" /><rect shape-rendering="crispEdges" fill="rgb(180, 139, 82)"  x="11" y="21" width="1" height="1" /><rect shape-rendering="crispEdges" fill="rgb(180, 139, 82)"  x="11" y="22" width="1" height="1" /><rect shape-rendering="crispEdges" fill="rgb(197, 98, 0)"  x="12" y="12" width="1" height="1" /><rect shape-rendering="crispEdges" fill="rgb(255, 205, 131)"  x="12" y="13" width="1" height="1" /><rect shape-rendering="crispEdges" fill="rgb(213, 115, 0)"  x="12" y="14" width="1" height="1" /><rect shape-rendering="crispEdges" fill="rgb(222, 222, 123)"  x="12" y="15" width="1" height="1" /><rect shape-rendering="crispEdges" fill="rgb(255, 255, 213)"  x="12" y="16" width="1" height="1" /><rect shape-rendering="crispEdges" fill="rgb(246, 255, 246)"  x="12" y="17" width="1" height="1" /><rect shape-rendering="crispEdges" fill="rgb(246, 238, 197)"  x="12" y="18" width="1" height="1" /><rect shape-rendering="crispEdges" fill="rgb(230, 189, 131)"  x="12" y="19" width="1" height="1" /><rect shape-rendering="crispEdges" fill="rgb(197, 98, 0)"  x="13" y="12" width="1" height="1" /><rect shape-rendering="crispEdges" fill="rgb(246, 172, 98)"  x="13" y="13" width="1" height="1" /><rect shape-rendering="crispEdges" fill="rgb(197, 98, 0)"  x="13" y="14" width="1" height="1" /><rect shape-rendering="crispEdges" fill="rgb(255, 238, 213)"  x="13" y="15" width="1" height="1" /><rect shape-rendering="crispEdges" fill="rgb(246, 255, 246)"  x="13" y="16" width="1" height="1" /><rect shape-rendering="crispEdges" fill="rgb(246, 238, 197)"  x="13" y="17" width="1" height="1" /><rect shape-rendering="crispEdges" fill="rgb(246, 238, 197)"  x="13" y="18" width="1" height="1" /><rect shape-rendering="crispEdges" fill="rgb(197, 98, 0)"  x="14" y="12" width="1" height="1" /><rect shape-rendering="crispEdges" fill="rgb(238, 156, 32)"  x="14" y="13" width="1" height="1" /><rect shape-rendering="crispEdges" fill="rgb(197, 98, 0)"  x="14" y="14" width="1" height="1" /><rect shape-rendering="crispEdges" fill="rgb(255, 238, 213)"  x="14" y="15" width="1" height="1" /><rect shape-rendering="crispEdges" fill="rgb(246, 255, 246)"  x="14" y="16" width="1" height="1" /><rect shape-rendering="crispEdges" fill="rgb(255, 255, 255)"  x="14" y="17" width="1" height="1" /><rect shape-rendering="crispEdges" fill="rgb(180, 139, 82)"  x="14" y="18" width="1" height="1" /><rect shape-rendering="crispEdges" fill="rgb(197, 98, 0)"  x="15" y="11" width="1" height="1" /><rect shape-rendering="crispEdges" fill="rgb(255, 238, 180)"  x="15" y="12" width="1" height="1" /><rect shape-rendering="crispEdges" fill="rgb(222, 123, 8)"  x="15" y="13" width="1" height="1" /><rect shape-rendering="crispEdges" fill="rgb(238, 131, 24)"  x="15" y="14" width="1" height="1" /><rect shape-rendering="crispEdges" fill="rgb(197, 98, 0)"  x="15" y="15" width="1" height="1" /><rect shape-rendering="crispEdges" fill="rgb(255, 238, 213)"  x="15" y="16" width="1" height="1" /><rect shape-rendering="crispEdges" fill="rgb(246, 255, 246)"  x="15" y="17" width="1" height="1" /><rect shape-rendering="crispEdges" fill="rgb(255, 255, 255)"  x="15" y="18" width="1" height="1" /><rect shape-rendering="crispEdges" fill="rgb(180, 139, 82)"  x="15" y="19" width="1" height="1" /><rect shape-rendering="crispEdges" fill="rgb(197, 98, 0)"  x="16" y="10" width="1" height="1" /><rect shape-rendering="crispEdges" fill="rgb(255, 238, 180)"  x="16" y="11" width="1" height="1" /><rect shape-rendering="crispEdges" fill="rgb(222, 123, 8)"  x="16" y="12" width="1" height="1" /><rect shape-rendering="crispEdges" fill="rgb(238, 156, 32)"  x="16" y="13" width="1" height="1" /><rect shape-rendering="crispEdges" fill="rgb(238, 156, 32)"  x="16" y="14" width="1" height="1" /><rect shape-rendering="crispEdges" fill="rgb(213, 115, 0)"  x="16" y="15" width="1" height="1" /><rect shape-rendering="crispEdges" fill="rgb(197, 98, 0)"  x="16" y="16" width="1" height="1" /><rect shape-rendering="crispEdges" fill="rgb(255, 255, 238)"  x="16" y="17" width="1" height="1" /><rect shape-rendering="crispEdges" fill="rgb(255, 255, 255)"  x="16" y="18" width="1" height="1" /><rect shape-rendering="crispEdges" fill="rgb(255, 255, 255)"  x="16" y="19" width="1" height="1" /><rect shape-rendering="crispEdges" fill="rgb(205, 172, 90)"  x="16" y="20" width="1" height="1" /><rect shape-rendering="crispEdges" fill="rgb(197, 98, 0)"  x="17" y="8" width="1" height="1" /><rect shape-rendering="crispEdges" fill="rgb(197, 98, 0)"  x="17" y="9" width="1" height="1" /><rect shape-rendering="crispEdges" fill="rgb(255, 238, 180)"  x="17" y="10" width="1" height="1" /><rect shape-rendering="crispEdges" fill="rgb(222, 123, 8)"  x="17" y="11" width="1" height="1" /><rect shape-rendering="crispEdges" fill="rgb(238, 156, 32)"  x="17" y="12" width="1" height="1" /><rect shape-rendering="crispEdges" fill="rgb(213, 115, 0)"  x="17" y="13" width="1" height="1" /><rect shape-rendering="crispEdges" fill="rgb(197, 98, 0)"  x="17" y="14" width="1" height="1" /><rect shape-rendering="crispEdges" fill="rgb(197, 98, 0)"  x="17" y="15" width="1" height="1" /><rect shape-rendering="crispEdges" fill="rgb(246, 238, 148)"  x="17" y="16" width="1" height="1" /><rect shape-rendering="crispEdges" fill="rgb(255, 238, 213)"  x="17" y="17" width="1" height="1" /><rect shape-rendering="crispEdges" fill="rgb(255, 255, 255)"  x="17" y="18" width="1" height="1" /><rect shape-rendering="crispEdges" fill="rgb(255, 255, 255)"  x="17" y="19" width="1" height="1" /><rect shape-rendering="crispEdges" fill="rgb(246, 230, 189)"  x="17" y="20" width="1" height="1" /><rect shape-rendering="crispEdges" fill="rgb(205, 172, 90)"  x="17" y="21" width="1" height="1" /><rect shape-rendering="crispEdges" fill="rgb(197, 98, 0)"  x="18" y="5" width="1" height="1" /><rect shape-rendering="crispEdges" fill="rgb(197, 98, 0)"  x="18" y="6" width="1" height="1" /><rect shape-rendering="crispEdges" fill="rgb(197, 98, 0)"  x="18" y="7" width="1" height="1" /><rect shape-rendering="crispEdges" fill="rgb(255, 238, 180)"  x="18" y="8" width="1" height="1" /><rect shape-rendering="crispEdges" fill="rgb(255, 238, 180)"  x="18" y="9" width="1" height="1" /><rect shape-rendering="crispEdges" fill="rgb(246, 164, 65)"  x="18" y="10" width="1" height="1" /><rect shape-rendering="crispEdges" fill="rgb(255, 205, 123)"  x="18" y="11" width="1" height="1" /><rect shape-rendering="crispEdges" fill="rgb(238, 156, 32)"  x="18" y="12" width="1" height="1" /><rect shape-rendering="crispEdges" fill="rgb(213, 115, 0)"  x="18" y="13" width="1" height="1" /><rect shape-rendering="crispEdges" fill="rgb(255, 238, 213)"  x="18" y="14" width="1" height="1" /><rect shape-rendering="crispEdges" fill="rgb(255, 246, 222)"  x="18" y="15" width="1" height="1" /><rect shape-rendering="crispEdges" fill="rgb(255, 255, 238)"  x="18" y="16" width="1" height="1" /><rect shape-rendering="crispEdges" fill="rgb(255, 255, 238)"  x="18" y="17" width="1" height="1" /><rect shape-rendering="crispEdges" fill="rgb(246, 255, 246)"  x="18" y="18" width="1" height="1" /><rect shape-rendering="crispEdges" fill="rgb(246, 255, 246)"  x="18" y="19" width="1" height="1" /><rect shape-rendering="crispEdges" fill="rgb(246, 255, 238)"  x="18" y="20" width="1" height="1" /><rect shape-rendering="crispEdges" fill="rgb(246, 213, 172)"  x="18" y="21" width="1" height="1" /><rect shape-rendering="crispEdges" fill="rgb(230, 197, 131)"  x="18" y="22" width="1" height="1" /><rect shape-rendering="crispEdges" fill="rgb(197, 98, 0)"  x="19" y="6" width="1" height="1" /><rect shape-rendering="crispEdges" fill="rgb(255, 238, 180)"  x="19" y="7" width="1" height="1" /><rect shape-rendering="crispEdges" fill="rgb(238, 148, 32)"  x="19" y="8" width="1" height="1" /><rect shape-rendering="crispEdges" fill="rgb(238, 148, 32)"  x="19" y="9" width="1" height="1" /><rect shape-rendering="crispEdges" fill="rgb(222, 123, 8)"  x="19" y="10" width="1" height="1" /><rect shape-rendering="crispEdges" fill="rgb(255, 205, 148)"  x="19" y="11" width="1" height="1" /><rect shape-rendering="crispEdges" fill="rgb(246, 172, 82)"  x="19" y="12" width="1" height="1" /><rect shape-rendering="crispEdges" fill="rgb(213, 115, 0)"  x="19" y="13" width="1" height="1" /><rect shape-rendering="crispEdges" fill="rgb(255, 238, 213)"  x="19" y="14" width="1" height="1" /><rect shape-rendering="crispEdges" fill="rgb(255, 238, 213)"  x="19" y="15" width="1" height="1" /><rect shape-rendering="crispEdges" fill="rgb(246, 255, 246)"  x="19" y="16" width="1" height="1" /><rect shape-rendering="crispEdges" fill="rgb(246, 255, 246)"  x="19" y="17" width="1" height="1" /><rect shape-rendering="crispEdges" fill="rgb(255, 255, 238)"  x="19" y="18" width="1" height="1" /><rect shape-rendering="crispEdges" fill="rgb(255, 255, 222)"  x="19" y="19" width="1" height="1" /><rect shape-rendering="crispEdges" fill="rgb(246, 222, 180)"  x="19" y="20" width="1" height="1" /><rect shape-rendering="crispEdges" fill="rgb(255, 246, 205)"  x="19" y="21" width="1" height="1" /><rect shape-rendering="crispEdges" fill="rgb(246, 222, 156)"  x="19" y="22" width="1" height="1" /><rect shape-rendering="crispEdges" fill="rgb(205, 172, 90)"  x="19" y="23" width="1" height="1" /><rect shape-rendering="crispEdges" fill="rgb(180, 139, 82)"  x="19" y="27" width="1" height="1" /><rect shape-rendering="crispEdges" fill="rgb(197, 98, 0)"  x="20" y="7" width="1" height="1" /><rect shape-rendering="crispEdges" fill="rgb(238, 148, 32)"  x="20" y="8" width="1" height="1" /><rect shape-rendering="crispEdges" fill="rgb(255, 172, 74)"  x="20" y="9" width="1" height="1" /><rect shape-rendering="crispEdges" fill="rgb(222, 148, 65)"  x="20" y="10" width="1" height="1" /><rect shape-rendering="crispEdges" fill="rgb(197, 98, 0)"  x="20" y="11" width="1" height="1" /><rect shape-rendering="crispEdges" fill="rgb(255, 205, 148)"  x="20" y="12" width="1" height="1" /><rect shape-rendering="crispEdges" fill="rgb(197, 98, 0)"  x="20" y="13" width="1" height="1" /><rect shape-rendering="crispEdges" fill="rgb(255, 238, 213)"  x="20" y="14" width="1" height="1" /><rect shape-rendering="crispEdges" fill="rgb(246, 222, 180)"  x="20" y="15" width="1" height="1" /><rect shape-rendering="crispEdges" fill="rgb(246, 213, 148)"  x="20" y="16" width="1" height="1" /><rect shape-rendering="crispEdges" fill="rgb(255, 255, 238)"  x="20" y="17" width="1" height="1" /><rect shape-rendering="crispEdges" fill="rgb(246, 255, 238)"  x="20" y="18" width="1" height="1" /><rect shape-rendering="crispEdges" fill="rgb(255, 255, 213)"  x="20" y="19" width="1" height="1" /><rect shape-rendering="crispEdges" fill="rgb(246, 238, 197)"  x="20" y="20" width="1" height="1" /><rect shape-rendering="crispEdges" fill="rgb(246, 222, 180)"  x="20" y="21" width="1" height="1" /><rect shape-rendering="crispEdges" fill="rgb(246, 238, 197)"  x="20" y="22" width="1" height="1" /><rect shape-rendering="crispEdges" fill="rgb(246, 222, 180)"  x="20" y="23" width="1" height="1" /><rect shape-rendering="crispEdges" fill="rgb(205, 172, 90)"  x="20" y="24" width="1" height="1" /><rect shape-rendering="crispEdges" fill="rgb(205, 172, 90)"  x="20" y="25" width="1" height="1" /><rect shape-rendering="crispEdges" fill="rgb(180, 139, 82)"  x="20" y="26" width="1" height="1" /><rect shape-rendering="crispEdges" fill="rgb(197, 98, 0)"  x="21" y="7" width="1" height="1" /><rect shape-rendering="crispEdges" fill="rgb(255, 172, 74)"  x="21" y="8" width="1" height="1" /><rect shape-rendering="crispEdges" fill="rgb(213, 115, 0)"  x="21" y="9" width="1" height="1" /><rect shape-rendering="crispEdges" fill="rgb(197, 98, 0)"  x="21" y="10" width="1" height="1" /><rect shape-rendering="crispEdges" fill="rgb(246, 230, 189)"  x="21" y="11" width="1" height="1" /><rect shape-rendering="crispEdges" fill="rgb(197, 98, 0)"  x="21" y="12" width="1" height="1" /><rect shape-rendering="crispEdges" fill="rgb(197, 98, 0)"  x="21" y="13" width="1" height="1" /><rect shape-rendering="crispEdges" fill="rgb(255, 255, 238)"  x="21" y="14" width="1" height="1" /><rect shape-rendering="crispEdges" fill="rgb(255, 255, 238)"  x="21" y="15" width="1" height="1" /><rect shape-rendering="crispEdges" fill="rgb(246, 238, 197)"  x="21" y="16" width="1" height="1" /><rect shape-rendering="crispEdges" fill="rgb(180, 139, 82)"  x="21" y="17" width="1" height="1" /><rect shape-rendering="crispEdges" fill="rgb(180, 139, 82)"  x="21" y="18" width="1" height="1" /><rect shape-rendering="crispEdges" fill="rgb(246, 230, 189)"  x="21" y="19" width="1" height="1" /><rect shape-rendering="crispEdges" fill="rgb(246, 222, 180)"  x="21" y="20" width="1" height="1" /><rect shape-rendering="crispEdges" fill="rgb(246, 230, 189)"  x="21" y="21" width="1" height="1" /><rect shape-rendering="crispEdges" fill="rgb(246, 230, 172)"  x="21" y="22" width="1" height="1" /><rect shape-rendering="crispEdges" fill="rgb(222, 180, 115)"  x="21" y="23" width="1" height="1" /><rect shape-rendering="crispEdges" fill="rgb(180, 139, 82)"  x="21" y="24" width="1" height="1" /><rect shape-rendering="crispEdges" fill="rgb(180, 139, 82)"  x="21" y="25" width="1" height="1" /><rect shape-rendering="crispEdges" fill="rgb(197, 98, 0)"  x="22" y="7" width="1" height="1" /><rect shape-rendering="crispEdges" fill="rgb(246, 164, 65)"  x="22" y="8" width="1" height="1" /><rect shape-rendering="crispEdges" fill="rgb(197, 98, 0)"  x="22" y="9" width="1" height="1" /><rect shape-rendering="crispEdges" fill="rgb(246, 230, 189)"  x="22" y="10" width="1" height="1" /><rect shape-rendering="crispEdges" fill="rgb(255, 255, 238)"  x="22" y="11" width="1" height="1" /><rect shape-rendering="crispEdges" fill="rgb(246, 230, 189)"  x="22" y="12" width="1" height="1" /><rect shape-rendering="crispEdges" fill="rgb(197, 98, 0)"  x="22" y="13" width="1" height="1" /><rect shape-rendering="crispEdges" fill="rgb(255, 255, 238)"  x="22" y="14" width="1" height="1" /><rect shape-rendering="crispEdges" fill="rgb(246, 255, 246)"  x="22" y="15" width="1" height="1" /><rect shape-rendering="crispEdges" fill="rgb(246, 255, 238)"  x="22" y="16" width="1" height="1" /><rect shape-rendering="crispEdges" fill="rgb(230, 189, 131)"  x="22" y="17" width="1" height="1" /><rect shape-rendering="crispEdges" fill="rgb(180, 139, 82)"  x="22" y="19" width="1" height="1" /><rect shape-rendering="crispEdges" fill="rgb(180, 139, 82)"  x="22" y="20" width="1" height="1" /><rect shape-rendering="crispEdges" fill="rgb(180, 139, 82)"  x="22" y="21" width="1" height="1" /><rect shape-rendering="crispEdges" fill="rgb(180, 139, 82)"  x="22" y="22" width="1" height="1" /><rect shape-rendering="crispEdges" fill="rgb(197, 98, 0)"  x="23" y="8" width="1" height="1" /><rect shape-rendering="crispEdges" fill="rgb(197, 98, 0)"  x="23" y="9" width="1" height="1" /><rect shape-rendering="crispEdges" fill="rgb(255, 255, 238)"  x="23" y="10" width="1" height="1" /><rect shape-rendering="crispEdges" fill="rgb(246, 230, 189)"  x="23" y="11" width="1" height="1" /><rect shape-rendering="crispEdges" fill="rgb(246, 222, 180)"  x="23" y="12" width="1" height="1" /><rect shape-rendering="crispEdges" fill="rgb(255, 255, 213)"  x="23" y="13" width="1" height="1" /><rect shape-rendering="crispEdges" fill="rgb(255, 255, 238)"  x="23" y="14" width="1" height="1" /><rect shape-rendering="crispEdges" fill="rgb(255, 255, 238)"  x="23" y="15" width="1" height="1" /><rect shape-rendering="crispEdges" fill="rgb(246, 255, 246)"  x="23" y="16" width="1" height="1" /><rect shape-rendering="crispEdges" fill="rgb(222, 180, 131)"  x="23" y="17" width="1" height="1" /><rect shape-rendering="crispEdges" fill="rgb(197, 98, 0)"  x="24" y="8" width="1" height="1" /><rect shape-rendering="crispEdges" fill="rgb(230, 189, 123)"  x="24" y="9" width="1" height="1" /><rect shape-rendering="crispEdges" fill="rgb(255, 255, 238)"  x="24" y="10" width="1" height="1" /><rect shape-rendering="crispEdges" fill="rgb(246, 238, 197)"  x="24" y="11" width="1" height="1" /><rect shape-rendering="crispEdges" fill="rgb(246, 222, 180)"  x="24" y="12" width="1" height="1" /><rect shape-rendering="crispEdges" fill="rgb(255, 246, 205)"  x="24" y="13" width="1" height="1" /><rect shape-rendering="crispEdges" fill="rgb(246, 255, 238)"  x="24" y="14" width="1" height="1" /><rect shape-rendering="crispEdges" fill="rgb(255, 246, 222)"  x="24" y="15" width="1" height="1" /><rect shape-rendering="crispEdges" fill="rgb(255, 246, 222)"  x="24" y="16" width="1" height="1" /><rect shape-rendering="crispEdges" fill="rgb(222, 180, 131)"  x="24" y="17" width="1" height="1" /><rect shape-rendering="crispEdges" fill="rgb(180, 139, 82)"  x="25" y="9" width="1" height="1" /><rect shape-rendering="crispEdges" fill="rgb(255, 255, 238)"  x="25" y="10" width="1" height="1" /><rect shape-rendering="crispEdges" fill="rgb(255, 255, 238)"  x="25" y="11" width="1" height="1" /><rect shape-rendering="crispEdges" fill="rgb(246, 238, 180)"  x="25" y="12" width="1" height="1" /><rect shape-rendering="crispEdges" fill="rgb(222, 180, 115)"  x="25" y="13" width="1" height="1" /><rect shape-rendering="crispEdges" fill="rgb(255, 255, 213)"  x="25" y="14" width="1" height="1" /><rect shape-rendering="crispEdges" fill="rgb(255, 255, 213)"  x="25" y="15" width="1" height="1" /><rect shape-rendering="crispEdges" fill="rgb(246, 222, 172)"  x="25" y="16" width="1" height="1" /><rect shape-rendering="crispEdges" fill="rgb(246, 230, 172)"  x="25" y="17" width="1" height="1" /><rect shape-rendering="crispEdges" fill="rgb(222, 180, 131)"  x="25" y="18" width="1" height="1" /><rect shape-rendering="crispEdges" fill="rgb(205, 172, 90)"  x="26" y="10" width="1" height="1" /><rect shape-rendering="crispEdges" fill="rgb(246, 238, 180)"  x="26" y="11" width="1" height="1" /><rect shape-rendering="crispEdges" fill="rgb(255, 246, 205)"  x="26" y="12" width="1" height="1" /><rect shape-rendering="crispEdges" fill="rgb(222, 180, 131)"  x="26" y="13" width="1" height="1" /><rect shape-rendering="crispEdges" fill="rgb(230, 205, 139)"  x="26" y="14" width="1" height="1" /><rect shape-rendering="crispEdges" fill="rgb(246, 222, 180)"  x="26" y="15" width="1" height="1" /><rect shape-rendering="crispEdges" fill="rgb(246, 230, 189)"  x="26" y="16" width="1" height="1" /><rect shape-rendering="crispEdges" fill="rgb(246, 230, 172)"  x="26" y="17" width="1" height="1" /><rect shape-rendering="crispEdges" fill="rgb(222, 180, 131)"  x="26" y="18" width="1" height="1" /><rect shape-rendering="crispEdges" fill="rgb(180, 139, 82)"  x="27" y="10" width="1" height="1" /><rect shape-rendering="crispEdges" fill="rgb(230, 189, 123)"  x="27" y="11" width="1" height="1" /><rect shape-rendering="crispEdges" fill="rgb(246, 238, 180)"  x="27" y="12" width="1" height="1" /><rect shape-rendering="crispEdges" fill="rgb(180, 139, 82)"  x="27" y="13" width="1" height="1" /><rect shape-rendering="crispEdges" fill="rgb(180, 139, 82)"  x="27" y="15" width="1" height="1" /><rect shape-rendering="crispEdges" fill="rgb(180, 139, 82)"  x="27" y="16" width="1" height="1" /><rect shape-rendering="crispEdges" fill="rgb(246, 222, 172)"  x="27" y="17" width="1" height="1" /><rect shape-rendering="crispEdges" fill="rgb(246, 213, 148)"  x="27" y="18" width="1" height="1" /><rect shape-rendering="crispEdges" fill="rgb(205, 172, 90)"  x="27" y="19" width="1" height="1" /><rect shape-rendering="crispEdges" fill="rgb(180, 139, 82)"  x="28" y="11" width="1" height="1" /><rect shape-rendering="crispEdges" fill="rgb(230, 189, 139)"  x="28" y="12" width="1" height="1" /><rect shape-rendering="crispEdges" fill="rgb(180, 139, 82)"  x="28" y="13" width="1" height="1" /><rect shape-rendering="crispEdges" fill="rgb(180, 139, 82)"  x="28" y="17" width="1" height="1" /><rect shape-rendering="crispEdges" fill="rgb(180, 139, 82)"  x="28" y="18" width="1" height="1" /><rect shape-rendering="crispEdges" fill="rgb(180, 139, 82)"  x="28" y="19" width="1" height="1" /><rect shape-rendering="crispEdges" fill="rgb(180, 139, 82)"  x="28" y="20" width="1" height="1" /><rect shape-rendering="crispEdges" fill="rgb(180, 139, 82)"  x="28" y="21" width="1" height="1" /><rect shape-rendering="crispEdges" fill="rgb(180, 139, 82)"  x="29" y="11" width="1" height="1" /><rect shape-rendering="crispEdges" fill="rgb(180, 139, 82)"  x="29" y="12" width="1" height="1" /><rect shape-rendering="crispEdges" fill="rgb(180, 139, 82)"  x="30" y="10" width="1" height="1" /><rect shape-rendering="crispEdges" fill="rgb(180, 139, 82)"  x="30" y="11" width="1" height="1" /></svg>