<svg xmlns="http://www.w3.org/2000/svg" xmlns:xlink= "http://www.w3.org/1999/xlink" width="32" height="32" viewBox ="0 0 32 32"><rect shape-rendering="crispEdges" fill="rgb(213, 180, 164)"  x="6" y="15" width="1" height="1" /><rect shape-rendering="crispEdges" fill="rgb(213, 180, 164)"  x="6" y="16" width="1" height="1" /><rect shape-rendering="crispEdges" fill="rgb(213, 180, 164)"  x="6" y="17" width="1" height="1" /><rect shape-rendering="crispEdges" fill="rgb(213, 180, 164)"  x="6" y="18" width="1" height="1" /><rect shape-rendering="crispEdges" fill="rgb(213, 180, 164)"  x="6" y="19" width="1" height="1" /><rect shape-rendering="crispEdges" fill="rgb(213, 180, 164)"  x="6" y="20" width="1" height="1" /><rect shape-rendering="crispEdges" fill="rgb(213, 180, 164)"  x="6" y="21" width="1" height="1" /><rect shape-rendering="crispEdges" fill="rgb(213, 180, 164)"  x="6" y="22" width="1" height="1" /><rect shape-rendering="crispEdges" fill="rgb(213, 180, 164)"  x="6" y="23" width="1" height="1" /><rect shape-rendering="crispEdges" fill="rgb(172, 139, 115)"  x="6" y="24" width="1" height="1" /><rect shape-rendering="crispEdges" fill="rgb(213, 180, 164)"  x="7" y="14" width="1" height="1" /><rect shape-rendering="crispEdges" fill="rgb(255, 255, 246)"  x="7" y="15" width="1" height="1" /><rect shape-rendering="crispEdges" fill="rgb(255, 255, 238)"  x="7" y="16" width="1" height="1" /><rect shape-rendering="crispEdges" fill="rgb(255, 255, 238)"  x="7" y="17" width="1" height="1" /><rect shape-rendering="crispEdges" fill="rgb(255, 246, 230)"  x="7" y="18" width="1" height="1" /><rect shape-rendering="crispEdges" fill="rgb(255, 246, 230)"  x="7" y="19" width="1" height="1" /><rect shape-rendering="crispEdges" fill="rgb(255, 238, 222)"  x="7" y="20" width="1" height="1" /><rect shape-rendering="crispEdges" fill="rgb(246, 222, 213)"  x="7" y="21" width="1" height="1" /><rect shape-rendering="crispEdges" fill="rgb(238, 213, 197)"  x="7" y="22" width="1" height="1" /><rect shape-rendering="crispEdges" fill="rgb(222, 197, 180)"  x="7" y="23" width="1" height="1" /><rect shape-rendering="crispEdges" fill="rgb(205, 180, 164)"  x="7" y="24" width="1" height="1" /><rect shape-rendering="crispEdges" fill="rgb(172, 139, 115)"  x="7" y="25" width="1" height="1" /><rect shape-rendering="crispEdges" fill="rgb(213, 180, 164)"  x="8" y="13" width="1" height="1" /><rect shape-rendering="crispEdges" fill="rgb(255, 255, 246)"  x="8" y="14" width="1" height="1" /><rect shape-rendering="crispEdges" fill="rgb(255, 255, 255)"  x="8" y="15" width="1" height="1" /><rect shape-rendering="crispEdges" fill="rgb(255, 255, 246)"  x="8" y="16" width="1" height="1" /><rect shape-rendering="crispEdges" fill="rgb(255, 255, 238)"  x="8" y="17" width="1" height="1" /><rect shape-rendering="crispEdges" fill="rgb(255, 238, 222)"  x="8" y="18" width="1" height="1" /><rect shape-rendering="crispEdges" fill="rgb(255, 222, 205)"  x="8" y="19" width="1" height="1" /><rect shape-rendering="crispEdges" fill="rgb(246, 213, 197)"  x="8" y="20" width="1" height="1" /><rect shape-rendering="crispEdges" fill="rgb(238, 205, 189)"  x="8" y="21" width="1" height="1" /><rect shape-rendering="crispEdges" fill="rgb(213, 180, 164)"  x="8" y="22" width="1" height="1" /><rect shape-rendering="crispEdges" fill="rgb(197, 156, 131)"  x="8" y="23" width="1" height="1" /><rect shape-rendering="crispEdges" fill="rgb(189, 148, 131)"  x="8" y="24" width="1" height="1" /><rect shape-rendering="crispEdges" fill="rgb(172, 139, 115)"  x="8" y="25" width="1" height="1" /><rect shape-rendering="crispEdges" fill="rgb(156, 131, 115)"  x="8" y="26" width="1" height="1" /><rect shape-rendering="crispEdges" fill="rgb(213, 180, 164)"  x="9" y="12" width="1" height="1" /><rect shape-rendering="crispEdges" fill="rgb(255, 255, 255)"  x="9" y="13" width="1" height="1" /><rect shape-rendering="crispEdges" fill="rgb(255, 255, 255)"  x="9" y="14" width="1" height="1" /><rect shape-rendering="crispEdges" fill="rgb(255, 255, 246)"  x="9" y="15" width="1" height="1" /><rect shape-rendering="crispEdges" fill="rgb(255, 255, 238)"  x="9" y="16" width="1" height="1" /><rect shape-rendering="crispEdges" fill="rgb(255, 238, 222)"  x="9" y="17" width="1" height="1" /><rect shape-rendering="crispEdges" fill="rgb(255, 230, 213)"  x="9" y="18" width="1" height="1" /><rect shape-rendering="crispEdges" fill="rgb(246, 222, 205)"  x="9" y="19" width="1" height="1" /><rect shape-rendering="crispEdges" fill="rgb(238, 205, 197)"  x="9" y="20" width="1" height="1" /><rect shape-rendering="crispEdges" fill="rgb(230, 197, 189)"  x="9" y="21" width="1" height="1" /><rect shape-rendering="crispEdges" fill="rgb(213, 172, 156)"  x="9" y="22" width="1" height="1" /><rect shape-rendering="crispEdges" fill="rgb(189, 148, 131)"  x="9" y="23" width="1" height="1" /><rect shape-rendering="crispEdges" fill="rgb(172, 139, 115)"  x="9" y="24" width="1" height="1" /><rect shape-rendering="crispEdges" fill="rgb(148, 115, 106)"  x="9" y="25" width="1" height="1" /><rect shape-rendering="crispEdges" fill="rgb(139, 106, 90)"  x="9" y="26" width="1" height="1" /><rect shape-rendering="crispEdges" fill="rgb(213, 180, 164)"  x="10" y="11" width="1" height="1" /><rect shape-rendering="crispEdges" fill="rgb(255, 255, 255)"  x="10" y="12" width="1" height="1" /><rect shape-rendering="crispEdges" fill="rgb(255, 255, 255)"  x="10" y="13" width="1" height="1" /><rect shape-rendering="crispEdges" fill="rgb(255, 255, 255)"  x="10" y="14" width="1" height="1" /><rect shape-rendering="crispEdges" fill="rgb(255, 255, 238)"  x="10" y="15" width="1" height="1" /><rect shape-rendering="crispEdges" fill="rgb(255, 238, 222)"  x="10" y="16" width="1" height="1" /><rect shape-rendering="crispEdges" fill="rgb(255, 230, 213)"  x="10" y="17" width="1" height="1" /><rect shape-rendering="crispEdges" fill="rgb(246, 222, 205)"  x="10" y="18" width="1" height="1" /><rect shape-rendering="crispEdges" fill="rgb(246, 213, 205)"  x="10" y="19" width="1" height="1" /><rect shape-rendering="crispEdges" fill="rgb(230, 205, 197)"  x="10" y="20" width="1" height="1" /><rect shape-rendering="crispEdges" fill="rgb(222, 189, 180)"  x="10" y="21" width="1" height="1" /><rect shape-rendering="crispEdges" fill="rgb(197, 164, 148)"  x="10" y="22" width="1" height="1" /><rect shape-rendering="crispEdges" fill="rgb(180, 139, 123)"  x="10" y="23" width="1" height="1" /><rect shape-rendering="crispEdges" fill="rgb(156, 123, 106)"  x="10" y="24" width="1" height="1" /><rect shape-rendering="crispEdges" fill="rgb(131, 98, 90)"  x="10" y="25" width="1" height="1" /><rect shape-rendering="crispEdges" fill="rgb(131, 98, 90)"  x="10" y="26" width="1" height="1" /><rect shape-rendering="crispEdges" fill="rgb(213, 180, 164)"  x="11" y="10" width="1" height="1" /><rect shape-rendering="crispEdges" fill="rgb(255, 255, 246)"  x="11" y="11" width="1" height="1" /><rect shape-rendering="crispEdges" fill="rgb(255, 255, 255)"  x="11" y="12" width="1" height="1" /><rect shape-rendering="crispEdges" fill="rgb(255, 255, 246)"  x="11" y="13" width="1" height="1" /><rect shape-rendering="crispEdges" fill="rgb(255, 255, 238)"  x="11" y="14" width="1" height="1" /><rect shape-rendering="crispEdges" fill="rgb(255, 238, 222)"  x="11" y="15" width="1" height="1" /><rect shape-rendering="crispEdges" fill="rgb(255, 230, 213)"  x="11" y="16" width="1" height="1" /><rect shape-rendering="crispEdges" fill="rgb(246, 222, 205)"  x="11" y="17" width="1" height="1" /><rect shape-rendering="crispEdges" fill="rgb(230, 205, 197)"  x="11" y="18" width="1" height="1" /><rect shape-rendering="crispEdges" fill="rgb(230, 205, 197)"  x="11" y="19" width="1" height="1" /><rect shape-rendering="crispEdges" fill="rgb(230, 197, 189)"  x="11" y="20" width="1" height="1" /><rect shape-rendering="crispEdges" fill="rgb(213, 189, 180)"  x="11" y="21" width="1" height="1" /><rect shape-rendering="crispEdges" fill="rgb(197, 164, 148)"  x="11" y="22" width="1" height="1" /><rect shape-rendering="crispEdges" fill="rgb(180, 148, 131)"  x="11" y="23" width="1" height="1" /><rect shape-rendering="crispEdges" fill="rgb(156, 131, 115)"  x="11" y="24" width="1" height="1" /><rect shape-rendering="crispEdges" fill="rgb(156, 123, 115)"  x="11" y="25" width="1" height="1" /><rect shape-rendering="crispEdges" fill="rgb(156, 123, 115)"  x="11" y="26" width="1" height="1" /><rect shape-rendering="crispEdges" fill="rgb(148, 115, 106)"  x="11" y="27" width="1" height="1" /><rect shape-rendering="crispEdges" fill="rgb(115, 90, 90)"  x="12" y="8" width="1" height="1" /><rect shape-rendering="crispEdges" fill="rgb(65, 41, 32)"  x="12" y="9" width="1" height="1" /><rect shape-rendering="crispEdges" fill="rgb(255, 255, 238)"  x="12" y="10" width="1" height="1" /><rect shape-rendering="crispEdges" fill="rgb(255, 246, 230)"  x="12" y="11" width="1" height="1" /><rect shape-rendering="crispEdges" fill="rgb(255, 246, 230)"  x="12" y="12" width="1" height="1" /><rect shape-rendering="crispEdges" fill="rgb(255, 246, 230)"  x="12" y="13" width="1" height="1" /><rect shape-rendering="crispEdges" fill="rgb(255, 238, 222)"  x="12" y="14" width="1" height="1" /><rect shape-rendering="crispEdges" fill="rgb(255, 230, 213)"  x="12" y="15" width="1" height="1" /><rect shape-rendering="crispEdges" fill="rgb(246, 213, 205)"  x="12" y="16" width="1" height="1" /><rect shape-rendering="crispEdges" fill="rgb(230, 205, 197)"  x="12" y="17" width="1" height="1" /><rect shape-rendering="crispEdges" fill="rgb(230, 197, 189)"  x="12" y="18" width="1" height="1" /><rect shape-rendering="crispEdges" fill="rgb(222, 197, 180)"  x="12" y="19" width="1" height="1" /><rect shape-rendering="crispEdges" fill="rgb(222, 189, 180)"  x="12" y="20" width="1" height="1" /><rect shape-rendering="crispEdges" fill="rgb(205, 180, 164)"  x="12" y="21" width="1" height="1" /><rect shape-rendering="crispEdges" fill="rgb(197, 172, 164)"  x="12" y="22" width="1" height="1" /><rect shape-rendering="crispEdges" fill="rgb(172, 156, 148)"  x="12" y="23" width="1" height="1" /><rect shape-rendering="crispEdges" fill="rgb(156, 131, 115)"  x="12" y="24" width="1" height="1" /><rect shape-rendering="crispEdges" fill="rgb(148, 123, 115)"  x="12" y="25" width="1" height="1" /><rect shape-rendering="crispEdges" fill="rgb(148, 123, 115)"  x="12" y="26" width="1" height="1" /><rect shape-rendering="crispEdges" fill="rgb(139, 115, 98)"  x="12" y="27" width="1" height="1" /><rect shape-rendering="crispEdges" fill="rgb(115, 82, 74)"  x="13" y="7" width="1" height="1" /><rect shape-rendering="crispEdges" fill="rgb(49, 16, 8)"  x="13" y="8" width="1" height="1" /><rect shape-rendering="crispEdges" fill="rgb(90, 57, 49)"  x="13" y="9" width="1" height="1" /><rect shape-rendering="crispEdges" fill="rgb(255, 238, 222)"  x="13" y="10" width="1" height="1" /><rect shape-rendering="crispEdges" fill="rgb(255, 230, 213)"  x="13" y="11" width="1" height="1" /><rect shape-rendering="crispEdges" fill="rgb(255, 222, 205)"  x="13" y="12" width="1" height="1" /><rect shape-rendering="crispEdges" fill="rgb(255, 222, 205)"  x="13" y="13" width="1" height="1" /><rect shape-rendering="crispEdges" fill="rgb(255, 222, 205)"  x="13" y="14" width="1" height="1" /><rect shape-rendering="crispEdges" fill="rgb(246, 213, 205)"  x="13" y="15" width="1" height="1" /><rect shape-rendering="crispEdges" fill="rgb(230, 197, 189)"  x="13" y="16" width="1" height="1" /><rect shape-rendering="crispEdges" fill="rgb(222, 197, 180)"  x="13" y="17" width="1" height="1" /><rect shape-rendering="crispEdges" fill="rgb(222, 189, 180)"  x="13" y="18" width="1" height="1" /><rect shape-rendering="crispEdges" fill="rgb(205, 180, 172)"  x="13" y="19" width="1" height="1" /><rect shape-rendering="crispEdges" fill="rgb(205, 180, 164)"  x="13" y="20" width="1" height="1" /><rect shape-rendering="crispEdges" fill="rgb(197, 172, 156)"  x="13" y="21" width="1" height="1" /><rect shape-rendering="crispEdges" fill="rgb(189, 164, 156)"  x="13" y="22" width="1" height="1" /><rect shape-rendering="crispEdges" fill="rgb(164, 139, 131)"  x="13" y="23" width="1" height="1" /><rect shape-rendering="crispEdges" fill="rgb(148, 115, 106)"  x="13" y="24" width="1" height="1" /><rect shape-rendering="crispEdges" fill="rgb(148, 115, 106)"  x="13" y="25" width="1" height="1" /><rect shape-rendering="crispEdges" fill="rgb(139, 115, 98)"  x="13" y="26" width="1" height="1" /><rect shape-rendering="crispEdges" fill="rgb(131, 98, 82)"  x="13" y="27" width="1" height="1" /><rect shape-rendering="crispEdges" fill="rgb(222, 115, 139)"  x="14" y="3" width="1" height="1" /><rect shape-rendering="crispEdges" fill="rgb(197, 57, 98)"  x="14" y="4" width="1" height="1" /><rect shape-rendering="crispEdges" fill="rgb(180, 57, 90)"  x="14" y="5" width="1" height="1" /><rect shape-rendering="crispEdges" fill="rgb(131, 49, 74)"  x="14" y="6" width="1" height="1" /><rect shape-rendering="crispEdges" fill="rgb(65, 32, 24)"  x="14" y="7" width="1" height="1" /><rect shape-rendering="crispEdges" fill="rgb(49, 24, 16)"  x="14" y="8" width="1" height="1" /><rect shape-rendering="crispEdges" fill="rgb(90, 57, 49)"  x="14" y="9" width="1" height="1" /><rect shape-rendering="crispEdges" fill="rgb(255, 222, 197)"  x="14" y="10" width="1" height="1" /><rect shape-rendering="crispEdges" fill="rgb(255, 213, 197)"  x="14" y="11" width="1" height="1" /><rect shape-rendering="crispEdges" fill="rgb(246, 213, 197)"  x="14" y="12" width="1" height="1" /><rect shape-rendering="crispEdges" fill="rgb(246, 213, 197)"  x="14" y="13" width="1" height="1" /><rect shape-rendering="crispEdges" fill="rgb(238, 205, 197)"  x="14" y="14" width="1" height="1" /><rect shape-rendering="crispEdges" fill="rgb(222, 197, 180)"  x="14" y="15" width="1" height="1" /><rect shape-rendering="crispEdges" fill="rgb(222, 189, 180)"  x="14" y="16" width="1" height="1" /><rect shape-rendering="crispEdges" fill="rgb(213, 189, 180)"  x="14" y="17" width="1" height="1" /><rect shape-rendering="crispEdges" fill="rgb(205, 180, 172)"  x="14" y="18" width="1" height="1" /><rect shape-rendering="crispEdges" fill="rgb(205, 180, 164)"  x="14" y="19" width="1" height="1" /><rect shape-rendering="crispEdges" fill="rgb(197, 172, 164)"  x="14" y="20" width="1" height="1" /><rect shape-rendering="crispEdges" fill="rgb(189, 164, 156)"  x="14" y="21" width="1" height="1" /><rect shape-rendering="crispEdges" fill="rgb(172, 156, 148)"  x="14" y="22" width="1" height="1" /><rect shape-rendering="crispEdges" fill="rgb(148, 123, 115)"  x="14" y="23" width="1" height="1" /><rect shape-rendering="crispEdges" fill="rgb(139, 115, 106)"  x="14" y="24" width="1" height="1" /><rect shape-rendering="crispEdges" fill="rgb(139, 106, 98)"  x="14" y="25" width="1" height="1" /><rect shape-rendering="crispEdges" fill="rgb(131, 106, 90)"  x="14" y="26" width="1" height="1" /><rect shape-rendering="crispEdges" fill="rgb(139, 106, 90)"  x="14" y="27" width="1" height="1" /><rect shape-rendering="crispEdges" fill="rgb(230, 164, 180)"  x="15" y="2" width="1" height="1" /><rect shape-rendering="crispEdges" fill="rgb(238, 131, 156)"  x="15" y="3" width="1" height="1" /><rect shape-rendering="crispEdges" fill="rgb(246, 106, 148)"  x="15" y="4" width="1" height="1" /><rect shape-rendering="crispEdges" fill="rgb(197, 65, 106)"  x="15" y="5" width="1" height="1" /><rect shape-rendering="crispEdges" fill="rgb(156, 41, 74)"  x="15" y="6" width="1" height="1" /><rect shape-rendering="crispEdges" fill="rgb(131, 41, 65)"  x="15" y="7" width="1" height="1" /><rect shape-rendering="crispEdges" fill="rgb(65, 16, 24)"  x="15" y="8" width="1" height="1" /><rect shape-rendering="crispEdges" fill="rgb(90, 57, 49)"  x="15" y="9" width="1" height="1" /><rect shape-rendering="crispEdges" fill="rgb(255, 213, 189)"  x="15" y="10" width="1" height="1" /><rect shape-rendering="crispEdges" fill="rgb(238, 205, 189)"  x="15" y="11" width="1" height="1" /><rect shape-rendering="crispEdges" fill="rgb(230, 205, 189)"  x="15" y="12" width="1" height="1" /><rect shape-rendering="crispEdges" fill="rgb(230, 197, 180)"  x="15" y="13" width="1" height="1" /><rect shape-rendering="crispEdges" fill="rgb(222, 189, 180)"  x="15" y="14" width="1" height="1" /><rect shape-rendering="crispEdges" fill="rgb(205, 180, 172)"  x="15" y="15" width="1" height="1" /><rect shape-rendering="crispEdges" fill="rgb(197, 172, 164)"  x="15" y="16" width="1" height="1" /><rect shape-rendering="crispEdges" fill="rgb(180, 156, 148)"  x="15" y="17" width="1" height="1" /><rect shape-rendering="crispEdges" fill="rgb(164, 139, 131)"  x="15" y="18" width="1" height="1" /><rect shape-rendering="crispEdges" fill="rgb(139, 115, 106)"  x="15" y="19" width="1" height="1" /><rect shape-rendering="crispEdges" fill="rgb(131, 106, 98)"  x="15" y="20" width="1" height="1" /><rect shape-rendering="crispEdges" fill="rgb(123, 90, 82)"  x="15" y="21" width="1" height="1" /><rect shape-rendering="crispEdges" fill="rgb(98, 65, 65)"  x="15" y="22" width="1" height="1" /><rect shape-rendering="crispEdges" fill="rgb(131, 106, 98)"  x="15" y="23" width="1" height="1" /><rect shape-rendering="crispEdges" fill="rgb(148, 115, 106)"  x="15" y="24" width="1" height="1" /><rect shape-rendering="crispEdges" fill="rgb(148, 115, 106)"  x="15" y="25" width="1" height="1" /><rect shape-rendering="crispEdges" fill="rgb(156, 123, 115)"  x="15" y="26" width="1" height="1" /><rect shape-rendering="crispEdges" fill="rgb(156, 123, 115)"  x="15" y="27" width="1" height="1" /><rect shape-rendering="crispEdges" fill="rgb(148, 123, 106)"  x="15" y="28" width="1" height="1" /><rect shape-rendering="crispEdges" fill="rgb(230, 164, 180)"  x="16" y="2" width="1" height="1" /><rect shape-rendering="crispEdges" fill="rgb(238, 148, 164)"  x="16" y="3" width="1" height="1" /><rect shape-rendering="crispEdges" fill="rgb(255, 115, 156)"  x="16" y="4" width="1" height="1" /><rect shape-rendering="crispEdges" fill="rgb(230, 82, 123)"  x="16" y="5" width="1" height="1" /><rect shape-rendering="crispEdges" fill="rgb(180, 49, 90)"  x="16" y="6" width="1" height="1" /><rect shape-rendering="crispEdges" fill="rgb(156, 41, 82)"  x="16" y="7" width="1" height="1" /><rect shape-rendering="crispEdges" fill="rgb(156, 41, 74)"  x="16" y="8" width="1" height="1" /><rect shape-rendering="crispEdges" fill="rgb(90, 57, 49)"  x="16" y="9" width="1" height="1" /><rect shape-rendering="crispEdges" fill="rgb(213, 172, 156)"  x="16" y="10" width="1" height="1" /><rect shape-rendering="crispEdges" fill="rgb(180, 148, 131)"  x="16" y="11" width="1" height="1" /><rect shape-rendering="crispEdges" fill="rgb(156, 123, 115)"  x="16" y="12" width="1" height="1" /><rect shape-rendering="crispEdges" fill="rgb(139, 115, 106)"  x="16" y="13" width="1" height="1" /><rect shape-rendering="crispEdges" fill="rgb(131, 98, 90)"  x="16" y="14" width="1" height="1" /><rect shape-rendering="crispEdges" fill="rgb(115, 82, 74)"  x="16" y="15" width="1" height="1" /><rect shape-rendering="crispEdges" fill="rgb(98, 65, 57)"  x="16" y="16" width="1" height="1" /><rect shape-rendering="crispEdges" fill="rgb(90, 57, 49)"  x="16" y="17" width="1" height="1" /><rect shape-rendering="crispEdges" fill="rgb(90, 49, 41)"  x="16" y="18" width="1" height="1" /><rect shape-rendering="crispEdges" fill="rgb(90, 49, 41)"  x="16" y="19" width="1" height="1" /><rect shape-rendering="crispEdges" fill="rgb(90, 49, 41)"  x="16" y="20" width="1" height="1" /><rect shape-rendering="crispEdges" fill="rgb(74, 41, 32)"  x="16" y="21" width="1" height="1" /><rect shape-rendering="crispEdges" fill="rgb(98, 65, 57)"  x="16" y="22" width="1" height="1" /><rect shape-rendering="crispEdges" fill="rgb(148, 131, 123)"  x="16" y="23" width="1" height="1" /><rect shape-rendering="crispEdges" fill="rgb(148, 123, 115)"  x="16" y="24" width="1" height="1" /><rect shape-rendering="crispEdges" fill="rgb(148, 115, 106)"  x="16" y="25" width="1" height="1" /><rect shape-rendering="crispEdges" fill="rgb(148, 123, 106)"  x="16" y="26" width="1" height="1" /><rect shape-rendering="crispEdges" fill="rgb(148, 115, 98)"  x="16" y="27" width="1" height="1" /><rect shape-rendering="crispEdges" fill="rgb(139, 106, 90)"  x="16" y="28" width="1" height="1" /><rect shape-rendering="crispEdges" fill="rgb(205, 74, 115)"  x="17" y="2" width="1" height="1" /><rect shape-rendering="crispEdges" fill="rgb(246, 106, 148)"  x="17" y="3" width="1" height="1" /><rect shape-rendering="crispEdges" fill="rgb(230, 82, 123)"  x="17" y="4" width="1" height="1" /><rect shape-rendering="crispEdges" fill="rgb(213, 74, 115)"  x="17" y="5" width="1" height="1" /><rect shape-rendering="crispEdges" fill="rgb(180, 49, 90)"  x="17" y="6" width="1" height="1" /><rect shape-rendering="crispEdges" fill="rgb(156, 41, 82)"  x="17" y="7" width="1" height="1" /><rect shape-rendering="crispEdges" fill="rgb(164, 49, 90)"  x="17" y="8" width="1" height="1" /><rect shape-rendering="crispEdges" fill="rgb(115, 32, 57)"  x="17" y="9" width="1" height="1" /><rect shape-rendering="crispEdges" fill="rgb(90, 57, 49)"  x="17" y="10" width="1" height="1" /><rect shape-rendering="crispEdges" fill="rgb(90, 57, 49)"  x="17" y="11" width="1" height="1" /><rect shape-rendering="crispEdges" fill="rgb(90, 57, 49)"  x="17" y="12" width="1" height="1" /><rect shape-rendering="crispEdges" fill="rgb(98, 57, 49)"  x="17" y="13" width="1" height="1" /><rect shape-rendering="crispEdges" fill="rgb(98, 57, 49)"  x="17" y="14" width="1" height="1" /><rect shape-rendering="crispEdges" fill="rgb(98, 57, 49)"  x="17" y="15" width="1" height="1" /><rect shape-rendering="crispEdges" fill="rgb(106, 65, 57)"  x="17" y="16" width="1" height="1" /><rect shape-rendering="crispEdges" fill="rgb(106, 65, 57)"  x="17" y="17" width="1" height="1" /><rect shape-rendering="crispEdges" fill="rgb(106, 65, 57)"  x="17" y="18" width="1" height="1" /><rect shape-rendering="crispEdges" fill="rgb(106, 65, 57)"  x="17" y="19" width="1" height="1" /><rect shape-rendering="crispEdges" fill="rgb(82, 41, 32)"  x="17" y="20" width="1" height="1" /><rect shape-rendering="crispEdges" fill="rgb(90, 57, 49)"  x="17" y="21" width="1" height="1" /><rect shape-rendering="crispEdges" fill="rgb(148, 123, 115)"  x="17" y="22" width="1" height="1" /><rect shape-rendering="crispEdges" fill="rgb(156, 131, 123)"  x="17" y="23" width="1" height="1" /><rect shape-rendering="crispEdges" fill="rgb(148, 123, 115)"  x="17" y="24" width="1" height="1" /><rect shape-rendering="crispEdges" fill="rgb(139, 106, 98)"  x="17" y="25" width="1" height="1" /><rect shape-rendering="crispEdges" fill="rgb(139, 106, 90)"  x="17" y="26" width="1" height="1" /><rect shape-rendering="crispEdges" fill="rgb(123, 90, 74)"  x="17" y="27" width="1" height="1" /><rect shape-rendering="crispEdges" fill="rgb(131, 90, 82)"  x="17" y="28" width="1" height="1" /><rect shape-rendering="crispEdges" fill="rgb(205, 74, 115)"  x="18" y="3" width="1" height="1" /><rect shape-rendering="crispEdges" fill="rgb(148, 49, 74)"  x="18" y="4" width="1" height="1" /><rect shape-rendering="crispEdges" fill="rgb(197, 65, 106)"  x="18" y="5" width="1" height="1" /><rect shape-rendering="crispEdges" fill="rgb(213, 74, 115)"  x="18" y="6" width="1" height="1" /><rect shape-rendering="crispEdges" fill="rgb(172, 41, 90)"  x="18" y="7" width="1" height="1" /><rect shape-rendering="crispEdges" fill="rgb(164, 49, 90)"  x="18" y="8" width="1" height="1" /><rect shape-rendering="crispEdges" fill="rgb(74, 32, 32)"  x="18" y="9" width="1" height="1" /><rect shape-rendering="crispEdges" fill="rgb(49, 24, 16)"  x="18" y="10" width="1" height="1" /><rect shape-rendering="crispEdges" fill="rgb(41, 16, 16)"  x="18" y="11" width="1" height="1" /><rect shape-rendering="crispEdges" fill="rgb(41, 16, 16)"  x="18" y="12" width="1" height="1" /><rect shape-rendering="crispEdges" fill="rgb(41, 16, 16)"  x="18" y="13" width="1" height="1" /><rect shape-rendering="crispEdges" fill="rgb(41, 16, 16)"  x="18" y="14" width="1" height="1" /><rect shape-rendering="crispEdges" fill="rgb(41, 16, 16)"  x="18" y="15" width="1" height="1" /><rect shape-rendering="crispEdges" fill="rgb(41, 16, 16)"  x="18" y="16" width="1" height="1" /><rect shape-rendering="crispEdges" fill="rgb(41, 16, 16)"  x="18" y="17" width="1" height="1" /><rect shape-rendering="crispEdges" fill="rgb(41, 16, 16)"  x="18" y="18" width="1" height="1" /><rect shape-rendering="crispEdges" fill="rgb(41, 16, 16)"  x="18" y="19" width="1" height="1" /><rect shape-rendering="crispEdges" fill="rgb(49, 24, 24)"  x="18" y="20" width="1" height="1" /><rect shape-rendering="crispEdges" fill="rgb(131, 115, 106)"  x="18" y="21" width="1" height="1" /><rect shape-rendering="crispEdges" fill="rgb(164, 139, 131)"  x="18" y="22" width="1" height="1" /><rect shape-rendering="crispEdges" fill="rgb(148, 123, 115)"  x="18" y="23" width="1" height="1" /><rect shape-rendering="crispEdges" fill="rgb(139, 115, 98)"  x="18" y="24" width="1" height="1" /><rect shape-rendering="crispEdges" fill="rgb(139, 106, 90)"  x="18" y="25" width="1" height="1" /><rect shape-rendering="crispEdges" fill="rgb(139, 106, 90)"  x="18" y="26" width="1" height="1" /><rect shape-rendering="crispEdges" fill="rgb(148, 106, 98)"  x="18" y="27" width="1" height="1" /><rect shape-rendering="crispEdges" fill="rgb(131, 98, 82)"  x="18" y="28" width="1" height="1" /><rect shape-rendering="crispEdges" fill="rgb(205, 74, 115)"  x="19" y="3" width="1" height="1" /><rect shape-rendering="crispEdges" fill="rgb(205, 82, 115)"  x="19" y="4" width="1" height="1" /><rect shape-rendering="crispEdges" fill="rgb(205, 74, 115)"  x="19" y="5" width="1" height="1" /><rect shape-rendering="crispEdges" fill="rgb(164, 41, 74)"  x="19" y="6" width="1" height="1" /><rect shape-rendering="crispEdges" fill="rgb(189, 49, 98)"  x="19" y="7" width="1" height="1" /><rect shape-rendering="crispEdges" fill="rgb(131, 41, 65)"  x="19" y="8" width="1" height="1" /><rect shape-rendering="crispEdges" fill="rgb(41, 24, 16)"  x="19" y="9" width="1" height="1" /><rect shape-rendering="crispEdges" fill="rgb(98, 57, 49)"  x="19" y="10" width="1" height="1" /><rect shape-rendering="crispEdges" fill="rgb(74, 41, 32)"  x="19" y="11" width="1" height="1" /><rect shape-rendering="crispEdges" fill="rgb(65, 32, 32)"  x="19" y="12" width="1" height="1" /><rect shape-rendering="crispEdges" fill="rgb(49, 24, 24)"  x="19" y="13" width="1" height="1" /><rect shape-rendering="crispEdges" fill="rgb(32, 16, 16)"  x="19" y="14" width="1" height="1" /><rect shape-rendering="crispEdges" fill="rgb(32, 8, 16)"  x="19" y="15" width="1" height="1" /><rect shape-rendering="crispEdges" fill="rgb(32, 8, 16)"  x="19" y="16" width="1" height="1" /><rect shape-rendering="crispEdges" fill="rgb(24, 8, 8)"  x="19" y="17" width="1" height="1" /><rect shape-rendering="crispEdges" fill="rgb(32, 8, 16)"  x="19" y="18" width="1" height="1" /><rect shape-rendering="crispEdges" fill="rgb(32, 8, 16)"  x="19" y="19" width="1" height="1" /><rect shape-rendering="crispEdges" fill="rgb(74, 49, 49)"  x="19" y="20" width="1" height="1" /><rect shape-rendering="crispEdges" fill="rgb(164, 139, 131)"  x="19" y="21" width="1" height="1" /><rect shape-rendering="crispEdges" fill="rgb(156, 131, 115)"  x="19" y="22" width="1" height="1" /><rect shape-rendering="crispEdges" fill="rgb(148, 123, 106)"  x="19" y="23" width="1" height="1" /><rect shape-rendering="crispEdges" fill="rgb(148, 115, 98)"  x="19" y="24" width="1" height="1" /><rect shape-rendering="crispEdges" fill="rgb(139, 106, 90)"  x="19" y="25" width="1" height="1" /><rect shape-rendering="crispEdges" fill="rgb(148, 106, 98)"  x="19" y="26" width="1" height="1" /><rect shape-rendering="crispEdges" fill="rgb(131, 98, 82)"  x="19" y="27" width="1" height="1" /><rect shape-rendering="crispEdges" fill="rgb(205, 74, 115)"  x="20" y="3" width="1" height="1" /><rect shape-rendering="crispEdges" fill="rgb(222, 115, 139)"  x="20" y="4" width="1" height="1" /><rect shape-rendering="crispEdges" fill="rgb(205, 82, 115)"  x="20" y="5" width="1" height="1" /><rect shape-rendering="crispEdges" fill="rgb(164, 41, 74)"  x="20" y="6" width="1" height="1" /><rect shape-rendering="crispEdges" fill="rgb(189, 49, 98)"  x="20" y="7" width="1" height="1" /><rect shape-rendering="crispEdges" fill="rgb(98, 24, 49)"  x="20" y="8" width="1" height="1" /><rect shape-rendering="crispEdges" fill="rgb(16, 8, 8)"  x="20" y="9" width="1" height="1" /><rect shape-rendering="crispEdges" fill="rgb(41, 16, 16)"  x="20" y="10" width="1" height="1" /><rect shape-rendering="crispEdges" fill="rgb(90, 57, 49)"  x="20" y="11" width="1" height="1" /><rect shape-rendering="crispEdges" fill="rgb(106, 65, 57)"  x="20" y="12" width="1" height="1" /><rect shape-rendering="crispEdges" fill="rgb(106, 65, 57)"  x="20" y="13" width="1" height="1" /><rect shape-rendering="crispEdges" fill="rgb(98, 65, 57)"  x="20" y="14" width="1" height="1" /><rect shape-rendering="crispEdges" fill="rgb(74, 41, 32)"  x="20" y="15" width="1" height="1" /><rect shape-rendering="crispEdges" fill="rgb(65, 32, 32)"  x="20" y="16" width="1" height="1" /><rect shape-rendering="crispEdges" fill="rgb(57, 32, 24)"  x="20" y="17" width="1" height="1" /><rect shape-rendering="crispEdges" fill="rgb(65, 32, 32)"  x="20" y="18" width="1" height="1" /><rect shape-rendering="crispEdges" fill="rgb(65, 32, 32)"  x="20" y="19" width="1" height="1" /><rect shape-rendering="crispEdges" fill="rgb(74, 41, 32)"  x="20" y="20" width="1" height="1" /><rect shape-rendering="crispEdges" fill="rgb(131, 106, 90)"  x="20" y="21" width="1" height="1" /><rect shape-rendering="crispEdges" fill="rgb(131, 98, 82)"  x="20" y="22" width="1" height="1" /><rect shape-rendering="crispEdges" fill="rgb(131, 98, 82)"  x="20" y="23" width="1" height="1" /><rect shape-rendering="crispEdges" fill="rgb(131, 106, 90)"  x="20" y="24" width="1" height="1" /><rect shape-rendering="crispEdges" fill="rgb(139, 106, 98)"  x="20" y="25" width="1" height="1" /><rect shape-rendering="crispEdges" fill="rgb(148, 123, 106)"  x="20" y="26" width="1" height="1" /><rect shape-rendering="crispEdges" fill="rgb(205, 74, 115)"  x="21" y="3" width="1" height="1" /><rect shape-rendering="crispEdges" fill="rgb(222, 115, 139)"  x="21" y="4" width="1" height="1" /><rect shape-rendering="crispEdges" fill="rgb(197, 65, 106)"  x="21" y="5" width="1" height="1" /><rect shape-rendering="crispEdges" fill="rgb(180, 49, 90)"  x="21" y="6" width="1" height="1" /><rect shape-rendering="crispEdges" fill="rgb(164, 41, 74)"  x="21" y="7" width="1" height="1" /><rect shape-rendering="crispEdges" fill="rgb(57, 16, 16)"  x="21" y="8" width="1" height="1" /><rect shape-rendering="crispEdges" fill="rgb(41, 24, 16)"  x="21" y="9" width="1" height="1" /><rect shape-rendering="crispEdges" fill="rgb(24, 8, 8)"  x="21" y="10" width="1" height="1" /><rect shape-rendering="crispEdges" fill="rgb(24, 8, 8)"  x="21" y="11" width="1" height="1" /><rect shape-rendering="crispEdges" fill="rgb(41, 16, 16)"  x="21" y="12" width="1" height="1" /><rect shape-rendering="crispEdges" fill="rgb(57, 32, 24)"  x="21" y="13" width="1" height="1" /><rect shape-rendering="crispEdges" fill="rgb(65, 32, 24)"  x="21" y="14" width="1" height="1" /><rect shape-rendering="crispEdges" fill="rgb(98, 57, 49)"  x="21" y="15" width="1" height="1" /><rect shape-rendering="crispEdges" fill="rgb(98, 57, 57)"  x="21" y="16" width="1" height="1" /><rect shape-rendering="crispEdges" fill="rgb(98, 57, 49)"  x="21" y="17" width="1" height="1" /><rect shape-rendering="crispEdges" fill="rgb(106, 65, 57)"  x="21" y="18" width="1" height="1" /><rect shape-rendering="crispEdges" fill="rgb(106, 65, 57)"  x="21" y="19" width="1" height="1" /><rect shape-rendering="crispEdges" fill="rgb(90, 49, 32)"  x="21" y="20" width="1" height="1" /><rect shape-rendering="crispEdges" fill="rgb(90, 57, 49)"  x="21" y="21" width="1" height="1" /><rect shape-rendering="crispEdges" fill="rgb(205, 74, 115)"  x="22" y="4" width="1" height="1" /><rect shape-rendering="crispEdges" fill="rgb(172, 41, 82)"  x="22" y="5" width="1" height="1" /><rect shape-rendering="crispEdges" fill="rgb(180, 57, 90)"  x="22" y="6" width="1" height="1" /><rect shape-rendering="crispEdges" fill="rgb(90, 57, 49)"  x="22" y="9" width="1" height="1" /><rect shape-rendering="crispEdges" fill="rgb(57, 32, 24)"  x="22" y="10" width="1" height="1" /><rect shape-rendering="crispEdges" fill="rgb(49, 24, 24)"  x="22" y="11" width="1" height="1" /><rect shape-rendering="crispEdges" fill="rgb(32, 16, 16)"  x="22" y="12" width="1" height="1" /><rect shape-rendering="crispEdges" fill="rgb(24, 8, 8)"  x="22" y="13" width="1" height="1" /><rect shape-rendering="crispEdges" fill="rgb(49, 32, 32)"  x="22" y="14" width="1" height="1" /><rect shape-rendering="crispEdges" fill="rgb(82, 41, 32)"  x="22" y="15" width="1" height="1" /><rect shape-rendering="crispEdges" fill="rgb(82, 41, 32)"  x="22" y="16" width="1" height="1" /><rect shape-rendering="crispEdges" fill="rgb(74, 41, 32)"  x="22" y="17" width="1" height="1" /><rect shape-rendering="crispEdges" fill="rgb(74, 41, 32)"  x="22" y="18" width="1" height="1" /><rect shape-rendering="crispEdges" fill="rgb(74, 41, 32)"  x="22" y="19" width="1" height="1" /><rect shape-rendering="crispEdges" fill="rgb(74, 41, 32)"  x="22" y="20" width="1" height="1" /><rect shape-rendering="crispEdges" fill="rgb(74, 41, 32)"  x="22" y="21" width="1" height="1" /><rect shape-rendering="crispEdges" fill="rgb(74, 41, 32)"  x="22" y="22" width="1" height="1" /><rect shape-rendering="crispEdges" fill="rgb(106, 65, 57)"  x="23" y="10" width="1" height="1" /><rect shape-rendering="crispEdges" fill="rgb(74, 41, 32)"  x="23" y="11" width="1" height="1" /><rect shape-rendering="crispEdges" fill="rgb(74, 41, 32)"  x="23" y="12" width="1" height="1" /><rect shape-rendering="crispEdges" fill="rgb(49, 16, 16)"  x="23" y="13" width="1" height="1" /><rect shape-rendering="crispEdges" fill="rgb(82, 65, 65)"  x="23" y="14" width="1" height="1" /><rect shape-rendering="crispEdges" fill="rgb(106, 65, 57)"  x="24" y="11" width="1" height="1" /><rect shape-rendering="crispEdges" fill="rgb(82, 49, 41)"  x="24" y="12" width="1" height="1" /><rect shape-rendering="crispEdges" fill="rgb(74, 32, 24)"  x="24" y="13" width="1" height="1" /><rect shape-rendering="crispEdges" fill="rgb(74, 32, 32)"  x="24" y="14" width="1" height="1" /><rect shape-rendering="crispEdges" fill="rgb(106, 65, 57)"  x="25" y="12" width="1" height="1" /><rect shape-rendering="crispEdges" fill="rgb(82, 49, 41)"  x="25" y="13" width="1" height="1" /><rect shape-rendering="crispEdges" fill="rgb(82, 49, 41)"  x="25" y="14" width="1" height="1" /><rect shape-rendering="crispEdges" fill="rgb(98, 65, 57)"  x="25" y="15" width="1" height="1" /></svg>