<svg xmlns="http://www.w3.org/2000/svg" xmlns:xlink= "http://www.w3.org/1999/xlink" width="32" height="32" viewBox ="0 0 32 32"><rect shape-rendering="crispEdges" fill="rgb(164, 98, 98)"  x="1" y="17" width="1" height="1" /><rect shape-rendering="crispEdges" fill="rgb(148, 90, 90)"  x="1" y="18" width="1" height="1" /><rect shape-rendering="crispEdges" fill="rgb(148, 82, 82)"  x="1" y="19" width="1" height="1" /><rect shape-rendering="crispEdges" fill="rgb(90, 49, 49)"  x="1" y="20" width="1" height="1" /><rect shape-rendering="crispEdges" fill="rgb(98, 82, 82)"  x="1" y="21" width="1" height="1" /><rect shape-rendering="crispEdges" fill="rgb(164, 98, 98)"  x="2" y="16" width="1" height="1" /><rect shape-rendering="crispEdges" fill="rgb(222, 164, 164)"  x="2" y="17" width="1" height="1" /><rect shape-rendering="crispEdges" fill="rgb(213, 164, 164)"  x="2" y="18" width="1" height="1" /><rect shape-rendering="crispEdges" fill="rgb(172, 106, 106)"  x="2" y="19" width="1" height="1" /><rect shape-rendering="crispEdges" fill="rgb(164, 98, 98)"  x="2" y="20" width="1" height="1" /><rect shape-rendering="crispEdges" fill="rgb(106, 82, 82)"  x="2" y="21" width="1" height="1" /><rect shape-rendering="crispEdges" fill="rgb(90, 49, 49)"  x="2" y="22" width="1" height="1" /><rect shape-rendering="crispEdges" fill="rgb(164, 98, 98)"  x="3" y="16" width="1" height="1" /><rect shape-rendering="crispEdges" fill="rgb(139, 74, 74)"  x="3" y="17" width="1" height="1" /><rect shape-rendering="crispEdges" fill="rgb(180, 115, 115)"  x="3" y="18" width="1" height="1" /><rect shape-rendering="crispEdges" fill="rgb(222, 164, 164)"  x="3" y="19" width="1" height="1" /><rect shape-rendering="crispEdges" fill="rgb(222, 164, 164)"  x="3" y="20" width="1" height="1" /><rect shape-rendering="crispEdges" fill="rgb(106, 41, 41)"  x="3" y="21" width="1" height="1" /><rect shape-rendering="crispEdges" fill="rgb(106, 82, 82)"  x="3" y="22" width="1" height="1" /><rect shape-rendering="crispEdges" fill="rgb(90, 49, 49)"  x="3" y="23" width="1" height="1" /><rect shape-rendering="crispEdges" fill="rgb(164, 98, 98)"  x="4" y="15" width="1" height="1" /><rect shape-rendering="crispEdges" fill="rgb(213, 164, 164)"  x="4" y="16" width="1" height="1" /><rect shape-rendering="crispEdges" fill="rgb(123, 57, 57)"  x="4" y="17" width="1" height="1" /><rect shape-rendering="crispEdges" fill="rgb(115, 49, 49)"  x="4" y="18" width="1" height="1" /><rect shape-rendering="crispEdges" fill="rgb(180, 115, 115)"  x="4" y="19" width="1" height="1" /><rect shape-rendering="crispEdges" fill="rgb(180, 115, 115)"  x="4" y="20" width="1" height="1" /><rect shape-rendering="crispEdges" fill="rgb(106, 41, 41)"  x="4" y="21" width="1" height="1" /><rect shape-rendering="crispEdges" fill="rgb(106, 82, 82)"  x="4" y="22" width="1" height="1" /><rect shape-rendering="crispEdges" fill="rgb(57, 41, 32)"  x="4" y="23" width="1" height="1" /><rect shape-rendering="crispEdges" fill="rgb(164, 98, 98)"  x="5" y="15" width="1" height="1" /><rect shape-rendering="crispEdges" fill="rgb(222, 164, 164)"  x="5" y="16" width="1" height="1" /><rect shape-rendering="crispEdges" fill="rgb(172, 98, 98)"  x="5" y="17" width="1" height="1" /><rect shape-rendering="crispEdges" fill="rgb(106, 32, 41)"  x="5" y="18" width="1" height="1" /><rect shape-rendering="crispEdges" fill="rgb(90, 32, 32)"  x="5" y="19" width="1" height="1" /><rect shape-rendering="crispEdges" fill="rgb(180, 115, 115)"  x="5" y="20" width="1" height="1" /><rect shape-rendering="crispEdges" fill="rgb(156, 82, 82)"  x="5" y="21" width="1" height="1" /><rect shape-rendering="crispEdges" fill="rgb(98, 57, 49)"  x="5" y="22" width="1" height="1" /><rect shape-rendering="crispEdges" fill="rgb(57, 32, 32)"  x="5" y="23" width="1" height="1" /><rect shape-rendering="crispEdges" fill="rgb(164, 98, 98)"  x="6" y="14" width="1" height="1" /><rect shape-rendering="crispEdges" fill="rgb(213, 164, 164)"  x="6" y="15" width="1" height="1" /><rect shape-rendering="crispEdges" fill="rgb(180, 106, 106)"  x="6" y="16" width="1" height="1" /><rect shape-rendering="crispEdges" fill="rgb(172, 98, 98)"  x="6" y="17" width="1" height="1" /><rect shape-rendering="crispEdges" fill="rgb(131, 57, 65)"  x="6" y="18" width="1" height="1" /><rect shape-rendering="crispEdges" fill="rgb(90, 32, 32)"  x="6" y="19" width="1" height="1" /><rect shape-rendering="crispEdges" fill="rgb(180, 115, 115)"  x="6" y="20" width="1" height="1" /><rect shape-rendering="crispEdges" fill="rgb(164, 90, 98)"  x="6" y="21" width="1" height="1" /><rect shape-rendering="crispEdges" fill="rgb(98, 57, 49)"  x="6" y="22" width="1" height="1" /><rect shape-rendering="crispEdges" fill="rgb(57, 32, 32)"  x="6" y="23" width="1" height="1" /><rect shape-rendering="crispEdges" fill="rgb(123, 74, 74)"  x="7" y="14" width="1" height="1" /><rect shape-rendering="crispEdges" fill="rgb(172, 98, 98)"  x="7" y="15" width="1" height="1" /><rect shape-rendering="crispEdges" fill="rgb(172, 115, 106)"  x="7" y="16" width="1" height="1" /><rect shape-rendering="crispEdges" fill="rgb(131, 65, 65)"  x="7" y="17" width="1" height="1" /><rect shape-rendering="crispEdges" fill="rgb(131, 65, 65)"  x="7" y="18" width="1" height="1" /><rect shape-rendering="crispEdges" fill="rgb(65, 8, 16)"  x="7" y="19" width="1" height="1" /><rect shape-rendering="crispEdges" fill="rgb(172, 115, 115)"  x="7" y="20" width="1" height="1" /><rect shape-rendering="crispEdges" fill="rgb(156, 90, 90)"  x="7" y="21" width="1" height="1" /><rect shape-rendering="crispEdges" fill="rgb(82, 41, 41)"  x="7" y="22" width="1" height="1" /><rect shape-rendering="crispEdges" fill="rgb(41, 16, 16)"  x="7" y="23" width="1" height="1" /><rect shape-rendering="crispEdges" fill="rgb(123, 74, 74)"  x="8" y="13" width="1" height="1" /><rect shape-rendering="crispEdges" fill="rgb(213, 164, 164)"  x="8" y="14" width="1" height="1" /><rect shape-rendering="crispEdges" fill="rgb(197, 123, 123)"  x="8" y="15" width="1" height="1" /><rect shape-rendering="crispEdges" fill="rgb(131, 65, 65)"  x="8" y="16" width="1" height="1" /><rect shape-rendering="crispEdges" fill="rgb(131, 65, 65)"  x="8" y="17" width="1" height="1" /><rect shape-rendering="crispEdges" fill="rgb(90, 32, 32)"  x="8" y="18" width="1" height="1" /><rect shape-rendering="crispEdges" fill="rgb(131, 65, 74)"  x="8" y="19" width="1" height="1" /><rect shape-rendering="crispEdges" fill="rgb(180, 115, 115)"  x="8" y="20" width="1" height="1" /><rect shape-rendering="crispEdges" fill="rgb(139, 74, 82)"  x="8" y="21" width="1" height="1" /><rect shape-rendering="crispEdges" fill="rgb(41, 16, 16)"  x="8" y="22" width="1" height="1" /><rect shape-rendering="crispEdges" fill="rgb(41, 16, 16)"  x="8" y="23" width="1" height="1" /><rect shape-rendering="crispEdges" fill="rgb(123, 74, 74)"  x="9" y="13" width="1" height="1" /><rect shape-rendering="crispEdges" fill="rgb(213, 164, 164)"  x="9" y="14" width="1" height="1" /><rect shape-rendering="crispEdges" fill="rgb(172, 106, 106)"  x="9" y="15" width="1" height="1" /><rect shape-rendering="crispEdges" fill="rgb(131, 65, 65)"  x="9" y="16" width="1" height="1" /><rect shape-rendering="crispEdges" fill="rgb(123, 49, 57)"  x="9" y="17" width="1" height="1" /><rect shape-rendering="crispEdges" fill="rgb(65, 8, 16)"  x="9" y="18" width="1" height="1" /><rect shape-rendering="crispEdges" fill="rgb(180, 115, 115)"  x="9" y="19" width="1" height="1" /><rect shape-rendering="crispEdges" fill="rgb(139, 74, 82)"  x="9" y="20" width="1" height="1" /><rect shape-rendering="crispEdges" fill="rgb(106, 41, 41)"  x="9" y="21" width="1" height="1" /><rect shape-rendering="crispEdges" fill="rgb(41, 16, 16)"  x="9" y="22" width="1" height="1" /><rect shape-rendering="crispEdges" fill="rgb(41, 16, 16)"  x="9" y="23" width="1" height="1" /><rect shape-rendering="crispEdges" fill="rgb(123, 74, 74)"  x="10" y="11" width="1" height="1" /><rect shape-rendering="crispEdges" fill="rgb(123, 74, 74)"  x="10" y="12" width="1" height="1" /><rect shape-rendering="crispEdges" fill="rgb(213, 164, 164)"  x="10" y="13" width="1" height="1" /><rect shape-rendering="crispEdges" fill="rgb(164, 90, 90)"  x="10" y="14" width="1" height="1" /><rect shape-rendering="crispEdges" fill="rgb(131, 65, 65)"  x="10" y="15" width="1" height="1" /><rect shape-rendering="crispEdges" fill="rgb(131, 65, 65)"  x="10" y="16" width="1" height="1" /><rect shape-rendering="crispEdges" fill="rgb(90, 32, 32)"  x="10" y="17" width="1" height="1" /><rect shape-rendering="crispEdges" fill="rgb(106, 41, 41)"  x="10" y="18" width="1" height="1" /><rect shape-rendering="crispEdges" fill="rgb(156, 90, 90)"  x="10" y="19" width="1" height="1" /><rect shape-rendering="crispEdges" fill="rgb(139, 74, 82)"  x="10" y="20" width="1" height="1" /><rect shape-rendering="crispEdges" fill="rgb(106, 41, 41)"  x="10" y="21" width="1" height="1" /><rect shape-rendering="crispEdges" fill="rgb(41, 16, 16)"  x="10" y="22" width="1" height="1" /><rect shape-rendering="crispEdges" fill="rgb(41, 24, 24)"  x="10" y="23" width="1" height="1" /><rect shape-rendering="crispEdges" fill="rgb(164, 98, 98)"  x="11" y="10" width="1" height="1" /><rect shape-rendering="crispEdges" fill="rgb(213, 164, 164)"  x="11" y="11" width="1" height="1" /><rect shape-rendering="crispEdges" fill="rgb(213, 164, 164)"  x="11" y="12" width="1" height="1" /><rect shape-rendering="crispEdges" fill="rgb(172, 98, 98)"  x="11" y="13" width="1" height="1" /><rect shape-rendering="crispEdges" fill="rgb(123, 74, 74)"  x="11" y="14" width="1" height="1" /><rect shape-rendering="crispEdges" fill="rgb(131, 65, 65)"  x="11" y="15" width="1" height="1" /><rect shape-rendering="crispEdges" fill="rgb(115, 49, 57)"  x="11" y="16" width="1" height="1" /><rect shape-rendering="crispEdges" fill="rgb(65, 8, 16)"  x="11" y="17" width="1" height="1" /><rect shape-rendering="crispEdges" fill="rgb(106, 41, 41)"  x="11" y="18" width="1" height="1" /><rect shape-rendering="crispEdges" fill="rgb(139, 74, 82)"  x="11" y="19" width="1" height="1" /><rect shape-rendering="crispEdges" fill="rgb(106, 41, 41)"  x="11" y="20" width="1" height="1" /><rect shape-rendering="crispEdges" fill="rgb(57, 32, 32)"  x="11" y="21" width="1" height="1" /><rect shape-rendering="crispEdges" fill="rgb(41, 16, 16)"  x="11" y="22" width="1" height="1" /><rect shape-rendering="crispEdges" fill="rgb(98, 49, 49)"  x="12" y="9" width="1" height="1" /><rect shape-rendering="crispEdges" fill="rgb(213, 164, 164)"  x="12" y="10" width="1" height="1" /><rect shape-rendering="crispEdges" fill="rgb(164, 90, 98)"  x="12" y="11" width="1" height="1" /><rect shape-rendering="crispEdges" fill="rgb(172, 98, 98)"  x="12" y="12" width="1" height="1" /><rect shape-rendering="crispEdges" fill="rgb(148, 82, 82)"  x="12" y="13" width="1" height="1" /><rect shape-rendering="crispEdges" fill="rgb(131, 65, 65)"  x="12" y="14" width="1" height="1" /><rect shape-rendering="crispEdges" fill="rgb(131, 65, 65)"  x="12" y="15" width="1" height="1" /><rect shape-rendering="crispEdges" fill="rgb(90, 32, 32)"  x="12" y="16" width="1" height="1" /><rect shape-rendering="crispEdges" fill="rgb(106, 41, 41)"  x="12" y="17" width="1" height="1" /><rect shape-rendering="crispEdges" fill="rgb(148, 82, 82)"  x="12" y="18" width="1" height="1" /><rect shape-rendering="crispEdges" fill="rgb(139, 74, 82)"  x="12" y="19" width="1" height="1" /><rect shape-rendering="crispEdges" fill="rgb(106, 41, 41)"  x="12" y="20" width="1" height="1" /><rect shape-rendering="crispEdges" fill="rgb(41, 16, 16)"  x="12" y="21" width="1" height="1" /><rect shape-rendering="crispEdges" fill="rgb(41, 16, 16)"  x="12" y="22" width="1" height="1" /><rect shape-rendering="crispEdges" fill="rgb(98, 49, 49)"  x="13" y="10" width="1" height="1" /><rect shape-rendering="crispEdges" fill="rgb(148, 90, 90)"  x="13" y="11" width="1" height="1" /><rect shape-rendering="crispEdges" fill="rgb(148, 82, 82)"  x="13" y="12" width="1" height="1" /><rect shape-rendering="crispEdges" fill="rgb(148, 74, 74)"  x="13" y="13" width="1" height="1" /><rect shape-rendering="crispEdges" fill="rgb(131, 65, 65)"  x="13" y="14" width="1" height="1" /><rect shape-rendering="crispEdges" fill="rgb(115, 49, 49)"  x="13" y="15" width="1" height="1" /><rect shape-rendering="crispEdges" fill="rgb(65, 8, 16)"  x="13" y="16" width="1" height="1" /><rect shape-rendering="crispEdges" fill="rgb(106, 41, 41)"  x="13" y="17" width="1" height="1" /><rect shape-rendering="crispEdges" fill="rgb(106, 41, 41)"  x="13" y="18" width="1" height="1" /><rect shape-rendering="crispEdges" fill="rgb(106, 41, 41)"  x="13" y="19" width="1" height="1" /><rect shape-rendering="crispEdges" fill="rgb(57, 32, 32)"  x="13" y="20" width="1" height="1" /><rect shape-rendering="crispEdges" fill="rgb(41, 16, 16)"  x="13" y="21" width="1" height="1" /><rect shape-rendering="crispEdges" fill="rgb(98, 49, 49)"  x="14" y="11" width="1" height="1" /><rect shape-rendering="crispEdges" fill="rgb(123, 74, 74)"  x="14" y="12" width="1" height="1" /><rect shape-rendering="crispEdges" fill="rgb(106, 57, 57)"  x="14" y="13" width="1" height="1" /><rect shape-rendering="crispEdges" fill="rgb(65, 8, 16)"  x="14" y="14" width="1" height="1" /><rect shape-rendering="crispEdges" fill="rgb(65, 8, 16)"  x="14" y="15" width="1" height="1" /><rect shape-rendering="crispEdges" fill="rgb(106, 41, 41)"  x="14" y="16" width="1" height="1" /><rect shape-rendering="crispEdges" fill="rgb(106, 41, 41)"  x="14" y="17" width="1" height="1" /><rect shape-rendering="crispEdges" fill="rgb(106, 41, 41)"  x="14" y="18" width="1" height="1" /><rect shape-rendering="crispEdges" fill="rgb(90, 32, 32)"  x="14" y="19" width="1" height="1" /><rect shape-rendering="crispEdges" fill="rgb(41, 16, 16)"  x="14" y="20" width="1" height="1" /><rect shape-rendering="crispEdges" fill="rgb(98, 49, 49)"  x="15" y="11" width="1" height="1" /><rect shape-rendering="crispEdges" fill="rgb(65, 8, 16)"  x="15" y="12" width="1" height="1" /><rect shape-rendering="crispEdges" fill="rgb(65, 8, 16)"  x="15" y="13" width="1" height="1" /><rect shape-rendering="crispEdges" fill="rgb(90, 32, 32)"  x="15" y="14" width="1" height="1" /><rect shape-rendering="crispEdges" fill="rgb(106, 41, 41)"  x="15" y="15" width="1" height="1" /><rect shape-rendering="crispEdges" fill="rgb(106, 41, 41)"  x="15" y="16" width="1" height="1" /><rect shape-rendering="crispEdges" fill="rgb(106, 41, 41)"  x="15" y="17" width="1" height="1" /><rect shape-rendering="crispEdges" fill="rgb(90, 32, 32)"  x="15" y="18" width="1" height="1" /><rect shape-rendering="crispEdges" fill="rgb(65, 24, 16)"  x="15" y="19" width="1" height="1" /><rect shape-rendering="crispEdges" fill="rgb(65, 32, 41)"  x="15" y="20" width="1" height="1" /><rect shape-rendering="crispEdges" fill="rgb(57, 32, 32)"  x="15" y="21" width="1" height="1" /><rect shape-rendering="crispEdges" fill="rgb(57, 32, 32)"  x="15" y="22" width="1" height="1" /><rect shape-rendering="crispEdges" fill="rgb(82, 49, 49)"  x="15" y="23" width="1" height="1" /><rect shape-rendering="crispEdges" fill="rgb(90, 32, 32)"  x="16" y="10" width="1" height="1" /><rect shape-rendering="crispEdges" fill="rgb(148, 123, 123)"  x="16" y="11" width="1" height="1" /><rect shape-rendering="crispEdges" fill="rgb(123, 148, 156)"  x="16" y="12" width="1" height="1" /><rect shape-rendering="crispEdges" fill="rgb(74, 98, 98)"  x="16" y="13" width="1" height="1" /><rect shape-rendering="crispEdges" fill="rgb(65, 8, 16)"  x="16" y="14" width="1" height="1" /><rect shape-rendering="crispEdges" fill="rgb(90, 32, 32)"  x="16" y="15" width="1" height="1" /><rect shape-rendering="crispEdges" fill="rgb(90, 32, 32)"  x="16" y="16" width="1" height="1" /><rect shape-rendering="crispEdges" fill="rgb(65, 8, 16)"  x="16" y="17" width="1" height="1" /><rect shape-rendering="crispEdges" fill="rgb(90, 24, 24)"  x="16" y="18" width="1" height="1" /><rect shape-rendering="crispEdges" fill="rgb(90, 24, 24)"  x="16" y="19" width="1" height="1" /><rect shape-rendering="crispEdges" fill="rgb(172, 98, 98)"  x="16" y="20" width="1" height="1" /><rect shape-rendering="crispEdges" fill="rgb(172, 98, 106)"  x="16" y="21" width="1" height="1" /><rect shape-rendering="crispEdges" fill="rgb(106, 57, 57)"  x="16" y="22" width="1" height="1" /><rect shape-rendering="crispEdges" fill="rgb(57, 32, 32)"  x="16" y="23" width="1" height="1" /><rect shape-rendering="crispEdges" fill="rgb(82, 49, 49)"  x="16" y="24" width="1" height="1" /><rect shape-rendering="crispEdges" fill="rgb(123, 74, 74)"  x="17" y="9" width="1" height="1" /><rect shape-rendering="crispEdges" fill="rgb(148, 123, 123)"  x="17" y="10" width="1" height="1" /><rect shape-rendering="crispEdges" fill="rgb(123, 148, 156)"  x="17" y="11" width="1" height="1" /><rect shape-rendering="crispEdges" fill="rgb(90, 115, 115)"  x="17" y="12" width="1" height="1" /><rect shape-rendering="crispEdges" fill="rgb(65, 8, 16)"  x="17" y="13" width="1" height="1" /><rect shape-rendering="crispEdges" fill="rgb(123, 49, 57)"  x="17" y="14" width="1" height="1" /><rect shape-rendering="crispEdges" fill="rgb(65, 8, 16)"  x="17" y="15" width="1" height="1" /><rect shape-rendering="crispEdges" fill="rgb(90, 24, 24)"  x="17" y="16" width="1" height="1" /><rect shape-rendering="crispEdges" fill="rgb(172, 98, 98)"  x="17" y="17" width="1" height="1" /><rect shape-rendering="crispEdges" fill="rgb(172, 98, 98)"  x="17" y="18" width="1" height="1" /><rect shape-rendering="crispEdges" fill="rgb(213, 164, 164)"  x="17" y="19" width="1" height="1" /><rect shape-rendering="crispEdges" fill="rgb(222, 164, 164)"  x="17" y="20" width="1" height="1" /><rect shape-rendering="crispEdges" fill="rgb(222, 164, 164)"  x="17" y="21" width="1" height="1" /><rect shape-rendering="crispEdges" fill="rgb(197, 123, 123)"  x="17" y="22" width="1" height="1" /><rect shape-rendering="crispEdges" fill="rgb(90, 49, 49)"  x="17" y="23" width="1" height="1" /><rect shape-rendering="crispEdges" fill="rgb(65, 41, 32)"  x="17" y="24" width="1" height="1" /><rect shape-rendering="crispEdges" fill="rgb(82, 49, 49)"  x="17" y="25" width="1" height="1" /><rect shape-rendering="crispEdges" fill="rgb(90, 32, 32)"  x="18" y="8" width="1" height="1" /><rect shape-rendering="crispEdges" fill="rgb(148, 123, 123)"  x="18" y="9" width="1" height="1" /><rect shape-rendering="crispEdges" fill="rgb(123, 148, 156)"  x="18" y="10" width="1" height="1" /><rect shape-rendering="crispEdges" fill="rgb(90, 115, 115)"  x="18" y="11" width="1" height="1" /><rect shape-rendering="crispEdges" fill="rgb(65, 8, 16)"  x="18" y="12" width="1" height="1" /><rect shape-rendering="crispEdges" fill="rgb(98, 32, 32)"  x="18" y="13" width="1" height="1" /><rect shape-rendering="crispEdges" fill="rgb(98, 32, 32)"  x="18" y="14" width="1" height="1" /><rect shape-rendering="crispEdges" fill="rgb(115, 49, 49)"  x="18" y="15" width="1" height="1" /><rect shape-rendering="crispEdges" fill="rgb(131, 65, 65)"  x="18" y="16" width="1" height="1" /><rect shape-rendering="crispEdges" fill="rgb(115, 49, 49)"  x="18" y="17" width="1" height="1" /><rect shape-rendering="crispEdges" fill="rgb(106, 41, 41)"  x="18" y="18" width="1" height="1" /><rect shape-rendering="crispEdges" fill="rgb(156, 90, 90)"  x="18" y="19" width="1" height="1" /><rect shape-rendering="crispEdges" fill="rgb(180, 106, 106)"  x="18" y="20" width="1" height="1" /><rect shape-rendering="crispEdges" fill="rgb(222, 164, 164)"  x="18" y="21" width="1" height="1" /><rect shape-rendering="crispEdges" fill="rgb(222, 164, 164)"  x="18" y="22" width="1" height="1" /><rect shape-rendering="crispEdges" fill="rgb(139, 82, 82)"  x="18" y="23" width="1" height="1" /><rect shape-rendering="crispEdges" fill="rgb(57, 32, 32)"  x="18" y="24" width="1" height="1" /><rect shape-rendering="crispEdges" fill="rgb(82, 49, 49)"  x="18" y="25" width="1" height="1" /><rect shape-rendering="crispEdges" fill="rgb(32, 16, 16)"  x="18" y="26" width="1" height="1" /><rect shape-rendering="crispEdges" fill="rgb(90, 32, 32)"  x="19" y="7" width="1" height="1" /><rect shape-rendering="crispEdges" fill="rgb(156, 123, 123)"  x="19" y="8" width="1" height="1" /><rect shape-rendering="crispEdges" fill="rgb(123, 148, 156)"  x="19" y="9" width="1" height="1" /><rect shape-rendering="crispEdges" fill="rgb(115, 90, 90)"  x="19" y="10" width="1" height="1" /><rect shape-rendering="crispEdges" fill="rgb(65, 8, 16)"  x="19" y="11" width="1" height="1" /><rect shape-rendering="crispEdges" fill="rgb(98, 32, 41)"  x="19" y="12" width="1" height="1" /><rect shape-rendering="crispEdges" fill="rgb(156, 90, 90)"  x="19" y="13" width="1" height="1" /><rect shape-rendering="crispEdges" fill="rgb(213, 164, 164)"  x="19" y="14" width="1" height="1" /><rect shape-rendering="crispEdges" fill="rgb(222, 164, 164)"  x="19" y="15" width="1" height="1" /><rect shape-rendering="crispEdges" fill="rgb(222, 164, 164)"  x="19" y="16" width="1" height="1" /><rect shape-rendering="crispEdges" fill="rgb(197, 123, 123)"  x="19" y="17" width="1" height="1" /><rect shape-rendering="crispEdges" fill="rgb(123, 57, 65)"  x="19" y="18" width="1" height="1" /><rect shape-rendering="crispEdges" fill="rgb(131, 65, 65)"  x="19" y="19" width="1" height="1" /><rect shape-rendering="crispEdges" fill="rgb(156, 90, 90)"  x="19" y="20" width="1" height="1" /><rect shape-rendering="crispEdges" fill="rgb(172, 106, 106)"  x="19" y="21" width="1" height="1" /><rect shape-rendering="crispEdges" fill="rgb(222, 164, 164)"  x="19" y="22" width="1" height="1" /><rect shape-rendering="crispEdges" fill="rgb(156, 90, 90)"  x="19" y="23" width="1" height="1" /><rect shape-rendering="crispEdges" fill="rgb(65, 41, 32)"  x="19" y="24" width="1" height="1" /><rect shape-rendering="crispEdges" fill="rgb(65, 41, 32)"  x="19" y="25" width="1" height="1" /><rect shape-rendering="crispEdges" fill="rgb(32, 16, 16)"  x="19" y="26" width="1" height="1" /><rect shape-rendering="crispEdges" fill="rgb(90, 32, 32)"  x="20" y="8" width="1" height="1" /><rect shape-rendering="crispEdges" fill="rgb(65, 8, 16)"  x="20" y="9" width="1" height="1" /><rect shape-rendering="crispEdges" fill="rgb(65, 8, 16)"  x="20" y="10" width="1" height="1" /><rect shape-rendering="crispEdges" fill="rgb(74, 98, 98)"  x="20" y="11" width="1" height="1" /><rect shape-rendering="crispEdges" fill="rgb(90, 24, 24)"  x="20" y="12" width="1" height="1" /><rect shape-rendering="crispEdges" fill="rgb(197, 123, 123)"  x="20" y="13" width="1" height="1" /><rect shape-rendering="crispEdges" fill="rgb(197, 115, 115)"  x="20" y="14" width="1" height="1" /><rect shape-rendering="crispEdges" fill="rgb(172, 98, 98)"  x="20" y="15" width="1" height="1" /><rect shape-rendering="crispEdges" fill="rgb(172, 98, 98)"  x="20" y="16" width="1" height="1" /><rect shape-rendering="crispEdges" fill="rgb(222, 164, 164)"  x="20" y="17" width="1" height="1" /><rect shape-rendering="crispEdges" fill="rgb(156, 90, 90)"  x="20" y="18" width="1" height="1" /><rect shape-rendering="crispEdges" fill="rgb(115, 41, 41)"  x="20" y="19" width="1" height="1" /><rect shape-rendering="crispEdges" fill="rgb(156, 90, 90)"  x="20" y="20" width="1" height="1" /><rect shape-rendering="crispEdges" fill="rgb(156, 90, 90)"  x="20" y="21" width="1" height="1" /><rect shape-rendering="crispEdges" fill="rgb(222, 164, 164)"  x="20" y="22" width="1" height="1" /><rect shape-rendering="crispEdges" fill="rgb(222, 164, 164)"  x="20" y="23" width="1" height="1" /><rect shape-rendering="crispEdges" fill="rgb(213, 164, 164)"  x="20" y="24" width="1" height="1" /><rect shape-rendering="crispEdges" fill="rgb(65, 41, 41)"  x="20" y="25" width="1" height="1" /><rect shape-rendering="crispEdges" fill="rgb(32, 16, 16)"  x="20" y="26" width="1" height="1" /><rect shape-rendering="crispEdges" fill="rgb(65, 8, 16)"  x="21" y="8" width="1" height="1" /><rect shape-rendering="crispEdges" fill="rgb(98, 74, 74)"  x="21" y="9" width="1" height="1" /><rect shape-rendering="crispEdges" fill="rgb(123, 148, 156)"  x="21" y="10" width="1" height="1" /><rect shape-rendering="crispEdges" fill="rgb(90, 24, 24)"  x="21" y="11" width="1" height="1" /><rect shape-rendering="crispEdges" fill="rgb(197, 123, 123)"  x="21" y="12" width="1" height="1" /><rect shape-rendering="crispEdges" fill="rgb(139, 74, 74)"  x="21" y="13" width="1" height="1" /><rect shape-rendering="crispEdges" fill="rgb(164, 98, 98)"  x="21" y="14" width="1" height="1" /><rect shape-rendering="crispEdges" fill="rgb(197, 115, 115)"  x="21" y="15" width="1" height="1" /><rect shape-rendering="crispEdges" fill="rgb(164, 90, 98)"  x="21" y="16" width="1" height="1" /><rect shape-rendering="crispEdges" fill="rgb(172, 115, 106)"  x="21" y="17" width="1" height="1" /><rect shape-rendering="crispEdges" fill="rgb(213, 164, 164)"  x="21" y="18" width="1" height="1" /><rect shape-rendering="crispEdges" fill="rgb(123, 57, 57)"  x="21" y="19" width="1" height="1" /><rect shape-rendering="crispEdges" fill="rgb(156, 82, 90)"  x="21" y="20" width="1" height="1" /><rect shape-rendering="crispEdges" fill="rgb(156, 90, 90)"  x="21" y="21" width="1" height="1" /><rect shape-rendering="crispEdges" fill="rgb(189, 115, 115)"  x="21" y="22" width="1" height="1" /><rect shape-rendering="crispEdges" fill="rgb(164, 90, 98)"  x="21" y="23" width="1" height="1" /><rect shape-rendering="crispEdges" fill="rgb(139, 65, 65)"  x="21" y="24" width="1" height="1" /><rect shape-rendering="crispEdges" fill="rgb(57, 32, 32)"  x="21" y="25" width="1" height="1" /><rect shape-rendering="crispEdges" fill="rgb(32, 16, 16)"  x="21" y="26" width="1" height="1" /><rect shape-rendering="crispEdges" fill="rgb(65, 8, 16)"  x="22" y="7" width="1" height="1" /><rect shape-rendering="crispEdges" fill="rgb(123, 148, 156)"  x="22" y="8" width="1" height="1" /><rect shape-rendering="crispEdges" fill="rgb(123, 148, 156)"  x="22" y="9" width="1" height="1" /><rect shape-rendering="crispEdges" fill="rgb(90, 115, 115)"  x="22" y="10" width="1" height="1" /><rect shape-rendering="crispEdges" fill="rgb(90, 24, 24)"  x="22" y="11" width="1" height="1" /><rect shape-rendering="crispEdges" fill="rgb(106, 41, 41)"  x="22" y="12" width="1" height="1" /><rect shape-rendering="crispEdges" fill="rgb(148, 74, 82)"  x="22" y="13" width="1" height="1" /><rect shape-rendering="crispEdges" fill="rgb(148, 74, 82)"  x="22" y="14" width="1" height="1" /><rect shape-rendering="crispEdges" fill="rgb(197, 115, 115)"  x="22" y="15" width="1" height="1" /><rect shape-rendering="crispEdges" fill="rgb(172, 90, 90)"  x="22" y="16" width="1" height="1" /><rect shape-rendering="crispEdges" fill="rgb(180, 115, 106)"  x="22" y="17" width="1" height="1" /><rect shape-rendering="crispEdges" fill="rgb(106, 41, 41)"  x="22" y="18" width="1" height="1" /><rect shape-rendering="crispEdges" fill="rgb(90, 24, 32)"  x="22" y="19" width="1" height="1" /><rect shape-rendering="crispEdges" fill="rgb(156, 82, 82)"  x="22" y="20" width="1" height="1" /><rect shape-rendering="crispEdges" fill="rgb(148, 82, 82)"  x="22" y="21" width="1" height="1" /><rect shape-rendering="crispEdges" fill="rgb(180, 115, 115)"  x="22" y="22" width="1" height="1" /><rect shape-rendering="crispEdges" fill="rgb(164, 90, 90)"  x="22" y="23" width="1" height="1" /><rect shape-rendering="crispEdges" fill="rgb(106, 41, 41)"  x="22" y="24" width="1" height="1" /><rect shape-rendering="crispEdges" fill="rgb(41, 16, 16)"  x="22" y="25" width="1" height="1" /><rect shape-rendering="crispEdges" fill="rgb(32, 16, 16)"  x="22" y="26" width="1" height="1" /><rect shape-rendering="crispEdges" fill="rgb(65, 8, 16)"  x="23" y="7" width="1" height="1" /><rect shape-rendering="crispEdges" fill="rgb(131, 115, 115)"  x="23" y="8" width="1" height="1" /><rect shape-rendering="crispEdges" fill="rgb(90, 115, 115)"  x="23" y="9" width="1" height="1" /><rect shape-rendering="crispEdges" fill="rgb(90, 115, 115)"  x="23" y="10" width="1" height="1" /><rect shape-rendering="crispEdges" fill="rgb(65, 8, 16)"  x="23" y="11" width="1" height="1" /><rect shape-rendering="crispEdges" fill="rgb(106, 41, 41)"  x="23" y="12" width="1" height="1" /><rect shape-rendering="crispEdges" fill="rgb(139, 74, 74)"  x="23" y="13" width="1" height="1" /><rect shape-rendering="crispEdges" fill="rgb(148, 74, 82)"  x="23" y="14" width="1" height="1" /><rect shape-rendering="crispEdges" fill="rgb(156, 82, 90)"  x="23" y="15" width="1" height="1" /><rect shape-rendering="crispEdges" fill="rgb(164, 90, 90)"  x="23" y="16" width="1" height="1" /><rect shape-rendering="crispEdges" fill="rgb(156, 90, 90)"  x="23" y="17" width="1" height="1" /><rect shape-rendering="crispEdges" fill="rgb(106, 41, 41)"  x="23" y="18" width="1" height="1" /><rect shape-rendering="crispEdges" fill="rgb(65, 8, 16)"  x="23" y="19" width="1" height="1" /><rect shape-rendering="crispEdges" fill="rgb(148, 82, 82)"  x="23" y="20" width="1" height="1" /><rect shape-rendering="crispEdges" fill="rgb(148, 82, 82)"  x="23" y="21" width="1" height="1" /><rect shape-rendering="crispEdges" fill="rgb(180, 115, 115)"  x="23" y="22" width="1" height="1" /><rect shape-rendering="crispEdges" fill="rgb(164, 90, 90)"  x="23" y="23" width="1" height="1" /><rect shape-rendering="crispEdges" fill="rgb(106, 41, 41)"  x="23" y="24" width="1" height="1" /><rect shape-rendering="crispEdges" fill="rgb(32, 16, 16)"  x="23" y="25" width="1" height="1" /><rect shape-rendering="crispEdges" fill="rgb(32, 16, 16)"  x="23" y="26" width="1" height="1" /><rect shape-rendering="crispEdges" fill="rgb(65, 8, 16)"  x="24" y="8" width="1" height="1" /><rect shape-rendering="crispEdges" fill="rgb(131, 115, 115)"  x="24" y="9" width="1" height="1" /><rect shape-rendering="crispEdges" fill="rgb(82, 57, 57)"  x="24" y="10" width="1" height="1" /><rect shape-rendering="crispEdges" fill="rgb(65, 8, 16)"  x="24" y="11" width="1" height="1" /><rect shape-rendering="crispEdges" fill="rgb(106, 41, 41)"  x="24" y="12" width="1" height="1" /><rect shape-rendering="crispEdges" fill="rgb(106, 41, 41)"  x="24" y="13" width="1" height="1" /><rect shape-rendering="crispEdges" fill="rgb(139, 74, 74)"  x="24" y="14" width="1" height="1" /><rect shape-rendering="crispEdges" fill="rgb(139, 74, 74)"  x="24" y="15" width="1" height="1" /><rect shape-rendering="crispEdges" fill="rgb(156, 90, 90)"  x="24" y="16" width="1" height="1" /><rect shape-rendering="crispEdges" fill="rgb(106, 41, 41)"  x="24" y="17" width="1" height="1" /><rect shape-rendering="crispEdges" fill="rgb(106, 41, 41)"  x="24" y="18" width="1" height="1" /><rect shape-rendering="crispEdges" fill="rgb(65, 8, 16)"  x="24" y="19" width="1" height="1" /><rect shape-rendering="crispEdges" fill="rgb(106, 41, 41)"  x="24" y="20" width="1" height="1" /><rect shape-rendering="crispEdges" fill="rgb(148, 82, 82)"  x="24" y="21" width="1" height="1" /><rect shape-rendering="crispEdges" fill="rgb(172, 106, 106)"  x="24" y="22" width="1" height="1" /><rect shape-rendering="crispEdges" fill="rgb(123, 57, 57)"  x="24" y="23" width="1" height="1" /><rect shape-rendering="crispEdges" fill="rgb(106, 41, 41)"  x="24" y="24" width="1" height="1" /><rect shape-rendering="crispEdges" fill="rgb(32, 16, 16)"  x="24" y="25" width="1" height="1" /><rect shape-rendering="crispEdges" fill="rgb(41, 16, 16)"  x="24" y="26" width="1" height="1" /><rect shape-rendering="crispEdges" fill="rgb(65, 8, 16)"  x="25" y="9" width="1" height="1" /><rect shape-rendering="crispEdges" fill="rgb(131, 115, 115)"  x="25" y="10" width="1" height="1" /><rect shape-rendering="crispEdges" fill="rgb(82, 57, 57)"  x="25" y="11" width="1" height="1" /><rect shape-rendering="crispEdges" fill="rgb(65, 8, 16)"  x="25" y="12" width="1" height="1" /><rect shape-rendering="crispEdges" fill="rgb(106, 41, 41)"  x="25" y="13" width="1" height="1" /><rect shape-rendering="crispEdges" fill="rgb(106, 41, 41)"  x="25" y="14" width="1" height="1" /><rect shape-rendering="crispEdges" fill="rgb(106, 41, 41)"  x="25" y="15" width="1" height="1" /><rect shape-rendering="crispEdges" fill="rgb(106, 41, 41)"  x="25" y="16" width="1" height="1" /><rect shape-rendering="crispEdges" fill="rgb(106, 41, 41)"  x="25" y="17" width="1" height="1" /><rect shape-rendering="crispEdges" fill="rgb(65, 8, 16)"  x="25" y="18" width="1" height="1" /><rect shape-rendering="crispEdges" fill="rgb(65, 8, 16)"  x="25" y="19" width="1" height="1" /><rect shape-rendering="crispEdges" fill="rgb(106, 41, 41)"  x="25" y="20" width="1" height="1" /><rect shape-rendering="crispEdges" fill="rgb(148, 74, 82)"  x="25" y="21" width="1" height="1" /><rect shape-rendering="crispEdges" fill="rgb(164, 90, 90)"  x="25" y="22" width="1" height="1" /><rect shape-rendering="crispEdges" fill="rgb(106, 41, 41)"  x="25" y="23" width="1" height="1" /><rect shape-rendering="crispEdges" fill="rgb(106, 41, 41)"  x="25" y="24" width="1" height="1" /><rect shape-rendering="crispEdges" fill="rgb(32, 16, 16)"  x="25" y="25" width="1" height="1" /><rect shape-rendering="crispEdges" fill="rgb(41, 16, 16)"  x="25" y="26" width="1" height="1" /><rect shape-rendering="crispEdges" fill="rgb(65, 8, 16)"  x="26" y="10" width="1" height="1" /><rect shape-rendering="crispEdges" fill="rgb(65, 8, 16)"  x="26" y="11" width="1" height="1" /><rect shape-rendering="crispEdges" fill="rgb(65, 8, 16)"  x="26" y="12" width="1" height="1" /><rect shape-rendering="crispEdges" fill="rgb(65, 8, 16)"  x="26" y="13" width="1" height="1" /><rect shape-rendering="crispEdges" fill="rgb(65, 8, 16)"  x="26" y="14" width="1" height="1" /><rect shape-rendering="crispEdges" fill="rgb(90, 24, 24)"  x="26" y="15" width="1" height="1" /><rect shape-rendering="crispEdges" fill="rgb(65, 8, 16)"  x="26" y="16" width="1" height="1" /><rect shape-rendering="crispEdges" fill="rgb(65, 8, 16)"  x="26" y="17" width="1" height="1" /><rect shape-rendering="crispEdges" fill="rgb(65, 8, 16)"  x="26" y="18" width="1" height="1" /><rect shape-rendering="crispEdges" fill="rgb(106, 41, 41)"  x="26" y="19" width="1" height="1" /><rect shape-rendering="crispEdges" fill="rgb(106, 41, 41)"  x="26" y="20" width="1" height="1" /><rect shape-rendering="crispEdges" fill="rgb(106, 41, 41)"  x="26" y="21" width="1" height="1" /><rect shape-rendering="crispEdges" fill="rgb(106, 41, 41)"  x="26" y="22" width="1" height="1" /><rect shape-rendering="crispEdges" fill="rgb(106, 41, 41)"  x="26" y="23" width="1" height="1" /><rect shape-rendering="crispEdges" fill="rgb(41, 16, 16)"  x="26" y="24" width="1" height="1" /><rect shape-rendering="crispEdges" fill="rgb(32, 16, 16)"  x="26" y="25" width="1" height="1" /><rect shape-rendering="crispEdges" fill="rgb(65, 8, 16)"  x="27" y="13" width="1" height="1" /><rect shape-rendering="crispEdges" fill="rgb(65, 8, 16)"  x="27" y="14" width="1" height="1" /><rect shape-rendering="crispEdges" fill="rgb(65, 8, 16)"  x="27" y="15" width="1" height="1" /><rect shape-rendering="crispEdges" fill="rgb(90, 41, 41)"  x="27" y="16" width="1" height="1" /><rect shape-rendering="crispEdges" fill="rgb(90, 41, 41)"  x="27" y="17" width="1" height="1" /><rect shape-rendering="crispEdges" fill="rgb(90, 41, 41)"  x="27" y="18" width="1" height="1" /><rect shape-rendering="crispEdges" fill="rgb(106, 41, 41)"  x="27" y="19" width="1" height="1" /><rect shape-rendering="crispEdges" fill="rgb(106, 41, 41)"  x="27" y="20" width="1" height="1" /><rect shape-rendering="crispEdges" fill="rgb(106, 41, 41)"  x="27" y="21" width="1" height="1" /><rect shape-rendering="crispEdges" fill="rgb(106, 41, 41)"  x="27" y="22" width="1" height="1" /><rect shape-rendering="crispEdges" fill="rgb(90, 41, 41)"  x="27" y="23" width="1" height="1" /><rect shape-rendering="crispEdges" fill="rgb(32, 16, 16)"  x="27" y="24" width="1" height="1" /><rect shape-rendering="crispEdges" fill="rgb(32, 16, 16)"  x="27" y="25" width="1" height="1" /><rect shape-rendering="crispEdges" fill="rgb(65, 8, 16)"  x="28" y="16" width="1" height="1" /><rect shape-rendering="crispEdges" fill="rgb(65, 8, 16)"  x="28" y="17" width="1" height="1" /><rect shape-rendering="crispEdges" fill="rgb(65, 8, 16)"  x="28" y="18" width="1" height="1" /><rect shape-rendering="crispEdges" fill="rgb(74, 32, 32)"  x="28" y="19" width="1" height="1" /><rect shape-rendering="crispEdges" fill="rgb(90, 41, 41)"  x="28" y="20" width="1" height="1" /><rect shape-rendering="crispEdges" fill="rgb(90, 41, 41)"  x="28" y="21" width="1" height="1" /><rect shape-rendering="crispEdges" fill="rgb(90, 41, 41)"  x="28" y="22" width="1" height="1" /><rect shape-rendering="crispEdges" fill="rgb(32, 16, 16)"  x="28" y="23" width="1" height="1" /><rect shape-rendering="crispEdges" fill="rgb(32, 16, 16)"  x="28" y="24" width="1" height="1" /><rect shape-rendering="crispEdges" fill="rgb(65, 8, 16)"  x="29" y="19" width="1" height="1" /><rect shape-rendering="crispEdges" fill="rgb(65, 8, 16)"  x="29" y="20" width="1" height="1" /><rect shape-rendering="crispEdges" fill="rgb(41, 16, 16)"  x="29" y="21" width="1" height="1" /><rect shape-rendering="crispEdges" fill="rgb(41, 16, 16)"  x="29" y="22" width="1" height="1" /><rect shape-rendering="crispEdges" fill="rgb(41, 16, 16)"  x="29" y="23" width="1" height="1" /></svg>