<svg xmlns="http://www.w3.org/2000/svg" xmlns:xlink= "http://www.w3.org/1999/xlink" width="32" height="32" viewBox ="0 0 32 32"><rect shape-rendering="crispEdges" fill="rgb(189, 197, 197)"  x="1" y="12" width="1" height="1" /><rect shape-rendering="crispEdges" fill="rgb(189, 197, 197)"  x="1" y="13" width="1" height="1" /><rect shape-rendering="crispEdges" fill="rgb(123, 139, 139)"  x="1" y="14" width="1" height="1" /><rect shape-rendering="crispEdges" fill="rgb(90, 115, 123)"  x="1" y="15" width="1" height="1" /><rect shape-rendering="crispEdges" fill="rgb(90, 115, 115)"  x="1" y="16" width="1" height="1" /><rect shape-rendering="crispEdges" fill="rgb(98, 123, 123)"  x="1" y="17" width="1" height="1" /><rect shape-rendering="crispEdges" fill="rgb(115, 139, 139)"  x="1" y="18" width="1" height="1" /><rect shape-rendering="crispEdges" fill="rgb(123, 148, 148)"  x="1" y="19" width="1" height="1" /><rect shape-rendering="crispEdges" fill="rgb(189, 197, 197)"  x="1" y="20" width="1" height="1" /><rect shape-rendering="crispEdges" fill="rgb(189, 197, 197)"  x="1" y="21" width="1" height="1" /><rect shape-rendering="crispEdges" fill="rgb(57, 90, 90)"  x="2" y="11" width="1" height="1" /><rect shape-rendering="crispEdges" fill="rgb(57, 90, 90)"  x="2" y="12" width="1" height="1" /><rect shape-rendering="crispEdges" fill="rgb(57, 90, 90)"  x="2" y="13" width="1" height="1" /><rect shape-rendering="crispEdges" fill="rgb(57, 90, 90)"  x="2" y="14" width="1" height="1" /><rect shape-rendering="crispEdges" fill="rgb(57, 90, 90)"  x="2" y="15" width="1" height="1" /><rect shape-rendering="crispEdges" fill="rgb(57, 90, 90)"  x="2" y="16" width="1" height="1" /><rect shape-rendering="crispEdges" fill="rgb(57, 90, 90)"  x="2" y="17" width="1" height="1" /><rect shape-rendering="crispEdges" fill="rgb(57, 90, 90)"  x="2" y="18" width="1" height="1" /><rect shape-rendering="crispEdges" fill="rgb(74, 106, 106)"  x="2" y="19" width="1" height="1" /><rect shape-rendering="crispEdges" fill="rgb(74, 106, 106)"  x="2" y="20" width="1" height="1" /><rect shape-rendering="crispEdges" fill="rgb(90, 115, 123)"  x="2" y="21" width="1" height="1" /><rect shape-rendering="crispEdges" fill="rgb(205, 213, 213)"  x="2" y="22" width="1" height="1" /><rect shape-rendering="crispEdges" fill="rgb(57, 90, 90)"  x="3" y="17" width="1" height="1" /><rect shape-rendering="crispEdges" fill="rgb(57, 90, 90)"  x="3" y="18" width="1" height="1" /><rect shape-rendering="crispEdges" fill="rgb(57, 90, 90)"  x="3" y="19" width="1" height="1" /><rect shape-rendering="crispEdges" fill="rgb(65, 90, 90)"  x="3" y="20" width="1" height="1" /><rect shape-rendering="crispEdges" fill="rgb(65, 90, 98)"  x="3" y="21" width="1" height="1" /><rect shape-rendering="crispEdges" fill="rgb(106, 123, 131)"  x="3" y="22" width="1" height="1" /><rect shape-rendering="crispEdges" fill="rgb(205, 213, 213)"  x="3" y="23" width="1" height="1" /><rect shape-rendering="crispEdges" fill="rgb(0, 8, 16)"  x="4" y="16" width="1" height="1" /><rect shape-rendering="crispEdges" fill="rgb(131, 123, 106)"  x="4" y="17" width="1" height="1" /><rect shape-rendering="crispEdges" fill="rgb(213, 197, 189)"  x="4" y="18" width="1" height="1" /><rect shape-rendering="crispEdges" fill="rgb(131, 131, 131)"  x="4" y="19" width="1" height="1" /><rect shape-rendering="crispEdges" fill="rgb(41, 65, 74)"  x="4" y="20" width="1" height="1" /><rect shape-rendering="crispEdges" fill="rgb(65, 82, 90)"  x="4" y="21" width="1" height="1" /><rect shape-rendering="crispEdges" fill="rgb(65, 98, 98)"  x="4" y="22" width="1" height="1" /><rect shape-rendering="crispEdges" fill="rgb(205, 213, 213)"  x="4" y="23" width="1" height="1" /><rect shape-rendering="crispEdges" fill="rgb(0, 8, 16)"  x="5" y="14" width="1" height="1" /><rect shape-rendering="crispEdges" fill="rgb(49, 49, 49)"  x="5" y="15" width="1" height="1" /><rect shape-rendering="crispEdges" fill="rgb(49, 49, 49)"  x="5" y="16" width="1" height="1" /><rect shape-rendering="crispEdges" fill="rgb(0, 8, 16)"  x="5" y="17" width="1" height="1" /><rect shape-rendering="crispEdges" fill="rgb(90, 74, 57)"  x="5" y="18" width="1" height="1" /><rect shape-rendering="crispEdges" fill="rgb(65, 65, 65)"  x="5" y="19" width="1" height="1" /><rect shape-rendering="crispEdges" fill="rgb(41, 65, 74)"  x="5" y="20" width="1" height="1" /><rect shape-rendering="crispEdges" fill="rgb(49, 74, 74)"  x="5" y="21" width="1" height="1" /><rect shape-rendering="crispEdges" fill="rgb(74, 106, 106)"  x="5" y="22" width="1" height="1" /><rect shape-rendering="crispEdges" fill="rgb(205, 213, 213)"  x="5" y="23" width="1" height="1" /><rect shape-rendering="crispEdges" fill="rgb(189, 139, 74)"  x="6" y="8" width="1" height="1" /><rect shape-rendering="crispEdges" fill="rgb(24, 57, 74)"  x="6" y="9" width="1" height="1" /><rect shape-rendering="crispEdges" fill="rgb(24, 57, 74)"  x="6" y="10" width="1" height="1" /><rect shape-rendering="crispEdges" fill="rgb(24, 57, 74)"  x="6" y="11" width="1" height="1" /><rect shape-rendering="crispEdges" fill="rgb(24, 57, 74)"  x="6" y="12" width="1" height="1" /><rect shape-rendering="crispEdges" fill="rgb(189, 139, 74)"  x="6" y="13" width="1" height="1" /><rect shape-rendering="crispEdges" fill="rgb(82, 82, 74)"  x="6" y="14" width="1" height="1" /><rect shape-rendering="crispEdges" fill="rgb(82, 82, 74)"  x="6" y="15" width="1" height="1" /><rect shape-rendering="crispEdges" fill="rgb(82, 82, 74)"  x="6" y="16" width="1" height="1" /><rect shape-rendering="crispEdges" fill="rgb(0, 8, 16)"  x="6" y="17" width="1" height="1" /><rect shape-rendering="crispEdges" fill="rgb(57, 49, 41)"  x="6" y="18" width="1" height="1" /><rect shape-rendering="crispEdges" fill="rgb(123, 98, 90)"  x="6" y="19" width="1" height="1" /><rect shape-rendering="crispEdges" fill="rgb(41, 65, 65)"  x="6" y="20" width="1" height="1" /><rect shape-rendering="crispEdges" fill="rgb(41, 65, 74)"  x="6" y="21" width="1" height="1" /><rect shape-rendering="crispEdges" fill="rgb(205, 213, 213)"  x="6" y="22" width="1" height="1" /><rect shape-rendering="crispEdges" fill="rgb(205, 213, 213)"  x="6" y="23" width="1" height="1" /><rect shape-rendering="crispEdges" fill="rgb(49, 49, 49)"  x="7" y="6" width="1" height="1" /><rect shape-rendering="crispEdges" fill="rgb(74, 57, 41)"  x="7" y="7" width="1" height="1" /><rect shape-rendering="crispEdges" fill="rgb(255, 222, 115)"  x="7" y="8" width="1" height="1" /><rect shape-rendering="crispEdges" fill="rgb(74, 139, 156)"  x="7" y="9" width="1" height="1" /><rect shape-rendering="crispEdges" fill="rgb(57, 90, 98)"  x="7" y="10" width="1" height="1" /><rect shape-rendering="crispEdges" fill="rgb(32, 57, 57)"  x="7" y="11" width="1" height="1" /><rect shape-rendering="crispEdges" fill="rgb(131, 106, 82)"  x="7" y="12" width="1" height="1" /><rect shape-rendering="crispEdges" fill="rgb(222, 180, 115)"  x="7" y="13" width="1" height="1" /><rect shape-rendering="crispEdges" fill="rgb(222, 180, 115)"  x="7" y="14" width="1" height="1" /><rect shape-rendering="crispEdges" fill="rgb(0, 8, 16)"  x="7" y="15" width="1" height="1" /><rect shape-rendering="crispEdges" fill="rgb(0, 8, 16)"  x="7" y="16" width="1" height="1" /><rect shape-rendering="crispEdges" fill="rgb(0, 8, 16)"  x="7" y="17" width="1" height="1" /><rect shape-rendering="crispEdges" fill="rgb(32, 57, 65)"  x="7" y="19" width="1" height="1" /><rect shape-rendering="crispEdges" fill="rgb(32, 57, 65)"  x="7" y="20" width="1" height="1" /><rect shape-rendering="crispEdges" fill="rgb(172, 180, 180)"  x="7" y="21" width="1" height="1" /><rect shape-rendering="crispEdges" fill="rgb(172, 180, 180)"  x="7" y="22" width="1" height="1" /><rect shape-rendering="crispEdges" fill="rgb(180, 115, 49)"  x="8" y="5" width="1" height="1" /><rect shape-rendering="crispEdges" fill="rgb(238, 172, 106)"  x="8" y="6" width="1" height="1" /><rect shape-rendering="crispEdges" fill="rgb(255, 205, 123)"  x="8" y="7" width="1" height="1" /><rect shape-rendering="crispEdges" fill="rgb(238, 197, 123)"  x="8" y="8" width="1" height="1" /><rect shape-rendering="crispEdges" fill="rgb(57, 90, 98)"  x="8" y="9" width="1" height="1" /><rect shape-rendering="crispEdges" fill="rgb(57, 82, 82)"  x="8" y="10" width="1" height="1" /><rect shape-rendering="crispEdges" fill="rgb(49, 74, 74)"  x="8" y="11" width="1" height="1" /><rect shape-rendering="crispEdges" fill="rgb(65, 74, 65)"  x="8" y="12" width="1" height="1" /><rect shape-rendering="crispEdges" fill="rgb(205, 164, 98)"  x="8" y="13" width="1" height="1" /><rect shape-rendering="crispEdges" fill="rgb(82, 57, 32)"  x="8" y="14" width="1" height="1" /><rect shape-rendering="crispEdges" fill="rgb(115, 131, 139)"  x="8" y="15" width="1" height="1" /><rect shape-rendering="crispEdges" fill="rgb(32, 57, 65)"  x="8" y="18" width="1" height="1" /><rect shape-rendering="crispEdges" fill="rgb(32, 57, 65)"  x="8" y="19" width="1" height="1" /><rect shape-rendering="crispEdges" fill="rgb(172, 180, 180)"  x="8" y="20" width="1" height="1" /><rect shape-rendering="crispEdges" fill="rgb(172, 180, 180)"  x="8" y="21" width="1" height="1" /><rect shape-rendering="crispEdges" fill="rgb(180, 115, 49)"  x="9" y="5" width="1" height="1" /><rect shape-rendering="crispEdges" fill="rgb(246, 197, 115)"  x="9" y="6" width="1" height="1" /><rect shape-rendering="crispEdges" fill="rgb(255, 222, 123)"  x="9" y="7" width="1" height="1" /><rect shape-rendering="crispEdges" fill="rgb(98, 106, 106)"  x="9" y="8" width="1" height="1" /><rect shape-rendering="crispEdges" fill="rgb(49, 82, 90)"  x="9" y="9" width="1" height="1" /><rect shape-rendering="crispEdges" fill="rgb(24, 49, 49)"  x="9" y="10" width="1" height="1" /><rect shape-rendering="crispEdges" fill="rgb(41, 65, 65)"  x="9" y="11" width="1" height="1" /><rect shape-rendering="crispEdges" fill="rgb(49, 57, 65)"  x="9" y="12" width="1" height="1" /><rect shape-rendering="crispEdges" fill="rgb(16, 24, 32)"  x="9" y="27" width="1" height="1" /><rect shape-rendering="crispEdges" fill="rgb(16, 24, 32)"  x="9" y="28" width="1" height="1" /><rect shape-rendering="crispEdges" fill="rgb(0, 0, 8)"  x="9" y="29" width="1" height="1" /><rect shape-rendering="crispEdges" fill="rgb(180, 115, 49)"  x="10" y="5" width="1" height="1" /><rect shape-rendering="crispEdges" fill="rgb(246, 197, 115)"  x="10" y="6" width="1" height="1" /><rect shape-rendering="crispEdges" fill="rgb(106, 115, 106)"  x="10" y="7" width="1" height="1" /><rect shape-rendering="crispEdges" fill="rgb(49, 82, 98)"  x="10" y="8" width="1" height="1" /><rect shape-rendering="crispEdges" fill="rgb(24, 49, 49)"  x="10" y="9" width="1" height="1" /><rect shape-rendering="crispEdges" fill="rgb(41, 65, 74)"  x="10" y="10" width="1" height="1" /><rect shape-rendering="crispEdges" fill="rgb(24, 49, 49)"  x="10" y="11" width="1" height="1" /><rect shape-rendering="crispEdges" fill="rgb(16, 24, 32)"  x="10" y="19" width="1" height="1" /><rect shape-rendering="crispEdges" fill="rgb(16, 24, 32)"  x="10" y="20" width="1" height="1" /><rect shape-rendering="crispEdges" fill="rgb(16, 24, 32)"  x="10" y="21" width="1" height="1" /><rect shape-rendering="crispEdges" fill="rgb(197, 197, 189)"  x="10" y="23" width="1" height="1" /><rect shape-rendering="crispEdges" fill="rgb(139, 131, 115)"  x="10" y="24" width="1" height="1" /><rect shape-rendering="crispEdges" fill="rgb(139, 131, 115)"  x="10" y="25" width="1" height="1" /><rect shape-rendering="crispEdges" fill="rgb(74, 82, 90)"  x="10" y="26" width="1" height="1" /><rect shape-rendering="crispEdges" fill="rgb(74, 82, 90)"  x="10" y="27" width="1" height="1" /><rect shape-rendering="crispEdges" fill="rgb(0, 0, 8)"  x="10" y="28" width="1" height="1" /><rect shape-rendering="crispEdges" fill="rgb(0, 0, 8)"  x="10" y="29" width="1" height="1" /><rect shape-rendering="crispEdges" fill="rgb(106, 115, 148)"  x="11" y="3" width="1" height="1" /><rect shape-rendering="crispEdges" fill="rgb(82, 90, 139)"  x="11" y="4" width="1" height="1" /><rect shape-rendering="crispEdges" fill="rgb(82, 90, 139)"  x="11" y="5" width="1" height="1" /><rect shape-rendering="crispEdges" fill="rgb(41, 65, 74)"  x="11" y="6" width="1" height="1" /><rect shape-rendering="crispEdges" fill="rgb(57, 98, 106)"  x="11" y="7" width="1" height="1" /><rect shape-rendering="crispEdges" fill="rgb(49, 65, 74)"  x="11" y="8" width="1" height="1" /><rect shape-rendering="crispEdges" fill="rgb(49, 65, 74)"  x="11" y="9" width="1" height="1" /><rect shape-rendering="crispEdges" fill="rgb(24, 49, 49)"  x="11" y="10" width="1" height="1" /><rect shape-rendering="crispEdges" fill="rgb(24, 49, 49)"  x="11" y="11" width="1" height="1" /><rect shape-rendering="crispEdges" fill="rgb(24, 49, 49)"  x="11" y="16" width="1" height="1" /><rect shape-rendering="crispEdges" fill="rgb(180, 115, 49)"  x="11" y="17" width="1" height="1" /><rect shape-rendering="crispEdges" fill="rgb(106, 82, 57)"  x="11" y="18" width="1" height="1" /><rect shape-rendering="crispEdges" fill="rgb(8, 16, 32)"  x="11" y="19" width="1" height="1" /><rect shape-rendering="crispEdges" fill="rgb(16, 24, 32)"  x="11" y="20" width="1" height="1" /><rect shape-rendering="crispEdges" fill="rgb(8, 8, 16)"  x="11" y="21" width="1" height="1" /><rect shape-rendering="crispEdges" fill="rgb(8, 8, 16)"  x="11" y="22" width="1" height="1" /><rect shape-rendering="crispEdges" fill="rgb(106, 106, 90)"  x="11" y="23" width="1" height="1" /><rect shape-rendering="crispEdges" fill="rgb(148, 139, 123)"  x="11" y="24" width="1" height="1" /><rect shape-rendering="crispEdges" fill="rgb(131, 106, 98)"  x="11" y="25" width="1" height="1" /><rect shape-rendering="crispEdges" fill="rgb(16, 16, 24)"  x="11" y="26" width="1" height="1" /><rect shape-rendering="crispEdges" fill="rgb(74, 82, 90)"  x="11" y="27" width="1" height="1" /><rect shape-rendering="crispEdges" fill="rgb(0, 0, 8)"  x="11" y="28" width="1" height="1" /><rect shape-rendering="crispEdges" fill="rgb(0, 0, 8)"  x="11" y="29" width="1" height="1" /><rect shape-rendering="crispEdges" fill="rgb(106, 115, 148)"  x="12" y="3" width="1" height="1" /><rect shape-rendering="crispEdges" fill="rgb(123, 131, 189)"  x="12" y="4" width="1" height="1" /><rect shape-rendering="crispEdges" fill="rgb(82, 90, 139)"  x="12" y="5" width="1" height="1" /><rect shape-rendering="crispEdges" fill="rgb(82, 90, 139)"  x="12" y="6" width="1" height="1" /><rect shape-rendering="crispEdges" fill="rgb(41, 65, 74)"  x="12" y="7" width="1" height="1" /><rect shape-rendering="crispEdges" fill="rgb(41, 65, 74)"  x="12" y="8" width="1" height="1" /><rect shape-rendering="crispEdges" fill="rgb(57, 90, 98)"  x="12" y="9" width="1" height="1" /><rect shape-rendering="crispEdges" fill="rgb(41, 65, 74)"  x="12" y="10" width="1" height="1" /><rect shape-rendering="crispEdges" fill="rgb(82, 90, 139)"  x="12" y="11" width="1" height="1" /><rect shape-rendering="crispEdges" fill="rgb(57, 65, 98)"  x="12" y="12" width="1" height="1" /><rect shape-rendering="crispEdges" fill="rgb(57, 65, 98)"  x="12" y="13" width="1" height="1" /><rect shape-rendering="crispEdges" fill="rgb(24, 49, 49)"  x="12" y="15" width="1" height="1" /><rect shape-rendering="crispEdges" fill="rgb(24, 49, 49)"  x="12" y="16" width="1" height="1" /><rect shape-rendering="crispEdges" fill="rgb(205, 172, 115)"  x="12" y="17" width="1" height="1" /><rect shape-rendering="crispEdges" fill="rgb(230, 180, 115)"  x="12" y="18" width="1" height="1" /><rect shape-rendering="crispEdges" fill="rgb(16, 24, 41)"  x="12" y="19" width="1" height="1" /><rect shape-rendering="crispEdges" fill="rgb(32, 41, 49)"  x="12" y="20" width="1" height="1" /><rect shape-rendering="crispEdges" fill="rgb(24, 32, 41)"  x="12" y="21" width="1" height="1" /><rect shape-rendering="crispEdges" fill="rgb(8, 8, 24)"  x="12" y="22" width="1" height="1" /><rect shape-rendering="crispEdges" fill="rgb(74, 82, 74)"  x="12" y="23" width="1" height="1" /><rect shape-rendering="crispEdges" fill="rgb(148, 139, 131)"  x="12" y="24" width="1" height="1" /><rect shape-rendering="crispEdges" fill="rgb(123, 98, 74)"  x="12" y="25" width="1" height="1" /><rect shape-rendering="crispEdges" fill="rgb(8, 8, 16)"  x="12" y="26" width="1" height="1" /><rect shape-rendering="crispEdges" fill="rgb(0, 0, 8)"  x="12" y="27" width="1" height="1" /><rect shape-rendering="crispEdges" fill="rgb(0, 0, 8)"  x="12" y="28" width="1" height="1" /><rect shape-rendering="crispEdges" fill="rgb(0, 0, 8)"  x="12" y="29" width="1" height="1" /><rect shape-rendering="crispEdges" fill="rgb(24, 49, 49)"  x="13" y="4" width="1" height="1" /><rect shape-rendering="crispEdges" fill="rgb(139, 123, 131)"  x="13" y="5" width="1" height="1" /><rect shape-rendering="crispEdges" fill="rgb(98, 115, 164)"  x="13" y="6" width="1" height="1" /><rect shape-rendering="crispEdges" fill="rgb(205, 172, 139)"  x="13" y="7" width="1" height="1" /><rect shape-rendering="crispEdges" fill="rgb(238, 189, 123)"  x="13" y="8" width="1" height="1" /><rect shape-rendering="crispEdges" fill="rgb(41, 65, 74)"  x="13" y="9" width="1" height="1" /><rect shape-rendering="crispEdges" fill="rgb(123, 131, 189)"  x="13" y="10" width="1" height="1" /><rect shape-rendering="crispEdges" fill="rgb(82, 90, 139)"  x="13" y="11" width="1" height="1" /><rect shape-rendering="crispEdges" fill="rgb(24, 49, 49)"  x="13" y="12" width="1" height="1" /><rect shape-rendering="crispEdges" fill="rgb(24, 49, 49)"  x="13" y="13" width="1" height="1" /><rect shape-rendering="crispEdges" fill="rgb(24, 49, 49)"  x="13" y="14" width="1" height="1" /><rect shape-rendering="crispEdges" fill="rgb(32, 65, 74)"  x="13" y="15" width="1" height="1" /><rect shape-rendering="crispEdges" fill="rgb(98, 106, 98)"  x="13" y="16" width="1" height="1" /><rect shape-rendering="crispEdges" fill="rgb(106, 115, 106)"  x="13" y="17" width="1" height="1" /><rect shape-rendering="crispEdges" fill="rgb(246, 213, 131)"  x="13" y="18" width="1" height="1" /><rect shape-rendering="crispEdges" fill="rgb(74, 74, 65)"  x="13" y="19" width="1" height="1" /><rect shape-rendering="crispEdges" fill="rgb(8, 24, 41)"  x="13" y="20" width="1" height="1" /><rect shape-rendering="crispEdges" fill="rgb(8, 16, 16)"  x="13" y="21" width="1" height="1" /><rect shape-rendering="crispEdges" fill="rgb(16, 16, 24)"  x="13" y="22" width="1" height="1" /><rect shape-rendering="crispEdges" fill="rgb(98, 98, 90)"  x="13" y="23" width="1" height="1" /><rect shape-rendering="crispEdges" fill="rgb(139, 131, 115)"  x="13" y="24" width="1" height="1" /><rect shape-rendering="crispEdges" fill="rgb(139, 131, 115)"  x="13" y="25" width="1" height="1" /><rect shape-rendering="crispEdges" fill="rgb(189, 189, 197)"  x="13" y="26" width="1" height="1" /><rect shape-rendering="crispEdges" fill="rgb(0, 0, 8)"  x="13" y="27" width="1" height="1" /><rect shape-rendering="crispEdges" fill="rgb(0, 0, 8)"  x="13" y="28" width="1" height="1" /><rect shape-rendering="crispEdges" fill="rgb(24, 49, 49)"  x="14" y="3" width="1" height="1" /><rect shape-rendering="crispEdges" fill="rgb(24, 49, 49)"  x="14" y="4" width="1" height="1" /><rect shape-rendering="crispEdges" fill="rgb(172, 148, 123)"  x="14" y="5" width="1" height="1" /><rect shape-rendering="crispEdges" fill="rgb(74, 98, 148)"  x="14" y="6" width="1" height="1" /><rect shape-rendering="crispEdges" fill="rgb(213, 106, 90)"  x="14" y="7" width="1" height="1" /><rect shape-rendering="crispEdges" fill="rgb(41, 65, 74)"  x="14" y="8" width="1" height="1" /><rect shape-rendering="crispEdges" fill="rgb(230, 115, 74)"  x="14" y="9" width="1" height="1" /><rect shape-rendering="crispEdges" fill="rgb(82, 90, 139)"  x="14" y="10" width="1" height="1" /><rect shape-rendering="crispEdges" fill="rgb(24, 49, 49)"  x="14" y="11" width="1" height="1" /><rect shape-rendering="crispEdges" fill="rgb(41, 65, 74)"  x="14" y="12" width="1" height="1" /><rect shape-rendering="crispEdges" fill="rgb(41, 65, 74)"  x="14" y="13" width="1" height="1" /><rect shape-rendering="crispEdges" fill="rgb(65, 90, 98)"  x="14" y="14" width="1" height="1" /><rect shape-rendering="crispEdges" fill="rgb(49, 82, 90)"  x="14" y="15" width="1" height="1" /><rect shape-rendering="crispEdges" fill="rgb(49, 57, 65)"  x="14" y="16" width="1" height="1" /><rect shape-rendering="crispEdges" fill="rgb(49, 57, 65)"  x="14" y="17" width="1" height="1" /><rect shape-rendering="crispEdges" fill="rgb(172, 148, 106)"  x="14" y="18" width="1" height="1" /><rect shape-rendering="crispEdges" fill="rgb(222, 164, 90)"  x="14" y="19" width="1" height="1" /><rect shape-rendering="crispEdges" fill="rgb(8, 16, 16)"  x="14" y="20" width="1" height="1" /><rect shape-rendering="crispEdges" fill="rgb(189, 156, 106)"  x="15" y="3" width="1" height="1" /><rect shape-rendering="crispEdges" fill="rgb(123, 106, 74)"  x="15" y="4" width="1" height="1" /><rect shape-rendering="crispEdges" fill="rgb(24, 49, 49)"  x="15" y="5" width="1" height="1" /><rect shape-rendering="crispEdges" fill="rgb(41, 65, 74)"  x="15" y="6" width="1" height="1" /><rect shape-rendering="crispEdges" fill="rgb(205, 82, 32)"  x="15" y="7" width="1" height="1" /><rect shape-rendering="crispEdges" fill="rgb(213, 41, 0)"  x="15" y="8" width="1" height="1" /><rect shape-rendering="crispEdges" fill="rgb(180, 65, 24)"  x="15" y="9" width="1" height="1" /><rect shape-rendering="crispEdges" fill="rgb(24, 49, 49)"  x="15" y="10" width="1" height="1" /><rect shape-rendering="crispEdges" fill="rgb(115, 115, 98)"  x="15" y="11" width="1" height="1" /><rect shape-rendering="crispEdges" fill="rgb(41, 65, 74)"  x="15" y="12" width="1" height="1" /><rect shape-rendering="crispEdges" fill="rgb(74, 98, 106)"  x="15" y="13" width="1" height="1" /><rect shape-rendering="crispEdges" fill="rgb(74, 139, 156)"  x="15" y="14" width="1" height="1" /><rect shape-rendering="crispEdges" fill="rgb(49, 82, 90)"  x="15" y="15" width="1" height="1" /><rect shape-rendering="crispEdges" fill="rgb(49, 82, 90)"  x="15" y="16" width="1" height="1" /><rect shape-rendering="crispEdges" fill="rgb(49, 57, 65)"  x="15" y="17" width="1" height="1" /><rect shape-rendering="crispEdges" fill="rgb(24, 49, 49)"  x="15" y="18" width="1" height="1" /><rect shape-rendering="crispEdges" fill="rgb(164, 123, 65)"  x="15" y="19" width="1" height="1" /><rect shape-rendering="crispEdges" fill="rgb(24, 49, 49)"  x="16" y="3" width="1" height="1" /><rect shape-rendering="crispEdges" fill="rgb(24, 49, 49)"  x="16" y="4" width="1" height="1" /><rect shape-rendering="crispEdges" fill="rgb(24, 49, 49)"  x="16" y="5" width="1" height="1" /><rect shape-rendering="crispEdges" fill="rgb(41, 65, 74)"  x="16" y="6" width="1" height="1" /><rect shape-rendering="crispEdges" fill="rgb(222, 90, 41)"  x="16" y="7" width="1" height="1" /><rect shape-rendering="crispEdges" fill="rgb(230, 57, 8)"  x="16" y="8" width="1" height="1" /><rect shape-rendering="crispEdges" fill="rgb(230, 82, 32)"  x="16" y="9" width="1" height="1" /><rect shape-rendering="crispEdges" fill="rgb(24, 49, 49)"  x="16" y="10" width="1" height="1" /><rect shape-rendering="crispEdges" fill="rgb(131, 123, 98)"  x="16" y="11" width="1" height="1" /><rect shape-rendering="crispEdges" fill="rgb(205, 164, 115)"  x="16" y="12" width="1" height="1" /><rect shape-rendering="crispEdges" fill="rgb(41, 82, 98)"  x="16" y="13" width="1" height="1" /><rect shape-rendering="crispEdges" fill="rgb(65, 90, 98)"  x="16" y="14" width="1" height="1" /><rect shape-rendering="crispEdges" fill="rgb(49, 82, 90)"  x="16" y="15" width="1" height="1" /><rect shape-rendering="crispEdges" fill="rgb(49, 82, 90)"  x="16" y="16" width="1" height="1" /><rect shape-rendering="crispEdges" fill="rgb(49, 57, 65)"  x="16" y="17" width="1" height="1" /><rect shape-rendering="crispEdges" fill="rgb(24, 49, 49)"  x="16" y="18" width="1" height="1" /><rect shape-rendering="crispEdges" fill="rgb(24, 49, 49)"  x="17" y="3" width="1" height="1" /><rect shape-rendering="crispEdges" fill="rgb(24, 49, 49)"  x="17" y="4" width="1" height="1" /><rect shape-rendering="crispEdges" fill="rgb(82, 90, 139)"  x="17" y="5" width="1" height="1" /><rect shape-rendering="crispEdges" fill="rgb(82, 90, 139)"  x="17" y="6" width="1" height="1" /><rect shape-rendering="crispEdges" fill="rgb(172, 106, 115)"  x="17" y="7" width="1" height="1" /><rect shape-rendering="crispEdges" fill="rgb(41, 65, 74)"  x="17" y="8" width="1" height="1" /><rect shape-rendering="crispEdges" fill="rgb(156, 106, 98)"  x="17" y="9" width="1" height="1" /><rect shape-rendering="crispEdges" fill="rgb(82, 90, 139)"  x="17" y="10" width="1" height="1" /><rect shape-rendering="crispEdges" fill="rgb(82, 90, 139)"  x="17" y="11" width="1" height="1" /><rect shape-rendering="crispEdges" fill="rgb(24, 49, 49)"  x="17" y="12" width="1" height="1" /><rect shape-rendering="crispEdges" fill="rgb(123, 123, 106)"  x="17" y="13" width="1" height="1" /><rect shape-rendering="crispEdges" fill="rgb(74, 90, 98)"  x="17" y="14" width="1" height="1" /><rect shape-rendering="crispEdges" fill="rgb(49, 57, 65)"  x="17" y="15" width="1" height="1" /><rect shape-rendering="crispEdges" fill="rgb(49, 57, 65)"  x="17" y="16" width="1" height="1" /><rect shape-rendering="crispEdges" fill="rgb(49, 57, 65)"  x="17" y="17" width="1" height="1" /><rect shape-rendering="crispEdges" fill="rgb(24, 49, 49)"  x="17" y="18" width="1" height="1" /><rect shape-rendering="crispEdges" fill="rgb(24, 32, 41)"  x="18" y="4" width="1" height="1" /><rect shape-rendering="crispEdges" fill="rgb(82, 90, 139)"  x="18" y="5" width="1" height="1" /><rect shape-rendering="crispEdges" fill="rgb(82, 90, 139)"  x="18" y="6" width="1" height="1" /><rect shape-rendering="crispEdges" fill="rgb(41, 65, 74)"  x="18" y="7" width="1" height="1" /><rect shape-rendering="crispEdges" fill="rgb(74, 139, 156)"  x="18" y="8" width="1" height="1" /><rect shape-rendering="crispEdges" fill="rgb(41, 65, 74)"  x="18" y="9" width="1" height="1" /><rect shape-rendering="crispEdges" fill="rgb(123, 131, 189)"  x="18" y="10" width="1" height="1" /><rect shape-rendering="crispEdges" fill="rgb(82, 90, 139)"  x="18" y="11" width="1" height="1" /><rect shape-rendering="crispEdges" fill="rgb(82, 90, 139)"  x="18" y="12" width="1" height="1" /><rect shape-rendering="crispEdges" fill="rgb(24, 49, 49)"  x="18" y="13" width="1" height="1" /><rect shape-rendering="crispEdges" fill="rgb(205, 156, 90)"  x="18" y="14" width="1" height="1" /><rect shape-rendering="crispEdges" fill="rgb(41, 74, 82)"  x="18" y="15" width="1" height="1" /><rect shape-rendering="crispEdges" fill="rgb(98, 106, 90)"  x="18" y="16" width="1" height="1" /><rect shape-rendering="crispEdges" fill="rgb(41, 65, 74)"  x="18" y="17" width="1" height="1" /><rect shape-rendering="crispEdges" fill="rgb(230, 180, 123)"  x="18" y="18" width="1" height="1" /><rect shape-rendering="crispEdges" fill="rgb(164, 123, 65)"  x="18" y="19" width="1" height="1" /><rect shape-rendering="crispEdges" fill="rgb(106, 115, 148)"  x="19" y="3" width="1" height="1" /><rect shape-rendering="crispEdges" fill="rgb(123, 131, 189)"  x="19" y="4" width="1" height="1" /><rect shape-rendering="crispEdges" fill="rgb(123, 131, 189)"  x="19" y="5" width="1" height="1" /><rect shape-rendering="crispEdges" fill="rgb(41, 65, 74)"  x="19" y="6" width="1" height="1" /><rect shape-rendering="crispEdges" fill="rgb(74, 139, 156)"  x="19" y="7" width="1" height="1" /><rect shape-rendering="crispEdges" fill="rgb(49, 65, 74)"  x="19" y="8" width="1" height="1" /><rect shape-rendering="crispEdges" fill="rgb(49, 65, 74)"  x="19" y="9" width="1" height="1" /><rect shape-rendering="crispEdges" fill="rgb(24, 49, 49)"  x="19" y="10" width="1" height="1" /><rect shape-rendering="crispEdges" fill="rgb(82, 90, 139)"  x="19" y="11" width="1" height="1" /><rect shape-rendering="crispEdges" fill="rgb(82, 90, 139)"  x="19" y="12" width="1" height="1" /><rect shape-rendering="crispEdges" fill="rgb(82, 90, 139)"  x="19" y="13" width="1" height="1" /><rect shape-rendering="crispEdges" fill="rgb(24, 49, 49)"  x="19" y="14" width="1" height="1" /><rect shape-rendering="crispEdges" fill="rgb(24, 49, 49)"  x="19" y="15" width="1" height="1" /><rect shape-rendering="crispEdges" fill="rgb(74, 98, 98)"  x="19" y="16" width="1" height="1" /><rect shape-rendering="crispEdges" fill="rgb(238, 197, 123)"  x="19" y="17" width="1" height="1" /><rect shape-rendering="crispEdges" fill="rgb(230, 180, 115)"  x="19" y="18" width="1" height="1" /><rect shape-rendering="crispEdges" fill="rgb(16, 16, 32)"  x="19" y="19" width="1" height="1" /><rect shape-rendering="crispEdges" fill="rgb(16, 32, 41)"  x="19" y="20" width="1" height="1" /><rect shape-rendering="crispEdges" fill="rgb(57, 65, 65)"  x="19" y="21" width="1" height="1" /><rect shape-rendering="crispEdges" fill="rgb(57, 65, 65)"  x="19" y="22" width="1" height="1" /><rect shape-rendering="crispEdges" fill="rgb(139, 131, 115)"  x="19" y="23" width="1" height="1" /><rect shape-rendering="crispEdges" fill="rgb(139, 131, 115)"  x="19" y="24" width="1" height="1" /><rect shape-rendering="crispEdges" fill="rgb(106, 115, 148)"  x="20" y="3" width="1" height="1" /><rect shape-rendering="crispEdges" fill="rgb(82, 90, 139)"  x="20" y="4" width="1" height="1" /><rect shape-rendering="crispEdges" fill="rgb(41, 65, 74)"  x="20" y="5" width="1" height="1" /><rect shape-rendering="crispEdges" fill="rgb(49, 65, 74)"  x="20" y="6" width="1" height="1" /><rect shape-rendering="crispEdges" fill="rgb(49, 65, 74)"  x="20" y="7" width="1" height="1" /><rect shape-rendering="crispEdges" fill="rgb(24, 49, 49)"  x="20" y="8" width="1" height="1" /><rect shape-rendering="crispEdges" fill="rgb(24, 49, 49)"  x="20" y="9" width="1" height="1" /><rect shape-rendering="crispEdges" fill="rgb(57, 65, 98)"  x="20" y="11" width="1" height="1" /><rect shape-rendering="crispEdges" fill="rgb(57, 65, 98)"  x="20" y="12" width="1" height="1" /><rect shape-rendering="crispEdges" fill="rgb(57, 65, 98)"  x="20" y="13" width="1" height="1" /><rect shape-rendering="crispEdges" fill="rgb(24, 49, 49)"  x="20" y="15" width="1" height="1" /><rect shape-rendering="crispEdges" fill="rgb(98, 98, 82)"  x="20" y="16" width="1" height="1" /><rect shape-rendering="crispEdges" fill="rgb(255, 222, 131)"  x="20" y="17" width="1" height="1" /><rect shape-rendering="crispEdges" fill="rgb(32, 41, 57)"  x="20" y="18" width="1" height="1" /><rect shape-rendering="crispEdges" fill="rgb(16, 32, 49)"  x="20" y="19" width="1" height="1" /><rect shape-rendering="crispEdges" fill="rgb(24, 32, 41)"  x="20" y="20" width="1" height="1" /><rect shape-rendering="crispEdges" fill="rgb(8, 16, 24)"  x="20" y="21" width="1" height="1" /><rect shape-rendering="crispEdges" fill="rgb(8, 8, 16)"  x="20" y="22" width="1" height="1" /><rect shape-rendering="crispEdges" fill="rgb(82, 82, 74)"  x="20" y="23" width="1" height="1" /><rect shape-rendering="crispEdges" fill="rgb(131, 115, 106)"  x="20" y="24" width="1" height="1" /><rect shape-rendering="crispEdges" fill="rgb(131, 115, 106)"  x="20" y="25" width="1" height="1" /><rect shape-rendering="crispEdges" fill="rgb(0, 0, 8)"  x="20" y="26" width="1" height="1" /><rect shape-rendering="crispEdges" fill="rgb(0, 0, 8)"  x="20" y="27" width="1" height="1" /><rect shape-rendering="crispEdges" fill="rgb(0, 0, 8)"  x="20" y="28" width="1" height="1" /><rect shape-rendering="crispEdges" fill="rgb(180, 115, 49)"  x="21" y="4" width="1" height="1" /><rect shape-rendering="crispEdges" fill="rgb(82, 90, 82)"  x="21" y="5" width="1" height="1" /><rect shape-rendering="crispEdges" fill="rgb(57, 90, 98)"  x="21" y="6" width="1" height="1" /><rect shape-rendering="crispEdges" fill="rgb(24, 49, 49)"  x="21" y="7" width="1" height="1" /><rect shape-rendering="crispEdges" fill="rgb(65, 90, 90)"  x="21" y="8" width="1" height="1" /><rect shape-rendering="crispEdges" fill="rgb(49, 65, 74)"  x="21" y="9" width="1" height="1" /><rect shape-rendering="crispEdges" fill="rgb(24, 49, 49)"  x="21" y="10" width="1" height="1" /><rect shape-rendering="crispEdges" fill="rgb(180, 115, 49)"  x="21" y="16" width="1" height="1" /><rect shape-rendering="crispEdges" fill="rgb(238, 197, 123)"  x="21" y="17" width="1" height="1" /><rect shape-rendering="crispEdges" fill="rgb(0, 8, 16)"  x="21" y="18" width="1" height="1" /><rect shape-rendering="crispEdges" fill="rgb(8, 16, 24)"  x="21" y="19" width="1" height="1" /><rect shape-rendering="crispEdges" fill="rgb(8, 8, 16)"  x="21" y="20" width="1" height="1" /><rect shape-rendering="crispEdges" fill="rgb(8, 8, 16)"  x="21" y="21" width="1" height="1" /><rect shape-rendering="crispEdges" fill="rgb(8, 8, 16)"  x="21" y="22" width="1" height="1" /><rect shape-rendering="crispEdges" fill="rgb(115, 115, 98)"  x="21" y="23" width="1" height="1" /><rect shape-rendering="crispEdges" fill="rgb(106, 90, 82)"  x="21" y="24" width="1" height="1" /><rect shape-rendering="crispEdges" fill="rgb(16, 16, 16)"  x="21" y="25" width="1" height="1" /><rect shape-rendering="crispEdges" fill="rgb(74, 82, 90)"  x="21" y="26" width="1" height="1" /><rect shape-rendering="crispEdges" fill="rgb(0, 0, 8)"  x="21" y="27" width="1" height="1" /><rect shape-rendering="crispEdges" fill="rgb(0, 0, 8)"  x="21" y="28" width="1" height="1" /><rect shape-rendering="crispEdges" fill="rgb(0, 0, 8)"  x="21" y="29" width="1" height="1" /><rect shape-rendering="crispEdges" fill="rgb(180, 115, 49)"  x="22" y="4" width="1" height="1" /><rect shape-rendering="crispEdges" fill="rgb(246, 197, 106)"  x="22" y="5" width="1" height="1" /><rect shape-rendering="crispEdges" fill="rgb(106, 115, 106)"  x="22" y="6" width="1" height="1" /><rect shape-rendering="crispEdges" fill="rgb(49, 90, 106)"  x="22" y="7" width="1" height="1" /><rect shape-rendering="crispEdges" fill="rgb(24, 49, 49)"  x="22" y="8" width="1" height="1" /><rect shape-rendering="crispEdges" fill="rgb(65, 90, 90)"  x="22" y="9" width="1" height="1" /><rect shape-rendering="crispEdges" fill="rgb(49, 65, 74)"  x="22" y="10" width="1" height="1" /><rect shape-rendering="crispEdges" fill="rgb(32, 57, 57)"  x="22" y="11" width="1" height="1" /><rect shape-rendering="crispEdges" fill="rgb(164, 123, 65)"  x="22" y="17" width="1" height="1" /><rect shape-rendering="crispEdges" fill="rgb(16, 24, 32)"  x="22" y="18" width="1" height="1" /><rect shape-rendering="crispEdges" fill="rgb(8, 8, 16)"  x="22" y="19" width="1" height="1" /><rect shape-rendering="crispEdges" fill="rgb(8, 8, 16)"  x="22" y="20" width="1" height="1" /><rect shape-rendering="crispEdges" fill="rgb(16, 24, 32)"  x="22" y="21" width="1" height="1" /><rect shape-rendering="crispEdges" fill="rgb(98, 106, 106)"  x="22" y="22" width="1" height="1" /><rect shape-rendering="crispEdges" fill="rgb(139, 131, 115)"  x="22" y="23" width="1" height="1" /><rect shape-rendering="crispEdges" fill="rgb(139, 131, 115)"  x="22" y="24" width="1" height="1" /><rect shape-rendering="crispEdges" fill="rgb(32, 32, 41)"  x="22" y="25" width="1" height="1" /><rect shape-rendering="crispEdges" fill="rgb(74, 82, 90)"  x="22" y="26" width="1" height="1" /><rect shape-rendering="crispEdges" fill="rgb(0, 0, 8)"  x="22" y="27" width="1" height="1" /><rect shape-rendering="crispEdges" fill="rgb(0, 0, 8)"  x="22" y="28" width="1" height="1" /><rect shape-rendering="crispEdges" fill="rgb(0, 0, 8)"  x="22" y="29" width="1" height="1" /><rect shape-rendering="crispEdges" fill="rgb(180, 115, 49)"  x="23" y="4" width="1" height="1" /><rect shape-rendering="crispEdges" fill="rgb(213, 164, 90)"  x="23" y="5" width="1" height="1" /><rect shape-rendering="crispEdges" fill="rgb(246, 213, 123)"  x="23" y="6" width="1" height="1" /><rect shape-rendering="crispEdges" fill="rgb(82, 106, 115)"  x="23" y="7" width="1" height="1" /><rect shape-rendering="crispEdges" fill="rgb(74, 106, 115)"  x="23" y="8" width="1" height="1" /><rect shape-rendering="crispEdges" fill="rgb(74, 139, 156)"  x="23" y="9" width="1" height="1" /><rect shape-rendering="crispEdges" fill="rgb(65, 90, 90)"  x="23" y="10" width="1" height="1" /><rect shape-rendering="crispEdges" fill="rgb(49, 65, 74)"  x="23" y="11" width="1" height="1" /><rect shape-rendering="crispEdges" fill="rgb(24, 49, 49)"  x="23" y="12" width="1" height="1" /><rect shape-rendering="crispEdges" fill="rgb(8, 8, 16)"  x="23" y="19" width="1" height="1" /><rect shape-rendering="crispEdges" fill="rgb(8, 8, 16)"  x="23" y="20" width="1" height="1" /><rect shape-rendering="crispEdges" fill="rgb(16, 24, 24)"  x="23" y="26" width="1" height="1" /><rect shape-rendering="crispEdges" fill="rgb(0, 0, 8)"  x="23" y="27" width="1" height="1" /><rect shape-rendering="crispEdges" fill="rgb(0, 0, 8)"  x="23" y="28" width="1" height="1" /><rect shape-rendering="crispEdges" fill="rgb(0, 0, 8)"  x="23" y="29" width="1" height="1" /><rect shape-rendering="crispEdges" fill="rgb(180, 115, 49)"  x="24" y="5" width="1" height="1" /><rect shape-rendering="crispEdges" fill="rgb(180, 115, 49)"  x="24" y="6" width="1" height="1" /><rect shape-rendering="crispEdges" fill="rgb(246, 205, 106)"  x="24" y="7" width="1" height="1" /><rect shape-rendering="crispEdges" fill="rgb(82, 106, 106)"  x="24" y="8" width="1" height="1" /><rect shape-rendering="crispEdges" fill="rgb(74, 139, 156)"  x="24" y="9" width="1" height="1" /><rect shape-rendering="crispEdges" fill="rgb(74, 139, 156)"  x="24" y="10" width="1" height="1" /><rect shape-rendering="crispEdges" fill="rgb(82, 90, 82)"  x="24" y="11" width="1" height="1" /><rect shape-rendering="crispEdges" fill="rgb(180, 139, 90)"  x="24" y="12" width="1" height="1" /><rect shape-rendering="crispEdges" fill="rgb(238, 172, 98)"  x="24" y="13" width="1" height="1" /><rect shape-rendering="crispEdges" fill="rgb(24, 49, 49)"  x="24" y="14" width="1" height="1" /><rect shape-rendering="crispEdges" fill="rgb(156, 164, 164)"  x="24" y="17" width="1" height="1" /><rect shape-rendering="crispEdges" fill="rgb(115, 131, 131)"  x="24" y="18" width="1" height="1" /><rect shape-rendering="crispEdges" fill="rgb(115, 131, 131)"  x="24" y="19" width="1" height="1" /><rect shape-rendering="crispEdges" fill="rgb(0, 0, 8)"  x="24" y="27" width="1" height="1" /><rect shape-rendering="crispEdges" fill="rgb(0, 0, 8)"  x="24" y="28" width="1" height="1" /><rect shape-rendering="crispEdges" fill="rgb(189, 139, 74)"  x="25" y="7" width="1" height="1" /><rect shape-rendering="crispEdges" fill="rgb(24, 49, 49)"  x="25" y="8" width="1" height="1" /><rect shape-rendering="crispEdges" fill="rgb(24, 49, 49)"  x="25" y="9" width="1" height="1" /><rect shape-rendering="crispEdges" fill="rgb(24, 49, 49)"  x="25" y="10" width="1" height="1" /><rect shape-rendering="crispEdges" fill="rgb(123, 106, 74)"  x="25" y="11" width="1" height="1" /><rect shape-rendering="crispEdges" fill="rgb(238, 189, 115)"  x="25" y="12" width="1" height="1" /><rect shape-rendering="crispEdges" fill="rgb(32, 41, 32)"  x="25" y="13" width="1" height="1" /><rect shape-rendering="crispEdges" fill="rgb(24, 49, 49)"  x="25" y="14" width="1" height="1" /><rect shape-rendering="crispEdges" fill="rgb(24, 49, 49)"  x="25" y="15" width="1" height="1" /><rect shape-rendering="crispEdges" fill="rgb(156, 164, 164)"  x="25" y="16" width="1" height="1" /><rect shape-rendering="crispEdges" fill="rgb(156, 164, 164)"  x="25" y="17" width="1" height="1" /><rect shape-rendering="crispEdges" fill="rgb(32, 41, 49)"  x="25" y="18" width="1" height="1" /><rect shape-rendering="crispEdges" fill="rgb(24, 41, 41)"  x="25" y="19" width="1" height="1" /><rect shape-rendering="crispEdges" fill="rgb(115, 131, 131)"  x="25" y="20" width="1" height="1" /><rect shape-rendering="crispEdges" fill="rgb(24, 49, 49)"  x="26" y="10" width="1" height="1" /><rect shape-rendering="crispEdges" fill="rgb(172, 139, 98)"  x="26" y="11" width="1" height="1" /><rect shape-rendering="crispEdges" fill="rgb(172, 139, 98)"  x="26" y="12" width="1" height="1" /><rect shape-rendering="crispEdges" fill="rgb(41, 41, 49)"  x="26" y="13" width="1" height="1" /><rect shape-rendering="crispEdges" fill="rgb(172, 180, 180)"  x="26" y="14" width="1" height="1" /><rect shape-rendering="crispEdges" fill="rgb(172, 180, 180)"  x="26" y="15" width="1" height="1" /><rect shape-rendering="crispEdges" fill="rgb(172, 180, 180)"  x="26" y="16" width="1" height="1" /><rect shape-rendering="crispEdges" fill="rgb(172, 180, 180)"  x="26" y="17" width="1" height="1" /><rect shape-rendering="crispEdges" fill="rgb(156, 164, 164)"  x="26" y="18" width="1" height="1" /><rect shape-rendering="crispEdges" fill="rgb(41, 57, 65)"  x="26" y="19" width="1" height="1" /><rect shape-rendering="crispEdges" fill="rgb(32, 49, 57)"  x="26" y="20" width="1" height="1" /><rect shape-rendering="crispEdges" fill="rgb(115, 131, 131)"  x="26" y="21" width="1" height="1" /><rect shape-rendering="crispEdges" fill="rgb(115, 123, 131)"  x="27" y="13" width="1" height="1" /><rect shape-rendering="crispEdges" fill="rgb(172, 180, 180)"  x="27" y="14" width="1" height="1" /><rect shape-rendering="crispEdges" fill="rgb(238, 238, 238)"  x="27" y="15" width="1" height="1" /><rect shape-rendering="crispEdges" fill="rgb(238, 238, 238)"  x="27" y="16" width="1" height="1" /><rect shape-rendering="crispEdges" fill="rgb(238, 238, 238)"  x="27" y="17" width="1" height="1" /><rect shape-rendering="crispEdges" fill="rgb(172, 180, 180)"  x="27" y="18" width="1" height="1" /><rect shape-rendering="crispEdges" fill="rgb(172, 180, 180)"  x="27" y="19" width="1" height="1" /><rect shape-rendering="crispEdges" fill="rgb(41, 57, 65)"  x="27" y="20" width="1" height="1" /><rect shape-rendering="crispEdges" fill="rgb(115, 131, 131)"  x="27" y="21" width="1" height="1" /><rect shape-rendering="crispEdges" fill="rgb(115, 123, 131)"  x="28" y="13" width="1" height="1" /><rect shape-rendering="crispEdges" fill="rgb(238, 238, 238)"  x="28" y="14" width="1" height="1" /><rect shape-rendering="crispEdges" fill="rgb(238, 238, 238)"  x="28" y="15" width="1" height="1" /><rect shape-rendering="crispEdges" fill="rgb(238, 238, 238)"  x="28" y="16" width="1" height="1" /><rect shape-rendering="crispEdges" fill="rgb(238, 238, 238)"  x="28" y="17" width="1" height="1" /><rect shape-rendering="crispEdges" fill="rgb(255, 255, 255)"  x="28" y="18" width="1" height="1" /><rect shape-rendering="crispEdges" fill="rgb(156, 164, 164)"  x="28" y="19" width="1" height="1" /><rect shape-rendering="crispEdges" fill="rgb(16, 32, 32)"  x="28" y="20" width="1" height="1" /><rect shape-rendering="crispEdges" fill="rgb(139, 148, 148)"  x="28" y="21" width="1" height="1" /><rect shape-rendering="crispEdges" fill="rgb(115, 123, 131)"  x="29" y="13" width="1" height="1" /><rect shape-rendering="crispEdges" fill="rgb(172, 180, 180)"  x="29" y="14" width="1" height="1" /><rect shape-rendering="crispEdges" fill="rgb(238, 238, 238)"  x="29" y="15" width="1" height="1" /><rect shape-rendering="crispEdges" fill="rgb(238, 238, 238)"  x="29" y="16" width="1" height="1" /><rect shape-rendering="crispEdges" fill="rgb(238, 238, 238)"  x="29" y="17" width="1" height="1" /><rect shape-rendering="crispEdges" fill="rgb(172, 180, 180)"  x="29" y="18" width="1" height="1" /><rect shape-rendering="crispEdges" fill="rgb(115, 123, 131)"  x="29" y="19" width="1" height="1" /><rect shape-rendering="crispEdges" fill="rgb(115, 123, 131)"  x="30" y="14" width="1" height="1" /><rect shape-rendering="crispEdges" fill="rgb(156, 164, 164)"  x="30" y="15" width="1" height="1" /><rect shape-rendering="crispEdges" fill="rgb(156, 164, 164)"  x="30" y="16" width="1" height="1" /><rect shape-rendering="crispEdges" fill="rgb(156, 164, 164)"  x="30" y="17" width="1" height="1" /><rect shape-rendering="crispEdges" fill="rgb(115, 123, 131)"  x="30" y="18" width="1" height="1" /></svg>