<svg xmlns="http://www.w3.org/2000/svg" xmlns:xlink= "http://www.w3.org/1999/xlink" width="32" height="32" viewBox ="0 0 32 32"><rect shape-rendering="crispEdges" fill="rgb(115, 65, 24)"  x="7" y="5" width="1" height="1" /><rect shape-rendering="crispEdges" fill="rgb(123, 65, 24)"  x="7" y="6" width="1" height="1" /><rect shape-rendering="crispEdges" fill="rgb(131, 74, 32)"  x="7" y="7" width="1" height="1" /><rect shape-rendering="crispEdges" fill="rgb(139, 82, 32)"  x="7" y="8" width="1" height="1" /><rect shape-rendering="crispEdges" fill="rgb(131, 74, 24)"  x="7" y="9" width="1" height="1" /><rect shape-rendering="crispEdges" fill="rgb(115, 57, 8)"  x="7" y="10" width="1" height="1" /><rect shape-rendering="crispEdges" fill="rgb(98, 49, 8)"  x="7" y="11" width="1" height="1" /><rect shape-rendering="crispEdges" fill="rgb(98, 49, 16)"  x="7" y="12" width="1" height="1" /><rect shape-rendering="crispEdges" fill="rgb(98, 49, 16)"  x="7" y="13" width="1" height="1" /><rect shape-rendering="crispEdges" fill="rgb(98, 49, 16)"  x="7" y="14" width="1" height="1" /><rect shape-rendering="crispEdges" fill="rgb(90, 90, 90)"  x="7" y="26" width="1" height="1" /><rect shape-rendering="crispEdges" fill="rgb(82, 82, 82)"  x="7" y="27" width="1" height="1" /><rect shape-rendering="crispEdges" fill="rgb(90, 90, 90)"  x="7" y="28" width="1" height="1" /><rect shape-rendering="crispEdges" fill="rgb(90, 90, 90)"  x="7" y="29" width="1" height="1" /><rect shape-rendering="crispEdges" fill="rgb(115, 65, 24)"  x="8" y="3" width="1" height="1" /><rect shape-rendering="crispEdges" fill="rgb(115, 65, 24)"  x="8" y="4" width="1" height="1" /><rect shape-rendering="crispEdges" fill="rgb(123, 65, 24)"  x="8" y="5" width="1" height="1" /><rect shape-rendering="crispEdges" fill="rgb(255, 255, 255)"  x="8" y="6" width="1" height="1" /><rect shape-rendering="crispEdges" fill="rgb(255, 255, 255)"  x="8" y="7" width="1" height="1" /><rect shape-rendering="crispEdges" fill="rgb(255, 139, 49)"  x="8" y="8" width="1" height="1" /><rect shape-rendering="crispEdges" fill="rgb(238, 197, 164)"  x="8" y="9" width="1" height="1" /><rect shape-rendering="crispEdges" fill="rgb(180, 148, 123)"  x="8" y="10" width="1" height="1" /><rect shape-rendering="crispEdges" fill="rgb(106, 57, 32)"  x="8" y="11" width="1" height="1" /><rect shape-rendering="crispEdges" fill="rgb(90, 41, 8)"  x="8" y="12" width="1" height="1" /><rect shape-rendering="crispEdges" fill="rgb(98, 49, 16)"  x="8" y="13" width="1" height="1" /><rect shape-rendering="crispEdges" fill="rgb(90, 49, 16)"  x="8" y="14" width="1" height="1" /><rect shape-rendering="crispEdges" fill="rgb(82, 41, 8)"  x="8" y="15" width="1" height="1" /><rect shape-rendering="crispEdges" fill="rgb(74, 32, 8)"  x="8" y="16" width="1" height="1" /><rect shape-rendering="crispEdges" fill="rgb(90, 90, 98)"  x="8" y="26" width="1" height="1" /><rect shape-rendering="crispEdges" fill="rgb(156, 164, 164)"  x="8" y="27" width="1" height="1" /><rect shape-rendering="crispEdges" fill="rgb(106, 106, 115)"  x="8" y="28" width="1" height="1" /><rect shape-rendering="crispEdges" fill="rgb(82, 82, 90)"  x="8" y="29" width="1" height="1" /><rect shape-rendering="crispEdges" fill="rgb(123, 74, 32)"  x="9" y="2" width="1" height="1" /><rect shape-rendering="crispEdges" fill="rgb(123, 74, 32)"  x="9" y="3" width="1" height="1" /><rect shape-rendering="crispEdges" fill="rgb(205, 123, 49)"  x="9" y="4" width="1" height="1" /><rect shape-rendering="crispEdges" fill="rgb(123, 65, 24)"  x="9" y="5" width="1" height="1" /><rect shape-rendering="crispEdges" fill="rgb(32, 32, 32)"  x="9" y="6" width="1" height="1" /><rect shape-rendering="crispEdges" fill="rgb(32, 32, 32)"  x="9" y="7" width="1" height="1" /><rect shape-rendering="crispEdges" fill="rgb(255, 255, 255)"  x="9" y="8" width="1" height="1" /><rect shape-rendering="crispEdges" fill="rgb(32, 32, 32)"  x="9" y="9" width="1" height="1" /><rect shape-rendering="crispEdges" fill="rgb(255, 255, 255)"  x="9" y="10" width="1" height="1" /><rect shape-rendering="crispEdges" fill="rgb(197, 205, 213)"  x="9" y="11" width="1" height="1" /><rect shape-rendering="crispEdges" fill="rgb(90, 41, 8)"  x="9" y="12" width="1" height="1" /><rect shape-rendering="crispEdges" fill="rgb(74, 32, 8)"  x="9" y="13" width="1" height="1" /><rect shape-rendering="crispEdges" fill="rgb(74, 32, 16)"  x="9" y="14" width="1" height="1" /><rect shape-rendering="crispEdges" fill="rgb(74, 32, 8)"  x="9" y="15" width="1" height="1" /><rect shape-rendering="crispEdges" fill="rgb(74, 32, 8)"  x="9" y="16" width="1" height="1" /><rect shape-rendering="crispEdges" fill="rgb(82, 41, 8)"  x="9" y="17" width="1" height="1" /><rect shape-rendering="crispEdges" fill="rgb(98, 49, 8)"  x="9" y="18" width="1" height="1" /><rect shape-rendering="crispEdges" fill="rgb(90, 49, 8)"  x="9" y="19" width="1" height="1" /><rect shape-rendering="crispEdges" fill="rgb(90, 41, 0)"  x="9" y="20" width="1" height="1" /><rect shape-rendering="crispEdges" fill="rgb(98, 49, 16)"  x="9" y="21" width="1" height="1" /><rect shape-rendering="crispEdges" fill="rgb(98, 57, 24)"  x="9" y="22" width="1" height="1" /><rect shape-rendering="crispEdges" fill="rgb(106, 57, 24)"  x="9" y="23" width="1" height="1" /><rect shape-rendering="crispEdges" fill="rgb(106, 57, 24)"  x="9" y="24" width="1" height="1" /><rect shape-rendering="crispEdges" fill="rgb(98, 65, 41)"  x="9" y="25" width="1" height="1" /><rect shape-rendering="crispEdges" fill="rgb(139, 148, 148)"  x="9" y="26" width="1" height="1" /><rect shape-rendering="crispEdges" fill="rgb(255, 255, 255)"  x="9" y="27" width="1" height="1" /><rect shape-rendering="crispEdges" fill="rgb(156, 156, 164)"  x="9" y="28" width="1" height="1" /><rect shape-rendering="crispEdges" fill="rgb(82, 82, 90)"  x="9" y="29" width="1" height="1" /><rect shape-rendering="crispEdges" fill="rgb(123, 74, 32)"  x="10" y="2" width="1" height="1" /><rect shape-rendering="crispEdges" fill="rgb(213, 148, 57)"  x="10" y="3" width="1" height="1" /><rect shape-rendering="crispEdges" fill="rgb(255, 156, 65)"  x="10" y="4" width="1" height="1" /><rect shape-rendering="crispEdges" fill="rgb(255, 156, 65)"  x="10" y="5" width="1" height="1" /><rect shape-rendering="crispEdges" fill="rgb(213, 123, 49)"  x="10" y="6" width="1" height="1" /><rect shape-rendering="crispEdges" fill="rgb(213, 123, 49)"  x="10" y="7" width="1" height="1" /><rect shape-rendering="crispEdges" fill="rgb(255, 255, 255)"  x="10" y="8" width="1" height="1" /><rect shape-rendering="crispEdges" fill="rgb(32, 32, 32)"  x="10" y="9" width="1" height="1" /><rect shape-rendering="crispEdges" fill="rgb(255, 255, 255)"  x="10" y="10" width="1" height="1" /><rect shape-rendering="crispEdges" fill="rgb(238, 238, 246)"  x="10" y="11" width="1" height="1" /><rect shape-rendering="crispEdges" fill="rgb(197, 205, 213)"  x="10" y="12" width="1" height="1" /><rect shape-rendering="crispEdges" fill="rgb(82, 41, 16)"  x="10" y="13" width="1" height="1" /><rect shape-rendering="crispEdges" fill="rgb(106, 49, 16)"  x="10" y="14" width="1" height="1" /><rect shape-rendering="crispEdges" fill="rgb(115, 57, 16)"  x="10" y="15" width="1" height="1" /><rect shape-rendering="crispEdges" fill="rgb(123, 65, 24)"  x="10" y="16" width="1" height="1" /><rect shape-rendering="crispEdges" fill="rgb(123, 57, 16)"  x="10" y="17" width="1" height="1" /><rect shape-rendering="crispEdges" fill="rgb(115, 57, 16)"  x="10" y="18" width="1" height="1" /><rect shape-rendering="crispEdges" fill="rgb(115, 57, 16)"  x="10" y="19" width="1" height="1" /><rect shape-rendering="crispEdges" fill="rgb(115, 57, 16)"  x="10" y="20" width="1" height="1" /><rect shape-rendering="crispEdges" fill="rgb(222, 213, 205)"  x="10" y="21" width="1" height="1" /><rect shape-rendering="crispEdges" fill="rgb(222, 213, 205)"  x="10" y="22" width="1" height="1" /><rect shape-rendering="crispEdges" fill="rgb(255, 255, 255)"  x="10" y="23" width="1" height="1" /><rect shape-rendering="crispEdges" fill="rgb(255, 255, 255)"  x="10" y="24" width="1" height="1" /><rect shape-rendering="crispEdges" fill="rgb(255, 255, 255)"  x="10" y="25" width="1" height="1" /><rect shape-rendering="crispEdges" fill="rgb(255, 255, 255)"  x="10" y="26" width="1" height="1" /><rect shape-rendering="crispEdges" fill="rgb(255, 255, 255)"  x="10" y="27" width="1" height="1" /><rect shape-rendering="crispEdges" fill="rgb(180, 180, 189)"  x="10" y="28" width="1" height="1" /><rect shape-rendering="crispEdges" fill="rgb(90, 98, 98)"  x="10" y="29" width="1" height="1" /><rect shape-rendering="crispEdges" fill="rgb(148, 90, 32)"  x="11" y="2" width="1" height="1" /><rect shape-rendering="crispEdges" fill="rgb(255, 189, 65)"  x="11" y="3" width="1" height="1" /><rect shape-rendering="crispEdges" fill="rgb(255, 189, 123)"  x="11" y="4" width="1" height="1" /><rect shape-rendering="crispEdges" fill="rgb(255, 238, 222)"  x="11" y="5" width="1" height="1" /><rect shape-rendering="crispEdges" fill="rgb(255, 238, 222)"  x="11" y="6" width="1" height="1" /><rect shape-rendering="crispEdges" fill="rgb(255, 255, 255)"  x="11" y="7" width="1" height="1" /><rect shape-rendering="crispEdges" fill="rgb(255, 255, 255)"  x="11" y="8" width="1" height="1" /><rect shape-rendering="crispEdges" fill="rgb(238, 238, 238)"  x="11" y="9" width="1" height="1" /><rect shape-rendering="crispEdges" fill="rgb(255, 255, 255)"  x="11" y="10" width="1" height="1" /><rect shape-rendering="crispEdges" fill="rgb(238, 238, 246)"  x="11" y="11" width="1" height="1" /><rect shape-rendering="crispEdges" fill="rgb(197, 205, 213)"  x="11" y="12" width="1" height="1" /><rect shape-rendering="crispEdges" fill="rgb(106, 82, 65)"  x="11" y="13" width="1" height="1" /><rect shape-rendering="crispEdges" fill="rgb(213, 213, 222)"  x="11" y="14" width="1" height="1" /><rect shape-rendering="crispEdges" fill="rgb(213, 213, 222)"  x="11" y="15" width="1" height="1" /><rect shape-rendering="crispEdges" fill="rgb(213, 213, 222)"  x="11" y="16" width="1" height="1" /><rect shape-rendering="crispEdges" fill="rgb(164, 164, 164)"  x="11" y="17" width="1" height="1" /><rect shape-rendering="crispEdges" fill="rgb(131, 82, 49)"  x="11" y="18" width="1" height="1" /><rect shape-rendering="crispEdges" fill="rgb(115, 57, 16)"  x="11" y="19" width="1" height="1" /><rect shape-rendering="crispEdges" fill="rgb(222, 213, 205)"  x="11" y="20" width="1" height="1" /><rect shape-rendering="crispEdges" fill="rgb(222, 213, 205)"  x="11" y="21" width="1" height="1" /><rect shape-rendering="crispEdges" fill="rgb(255, 255, 255)"  x="11" y="22" width="1" height="1" /><rect shape-rendering="crispEdges" fill="rgb(246, 246, 246)"  x="11" y="23" width="1" height="1" /><rect shape-rendering="crispEdges" fill="rgb(238, 238, 246)"  x="11" y="24" width="1" height="1" /><rect shape-rendering="crispEdges" fill="rgb(238, 246, 246)"  x="11" y="25" width="1" height="1" /><rect shape-rendering="crispEdges" fill="rgb(238, 246, 246)"  x="11" y="26" width="1" height="1" /><rect shape-rendering="crispEdges" fill="rgb(246, 255, 255)"  x="11" y="27" width="1" height="1" /><rect shape-rendering="crispEdges" fill="rgb(172, 172, 180)"  x="11" y="28" width="1" height="1" /><rect shape-rendering="crispEdges" fill="rgb(98, 98, 106)"  x="11" y="29" width="1" height="1" /><rect shape-rendering="crispEdges" fill="rgb(180, 123, 49)"  x="12" y="2" width="1" height="1" /><rect shape-rendering="crispEdges" fill="rgb(255, 205, 74)"  x="12" y="3" width="1" height="1" /><rect shape-rendering="crispEdges" fill="rgb(255, 180, 82)"  x="12" y="4" width="1" height="1" /><rect shape-rendering="crispEdges" fill="rgb(246, 156, 74)"  x="12" y="5" width="1" height="1" /><rect shape-rendering="crispEdges" fill="rgb(213, 123, 49)"  x="12" y="6" width="1" height="1" /><rect shape-rendering="crispEdges" fill="rgb(213, 123, 49)"  x="12" y="7" width="1" height="1" /><rect shape-rendering="crispEdges" fill="rgb(255, 255, 255)"  x="12" y="8" width="1" height="1" /><rect shape-rendering="crispEdges" fill="rgb(255, 255, 255)"  x="12" y="9" width="1" height="1" /><rect shape-rendering="crispEdges" fill="rgb(255, 255, 255)"  x="12" y="10" width="1" height="1" /><rect shape-rendering="crispEdges" fill="rgb(238, 238, 246)"  x="12" y="11" width="1" height="1" /><rect shape-rendering="crispEdges" fill="rgb(197, 197, 205)"  x="12" y="12" width="1" height="1" /><rect shape-rendering="crispEdges" fill="rgb(106, 82, 65)"  x="12" y="13" width="1" height="1" /><rect shape-rendering="crispEdges" fill="rgb(255, 255, 255)"  x="12" y="14" width="1" height="1" /><rect shape-rendering="crispEdges" fill="rgb(246, 255, 255)"  x="12" y="15" width="1" height="1" /><rect shape-rendering="crispEdges" fill="rgb(230, 238, 238)"  x="12" y="16" width="1" height="1" /><rect shape-rendering="crispEdges" fill="rgb(197, 205, 213)"  x="12" y="17" width="1" height="1" /><rect shape-rendering="crispEdges" fill="rgb(164, 164, 164)"  x="12" y="18" width="1" height="1" /><rect shape-rendering="crispEdges" fill="rgb(205, 205, 205)"  x="12" y="19" width="1" height="1" /><rect shape-rendering="crispEdges" fill="rgb(222, 230, 230)"  x="12" y="20" width="1" height="1" /><rect shape-rendering="crispEdges" fill="rgb(213, 213, 222)"  x="12" y="21" width="1" height="1" /><rect shape-rendering="crispEdges" fill="rgb(197, 197, 205)"  x="12" y="22" width="1" height="1" /><rect shape-rendering="crispEdges" fill="rgb(197, 197, 197)"  x="12" y="23" width="1" height="1" /><rect shape-rendering="crispEdges" fill="rgb(189, 189, 197)"  x="12" y="24" width="1" height="1" /><rect shape-rendering="crispEdges" fill="rgb(172, 172, 180)"  x="12" y="25" width="1" height="1" /><rect shape-rendering="crispEdges" fill="rgb(164, 164, 172)"  x="12" y="26" width="1" height="1" /><rect shape-rendering="crispEdges" fill="rgb(164, 164, 164)"  x="12" y="27" width="1" height="1" /><rect shape-rendering="crispEdges" fill="rgb(115, 123, 123)"  x="12" y="28" width="1" height="1" /><rect shape-rendering="crispEdges" fill="rgb(90, 90, 98)"  x="12" y="29" width="1" height="1" /><rect shape-rendering="crispEdges" fill="rgb(189, 131, 49)"  x="13" y="2" width="1" height="1" /><rect shape-rendering="crispEdges" fill="rgb(255, 238, 82)"  x="13" y="3" width="1" height="1" /><rect shape-rendering="crispEdges" fill="rgb(255, 213, 82)"  x="13" y="4" width="1" height="1" /><rect shape-rendering="crispEdges" fill="rgb(205, 106, 41)"  x="13" y="5" width="1" height="1" /><rect shape-rendering="crispEdges" fill="rgb(32, 32, 32)"  x="13" y="6" width="1" height="1" /><rect shape-rendering="crispEdges" fill="rgb(32, 32, 32)"  x="13" y="7" width="1" height="1" /><rect shape-rendering="crispEdges" fill="rgb(255, 139, 49)"  x="13" y="8" width="1" height="1" /><rect shape-rendering="crispEdges" fill="rgb(255, 246, 238)"  x="13" y="9" width="1" height="1" /><rect shape-rendering="crispEdges" fill="rgb(255, 255, 255)"  x="13" y="10" width="1" height="1" /><rect shape-rendering="crispEdges" fill="rgb(255, 255, 255)"  x="13" y="11" width="1" height="1" /><rect shape-rendering="crispEdges" fill="rgb(230, 230, 238)"  x="13" y="12" width="1" height="1" /><rect shape-rendering="crispEdges" fill="rgb(106, 82, 65)"  x="13" y="13" width="1" height="1" /><rect shape-rendering="crispEdges" fill="rgb(255, 255, 255)"  x="13" y="14" width="1" height="1" /><rect shape-rendering="crispEdges" fill="rgb(255, 255, 255)"  x="13" y="15" width="1" height="1" /><rect shape-rendering="crispEdges" fill="rgb(255, 255, 255)"  x="13" y="16" width="1" height="1" /><rect shape-rendering="crispEdges" fill="rgb(246, 246, 246)"  x="13" y="17" width="1" height="1" /><rect shape-rendering="crispEdges" fill="rgb(213, 213, 222)"  x="13" y="18" width="1" height="1" /><rect shape-rendering="crispEdges" fill="rgb(180, 180, 189)"  x="13" y="19" width="1" height="1" /><rect shape-rendering="crispEdges" fill="rgb(148, 148, 156)"  x="13" y="20" width="1" height="1" /><rect shape-rendering="crispEdges" fill="rgb(131, 131, 139)"  x="13" y="21" width="1" height="1" /><rect shape-rendering="crispEdges" fill="rgb(90, 90, 90)"  x="13" y="22" width="1" height="1" /><rect shape-rendering="crispEdges" fill="rgb(90, 90, 90)"  x="13" y="23" width="1" height="1" /><rect shape-rendering="crispEdges" fill="rgb(90, 90, 90)"  x="13" y="24" width="1" height="1" /><rect shape-rendering="crispEdges" fill="rgb(90, 90, 90)"  x="13" y="25" width="1" height="1" /><rect shape-rendering="crispEdges" fill="rgb(90, 90, 98)"  x="13" y="26" width="1" height="1" /><rect shape-rendering="crispEdges" fill="rgb(90, 90, 90)"  x="13" y="27" width="1" height="1" /><rect shape-rendering="crispEdges" fill="rgb(82, 82, 90)"  x="13" y="28" width="1" height="1" /><rect shape-rendering="crispEdges" fill="rgb(90, 90, 90)"  x="13" y="29" width="1" height="1" /><rect shape-rendering="crispEdges" fill="rgb(156, 106, 41)"  x="14" y="2" width="1" height="1" /><rect shape-rendering="crispEdges" fill="rgb(255, 230, 90)"  x="14" y="3" width="1" height="1" /><rect shape-rendering="crispEdges" fill="rgb(255, 238, 98)"  x="14" y="4" width="1" height="1" /><rect shape-rendering="crispEdges" fill="rgb(205, 106, 41)"  x="14" y="5" width="1" height="1" /><rect shape-rendering="crispEdges" fill="rgb(255, 255, 255)"  x="14" y="6" width="1" height="1" /><rect shape-rendering="crispEdges" fill="rgb(255, 255, 255)"  x="14" y="7" width="1" height="1" /><rect shape-rendering="crispEdges" fill="rgb(255, 139, 49)"  x="14" y="8" width="1" height="1" /><rect shape-rendering="crispEdges" fill="rgb(255, 139, 49)"  x="14" y="9" width="1" height="1" /><rect shape-rendering="crispEdges" fill="rgb(230, 189, 156)"  x="14" y="10" width="1" height="1" /><rect shape-rendering="crispEdges" fill="rgb(205, 180, 172)"  x="14" y="11" width="1" height="1" /><rect shape-rendering="crispEdges" fill="rgb(172, 156, 148)"  x="14" y="12" width="1" height="1" /><rect shape-rendering="crispEdges" fill="rgb(164, 164, 164)"  x="14" y="13" width="1" height="1" /><rect shape-rendering="crispEdges" fill="rgb(255, 255, 255)"  x="14" y="14" width="1" height="1" /><rect shape-rendering="crispEdges" fill="rgb(255, 255, 255)"  x="14" y="15" width="1" height="1" /><rect shape-rendering="crispEdges" fill="rgb(255, 255, 255)"  x="14" y="16" width="1" height="1" /><rect shape-rendering="crispEdges" fill="rgb(255, 255, 255)"  x="14" y="17" width="1" height="1" /><rect shape-rendering="crispEdges" fill="rgb(255, 255, 255)"  x="14" y="18" width="1" height="1" /><rect shape-rendering="crispEdges" fill="rgb(172, 180, 180)"  x="14" y="19" width="1" height="1" /><rect shape-rendering="crispEdges" fill="rgb(90, 90, 90)"  x="14" y="20" width="1" height="1" /><rect shape-rendering="crispEdges" fill="rgb(106, 106, 115)"  x="14" y="21" width="1" height="1" /><rect shape-rendering="crispEdges" fill="rgb(106, 106, 106)"  x="14" y="22" width="1" height="1" /><rect shape-rendering="crispEdges" fill="rgb(98, 106, 106)"  x="14" y="23" width="1" height="1" /><rect shape-rendering="crispEdges" fill="rgb(106, 115, 115)"  x="14" y="24" width="1" height="1" /><rect shape-rendering="crispEdges" fill="rgb(123, 123, 131)"  x="14" y="25" width="1" height="1" /><rect shape-rendering="crispEdges" fill="rgb(123, 131, 139)"  x="14" y="26" width="1" height="1" /><rect shape-rendering="crispEdges" fill="rgb(123, 74, 32)"  x="15" y="2" width="1" height="1" /><rect shape-rendering="crispEdges" fill="rgb(230, 164, 65)"  x="15" y="3" width="1" height="1" /><rect shape-rendering="crispEdges" fill="rgb(255, 222, 90)"  x="15" y="4" width="1" height="1" /><rect shape-rendering="crispEdges" fill="rgb(205, 106, 41)"  x="15" y="5" width="1" height="1" /><rect shape-rendering="crispEdges" fill="rgb(205, 106, 41)"  x="15" y="6" width="1" height="1" /><rect shape-rendering="crispEdges" fill="rgb(205, 106, 41)"  x="15" y="7" width="1" height="1" /><rect shape-rendering="crispEdges" fill="rgb(238, 131, 57)"  x="15" y="8" width="1" height="1" /><rect shape-rendering="crispEdges" fill="rgb(213, 123, 49)"  x="15" y="9" width="1" height="1" /><rect shape-rendering="crispEdges" fill="rgb(139, 74, 16)"  x="15" y="10" width="1" height="1" /><rect shape-rendering="crispEdges" fill="rgb(115, 57, 16)"  x="15" y="11" width="1" height="1" /><rect shape-rendering="crispEdges" fill="rgb(139, 74, 24)"  x="15" y="12" width="1" height="1" /><rect shape-rendering="crispEdges" fill="rgb(164, 164, 164)"  x="15" y="13" width="1" height="1" /><rect shape-rendering="crispEdges" fill="rgb(164, 164, 164)"  x="15" y="14" width="1" height="1" /><rect shape-rendering="crispEdges" fill="rgb(164, 164, 164)"  x="15" y="15" width="1" height="1" /><rect shape-rendering="crispEdges" fill="rgb(213, 213, 222)"  x="15" y="16" width="1" height="1" /><rect shape-rendering="crispEdges" fill="rgb(213, 213, 222)"  x="15" y="17" width="1" height="1" /><rect shape-rendering="crispEdges" fill="rgb(246, 246, 246)"  x="15" y="18" width="1" height="1" /><rect shape-rendering="crispEdges" fill="rgb(197, 205, 213)"  x="15" y="19" width="1" height="1" /><rect shape-rendering="crispEdges" fill="rgb(90, 90, 90)"  x="15" y="20" width="1" height="1" /><rect shape-rendering="crispEdges" fill="rgb(115, 123, 131)"  x="15" y="21" width="1" height="1" /><rect shape-rendering="crispEdges" fill="rgb(115, 123, 131)"  x="15" y="22" width="1" height="1" /><rect shape-rendering="crispEdges" fill="rgb(123, 131, 139)"  x="15" y="23" width="1" height="1" /><rect shape-rendering="crispEdges" fill="rgb(123, 131, 139)"  x="15" y="24" width="1" height="1" /><rect shape-rendering="crispEdges" fill="rgb(123, 131, 139)"  x="15" y="25" width="1" height="1" /><rect shape-rendering="crispEdges" fill="rgb(90, 90, 90)"  x="15" y="26" width="1" height="1" /><rect shape-rendering="crispEdges" fill="rgb(90, 90, 90)"  x="15" y="27" width="1" height="1" /><rect shape-rendering="crispEdges" fill="rgb(90, 90, 98)"  x="15" y="28" width="1" height="1" /><rect shape-rendering="crispEdges" fill="rgb(90, 90, 90)"  x="15" y="29" width="1" height="1" /><rect shape-rendering="crispEdges" fill="rgb(115, 65, 32)"  x="16" y="2" width="1" height="1" /><rect shape-rendering="crispEdges" fill="rgb(156, 90, 32)"  x="16" y="3" width="1" height="1" /><rect shape-rendering="crispEdges" fill="rgb(255, 205, 82)"  x="16" y="4" width="1" height="1" /><rect shape-rendering="crispEdges" fill="rgb(255, 213, 82)"  x="16" y="5" width="1" height="1" /><rect shape-rendering="crispEdges" fill="rgb(255, 164, 65)"  x="16" y="6" width="1" height="1" /><rect shape-rendering="crispEdges" fill="rgb(238, 139, 49)"  x="16" y="7" width="1" height="1" /><rect shape-rendering="crispEdges" fill="rgb(205, 106, 41)"  x="16" y="8" width="1" height="1" /><rect shape-rendering="crispEdges" fill="rgb(164, 82, 32)"  x="16" y="9" width="1" height="1" /><rect shape-rendering="crispEdges" fill="rgb(139, 74, 24)"  x="16" y="10" width="1" height="1" /><rect shape-rendering="crispEdges" fill="rgb(139, 74, 24)"  x="16" y="11" width="1" height="1" /><rect shape-rendering="crispEdges" fill="rgb(131, 65, 24)"  x="16" y="12" width="1" height="1" /><rect shape-rendering="crispEdges" fill="rgb(106, 49, 8)"  x="16" y="13" width="1" height="1" /><rect shape-rendering="crispEdges" fill="rgb(106, 49, 8)"  x="16" y="14" width="1" height="1" /><rect shape-rendering="crispEdges" fill="rgb(139, 65, 16)"  x="16" y="15" width="1" height="1" /><rect shape-rendering="crispEdges" fill="rgb(180, 98, 41)"  x="16" y="16" width="1" height="1" /><rect shape-rendering="crispEdges" fill="rgb(197, 98, 32)"  x="16" y="17" width="1" height="1" /><rect shape-rendering="crispEdges" fill="rgb(197, 98, 32)"  x="16" y="18" width="1" height="1" /><rect shape-rendering="crispEdges" fill="rgb(213, 197, 180)"  x="16" y="19" width="1" height="1" /><rect shape-rendering="crispEdges" fill="rgb(180, 180, 189)"  x="16" y="20" width="1" height="1" /><rect shape-rendering="crispEdges" fill="rgb(156, 164, 164)"  x="16" y="21" width="1" height="1" /><rect shape-rendering="crispEdges" fill="rgb(139, 139, 139)"  x="16" y="22" width="1" height="1" /><rect shape-rendering="crispEdges" fill="rgb(106, 106, 115)"  x="16" y="23" width="1" height="1" /><rect shape-rendering="crispEdges" fill="rgb(90, 90, 90)"  x="16" y="24" width="1" height="1" /><rect shape-rendering="crispEdges" fill="rgb(90, 90, 90)"  x="16" y="25" width="1" height="1" /><rect shape-rendering="crispEdges" fill="rgb(90, 90, 90)"  x="16" y="26" width="1" height="1" /><rect shape-rendering="crispEdges" fill="rgb(213, 213, 222)"  x="16" y="27" width="1" height="1" /><rect shape-rendering="crispEdges" fill="rgb(156, 164, 172)"  x="16" y="28" width="1" height="1" /><rect shape-rendering="crispEdges" fill="rgb(90, 90, 98)"  x="16" y="29" width="1" height="1" /><rect shape-rendering="crispEdges" fill="rgb(115, 65, 32)"  x="17" y="3" width="1" height="1" /><rect shape-rendering="crispEdges" fill="rgb(197, 148, 57)"  x="17" y="4" width="1" height="1" /><rect shape-rendering="crispEdges" fill="rgb(255, 213, 82)"  x="17" y="5" width="1" height="1" /><rect shape-rendering="crispEdges" fill="rgb(255, 189, 65)"  x="17" y="6" width="1" height="1" /><rect shape-rendering="crispEdges" fill="rgb(255, 172, 57)"  x="17" y="7" width="1" height="1" /><rect shape-rendering="crispEdges" fill="rgb(255, 156, 57)"  x="17" y="8" width="1" height="1" /><rect shape-rendering="crispEdges" fill="rgb(246, 139, 49)"  x="17" y="9" width="1" height="1" /><rect shape-rendering="crispEdges" fill="rgb(230, 123, 41)"  x="17" y="10" width="1" height="1" /><rect shape-rendering="crispEdges" fill="rgb(197, 106, 32)"  x="17" y="11" width="1" height="1" /><rect shape-rendering="crispEdges" fill="rgb(156, 82, 24)"  x="17" y="12" width="1" height="1" /><rect shape-rendering="crispEdges" fill="rgb(115, 57, 16)"  x="17" y="13" width="1" height="1" /><rect shape-rendering="crispEdges" fill="rgb(82, 41, 16)"  x="17" y="14" width="1" height="1" /><rect shape-rendering="crispEdges" fill="rgb(98, 49, 16)"  x="17" y="15" width="1" height="1" /><rect shape-rendering="crispEdges" fill="rgb(205, 106, 41)"  x="17" y="16" width="1" height="1" /><rect shape-rendering="crispEdges" fill="rgb(213, 115, 41)"  x="17" y="17" width="1" height="1" /><rect shape-rendering="crispEdges" fill="rgb(197, 98, 32)"  x="17" y="18" width="1" height="1" /><rect shape-rendering="crispEdges" fill="rgb(197, 98, 32)"  x="17" y="19" width="1" height="1" /><rect shape-rendering="crispEdges" fill="rgb(255, 238, 222)"  x="17" y="20" width="1" height="1" /><rect shape-rendering="crispEdges" fill="rgb(255, 255, 255)"  x="17" y="21" width="1" height="1" /><rect shape-rendering="crispEdges" fill="rgb(238, 238, 246)"  x="17" y="22" width="1" height="1" /><rect shape-rendering="crispEdges" fill="rgb(213, 213, 222)"  x="17" y="23" width="1" height="1" /><rect shape-rendering="crispEdges" fill="rgb(213, 213, 213)"  x="17" y="24" width="1" height="1" /><rect shape-rendering="crispEdges" fill="rgb(213, 213, 222)"  x="17" y="25" width="1" height="1" /><rect shape-rendering="crispEdges" fill="rgb(246, 246, 255)"  x="17" y="26" width="1" height="1" /><rect shape-rendering="crispEdges" fill="rgb(255, 255, 255)"  x="17" y="27" width="1" height="1" /><rect shape-rendering="crispEdges" fill="rgb(222, 222, 230)"  x="17" y="28" width="1" height="1" /><rect shape-rendering="crispEdges" fill="rgb(115, 115, 123)"  x="17" y="29" width="1" height="1" /><rect shape-rendering="crispEdges" fill="rgb(123, 74, 32)"  x="18" y="3" width="1" height="1" /><rect shape-rendering="crispEdges" fill="rgb(123, 74, 32)"  x="18" y="4" width="1" height="1" /><rect shape-rendering="crispEdges" fill="rgb(164, 98, 41)"  x="18" y="5" width="1" height="1" /><rect shape-rendering="crispEdges" fill="rgb(205, 115, 49)"  x="18" y="6" width="1" height="1" /><rect shape-rendering="crispEdges" fill="rgb(222, 123, 49)"  x="18" y="7" width="1" height="1" /><rect shape-rendering="crispEdges" fill="rgb(230, 131, 49)"  x="18" y="8" width="1" height="1" /><rect shape-rendering="crispEdges" fill="rgb(238, 131, 49)"  x="18" y="9" width="1" height="1" /><rect shape-rendering="crispEdges" fill="rgb(213, 115, 41)"  x="18" y="10" width="1" height="1" /><rect shape-rendering="crispEdges" fill="rgb(164, 82, 32)"  x="18" y="11" width="1" height="1" /><rect shape-rendering="crispEdges" fill="rgb(106, 57, 16)"  x="18" y="12" width="1" height="1" /><rect shape-rendering="crispEdges" fill="rgb(90, 49, 16)"  x="18" y="13" width="1" height="1" /><rect shape-rendering="crispEdges" fill="rgb(90, 49, 16)"  x="18" y="14" width="1" height="1" /><rect shape-rendering="crispEdges" fill="rgb(255, 156, 49)"  x="18" y="15" width="1" height="1" /><rect shape-rendering="crispEdges" fill="rgb(255, 148, 49)"  x="18" y="16" width="1" height="1" /><rect shape-rendering="crispEdges" fill="rgb(230, 123, 49)"  x="18" y="17" width="1" height="1" /><rect shape-rendering="crispEdges" fill="rgb(213, 115, 49)"  x="18" y="18" width="1" height="1" /><rect shape-rendering="crispEdges" fill="rgb(213, 115, 49)"  x="18" y="19" width="1" height="1" /><rect shape-rendering="crispEdges" fill="rgb(197, 98, 32)"  x="18" y="20" width="1" height="1" /><rect shape-rendering="crispEdges" fill="rgb(246, 222, 213)"  x="18" y="21" width="1" height="1" /><rect shape-rendering="crispEdges" fill="rgb(255, 255, 255)"  x="18" y="22" width="1" height="1" /><rect shape-rendering="crispEdges" fill="rgb(255, 255, 255)"  x="18" y="23" width="1" height="1" /><rect shape-rendering="crispEdges" fill="rgb(255, 255, 255)"  x="18" y="24" width="1" height="1" /><rect shape-rendering="crispEdges" fill="rgb(255, 255, 255)"  x="18" y="25" width="1" height="1" /><rect shape-rendering="crispEdges" fill="rgb(255, 255, 255)"  x="18" y="26" width="1" height="1" /><rect shape-rendering="crispEdges" fill="rgb(255, 255, 255)"  x="18" y="27" width="1" height="1" /><rect shape-rendering="crispEdges" fill="rgb(230, 230, 230)"  x="18" y="28" width="1" height="1" /><rect shape-rendering="crispEdges" fill="rgb(115, 123, 123)"  x="18" y="29" width="1" height="1" /><rect shape-rendering="crispEdges" fill="rgb(115, 65, 32)"  x="19" y="5" width="1" height="1" /><rect shape-rendering="crispEdges" fill="rgb(139, 82, 32)"  x="19" y="6" width="1" height="1" /><rect shape-rendering="crispEdges" fill="rgb(172, 98, 41)"  x="19" y="7" width="1" height="1" /><rect shape-rendering="crispEdges" fill="rgb(180, 98, 41)"  x="19" y="8" width="1" height="1" /><rect shape-rendering="crispEdges" fill="rgb(164, 90, 32)"  x="19" y="9" width="1" height="1" /><rect shape-rendering="crispEdges" fill="rgb(123, 65, 24)"  x="19" y="10" width="1" height="1" /><rect shape-rendering="crispEdges" fill="rgb(98, 49, 16)"  x="19" y="11" width="1" height="1" /><rect shape-rendering="crispEdges" fill="rgb(90, 49, 16)"  x="19" y="12" width="1" height="1" /><rect shape-rendering="crispEdges" fill="rgb(255, 156, 49)"  x="19" y="13" width="1" height="1" /><rect shape-rendering="crispEdges" fill="rgb(255, 156, 49)"  x="19" y="14" width="1" height="1" /><rect shape-rendering="crispEdges" fill="rgb(255, 156, 49)"  x="19" y="15" width="1" height="1" /><rect shape-rendering="crispEdges" fill="rgb(255, 139, 49)"  x="19" y="16" width="1" height="1" /><rect shape-rendering="crispEdges" fill="rgb(222, 115, 41)"  x="19" y="17" width="1" height="1" /><rect shape-rendering="crispEdges" fill="rgb(197, 106, 32)"  x="19" y="18" width="1" height="1" /><rect shape-rendering="crispEdges" fill="rgb(197, 106, 41)"  x="19" y="19" width="1" height="1" /><rect shape-rendering="crispEdges" fill="rgb(197, 98, 32)"  x="19" y="20" width="1" height="1" /><rect shape-rendering="crispEdges" fill="rgb(246, 230, 205)"  x="19" y="21" width="1" height="1" /><rect shape-rendering="crispEdges" fill="rgb(255, 255, 255)"  x="19" y="22" width="1" height="1" /><rect shape-rendering="crispEdges" fill="rgb(255, 255, 255)"  x="19" y="23" width="1" height="1" /><rect shape-rendering="crispEdges" fill="rgb(246, 246, 246)"  x="19" y="24" width="1" height="1" /><rect shape-rendering="crispEdges" fill="rgb(246, 246, 246)"  x="19" y="25" width="1" height="1" /><rect shape-rendering="crispEdges" fill="rgb(230, 238, 238)"  x="19" y="26" width="1" height="1" /><rect shape-rendering="crispEdges" fill="rgb(222, 222, 230)"  x="19" y="27" width="1" height="1" /><rect shape-rendering="crispEdges" fill="rgb(172, 172, 180)"  x="19" y="28" width="1" height="1" /><rect shape-rendering="crispEdges" fill="rgb(98, 98, 106)"  x="19" y="29" width="1" height="1" /><rect shape-rendering="crispEdges" fill="rgb(123, 74, 32)"  x="20" y="6" width="1" height="1" /><rect shape-rendering="crispEdges" fill="rgb(115, 65, 24)"  x="20" y="7" width="1" height="1" /><rect shape-rendering="crispEdges" fill="rgb(164, 90, 32)"  x="20" y="8" width="1" height="1" /><rect shape-rendering="crispEdges" fill="rgb(180, 98, 32)"  x="20" y="9" width="1" height="1" /><rect shape-rendering="crispEdges" fill="rgb(164, 90, 32)"  x="20" y="10" width="1" height="1" /><rect shape-rendering="crispEdges" fill="rgb(213, 115, 41)"  x="20" y="11" width="1" height="1" /><rect shape-rendering="crispEdges" fill="rgb(255, 156, 49)"  x="20" y="12" width="1" height="1" /><rect shape-rendering="crispEdges" fill="rgb(255, 156, 49)"  x="20" y="13" width="1" height="1" /><rect shape-rendering="crispEdges" fill="rgb(205, 106, 41)"  x="20" y="14" width="1" height="1" /><rect shape-rendering="crispEdges" fill="rgb(205, 106, 41)"  x="20" y="15" width="1" height="1" /><rect shape-rendering="crispEdges" fill="rgb(148, 82, 32)"  x="20" y="16" width="1" height="1" /><rect shape-rendering="crispEdges" fill="rgb(148, 82, 32)"  x="20" y="17" width="1" height="1" /><rect shape-rendering="crispEdges" fill="rgb(148, 82, 32)"  x="20" y="18" width="1" height="1" /><rect shape-rendering="crispEdges" fill="rgb(148, 82, 32)"  x="20" y="19" width="1" height="1" /><rect shape-rendering="crispEdges" fill="rgb(164, 164, 164)"  x="20" y="20" width="1" height="1" /><rect shape-rendering="crispEdges" fill="rgb(172, 172, 172)"  x="20" y="21" width="1" height="1" /><rect shape-rendering="crispEdges" fill="rgb(164, 164, 164)"  x="20" y="22" width="1" height="1" /><rect shape-rendering="crispEdges" fill="rgb(148, 148, 148)"  x="20" y="23" width="1" height="1" /><rect shape-rendering="crispEdges" fill="rgb(106, 106, 106)"  x="20" y="24" width="1" height="1" /><rect shape-rendering="crispEdges" fill="rgb(98, 98, 98)"  x="20" y="25" width="1" height="1" /><rect shape-rendering="crispEdges" fill="rgb(90, 90, 90)"  x="20" y="26" width="1" height="1" /><rect shape-rendering="crispEdges" fill="rgb(90, 90, 90)"  x="20" y="27" width="1" height="1" /><rect shape-rendering="crispEdges" fill="rgb(82, 82, 82)"  x="20" y="28" width="1" height="1" /><rect shape-rendering="crispEdges" fill="rgb(90, 90, 90)"  x="20" y="29" width="1" height="1" /><rect shape-rendering="crispEdges" fill="rgb(180, 98, 32)"  x="21" y="8" width="1" height="1" /><rect shape-rendering="crispEdges" fill="rgb(255, 148, 49)"  x="21" y="9" width="1" height="1" /><rect shape-rendering="crispEdges" fill="rgb(255, 156, 49)"  x="21" y="10" width="1" height="1" /><rect shape-rendering="crispEdges" fill="rgb(255, 139, 49)"  x="21" y="11" width="1" height="1" /><rect shape-rendering="crispEdges" fill="rgb(213, 115, 41)"  x="21" y="12" width="1" height="1" /><rect shape-rendering="crispEdges" fill="rgb(164, 82, 32)"  x="21" y="13" width="1" height="1" /><rect shape-rendering="crispEdges" fill="rgb(148, 82, 32)"  x="21" y="14" width="1" height="1" /><rect shape-rendering="crispEdges" fill="rgb(148, 74, 16)"  x="21" y="15" width="1" height="1" /><rect shape-rendering="crispEdges" fill="rgb(148, 74, 16)"  x="21" y="16" width="1" height="1" /><rect shape-rendering="crispEdges" fill="rgb(230, 238, 238)"  x="21" y="17" width="1" height="1" /><rect shape-rendering="crispEdges" fill="rgb(148, 156, 164)"  x="21" y="18" width="1" height="1" /><rect shape-rendering="crispEdges" fill="rgb(82, 90, 98)"  x="21" y="19" width="1" height="1" /><rect shape-rendering="crispEdges" fill="rgb(74, 74, 82)"  x="21" y="20" width="1" height="1" /><rect shape-rendering="crispEdges" fill="rgb(74, 74, 82)"  x="21" y="21" width="1" height="1" /><rect shape-rendering="crispEdges" fill="rgb(123, 74, 32)"  x="22" y="7" width="1" height="1" /><rect shape-rendering="crispEdges" fill="rgb(123, 74, 32)"  x="22" y="8" width="1" height="1" /><rect shape-rendering="crispEdges" fill="rgb(230, 123, 41)"  x="22" y="9" width="1" height="1" /><rect shape-rendering="crispEdges" fill="rgb(255, 139, 49)"  x="22" y="10" width="1" height="1" /><rect shape-rendering="crispEdges" fill="rgb(255, 139, 49)"  x="22" y="11" width="1" height="1" /><rect shape-rendering="crispEdges" fill="rgb(238, 131, 41)"  x="22" y="12" width="1" height="1" /><rect shape-rendering="crispEdges" fill="rgb(213, 115, 41)"  x="22" y="13" width="1" height="1" /><rect shape-rendering="crispEdges" fill="rgb(205, 106, 32)"  x="22" y="14" width="1" height="1" /><rect shape-rendering="crispEdges" fill="rgb(148, 74, 16)"  x="22" y="15" width="1" height="1" /><rect shape-rendering="crispEdges" fill="rgb(222, 222, 222)"  x="22" y="16" width="1" height="1" /><rect shape-rendering="crispEdges" fill="rgb(238, 238, 246)"  x="22" y="17" width="1" height="1" /><rect shape-rendering="crispEdges" fill="rgb(222, 222, 222)"  x="22" y="18" width="1" height="1" /><rect shape-rendering="crispEdges" fill="rgb(189, 189, 197)"  x="22" y="19" width="1" height="1" /><rect shape-rendering="crispEdges" fill="rgb(115, 115, 123)"  x="22" y="20" width="1" height="1" /><rect shape-rendering="crispEdges" fill="rgb(90, 90, 90)"  x="22" y="21" width="1" height="1" /><rect shape-rendering="crispEdges" fill="rgb(90, 90, 90)"  x="22" y="22" width="1" height="1" /><rect shape-rendering="crispEdges" fill="rgb(82, 82, 90)"  x="22" y="23" width="1" height="1" /><rect shape-rendering="crispEdges" fill="rgb(106, 106, 106)"  x="22" y="24" width="1" height="1" /><rect shape-rendering="crispEdges" fill="rgb(106, 106, 106)"  x="22" y="25" width="1" height="1" /><rect shape-rendering="crispEdges" fill="rgb(106, 106, 106)"  x="22" y="26" width="1" height="1" /><rect shape-rendering="crispEdges" fill="rgb(106, 106, 106)"  x="22" y="27" width="1" height="1" /><rect shape-rendering="crispEdges" fill="rgb(82, 82, 82)"  x="22" y="28" width="1" height="1" /><rect shape-rendering="crispEdges" fill="rgb(139, 82, 32)"  x="23" y="7" width="1" height="1" /><rect shape-rendering="crispEdges" fill="rgb(255, 189, 65)"  x="23" y="8" width="1" height="1" /><rect shape-rendering="crispEdges" fill="rgb(139, 82, 32)"  x="23" y="9" width="1" height="1" /><rect shape-rendering="crispEdges" fill="rgb(205, 115, 41)"  x="23" y="10" width="1" height="1" /><rect shape-rendering="crispEdges" fill="rgb(222, 123, 41)"  x="23" y="11" width="1" height="1" /><rect shape-rendering="crispEdges" fill="rgb(205, 115, 41)"  x="23" y="12" width="1" height="1" /><rect shape-rendering="crispEdges" fill="rgb(197, 106, 32)"  x="23" y="13" width="1" height="1" /><rect shape-rendering="crispEdges" fill="rgb(180, 90, 24)"  x="23" y="14" width="1" height="1" /><rect shape-rendering="crispEdges" fill="rgb(189, 123, 74)"  x="23" y="15" width="1" height="1" /><rect shape-rendering="crispEdges" fill="rgb(222, 222, 222)"  x="23" y="16" width="1" height="1" /><rect shape-rendering="crispEdges" fill="rgb(255, 255, 255)"  x="23" y="17" width="1" height="1" /><rect shape-rendering="crispEdges" fill="rgb(255, 255, 255)"  x="23" y="18" width="1" height="1" /><rect shape-rendering="crispEdges" fill="rgb(255, 255, 255)"  x="23" y="19" width="1" height="1" /><rect shape-rendering="crispEdges" fill="rgb(213, 213, 213)"  x="23" y="20" width="1" height="1" /><rect shape-rendering="crispEdges" fill="rgb(115, 115, 123)"  x="23" y="21" width="1" height="1" /><rect shape-rendering="crispEdges" fill="rgb(115, 115, 123)"  x="23" y="22" width="1" height="1" /><rect shape-rendering="crispEdges" fill="rgb(115, 115, 123)"  x="23" y="23" width="1" height="1" /><rect shape-rendering="crispEdges" fill="rgb(213, 213, 213)"  x="23" y="24" width="1" height="1" /><rect shape-rendering="crispEdges" fill="rgb(255, 255, 255)"  x="23" y="25" width="1" height="1" /><rect shape-rendering="crispEdges" fill="rgb(246, 246, 246)"  x="23" y="26" width="1" height="1" /><rect shape-rendering="crispEdges" fill="rgb(131, 131, 139)"  x="23" y="27" width="1" height="1" /><rect shape-rendering="crispEdges" fill="rgb(82, 82, 82)"  x="23" y="28" width="1" height="1" /><rect shape-rendering="crispEdges" fill="rgb(123, 74, 32)"  x="24" y="7" width="1" height="1" /><rect shape-rendering="crispEdges" fill="rgb(123, 74, 32)"  x="24" y="8" width="1" height="1" /><rect shape-rendering="crispEdges" fill="rgb(123, 74, 32)"  x="24" y="9" width="1" height="1" /><rect shape-rendering="crispEdges" fill="rgb(123, 74, 32)"  x="24" y="10" width="1" height="1" /><rect shape-rendering="crispEdges" fill="rgb(156, 90, 32)"  x="24" y="11" width="1" height="1" /><rect shape-rendering="crispEdges" fill="rgb(189, 106, 41)"  x="24" y="12" width="1" height="1" /><rect shape-rendering="crispEdges" fill="rgb(205, 106, 41)"  x="24" y="13" width="1" height="1" /><rect shape-rendering="crispEdges" fill="rgb(222, 115, 32)"  x="24" y="14" width="1" height="1" /><rect shape-rendering="crispEdges" fill="rgb(246, 180, 131)"  x="24" y="15" width="1" height="1" /><rect shape-rendering="crispEdges" fill="rgb(255, 255, 255)"  x="24" y="16" width="1" height="1" /><rect shape-rendering="crispEdges" fill="rgb(255, 255, 255)"  x="24" y="17" width="1" height="1" /><rect shape-rendering="crispEdges" fill="rgb(255, 255, 255)"  x="24" y="18" width="1" height="1" /><rect shape-rendering="crispEdges" fill="rgb(255, 255, 255)"  x="24" y="19" width="1" height="1" /><rect shape-rendering="crispEdges" fill="rgb(255, 255, 255)"  x="24" y="20" width="1" height="1" /><rect shape-rendering="crispEdges" fill="rgb(255, 255, 255)"  x="24" y="21" width="1" height="1" /><rect shape-rendering="crispEdges" fill="rgb(255, 255, 255)"  x="24" y="22" width="1" height="1" /><rect shape-rendering="crispEdges" fill="rgb(255, 255, 255)"  x="24" y="23" width="1" height="1" /><rect shape-rendering="crispEdges" fill="rgb(255, 255, 255)"  x="24" y="24" width="1" height="1" /><rect shape-rendering="crispEdges" fill="rgb(255, 255, 255)"  x="24" y="25" width="1" height="1" /><rect shape-rendering="crispEdges" fill="rgb(222, 222, 230)"  x="24" y="26" width="1" height="1" /><rect shape-rendering="crispEdges" fill="rgb(123, 123, 131)"  x="24" y="27" width="1" height="1" /><rect shape-rendering="crispEdges" fill="rgb(82, 82, 90)"  x="24" y="28" width="1" height="1" /><rect shape-rendering="crispEdges" fill="rgb(123, 74, 32)"  x="25" y="11" width="1" height="1" /><rect shape-rendering="crispEdges" fill="rgb(123, 74, 32)"  x="25" y="12" width="1" height="1" /><rect shape-rendering="crispEdges" fill="rgb(131, 74, 32)"  x="25" y="13" width="1" height="1" /><rect shape-rendering="crispEdges" fill="rgb(156, 90, 32)"  x="25" y="14" width="1" height="1" /><rect shape-rendering="crispEdges" fill="rgb(172, 98, 32)"  x="25" y="15" width="1" height="1" /><rect shape-rendering="crispEdges" fill="rgb(164, 156, 148)"  x="25" y="16" width="1" height="1" /><rect shape-rendering="crispEdges" fill="rgb(172, 172, 172)"  x="25" y="17" width="1" height="1" /><rect shape-rendering="crispEdges" fill="rgb(172, 172, 172)"  x="25" y="18" width="1" height="1" /><rect shape-rendering="crispEdges" fill="rgb(172, 172, 172)"  x="25" y="19" width="1" height="1" /><rect shape-rendering="crispEdges" fill="rgb(164, 164, 164)"  x="25" y="20" width="1" height="1" /><rect shape-rendering="crispEdges" fill="rgb(156, 156, 164)"  x="25" y="21" width="1" height="1" /><rect shape-rendering="crispEdges" fill="rgb(156, 156, 156)"  x="25" y="22" width="1" height="1" /><rect shape-rendering="crispEdges" fill="rgb(156, 156, 156)"  x="25" y="23" width="1" height="1" /><rect shape-rendering="crispEdges" fill="rgb(156, 156, 156)"  x="25" y="24" width="1" height="1" /><rect shape-rendering="crispEdges" fill="rgb(156, 156, 156)"  x="25" y="25" width="1" height="1" /><rect shape-rendering="crispEdges" fill="rgb(131, 131, 139)"  x="25" y="26" width="1" height="1" /><rect shape-rendering="crispEdges" fill="rgb(90, 90, 98)"  x="25" y="27" width="1" height="1" /><rect shape-rendering="crispEdges" fill="rgb(90, 90, 90)"  x="25" y="28" width="1" height="1" /></svg>