<svg xmlns="http://www.w3.org/2000/svg" xmlns:xlink= "http://www.w3.org/1999/xlink" width="32" height="32" viewBox ="0 0 32 32"><rect shape-rendering="crispEdges" fill="rgb(123, 98, 82)"  x="1" y="4" width="1" height="1" /><rect shape-rendering="crispEdges" fill="rgb(98, 57, 57)"  x="1" y="5" width="1" height="1" /><rect shape-rendering="crispEdges" fill="rgb(98, 65, 57)"  x="1" y="6" width="1" height="1" /><rect shape-rendering="crispEdges" fill="rgb(164, 115, 82)"  x="1" y="7" width="1" height="1" /><rect shape-rendering="crispEdges" fill="rgb(164, 115, 82)"  x="1" y="8" width="1" height="1" /><rect shape-rendering="crispEdges" fill="rgb(164, 115, 82)"  x="1" y="9" width="1" height="1" /><rect shape-rendering="crispEdges" fill="rgb(164, 115, 82)"  x="2" y="4" width="1" height="1" /><rect shape-rendering="crispEdges" fill="rgb(139, 98, 90)"  x="2" y="5" width="1" height="1" /><rect shape-rendering="crispEdges" fill="rgb(115, 74, 65)"  x="2" y="6" width="1" height="1" /><rect shape-rendering="crispEdges" fill="rgb(98, 57, 49)"  x="2" y="7" width="1" height="1" /><rect shape-rendering="crispEdges" fill="rgb(82, 57, 57)"  x="2" y="8" width="1" height="1" /><rect shape-rendering="crispEdges" fill="rgb(82, 74, 65)"  x="2" y="9" width="1" height="1" /><rect shape-rendering="crispEdges" fill="rgb(164, 115, 82)"  x="2" y="10" width="1" height="1" /><rect shape-rendering="crispEdges" fill="rgb(164, 115, 82)"  x="2" y="11" width="1" height="1" /><rect shape-rendering="crispEdges" fill="rgb(164, 115, 82)"  x="2" y="12" width="1" height="1" /><rect shape-rendering="crispEdges" fill="rgb(164, 115, 82)"  x="3" y="5" width="1" height="1" /><rect shape-rendering="crispEdges" fill="rgb(148, 106, 98)"  x="3" y="6" width="1" height="1" /><rect shape-rendering="crispEdges" fill="rgb(139, 90, 82)"  x="3" y="7" width="1" height="1" /><rect shape-rendering="crispEdges" fill="rgb(115, 82, 65)"  x="3" y="8" width="1" height="1" /><rect shape-rendering="crispEdges" fill="rgb(90, 65, 57)"  x="3" y="9" width="1" height="1" /><rect shape-rendering="crispEdges" fill="rgb(82, 74, 65)"  x="3" y="10" width="1" height="1" /><rect shape-rendering="crispEdges" fill="rgb(98, 90, 82)"  x="3" y="11" width="1" height="1" /><rect shape-rendering="crispEdges" fill="rgb(106, 90, 82)"  x="3" y="12" width="1" height="1" /><rect shape-rendering="crispEdges" fill="rgb(164, 115, 82)"  x="3" y="13" width="1" height="1" /><rect shape-rendering="crispEdges" fill="rgb(164, 115, 82)"  x="3" y="14" width="1" height="1" /><rect shape-rendering="crispEdges" fill="rgb(164, 115, 82)"  x="4" y="6" width="1" height="1" /><rect shape-rendering="crispEdges" fill="rgb(180, 131, 98)"  x="4" y="7" width="1" height="1" /><rect shape-rendering="crispEdges" fill="rgb(197, 148, 98)"  x="4" y="8" width="1" height="1" /><rect shape-rendering="crispEdges" fill="rgb(180, 139, 90)"  x="4" y="9" width="1" height="1" /><rect shape-rendering="crispEdges" fill="rgb(106, 82, 57)"  x="4" y="10" width="1" height="1" /><rect shape-rendering="crispEdges" fill="rgb(90, 74, 74)"  x="4" y="11" width="1" height="1" /><rect shape-rendering="crispEdges" fill="rgb(106, 90, 90)"  x="4" y="12" width="1" height="1" /><rect shape-rendering="crispEdges" fill="rgb(106, 98, 90)"  x="4" y="13" width="1" height="1" /><rect shape-rendering="crispEdges" fill="rgb(106, 90, 82)"  x="4" y="14" width="1" height="1" /><rect shape-rendering="crispEdges" fill="rgb(164, 115, 82)"  x="4" y="15" width="1" height="1" /><rect shape-rendering="crispEdges" fill="rgb(164, 115, 82)"  x="4" y="16" width="1" height="1" /><rect shape-rendering="crispEdges" fill="rgb(164, 115, 82)"  x="5" y="7" width="1" height="1" /><rect shape-rendering="crispEdges" fill="rgb(205, 156, 106)"  x="5" y="8" width="1" height="1" /><rect shape-rendering="crispEdges" fill="rgb(246, 189, 115)"  x="5" y="9" width="1" height="1" /><rect shape-rendering="crispEdges" fill="rgb(189, 148, 90)"  x="5" y="10" width="1" height="1" /><rect shape-rendering="crispEdges" fill="rgb(106, 82, 57)"  x="5" y="11" width="1" height="1" /><rect shape-rendering="crispEdges" fill="rgb(98, 82, 74)"  x="5" y="12" width="1" height="1" /><rect shape-rendering="crispEdges" fill="rgb(123, 106, 90)"  x="5" y="13" width="1" height="1" /><rect shape-rendering="crispEdges" fill="rgb(139, 123, 98)"  x="5" y="14" width="1" height="1" /><rect shape-rendering="crispEdges" fill="rgb(115, 106, 90)"  x="5" y="15" width="1" height="1" /><rect shape-rendering="crispEdges" fill="rgb(98, 82, 74)"  x="5" y="16" width="1" height="1" /><rect shape-rendering="crispEdges" fill="rgb(164, 115, 82)"  x="5" y="17" width="1" height="1" /><rect shape-rendering="crispEdges" fill="rgb(164, 115, 82)"  x="6" y="8" width="1" height="1" /><rect shape-rendering="crispEdges" fill="rgb(246, 197, 131)"  x="6" y="9" width="1" height="1" /><rect shape-rendering="crispEdges" fill="rgb(246, 197, 123)"  x="6" y="10" width="1" height="1" /><rect shape-rendering="crispEdges" fill="rgb(180, 139, 74)"  x="6" y="11" width="1" height="1" /><rect shape-rendering="crispEdges" fill="rgb(106, 82, 49)"  x="6" y="12" width="1" height="1" /><rect shape-rendering="crispEdges" fill="rgb(123, 98, 82)"  x="6" y="13" width="1" height="1" /><rect shape-rendering="crispEdges" fill="rgb(139, 123, 98)"  x="6" y="14" width="1" height="1" /><rect shape-rendering="crispEdges" fill="rgb(148, 131, 106)"  x="6" y="15" width="1" height="1" /><rect shape-rendering="crispEdges" fill="rgb(131, 123, 98)"  x="6" y="16" width="1" height="1" /><rect shape-rendering="crispEdges" fill="rgb(90, 74, 74)"  x="6" y="17" width="1" height="1" /><rect shape-rendering="crispEdges" fill="rgb(164, 115, 82)"  x="6" y="18" width="1" height="1" /><rect shape-rendering="crispEdges" fill="rgb(164, 115, 82)"  x="7" y="9" width="1" height="1" /><rect shape-rendering="crispEdges" fill="rgb(255, 222, 148)"  x="7" y="10" width="1" height="1" /><rect shape-rendering="crispEdges" fill="rgb(246, 205, 123)"  x="7" y="11" width="1" height="1" /><rect shape-rendering="crispEdges" fill="rgb(164, 123, 65)"  x="7" y="12" width="1" height="1" /><rect shape-rendering="crispEdges" fill="rgb(106, 82, 57)"  x="7" y="13" width="1" height="1" /><rect shape-rendering="crispEdges" fill="rgb(139, 131, 106)"  x="7" y="14" width="1" height="1" /><rect shape-rendering="crispEdges" fill="rgb(148, 131, 106)"  x="7" y="15" width="1" height="1" /><rect shape-rendering="crispEdges" fill="rgb(148, 139, 106)"  x="7" y="16" width="1" height="1" /><rect shape-rendering="crispEdges" fill="rgb(139, 131, 115)"  x="7" y="17" width="1" height="1" /><rect shape-rendering="crispEdges" fill="rgb(98, 90, 82)"  x="7" y="18" width="1" height="1" /><rect shape-rendering="crispEdges" fill="rgb(164, 115, 82)"  x="7" y="19" width="1" height="1" /><rect shape-rendering="crispEdges" fill="rgb(164, 115, 82)"  x="8" y="10" width="1" height="1" /><rect shape-rendering="crispEdges" fill="rgb(255, 238, 164)"  x="8" y="11" width="1" height="1" /><rect shape-rendering="crispEdges" fill="rgb(238, 205, 123)"  x="8" y="12" width="1" height="1" /><rect shape-rendering="crispEdges" fill="rgb(148, 106, 65)"  x="8" y="13" width="1" height="1" /><rect shape-rendering="crispEdges" fill="rgb(115, 98, 82)"  x="8" y="14" width="1" height="1" /><rect shape-rendering="crispEdges" fill="rgb(156, 148, 131)"  x="8" y="15" width="1" height="1" /><rect shape-rendering="crispEdges" fill="rgb(139, 123, 98)"  x="8" y="16" width="1" height="1" /><rect shape-rendering="crispEdges" fill="rgb(148, 131, 115)"  x="8" y="17" width="1" height="1" /><rect shape-rendering="crispEdges" fill="rgb(123, 115, 106)"  x="8" y="18" width="1" height="1" /><rect shape-rendering="crispEdges" fill="rgb(98, 82, 74)"  x="8" y="19" width="1" height="1" /><rect shape-rendering="crispEdges" fill="rgb(164, 115, 82)"  x="8" y="20" width="1" height="1" /><rect shape-rendering="crispEdges" fill="rgb(164, 115, 82)"  x="8" y="21" width="1" height="1" /><rect shape-rendering="crispEdges" fill="rgb(164, 115, 82)"  x="9" y="10" width="1" height="1" /><rect shape-rendering="crispEdges" fill="rgb(213, 189, 131)"  x="9" y="11" width="1" height="1" /><rect shape-rendering="crispEdges" fill="rgb(255, 246, 172)"  x="9" y="12" width="1" height="1" /><rect shape-rendering="crispEdges" fill="rgb(222, 172, 106)"  x="9" y="13" width="1" height="1" /><rect shape-rendering="crispEdges" fill="rgb(131, 98, 74)"  x="9" y="14" width="1" height="1" /><rect shape-rendering="crispEdges" fill="rgb(131, 123, 106)"  x="9" y="15" width="1" height="1" /><rect shape-rendering="crispEdges" fill="rgb(139, 123, 115)"  x="9" y="16" width="1" height="1" /><rect shape-rendering="crispEdges" fill="rgb(98, 82, 74)"  x="9" y="17" width="1" height="1" /><rect shape-rendering="crispEdges" fill="rgb(98, 82, 74)"  x="9" y="18" width="1" height="1" /><rect shape-rendering="crispEdges" fill="rgb(131, 115, 106)"  x="9" y="19" width="1" height="1" /><rect shape-rendering="crispEdges" fill="rgb(156, 148, 123)"  x="9" y="20" width="1" height="1" /><rect shape-rendering="crispEdges" fill="rgb(164, 148, 123)"  x="9" y="21" width="1" height="1" /><rect shape-rendering="crispEdges" fill="rgb(156, 139, 115)"  x="9" y="22" width="1" height="1" /><rect shape-rendering="crispEdges" fill="rgb(164, 115, 82)"  x="9" y="23" width="1" height="1" /><rect shape-rendering="crispEdges" fill="rgb(164, 115, 82)"  x="10" y="11" width="1" height="1" /><rect shape-rendering="crispEdges" fill="rgb(222, 205, 148)"  x="10" y="12" width="1" height="1" /><rect shape-rendering="crispEdges" fill="rgb(255, 222, 148)"  x="10" y="13" width="1" height="1" /><rect shape-rendering="crispEdges" fill="rgb(189, 148, 90)"  x="10" y="14" width="1" height="1" /><rect shape-rendering="crispEdges" fill="rgb(98, 82, 74)"  x="10" y="15" width="1" height="1" /><rect shape-rendering="crispEdges" fill="rgb(98, 82, 74)"  x="10" y="16" width="1" height="1" /><rect shape-rendering="crispEdges" fill="rgb(131, 115, 106)"  x="10" y="17" width="1" height="1" /><rect shape-rendering="crispEdges" fill="rgb(172, 156, 139)"  x="10" y="18" width="1" height="1" /><rect shape-rendering="crispEdges" fill="rgb(148, 139, 123)"  x="10" y="19" width="1" height="1" /><rect shape-rendering="crispEdges" fill="rgb(24, 41, 74)"  x="10" y="20" width="1" height="1" /><rect shape-rendering="crispEdges" fill="rgb(49, 74, 98)"  x="10" y="21" width="1" height="1" /><rect shape-rendering="crispEdges" fill="rgb(106, 115, 106)"  x="10" y="22" width="1" height="1" /><rect shape-rendering="crispEdges" fill="rgb(164, 148, 115)"  x="10" y="23" width="1" height="1" /><rect shape-rendering="crispEdges" fill="rgb(164, 115, 82)"  x="10" y="24" width="1" height="1" /><rect shape-rendering="crispEdges" fill="rgb(164, 115, 82)"  x="11" y="12" width="1" height="1" /><rect shape-rendering="crispEdges" fill="rgb(246, 205, 139)"  x="11" y="13" width="1" height="1" /><rect shape-rendering="crispEdges" fill="rgb(230, 172, 106)"  x="11" y="14" width="1" height="1" /><rect shape-rendering="crispEdges" fill="rgb(98, 82, 74)"  x="11" y="15" width="1" height="1" /><rect shape-rendering="crispEdges" fill="rgb(172, 148, 115)"  x="11" y="16" width="1" height="1" /><rect shape-rendering="crispEdges" fill="rgb(205, 197, 164)"  x="11" y="17" width="1" height="1" /><rect shape-rendering="crispEdges" fill="rgb(213, 205, 172)"  x="11" y="18" width="1" height="1" /><rect shape-rendering="crispEdges" fill="rgb(148, 139, 115)"  x="11" y="19" width="1" height="1" /><rect shape-rendering="crispEdges" fill="rgb(32, 41, 57)"  x="11" y="20" width="1" height="1" /><rect shape-rendering="crispEdges" fill="rgb(8, 74, 131)"  x="11" y="21" width="1" height="1" /><rect shape-rendering="crispEdges" fill="rgb(8, 57, 106)"  x="11" y="22" width="1" height="1" /><rect shape-rendering="crispEdges" fill="rgb(156, 148, 123)"  x="11" y="23" width="1" height="1" /><rect shape-rendering="crispEdges" fill="rgb(172, 156, 123)"  x="11" y="24" width="1" height="1" /><rect shape-rendering="crispEdges" fill="rgb(164, 115, 82)"  x="11" y="25" width="1" height="1" /><rect shape-rendering="crispEdges" fill="rgb(164, 115, 82)"  x="12" y="13" width="1" height="1" /><rect shape-rendering="crispEdges" fill="rgb(222, 164, 106)"  x="12" y="14" width="1" height="1" /><rect shape-rendering="crispEdges" fill="rgb(230, 172, 106)"  x="12" y="15" width="1" height="1" /><rect shape-rendering="crispEdges" fill="rgb(255, 213, 139)"  x="12" y="16" width="1" height="1" /><rect shape-rendering="crispEdges" fill="rgb(255, 222, 164)"  x="12" y="17" width="1" height="1" /><rect shape-rendering="crispEdges" fill="rgb(230, 213, 172)"  x="12" y="18" width="1" height="1" /><rect shape-rendering="crispEdges" fill="rgb(189, 180, 148)"  x="12" y="19" width="1" height="1" /><rect shape-rendering="crispEdges" fill="rgb(90, 82, 74)"  x="12" y="20" width="1" height="1" /><rect shape-rendering="crispEdges" fill="rgb(24, 49, 74)"  x="12" y="21" width="1" height="1" /><rect shape-rendering="crispEdges" fill="rgb(16, 41, 74)"  x="12" y="22" width="1" height="1" /><rect shape-rendering="crispEdges" fill="rgb(148, 131, 106)"  x="12" y="23" width="1" height="1" /><rect shape-rendering="crispEdges" fill="rgb(189, 172, 139)"  x="12" y="24" width="1" height="1" /><rect shape-rendering="crispEdges" fill="rgb(148, 131, 115)"  x="12" y="25" width="1" height="1" /><rect shape-rendering="crispEdges" fill="rgb(164, 115, 82)"  x="12" y="26" width="1" height="1" /><rect shape-rendering="crispEdges" fill="rgb(164, 115, 82)"  x="13" y="14" width="1" height="1" /><rect shape-rendering="crispEdges" fill="rgb(246, 197, 131)"  x="13" y="15" width="1" height="1" /><rect shape-rendering="crispEdges" fill="rgb(255, 213, 139)"  x="13" y="16" width="1" height="1" /><rect shape-rendering="crispEdges" fill="rgb(255, 205, 131)"  x="13" y="17" width="1" height="1" /><rect shape-rendering="crispEdges" fill="rgb(246, 197, 131)"  x="13" y="18" width="1" height="1" /><rect shape-rendering="crispEdges" fill="rgb(222, 180, 123)"  x="13" y="19" width="1" height="1" /><rect shape-rendering="crispEdges" fill="rgb(172, 156, 123)"  x="13" y="20" width="1" height="1" /><rect shape-rendering="crispEdges" fill="rgb(24, 41, 74)"  x="13" y="21" width="1" height="1" /><rect shape-rendering="crispEdges" fill="rgb(24, 41, 74)"  x="13" y="22" width="1" height="1" /><rect shape-rendering="crispEdges" fill="rgb(172, 156, 131)"  x="13" y="23" width="1" height="1" /><rect shape-rendering="crispEdges" fill="rgb(189, 172, 139)"  x="13" y="24" width="1" height="1" /><rect shape-rendering="crispEdges" fill="rgb(180, 164, 131)"  x="13" y="25" width="1" height="1" /><rect shape-rendering="crispEdges" fill="rgb(131, 115, 98)"  x="13" y="26" width="1" height="1" /><rect shape-rendering="crispEdges" fill="rgb(164, 115, 82)"  x="13" y="27" width="1" height="1" /><rect shape-rendering="crispEdges" fill="rgb(164, 115, 82)"  x="14" y="14" width="1" height="1" /><rect shape-rendering="crispEdges" fill="rgb(238, 197, 131)"  x="14" y="15" width="1" height="1" /><rect shape-rendering="crispEdges" fill="rgb(255, 230, 156)"  x="14" y="16" width="1" height="1" /><rect shape-rendering="crispEdges" fill="rgb(255, 222, 156)"  x="14" y="17" width="1" height="1" /><rect shape-rendering="crispEdges" fill="rgb(255, 213, 139)"  x="14" y="18" width="1" height="1" /><rect shape-rendering="crispEdges" fill="rgb(246, 180, 106)"  x="14" y="19" width="1" height="1" /><rect shape-rendering="crispEdges" fill="rgb(205, 148, 90)"  x="14" y="20" width="1" height="1" /><rect shape-rendering="crispEdges" fill="rgb(205, 164, 115)"  x="14" y="21" width="1" height="1" /><rect shape-rendering="crispEdges" fill="rgb(197, 164, 123)"  x="14" y="22" width="1" height="1" /><rect shape-rendering="crispEdges" fill="rgb(156, 131, 106)"  x="14" y="23" width="1" height="1" /><rect shape-rendering="crispEdges" fill="rgb(106, 90, 82)"  x="14" y="24" width="1" height="1" /><rect shape-rendering="crispEdges" fill="rgb(106, 98, 82)"  x="14" y="25" width="1" height="1" /><rect shape-rendering="crispEdges" fill="rgb(139, 123, 106)"  x="14" y="26" width="1" height="1" /><rect shape-rendering="crispEdges" fill="rgb(164, 115, 82)"  x="14" y="27" width="1" height="1" /><rect shape-rendering="crispEdges" fill="rgb(164, 115, 82)"  x="15" y="14" width="1" height="1" /><rect shape-rendering="crispEdges" fill="rgb(238, 205, 139)"  x="15" y="15" width="1" height="1" /><rect shape-rendering="crispEdges" fill="rgb(255, 238, 172)"  x="15" y="16" width="1" height="1" /><rect shape-rendering="crispEdges" fill="rgb(246, 222, 164)"  x="15" y="17" width="1" height="1" /><rect shape-rendering="crispEdges" fill="rgb(246, 222, 156)"  x="15" y="18" width="1" height="1" /><rect shape-rendering="crispEdges" fill="rgb(255, 205, 131)"  x="15" y="19" width="1" height="1" /><rect shape-rendering="crispEdges" fill="rgb(238, 172, 98)"  x="15" y="20" width="1" height="1" /><rect shape-rendering="crispEdges" fill="rgb(246, 189, 115)"  x="15" y="21" width="1" height="1" /><rect shape-rendering="crispEdges" fill="rgb(222, 172, 115)"  x="15" y="22" width="1" height="1" /><rect shape-rendering="crispEdges" fill="rgb(148, 98, 82)"  x="15" y="23" width="1" height="1" /><rect shape-rendering="crispEdges" fill="rgb(65, 49, 41)"  x="15" y="24" width="1" height="1" /><rect shape-rendering="crispEdges" fill="rgb(32, 32, 32)"  x="15" y="25" width="1" height="1" /><rect shape-rendering="crispEdges" fill="rgb(98, 90, 74)"  x="15" y="26" width="1" height="1" /><rect shape-rendering="crispEdges" fill="rgb(164, 115, 82)"  x="15" y="27" width="1" height="1" /><rect shape-rendering="crispEdges" fill="rgb(164, 115, 82)"  x="16" y="14" width="1" height="1" /><rect shape-rendering="crispEdges" fill="rgb(246, 205, 148)"  x="16" y="15" width="1" height="1" /><rect shape-rendering="crispEdges" fill="rgb(255, 238, 172)"  x="16" y="16" width="1" height="1" /><rect shape-rendering="crispEdges" fill="rgb(246, 222, 164)"  x="16" y="17" width="1" height="1" /><rect shape-rendering="crispEdges" fill="rgb(246, 230, 164)"  x="16" y="18" width="1" height="1" /><rect shape-rendering="crispEdges" fill="rgb(255, 213, 148)"  x="16" y="19" width="1" height="1" /><rect shape-rendering="crispEdges" fill="rgb(246, 180, 98)"  x="16" y="20" width="1" height="1" /><rect shape-rendering="crispEdges" fill="rgb(255, 205, 139)"  x="16" y="21" width="1" height="1" /><rect shape-rendering="crispEdges" fill="rgb(222, 180, 123)"  x="16" y="22" width="1" height="1" /><rect shape-rendering="crispEdges" fill="rgb(172, 123, 90)"  x="16" y="23" width="1" height="1" /><rect shape-rendering="crispEdges" fill="rgb(98, 65, 57)"  x="16" y="24" width="1" height="1" /><rect shape-rendering="crispEdges" fill="rgb(49, 49, 41)"  x="16" y="25" width="1" height="1" /><rect shape-rendering="crispEdges" fill="rgb(98, 90, 82)"  x="16" y="26" width="1" height="1" /><rect shape-rendering="crispEdges" fill="rgb(164, 115, 82)"  x="16" y="27" width="1" height="1" /><rect shape-rendering="crispEdges" fill="rgb(164, 115, 82)"  x="17" y="14" width="1" height="1" /><rect shape-rendering="crispEdges" fill="rgb(246, 213, 148)"  x="17" y="15" width="1" height="1" /><rect shape-rendering="crispEdges" fill="rgb(255, 230, 172)"  x="17" y="16" width="1" height="1" /><rect shape-rendering="crispEdges" fill="rgb(255, 230, 172)"  x="17" y="17" width="1" height="1" /><rect shape-rendering="crispEdges" fill="rgb(255, 230, 164)"  x="17" y="18" width="1" height="1" /><rect shape-rendering="crispEdges" fill="rgb(255, 205, 139)"  x="17" y="19" width="1" height="1" /><rect shape-rendering="crispEdges" fill="rgb(246, 180, 106)"  x="17" y="20" width="1" height="1" /><rect shape-rendering="crispEdges" fill="rgb(255, 222, 164)"  x="17" y="21" width="1" height="1" /><rect shape-rendering="crispEdges" fill="rgb(255, 230, 172)"  x="17" y="22" width="1" height="1" /><rect shape-rendering="crispEdges" fill="rgb(238, 205, 148)"  x="17" y="23" width="1" height="1" /><rect shape-rendering="crispEdges" fill="rgb(222, 189, 148)"  x="17" y="24" width="1" height="1" /><rect shape-rendering="crispEdges" fill="rgb(180, 172, 131)"  x="17" y="25" width="1" height="1" /><rect shape-rendering="crispEdges" fill="rgb(148, 131, 98)"  x="17" y="26" width="1" height="1" /><rect shape-rendering="crispEdges" fill="rgb(164, 115, 82)"  x="17" y="27" width="1" height="1" /><rect shape-rendering="crispEdges" fill="rgb(164, 115, 82)"  x="18" y="14" width="1" height="1" /><rect shape-rendering="crispEdges" fill="rgb(255, 222, 156)"  x="18" y="15" width="1" height="1" /><rect shape-rendering="crispEdges" fill="rgb(255, 238, 172)"  x="18" y="16" width="1" height="1" /><rect shape-rendering="crispEdges" fill="rgb(246, 230, 172)"  x="18" y="17" width="1" height="1" /><rect shape-rendering="crispEdges" fill="rgb(246, 213, 156)"  x="18" y="18" width="1" height="1" /><rect shape-rendering="crispEdges" fill="rgb(255, 213, 156)"  x="18" y="19" width="1" height="1" /><rect shape-rendering="crispEdges" fill="rgb(238, 213, 172)"  x="18" y="20" width="1" height="1" /><rect shape-rendering="crispEdges" fill="rgb(24, 41, 74)"  x="18" y="21" width="1" height="1" /><rect shape-rendering="crispEdges" fill="rgb(24, 41, 74)"  x="18" y="22" width="1" height="1" /><rect shape-rendering="crispEdges" fill="rgb(238, 213, 172)"  x="18" y="23" width="1" height="1" /><rect shape-rendering="crispEdges" fill="rgb(246, 222, 180)"  x="18" y="24" width="1" height="1" /><rect shape-rendering="crispEdges" fill="rgb(205, 180, 139)"  x="18" y="25" width="1" height="1" /><rect shape-rendering="crispEdges" fill="rgb(156, 131, 106)"  x="18" y="26" width="1" height="1" /><rect shape-rendering="crispEdges" fill="rgb(164, 115, 82)"  x="18" y="27" width="1" height="1" /><rect shape-rendering="crispEdges" fill="rgb(164, 115, 82)"  x="19" y="13" width="1" height="1" /><rect shape-rendering="crispEdges" fill="rgb(246, 180, 115)"  x="19" y="14" width="1" height="1" /><rect shape-rendering="crispEdges" fill="rgb(255, 205, 131)"  x="19" y="15" width="1" height="1" /><rect shape-rendering="crispEdges" fill="rgb(255, 246, 180)"  x="19" y="16" width="1" height="1" /><rect shape-rendering="crispEdges" fill="rgb(246, 222, 180)"  x="19" y="17" width="1" height="1" /><rect shape-rendering="crispEdges" fill="rgb(246, 205, 156)"  x="19" y="18" width="1" height="1" /><rect shape-rendering="crispEdges" fill="rgb(246, 213, 172)"  x="19" y="19" width="1" height="1" /><rect shape-rendering="crispEdges" fill="rgb(115, 115, 98)"  x="19" y="20" width="1" height="1" /><rect shape-rendering="crispEdges" fill="rgb(24, 41, 74)"  x="19" y="21" width="1" height="1" /><rect shape-rendering="crispEdges" fill="rgb(24, 49, 74)"  x="19" y="22" width="1" height="1" /><rect shape-rendering="crispEdges" fill="rgb(205, 180, 156)"  x="19" y="23" width="1" height="1" /><rect shape-rendering="crispEdges" fill="rgb(213, 189, 156)"  x="19" y="24" width="1" height="1" /><rect shape-rendering="crispEdges" fill="rgb(139, 115, 90)"  x="19" y="25" width="1" height="1" /><rect shape-rendering="crispEdges" fill="rgb(164, 115, 82)"  x="19" y="26" width="1" height="1" /><rect shape-rendering="crispEdges" fill="rgb(164, 115, 82)"  x="20" y="12" width="1" height="1" /><rect shape-rendering="crispEdges" fill="rgb(255, 238, 164)"  x="20" y="13" width="1" height="1" /><rect shape-rendering="crispEdges" fill="rgb(255, 213, 139)"  x="20" y="14" width="1" height="1" /><rect shape-rendering="crispEdges" fill="rgb(98, 82, 74)"  x="20" y="15" width="1" height="1" /><rect shape-rendering="crispEdges" fill="rgb(197, 180, 148)"  x="20" y="16" width="1" height="1" /><rect shape-rendering="crispEdges" fill="rgb(255, 230, 180)"  x="20" y="17" width="1" height="1" /><rect shape-rendering="crispEdges" fill="rgb(255, 222, 164)"  x="20" y="18" width="1" height="1" /><rect shape-rendering="crispEdges" fill="rgb(205, 189, 164)"  x="20" y="19" width="1" height="1" /><rect shape-rendering="crispEdges" fill="rgb(24, 41, 57)"  x="20" y="20" width="1" height="1" /><rect shape-rendering="crispEdges" fill="rgb(0, 65, 131)"  x="20" y="21" width="1" height="1" /><rect shape-rendering="crispEdges" fill="rgb(16, 65, 106)"  x="20" y="22" width="1" height="1" /><rect shape-rendering="crispEdges" fill="rgb(197, 189, 156)"  x="20" y="23" width="1" height="1" /><rect shape-rendering="crispEdges" fill="rgb(180, 164, 131)"  x="20" y="24" width="1" height="1" /><rect shape-rendering="crispEdges" fill="rgb(164, 115, 82)"  x="20" y="25" width="1" height="1" /><rect shape-rendering="crispEdges" fill="rgb(164, 115, 82)"  x="21" y="11" width="1" height="1" /><rect shape-rendering="crispEdges" fill="rgb(238, 222, 148)"  x="21" y="12" width="1" height="1" /><rect shape-rendering="crispEdges" fill="rgb(255, 255, 189)"  x="21" y="13" width="1" height="1" /><rect shape-rendering="crispEdges" fill="rgb(230, 180, 115)"  x="21" y="14" width="1" height="1" /><rect shape-rendering="crispEdges" fill="rgb(115, 98, 82)"  x="21" y="15" width="1" height="1" /><rect shape-rendering="crispEdges" fill="rgb(98, 82, 74)"  x="21" y="16" width="1" height="1" /><rect shape-rendering="crispEdges" fill="rgb(180, 164, 131)"  x="21" y="17" width="1" height="1" /><rect shape-rendering="crispEdges" fill="rgb(238, 222, 189)"  x="21" y="18" width="1" height="1" /><rect shape-rendering="crispEdges" fill="rgb(213, 205, 180)"  x="21" y="19" width="1" height="1" /><rect shape-rendering="crispEdges" fill="rgb(24, 41, 74)"  x="21" y="20" width="1" height="1" /><rect shape-rendering="crispEdges" fill="rgb(98, 115, 123)"  x="21" y="21" width="1" height="1" /><rect shape-rendering="crispEdges" fill="rgb(172, 164, 148)"  x="21" y="22" width="1" height="1" /><rect shape-rendering="crispEdges" fill="rgb(189, 172, 139)"  x="21" y="23" width="1" height="1" /><rect shape-rendering="crispEdges" fill="rgb(164, 115, 82)"  x="21" y="24" width="1" height="1" /><rect shape-rendering="crispEdges" fill="rgb(164, 115, 82)"  x="22" y="10" width="1" height="1" /><rect shape-rendering="crispEdges" fill="rgb(222, 197, 139)"  x="22" y="11" width="1" height="1" /><rect shape-rendering="crispEdges" fill="rgb(255, 255, 197)"  x="22" y="12" width="1" height="1" /><rect shape-rendering="crispEdges" fill="rgb(246, 222, 148)"  x="22" y="13" width="1" height="1" /><rect shape-rendering="crispEdges" fill="rgb(164, 131, 90)"  x="22" y="14" width="1" height="1" /><rect shape-rendering="crispEdges" fill="rgb(139, 131, 115)"  x="22" y="15" width="1" height="1" /><rect shape-rendering="crispEdges" fill="rgb(148, 139, 123)"  x="22" y="16" width="1" height="1" /><rect shape-rendering="crispEdges" fill="rgb(98, 82, 74)"  x="22" y="17" width="1" height="1" /><rect shape-rendering="crispEdges" fill="rgb(98, 82, 74)"  x="22" y="18" width="1" height="1" /><rect shape-rendering="crispEdges" fill="rgb(156, 148, 131)"  x="22" y="19" width="1" height="1" /><rect shape-rendering="crispEdges" fill="rgb(213, 197, 164)"  x="22" y="20" width="1" height="1" /><rect shape-rendering="crispEdges" fill="rgb(230, 213, 172)"  x="22" y="21" width="1" height="1" /><rect shape-rendering="crispEdges" fill="rgb(197, 180, 148)"  x="22" y="22" width="1" height="1" /><rect shape-rendering="crispEdges" fill="rgb(164, 115, 82)"  x="22" y="23" width="1" height="1" /><rect shape-rendering="crispEdges" fill="rgb(164, 115, 82)"  x="23" y="10" width="1" height="1" /><rect shape-rendering="crispEdges" fill="rgb(255, 255, 189)"  x="23" y="11" width="1" height="1" /><rect shape-rendering="crispEdges" fill="rgb(255, 246, 164)"  x="23" y="12" width="1" height="1" /><rect shape-rendering="crispEdges" fill="rgb(189, 148, 90)"  x="23" y="13" width="1" height="1" /><rect shape-rendering="crispEdges" fill="rgb(139, 115, 98)"  x="23" y="14" width="1" height="1" /><rect shape-rendering="crispEdges" fill="rgb(180, 172, 156)"  x="23" y="15" width="1" height="1" /><rect shape-rendering="crispEdges" fill="rgb(164, 156, 131)"  x="23" y="16" width="1" height="1" /><rect shape-rendering="crispEdges" fill="rgb(148, 131, 115)"  x="23" y="17" width="1" height="1" /><rect shape-rendering="crispEdges" fill="rgb(123, 106, 106)"  x="23" y="18" width="1" height="1" /><rect shape-rendering="crispEdges" fill="rgb(106, 90, 82)"  x="23" y="19" width="1" height="1" /><rect shape-rendering="crispEdges" fill="rgb(164, 115, 82)"  x="23" y="20" width="1" height="1" /><rect shape-rendering="crispEdges" fill="rgb(164, 115, 82)"  x="23" y="21" width="1" height="1" /><rect shape-rendering="crispEdges" fill="rgb(164, 115, 82)"  x="24" y="9" width="1" height="1" /><rect shape-rendering="crispEdges" fill="rgb(255, 238, 164)"  x="24" y="10" width="1" height="1" /><rect shape-rendering="crispEdges" fill="rgb(255, 246, 172)"  x="24" y="11" width="1" height="1" /><rect shape-rendering="crispEdges" fill="rgb(213, 164, 98)"  x="24" y="12" width="1" height="1" /><rect shape-rendering="crispEdges" fill="rgb(131, 98, 74)"  x="24" y="13" width="1" height="1" /><rect shape-rendering="crispEdges" fill="rgb(164, 148, 131)"  x="24" y="14" width="1" height="1" /><rect shape-rendering="crispEdges" fill="rgb(189, 180, 156)"  x="24" y="15" width="1" height="1" /><rect shape-rendering="crispEdges" fill="rgb(156, 148, 123)"  x="24" y="16" width="1" height="1" /><rect shape-rendering="crispEdges" fill="rgb(156, 148, 139)"  x="24" y="17" width="1" height="1" /><rect shape-rendering="crispEdges" fill="rgb(115, 98, 90)"  x="24" y="18" width="1" height="1" /><rect shape-rendering="crispEdges" fill="rgb(164, 115, 82)"  x="24" y="19" width="1" height="1" /><rect shape-rendering="crispEdges" fill="rgb(164, 115, 82)"  x="25" y="8" width="1" height="1" /><rect shape-rendering="crispEdges" fill="rgb(255, 213, 148)"  x="25" y="9" width="1" height="1" /><rect shape-rendering="crispEdges" fill="rgb(255, 238, 172)"  x="25" y="10" width="1" height="1" /><rect shape-rendering="crispEdges" fill="rgb(230, 180, 106)"  x="25" y="11" width="1" height="1" /><rect shape-rendering="crispEdges" fill="rgb(131, 98, 65)"  x="25" y="12" width="1" height="1" /><rect shape-rendering="crispEdges" fill="rgb(148, 123, 106)"  x="25" y="13" width="1" height="1" /><rect shape-rendering="crispEdges" fill="rgb(189, 172, 148)"  x="25" y="14" width="1" height="1" /><rect shape-rendering="crispEdges" fill="rgb(156, 148, 123)"  x="25" y="15" width="1" height="1" /><rect shape-rendering="crispEdges" fill="rgb(148, 139, 123)"  x="25" y="16" width="1" height="1" /><rect shape-rendering="crispEdges" fill="rgb(106, 90, 90)"  x="25" y="17" width="1" height="1" /><rect shape-rendering="crispEdges" fill="rgb(164, 115, 82)"  x="25" y="18" width="1" height="1" /><rect shape-rendering="crispEdges" fill="rgb(164, 115, 82)"  x="26" y="7" width="1" height="1" /><rect shape-rendering="crispEdges" fill="rgb(222, 164, 98)"  x="26" y="8" width="1" height="1" /><rect shape-rendering="crispEdges" fill="rgb(255, 222, 156)"  x="26" y="9" width="1" height="1" /><rect shape-rendering="crispEdges" fill="rgb(238, 197, 123)"  x="26" y="10" width="1" height="1" /><rect shape-rendering="crispEdges" fill="rgb(139, 98, 65)"  x="26" y="11" width="1" height="1" /><rect shape-rendering="crispEdges" fill="rgb(123, 106, 98)"  x="26" y="12" width="1" height="1" /><rect shape-rendering="crispEdges" fill="rgb(180, 156, 139)"  x="26" y="13" width="1" height="1" /><rect shape-rendering="crispEdges" fill="rgb(164, 148, 123)"  x="26" y="14" width="1" height="1" /><rect shape-rendering="crispEdges" fill="rgb(123, 106, 90)"  x="26" y="15" width="1" height="1" /><rect shape-rendering="crispEdges" fill="rgb(98, 82, 74)"  x="26" y="16" width="1" height="1" /><rect shape-rendering="crispEdges" fill="rgb(164, 115, 82)"  x="26" y="17" width="1" height="1" /><rect shape-rendering="crispEdges" fill="rgb(164, 115, 82)"  x="27" y="6" width="1" height="1" /><rect shape-rendering="crispEdges" fill="rgb(222, 164, 98)"  x="27" y="7" width="1" height="1" /><rect shape-rendering="crispEdges" fill="rgb(213, 139, 82)"  x="27" y="8" width="1" height="1" /><rect shape-rendering="crispEdges" fill="rgb(222, 164, 90)"  x="27" y="9" width="1" height="1" /><rect shape-rendering="crispEdges" fill="rgb(148, 106, 74)"  x="27" y="10" width="1" height="1" /><rect shape-rendering="crispEdges" fill="rgb(90, 74, 74)"  x="27" y="11" width="1" height="1" /><rect shape-rendering="crispEdges" fill="rgb(123, 115, 106)"  x="27" y="12" width="1" height="1" /><rect shape-rendering="crispEdges" fill="rgb(139, 115, 98)"  x="27" y="13" width="1" height="1" /><rect shape-rendering="crispEdges" fill="rgb(106, 90, 74)"  x="27" y="14" width="1" height="1" /><rect shape-rendering="crispEdges" fill="rgb(164, 115, 82)"  x="27" y="15" width="1" height="1" /><rect shape-rendering="crispEdges" fill="rgb(164, 115, 82)"  x="27" y="16" width="1" height="1" /><rect shape-rendering="crispEdges" fill="rgb(164, 115, 82)"  x="28" y="5" width="1" height="1" /><rect shape-rendering="crispEdges" fill="rgb(123, 90, 74)"  x="28" y="6" width="1" height="1" /><rect shape-rendering="crispEdges" fill="rgb(123, 65, 57)"  x="28" y="7" width="1" height="1" /><rect shape-rendering="crispEdges" fill="rgb(123, 74, 49)"  x="28" y="8" width="1" height="1" /><rect shape-rendering="crispEdges" fill="rgb(106, 74, 57)"  x="28" y="9" width="1" height="1" /><rect shape-rendering="crispEdges" fill="rgb(74, 65, 57)"  x="28" y="10" width="1" height="1" /><rect shape-rendering="crispEdges" fill="rgb(82, 74, 74)"  x="28" y="11" width="1" height="1" /><rect shape-rendering="crispEdges" fill="rgb(106, 90, 74)"  x="28" y="12" width="1" height="1" /><rect shape-rendering="crispEdges" fill="rgb(164, 115, 82)"  x="28" y="13" width="1" height="1" /><rect shape-rendering="crispEdges" fill="rgb(164, 115, 82)"  x="28" y="14" width="1" height="1" /><rect shape-rendering="crispEdges" fill="rgb(164, 115, 82)"  x="29" y="4" width="1" height="1" /><rect shape-rendering="crispEdges" fill="rgb(106, 82, 65)"  x="29" y="5" width="1" height="1" /><rect shape-rendering="crispEdges" fill="rgb(82, 41, 41)"  x="29" y="6" width="1" height="1" /><rect shape-rendering="crispEdges" fill="rgb(74, 41, 41)"  x="29" y="7" width="1" height="1" /><rect shape-rendering="crispEdges" fill="rgb(74, 49, 41)"  x="29" y="8" width="1" height="1" /><rect shape-rendering="crispEdges" fill="rgb(90, 74, 65)"  x="29" y="9" width="1" height="1" /><rect shape-rendering="crispEdges" fill="rgb(139, 115, 106)"  x="29" y="10" width="1" height="1" /><rect shape-rendering="crispEdges" fill="rgb(164, 115, 82)"  x="29" y="11" width="1" height="1" /><rect shape-rendering="crispEdges" fill="rgb(164, 115, 82)"  x="29" y="12" width="1" height="1" /><rect shape-rendering="crispEdges" fill="rgb(106, 82, 65)"  x="30" y="4" width="1" height="1" /><rect shape-rendering="crispEdges" fill="rgb(65, 41, 41)"  x="30" y="5" width="1" height="1" /><rect shape-rendering="crispEdges" fill="rgb(82, 57, 49)"  x="30" y="6" width="1" height="1" /><rect shape-rendering="crispEdges" fill="rgb(164, 115, 82)"  x="30" y="7" width="1" height="1" /><rect shape-rendering="crispEdges" fill="rgb(164, 115, 82)"  x="30" y="8" width="1" height="1" /><rect shape-rendering="crispEdges" fill="rgb(164, 115, 82)"  x="30" y="9" width="1" height="1" /></svg>