<svg xmlns="http://www.w3.org/2000/svg" xmlns:xlink= "http://www.w3.org/1999/xlink" width="32" height="32" viewBox ="0 0 32 32"><rect shape-rendering="crispEdges" fill="rgb(164, 156, 90)"  x="5" y="20" width="1" height="1" /><rect shape-rendering="crispEdges" fill="rgb(213, 197, 123)"  x="5" y="21" width="1" height="1" /><rect shape-rendering="crispEdges" fill="rgb(156, 139, 74)"  x="5" y="22" width="1" height="1" /><rect shape-rendering="crispEdges" fill="rgb(197, 189, 123)"  x="6" y="18" width="1" height="1" /><rect shape-rendering="crispEdges" fill="rgb(246, 238, 148)"  x="6" y="19" width="1" height="1" /><rect shape-rendering="crispEdges" fill="rgb(246, 230, 164)"  x="6" y="20" width="1" height="1" /><rect shape-rendering="crispEdges" fill="rgb(222, 189, 106)"  x="6" y="21" width="1" height="1" /><rect shape-rendering="crispEdges" fill="rgb(197, 156, 65)"  x="6" y="22" width="1" height="1" /><rect shape-rendering="crispEdges" fill="rgb(205, 164, 74)"  x="6" y="23" width="1" height="1" /><rect shape-rendering="crispEdges" fill="rgb(246, 222, 139)"  x="7" y="18" width="1" height="1" /><rect shape-rendering="crispEdges" fill="rgb(238, 222, 156)"  x="7" y="19" width="1" height="1" /><rect shape-rendering="crispEdges" fill="rgb(213, 189, 123)"  x="7" y="20" width="1" height="1" /><rect shape-rendering="crispEdges" fill="rgb(180, 139, 57)"  x="7" y="21" width="1" height="1" /><rect shape-rendering="crispEdges" fill="rgb(189, 139, 57)"  x="7" y="22" width="1" height="1" /><rect shape-rendering="crispEdges" fill="rgb(205, 164, 82)"  x="8" y="18" width="1" height="1" /><rect shape-rendering="crispEdges" fill="rgb(180, 131, 57)"  x="8" y="19" width="1" height="1" /><rect shape-rendering="crispEdges" fill="rgb(164, 115, 41)"  x="8" y="20" width="1" height="1" /><rect shape-rendering="crispEdges" fill="rgb(197, 156, 65)"  x="8" y="21" width="1" height="1" /><rect shape-rendering="crispEdges" fill="rgb(164, 123, 49)"  x="8" y="22" width="1" height="1" /><rect shape-rendering="crispEdges" fill="rgb(115, 49, 57)"  x="8" y="29" width="1" height="1" /><rect shape-rendering="crispEdges" fill="rgb(115, 49, 41)"  x="8" y="30" width="1" height="1" /><rect shape-rendering="crispEdges" fill="rgb(180, 115, 148)"  x="9" y="14" width="1" height="1" /><rect shape-rendering="crispEdges" fill="rgb(189, 115, 180)"  x="9" y="15" width="1" height="1" /><rect shape-rendering="crispEdges" fill="rgb(148, 106, 139)"  x="9" y="16" width="1" height="1" /><rect shape-rendering="crispEdges" fill="rgb(189, 148, 82)"  x="9" y="17" width="1" height="1" /><rect shape-rendering="crispEdges" fill="rgb(156, 106, 32)"  x="9" y="18" width="1" height="1" /><rect shape-rendering="crispEdges" fill="rgb(139, 90, 24)"  x="9" y="19" width="1" height="1" /><rect shape-rendering="crispEdges" fill="rgb(180, 131, 49)"  x="9" y="20" width="1" height="1" /><rect shape-rendering="crispEdges" fill="rgb(205, 164, 74)"  x="9" y="21" width="1" height="1" /><rect shape-rendering="crispEdges" fill="rgb(131, 90, 32)"  x="9" y="22" width="1" height="1" /><rect shape-rendering="crispEdges" fill="rgb(131, 74, 74)"  x="9" y="26" width="1" height="1" /><rect shape-rendering="crispEdges" fill="rgb(197, 98, 106)"  x="9" y="27" width="1" height="1" /><rect shape-rendering="crispEdges" fill="rgb(197, 106, 106)"  x="9" y="28" width="1" height="1" /><rect shape-rendering="crispEdges" fill="rgb(213, 123, 123)"  x="9" y="29" width="1" height="1" /><rect shape-rendering="crispEdges" fill="rgb(222, 131, 139)"  x="9" y="30" width="1" height="1" /><rect shape-rendering="crispEdges" fill="rgb(213, 139, 131)"  x="10" y="12" width="1" height="1" /><rect shape-rendering="crispEdges" fill="rgb(238, 164, 164)"  x="10" y="13" width="1" height="1" /><rect shape-rendering="crispEdges" fill="rgb(238, 172, 197)"  x="10" y="14" width="1" height="1" /><rect shape-rendering="crispEdges" fill="rgb(230, 139, 205)"  x="10" y="15" width="1" height="1" /><rect shape-rendering="crispEdges" fill="rgb(156, 106, 164)"  x="10" y="16" width="1" height="1" /><rect shape-rendering="crispEdges" fill="rgb(139, 98, 41)"  x="10" y="17" width="1" height="1" /><rect shape-rendering="crispEdges" fill="rgb(180, 123, 41)"  x="10" y="18" width="1" height="1" /><rect shape-rendering="crispEdges" fill="rgb(197, 156, 74)"  x="10" y="19" width="1" height="1" /><rect shape-rendering="crispEdges" fill="rgb(213, 172, 90)"  x="10" y="20" width="1" height="1" /><rect shape-rendering="crispEdges" fill="rgb(189, 148, 65)"  x="10" y="21" width="1" height="1" /><rect shape-rendering="crispEdges" fill="rgb(82, 49, 24)"  x="10" y="22" width="1" height="1" /><rect shape-rendering="crispEdges" fill="rgb(148, 74, 82)"  x="10" y="24" width="1" height="1" /><rect shape-rendering="crispEdges" fill="rgb(213, 90, 98)"  x="10" y="25" width="1" height="1" /><rect shape-rendering="crispEdges" fill="rgb(156, 65, 65)"  x="10" y="26" width="1" height="1" /><rect shape-rendering="crispEdges" fill="rgb(123, 57, 41)"  x="10" y="27" width="1" height="1" /><rect shape-rendering="crispEdges" fill="rgb(139, 65, 32)"  x="10" y="28" width="1" height="1" /><rect shape-rendering="crispEdges" fill="rgb(172, 90, 57)"  x="10" y="29" width="1" height="1" /><rect shape-rendering="crispEdges" fill="rgb(213, 139, 131)"  x="10" y="30" width="1" height="1" /><rect shape-rendering="crispEdges" fill="rgb(180, 131, 123)"  x="11" y="8" width="1" height="1" /><rect shape-rendering="crispEdges" fill="rgb(230, 164, 148)"  x="11" y="9" width="1" height="1" /><rect shape-rendering="crispEdges" fill="rgb(238, 156, 139)"  x="11" y="10" width="1" height="1" /><rect shape-rendering="crispEdges" fill="rgb(246, 156, 139)"  x="11" y="11" width="1" height="1" /><rect shape-rendering="crispEdges" fill="rgb(238, 139, 131)"  x="11" y="12" width="1" height="1" /><rect shape-rendering="crispEdges" fill="rgb(230, 156, 156)"  x="11" y="13" width="1" height="1" /><rect shape-rendering="crispEdges" fill="rgb(230, 139, 164)"  x="11" y="14" width="1" height="1" /><rect shape-rendering="crispEdges" fill="rgb(222, 148, 205)"  x="11" y="15" width="1" height="1" /><rect shape-rendering="crispEdges" fill="rgb(148, 115, 131)"  x="11" y="16" width="1" height="1" /><rect shape-rendering="crispEdges" fill="rgb(148, 115, 74)"  x="11" y="17" width="1" height="1" /><rect shape-rendering="crispEdges" fill="rgb(222, 189, 106)"  x="11" y="18" width="1" height="1" /><rect shape-rendering="crispEdges" fill="rgb(246, 230, 156)"  x="11" y="19" width="1" height="1" /><rect shape-rendering="crispEdges" fill="rgb(213, 172, 90)"  x="11" y="20" width="1" height="1" /><rect shape-rendering="crispEdges" fill="rgb(156, 106, 32)"  x="11" y="21" width="1" height="1" /><rect shape-rendering="crispEdges" fill="rgb(115, 65, 32)"  x="11" y="22" width="1" height="1" /><rect shape-rendering="crispEdges" fill="rgb(115, 49, 49)"  x="11" y="23" width="1" height="1" /><rect shape-rendering="crispEdges" fill="rgb(148, 65, 57)"  x="11" y="24" width="1" height="1" /><rect shape-rendering="crispEdges" fill="rgb(139, 57, 32)"  x="11" y="25" width="1" height="1" /><rect shape-rendering="crispEdges" fill="rgb(148, 65, 24)"  x="11" y="26" width="1" height="1" /><rect shape-rendering="crispEdges" fill="rgb(164, 82, 32)"  x="11" y="27" width="1" height="1" /><rect shape-rendering="crispEdges" fill="rgb(164, 74, 32)"  x="11" y="28" width="1" height="1" /><rect shape-rendering="crispEdges" fill="rgb(213, 123, 98)"  x="11" y="29" width="1" height="1" /><rect shape-rendering="crispEdges" fill="rgb(230, 139, 139)"  x="11" y="30" width="1" height="1" /><rect shape-rendering="crispEdges" fill="rgb(156, 139, 131)"  x="12" y="6" width="1" height="1" /><rect shape-rendering="crispEdges" fill="rgb(230, 156, 156)"  x="12" y="7" width="1" height="1" /><rect shape-rendering="crispEdges" fill="rgb(213, 115, 106)"  x="12" y="8" width="1" height="1" /><rect shape-rendering="crispEdges" fill="rgb(205, 98, 90)"  x="12" y="9" width="1" height="1" /><rect shape-rendering="crispEdges" fill="rgb(205, 90, 74)"  x="12" y="10" width="1" height="1" /><rect shape-rendering="crispEdges" fill="rgb(205, 82, 74)"  x="12" y="11" width="1" height="1" /><rect shape-rendering="crispEdges" fill="rgb(213, 90, 98)"  x="12" y="12" width="1" height="1" /><rect shape-rendering="crispEdges" fill="rgb(197, 98, 115)"  x="12" y="13" width="1" height="1" /><rect shape-rendering="crispEdges" fill="rgb(230, 139, 164)"  x="12" y="14" width="1" height="1" /><rect shape-rendering="crispEdges" fill="rgb(205, 148, 180)"  x="12" y="15" width="1" height="1" /><rect shape-rendering="crispEdges" fill="rgb(139, 106, 106)"  x="12" y="16" width="1" height="1" /><rect shape-rendering="crispEdges" fill="rgb(189, 172, 164)"  x="12" y="17" width="1" height="1" /><rect shape-rendering="crispEdges" fill="rgb(222, 205, 156)"  x="12" y="18" width="1" height="1" /><rect shape-rendering="crispEdges" fill="rgb(238, 205, 123)"  x="12" y="19" width="1" height="1" /><rect shape-rendering="crispEdges" fill="rgb(197, 156, 65)"  x="12" y="20" width="1" height="1" /><rect shape-rendering="crispEdges" fill="rgb(148, 115, 41)"  x="12" y="21" width="1" height="1" /><rect shape-rendering="crispEdges" fill="rgb(139, 82, 32)"  x="12" y="22" width="1" height="1" /><rect shape-rendering="crispEdges" fill="rgb(106, 41, 41)"  x="12" y="23" width="1" height="1" /><rect shape-rendering="crispEdges" fill="rgb(106, 49, 41)"  x="12" y="24" width="1" height="1" /><rect shape-rendering="crispEdges" fill="rgb(123, 49, 24)"  x="12" y="25" width="1" height="1" /><rect shape-rendering="crispEdges" fill="rgb(156, 65, 32)"  x="12" y="26" width="1" height="1" /><rect shape-rendering="crispEdges" fill="rgb(164, 74, 32)"  x="12" y="27" width="1" height="1" /><rect shape-rendering="crispEdges" fill="rgb(164, 74, 32)"  x="12" y="28" width="1" height="1" /><rect shape-rendering="crispEdges" fill="rgb(230, 131, 106)"  x="12" y="29" width="1" height="1" /><rect shape-rendering="crispEdges" fill="rgb(230, 131, 123)"  x="12" y="30" width="1" height="1" /><rect shape-rendering="crispEdges" fill="rgb(205, 164, 156)"  x="13" y="5" width="1" height="1" /><rect shape-rendering="crispEdges" fill="rgb(197, 123, 115)"  x="13" y="6" width="1" height="1" /><rect shape-rendering="crispEdges" fill="rgb(172, 74, 74)"  x="13" y="7" width="1" height="1" /><rect shape-rendering="crispEdges" fill="rgb(148, 49, 49)"  x="13" y="8" width="1" height="1" /><rect shape-rendering="crispEdges" fill="rgb(156, 57, 49)"  x="13" y="9" width="1" height="1" /><rect shape-rendering="crispEdges" fill="rgb(148, 49, 41)"  x="13" y="10" width="1" height="1" /><rect shape-rendering="crispEdges" fill="rgb(148, 57, 65)"  x="13" y="11" width="1" height="1" /><rect shape-rendering="crispEdges" fill="rgb(172, 74, 90)"  x="13" y="12" width="1" height="1" /><rect shape-rendering="crispEdges" fill="rgb(189, 106, 115)"  x="13" y="13" width="1" height="1" /><rect shape-rendering="crispEdges" fill="rgb(230, 131, 148)"  x="13" y="14" width="1" height="1" /><rect shape-rendering="crispEdges" fill="rgb(197, 123, 139)"  x="13" y="15" width="1" height="1" /><rect shape-rendering="crispEdges" fill="rgb(189, 164, 156)"  x="13" y="16" width="1" height="1" /><rect shape-rendering="crispEdges" fill="rgb(222, 205, 197)"  x="13" y="17" width="1" height="1" /><rect shape-rendering="crispEdges" fill="rgb(213, 189, 164)"  x="13" y="18" width="1" height="1" /><rect shape-rendering="crispEdges" fill="rgb(213, 172, 90)"  x="13" y="19" width="1" height="1" /><rect shape-rendering="crispEdges" fill="rgb(180, 139, 57)"  x="13" y="20" width="1" height="1" /><rect shape-rendering="crispEdges" fill="rgb(180, 139, 57)"  x="13" y="21" width="1" height="1" /><rect shape-rendering="crispEdges" fill="rgb(131, 82, 41)"  x="13" y="22" width="1" height="1" /><rect shape-rendering="crispEdges" fill="rgb(98, 49, 57)"  x="13" y="23" width="1" height="1" /><rect shape-rendering="crispEdges" fill="rgb(115, 49, 57)"  x="13" y="24" width="1" height="1" /><rect shape-rendering="crispEdges" fill="rgb(123, 49, 24)"  x="13" y="25" width="1" height="1" /><rect shape-rendering="crispEdges" fill="rgb(148, 65, 24)"  x="13" y="26" width="1" height="1" /><rect shape-rendering="crispEdges" fill="rgb(172, 82, 49)"  x="13" y="27" width="1" height="1" /><rect shape-rendering="crispEdges" fill="rgb(213, 115, 90)"  x="13" y="28" width="1" height="1" /><rect shape-rendering="crispEdges" fill="rgb(238, 131, 115)"  x="13" y="29" width="1" height="1" /><rect shape-rendering="crispEdges" fill="rgb(222, 131, 123)"  x="13" y="30" width="1" height="1" /><rect shape-rendering="crispEdges" fill="rgb(115, 82, 74)"  x="14" y="3" width="1" height="1" /><rect shape-rendering="crispEdges" fill="rgb(180, 115, 106)"  x="14" y="4" width="1" height="1" /><rect shape-rendering="crispEdges" fill="rgb(164, 90, 90)"  x="14" y="5" width="1" height="1" /><rect shape-rendering="crispEdges" fill="rgb(148, 65, 65)"  x="14" y="6" width="1" height="1" /><rect shape-rendering="crispEdges" fill="rgb(148, 82, 82)"  x="14" y="10" width="1" height="1" /><rect shape-rendering="crispEdges" fill="rgb(189, 90, 98)"  x="14" y="11" width="1" height="1" /><rect shape-rendering="crispEdges" fill="rgb(180, 90, 106)"  x="14" y="12" width="1" height="1" /><rect shape-rendering="crispEdges" fill="rgb(189, 106, 115)"  x="14" y="13" width="1" height="1" /><rect shape-rendering="crispEdges" fill="rgb(197, 98, 123)"  x="14" y="14" width="1" height="1" /><rect shape-rendering="crispEdges" fill="rgb(213, 139, 156)"  x="14" y="15" width="1" height="1" /><rect shape-rendering="crispEdges" fill="rgb(230, 189, 180)"  x="14" y="16" width="1" height="1" /><rect shape-rendering="crispEdges" fill="rgb(230, 197, 189)"  x="14" y="17" width="1" height="1" /><rect shape-rendering="crispEdges" fill="rgb(230, 222, 213)"  x="14" y="18" width="1" height="1" /><rect shape-rendering="crispEdges" fill="rgb(213, 189, 156)"  x="14" y="19" width="1" height="1" /><rect shape-rendering="crispEdges" fill="rgb(205, 172, 90)"  x="14" y="20" width="1" height="1" /><rect shape-rendering="crispEdges" fill="rgb(180, 139, 57)"  x="14" y="21" width="1" height="1" /><rect shape-rendering="crispEdges" fill="rgb(106, 57, 49)"  x="14" y="22" width="1" height="1" /><rect shape-rendering="crispEdges" fill="rgb(98, 49, 57)"  x="14" y="23" width="1" height="1" /><rect shape-rendering="crispEdges" fill="rgb(115, 49, 32)"  x="14" y="24" width="1" height="1" /><rect shape-rendering="crispEdges" fill="rgb(123, 49, 24)"  x="14" y="25" width="1" height="1" /><rect shape-rendering="crispEdges" fill="rgb(156, 74, 32)"  x="14" y="26" width="1" height="1" /><rect shape-rendering="crispEdges" fill="rgb(213, 115, 82)"  x="14" y="27" width="1" height="1" /><rect shape-rendering="crispEdges" fill="rgb(255, 148, 123)"  x="14" y="28" width="1" height="1" /><rect shape-rendering="crispEdges" fill="rgb(230, 123, 115)"  x="14" y="29" width="1" height="1" /><rect shape-rendering="crispEdges" fill="rgb(213, 106, 115)"  x="14" y="30" width="1" height="1" /><rect shape-rendering="crispEdges" fill="rgb(189, 123, 123)"  x="15" y="10" width="1" height="1" /><rect shape-rendering="crispEdges" fill="rgb(164, 65, 74)"  x="15" y="11" width="1" height="1" /><rect shape-rendering="crispEdges" fill="rgb(172, 65, 82)"  x="15" y="12" width="1" height="1" /><rect shape-rendering="crispEdges" fill="rgb(156, 65, 82)"  x="15" y="13" width="1" height="1" /><rect shape-rendering="crispEdges" fill="rgb(180, 90, 106)"  x="15" y="14" width="1" height="1" /><rect shape-rendering="crispEdges" fill="rgb(189, 106, 123)"  x="15" y="15" width="1" height="1" /><rect shape-rendering="crispEdges" fill="rgb(180, 98, 123)"  x="15" y="16" width="1" height="1" /><rect shape-rendering="crispEdges" fill="rgb(230, 172, 189)"  x="15" y="17" width="1" height="1" /><rect shape-rendering="crispEdges" fill="rgb(222, 222, 213)"  x="15" y="18" width="1" height="1" /><rect shape-rendering="crispEdges" fill="rgb(222, 205, 197)"  x="15" y="19" width="1" height="1" /><rect shape-rendering="crispEdges" fill="rgb(180, 139, 115)"  x="15" y="20" width="1" height="1" /><rect shape-rendering="crispEdges" fill="rgb(131, 82, 57)"  x="15" y="21" width="1" height="1" /><rect shape-rendering="crispEdges" fill="rgb(106, 49, 65)"  x="15" y="22" width="1" height="1" /><rect shape-rendering="crispEdges" fill="rgb(123, 57, 65)"  x="15" y="23" width="1" height="1" /><rect shape-rendering="crispEdges" fill="rgb(131, 57, 49)"  x="15" y="24" width="1" height="1" /><rect shape-rendering="crispEdges" fill="rgb(139, 57, 32)"  x="15" y="25" width="1" height="1" /><rect shape-rendering="crispEdges" fill="rgb(172, 82, 49)"  x="15" y="26" width="1" height="1" /><rect shape-rendering="crispEdges" fill="rgb(222, 115, 82)"  x="15" y="27" width="1" height="1" /><rect shape-rendering="crispEdges" fill="rgb(255, 148, 131)"  x="15" y="28" width="1" height="1" /><rect shape-rendering="crispEdges" fill="rgb(213, 115, 123)"  x="15" y="29" width="1" height="1" /><rect shape-rendering="crispEdges" fill="rgb(213, 106, 115)"  x="15" y="30" width="1" height="1" /><rect shape-rendering="crispEdges" fill="rgb(131, 90, 90)"  x="16" y="9" width="1" height="1" /><rect shape-rendering="crispEdges" fill="rgb(172, 82, 82)"  x="16" y="10" width="1" height="1" /><rect shape-rendering="crispEdges" fill="rgb(172, 65, 74)"  x="16" y="11" width="1" height="1" /><rect shape-rendering="crispEdges" fill="rgb(164, 74, 82)"  x="16" y="12" width="1" height="1" /><rect shape-rendering="crispEdges" fill="rgb(139, 49, 74)"  x="16" y="13" width="1" height="1" /><rect shape-rendering="crispEdges" fill="rgb(156, 65, 82)"  x="16" y="14" width="1" height="1" /><rect shape-rendering="crispEdges" fill="rgb(164, 65, 82)"  x="16" y="15" width="1" height="1" /><rect shape-rendering="crispEdges" fill="rgb(197, 74, 106)"  x="16" y="16" width="1" height="1" /><rect shape-rendering="crispEdges" fill="rgb(230, 131, 156)"  x="16" y="17" width="1" height="1" /><rect shape-rendering="crispEdges" fill="rgb(213, 189, 189)"  x="16" y="18" width="1" height="1" /><rect shape-rendering="crispEdges" fill="rgb(197, 172, 156)"  x="16" y="19" width="1" height="1" /><rect shape-rendering="crispEdges" fill="rgb(180, 131, 123)"  x="16" y="20" width="1" height="1" /><rect shape-rendering="crispEdges" fill="rgb(131, 65, 65)"  x="16" y="21" width="1" height="1" /><rect shape-rendering="crispEdges" fill="rgb(115, 57, 74)"  x="16" y="22" width="1" height="1" /><rect shape-rendering="crispEdges" fill="rgb(131, 65, 65)"  x="16" y="23" width="1" height="1" /><rect shape-rendering="crispEdges" fill="rgb(131, 65, 41)"  x="16" y="24" width="1" height="1" /><rect shape-rendering="crispEdges" fill="rgb(164, 82, 41)"  x="16" y="25" width="1" height="1" /><rect shape-rendering="crispEdges" fill="rgb(197, 98, 65)"  x="16" y="26" width="1" height="1" /><rect shape-rendering="crispEdges" fill="rgb(246, 148, 131)"  x="16" y="27" width="1" height="1" /><rect shape-rendering="crispEdges" fill="rgb(246, 156, 148)"  x="16" y="28" width="1" height="1" /><rect shape-rendering="crispEdges" fill="rgb(213, 123, 131)"  x="16" y="29" width="1" height="1" /><rect shape-rendering="crispEdges" fill="rgb(213, 106, 123)"  x="16" y="30" width="1" height="1" /><rect shape-rendering="crispEdges" fill="rgb(139, 90, 82)"  x="17" y="9" width="1" height="1" /><rect shape-rendering="crispEdges" fill="rgb(139, 65, 65)"  x="17" y="10" width="1" height="1" /><rect shape-rendering="crispEdges" fill="rgb(180, 106, 98)"  x="17" y="11" width="1" height="1" /><rect shape-rendering="crispEdges" fill="rgb(123, 57, 57)"  x="17" y="12" width="1" height="1" /><rect shape-rendering="crispEdges" fill="rgb(139, 57, 74)"  x="17" y="13" width="1" height="1" /><rect shape-rendering="crispEdges" fill="rgb(139, 57, 65)"  x="17" y="14" width="1" height="1" /><rect shape-rendering="crispEdges" fill="rgb(180, 74, 98)"  x="17" y="15" width="1" height="1" /><rect shape-rendering="crispEdges" fill="rgb(197, 74, 98)"  x="17" y="16" width="1" height="1" /><rect shape-rendering="crispEdges" fill="rgb(197, 98, 123)"  x="17" y="17" width="1" height="1" /><rect shape-rendering="crispEdges" fill="rgb(197, 156, 156)"  x="17" y="18" width="1" height="1" /><rect shape-rendering="crispEdges" fill="rgb(164, 115, 106)"  x="17" y="19" width="1" height="1" /><rect shape-rendering="crispEdges" fill="rgb(180, 115, 106)"  x="17" y="20" width="1" height="1" /><rect shape-rendering="crispEdges" fill="rgb(148, 82, 82)"  x="17" y="21" width="1" height="1" /><rect shape-rendering="crispEdges" fill="rgb(131, 65, 65)"  x="17" y="22" width="1" height="1" /><rect shape-rendering="crispEdges" fill="rgb(148, 74, 57)"  x="17" y="23" width="1" height="1" /><rect shape-rendering="crispEdges" fill="rgb(164, 82, 57)"  x="17" y="24" width="1" height="1" /><rect shape-rendering="crispEdges" fill="rgb(189, 90, 65)"  x="17" y="25" width="1" height="1" /><rect shape-rendering="crispEdges" fill="rgb(213, 115, 90)"  x="17" y="26" width="1" height="1" /><rect shape-rendering="crispEdges" fill="rgb(246, 156, 139)"  x="17" y="27" width="1" height="1" /><rect shape-rendering="crispEdges" fill="rgb(222, 106, 115)"  x="17" y="28" width="1" height="1" /><rect shape-rendering="crispEdges" fill="rgb(205, 98, 115)"  x="17" y="29" width="1" height="1" /><rect shape-rendering="crispEdges" fill="rgb(189, 82, 106)"  x="17" y="30" width="1" height="1" /><rect shape-rendering="crispEdges" fill="rgb(164, 115, 98)"  x="18" y="10" width="1" height="1" /><rect shape-rendering="crispEdges" fill="rgb(148, 82, 82)"  x="18" y="11" width="1" height="1" /><rect shape-rendering="crispEdges" fill="rgb(123, 57, 65)"  x="18" y="12" width="1" height="1" /><rect shape-rendering="crispEdges" fill="rgb(172, 74, 98)"  x="18" y="13" width="1" height="1" /><rect shape-rendering="crispEdges" fill="rgb(148, 57, 74)"  x="18" y="14" width="1" height="1" /><rect shape-rendering="crispEdges" fill="rgb(189, 82, 98)"  x="18" y="15" width="1" height="1" /><rect shape-rendering="crispEdges" fill="rgb(139, 49, 57)"  x="18" y="16" width="1" height="1" /><rect shape-rendering="crispEdges" fill="rgb(139, 65, 74)"  x="18" y="17" width="1" height="1" /><rect shape-rendering="crispEdges" fill="rgb(164, 115, 115)"  x="18" y="18" width="1" height="1" /><rect shape-rendering="crispEdges" fill="rgb(131, 65, 65)"  x="18" y="19" width="1" height="1" /><rect shape-rendering="crispEdges" fill="rgb(131, 57, 57)"  x="18" y="20" width="1" height="1" /><rect shape-rendering="crispEdges" fill="rgb(123, 65, 57)"  x="18" y="21" width="1" height="1" /><rect shape-rendering="crispEdges" fill="rgb(49, 24, 16)"  x="18" y="22" width="1" height="1" /><rect shape-rendering="crispEdges" fill="rgb(65, 32, 16)"  x="18" y="23" width="1" height="1" /><rect shape-rendering="crispEdges" fill="rgb(213, 115, 82)"  x="18" y="24" width="1" height="1" /><rect shape-rendering="crispEdges" fill="rgb(213, 106, 90)"  x="18" y="25" width="1" height="1" /><rect shape-rendering="crispEdges" fill="rgb(222, 115, 115)"  x="18" y="26" width="1" height="1" /><rect shape-rendering="crispEdges" fill="rgb(230, 115, 123)"  x="18" y="27" width="1" height="1" /><rect shape-rendering="crispEdges" fill="rgb(205, 82, 98)"  x="18" y="28" width="1" height="1" /><rect shape-rendering="crispEdges" fill="rgb(189, 82, 82)"  x="18" y="29" width="1" height="1" /><rect shape-rendering="crispEdges" fill="rgb(213, 123, 90)"  x="18" y="30" width="1" height="1" /><rect shape-rendering="crispEdges" fill="rgb(180, 123, 106)"  x="19" y="10" width="1" height="1" /><rect shape-rendering="crispEdges" fill="rgb(131, 65, 65)"  x="19" y="11" width="1" height="1" /><rect shape-rendering="crispEdges" fill="rgb(139, 65, 74)"  x="19" y="12" width="1" height="1" /><rect shape-rendering="crispEdges" fill="rgb(180, 82, 98)"  x="19" y="13" width="1" height="1" /><rect shape-rendering="crispEdges" fill="rgb(164, 82, 90)"  x="19" y="14" width="1" height="1" /><rect shape-rendering="crispEdges" fill="rgb(180, 90, 98)"  x="19" y="15" width="1" height="1" /><rect shape-rendering="crispEdges" fill="rgb(115, 32, 41)"  x="19" y="16" width="1" height="1" /><rect shape-rendering="crispEdges" fill="rgb(115, 32, 49)"  x="19" y="17" width="1" height="1" /><rect shape-rendering="crispEdges" fill="rgb(123, 57, 65)"  x="19" y="18" width="1" height="1" /><rect shape-rendering="crispEdges" fill="rgb(106, 41, 49)"  x="19" y="19" width="1" height="1" /><rect shape-rendering="crispEdges" fill="rgb(106, 32, 32)"  x="19" y="20" width="1" height="1" /><rect shape-rendering="crispEdges" fill="rgb(90, 32, 32)"  x="19" y="21" width="1" height="1" /><rect shape-rendering="crispEdges" fill="rgb(205, 106, 82)"  x="19" y="24" width="1" height="1" /><rect shape-rendering="crispEdges" fill="rgb(197, 90, 98)"  x="19" y="25" width="1" height="1" /><rect shape-rendering="crispEdges" fill="rgb(189, 90, 106)"  x="19" y="26" width="1" height="1" /><rect shape-rendering="crispEdges" fill="rgb(189, 82, 106)"  x="19" y="27" width="1" height="1" /><rect shape-rendering="crispEdges" fill="rgb(106, 41, 49)"  x="19" y="28" width="1" height="1" /><rect shape-rendering="crispEdges" fill="rgb(57, 32, 16)"  x="19" y="29" width="1" height="1" /><rect shape-rendering="crispEdges" fill="rgb(82, 49, 24)"  x="19" y="30" width="1" height="1" /><rect shape-rendering="crispEdges" fill="rgb(106, 74, 65)"  x="20" y="9" width="1" height="1" /><rect shape-rendering="crispEdges" fill="rgb(164, 90, 82)"  x="20" y="10" width="1" height="1" /><rect shape-rendering="crispEdges" fill="rgb(98, 49, 49)"  x="20" y="11" width="1" height="1" /><rect shape-rendering="crispEdges" fill="rgb(98, 41, 41)"  x="20" y="12" width="1" height="1" /><rect shape-rendering="crispEdges" fill="rgb(164, 74, 82)"  x="20" y="13" width="1" height="1" /><rect shape-rendering="crispEdges" fill="rgb(180, 98, 98)"  x="20" y="14" width="1" height="1" /><rect shape-rendering="crispEdges" fill="rgb(180, 90, 90)"  x="20" y="15" width="1" height="1" /><rect shape-rendering="crispEdges" fill="rgb(123, 41, 49)"  x="20" y="16" width="1" height="1" /><rect shape-rendering="crispEdges" fill="rgb(148, 49, 65)"  x="20" y="17" width="1" height="1" /><rect shape-rendering="crispEdges" fill="rgb(106, 41, 41)"  x="20" y="18" width="1" height="1" /><rect shape-rendering="crispEdges" fill="rgb(90, 24, 32)"  x="20" y="19" width="1" height="1" /><rect shape-rendering="crispEdges" fill="rgb(123, 41, 49)"  x="20" y="20" width="1" height="1" /><rect shape-rendering="crispEdges" fill="rgb(57, 16, 16)"  x="20" y="21" width="1" height="1" /><rect shape-rendering="crispEdges" fill="rgb(98, 49, 41)"  x="20" y="23" width="1" height="1" /><rect shape-rendering="crispEdges" fill="rgb(213, 98, 98)"  x="20" y="24" width="1" height="1" /><rect shape-rendering="crispEdges" fill="rgb(189, 82, 106)"  x="20" y="25" width="1" height="1" /><rect shape-rendering="crispEdges" fill="rgb(197, 82, 115)"  x="20" y="26" width="1" height="1" /><rect shape-rendering="crispEdges" fill="rgb(164, 74, 90)"  x="20" y="27" width="1" height="1" /><rect shape-rendering="crispEdges" fill="rgb(0, 0, 0)"  x="20" y="28" width="1" height="1" /><rect shape-rendering="crispEdges" fill="rgb(0, 0, 0)"  x="20" y="29" width="1" height="1" /><rect shape-rendering="crispEdges" fill="rgb(0, 0, 0)"  x="20" y="30" width="1" height="1" /><rect shape-rendering="crispEdges" fill="rgb(197, 131, 115)"  x="21" y="9" width="1" height="1" /><rect shape-rendering="crispEdges" fill="rgb(115, 57, 49)"  x="21" y="10" width="1" height="1" /><rect shape-rendering="crispEdges" fill="rgb(90, 41, 49)"  x="21" y="13" width="1" height="1" /><rect shape-rendering="crispEdges" fill="rgb(172, 82, 90)"  x="21" y="14" width="1" height="1" /><rect shape-rendering="crispEdges" fill="rgb(156, 65, 65)"  x="21" y="15" width="1" height="1" /><rect shape-rendering="crispEdges" fill="rgb(131, 49, 49)"  x="21" y="16" width="1" height="1" /><rect shape-rendering="crispEdges" fill="rgb(156, 57, 65)"  x="21" y="17" width="1" height="1" /><rect shape-rendering="crispEdges" fill="rgb(82, 24, 24)"  x="21" y="18" width="1" height="1" /><rect shape-rendering="crispEdges" fill="rgb(123, 49, 57)"  x="21" y="20" width="1" height="1" /><rect shape-rendering="crispEdges" fill="rgb(123, 57, 57)"  x="21" y="23" width="1" height="1" /><rect shape-rendering="crispEdges" fill="rgb(164, 74, 90)"  x="21" y="24" width="1" height="1" /><rect shape-rendering="crispEdges" fill="rgb(131, 49, 65)"  x="21" y="25" width="1" height="1" /><rect shape-rendering="crispEdges" fill="rgb(123, 49, 57)"  x="21" y="26" width="1" height="1" /><rect shape-rendering="crispEdges" fill="rgb(57, 24, 24)"  x="21" y="27" width="1" height="1" /><rect shape-rendering="crispEdges" fill="rgb(0, 0, 0)"  x="21" y="28" width="1" height="1" /><rect shape-rendering="crispEdges" fill="rgb(8, 0, 8)"  x="21" y="29" width="1" height="1" /><rect shape-rendering="crispEdges" fill="rgb(123, 65, 74)"  x="21" y="30" width="1" height="1" /><rect shape-rendering="crispEdges" fill="rgb(98, 65, 57)"  x="22" y="8" width="1" height="1" /><rect shape-rendering="crispEdges" fill="rgb(189, 106, 98)"  x="22" y="9" width="1" height="1" /><rect shape-rendering="crispEdges" fill="rgb(65, 41, 41)"  x="22" y="13" width="1" height="1" /><rect shape-rendering="crispEdges" fill="rgb(156, 74, 74)"  x="22" y="14" width="1" height="1" /><rect shape-rendering="crispEdges" fill="rgb(131, 49, 49)"  x="22" y="15" width="1" height="1" /><rect shape-rendering="crispEdges" fill="rgb(139, 57, 65)"  x="22" y="16" width="1" height="1" /><rect shape-rendering="crispEdges" fill="rgb(106, 49, 49)"  x="22" y="17" width="1" height="1" /><rect shape-rendering="crispEdges" fill="rgb(82, 32, 32)"  x="22" y="20" width="1" height="1" /><rect shape-rendering="crispEdges" fill="rgb(8, 0, 0)"  x="22" y="27" width="1" height="1" /><rect shape-rendering="crispEdges" fill="rgb(123, 65, 57)"  x="22" y="28" width="1" height="1" /><rect shape-rendering="crispEdges" fill="rgb(189, 106, 106)"  x="22" y="29" width="1" height="1" /><rect shape-rendering="crispEdges" fill="rgb(148, 57, 74)"  x="22" y="30" width="1" height="1" /><rect shape-rendering="crispEdges" fill="rgb(205, 131, 115)"  x="23" y="8" width="1" height="1" /><rect shape-rendering="crispEdges" fill="rgb(123, 82, 82)"  x="23" y="13" width="1" height="1" /><rect shape-rendering="crispEdges" fill="rgb(131, 57, 57)"  x="23" y="14" width="1" height="1" /><rect shape-rendering="crispEdges" fill="rgb(131, 57, 65)"  x="23" y="15" width="1" height="1" /><rect shape-rendering="crispEdges" fill="rgb(106, 41, 49)"  x="23" y="16" width="1" height="1" /><rect shape-rendering="crispEdges" fill="rgb(156, 90, 82)"  x="23" y="27" width="1" height="1" /><rect shape-rendering="crispEdges" fill="rgb(230, 115, 115)"  x="23" y="28" width="1" height="1" /><rect shape-rendering="crispEdges" fill="rgb(180, 57, 65)"  x="23" y="29" width="1" height="1" /><rect shape-rendering="crispEdges" fill="rgb(131, 24, 41)"  x="23" y="30" width="1" height="1" /><rect shape-rendering="crispEdges" fill="rgb(180, 115, 106)"  x="24" y="13" width="1" height="1" /><rect shape-rendering="crispEdges" fill="rgb(139, 49, 57)"  x="24" y="14" width="1" height="1" /><rect shape-rendering="crispEdges" fill="rgb(106, 41, 49)"  x="24" y="15" width="1" height="1" /><rect shape-rendering="crispEdges" fill="rgb(65, 32, 24)"  x="24" y="25" width="1" height="1" /><rect shape-rendering="crispEdges" fill="rgb(172, 82, 65)"  x="24" y="26" width="1" height="1" /><rect shape-rendering="crispEdges" fill="rgb(180, 74, 57)"  x="24" y="27" width="1" height="1" /><rect shape-rendering="crispEdges" fill="rgb(115, 32, 32)"  x="24" y="28" width="1" height="1" /><rect shape-rendering="crispEdges" fill="rgb(164, 49, 49)"  x="24" y="29" width="1" height="1" /><rect shape-rendering="crispEdges" fill="rgb(156, 65, 57)"  x="24" y="30" width="1" height="1" /><rect shape-rendering="crispEdges" fill="rgb(172, 131, 123)"  x="25" y="12" width="1" height="1" /><rect shape-rendering="crispEdges" fill="rgb(156, 74, 74)"  x="25" y="13" width="1" height="1" /><rect shape-rendering="crispEdges" fill="rgb(57, 32, 32)"  x="25" y="24" width="1" height="1" /><rect shape-rendering="crispEdges" fill="rgb(32, 16, 8)"  x="25" y="25" width="1" height="1" /><rect shape-rendering="crispEdges" fill="rgb(32, 8, 8)"  x="25" y="26" width="1" height="1" /><rect shape-rendering="crispEdges" fill="rgb(24, 8, 8)"  x="25" y="27" width="1" height="1" /><rect shape-rendering="crispEdges" fill="rgb(41, 16, 16)"  x="25" y="28" width="1" height="1" /><rect shape-rendering="crispEdges" fill="rgb(139, 65, 57)"  x="25" y="29" width="1" height="1" /><rect shape-rendering="crispEdges" fill="rgb(123, 41, 24)"  x="25" y="30" width="1" height="1" /><rect shape-rendering="crispEdges" fill="rgb(180, 115, 98)"  x="26" y="12" width="1" height="1" /><rect shape-rendering="crispEdges" fill="rgb(32, 16, 16)"  x="26" y="23" width="1" height="1" /><rect shape-rendering="crispEdges" fill="rgb(0, 0, 0)"  x="26" y="24" width="1" height="1" /><rect shape-rendering="crispEdges" fill="rgb(0, 0, 0)"  x="26" y="25" width="1" height="1" /><rect shape-rendering="crispEdges" fill="rgb(0, 0, 0)"  x="26" y="26" width="1" height="1" /><rect shape-rendering="crispEdges" fill="rgb(106, 57, 49)"  x="26" y="27" width="1" height="1" /><rect shape-rendering="crispEdges" fill="rgb(156, 74, 82)"  x="26" y="28" width="1" height="1" /><rect shape-rendering="crispEdges" fill="rgb(164, 74, 74)"  x="26" y="29" width="1" height="1" /><rect shape-rendering="crispEdges" fill="rgb(205, 98, 74)"  x="26" y="30" width="1" height="1" /><rect shape-rendering="crispEdges" fill="rgb(16, 8, 8)"  x="27" y="23" width="1" height="1" /><rect shape-rendering="crispEdges" fill="rgb(57, 24, 24)"  x="27" y="24" width="1" height="1" /><rect shape-rendering="crispEdges" fill="rgb(82, 32, 41)"  x="27" y="25" width="1" height="1" /><rect shape-rendering="crispEdges" fill="rgb(115, 49, 57)"  x="27" y="26" width="1" height="1" /><rect shape-rendering="crispEdges" fill="rgb(172, 82, 98)"  x="27" y="27" width="1" height="1" /><rect shape-rendering="crispEdges" fill="rgb(180, 82, 98)"  x="27" y="28" width="1" height="1" /><rect shape-rendering="crispEdges" fill="rgb(230, 115, 106)"  x="27" y="29" width="1" height="1" /><rect shape-rendering="crispEdges" fill="rgb(238, 131, 123)"  x="27" y="30" width="1" height="1" /><rect shape-rendering="crispEdges" fill="rgb(32, 16, 16)"  x="28" y="21" width="1" height="1" /><rect shape-rendering="crispEdges" fill="rgb(90, 32, 32)"  x="28" y="22" width="1" height="1" /><rect shape-rendering="crispEdges" fill="rgb(164, 65, 65)"  x="28" y="23" width="1" height="1" /><rect shape-rendering="crispEdges" fill="rgb(156, 74, 65)"  x="28" y="24" width="1" height="1" /><rect shape-rendering="crispEdges" fill="rgb(139, 49, 57)"  x="28" y="25" width="1" height="1" /><rect shape-rendering="crispEdges" fill="rgb(123, 41, 49)"  x="28" y="26" width="1" height="1" /><rect shape-rendering="crispEdges" fill="rgb(115, 32, 32)"  x="28" y="27" width="1" height="1" /><rect shape-rendering="crispEdges" fill="rgb(131, 41, 41)"  x="28" y="28" width="1" height="1" /><rect shape-rendering="crispEdges" fill="rgb(131, 57, 49)"  x="28" y="29" width="1" height="1" /><rect shape-rendering="crispEdges" fill="rgb(106, 57, 49)"  x="28" y="30" width="1" height="1" /><rect shape-rendering="crispEdges" fill="rgb(57, 24, 16)"  x="29" y="20" width="1" height="1" /><rect shape-rendering="crispEdges" fill="rgb(74, 24, 24)"  x="29" y="21" width="1" height="1" /><rect shape-rendering="crispEdges" fill="rgb(65, 16, 16)"  x="29" y="22" width="1" height="1" /><rect shape-rendering="crispEdges" fill="rgb(49, 8, 8)"  x="29" y="23" width="1" height="1" /><rect shape-rendering="crispEdges" fill="rgb(65, 16, 16)"  x="29" y="24" width="1" height="1" /><rect shape-rendering="crispEdges" fill="rgb(57, 8, 8)"  x="29" y="25" width="1" height="1" /><rect shape-rendering="crispEdges" fill="rgb(41, 0, 0)"  x="29" y="26" width="1" height="1" /><rect shape-rendering="crispEdges" fill="rgb(32, 0, 0)"  x="29" y="27" width="1" height="1" /><rect shape-rendering="crispEdges" fill="rgb(16, 0, 0)"  x="29" y="28" width="1" height="1" /><rect shape-rendering="crispEdges" fill="rgb(0, 0, 0)"  x="29" y="29" width="1" height="1" /><rect shape-rendering="crispEdges" fill="rgb(0, 0, 0)"  x="29" y="30" width="1" height="1" /></svg>