<svg xmlns="http://www.w3.org/2000/svg" xmlns:xlink= "http://www.w3.org/1999/xlink" width="32" height="32" viewBox ="0 0 32 32"><rect shape-rendering="crispEdges" fill="rgb(98, 90, 115)"  x="1" y="21" width="1" height="1" /><rect shape-rendering="crispEdges" fill="rgb(189, 197, 222)"  x="2" y="19" width="1" height="1" /><rect shape-rendering="crispEdges" fill="rgb(164, 172, 197)"  x="2" y="20" width="1" height="1" /><rect shape-rendering="crispEdges" fill="rgb(90, 82, 98)"  x="2" y="21" width="1" height="1" /><rect shape-rendering="crispEdges" fill="rgb(189, 197, 222)"  x="3" y="18" width="1" height="1" /><rect shape-rendering="crispEdges" fill="rgb(246, 255, 255)"  x="3" y="19" width="1" height="1" /><rect shape-rendering="crispEdges" fill="rgb(222, 230, 246)"  x="3" y="20" width="1" height="1" /><rect shape-rendering="crispEdges" fill="rgb(115, 123, 139)"  x="3" y="21" width="1" height="1" /><rect shape-rendering="crispEdges" fill="rgb(189, 197, 222)"  x="4" y="18" width="1" height="1" /><rect shape-rendering="crispEdges" fill="rgb(246, 255, 255)"  x="4" y="19" width="1" height="1" /><rect shape-rendering="crispEdges" fill="rgb(197, 205, 230)"  x="4" y="20" width="1" height="1" /><rect shape-rendering="crispEdges" fill="rgb(115, 123, 139)"  x="4" y="21" width="1" height="1" /><rect shape-rendering="crispEdges" fill="rgb(189, 197, 222)"  x="5" y="17" width="1" height="1" /><rect shape-rendering="crispEdges" fill="rgb(238, 255, 246)"  x="5" y="18" width="1" height="1" /><rect shape-rendering="crispEdges" fill="rgb(213, 222, 238)"  x="5" y="19" width="1" height="1" /><rect shape-rendering="crispEdges" fill="rgb(148, 164, 180)"  x="5" y="20" width="1" height="1" /><rect shape-rendering="crispEdges" fill="rgb(115, 189, 123)"  x="6" y="16" width="1" height="1" /><rect shape-rendering="crispEdges" fill="rgb(115, 180, 123)"  x="6" y="17" width="1" height="1" /><rect shape-rendering="crispEdges" fill="rgb(74, 148, 90)"  x="6" y="18" width="1" height="1" /><rect shape-rendering="crispEdges" fill="rgb(90, 139, 98)"  x="6" y="19" width="1" height="1" /><rect shape-rendering="crispEdges" fill="rgb(205, 172, 90)"  x="6" y="20" width="1" height="1" /><rect shape-rendering="crispEdges" fill="rgb(205, 172, 90)"  x="6" y="21" width="1" height="1" /><rect shape-rendering="crispEdges" fill="rgb(205, 172, 90)"  x="6" y="22" width="1" height="1" /><rect shape-rendering="crispEdges" fill="rgb(180, 16, 24)"  x="7" y="13" width="1" height="1" /><rect shape-rendering="crispEdges" fill="rgb(189, 24, 24)"  x="7" y="14" width="1" height="1" /><rect shape-rendering="crispEdges" fill="rgb(90, 115, 74)"  x="7" y="15" width="1" height="1" /><rect shape-rendering="crispEdges" fill="rgb(82, 189, 106)"  x="7" y="16" width="1" height="1" /><rect shape-rendering="crispEdges" fill="rgb(74, 148, 90)"  x="7" y="17" width="1" height="1" /><rect shape-rendering="crispEdges" fill="rgb(148, 32, 24)"  x="7" y="18" width="1" height="1" /><rect shape-rendering="crispEdges" fill="rgb(230, 189, 123)"  x="7" y="19" width="1" height="1" /><rect shape-rendering="crispEdges" fill="rgb(230, 164, 82)"  x="7" y="20" width="1" height="1" /><rect shape-rendering="crispEdges" fill="rgb(255, 255, 180)"  x="7" y="21" width="1" height="1" /><rect shape-rendering="crispEdges" fill="rgb(255, 255, 230)"  x="7" y="22" width="1" height="1" /><rect shape-rendering="crispEdges" fill="rgb(205, 172, 90)"  x="7" y="23" width="1" height="1" /><rect shape-rendering="crispEdges" fill="rgb(180, 16, 24)"  x="8" y="11" width="1" height="1" /><rect shape-rendering="crispEdges" fill="rgb(180, 16, 24)"  x="8" y="12" width="1" height="1" /><rect shape-rendering="crispEdges" fill="rgb(205, 32, 41)"  x="8" y="13" width="1" height="1" /><rect shape-rendering="crispEdges" fill="rgb(90, 115, 74)"  x="8" y="14" width="1" height="1" /><rect shape-rendering="crispEdges" fill="rgb(82, 82, 57)"  x="8" y="15" width="1" height="1" /><rect shape-rendering="crispEdges" fill="rgb(74, 82, 57)"  x="8" y="16" width="1" height="1" /><rect shape-rendering="crispEdges" fill="rgb(172, 16, 24)"  x="8" y="17" width="1" height="1" /><rect shape-rendering="crispEdges" fill="rgb(172, 24, 24)"  x="8" y="18" width="1" height="1" /><rect shape-rendering="crispEdges" fill="rgb(230, 189, 123)"  x="8" y="19" width="1" height="1" /><rect shape-rendering="crispEdges" fill="rgb(246, 230, 180)"  x="8" y="20" width="1" height="1" /><rect shape-rendering="crispEdges" fill="rgb(230, 164, 82)"  x="8" y="21" width="1" height="1" /><rect shape-rendering="crispEdges" fill="rgb(255, 246, 180)"  x="8" y="22" width="1" height="1" /><rect shape-rendering="crispEdges" fill="rgb(246, 213, 139)"  x="8" y="23" width="1" height="1" /><rect shape-rendering="crispEdges" fill="rgb(172, 115, 65)"  x="8" y="24" width="1" height="1" /><rect shape-rendering="crispEdges" fill="rgb(131, 82, 98)"  x="9" y="9" width="1" height="1" /><rect shape-rendering="crispEdges" fill="rgb(139, 49, 74)"  x="9" y="10" width="1" height="1" /><rect shape-rendering="crispEdges" fill="rgb(213, 246, 255)"  x="9" y="11" width="1" height="1" /><rect shape-rendering="crispEdges" fill="rgb(213, 246, 255)"  x="9" y="12" width="1" height="1" /><rect shape-rendering="crispEdges" fill="rgb(213, 246, 255)"  x="9" y="13" width="1" height="1" /><rect shape-rendering="crispEdges" fill="rgb(156, 16, 16)"  x="9" y="14" width="1" height="1" /><rect shape-rendering="crispEdges" fill="rgb(205, 24, 32)"  x="9" y="15" width="1" height="1" /><rect shape-rendering="crispEdges" fill="rgb(172, 16, 24)"  x="9" y="16" width="1" height="1" /><rect shape-rendering="crispEdges" fill="rgb(213, 16, 24)"  x="9" y="17" width="1" height="1" /><rect shape-rendering="crispEdges" fill="rgb(180, 24, 32)"  x="9" y="18" width="1" height="1" /><rect shape-rendering="crispEdges" fill="rgb(230, 180, 90)"  x="9" y="19" width="1" height="1" /><rect shape-rendering="crispEdges" fill="rgb(246, 213, 131)"  x="9" y="20" width="1" height="1" /><rect shape-rendering="crispEdges" fill="rgb(238, 205, 139)"  x="9" y="21" width="1" height="1" /><rect shape-rendering="crispEdges" fill="rgb(222, 148, 74)"  x="9" y="22" width="1" height="1" /><rect shape-rendering="crispEdges" fill="rgb(172, 115, 65)"  x="9" y="23" width="1" height="1" /><rect shape-rendering="crispEdges" fill="rgb(74, 57, 32)"  x="9" y="24" width="1" height="1" /><rect shape-rendering="crispEdges" fill="rgb(222, 230, 255)"  x="10" y="7" width="1" height="1" /><rect shape-rendering="crispEdges" fill="rgb(205, 213, 255)"  x="10" y="8" width="1" height="1" /><rect shape-rendering="crispEdges" fill="rgb(197, 205, 238)"  x="10" y="9" width="1" height="1" /><rect shape-rendering="crispEdges" fill="rgb(255, 255, 255)"  x="10" y="10" width="1" height="1" /><rect shape-rendering="crispEdges" fill="rgb(255, 255, 255)"  x="10" y="11" width="1" height="1" /><rect shape-rendering="crispEdges" fill="rgb(164, 139, 148)"  x="10" y="12" width="1" height="1" /><rect shape-rendering="crispEdges" fill="rgb(238, 246, 255)"  x="10" y="13" width="1" height="1" /><rect shape-rendering="crispEdges" fill="rgb(213, 246, 255)"  x="10" y="14" width="1" height="1" /><rect shape-rendering="crispEdges" fill="rgb(156, 16, 16)"  x="10" y="15" width="1" height="1" /><rect shape-rendering="crispEdges" fill="rgb(82, 90, 57)"  x="10" y="16" width="1" height="1" /><rect shape-rendering="crispEdges" fill="rgb(90, 115, 74)"  x="10" y="17" width="1" height="1" /><rect shape-rendering="crispEdges" fill="rgb(148, 49, 41)"  x="10" y="18" width="1" height="1" /><rect shape-rendering="crispEdges" fill="rgb(164, 82, 57)"  x="10" y="19" width="1" height="1" /><rect shape-rendering="crispEdges" fill="rgb(230, 180, 90)"  x="10" y="20" width="1" height="1" /><rect shape-rendering="crispEdges" fill="rgb(230, 180, 106)"  x="10" y="21" width="1" height="1" /><rect shape-rendering="crispEdges" fill="rgb(213, 156, 82)"  x="10" y="22" width="1" height="1" /><rect shape-rendering="crispEdges" fill="rgb(139, 57, 24)"  x="10" y="23" width="1" height="1" /><rect shape-rendering="crispEdges" fill="rgb(148, 148, 164)"  x="10" y="24" width="1" height="1" /><rect shape-rendering="crispEdges" fill="rgb(90, 98, 115)"  x="10" y="25" width="1" height="1" /><rect shape-rendering="crispEdges" fill="rgb(222, 230, 246)"  x="11" y="6" width="1" height="1" /><rect shape-rendering="crispEdges" fill="rgb(255, 255, 255)"  x="11" y="7" width="1" height="1" /><rect shape-rendering="crispEdges" fill="rgb(238, 238, 255)"  x="11" y="8" width="1" height="1" /><rect shape-rendering="crispEdges" fill="rgb(205, 213, 255)"  x="11" y="9" width="1" height="1" /><rect shape-rendering="crispEdges" fill="rgb(255, 255, 255)"  x="11" y="10" width="1" height="1" /><rect shape-rendering="crispEdges" fill="rgb(255, 255, 255)"  x="11" y="11" width="1" height="1" /><rect shape-rendering="crispEdges" fill="rgb(213, 197, 197)"  x="11" y="12" width="1" height="1" /><rect shape-rendering="crispEdges" fill="rgb(139, 98, 106)"  x="11" y="13" width="1" height="1" /><rect shape-rendering="crispEdges" fill="rgb(230, 255, 255)"  x="11" y="14" width="1" height="1" /><rect shape-rendering="crispEdges" fill="rgb(156, 16, 16)"  x="11" y="15" width="1" height="1" /><rect shape-rendering="crispEdges" fill="rgb(180, 16, 24)"  x="11" y="16" width="1" height="1" /><rect shape-rendering="crispEdges" fill="rgb(57, 90, 57)"  x="11" y="17" width="1" height="1" /><rect shape-rendering="crispEdges" fill="rgb(123, 65, 49)"  x="11" y="18" width="1" height="1" /><rect shape-rendering="crispEdges" fill="rgb(156, 24, 24)"  x="11" y="19" width="1" height="1" /><rect shape-rendering="crispEdges" fill="rgb(156, 74, 41)"  x="11" y="20" width="1" height="1" /><rect shape-rendering="crispEdges" fill="rgb(156, 98, 49)"  x="11" y="21" width="1" height="1" /><rect shape-rendering="crispEdges" fill="rgb(164, 90, 41)"  x="11" y="22" width="1" height="1" /><rect shape-rendering="crispEdges" fill="rgb(156, 98, 49)"  x="11" y="23" width="1" height="1" /><rect shape-rendering="crispEdges" fill="rgb(57, 106, 65)"  x="11" y="24" width="1" height="1" /><rect shape-rendering="crispEdges" fill="rgb(57, 106, 65)"  x="11" y="25" width="1" height="1" /><rect shape-rendering="crispEdges" fill="rgb(82, 139, 106)"  x="11" y="26" width="1" height="1" /><rect shape-rendering="crispEdges" fill="rgb(57, 106, 65)"  x="11" y="27" width="1" height="1" /><rect shape-rendering="crispEdges" fill="rgb(189, 74, 82)"  x="12" y="5" width="1" height="1" /><rect shape-rendering="crispEdges" fill="rgb(222, 164, 172)"  x="12" y="6" width="1" height="1" /><rect shape-rendering="crispEdges" fill="rgb(255, 255, 255)"  x="12" y="7" width="1" height="1" /><rect shape-rendering="crispEdges" fill="rgb(238, 238, 255)"  x="12" y="8" width="1" height="1" /><rect shape-rendering="crispEdges" fill="rgb(205, 213, 255)"  x="12" y="9" width="1" height="1" /><rect shape-rendering="crispEdges" fill="rgb(255, 255, 255)"  x="12" y="10" width="1" height="1" /><rect shape-rendering="crispEdges" fill="rgb(255, 255, 255)"  x="12" y="11" width="1" height="1" /><rect shape-rendering="crispEdges" fill="rgb(222, 205, 213)"  x="12" y="12" width="1" height="1" /><rect shape-rendering="crispEdges" fill="rgb(180, 148, 156)"  x="12" y="13" width="1" height="1" /><rect shape-rendering="crispEdges" fill="rgb(230, 255, 255)"  x="12" y="14" width="1" height="1" /><rect shape-rendering="crispEdges" fill="rgb(189, 123, 139)"  x="12" y="15" width="1" height="1" /><rect shape-rendering="crispEdges" fill="rgb(148, 41, 49)"  x="12" y="16" width="1" height="1" /><rect shape-rendering="crispEdges" fill="rgb(41, 82, 49)"  x="12" y="17" width="1" height="1" /><rect shape-rendering="crispEdges" fill="rgb(123, 65, 49)"  x="12" y="18" width="1" height="1" /><rect shape-rendering="crispEdges" fill="rgb(197, 24, 32)"  x="12" y="19" width="1" height="1" /><rect shape-rendering="crispEdges" fill="rgb(172, 16, 24)"  x="12" y="20" width="1" height="1" /><rect shape-rendering="crispEdges" fill="rgb(74, 49, 32)"  x="12" y="21" width="1" height="1" /><rect shape-rendering="crispEdges" fill="rgb(74, 57, 32)"  x="12" y="22" width="1" height="1" /><rect shape-rendering="crispEdges" fill="rgb(65, 41, 32)"  x="12" y="23" width="1" height="1" /><rect shape-rendering="crispEdges" fill="rgb(82, 57, 24)"  x="12" y="24" width="1" height="1" /><rect shape-rendering="crispEdges" fill="rgb(213, 82, 57)"  x="12" y="25" width="1" height="1" /><rect shape-rendering="crispEdges" fill="rgb(213, 82, 57)"  x="12" y="26" width="1" height="1" /><rect shape-rendering="crispEdges" fill="rgb(213, 82, 57)"  x="12" y="27" width="1" height="1" /><rect shape-rendering="crispEdges" fill="rgb(222, 65, 65)"  x="13" y="4" width="1" height="1" /><rect shape-rendering="crispEdges" fill="rgb(222, 74, 82)"  x="13" y="5" width="1" height="1" /><rect shape-rendering="crispEdges" fill="rgb(222, 164, 172)"  x="13" y="6" width="1" height="1" /><rect shape-rendering="crispEdges" fill="rgb(255, 255, 255)"  x="13" y="7" width="1" height="1" /><rect shape-rendering="crispEdges" fill="rgb(238, 238, 255)"  x="13" y="8" width="1" height="1" /><rect shape-rendering="crispEdges" fill="rgb(205, 213, 255)"  x="13" y="9" width="1" height="1" /><rect shape-rendering="crispEdges" fill="rgb(255, 255, 255)"  x="13" y="10" width="1" height="1" /><rect shape-rendering="crispEdges" fill="rgb(255, 255, 255)"  x="13" y="11" width="1" height="1" /><rect shape-rendering="crispEdges" fill="rgb(255, 255, 255)"  x="13" y="12" width="1" height="1" /><rect shape-rendering="crispEdges" fill="rgb(139, 98, 106)"  x="13" y="13" width="1" height="1" /><rect shape-rendering="crispEdges" fill="rgb(230, 255, 255)"  x="13" y="14" width="1" height="1" /><rect shape-rendering="crispEdges" fill="rgb(189, 123, 139)"  x="13" y="15" width="1" height="1" /><rect shape-rendering="crispEdges" fill="rgb(148, 41, 49)"  x="13" y="16" width="1" height="1" /><rect shape-rendering="crispEdges" fill="rgb(41, 82, 49)"  x="13" y="17" width="1" height="1" /><rect shape-rendering="crispEdges" fill="rgb(49, 131, 82)"  x="13" y="18" width="1" height="1" /><rect shape-rendering="crispEdges" fill="rgb(123, 65, 49)"  x="13" y="19" width="1" height="1" /><rect shape-rendering="crispEdges" fill="rgb(213, 16, 32)"  x="13" y="20" width="1" height="1" /><rect shape-rendering="crispEdges" fill="rgb(32, 82, 49)"  x="13" y="21" width="1" height="1" /><rect shape-rendering="crispEdges" fill="rgb(41, 131, 74)"  x="13" y="22" width="1" height="1" /><rect shape-rendering="crispEdges" fill="rgb(32, 98, 57)"  x="13" y="23" width="1" height="1" /><rect shape-rendering="crispEdges" fill="rgb(74, 41, 32)"  x="13" y="24" width="1" height="1" /><rect shape-rendering="crispEdges" fill="rgb(172, 24, 16)"  x="13" y="25" width="1" height="1" /><rect shape-rendering="crispEdges" fill="rgb(238, 8, 16)"  x="13" y="26" width="1" height="1" /><rect shape-rendering="crispEdges" fill="rgb(238, 8, 16)"  x="13" y="27" width="1" height="1" /><rect shape-rendering="crispEdges" fill="rgb(222, 65, 65)"  x="14" y="3" width="1" height="1" /><rect shape-rendering="crispEdges" fill="rgb(255, 90, 90)"  x="14" y="4" width="1" height="1" /><rect shape-rendering="crispEdges" fill="rgb(238, 74, 74)"  x="14" y="5" width="1" height="1" /><rect shape-rendering="crispEdges" fill="rgb(189, 123, 139)"  x="14" y="6" width="1" height="1" /><rect shape-rendering="crispEdges" fill="rgb(255, 255, 255)"  x="14" y="7" width="1" height="1" /><rect shape-rendering="crispEdges" fill="rgb(238, 238, 255)"  x="14" y="8" width="1" height="1" /><rect shape-rendering="crispEdges" fill="rgb(205, 213, 255)"  x="14" y="9" width="1" height="1" /><rect shape-rendering="crispEdges" fill="rgb(255, 255, 255)"  x="14" y="10" width="1" height="1" /><rect shape-rendering="crispEdges" fill="rgb(255, 255, 255)"  x="14" y="11" width="1" height="1" /><rect shape-rendering="crispEdges" fill="rgb(255, 255, 255)"  x="14" y="12" width="1" height="1" /><rect shape-rendering="crispEdges" fill="rgb(180, 148, 148)"  x="14" y="13" width="1" height="1" /><rect shape-rendering="crispEdges" fill="rgb(230, 255, 255)"  x="14" y="14" width="1" height="1" /><rect shape-rendering="crispEdges" fill="rgb(189, 123, 139)"  x="14" y="15" width="1" height="1" /><rect shape-rendering="crispEdges" fill="rgb(148, 41, 49)"  x="14" y="16" width="1" height="1" /><rect shape-rendering="crispEdges" fill="rgb(41, 82, 49)"  x="14" y="17" width="1" height="1" /><rect shape-rendering="crispEdges" fill="rgb(74, 139, 82)"  x="14" y="18" width="1" height="1" /><rect shape-rendering="crispEdges" fill="rgb(106, 164, 98)"  x="14" y="19" width="1" height="1" /><rect shape-rendering="crispEdges" fill="rgb(123, 65, 49)"  x="14" y="20" width="1" height="1" /><rect shape-rendering="crispEdges" fill="rgb(65, 139, 82)"  x="14" y="21" width="1" height="1" /><rect shape-rendering="crispEdges" fill="rgb(32, 82, 49)"  x="14" y="22" width="1" height="1" /><rect shape-rendering="crispEdges" fill="rgb(41, 106, 57)"  x="14" y="23" width="1" height="1" /><rect shape-rendering="crispEdges" fill="rgb(49, 115, 65)"  x="14" y="24" width="1" height="1" /><rect shape-rendering="crispEdges" fill="rgb(32, 82, 49)"  x="14" y="25" width="1" height="1" /><rect shape-rendering="crispEdges" fill="rgb(74, 156, 65)"  x="14" y="26" width="1" height="1" /><rect shape-rendering="crispEdges" fill="rgb(41, 148, 57)"  x="14" y="27" width="1" height="1" /><rect shape-rendering="crispEdges" fill="rgb(41, 148, 57)"  x="14" y="28" width="1" height="1" /><rect shape-rendering="crispEdges" fill="rgb(189, 41, 41)"  x="15" y="3" width="1" height="1" /><rect shape-rendering="crispEdges" fill="rgb(255, 90, 90)"  x="15" y="4" width="1" height="1" /><rect shape-rendering="crispEdges" fill="rgb(238, 65, 74)"  x="15" y="5" width="1" height="1" /><rect shape-rendering="crispEdges" fill="rgb(213, 189, 205)"  x="15" y="6" width="1" height="1" /><rect shape-rendering="crispEdges" fill="rgb(255, 255, 255)"  x="15" y="7" width="1" height="1" /><rect shape-rendering="crispEdges" fill="rgb(238, 238, 255)"  x="15" y="8" width="1" height="1" /><rect shape-rendering="crispEdges" fill="rgb(180, 189, 222)"  x="15" y="9" width="1" height="1" /><rect shape-rendering="crispEdges" fill="rgb(255, 255, 255)"  x="15" y="10" width="1" height="1" /><rect shape-rendering="crispEdges" fill="rgb(255, 255, 255)"  x="15" y="11" width="1" height="1" /><rect shape-rendering="crispEdges" fill="rgb(255, 255, 255)"  x="15" y="12" width="1" height="1" /><rect shape-rendering="crispEdges" fill="rgb(172, 123, 131)"  x="15" y="13" width="1" height="1" /><rect shape-rendering="crispEdges" fill="rgb(230, 255, 255)"  x="15" y="14" width="1" height="1" /><rect shape-rendering="crispEdges" fill="rgb(189, 123, 139)"  x="15" y="15" width="1" height="1" /><rect shape-rendering="crispEdges" fill="rgb(148, 41, 49)"  x="15" y="16" width="1" height="1" /><rect shape-rendering="crispEdges" fill="rgb(41, 82, 49)"  x="15" y="17" width="1" height="1" /><rect shape-rendering="crispEdges" fill="rgb(65, 82, 49)"  x="15" y="18" width="1" height="1" /><rect shape-rendering="crispEdges" fill="rgb(106, 205, 131)"  x="15" y="19" width="1" height="1" /><rect shape-rendering="crispEdges" fill="rgb(115, 197, 123)"  x="15" y="20" width="1" height="1" /><rect shape-rendering="crispEdges" fill="rgb(74, 148, 82)"  x="15" y="21" width="1" height="1" /><rect shape-rendering="crispEdges" fill="rgb(32, 82, 49)"  x="15" y="22" width="1" height="1" /><rect shape-rendering="crispEdges" fill="rgb(49, 123, 65)"  x="15" y="23" width="1" height="1" /><rect shape-rendering="crispEdges" fill="rgb(65, 139, 74)"  x="15" y="24" width="1" height="1" /><rect shape-rendering="crispEdges" fill="rgb(32, 82, 49)"  x="15" y="25" width="1" height="1" /><rect shape-rendering="crispEdges" fill="rgb(139, 156, 156)"  x="15" y="26" width="1" height="1" /><rect shape-rendering="crispEdges" fill="rgb(98, 115, 123)"  x="15" y="27" width="1" height="1" /><rect shape-rendering="crispEdges" fill="rgb(189, 41, 41)"  x="16" y="3" width="1" height="1" /><rect shape-rendering="crispEdges" fill="rgb(246, 65, 74)"  x="16" y="4" width="1" height="1" /><rect shape-rendering="crispEdges" fill="rgb(222, 49, 57)"  x="16" y="5" width="1" height="1" /><rect shape-rendering="crispEdges" fill="rgb(189, 123, 139)"  x="16" y="6" width="1" height="1" /><rect shape-rendering="crispEdges" fill="rgb(255, 255, 255)"  x="16" y="7" width="1" height="1" /><rect shape-rendering="crispEdges" fill="rgb(238, 238, 255)"  x="16" y="8" width="1" height="1" /><rect shape-rendering="crispEdges" fill="rgb(180, 189, 222)"  x="16" y="9" width="1" height="1" /><rect shape-rendering="crispEdges" fill="rgb(197, 197, 205)"  x="16" y="10" width="1" height="1" /><rect shape-rendering="crispEdges" fill="rgb(197, 197, 205)"  x="16" y="11" width="1" height="1" /><rect shape-rendering="crispEdges" fill="rgb(255, 255, 255)"  x="16" y="12" width="1" height="1" /><rect shape-rendering="crispEdges" fill="rgb(180, 148, 156)"  x="16" y="13" width="1" height="1" /><rect shape-rendering="crispEdges" fill="rgb(230, 255, 255)"  x="16" y="14" width="1" height="1" /><rect shape-rendering="crispEdges" fill="rgb(189, 123, 139)"  x="16" y="15" width="1" height="1" /><rect shape-rendering="crispEdges" fill="rgb(148, 41, 49)"  x="16" y="16" width="1" height="1" /><rect shape-rendering="crispEdges" fill="rgb(41, 82, 49)"  x="16" y="17" width="1" height="1" /><rect shape-rendering="crispEdges" fill="rgb(106, 0, 0)"  x="16" y="18" width="1" height="1" /><rect shape-rendering="crispEdges" fill="rgb(65, 82, 49)"  x="16" y="19" width="1" height="1" /><rect shape-rendering="crispEdges" fill="rgb(123, 213, 131)"  x="16" y="20" width="1" height="1" /><rect shape-rendering="crispEdges" fill="rgb(32, 82, 49)"  x="16" y="21" width="1" height="1" /><rect shape-rendering="crispEdges" fill="rgb(82, 172, 82)"  x="16" y="22" width="1" height="1" /><rect shape-rendering="crispEdges" fill="rgb(49, 123, 65)"  x="16" y="23" width="1" height="1" /><rect shape-rendering="crispEdges" fill="rgb(32, 82, 49)"  x="16" y="24" width="1" height="1" /><rect shape-rendering="crispEdges" fill="rgb(82, 115, 98)"  x="16" y="25" width="1" height="1" /><rect shape-rendering="crispEdges" fill="rgb(148, 148, 164)"  x="16" y="26" width="1" height="1" /><rect shape-rendering="crispEdges" fill="rgb(115, 123, 139)"  x="16" y="27" width="1" height="1" /><rect shape-rendering="crispEdges" fill="rgb(156, 8, 8)"  x="17" y="3" width="1" height="1" /><rect shape-rendering="crispEdges" fill="rgb(197, 32, 41)"  x="17" y="4" width="1" height="1" /><rect shape-rendering="crispEdges" fill="rgb(180, 16, 24)"  x="17" y="5" width="1" height="1" /><rect shape-rendering="crispEdges" fill="rgb(213, 189, 205)"  x="17" y="6" width="1" height="1" /><rect shape-rendering="crispEdges" fill="rgb(246, 255, 255)"  x="17" y="7" width="1" height="1" /><rect shape-rendering="crispEdges" fill="rgb(238, 238, 255)"  x="17" y="8" width="1" height="1" /><rect shape-rendering="crispEdges" fill="rgb(180, 189, 222)"  x="17" y="9" width="1" height="1" /><rect shape-rendering="crispEdges" fill="rgb(57, 8, 24)"  x="17" y="10" width="1" height="1" /><rect shape-rendering="crispEdges" fill="rgb(106, 32, 49)"  x="17" y="11" width="1" height="1" /><rect shape-rendering="crispEdges" fill="rgb(246, 238, 255)"  x="17" y="12" width="1" height="1" /><rect shape-rendering="crispEdges" fill="rgb(255, 238, 255)"  x="17" y="13" width="1" height="1" /><rect shape-rendering="crispEdges" fill="rgb(230, 255, 255)"  x="17" y="14" width="1" height="1" /><rect shape-rendering="crispEdges" fill="rgb(189, 123, 139)"  x="17" y="15" width="1" height="1" /><rect shape-rendering="crispEdges" fill="rgb(148, 41, 49)"  x="17" y="16" width="1" height="1" /><rect shape-rendering="crispEdges" fill="rgb(205, 16, 16)"  x="17" y="17" width="1" height="1" /><rect shape-rendering="crispEdges" fill="rgb(148, 8, 8)"  x="17" y="18" width="1" height="1" /><rect shape-rendering="crispEdges" fill="rgb(106, 0, 0)"  x="17" y="19" width="1" height="1" /><rect shape-rendering="crispEdges" fill="rgb(65, 82, 49)"  x="17" y="20" width="1" height="1" /><rect shape-rendering="crispEdges" fill="rgb(32, 82, 49)"  x="17" y="21" width="1" height="1" /><rect shape-rendering="crispEdges" fill="rgb(82, 131, 98)"  x="17" y="22" width="1" height="1" /><rect shape-rendering="crispEdges" fill="rgb(32, 82, 49)"  x="17" y="23" width="1" height="1" /><rect shape-rendering="crispEdges" fill="rgb(98, 123, 115)"  x="17" y="24" width="1" height="1" /><rect shape-rendering="crispEdges" fill="rgb(123, 139, 139)"  x="17" y="25" width="1" height="1" /><rect shape-rendering="crispEdges" fill="rgb(148, 148, 164)"  x="17" y="26" width="1" height="1" /><rect shape-rendering="crispEdges" fill="rgb(115, 123, 139)"  x="17" y="27" width="1" height="1" /><rect shape-rendering="crispEdges" fill="rgb(90, 82, 98)"  x="17" y="28" width="1" height="1" /><rect shape-rendering="crispEdges" fill="rgb(82, 74, 90)"  x="17" y="29" width="1" height="1" /><rect shape-rendering="crispEdges" fill="rgb(156, 8, 8)"  x="18" y="4" width="1" height="1" /><rect shape-rendering="crispEdges" fill="rgb(148, 8, 32)"  x="18" y="5" width="1" height="1" /><rect shape-rendering="crispEdges" fill="rgb(189, 123, 139)"  x="18" y="6" width="1" height="1" /><rect shape-rendering="crispEdges" fill="rgb(238, 246, 255)"  x="18" y="7" width="1" height="1" /><rect shape-rendering="crispEdges" fill="rgb(230, 238, 255)"  x="18" y="8" width="1" height="1" /><rect shape-rendering="crispEdges" fill="rgb(148, 164, 180)"  x="18" y="9" width="1" height="1" /><rect shape-rendering="crispEdges" fill="rgb(156, 148, 172)"  x="18" y="10" width="1" height="1" /><rect shape-rendering="crispEdges" fill="rgb(156, 148, 172)"  x="18" y="11" width="1" height="1" /><rect shape-rendering="crispEdges" fill="rgb(255, 255, 255)"  x="18" y="12" width="1" height="1" /><rect shape-rendering="crispEdges" fill="rgb(222, 230, 255)"  x="18" y="13" width="1" height="1" /><rect shape-rendering="crispEdges" fill="rgb(222, 230, 255)"  x="18" y="14" width="1" height="1" /><rect shape-rendering="crispEdges" fill="rgb(156, 8, 8)"  x="18" y="15" width="1" height="1" /><rect shape-rendering="crispEdges" fill="rgb(205, 16, 16)"  x="18" y="16" width="1" height="1" /><rect shape-rendering="crispEdges" fill="rgb(148, 8, 8)"  x="18" y="17" width="1" height="1" /><rect shape-rendering="crispEdges" fill="rgb(164, 16, 24)"  x="18" y="18" width="1" height="1" /><rect shape-rendering="crispEdges" fill="rgb(148, 16, 16)"  x="18" y="19" width="1" height="1" /><rect shape-rendering="crispEdges" fill="rgb(74, 0, 0)"  x="18" y="20" width="1" height="1" /><rect shape-rendering="crispEdges" fill="rgb(32, 82, 49)"  x="18" y="21" width="1" height="1" /><rect shape-rendering="crispEdges" fill="rgb(156, 172, 189)"  x="18" y="22" width="1" height="1" /><rect shape-rendering="crispEdges" fill="rgb(32, 82, 49)"  x="18" y="23" width="1" height="1" /><rect shape-rendering="crispEdges" fill="rgb(164, 172, 189)"  x="18" y="24" width="1" height="1" /><rect shape-rendering="crispEdges" fill="rgb(172, 180, 197)"  x="18" y="25" width="1" height="1" /><rect shape-rendering="crispEdges" fill="rgb(148, 156, 172)"  x="18" y="26" width="1" height="1" /><rect shape-rendering="crispEdges" fill="rgb(90, 98, 115)"  x="18" y="27" width="1" height="1" /><rect shape-rendering="crispEdges" fill="rgb(115, 131, 139)"  x="18" y="28" width="1" height="1" /><rect shape-rendering="crispEdges" fill="rgb(82, 90, 98)"  x="18" y="29" width="1" height="1" /><rect shape-rendering="crispEdges" fill="rgb(156, 8, 8)"  x="19" y="5" width="1" height="1" /><rect shape-rendering="crispEdges" fill="rgb(189, 123, 139)"  x="19" y="6" width="1" height="1" /><rect shape-rendering="crispEdges" fill="rgb(230, 238, 255)"  x="19" y="7" width="1" height="1" /><rect shape-rendering="crispEdges" fill="rgb(213, 222, 246)"  x="19" y="8" width="1" height="1" /><rect shape-rendering="crispEdges" fill="rgb(148, 164, 180)"  x="19" y="9" width="1" height="1" /><rect shape-rendering="crispEdges" fill="rgb(238, 246, 255)"  x="19" y="10" width="1" height="1" /><rect shape-rendering="crispEdges" fill="rgb(238, 246, 255)"  x="19" y="11" width="1" height="1" /><rect shape-rendering="crispEdges" fill="rgb(222, 230, 255)"  x="19" y="12" width="1" height="1" /><rect shape-rendering="crispEdges" fill="rgb(222, 230, 255)"  x="19" y="13" width="1" height="1" /><rect shape-rendering="crispEdges" fill="rgb(189, 213, 238)"  x="19" y="14" width="1" height="1" /><rect shape-rendering="crispEdges" fill="rgb(156, 8, 8)"  x="19" y="15" width="1" height="1" /><rect shape-rendering="crispEdges" fill="rgb(197, 8, 8)"  x="19" y="16" width="1" height="1" /><rect shape-rendering="crispEdges" fill="rgb(148, 8, 8)"  x="19" y="17" width="1" height="1" /><rect shape-rendering="crispEdges" fill="rgb(205, 41, 41)"  x="19" y="18" width="1" height="1" /><rect shape-rendering="crispEdges" fill="rgb(148, 16, 16)"  x="19" y="19" width="1" height="1" /><rect shape-rendering="crispEdges" fill="rgb(74, 0, 0)"  x="19" y="20" width="1" height="1" /><rect shape-rendering="crispEdges" fill="rgb(131, 148, 172)"  x="19" y="21" width="1" height="1" /><rect shape-rendering="crispEdges" fill="rgb(189, 205, 238)"  x="19" y="22" width="1" height="1" /><rect shape-rendering="crispEdges" fill="rgb(230, 238, 255)"  x="19" y="23" width="1" height="1" /><rect shape-rendering="crispEdges" fill="rgb(213, 222, 246)"  x="19" y="24" width="1" height="1" /><rect shape-rendering="crispEdges" fill="rgb(189, 197, 222)"  x="19" y="25" width="1" height="1" /><rect shape-rendering="crispEdges" fill="rgb(139, 148, 164)"  x="19" y="26" width="1" height="1" /><rect shape-rendering="crispEdges" fill="rgb(90, 98, 115)"  x="19" y="27" width="1" height="1" /><rect shape-rendering="crispEdges" fill="rgb(115, 131, 139)"  x="19" y="28" width="1" height="1" /><rect shape-rendering="crispEdges" fill="rgb(82, 90, 98)"  x="19" y="29" width="1" height="1" /><rect shape-rendering="crispEdges" fill="rgb(82, 74, 90)"  x="19" y="30" width="1" height="1" /><rect shape-rendering="crispEdges" fill="rgb(131, 148, 180)"  x="20" y="6" width="1" height="1" /><rect shape-rendering="crispEdges" fill="rgb(189, 189, 222)"  x="20" y="7" width="1" height="1" /><rect shape-rendering="crispEdges" fill="rgb(189, 189, 222)"  x="20" y="8" width="1" height="1" /><rect shape-rendering="crispEdges" fill="rgb(148, 164, 180)"  x="20" y="9" width="1" height="1" /><rect shape-rendering="crispEdges" fill="rgb(205, 213, 246)"  x="20" y="10" width="1" height="1" /><rect shape-rendering="crispEdges" fill="rgb(205, 213, 246)"  x="20" y="11" width="1" height="1" /><rect shape-rendering="crispEdges" fill="rgb(205, 213, 246)"  x="20" y="12" width="1" height="1" /><rect shape-rendering="crispEdges" fill="rgb(189, 205, 230)"  x="20" y="13" width="1" height="1" /><rect shape-rendering="crispEdges" fill="rgb(164, 172, 197)"  x="20" y="14" width="1" height="1" /><rect shape-rendering="crispEdges" fill="rgb(156, 8, 8)"  x="20" y="15" width="1" height="1" /><rect shape-rendering="crispEdges" fill="rgb(148, 8, 8)"  x="20" y="16" width="1" height="1" /><rect shape-rendering="crispEdges" fill="rgb(205, 41, 41)"  x="20" y="17" width="1" height="1" /><rect shape-rendering="crispEdges" fill="rgb(148, 16, 16)"  x="20" y="18" width="1" height="1" /><rect shape-rendering="crispEdges" fill="rgb(90, 0, 0)"  x="20" y="19" width="1" height="1" /><rect shape-rendering="crispEdges" fill="rgb(82, 65, 74)"  x="20" y="20" width="1" height="1" /><rect shape-rendering="crispEdges" fill="rgb(139, 164, 189)"  x="20" y="21" width="1" height="1" /><rect shape-rendering="crispEdges" fill="rgb(197, 213, 238)"  x="20" y="22" width="1" height="1" /><rect shape-rendering="crispEdges" fill="rgb(213, 222, 246)"  x="20" y="23" width="1" height="1" /><rect shape-rendering="crispEdges" fill="rgb(205, 213, 238)"  x="20" y="24" width="1" height="1" /><rect shape-rendering="crispEdges" fill="rgb(180, 189, 205)"  x="20" y="25" width="1" height="1" /><rect shape-rendering="crispEdges" fill="rgb(90, 98, 115)"  x="20" y="26" width="1" height="1" /><rect shape-rendering="crispEdges" fill="rgb(115, 131, 139)"  x="20" y="27" width="1" height="1" /><rect shape-rendering="crispEdges" fill="rgb(106, 98, 123)"  x="20" y="28" width="1" height="1" /><rect shape-rendering="crispEdges" fill="rgb(90, 82, 98)"  x="20" y="29" width="1" height="1" /><rect shape-rendering="crispEdges" fill="rgb(131, 148, 180)"  x="21" y="7" width="1" height="1" /><rect shape-rendering="crispEdges" fill="rgb(131, 148, 180)"  x="21" y="8" width="1" height="1" /><rect shape-rendering="crispEdges" fill="rgb(131, 148, 180)"  x="21" y="9" width="1" height="1" /><rect shape-rendering="crispEdges" fill="rgb(189, 205, 230)"  x="21" y="10" width="1" height="1" /><rect shape-rendering="crispEdges" fill="rgb(189, 205, 230)"  x="21" y="11" width="1" height="1" /><rect shape-rendering="crispEdges" fill="rgb(189, 205, 230)"  x="21" y="12" width="1" height="1" /><rect shape-rendering="crispEdges" fill="rgb(164, 172, 197)"  x="21" y="13" width="1" height="1" /><rect shape-rendering="crispEdges" fill="rgb(115, 8, 16)"  x="21" y="14" width="1" height="1" /><rect shape-rendering="crispEdges" fill="rgb(148, 8, 8)"  x="21" y="15" width="1" height="1" /><rect shape-rendering="crispEdges" fill="rgb(205, 41, 41)"  x="21" y="16" width="1" height="1" /><rect shape-rendering="crispEdges" fill="rgb(148, 16, 16)"  x="21" y="17" width="1" height="1" /><rect shape-rendering="crispEdges" fill="rgb(90, 0, 0)"  x="21" y="18" width="1" height="1" /><rect shape-rendering="crispEdges" fill="rgb(57, 8, 16)"  x="21" y="19" width="1" height="1" /><rect shape-rendering="crispEdges" fill="rgb(90, 98, 115)"  x="21" y="20" width="1" height="1" /><rect shape-rendering="crispEdges" fill="rgb(148, 164, 180)"  x="21" y="21" width="1" height="1" /><rect shape-rendering="crispEdges" fill="rgb(189, 205, 230)"  x="21" y="22" width="1" height="1" /><rect shape-rendering="crispEdges" fill="rgb(189, 205, 230)"  x="21" y="23" width="1" height="1" /><rect shape-rendering="crispEdges" fill="rgb(180, 189, 213)"  x="21" y="24" width="1" height="1" /><rect shape-rendering="crispEdges" fill="rgb(115, 131, 148)"  x="21" y="25" width="1" height="1" /><rect shape-rendering="crispEdges" fill="rgb(90, 98, 115)"  x="21" y="26" width="1" height="1" /><rect shape-rendering="crispEdges" fill="rgb(82, 90, 98)"  x="21" y="27" width="1" height="1" /><rect shape-rendering="crispEdges" fill="rgb(82, 90, 98)"  x="21" y="28" width="1" height="1" /><rect shape-rendering="crispEdges" fill="rgb(139, 148, 164)"  x="22" y="9" width="1" height="1" /><rect shape-rendering="crispEdges" fill="rgb(139, 148, 164)"  x="22" y="10" width="1" height="1" /><rect shape-rendering="crispEdges" fill="rgb(139, 148, 164)"  x="22" y="11" width="1" height="1" /><rect shape-rendering="crispEdges" fill="rgb(139, 148, 164)"  x="22" y="12" width="1" height="1" /><rect shape-rendering="crispEdges" fill="rgb(115, 8, 16)"  x="22" y="13" width="1" height="1" /><rect shape-rendering="crispEdges" fill="rgb(148, 8, 8)"  x="22" y="14" width="1" height="1" /><rect shape-rendering="crispEdges" fill="rgb(205, 41, 41)"  x="22" y="15" width="1" height="1" /><rect shape-rendering="crispEdges" fill="rgb(139, 16, 24)"  x="22" y="16" width="1" height="1" /><rect shape-rendering="crispEdges" fill="rgb(90, 0, 0)"  x="22" y="17" width="1" height="1" /><rect shape-rendering="crispEdges" fill="rgb(57, 0, 8)"  x="22" y="18" width="1" height="1" /><rect shape-rendering="crispEdges" fill="rgb(106, 98, 123)"  x="22" y="19" width="1" height="1" /><rect shape-rendering="crispEdges" fill="rgb(123, 148, 164)"  x="22" y="20" width="1" height="1" /><rect shape-rendering="crispEdges" fill="rgb(115, 131, 156)"  x="22" y="21" width="1" height="1" /><rect shape-rendering="crispEdges" fill="rgb(139, 156, 180)"  x="22" y="22" width="1" height="1" /><rect shape-rendering="crispEdges" fill="rgb(148, 164, 189)"  x="22" y="23" width="1" height="1" /><rect shape-rendering="crispEdges" fill="rgb(115, 131, 148)"  x="22" y="24" width="1" height="1" /><rect shape-rendering="crispEdges" fill="rgb(90, 98, 115)"  x="22" y="25" width="1" height="1" /><rect shape-rendering="crispEdges" fill="rgb(115, 24, 41)"  x="23" y="12" width="1" height="1" /><rect shape-rendering="crispEdges" fill="rgb(123, 8, 24)"  x="23" y="13" width="1" height="1" /><rect shape-rendering="crispEdges" fill="rgb(131, 16, 32)"  x="23" y="14" width="1" height="1" /><rect shape-rendering="crispEdges" fill="rgb(115, 16, 24)"  x="23" y="15" width="1" height="1" /><rect shape-rendering="crispEdges" fill="rgb(90, 0, 0)"  x="23" y="16" width="1" height="1" /><rect shape-rendering="crispEdges" fill="rgb(65, 8, 24)"  x="23" y="17" width="1" height="1" /><rect shape-rendering="crispEdges" fill="rgb(139, 131, 156)"  x="23" y="18" width="1" height="1" /><rect shape-rendering="crispEdges" fill="rgb(197, 213, 238)"  x="23" y="19" width="1" height="1" /><rect shape-rendering="crispEdges" fill="rgb(197, 213, 238)"  x="23" y="20" width="1" height="1" /><rect shape-rendering="crispEdges" fill="rgb(180, 197, 213)"  x="23" y="21" width="1" height="1" /><rect shape-rendering="crispEdges" fill="rgb(115, 131, 156)"  x="23" y="22" width="1" height="1" /><rect shape-rendering="crispEdges" fill="rgb(115, 131, 156)"  x="23" y="23" width="1" height="1" /><rect shape-rendering="crispEdges" fill="rgb(98, 106, 131)"  x="23" y="24" width="1" height="1" /><rect shape-rendering="crispEdges" fill="rgb(106, 8, 16)"  x="24" y="14" width="1" height="1" /><rect shape-rendering="crispEdges" fill="rgb(90, 16, 32)"  x="24" y="15" width="1" height="1" /><rect shape-rendering="crispEdges" fill="rgb(90, 16, 32)"  x="24" y="16" width="1" height="1" /><rect shape-rendering="crispEdges" fill="rgb(115, 106, 139)"  x="24" y="17" width="1" height="1" /><rect shape-rendering="crispEdges" fill="rgb(197, 213, 238)"  x="24" y="18" width="1" height="1" /><rect shape-rendering="crispEdges" fill="rgb(255, 255, 255)"  x="24" y="19" width="1" height="1" /><rect shape-rendering="crispEdges" fill="rgb(255, 255, 255)"  x="24" y="20" width="1" height="1" /><rect shape-rendering="crispEdges" fill="rgb(255, 255, 255)"  x="24" y="21" width="1" height="1" /><rect shape-rendering="crispEdges" fill="rgb(230, 238, 246)"  x="24" y="22" width="1" height="1" /><rect shape-rendering="crispEdges" fill="rgb(230, 238, 246)"  x="24" y="23" width="1" height="1" /><rect shape-rendering="crispEdges" fill="rgb(164, 172, 197)"  x="24" y="24" width="1" height="1" /><rect shape-rendering="crispEdges" fill="rgb(164, 172, 197)"  x="24" y="25" width="1" height="1" /><rect shape-rendering="crispEdges" fill="rgb(164, 172, 197)"  x="24" y="26" width="1" height="1" /><rect shape-rendering="crispEdges" fill="rgb(123, 24, 49)"  x="25" y="16" width="1" height="1" /><rect shape-rendering="crispEdges" fill="rgb(123, 24, 49)"  x="25" y="17" width="1" height="1" /><rect shape-rendering="crispEdges" fill="rgb(164, 172, 189)"  x="25" y="18" width="1" height="1" /><rect shape-rendering="crispEdges" fill="rgb(164, 172, 189)"  x="25" y="19" width="1" height="1" /><rect shape-rendering="crispEdges" fill="rgb(197, 213, 238)"  x="25" y="20" width="1" height="1" /><rect shape-rendering="crispEdges" fill="rgb(230, 238, 246)"  x="25" y="21" width="1" height="1" /><rect shape-rendering="crispEdges" fill="rgb(255, 255, 255)"  x="25" y="22" width="1" height="1" /><rect shape-rendering="crispEdges" fill="rgb(255, 255, 255)"  x="25" y="23" width="1" height="1" /><rect shape-rendering="crispEdges" fill="rgb(230, 238, 246)"  x="25" y="24" width="1" height="1" /><rect shape-rendering="crispEdges" fill="rgb(230, 238, 246)"  x="25" y="25" width="1" height="1" /><rect shape-rendering="crispEdges" fill="rgb(197, 197, 222)"  x="25" y="26" width="1" height="1" /><rect shape-rendering="crispEdges" fill="rgb(164, 172, 197)"  x="25" y="27" width="1" height="1" /><rect shape-rendering="crispEdges" fill="rgb(164, 172, 197)"  x="25" y="28" width="1" height="1" /><rect shape-rendering="crispEdges" fill="rgb(123, 24, 49)"  x="26" y="18" width="1" height="1" /><rect shape-rendering="crispEdges" fill="rgb(123, 24, 49)"  x="26" y="19" width="1" height="1" /><rect shape-rendering="crispEdges" fill="rgb(164, 172, 189)"  x="26" y="20" width="1" height="1" /><rect shape-rendering="crispEdges" fill="rgb(164, 172, 189)"  x="26" y="21" width="1" height="1" /><rect shape-rendering="crispEdges" fill="rgb(230, 238, 246)"  x="26" y="22" width="1" height="1" /><rect shape-rendering="crispEdges" fill="rgb(230, 238, 246)"  x="26" y="23" width="1" height="1" /><rect shape-rendering="crispEdges" fill="rgb(255, 255, 255)"  x="26" y="24" width="1" height="1" /><rect shape-rendering="crispEdges" fill="rgb(255, 255, 255)"  x="26" y="25" width="1" height="1" /><rect shape-rendering="crispEdges" fill="rgb(255, 255, 255)"  x="26" y="26" width="1" height="1" /><rect shape-rendering="crispEdges" fill="rgb(205, 222, 246)"  x="26" y="27" width="1" height="1" /><rect shape-rendering="crispEdges" fill="rgb(123, 131, 156)"  x="26" y="28" width="1" height="1" /><rect shape-rendering="crispEdges" fill="rgb(90, 82, 98)"  x="26" y="29" width="1" height="1" /><rect shape-rendering="crispEdges" fill="rgb(82, 74, 90)"  x="26" y="30" width="1" height="1" /><rect shape-rendering="crispEdges" fill="rgb(106, 98, 123)"  x="26" y="31" width="1" height="1" /><rect shape-rendering="crispEdges" fill="rgb(123, 24, 49)"  x="27" y="19" width="1" height="1" /><rect shape-rendering="crispEdges" fill="rgb(205, 213, 238)"  x="27" y="20" width="1" height="1" /><rect shape-rendering="crispEdges" fill="rgb(197, 197, 222)"  x="27" y="21" width="1" height="1" /><rect shape-rendering="crispEdges" fill="rgb(164, 172, 189)"  x="27" y="22" width="1" height="1" /><rect shape-rendering="crispEdges" fill="rgb(164, 172, 189)"  x="27" y="23" width="1" height="1" /><rect shape-rendering="crispEdges" fill="rgb(213, 230, 246)"  x="27" y="24" width="1" height="1" /><rect shape-rendering="crispEdges" fill="rgb(255, 255, 255)"  x="27" y="25" width="1" height="1" /><rect shape-rendering="crispEdges" fill="rgb(255, 255, 255)"  x="27" y="26" width="1" height="1" /><rect shape-rendering="crispEdges" fill="rgb(230, 238, 246)"  x="27" y="27" width="1" height="1" /><rect shape-rendering="crispEdges" fill="rgb(205, 222, 255)"  x="27" y="28" width="1" height="1" /><rect shape-rendering="crispEdges" fill="rgb(115, 115, 139)"  x="27" y="29" width="1" height="1" /><rect shape-rendering="crispEdges" fill="rgb(123, 123, 148)"  x="27" y="30" width="1" height="1" /><rect shape-rendering="crispEdges" fill="rgb(164, 172, 205)"  x="28" y="20" width="1" height="1" /><rect shape-rendering="crispEdges" fill="rgb(213, 222, 255)"  x="28" y="21" width="1" height="1" /><rect shape-rendering="crispEdges" fill="rgb(131, 148, 180)"  x="28" y="22" width="1" height="1" /><rect shape-rendering="crispEdges" fill="rgb(164, 172, 189)"  x="28" y="24" width="1" height="1" /><rect shape-rendering="crispEdges" fill="rgb(213, 230, 246)"  x="28" y="25" width="1" height="1" /><rect shape-rendering="crispEdges" fill="rgb(255, 255, 255)"  x="28" y="26" width="1" height="1" /><rect shape-rendering="crispEdges" fill="rgb(255, 255, 255)"  x="28" y="27" width="1" height="1" /><rect shape-rendering="crispEdges" fill="rgb(205, 222, 246)"  x="28" y="28" width="1" height="1" /><rect shape-rendering="crispEdges" fill="rgb(189, 205, 230)"  x="28" y="29" width="1" height="1" /><rect shape-rendering="crispEdges" fill="rgb(115, 115, 123)"  x="28" y="30" width="1" height="1" /><rect shape-rendering="crispEdges" fill="rgb(164, 172, 205)"  x="29" y="21" width="1" height="1" /><rect shape-rendering="crispEdges" fill="rgb(131, 148, 180)"  x="29" y="22" width="1" height="1" /><rect shape-rendering="crispEdges" fill="rgb(164, 172, 189)"  x="29" y="25" width="1" height="1" /><rect shape-rendering="crispEdges" fill="rgb(213, 230, 246)"  x="29" y="26" width="1" height="1" /><rect shape-rendering="crispEdges" fill="rgb(230, 238, 246)"  x="29" y="27" width="1" height="1" /><rect shape-rendering="crispEdges" fill="rgb(205, 222, 246)"  x="29" y="28" width="1" height="1" /><rect shape-rendering="crispEdges" fill="rgb(189, 205, 230)"  x="29" y="29" width="1" height="1" /><rect shape-rendering="crispEdges" fill="rgb(123, 123, 148)"  x="29" y="30" width="1" height="1" /><rect shape-rendering="crispEdges" fill="rgb(90, 82, 98)"  x="29" y="31" width="1" height="1" /><rect shape-rendering="crispEdges" fill="rgb(164, 172, 189)"  x="30" y="26" width="1" height="1" /><rect shape-rendering="crispEdges" fill="rgb(189, 205, 230)"  x="30" y="27" width="1" height="1" /><rect shape-rendering="crispEdges" fill="rgb(189, 205, 230)"  x="30" y="28" width="1" height="1" /><rect shape-rendering="crispEdges" fill="rgb(189, 205, 230)"  x="30" y="29" width="1" height="1" /><rect shape-rendering="crispEdges" fill="rgb(106, 106, 123)"  x="30" y="30" width="1" height="1" /><rect shape-rendering="crispEdges" fill="rgb(148, 164, 180)"  x="31" y="27" width="1" height="1" /><rect shape-rendering="crispEdges" fill="rgb(148, 164, 180)"  x="31" y="28" width="1" height="1" /><rect shape-rendering="crispEdges" fill="rgb(148, 164, 180)"  x="31" y="29" width="1" height="1" /></svg>