<svg xmlns="http://www.w3.org/2000/svg" xmlns:xlink= "http://www.w3.org/1999/xlink" width="32" height="32" viewBox ="0 0 32 32"><rect shape-rendering="crispEdges" fill="rgb(115, 24, 115)"  x="0" y="13" width="1" height="1" /><rect shape-rendering="crispEdges" fill="rgb(115, 24, 115)"  x="0" y="14" width="1" height="1" /><rect shape-rendering="crispEdges" fill="rgb(115, 24, 115)"  x="0" y="15" width="1" height="1" /><rect shape-rendering="crispEdges" fill="rgb(148, 82, 148)"  x="1" y="11" width="1" height="1" /><rect shape-rendering="crispEdges" fill="rgb(148, 82, 148)"  x="1" y="12" width="1" height="1" /><rect shape-rendering="crispEdges" fill="rgb(156, 82, 164)"  x="1" y="13" width="1" height="1" /><rect shape-rendering="crispEdges" fill="rgb(197, 74, 197)"  x="1" y="14" width="1" height="1" /><rect shape-rendering="crispEdges" fill="rgb(156, 41, 172)"  x="1" y="15" width="1" height="1" /><rect shape-rendering="crispEdges" fill="rgb(115, 24, 115)"  x="1" y="16" width="1" height="1" /><rect shape-rendering="crispEdges" fill="rgb(156, 41, 172)"  x="2" y="10" width="1" height="1" /><rect shape-rendering="crispEdges" fill="rgb(156, 41, 172)"  x="2" y="11" width="1" height="1" /><rect shape-rendering="crispEdges" fill="rgb(115, 90, 123)"  x="2" y="12" width="1" height="1" /><rect shape-rendering="crispEdges" fill="rgb(197, 98, 189)"  x="2" y="13" width="1" height="1" /><rect shape-rendering="crispEdges" fill="rgb(238, 106, 230)"  x="2" y="14" width="1" height="1" /><rect shape-rendering="crispEdges" fill="rgb(205, 82, 197)"  x="2" y="15" width="1" height="1" /><rect shape-rendering="crispEdges" fill="rgb(156, 41, 172)"  x="2" y="16" width="1" height="1" /><rect shape-rendering="crispEdges" fill="rgb(115, 24, 115)"  x="2" y="17" width="1" height="1" /><rect shape-rendering="crispEdges" fill="rgb(172, 98, 180)"  x="3" y="9" width="1" height="1" /><rect shape-rendering="crispEdges" fill="rgb(172, 98, 180)"  x="3" y="10" width="1" height="1" /><rect shape-rendering="crispEdges" fill="rgb(164, 57, 180)"  x="3" y="11" width="1" height="1" /><rect shape-rendering="crispEdges" fill="rgb(131, 32, 148)"  x="3" y="12" width="1" height="1" /><rect shape-rendering="crispEdges" fill="rgb(205, 90, 197)"  x="3" y="13" width="1" height="1" /><rect shape-rendering="crispEdges" fill="rgb(255, 139, 246)"  x="3" y="14" width="1" height="1" /><rect shape-rendering="crispEdges" fill="rgb(230, 115, 222)"  x="3" y="15" width="1" height="1" /><rect shape-rendering="crispEdges" fill="rgb(156, 41, 172)"  x="3" y="16" width="1" height="1" /><rect shape-rendering="crispEdges" fill="rgb(115, 24, 115)"  x="3" y="17" width="1" height="1" /><rect shape-rendering="crispEdges" fill="rgb(139, 106, 156)"  x="4" y="9" width="1" height="1" /><rect shape-rendering="crispEdges" fill="rgb(189, 115, 197)"  x="4" y="10" width="1" height="1" /><rect shape-rendering="crispEdges" fill="rgb(222, 98, 222)"  x="4" y="11" width="1" height="1" /><rect shape-rendering="crispEdges" fill="rgb(156, 32, 156)"  x="4" y="12" width="1" height="1" /><rect shape-rendering="crispEdges" fill="rgb(131, 8, 139)"  x="4" y="13" width="1" height="1" /><rect shape-rendering="crispEdges" fill="rgb(197, 82, 189)"  x="4" y="14" width="1" height="1" /><rect shape-rendering="crispEdges" fill="rgb(230, 106, 222)"  x="4" y="15" width="1" height="1" /><rect shape-rendering="crispEdges" fill="rgb(156, 41, 172)"  x="4" y="16" width="1" height="1" /><rect shape-rendering="crispEdges" fill="rgb(115, 24, 115)"  x="4" y="17" width="1" height="1" /><rect shape-rendering="crispEdges" fill="rgb(156, 41, 172)"  x="5" y="9" width="1" height="1" /><rect shape-rendering="crispEdges" fill="rgb(189, 82, 197)"  x="5" y="10" width="1" height="1" /><rect shape-rendering="crispEdges" fill="rgb(238, 106, 230)"  x="5" y="11" width="1" height="1" /><rect shape-rendering="crispEdges" fill="rgb(172, 32, 164)"  x="5" y="12" width="1" height="1" /><rect shape-rendering="crispEdges" fill="rgb(115, 0, 123)"  x="5" y="13" width="1" height="1" /><rect shape-rendering="crispEdges" fill="rgb(164, 41, 164)"  x="5" y="14" width="1" height="1" /><rect shape-rendering="crispEdges" fill="rgb(197, 90, 197)"  x="5" y="15" width="1" height="1" /><rect shape-rendering="crispEdges" fill="rgb(156, 41, 172)"  x="5" y="16" width="1" height="1" /><rect shape-rendering="crispEdges" fill="rgb(115, 24, 115)"  x="5" y="17" width="1" height="1" /><rect shape-rendering="crispEdges" fill="rgb(156, 82, 172)"  x="6" y="8" width="1" height="1" /><rect shape-rendering="crispEdges" fill="rgb(172, 98, 180)"  x="6" y="9" width="1" height="1" /><rect shape-rendering="crispEdges" fill="rgb(156, 41, 164)"  x="6" y="10" width="1" height="1" /><rect shape-rendering="crispEdges" fill="rgb(222, 115, 213)"  x="6" y="11" width="1" height="1" /><rect shape-rendering="crispEdges" fill="rgb(156, 41, 172)"  x="6" y="12" width="1" height="1" /><rect shape-rendering="crispEdges" fill="rgb(123, 82, 115)"  x="6" y="13" width="1" height="1" /><rect shape-rendering="crispEdges" fill="rgb(115, 65, 106)"  x="6" y="14" width="1" height="1" /><rect shape-rendering="crispEdges" fill="rgb(139, 98, 131)"  x="6" y="15" width="1" height="1" /><rect shape-rendering="crispEdges" fill="rgb(164, 148, 156)"  x="6" y="16" width="1" height="1" /><rect shape-rendering="crispEdges" fill="rgb(90, 74, 74)"  x="6" y="17" width="1" height="1" /><rect shape-rendering="crispEdges" fill="rgb(180, 180, 172)"  x="6" y="18" width="1" height="1" /><rect shape-rendering="crispEdges" fill="rgb(139, 139, 139)"  x="6" y="19" width="1" height="1" /><rect shape-rendering="crispEdges" fill="rgb(131, 65, 156)"  x="7" y="8" width="1" height="1" /><rect shape-rendering="crispEdges" fill="rgb(172, 98, 180)"  x="7" y="9" width="1" height="1" /><rect shape-rendering="crispEdges" fill="rgb(164, 90, 172)"  x="7" y="10" width="1" height="1" /><rect shape-rendering="crispEdges" fill="rgb(255, 246, 255)"  x="7" y="11" width="1" height="1" /><rect shape-rendering="crispEdges" fill="rgb(205, 205, 205)"  x="7" y="12" width="1" height="1" /><rect shape-rendering="crispEdges" fill="rgb(32, 41, 32)"  x="7" y="13" width="1" height="1" /><rect shape-rendering="crispEdges" fill="rgb(90, 90, 74)"  x="7" y="14" width="1" height="1" /><rect shape-rendering="crispEdges" fill="rgb(197, 197, 189)"  x="7" y="15" width="1" height="1" /><rect shape-rendering="crispEdges" fill="rgb(123, 98, 90)"  x="7" y="16" width="1" height="1" /><rect shape-rendering="crispEdges" fill="rgb(0, 0, 0)"  x="7" y="17" width="1" height="1" /><rect shape-rendering="crispEdges" fill="rgb(90, 74, 74)"  x="7" y="18" width="1" height="1" /><rect shape-rendering="crispEdges" fill="rgb(197, 139, 123)"  x="7" y="19" width="1" height="1" /><rect shape-rendering="crispEdges" fill="rgb(180, 115, 98)"  x="7" y="20" width="1" height="1" /><rect shape-rendering="crispEdges" fill="rgb(139, 139, 139)"  x="7" y="21" width="1" height="1" /><rect shape-rendering="crispEdges" fill="rgb(106, 74, 123)"  x="8" y="8" width="1" height="1" /><rect shape-rendering="crispEdges" fill="rgb(148, 106, 164)"  x="8" y="9" width="1" height="1" /><rect shape-rendering="crispEdges" fill="rgb(255, 255, 255)"  x="8" y="10" width="1" height="1" /><rect shape-rendering="crispEdges" fill="rgb(197, 197, 189)"  x="8" y="11" width="1" height="1" /><rect shape-rendering="crispEdges" fill="rgb(213, 213, 213)"  x="8" y="12" width="1" height="1" /><rect shape-rendering="crispEdges" fill="rgb(139, 139, 139)"  x="8" y="13" width="1" height="1" /><rect shape-rendering="crispEdges" fill="rgb(32, 41, 32)"  x="8" y="14" width="1" height="1" /><rect shape-rendering="crispEdges" fill="rgb(255, 246, 238)"  x="8" y="15" width="1" height="1" /><rect shape-rendering="crispEdges" fill="rgb(41, 32, 32)"  x="8" y="16" width="1" height="1" /><rect shape-rendering="crispEdges" fill="rgb(0, 0, 0)"  x="8" y="17" width="1" height="1" /><rect shape-rendering="crispEdges" fill="rgb(65, 16, 16)"  x="8" y="18" width="1" height="1" /><rect shape-rendering="crispEdges" fill="rgb(180, 156, 148)"  x="8" y="19" width="1" height="1" /><rect shape-rendering="crispEdges" fill="rgb(213, 164, 156)"  x="8" y="20" width="1" height="1" /><rect shape-rendering="crispEdges" fill="rgb(213, 205, 205)"  x="8" y="21" width="1" height="1" /><rect shape-rendering="crispEdges" fill="rgb(139, 139, 139)"  x="8" y="22" width="1" height="1" /><rect shape-rendering="crispEdges" fill="rgb(139, 139, 139)"  x="8" y="23" width="1" height="1" /><rect shape-rendering="crispEdges" fill="rgb(180, 172, 180)"  x="9" y="8" width="1" height="1" /><rect shape-rendering="crispEdges" fill="rgb(255, 255, 255)"  x="9" y="9" width="1" height="1" /><rect shape-rendering="crispEdges" fill="rgb(255, 255, 255)"  x="9" y="10" width="1" height="1" /><rect shape-rendering="crispEdges" fill="rgb(106, 106, 106)"  x="9" y="11" width="1" height="1" /><rect shape-rendering="crispEdges" fill="rgb(189, 180, 180)"  x="9" y="12" width="1" height="1" /><rect shape-rendering="crispEdges" fill="rgb(255, 255, 255)"  x="9" y="13" width="1" height="1" /><rect shape-rendering="crispEdges" fill="rgb(230, 222, 222)"  x="9" y="14" width="1" height="1" /><rect shape-rendering="crispEdges" fill="rgb(32, 41, 32)"  x="9" y="15" width="1" height="1" /><rect shape-rendering="crispEdges" fill="rgb(32, 41, 32)"  x="9" y="16" width="1" height="1" /><rect shape-rendering="crispEdges" fill="rgb(32, 41, 32)"  x="9" y="17" width="1" height="1" /><rect shape-rendering="crispEdges" fill="rgb(131, 115, 115)"  x="9" y="18" width="1" height="1" /><rect shape-rendering="crispEdges" fill="rgb(205, 205, 197)"  x="9" y="19" width="1" height="1" /><rect shape-rendering="crispEdges" fill="rgb(255, 246, 246)"  x="9" y="20" width="1" height="1" /><rect shape-rendering="crispEdges" fill="rgb(213, 197, 197)"  x="9" y="21" width="1" height="1" /><rect shape-rendering="crispEdges" fill="rgb(213, 197, 197)"  x="9" y="22" width="1" height="1" /><rect shape-rendering="crispEdges" fill="rgb(139, 123, 123)"  x="9" y="23" width="1" height="1" /><rect shape-rendering="crispEdges" fill="rgb(139, 139, 139)"  x="9" y="24" width="1" height="1" /><rect shape-rendering="crispEdges" fill="rgb(180, 180, 180)"  x="10" y="7" width="1" height="1" /><rect shape-rendering="crispEdges" fill="rgb(255, 255, 255)"  x="10" y="8" width="1" height="1" /><rect shape-rendering="crispEdges" fill="rgb(255, 255, 255)"  x="10" y="9" width="1" height="1" /><rect shape-rendering="crispEdges" fill="rgb(189, 180, 180)"  x="10" y="10" width="1" height="1" /><rect shape-rendering="crispEdges" fill="rgb(189, 180, 180)"  x="10" y="11" width="1" height="1" /><rect shape-rendering="crispEdges" fill="rgb(180, 180, 172)"  x="10" y="12" width="1" height="1" /><rect shape-rendering="crispEdges" fill="rgb(246, 238, 238)"  x="10" y="13" width="1" height="1" /><rect shape-rendering="crispEdges" fill="rgb(255, 255, 246)"  x="10" y="14" width="1" height="1" /><rect shape-rendering="crispEdges" fill="rgb(246, 238, 238)"  x="10" y="15" width="1" height="1" /><rect shape-rendering="crispEdges" fill="rgb(255, 255, 255)"  x="10" y="16" width="1" height="1" /><rect shape-rendering="crispEdges" fill="rgb(255, 255, 255)"  x="10" y="17" width="1" height="1" /><rect shape-rendering="crispEdges" fill="rgb(255, 255, 255)"  x="10" y="18" width="1" height="1" /><rect shape-rendering="crispEdges" fill="rgb(246, 238, 230)"  x="10" y="19" width="1" height="1" /><rect shape-rendering="crispEdges" fill="rgb(255, 246, 246)"  x="10" y="20" width="1" height="1" /><rect shape-rendering="crispEdges" fill="rgb(213, 197, 197)"  x="10" y="21" width="1" height="1" /><rect shape-rendering="crispEdges" fill="rgb(74, 32, 32)"  x="10" y="22" width="1" height="1" /><rect shape-rendering="crispEdges" fill="rgb(106, 41, 32)"  x="10" y="23" width="1" height="1" /><rect shape-rendering="crispEdges" fill="rgb(172, 57, 32)"  x="10" y="24" width="1" height="1" /><rect shape-rendering="crispEdges" fill="rgb(189, 189, 189)"  x="11" y="7" width="1" height="1" /><rect shape-rendering="crispEdges" fill="rgb(238, 238, 238)"  x="11" y="8" width="1" height="1" /><rect shape-rendering="crispEdges" fill="rgb(255, 255, 255)"  x="11" y="9" width="1" height="1" /><rect shape-rendering="crispEdges" fill="rgb(189, 180, 180)"  x="11" y="10" width="1" height="1" /><rect shape-rendering="crispEdges" fill="rgb(255, 255, 255)"  x="11" y="11" width="1" height="1" /><rect shape-rendering="crispEdges" fill="rgb(255, 246, 246)"  x="11" y="12" width="1" height="1" /><rect shape-rendering="crispEdges" fill="rgb(246, 246, 238)"  x="11" y="13" width="1" height="1" /><rect shape-rendering="crispEdges" fill="rgb(246, 246, 238)"  x="11" y="14" width="1" height="1" /><rect shape-rendering="crispEdges" fill="rgb(246, 238, 238)"  x="11" y="15" width="1" height="1" /><rect shape-rendering="crispEdges" fill="rgb(246, 246, 238)"  x="11" y="16" width="1" height="1" /><rect shape-rendering="crispEdges" fill="rgb(255, 255, 246)"  x="11" y="17" width="1" height="1" /><rect shape-rendering="crispEdges" fill="rgb(255, 255, 246)"  x="11" y="18" width="1" height="1" /><rect shape-rendering="crispEdges" fill="rgb(246, 230, 230)"  x="11" y="19" width="1" height="1" /><rect shape-rendering="crispEdges" fill="rgb(238, 230, 222)"  x="11" y="20" width="1" height="1" /><rect shape-rendering="crispEdges" fill="rgb(246, 238, 238)"  x="11" y="21" width="1" height="1" /><rect shape-rendering="crispEdges" fill="rgb(115, 98, 98)"  x="11" y="22" width="1" height="1" /><rect shape-rendering="crispEdges" fill="rgb(82, 8, 0)"  x="11" y="23" width="1" height="1" /><rect shape-rendering="crispEdges" fill="rgb(172, 57, 32)"  x="11" y="24" width="1" height="1" /><rect shape-rendering="crispEdges" fill="rgb(172, 57, 32)"  x="11" y="25" width="1" height="1" /><rect shape-rendering="crispEdges" fill="rgb(98, 98, 98)"  x="12" y="7" width="1" height="1" /><rect shape-rendering="crispEdges" fill="rgb(57, 57, 57)"  x="12" y="8" width="1" height="1" /><rect shape-rendering="crispEdges" fill="rgb(57, 57, 57)"  x="12" y="9" width="1" height="1" /><rect shape-rendering="crispEdges" fill="rgb(222, 213, 213)"  x="12" y="10" width="1" height="1" /><rect shape-rendering="crispEdges" fill="rgb(255, 255, 255)"  x="12" y="11" width="1" height="1" /><rect shape-rendering="crispEdges" fill="rgb(246, 246, 238)"  x="12" y="12" width="1" height="1" /><rect shape-rendering="crispEdges" fill="rgb(255, 246, 246)"  x="12" y="13" width="1" height="1" /><rect shape-rendering="crispEdges" fill="rgb(246, 246, 246)"  x="12" y="14" width="1" height="1" /><rect shape-rendering="crispEdges" fill="rgb(246, 246, 246)"  x="12" y="15" width="1" height="1" /><rect shape-rendering="crispEdges" fill="rgb(255, 246, 246)"  x="12" y="16" width="1" height="1" /><rect shape-rendering="crispEdges" fill="rgb(255, 246, 246)"  x="12" y="17" width="1" height="1" /><rect shape-rendering="crispEdges" fill="rgb(255, 255, 255)"  x="12" y="18" width="1" height="1" /><rect shape-rendering="crispEdges" fill="rgb(255, 246, 246)"  x="12" y="19" width="1" height="1" /><rect shape-rendering="crispEdges" fill="rgb(246, 230, 230)"  x="12" y="20" width="1" height="1" /><rect shape-rendering="crispEdges" fill="rgb(255, 255, 255)"  x="12" y="21" width="1" height="1" /><rect shape-rendering="crispEdges" fill="rgb(139, 123, 131)"  x="12" y="22" width="1" height="1" /><rect shape-rendering="crispEdges" fill="rgb(57, 8, 0)"  x="12" y="23" width="1" height="1" /><rect shape-rendering="crispEdges" fill="rgb(164, 32, 0)"  x="12" y="24" width="1" height="1" /><rect shape-rendering="crispEdges" fill="rgb(172, 57, 32)"  x="12" y="25" width="1" height="1" /><rect shape-rendering="crispEdges" fill="rgb(172, 57, 32)"  x="12" y="26" width="1" height="1" /><rect shape-rendering="crispEdges" fill="rgb(197, 197, 197)"  x="13" y="6" width="1" height="1" /><rect shape-rendering="crispEdges" fill="rgb(57, 57, 57)"  x="13" y="7" width="1" height="1" /><rect shape-rendering="crispEdges" fill="rgb(57, 57, 57)"  x="13" y="8" width="1" height="1" /><rect shape-rendering="crispEdges" fill="rgb(57, 57, 57)"  x="13" y="9" width="1" height="1" /><rect shape-rendering="crispEdges" fill="rgb(98, 98, 98)"  x="13" y="10" width="1" height="1" /><rect shape-rendering="crispEdges" fill="rgb(255, 255, 255)"  x="13" y="11" width="1" height="1" /><rect shape-rendering="crispEdges" fill="rgb(246, 238, 238)"  x="13" y="12" width="1" height="1" /><rect shape-rendering="crispEdges" fill="rgb(230, 222, 222)"  x="13" y="13" width="1" height="1" /><rect shape-rendering="crispEdges" fill="rgb(246, 238, 238)"  x="13" y="14" width="1" height="1" /><rect shape-rendering="crispEdges" fill="rgb(255, 255, 246)"  x="13" y="15" width="1" height="1" /><rect shape-rendering="crispEdges" fill="rgb(205, 197, 197)"  x="13" y="16" width="1" height="1" /><rect shape-rendering="crispEdges" fill="rgb(197, 180, 180)"  x="13" y="17" width="1" height="1" /><rect shape-rendering="crispEdges" fill="rgb(172, 148, 156)"  x="13" y="18" width="1" height="1" /><rect shape-rendering="crispEdges" fill="rgb(164, 156, 156)"  x="13" y="19" width="1" height="1" /><rect shape-rendering="crispEdges" fill="rgb(230, 222, 222)"  x="13" y="20" width="1" height="1" /><rect shape-rendering="crispEdges" fill="rgb(255, 255, 255)"  x="13" y="21" width="1" height="1" /><rect shape-rendering="crispEdges" fill="rgb(131, 115, 123)"  x="13" y="22" width="1" height="1" /><rect shape-rendering="crispEdges" fill="rgb(57, 8, 0)"  x="13" y="23" width="1" height="1" /><rect shape-rendering="crispEdges" fill="rgb(148, 49, 24)"  x="13" y="24" width="1" height="1" /><rect shape-rendering="crispEdges" fill="rgb(172, 57, 32)"  x="13" y="25" width="1" height="1" /><rect shape-rendering="crispEdges" fill="rgb(197, 197, 197)"  x="13" y="26" width="1" height="1" /><rect shape-rendering="crispEdges" fill="rgb(98, 98, 98)"  x="14" y="6" width="1" height="1" /><rect shape-rendering="crispEdges" fill="rgb(57, 57, 57)"  x="14" y="7" width="1" height="1" /><rect shape-rendering="crispEdges" fill="rgb(57, 57, 57)"  x="14" y="8" width="1" height="1" /><rect shape-rendering="crispEdges" fill="rgb(57, 57, 57)"  x="14" y="9" width="1" height="1" /><rect shape-rendering="crispEdges" fill="rgb(57, 57, 57)"  x="14" y="10" width="1" height="1" /><rect shape-rendering="crispEdges" fill="rgb(255, 255, 255)"  x="14" y="11" width="1" height="1" /><rect shape-rendering="crispEdges" fill="rgb(197, 197, 197)"  x="14" y="12" width="1" height="1" /><rect shape-rendering="crispEdges" fill="rgb(172, 164, 164)"  x="14" y="13" width="1" height="1" /><rect shape-rendering="crispEdges" fill="rgb(255, 255, 255)"  x="14" y="14" width="1" height="1" /><rect shape-rendering="crispEdges" fill="rgb(222, 222, 222)"  x="14" y="15" width="1" height="1" /><rect shape-rendering="crispEdges" fill="rgb(32, 41, 32)"  x="14" y="16" width="1" height="1" /><rect shape-rendering="crispEdges" fill="rgb(255, 246, 238)"  x="14" y="17" width="1" height="1" /><rect shape-rendering="crispEdges" fill="rgb(0, 0, 0)"  x="14" y="18" width="1" height="1" /><rect shape-rendering="crispEdges" fill="rgb(0, 0, 0)"  x="14" y="19" width="1" height="1" /><rect shape-rendering="crispEdges" fill="rgb(148, 131, 123)"  x="14" y="20" width="1" height="1" /><rect shape-rendering="crispEdges" fill="rgb(246, 222, 222)"  x="14" y="21" width="1" height="1" /><rect shape-rendering="crispEdges" fill="rgb(164, 139, 139)"  x="14" y="22" width="1" height="1" /><rect shape-rendering="crispEdges" fill="rgb(148, 139, 139)"  x="14" y="23" width="1" height="1" /><rect shape-rendering="crispEdges" fill="rgb(189, 172, 172)"  x="14" y="24" width="1" height="1" /><rect shape-rendering="crispEdges" fill="rgb(197, 197, 197)"  x="14" y="25" width="1" height="1" /><rect shape-rendering="crispEdges" fill="rgb(131, 131, 131)"  x="14" y="26" width="1" height="1" /><rect shape-rendering="crispEdges" fill="rgb(57, 57, 57)"  x="15" y="6" width="1" height="1" /><rect shape-rendering="crispEdges" fill="rgb(57, 57, 57)"  x="15" y="7" width="1" height="1" /><rect shape-rendering="crispEdges" fill="rgb(65, 65, 65)"  x="15" y="8" width="1" height="1" /><rect shape-rendering="crispEdges" fill="rgb(57, 57, 57)"  x="15" y="9" width="1" height="1" /><rect shape-rendering="crispEdges" fill="rgb(57, 57, 57)"  x="15" y="10" width="1" height="1" /><rect shape-rendering="crispEdges" fill="rgb(255, 255, 255)"  x="15" y="11" width="1" height="1" /><rect shape-rendering="crispEdges" fill="rgb(139, 139, 139)"  x="15" y="12" width="1" height="1" /><rect shape-rendering="crispEdges" fill="rgb(197, 197, 197)"  x="15" y="13" width="1" height="1" /><rect shape-rendering="crispEdges" fill="rgb(230, 230, 230)"  x="15" y="14" width="1" height="1" /><rect shape-rendering="crispEdges" fill="rgb(32, 41, 32)"  x="15" y="15" width="1" height="1" /><rect shape-rendering="crispEdges" fill="rgb(189, 189, 180)"  x="15" y="16" width="1" height="1" /><rect shape-rendering="crispEdges" fill="rgb(49, 41, 41)"  x="15" y="17" width="1" height="1" /><rect shape-rendering="crispEdges" fill="rgb(0, 0, 0)"  x="15" y="18" width="1" height="1" /><rect shape-rendering="crispEdges" fill="rgb(24, 0, 0)"  x="15" y="19" width="1" height="1" /><rect shape-rendering="crispEdges" fill="rgb(106, 65, 57)"  x="15" y="20" width="1" height="1" /><rect shape-rendering="crispEdges" fill="rgb(189, 131, 115)"  x="15" y="21" width="1" height="1" /><rect shape-rendering="crispEdges" fill="rgb(213, 164, 156)"  x="15" y="22" width="1" height="1" /><rect shape-rendering="crispEdges" fill="rgb(213, 205, 205)"  x="15" y="23" width="1" height="1" /><rect shape-rendering="crispEdges" fill="rgb(246, 238, 238)"  x="15" y="24" width="1" height="1" /><rect shape-rendering="crispEdges" fill="rgb(213, 205, 205)"  x="15" y="25" width="1" height="1" /><rect shape-rendering="crispEdges" fill="rgb(139, 139, 139)"  x="15" y="26" width="1" height="1" /><rect shape-rendering="crispEdges" fill="rgb(57, 57, 57)"  x="16" y="6" width="1" height="1" /><rect shape-rendering="crispEdges" fill="rgb(57, 57, 57)"  x="16" y="7" width="1" height="1" /><rect shape-rendering="crispEdges" fill="rgb(57, 57, 57)"  x="16" y="8" width="1" height="1" /><rect shape-rendering="crispEdges" fill="rgb(57, 57, 57)"  x="16" y="9" width="1" height="1" /><rect shape-rendering="crispEdges" fill="rgb(57, 57, 57)"  x="16" y="10" width="1" height="1" /><rect shape-rendering="crispEdges" fill="rgb(189, 180, 180)"  x="16" y="11" width="1" height="1" /><rect shape-rendering="crispEdges" fill="rgb(156, 148, 148)"  x="16" y="12" width="1" height="1" /><rect shape-rendering="crispEdges" fill="rgb(197, 197, 197)"  x="16" y="13" width="1" height="1" /><rect shape-rendering="crispEdges" fill="rgb(139, 131, 131)"  x="16" y="14" width="1" height="1" /><rect shape-rendering="crispEdges" fill="rgb(24, 24, 24)"  x="16" y="15" width="1" height="1" /><rect shape-rendering="crispEdges" fill="rgb(255, 246, 238)"  x="16" y="16" width="1" height="1" /><rect shape-rendering="crispEdges" fill="rgb(180, 172, 164)"  x="16" y="17" width="1" height="1" /><rect shape-rendering="crispEdges" fill="rgb(123, 98, 90)"  x="16" y="18" width="1" height="1" /><rect shape-rendering="crispEdges" fill="rgb(98, 65, 57)"  x="16" y="19" width="1" height="1" /><rect shape-rendering="crispEdges" fill="rgb(41, 41, 41)"  x="16" y="20" width="1" height="1" /><rect shape-rendering="crispEdges" fill="rgb(180, 115, 90)"  x="16" y="21" width="1" height="1" /><rect shape-rendering="crispEdges" fill="rgb(189, 115, 90)"  x="16" y="22" width="1" height="1" /><rect shape-rendering="crispEdges" fill="rgb(246, 238, 230)"  x="16" y="23" width="1" height="1" /><rect shape-rendering="crispEdges" fill="rgb(246, 238, 238)"  x="16" y="24" width="1" height="1" /><rect shape-rendering="crispEdges" fill="rgb(213, 205, 205)"  x="16" y="25" width="1" height="1" /><rect shape-rendering="crispEdges" fill="rgb(139, 131, 131)"  x="16" y="26" width="1" height="1" /><rect shape-rendering="crispEdges" fill="rgb(213, 205, 205)"  x="17" y="6" width="1" height="1" /><rect shape-rendering="crispEdges" fill="rgb(57, 57, 57)"  x="17" y="7" width="1" height="1" /><rect shape-rendering="crispEdges" fill="rgb(57, 57, 57)"  x="17" y="8" width="1" height="1" /><rect shape-rendering="crispEdges" fill="rgb(98, 98, 98)"  x="17" y="9" width="1" height="1" /><rect shape-rendering="crispEdges" fill="rgb(255, 246, 246)"  x="17" y="10" width="1" height="1" /><rect shape-rendering="crispEdges" fill="rgb(255, 255, 255)"  x="17" y="11" width="1" height="1" /><rect shape-rendering="crispEdges" fill="rgb(255, 255, 255)"  x="17" y="12" width="1" height="1" /><rect shape-rendering="crispEdges" fill="rgb(180, 172, 180)"  x="17" y="13" width="1" height="1" /><rect shape-rendering="crispEdges" fill="rgb(164, 156, 164)"  x="17" y="14" width="1" height="1" /><rect shape-rendering="crispEdges" fill="rgb(32, 32, 32)"  x="17" y="15" width="1" height="1" /><rect shape-rendering="crispEdges" fill="rgb(57, 49, 49)"  x="17" y="16" width="1" height="1" /><rect shape-rendering="crispEdges" fill="rgb(255, 246, 238)"  x="17" y="17" width="1" height="1" /><rect shape-rendering="crispEdges" fill="rgb(255, 246, 238)"  x="17" y="18" width="1" height="1" /><rect shape-rendering="crispEdges" fill="rgb(164, 156, 156)"  x="17" y="19" width="1" height="1" /><rect shape-rendering="crispEdges" fill="rgb(41, 41, 41)"  x="17" y="20" width="1" height="1" /><rect shape-rendering="crispEdges" fill="rgb(197, 131, 123)"  x="17" y="21" width="1" height="1" /><rect shape-rendering="crispEdges" fill="rgb(189, 106, 90)"  x="17" y="22" width="1" height="1" /><rect shape-rendering="crispEdges" fill="rgb(238, 222, 222)"  x="17" y="23" width="1" height="1" /><rect shape-rendering="crispEdges" fill="rgb(246, 238, 238)"  x="17" y="24" width="1" height="1" /><rect shape-rendering="crispEdges" fill="rgb(213, 205, 205)"  x="17" y="25" width="1" height="1" /><rect shape-rendering="crispEdges" fill="rgb(139, 139, 139)"  x="17" y="26" width="1" height="1" /><rect shape-rendering="crispEdges" fill="rgb(197, 189, 189)"  x="18" y="6" width="1" height="1" /><rect shape-rendering="crispEdges" fill="rgb(222, 222, 213)"  x="18" y="7" width="1" height="1" /><rect shape-rendering="crispEdges" fill="rgb(98, 98, 98)"  x="18" y="8" width="1" height="1" /><rect shape-rendering="crispEdges" fill="rgb(255, 255, 255)"  x="18" y="9" width="1" height="1" /><rect shape-rendering="crispEdges" fill="rgb(255, 255, 255)"  x="18" y="10" width="1" height="1" /><rect shape-rendering="crispEdges" fill="rgb(255, 255, 255)"  x="18" y="11" width="1" height="1" /><rect shape-rendering="crispEdges" fill="rgb(255, 255, 255)"  x="18" y="12" width="1" height="1" /><rect shape-rendering="crispEdges" fill="rgb(238, 230, 230)"  x="18" y="13" width="1" height="1" /><rect shape-rendering="crispEdges" fill="rgb(246, 238, 238)"  x="18" y="14" width="1" height="1" /><rect shape-rendering="crispEdges" fill="rgb(115, 106, 106)"  x="18" y="15" width="1" height="1" /><rect shape-rendering="crispEdges" fill="rgb(16, 16, 16)"  x="18" y="16" width="1" height="1" /><rect shape-rendering="crispEdges" fill="rgb(41, 41, 41)"  x="18" y="17" width="1" height="1" /><rect shape-rendering="crispEdges" fill="rgb(115, 106, 106)"  x="18" y="18" width="1" height="1" /><rect shape-rendering="crispEdges" fill="rgb(180, 172, 172)"  x="18" y="19" width="1" height="1" /><rect shape-rendering="crispEdges" fill="rgb(197, 180, 180)"  x="18" y="20" width="1" height="1" /><rect shape-rendering="crispEdges" fill="rgb(197, 139, 123)"  x="18" y="21" width="1" height="1" /><rect shape-rendering="crispEdges" fill="rgb(205, 156, 139)"  x="18" y="22" width="1" height="1" /><rect shape-rendering="crispEdges" fill="rgb(246, 238, 238)"  x="18" y="23" width="1" height="1" /><rect shape-rendering="crispEdges" fill="rgb(213, 205, 205)"  x="18" y="24" width="1" height="1" /><rect shape-rendering="crispEdges" fill="rgb(213, 205, 205)"  x="18" y="25" width="1" height="1" /><rect shape-rendering="crispEdges" fill="rgb(139, 139, 139)"  x="18" y="26" width="1" height="1" /><rect shape-rendering="crispEdges" fill="rgb(139, 139, 139)"  x="19" y="6" width="1" height="1" /><rect shape-rendering="crispEdges" fill="rgb(98, 98, 98)"  x="19" y="7" width="1" height="1" /><rect shape-rendering="crispEdges" fill="rgb(246, 246, 246)"  x="19" y="8" width="1" height="1" /><rect shape-rendering="crispEdges" fill="rgb(255, 255, 255)"  x="19" y="9" width="1" height="1" /><rect shape-rendering="crispEdges" fill="rgb(255, 255, 255)"  x="19" y="10" width="1" height="1" /><rect shape-rendering="crispEdges" fill="rgb(255, 255, 255)"  x="19" y="11" width="1" height="1" /><rect shape-rendering="crispEdges" fill="rgb(255, 255, 255)"  x="19" y="12" width="1" height="1" /><rect shape-rendering="crispEdges" fill="rgb(246, 238, 238)"  x="19" y="13" width="1" height="1" /><rect shape-rendering="crispEdges" fill="rgb(246, 238, 238)"  x="19" y="14" width="1" height="1" /><rect shape-rendering="crispEdges" fill="rgb(222, 213, 205)"  x="19" y="15" width="1" height="1" /><rect shape-rendering="crispEdges" fill="rgb(65, 65, 65)"  x="19" y="16" width="1" height="1" /><rect shape-rendering="crispEdges" fill="rgb(90, 82, 90)"  x="19" y="17" width="1" height="1" /><rect shape-rendering="crispEdges" fill="rgb(32, 41, 32)"  x="19" y="18" width="1" height="1" /><rect shape-rendering="crispEdges" fill="rgb(238, 230, 230)"  x="19" y="19" width="1" height="1" /><rect shape-rendering="crispEdges" fill="rgb(230, 222, 222)"  x="19" y="20" width="1" height="1" /><rect shape-rendering="crispEdges" fill="rgb(213, 180, 172)"  x="19" y="21" width="1" height="1" /><rect shape-rendering="crispEdges" fill="rgb(230, 213, 205)"  x="19" y="22" width="1" height="1" /><rect shape-rendering="crispEdges" fill="rgb(255, 255, 246)"  x="19" y="23" width="1" height="1" /><rect shape-rendering="crispEdges" fill="rgb(213, 205, 205)"  x="19" y="24" width="1" height="1" /><rect shape-rendering="crispEdges" fill="rgb(139, 139, 139)"  x="19" y="25" width="1" height="1" /><rect shape-rendering="crispEdges" fill="rgb(98, 98, 98)"  x="20" y="7" width="1" height="1" /><rect shape-rendering="crispEdges" fill="rgb(255, 255, 255)"  x="20" y="8" width="1" height="1" /><rect shape-rendering="crispEdges" fill="rgb(255, 255, 255)"  x="20" y="9" width="1" height="1" /><rect shape-rendering="crispEdges" fill="rgb(255, 255, 255)"  x="20" y="10" width="1" height="1" /><rect shape-rendering="crispEdges" fill="rgb(255, 255, 255)"  x="20" y="11" width="1" height="1" /><rect shape-rendering="crispEdges" fill="rgb(246, 238, 238)"  x="20" y="12" width="1" height="1" /><rect shape-rendering="crispEdges" fill="rgb(246, 238, 238)"  x="20" y="13" width="1" height="1" /><rect shape-rendering="crispEdges" fill="rgb(238, 230, 230)"  x="20" y="14" width="1" height="1" /><rect shape-rendering="crispEdges" fill="rgb(238, 230, 230)"  x="20" y="15" width="1" height="1" /><rect shape-rendering="crispEdges" fill="rgb(180, 172, 172)"  x="20" y="16" width="1" height="1" /><rect shape-rendering="crispEdges" fill="rgb(222, 213, 213)"  x="20" y="17" width="1" height="1" /><rect shape-rendering="crispEdges" fill="rgb(238, 230, 230)"  x="20" y="18" width="1" height="1" /><rect shape-rendering="crispEdges" fill="rgb(238, 238, 238)"  x="20" y="19" width="1" height="1" /><rect shape-rendering="crispEdges" fill="rgb(238, 230, 230)"  x="20" y="20" width="1" height="1" /><rect shape-rendering="crispEdges" fill="rgb(238, 230, 230)"  x="20" y="21" width="1" height="1" /><rect shape-rendering="crispEdges" fill="rgb(246, 246, 246)"  x="20" y="22" width="1" height="1" /><rect shape-rendering="crispEdges" fill="rgb(213, 205, 205)"  x="20" y="23" width="1" height="1" /><rect shape-rendering="crispEdges" fill="rgb(213, 205, 205)"  x="20" y="24" width="1" height="1" /><rect shape-rendering="crispEdges" fill="rgb(139, 139, 139)"  x="20" y="25" width="1" height="1" /><rect shape-rendering="crispEdges" fill="rgb(98, 98, 98)"  x="21" y="7" width="1" height="1" /><rect shape-rendering="crispEdges" fill="rgb(230, 230, 230)"  x="21" y="8" width="1" height="1" /><rect shape-rendering="crispEdges" fill="rgb(255, 255, 255)"  x="21" y="9" width="1" height="1" /><rect shape-rendering="crispEdges" fill="rgb(255, 255, 255)"  x="21" y="10" width="1" height="1" /><rect shape-rendering="crispEdges" fill="rgb(246, 246, 238)"  x="21" y="11" width="1" height="1" /><rect shape-rendering="crispEdges" fill="rgb(246, 246, 238)"  x="21" y="12" width="1" height="1" /><rect shape-rendering="crispEdges" fill="rgb(246, 238, 238)"  x="21" y="13" width="1" height="1" /><rect shape-rendering="crispEdges" fill="rgb(246, 238, 238)"  x="21" y="14" width="1" height="1" /><rect shape-rendering="crispEdges" fill="rgb(222, 213, 205)"  x="21" y="15" width="1" height="1" /><rect shape-rendering="crispEdges" fill="rgb(189, 180, 180)"  x="21" y="16" width="1" height="1" /><rect shape-rendering="crispEdges" fill="rgb(246, 238, 238)"  x="21" y="17" width="1" height="1" /><rect shape-rendering="crispEdges" fill="rgb(238, 238, 230)"  x="21" y="18" width="1" height="1" /><rect shape-rendering="crispEdges" fill="rgb(238, 238, 238)"  x="21" y="19" width="1" height="1" /><rect shape-rendering="crispEdges" fill="rgb(246, 238, 238)"  x="21" y="20" width="1" height="1" /><rect shape-rendering="crispEdges" fill="rgb(246, 238, 238)"  x="21" y="21" width="1" height="1" /><rect shape-rendering="crispEdges" fill="rgb(213, 205, 205)"  x="21" y="22" width="1" height="1" /><rect shape-rendering="crispEdges" fill="rgb(213, 205, 205)"  x="21" y="23" width="1" height="1" /><rect shape-rendering="crispEdges" fill="rgb(164, 156, 164)"  x="21" y="24" width="1" height="1" /><rect shape-rendering="crispEdges" fill="rgb(156, 156, 156)"  x="22" y="8" width="1" height="1" /><rect shape-rendering="crispEdges" fill="rgb(255, 255, 255)"  x="22" y="9" width="1" height="1" /><rect shape-rendering="crispEdges" fill="rgb(255, 255, 255)"  x="22" y="10" width="1" height="1" /><rect shape-rendering="crispEdges" fill="rgb(255, 246, 246)"  x="22" y="11" width="1" height="1" /><rect shape-rendering="crispEdges" fill="rgb(246, 246, 246)"  x="22" y="12" width="1" height="1" /><rect shape-rendering="crispEdges" fill="rgb(246, 246, 246)"  x="22" y="13" width="1" height="1" /><rect shape-rendering="crispEdges" fill="rgb(238, 230, 230)"  x="22" y="14" width="1" height="1" /><rect shape-rendering="crispEdges" fill="rgb(189, 180, 180)"  x="22" y="15" width="1" height="1" /><rect shape-rendering="crispEdges" fill="rgb(246, 238, 238)"  x="22" y="16" width="1" height="1" /><rect shape-rendering="crispEdges" fill="rgb(238, 230, 230)"  x="22" y="17" width="1" height="1" /><rect shape-rendering="crispEdges" fill="rgb(238, 222, 230)"  x="22" y="18" width="1" height="1" /><rect shape-rendering="crispEdges" fill="rgb(222, 205, 222)"  x="22" y="19" width="1" height="1" /><rect shape-rendering="crispEdges" fill="rgb(213, 180, 205)"  x="22" y="20" width="1" height="1" /><rect shape-rendering="crispEdges" fill="rgb(238, 213, 230)"  x="22" y="21" width="1" height="1" /><rect shape-rendering="crispEdges" fill="rgb(213, 205, 205)"  x="22" y="22" width="1" height="1" /><rect shape-rendering="crispEdges" fill="rgb(180, 172, 180)"  x="22" y="23" width="1" height="1" /><rect shape-rendering="crispEdges" fill="rgb(156, 148, 148)"  x="22" y="24" width="1" height="1" /><rect shape-rendering="crispEdges" fill="rgb(189, 180, 180)"  x="23" y="9" width="1" height="1" /><rect shape-rendering="crispEdges" fill="rgb(222, 222, 222)"  x="23" y="10" width="1" height="1" /><rect shape-rendering="crispEdges" fill="rgb(255, 255, 255)"  x="23" y="11" width="1" height="1" /><rect shape-rendering="crispEdges" fill="rgb(255, 255, 246)"  x="23" y="12" width="1" height="1" /><rect shape-rendering="crispEdges" fill="rgb(238, 230, 238)"  x="23" y="13" width="1" height="1" /><rect shape-rendering="crispEdges" fill="rgb(189, 180, 180)"  x="23" y="14" width="1" height="1" /><rect shape-rendering="crispEdges" fill="rgb(255, 255, 246)"  x="23" y="15" width="1" height="1" /><rect shape-rendering="crispEdges" fill="rgb(222, 205, 213)"  x="23" y="16" width="1" height="1" /><rect shape-rendering="crispEdges" fill="rgb(156, 115, 164)"  x="23" y="17" width="1" height="1" /><rect shape-rendering="crispEdges" fill="rgb(180, 90, 180)"  x="23" y="18" width="1" height="1" /><rect shape-rendering="crispEdges" fill="rgb(205, 98, 197)"  x="23" y="19" width="1" height="1" /><rect shape-rendering="crispEdges" fill="rgb(197, 74, 197)"  x="23" y="20" width="1" height="1" /><rect shape-rendering="crispEdges" fill="rgb(189, 123, 197)"  x="23" y="21" width="1" height="1" /><rect shape-rendering="crispEdges" fill="rgb(156, 148, 156)"  x="23" y="22" width="1" height="1" /><rect shape-rendering="crispEdges" fill="rgb(131, 123, 131)"  x="23" y="23" width="1" height="1" /><rect shape-rendering="crispEdges" fill="rgb(172, 164, 156)"  x="24" y="10" width="1" height="1" /><rect shape-rendering="crispEdges" fill="rgb(189, 180, 180)"  x="24" y="11" width="1" height="1" /><rect shape-rendering="crispEdges" fill="rgb(189, 180, 180)"  x="24" y="12" width="1" height="1" /><rect shape-rendering="crispEdges" fill="rgb(205, 197, 205)"  x="24" y="13" width="1" height="1" /><rect shape-rendering="crispEdges" fill="rgb(246, 238, 238)"  x="24" y="14" width="1" height="1" /><rect shape-rendering="crispEdges" fill="rgb(189, 90, 205)"  x="24" y="15" width="1" height="1" /><rect shape-rendering="crispEdges" fill="rgb(180, 98, 189)"  x="24" y="16" width="1" height="1" /><rect shape-rendering="crispEdges" fill="rgb(139, 32, 148)"  x="24" y="17" width="1" height="1" /><rect shape-rendering="crispEdges" fill="rgb(164, 90, 172)"  x="24" y="18" width="1" height="1" /><rect shape-rendering="crispEdges" fill="rgb(246, 131, 230)"  x="24" y="19" width="1" height="1" /><rect shape-rendering="crispEdges" fill="rgb(230, 106, 222)"  x="24" y="20" width="1" height="1" /><rect shape-rendering="crispEdges" fill="rgb(189, 82, 180)"  x="24" y="21" width="1" height="1" /><rect shape-rendering="crispEdges" fill="rgb(115, 24, 115)"  x="24" y="22" width="1" height="1" /><rect shape-rendering="crispEdges" fill="rgb(156, 106, 197)"  x="25" y="12" width="1" height="1" /><rect shape-rendering="crispEdges" fill="rgb(139, 148, 131)"  x="25" y="13" width="1" height="1" /><rect shape-rendering="crispEdges" fill="rgb(189, 90, 205)"  x="25" y="14" width="1" height="1" /><rect shape-rendering="crispEdges" fill="rgb(189, 90, 205)"  x="25" y="15" width="1" height="1" /><rect shape-rendering="crispEdges" fill="rgb(180, 49, 180)"  x="25" y="16" width="1" height="1" /><rect shape-rendering="crispEdges" fill="rgb(139, 8, 148)"  x="25" y="17" width="1" height="1" /><rect shape-rendering="crispEdges" fill="rgb(172, 65, 172)"  x="25" y="18" width="1" height="1" /><rect shape-rendering="crispEdges" fill="rgb(255, 156, 255)"  x="25" y="19" width="1" height="1" /><rect shape-rendering="crispEdges" fill="rgb(246, 131, 230)"  x="25" y="20" width="1" height="1" /><rect shape-rendering="crispEdges" fill="rgb(213, 106, 205)"  x="25" y="21" width="1" height="1" /><rect shape-rendering="crispEdges" fill="rgb(197, 90, 197)"  x="25" y="22" width="1" height="1" /><rect shape-rendering="crispEdges" fill="rgb(115, 24, 115)"  x="25" y="23" width="1" height="1" /><rect shape-rendering="crispEdges" fill="rgb(156, 106, 197)"  x="26" y="12" width="1" height="1" /><rect shape-rendering="crispEdges" fill="rgb(213, 98, 205)"  x="26" y="13" width="1" height="1" /><rect shape-rendering="crispEdges" fill="rgb(115, 32, 131)"  x="26" y="14" width="1" height="1" /><rect shape-rendering="crispEdges" fill="rgb(238, 115, 230)"  x="26" y="15" width="1" height="1" /><rect shape-rendering="crispEdges" fill="rgb(189, 90, 205)"  x="26" y="16" width="1" height="1" /><rect shape-rendering="crispEdges" fill="rgb(180, 57, 180)"  x="26" y="17" width="1" height="1" /><rect shape-rendering="crispEdges" fill="rgb(131, 0, 131)"  x="26" y="18" width="1" height="1" /><rect shape-rendering="crispEdges" fill="rgb(222, 98, 205)"  x="26" y="19" width="1" height="1" /><rect shape-rendering="crispEdges" fill="rgb(255, 156, 255)"  x="26" y="20" width="1" height="1" /><rect shape-rendering="crispEdges" fill="rgb(246, 131, 230)"  x="26" y="21" width="1" height="1" /><rect shape-rendering="crispEdges" fill="rgb(238, 98, 222)"  x="26" y="22" width="1" height="1" /><rect shape-rendering="crispEdges" fill="rgb(180, 49, 180)"  x="26" y="23" width="1" height="1" /><rect shape-rendering="crispEdges" fill="rgb(115, 24, 115)"  x="26" y="24" width="1" height="1" /><rect shape-rendering="crispEdges" fill="rgb(156, 106, 197)"  x="27" y="12" width="1" height="1" /><rect shape-rendering="crispEdges" fill="rgb(213, 98, 205)"  x="27" y="13" width="1" height="1" /><rect shape-rendering="crispEdges" fill="rgb(156, 65, 180)"  x="27" y="14" width="1" height="1" /><rect shape-rendering="crispEdges" fill="rgb(238, 123, 230)"  x="27" y="15" width="1" height="1" /><rect shape-rendering="crispEdges" fill="rgb(238, 123, 230)"  x="27" y="16" width="1" height="1" /><rect shape-rendering="crispEdges" fill="rgb(189, 90, 205)"  x="27" y="17" width="1" height="1" /><rect shape-rendering="crispEdges" fill="rgb(148, 24, 148)"  x="27" y="18" width="1" height="1" /><rect shape-rendering="crispEdges" fill="rgb(131, 0, 139)"  x="27" y="19" width="1" height="1" /><rect shape-rendering="crispEdges" fill="rgb(222, 98, 205)"  x="27" y="20" width="1" height="1" /><rect shape-rendering="crispEdges" fill="rgb(255, 156, 255)"  x="27" y="21" width="1" height="1" /><rect shape-rendering="crispEdges" fill="rgb(238, 115, 222)"  x="27" y="22" width="1" height="1" /><rect shape-rendering="crispEdges" fill="rgb(189, 57, 189)"  x="27" y="23" width="1" height="1" /><rect shape-rendering="crispEdges" fill="rgb(156, 32, 164)"  x="27" y="24" width="1" height="1" /><rect shape-rendering="crispEdges" fill="rgb(115, 24, 115)"  x="27" y="25" width="1" height="1" /><rect shape-rendering="crispEdges" fill="rgb(156, 106, 197)"  x="28" y="13" width="1" height="1" /><rect shape-rendering="crispEdges" fill="rgb(156, 65, 180)"  x="28" y="14" width="1" height="1" /><rect shape-rendering="crispEdges" fill="rgb(156, 65, 180)"  x="28" y="15" width="1" height="1" /><rect shape-rendering="crispEdges" fill="rgb(222, 115, 222)"  x="28" y="16" width="1" height="1" /><rect shape-rendering="crispEdges" fill="rgb(222, 98, 213)"  x="28" y="17" width="1" height="1" /><rect shape-rendering="crispEdges" fill="rgb(148, 41, 156)"  x="28" y="18" width="1" height="1" /><rect shape-rendering="crispEdges" fill="rgb(123, 16, 139)"  x="28" y="19" width="1" height="1" /><rect shape-rendering="crispEdges" fill="rgb(189, 65, 189)"  x="28" y="20" width="1" height="1" /><rect shape-rendering="crispEdges" fill="rgb(222, 98, 205)"  x="28" y="21" width="1" height="1" /><rect shape-rendering="crispEdges" fill="rgb(197, 74, 197)"  x="28" y="22" width="1" height="1" /><rect shape-rendering="crispEdges" fill="rgb(164, 49, 172)"  x="28" y="23" width="1" height="1" /><rect shape-rendering="crispEdges" fill="rgb(131, 32, 148)"  x="28" y="24" width="1" height="1" /><rect shape-rendering="crispEdges" fill="rgb(123, 24, 148)"  x="28" y="25" width="1" height="1" /><rect shape-rendering="crispEdges" fill="rgb(156, 106, 197)"  x="29" y="13" width="1" height="1" /><rect shape-rendering="crispEdges" fill="rgb(213, 98, 205)"  x="29" y="14" width="1" height="1" /><rect shape-rendering="crispEdges" fill="rgb(131, 57, 156)"  x="29" y="15" width="1" height="1" /><rect shape-rendering="crispEdges" fill="rgb(189, 90, 205)"  x="29" y="16" width="1" height="1" /><rect shape-rendering="crispEdges" fill="rgb(213, 98, 205)"  x="29" y="17" width="1" height="1" /><rect shape-rendering="crispEdges" fill="rgb(148, 49, 164)"  x="29" y="18" width="1" height="1" /><rect shape-rendering="crispEdges" fill="rgb(115, 24, 148)"  x="29" y="19" width="1" height="1" /><rect shape-rendering="crispEdges" fill="rgb(139, 32, 164)"  x="29" y="20" width="1" height="1" /><rect shape-rendering="crispEdges" fill="rgb(156, 41, 164)"  x="29" y="21" width="1" height="1" /><rect shape-rendering="crispEdges" fill="rgb(139, 24, 164)"  x="29" y="22" width="1" height="1" /><rect shape-rendering="crispEdges" fill="rgb(123, 24, 156)"  x="29" y="23" width="1" height="1" /><rect shape-rendering="crispEdges" fill="rgb(139, 32, 156)"  x="29" y="24" width="1" height="1" /><rect shape-rendering="crispEdges" fill="rgb(123, 24, 139)"  x="29" y="25" width="1" height="1" /><rect shape-rendering="crispEdges" fill="rgb(156, 106, 197)"  x="30" y="14" width="1" height="1" /><rect shape-rendering="crispEdges" fill="rgb(123, 74, 148)"  x="30" y="15" width="1" height="1" /><rect shape-rendering="crispEdges" fill="rgb(139, 74, 164)"  x="30" y="16" width="1" height="1" /><rect shape-rendering="crispEdges" fill="rgb(172, 82, 197)"  x="30" y="17" width="1" height="1" /><rect shape-rendering="crispEdges" fill="rgb(148, 65, 180)"  x="30" y="18" width="1" height="1" /><rect shape-rendering="crispEdges" fill="rgb(115, 32, 156)"  x="30" y="19" width="1" height="1" /><rect shape-rendering="crispEdges" fill="rgb(115, 24, 148)"  x="30" y="20" width="1" height="1" /><rect shape-rendering="crispEdges" fill="rgb(131, 41, 148)"  x="30" y="21" width="1" height="1" /><rect shape-rendering="crispEdges" fill="rgb(123, 57, 139)"  x="30" y="22" width="1" height="1" /><rect shape-rendering="crispEdges" fill="rgb(115, 74, 139)"  x="30" y="23" width="1" height="1" /><rect shape-rendering="crispEdges" fill="rgb(148, 41, 156)"  x="30" y="24" width="1" height="1" /><rect shape-rendering="crispEdges" fill="rgb(131, 82, 156)"  x="31" y="16" width="1" height="1" /><rect shape-rendering="crispEdges" fill="rgb(139, 82, 164)"  x="31" y="17" width="1" height="1" /><rect shape-rendering="crispEdges" fill="rgb(139, 57, 180)"  x="31" y="18" width="1" height="1" /><rect shape-rendering="crispEdges" fill="rgb(115, 57, 156)"  x="31" y="19" width="1" height="1" /><rect shape-rendering="crispEdges" fill="rgb(106, 65, 131)"  x="31" y="20" width="1" height="1" /><rect shape-rendering="crispEdges" fill="rgb(123, 57, 139)"  x="31" y="21" width="1" height="1" /><rect shape-rendering="crispEdges" fill="rgb(123, 65, 139)"  x="31" y="22" width="1" height="1" /></svg>