<svg xmlns="http://www.w3.org/2000/svg" xmlns:xlink= "http://www.w3.org/1999/xlink" width="32" height="32" viewBox ="0 0 32 32"><rect shape-rendering="crispEdges" fill="rgb(32, 106, 148)"  x="0" y="23" width="1" height="1" /><rect shape-rendering="crispEdges" fill="rgb(16, 82, 123)"  x="0" y="24" width="1" height="1" /><rect shape-rendering="crispEdges" fill="rgb(49, 98, 156)"  x="0" y="25" width="1" height="1" /><rect shape-rendering="crispEdges" fill="rgb(222, 98, 172)"  x="1" y="3" width="1" height="1" /><rect shape-rendering="crispEdges" fill="rgb(115, 98, 82)"  x="1" y="4" width="1" height="1" /><rect shape-rendering="crispEdges" fill="rgb(156, 74, 131)"  x="1" y="5" width="1" height="1" /><rect shape-rendering="crispEdges" fill="rgb(49, 98, 156)"  x="1" y="21" width="1" height="1" /><rect shape-rendering="crispEdges" fill="rgb(8, 74, 115)"  x="1" y="22" width="1" height="1" /><rect shape-rendering="crispEdges" fill="rgb(41, 115, 156)"  x="1" y="23" width="1" height="1" /><rect shape-rendering="crispEdges" fill="rgb(49, 123, 156)"  x="1" y="24" width="1" height="1" /><rect shape-rendering="crispEdges" fill="rgb(41, 90, 148)"  x="1" y="25" width="1" height="1" /><rect shape-rendering="crispEdges" fill="rgb(213, 180, 131)"  x="2" y="4" width="1" height="1" /><rect shape-rendering="crispEdges" fill="rgb(164, 106, 65)"  x="2" y="5" width="1" height="1" /><rect shape-rendering="crispEdges" fill="rgb(115, 98, 82)"  x="2" y="6" width="1" height="1" /><rect shape-rendering="crispEdges" fill="rgb(8, 74, 115)"  x="2" y="20" width="1" height="1" /><rect shape-rendering="crispEdges" fill="rgb(8, 74, 115)"  x="2" y="21" width="1" height="1" /><rect shape-rendering="crispEdges" fill="rgb(32, 106, 148)"  x="2" y="22" width="1" height="1" /><rect shape-rendering="crispEdges" fill="rgb(57, 123, 164)"  x="2" y="23" width="1" height="1" /><rect shape-rendering="crispEdges" fill="rgb(57, 98, 156)"  x="2" y="24" width="1" height="1" /><rect shape-rendering="crispEdges" fill="rgb(32, 90, 131)"  x="2" y="25" width="1" height="1" /><rect shape-rendering="crispEdges" fill="rgb(16, 82, 115)"  x="2" y="27" width="1" height="1" /><rect shape-rendering="crispEdges" fill="rgb(24, 90, 131)"  x="2" y="28" width="1" height="1" /><rect shape-rendering="crispEdges" fill="rgb(115, 106, 98)"  x="3" y="4" width="1" height="1" /><rect shape-rendering="crispEdges" fill="rgb(238, 172, 106)"  x="3" y="5" width="1" height="1" /><rect shape-rendering="crispEdges" fill="rgb(164, 82, 32)"  x="3" y="6" width="1" height="1" /><rect shape-rendering="crispEdges" fill="rgb(156, 74, 131)"  x="3" y="7" width="1" height="1" /><rect shape-rendering="crispEdges" fill="rgb(24, 82, 123)"  x="3" y="17" width="1" height="1" /><rect shape-rendering="crispEdges" fill="rgb(24, 74, 106)"  x="3" y="18" width="1" height="1" /><rect shape-rendering="crispEdges" fill="rgb(24, 82, 115)"  x="3" y="19" width="1" height="1" /><rect shape-rendering="crispEdges" fill="rgb(32, 106, 148)"  x="3" y="20" width="1" height="1" /><rect shape-rendering="crispEdges" fill="rgb(57, 123, 172)"  x="3" y="21" width="1" height="1" /><rect shape-rendering="crispEdges" fill="rgb(74, 106, 172)"  x="3" y="22" width="1" height="1" /><rect shape-rendering="crispEdges" fill="rgb(65, 98, 164)"  x="3" y="23" width="1" height="1" /><rect shape-rendering="crispEdges" fill="rgb(32, 74, 123)"  x="3" y="24" width="1" height="1" /><rect shape-rendering="crispEdges" fill="rgb(49, 98, 156)"  x="3" y="26" width="1" height="1" /><rect shape-rendering="crispEdges" fill="rgb(74, 98, 164)"  x="3" y="27" width="1" height="1" /><rect shape-rendering="crispEdges" fill="rgb(41, 90, 148)"  x="3" y="28" width="1" height="1" /><rect shape-rendering="crispEdges" fill="rgb(16, 90, 131)"  x="3" y="29" width="1" height="1" /><rect shape-rendering="crispEdges" fill="rgb(16, 82, 123)"  x="4" y="4" width="1" height="1" /><rect shape-rendering="crispEdges" fill="rgb(65, 106, 131)"  x="4" y="5" width="1" height="1" /><rect shape-rendering="crispEdges" fill="rgb(74, 106, 139)"  x="4" y="6" width="1" height="1" /><rect shape-rendering="crispEdges" fill="rgb(16, 90, 156)"  x="4" y="7" width="1" height="1" /><rect shape-rendering="crispEdges" fill="rgb(16, 82, 123)"  x="4" y="8" width="1" height="1" /><rect shape-rendering="crispEdges" fill="rgb(8, 65, 98)"  x="4" y="9" width="1" height="1" /><rect shape-rendering="crispEdges" fill="rgb(8, 65, 98)"  x="4" y="10" width="1" height="1" /><rect shape-rendering="crispEdges" fill="rgb(8, 74, 106)"  x="4" y="11" width="1" height="1" /><rect shape-rendering="crispEdges" fill="rgb(8, 74, 115)"  x="4" y="12" width="1" height="1" /><rect shape-rendering="crispEdges" fill="rgb(24, 82, 131)"  x="4" y="13" width="1" height="1" /><rect shape-rendering="crispEdges" fill="rgb(24, 90, 123)"  x="4" y="14" width="1" height="1" /><rect shape-rendering="crispEdges" fill="rgb(49, 98, 156)"  x="4" y="15" width="1" height="1" /><rect shape-rendering="crispEdges" fill="rgb(49, 98, 156)"  x="4" y="16" width="1" height="1" /><rect shape-rendering="crispEdges" fill="rgb(82, 106, 180)"  x="4" y="17" width="1" height="1" /><rect shape-rendering="crispEdges" fill="rgb(74, 131, 180)"  x="4" y="18" width="1" height="1" /><rect shape-rendering="crispEdges" fill="rgb(57, 123, 164)"  x="4" y="19" width="1" height="1" /><rect shape-rendering="crispEdges" fill="rgb(49, 115, 156)"  x="4" y="20" width="1" height="1" /><rect shape-rendering="crispEdges" fill="rgb(41, 115, 164)"  x="4" y="21" width="1" height="1" /><rect shape-rendering="crispEdges" fill="rgb(49, 90, 139)"  x="4" y="22" width="1" height="1" /><rect shape-rendering="crispEdges" fill="rgb(8, 65, 98)"  x="4" y="24" width="1" height="1" /><rect shape-rendering="crispEdges" fill="rgb(24, 90, 139)"  x="4" y="25" width="1" height="1" /><rect shape-rendering="crispEdges" fill="rgb(82, 106, 180)"  x="4" y="26" width="1" height="1" /><rect shape-rendering="crispEdges" fill="rgb(41, 106, 148)"  x="4" y="27" width="1" height="1" /><rect shape-rendering="crispEdges" fill="rgb(32, 106, 148)"  x="4" y="28" width="1" height="1" /><rect shape-rendering="crispEdges" fill="rgb(16, 90, 123)"  x="4" y="29" width="1" height="1" /><rect shape-rendering="crispEdges" fill="rgb(41, 98, 156)"  x="5" y="4" width="1" height="1" /><rect shape-rendering="crispEdges" fill="rgb(74, 148, 213)"  x="5" y="5" width="1" height="1" /><rect shape-rendering="crispEdges" fill="rgb(49, 123, 164)"  x="5" y="6" width="1" height="1" /><rect shape-rendering="crispEdges" fill="rgb(115, 98, 82)"  x="5" y="7" width="1" height="1" /><rect shape-rendering="crispEdges" fill="rgb(24, 115, 180)"  x="5" y="8" width="1" height="1" /><rect shape-rendering="crispEdges" fill="rgb(57, 131, 189)"  x="5" y="9" width="1" height="1" /><rect shape-rendering="crispEdges" fill="rgb(65, 131, 172)"  x="5" y="10" width="1" height="1" /><rect shape-rendering="crispEdges" fill="rgb(65, 131, 172)"  x="5" y="11" width="1" height="1" /><rect shape-rendering="crispEdges" fill="rgb(65, 131, 180)"  x="5" y="12" width="1" height="1" /><rect shape-rendering="crispEdges" fill="rgb(49, 123, 164)"  x="5" y="13" width="1" height="1" /><rect shape-rendering="crispEdges" fill="rgb(65, 131, 172)"  x="5" y="14" width="1" height="1" /><rect shape-rendering="crispEdges" fill="rgb(74, 139, 189)"  x="5" y="15" width="1" height="1" /><rect shape-rendering="crispEdges" fill="rgb(57, 123, 172)"  x="5" y="16" width="1" height="1" /><rect shape-rendering="crispEdges" fill="rgb(49, 131, 172)"  x="5" y="17" width="1" height="1" /><rect shape-rendering="crispEdges" fill="rgb(41, 139, 180)"  x="5" y="18" width="1" height="1" /><rect shape-rendering="crispEdges" fill="rgb(41, 148, 197)"  x="5" y="19" width="1" height="1" /><rect shape-rendering="crispEdges" fill="rgb(57, 123, 172)"  x="5" y="20" width="1" height="1" /><rect shape-rendering="crispEdges" fill="rgb(41, 98, 123)"  x="5" y="21" width="1" height="1" /><rect shape-rendering="crispEdges" fill="rgb(24, 90, 139)"  x="5" y="22" width="1" height="1" /><rect shape-rendering="crispEdges" fill="rgb(16, 74, 115)"  x="5" y="23" width="1" height="1" /><rect shape-rendering="crispEdges" fill="rgb(90, 106, 180)"  x="5" y="24" width="1" height="1" /><rect shape-rendering="crispEdges" fill="rgb(49, 115, 156)"  x="5" y="25" width="1" height="1" /><rect shape-rendering="crispEdges" fill="rgb(49, 115, 156)"  x="5" y="26" width="1" height="1" /><rect shape-rendering="crispEdges" fill="rgb(32, 106, 148)"  x="5" y="27" width="1" height="1" /><rect shape-rendering="crispEdges" fill="rgb(24, 90, 123)"  x="5" y="28" width="1" height="1" /><rect shape-rendering="crispEdges" fill="rgb(24, 90, 123)"  x="5" y="29" width="1" height="1" /><rect shape-rendering="crispEdges" fill="rgb(57, 57, 131)"  x="6" y="3" width="1" height="1" /><rect shape-rendering="crispEdges" fill="rgb(98, 106, 197)"  x="6" y="4" width="1" height="1" /><rect shape-rendering="crispEdges" fill="rgb(74, 139, 197)"  x="6" y="5" width="1" height="1" /><rect shape-rendering="crispEdges" fill="rgb(24, 98, 156)"  x="6" y="6" width="1" height="1" /><rect shape-rendering="crispEdges" fill="rgb(205, 164, 115)"  x="6" y="7" width="1" height="1" /><rect shape-rendering="crispEdges" fill="rgb(180, 131, 82)"  x="6" y="8" width="1" height="1" /><rect shape-rendering="crispEdges" fill="rgb(74, 65, 74)"  x="6" y="9" width="1" height="1" /><rect shape-rendering="crispEdges" fill="rgb(57, 148, 197)"  x="6" y="10" width="1" height="1" /><rect shape-rendering="crispEdges" fill="rgb(32, 106, 148)"  x="6" y="11" width="1" height="1" /><rect shape-rendering="crispEdges" fill="rgb(49, 115, 148)"  x="6" y="12" width="1" height="1" /><rect shape-rendering="crispEdges" fill="rgb(32, 172, 222)"  x="6" y="13" width="1" height="1" /><rect shape-rendering="crispEdges" fill="rgb(32, 172, 222)"  x="6" y="14" width="1" height="1" /><rect shape-rendering="crispEdges" fill="rgb(65, 131, 180)"  x="6" y="15" width="1" height="1" /><rect shape-rendering="crispEdges" fill="rgb(24, 90, 123)"  x="6" y="16" width="1" height="1" /><rect shape-rendering="crispEdges" fill="rgb(32, 123, 156)"  x="6" y="17" width="1" height="1" /><rect shape-rendering="crispEdges" fill="rgb(49, 180, 238)"  x="6" y="18" width="1" height="1" /><rect shape-rendering="crispEdges" fill="rgb(32, 172, 222)"  x="6" y="19" width="1" height="1" /><rect shape-rendering="crispEdges" fill="rgb(24, 90, 123)"  x="6" y="20" width="1" height="1" /><rect shape-rendering="crispEdges" fill="rgb(8, 74, 115)"  x="6" y="21" width="1" height="1" /><rect shape-rendering="crispEdges" fill="rgb(49, 123, 164)"  x="6" y="22" width="1" height="1" /><rect shape-rendering="crispEdges" fill="rgb(57, 123, 172)"  x="6" y="23" width="1" height="1" /><rect shape-rendering="crispEdges" fill="rgb(41, 115, 156)"  x="6" y="24" width="1" height="1" /><rect shape-rendering="crispEdges" fill="rgb(32, 106, 156)"  x="6" y="25" width="1" height="1" /><rect shape-rendering="crispEdges" fill="rgb(24, 90, 123)"  x="6" y="26" width="1" height="1" /><rect shape-rendering="crispEdges" fill="rgb(24, 90, 123)"  x="6" y="27" width="1" height="1" /><rect shape-rendering="crispEdges" fill="rgb(57, 98, 123)"  x="6" y="28" width="1" height="1" /><rect shape-rendering="crispEdges" fill="rgb(65, 82, 139)"  x="7" y="3" width="1" height="1" /><rect shape-rendering="crispEdges" fill="rgb(98, 180, 230)"  x="7" y="4" width="1" height="1" /><rect shape-rendering="crispEdges" fill="rgb(41, 106, 148)"  x="7" y="5" width="1" height="1" /><rect shape-rendering="crispEdges" fill="rgb(16, 115, 164)"  x="7" y="6" width="1" height="1" /><rect shape-rendering="crispEdges" fill="rgb(49, 131, 164)"  x="7" y="7" width="1" height="1" /><rect shape-rendering="crispEdges" fill="rgb(246, 189, 115)"  x="7" y="8" width="1" height="1" /><rect shape-rendering="crispEdges" fill="rgb(189, 90, 32)"  x="7" y="9" width="1" height="1" /><rect shape-rendering="crispEdges" fill="rgb(74, 65, 74)"  x="7" y="10" width="1" height="1" /><rect shape-rendering="crispEdges" fill="rgb(24, 115, 156)"  x="7" y="11" width="1" height="1" /><rect shape-rendering="crispEdges" fill="rgb(49, 180, 230)"  x="7" y="12" width="1" height="1" /><rect shape-rendering="crispEdges" fill="rgb(57, 139, 180)"  x="7" y="13" width="1" height="1" /><rect shape-rendering="crispEdges" fill="rgb(57, 123, 172)"  x="7" y="14" width="1" height="1" /><rect shape-rendering="crispEdges" fill="rgb(41, 115, 156)"  x="7" y="15" width="1" height="1" /><rect shape-rendering="crispEdges" fill="rgb(24, 90, 123)"  x="7" y="16" width="1" height="1" /><rect shape-rendering="crispEdges" fill="rgb(8, 74, 115)"  x="7" y="17" width="1" height="1" /><rect shape-rendering="crispEdges" fill="rgb(8, 74, 115)"  x="7" y="18" width="1" height="1" /><rect shape-rendering="crispEdges" fill="rgb(16, 90, 131)"  x="7" y="19" width="1" height="1" /><rect shape-rendering="crispEdges" fill="rgb(49, 115, 156)"  x="7" y="20" width="1" height="1" /><rect shape-rendering="crispEdges" fill="rgb(65, 131, 172)"  x="7" y="21" width="1" height="1" /><rect shape-rendering="crispEdges" fill="rgb(41, 115, 164)"  x="7" y="22" width="1" height="1" /><rect shape-rendering="crispEdges" fill="rgb(32, 123, 164)"  x="7" y="23" width="1" height="1" /><rect shape-rendering="crispEdges" fill="rgb(49, 123, 156)"  x="7" y="24" width="1" height="1" /><rect shape-rendering="crispEdges" fill="rgb(57, 98, 123)"  x="7" y="25" width="1" height="1" /><rect shape-rendering="crispEdges" fill="rgb(57, 90, 156)"  x="8" y="3" width="1" height="1" /><rect shape-rendering="crispEdges" fill="rgb(90, 164, 213)"  x="8" y="4" width="1" height="1" /><rect shape-rendering="crispEdges" fill="rgb(24, 98, 131)"  x="8" y="5" width="1" height="1" /><rect shape-rendering="crispEdges" fill="rgb(8, 139, 189)"  x="8" y="6" width="1" height="1" /><rect shape-rendering="crispEdges" fill="rgb(24, 156, 238)"  x="8" y="7" width="1" height="1" /><rect shape-rendering="crispEdges" fill="rgb(238, 197, 131)"  x="8" y="8" width="1" height="1" /><rect shape-rendering="crispEdges" fill="rgb(189, 115, 65)"  x="8" y="9" width="1" height="1" /><rect shape-rendering="crispEdges" fill="rgb(74, 65, 74)"  x="8" y="10" width="1" height="1" /><rect shape-rendering="crispEdges" fill="rgb(16, 82, 115)"  x="8" y="11" width="1" height="1" /><rect shape-rendering="crispEdges" fill="rgb(8, 74, 115)"  x="8" y="12" width="1" height="1" /><rect shape-rendering="crispEdges" fill="rgb(8, 74, 115)"  x="8" y="13" width="1" height="1" /><rect shape-rendering="crispEdges" fill="rgb(8, 74, 115)"  x="8" y="14" width="1" height="1" /><rect shape-rendering="crispEdges" fill="rgb(8, 74, 115)"  x="8" y="15" width="1" height="1" /><rect shape-rendering="crispEdges" fill="rgb(16, 90, 131)"  x="8" y="16" width="1" height="1" /><rect shape-rendering="crispEdges" fill="rgb(49, 115, 156)"  x="8" y="17" width="1" height="1" /><rect shape-rendering="crispEdges" fill="rgb(65, 131, 180)"  x="8" y="18" width="1" height="1" /><rect shape-rendering="crispEdges" fill="rgb(65, 131, 180)"  x="8" y="19" width="1" height="1" /><rect shape-rendering="crispEdges" fill="rgb(49, 131, 172)"  x="8" y="20" width="1" height="1" /><rect shape-rendering="crispEdges" fill="rgb(41, 148, 189)"  x="8" y="21" width="1" height="1" /><rect shape-rendering="crispEdges" fill="rgb(41, 115, 164)"  x="8" y="22" width="1" height="1" /><rect shape-rendering="crispEdges" fill="rgb(57, 123, 172)"  x="8" y="23" width="1" height="1" /><rect shape-rendering="crispEdges" fill="rgb(49, 90, 123)"  x="8" y="24" width="1" height="1" /><rect shape-rendering="crispEdges" fill="rgb(57, 98, 156)"  x="9" y="2" width="1" height="1" /><rect shape-rendering="crispEdges" fill="rgb(82, 106, 180)"  x="9" y="3" width="1" height="1" /><rect shape-rendering="crispEdges" fill="rgb(65, 123, 172)"  x="9" y="4" width="1" height="1" /><rect shape-rendering="crispEdges" fill="rgb(16, 90, 123)"  x="9" y="5" width="1" height="1" /><rect shape-rendering="crispEdges" fill="rgb(8, 131, 180)"  x="9" y="6" width="1" height="1" /><rect shape-rendering="crispEdges" fill="rgb(32, 156, 205)"  x="9" y="7" width="1" height="1" /><rect shape-rendering="crispEdges" fill="rgb(65, 74, 82)"  x="9" y="8" width="1" height="1" /><rect shape-rendering="crispEdges" fill="rgb(32, 90, 131)"  x="9" y="9" width="1" height="1" /><rect shape-rendering="crispEdges" fill="rgb(41, 123, 172)"  x="9" y="10" width="1" height="1" /><rect shape-rendering="crispEdges" fill="rgb(49, 115, 164)"  x="9" y="11" width="1" height="1" /><rect shape-rendering="crispEdges" fill="rgb(41, 106, 156)"  x="9" y="12" width="1" height="1" /><rect shape-rendering="crispEdges" fill="rgb(49, 106, 156)"  x="9" y="13" width="1" height="1" /><rect shape-rendering="crispEdges" fill="rgb(65, 131, 180)"  x="9" y="14" width="1" height="1" /><rect shape-rendering="crispEdges" fill="rgb(82, 148, 189)"  x="9" y="15" width="1" height="1" /><rect shape-rendering="crispEdges" fill="rgb(82, 148, 197)"  x="9" y="16" width="1" height="1" /><rect shape-rendering="crispEdges" fill="rgb(65, 123, 172)"  x="9" y="17" width="1" height="1" /><rect shape-rendering="crispEdges" fill="rgb(74, 139, 180)"  x="9" y="18" width="1" height="1" /><rect shape-rendering="crispEdges" fill="rgb(32, 98, 139)"  x="9" y="19" width="1" height="1" /><rect shape-rendering="crispEdges" fill="rgb(24, 115, 148)"  x="9" y="20" width="1" height="1" /><rect shape-rendering="crispEdges" fill="rgb(49, 172, 222)"  x="9" y="21" width="1" height="1" /><rect shape-rendering="crispEdges" fill="rgb(41, 164, 213)"  x="9" y="22" width="1" height="1" /><rect shape-rendering="crispEdges" fill="rgb(32, 139, 189)"  x="9" y="23" width="1" height="1" /><rect shape-rendering="crispEdges" fill="rgb(32, 123, 172)"  x="9" y="24" width="1" height="1" /><rect shape-rendering="crispEdges" fill="rgb(74, 74, 139)"  x="9" y="25" width="1" height="1" /><rect shape-rendering="crispEdges" fill="rgb(41, 98, 131)"  x="10" y="2" width="1" height="1" /><rect shape-rendering="crispEdges" fill="rgb(32, 156, 205)"  x="10" y="3" width="1" height="1" /><rect shape-rendering="crispEdges" fill="rgb(41, 106, 139)"  x="10" y="4" width="1" height="1" /><rect shape-rendering="crispEdges" fill="rgb(16, 98, 131)"  x="10" y="5" width="1" height="1" /><rect shape-rendering="crispEdges" fill="rgb(8, 139, 189)"  x="10" y="6" width="1" height="1" /><rect shape-rendering="crispEdges" fill="rgb(8, 131, 180)"  x="10" y="7" width="1" height="1" /><rect shape-rendering="crispEdges" fill="rgb(24, 82, 139)"  x="10" y="8" width="1" height="1" /><rect shape-rendering="crispEdges" fill="rgb(74, 148, 205)"  x="10" y="9" width="1" height="1" /><rect shape-rendering="crispEdges" fill="rgb(65, 131, 180)"  x="10" y="10" width="1" height="1" /><rect shape-rendering="crispEdges" fill="rgb(16, 82, 106)"  x="10" y="11" width="1" height="1" /><rect shape-rendering="crispEdges" fill="rgb(41, 106, 139)"  x="10" y="12" width="1" height="1" /><rect shape-rendering="crispEdges" fill="rgb(82, 148, 197)"  x="10" y="13" width="1" height="1" /><rect shape-rendering="crispEdges" fill="rgb(74, 139, 180)"  x="10" y="14" width="1" height="1" /><rect shape-rendering="crispEdges" fill="rgb(41, 115, 156)"  x="10" y="15" width="1" height="1" /><rect shape-rendering="crispEdges" fill="rgb(49, 115, 156)"  x="10" y="16" width="1" height="1" /><rect shape-rendering="crispEdges" fill="rgb(65, 131, 180)"  x="10" y="17" width="1" height="1" /><rect shape-rendering="crispEdges" fill="rgb(65, 131, 180)"  x="10" y="18" width="1" height="1" /><rect shape-rendering="crispEdges" fill="rgb(49, 115, 156)"  x="10" y="19" width="1" height="1" /><rect shape-rendering="crispEdges" fill="rgb(41, 98, 131)"  x="10" y="20" width="1" height="1" /><rect shape-rendering="crispEdges" fill="rgb(32, 98, 131)"  x="10" y="21" width="1" height="1" /><rect shape-rendering="crispEdges" fill="rgb(32, 131, 172)"  x="10" y="22" width="1" height="1" /><rect shape-rendering="crispEdges" fill="rgb(41, 106, 139)"  x="10" y="23" width="1" height="1" /><rect shape-rendering="crispEdges" fill="rgb(32, 98, 131)"  x="10" y="24" width="1" height="1" /><rect shape-rendering="crispEdges" fill="rgb(65, 82, 148)"  x="10" y="25" width="1" height="1" /><rect shape-rendering="crispEdges" fill="rgb(65, 74, 123)"  x="10" y="26" width="1" height="1" /><rect shape-rendering="crispEdges" fill="rgb(41, 98, 131)"  x="11" y="2" width="1" height="1" /><rect shape-rendering="crispEdges" fill="rgb(65, 123, 172)"  x="11" y="3" width="1" height="1" /><rect shape-rendering="crispEdges" fill="rgb(32, 106, 139)"  x="11" y="4" width="1" height="1" /><rect shape-rendering="crispEdges" fill="rgb(24, 131, 164)"  x="11" y="5" width="1" height="1" /><rect shape-rendering="crispEdges" fill="rgb(8, 156, 222)"  x="11" y="6" width="1" height="1" /><rect shape-rendering="crispEdges" fill="rgb(24, 123, 156)"  x="11" y="7" width="1" height="1" /><rect shape-rendering="crispEdges" fill="rgb(41, 98, 139)"  x="11" y="8" width="1" height="1" /><rect shape-rendering="crispEdges" fill="rgb(49, 172, 230)"  x="11" y="9" width="1" height="1" /><rect shape-rendering="crispEdges" fill="rgb(32, 98, 131)"  x="11" y="10" width="1" height="1" /><rect shape-rendering="crispEdges" fill="rgb(24, 115, 148)"  x="11" y="11" width="1" height="1" /><rect shape-rendering="crispEdges" fill="rgb(41, 156, 197)"  x="11" y="12" width="1" height="1" /><rect shape-rendering="crispEdges" fill="rgb(49, 115, 156)"  x="11" y="13" width="1" height="1" /><rect shape-rendering="crispEdges" fill="rgb(74, 139, 180)"  x="11" y="14" width="1" height="1" /><rect shape-rendering="crispEdges" fill="rgb(32, 98, 139)"  x="11" y="15" width="1" height="1" /><rect shape-rendering="crispEdges" fill="rgb(32, 139, 180)"  x="11" y="16" width="1" height="1" /><rect shape-rendering="crispEdges" fill="rgb(49, 123, 164)"  x="11" y="17" width="1" height="1" /><rect shape-rendering="crispEdges" fill="rgb(65, 123, 164)"  x="11" y="18" width="1" height="1" /><rect shape-rendering="crispEdges" fill="rgb(24, 90, 123)"  x="11" y="19" width="1" height="1" /><rect shape-rendering="crispEdges" fill="rgb(49, 164, 213)"  x="11" y="20" width="1" height="1" /><rect shape-rendering="crispEdges" fill="rgb(41, 164, 213)"  x="11" y="21" width="1" height="1" /><rect shape-rendering="crispEdges" fill="rgb(41, 172, 230)"  x="11" y="22" width="1" height="1" /><rect shape-rendering="crispEdges" fill="rgb(41, 148, 222)"  x="11" y="23" width="1" height="1" /><rect shape-rendering="crispEdges" fill="rgb(57, 90, 148)"  x="11" y="24" width="1" height="1" /><rect shape-rendering="crispEdges" fill="rgb(41, 98, 131)"  x="12" y="2" width="1" height="1" /><rect shape-rendering="crispEdges" fill="rgb(24, 123, 156)"  x="12" y="3" width="1" height="1" /><rect shape-rendering="crispEdges" fill="rgb(24, 106, 131)"  x="12" y="4" width="1" height="1" /><rect shape-rendering="crispEdges" fill="rgb(41, 148, 189)"  x="12" y="5" width="1" height="1" /><rect shape-rendering="crispEdges" fill="rgb(32, 148, 197)"  x="12" y="6" width="1" height="1" /><rect shape-rendering="crispEdges" fill="rgb(41, 98, 139)"  x="12" y="7" width="1" height="1" /><rect shape-rendering="crispEdges" fill="rgb(49, 115, 156)"  x="12" y="8" width="1" height="1" /><rect shape-rendering="crispEdges" fill="rgb(74, 148, 205)"  x="12" y="9" width="1" height="1" /><rect shape-rendering="crispEdges" fill="rgb(57, 115, 156)"  x="12" y="10" width="1" height="1" /><rect shape-rendering="crispEdges" fill="rgb(32, 98, 131)"  x="12" y="11" width="1" height="1" /><rect shape-rendering="crispEdges" fill="rgb(65, 197, 246)"  x="12" y="12" width="1" height="1" /><rect shape-rendering="crispEdges" fill="rgb(57, 180, 230)"  x="12" y="13" width="1" height="1" /><rect shape-rendering="crispEdges" fill="rgb(49, 115, 156)"  x="12" y="14" width="1" height="1" /><rect shape-rendering="crispEdges" fill="rgb(57, 123, 156)"  x="12" y="15" width="1" height="1" /><rect shape-rendering="crispEdges" fill="rgb(41, 156, 205)"  x="12" y="16" width="1" height="1" /><rect shape-rendering="crispEdges" fill="rgb(57, 189, 238)"  x="12" y="17" width="1" height="1" /><rect shape-rendering="crispEdges" fill="rgb(41, 115, 148)"  x="12" y="18" width="1" height="1" /><rect shape-rendering="crispEdges" fill="rgb(65, 123, 164)"  x="12" y="19" width="1" height="1" /><rect shape-rendering="crispEdges" fill="rgb(49, 156, 205)"  x="12" y="20" width="1" height="1" /><rect shape-rendering="crispEdges" fill="rgb(41, 180, 230)"  x="12" y="21" width="1" height="1" /><rect shape-rendering="crispEdges" fill="rgb(16, 123, 172)"  x="12" y="22" width="1" height="1" /><rect shape-rendering="crispEdges" fill="rgb(49, 131, 189)"  x="12" y="23" width="1" height="1" /><rect shape-rendering="crispEdges" fill="rgb(65, 74, 148)"  x="13" y="2" width="1" height="1" /><rect shape-rendering="crispEdges" fill="rgb(74, 82, 164)"  x="13" y="3" width="1" height="1" /><rect shape-rendering="crispEdges" fill="rgb(24, 115, 139)"  x="13" y="4" width="1" height="1" /><rect shape-rendering="crispEdges" fill="rgb(57, 164, 222)"  x="13" y="5" width="1" height="1" /><rect shape-rendering="crispEdges" fill="rgb(41, 148, 197)"  x="13" y="6" width="1" height="1" /><rect shape-rendering="crispEdges" fill="rgb(24, 82, 139)"  x="13" y="7" width="1" height="1" /><rect shape-rendering="crispEdges" fill="rgb(74, 139, 189)"  x="13" y="8" width="1" height="1" /><rect shape-rendering="crispEdges" fill="rgb(90, 156, 205)"  x="13" y="9" width="1" height="1" /><rect shape-rendering="crispEdges" fill="rgb(16, 90, 115)"  x="13" y="10" width="1" height="1" /><rect shape-rendering="crispEdges" fill="rgb(24, 131, 172)"  x="13" y="11" width="1" height="1" /><rect shape-rendering="crispEdges" fill="rgb(49, 172, 230)"  x="13" y="12" width="1" height="1" /><rect shape-rendering="crispEdges" fill="rgb(65, 197, 255)"  x="13" y="13" width="1" height="1" /><rect shape-rendering="crispEdges" fill="rgb(49, 156, 205)"  x="13" y="14" width="1" height="1" /><rect shape-rendering="crispEdges" fill="rgb(57, 115, 148)"  x="13" y="15" width="1" height="1" /><rect shape-rendering="crispEdges" fill="rgb(32, 106, 148)"  x="13" y="16" width="1" height="1" /><rect shape-rendering="crispEdges" fill="rgb(41, 164, 213)"  x="13" y="17" width="1" height="1" /><rect shape-rendering="crispEdges" fill="rgb(41, 156, 197)"  x="13" y="18" width="1" height="1" /><rect shape-rendering="crispEdges" fill="rgb(49, 156, 197)"  x="13" y="19" width="1" height="1" /><rect shape-rendering="crispEdges" fill="rgb(41, 106, 148)"  x="13" y="20" width="1" height="1" /><rect shape-rendering="crispEdges" fill="rgb(41, 123, 164)"  x="13" y="21" width="1" height="1" /><rect shape-rendering="crispEdges" fill="rgb(16, 115, 156)"  x="13" y="22" width="1" height="1" /><rect shape-rendering="crispEdges" fill="rgb(41, 131, 180)"  x="13" y="23" width="1" height="1" /><rect shape-rendering="crispEdges" fill="rgb(115, 90, 164)"  x="13" y="24" width="1" height="1" /><rect shape-rendering="crispEdges" fill="rgb(41, 90, 148)"  x="14" y="3" width="1" height="1" /><rect shape-rendering="crispEdges" fill="rgb(32, 123, 164)"  x="14" y="4" width="1" height="1" /><rect shape-rendering="crispEdges" fill="rgb(49, 156, 197)"  x="14" y="5" width="1" height="1" /><rect shape-rendering="crispEdges" fill="rgb(41, 156, 197)"  x="14" y="6" width="1" height="1" /><rect shape-rendering="crispEdges" fill="rgb(16, 82, 115)"  x="14" y="7" width="1" height="1" /><rect shape-rendering="crispEdges" fill="rgb(82, 156, 205)"  x="14" y="8" width="1" height="1" /><rect shape-rendering="crispEdges" fill="rgb(82, 139, 189)"  x="14" y="9" width="1" height="1" /><rect shape-rendering="crispEdges" fill="rgb(16, 90, 115)"  x="14" y="10" width="1" height="1" /><rect shape-rendering="crispEdges" fill="rgb(16, 148, 205)"  x="14" y="11" width="1" height="1" /><rect shape-rendering="crispEdges" fill="rgb(49, 180, 238)"  x="14" y="12" width="1" height="1" /><rect shape-rendering="crispEdges" fill="rgb(49, 172, 230)"  x="14" y="13" width="1" height="1" /><rect shape-rendering="crispEdges" fill="rgb(57, 189, 246)"  x="14" y="14" width="1" height="1" /><rect shape-rendering="crispEdges" fill="rgb(49, 148, 205)"  x="14" y="15" width="1" height="1" /><rect shape-rendering="crispEdges" fill="rgb(49, 98, 139)"  x="14" y="16" width="1" height="1" /><rect shape-rendering="crispEdges" fill="rgb(32, 156, 205)"  x="14" y="17" width="1" height="1" /><rect shape-rendering="crispEdges" fill="rgb(32, 139, 189)"  x="14" y="18" width="1" height="1" /><rect shape-rendering="crispEdges" fill="rgb(41, 164, 222)"  x="14" y="19" width="1" height="1" /><rect shape-rendering="crispEdges" fill="rgb(49, 180, 238)"  x="14" y="20" width="1" height="1" /><rect shape-rendering="crispEdges" fill="rgb(41, 148, 197)"  x="14" y="21" width="1" height="1" /><rect shape-rendering="crispEdges" fill="rgb(32, 106, 139)"  x="14" y="22" width="1" height="1" /><rect shape-rendering="crispEdges" fill="rgb(24, 139, 180)"  x="14" y="23" width="1" height="1" /><rect shape-rendering="crispEdges" fill="rgb(41, 98, 131)"  x="14" y="24" width="1" height="1" /><rect shape-rendering="crispEdges" fill="rgb(24, 82, 131)"  x="15" y="3" width="1" height="1" /><rect shape-rendering="crispEdges" fill="rgb(24, 123, 156)"  x="15" y="4" width="1" height="1" /><rect shape-rendering="crispEdges" fill="rgb(49, 189, 238)"  x="15" y="5" width="1" height="1" /><rect shape-rendering="crispEdges" fill="rgb(32, 172, 230)"  x="15" y="6" width="1" height="1" /><rect shape-rendering="crispEdges" fill="rgb(24, 82, 139)"  x="15" y="7" width="1" height="1" /><rect shape-rendering="crispEdges" fill="rgb(82, 148, 205)"  x="15" y="8" width="1" height="1" /><rect shape-rendering="crispEdges" fill="rgb(65, 123, 172)"  x="15" y="9" width="1" height="1" /><rect shape-rendering="crispEdges" fill="rgb(16, 106, 139)"  x="15" y="10" width="1" height="1" /><rect shape-rendering="crispEdges" fill="rgb(16, 139, 189)"  x="15" y="11" width="1" height="1" /><rect shape-rendering="crispEdges" fill="rgb(41, 172, 230)"  x="15" y="12" width="1" height="1" /><rect shape-rendering="crispEdges" fill="rgb(32, 131, 172)"  x="15" y="13" width="1" height="1" /><rect shape-rendering="crispEdges" fill="rgb(41, 172, 230)"  x="15" y="14" width="1" height="1" /><rect shape-rendering="crispEdges" fill="rgb(41, 172, 230)"  x="15" y="15" width="1" height="1" /><rect shape-rendering="crispEdges" fill="rgb(49, 106, 148)"  x="15" y="16" width="1" height="1" /><rect shape-rendering="crispEdges" fill="rgb(32, 115, 148)"  x="15" y="17" width="1" height="1" /><rect shape-rendering="crispEdges" fill="rgb(24, 148, 189)"  x="15" y="18" width="1" height="1" /><rect shape-rendering="crispEdges" fill="rgb(8, 115, 156)"  x="15" y="19" width="1" height="1" /><rect shape-rendering="crispEdges" fill="rgb(32, 148, 197)"  x="15" y="20" width="1" height="1" /><rect shape-rendering="crispEdges" fill="rgb(49, 189, 246)"  x="15" y="21" width="1" height="1" /><rect shape-rendering="crispEdges" fill="rgb(41, 164, 213)"  x="15" y="22" width="1" height="1" /><rect shape-rendering="crispEdges" fill="rgb(32, 131, 172)"  x="15" y="23" width="1" height="1" /><rect shape-rendering="crispEdges" fill="rgb(41, 98, 131)"  x="15" y="24" width="1" height="1" /><rect shape-rendering="crispEdges" fill="rgb(32, 90, 131)"  x="16" y="3" width="1" height="1" /><rect shape-rendering="crispEdges" fill="rgb(24, 123, 156)"  x="16" y="4" width="1" height="1" /><rect shape-rendering="crispEdges" fill="rgb(49, 189, 246)"  x="16" y="5" width="1" height="1" /><rect shape-rendering="crispEdges" fill="rgb(41, 148, 189)"  x="16" y="6" width="1" height="1" /><rect shape-rendering="crispEdges" fill="rgb(41, 98, 139)"  x="16" y="7" width="1" height="1" /><rect shape-rendering="crispEdges" fill="rgb(90, 172, 222)"  x="16" y="8" width="1" height="1" /><rect shape-rendering="crispEdges" fill="rgb(49, 106, 148)"  x="16" y="9" width="1" height="1" /><rect shape-rendering="crispEdges" fill="rgb(24, 115, 164)"  x="16" y="10" width="1" height="1" /><rect shape-rendering="crispEdges" fill="rgb(49, 180, 222)"  x="16" y="11" width="1" height="1" /><rect shape-rendering="crispEdges" fill="rgb(41, 172, 238)"  x="16" y="12" width="1" height="1" /><rect shape-rendering="crispEdges" fill="rgb(24, 164, 230)"  x="16" y="13" width="1" height="1" /><rect shape-rendering="crispEdges" fill="rgb(8, 115, 156)"  x="16" y="14" width="1" height="1" /><rect shape-rendering="crispEdges" fill="rgb(41, 148, 197)"  x="16" y="15" width="1" height="1" /><rect shape-rendering="crispEdges" fill="rgb(41, 156, 197)"  x="16" y="16" width="1" height="1" /><rect shape-rendering="crispEdges" fill="rgb(32, 90, 131)"  x="16" y="17" width="1" height="1" /><rect shape-rendering="crispEdges" fill="rgb(41, 148, 189)"  x="16" y="18" width="1" height="1" /><rect shape-rendering="crispEdges" fill="rgb(16, 131, 180)"  x="16" y="19" width="1" height="1" /><rect shape-rendering="crispEdges" fill="rgb(8, 106, 139)"  x="16" y="20" width="1" height="1" /><rect shape-rendering="crispEdges" fill="rgb(41, 164, 222)"  x="16" y="21" width="1" height="1" /><rect shape-rendering="crispEdges" fill="rgb(41, 180, 238)"  x="16" y="22" width="1" height="1" /><rect shape-rendering="crispEdges" fill="rgb(32, 172, 230)"  x="16" y="23" width="1" height="1" /><rect shape-rendering="crispEdges" fill="rgb(32, 106, 156)"  x="16" y="24" width="1" height="1" /><rect shape-rendering="crispEdges" fill="rgb(41, 74, 106)"  x="16" y="25" width="1" height="1" /><rect shape-rendering="crispEdges" fill="rgb(32, 90, 131)"  x="17" y="3" width="1" height="1" /><rect shape-rendering="crispEdges" fill="rgb(49, 106, 164)"  x="17" y="4" width="1" height="1" /><rect shape-rendering="crispEdges" fill="rgb(41, 180, 238)"  x="17" y="5" width="1" height="1" /><rect shape-rendering="crispEdges" fill="rgb(41, 123, 156)"  x="17" y="6" width="1" height="1" /><rect shape-rendering="crispEdges" fill="rgb(41, 98, 139)"  x="17" y="7" width="1" height="1" /><rect shape-rendering="crispEdges" fill="rgb(74, 156, 205)"  x="17" y="8" width="1" height="1" /><rect shape-rendering="crispEdges" fill="rgb(41, 98, 139)"  x="17" y="9" width="1" height="1" /><rect shape-rendering="crispEdges" fill="rgb(32, 131, 172)"  x="17" y="10" width="1" height="1" /><rect shape-rendering="crispEdges" fill="rgb(8, 139, 197)"  x="17" y="11" width="1" height="1" /><rect shape-rendering="crispEdges" fill="rgb(16, 139, 189)"  x="17" y="12" width="1" height="1" /><rect shape-rendering="crispEdges" fill="rgb(24, 164, 230)"  x="17" y="13" width="1" height="1" /><rect shape-rendering="crispEdges" fill="rgb(32, 131, 172)"  x="17" y="14" width="1" height="1" /><rect shape-rendering="crispEdges" fill="rgb(8, 115, 156)"  x="17" y="15" width="1" height="1" /><rect shape-rendering="crispEdges" fill="rgb(24, 148, 205)"  x="17" y="16" width="1" height="1" /><rect shape-rendering="crispEdges" fill="rgb(32, 115, 156)"  x="17" y="17" width="1" height="1" /><rect shape-rendering="crispEdges" fill="rgb(24, 98, 139)"  x="17" y="18" width="1" height="1" /><rect shape-rendering="crispEdges" fill="rgb(32, 156, 197)"  x="17" y="19" width="1" height="1" /><rect shape-rendering="crispEdges" fill="rgb(8, 98, 131)"  x="17" y="20" width="1" height="1" /><rect shape-rendering="crispEdges" fill="rgb(32, 156, 197)"  x="17" y="21" width="1" height="1" /><rect shape-rendering="crispEdges" fill="rgb(16, 164, 230)"  x="17" y="22" width="1" height="1" /><rect shape-rendering="crispEdges" fill="rgb(24, 156, 222)"  x="17" y="23" width="1" height="1" /><rect shape-rendering="crispEdges" fill="rgb(57, 131, 180)"  x="17" y="24" width="1" height="1" /><rect shape-rendering="crispEdges" fill="rgb(65, 106, 172)"  x="17" y="25" width="1" height="1" /><rect shape-rendering="crispEdges" fill="rgb(49, 65, 123)"  x="17" y="26" width="1" height="1" /><rect shape-rendering="crispEdges" fill="rgb(49, 106, 164)"  x="18" y="4" width="1" height="1" /><rect shape-rendering="crispEdges" fill="rgb(32, 156, 205)"  x="18" y="5" width="1" height="1" /><rect shape-rendering="crispEdges" fill="rgb(49, 98, 148)"  x="18" y="6" width="1" height="1" /><rect shape-rendering="crispEdges" fill="rgb(74, 82, 156)"  x="18" y="7" width="1" height="1" /><rect shape-rendering="crispEdges" fill="rgb(65, 98, 172)"  x="18" y="8" width="1" height="1" /><rect shape-rendering="crispEdges" fill="rgb(41, 98, 139)"  x="18" y="9" width="1" height="1" /><rect shape-rendering="crispEdges" fill="rgb(41, 148, 180)"  x="18" y="10" width="1" height="1" /><rect shape-rendering="crispEdges" fill="rgb(8, 164, 230)"  x="18" y="11" width="1" height="1" /><rect shape-rendering="crispEdges" fill="rgb(8, 139, 197)"  x="18" y="12" width="1" height="1" /><rect shape-rendering="crispEdges" fill="rgb(8, 148, 213)"  x="18" y="13" width="1" height="1" /><rect shape-rendering="crispEdges" fill="rgb(24, 164, 230)"  x="18" y="14" width="1" height="1" /><rect shape-rendering="crispEdges" fill="rgb(16, 148, 205)"  x="18" y="15" width="1" height="1" /><rect shape-rendering="crispEdges" fill="rgb(16, 131, 180)"  x="18" y="16" width="1" height="1" /><rect shape-rendering="crispEdges" fill="rgb(41, 164, 213)"  x="18" y="17" width="1" height="1" /><rect shape-rendering="crispEdges" fill="rgb(16, 90, 123)"  x="18" y="18" width="1" height="1" /><rect shape-rendering="crispEdges" fill="rgb(32, 148, 197)"  x="18" y="19" width="1" height="1" /><rect shape-rendering="crispEdges" fill="rgb(24, 156, 213)"  x="18" y="20" width="1" height="1" /><rect shape-rendering="crispEdges" fill="rgb(57, 115, 164)"  x="18" y="21" width="1" height="1" /><rect shape-rendering="crispEdges" fill="rgb(82, 74, 131)"  x="18" y="22" width="1" height="1" /><rect shape-rendering="crispEdges" fill="rgb(90, 82, 148)"  x="18" y="23" width="1" height="1" /><rect shape-rendering="crispEdges" fill="rgb(65, 90, 139)"  x="18" y="25" width="1" height="1" /><rect shape-rendering="crispEdges" fill="rgb(74, 74, 131)"  x="18" y="26" width="1" height="1" /><rect shape-rendering="crispEdges" fill="rgb(131, 74, 180)"  x="19" y="4" width="1" height="1" /><rect shape-rendering="crispEdges" fill="rgb(32, 156, 205)"  x="19" y="5" width="1" height="1" /><rect shape-rendering="crispEdges" fill="rgb(49, 98, 148)"  x="19" y="6" width="1" height="1" /><rect shape-rendering="crispEdges" fill="rgb(32, 90, 148)"  x="19" y="8" width="1" height="1" /><rect shape-rendering="crispEdges" fill="rgb(41, 106, 148)"  x="19" y="9" width="1" height="1" /><rect shape-rendering="crispEdges" fill="rgb(65, 156, 213)"  x="19" y="10" width="1" height="1" /><rect shape-rendering="crispEdges" fill="rgb(16, 156, 213)"  x="19" y="11" width="1" height="1" /><rect shape-rendering="crispEdges" fill="rgb(16, 156, 222)"  x="19" y="12" width="1" height="1" /><rect shape-rendering="crispEdges" fill="rgb(24, 139, 197)"  x="19" y="13" width="1" height="1" /><rect shape-rendering="crispEdges" fill="rgb(49, 115, 139)"  x="19" y="14" width="1" height="1" /><rect shape-rendering="crispEdges" fill="rgb(8, 156, 222)"  x="19" y="15" width="1" height="1" /><rect shape-rendering="crispEdges" fill="rgb(24, 123, 172)"  x="19" y="16" width="1" height="1" /><rect shape-rendering="crispEdges" fill="rgb(32, 148, 197)"  x="19" y="17" width="1" height="1" /><rect shape-rendering="crispEdges" fill="rgb(32, 139, 189)"  x="19" y="18" width="1" height="1" /><rect shape-rendering="crispEdges" fill="rgb(16, 90, 131)"  x="19" y="19" width="1" height="1" /><rect shape-rendering="crispEdges" fill="rgb(32, 172, 222)"  x="19" y="20" width="1" height="1" /><rect shape-rendering="crispEdges" fill="rgb(24, 123, 164)"  x="19" y="21" width="1" height="1" /><rect shape-rendering="crispEdges" fill="rgb(131, 74, 180)"  x="20" y="4" width="1" height="1" /><rect shape-rendering="crispEdges" fill="rgb(41, 148, 189)"  x="20" y="5" width="1" height="1" /><rect shape-rendering="crispEdges" fill="rgb(24, 90, 123)"  x="20" y="6" width="1" height="1" /><rect shape-rendering="crispEdges" fill="rgb(41, 98, 156)"  x="20" y="8" width="1" height="1" /><rect shape-rendering="crispEdges" fill="rgb(24, 98, 131)"  x="20" y="9" width="1" height="1" /><rect shape-rendering="crispEdges" fill="rgb(65, 156, 213)"  x="20" y="10" width="1" height="1" /><rect shape-rendering="crispEdges" fill="rgb(24, 115, 164)"  x="20" y="11" width="1" height="1" /><rect shape-rendering="crispEdges" fill="rgb(41, 148, 189)"  x="20" y="12" width="1" height="1" /><rect shape-rendering="crispEdges" fill="rgb(32, 139, 180)"  x="20" y="13" width="1" height="1" /><rect shape-rendering="crispEdges" fill="rgb(16, 139, 189)"  x="20" y="14" width="1" height="1" /><rect shape-rendering="crispEdges" fill="rgb(74, 106, 164)"  x="20" y="15" width="1" height="1" /><rect shape-rendering="crispEdges" fill="rgb(24, 106, 156)"  x="20" y="16" width="1" height="1" /><rect shape-rendering="crispEdges" fill="rgb(8, 115, 156)"  x="20" y="17" width="1" height="1" /><rect shape-rendering="crispEdges" fill="rgb(41, 156, 205)"  x="20" y="18" width="1" height="1" /><rect shape-rendering="crispEdges" fill="rgb(16, 90, 123)"  x="20" y="19" width="1" height="1" /><rect shape-rendering="crispEdges" fill="rgb(24, 139, 180)"  x="20" y="20" width="1" height="1" /><rect shape-rendering="crispEdges" fill="rgb(24, 148, 205)"  x="20" y="21" width="1" height="1" /><rect shape-rendering="crispEdges" fill="rgb(90, 65, 139)"  x="20" y="22" width="1" height="1" /><rect shape-rendering="crispEdges" fill="rgb(16, 123, 156)"  x="21" y="5" width="1" height="1" /><rect shape-rendering="crispEdges" fill="rgb(24, 90, 123)"  x="21" y="6" width="1" height="1" /><rect shape-rendering="crispEdges" fill="rgb(41, 98, 148)"  x="21" y="8" width="1" height="1" /><rect shape-rendering="crispEdges" fill="rgb(24, 115, 164)"  x="21" y="9" width="1" height="1" /><rect shape-rendering="crispEdges" fill="rgb(57, 189, 246)"  x="21" y="10" width="1" height="1" /><rect shape-rendering="crispEdges" fill="rgb(32, 156, 213)"  x="21" y="11" width="1" height="1" /><rect shape-rendering="crispEdges" fill="rgb(32, 131, 172)"  x="21" y="12" width="1" height="1" /><rect shape-rendering="crispEdges" fill="rgb(24, 131, 189)"  x="21" y="13" width="1" height="1" /><rect shape-rendering="crispEdges" fill="rgb(65, 90, 148)"  x="21" y="14" width="1" height="1" /><rect shape-rendering="crispEdges" fill="rgb(82, 98, 156)"  x="21" y="17" width="1" height="1" /><rect shape-rendering="crispEdges" fill="rgb(16, 131, 172)"  x="21" y="18" width="1" height="1" /><rect shape-rendering="crispEdges" fill="rgb(24, 131, 172)"  x="21" y="19" width="1" height="1" /><rect shape-rendering="crispEdges" fill="rgb(16, 82, 115)"  x="21" y="20" width="1" height="1" /><rect shape-rendering="crispEdges" fill="rgb(49, 139, 197)"  x="21" y="21" width="1" height="1" /><rect shape-rendering="crispEdges" fill="rgb(41, 98, 131)"  x="22" y="5" width="1" height="1" /><rect shape-rendering="crispEdges" fill="rgb(24, 90, 123)"  x="22" y="6" width="1" height="1" /><rect shape-rendering="crispEdges" fill="rgb(41, 90, 148)"  x="22" y="8" width="1" height="1" /><rect shape-rendering="crispEdges" fill="rgb(41, 131, 164)"  x="22" y="9" width="1" height="1" /><rect shape-rendering="crispEdges" fill="rgb(32, 172, 230)"  x="22" y="10" width="1" height="1" /><rect shape-rendering="crispEdges" fill="rgb(57, 156, 222)"  x="22" y="11" width="1" height="1" /><rect shape-rendering="crispEdges" fill="rgb(32, 139, 189)"  x="22" y="12" width="1" height="1" /><rect shape-rendering="crispEdges" fill="rgb(16, 139, 197)"  x="22" y="13" width="1" height="1" /><rect shape-rendering="crispEdges" fill="rgb(49, 115, 139)"  x="22" y="18" width="1" height="1" /><rect shape-rendering="crispEdges" fill="rgb(24, 156, 197)"  x="22" y="19" width="1" height="1" /><rect shape-rendering="crispEdges" fill="rgb(16, 98, 139)"  x="22" y="20" width="1" height="1" /><rect shape-rendering="crispEdges" fill="rgb(24, 98, 139)"  x="22" y="21" width="1" height="1" /><rect shape-rendering="crispEdges" fill="rgb(41, 98, 131)"  x="23" y="5" width="1" height="1" /><rect shape-rendering="crispEdges" fill="rgb(24, 90, 123)"  x="23" y="6" width="1" height="1" /><rect shape-rendering="crispEdges" fill="rgb(57, 98, 156)"  x="23" y="8" width="1" height="1" /><rect shape-rendering="crispEdges" fill="rgb(41, 131, 164)"  x="23" y="9" width="1" height="1" /><rect shape-rendering="crispEdges" fill="rgb(41, 156, 189)"  x="23" y="10" width="1" height="1" /><rect shape-rendering="crispEdges" fill="rgb(65, 156, 213)"  x="23" y="11" width="1" height="1" /><rect shape-rendering="crispEdges" fill="rgb(32, 139, 180)"  x="23" y="12" width="1" height="1" /><rect shape-rendering="crispEdges" fill="rgb(32, 148, 205)"  x="23" y="13" width="1" height="1" /><rect shape-rendering="crispEdges" fill="rgb(74, 90, 148)"  x="23" y="14" width="1" height="1" /><rect shape-rendering="crispEdges" fill="rgb(49, 115, 139)"  x="23" y="19" width="1" height="1" /><rect shape-rendering="crispEdges" fill="rgb(32, 123, 156)"  x="23" y="20" width="1" height="1" /><rect shape-rendering="crispEdges" fill="rgb(16, 74, 115)"  x="23" y="21" width="1" height="1" /><rect shape-rendering="crispEdges" fill="rgb(32, 98, 139)"  x="23" y="22" width="1" height="1" /><rect shape-rendering="crispEdges" fill="rgb(65, 82, 139)"  x="24" y="6" width="1" height="1" /><rect shape-rendering="crispEdges" fill="rgb(74, 90, 148)"  x="24" y="8" width="1" height="1" /><rect shape-rendering="crispEdges" fill="rgb(32, 115, 164)"  x="24" y="9" width="1" height="1" /><rect shape-rendering="crispEdges" fill="rgb(41, 148, 189)"  x="24" y="10" width="1" height="1" /><rect shape-rendering="crispEdges" fill="rgb(49, 180, 222)"  x="24" y="11" width="1" height="1" /><rect shape-rendering="crispEdges" fill="rgb(41, 148, 180)"  x="24" y="12" width="1" height="1" /><rect shape-rendering="crispEdges" fill="rgb(24, 156, 205)"  x="24" y="13" width="1" height="1" /><rect shape-rendering="crispEdges" fill="rgb(49, 106, 139)"  x="24" y="14" width="1" height="1" /><rect shape-rendering="crispEdges" fill="rgb(49, 115, 139)"  x="24" y="20" width="1" height="1" /><rect shape-rendering="crispEdges" fill="rgb(24, 98, 131)"  x="24" y="21" width="1" height="1" /><rect shape-rendering="crispEdges" fill="rgb(16, 74, 123)"  x="24" y="22" width="1" height="1" /><rect shape-rendering="crispEdges" fill="rgb(74, 90, 148)"  x="25" y="9" width="1" height="1" /><rect shape-rendering="crispEdges" fill="rgb(32, 131, 164)"  x="25" y="10" width="1" height="1" /><rect shape-rendering="crispEdges" fill="rgb(49, 180, 222)"  x="25" y="11" width="1" height="1" /><rect shape-rendering="crispEdges" fill="rgb(49, 172, 230)"  x="25" y="12" width="1" height="1" /><rect shape-rendering="crispEdges" fill="rgb(24, 131, 180)"  x="25" y="13" width="1" height="1" /><rect shape-rendering="crispEdges" fill="rgb(74, 90, 148)"  x="25" y="14" width="1" height="1" /><rect shape-rendering="crispEdges" fill="rgb(49, 115, 139)"  x="25" y="21" width="1" height="1" /><rect shape-rendering="crispEdges" fill="rgb(16, 74, 123)"  x="25" y="22" width="1" height="1" /><rect shape-rendering="crispEdges" fill="rgb(32, 74, 115)"  x="25" y="23" width="1" height="1" /><rect shape-rendering="crispEdges" fill="rgb(74, 90, 148)"  x="26" y="9" width="1" height="1" /><rect shape-rendering="crispEdges" fill="rgb(32, 139, 164)"  x="26" y="10" width="1" height="1" /><rect shape-rendering="crispEdges" fill="rgb(49, 180, 246)"  x="26" y="11" width="1" height="1" /><rect shape-rendering="crispEdges" fill="rgb(32, 172, 230)"  x="26" y="12" width="1" height="1" /><rect shape-rendering="crispEdges" fill="rgb(32, 115, 164)"  x="26" y="13" width="1" height="1" /><rect shape-rendering="crispEdges" fill="rgb(24, 98, 131)"  x="26" y="22" width="1" height="1" /><rect shape-rendering="crispEdges" fill="rgb(8, 74, 106)"  x="26" y="23" width="1" height="1" /><rect shape-rendering="crispEdges" fill="rgb(74, 90, 148)"  x="27" y="9" width="1" height="1" /><rect shape-rendering="crispEdges" fill="rgb(32, 115, 164)"  x="27" y="10" width="1" height="1" /><rect shape-rendering="crispEdges" fill="rgb(57, 189, 246)"  x="27" y="11" width="1" height="1" /><rect shape-rendering="crispEdges" fill="rgb(65, 139, 205)"  x="27" y="12" width="1" height="1" /><rect shape-rendering="crispEdges" fill="rgb(32, 115, 164)"  x="27" y="13" width="1" height="1" /><rect shape-rendering="crispEdges" fill="rgb(32, 98, 139)"  x="27" y="23" width="1" height="1" /><rect shape-rendering="crispEdges" fill="rgb(74, 90, 148)"  x="28" y="10" width="1" height="1" /><rect shape-rendering="crispEdges" fill="rgb(49, 180, 230)"  x="28" y="11" width="1" height="1" /><rect shape-rendering="crispEdges" fill="rgb(41, 123, 172)"  x="28" y="12" width="1" height="1" /><rect shape-rendering="crispEdges" fill="rgb(74, 90, 148)"  x="29" y="10" width="1" height="1" /><rect shape-rendering="crispEdges" fill="rgb(41, 156, 197)"  x="29" y="11" width="1" height="1" /><rect shape-rendering="crispEdges" fill="rgb(32, 115, 164)"  x="29" y="12" width="1" height="1" /><rect shape-rendering="crispEdges" fill="rgb(74, 90, 148)"  x="30" y="10" width="1" height="1" /><rect shape-rendering="crispEdges" fill="rgb(41, 123, 172)"  x="30" y="11" width="1" height="1" /><rect shape-rendering="crispEdges" fill="rgb(74, 90, 148)"  x="30" y="12" width="1" height="1" /><rect shape-rendering="crispEdges" fill="rgb(32, 115, 164)"  x="31" y="11" width="1" height="1" /><rect shape-rendering="crispEdges" fill="rgb(74, 90, 148)"  x="31" y="12" width="1" height="1" /></svg>