<svg xmlns="http://www.w3.org/2000/svg" xmlns:xlink= "http://www.w3.org/1999/xlink" width="32" height="32" viewBox ="0 0 32 32"><rect shape-rendering="crispEdges" fill="rgb(172, 74, 32)"  x="1" y="4" width="1" height="1" /><rect shape-rendering="crispEdges" fill="rgb(222, 205, 197)"  x="1" y="5" width="1" height="1" /><rect shape-rendering="crispEdges" fill="rgb(213, 82, 32)"  x="1" y="7" width="1" height="1" /><rect shape-rendering="crispEdges" fill="rgb(164, 74, 32)"  x="1" y="8" width="1" height="1" /><rect shape-rendering="crispEdges" fill="rgb(49, 57, 123)"  x="1" y="9" width="1" height="1" /><rect shape-rendering="crispEdges" fill="rgb(82, 90, 172)"  x="1" y="10" width="1" height="1" /><rect shape-rendering="crispEdges" fill="rgb(205, 82, 49)"  x="2" y="2" width="1" height="1" /><rect shape-rendering="crispEdges" fill="rgb(172, 74, 32)"  x="2" y="3" width="1" height="1" /><rect shape-rendering="crispEdges" fill="rgb(230, 115, 49)"  x="2" y="4" width="1" height="1" /><rect shape-rendering="crispEdges" fill="rgb(172, 74, 32)"  x="2" y="5" width="1" height="1" /><rect shape-rendering="crispEdges" fill="rgb(222, 205, 197)"  x="2" y="6" width="1" height="1" /><rect shape-rendering="crispEdges" fill="rgb(205, 148, 139)"  x="2" y="7" width="1" height="1" /><rect shape-rendering="crispEdges" fill="rgb(213, 82, 32)"  x="2" y="8" width="1" height="1" /><rect shape-rendering="crispEdges" fill="rgb(164, 74, 32)"  x="2" y="9" width="1" height="1" /><rect shape-rendering="crispEdges" fill="rgb(148, 148, 238)"  x="2" y="10" width="1" height="1" /><rect shape-rendering="crispEdges" fill="rgb(49, 57, 123)"  x="2" y="11" width="1" height="1" /><rect shape-rendering="crispEdges" fill="rgb(205, 82, 49)"  x="3" y="2" width="1" height="1" /><rect shape-rendering="crispEdges" fill="rgb(238, 156, 115)"  x="3" y="3" width="1" height="1" /><rect shape-rendering="crispEdges" fill="rgb(230, 115, 49)"  x="3" y="4" width="1" height="1" /><rect shape-rendering="crispEdges" fill="rgb(205, 82, 49)"  x="3" y="5" width="1" height="1" /><rect shape-rendering="crispEdges" fill="rgb(205, 148, 139)"  x="3" y="6" width="1" height="1" /><rect shape-rendering="crispEdges" fill="rgb(222, 205, 197)"  x="3" y="7" width="1" height="1" /><rect shape-rendering="crispEdges" fill="rgb(164, 74, 32)"  x="3" y="8" width="1" height="1" /><rect shape-rendering="crispEdges" fill="rgb(164, 74, 32)"  x="3" y="9" width="1" height="1" /><rect shape-rendering="crispEdges" fill="rgb(213, 82, 32)"  x="3" y="10" width="1" height="1" /><rect shape-rendering="crispEdges" fill="rgb(164, 74, 32)"  x="3" y="11" width="1" height="1" /><rect shape-rendering="crispEdges" fill="rgb(164, 74, 32)"  x="3" y="12" width="1" height="1" /><rect shape-rendering="crispEdges" fill="rgb(213, 82, 32)"  x="3" y="13" width="1" height="1" /><rect shape-rendering="crispEdges" fill="rgb(197, 90, 49)"  x="4" y="3" width="1" height="1" /><rect shape-rendering="crispEdges" fill="rgb(230, 115, 49)"  x="4" y="4" width="1" height="1" /><rect shape-rendering="crispEdges" fill="rgb(164, 74, 32)"  x="4" y="5" width="1" height="1" /><rect shape-rendering="crispEdges" fill="rgb(164, 74, 32)"  x="4" y="6" width="1" height="1" /><rect shape-rendering="crispEdges" fill="rgb(164, 74, 32)"  x="4" y="7" width="1" height="1" /><rect shape-rendering="crispEdges" fill="rgb(213, 90, 41)"  x="4" y="8" width="1" height="1" /><rect shape-rendering="crispEdges" fill="rgb(205, 115, 74)"  x="4" y="9" width="1" height="1" /><rect shape-rendering="crispEdges" fill="rgb(164, 74, 32)"  x="4" y="10" width="1" height="1" /><rect shape-rendering="crispEdges" fill="rgb(164, 74, 32)"  x="4" y="13" width="1" height="1" /><rect shape-rendering="crispEdges" fill="rgb(164, 74, 32)"  x="4" y="14" width="1" height="1" /><rect shape-rendering="crispEdges" fill="rgb(238, 131, 106)"  x="5" y="2" width="1" height="1" /><rect shape-rendering="crispEdges" fill="rgb(164, 65, 32)"  x="5" y="3" width="1" height="1" /><rect shape-rendering="crispEdges" fill="rgb(164, 74, 32)"  x="5" y="4" width="1" height="1" /><rect shape-rendering="crispEdges" fill="rgb(164, 74, 32)"  x="5" y="5" width="1" height="1" /><rect shape-rendering="crispEdges" fill="rgb(213, 82, 32)"  x="5" y="6" width="1" height="1" /><rect shape-rendering="crispEdges" fill="rgb(197, 74, 24)"  x="5" y="7" width="1" height="1" /><rect shape-rendering="crispEdges" fill="rgb(197, 82, 49)"  x="5" y="8" width="1" height="1" /><rect shape-rendering="crispEdges" fill="rgb(189, 98, 65)"  x="5" y="9" width="1" height="1" /><rect shape-rendering="crispEdges" fill="rgb(213, 90, 41)"  x="5" y="10" width="1" height="1" /><rect shape-rendering="crispEdges" fill="rgb(123, 65, 65)"  x="5" y="11" width="1" height="1" /><rect shape-rendering="crispEdges" fill="rgb(230, 98, 41)"  x="6" y="4" width="1" height="1" /><rect shape-rendering="crispEdges" fill="rgb(197, 82, 32)"  x="6" y="5" width="1" height="1" /><rect shape-rendering="crispEdges" fill="rgb(246, 148, 90)"  x="6" y="6" width="1" height="1" /><rect shape-rendering="crispEdges" fill="rgb(246, 148, 90)"  x="6" y="7" width="1" height="1" /><rect shape-rendering="crispEdges" fill="rgb(172, 74, 32)"  x="6" y="8" width="1" height="1" /><rect shape-rendering="crispEdges" fill="rgb(238, 106, 41)"  x="6" y="9" width="1" height="1" /><rect shape-rendering="crispEdges" fill="rgb(123, 65, 65)"  x="6" y="10" width="1" height="1" /><rect shape-rendering="crispEdges" fill="rgb(164, 74, 32)"  x="6" y="11" width="1" height="1" /><rect shape-rendering="crispEdges" fill="rgb(164, 90, 74)"  x="6" y="12" width="1" height="1" /><rect shape-rendering="crispEdges" fill="rgb(49, 65, 139)"  x="7" y="3" width="1" height="1" /><rect shape-rendering="crispEdges" fill="rgb(148, 65, 65)"  x="7" y="4" width="1" height="1" /><rect shape-rendering="crispEdges" fill="rgb(98, 65, 57)"  x="7" y="5" width="1" height="1" /><rect shape-rendering="crispEdges" fill="rgb(255, 255, 238)"  x="7" y="6" width="1" height="1" /><rect shape-rendering="crispEdges" fill="rgb(213, 115, 65)"  x="7" y="7" width="1" height="1" /><rect shape-rendering="crispEdges" fill="rgb(164, 65, 16)"  x="7" y="8" width="1" height="1" /><rect shape-rendering="crispEdges" fill="rgb(123, 65, 65)"  x="7" y="9" width="1" height="1" /><rect shape-rendering="crispEdges" fill="rgb(49, 65, 139)"  x="7" y="10" width="1" height="1" /><rect shape-rendering="crispEdges" fill="rgb(49, 65, 139)"  x="7" y="11" width="1" height="1" /><rect shape-rendering="crispEdges" fill="rgb(255, 139, 74)"  x="8" y="3" width="1" height="1" /><rect shape-rendering="crispEdges" fill="rgb(49, 65, 139)"  x="8" y="4" width="1" height="1" /><rect shape-rendering="crispEdges" fill="rgb(222, 205, 197)"  x="8" y="5" width="1" height="1" /><rect shape-rendering="crispEdges" fill="rgb(164, 65, 16)"  x="8" y="6" width="1" height="1" /><rect shape-rendering="crispEdges" fill="rgb(213, 90, 24)"  x="8" y="7" width="1" height="1" /><rect shape-rendering="crispEdges" fill="rgb(123, 65, 65)"  x="8" y="8" width="1" height="1" /><rect shape-rendering="crispEdges" fill="rgb(49, 65, 139)"  x="8" y="9" width="1" height="1" /><rect shape-rendering="crispEdges" fill="rgb(148, 148, 238)"  x="8" y="10" width="1" height="1" /><rect shape-rendering="crispEdges" fill="rgb(106, 115, 197)"  x="8" y="11" width="1" height="1" /><rect shape-rendering="crispEdges" fill="rgb(49, 65, 139)"  x="8" y="12" width="1" height="1" /><rect shape-rendering="crispEdges" fill="rgb(172, 74, 32)"  x="9" y="2" width="1" height="1" /><rect shape-rendering="crispEdges" fill="rgb(222, 90, 16)"  x="9" y="3" width="1" height="1" /><rect shape-rendering="crispEdges" fill="rgb(131, 139, 246)"  x="9" y="4" width="1" height="1" /><rect shape-rendering="crispEdges" fill="rgb(98, 65, 90)"  x="9" y="5" width="1" height="1" /><rect shape-rendering="crispEdges" fill="rgb(156, 65, 32)"  x="9" y="6" width="1" height="1" /><rect shape-rendering="crispEdges" fill="rgb(213, 90, 24)"  x="9" y="7" width="1" height="1" /><rect shape-rendering="crispEdges" fill="rgb(49, 65, 139)"  x="9" y="8" width="1" height="1" /><rect shape-rendering="crispEdges" fill="rgb(82, 90, 180)"  x="9" y="9" width="1" height="1" /><rect shape-rendering="crispEdges" fill="rgb(65, 82, 148)"  x="9" y="10" width="1" height="1" /><rect shape-rendering="crispEdges" fill="rgb(148, 148, 172)"  x="9" y="11" width="1" height="1" /><rect shape-rendering="crispEdges" fill="rgb(106, 115, 197)"  x="9" y="12" width="1" height="1" /><rect shape-rendering="crispEdges" fill="rgb(222, 90, 16)"  x="10" y="2" width="1" height="1" /><rect shape-rendering="crispEdges" fill="rgb(172, 74, 32)"  x="10" y="3" width="1" height="1" /><rect shape-rendering="crispEdges" fill="rgb(115, 123, 213)"  x="10" y="4" width="1" height="1" /><rect shape-rendering="crispEdges" fill="rgb(131, 82, 115)"  x="10" y="5" width="1" height="1" /><rect shape-rendering="crispEdges" fill="rgb(49, 65, 139)"  x="10" y="6" width="1" height="1" /><rect shape-rendering="crispEdges" fill="rgb(49, 65, 139)"  x="10" y="7" width="1" height="1" /><rect shape-rendering="crispEdges" fill="rgb(106, 115, 197)"  x="10" y="8" width="1" height="1" /><rect shape-rendering="crispEdges" fill="rgb(82, 90, 180)"  x="10" y="9" width="1" height="1" /><rect shape-rendering="crispEdges" fill="rgb(197, 115, 74)"  x="10" y="10" width="1" height="1" /><rect shape-rendering="crispEdges" fill="rgb(164, 74, 32)"  x="10" y="11" width="1" height="1" /><rect shape-rendering="crispEdges" fill="rgb(222, 90, 16)"  x="11" y="2" width="1" height="1" /><rect shape-rendering="crispEdges" fill="rgb(255, 139, 74)"  x="11" y="3" width="1" height="1" /><rect shape-rendering="crispEdges" fill="rgb(172, 74, 32)"  x="11" y="4" width="1" height="1" /><rect shape-rendering="crispEdges" fill="rgb(115, 123, 213)"  x="11" y="5" width="1" height="1" /><rect shape-rendering="crispEdges" fill="rgb(131, 139, 246)"  x="11" y="6" width="1" height="1" /><rect shape-rendering="crispEdges" fill="rgb(49, 65, 139)"  x="11" y="7" width="1" height="1" /><rect shape-rendering="crispEdges" fill="rgb(139, 148, 238)"  x="11" y="8" width="1" height="1" /><rect shape-rendering="crispEdges" fill="rgb(49, 65, 139)"  x="11" y="9" width="1" height="1" /><rect shape-rendering="crispEdges" fill="rgb(230, 139, 90)"  x="11" y="10" width="1" height="1" /><rect shape-rendering="crispEdges" fill="rgb(197, 115, 74)"  x="11" y="11" width="1" height="1" /><rect shape-rendering="crispEdges" fill="rgb(164, 74, 32)"  x="11" y="12" width="1" height="1" /><rect shape-rendering="crispEdges" fill="rgb(255, 148, 82)"  x="12" y="3" width="1" height="1" /><rect shape-rendering="crispEdges" fill="rgb(172, 74, 32)"  x="12" y="4" width="1" height="1" /><rect shape-rendering="crispEdges" fill="rgb(115, 123, 213)"  x="12" y="5" width="1" height="1" /><rect shape-rendering="crispEdges" fill="rgb(106, 106, 197)"  x="12" y="6" width="1" height="1" /><rect shape-rendering="crispEdges" fill="rgb(74, 82, 172)"  x="12" y="7" width="1" height="1" /><rect shape-rendering="crispEdges" fill="rgb(139, 148, 238)"  x="12" y="8" width="1" height="1" /><rect shape-rendering="crispEdges" fill="rgb(49, 65, 139)"  x="12" y="9" width="1" height="1" /><rect shape-rendering="crispEdges" fill="rgb(255, 164, 123)"  x="12" y="10" width="1" height="1" /><rect shape-rendering="crispEdges" fill="rgb(189, 90, 49)"  x="12" y="11" width="1" height="1" /><rect shape-rendering="crispEdges" fill="rgb(246, 180, 139)"  x="12" y="12" width="1" height="1" /><rect shape-rendering="crispEdges" fill="rgb(164, 74, 32)"  x="12" y="13" width="1" height="1" /><rect shape-rendering="crispEdges" fill="rgb(238, 148, 106)"  x="13" y="3" width="1" height="1" /><rect shape-rendering="crispEdges" fill="rgb(222, 90, 16)"  x="13" y="4" width="1" height="1" /><rect shape-rendering="crispEdges" fill="rgb(131, 82, 115)"  x="13" y="5" width="1" height="1" /><rect shape-rendering="crispEdges" fill="rgb(139, 148, 205)"  x="13" y="6" width="1" height="1" /><rect shape-rendering="crispEdges" fill="rgb(74, 82, 172)"  x="13" y="7" width="1" height="1" /><rect shape-rendering="crispEdges" fill="rgb(82, 90, 180)"  x="13" y="9" width="1" height="1" /><rect shape-rendering="crispEdges" fill="rgb(238, 106, 41)"  x="13" y="10" width="1" height="1" /><rect shape-rendering="crispEdges" fill="rgb(255, 197, 156)"  x="13" y="11" width="1" height="1" /><rect shape-rendering="crispEdges" fill="rgb(255, 197, 156)"  x="13" y="12" width="1" height="1" /><rect shape-rendering="crispEdges" fill="rgb(197, 115, 74)"  x="13" y="13" width="1" height="1" /><rect shape-rendering="crispEdges" fill="rgb(164, 74, 32)"  x="13" y="14" width="1" height="1" /><rect shape-rendering="crispEdges" fill="rgb(222, 90, 16)"  x="14" y="4" width="1" height="1" /><rect shape-rendering="crispEdges" fill="rgb(131, 82, 115)"  x="14" y="5" width="1" height="1" /><rect shape-rendering="crispEdges" fill="rgb(74, 82, 172)"  x="14" y="6" width="1" height="1" /><rect shape-rendering="crispEdges" fill="rgb(82, 90, 180)"  x="14" y="9" width="1" height="1" /><rect shape-rendering="crispEdges" fill="rgb(238, 106, 41)"  x="14" y="11" width="1" height="1" /><rect shape-rendering="crispEdges" fill="rgb(246, 148, 106)"  x="14" y="12" width="1" height="1" /><rect shape-rendering="crispEdges" fill="rgb(189, 90, 49)"  x="14" y="13" width="1" height="1" /><rect shape-rendering="crispEdges" fill="rgb(246, 180, 139)"  x="14" y="14" width="1" height="1" /><rect shape-rendering="crispEdges" fill="rgb(164, 74, 32)"  x="14" y="15" width="1" height="1" /><rect shape-rendering="crispEdges" fill="rgb(222, 90, 16)"  x="15" y="4" width="1" height="1" /><rect shape-rendering="crispEdges" fill="rgb(74, 82, 172)"  x="15" y="6" width="1" height="1" /><rect shape-rendering="crispEdges" fill="rgb(82, 90, 180)"  x="15" y="8" width="1" height="1" /><rect shape-rendering="crispEdges" fill="rgb(238, 106, 41)"  x="15" y="12" width="1" height="1" /><rect shape-rendering="crispEdges" fill="rgb(255, 197, 156)"  x="15" y="13" width="1" height="1" /><rect shape-rendering="crispEdges" fill="rgb(255, 197, 156)"  x="15" y="14" width="1" height="1" /><rect shape-rendering="crispEdges" fill="rgb(197, 115, 74)"  x="15" y="15" width="1" height="1" /><rect shape-rendering="crispEdges" fill="rgb(164, 74, 32)"  x="15" y="16" width="1" height="1" /><rect shape-rendering="crispEdges" fill="rgb(222, 90, 16)"  x="16" y="3" width="1" height="1" /><rect shape-rendering="crispEdges" fill="rgb(74, 82, 172)"  x="16" y="6" width="1" height="1" /><rect shape-rendering="crispEdges" fill="rgb(82, 90, 180)"  x="16" y="8" width="1" height="1" /><rect shape-rendering="crispEdges" fill="rgb(238, 106, 41)"  x="16" y="13" width="1" height="1" /><rect shape-rendering="crispEdges" fill="rgb(255, 148, 106)"  x="16" y="14" width="1" height="1" /><rect shape-rendering="crispEdges" fill="rgb(189, 90, 49)"  x="16" y="15" width="1" height="1" /><rect shape-rendering="crispEdges" fill="rgb(197, 115, 74)"  x="16" y="16" width="1" height="1" /><rect shape-rendering="crispEdges" fill="rgb(164, 74, 32)"  x="16" y="17" width="1" height="1" /><rect shape-rendering="crispEdges" fill="rgb(222, 90, 16)"  x="17" y="3" width="1" height="1" /><rect shape-rendering="crispEdges" fill="rgb(238, 106, 41)"  x="17" y="14" width="1" height="1" /><rect shape-rendering="crispEdges" fill="rgb(255, 164, 123)"  x="17" y="15" width="1" height="1" /><rect shape-rendering="crispEdges" fill="rgb(189, 90, 49)"  x="17" y="16" width="1" height="1" /><rect shape-rendering="crispEdges" fill="rgb(246, 180, 139)"  x="17" y="17" width="1" height="1" /><rect shape-rendering="crispEdges" fill="rgb(164, 74, 32)"  x="17" y="18" width="1" height="1" /><rect shape-rendering="crispEdges" fill="rgb(238, 106, 41)"  x="18" y="15" width="1" height="1" /><rect shape-rendering="crispEdges" fill="rgb(255, 197, 156)"  x="18" y="16" width="1" height="1" /><rect shape-rendering="crispEdges" fill="rgb(255, 197, 156)"  x="18" y="17" width="1" height="1" /><rect shape-rendering="crispEdges" fill="rgb(197, 115, 74)"  x="18" y="18" width="1" height="1" /><rect shape-rendering="crispEdges" fill="rgb(164, 74, 32)"  x="18" y="19" width="1" height="1" /><rect shape-rendering="crispEdges" fill="rgb(238, 106, 41)"  x="19" y="16" width="1" height="1" /><rect shape-rendering="crispEdges" fill="rgb(246, 139, 98)"  x="19" y="17" width="1" height="1" /><rect shape-rendering="crispEdges" fill="rgb(205, 115, 74)"  x="19" y="18" width="1" height="1" /><rect shape-rendering="crispEdges" fill="rgb(197, 115, 74)"  x="19" y="19" width="1" height="1" /><rect shape-rendering="crispEdges" fill="rgb(164, 74, 32)"  x="19" y="20" width="1" height="1" /><rect shape-rendering="crispEdges" fill="rgb(238, 106, 41)"  x="20" y="17" width="1" height="1" /><rect shape-rendering="crispEdges" fill="rgb(255, 172, 131)"  x="20" y="18" width="1" height="1" /><rect shape-rendering="crispEdges" fill="rgb(189, 90, 49)"  x="20" y="19" width="1" height="1" /><rect shape-rendering="crispEdges" fill="rgb(246, 180, 139)"  x="20" y="20" width="1" height="1" /><rect shape-rendering="crispEdges" fill="rgb(164, 74, 32)"  x="20" y="21" width="1" height="1" /><rect shape-rendering="crispEdges" fill="rgb(238, 106, 41)"  x="21" y="18" width="1" height="1" /><rect shape-rendering="crispEdges" fill="rgb(255, 197, 156)"  x="21" y="19" width="1" height="1" /><rect shape-rendering="crispEdges" fill="rgb(255, 197, 156)"  x="21" y="20" width="1" height="1" /><rect shape-rendering="crispEdges" fill="rgb(197, 115, 74)"  x="21" y="21" width="1" height="1" /><rect shape-rendering="crispEdges" fill="rgb(164, 74, 32)"  x="21" y="22" width="1" height="1" /><rect shape-rendering="crispEdges" fill="rgb(238, 106, 41)"  x="22" y="19" width="1" height="1" /><rect shape-rendering="crispEdges" fill="rgb(246, 148, 98)"  x="22" y="20" width="1" height="1" /><rect shape-rendering="crispEdges" fill="rgb(189, 90, 49)"  x="22" y="21" width="1" height="1" /><rect shape-rendering="crispEdges" fill="rgb(246, 180, 139)"  x="22" y="22" width="1" height="1" /><rect shape-rendering="crispEdges" fill="rgb(164, 74, 32)"  x="22" y="23" width="1" height="1" /><rect shape-rendering="crispEdges" fill="rgb(238, 106, 41)"  x="23" y="20" width="1" height="1" /><rect shape-rendering="crispEdges" fill="rgb(255, 197, 156)"  x="23" y="21" width="1" height="1" /><rect shape-rendering="crispEdges" fill="rgb(255, 197, 156)"  x="23" y="22" width="1" height="1" /><rect shape-rendering="crispEdges" fill="rgb(197, 115, 74)"  x="23" y="23" width="1" height="1" /><rect shape-rendering="crispEdges" fill="rgb(164, 74, 32)"  x="23" y="24" width="1" height="1" /><rect shape-rendering="crispEdges" fill="rgb(164, 74, 32)"  x="23" y="25" width="1" height="1" /><rect shape-rendering="crispEdges" fill="rgb(164, 74, 32)"  x="23" y="26" width="1" height="1" /><rect shape-rendering="crispEdges" fill="rgb(197, 82, 49)"  x="23" y="27" width="1" height="1" /><rect shape-rendering="crispEdges" fill="rgb(238, 106, 41)"  x="24" y="21" width="1" height="1" /><rect shape-rendering="crispEdges" fill="rgb(230, 131, 90)"  x="24" y="22" width="1" height="1" /><rect shape-rendering="crispEdges" fill="rgb(180, 82, 32)"  x="24" y="23" width="1" height="1" /><rect shape-rendering="crispEdges" fill="rgb(164, 74, 32)"  x="24" y="24" width="1" height="1" /><rect shape-rendering="crispEdges" fill="rgb(246, 90, 32)"  x="24" y="25" width="1" height="1" /><rect shape-rendering="crispEdges" fill="rgb(238, 123, 74)"  x="24" y="26" width="1" height="1" /><rect shape-rendering="crispEdges" fill="rgb(213, 139, 57)"  x="24" y="27" width="1" height="1" /><rect shape-rendering="crispEdges" fill="rgb(180, 180, 16)"  x="24" y="28" width="1" height="1" /><rect shape-rendering="crispEdges" fill="rgb(164, 74, 32)"  x="25" y="22" width="1" height="1" /><rect shape-rendering="crispEdges" fill="rgb(180, 82, 32)"  x="25" y="23" width="1" height="1" /><rect shape-rendering="crispEdges" fill="rgb(246, 90, 32)"  x="25" y="24" width="1" height="1" /><rect shape-rendering="crispEdges" fill="rgb(205, 82, 24)"  x="25" y="25" width="1" height="1" /><rect shape-rendering="crispEdges" fill="rgb(131, 74, 16)"  x="25" y="26" width="1" height="1" /><rect shape-rendering="crispEdges" fill="rgb(131, 115, 8)"  x="25" y="27" width="1" height="1" /><rect shape-rendering="crispEdges" fill="rgb(230, 222, 74)"  x="25" y="28" width="1" height="1" /><rect shape-rendering="crispEdges" fill="rgb(180, 180, 16)"  x="25" y="29" width="1" height="1" /><rect shape-rendering="crispEdges" fill="rgb(164, 74, 32)"  x="26" y="22" width="1" height="1" /><rect shape-rendering="crispEdges" fill="rgb(246, 90, 32)"  x="26" y="23" width="1" height="1" /><rect shape-rendering="crispEdges" fill="rgb(205, 82, 24)"  x="26" y="24" width="1" height="1" /><rect shape-rendering="crispEdges" fill="rgb(131, 115, 8)"  x="26" y="25" width="1" height="1" /><rect shape-rendering="crispEdges" fill="rgb(98, 90, 8)"  x="26" y="26" width="1" height="1" /><rect shape-rendering="crispEdges" fill="rgb(156, 148, 24)"  x="26" y="27" width="1" height="1" /><rect shape-rendering="crispEdges" fill="rgb(255, 255, 131)"  x="26" y="28" width="1" height="1" /><rect shape-rendering="crispEdges" fill="rgb(222, 230, 57)"  x="26" y="29" width="1" height="1" /><rect shape-rendering="crispEdges" fill="rgb(197, 82, 49)"  x="27" y="22" width="1" height="1" /><rect shape-rendering="crispEdges" fill="rgb(255, 156, 98)"  x="27" y="23" width="1" height="1" /><rect shape-rendering="crispEdges" fill="rgb(131, 74, 16)"  x="27" y="24" width="1" height="1" /><rect shape-rendering="crispEdges" fill="rgb(115, 82, 8)"  x="27" y="25" width="1" height="1" /><rect shape-rendering="crispEdges" fill="rgb(115, 82, 8)"  x="27" y="26" width="1" height="1" /><rect shape-rendering="crispEdges" fill="rgb(180, 164, 41)"  x="27" y="27" width="1" height="1" /><rect shape-rendering="crispEdges" fill="rgb(222, 189, 32)"  x="27" y="28" width="1" height="1" /><rect shape-rendering="crispEdges" fill="rgb(255, 255, 131)"  x="27" y="29" width="1" height="1" /><rect shape-rendering="crispEdges" fill="rgb(197, 82, 49)"  x="28" y="22" width="1" height="1" /><rect shape-rendering="crispEdges" fill="rgb(238, 123, 74)"  x="28" y="23" width="1" height="1" /><rect shape-rendering="crispEdges" fill="rgb(131, 115, 8)"  x="28" y="24" width="1" height="1" /><rect shape-rendering="crispEdges" fill="rgb(131, 115, 8)"  x="28" y="25" width="1" height="1" /><rect shape-rendering="crispEdges" fill="rgb(197, 164, 65)"  x="28" y="26" width="1" height="1" /><rect shape-rendering="crispEdges" fill="rgb(197, 164, 65)"  x="28" y="27" width="1" height="1" /><rect shape-rendering="crispEdges" fill="rgb(189, 156, 24)"  x="28" y="28" width="1" height="1" /><rect shape-rendering="crispEdges" fill="rgb(222, 197, 32)"  x="28" y="29" width="1" height="1" /><rect shape-rendering="crispEdges" fill="rgb(180, 180, 16)"  x="29" y="23" width="1" height="1" /><rect shape-rendering="crispEdges" fill="rgb(180, 180, 16)"  x="29" y="24" width="1" height="1" /><rect shape-rendering="crispEdges" fill="rgb(238, 230, 98)"  x="29" y="25" width="1" height="1" /><rect shape-rendering="crispEdges" fill="rgb(222, 197, 32)"  x="29" y="26" width="1" height="1" /><rect shape-rendering="crispEdges" fill="rgb(222, 189, 16)"  x="29" y="27" width="1" height="1" /><rect shape-rendering="crispEdges" fill="rgb(222, 189, 16)"  x="29" y="28" width="1" height="1" /><rect shape-rendering="crispEdges" fill="rgb(172, 197, 49)"  x="30" y="24" width="1" height="1" /><rect shape-rendering="crispEdges" fill="rgb(180, 180, 16)"  x="30" y="25" width="1" height="1" /><rect shape-rendering="crispEdges" fill="rgb(255, 255, 131)"  x="30" y="26" width="1" height="1" /><rect shape-rendering="crispEdges" fill="rgb(222, 197, 32)"  x="30" y="27" width="1" height="1" /></svg>