<svg xmlns="http://www.w3.org/2000/svg" xmlns:xlink= "http://www.w3.org/1999/xlink" width="32" height="32" viewBox ="0 0 32 32"><rect shape-rendering="crispEdges" fill="rgb(115, 82, 82)"  x="2" y="20" width="1" height="1" /><rect shape-rendering="crispEdges" fill="rgb(115, 57, 65)"  x="2" y="21" width="1" height="1" /><rect shape-rendering="crispEdges" fill="rgb(172, 98, 74)"  x="2" y="23" width="1" height="1" /><rect shape-rendering="crispEdges" fill="rgb(148, 82, 74)"  x="2" y="24" width="1" height="1" /><rect shape-rendering="crispEdges" fill="rgb(131, 90, 82)"  x="2" y="25" width="1" height="1" /><rect shape-rendering="crispEdges" fill="rgb(156, 65, 74)"  x="3" y="19" width="1" height="1" /><rect shape-rendering="crispEdges" fill="rgb(156, 57, 65)"  x="3" y="20" width="1" height="1" /><rect shape-rendering="crispEdges" fill="rgb(139, 32, 41)"  x="3" y="21" width="1" height="1" /><rect shape-rendering="crispEdges" fill="rgb(148, 65, 49)"  x="3" y="22" width="1" height="1" /><rect shape-rendering="crispEdges" fill="rgb(197, 57, 41)"  x="3" y="23" width="1" height="1" /><rect shape-rendering="crispEdges" fill="rgb(197, 90, 57)"  x="3" y="24" width="1" height="1" /><rect shape-rendering="crispEdges" fill="rgb(131, 106, 90)"  x="3" y="25" width="1" height="1" /><rect shape-rendering="crispEdges" fill="rgb(123, 74, 82)"  x="4" y="18" width="1" height="1" /><rect shape-rendering="crispEdges" fill="rgb(189, 49, 57)"  x="4" y="19" width="1" height="1" /><rect shape-rendering="crispEdges" fill="rgb(213, 16, 24)"  x="4" y="20" width="1" height="1" /><rect shape-rendering="crispEdges" fill="rgb(139, 24, 24)"  x="4" y="21" width="1" height="1" /><rect shape-rendering="crispEdges" fill="rgb(172, 24, 32)"  x="4" y="22" width="1" height="1" /><rect shape-rendering="crispEdges" fill="rgb(213, 32, 32)"  x="4" y="23" width="1" height="1" /><rect shape-rendering="crispEdges" fill="rgb(222, 156, 65)"  x="4" y="24" width="1" height="1" /><rect shape-rendering="crispEdges" fill="rgb(115, 115, 98)"  x="4" y="25" width="1" height="1" /><rect shape-rendering="crispEdges" fill="rgb(106, 106, 98)"  x="4" y="26" width="1" height="1" /><rect shape-rendering="crispEdges" fill="rgb(123, 90, 90)"  x="5" y="17" width="1" height="1" /><rect shape-rendering="crispEdges" fill="rgb(189, 123, 65)"  x="5" y="18" width="1" height="1" /><rect shape-rendering="crispEdges" fill="rgb(180, 98, 49)"  x="5" y="19" width="1" height="1" /><rect shape-rendering="crispEdges" fill="rgb(172, 16, 24)"  x="5" y="20" width="1" height="1" /><rect shape-rendering="crispEdges" fill="rgb(123, 16, 16)"  x="5" y="21" width="1" height="1" /><rect shape-rendering="crispEdges" fill="rgb(156, 16, 24)"  x="5" y="22" width="1" height="1" /><rect shape-rendering="crispEdges" fill="rgb(213, 57, 41)"  x="5" y="23" width="1" height="1" /><rect shape-rendering="crispEdges" fill="rgb(246, 197, 74)"  x="5" y="24" width="1" height="1" /><rect shape-rendering="crispEdges" fill="rgb(148, 131, 90)"  x="5" y="25" width="1" height="1" /><rect shape-rendering="crispEdges" fill="rgb(106, 106, 98)"  x="5" y="26" width="1" height="1" /><rect shape-rendering="crispEdges" fill="rgb(189, 57, 57)"  x="6" y="16" width="1" height="1" /><rect shape-rendering="crispEdges" fill="rgb(230, 90, 41)"  x="6" y="17" width="1" height="1" /><rect shape-rendering="crispEdges" fill="rgb(255, 189, 49)"  x="6" y="18" width="1" height="1" /><rect shape-rendering="crispEdges" fill="rgb(172, 123, 49)"  x="6" y="19" width="1" height="1" /><rect shape-rendering="crispEdges" fill="rgb(156, 8, 24)"  x="6" y="20" width="1" height="1" /><rect shape-rendering="crispEdges" fill="rgb(115, 16, 16)"  x="6" y="21" width="1" height="1" /><rect shape-rendering="crispEdges" fill="rgb(139, 16, 24)"  x="6" y="22" width="1" height="1" /><rect shape-rendering="crispEdges" fill="rgb(213, 57, 41)"  x="6" y="23" width="1" height="1" /><rect shape-rendering="crispEdges" fill="rgb(255, 197, 74)"  x="6" y="24" width="1" height="1" /><rect shape-rendering="crispEdges" fill="rgb(148, 115, 90)"  x="6" y="25" width="1" height="1" /><rect shape-rendering="crispEdges" fill="rgb(106, 98, 98)"  x="6" y="26" width="1" height="1" /><rect shape-rendering="crispEdges" fill="rgb(180, 49, 65)"  x="7" y="15" width="1" height="1" /><rect shape-rendering="crispEdges" fill="rgb(230, 32, 41)"  x="7" y="16" width="1" height="1" /><rect shape-rendering="crispEdges" fill="rgb(255, 115, 41)"  x="7" y="17" width="1" height="1" /><rect shape-rendering="crispEdges" fill="rgb(222, 164, 57)"  x="7" y="18" width="1" height="1" /><rect shape-rendering="crispEdges" fill="rgb(131, 41, 32)"  x="7" y="19" width="1" height="1" /><rect shape-rendering="crispEdges" fill="rgb(164, 16, 24)"  x="7" y="20" width="1" height="1" /><rect shape-rendering="crispEdges" fill="rgb(106, 16, 16)"  x="7" y="21" width="1" height="1" /><rect shape-rendering="crispEdges" fill="rgb(148, 16, 24)"  x="7" y="22" width="1" height="1" /><rect shape-rendering="crispEdges" fill="rgb(205, 49, 32)"  x="7" y="23" width="1" height="1" /><rect shape-rendering="crispEdges" fill="rgb(246, 164, 65)"  x="7" y="24" width="1" height="1" /><rect shape-rendering="crispEdges" fill="rgb(123, 115, 98)"  x="7" y="25" width="1" height="1" /><rect shape-rendering="crispEdges" fill="rgb(106, 106, 98)"  x="7" y="26" width="1" height="1" /><rect shape-rendering="crispEdges" fill="rgb(123, 65, 65)"  x="8" y="14" width="1" height="1" /><rect shape-rendering="crispEdges" fill="rgb(189, 24, 32)"  x="8" y="15" width="1" height="1" /><rect shape-rendering="crispEdges" fill="rgb(255, 24, 32)"  x="8" y="16" width="1" height="1" /><rect shape-rendering="crispEdges" fill="rgb(255, 131, 49)"  x="8" y="17" width="1" height="1" /><rect shape-rendering="crispEdges" fill="rgb(197, 123, 49)"  x="8" y="18" width="1" height="1" /><rect shape-rendering="crispEdges" fill="rgb(213, 8, 32)"  x="8" y="19" width="1" height="1" /><rect shape-rendering="crispEdges" fill="rgb(189, 32, 32)"  x="8" y="20" width="1" height="1" /><rect shape-rendering="crispEdges" fill="rgb(98, 32, 24)"  x="8" y="21" width="1" height="1" /><rect shape-rendering="crispEdges" fill="rgb(156, 16, 24)"  x="8" y="22" width="1" height="1" /><rect shape-rendering="crispEdges" fill="rgb(180, 32, 32)"  x="8" y="23" width="1" height="1" /><rect shape-rendering="crispEdges" fill="rgb(230, 148, 57)"  x="8" y="24" width="1" height="1" /><rect shape-rendering="crispEdges" fill="rgb(106, 115, 98)"  x="8" y="25" width="1" height="1" /><rect shape-rendering="crispEdges" fill="rgb(123, 74, 74)"  x="9" y="14" width="1" height="1" /><rect shape-rendering="crispEdges" fill="rgb(172, 16, 16)"  x="9" y="15" width="1" height="1" /><rect shape-rendering="crispEdges" fill="rgb(230, 8, 16)"  x="9" y="16" width="1" height="1" /><rect shape-rendering="crispEdges" fill="rgb(255, 115, 41)"  x="9" y="17" width="1" height="1" /><rect shape-rendering="crispEdges" fill="rgb(180, 106, 49)"  x="9" y="18" width="1" height="1" /><rect shape-rendering="crispEdges" fill="rgb(172, 24, 32)"  x="9" y="19" width="1" height="1" /><rect shape-rendering="crispEdges" fill="rgb(148, 32, 32)"  x="9" y="20" width="1" height="1" /><rect shape-rendering="crispEdges" fill="rgb(98, 32, 32)"  x="9" y="21" width="1" height="1" /><rect shape-rendering="crispEdges" fill="rgb(139, 16, 24)"  x="9" y="22" width="1" height="1" /><rect shape-rendering="crispEdges" fill="rgb(148, 24, 24)"  x="9" y="23" width="1" height="1" /><rect shape-rendering="crispEdges" fill="rgb(197, 57, 32)"  x="9" y="24" width="1" height="1" /><rect shape-rendering="crispEdges" fill="rgb(131, 49, 49)"  x="9" y="25" width="1" height="1" /><rect shape-rendering="crispEdges" fill="rgb(90, 49, 57)"  x="9" y="26" width="1" height="1" /><rect shape-rendering="crispEdges" fill="rgb(148, 123, 139)"  x="10" y="14" width="1" height="1" /><rect shape-rendering="crispEdges" fill="rgb(156, 123, 131)"  x="10" y="15" width="1" height="1" /><rect shape-rendering="crispEdges" fill="rgb(172, 41, 49)"  x="10" y="16" width="1" height="1" /><rect shape-rendering="crispEdges" fill="rgb(172, 57, 32)"  x="10" y="17" width="1" height="1" /><rect shape-rendering="crispEdges" fill="rgb(131, 32, 24)"  x="10" y="18" width="1" height="1" /><rect shape-rendering="crispEdges" fill="rgb(164, 49, 32)"  x="10" y="19" width="1" height="1" /><rect shape-rendering="crispEdges" fill="rgb(106, 24, 24)"  x="10" y="20" width="1" height="1" /><rect shape-rendering="crispEdges" fill="rgb(106, 16, 16)"  x="10" y="21" width="1" height="1" /><rect shape-rendering="crispEdges" fill="rgb(148, 16, 24)"  x="10" y="22" width="1" height="1" /><rect shape-rendering="crispEdges" fill="rgb(246, 32, 41)"  x="10" y="23" width="1" height="1" /><rect shape-rendering="crispEdges" fill="rgb(213, 24, 32)"  x="10" y="24" width="1" height="1" /><rect shape-rendering="crispEdges" fill="rgb(156, 16, 24)"  x="10" y="25" width="1" height="1" /><rect shape-rendering="crispEdges" fill="rgb(123, 24, 24)"  x="10" y="26" width="1" height="1" /><rect shape-rendering="crispEdges" fill="rgb(156, 156, 172)"  x="11" y="14" width="1" height="1" /><rect shape-rendering="crispEdges" fill="rgb(189, 189, 222)"  x="11" y="15" width="1" height="1" /><rect shape-rendering="crispEdges" fill="rgb(148, 156, 189)"  x="11" y="16" width="1" height="1" /><rect shape-rendering="crispEdges" fill="rgb(139, 74, 106)"  x="11" y="17" width="1" height="1" /><rect shape-rendering="crispEdges" fill="rgb(172, 49, 41)"  x="11" y="18" width="1" height="1" /><rect shape-rendering="crispEdges" fill="rgb(164, 24, 24)"  x="11" y="19" width="1" height="1" /><rect shape-rendering="crispEdges" fill="rgb(90, 24, 32)"  x="11" y="20" width="1" height="1" /><rect shape-rendering="crispEdges" fill="rgb(123, 16, 24)"  x="11" y="21" width="1" height="1" /><rect shape-rendering="crispEdges" fill="rgb(213, 49, 57)"  x="11" y="22" width="1" height="1" /><rect shape-rendering="crispEdges" fill="rgb(255, 41, 49)"  x="11" y="23" width="1" height="1" /><rect shape-rendering="crispEdges" fill="rgb(213, 32, 32)"  x="11" y="24" width="1" height="1" /><rect shape-rendering="crispEdges" fill="rgb(164, 24, 24)"  x="11" y="25" width="1" height="1" /><rect shape-rendering="crispEdges" fill="rgb(123, 24, 24)"  x="11" y="26" width="1" height="1" /><rect shape-rendering="crispEdges" fill="rgb(148, 139, 164)"  x="12" y="15" width="1" height="1" /><rect shape-rendering="crispEdges" fill="rgb(148, 148, 180)"  x="12" y="16" width="1" height="1" /><rect shape-rendering="crispEdges" fill="rgb(131, 123, 156)"  x="12" y="17" width="1" height="1" /><rect shape-rendering="crispEdges" fill="rgb(139, 24, 32)"  x="12" y="18" width="1" height="1" /><rect shape-rendering="crispEdges" fill="rgb(106, 24, 24)"  x="12" y="19" width="1" height="1" /><rect shape-rendering="crispEdges" fill="rgb(90, 16, 16)"  x="12" y="20" width="1" height="1" /><rect shape-rendering="crispEdges" fill="rgb(156, 32, 32)"  x="12" y="21" width="1" height="1" /><rect shape-rendering="crispEdges" fill="rgb(255, 74, 82)"  x="12" y="22" width="1" height="1" /><rect shape-rendering="crispEdges" fill="rgb(238, 32, 41)"  x="12" y="23" width="1" height="1" /><rect shape-rendering="crispEdges" fill="rgb(205, 24, 32)"  x="12" y="24" width="1" height="1" /><rect shape-rendering="crispEdges" fill="rgb(148, 24, 32)"  x="12" y="25" width="1" height="1" /><rect shape-rendering="crispEdges" fill="rgb(115, 49, 49)"  x="12" y="26" width="1" height="1" /><rect shape-rendering="crispEdges" fill="rgb(139, 82, 82)"  x="13" y="15" width="1" height="1" /><rect shape-rendering="crispEdges" fill="rgb(164, 74, 74)"  x="13" y="16" width="1" height="1" /><rect shape-rendering="crispEdges" fill="rgb(172, 57, 82)"  x="13" y="17" width="1" height="1" /><rect shape-rendering="crispEdges" fill="rgb(98, 8, 16)"  x="13" y="18" width="1" height="1" /><rect shape-rendering="crispEdges" fill="rgb(82, 65, 74)"  x="13" y="19" width="1" height="1" /><rect shape-rendering="crispEdges" fill="rgb(106, 32, 41)"  x="13" y="20" width="1" height="1" /><rect shape-rendering="crispEdges" fill="rgb(172, 32, 32)"  x="13" y="21" width="1" height="1" /><rect shape-rendering="crispEdges" fill="rgb(255, 74, 74)"  x="13" y="22" width="1" height="1" /><rect shape-rendering="crispEdges" fill="rgb(230, 24, 32)"  x="13" y="23" width="1" height="1" /><rect shape-rendering="crispEdges" fill="rgb(197, 24, 32)"  x="13" y="24" width="1" height="1" /><rect shape-rendering="crispEdges" fill="rgb(131, 32, 32)"  x="13" y="25" width="1" height="1" /><rect shape-rendering="crispEdges" fill="rgb(98, 65, 65)"  x="13" y="26" width="1" height="1" /><rect shape-rendering="crispEdges" fill="rgb(139, 74, 82)"  x="14" y="15" width="1" height="1" /><rect shape-rendering="crispEdges" fill="rgb(156, 65, 65)"  x="14" y="16" width="1" height="1" /><rect shape-rendering="crispEdges" fill="rgb(172, 49, 49)"  x="14" y="17" width="1" height="1" /><rect shape-rendering="crispEdges" fill="rgb(197, 32, 41)"  x="14" y="18" width="1" height="1" /><rect shape-rendering="crispEdges" fill="rgb(139, 16, 24)"  x="14" y="19" width="1" height="1" /><rect shape-rendering="crispEdges" fill="rgb(98, 74, 82)"  x="14" y="20" width="1" height="1" /><rect shape-rendering="crispEdges" fill="rgb(172, 24, 32)"  x="14" y="21" width="1" height="1" /><rect shape-rendering="crispEdges" fill="rgb(255, 32, 41)"  x="14" y="22" width="1" height="1" /><rect shape-rendering="crispEdges" fill="rgb(222, 32, 41)"  x="14" y="23" width="1" height="1" /><rect shape-rendering="crispEdges" fill="rgb(172, 16, 24)"  x="14" y="24" width="1" height="1" /><rect shape-rendering="crispEdges" fill="rgb(115, 32, 41)"  x="14" y="25" width="1" height="1" /><rect shape-rendering="crispEdges" fill="rgb(106, 49, 49)"  x="14" y="26" width="1" height="1" /><rect shape-rendering="crispEdges" fill="rgb(82, 82, 82)"  x="15" y="16" width="1" height="1" /><rect shape-rendering="crispEdges" fill="rgb(82, 90, 90)"  x="15" y="17" width="1" height="1" /><rect shape-rendering="crispEdges" fill="rgb(115, 82, 82)"  x="15" y="18" width="1" height="1" /><rect shape-rendering="crispEdges" fill="rgb(123, 57, 57)"  x="15" y="19" width="1" height="1" /><rect shape-rendering="crispEdges" fill="rgb(139, 106, 106)"  x="15" y="20" width="1" height="1" /><rect shape-rendering="crispEdges" fill="rgb(106, 16, 16)"  x="15" y="21" width="1" height="1" /><rect shape-rendering="crispEdges" fill="rgb(180, 24, 32)"  x="15" y="22" width="1" height="1" /><rect shape-rendering="crispEdges" fill="rgb(189, 16, 24)"  x="15" y="23" width="1" height="1" /><rect shape-rendering="crispEdges" fill="rgb(123, 32, 32)"  x="15" y="24" width="1" height="1" /><rect shape-rendering="crispEdges" fill="rgb(98, 65, 65)"  x="15" y="25" width="1" height="1" /><rect shape-rendering="crispEdges" fill="rgb(82, 82, 82)"  x="16" y="15" width="1" height="1" /><rect shape-rendering="crispEdges" fill="rgb(82, 82, 82)"  x="16" y="16" width="1" height="1" /><rect shape-rendering="crispEdges" fill="rgb(90, 74, 74)"  x="16" y="17" width="1" height="1" /><rect shape-rendering="crispEdges" fill="rgb(65, 65, 65)"  x="16" y="18" width="1" height="1" /><rect shape-rendering="crispEdges" fill="rgb(106, 49, 49)"  x="16" y="19" width="1" height="1" /><rect shape-rendering="crispEdges" fill="rgb(164, 41, 49)"  x="16" y="20" width="1" height="1" /><rect shape-rendering="crispEdges" fill="rgb(98, 41, 41)"  x="16" y="21" width="1" height="1" /><rect shape-rendering="crispEdges" fill="rgb(106, 74, 74)"  x="16" y="22" width="1" height="1" /><rect shape-rendering="crispEdges" fill="rgb(115, 32, 41)"  x="16" y="23" width="1" height="1" /><rect shape-rendering="crispEdges" fill="rgb(98, 65, 65)"  x="16" y="24" width="1" height="1" /><rect shape-rendering="crispEdges" fill="rgb(90, 82, 82)"  x="17" y="14" width="1" height="1" /><rect shape-rendering="crispEdges" fill="rgb(82, 74, 74)"  x="17" y="15" width="1" height="1" /><rect shape-rendering="crispEdges" fill="rgb(106, 90, 90)"  x="17" y="16" width="1" height="1" /><rect shape-rendering="crispEdges" fill="rgb(82, 74, 74)"  x="17" y="17" width="1" height="1" /><rect shape-rendering="crispEdges" fill="rgb(74, 49, 49)"  x="17" y="18" width="1" height="1" /><rect shape-rendering="crispEdges" fill="rgb(139, 8, 16)"  x="17" y="19" width="1" height="1" /><rect shape-rendering="crispEdges" fill="rgb(156, 16, 16)"  x="17" y="20" width="1" height="1" /><rect shape-rendering="crispEdges" fill="rgb(123, 106, 82)"  x="17" y="21" width="1" height="1" /><rect shape-rendering="crispEdges" fill="rgb(115, 106, 90)"  x="17" y="22" width="1" height="1" /><rect shape-rendering="crispEdges" fill="rgb(106, 49, 49)"  x="17" y="23" width="1" height="1" /><rect shape-rendering="crispEdges" fill="rgb(98, 74, 74)"  x="17" y="24" width="1" height="1" /><rect shape-rendering="crispEdges" fill="rgb(148, 65, 74)"  x="18" y="13" width="1" height="1" /><rect shape-rendering="crispEdges" fill="rgb(106, 16, 16)"  x="18" y="14" width="1" height="1" /><rect shape-rendering="crispEdges" fill="rgb(115, 98, 90)"  x="18" y="15" width="1" height="1" /><rect shape-rendering="crispEdges" fill="rgb(90, 82, 82)"  x="18" y="16" width="1" height="1" /><rect shape-rendering="crispEdges" fill="rgb(57, 49, 49)"  x="18" y="17" width="1" height="1" /><rect shape-rendering="crispEdges" fill="rgb(156, 32, 41)"  x="18" y="18" width="1" height="1" /><rect shape-rendering="crispEdges" fill="rgb(115, 8, 16)"  x="18" y="19" width="1" height="1" /><rect shape-rendering="crispEdges" fill="rgb(123, 8, 16)"  x="18" y="20" width="1" height="1" /><rect shape-rendering="crispEdges" fill="rgb(156, 82, 49)"  x="18" y="21" width="1" height="1" /><rect shape-rendering="crispEdges" fill="rgb(156, 148, 90)"  x="18" y="22" width="1" height="1" /><rect shape-rendering="crispEdges" fill="rgb(197, 49, 57)"  x="19" y="12" width="1" height="1" /><rect shape-rendering="crispEdges" fill="rgb(189, 24, 32)"  x="19" y="13" width="1" height="1" /><rect shape-rendering="crispEdges" fill="rgb(148, 8, 16)"  x="19" y="14" width="1" height="1" /><rect shape-rendering="crispEdges" fill="rgb(90, 49, 49)"  x="19" y="15" width="1" height="1" /><rect shape-rendering="crispEdges" fill="rgb(74, 65, 65)"  x="19" y="16" width="1" height="1" /><rect shape-rendering="crispEdges" fill="rgb(164, 41, 41)"  x="19" y="17" width="1" height="1" /><rect shape-rendering="crispEdges" fill="rgb(230, 74, 82)"  x="19" y="18" width="1" height="1" /><rect shape-rendering="crispEdges" fill="rgb(148, 24, 24)"  x="19" y="19" width="1" height="1" /><rect shape-rendering="crispEdges" fill="rgb(172, 16, 24)"  x="19" y="20" width="1" height="1" /><rect shape-rendering="crispEdges" fill="rgb(139, 16, 16)"  x="19" y="21" width="1" height="1" /><rect shape-rendering="crispEdges" fill="rgb(139, 106, 82)"  x="19" y="22" width="1" height="1" /><rect shape-rendering="crispEdges" fill="rgb(115, 123, 106)"  x="19" y="23" width="1" height="1" /><rect shape-rendering="crispEdges" fill="rgb(115, 106, 106)"  x="19" y="24" width="1" height="1" /><rect shape-rendering="crispEdges" fill="rgb(230, 32, 41)"  x="20" y="12" width="1" height="1" /><rect shape-rendering="crispEdges" fill="rgb(230, 65, 74)"  x="20" y="13" width="1" height="1" /><rect shape-rendering="crispEdges" fill="rgb(238, 32, 41)"  x="20" y="14" width="1" height="1" /><rect shape-rendering="crispEdges" fill="rgb(156, 16, 24)"  x="20" y="15" width="1" height="1" /><rect shape-rendering="crispEdges" fill="rgb(139, 24, 24)"  x="20" y="16" width="1" height="1" /><rect shape-rendering="crispEdges" fill="rgb(230, 74, 82)"  x="20" y="17" width="1" height="1" /><rect shape-rendering="crispEdges" fill="rgb(205, 32, 41)"  x="20" y="18" width="1" height="1" /><rect shape-rendering="crispEdges" fill="rgb(156, 16, 24)"  x="20" y="19" width="1" height="1" /><rect shape-rendering="crispEdges" fill="rgb(131, 8, 16)"  x="20" y="20" width="1" height="1" /><rect shape-rendering="crispEdges" fill="rgb(115, 16, 16)"  x="20" y="21" width="1" height="1" /><rect shape-rendering="crispEdges" fill="rgb(123, 82, 82)"  x="20" y="22" width="1" height="1" /><rect shape-rendering="crispEdges" fill="rgb(148, 131, 131)"  x="20" y="23" width="1" height="1" /><rect shape-rendering="crispEdges" fill="rgb(139, 123, 123)"  x="20" y="24" width="1" height="1" /><rect shape-rendering="crispEdges" fill="rgb(213, 41, 49)"  x="21" y="11" width="1" height="1" /><rect shape-rendering="crispEdges" fill="rgb(246, 65, 74)"  x="21" y="12" width="1" height="1" /><rect shape-rendering="crispEdges" fill="rgb(246, 74, 74)"  x="21" y="13" width="1" height="1" /><rect shape-rendering="crispEdges" fill="rgb(230, 24, 32)"  x="21" y="14" width="1" height="1" /><rect shape-rendering="crispEdges" fill="rgb(156, 16, 24)"  x="21" y="15" width="1" height="1" /><rect shape-rendering="crispEdges" fill="rgb(164, 16, 24)"  x="21" y="16" width="1" height="1" /><rect shape-rendering="crispEdges" fill="rgb(205, 32, 32)"  x="21" y="17" width="1" height="1" /><rect shape-rendering="crispEdges" fill="rgb(148, 16, 24)"  x="21" y="18" width="1" height="1" /><rect shape-rendering="crispEdges" fill="rgb(98, 8, 8)"  x="21" y="19" width="1" height="1" /><rect shape-rendering="crispEdges" fill="rgb(82, 24, 24)"  x="21" y="20" width="1" height="1" /><rect shape-rendering="crispEdges" fill="rgb(148, 123, 115)"  x="21" y="21" width="1" height="1" /><rect shape-rendering="crispEdges" fill="rgb(139, 131, 123)"  x="21" y="22" width="1" height="1" /><rect shape-rendering="crispEdges" fill="rgb(131, 115, 115)"  x="21" y="23" width="1" height="1" /><rect shape-rendering="crispEdges" fill="rgb(131, 123, 123)"  x="21" y="24" width="1" height="1" /><rect shape-rendering="crispEdges" fill="rgb(131, 131, 131)"  x="21" y="25" width="1" height="1" /><rect shape-rendering="crispEdges" fill="rgb(180, 57, 65)"  x="22" y="10" width="1" height="1" /><rect shape-rendering="crispEdges" fill="rgb(222, 57, 65)"  x="22" y="11" width="1" height="1" /><rect shape-rendering="crispEdges" fill="rgb(222, 74, 82)"  x="22" y="12" width="1" height="1" /><rect shape-rendering="crispEdges" fill="rgb(156, 8, 16)"  x="22" y="13" width="1" height="1" /><rect shape-rendering="crispEdges" fill="rgb(123, 16, 16)"  x="22" y="14" width="1" height="1" /><rect shape-rendering="crispEdges" fill="rgb(82, 8, 16)"  x="22" y="15" width="1" height="1" /><rect shape-rendering="crispEdges" fill="rgb(131, 16, 16)"  x="22" y="16" width="1" height="1" /><rect shape-rendering="crispEdges" fill="rgb(139, 16, 16)"  x="22" y="17" width="1" height="1" /><rect shape-rendering="crispEdges" fill="rgb(98, 8, 16)"  x="22" y="18" width="1" height="1" /><rect shape-rendering="crispEdges" fill="rgb(82, 8, 8)"  x="22" y="19" width="1" height="1" /><rect shape-rendering="crispEdges" fill="rgb(74, 8, 8)"  x="22" y="20" width="1" height="1" /><rect shape-rendering="crispEdges" fill="rgb(123, 115, 106)"  x="22" y="21" width="1" height="1" /><rect shape-rendering="crispEdges" fill="rgb(148, 148, 148)"  x="22" y="22" width="1" height="1" /><rect shape-rendering="crispEdges" fill="rgb(115, 115, 115)"  x="22" y="23" width="1" height="1" /><rect shape-rendering="crispEdges" fill="rgb(115, 115, 115)"  x="22" y="24" width="1" height="1" /><rect shape-rendering="crispEdges" fill="rgb(123, 123, 123)"  x="22" y="25" width="1" height="1" /><rect shape-rendering="crispEdges" fill="rgb(213, 49, 57)"  x="23" y="9" width="1" height="1" /><rect shape-rendering="crispEdges" fill="rgb(230, 41, 49)"  x="23" y="10" width="1" height="1" /><rect shape-rendering="crispEdges" fill="rgb(213, 24, 32)"  x="23" y="11" width="1" height="1" /><rect shape-rendering="crispEdges" fill="rgb(189, 24, 32)"  x="23" y="12" width="1" height="1" /><rect shape-rendering="crispEdges" fill="rgb(131, 16, 16)"  x="23" y="13" width="1" height="1" /><rect shape-rendering="crispEdges" fill="rgb(90, 16, 16)"  x="23" y="14" width="1" height="1" /><rect shape-rendering="crispEdges" fill="rgb(106, 16, 16)"  x="23" y="15" width="1" height="1" /><rect shape-rendering="crispEdges" fill="rgb(65, 8, 8)"  x="23" y="16" width="1" height="1" /><rect shape-rendering="crispEdges" fill="rgb(90, 8, 16)"  x="23" y="17" width="1" height="1" /><rect shape-rendering="crispEdges" fill="rgb(106, 16, 16)"  x="23" y="18" width="1" height="1" /><rect shape-rendering="crispEdges" fill="rgb(90, 8, 16)"  x="23" y="19" width="1" height="1" /><rect shape-rendering="crispEdges" fill="rgb(82, 8, 8)"  x="23" y="20" width="1" height="1" /><rect shape-rendering="crispEdges" fill="rgb(106, 32, 32)"  x="23" y="21" width="1" height="1" /><rect shape-rendering="crispEdges" fill="rgb(115, 65, 65)"  x="23" y="22" width="1" height="1" /><rect shape-rendering="crispEdges" fill="rgb(172, 74, 74)"  x="24" y="8" width="1" height="1" /><rect shape-rendering="crispEdges" fill="rgb(230, 41, 49)"  x="24" y="9" width="1" height="1" /><rect shape-rendering="crispEdges" fill="rgb(197, 16, 24)"  x="24" y="10" width="1" height="1" /><rect shape-rendering="crispEdges" fill="rgb(115, 8, 16)"  x="24" y="11" width="1" height="1" /><rect shape-rendering="crispEdges" fill="rgb(131, 8, 16)"  x="24" y="12" width="1" height="1" /><rect shape-rendering="crispEdges" fill="rgb(106, 16, 16)"  x="24" y="13" width="1" height="1" /><rect shape-rendering="crispEdges" fill="rgb(172, 24, 24)"  x="24" y="14" width="1" height="1" /><rect shape-rendering="crispEdges" fill="rgb(172, 16, 24)"  x="24" y="15" width="1" height="1" /><rect shape-rendering="crispEdges" fill="rgb(74, 8, 8)"  x="24" y="16" width="1" height="1" /><rect shape-rendering="crispEdges" fill="rgb(115, 16, 16)"  x="24" y="17" width="1" height="1" /><rect shape-rendering="crispEdges" fill="rgb(131, 16, 16)"  x="24" y="18" width="1" height="1" /><rect shape-rendering="crispEdges" fill="rgb(106, 8, 16)"  x="24" y="19" width="1" height="1" /><rect shape-rendering="crispEdges" fill="rgb(106, 16, 16)"  x="24" y="20" width="1" height="1" /><rect shape-rendering="crispEdges" fill="rgb(189, 16, 24)"  x="24" y="21" width="1" height="1" /><rect shape-rendering="crispEdges" fill="rgb(156, 49, 49)"  x="24" y="22" width="1" height="1" /><rect shape-rendering="crispEdges" fill="rgb(172, 65, 65)"  x="25" y="7" width="1" height="1" /><rect shape-rendering="crispEdges" fill="rgb(197, 41, 49)"  x="25" y="8" width="1" height="1" /><rect shape-rendering="crispEdges" fill="rgb(189, 8, 16)"  x="25" y="9" width="1" height="1" /><rect shape-rendering="crispEdges" fill="rgb(74, 8, 8)"  x="25" y="10" width="1" height="1" /><rect shape-rendering="crispEdges" fill="rgb(65, 16, 16)"  x="25" y="11" width="1" height="1" /><rect shape-rendering="crispEdges" fill="rgb(82, 24, 24)"  x="25" y="12" width="1" height="1" /><rect shape-rendering="crispEdges" fill="rgb(131, 16, 16)"  x="25" y="13" width="1" height="1" /><rect shape-rendering="crispEdges" fill="rgb(197, 24, 32)"  x="25" y="14" width="1" height="1" /><rect shape-rendering="crispEdges" fill="rgb(180, 24, 24)"  x="25" y="15" width="1" height="1" /><rect shape-rendering="crispEdges" fill="rgb(74, 8, 8)"  x="25" y="16" width="1" height="1" /><rect shape-rendering="crispEdges" fill="rgb(180, 16, 24)"  x="25" y="17" width="1" height="1" /><rect shape-rendering="crispEdges" fill="rgb(189, 24, 32)"  x="25" y="18" width="1" height="1" /><rect shape-rendering="crispEdges" fill="rgb(148, 16, 24)"  x="25" y="19" width="1" height="1" /><rect shape-rendering="crispEdges" fill="rgb(148, 16, 24)"  x="25" y="20" width="1" height="1" /><rect shape-rendering="crispEdges" fill="rgb(222, 24, 32)"  x="25" y="21" width="1" height="1" /><rect shape-rendering="crispEdges" fill="rgb(156, 74, 74)"  x="25" y="22" width="1" height="1" /><rect shape-rendering="crispEdges" fill="rgb(156, 74, 74)"  x="26" y="5" width="1" height="1" /><rect shape-rendering="crispEdges" fill="rgb(172, 49, 57)"  x="26" y="6" width="1" height="1" /><rect shape-rendering="crispEdges" fill="rgb(172, 32, 41)"  x="26" y="7" width="1" height="1" /><rect shape-rendering="crispEdges" fill="rgb(156, 41, 41)"  x="26" y="8" width="1" height="1" /><rect shape-rendering="crispEdges" fill="rgb(98, 41, 49)"  x="26" y="9" width="1" height="1" /><rect shape-rendering="crispEdges" fill="rgb(74, 49, 49)"  x="26" y="10" width="1" height="1" /><rect shape-rendering="crispEdges" fill="rgb(115, 32, 32)"  x="26" y="12" width="1" height="1" /><rect shape-rendering="crispEdges" fill="rgb(123, 16, 16)"  x="26" y="13" width="1" height="1" /><rect shape-rendering="crispEdges" fill="rgb(115, 16, 24)"  x="26" y="14" width="1" height="1" /><rect shape-rendering="crispEdges" fill="rgb(82, 16, 16)"  x="26" y="15" width="1" height="1" /><rect shape-rendering="crispEdges" fill="rgb(98, 8, 16)"  x="26" y="16" width="1" height="1" /><rect shape-rendering="crispEdges" fill="rgb(189, 24, 32)"  x="26" y="17" width="1" height="1" /><rect shape-rendering="crispEdges" fill="rgb(205, 24, 32)"  x="26" y="18" width="1" height="1" /><rect shape-rendering="crispEdges" fill="rgb(222, 24, 32)"  x="26" y="19" width="1" height="1" /><rect shape-rendering="crispEdges" fill="rgb(197, 24, 24)"  x="26" y="20" width="1" height="1" /><rect shape-rendering="crispEdges" fill="rgb(164, 24, 32)"  x="26" y="21" width="1" height="1" /><rect shape-rendering="crispEdges" fill="rgb(123, 90, 90)"  x="26" y="22" width="1" height="1" /><rect shape-rendering="crispEdges" fill="rgb(131, 82, 82)"  x="27" y="5" width="1" height="1" /><rect shape-rendering="crispEdges" fill="rgb(139, 57, 57)"  x="27" y="6" width="1" height="1" /><rect shape-rendering="crispEdges" fill="rgb(139, 57, 57)"  x="27" y="7" width="1" height="1" /><rect shape-rendering="crispEdges" fill="rgb(115, 82, 82)"  x="27" y="8" width="1" height="1" /><rect shape-rendering="crispEdges" fill="rgb(90, 74, 74)"  x="27" y="9" width="1" height="1" /><rect shape-rendering="crispEdges" fill="rgb(90, 49, 49)"  x="27" y="12" width="1" height="1" /><rect shape-rendering="crispEdges" fill="rgb(82, 24, 24)"  x="27" y="13" width="1" height="1" /><rect shape-rendering="crispEdges" fill="rgb(82, 24, 24)"  x="27" y="14" width="1" height="1" /><rect shape-rendering="crispEdges" fill="rgb(82, 16, 24)"  x="27" y="15" width="1" height="1" /><rect shape-rendering="crispEdges" fill="rgb(156, 16, 24)"  x="27" y="16" width="1" height="1" /><rect shape-rendering="crispEdges" fill="rgb(213, 24, 32)"  x="27" y="17" width="1" height="1" /><rect shape-rendering="crispEdges" fill="rgb(172, 24, 24)"  x="27" y="18" width="1" height="1" /><rect shape-rendering="crispEdges" fill="rgb(172, 16, 24)"  x="27" y="19" width="1" height="1" /><rect shape-rendering="crispEdges" fill="rgb(189, 16, 24)"  x="27" y="20" width="1" height="1" /><rect shape-rendering="crispEdges" fill="rgb(164, 49, 57)"  x="27" y="21" width="1" height="1" /><rect shape-rendering="crispEdges" fill="rgb(123, 90, 90)"  x="27" y="22" width="1" height="1" /><rect shape-rendering="crispEdges" fill="rgb(98, 41, 41)"  x="28" y="14" width="1" height="1" /><rect shape-rendering="crispEdges" fill="rgb(106, 32, 32)"  x="28" y="15" width="1" height="1" /><rect shape-rendering="crispEdges" fill="rgb(115, 8, 16)"  x="28" y="16" width="1" height="1" /><rect shape-rendering="crispEdges" fill="rgb(123, 8, 16)"  x="28" y="17" width="1" height="1" /><rect shape-rendering="crispEdges" fill="rgb(189, 16, 24)"  x="28" y="18" width="1" height="1" /><rect shape-rendering="crispEdges" fill="rgb(205, 16, 24)"  x="28" y="19" width="1" height="1" /><rect shape-rendering="crispEdges" fill="rgb(172, 32, 32)"  x="28" y="20" width="1" height="1" /><rect shape-rendering="crispEdges" fill="rgb(123, 65, 65)"  x="28" y="21" width="1" height="1" /><rect shape-rendering="crispEdges" fill="rgb(90, 65, 74)"  x="29" y="15" width="1" height="1" /><rect shape-rendering="crispEdges" fill="rgb(82, 32, 32)"  x="29" y="16" width="1" height="1" /><rect shape-rendering="crispEdges" fill="rgb(82, 24, 24)"  x="29" y="17" width="1" height="1" /><rect shape-rendering="crispEdges" fill="rgb(74, 24, 24)"  x="29" y="18" width="1" height="1" /><rect shape-rendering="crispEdges" fill="rgb(74, 32, 32)"  x="29" y="19" width="1" height="1" /><rect shape-rendering="crispEdges" fill="rgb(74, 41, 41)"  x="29" y="20" width="1" height="1" /><rect shape-rendering="crispEdges" fill="rgb(74, 41, 41)"  x="29" y="21" width="1" height="1" /></svg>