<svg xmlns="http://www.w3.org/2000/svg" xmlns:xlink= "http://www.w3.org/1999/xlink" width="32" height="32" viewBox ="0 0 32 32"><rect shape-rendering="crispEdges" fill="rgb(172, 115, 57)"  x="1" y="19" width="1" height="1" /><rect shape-rendering="crispEdges" fill="rgb(172, 115, 57)"  x="1" y="20" width="1" height="1" /><rect shape-rendering="crispEdges" fill="rgb(139, 106, 74)"  x="1" y="21" width="1" height="1" /><rect shape-rendering="crispEdges" fill="rgb(139, 106, 74)"  x="1" y="22" width="1" height="1" /><rect shape-rendering="crispEdges" fill="rgb(189, 123, 65)"  x="2" y="17" width="1" height="1" /><rect shape-rendering="crispEdges" fill="rgb(172, 115, 57)"  x="2" y="18" width="1" height="1" /><rect shape-rendering="crispEdges" fill="rgb(255, 246, 189)"  x="2" y="19" width="1" height="1" /><rect shape-rendering="crispEdges" fill="rgb(255, 246, 189)"  x="2" y="20" width="1" height="1" /><rect shape-rendering="crispEdges" fill="rgb(213, 172, 106)"  x="2" y="21" width="1" height="1" /><rect shape-rendering="crispEdges" fill="rgb(148, 131, 131)"  x="2" y="22" width="1" height="1" /><rect shape-rendering="crispEdges" fill="rgb(139, 106, 74)"  x="2" y="23" width="1" height="1" /><rect shape-rendering="crispEdges" fill="rgb(189, 123, 65)"  x="3" y="16" width="1" height="1" /><rect shape-rendering="crispEdges" fill="rgb(238, 238, 238)"  x="3" y="17" width="1" height="1" /><rect shape-rendering="crispEdges" fill="rgb(106, 115, 115)"  x="3" y="18" width="1" height="1" /><rect shape-rendering="crispEdges" fill="rgb(238, 230, 172)"  x="3" y="19" width="1" height="1" /><rect shape-rendering="crispEdges" fill="rgb(255, 246, 189)"  x="3" y="20" width="1" height="1" /><rect shape-rendering="crispEdges" fill="rgb(255, 246, 189)"  x="3" y="21" width="1" height="1" /><rect shape-rendering="crispEdges" fill="rgb(189, 148, 90)"  x="3" y="22" width="1" height="1" /><rect shape-rendering="crispEdges" fill="rgb(180, 139, 90)"  x="3" y="23" width="1" height="1" /><rect shape-rendering="crispEdges" fill="rgb(139, 106, 74)"  x="3" y="24" width="1" height="1" /><rect shape-rendering="crispEdges" fill="rgb(189, 123, 65)"  x="4" y="15" width="1" height="1" /><rect shape-rendering="crispEdges" fill="rgb(255, 230, 164)"  x="4" y="16" width="1" height="1" /><rect shape-rendering="crispEdges" fill="rgb(238, 156, 106)"  x="4" y="17" width="1" height="1" /><rect shape-rendering="crispEdges" fill="rgb(238, 156, 106)"  x="4" y="18" width="1" height="1" /><rect shape-rendering="crispEdges" fill="rgb(255, 238, 164)"  x="4" y="19" width="1" height="1" /><rect shape-rendering="crispEdges" fill="rgb(255, 246, 189)"  x="4" y="20" width="1" height="1" /><rect shape-rendering="crispEdges" fill="rgb(255, 246, 189)"  x="4" y="21" width="1" height="1" /><rect shape-rendering="crispEdges" fill="rgb(197, 172, 115)"  x="4" y="22" width="1" height="1" /><rect shape-rendering="crispEdges" fill="rgb(180, 139, 90)"  x="4" y="23" width="1" height="1" /><rect shape-rendering="crispEdges" fill="rgb(189, 148, 90)"  x="4" y="24" width="1" height="1" /><rect shape-rendering="crispEdges" fill="rgb(139, 106, 74)"  x="4" y="25" width="1" height="1" /><rect shape-rendering="crispEdges" fill="rgb(213, 106, 82)"  x="5" y="15" width="1" height="1" /><rect shape-rendering="crispEdges" fill="rgb(246, 222, 148)"  x="5" y="16" width="1" height="1" /><rect shape-rendering="crispEdges" fill="rgb(246, 189, 123)"  x="5" y="17" width="1" height="1" /><rect shape-rendering="crispEdges" fill="rgb(255, 238, 164)"  x="5" y="18" width="1" height="1" /><rect shape-rendering="crispEdges" fill="rgb(246, 213, 131)"  x="5" y="19" width="1" height="1" /><rect shape-rendering="crispEdges" fill="rgb(238, 238, 238)"  x="5" y="20" width="1" height="1" /><rect shape-rendering="crispEdges" fill="rgb(123, 131, 131)"  x="5" y="21" width="1" height="1" /><rect shape-rendering="crispEdges" fill="rgb(222, 189, 131)"  x="5" y="22" width="1" height="1" /><rect shape-rendering="crispEdges" fill="rgb(213, 172, 106)"  x="5" y="23" width="1" height="1" /><rect shape-rendering="crispEdges" fill="rgb(205, 164, 98)"  x="5" y="24" width="1" height="1" /><rect shape-rendering="crispEdges" fill="rgb(139, 106, 74)"  x="5" y="25" width="1" height="1" /><rect shape-rendering="crispEdges" fill="rgb(213, 106, 82)"  x="6" y="14" width="1" height="1" /><rect shape-rendering="crispEdges" fill="rgb(222, 131, 98)"  x="6" y="15" width="1" height="1" /><rect shape-rendering="crispEdges" fill="rgb(222, 131, 90)"  x="6" y="16" width="1" height="1" /><rect shape-rendering="crispEdges" fill="rgb(255, 230, 156)"  x="6" y="17" width="1" height="1" /><rect shape-rendering="crispEdges" fill="rgb(246, 213, 131)"  x="6" y="18" width="1" height="1" /><rect shape-rendering="crispEdges" fill="rgb(246, 213, 131)"  x="6" y="19" width="1" height="1" /><rect shape-rendering="crispEdges" fill="rgb(172, 180, 180)"  x="6" y="20" width="1" height="1" /><rect shape-rendering="crispEdges" fill="rgb(255, 238, 164)"  x="6" y="21" width="1" height="1" /><rect shape-rendering="crispEdges" fill="rgb(255, 238, 164)"  x="6" y="22" width="1" height="1" /><rect shape-rendering="crispEdges" fill="rgb(213, 172, 106)"  x="6" y="23" width="1" height="1" /><rect shape-rendering="crispEdges" fill="rgb(148, 115, 65)"  x="6" y="24" width="1" height="1" /><rect shape-rendering="crispEdges" fill="rgb(106, 74, 65)"  x="6" y="25" width="1" height="1" /><rect shape-rendering="crispEdges" fill="rgb(139, 106, 74)"  x="6" y="26" width="1" height="1" /><rect shape-rendering="crispEdges" fill="rgb(0, 0, 0)"  x="7" y="13" width="1" height="1" /><rect shape-rendering="crispEdges" fill="rgb(32, 16, 16)"  x="7" y="14" width="1" height="1" /><rect shape-rendering="crispEdges" fill="rgb(57, 57, 57)"  x="7" y="15" width="1" height="1" /><rect shape-rendering="crispEdges" fill="rgb(205, 115, 82)"  x="7" y="16" width="1" height="1" /><rect shape-rendering="crispEdges" fill="rgb(246, 205, 123)"  x="7" y="17" width="1" height="1" /><rect shape-rendering="crispEdges" fill="rgb(246, 213, 139)"  x="7" y="18" width="1" height="1" /><rect shape-rendering="crispEdges" fill="rgb(246, 222, 156)"  x="7" y="19" width="1" height="1" /><rect shape-rendering="crispEdges" fill="rgb(255, 230, 164)"  x="7" y="20" width="1" height="1" /><rect shape-rendering="crispEdges" fill="rgb(255, 238, 164)"  x="7" y="21" width="1" height="1" /><rect shape-rendering="crispEdges" fill="rgb(255, 238, 164)"  x="7" y="22" width="1" height="1" /><rect shape-rendering="crispEdges" fill="rgb(213, 172, 106)"  x="7" y="23" width="1" height="1" /><rect shape-rendering="crispEdges" fill="rgb(213, 172, 106)"  x="7" y="24" width="1" height="1" /><rect shape-rendering="crispEdges" fill="rgb(0, 0, 0)"  x="7" y="25" width="1" height="1" /><rect shape-rendering="crispEdges" fill="rgb(139, 106, 74)"  x="7" y="26" width="1" height="1" /><rect shape-rendering="crispEdges" fill="rgb(57, 57, 57)"  x="8" y="13" width="1" height="1" /><rect shape-rendering="crispEdges" fill="rgb(24, 24, 24)"  x="8" y="14" width="1" height="1" /><rect shape-rendering="crispEdges" fill="rgb(189, 98, 74)"  x="8" y="15" width="1" height="1" /><rect shape-rendering="crispEdges" fill="rgb(57, 57, 57)"  x="8" y="16" width="1" height="1" /><rect shape-rendering="crispEdges" fill="rgb(255, 222, 139)"  x="8" y="17" width="1" height="1" /><rect shape-rendering="crispEdges" fill="rgb(255, 230, 139)"  x="8" y="18" width="1" height="1" /><rect shape-rendering="crispEdges" fill="rgb(255, 230, 156)"  x="8" y="19" width="1" height="1" /><rect shape-rendering="crispEdges" fill="rgb(255, 238, 164)"  x="8" y="20" width="1" height="1" /><rect shape-rendering="crispEdges" fill="rgb(255, 238, 164)"  x="8" y="21" width="1" height="1" /><rect shape-rendering="crispEdges" fill="rgb(255, 238, 164)"  x="8" y="22" width="1" height="1" /><rect shape-rendering="crispEdges" fill="rgb(246, 189, 123)"  x="8" y="23" width="1" height="1" /><rect shape-rendering="crispEdges" fill="rgb(213, 172, 106)"  x="8" y="24" width="1" height="1" /><rect shape-rendering="crispEdges" fill="rgb(0, 0, 0)"  x="8" y="25" width="1" height="1" /><rect shape-rendering="crispEdges" fill="rgb(139, 106, 74)"  x="8" y="26" width="1" height="1" /><rect shape-rendering="crispEdges" fill="rgb(24, 24, 32)"  x="9" y="13" width="1" height="1" /><rect shape-rendering="crispEdges" fill="rgb(8, 8, 8)"  x="9" y="14" width="1" height="1" /><rect shape-rendering="crispEdges" fill="rgb(57, 57, 57)"  x="9" y="15" width="1" height="1" /><rect shape-rendering="crispEdges" fill="rgb(164, 106, 82)"  x="9" y="16" width="1" height="1" /><rect shape-rendering="crispEdges" fill="rgb(213, 123, 90)"  x="9" y="17" width="1" height="1" /><rect shape-rendering="crispEdges" fill="rgb(222, 148, 98)"  x="9" y="18" width="1" height="1" /><rect shape-rendering="crispEdges" fill="rgb(255, 230, 156)"  x="9" y="19" width="1" height="1" /><rect shape-rendering="crispEdges" fill="rgb(255, 238, 164)"  x="9" y="20" width="1" height="1" /><rect shape-rendering="crispEdges" fill="rgb(255, 238, 164)"  x="9" y="21" width="1" height="1" /><rect shape-rendering="crispEdges" fill="rgb(255, 238, 164)"  x="9" y="22" width="1" height="1" /><rect shape-rendering="crispEdges" fill="rgb(255, 246, 189)"  x="9" y="23" width="1" height="1" /><rect shape-rendering="crispEdges" fill="rgb(213, 172, 106)"  x="9" y="24" width="1" height="1" /><rect shape-rendering="crispEdges" fill="rgb(74, 57, 32)"  x="9" y="25" width="1" height="1" /><rect shape-rendering="crispEdges" fill="rgb(189, 164, 148)"  x="9" y="26" width="1" height="1" /><rect shape-rendering="crispEdges" fill="rgb(106, 65, 41)"  x="9" y="27" width="1" height="1" /><rect shape-rendering="crispEdges" fill="rgb(74, 82, 98)"  x="10" y="12" width="1" height="1" /><rect shape-rendering="crispEdges" fill="rgb(255, 255, 230)"  x="10" y="13" width="1" height="1" /><rect shape-rendering="crispEdges" fill="rgb(106, 123, 123)"  x="10" y="14" width="1" height="1" /><rect shape-rendering="crispEdges" fill="rgb(180, 65, 57)"  x="10" y="15" width="1" height="1" /><rect shape-rendering="crispEdges" fill="rgb(213, 90, 74)"  x="10" y="16" width="1" height="1" /><rect shape-rendering="crispEdges" fill="rgb(49, 49, 41)"  x="10" y="17" width="1" height="1" /><rect shape-rendering="crispEdges" fill="rgb(90, 74, 65)"  x="10" y="18" width="1" height="1" /><rect shape-rendering="crispEdges" fill="rgb(255, 230, 139)"  x="10" y="19" width="1" height="1" /><rect shape-rendering="crispEdges" fill="rgb(238, 189, 123)"  x="10" y="20" width="1" height="1" /><rect shape-rendering="crispEdges" fill="rgb(238, 238, 238)"  x="10" y="21" width="1" height="1" /><rect shape-rendering="crispEdges" fill="rgb(172, 180, 180)"  x="10" y="22" width="1" height="1" /><rect shape-rendering="crispEdges" fill="rgb(255, 238, 180)"  x="10" y="23" width="1" height="1" /><rect shape-rendering="crispEdges" fill="rgb(213, 172, 106)"  x="10" y="24" width="1" height="1" /><rect shape-rendering="crispEdges" fill="rgb(148, 123, 74)"  x="10" y="25" width="1" height="1" /><rect shape-rendering="crispEdges" fill="rgb(172, 172, 172)"  x="10" y="26" width="1" height="1" /><rect shape-rendering="crispEdges" fill="rgb(106, 65, 41)"  x="10" y="27" width="1" height="1" /><rect shape-rendering="crispEdges" fill="rgb(74, 82, 98)"  x="11" y="12" width="1" height="1" /><rect shape-rendering="crispEdges" fill="rgb(205, 238, 255)"  x="11" y="13" width="1" height="1" /><rect shape-rendering="crispEdges" fill="rgb(106, 123, 123)"  x="11" y="14" width="1" height="1" /><rect shape-rendering="crispEdges" fill="rgb(57, 57, 57)"  x="11" y="15" width="1" height="1" /><rect shape-rendering="crispEdges" fill="rgb(57, 57, 57)"  x="11" y="16" width="1" height="1" /><rect shape-rendering="crispEdges" fill="rgb(164, 65, 57)"  x="11" y="17" width="1" height="1" /><rect shape-rendering="crispEdges" fill="rgb(230, 148, 106)"  x="11" y="18" width="1" height="1" /><rect shape-rendering="crispEdges" fill="rgb(238, 189, 123)"  x="11" y="19" width="1" height="1" /><rect shape-rendering="crispEdges" fill="rgb(172, 164, 148)"  x="11" y="20" width="1" height="1" /><rect shape-rendering="crispEdges" fill="rgb(205, 213, 213)"  x="11" y="21" width="1" height="1" /><rect shape-rendering="crispEdges" fill="rgb(123, 131, 131)"  x="11" y="22" width="1" height="1" /><rect shape-rendering="crispEdges" fill="rgb(255, 238, 164)"  x="11" y="23" width="1" height="1" /><rect shape-rendering="crispEdges" fill="rgb(213, 172, 106)"  x="11" y="24" width="1" height="1" /><rect shape-rendering="crispEdges" fill="rgb(180, 180, 164)"  x="11" y="25" width="1" height="1" /><rect shape-rendering="crispEdges" fill="rgb(172, 172, 172)"  x="11" y="26" width="1" height="1" /><rect shape-rendering="crispEdges" fill="rgb(106, 65, 41)"  x="11" y="27" width="1" height="1" /><rect shape-rendering="crispEdges" fill="rgb(74, 82, 98)"  x="12" y="13" width="1" height="1" /><rect shape-rendering="crispEdges" fill="rgb(205, 230, 246)"  x="12" y="14" width="1" height="1" /><rect shape-rendering="crispEdges" fill="rgb(90, 98, 106)"  x="12" y="15" width="1" height="1" /><rect shape-rendering="crispEdges" fill="rgb(197, 82, 65)"  x="12" y="16" width="1" height="1" /><rect shape-rendering="crispEdges" fill="rgb(123, 57, 57)"  x="12" y="17" width="1" height="1" /><rect shape-rendering="crispEdges" fill="rgb(238, 139, 98)"  x="12" y="18" width="1" height="1" /><rect shape-rendering="crispEdges" fill="rgb(246, 172, 115)"  x="12" y="19" width="1" height="1" /><rect shape-rendering="crispEdges" fill="rgb(255, 246, 222)"  x="12" y="20" width="1" height="1" /><rect shape-rendering="crispEdges" fill="rgb(222, 197, 123)"  x="12" y="21" width="1" height="1" /><rect shape-rendering="crispEdges" fill="rgb(197, 156, 98)"  x="12" y="22" width="1" height="1" /><rect shape-rendering="crispEdges" fill="rgb(180, 139, 90)"  x="12" y="23" width="1" height="1" /><rect shape-rendering="crispEdges" fill="rgb(180, 139, 90)"  x="12" y="24" width="1" height="1" /><rect shape-rendering="crispEdges" fill="rgb(197, 156, 90)"  x="12" y="25" width="1" height="1" /><rect shape-rendering="crispEdges" fill="rgb(106, 65, 41)"  x="12" y="26" width="1" height="1" /><rect shape-rendering="crispEdges" fill="rgb(0, 0, 0)"  x="13" y="12" width="1" height="1" /><rect shape-rendering="crispEdges" fill="rgb(82, 90, 106)"  x="13" y="13" width="1" height="1" /><rect shape-rendering="crispEdges" fill="rgb(189, 213, 230)"  x="13" y="14" width="1" height="1" /><rect shape-rendering="crispEdges" fill="rgb(90, 98, 106)"  x="13" y="15" width="1" height="1" /><rect shape-rendering="crispEdges" fill="rgb(57, 57, 57)"  x="13" y="16" width="1" height="1" /><rect shape-rendering="crispEdges" fill="rgb(57, 57, 57)"  x="13" y="17" width="1" height="1" /><rect shape-rendering="crispEdges" fill="rgb(246, 131, 98)"  x="13" y="18" width="1" height="1" /><rect shape-rendering="crispEdges" fill="rgb(139, 139, 131)"  x="13" y="19" width="1" height="1" /><rect shape-rendering="crispEdges" fill="rgb(246, 213, 131)"  x="13" y="20" width="1" height="1" /><rect shape-rendering="crispEdges" fill="rgb(180, 139, 90)"  x="13" y="21" width="1" height="1" /><rect shape-rendering="crispEdges" fill="rgb(255, 238, 172)"  x="13" y="22" width="1" height="1" /><rect shape-rendering="crispEdges" fill="rgb(255, 238, 180)"  x="13" y="23" width="1" height="1" /><rect shape-rendering="crispEdges" fill="rgb(246, 222, 139)"  x="13" y="24" width="1" height="1" /><rect shape-rendering="crispEdges" fill="rgb(164, 123, 82)"  x="13" y="25" width="1" height="1" /><rect shape-rendering="crispEdges" fill="rgb(8, 8, 8)"  x="14" y="11" width="1" height="1" /><rect shape-rendering="crispEdges" fill="rgb(82, 49, 57)"  x="14" y="12" width="1" height="1" /><rect shape-rendering="crispEdges" fill="rgb(57, 65, 74)"  x="14" y="13" width="1" height="1" /><rect shape-rendering="crispEdges" fill="rgb(172, 189, 205)"  x="14" y="14" width="1" height="1" /><rect shape-rendering="crispEdges" fill="rgb(172, 189, 205)"  x="14" y="15" width="1" height="1" /><rect shape-rendering="crispEdges" fill="rgb(90, 98, 106)"  x="14" y="16" width="1" height="1" /><rect shape-rendering="crispEdges" fill="rgb(106, 65, 65)"  x="14" y="17" width="1" height="1" /><rect shape-rendering="crispEdges" fill="rgb(172, 82, 74)"  x="14" y="18" width="1" height="1" /><rect shape-rendering="crispEdges" fill="rgb(246, 189, 123)"  x="14" y="19" width="1" height="1" /><rect shape-rendering="crispEdges" fill="rgb(246, 189, 123)"  x="14" y="20" width="1" height="1" /><rect shape-rendering="crispEdges" fill="rgb(255, 222, 139)"  x="14" y="21" width="1" height="1" /><rect shape-rendering="crispEdges" fill="rgb(82, 82, 57)"  x="14" y="22" width="1" height="1" /><rect shape-rendering="crispEdges" fill="rgb(98, 98, 74)"  x="14" y="23" width="1" height="1" /><rect shape-rendering="crispEdges" fill="rgb(57, 57, 57)"  x="14" y="24" width="1" height="1" /><rect shape-rendering="crispEdges" fill="rgb(57, 57, 57)"  x="14" y="25" width="1" height="1" /><rect shape-rendering="crispEdges" fill="rgb(98, 98, 98)"  x="14" y="26" width="1" height="1" /><rect shape-rendering="crispEdges" fill="rgb(57, 57, 57)"  x="15" y="10" width="1" height="1" /><rect shape-rendering="crispEdges" fill="rgb(32, 16, 16)"  x="15" y="11" width="1" height="1" /><rect shape-rendering="crispEdges" fill="rgb(32, 16, 16)"  x="15" y="12" width="1" height="1" /><rect shape-rendering="crispEdges" fill="rgb(32, 16, 16)"  x="15" y="13" width="1" height="1" /><rect shape-rendering="crispEdges" fill="rgb(57, 65, 74)"  x="15" y="14" width="1" height="1" /><rect shape-rendering="crispEdges" fill="rgb(205, 222, 238)"  x="15" y="15" width="1" height="1" /><rect shape-rendering="crispEdges" fill="rgb(90, 98, 106)"  x="15" y="16" width="1" height="1" /><rect shape-rendering="crispEdges" fill="rgb(164, 74, 65)"  x="15" y="17" width="1" height="1" /><rect shape-rendering="crispEdges" fill="rgb(65, 65, 65)"  x="15" y="18" width="1" height="1" /><rect shape-rendering="crispEdges" fill="rgb(222, 139, 98)"  x="15" y="19" width="1" height="1" /><rect shape-rendering="crispEdges" fill="rgb(255, 230, 148)"  x="15" y="20" width="1" height="1" /><rect shape-rendering="crispEdges" fill="rgb(0, 0, 0)"  x="15" y="21" width="1" height="1" /><rect shape-rendering="crispEdges" fill="rgb(148, 148, 156)"  x="15" y="22" width="1" height="1" /><rect shape-rendering="crispEdges" fill="rgb(180, 180, 189)"  x="15" y="23" width="1" height="1" /><rect shape-rendering="crispEdges" fill="rgb(213, 222, 222)"  x="15" y="24" width="1" height="1" /><rect shape-rendering="crispEdges" fill="rgb(115, 115, 123)"  x="15" y="25" width="1" height="1" /><rect shape-rendering="crispEdges" fill="rgb(49, 49, 49)"  x="15" y="26" width="1" height="1" /><rect shape-rendering="crispEdges" fill="rgb(123, 115, 98)"  x="16" y="7" width="1" height="1" /><rect shape-rendering="crispEdges" fill="rgb(123, 115, 98)"  x="16" y="8" width="1" height="1" /><rect shape-rendering="crispEdges" fill="rgb(57, 57, 49)"  x="16" y="9" width="1" height="1" /><rect shape-rendering="crispEdges" fill="rgb(172, 164, 180)"  x="16" y="10" width="1" height="1" /><rect shape-rendering="crispEdges" fill="rgb(82, 90, 90)"  x="16" y="11" width="1" height="1" /><rect shape-rendering="crispEdges" fill="rgb(82, 90, 90)"  x="16" y="12" width="1" height="1" /><rect shape-rendering="crispEdges" fill="rgb(82, 90, 90)"  x="16" y="13" width="1" height="1" /><rect shape-rendering="crispEdges" fill="rgb(82, 90, 90)"  x="16" y="14" width="1" height="1" /><rect shape-rendering="crispEdges" fill="rgb(24, 32, 32)"  x="16" y="15" width="1" height="1" /><rect shape-rendering="crispEdges" fill="rgb(123, 139, 164)"  x="16" y="16" width="1" height="1" /><rect shape-rendering="crispEdges" fill="rgb(90, 98, 106)"  x="16" y="17" width="1" height="1" /><rect shape-rendering="crispEdges" fill="rgb(123, 65, 57)"  x="16" y="18" width="1" height="1" /><rect shape-rendering="crispEdges" fill="rgb(41, 41, 41)"  x="16" y="19" width="1" height="1" /><rect shape-rendering="crispEdges" fill="rgb(255, 230, 156)"  x="16" y="20" width="1" height="1" /><rect shape-rendering="crispEdges" fill="rgb(139, 123, 82)"  x="16" y="21" width="1" height="1" /><rect shape-rendering="crispEdges" fill="rgb(74, 74, 74)"  x="16" y="22" width="1" height="1" /><rect shape-rendering="crispEdges" fill="rgb(98, 106, 106)"  x="16" y="23" width="1" height="1" /><rect shape-rendering="crispEdges" fill="rgb(115, 115, 123)"  x="16" y="24" width="1" height="1" /><rect shape-rendering="crispEdges" fill="rgb(74, 74, 74)"  x="16" y="25" width="1" height="1" /><rect shape-rendering="crispEdges" fill="rgb(82, 82, 82)"  x="16" y="26" width="1" height="1" /><rect shape-rendering="crispEdges" fill="rgb(156, 139, 123)"  x="17" y="6" width="1" height="1" /><rect shape-rendering="crispEdges" fill="rgb(164, 164, 156)"  x="17" y="7" width="1" height="1" /><rect shape-rendering="crispEdges" fill="rgb(16, 24, 24)"  x="17" y="8" width="1" height="1" /><rect shape-rendering="crispEdges" fill="rgb(172, 164, 180)"  x="17" y="9" width="1" height="1" /><rect shape-rendering="crispEdges" fill="rgb(49, 57, 57)"  x="17" y="10" width="1" height="1" /><rect shape-rendering="crispEdges" fill="rgb(41, 49, 49)"  x="17" y="11" width="1" height="1" /><rect shape-rendering="crispEdges" fill="rgb(41, 49, 49)"  x="17" y="12" width="1" height="1" /><rect shape-rendering="crispEdges" fill="rgb(49, 49, 49)"  x="17" y="13" width="1" height="1" /><rect shape-rendering="crispEdges" fill="rgb(49, 57, 57)"  x="17" y="14" width="1" height="1" /><rect shape-rendering="crispEdges" fill="rgb(49, 57, 57)"  x="17" y="15" width="1" height="1" /><rect shape-rendering="crispEdges" fill="rgb(0, 0, 0)"  x="17" y="16" width="1" height="1" /><rect shape-rendering="crispEdges" fill="rgb(148, 164, 180)"  x="17" y="17" width="1" height="1" /><rect shape-rendering="crispEdges" fill="rgb(0, 0, 0)"  x="17" y="18" width="1" height="1" /><rect shape-rendering="crispEdges" fill="rgb(41, 41, 41)"  x="17" y="19" width="1" height="1" /><rect shape-rendering="crispEdges" fill="rgb(222, 148, 98)"  x="17" y="20" width="1" height="1" /><rect shape-rendering="crispEdges" fill="rgb(246, 213, 131)"  x="17" y="21" width="1" height="1" /><rect shape-rendering="crispEdges" fill="rgb(0, 0, 0)"  x="17" y="22" width="1" height="1" /><rect shape-rendering="crispEdges" fill="rgb(0, 0, 0)"  x="17" y="23" width="1" height="1" /><rect shape-rendering="crispEdges" fill="rgb(41, 41, 49)"  x="17" y="24" width="1" height="1" /><rect shape-rendering="crispEdges" fill="rgb(98, 98, 98)"  x="17" y="25" width="1" height="1" /><rect shape-rendering="crispEdges" fill="rgb(156, 139, 123)"  x="18" y="5" width="1" height="1" /><rect shape-rendering="crispEdges" fill="rgb(180, 180, 180)"  x="18" y="6" width="1" height="1" /><rect shape-rendering="crispEdges" fill="rgb(49, 49, 49)"  x="18" y="7" width="1" height="1" /><rect shape-rendering="crispEdges" fill="rgb(16, 24, 24)"  x="18" y="8" width="1" height="1" /><rect shape-rendering="crispEdges" fill="rgb(172, 164, 180)"  x="18" y="9" width="1" height="1" /><rect shape-rendering="crispEdges" fill="rgb(49, 57, 57)"  x="18" y="10" width="1" height="1" /><rect shape-rendering="crispEdges" fill="rgb(49, 57, 57)"  x="18" y="11" width="1" height="1" /><rect shape-rendering="crispEdges" fill="rgb(49, 49, 49)"  x="18" y="12" width="1" height="1" /><rect shape-rendering="crispEdges" fill="rgb(49, 49, 49)"  x="18" y="13" width="1" height="1" /><rect shape-rendering="crispEdges" fill="rgb(41, 49, 49)"  x="18" y="14" width="1" height="1" /><rect shape-rendering="crispEdges" fill="rgb(49, 49, 49)"  x="18" y="15" width="1" height="1" /><rect shape-rendering="crispEdges" fill="rgb(49, 49, 49)"  x="18" y="16" width="1" height="1" /><rect shape-rendering="crispEdges" fill="rgb(0, 0, 0)"  x="18" y="17" width="1" height="1" /><rect shape-rendering="crispEdges" fill="rgb(57, 57, 57)"  x="18" y="18" width="1" height="1" /><rect shape-rendering="crispEdges" fill="rgb(41, 41, 41)"  x="18" y="19" width="1" height="1" /><rect shape-rendering="crispEdges" fill="rgb(246, 197, 123)"  x="18" y="20" width="1" height="1" /><rect shape-rendering="crispEdges" fill="rgb(230, 172, 115)"  x="18" y="21" width="1" height="1" /><rect shape-rendering="crispEdges" fill="rgb(222, 148, 98)"  x="18" y="22" width="1" height="1" /><rect shape-rendering="crispEdges" fill="rgb(106, 65, 41)"  x="18" y="23" width="1" height="1" /><rect shape-rendering="crispEdges" fill="rgb(156, 139, 123)"  x="19" y="4" width="1" height="1" /><rect shape-rendering="crispEdges" fill="rgb(205, 205, 205)"  x="19" y="5" width="1" height="1" /><rect shape-rendering="crispEdges" fill="rgb(49, 49, 49)"  x="19" y="6" width="1" height="1" /><rect shape-rendering="crispEdges" fill="rgb(16, 16, 16)"  x="19" y="7" width="1" height="1" /><rect shape-rendering="crispEdges" fill="rgb(213, 115, 90)"  x="19" y="8" width="1" height="1" /><rect shape-rendering="crispEdges" fill="rgb(32, 16, 16)"  x="19" y="9" width="1" height="1" /><rect shape-rendering="crispEdges" fill="rgb(172, 164, 180)"  x="19" y="10" width="1" height="1" /><rect shape-rendering="crispEdges" fill="rgb(49, 57, 57)"  x="19" y="11" width="1" height="1" /><rect shape-rendering="crispEdges" fill="rgb(41, 49, 49)"  x="19" y="12" width="1" height="1" /><rect shape-rendering="crispEdges" fill="rgb(49, 49, 57)"  x="19" y="13" width="1" height="1" /><rect shape-rendering="crispEdges" fill="rgb(49, 57, 57)"  x="19" y="14" width="1" height="1" /><rect shape-rendering="crispEdges" fill="rgb(41, 49, 49)"  x="19" y="15" width="1" height="1" /><rect shape-rendering="crispEdges" fill="rgb(0, 0, 0)"  x="19" y="16" width="1" height="1" /><rect shape-rendering="crispEdges" fill="rgb(41, 41, 41)"  x="19" y="17" width="1" height="1" /><rect shape-rendering="crispEdges" fill="rgb(139, 139, 139)"  x="19" y="18" width="1" height="1" /><rect shape-rendering="crispEdges" fill="rgb(41, 41, 41)"  x="19" y="19" width="1" height="1" /><rect shape-rendering="crispEdges" fill="rgb(238, 180, 115)"  x="19" y="20" width="1" height="1" /><rect shape-rendering="crispEdges" fill="rgb(222, 148, 98)"  x="19" y="21" width="1" height="1" /><rect shape-rendering="crispEdges" fill="rgb(106, 65, 41)"  x="19" y="22" width="1" height="1" /><rect shape-rendering="crispEdges" fill="rgb(156, 139, 123)"  x="20" y="3" width="1" height="1" /><rect shape-rendering="crispEdges" fill="rgb(222, 222, 213)"  x="20" y="4" width="1" height="1" /><rect shape-rendering="crispEdges" fill="rgb(98, 98, 90)"  x="20" y="5" width="1" height="1" /><rect shape-rendering="crispEdges" fill="rgb(16, 16, 16)"  x="20" y="6" width="1" height="1" /><rect shape-rendering="crispEdges" fill="rgb(57, 57, 57)"  x="20" y="7" width="1" height="1" /><rect shape-rendering="crispEdges" fill="rgb(16, 16, 24)"  x="20" y="8" width="1" height="1" /><rect shape-rendering="crispEdges" fill="rgb(57, 41, 41)"  x="20" y="9" width="1" height="1" /><rect shape-rendering="crispEdges" fill="rgb(16, 16, 16)"  x="20" y="10" width="1" height="1" /><rect shape-rendering="crispEdges" fill="rgb(172, 164, 180)"  x="20" y="11" width="1" height="1" /><rect shape-rendering="crispEdges" fill="rgb(74, 82, 74)"  x="20" y="12" width="1" height="1" /><rect shape-rendering="crispEdges" fill="rgb(74, 90, 74)"  x="20" y="13" width="1" height="1" /><rect shape-rendering="crispEdges" fill="rgb(57, 65, 57)"  x="20" y="14" width="1" height="1" /><rect shape-rendering="crispEdges" fill="rgb(0, 0, 0)"  x="20" y="15" width="1" height="1" /><rect shape-rendering="crispEdges" fill="rgb(180, 74, 65)"  x="20" y="16" width="1" height="1" /><rect shape-rendering="crispEdges" fill="rgb(156, 139, 98)"  x="20" y="17" width="1" height="1" /><rect shape-rendering="crispEdges" fill="rgb(41, 41, 41)"  x="20" y="18" width="1" height="1" /><rect shape-rendering="crispEdges" fill="rgb(246, 164, 115)"  x="20" y="19" width="1" height="1" /><rect shape-rendering="crispEdges" fill="rgb(213, 148, 106)"  x="20" y="20" width="1" height="1" /><rect shape-rendering="crispEdges" fill="rgb(106, 65, 41)"  x="20" y="21" width="1" height="1" /><rect shape-rendering="crispEdges" fill="rgb(123, 115, 98)"  x="21" y="3" width="1" height="1" /><rect shape-rendering="crispEdges" fill="rgb(106, 98, 90)"  x="21" y="4" width="1" height="1" /><rect shape-rendering="crispEdges" fill="rgb(90, 90, 90)"  x="21" y="6" width="1" height="1" /><rect shape-rendering="crispEdges" fill="rgb(24, 16, 16)"  x="21" y="7" width="1" height="1" /><rect shape-rendering="crispEdges" fill="rgb(0, 0, 0)"  x="21" y="8" width="1" height="1" /><rect shape-rendering="crispEdges" fill="rgb(24, 24, 24)"  x="21" y="9" width="1" height="1" /><rect shape-rendering="crispEdges" fill="rgb(65, 41, 41)"  x="21" y="10" width="1" height="1" /><rect shape-rendering="crispEdges" fill="rgb(24, 24, 24)"  x="21" y="11" width="1" height="1" /><rect shape-rendering="crispEdges" fill="rgb(16, 16, 16)"  x="21" y="12" width="1" height="1" /><rect shape-rendering="crispEdges" fill="rgb(49, 32, 41)"  x="21" y="13" width="1" height="1" /><rect shape-rendering="crispEdges" fill="rgb(8, 8, 8)"  x="21" y="14" width="1" height="1" /><rect shape-rendering="crispEdges" fill="rgb(57, 57, 57)"  x="21" y="15" width="1" height="1" /><rect shape-rendering="crispEdges" fill="rgb(148, 148, 156)"  x="21" y="16" width="1" height="1" /><rect shape-rendering="crispEdges" fill="rgb(255, 213, 131)"  x="21" y="17" width="1" height="1" /><rect shape-rendering="crispEdges" fill="rgb(246, 197, 131)"  x="21" y="18" width="1" height="1" /><rect shape-rendering="crispEdges" fill="rgb(238, 180, 115)"  x="21" y="19" width="1" height="1" /><rect shape-rendering="crispEdges" fill="rgb(98, 74, 49)"  x="21" y="20" width="1" height="1" /><rect shape-rendering="crispEdges" fill="rgb(98, 98, 98)"  x="21" y="21" width="1" height="1" /><rect shape-rendering="crispEdges" fill="rgb(41, 41, 41)"  x="22" y="6" width="1" height="1" /><rect shape-rendering="crispEdges" fill="rgb(32, 32, 32)"  x="22" y="8" width="1" height="1" /><rect shape-rendering="crispEdges" fill="rgb(156, 98, 90)"  x="22" y="9" width="1" height="1" /><rect shape-rendering="crispEdges" fill="rgb(90, 57, 49)"  x="22" y="10" width="1" height="1" /><rect shape-rendering="crispEdges" fill="rgb(82, 49, 49)"  x="22" y="11" width="1" height="1" /><rect shape-rendering="crispEdges" fill="rgb(0, 0, 0)"  x="22" y="12" width="1" height="1" /><rect shape-rendering="crispEdges" fill="rgb(82, 65, 57)"  x="22" y="13" width="1" height="1" /><rect shape-rendering="crispEdges" fill="rgb(205, 106, 82)"  x="22" y="14" width="1" height="1" /><rect shape-rendering="crispEdges" fill="rgb(123, 98, 74)"  x="22" y="15" width="1" height="1" /><rect shape-rendering="crispEdges" fill="rgb(246, 180, 123)"  x="22" y="16" width="1" height="1" /><rect shape-rendering="crispEdges" fill="rgb(139, 115, 82)"  x="22" y="17" width="1" height="1" /><rect shape-rendering="crispEdges" fill="rgb(98, 74, 49)"  x="22" y="18" width="1" height="1" /><rect shape-rendering="crispEdges" fill="rgb(0, 0, 0)"  x="22" y="19" width="1" height="1" /><rect shape-rendering="crispEdges" fill="rgb(41, 41, 49)"  x="22" y="20" width="1" height="1" /><rect shape-rendering="crispEdges" fill="rgb(98, 98, 98)"  x="22" y="21" width="1" height="1" /><rect shape-rendering="crispEdges" fill="rgb(32, 32, 32)"  x="23" y="9" width="1" height="1" /><rect shape-rendering="crispEdges" fill="rgb(148, 90, 82)"  x="23" y="10" width="1" height="1" /><rect shape-rendering="crispEdges" fill="rgb(0, 0, 0)"  x="23" y="11" width="1" height="1" /><rect shape-rendering="crispEdges" fill="rgb(98, 98, 98)"  x="23" y="12" width="1" height="1" /><rect shape-rendering="crispEdges" fill="rgb(24, 32, 32)"  x="23" y="13" width="1" height="1" /><rect shape-rendering="crispEdges" fill="rgb(57, 57, 57)"  x="23" y="14" width="1" height="1" /><rect shape-rendering="crispEdges" fill="rgb(49, 49, 49)"  x="23" y="15" width="1" height="1" /><rect shape-rendering="crispEdges" fill="rgb(41, 32, 16)"  x="23" y="16" width="1" height="1" /><rect shape-rendering="crispEdges" fill="rgb(57, 49, 41)"  x="23" y="17" width="1" height="1" /><rect shape-rendering="crispEdges" fill="rgb(222, 230, 238)"  x="23" y="18" width="1" height="1" /><rect shape-rendering="crispEdges" fill="rgb(98, 106, 115)"  x="23" y="19" width="1" height="1" /><rect shape-rendering="crispEdges" fill="rgb(57, 57, 57)"  x="23" y="20" width="1" height="1" /><rect shape-rendering="crispEdges" fill="rgb(49, 49, 49)"  x="23" y="21" width="1" height="1" /><rect shape-rendering="crispEdges" fill="rgb(0, 0, 0)"  x="24" y="10" width="1" height="1" /><rect shape-rendering="crispEdges" fill="rgb(156, 139, 123)"  x="24" y="11" width="1" height="1" /><rect shape-rendering="crispEdges" fill="rgb(24, 24, 24)"  x="24" y="12" width="1" height="1" /><rect shape-rendering="crispEdges" fill="rgb(49, 49, 41)"  x="24" y="13" width="1" height="1" /><rect shape-rendering="crispEdges" fill="rgb(57, 57, 57)"  x="24" y="14" width="1" height="1" /><rect shape-rendering="crispEdges" fill="rgb(0, 0, 0)"  x="24" y="15" width="1" height="1" /><rect shape-rendering="crispEdges" fill="rgb(57, 57, 57)"  x="24" y="16" width="1" height="1" /><rect shape-rendering="crispEdges" fill="rgb(139, 139, 139)"  x="24" y="17" width="1" height="1" /><rect shape-rendering="crispEdges" fill="rgb(139, 139, 139)"  x="24" y="18" width="1" height="1" /><rect shape-rendering="crispEdges" fill="rgb(82, 82, 82)"  x="24" y="19" width="1" height="1" /><rect shape-rendering="crispEdges" fill="rgb(57, 57, 57)"  x="24" y="20" width="1" height="1" /><rect shape-rendering="crispEdges" fill="rgb(156, 139, 123)"  x="25" y="10" width="1" height="1" /><rect shape-rendering="crispEdges" fill="rgb(115, 115, 106)"  x="25" y="11" width="1" height="1" /><rect shape-rendering="crispEdges" fill="rgb(41, 32, 32)"  x="25" y="12" width="1" height="1" /><rect shape-rendering="crispEdges" fill="rgb(90, 74, 41)"  x="25" y="13" width="1" height="1" /><rect shape-rendering="crispEdges" fill="rgb(57, 57, 57)"  x="25" y="14" width="1" height="1" /><rect shape-rendering="crispEdges" fill="rgb(74, 49, 41)"  x="25" y="15" width="1" height="1" /><rect shape-rendering="crispEdges" fill="rgb(0, 0, 0)"  x="25" y="16" width="1" height="1" /><rect shape-rendering="crispEdges" fill="rgb(57, 57, 57)"  x="25" y="17" width="1" height="1" /><rect shape-rendering="crispEdges" fill="rgb(57, 57, 57)"  x="25" y="18" width="1" height="1" /><rect shape-rendering="crispEdges" fill="rgb(49, 49, 49)"  x="25" y="19" width="1" height="1" /><rect shape-rendering="crispEdges" fill="rgb(156, 139, 123)"  x="26" y="9" width="1" height="1" /><rect shape-rendering="crispEdges" fill="rgb(115, 115, 106)"  x="26" y="10" width="1" height="1" /><rect shape-rendering="crispEdges" fill="rgb(24, 24, 16)"  x="26" y="11" width="1" height="1" /><rect shape-rendering="crispEdges" fill="rgb(8, 8, 0)"  x="26" y="12" width="1" height="1" /><rect shape-rendering="crispEdges" fill="rgb(230, 189, 123)"  x="26" y="13" width="1" height="1" /><rect shape-rendering="crispEdges" fill="rgb(123, 106, 74)"  x="26" y="14" width="1" height="1" /><rect shape-rendering="crispEdges" fill="rgb(0, 0, 0)"  x="26" y="15" width="1" height="1" /><rect shape-rendering="crispEdges" fill="rgb(98, 41, 41)"  x="26" y="16" width="1" height="1" /><rect shape-rendering="crispEdges" fill="rgb(0, 0, 0)"  x="26" y="17" width="1" height="1" /><rect shape-rendering="crispEdges" fill="rgb(156, 139, 123)"  x="27" y="8" width="1" height="1" /><rect shape-rendering="crispEdges" fill="rgb(139, 139, 139)"  x="27" y="9" width="1" height="1" /><rect shape-rendering="crispEdges" fill="rgb(24, 16, 16)"  x="27" y="10" width="1" height="1" /><rect shape-rendering="crispEdges" fill="rgb(82, 82, 82)"  x="27" y="11" width="1" height="1" /><rect shape-rendering="crispEdges" fill="rgb(57, 32, 24)"  x="27" y="12" width="1" height="1" /><rect shape-rendering="crispEdges" fill="rgb(148, 98, 74)"  x="27" y="13" width="1" height="1" /><rect shape-rendering="crispEdges" fill="rgb(0, 0, 0)"  x="27" y="14" width="1" height="1" /><rect shape-rendering="crispEdges" fill="rgb(16, 16, 16)"  x="27" y="15" width="1" height="1" /><rect shape-rendering="crispEdges" fill="rgb(0, 0, 0)"  x="27" y="16" width="1" height="1" /><rect shape-rendering="crispEdges" fill="rgb(156, 139, 123)"  x="28" y="7" width="1" height="1" /><rect shape-rendering="crispEdges" fill="rgb(222, 222, 213)"  x="28" y="8" width="1" height="1" /><rect shape-rendering="crispEdges" fill="rgb(16, 16, 8)"  x="28" y="9" width="1" height="1" /><rect shape-rendering="crispEdges" fill="rgb(57, 57, 57)"  x="28" y="10" width="1" height="1" /><rect shape-rendering="crispEdges" fill="rgb(24, 24, 16)"  x="28" y="11" width="1" height="1" /><rect shape-rendering="crispEdges" fill="rgb(57, 57, 57)"  x="28" y="12" width="1" height="1" /><rect shape-rendering="crispEdges" fill="rgb(16, 16, 24)"  x="28" y="13" width="1" height="1" /><rect shape-rendering="crispEdges" fill="rgb(32, 32, 32)"  x="28" y="15" width="1" height="1" /><rect shape-rendering="crispEdges" fill="rgb(156, 139, 123)"  x="29" y="6" width="1" height="1" /><rect shape-rendering="crispEdges" fill="rgb(246, 246, 238)"  x="29" y="7" width="1" height="1" /><rect shape-rendering="crispEdges" fill="rgb(74, 74, 74)"  x="29" y="8" width="1" height="1" /><rect shape-rendering="crispEdges" fill="rgb(82, 82, 82)"  x="29" y="10" width="1" height="1" /><rect shape-rendering="crispEdges" fill="rgb(82, 82, 82)"  x="29" y="12" width="1" height="1" /><rect shape-rendering="crispEdges" fill="rgb(106, 98, 82)"  x="30" y="6" width="1" height="1" /><rect shape-rendering="crispEdges" fill="rgb(106, 98, 90)"  x="30" y="7" width="1" height="1" /></svg>