<svg xmlns="http://www.w3.org/2000/svg" xmlns:xlink= "http://www.w3.org/1999/xlink" width="32" height="32" viewBox ="0 0 32 32"><rect shape-rendering="crispEdges" fill="rgb(133, 74, 58)"  x="1" y="4" width="1" height="1" /><rect shape-rendering="crispEdges" fill="rgb(100, 42, 34)"  x="1" y="5" width="1" height="1" /><rect shape-rendering="crispEdges" fill="rgb(83, 26, 23)"  x="1" y="6" width="1" height="1" /><rect shape-rendering="crispEdges" fill="rgb(78, 22, 20)"  x="1" y="7" width="1" height="1" /><rect shape-rendering="crispEdges" fill="rgb(78, 24, 18)"  x="1" y="8" width="1" height="1" /><rect shape-rendering="crispEdges" fill="rgb(95, 35, 32)"  x="1" y="9" width="1" height="1" /><rect shape-rendering="crispEdges" fill="rgb(100, 38, 31)"  x="1" y="10" width="1" height="1" /><rect shape-rendering="crispEdges" fill="rgb(100, 38, 31)"  x="1" y="11" width="1" height="1" /><rect shape-rendering="crispEdges" fill="rgb(105, 42, 35)"  x="1" y="12" width="1" height="1" /><rect shape-rendering="crispEdges" fill="rgb(105, 46, 39)"  x="1" y="13" width="1" height="1" /><rect shape-rendering="crispEdges" fill="rgb(105, 46, 39)"  x="1" y="14" width="1" height="1" /><rect shape-rendering="crispEdges" fill="rgb(134, 75, 62)"  x="1" y="15" width="1" height="1" /><rect shape-rendering="crispEdges" fill="rgb(100, 42, 34)"  x="2" y="8" width="1" height="1" /><rect shape-rendering="crispEdges" fill="rgb(83, 24, 19)"  x="2" y="9" width="1" height="1" /><rect shape-rendering="crispEdges" fill="rgb(95, 33, 26)"  x="2" y="10" width="1" height="1" /><rect shape-rendering="crispEdges" fill="rgb(133, 69, 53)"  x="2" y="11" width="1" height="1" /><rect shape-rendering="crispEdges" fill="rgb(142, 84, 62)"  x="2" y="12" width="1" height="1" /><rect shape-rendering="crispEdges" fill="rgb(129, 74, 61)"  x="2" y="13" width="1" height="1" /><rect shape-rendering="crispEdges" fill="rgb(114, 55, 43)"  x="2" y="14" width="1" height="1" /><rect shape-rendering="crispEdges" fill="rgb(94, 29, 22)"  x="2" y="15" width="1" height="1" /><rect shape-rendering="crispEdges" fill="rgb(89, 29, 22)"  x="2" y="16" width="1" height="1" /><rect shape-rendering="crispEdges" fill="rgb(105, 46, 39)"  x="2" y="17" width="1" height="1" /><rect shape-rendering="crispEdges" fill="rgb(105, 46, 39)"  x="2" y="18" width="1" height="1" /><rect shape-rendering="crispEdges" fill="rgb(110, 47, 39)"  x="3" y="10" width="1" height="1" /><rect shape-rendering="crispEdges" fill="rgb(95, 35, 32)"  x="3" y="11" width="1" height="1" /><rect shape-rendering="crispEdges" fill="rgb(114, 60, 43)"  x="3" y="12" width="1" height="1" /><rect shape-rendering="crispEdges" fill="rgb(143, 94, 72)"  x="3" y="13" width="1" height="1" /><rect shape-rendering="crispEdges" fill="rgb(152, 99, 72)"  x="3" y="14" width="1" height="1" /><rect shape-rendering="crispEdges" fill="rgb(133, 79, 58)"  x="3" y="15" width="1" height="1" /><rect shape-rendering="crispEdges" fill="rgb(114, 51, 43)"  x="3" y="16" width="1" height="1" /><rect shape-rendering="crispEdges" fill="rgb(123, 55, 36)"  x="3" y="17" width="1" height="1" /><rect shape-rendering="crispEdges" fill="rgb(127, 63, 40)"  x="3" y="18" width="1" height="1" /><rect shape-rendering="crispEdges" fill="rgb(100, 38, 31)"  x="3" y="19" width="1" height="1" /><rect shape-rendering="crispEdges" fill="rgb(105, 46, 39)"  x="3" y="20" width="1" height="1" /><rect shape-rendering="crispEdges" fill="rgb(89, 31, 27)"  x="4" y="12" width="1" height="1" /><rect shape-rendering="crispEdges" fill="rgb(118, 55, 43)"  x="4" y="13" width="1" height="1" /><rect shape-rendering="crispEdges" fill="rgb(138, 74, 54)"  x="4" y="14" width="1" height="1" /><rect shape-rendering="crispEdges" fill="rgb(152, 103, 77)"  x="4" y="15" width="1" height="1" /><rect shape-rendering="crispEdges" fill="rgb(158, 116, 97)"  x="4" y="16" width="1" height="1" /><rect shape-rendering="crispEdges" fill="rgb(99, 37, 31)"  x="4" y="17" width="1" height="1" /><rect shape-rendering="crispEdges" fill="rgb(124, 64, 48)"  x="4" y="18" width="1" height="1" /><rect shape-rendering="crispEdges" fill="rgb(157, 104, 77)"  x="4" y="19" width="1" height="1" /><rect shape-rendering="crispEdges" fill="rgb(128, 68, 48)"  x="4" y="20" width="1" height="1" /><rect shape-rendering="crispEdges" fill="rgb(100, 38, 31)"  x="4" y="21" width="1" height="1" /><rect shape-rendering="crispEdges" fill="rgb(105, 46, 39)"  x="4" y="22" width="1" height="1" /><rect shape-rendering="crispEdges" fill="rgb(114, 55, 43)"  x="5" y="11" width="1" height="1" /><rect shape-rendering="crispEdges" fill="rgb(104, 46, 35)"  x="5" y="12" width="1" height="1" /><rect shape-rendering="crispEdges" fill="rgb(129, 74, 61)"  x="5" y="13" width="1" height="1" /><rect shape-rendering="crispEdges" fill="rgb(152, 100, 92)"  x="5" y="14" width="1" height="1" /><rect shape-rendering="crispEdges" fill="rgb(124, 60, 48)"  x="5" y="15" width="1" height="1" /><rect shape-rendering="crispEdges" fill="rgb(128, 64, 48)"  x="5" y="16" width="1" height="1" /><rect shape-rendering="crispEdges" fill="rgb(143, 90, 72)"  x="5" y="17" width="1" height="1" /><rect shape-rendering="crispEdges" fill="rgb(99, 37, 31)"  x="5" y="18" width="1" height="1" /><rect shape-rendering="crispEdges" fill="rgb(104, 45, 38)"  x="5" y="19" width="1" height="1" /><rect shape-rendering="crispEdges" fill="rgb(146, 88, 59)"  x="5" y="20" width="1" height="1" /><rect shape-rendering="crispEdges" fill="rgb(146, 88, 59)"  x="5" y="21" width="1" height="1" /><rect shape-rendering="crispEdges" fill="rgb(124, 60, 43)"  x="5" y="22" width="1" height="1" /><rect shape-rendering="crispEdges" fill="rgb(95, 35, 32)"  x="5" y="23" width="1" height="1" /><rect shape-rendering="crispEdges" fill="rgb(100, 42, 34)"  x="5" y="24" width="1" height="1" /><rect shape-rendering="crispEdges" fill="rgb(78, 24, 18)"  x="6" y="13" width="1" height="1" /><rect shape-rendering="crispEdges" fill="rgb(168, 128, 118)"  x="6" y="14" width="1" height="1" /><rect shape-rendering="crispEdges" fill="rgb(161, 110, 83)"  x="6" y="15" width="1" height="1" /><rect shape-rendering="crispEdges" fill="rgb(127, 60, 40)"  x="6" y="16" width="1" height="1" /><rect shape-rendering="crispEdges" fill="rgb(139, 85, 71)"  x="6" y="17" width="1" height="1" /><rect shape-rendering="crispEdges" fill="rgb(139, 85, 67)"  x="6" y="18" width="1" height="1" /><rect shape-rendering="crispEdges" fill="rgb(77, 18, 21)"  x="6" y="19" width="1" height="1" /><rect shape-rendering="crispEdges" fill="rgb(66, 10, 14)"  x="6" y="20" width="1" height="1" /><rect shape-rendering="crispEdges" fill="rgb(117, 50, 32)"  x="6" y="21" width="1" height="1" /><rect shape-rendering="crispEdges" fill="rgb(151, 84, 55)"  x="6" y="22" width="1" height="1" /><rect shape-rendering="crispEdges" fill="rgb(108, 42, 31)"  x="6" y="23" width="1" height="1" /><rect shape-rendering="crispEdges" fill="rgb(105, 46, 39)"  x="6" y="24" width="1" height="1" /><rect shape-rendering="crispEdges" fill="rgb(95, 35, 32)"  x="6" y="25" width="1" height="1" /><rect shape-rendering="crispEdges" fill="rgb(104, 46, 35)"  x="7" y="12" width="1" height="1" /><rect shape-rendering="crispEdges" fill="rgb(144, 91, 83)"  x="7" y="13" width="1" height="1" /><rect shape-rendering="crispEdges" fill="rgb(171, 132, 113)"  x="7" y="14" width="1" height="1" /><rect shape-rendering="crispEdges" fill="rgb(166, 116, 93)"  x="7" y="15" width="1" height="1" /><rect shape-rendering="crispEdges" fill="rgb(150, 83, 50)"  x="7" y="16" width="1" height="1" /><rect shape-rendering="crispEdges" fill="rgb(117, 45, 27)"  x="7" y="17" width="1" height="1" /><rect shape-rendering="crispEdges" fill="rgb(143, 94, 82)"  x="7" y="18" width="1" height="1" /><rect shape-rendering="crispEdges" fill="rgb(148, 99, 82)"  x="7" y="19" width="1" height="1" /><rect shape-rendering="crispEdges" fill="rgb(77, 18, 21)"  x="7" y="20" width="1" height="1" /><rect shape-rendering="crispEdges" fill="rgb(82, 21, 25)"  x="7" y="21" width="1" height="1" /><rect shape-rendering="crispEdges" fill="rgb(99, 34, 34)"  x="7" y="22" width="1" height="1" /><rect shape-rendering="crispEdges" fill="rgb(99, 34, 31)"  x="7" y="23" width="1" height="1" /><rect shape-rendering="crispEdges" fill="rgb(133, 69, 53)"  x="7" y="24" width="1" height="1" /><rect shape-rendering="crispEdges" fill="rgb(110, 47, 39)"  x="7" y="25" width="1" height="1" /><rect shape-rendering="crispEdges" fill="rgb(95, 35, 32)"  x="7" y="26" width="1" height="1" /><rect shape-rendering="crispEdges" fill="rgb(110, 47, 39)"  x="8" y="11" width="1" height="1" /><rect shape-rendering="crispEdges" fill="rgb(162, 116, 102)"  x="8" y="12" width="1" height="1" /><rect shape-rendering="crispEdges" fill="rgb(171, 132, 113)"  x="8" y="13" width="1" height="1" /><rect shape-rendering="crispEdges" fill="rgb(167, 121, 98)"  x="8" y="14" width="1" height="1" /><rect shape-rendering="crispEdges" fill="rgb(151, 89, 59)"  x="8" y="15" width="1" height="1" /><rect shape-rendering="crispEdges" fill="rgb(157, 99, 73)"  x="8" y="16" width="1" height="1" /><rect shape-rendering="crispEdges" fill="rgb(167, 121, 102)"  x="8" y="17" width="1" height="1" /><rect shape-rendering="crispEdges" fill="rgb(162, 116, 97)"  x="8" y="18" width="1" height="1" /><rect shape-rendering="crispEdges" fill="rgb(152, 99, 72)"  x="8" y="19" width="1" height="1" /><rect shape-rendering="crispEdges" fill="rgb(128, 60, 48)"  x="8" y="20" width="1" height="1" /><rect shape-rendering="crispEdges" fill="rgb(109, 39, 39)"  x="8" y="21" width="1" height="1" /><rect shape-rendering="crispEdges" fill="rgb(138, 70, 58)"  x="8" y="22" width="1" height="1" /><rect shape-rendering="crispEdges" fill="rgb(142, 80, 62)"  x="8" y="23" width="1" height="1" /><rect shape-rendering="crispEdges" fill="rgb(118, 46, 39)"  x="8" y="24" width="1" height="1" /><rect shape-rendering="crispEdges" fill="rgb(138, 74, 58)"  x="8" y="25" width="1" height="1" /><rect shape-rendering="crispEdges" fill="rgb(118, 55, 43)"  x="8" y="26" width="1" height="1" /><rect shape-rendering="crispEdges" fill="rgb(89, 31, 27)"  x="8" y="27" width="1" height="1" /><rect shape-rendering="crispEdges" fill="rgb(110, 47, 39)"  x="9" y="10" width="1" height="1" /><rect shape-rendering="crispEdges" fill="rgb(180, 146, 140)"  x="9" y="11" width="1" height="1" /><rect shape-rendering="crispEdges" fill="rgb(177, 140, 135)"  x="9" y="12" width="1" height="1" /><rect shape-rendering="crispEdges" fill="rgb(171, 132, 113)"  x="9" y="13" width="1" height="1" /><rect shape-rendering="crispEdges" fill="rgb(170, 121, 93)"  x="9" y="14" width="1" height="1" /><rect shape-rendering="crispEdges" fill="rgb(156, 89, 63)"  x="9" y="15" width="1" height="1" /><rect shape-rendering="crispEdges" fill="rgb(156, 94, 68)"  x="9" y="16" width="1" height="1" /><rect shape-rendering="crispEdges" fill="rgb(167, 121, 102)"  x="9" y="17" width="1" height="1" /><rect shape-rendering="crispEdges" fill="rgb(172, 134, 119)"  x="9" y="18" width="1" height="1" /><rect shape-rendering="crispEdges" fill="rgb(161, 103, 73)"  x="9" y="19" width="1" height="1" /><rect shape-rendering="crispEdges" fill="rgb(132, 64, 44)"  x="9" y="20" width="1" height="1" /><rect shape-rendering="crispEdges" fill="rgb(138, 70, 58)"  x="9" y="21" width="1" height="1" /><rect shape-rendering="crispEdges" fill="rgb(166, 110, 84)"  x="9" y="22" width="1" height="1" /><rect shape-rendering="crispEdges" fill="rgb(161, 100, 78)"  x="9" y="23" width="1" height="1" /><rect shape-rendering="crispEdges" fill="rgb(165, 104, 78)"  x="9" y="24" width="1" height="1" /><rect shape-rendering="crispEdges" fill="rgb(118, 46, 39)"  x="9" y="25" width="1" height="1" /><rect shape-rendering="crispEdges" fill="rgb(152, 94, 72)"  x="9" y="26" width="1" height="1" /><rect shape-rendering="crispEdges" fill="rgb(115, 52, 44)"  x="9" y="27" width="1" height="1" /><rect shape-rendering="crispEdges" fill="rgb(95, 35, 32)"  x="9" y="28" width="1" height="1" /><rect shape-rendering="crispEdges" fill="rgb(95, 40, 36)"  x="10" y="11" width="1" height="1" /><rect shape-rendering="crispEdges" fill="rgb(95, 40, 36)"  x="10" y="12" width="1" height="1" /><rect shape-rendering="crispEdges" fill="rgb(159, 106, 98)"  x="10" y="13" width="1" height="1" /><rect shape-rendering="crispEdges" fill="rgb(177, 140, 125)"  x="10" y="14" width="1" height="1" /><rect shape-rendering="crispEdges" fill="rgb(171, 127, 103)"  x="10" y="15" width="1" height="1" /><rect shape-rendering="crispEdges" fill="rgb(165, 99, 69)"  x="10" y="16" width="1" height="1" /><rect shape-rendering="crispEdges" fill="rgb(127, 50, 28)"  x="10" y="17" width="1" height="1" /><rect shape-rendering="crispEdges" fill="rgb(124, 60, 48)"  x="10" y="18" width="1" height="1" /><rect shape-rendering="crispEdges" fill="rgb(162, 116, 93)"  x="10" y="19" width="1" height="1" /><rect shape-rendering="crispEdges" fill="rgb(142, 80, 67)"  x="10" y="20" width="1" height="1" /><rect shape-rendering="crispEdges" fill="rgb(118, 47, 43)"  x="10" y="21" width="1" height="1" /><rect shape-rendering="crispEdges" fill="rgb(118, 47, 43)"  x="10" y="22" width="1" height="1" /><rect shape-rendering="crispEdges" fill="rgb(169, 115, 84)"  x="10" y="23" width="1" height="1" /><rect shape-rendering="crispEdges" fill="rgb(166, 105, 84)"  x="10" y="24" width="1" height="1" /><rect shape-rendering="crispEdges" fill="rgb(133, 65, 53)"  x="10" y="25" width="1" height="1" /><rect shape-rendering="crispEdges" fill="rgb(166, 116, 88)"  x="10" y="26" width="1" height="1" /><rect shape-rendering="crispEdges" fill="rgb(128, 64, 53)"  x="10" y="27" width="1" height="1" /><rect shape-rendering="crispEdges" fill="rgb(89, 33, 33)"  x="10" y="28" width="1" height="1" /><rect shape-rendering="crispEdges" fill="rgb(95, 40, 36)"  x="11" y="13" width="1" height="1" /><rect shape-rendering="crispEdges" fill="rgb(173, 129, 120)"  x="11" y="14" width="1" height="1" /><rect shape-rendering="crispEdges" fill="rgb(176, 139, 119)"  x="11" y="15" width="1" height="1" /><rect shape-rendering="crispEdges" fill="rgb(170, 121, 89)"  x="11" y="16" width="1" height="1" /><rect shape-rendering="crispEdges" fill="rgb(142, 69, 45)"  x="11" y="17" width="1" height="1" /><rect shape-rendering="crispEdges" fill="rgb(162, 116, 102)"  x="11" y="18" width="1" height="1" /><rect shape-rendering="crispEdges" fill="rgb(176, 139, 119)"  x="11" y="19" width="1" height="1" /><rect shape-rendering="crispEdges" fill="rgb(147, 85, 72)"  x="11" y="20" width="1" height="1" /><rect shape-rendering="crispEdges" fill="rgb(114, 43, 48)"  x="11" y="21" width="1" height="1" /><rect shape-rendering="crispEdges" fill="rgb(118, 46, 39)"  x="11" y="22" width="1" height="1" /><rect shape-rendering="crispEdges" fill="rgb(157, 90, 77)"  x="11" y="23" width="1" height="1" /><rect shape-rendering="crispEdges" fill="rgb(118, 46, 39)"  x="11" y="24" width="1" height="1" /><rect shape-rendering="crispEdges" fill="rgb(170, 116, 89)"  x="11" y="25" width="1" height="1" /><rect shape-rendering="crispEdges" fill="rgb(157, 95, 73)"  x="11" y="26" width="1" height="1" /><rect shape-rendering="crispEdges" fill="rgb(99, 34, 31)"  x="11" y="27" width="1" height="1" /><rect shape-rendering="crispEdges" fill="rgb(74, 21, 25)"  x="11" y="28" width="1" height="1" /><rect shape-rendering="crispEdges" fill="rgb(95, 40, 36)"  x="12" y="14" width="1" height="1" /><rect shape-rendering="crispEdges" fill="rgb(177, 140, 135)"  x="12" y="15" width="1" height="1" /><rect shape-rendering="crispEdges" fill="rgb(165, 109, 78)"  x="12" y="16" width="1" height="1" /><rect shape-rendering="crispEdges" fill="rgb(152, 90, 77)"  x="12" y="17" width="1" height="1" /><rect shape-rendering="crispEdges" fill="rgb(167, 127, 108)"  x="12" y="18" width="1" height="1" /><rect shape-rendering="crispEdges" fill="rgb(138, 74, 58)"  x="12" y="19" width="1" height="1" /><rect shape-rendering="crispEdges" fill="rgb(125, 53, 61)"  x="12" y="20" width="1" height="1" /><rect shape-rendering="crispEdges" fill="rgb(104, 38, 38)"  x="12" y="21" width="1" height="1" /><rect shape-rendering="crispEdges" fill="rgb(129, 61, 58)"  x="12" y="22" width="1" height="1" /><rect shape-rendering="crispEdges" fill="rgb(118, 46, 39)"  x="12" y="23" width="1" height="1" /><rect shape-rendering="crispEdges" fill="rgb(157, 91, 73)"  x="12" y="24" width="1" height="1" /><rect shape-rendering="crispEdges" fill="rgb(166, 101, 84)"  x="12" y="25" width="1" height="1" /><rect shape-rendering="crispEdges" fill="rgb(113, 38, 32)"  x="12" y="26" width="1" height="1" /><rect shape-rendering="crispEdges" fill="rgb(71, 18, 21)"  x="12" y="27" width="1" height="1" /><rect shape-rendering="crispEdges" fill="rgb(89, 33, 33)"  x="12" y="28" width="1" height="1" /><rect shape-rendering="crispEdges" fill="rgb(95, 40, 36)"  x="13" y="14" width="1" height="1" /><rect shape-rendering="crispEdges" fill="rgb(177, 140, 129)"  x="13" y="15" width="1" height="1" /><rect shape-rendering="crispEdges" fill="rgb(138, 70, 58)"  x="13" y="16" width="1" height="1" /><rect shape-rendering="crispEdges" fill="rgb(133, 60, 49)"  x="13" y="17" width="1" height="1" /><rect shape-rendering="crispEdges" fill="rgb(147, 80, 63)"  x="13" y="18" width="1" height="1" /><rect shape-rendering="crispEdges" fill="rgb(147, 75, 67)"  x="13" y="19" width="1" height="1" /><rect shape-rendering="crispEdges" fill="rgb(77, 18, 21)"  x="13" y="20" width="1" height="1" /><rect shape-rendering="crispEdges" fill="rgb(93, 25, 22)"  x="13" y="21" width="1" height="1" /><rect shape-rendering="crispEdges" fill="rgb(124, 47, 40)"  x="13" y="22" width="1" height="1" /><rect shape-rendering="crispEdges" fill="rgb(113, 42, 32)"  x="13" y="23" width="1" height="1" /><rect shape-rendering="crispEdges" fill="rgb(157, 91, 73)"  x="13" y="24" width="1" height="1" /><rect shape-rendering="crispEdges" fill="rgb(138, 70, 62)"  x="13" y="25" width="1" height="1" /><rect shape-rendering="crispEdges" fill="rgb(71, 18, 21)"  x="13" y="26" width="1" height="1" /><rect shape-rendering="crispEdges" fill="rgb(118, 51, 43)"  x="13" y="27" width="1" height="1" /><rect shape-rendering="crispEdges" fill="rgb(89, 33, 33)"  x="13" y="28" width="1" height="1" /><rect shape-rendering="crispEdges" fill="rgb(110, 47, 39)"  x="14" y="13" width="1" height="1" /><rect shape-rendering="crispEdges" fill="rgb(170, 124, 118)"  x="14" y="14" width="1" height="1" /><rect shape-rendering="crispEdges" fill="rgb(148, 91, 87)"  x="14" y="15" width="1" height="1" /><rect shape-rendering="crispEdges" fill="rgb(147, 85, 72)"  x="14" y="16" width="1" height="1" /><rect shape-rendering="crispEdges" fill="rgb(171, 123, 103)"  x="14" y="17" width="1" height="1" /><rect shape-rendering="crispEdges" fill="rgb(177, 140, 125)"  x="14" y="18" width="1" height="1" /><rect shape-rendering="crispEdges" fill="rgb(77, 18, 21)"  x="14" y="19" width="1" height="1" /><rect shape-rendering="crispEdges" fill="rgb(67, 18, 21)"  x="14" y="20" width="1" height="1" /><rect shape-rendering="crispEdges" fill="rgb(104, 35, 35)"  x="14" y="21" width="1" height="1" /><rect shape-rendering="crispEdges" fill="rgb(161, 90, 64)"  x="14" y="22" width="1" height="1" /><rect shape-rendering="crispEdges" fill="rgb(165, 95, 69)"  x="14" y="23" width="1" height="1" /><rect shape-rendering="crispEdges" fill="rgb(98, 30, 26)"  x="14" y="24" width="1" height="1" /><rect shape-rendering="crispEdges" fill="rgb(71, 18, 21)"  x="14" y="25" width="1" height="1" /><rect shape-rendering="crispEdges" fill="rgb(157, 91, 73)"  x="14" y="26" width="1" height="1" /><rect shape-rendering="crispEdges" fill="rgb(108, 42, 35)"  x="14" y="27" width="1" height="1" /><rect shape-rendering="crispEdges" fill="rgb(89, 33, 33)"  x="14" y="28" width="1" height="1" /><rect shape-rendering="crispEdges" fill="rgb(100, 42, 34)"  x="15" y="12" width="1" height="1" /><rect shape-rendering="crispEdges" fill="rgb(105, 44, 41)"  x="15" y="13" width="1" height="1" /><rect shape-rendering="crispEdges" fill="rgb(142, 75, 62)"  x="15" y="14" width="1" height="1" /><rect shape-rendering="crispEdges" fill="rgb(166, 110, 84)"  x="15" y="15" width="1" height="1" /><rect shape-rendering="crispEdges" fill="rgb(176, 139, 113)"  x="15" y="16" width="1" height="1" /><rect shape-rendering="crispEdges" fill="rgb(177, 140, 129)"  x="15" y="17" width="1" height="1" /><rect shape-rendering="crispEdges" fill="rgb(171, 123, 108)"  x="15" y="18" width="1" height="1" /><rect shape-rendering="crispEdges" fill="rgb(77, 18, 21)"  x="15" y="19" width="1" height="1" /><rect shape-rendering="crispEdges" fill="rgb(113, 42, 39)"  x="15" y="20" width="1" height="1" /><rect shape-rendering="crispEdges" fill="rgb(146, 79, 54)"  x="15" y="21" width="1" height="1" /><rect shape-rendering="crispEdges" fill="rgb(146, 74, 59)"  x="15" y="22" width="1" height="1" /><rect shape-rendering="crispEdges" fill="rgb(175, 127, 98)"  x="15" y="23" width="1" height="1" /><rect shape-rendering="crispEdges" fill="rgb(103, 37, 31)"  x="15" y="24" width="1" height="1" /><rect shape-rendering="crispEdges" fill="rgb(157, 104, 83)"  x="15" y="25" width="1" height="1" /><rect shape-rendering="crispEdges" fill="rgb(133, 65, 53)"  x="15" y="26" width="1" height="1" /><rect shape-rendering="crispEdges" fill="rgb(109, 42, 35)"  x="15" y="27" width="1" height="1" /><rect shape-rendering="crispEdges" fill="rgb(89, 33, 33)"  x="15" y="28" width="1" height="1" /><rect shape-rendering="crispEdges" fill="rgb(98, 32, 22)"  x="16" y="14" width="1" height="1" /><rect shape-rendering="crispEdges" fill="rgb(169, 110, 78)"  x="16" y="15" width="1" height="1" /><rect shape-rendering="crispEdges" fill="rgb(175, 120, 89)"  x="16" y="16" width="1" height="1" /><rect shape-rendering="crispEdges" fill="rgb(177, 140, 125)"  x="16" y="17" width="1" height="1" /><rect shape-rendering="crispEdges" fill="rgb(124, 55, 43)"  x="16" y="18" width="1" height="1" /><rect shape-rendering="crispEdges" fill="rgb(88, 22, 26)"  x="16" y="19" width="1" height="1" /><rect shape-rendering="crispEdges" fill="rgb(151, 89, 63)"  x="16" y="20" width="1" height="1" /><rect shape-rendering="crispEdges" fill="rgb(175, 120, 84)"  x="16" y="21" width="1" height="1" /><rect shape-rendering="crispEdges" fill="rgb(157, 91, 73)"  x="16" y="22" width="1" height="1" /><rect shape-rendering="crispEdges" fill="rgb(165, 104, 73)"  x="16" y="23" width="1" height="1" /><rect shape-rendering="crispEdges" fill="rgb(142, 80, 67)"  x="16" y="24" width="1" height="1" /><rect shape-rendering="crispEdges" fill="rgb(168, 123, 113)"  x="16" y="25" width="1" height="1" /><rect shape-rendering="crispEdges" fill="rgb(108, 42, 35)"  x="16" y="26" width="1" height="1" /><rect shape-rendering="crispEdges" fill="rgb(89, 33, 33)"  x="16" y="27" width="1" height="1" /><rect shape-rendering="crispEdges" fill="rgb(105, 42, 35)"  x="17" y="13" width="1" height="1" /><rect shape-rendering="crispEdges" fill="rgb(161, 110, 78)"  x="17" y="14" width="1" height="1" /><rect shape-rendering="crispEdges" fill="rgb(176, 138, 109)"  x="17" y="15" width="1" height="1" /><rect shape-rendering="crispEdges" fill="rgb(176, 139, 119)"  x="17" y="16" width="1" height="1" /><rect shape-rendering="crispEdges" fill="rgb(177, 140, 125)"  x="17" y="17" width="1" height="1" /><rect shape-rendering="crispEdges" fill="rgb(88, 22, 26)"  x="17" y="18" width="1" height="1" /><rect shape-rendering="crispEdges" fill="rgb(99, 31, 31)"  x="17" y="19" width="1" height="1" /><rect shape-rendering="crispEdges" fill="rgb(177, 140, 125)"  x="17" y="20" width="1" height="1" /><rect shape-rendering="crispEdges" fill="rgb(170, 126, 98)"  x="17" y="21" width="1" height="1" /><rect shape-rendering="crispEdges" fill="rgb(161, 99, 73)"  x="17" y="22" width="1" height="1" /><rect shape-rendering="crispEdges" fill="rgb(156, 89, 63)"  x="17" y="23" width="1" height="1" /><rect shape-rendering="crispEdges" fill="rgb(152, 90, 77)"  x="17" y="24" width="1" height="1" /><rect shape-rendering="crispEdges" fill="rgb(120, 70, 70)"  x="17" y="25" width="1" height="1" /><rect shape-rendering="crispEdges" fill="rgb(73, 21, 21)"  x="17" y="26" width="1" height="1" /><rect shape-rendering="crispEdges" fill="rgb(106, 47, 47)"  x="17" y="27" width="1" height="1" /><rect shape-rendering="crispEdges" fill="rgb(95, 40, 36)"  x="17" y="28" width="1" height="1" /><rect shape-rendering="crispEdges" fill="rgb(119, 60, 48)"  x="18" y="12" width="1" height="1" /><rect shape-rendering="crispEdges" fill="rgb(147, 89, 63)"  x="18" y="13" width="1" height="1" /><rect shape-rendering="crispEdges" fill="rgb(177, 140, 129)"  x="18" y="14" width="1" height="1" /><rect shape-rendering="crispEdges" fill="rgb(177, 134, 129)"  x="18" y="15" width="1" height="1" /><rect shape-rendering="crispEdges" fill="rgb(169, 115, 78)"  x="18" y="16" width="1" height="1" /><rect shape-rendering="crispEdges" fill="rgb(124, 55, 43)"  x="18" y="17" width="1" height="1" /><rect shape-rendering="crispEdges" fill="rgb(88, 22, 22)"  x="18" y="18" width="1" height="1" /><rect shape-rendering="crispEdges" fill="rgb(152, 90, 68)"  x="18" y="19" width="1" height="1" /><rect shape-rendering="crispEdges" fill="rgb(176, 139, 119)"  x="18" y="20" width="1" height="1" /><rect shape-rendering="crispEdges" fill="rgb(166, 110, 84)"  x="18" y="21" width="1" height="1" /><rect shape-rendering="crispEdges" fill="rgb(161, 104, 78)"  x="18" y="22" width="1" height="1" /><rect shape-rendering="crispEdges" fill="rgb(161, 110, 83)"  x="18" y="23" width="1" height="1" /><rect shape-rendering="crispEdges" fill="rgb(152, 85, 72)"  x="18" y="24" width="1" height="1" /><rect shape-rendering="crispEdges" fill="rgb(94, 33, 30)"  x="18" y="25" width="1" height="1" /><rect shape-rendering="crispEdges" fill="rgb(125, 60, 57)"  x="18" y="26" width="1" height="1" /><rect shape-rendering="crispEdges" fill="rgb(148, 94, 94)"  x="18" y="27" width="1" height="1" /><rect shape-rendering="crispEdges" fill="rgb(95, 40, 36)"  x="18" y="28" width="1" height="1" /><rect shape-rendering="crispEdges" fill="rgb(104, 38, 31)"  x="19" y="12" width="1" height="1" /><rect shape-rendering="crispEdges" fill="rgb(177, 140, 125)"  x="19" y="13" width="1" height="1" /><rect shape-rendering="crispEdges" fill="rgb(177, 140, 135)"  x="19" y="14" width="1" height="1" /><rect shape-rendering="crispEdges" fill="rgb(170, 116, 93)"  x="19" y="15" width="1" height="1" /><rect shape-rendering="crispEdges" fill="rgb(175, 127, 98)"  x="19" y="16" width="1" height="1" /><rect shape-rendering="crispEdges" fill="rgb(99, 31, 31)"  x="19" y="17" width="1" height="1" /><rect shape-rendering="crispEdges" fill="rgb(114, 47, 47)"  x="19" y="18" width="1" height="1" /><rect shape-rendering="crispEdges" fill="rgb(169, 115, 78)"  x="19" y="19" width="1" height="1" /><rect shape-rendering="crispEdges" fill="rgb(166, 116, 84)"  x="19" y="20" width="1" height="1" /><rect shape-rendering="crispEdges" fill="rgb(156, 89, 63)"  x="19" y="21" width="1" height="1" /><rect shape-rendering="crispEdges" fill="rgb(175, 131, 98)"  x="19" y="22" width="1" height="1" /><rect shape-rendering="crispEdges" fill="rgb(157, 99, 77)"  x="19" y="23" width="1" height="1" /><rect shape-rendering="crispEdges" fill="rgb(138, 65, 54)"  x="19" y="24" width="1" height="1" /><rect shape-rendering="crispEdges" fill="rgb(108, 37, 31)"  x="19" y="25" width="1" height="1" /><rect shape-rendering="crispEdges" fill="rgb(129, 70, 66)"  x="19" y="26" width="1" height="1" /><rect shape-rendering="crispEdges" fill="rgb(95, 40, 36)"  x="19" y="27" width="1" height="1" /><rect shape-rendering="crispEdges" fill="rgb(108, 42, 31)"  x="20" y="11" width="1" height="1" /><rect shape-rendering="crispEdges" fill="rgb(170, 121, 98)"  x="20" y="12" width="1" height="1" /><rect shape-rendering="crispEdges" fill="rgb(176, 139, 119)"  x="20" y="13" width="1" height="1" /><rect shape-rendering="crispEdges" fill="rgb(166, 105, 84)"  x="20" y="14" width="1" height="1" /><rect shape-rendering="crispEdges" fill="rgb(176, 134, 119)"  x="20" y="15" width="1" height="1" /><rect shape-rendering="crispEdges" fill="rgb(152, 96, 92)"  x="20" y="16" width="1" height="1" /><rect shape-rendering="crispEdges" fill="rgb(99, 31, 31)"  x="20" y="17" width="1" height="1" /><rect shape-rendering="crispEdges" fill="rgb(128, 56, 48)"  x="20" y="18" width="1" height="1" /><rect shape-rendering="crispEdges" fill="rgb(142, 69, 49)"  x="20" y="19" width="1" height="1" /><rect shape-rendering="crispEdges" fill="rgb(152, 90, 68)"  x="20" y="20" width="1" height="1" /><rect shape-rendering="crispEdges" fill="rgb(165, 104, 73)"  x="20" y="21" width="1" height="1" /><rect shape-rendering="crispEdges" fill="rgb(175, 126, 89)"  x="20" y="22" width="1" height="1" /><rect shape-rendering="crispEdges" fill="rgb(133, 65, 58)"  x="20" y="23" width="1" height="1" /><rect shape-rendering="crispEdges" fill="rgb(147, 75, 63)"  x="20" y="24" width="1" height="1" /><rect shape-rendering="crispEdges" fill="rgb(104, 38, 35)"  x="20" y="25" width="1" height="1" /><rect shape-rendering="crispEdges" fill="rgb(131, 74, 69)"  x="20" y="26" width="1" height="1" /><rect shape-rendering="crispEdges" fill="rgb(95, 40, 36)"  x="20" y="27" width="1" height="1" /><rect shape-rendering="crispEdges" fill="rgb(113, 50, 39)"  x="21" y="10" width="1" height="1" /><rect shape-rendering="crispEdges" fill="rgb(133, 65, 49)"  x="21" y="11" width="1" height="1" /><rect shape-rendering="crispEdges" fill="rgb(113, 50, 39)"  x="21" y="12" width="1" height="1" /><rect shape-rendering="crispEdges" fill="rgb(127, 55, 36)"  x="21" y="13" width="1" height="1" /><rect shape-rendering="crispEdges" fill="rgb(176, 128, 109)"  x="21" y="14" width="1" height="1" /><rect shape-rendering="crispEdges" fill="rgb(173, 140, 129)"  x="21" y="15" width="1" height="1" /><rect shape-rendering="crispEdges" fill="rgb(119, 52, 52)"  x="21" y="16" width="1" height="1" /><rect shape-rendering="crispEdges" fill="rgb(98, 30, 26)"  x="21" y="17" width="1" height="1" /><rect shape-rendering="crispEdges" fill="rgb(156, 85, 60)"  x="21" y="18" width="1" height="1" /><rect shape-rendering="crispEdges" fill="rgb(156, 94, 68)"  x="21" y="19" width="1" height="1" /><rect shape-rendering="crispEdges" fill="rgb(165, 99, 73)"  x="21" y="20" width="1" height="1" /><rect shape-rendering="crispEdges" fill="rgb(175, 126, 89)"  x="21" y="21" width="1" height="1" /><rect shape-rendering="crispEdges" fill="rgb(165, 95, 73)"  x="21" y="22" width="1" height="1" /><rect shape-rendering="crispEdges" fill="rgb(99, 34, 38)"  x="21" y="23" width="1" height="1" /><rect shape-rendering="crispEdges" fill="rgb(138, 70, 62)"  x="21" y="24" width="1" height="1" /><rect shape-rendering="crispEdges" fill="rgb(118, 50, 39)"  x="21" y="25" width="1" height="1" /><rect shape-rendering="crispEdges" fill="rgb(96, 43, 43)"  x="21" y="26" width="1" height="1" /><rect shape-rendering="crispEdges" fill="rgb(108, 42, 31)"  x="22" y="9" width="1" height="1" /><rect shape-rendering="crispEdges" fill="rgb(108, 42, 31)"  x="22" y="10" width="1" height="1" /><rect shape-rendering="crispEdges" fill="rgb(108, 42, 31)"  x="22" y="11" width="1" height="1" /><rect shape-rendering="crispEdges" fill="rgb(152, 95, 77)"  x="22" y="12" width="1" height="1" /><rect shape-rendering="crispEdges" fill="rgb(151, 89, 63)"  x="22" y="13" width="1" height="1" /><rect shape-rendering="crispEdges" fill="rgb(167, 121, 108)"  x="22" y="14" width="1" height="1" /><rect shape-rendering="crispEdges" fill="rgb(134, 71, 76)"  x="22" y="15" width="1" height="1" /><rect shape-rendering="crispEdges" fill="rgb(128, 56, 48)"  x="22" y="16" width="1" height="1" /><rect shape-rendering="crispEdges" fill="rgb(124, 43, 40)"  x="22" y="17" width="1" height="1" /><rect shape-rendering="crispEdges" fill="rgb(142, 74, 54)"  x="22" y="18" width="1" height="1" /><rect shape-rendering="crispEdges" fill="rgb(169, 119, 74)"  x="22" y="19" width="1" height="1" /><rect shape-rendering="crispEdges" fill="rgb(168, 99, 64)"  x="22" y="20" width="1" height="1" /><rect shape-rendering="crispEdges" fill="rgb(165, 99, 73)"  x="22" y="21" width="1" height="1" /><rect shape-rendering="crispEdges" fill="rgb(119, 57, 57)"  x="22" y="22" width="1" height="1" /><rect shape-rendering="crispEdges" fill="rgb(104, 42, 47)"  x="22" y="23" width="1" height="1" /><rect shape-rendering="crispEdges" fill="rgb(133, 60, 49)"  x="22" y="24" width="1" height="1" /><rect shape-rendering="crispEdges" fill="rgb(125, 52, 44)"  x="22" y="25" width="1" height="1" /><rect shape-rendering="crispEdges" fill="rgb(96, 43, 43)"  x="22" y="26" width="1" height="1" /><rect shape-rendering="crispEdges" fill="rgb(113, 42, 32)"  x="23" y="12" width="1" height="1" /><rect shape-rendering="crispEdges" fill="rgb(124, 51, 40)"  x="23" y="13" width="1" height="1" /><rect shape-rendering="crispEdges" fill="rgb(127, 51, 40)"  x="23" y="14" width="1" height="1" /><rect shape-rendering="crispEdges" fill="rgb(128, 56, 48)"  x="23" y="15" width="1" height="1" /><rect shape-rendering="crispEdges" fill="rgb(147, 85, 72)"  x="23" y="16" width="1" height="1" /><rect shape-rendering="crispEdges" fill="rgb(156, 85, 63)"  x="23" y="17" width="1" height="1" /><rect shape-rendering="crispEdges" fill="rgb(118, 42, 36)"  x="23" y="18" width="1" height="1" /><rect shape-rendering="crispEdges" fill="rgb(156, 89, 60)"  x="23" y="19" width="1" height="1" /><rect shape-rendering="crispEdges" fill="rgb(169, 110, 74)"  x="23" y="20" width="1" height="1" /><rect shape-rendering="crispEdges" fill="rgb(114, 47, 47)"  x="23" y="21" width="1" height="1" /><rect shape-rendering="crispEdges" fill="rgb(119, 57, 57)"  x="23" y="22" width="1" height="1" /><rect shape-rendering="crispEdges" fill="rgb(125, 60, 57)"  x="23" y="23" width="1" height="1" /><rect shape-rendering="crispEdges" fill="rgb(133, 60, 53)"  x="23" y="24" width="1" height="1" /><rect shape-rendering="crispEdges" fill="rgb(105, 42, 35)"  x="23" y="25" width="1" height="1" /><rect shape-rendering="crispEdges" fill="rgb(105, 46, 39)"  x="24" y="12" width="1" height="1" /><rect shape-rendering="crispEdges" fill="rgb(146, 80, 59)"  x="24" y="13" width="1" height="1" /><rect shape-rendering="crispEdges" fill="rgb(161, 96, 78)"  x="24" y="14" width="1" height="1" /><rect shape-rendering="crispEdges" fill="rgb(152, 91, 83)"  x="24" y="15" width="1" height="1" /><rect shape-rendering="crispEdges" fill="rgb(156, 90, 68)"  x="24" y="16" width="1" height="1" /><rect shape-rendering="crispEdges" fill="rgb(151, 84, 59)"  x="24" y="17" width="1" height="1" /><rect shape-rendering="crispEdges" fill="rgb(146, 74, 54)"  x="24" y="18" width="1" height="1" /><rect shape-rendering="crispEdges" fill="rgb(113, 38, 35)"  x="24" y="19" width="1" height="1" /><rect shape-rendering="crispEdges" fill="rgb(119, 56, 52)"  x="24" y="20" width="1" height="1" /><rect shape-rendering="crispEdges" fill="rgb(125, 61, 61)"  x="24" y="21" width="1" height="1" /><rect shape-rendering="crispEdges" fill="rgb(133, 65, 58)"  x="24" y="22" width="1" height="1" /><rect shape-rendering="crispEdges" fill="rgb(124, 56, 48)"  x="24" y="23" width="1" height="1" /><rect shape-rendering="crispEdges" fill="rgb(139, 66, 59)"  x="24" y="24" width="1" height="1" /><rect shape-rendering="crispEdges" fill="rgb(100, 42, 34)"  x="24" y="25" width="1" height="1" /><rect shape-rendering="crispEdges" fill="rgb(105, 46, 39)"  x="25" y="11" width="1" height="1" /><rect shape-rendering="crispEdges" fill="rgb(157, 109, 77)"  x="25" y="12" width="1" height="1" /><rect shape-rendering="crispEdges" fill="rgb(166, 110, 88)"  x="25" y="13" width="1" height="1" /><rect shape-rendering="crispEdges" fill="rgb(161, 100, 88)"  x="25" y="14" width="1" height="1" /><rect shape-rendering="crispEdges" fill="rgb(169, 110, 78)"  x="25" y="15" width="1" height="1" /><rect shape-rendering="crispEdges" fill="rgb(175, 120, 84)"  x="25" y="16" width="1" height="1" /><rect shape-rendering="crispEdges" fill="rgb(175, 127, 94)"  x="25" y="17" width="1" height="1" /><rect shape-rendering="crispEdges" fill="rgb(157, 99, 77)"  x="25" y="18" width="1" height="1" /><rect shape-rendering="crispEdges" fill="rgb(128, 56, 44)"  x="25" y="19" width="1" height="1" /><rect shape-rendering="crispEdges" fill="rgb(118, 47, 43)"  x="25" y="20" width="1" height="1" /><rect shape-rendering="crispEdges" fill="rgb(142, 75, 62)"  x="25" y="21" width="1" height="1" /><rect shape-rendering="crispEdges" fill="rgb(138, 65, 54)"  x="25" y="22" width="1" height="1" /><rect shape-rendering="crispEdges" fill="rgb(119, 52, 48)"  x="25" y="23" width="1" height="1" /><rect shape-rendering="crispEdges" fill="rgb(100, 42, 34)"  x="25" y="24" width="1" height="1" /><rect shape-rendering="crispEdges" fill="rgb(114, 60, 47)"  x="26" y="10" width="1" height="1" /><rect shape-rendering="crispEdges" fill="rgb(158, 110, 88)"  x="26" y="11" width="1" height="1" /><rect shape-rendering="crispEdges" fill="rgb(166, 105, 84)"  x="26" y="12" width="1" height="1" /><rect shape-rendering="crispEdges" fill="rgb(166, 105, 84)"  x="26" y="13" width="1" height="1" /><rect shape-rendering="crispEdges" fill="rgb(175, 127, 103)"  x="26" y="14" width="1" height="1" /><rect shape-rendering="crispEdges" fill="rgb(151, 85, 63)"  x="26" y="15" width="1" height="1" /><rect shape-rendering="crispEdges" fill="rgb(124, 60, 43)"  x="26" y="16" width="1" height="1" /><rect shape-rendering="crispEdges" fill="rgb(138, 80, 62)"  x="26" y="17" width="1" height="1" /><rect shape-rendering="crispEdges" fill="rgb(152, 85, 68)"  x="26" y="18" width="1" height="1" /><rect shape-rendering="crispEdges" fill="rgb(151, 80, 63)"  x="26" y="19" width="1" height="1" /><rect shape-rendering="crispEdges" fill="rgb(113, 42, 39)"  x="26" y="20" width="1" height="1" /><rect shape-rendering="crispEdges" fill="rgb(133, 60, 49)"  x="26" y="21" width="1" height="1" /><rect shape-rendering="crispEdges" fill="rgb(133, 60, 49)"  x="26" y="22" width="1" height="1" /><rect shape-rendering="crispEdges" fill="rgb(121, 55, 51)"  x="26" y="23" width="1" height="1" /><rect shape-rendering="crispEdges" fill="rgb(100, 42, 34)"  x="26" y="24" width="1" height="1" /><rect shape-rendering="crispEdges" fill="rgb(114, 60, 47)"  x="27" y="9" width="1" height="1" /><rect shape-rendering="crispEdges" fill="rgb(134, 84, 71)"  x="27" y="10" width="1" height="1" /><rect shape-rendering="crispEdges" fill="rgb(166, 111, 93)"  x="27" y="11" width="1" height="1" /><rect shape-rendering="crispEdges" fill="rgb(170, 117, 98)"  x="27" y="12" width="1" height="1" /><rect shape-rendering="crispEdges" fill="rgb(161, 104, 83)"  x="27" y="13" width="1" height="1" /><rect shape-rendering="crispEdges" fill="rgb(113, 50, 39)"  x="27" y="14" width="1" height="1" /><rect shape-rendering="crispEdges" fill="rgb(113, 50, 39)"  x="27" y="15" width="1" height="1" /><rect shape-rendering="crispEdges" fill="rgb(104, 50, 38)"  x="27" y="17" width="1" height="1" /><rect shape-rendering="crispEdges" fill="rgb(128, 56, 44)"  x="27" y="18" width="1" height="1" /><rect shape-rendering="crispEdges" fill="rgb(146, 74, 59)"  x="27" y="19" width="1" height="1" /><rect shape-rendering="crispEdges" fill="rgb(158, 101, 88)"  x="27" y="20" width="1" height="1" /><rect shape-rendering="crispEdges" fill="rgb(142, 80, 67)"  x="27" y="21" width="1" height="1" /><rect shape-rendering="crispEdges" fill="rgb(110, 47, 39)"  x="27" y="22" width="1" height="1" /><rect shape-rendering="crispEdges" fill="rgb(100, 42, 34)"  x="27" y="23" width="1" height="1" /><rect shape-rendering="crispEdges" fill="rgb(114, 60, 47)"  x="28" y="8" width="1" height="1" /><rect shape-rendering="crispEdges" fill="rgb(132, 79, 75)"  x="28" y="9" width="1" height="1" /><rect shape-rendering="crispEdges" fill="rgb(171, 127, 113)"  x="28" y="10" width="1" height="1" /><rect shape-rendering="crispEdges" fill="rgb(161, 104, 78)"  x="28" y="11" width="1" height="1" /><rect shape-rendering="crispEdges" fill="rgb(113, 50, 39)"  x="28" y="12" width="1" height="1" /><rect shape-rendering="crispEdges" fill="rgb(113, 50, 39)"  x="28" y="13" width="1" height="1" /><rect shape-rendering="crispEdges" fill="rgb(83, 28, 21)"  x="28" y="18" width="1" height="1" /><rect shape-rendering="crispEdges" fill="rgb(156, 90, 68)"  x="28" y="19" width="1" height="1" /><rect shape-rendering="crispEdges" fill="rgb(152, 95, 77)"  x="28" y="20" width="1" height="1" /><rect shape-rendering="crispEdges" fill="rgb(95, 33, 33)"  x="28" y="21" width="1" height="1" /><rect shape-rendering="crispEdges" fill="rgb(95, 33, 33)"  x="28" y="22" width="1" height="1" /><rect shape-rendering="crispEdges" fill="rgb(114, 60, 47)"  x="29" y="7" width="1" height="1" /><rect shape-rendering="crispEdges" fill="rgb(132, 79, 75)"  x="29" y="8" width="1" height="1" /><rect shape-rendering="crispEdges" fill="rgb(160, 112, 103)"  x="29" y="9" width="1" height="1" /><rect shape-rendering="crispEdges" fill="rgb(113, 50, 39)"  x="29" y="10" width="1" height="1" /><rect shape-rendering="crispEdges" fill="rgb(113, 50, 39)"  x="29" y="11" width="1" height="1" /><rect shape-rendering="crispEdges" fill="rgb(78, 22, 20)"  x="29" y="18" width="1" height="1" /><rect shape-rendering="crispEdges" fill="rgb(157, 95, 73)"  x="29" y="19" width="1" height="1" /><rect shape-rendering="crispEdges" fill="rgb(100, 42, 34)"  x="29" y="20" width="1" height="1" /><rect shape-rendering="crispEdges" fill="rgb(114, 60, 47)"  x="30" y="6" width="1" height="1" /><rect shape-rendering="crispEdges" fill="rgb(100, 42, 34)"  x="30" y="7" width="1" height="1" /><rect shape-rendering="crispEdges" fill="rgb(100, 42, 34)"  x="30" y="8" width="1" height="1" /><rect shape-rendering="crispEdges" fill="rgb(100, 42, 34)"  x="30" y="9" width="1" height="1" /><rect shape-rendering="crispEdges" fill="rgb(83, 28, 21)"  x="30" y="18" width="1" height="1" /><rect shape-rendering="crispEdges" fill="rgb(100, 42, 34)"  x="30" y="19" width="1" height="1" /><rect shape-rendering="crispEdges" fill="rgb(83, 28, 21)"  x="31" y="18" width="1" height="1" /></svg>