<svg xmlns="http://www.w3.org/2000/svg" xmlns:xlink= "http://www.w3.org/1999/xlink" width="32" height="32" viewBox ="0 0 32 32"><rect shape-rendering="crispEdges" fill="rgb(164, 82, 8)"  x="4" y="10" width="1" height="1" /><rect shape-rendering="crispEdges" fill="rgb(164, 82, 8)"  x="4" y="11" width="1" height="1" /><rect shape-rendering="crispEdges" fill="rgb(197, 115, 41)"  x="4" y="12" width="1" height="1" /><rect shape-rendering="crispEdges" fill="rgb(197, 115, 41)"  x="4" y="13" width="1" height="1" /><rect shape-rendering="crispEdges" fill="rgb(197, 115, 41)"  x="4" y="14" width="1" height="1" /><rect shape-rendering="crispEdges" fill="rgb(197, 115, 41)"  x="4" y="15" width="1" height="1" /><rect shape-rendering="crispEdges" fill="rgb(164, 82, 8)"  x="5" y="8" width="1" height="1" /><rect shape-rendering="crispEdges" fill="rgb(164, 82, 8)"  x="5" y="9" width="1" height="1" /><rect shape-rendering="crispEdges" fill="rgb(222, 139, 65)"  x="5" y="10" width="1" height="1" /><rect shape-rendering="crispEdges" fill="rgb(238, 164, 82)"  x="5" y="11" width="1" height="1" /><rect shape-rendering="crispEdges" fill="rgb(255, 180, 106)"  x="5" y="12" width="1" height="1" /><rect shape-rendering="crispEdges" fill="rgb(255, 180, 106)"  x="5" y="13" width="1" height="1" /><rect shape-rendering="crispEdges" fill="rgb(255, 180, 106)"  x="5" y="14" width="1" height="1" /><rect shape-rendering="crispEdges" fill="rgb(255, 180, 106)"  x="5" y="15" width="1" height="1" /><rect shape-rendering="crispEdges" fill="rgb(197, 115, 41)"  x="5" y="16" width="1" height="1" /><rect shape-rendering="crispEdges" fill="rgb(213, 131, 57)"  x="5" y="17" width="1" height="1" /><rect shape-rendering="crispEdges" fill="rgb(164, 82, 8)"  x="6" y="7" width="1" height="1" /><rect shape-rendering="crispEdges" fill="rgb(205, 131, 49)"  x="6" y="8" width="1" height="1" /><rect shape-rendering="crispEdges" fill="rgb(222, 139, 65)"  x="6" y="9" width="1" height="1" /><rect shape-rendering="crispEdges" fill="rgb(255, 180, 98)"  x="6" y="10" width="1" height="1" /><rect shape-rendering="crispEdges" fill="rgb(164, 82, 8)"  x="6" y="11" width="1" height="1" /><rect shape-rendering="crispEdges" fill="rgb(246, 164, 90)"  x="6" y="12" width="1" height="1" /><rect shape-rendering="crispEdges" fill="rgb(255, 180, 98)"  x="6" y="13" width="1" height="1" /><rect shape-rendering="crispEdges" fill="rgb(246, 172, 90)"  x="6" y="14" width="1" height="1" /><rect shape-rendering="crispEdges" fill="rgb(255, 180, 106)"  x="6" y="15" width="1" height="1" /><rect shape-rendering="crispEdges" fill="rgb(255, 180, 106)"  x="6" y="16" width="1" height="1" /><rect shape-rendering="crispEdges" fill="rgb(180, 106, 24)"  x="6" y="17" width="1" height="1" /><rect shape-rendering="crispEdges" fill="rgb(197, 115, 41)"  x="6" y="19" width="1" height="1" /><rect shape-rendering="crispEdges" fill="rgb(197, 115, 41)"  x="6" y="20" width="1" height="1" /><rect shape-rendering="crispEdges" fill="rgb(197, 115, 41)"  x="6" y="21" width="1" height="1" /><rect shape-rendering="crispEdges" fill="rgb(164, 82, 8)"  x="7" y="7" width="1" height="1" /><rect shape-rendering="crispEdges" fill="rgb(222, 139, 65)"  x="7" y="8" width="1" height="1" /><rect shape-rendering="crispEdges" fill="rgb(255, 180, 106)"  x="7" y="9" width="1" height="1" /><rect shape-rendering="crispEdges" fill="rgb(164, 82, 8)"  x="7" y="10" width="1" height="1" /><rect shape-rendering="crispEdges" fill="rgb(213, 131, 57)"  x="7" y="11" width="1" height="1" /><rect shape-rendering="crispEdges" fill="rgb(164, 82, 8)"  x="7" y="12" width="1" height="1" /><rect shape-rendering="crispEdges" fill="rgb(246, 172, 90)"  x="7" y="13" width="1" height="1" /><rect shape-rendering="crispEdges" fill="rgb(238, 156, 82)"  x="7" y="14" width="1" height="1" /><rect shape-rendering="crispEdges" fill="rgb(205, 123, 49)"  x="7" y="15" width="1" height="1" /><rect shape-rendering="crispEdges" fill="rgb(255, 180, 106)"  x="7" y="16" width="1" height="1" /><rect shape-rendering="crispEdges" fill="rgb(255, 180, 106)"  x="7" y="17" width="1" height="1" /><rect shape-rendering="crispEdges" fill="rgb(197, 115, 41)"  x="7" y="18" width="1" height="1" /><rect shape-rendering="crispEdges" fill="rgb(255, 180, 106)"  x="7" y="19" width="1" height="1" /><rect shape-rendering="crispEdges" fill="rgb(255, 180, 106)"  x="7" y="20" width="1" height="1" /><rect shape-rendering="crispEdges" fill="rgb(197, 115, 41)"  x="7" y="21" width="1" height="1" /><rect shape-rendering="crispEdges" fill="rgb(197, 115, 41)"  x="7" y="22" width="1" height="1" /><rect shape-rendering="crispEdges" fill="rgb(189, 32, 16)"  x="8" y="1" width="1" height="1" /><rect shape-rendering="crispEdges" fill="rgb(189, 32, 16)"  x="8" y="2" width="1" height="1" /><rect shape-rendering="crispEdges" fill="rgb(189, 32, 16)"  x="8" y="3" width="1" height="1" /><rect shape-rendering="crispEdges" fill="rgb(189, 32, 16)"  x="8" y="6" width="1" height="1" /><rect shape-rendering="crispEdges" fill="rgb(164, 82, 8)"  x="8" y="7" width="1" height="1" /><rect shape-rendering="crispEdges" fill="rgb(205, 123, 49)"  x="8" y="8" width="1" height="1" /><rect shape-rendering="crispEdges" fill="rgb(255, 180, 106)"  x="8" y="9" width="1" height="1" /><rect shape-rendering="crispEdges" fill="rgb(197, 115, 41)"  x="8" y="10" width="1" height="1" /><rect shape-rendering="crispEdges" fill="rgb(213, 131, 57)"  x="8" y="11" width="1" height="1" /><rect shape-rendering="crispEdges" fill="rgb(213, 131, 57)"  x="8" y="12" width="1" height="1" /><rect shape-rendering="crispEdges" fill="rgb(180, 106, 24)"  x="8" y="13" width="1" height="1" /><rect shape-rendering="crispEdges" fill="rgb(246, 172, 90)"  x="8" y="14" width="1" height="1" /><rect shape-rendering="crispEdges" fill="rgb(164, 82, 8)"  x="8" y="15" width="1" height="1" /><rect shape-rendering="crispEdges" fill="rgb(197, 123, 41)"  x="8" y="16" width="1" height="1" /><rect shape-rendering="crispEdges" fill="rgb(246, 172, 90)"  x="8" y="17" width="1" height="1" /><rect shape-rendering="crispEdges" fill="rgb(246, 172, 90)"  x="8" y="18" width="1" height="1" /><rect shape-rendering="crispEdges" fill="rgb(246, 172, 90)"  x="8" y="19" width="1" height="1" /><rect shape-rendering="crispEdges" fill="rgb(255, 172, 98)"  x="8" y="20" width="1" height="1" /><rect shape-rendering="crispEdges" fill="rgb(255, 180, 106)"  x="8" y="21" width="1" height="1" /><rect shape-rendering="crispEdges" fill="rgb(255, 180, 106)"  x="8" y="22" width="1" height="1" /><rect shape-rendering="crispEdges" fill="rgb(197, 115, 41)"  x="8" y="23" width="1" height="1" /><rect shape-rendering="crispEdges" fill="rgb(197, 115, 41)"  x="8" y="24" width="1" height="1" /><rect shape-rendering="crispEdges" fill="rgb(213, 57, 49)"  x="9" y="2" width="1" height="1" /><rect shape-rendering="crispEdges" fill="rgb(213, 57, 41)"  x="9" y="3" width="1" height="1" /><rect shape-rendering="crispEdges" fill="rgb(189, 32, 16)"  x="9" y="4" width="1" height="1" /><rect shape-rendering="crispEdges" fill="rgb(189, 32, 16)"  x="9" y="5" width="1" height="1" /><rect shape-rendering="crispEdges" fill="rgb(222, 65, 49)"  x="9" y="6" width="1" height="1" /><rect shape-rendering="crispEdges" fill="rgb(180, 106, 24)"  x="9" y="7" width="1" height="1" /><rect shape-rendering="crispEdges" fill="rgb(164, 82, 8)"  x="9" y="8" width="1" height="1" /><rect shape-rendering="crispEdges" fill="rgb(197, 115, 41)"  x="9" y="9" width="1" height="1" /><rect shape-rendering="crispEdges" fill="rgb(213, 131, 57)"  x="9" y="10" width="1" height="1" /><rect shape-rendering="crispEdges" fill="rgb(246, 164, 90)"  x="9" y="11" width="1" height="1" /><rect shape-rendering="crispEdges" fill="rgb(213, 131, 57)"  x="9" y="12" width="1" height="1" /><rect shape-rendering="crispEdges" fill="rgb(164, 82, 8)"  x="9" y="13" width="1" height="1" /><rect shape-rendering="crispEdges" fill="rgb(246, 172, 90)"  x="9" y="14" width="1" height="1" /><rect shape-rendering="crispEdges" fill="rgb(222, 139, 65)"  x="9" y="15" width="1" height="1" /><rect shape-rendering="crispEdges" fill="rgb(246, 172, 90)"  x="9" y="16" width="1" height="1" /><rect shape-rendering="crispEdges" fill="rgb(246, 172, 90)"  x="9" y="17" width="1" height="1" /><rect shape-rendering="crispEdges" fill="rgb(205, 123, 49)"  x="9" y="18" width="1" height="1" /><rect shape-rendering="crispEdges" fill="rgb(246, 172, 90)"  x="9" y="19" width="1" height="1" /><rect shape-rendering="crispEdges" fill="rgb(222, 148, 65)"  x="9" y="20" width="1" height="1" /><rect shape-rendering="crispEdges" fill="rgb(230, 148, 74)"  x="9" y="21" width="1" height="1" /><rect shape-rendering="crispEdges" fill="rgb(255, 180, 98)"  x="9" y="22" width="1" height="1" /><rect shape-rendering="crispEdges" fill="rgb(255, 180, 106)"  x="9" y="23" width="1" height="1" /><rect shape-rendering="crispEdges" fill="rgb(197, 115, 41)"  x="9" y="24" width="1" height="1" /><rect shape-rendering="crispEdges" fill="rgb(197, 115, 41)"  x="9" y="25" width="1" height="1" /><rect shape-rendering="crispEdges" fill="rgb(205, 41, 57)"  x="10" y="2" width="1" height="1" /><rect shape-rendering="crispEdges" fill="rgb(238, 82, 65)"  x="10" y="3" width="1" height="1" /><rect shape-rendering="crispEdges" fill="rgb(238, 82, 65)"  x="10" y="4" width="1" height="1" /><rect shape-rendering="crispEdges" fill="rgb(238, 82, 65)"  x="10" y="5" width="1" height="1" /><rect shape-rendering="crispEdges" fill="rgb(222, 65, 57)"  x="10" y="6" width="1" height="1" /><rect shape-rendering="crispEdges" fill="rgb(180, 106, 24)"  x="10" y="7" width="1" height="1" /><rect shape-rendering="crispEdges" fill="rgb(238, 156, 82)"  x="10" y="8" width="1" height="1" /><rect shape-rendering="crispEdges" fill="rgb(164, 82, 8)"  x="10" y="9" width="1" height="1" /><rect shape-rendering="crispEdges" fill="rgb(164, 82, 8)"  x="10" y="10" width="1" height="1" /><rect shape-rendering="crispEdges" fill="rgb(180, 106, 24)"  x="10" y="11" width="1" height="1" /><rect shape-rendering="crispEdges" fill="rgb(164, 82, 8)"  x="10" y="12" width="1" height="1" /><rect shape-rendering="crispEdges" fill="rgb(246, 172, 90)"  x="10" y="13" width="1" height="1" /><rect shape-rendering="crispEdges" fill="rgb(197, 123, 41)"  x="10" y="14" width="1" height="1" /><rect shape-rendering="crispEdges" fill="rgb(246, 164, 90)"  x="10" y="15" width="1" height="1" /><rect shape-rendering="crispEdges" fill="rgb(246, 172, 90)"  x="10" y="16" width="1" height="1" /><rect shape-rendering="crispEdges" fill="rgb(205, 123, 49)"  x="10" y="17" width="1" height="1" /><rect shape-rendering="crispEdges" fill="rgb(164, 82, 8)"  x="10" y="18" width="1" height="1" /><rect shape-rendering="crispEdges" fill="rgb(246, 172, 90)"  x="10" y="19" width="1" height="1" /><rect shape-rendering="crispEdges" fill="rgb(213, 131, 57)"  x="10" y="20" width="1" height="1" /><rect shape-rendering="crispEdges" fill="rgb(213, 131, 57)"  x="10" y="21" width="1" height="1" /><rect shape-rendering="crispEdges" fill="rgb(197, 123, 41)"  x="10" y="22" width="1" height="1" /><rect shape-rendering="crispEdges" fill="rgb(255, 180, 98)"  x="10" y="23" width="1" height="1" /><rect shape-rendering="crispEdges" fill="rgb(255, 180, 106)"  x="10" y="24" width="1" height="1" /><rect shape-rendering="crispEdges" fill="rgb(230, 148, 74)"  x="10" y="25" width="1" height="1" /><rect shape-rendering="crispEdges" fill="rgb(164, 82, 8)"  x="10" y="26" width="1" height="1" /><rect shape-rendering="crispEdges" fill="rgb(205, 41, 41)"  x="11" y="2" width="1" height="1" /><rect shape-rendering="crispEdges" fill="rgb(205, 41, 49)"  x="11" y="3" width="1" height="1" /><rect shape-rendering="crispEdges" fill="rgb(213, 57, 41)"  x="11" y="4" width="1" height="1" /><rect shape-rendering="crispEdges" fill="rgb(213, 57, 41)"  x="11" y="6" width="1" height="1" /><rect shape-rendering="crispEdges" fill="rgb(238, 82, 65)"  x="11" y="7" width="1" height="1" /><rect shape-rendering="crispEdges" fill="rgb(180, 106, 24)"  x="11" y="8" width="1" height="1" /><rect shape-rendering="crispEdges" fill="rgb(255, 180, 98)"  x="11" y="9" width="1" height="1" /><rect shape-rendering="crispEdges" fill="rgb(222, 139, 65)"  x="11" y="10" width="1" height="1" /><rect shape-rendering="crispEdges" fill="rgb(222, 139, 65)"  x="11" y="11" width="1" height="1" /><rect shape-rendering="crispEdges" fill="rgb(164, 82, 8)"  x="11" y="12" width="1" height="1" /><rect shape-rendering="crispEdges" fill="rgb(246, 172, 90)"  x="11" y="13" width="1" height="1" /><rect shape-rendering="crispEdges" fill="rgb(164, 82, 8)"  x="11" y="14" width="1" height="1" /><rect shape-rendering="crispEdges" fill="rgb(197, 123, 41)"  x="11" y="15" width="1" height="1" /><rect shape-rendering="crispEdges" fill="rgb(246, 172, 90)"  x="11" y="16" width="1" height="1" /><rect shape-rendering="crispEdges" fill="rgb(246, 172, 90)"  x="11" y="17" width="1" height="1" /><rect shape-rendering="crispEdges" fill="rgb(246, 172, 90)"  x="11" y="18" width="1" height="1" /><rect shape-rendering="crispEdges" fill="rgb(246, 172, 90)"  x="11" y="19" width="1" height="1" /><rect shape-rendering="crispEdges" fill="rgb(213, 131, 57)"  x="11" y="20" width="1" height="1" /><rect shape-rendering="crispEdges" fill="rgb(255, 180, 115)"  x="11" y="21" width="1" height="1" /><rect shape-rendering="crispEdges" fill="rgb(164, 82, 8)"  x="11" y="22" width="1" height="1" /><rect shape-rendering="crispEdges" fill="rgb(255, 180, 98)"  x="11" y="23" width="1" height="1" /><rect shape-rendering="crispEdges" fill="rgb(255, 172, 98)"  x="11" y="24" width="1" height="1" /><rect shape-rendering="crispEdges" fill="rgb(255, 180, 106)"  x="11" y="25" width="1" height="1" /><rect shape-rendering="crispEdges" fill="rgb(230, 148, 74)"  x="11" y="26" width="1" height="1" /><rect shape-rendering="crispEdges" fill="rgb(164, 82, 8)"  x="11" y="27" width="1" height="1" /><rect shape-rendering="crispEdges" fill="rgb(197, 24, 49)"  x="12" y="2" width="1" height="1" /><rect shape-rendering="crispEdges" fill="rgb(180, 106, 24)"  x="12" y="8" width="1" height="1" /><rect shape-rendering="crispEdges" fill="rgb(255, 180, 98)"  x="12" y="9" width="1" height="1" /><rect shape-rendering="crispEdges" fill="rgb(255, 172, 98)"  x="12" y="10" width="1" height="1" /><rect shape-rendering="crispEdges" fill="rgb(180, 106, 24)"  x="12" y="11" width="1" height="1" /><rect shape-rendering="crispEdges" fill="rgb(246, 172, 90)"  x="12" y="12" width="1" height="1" /><rect shape-rendering="crispEdges" fill="rgb(246, 164, 90)"  x="12" y="13" width="1" height="1" /><rect shape-rendering="crispEdges" fill="rgb(246, 172, 90)"  x="12" y="14" width="1" height="1" /><rect shape-rendering="crispEdges" fill="rgb(246, 172, 90)"  x="12" y="15" width="1" height="1" /><rect shape-rendering="crispEdges" fill="rgb(246, 172, 90)"  x="12" y="16" width="1" height="1" /><rect shape-rendering="crispEdges" fill="rgb(222, 139, 65)"  x="12" y="17" width="1" height="1" /><rect shape-rendering="crispEdges" fill="rgb(246, 172, 90)"  x="12" y="18" width="1" height="1" /><rect shape-rendering="crispEdges" fill="rgb(246, 172, 90)"  x="12" y="19" width="1" height="1" /><rect shape-rendering="crispEdges" fill="rgb(246, 172, 90)"  x="12" y="20" width="1" height="1" /><rect shape-rendering="crispEdges" fill="rgb(164, 82, 8)"  x="12" y="21" width="1" height="1" /><rect shape-rendering="crispEdges" fill="rgb(255, 180, 98)"  x="12" y="22" width="1" height="1" /><rect shape-rendering="crispEdges" fill="rgb(246, 172, 90)"  x="12" y="23" width="1" height="1" /><rect shape-rendering="crispEdges" fill="rgb(164, 82, 8)"  x="12" y="24" width="1" height="1" /><rect shape-rendering="crispEdges" fill="rgb(164, 82, 8)"  x="12" y="25" width="1" height="1" /><rect shape-rendering="crispEdges" fill="rgb(230, 148, 74)"  x="12" y="26" width="1" height="1" /><rect shape-rendering="crispEdges" fill="rgb(197, 115, 41)"  x="12" y="27" width="1" height="1" /><rect shape-rendering="crispEdges" fill="rgb(164, 82, 8)"  x="12" y="28" width="1" height="1" /><rect shape-rendering="crispEdges" fill="rgb(180, 106, 24)"  x="13" y="8" width="1" height="1" /><rect shape-rendering="crispEdges" fill="rgb(255, 172, 98)"  x="13" y="9" width="1" height="1" /><rect shape-rendering="crispEdges" fill="rgb(246, 164, 90)"  x="13" y="10" width="1" height="1" /><rect shape-rendering="crispEdges" fill="rgb(180, 106, 24)"  x="13" y="11" width="1" height="1" /><rect shape-rendering="crispEdges" fill="rgb(246, 172, 90)"  x="13" y="12" width="1" height="1" /><rect shape-rendering="crispEdges" fill="rgb(197, 123, 41)"  x="13" y="13" width="1" height="1" /><rect shape-rendering="crispEdges" fill="rgb(255, 255, 205)"  x="13" y="14" width="1" height="1" /><rect shape-rendering="crispEdges" fill="rgb(255, 255, 205)"  x="13" y="15" width="1" height="1" /><rect shape-rendering="crispEdges" fill="rgb(255, 255, 205)"  x="13" y="16" width="1" height="1" /><rect shape-rendering="crispEdges" fill="rgb(255, 255, 205)"  x="13" y="17" width="1" height="1" /><rect shape-rendering="crispEdges" fill="rgb(255, 255, 205)"  x="13" y="18" width="1" height="1" /><rect shape-rendering="crispEdges" fill="rgb(255, 255, 205)"  x="13" y="19" width="1" height="1" /><rect shape-rendering="crispEdges" fill="rgb(255, 180, 115)"  x="13" y="20" width="1" height="1" /><rect shape-rendering="crispEdges" fill="rgb(246, 172, 90)"  x="13" y="21" width="1" height="1" /><rect shape-rendering="crispEdges" fill="rgb(246, 172, 90)"  x="13" y="22" width="1" height="1" /><rect shape-rendering="crispEdges" fill="rgb(164, 82, 8)"  x="13" y="23" width="1" height="1" /><rect shape-rendering="crispEdges" fill="rgb(222, 139, 65)"  x="13" y="24" width="1" height="1" /><rect shape-rendering="crispEdges" fill="rgb(213, 131, 57)"  x="13" y="25" width="1" height="1" /><rect shape-rendering="crispEdges" fill="rgb(164, 82, 8)"  x="13" y="26" width="1" height="1" /><rect shape-rendering="crispEdges" fill="rgb(230, 156, 74)"  x="13" y="27" width="1" height="1" /><rect shape-rendering="crispEdges" fill="rgb(197, 115, 41)"  x="13" y="28" width="1" height="1" /><rect shape-rendering="crispEdges" fill="rgb(164, 82, 8)"  x="13" y="29" width="1" height="1" /><rect shape-rendering="crispEdges" fill="rgb(180, 106, 24)"  x="14" y="8" width="1" height="1" /><rect shape-rendering="crispEdges" fill="rgb(255, 180, 98)"  x="14" y="9" width="1" height="1" /><rect shape-rendering="crispEdges" fill="rgb(180, 106, 24)"  x="14" y="10" width="1" height="1" /><rect shape-rendering="crispEdges" fill="rgb(246, 172, 90)"  x="14" y="11" width="1" height="1" /><rect shape-rendering="crispEdges" fill="rgb(238, 164, 82)"  x="14" y="12" width="1" height="1" /><rect shape-rendering="crispEdges" fill="rgb(255, 255, 205)"  x="14" y="13" width="1" height="1" /><rect shape-rendering="crispEdges" fill="rgb(197, 123, 41)"  x="14" y="14" width="1" height="1" /><rect shape-rendering="crispEdges" fill="rgb(164, 82, 8)"  x="14" y="15" width="1" height="1" /><rect shape-rendering="crispEdges" fill="rgb(246, 172, 90)"  x="14" y="16" width="1" height="1" /><rect shape-rendering="crispEdges" fill="rgb(255, 172, 98)"  x="14" y="17" width="1" height="1" /><rect shape-rendering="crispEdges" fill="rgb(255, 172, 98)"  x="14" y="18" width="1" height="1" /><rect shape-rendering="crispEdges" fill="rgb(255, 172, 98)"  x="14" y="19" width="1" height="1" /><rect shape-rendering="crispEdges" fill="rgb(255, 255, 205)"  x="14" y="20" width="1" height="1" /><rect shape-rendering="crispEdges" fill="rgb(246, 172, 90)"  x="14" y="21" width="1" height="1" /><rect shape-rendering="crispEdges" fill="rgb(189, 106, 32)"  x="14" y="22" width="1" height="1" /><rect shape-rendering="crispEdges" fill="rgb(164, 82, 8)"  x="14" y="23" width="1" height="1" /><rect shape-rendering="crispEdges" fill="rgb(246, 164, 90)"  x="14" y="24" width="1" height="1" /><rect shape-rendering="crispEdges" fill="rgb(213, 131, 57)"  x="14" y="25" width="1" height="1" /><rect shape-rendering="crispEdges" fill="rgb(164, 82, 8)"  x="14" y="26" width="1" height="1" /><rect shape-rendering="crispEdges" fill="rgb(213, 131, 57)"  x="14" y="27" width="1" height="1" /><rect shape-rendering="crispEdges" fill="rgb(213, 131, 57)"  x="14" y="28" width="1" height="1" /><rect shape-rendering="crispEdges" fill="rgb(164, 82, 8)"  x="14" y="29" width="1" height="1" /><rect shape-rendering="crispEdges" fill="rgb(180, 106, 24)"  x="15" y="7" width="1" height="1" /><rect shape-rendering="crispEdges" fill="rgb(255, 180, 98)"  x="15" y="8" width="1" height="1" /><rect shape-rendering="crispEdges" fill="rgb(255, 180, 98)"  x="15" y="9" width="1" height="1" /><rect shape-rendering="crispEdges" fill="rgb(180, 106, 24)"  x="15" y="10" width="1" height="1" /><rect shape-rendering="crispEdges" fill="rgb(246, 172, 90)"  x="15" y="11" width="1" height="1" /><rect shape-rendering="crispEdges" fill="rgb(255, 255, 205)"  x="15" y="12" width="1" height="1" /><rect shape-rendering="crispEdges" fill="rgb(164, 82, 8)"  x="15" y="13" width="1" height="1" /><rect shape-rendering="crispEdges" fill="rgb(255, 180, 98)"  x="15" y="14" width="1" height="1" /><rect shape-rendering="crispEdges" fill="rgb(246, 172, 90)"  x="15" y="15" width="1" height="1" /><rect shape-rendering="crispEdges" fill="rgb(246, 172, 90)"  x="15" y="16" width="1" height="1" /><rect shape-rendering="crispEdges" fill="rgb(255, 255, 205)"  x="15" y="17" width="1" height="1" /><rect shape-rendering="crispEdges" fill="rgb(197, 123, 41)"  x="15" y="18" width="1" height="1" /><rect shape-rendering="crispEdges" fill="rgb(246, 172, 90)"  x="15" y="19" width="1" height="1" /><rect shape-rendering="crispEdges" fill="rgb(164, 82, 8)"  x="15" y="20" width="1" height="1" /><rect shape-rendering="crispEdges" fill="rgb(255, 255, 205)"  x="15" y="21" width="1" height="1" /><rect shape-rendering="crispEdges" fill="rgb(189, 106, 32)"  x="15" y="22" width="1" height="1" /><rect shape-rendering="crispEdges" fill="rgb(246, 172, 90)"  x="15" y="23" width="1" height="1" /><rect shape-rendering="crispEdges" fill="rgb(164, 82, 8)"  x="15" y="24" width="1" height="1" /><rect shape-rendering="crispEdges" fill="rgb(213, 131, 57)"  x="15" y="25" width="1" height="1" /><rect shape-rendering="crispEdges" fill="rgb(213, 131, 57)"  x="15" y="26" width="1" height="1" /><rect shape-rendering="crispEdges" fill="rgb(213, 131, 57)"  x="15" y="27" width="1" height="1" /><rect shape-rendering="crispEdges" fill="rgb(164, 82, 8)"  x="15" y="28" width="1" height="1" /><rect shape-rendering="crispEdges" fill="rgb(180, 106, 24)"  x="16" y="7" width="1" height="1" /><rect shape-rendering="crispEdges" fill="rgb(255, 180, 98)"  x="16" y="8" width="1" height="1" /><rect shape-rendering="crispEdges" fill="rgb(255, 180, 98)"  x="16" y="9" width="1" height="1" /><rect shape-rendering="crispEdges" fill="rgb(180, 106, 24)"  x="16" y="10" width="1" height="1" /><rect shape-rendering="crispEdges" fill="rgb(246, 172, 90)"  x="16" y="11" width="1" height="1" /><rect shape-rendering="crispEdges" fill="rgb(255, 255, 205)"  x="16" y="12" width="1" height="1" /><rect shape-rendering="crispEdges" fill="rgb(246, 172, 90)"  x="16" y="13" width="1" height="1" /><rect shape-rendering="crispEdges" fill="rgb(255, 255, 205)"  x="16" y="14" width="1" height="1" /><rect shape-rendering="crispEdges" fill="rgb(246, 172, 90)"  x="16" y="15" width="1" height="1" /><rect shape-rendering="crispEdges" fill="rgb(255, 255, 205)"  x="16" y="16" width="1" height="1" /><rect shape-rendering="crispEdges" fill="rgb(164, 82, 8)"  x="16" y="17" width="1" height="1" /><rect shape-rendering="crispEdges" fill="rgb(230, 156, 74)"  x="16" y="18" width="1" height="1" /><rect shape-rendering="crispEdges" fill="rgb(246, 172, 90)"  x="16" y="19" width="1" height="1" /><rect shape-rendering="crispEdges" fill="rgb(246, 172, 90)"  x="16" y="20" width="1" height="1" /><rect shape-rendering="crispEdges" fill="rgb(255, 255, 205)"  x="16" y="21" width="1" height="1" /><rect shape-rendering="crispEdges" fill="rgb(189, 106, 32)"  x="16" y="22" width="1" height="1" /><rect shape-rendering="crispEdges" fill="rgb(246, 172, 90)"  x="16" y="23" width="1" height="1" /><rect shape-rendering="crispEdges" fill="rgb(230, 156, 74)"  x="16" y="24" width="1" height="1" /><rect shape-rendering="crispEdges" fill="rgb(164, 82, 8)"  x="16" y="25" width="1" height="1" /><rect shape-rendering="crispEdges" fill="rgb(164, 82, 8)"  x="16" y="26" width="1" height="1" /><rect shape-rendering="crispEdges" fill="rgb(164, 82, 8)"  x="16" y="27" width="1" height="1" /><rect shape-rendering="crispEdges" fill="rgb(180, 106, 24)"  x="17" y="6" width="1" height="1" /><rect shape-rendering="crispEdges" fill="rgb(213, 131, 57)"  x="17" y="7" width="1" height="1" /><rect shape-rendering="crispEdges" fill="rgb(255, 172, 98)"  x="17" y="8" width="1" height="1" /><rect shape-rendering="crispEdges" fill="rgb(230, 148, 74)"  x="17" y="9" width="1" height="1" /><rect shape-rendering="crispEdges" fill="rgb(164, 82, 8)"  x="17" y="10" width="1" height="1" /><rect shape-rendering="crispEdges" fill="rgb(255, 255, 205)"  x="17" y="11" width="1" height="1" /><rect shape-rendering="crispEdges" fill="rgb(255, 172, 98)"  x="17" y="12" width="1" height="1" /><rect shape-rendering="crispEdges" fill="rgb(255, 180, 106)"  x="17" y="13" width="1" height="1" /><rect shape-rendering="crispEdges" fill="rgb(255, 172, 98)"  x="17" y="14" width="1" height="1" /><rect shape-rendering="crispEdges" fill="rgb(246, 172, 90)"  x="17" y="15" width="1" height="1" /><rect shape-rendering="crispEdges" fill="rgb(246, 172, 90)"  x="17" y="16" width="1" height="1" /><rect shape-rendering="crispEdges" fill="rgb(255, 255, 205)"  x="17" y="17" width="1" height="1" /><rect shape-rendering="crispEdges" fill="rgb(255, 172, 98)"  x="17" y="18" width="1" height="1" /><rect shape-rendering="crispEdges" fill="rgb(197, 123, 41)"  x="17" y="19" width="1" height="1" /><rect shape-rendering="crispEdges" fill="rgb(197, 123, 41)"  x="17" y="20" width="1" height="1" /><rect shape-rendering="crispEdges" fill="rgb(213, 139, 57)"  x="17" y="21" width="1" height="1" /><rect shape-rendering="crispEdges" fill="rgb(255, 255, 205)"  x="17" y="22" width="1" height="1" /><rect shape-rendering="crispEdges" fill="rgb(255, 172, 98)"  x="17" y="23" width="1" height="1" /><rect shape-rendering="crispEdges" fill="rgb(255, 172, 98)"  x="17" y="24" width="1" height="1" /><rect shape-rendering="crispEdges" fill="rgb(222, 139, 65)"  x="17" y="25" width="1" height="1" /><rect shape-rendering="crispEdges" fill="rgb(189, 106, 32)"  x="17" y="26" width="1" height="1" /><rect shape-rendering="crispEdges" fill="rgb(180, 106, 24)"  x="18" y="6" width="1" height="1" /><rect shape-rendering="crispEdges" fill="rgb(255, 172, 98)"  x="18" y="7" width="1" height="1" /><rect shape-rendering="crispEdges" fill="rgb(255, 172, 98)"  x="18" y="8" width="1" height="1" /><rect shape-rendering="crispEdges" fill="rgb(230, 148, 74)"  x="18" y="9" width="1" height="1" /><rect shape-rendering="crispEdges" fill="rgb(164, 82, 8)"  x="18" y="10" width="1" height="1" /><rect shape-rendering="crispEdges" fill="rgb(255, 255, 205)"  x="18" y="11" width="1" height="1" /><rect shape-rendering="crispEdges" fill="rgb(164, 82, 8)"  x="18" y="12" width="1" height="1" /><rect shape-rendering="crispEdges" fill="rgb(197, 123, 41)"  x="18" y="13" width="1" height="1" /><rect shape-rendering="crispEdges" fill="rgb(255, 172, 98)"  x="18" y="14" width="1" height="1" /><rect shape-rendering="crispEdges" fill="rgb(246, 164, 90)"  x="18" y="15" width="1" height="1" /><rect shape-rendering="crispEdges" fill="rgb(197, 123, 41)"  x="18" y="16" width="1" height="1" /><rect shape-rendering="crispEdges" fill="rgb(197, 123, 41)"  x="18" y="17" width="1" height="1" /><rect shape-rendering="crispEdges" fill="rgb(255, 255, 205)"  x="18" y="18" width="1" height="1" /><rect shape-rendering="crispEdges" fill="rgb(255, 172, 98)"  x="18" y="19" width="1" height="1" /><rect shape-rendering="crispEdges" fill="rgb(164, 82, 8)"  x="18" y="20" width="1" height="1" /><rect shape-rendering="crispEdges" fill="rgb(238, 164, 82)"  x="18" y="21" width="1" height="1" /><rect shape-rendering="crispEdges" fill="rgb(255, 255, 205)"  x="18" y="22" width="1" height="1" /><rect shape-rendering="crispEdges" fill="rgb(255, 172, 98)"  x="18" y="23" width="1" height="1" /><rect shape-rendering="crispEdges" fill="rgb(246, 164, 90)"  x="18" y="24" width="1" height="1" /><rect shape-rendering="crispEdges" fill="rgb(189, 106, 32)"  x="18" y="25" width="1" height="1" /><rect shape-rendering="crispEdges" fill="rgb(180, 106, 24)"  x="19" y="5" width="1" height="1" /><rect shape-rendering="crispEdges" fill="rgb(213, 131, 57)"  x="19" y="6" width="1" height="1" /><rect shape-rendering="crispEdges" fill="rgb(255, 172, 98)"  x="19" y="7" width="1" height="1" /><rect shape-rendering="crispEdges" fill="rgb(255, 172, 98)"  x="19" y="8" width="1" height="1" /><rect shape-rendering="crispEdges" fill="rgb(255, 172, 98)"  x="19" y="9" width="1" height="1" /><rect shape-rendering="crispEdges" fill="rgb(230, 148, 74)"  x="19" y="10" width="1" height="1" /><rect shape-rendering="crispEdges" fill="rgb(255, 255, 205)"  x="19" y="11" width="1" height="1" /><rect shape-rendering="crispEdges" fill="rgb(164, 82, 8)"  x="19" y="13" width="1" height="1" /><rect shape-rendering="crispEdges" fill="rgb(197, 123, 41)"  x="19" y="14" width="1" height="1" /><rect shape-rendering="crispEdges" fill="rgb(197, 123, 41)"  x="19" y="15" width="1" height="1" /><rect shape-rendering="crispEdges" fill="rgb(255, 255, 205)"  x="19" y="16" width="1" height="1" /><rect shape-rendering="crispEdges" fill="rgb(255, 255, 205)"  x="19" y="17" width="1" height="1" /><rect shape-rendering="crispEdges" fill="rgb(255, 255, 205)"  x="19" y="18" width="1" height="1" /><rect shape-rendering="crispEdges" fill="rgb(255, 255, 205)"  x="19" y="19" width="1" height="1" /><rect shape-rendering="crispEdges" fill="rgb(255, 255, 205)"  x="19" y="20" width="1" height="1" /><rect shape-rendering="crispEdges" fill="rgb(189, 106, 32)"  x="19" y="21" width="1" height="1" /><rect shape-rendering="crispEdges" fill="rgb(255, 255, 205)"  x="19" y="22" width="1" height="1" /><rect shape-rendering="crispEdges" fill="rgb(255, 172, 98)"  x="19" y="23" width="1" height="1" /><rect shape-rendering="crispEdges" fill="rgb(189, 106, 32)"  x="19" y="24" width="1" height="1" /><rect shape-rendering="crispEdges" fill="rgb(189, 32, 16)"  x="19" y="25" width="1" height="1" /><rect shape-rendering="crispEdges" fill="rgb(189, 32, 16)"  x="19" y="26" width="1" height="1" /><rect shape-rendering="crispEdges" fill="rgb(180, 106, 24)"  x="20" y="6" width="1" height="1" /><rect shape-rendering="crispEdges" fill="rgb(246, 164, 90)"  x="20" y="7" width="1" height="1" /><rect shape-rendering="crispEdges" fill="rgb(180, 106, 24)"  x="20" y="8" width="1" height="1" /><rect shape-rendering="crispEdges" fill="rgb(230, 148, 74)"  x="20" y="9" width="1" height="1" /><rect shape-rendering="crispEdges" fill="rgb(213, 131, 57)"  x="20" y="10" width="1" height="1" /><rect shape-rendering="crispEdges" fill="rgb(255, 255, 205)"  x="20" y="11" width="1" height="1" /><rect shape-rendering="crispEdges" fill="rgb(255, 255, 205)"  x="20" y="15" width="1" height="1" /><rect shape-rendering="crispEdges" fill="rgb(197, 123, 41)"  x="20" y="16" width="1" height="1" /><rect shape-rendering="crispEdges" fill="rgb(246, 172, 90)"  x="20" y="17" width="1" height="1" /><rect shape-rendering="crispEdges" fill="rgb(197, 123, 41)"  x="20" y="18" width="1" height="1" /><rect shape-rendering="crispEdges" fill="rgb(164, 82, 8)"  x="20" y="19" width="1" height="1" /><rect shape-rendering="crispEdges" fill="rgb(246, 172, 90)"  x="20" y="20" width="1" height="1" /><rect shape-rendering="crispEdges" fill="rgb(189, 106, 32)"  x="20" y="21" width="1" height="1" /><rect shape-rendering="crispEdges" fill="rgb(255, 255, 205)"  x="20" y="22" width="1" height="1" /><rect shape-rendering="crispEdges" fill="rgb(189, 106, 32)"  x="20" y="23" width="1" height="1" /><rect shape-rendering="crispEdges" fill="rgb(213, 57, 41)"  x="20" y="24" width="1" height="1" /><rect shape-rendering="crispEdges" fill="rgb(213, 41, 65)"  x="20" y="25" width="1" height="1" /><rect shape-rendering="crispEdges" fill="rgb(230, 74, 65)"  x="20" y="26" width="1" height="1" /><rect shape-rendering="crispEdges" fill="rgb(189, 32, 16)"  x="20" y="27" width="1" height="1" /><rect shape-rendering="crispEdges" fill="rgb(180, 106, 24)"  x="21" y="6" width="1" height="1" /><rect shape-rendering="crispEdges" fill="rgb(180, 106, 24)"  x="21" y="7" width="1" height="1" /><rect shape-rendering="crispEdges" fill="rgb(213, 131, 57)"  x="21" y="8" width="1" height="1" /><rect shape-rendering="crispEdges" fill="rgb(222, 139, 65)"  x="21" y="9" width="1" height="1" /><rect shape-rendering="crispEdges" fill="rgb(164, 82, 8)"  x="21" y="10" width="1" height="1" /><rect shape-rendering="crispEdges" fill="rgb(255, 255, 205)"  x="21" y="12" width="1" height="1" /><rect shape-rendering="crispEdges" fill="rgb(164, 82, 8)"  x="21" y="16" width="1" height="1" /><rect shape-rendering="crispEdges" fill="rgb(197, 123, 41)"  x="21" y="17" width="1" height="1" /><rect shape-rendering="crispEdges" fill="rgb(246, 148, 98)"  x="21" y="18" width="1" height="1" /><rect shape-rendering="crispEdges" fill="rgb(197, 123, 41)"  x="21" y="19" width="1" height="1" /><rect shape-rendering="crispEdges" fill="rgb(246, 172, 90)"  x="21" y="20" width="1" height="1" /><rect shape-rendering="crispEdges" fill="rgb(255, 255, 205)"  x="21" y="21" width="1" height="1" /><rect shape-rendering="crispEdges" fill="rgb(246, 172, 90)"  x="21" y="22" width="1" height="1" /><rect shape-rendering="crispEdges" fill="rgb(189, 106, 32)"  x="21" y="23" width="1" height="1" /><rect shape-rendering="crispEdges" fill="rgb(213, 57, 41)"  x="21" y="25" width="1" height="1" /><rect shape-rendering="crispEdges" fill="rgb(238, 82, 65)"  x="21" y="26" width="1" height="1" /><rect shape-rendering="crispEdges" fill="rgb(230, 74, 65)"  x="21" y="27" width="1" height="1" /><rect shape-rendering="crispEdges" fill="rgb(189, 32, 16)"  x="21" y="28" width="1" height="1" /><rect shape-rendering="crispEdges" fill="rgb(189, 32, 16)"  x="21" y="29" width="1" height="1" /><rect shape-rendering="crispEdges" fill="rgb(189, 32, 16)"  x="21" y="30" width="1" height="1" /><rect shape-rendering="crispEdges" fill="rgb(180, 106, 24)"  x="22" y="8" width="1" height="1" /><rect shape-rendering="crispEdges" fill="rgb(164, 82, 8)"  x="22" y="9" width="1" height="1" /><rect shape-rendering="crispEdges" fill="rgb(255, 255, 205)"  x="22" y="13" width="1" height="1" /><rect shape-rendering="crispEdges" fill="rgb(164, 82, 8)"  x="22" y="17" width="1" height="1" /><rect shape-rendering="crispEdges" fill="rgb(164, 82, 8)"  x="22" y="18" width="1" height="1" /><rect shape-rendering="crispEdges" fill="rgb(255, 255, 205)"  x="22" y="19" width="1" height="1" /><rect shape-rendering="crispEdges" fill="rgb(255, 255, 205)"  x="22" y="20" width="1" height="1" /><rect shape-rendering="crispEdges" fill="rgb(246, 172, 90)"  x="22" y="21" width="1" height="1" /><rect shape-rendering="crispEdges" fill="rgb(222, 131, 74)"  x="22" y="22" width="1" height="1" /><rect shape-rendering="crispEdges" fill="rgb(164, 82, 8)"  x="22" y="23" width="1" height="1" /><rect shape-rendering="crispEdges" fill="rgb(213, 57, 41)"  x="22" y="26" width="1" height="1" /><rect shape-rendering="crispEdges" fill="rgb(238, 82, 65)"  x="22" y="27" width="1" height="1" /><rect shape-rendering="crispEdges" fill="rgb(238, 82, 65)"  x="22" y="28" width="1" height="1" /><rect shape-rendering="crispEdges" fill="rgb(189, 32, 16)"  x="22" y="29" width="1" height="1" /><rect shape-rendering="crispEdges" fill="rgb(255, 255, 205)"  x="23" y="14" width="1" height="1" /><rect shape-rendering="crispEdges" fill="rgb(255, 255, 205)"  x="23" y="15" width="1" height="1" /><rect shape-rendering="crispEdges" fill="rgb(255, 255, 205)"  x="23" y="16" width="1" height="1" /><rect shape-rendering="crispEdges" fill="rgb(255, 255, 205)"  x="23" y="17" width="1" height="1" /><rect shape-rendering="crispEdges" fill="rgb(255, 255, 205)"  x="23" y="18" width="1" height="1" /><rect shape-rendering="crispEdges" fill="rgb(164, 82, 8)"  x="23" y="19" width="1" height="1" /><rect shape-rendering="crispEdges" fill="rgb(189, 106, 32)"  x="23" y="20" width="1" height="1" /><rect shape-rendering="crispEdges" fill="rgb(255, 172, 98)"  x="23" y="21" width="1" height="1" /><rect shape-rendering="crispEdges" fill="rgb(189, 106, 32)"  x="23" y="22" width="1" height="1" /><rect shape-rendering="crispEdges" fill="rgb(213, 57, 41)"  x="23" y="27" width="1" height="1" /><rect shape-rendering="crispEdges" fill="rgb(213, 57, 41)"  x="23" y="28" width="1" height="1" /><rect shape-rendering="crispEdges" fill="rgb(189, 106, 32)"  x="24" y="19" width="1" height="1" /><rect shape-rendering="crispEdges" fill="rgb(255, 180, 115)"  x="24" y="20" width="1" height="1" /><rect shape-rendering="crispEdges" fill="rgb(222, 148, 65)"  x="24" y="21" width="1" height="1" /><rect shape-rendering="crispEdges" fill="rgb(164, 82, 8)"  x="24" y="22" width="1" height="1" /><rect shape-rendering="crispEdges" fill="rgb(213, 57, 41)"  x="24" y="28" width="1" height="1" /><rect shape-rendering="crispEdges" fill="rgb(189, 106, 32)"  x="25" y="18" width="1" height="1" /><rect shape-rendering="crispEdges" fill="rgb(246, 172, 90)"  x="25" y="19" width="1" height="1" /><rect shape-rendering="crispEdges" fill="rgb(255, 180, 98)"  x="25" y="20" width="1" height="1" /><rect shape-rendering="crispEdges" fill="rgb(189, 106, 32)"  x="25" y="21" width="1" height="1" /><rect shape-rendering="crispEdges" fill="rgb(189, 106, 32)"  x="26" y="17" width="1" height="1" /><rect shape-rendering="crispEdges" fill="rgb(246, 164, 90)"  x="26" y="18" width="1" height="1" /><rect shape-rendering="crispEdges" fill="rgb(255, 172, 98)"  x="26" y="19" width="1" height="1" /><rect shape-rendering="crispEdges" fill="rgb(222, 148, 65)"  x="26" y="20" width="1" height="1" /><rect shape-rendering="crispEdges" fill="rgb(164, 82, 8)"  x="26" y="21" width="1" height="1" /><rect shape-rendering="crispEdges" fill="rgb(189, 106, 32)"  x="27" y="17" width="1" height="1" /><rect shape-rendering="crispEdges" fill="rgb(230, 148, 74)"  x="27" y="18" width="1" height="1" /><rect shape-rendering="crispEdges" fill="rgb(189, 106, 32)"  x="27" y="19" width="1" height="1" /><rect shape-rendering="crispEdges" fill="rgb(222, 148, 65)"  x="27" y="20" width="1" height="1" /><rect shape-rendering="crispEdges" fill="rgb(164, 82, 8)"  x="27" y="21" width="1" height="1" /><rect shape-rendering="crispEdges" fill="rgb(164, 82, 8)"  x="28" y="18" width="1" height="1" /><rect shape-rendering="crispEdges" fill="rgb(164, 82, 8)"  x="28" y="20" width="1" height="1" /></svg>