<svg xmlns="http://www.w3.org/2000/svg" xmlns:xlink= "http://www.w3.org/1999/xlink" width="32" height="32" viewBox ="0 0 32 32"><rect shape-rendering="crispEdges" fill="rgb(209, 217, 27)"  x="2" y="8" width="1" height="1" /><rect shape-rendering="crispEdges" fill="rgb(126, 131, 28)"  x="3" y="7" width="1" height="1" /><rect shape-rendering="crispEdges" fill="rgb(231, 237, 90)"  x="3" y="8" width="1" height="1" /><rect shape-rendering="crispEdges" fill="rgb(244, 248, 114)"  x="3" y="9" width="1" height="1" /><rect shape-rendering="crispEdges" fill="rgb(185, 44, 225)"  x="3" y="23" width="1" height="1" /><rect shape-rendering="crispEdges" fill="rgb(115, 119, 38)"  x="4" y="6" width="1" height="1" /><rect shape-rendering="crispEdges" fill="rgb(170, 175, 72)"  x="4" y="7" width="1" height="1" /><rect shape-rendering="crispEdges" fill="rgb(248, 252, 161)"  x="4" y="8" width="1" height="1" /><rect shape-rendering="crispEdges" fill="rgb(248, 252, 168)"  x="4" y="9" width="1" height="1" /><rect shape-rendering="crispEdges" fill="rgb(183, 187, 77)"  x="4" y="10" width="1" height="1" /><rect shape-rendering="crispEdges" fill="rgb(134, 141, 43)"  x="4" y="11" width="1" height="1" /><rect shape-rendering="crispEdges" fill="rgb(141, 94, 8)"  x="4" y="14" width="1" height="1" /><rect shape-rendering="crispEdges" fill="rgb(225, 146, 245)"  x="4" y="23" width="1" height="1" /><rect shape-rendering="crispEdges" fill="rgb(211, 110, 234)"  x="4" y="24" width="1" height="1" /><rect shape-rendering="crispEdges" fill="rgb(156, 160, 45)"  x="5" y="5" width="1" height="1" /><rect shape-rendering="crispEdges" fill="rgb(187, 188, 53)"  x="5" y="6" width="1" height="1" /><rect shape-rendering="crispEdges" fill="rgb(217, 222, 122)"  x="5" y="7" width="1" height="1" /><rect shape-rendering="crispEdges" fill="rgb(248, 252, 203)"  x="5" y="8" width="1" height="1" /><rect shape-rendering="crispEdges" fill="rgb(246, 251, 224)"  x="5" y="9" width="1" height="1" /><rect shape-rendering="crispEdges" fill="rgb(237, 244, 163)"  x="5" y="10" width="1" height="1" /><rect shape-rendering="crispEdges" fill="rgb(233, 238, 137)"  x="5" y="11" width="1" height="1" /><rect shape-rendering="crispEdges" fill="rgb(242, 246, 155)"  x="5" y="12" width="1" height="1" /><rect shape-rendering="crispEdges" fill="rgb(240, 248, 72)"  x="5" y="13" width="1" height="1" /><rect shape-rendering="crispEdges" fill="rgb(199, 205, 24)"  x="5" y="14" width="1" height="1" /><rect shape-rendering="crispEdges" fill="rgb(198, 101, 220)"  x="5" y="21" width="1" height="1" /><rect shape-rendering="crispEdges" fill="rgb(230, 166, 248)"  x="5" y="22" width="1" height="1" /><rect shape-rendering="crispEdges" fill="rgb(238, 225, 248)"  x="5" y="23" width="1" height="1" /><rect shape-rendering="crispEdges" fill="rgb(236, 209, 248)"  x="5" y="24" width="1" height="1" /><rect shape-rendering="crispEdges" fill="rgb(227, 136, 248)"  x="5" y="25" width="1" height="1" /><rect shape-rendering="crispEdges" fill="rgb(200, 32, 248)"  x="5" y="26" width="1" height="1" /><rect shape-rendering="crispEdges" fill="rgb(195, 26, 243)"  x="5" y="27" width="1" height="1" /><rect shape-rendering="crispEdges" fill="rgb(230, 234, 47)"  x="6" y="4" width="1" height="1" /><rect shape-rendering="crispEdges" fill="rgb(248, 252, 120)"  x="6" y="5" width="1" height="1" /><rect shape-rendering="crispEdges" fill="rgb(248, 252, 192)"  x="6" y="6" width="1" height="1" /><rect shape-rendering="crispEdges" fill="rgb(248, 252, 192)"  x="6" y="7" width="1" height="1" /><rect shape-rendering="crispEdges" fill="rgb(248, 252, 241)"  x="6" y="8" width="1" height="1" /><rect shape-rendering="crispEdges" fill="rgb(248, 252, 247)"  x="6" y="9" width="1" height="1" /><rect shape-rendering="crispEdges" fill="rgb(248, 252, 240)"  x="6" y="10" width="1" height="1" /><rect shape-rendering="crispEdges" fill="rgb(248, 252, 187)"  x="6" y="11" width="1" height="1" /><rect shape-rendering="crispEdges" fill="rgb(245, 250, 144)"  x="6" y="12" width="1" height="1" /><rect shape-rendering="crispEdges" fill="rgb(177, 185, 40)"  x="6" y="13" width="1" height="1" /><rect shape-rendering="crispEdges" fill="rgb(202, 24, 15)"  x="6" y="14" width="1" height="1" /><rect shape-rendering="crispEdges" fill="rgb(211, 20, 23)"  x="6" y="15" width="1" height="1" /><rect shape-rendering="crispEdges" fill="rgb(190, 89, 214)"  x="6" y="20" width="1" height="1" /><rect shape-rendering="crispEdges" fill="rgb(232, 140, 248)"  x="6" y="21" width="1" height="1" /><rect shape-rendering="crispEdges" fill="rgb(237, 216, 248)"  x="6" y="22" width="1" height="1" /><rect shape-rendering="crispEdges" fill="rgb(240, 236, 248)"  x="6" y="23" width="1" height="1" /><rect shape-rendering="crispEdges" fill="rgb(240, 236, 248)"  x="6" y="24" width="1" height="1" /><rect shape-rendering="crispEdges" fill="rgb(236, 205, 248)"  x="6" y="25" width="1" height="1" /><rect shape-rendering="crispEdges" fill="rgb(210, 124, 233)"  x="6" y="26" width="1" height="1" /><rect shape-rendering="crispEdges" fill="rgb(220, 224, 97)"  x="7" y="5" width="1" height="1" /><rect shape-rendering="crispEdges" fill="rgb(246, 250, 187)"  x="7" y="6" width="1" height="1" /><rect shape-rendering="crispEdges" fill="rgb(248, 252, 208)"  x="7" y="7" width="1" height="1" /><rect shape-rendering="crispEdges" fill="rgb(248, 252, 248)"  x="7" y="8" width="1" height="1" /><rect shape-rendering="crispEdges" fill="rgb(248, 252, 248)"  x="7" y="9" width="1" height="1" /><rect shape-rendering="crispEdges" fill="rgb(248, 252, 240)"  x="7" y="10" width="1" height="1" /><rect shape-rendering="crispEdges" fill="rgb(241, 246, 177)"  x="7" y="11" width="1" height="1" /><rect shape-rendering="crispEdges" fill="rgb(187, 194, 74)"  x="7" y="12" width="1" height="1" /><rect shape-rendering="crispEdges" fill="rgb(199, 25, 23)"  x="7" y="14" width="1" height="1" /><rect shape-rendering="crispEdges" fill="rgb(213, 41, 41)"  x="7" y="15" width="1" height="1" /><rect shape-rendering="crispEdges" fill="rgb(200, 107, 221)"  x="7" y="21" width="1" height="1" /><rect shape-rendering="crispEdges" fill="rgb(236, 210, 248)"  x="7" y="22" width="1" height="1" /><rect shape-rendering="crispEdges" fill="rgb(240, 236, 248)"  x="7" y="23" width="1" height="1" /><rect shape-rendering="crispEdges" fill="rgb(240, 236, 248)"  x="7" y="24" width="1" height="1" /><rect shape-rendering="crispEdges" fill="rgb(232, 166, 248)"  x="7" y="25" width="1" height="1" /><rect shape-rendering="crispEdges" fill="rgb(127, 127, 40)"  x="8" y="5" width="1" height="1" /><rect shape-rendering="crispEdges" fill="rgb(192, 196, 93)"  x="8" y="6" width="1" height="1" /><rect shape-rendering="crispEdges" fill="rgb(248, 252, 197)"  x="8" y="7" width="1" height="1" /><rect shape-rendering="crispEdges" fill="rgb(248, 252, 248)"  x="8" y="8" width="1" height="1" /><rect shape-rendering="crispEdges" fill="rgb(248, 252, 248)"  x="8" y="9" width="1" height="1" /><rect shape-rendering="crispEdges" fill="rgb(248, 252, 225)"  x="8" y="10" width="1" height="1" /><rect shape-rendering="crispEdges" fill="rgb(230, 234, 151)"  x="8" y="11" width="1" height="1" /><rect shape-rendering="crispEdges" fill="rgb(154, 160, 57)"  x="8" y="12" width="1" height="1" /><rect shape-rendering="crispEdges" fill="rgb(208, 59, 58)"  x="8" y="14" width="1" height="1" /><rect shape-rendering="crispEdges" fill="rgb(242, 121, 117)"  x="8" y="15" width="1" height="1" /><rect shape-rendering="crispEdges" fill="rgb(209, 55, 51)"  x="8" y="16" width="1" height="1" /><rect shape-rendering="crispEdges" fill="rgb(139, 44, 44)"  x="8" y="17" width="1" height="1" /><rect shape-rendering="crispEdges" fill="rgb(230, 167, 247)"  x="8" y="22" width="1" height="1" /><rect shape-rendering="crispEdges" fill="rgb(234, 180, 248)"  x="8" y="23" width="1" height="1" /><rect shape-rendering="crispEdges" fill="rgb(233, 208, 248)"  x="8" y="24" width="1" height="1" /><rect shape-rendering="crispEdges" fill="rgb(232, 156, 248)"  x="8" y="25" width="1" height="1" /><rect shape-rendering="crispEdges" fill="rgb(116, 118, 37)"  x="9" y="5" width="1" height="1" /><rect shape-rendering="crispEdges" fill="rgb(194, 201, 89)"  x="9" y="6" width="1" height="1" /><rect shape-rendering="crispEdges" fill="rgb(248, 252, 205)"  x="9" y="7" width="1" height="1" /><rect shape-rendering="crispEdges" fill="rgb(248, 252, 232)"  x="9" y="8" width="1" height="1" /><rect shape-rendering="crispEdges" fill="rgb(248, 248, 168)"  x="9" y="9" width="1" height="1" /><rect shape-rendering="crispEdges" fill="rgb(248, 252, 171)"  x="9" y="10" width="1" height="1" /><rect shape-rendering="crispEdges" fill="rgb(248, 252, 184)"  x="9" y="11" width="1" height="1" /><rect shape-rendering="crispEdges" fill="rgb(161, 168, 60)"  x="9" y="12" width="1" height="1" /><rect shape-rendering="crispEdges" fill="rgb(197, 71, 71)"  x="9" y="14" width="1" height="1" /><rect shape-rendering="crispEdges" fill="rgb(248, 177, 173)"  x="9" y="15" width="1" height="1" /><rect shape-rendering="crispEdges" fill="rgb(244, 119, 115)"  x="9" y="16" width="1" height="1" /><rect shape-rendering="crispEdges" fill="rgb(187, 78, 75)"  x="9" y="17" width="1" height="1" /><rect shape-rendering="crispEdges" fill="rgb(161, 62, 59)"  x="9" y="18" width="1" height="1" /><rect shape-rendering="crispEdges" fill="rgb(134, 46, 46)"  x="9" y="19" width="1" height="1" /><rect shape-rendering="crispEdges" fill="rgb(129, 44, 44)"  x="9" y="20" width="1" height="1" /><rect shape-rendering="crispEdges" fill="rgb(153, 2, 192)"  x="9" y="21" width="1" height="1" /><rect shape-rendering="crispEdges" fill="rgb(207, 113, 237)"  x="9" y="22" width="1" height="1" /><rect shape-rendering="crispEdges" fill="rgb(193, 99, 217)"  x="9" y="23" width="1" height="1" /><rect shape-rendering="crispEdges" fill="rgb(174, 81, 203)"  x="9" y="24" width="1" height="1" /><rect shape-rendering="crispEdges" fill="rgb(200, 59, 221)"  x="9" y="25" width="1" height="1" /><rect shape-rendering="crispEdges" fill="rgb(207, 215, 56)"  x="10" y="6" width="1" height="1" /><rect shape-rendering="crispEdges" fill="rgb(240, 248, 120)"  x="10" y="7" width="1" height="1" /><rect shape-rendering="crispEdges" fill="rgb(228, 232, 120)"  x="10" y="8" width="1" height="1" /><rect shape-rendering="crispEdges" fill="rgb(178, 186, 67)"  x="10" y="9" width="1" height="1" /><rect shape-rendering="crispEdges" fill="rgb(215, 222, 93)"  x="10" y="10" width="1" height="1" /><rect shape-rendering="crispEdges" fill="rgb(248, 252, 164)"  x="10" y="11" width="1" height="1" /><rect shape-rendering="crispEdges" fill="rgb(219, 223, 62)"  x="10" y="12" width="1" height="1" /><rect shape-rendering="crispEdges" fill="rgb(152, 57, 48)"  x="10" y="13" width="1" height="1" /><rect shape-rendering="crispEdges" fill="rgb(215, 99, 99)"  x="10" y="14" width="1" height="1" /><rect shape-rendering="crispEdges" fill="rgb(248, 194, 189)"  x="10" y="15" width="1" height="1" /><rect shape-rendering="crispEdges" fill="rgb(248, 195, 189)"  x="10" y="16" width="1" height="1" /><rect shape-rendering="crispEdges" fill="rgb(240, 125, 121)"  x="10" y="17" width="1" height="1" /><rect shape-rendering="crispEdges" fill="rgb(194, 88, 84)"  x="10" y="18" width="1" height="1" /><rect shape-rendering="crispEdges" fill="rgb(191, 78, 78)"  x="10" y="19" width="1" height="1" /><rect shape-rendering="crispEdges" fill="rgb(191, 78, 78)"  x="10" y="20" width="1" height="1" /><rect shape-rendering="crispEdges" fill="rgb(153, 21, 137)"  x="10" y="21" width="1" height="1" /><rect shape-rendering="crispEdges" fill="rgb(155, 24, 133)"  x="10" y="22" width="1" height="1" /><rect shape-rendering="crispEdges" fill="rgb(225, 37, 37)"  x="10" y="23" width="1" height="1" /><rect shape-rendering="crispEdges" fill="rgb(182, 12, 30)"  x="10" y="24" width="1" height="1" /><rect shape-rendering="crispEdges" fill="rgb(233, 242, 61)"  x="11" y="6" width="1" height="1" /><rect shape-rendering="crispEdges" fill="rgb(211, 219, 89)"  x="11" y="7" width="1" height="1" /><rect shape-rendering="crispEdges" fill="rgb(130, 135, 44)"  x="11" y="8" width="1" height="1" /><rect shape-rendering="crispEdges" fill="rgb(115, 122, 35)"  x="11" y="9" width="1" height="1" /><rect shape-rendering="crispEdges" fill="rgb(116, 120, 30)"  x="11" y="10" width="1" height="1" /><rect shape-rendering="crispEdges" fill="rgb(222, 226, 35)"  x="11" y="12" width="1" height="1" /><rect shape-rendering="crispEdges" fill="rgb(150, 105, 43)"  x="11" y="13" width="1" height="1" /><rect shape-rendering="crispEdges" fill="rgb(206, 109, 109)"  x="11" y="14" width="1" height="1" /><rect shape-rendering="crispEdges" fill="rgb(248, 207, 204)"  x="11" y="15" width="1" height="1" /><rect shape-rendering="crispEdges" fill="rgb(248, 247, 247)"  x="11" y="16" width="1" height="1" /><rect shape-rendering="crispEdges" fill="rgb(242, 172, 171)"  x="11" y="17" width="1" height="1" /><rect shape-rendering="crispEdges" fill="rgb(240, 145, 145)"  x="11" y="18" width="1" height="1" /><rect shape-rendering="crispEdges" fill="rgb(240, 141, 137)"  x="11" y="19" width="1" height="1" /><rect shape-rendering="crispEdges" fill="rgb(240, 142, 138)"  x="11" y="20" width="1" height="1" /><rect shape-rendering="crispEdges" fill="rgb(200, 120, 154)"  x="11" y="21" width="1" height="1" /><rect shape-rendering="crispEdges" fill="rgb(237, 130, 130)"  x="11" y="22" width="1" height="1" /><rect shape-rendering="crispEdges" fill="rgb(192, 46, 47)"  x="11" y="23" width="1" height="1" /><rect shape-rendering="crispEdges" fill="rgb(207, 214, 19)"  x="12" y="6" width="1" height="1" /><rect shape-rendering="crispEdges" fill="rgb(129, 42, 43)"  x="12" y="11" width="1" height="1" /><rect shape-rendering="crispEdges" fill="rgb(147, 87, 50)"  x="12" y="12" width="1" height="1" /><rect shape-rendering="crispEdges" fill="rgb(168, 168, 11)"  x="12" y="13" width="1" height="1" /><rect shape-rendering="crispEdges" fill="rgb(222, 138, 133)"  x="12" y="14" width="1" height="1" /><rect shape-rendering="crispEdges" fill="rgb(248, 218, 215)"  x="12" y="15" width="1" height="1" /><rect shape-rendering="crispEdges" fill="rgb(248, 248, 248)"  x="12" y="16" width="1" height="1" /><rect shape-rendering="crispEdges" fill="rgb(248, 239, 235)"  x="12" y="17" width="1" height="1" /><rect shape-rendering="crispEdges" fill="rgb(246, 217, 214)"  x="12" y="18" width="1" height="1" /><rect shape-rendering="crispEdges" fill="rgb(247, 226, 218)"  x="12" y="19" width="1" height="1" /><rect shape-rendering="crispEdges" fill="rgb(248, 240, 232)"  x="12" y="20" width="1" height="1" /><rect shape-rendering="crispEdges" fill="rgb(243, 172, 172)"  x="12" y="21" width="1" height="1" /><rect shape-rendering="crispEdges" fill="rgb(232, 91, 91)"  x="12" y="22" width="1" height="1" /><rect shape-rendering="crispEdges" fill="rgb(193, 38, 34)"  x="13" y="10" width="1" height="1" /><rect shape-rendering="crispEdges" fill="rgb(206, 57, 55)"  x="13" y="11" width="1" height="1" /><rect shape-rendering="crispEdges" fill="rgb(227, 94, 94)"  x="13" y="12" width="1" height="1" /><rect shape-rendering="crispEdges" fill="rgb(243, 153, 152)"  x="13" y="13" width="1" height="1" /><rect shape-rendering="crispEdges" fill="rgb(248, 184, 183)"  x="13" y="14" width="1" height="1" /><rect shape-rendering="crispEdges" fill="rgb(248, 237, 233)"  x="13" y="15" width="1" height="1" /><rect shape-rendering="crispEdges" fill="rgb(248, 252, 248)"  x="13" y="16" width="1" height="1" /><rect shape-rendering="crispEdges" fill="rgb(248, 248, 248)"  x="13" y="17" width="1" height="1" /><rect shape-rendering="crispEdges" fill="rgb(248, 248, 248)"  x="13" y="18" width="1" height="1" /><rect shape-rendering="crispEdges" fill="rgb(248, 244, 240)"  x="13" y="19" width="1" height="1" /><rect shape-rendering="crispEdges" fill="rgb(248, 217, 213)"  x="13" y="20" width="1" height="1" /><rect shape-rendering="crispEdges" fill="rgb(227, 123, 123)"  x="13" y="21" width="1" height="1" /><rect shape-rendering="crispEdges" fill="rgb(170, 66, 66)"  x="13" y="22" width="1" height="1" /><rect shape-rendering="crispEdges" fill="rgb(205, 18, 21)"  x="14" y="8" width="1" height="1" /><rect shape-rendering="crispEdges" fill="rgb(232, 20, 24)"  x="14" y="9" width="1" height="1" /><rect shape-rendering="crispEdges" fill="rgb(222, 95, 93)"  x="14" y="10" width="1" height="1" /><rect shape-rendering="crispEdges" fill="rgb(238, 138, 137)"  x="14" y="11" width="1" height="1" /><rect shape-rendering="crispEdges" fill="rgb(244, 192, 192)"  x="14" y="12" width="1" height="1" /><rect shape-rendering="crispEdges" fill="rgb(248, 223, 221)"  x="14" y="13" width="1" height="1" /><rect shape-rendering="crispEdges" fill="rgb(248, 244, 240)"  x="14" y="14" width="1" height="1" /><rect shape-rendering="crispEdges" fill="rgb(248, 251, 247)"  x="14" y="15" width="1" height="1" /><rect shape-rendering="crispEdges" fill="rgb(248, 252, 248)"  x="14" y="16" width="1" height="1" /><rect shape-rendering="crispEdges" fill="rgb(248, 248, 248)"  x="14" y="17" width="1" height="1" /><rect shape-rendering="crispEdges" fill="rgb(248, 248, 248)"  x="14" y="18" width="1" height="1" /><rect shape-rendering="crispEdges" fill="rgb(248, 238, 234)"  x="14" y="19" width="1" height="1" /><rect shape-rendering="crispEdges" fill="rgb(248, 173, 169)"  x="14" y="20" width="1" height="1" /><rect shape-rendering="crispEdges" fill="rgb(201, 97, 97)"  x="14" y="21" width="1" height="1" /><rect shape-rendering="crispEdges" fill="rgb(170, 66, 66)"  x="14" y="22" width="1" height="1" /><rect shape-rendering="crispEdges" fill="rgb(201, 18, 21)"  x="15" y="8" width="1" height="1" /><rect shape-rendering="crispEdges" fill="rgb(232, 20, 24)"  x="15" y="9" width="1" height="1" /><rect shape-rendering="crispEdges" fill="rgb(221, 92, 90)"  x="15" y="10" width="1" height="1" /><rect shape-rendering="crispEdges" fill="rgb(237, 134, 133)"  x="15" y="11" width="1" height="1" /><rect shape-rendering="crispEdges" fill="rgb(243, 189, 189)"  x="15" y="12" width="1" height="1" /><rect shape-rendering="crispEdges" fill="rgb(248, 222, 220)"  x="15" y="13" width="1" height="1" /><rect shape-rendering="crispEdges" fill="rgb(248, 244, 240)"  x="15" y="14" width="1" height="1" /><rect shape-rendering="crispEdges" fill="rgb(248, 251, 247)"  x="15" y="15" width="1" height="1" /><rect shape-rendering="crispEdges" fill="rgb(248, 252, 248)"  x="15" y="16" width="1" height="1" /><rect shape-rendering="crispEdges" fill="rgb(248, 248, 248)"  x="15" y="17" width="1" height="1" /><rect shape-rendering="crispEdges" fill="rgb(248, 248, 248)"  x="15" y="18" width="1" height="1" /><rect shape-rendering="crispEdges" fill="rgb(248, 233, 226)"  x="15" y="19" width="1" height="1" /><rect shape-rendering="crispEdges" fill="rgb(248, 168, 163)"  x="15" y="20" width="1" height="1" /><rect shape-rendering="crispEdges" fill="rgb(201, 97, 97)"  x="15" y="21" width="1" height="1" /><rect shape-rendering="crispEdges" fill="rgb(170, 66, 66)"  x="15" y="22" width="1" height="1" /><rect shape-rendering="crispEdges" fill="rgb(193, 37, 33)"  x="16" y="10" width="1" height="1" /><rect shape-rendering="crispEdges" fill="rgb(205, 57, 53)"  x="16" y="11" width="1" height="1" /><rect shape-rendering="crispEdges" fill="rgb(193, 82, 93)"  x="16" y="12" width="1" height="1" /><rect shape-rendering="crispEdges" fill="rgb(27, 26, 142)"  x="16" y="13" width="1" height="1" /><rect shape-rendering="crispEdges" fill="rgb(244, 182, 180)"  x="16" y="14" width="1" height="1" /><rect shape-rendering="crispEdges" fill="rgb(248, 239, 238)"  x="16" y="15" width="1" height="1" /><rect shape-rendering="crispEdges" fill="rgb(248, 252, 248)"  x="16" y="16" width="1" height="1" /><rect shape-rendering="crispEdges" fill="rgb(248, 248, 248)"  x="16" y="17" width="1" height="1" /><rect shape-rendering="crispEdges" fill="rgb(248, 248, 248)"  x="16" y="18" width="1" height="1" /><rect shape-rendering="crispEdges" fill="rgb(201, 223, 198)"  x="16" y="19" width="1" height="1" /><rect shape-rendering="crispEdges" fill="rgb(90, 166, 91)"  x="16" y="20" width="1" height="1" /><rect shape-rendering="crispEdges" fill="rgb(227, 123, 123)"  x="16" y="21" width="1" height="1" /><rect shape-rendering="crispEdges" fill="rgb(170, 66, 66)"  x="16" y="22" width="1" height="1" /><rect shape-rendering="crispEdges" fill="rgb(19, 38, 237)"  x="17" y="5" width="1" height="1" /><rect shape-rendering="crispEdges" fill="rgb(29, 48, 221)"  x="17" y="6" width="1" height="1" /><rect shape-rendering="crispEdges" fill="rgb(39, 28, 135)"  x="17" y="11" width="1" height="1" /><rect shape-rendering="crispEdges" fill="rgb(31, 36, 183)"  x="17" y="12" width="1" height="1" /><rect shape-rendering="crispEdges" fill="rgb(34, 27, 160)"  x="17" y="13" width="1" height="1" /><rect shape-rendering="crispEdges" fill="rgb(227, 148, 150)"  x="17" y="14" width="1" height="1" /><rect shape-rendering="crispEdges" fill="rgb(248, 230, 228)"  x="17" y="15" width="1" height="1" /><rect shape-rendering="crispEdges" fill="rgb(248, 248, 248)"  x="17" y="16" width="1" height="1" /><rect shape-rendering="crispEdges" fill="rgb(247, 234, 234)"  x="17" y="17" width="1" height="1" /><rect shape-rendering="crispEdges" fill="rgb(245, 210, 208)"  x="17" y="18" width="1" height="1" /><rect shape-rendering="crispEdges" fill="rgb(248, 224, 223)"  x="17" y="19" width="1" height="1" /><rect shape-rendering="crispEdges" fill="rgb(17, 219, 50)"  x="17" y="20" width="1" height="1" /><rect shape-rendering="crispEdges" fill="rgb(90, 175, 83)"  x="17" y="21" width="1" height="1" /><rect shape-rendering="crispEdges" fill="rgb(231, 87, 83)"  x="17" y="22" width="1" height="1" /><rect shape-rendering="crispEdges" fill="rgb(47, 51, 180)"  x="18" y="5" width="1" height="1" /><rect shape-rendering="crispEdges" fill="rgb(151, 164, 242)"  x="18" y="6" width="1" height="1" /><rect shape-rendering="crispEdges" fill="rgb(77, 89, 211)"  x="18" y="7" width="1" height="1" /><rect shape-rendering="crispEdges" fill="rgb(64, 68, 167)"  x="18" y="8" width="1" height="1" /><rect shape-rendering="crispEdges" fill="rgb(55, 59, 170)"  x="18" y="9" width="1" height="1" /><rect shape-rendering="crispEdges" fill="rgb(56, 63, 192)"  x="18" y="10" width="1" height="1" /><rect shape-rendering="crispEdges" fill="rgb(76, 91, 223)"  x="18" y="11" width="1" height="1" /><rect shape-rendering="crispEdges" fill="rgb(41, 57, 207)"  x="18" y="12" width="1" height="1" /><rect shape-rendering="crispEdges" fill="rgb(166, 77, 90)"  x="18" y="13" width="1" height="1" /><rect shape-rendering="crispEdges" fill="rgb(224, 123, 120)"  x="18" y="14" width="1" height="1" /><rect shape-rendering="crispEdges" fill="rgb(248, 230, 228)"  x="18" y="15" width="1" height="1" /><rect shape-rendering="crispEdges" fill="rgb(248, 234, 231)"  x="18" y="16" width="1" height="1" /><rect shape-rendering="crispEdges" fill="rgb(242, 165, 163)"  x="18" y="17" width="1" height="1" /><rect shape-rendering="crispEdges" fill="rgb(239, 138, 134)"  x="18" y="18" width="1" height="1" /><rect shape-rendering="crispEdges" fill="rgb(247, 138, 134)"  x="18" y="19" width="1" height="1" /><rect shape-rendering="crispEdges" fill="rgb(58, 171, 60)"  x="18" y="20" width="1" height="1" /><rect shape-rendering="crispEdges" fill="rgb(70, 236, 104)"  x="18" y="21" width="1" height="1" /><rect shape-rendering="crispEdges" fill="rgb(23, 189, 45)"  x="18" y="22" width="1" height="1" /><rect shape-rendering="crispEdges" fill="rgb(33, 114, 33)"  x="18" y="23" width="1" height="1" /><rect shape-rendering="crispEdges" fill="rgb(30, 114, 32)"  x="18" y="24" width="1" height="1" /><rect shape-rendering="crispEdges" fill="rgb(52, 243, 92)"  x="18" y="27" width="1" height="1" /><rect shape-rendering="crispEdges" fill="rgb(59, 65, 192)"  x="19" y="5" width="1" height="1" /><rect shape-rendering="crispEdges" fill="rgb(177, 188, 246)"  x="19" y="6" width="1" height="1" /><rect shape-rendering="crispEdges" fill="rgb(185, 195, 248)"  x="19" y="7" width="1" height="1" /><rect shape-rendering="crispEdges" fill="rgb(113, 122, 215)"  x="19" y="8" width="1" height="1" /><rect shape-rendering="crispEdges" fill="rgb(133, 143, 223)"  x="19" y="9" width="1" height="1" /><rect shape-rendering="crispEdges" fill="rgb(166, 174, 236)"  x="19" y="10" width="1" height="1" /><rect shape-rendering="crispEdges" fill="rgb(139, 150, 238)"  x="19" y="11" width="1" height="1" /><rect shape-rendering="crispEdges" fill="rgb(32, 47, 202)"  x="19" y="12" width="1" height="1" /><rect shape-rendering="crispEdges" fill="rgb(147, 49, 64)"  x="19" y="13" width="1" height="1" /><rect shape-rendering="crispEdges" fill="rgb(225, 116, 114)"  x="19" y="14" width="1" height="1" /><rect shape-rendering="crispEdges" fill="rgb(248, 221, 218)"  x="19" y="15" width="1" height="1" /><rect shape-rendering="crispEdges" fill="rgb(245, 175, 171)"  x="19" y="16" width="1" height="1" /><rect shape-rendering="crispEdges" fill="rgb(211, 107, 103)"  x="19" y="17" width="1" height="1" /><rect shape-rendering="crispEdges" fill="rgb(187, 85, 81)"  x="19" y="18" width="1" height="1" /><rect shape-rendering="crispEdges" fill="rgb(185, 77, 76)"  x="19" y="19" width="1" height="1" /><rect shape-rendering="crispEdges" fill="rgb(33, 156, 51)"  x="19" y="20" width="1" height="1" /><rect shape-rendering="crispEdges" fill="rgb(135, 252, 167)"  x="19" y="21" width="1" height="1" /><rect shape-rendering="crispEdges" fill="rgb(132, 250, 164)"  x="19" y="22" width="1" height="1" /><rect shape-rendering="crispEdges" fill="rgb(85, 202, 98)"  x="19" y="23" width="1" height="1" /><rect shape-rendering="crispEdges" fill="rgb(65, 200, 81)"  x="19" y="24" width="1" height="1" /><rect shape-rendering="crispEdges" fill="rgb(92, 224, 114)"  x="19" y="25" width="1" height="1" /><rect shape-rendering="crispEdges" fill="rgb(83, 247, 120)"  x="19" y="26" width="1" height="1" /><rect shape-rendering="crispEdges" fill="rgb(77, 81, 176)"  x="20" y="5" width="1" height="1" /><rect shape-rendering="crispEdges" fill="rgb(152, 164, 248)"  x="20" y="6" width="1" height="1" /><rect shape-rendering="crispEdges" fill="rgb(240, 248, 248)"  x="20" y="7" width="1" height="1" /><rect shape-rendering="crispEdges" fill="rgb(195, 207, 248)"  x="20" y="8" width="1" height="1" /><rect shape-rendering="crispEdges" fill="rgb(217, 227, 248)"  x="20" y="9" width="1" height="1" /><rect shape-rendering="crispEdges" fill="rgb(234, 242, 247)"  x="20" y="10" width="1" height="1" /><rect shape-rendering="crispEdges" fill="rgb(117, 125, 225)"  x="20" y="11" width="1" height="1" /><rect shape-rendering="crispEdges" fill="rgb(52, 52, 147)"  x="20" y="12" width="1" height="1" /><rect shape-rendering="crispEdges" fill="rgb(155, 42, 46)"  x="20" y="13" width="1" height="1" /><rect shape-rendering="crispEdges" fill="rgb(218, 86, 82)"  x="20" y="14" width="1" height="1" /><rect shape-rendering="crispEdges" fill="rgb(246, 160, 156)"  x="20" y="15" width="1" height="1" /><rect shape-rendering="crispEdges" fill="rgb(233, 95, 92)"  x="20" y="16" width="1" height="1" /><rect shape-rendering="crispEdges" fill="rgb(163, 64, 61)"  x="20" y="17" width="1" height="1" /><rect shape-rendering="crispEdges" fill="rgb(156, 60, 57)"  x="20" y="18" width="1" height="1" /><rect shape-rendering="crispEdges" fill="rgb(128, 44, 44)"  x="20" y="19" width="1" height="1" /><rect shape-rendering="crispEdges" fill="rgb(45, 133, 44)"  x="20" y="20" width="1" height="1" /><rect shape-rendering="crispEdges" fill="rgb(128, 240, 152)"  x="20" y="21" width="1" height="1" /><rect shape-rendering="crispEdges" fill="rgb(235, 252, 244)"  x="20" y="22" width="1" height="1" /><rect shape-rendering="crispEdges" fill="rgb(170, 243, 186)"  x="20" y="23" width="1" height="1" /><rect shape-rendering="crispEdges" fill="rgb(162, 241, 178)"  x="20" y="24" width="1" height="1" /><rect shape-rendering="crispEdges" fill="rgb(199, 252, 215)"  x="20" y="25" width="1" height="1" /><rect shape-rendering="crispEdges" fill="rgb(145, 237, 161)"  x="20" y="26" width="1" height="1" /><rect shape-rendering="crispEdges" fill="rgb(51, 150, 57)"  x="20" y="27" width="1" height="1" /><rect shape-rendering="crispEdges" fill="rgb(48, 53, 142)"  x="21" y="4" width="1" height="1" /><rect shape-rendering="crispEdges" fill="rgb(105, 112, 217)"  x="21" y="5" width="1" height="1" /><rect shape-rendering="crispEdges" fill="rgb(170, 177, 240)"  x="21" y="6" width="1" height="1" /><rect shape-rendering="crispEdges" fill="rgb(242, 247, 248)"  x="21" y="7" width="1" height="1" /><rect shape-rendering="crispEdges" fill="rgb(248, 252, 248)"  x="21" y="8" width="1" height="1" /><rect shape-rendering="crispEdges" fill="rgb(248, 252, 248)"  x="21" y="9" width="1" height="1" /><rect shape-rendering="crispEdges" fill="rgb(211, 219, 243)"  x="21" y="10" width="1" height="1" /><rect shape-rendering="crispEdges" fill="rgb(110, 118, 225)"  x="21" y="11" width="1" height="1" /><rect shape-rendering="crispEdges" fill="rgb(60, 62, 163)"  x="21" y="12" width="1" height="1" /><rect shape-rendering="crispEdges" fill="rgb(220, 67, 64)"  x="21" y="14" width="1" height="1" /><rect shape-rendering="crispEdges" fill="rgb(236, 102, 99)"  x="21" y="15" width="1" height="1" /><rect shape-rendering="crispEdges" fill="rgb(182, 40, 39)"  x="21" y="16" width="1" height="1" /><rect shape-rendering="crispEdges" fill="rgb(124, 40, 40)"  x="21" y="17" width="1" height="1" /><rect shape-rendering="crispEdges" fill="rgb(59, 148, 58)"  x="21" y="20" width="1" height="1" /><rect shape-rendering="crispEdges" fill="rgb(101, 223, 123)"  x="21" y="21" width="1" height="1" /><rect shape-rendering="crispEdges" fill="rgb(221, 252, 231)"  x="21" y="22" width="1" height="1" /><rect shape-rendering="crispEdges" fill="rgb(245, 252, 246)"  x="21" y="23" width="1" height="1" /><rect shape-rendering="crispEdges" fill="rgb(243, 252, 246)"  x="21" y="24" width="1" height="1" /><rect shape-rendering="crispEdges" fill="rgb(219, 251, 227)"  x="21" y="25" width="1" height="1" /><rect shape-rendering="crispEdges" fill="rgb(112, 229, 127)"  x="21" y="26" width="1" height="1" /><rect shape-rendering="crispEdges" fill="rgb(50, 147, 55)"  x="21" y="27" width="1" height="1" /><rect shape-rendering="crispEdges" fill="rgb(40, 48, 176)"  x="22" y="3" width="1" height="1" /><rect shape-rendering="crispEdges" fill="rgb(78, 87, 196)"  x="22" y="4" width="1" height="1" /><rect shape-rendering="crispEdges" fill="rgb(168, 176, 237)"  x="22" y="5" width="1" height="1" /><rect shape-rendering="crispEdges" fill="rgb(229, 237, 248)"  x="22" y="6" width="1" height="1" /><rect shape-rendering="crispEdges" fill="rgb(248, 252, 248)"  x="22" y="7" width="1" height="1" /><rect shape-rendering="crispEdges" fill="rgb(248, 252, 248)"  x="22" y="8" width="1" height="1" /><rect shape-rendering="crispEdges" fill="rgb(248, 252, 248)"  x="22" y="9" width="1" height="1" /><rect shape-rendering="crispEdges" fill="rgb(225, 230, 246)"  x="22" y="10" width="1" height="1" /><rect shape-rendering="crispEdges" fill="rgb(145, 152, 232)"  x="22" y="11" width="1" height="1" /><rect shape-rendering="crispEdges" fill="rgb(69, 72, 178)"  x="22" y="12" width="1" height="1" /><rect shape-rendering="crispEdges" fill="rgb(231, 27, 27)"  x="22" y="14" width="1" height="1" /><rect shape-rendering="crispEdges" fill="rgb(193, 33, 34)"  x="22" y="15" width="1" height="1" /><rect shape-rendering="crispEdges" fill="rgb(36, 140, 40)"  x="22" y="19" width="1" height="1" /><rect shape-rendering="crispEdges" fill="rgb(88, 214, 109)"  x="22" y="20" width="1" height="1" /><rect shape-rendering="crispEdges" fill="rgb(176, 241, 189)"  x="22" y="21" width="1" height="1" /><rect shape-rendering="crispEdges" fill="rgb(234, 252, 238)"  x="22" y="22" width="1" height="1" /><rect shape-rendering="crispEdges" fill="rgb(248, 252, 248)"  x="22" y="23" width="1" height="1" /><rect shape-rendering="crispEdges" fill="rgb(248, 252, 248)"  x="22" y="24" width="1" height="1" /><rect shape-rendering="crispEdges" fill="rgb(230, 252, 237)"  x="22" y="25" width="1" height="1" /><rect shape-rendering="crispEdges" fill="rgb(137, 234, 155)"  x="22" y="26" width="1" height="1" /><rect shape-rendering="crispEdges" fill="rgb(60, 167, 65)"  x="22" y="27" width="1" height="1" /><rect shape-rendering="crispEdges" fill="rgb(19, 33, 163)"  x="23" y="2" width="1" height="1" /><rect shape-rendering="crispEdges" fill="rgb(72, 86, 209)"  x="23" y="3" width="1" height="1" /><rect shape-rendering="crispEdges" fill="rgb(175, 187, 247)"  x="23" y="4" width="1" height="1" /><rect shape-rendering="crispEdges" fill="rgb(227, 235, 248)"  x="23" y="5" width="1" height="1" /><rect shape-rendering="crispEdges" fill="rgb(218, 226, 246)"  x="23" y="6" width="1" height="1" /><rect shape-rendering="crispEdges" fill="rgb(242, 246, 248)"  x="23" y="7" width="1" height="1" /><rect shape-rendering="crispEdges" fill="rgb(248, 252, 248)"  x="23" y="8" width="1" height="1" /><rect shape-rendering="crispEdges" fill="rgb(245, 249, 248)"  x="23" y="9" width="1" height="1" /><rect shape-rendering="crispEdges" fill="rgb(244, 248, 248)"  x="23" y="10" width="1" height="1" /><rect shape-rendering="crispEdges" fill="rgb(223, 228, 246)"  x="23" y="11" width="1" height="1" /><rect shape-rendering="crispEdges" fill="rgb(117, 129, 228)"  x="23" y="12" width="1" height="1" /><rect shape-rendering="crispEdges" fill="rgb(36, 45, 194)"  x="23" y="13" width="1" height="1" /><rect shape-rendering="crispEdges" fill="rgb(157, 14, 44)"  x="23" y="14" width="1" height="1" /><rect shape-rendering="crispEdges" fill="rgb(88, 212, 111)"  x="23" y="19" width="1" height="1" /><rect shape-rendering="crispEdges" fill="rgb(141, 252, 168)"  x="23" y="20" width="1" height="1" /><rect shape-rendering="crispEdges" fill="rgb(224, 252, 232)"  x="23" y="21" width="1" height="1" /><rect shape-rendering="crispEdges" fill="rgb(244, 252, 245)"  x="23" y="22" width="1" height="1" /><rect shape-rendering="crispEdges" fill="rgb(248, 252, 248)"  x="23" y="23" width="1" height="1" /><rect shape-rendering="crispEdges" fill="rgb(248, 252, 248)"  x="23" y="24" width="1" height="1" /><rect shape-rendering="crispEdges" fill="rgb(248, 252, 248)"  x="23" y="25" width="1" height="1" /><rect shape-rendering="crispEdges" fill="rgb(212, 250, 222)"  x="23" y="26" width="1" height="1" /><rect shape-rendering="crispEdges" fill="rgb(102, 228, 121)"  x="23" y="27" width="1" height="1" /><rect shape-rendering="crispEdges" fill="rgb(34, 169, 50)"  x="23" y="28" width="1" height="1" /><rect shape-rendering="crispEdges" fill="rgb(16, 28, 147)"  x="24" y="2" width="1" height="1" /><rect shape-rendering="crispEdges" fill="rgb(27, 43, 185)"  x="24" y="3" width="1" height="1" /><rect shape-rendering="crispEdges" fill="rgb(51, 60, 182)"  x="24" y="4" width="1" height="1" /><rect shape-rendering="crispEdges" fill="rgb(90, 99, 215)"  x="24" y="5" width="1" height="1" /><rect shape-rendering="crispEdges" fill="rgb(137, 145, 231)"  x="24" y="6" width="1" height="1" /><rect shape-rendering="crispEdges" fill="rgb(198, 206, 248)"  x="24" y="7" width="1" height="1" /><rect shape-rendering="crispEdges" fill="rgb(234, 241, 248)"  x="24" y="8" width="1" height="1" /><rect shape-rendering="crispEdges" fill="rgb(182, 189, 244)"  x="24" y="9" width="1" height="1" /><rect shape-rendering="crispEdges" fill="rgb(157, 163, 232)"  x="24" y="10" width="1" height="1" /><rect shape-rendering="crispEdges" fill="rgb(144, 154, 232)"  x="24" y="11" width="1" height="1" /><rect shape-rendering="crispEdges" fill="rgb(117, 128, 229)"  x="24" y="12" width="1" height="1" /><rect shape-rendering="crispEdges" fill="rgb(65, 77, 211)"  x="24" y="13" width="1" height="1" /><rect shape-rendering="crispEdges" fill="rgb(39, 26, 154)"  x="24" y="14" width="1" height="1" /><rect shape-rendering="crispEdges" fill="rgb(24, 228, 64)"  x="24" y="18" width="1" height="1" /><rect shape-rendering="crispEdges" fill="rgb(105, 233, 132)"  x="24" y="19" width="1" height="1" /><rect shape-rendering="crispEdges" fill="rgb(116, 247, 147)"  x="24" y="20" width="1" height="1" /><rect shape-rendering="crispEdges" fill="rgb(137, 231, 153)"  x="24" y="21" width="1" height="1" /><rect shape-rendering="crispEdges" fill="rgb(181, 243, 193)"  x="24" y="22" width="1" height="1" /><rect shape-rendering="crispEdges" fill="rgb(241, 252, 243)"  x="24" y="23" width="1" height="1" /><rect shape-rendering="crispEdges" fill="rgb(209, 252, 221)"  x="24" y="24" width="1" height="1" /><rect shape-rendering="crispEdges" fill="rgb(179, 246, 194)"  x="24" y="25" width="1" height="1" /><rect shape-rendering="crispEdges" fill="rgb(161, 241, 180)"  x="24" y="26" width="1" height="1" /><rect shape-rendering="crispEdges" fill="rgb(177, 245, 194)"  x="24" y="27" width="1" height="1" /><rect shape-rendering="crispEdges" fill="rgb(80, 248, 112)"  x="24" y="28" width="1" height="1" /><rect shape-rendering="crispEdges" fill="rgb(28, 180, 47)"  x="24" y="29" width="1" height="1" /><rect shape-rendering="crispEdges" fill="rgb(45, 48, 136)"  x="25" y="5" width="1" height="1" /><rect shape-rendering="crispEdges" fill="rgb(82, 87, 188)"  x="25" y="6" width="1" height="1" /><rect shape-rendering="crispEdges" fill="rgb(153, 162, 241)"  x="25" y="7" width="1" height="1" /><rect shape-rendering="crispEdges" fill="rgb(226, 234, 248)"  x="25" y="8" width="1" height="1" /><rect shape-rendering="crispEdges" fill="rgb(131, 138, 223)"  x="25" y="9" width="1" height="1" /><rect shape-rendering="crispEdges" fill="rgb(76, 80, 192)"  x="25" y="10" width="1" height="1" /><rect shape-rendering="crispEdges" fill="rgb(52, 59, 171)"  x="25" y="11" width="1" height="1" /><rect shape-rendering="crispEdges" fill="rgb(69, 168, 77)"  x="25" y="21" width="1" height="1" /><rect shape-rendering="crispEdges" fill="rgb(103, 225, 124)"  x="25" y="22" width="1" height="1" /><rect shape-rendering="crispEdges" fill="rgb(229, 252, 237)"  x="25" y="23" width="1" height="1" /><rect shape-rendering="crispEdges" fill="rgb(175, 246, 190)"  x="25" y="24" width="1" height="1" /><rect shape-rendering="crispEdges" fill="rgb(92, 206, 101)"  x="25" y="25" width="1" height="1" /><rect shape-rendering="crispEdges" fill="rgb(58, 195, 75)"  x="25" y="26" width="1" height="1" /><rect shape-rendering="crispEdges" fill="rgb(79, 97, 240)"  x="26" y="7" width="1" height="1" /><rect shape-rendering="crispEdges" fill="rgb(172, 188, 241)"  x="26" y="8" width="1" height="1" /><rect shape-rendering="crispEdges" fill="rgb(61, 69, 187)"  x="26" y="9" width="1" height="1" /><rect shape-rendering="crispEdges" fill="rgb(42, 45, 124)"  x="26" y="10" width="1" height="1" /><rect shape-rendering="crispEdges" fill="rgb(43, 123, 43)"  x="26" y="21" width="1" height="1" /><rect shape-rendering="crispEdges" fill="rgb(85, 199, 101)"  x="26" y="22" width="1" height="1" /><rect shape-rendering="crispEdges" fill="rgb(139, 252, 166)"  x="26" y="23" width="1" height="1" /><rect shape-rendering="crispEdges" fill="rgb(108, 241, 139)"  x="26" y="24" width="1" height="1" /><rect shape-rendering="crispEdges" fill="rgb(44, 134, 46)"  x="26" y="25" width="1" height="1" /><rect shape-rendering="crispEdges" fill="rgb(31, 114, 33)"  x="26" y="26" width="1" height="1" /><rect shape-rendering="crispEdges" fill="rgb(51, 65, 197)"  x="27" y="7" width="1" height="1" /><rect shape-rendering="crispEdges" fill="rgb(72, 84, 214)"  x="27" y="8" width="1" height="1" /><rect shape-rendering="crispEdges" fill="rgb(37, 153, 50)"  x="27" y="22" width="1" height="1" /><rect shape-rendering="crispEdges" fill="rgb(99, 248, 131)"  x="27" y="23" width="1" height="1" /><rect shape-rendering="crispEdges" fill="rgb(53, 191, 76)"  x="27" y="24" width="1" height="1" /><rect shape-rendering="crispEdges" fill="rgb(16, 250, 64)"  x="28" y="23" width="1" height="1" /><rect shape-rendering="crispEdges" fill="rgb(13, 188, 43)"  x="29" y="23" width="1" height="1" /></svg>