<svg xmlns="http://www.w3.org/2000/svg" xmlns:xlink= "http://www.w3.org/1999/xlink" width="32" height="32" viewBox ="0 0 32 32"><rect shape-rendering="crispEdges" fill="rgb(148, 90, 57)"  x="1" y="15" width="1" height="1" /><rect shape-rendering="crispEdges" fill="rgb(172, 106, 65)"  x="1" y="16" width="1" height="1" /><rect shape-rendering="crispEdges" fill="rgb(156, 82, 57)"  x="1" y="17" width="1" height="1" /><rect shape-rendering="crispEdges" fill="rgb(148, 90, 65)"  x="1" y="18" width="1" height="1" /><rect shape-rendering="crispEdges" fill="rgb(115, 148, 82)"  x="1" y="19" width="1" height="1" /><rect shape-rendering="crispEdges" fill="rgb(115, 148, 82)"  x="1" y="20" width="1" height="1" /><rect shape-rendering="crispEdges" fill="rgb(115, 148, 82)"  x="1" y="21" width="1" height="1" /><rect shape-rendering="crispEdges" fill="rgb(156, 98, 65)"  x="2" y="15" width="1" height="1" /><rect shape-rendering="crispEdges" fill="rgb(197, 131, 82)"  x="2" y="16" width="1" height="1" /><rect shape-rendering="crispEdges" fill="rgb(197, 123, 74)"  x="2" y="17" width="1" height="1" /><rect shape-rendering="crispEdges" fill="rgb(189, 131, 82)"  x="2" y="18" width="1" height="1" /><rect shape-rendering="crispEdges" fill="rgb(156, 164, 123)"  x="2" y="19" width="1" height="1" /><rect shape-rendering="crispEdges" fill="rgb(164, 197, 156)"  x="2" y="20" width="1" height="1" /><rect shape-rendering="crispEdges" fill="rgb(115, 148, 82)"  x="2" y="21" width="1" height="1" /><rect shape-rendering="crispEdges" fill="rgb(115, 148, 82)"  x="2" y="22" width="1" height="1" /><rect shape-rendering="crispEdges" fill="rgb(148, 90, 57)"  x="3" y="15" width="1" height="1" /><rect shape-rendering="crispEdges" fill="rgb(205, 139, 90)"  x="3" y="16" width="1" height="1" /><rect shape-rendering="crispEdges" fill="rgb(205, 156, 98)"  x="3" y="17" width="1" height="1" /><rect shape-rendering="crispEdges" fill="rgb(172, 106, 65)"  x="3" y="18" width="1" height="1" /><rect shape-rendering="crispEdges" fill="rgb(106, 131, 74)"  x="3" y="19" width="1" height="1" /><rect shape-rendering="crispEdges" fill="rgb(156, 222, 123)"  x="3" y="20" width="1" height="1" /><rect shape-rendering="crispEdges" fill="rgb(156, 222, 123)"  x="3" y="21" width="1" height="1" /><rect shape-rendering="crispEdges" fill="rgb(115, 148, 82)"  x="3" y="22" width="1" height="1" /><rect shape-rendering="crispEdges" fill="rgb(115, 148, 82)"  x="3" y="23" width="1" height="1" /><rect shape-rendering="crispEdges" fill="rgb(156, 82, 57)"  x="4" y="15" width="1" height="1" /><rect shape-rendering="crispEdges" fill="rgb(197, 131, 82)"  x="4" y="16" width="1" height="1" /><rect shape-rendering="crispEdges" fill="rgb(180, 115, 74)"  x="4" y="17" width="1" height="1" /><rect shape-rendering="crispEdges" fill="rgb(230, 172, 106)"  x="4" y="18" width="1" height="1" /><rect shape-rendering="crispEdges" fill="rgb(205, 115, 74)"  x="4" y="19" width="1" height="1" /><rect shape-rendering="crispEdges" fill="rgb(106, 131, 74)"  x="4" y="20" width="1" height="1" /><rect shape-rendering="crispEdges" fill="rgb(156, 222, 123)"  x="4" y="21" width="1" height="1" /><rect shape-rendering="crispEdges" fill="rgb(156, 222, 123)"  x="4" y="22" width="1" height="1" /><rect shape-rendering="crispEdges" fill="rgb(115, 148, 82)"  x="4" y="23" width="1" height="1" /><rect shape-rendering="crispEdges" fill="rgb(115, 148, 82)"  x="4" y="24" width="1" height="1" /><rect shape-rendering="crispEdges" fill="rgb(156, 90, 57)"  x="5" y="16" width="1" height="1" /><rect shape-rendering="crispEdges" fill="rgb(172, 106, 65)"  x="5" y="17" width="1" height="1" /><rect shape-rendering="crispEdges" fill="rgb(230, 164, 98)"  x="5" y="18" width="1" height="1" /><rect shape-rendering="crispEdges" fill="rgb(246, 189, 115)"  x="5" y="19" width="1" height="1" /><rect shape-rendering="crispEdges" fill="rgb(197, 106, 65)"  x="5" y="20" width="1" height="1" /><rect shape-rendering="crispEdges" fill="rgb(106, 131, 74)"  x="5" y="21" width="1" height="1" /><rect shape-rendering="crispEdges" fill="rgb(156, 222, 123)"  x="5" y="22" width="1" height="1" /><rect shape-rendering="crispEdges" fill="rgb(156, 222, 123)"  x="5" y="23" width="1" height="1" /><rect shape-rendering="crispEdges" fill="rgb(115, 148, 82)"  x="5" y="24" width="1" height="1" /><rect shape-rendering="crispEdges" fill="rgb(115, 148, 82)"  x="5" y="25" width="1" height="1" /><rect shape-rendering="crispEdges" fill="rgb(90, 123, 57)"  x="6" y="17" width="1" height="1" /><rect shape-rendering="crispEdges" fill="rgb(156, 139, 90)"  x="6" y="18" width="1" height="1" /><rect shape-rendering="crispEdges" fill="rgb(238, 180, 106)"  x="6" y="19" width="1" height="1" /><rect shape-rendering="crispEdges" fill="rgb(238, 180, 106)"  x="6" y="20" width="1" height="1" /><rect shape-rendering="crispEdges" fill="rgb(197, 98, 65)"  x="6" y="21" width="1" height="1" /><rect shape-rendering="crispEdges" fill="rgb(106, 131, 74)"  x="6" y="22" width="1" height="1" /><rect shape-rendering="crispEdges" fill="rgb(156, 222, 123)"  x="6" y="23" width="1" height="1" /><rect shape-rendering="crispEdges" fill="rgb(156, 222, 123)"  x="6" y="24" width="1" height="1" /><rect shape-rendering="crispEdges" fill="rgb(115, 148, 82)"  x="6" y="25" width="1" height="1" /><rect shape-rendering="crispEdges" fill="rgb(115, 148, 82)"  x="6" y="26" width="1" height="1" /><rect shape-rendering="crispEdges" fill="rgb(98, 123, 57)"  x="7" y="15" width="1" height="1" /><rect shape-rendering="crispEdges" fill="rgb(90, 123, 49)"  x="7" y="16" width="1" height="1" /><rect shape-rendering="crispEdges" fill="rgb(106, 164, 82)"  x="7" y="17" width="1" height="1" /><rect shape-rendering="crispEdges" fill="rgb(164, 213, 156)"  x="7" y="18" width="1" height="1" /><rect shape-rendering="crispEdges" fill="rgb(180, 156, 115)"  x="7" y="19" width="1" height="1" /><rect shape-rendering="crispEdges" fill="rgb(238, 189, 106)"  x="7" y="20" width="1" height="1" /><rect shape-rendering="crispEdges" fill="rgb(238, 172, 106)"  x="7" y="21" width="1" height="1" /><rect shape-rendering="crispEdges" fill="rgb(197, 98, 65)"  x="7" y="22" width="1" height="1" /><rect shape-rendering="crispEdges" fill="rgb(106, 131, 74)"  x="7" y="23" width="1" height="1" /><rect shape-rendering="crispEdges" fill="rgb(156, 222, 123)"  x="7" y="24" width="1" height="1" /><rect shape-rendering="crispEdges" fill="rgb(156, 222, 123)"  x="7" y="25" width="1" height="1" /><rect shape-rendering="crispEdges" fill="rgb(115, 148, 82)"  x="7" y="26" width="1" height="1" /><rect shape-rendering="crispEdges" fill="rgb(115, 148, 82)"  x="7" y="27" width="1" height="1" /><rect shape-rendering="crispEdges" fill="rgb(90, 115, 49)"  x="8" y="12" width="1" height="1" /><rect shape-rendering="crispEdges" fill="rgb(98, 131, 57)"  x="8" y="13" width="1" height="1" /><rect shape-rendering="crispEdges" fill="rgb(90, 115, 49)"  x="8" y="14" width="1" height="1" /><rect shape-rendering="crispEdges" fill="rgb(90, 131, 57)"  x="8" y="15" width="1" height="1" /><rect shape-rendering="crispEdges" fill="rgb(172, 205, 164)"  x="8" y="16" width="1" height="1" /><rect shape-rendering="crispEdges" fill="rgb(230, 246, 230)"  x="8" y="17" width="1" height="1" /><rect shape-rendering="crispEdges" fill="rgb(197, 238, 189)"  x="8" y="18" width="1" height="1" /><rect shape-rendering="crispEdges" fill="rgb(164, 213, 148)"  x="8" y="19" width="1" height="1" /><rect shape-rendering="crispEdges" fill="rgb(180, 156, 115)"  x="8" y="20" width="1" height="1" /><rect shape-rendering="crispEdges" fill="rgb(246, 197, 115)"  x="8" y="21" width="1" height="1" /><rect shape-rendering="crispEdges" fill="rgb(238, 172, 106)"  x="8" y="22" width="1" height="1" /><rect shape-rendering="crispEdges" fill="rgb(197, 98, 57)"  x="8" y="23" width="1" height="1" /><rect shape-rendering="crispEdges" fill="rgb(106, 131, 74)"  x="8" y="24" width="1" height="1" /><rect shape-rendering="crispEdges" fill="rgb(156, 222, 123)"  x="8" y="25" width="1" height="1" /><rect shape-rendering="crispEdges" fill="rgb(156, 222, 123)"  x="8" y="26" width="1" height="1" /><rect shape-rendering="crispEdges" fill="rgb(115, 148, 82)"  x="8" y="27" width="1" height="1" /><rect shape-rendering="crispEdges" fill="rgb(115, 148, 82)"  x="8" y="28" width="1" height="1" /><rect shape-rendering="crispEdges" fill="rgb(115, 148, 82)"  x="9" y="9" width="1" height="1" /><rect shape-rendering="crispEdges" fill="rgb(123, 156, 90)"  x="9" y="10" width="1" height="1" /><rect shape-rendering="crispEdges" fill="rgb(106, 148, 74)"  x="9" y="11" width="1" height="1" /><rect shape-rendering="crispEdges" fill="rgb(123, 172, 106)"  x="9" y="12" width="1" height="1" /><rect shape-rendering="crispEdges" fill="rgb(156, 205, 148)"  x="9" y="13" width="1" height="1" /><rect shape-rendering="crispEdges" fill="rgb(123, 180, 106)"  x="9" y="14" width="1" height="1" /><rect shape-rendering="crispEdges" fill="rgb(131, 156, 106)"  x="9" y="15" width="1" height="1" /><rect shape-rendering="crispEdges" fill="rgb(238, 238, 238)"  x="9" y="16" width="1" height="1" /><rect shape-rendering="crispEdges" fill="rgb(139, 139, 139)"  x="9" y="17" width="1" height="1" /><rect shape-rendering="crispEdges" fill="rgb(246, 246, 246)"  x="9" y="18" width="1" height="1" /><rect shape-rendering="crispEdges" fill="rgb(197, 238, 197)"  x="9" y="19" width="1" height="1" /><rect shape-rendering="crispEdges" fill="rgb(164, 213, 148)"  x="9" y="20" width="1" height="1" /><rect shape-rendering="crispEdges" fill="rgb(189, 164, 115)"  x="9" y="21" width="1" height="1" /><rect shape-rendering="crispEdges" fill="rgb(246, 222, 131)"  x="9" y="22" width="1" height="1" /><rect shape-rendering="crispEdges" fill="rgb(238, 189, 123)"  x="9" y="23" width="1" height="1" /><rect shape-rendering="crispEdges" fill="rgb(197, 90, 57)"  x="9" y="24" width="1" height="1" /><rect shape-rendering="crispEdges" fill="rgb(106, 131, 74)"  x="9" y="25" width="1" height="1" /><rect shape-rendering="crispEdges" fill="rgb(156, 222, 123)"  x="9" y="26" width="1" height="1" /><rect shape-rendering="crispEdges" fill="rgb(156, 222, 123)"  x="9" y="27" width="1" height="1" /><rect shape-rendering="crispEdges" fill="rgb(115, 148, 82)"  x="9" y="28" width="1" height="1" /><rect shape-rendering="crispEdges" fill="rgb(115, 148, 82)"  x="9" y="29" width="1" height="1" /><rect shape-rendering="crispEdges" fill="rgb(139, 156, 98)"  x="10" y="8" width="1" height="1" /><rect shape-rendering="crispEdges" fill="rgb(115, 148, 82)"  x="10" y="9" width="1" height="1" /><rect shape-rendering="crispEdges" fill="rgb(164, 205, 156)"  x="10" y="10" width="1" height="1" /><rect shape-rendering="crispEdges" fill="rgb(205, 238, 205)"  x="10" y="11" width="1" height="1" /><rect shape-rendering="crispEdges" fill="rgb(205, 238, 205)"  x="10" y="12" width="1" height="1" /><rect shape-rendering="crispEdges" fill="rgb(197, 238, 197)"  x="10" y="13" width="1" height="1" /><rect shape-rendering="crispEdges" fill="rgb(222, 246, 222)"  x="10" y="14" width="1" height="1" /><rect shape-rendering="crispEdges" fill="rgb(255, 255, 255)"  x="10" y="15" width="1" height="1" /><rect shape-rendering="crispEdges" fill="rgb(230, 230, 230)"  x="10" y="16" width="1" height="1" /><rect shape-rendering="crispEdges" fill="rgb(74, 74, 74)"  x="10" y="17" width="1" height="1" /><rect shape-rendering="crispEdges" fill="rgb(123, 123, 123)"  x="10" y="18" width="1" height="1" /><rect shape-rendering="crispEdges" fill="rgb(246, 246, 246)"  x="10" y="19" width="1" height="1" /><rect shape-rendering="crispEdges" fill="rgb(164, 222, 164)"  x="10" y="20" width="1" height="1" /><rect shape-rendering="crispEdges" fill="rgb(164, 213, 148)"  x="10" y="21" width="1" height="1" /><rect shape-rendering="crispEdges" fill="rgb(189, 172, 123)"  x="10" y="22" width="1" height="1" /><rect shape-rendering="crispEdges" fill="rgb(246, 238, 148)"  x="10" y="23" width="1" height="1" /><rect shape-rendering="crispEdges" fill="rgb(238, 189, 131)"  x="10" y="24" width="1" height="1" /><rect shape-rendering="crispEdges" fill="rgb(197, 90, 57)"  x="10" y="25" width="1" height="1" /><rect shape-rendering="crispEdges" fill="rgb(106, 131, 74)"  x="10" y="26" width="1" height="1" /><rect shape-rendering="crispEdges" fill="rgb(156, 222, 123)"  x="10" y="27" width="1" height="1" /><rect shape-rendering="crispEdges" fill="rgb(156, 222, 123)"  x="10" y="28" width="1" height="1" /><rect shape-rendering="crispEdges" fill="rgb(115, 148, 82)"  x="10" y="29" width="1" height="1" /><rect shape-rendering="crispEdges" fill="rgb(115, 148, 82)"  x="10" y="30" width="1" height="1" /><rect shape-rendering="crispEdges" fill="rgb(156, 180, 98)"  x="11" y="7" width="1" height="1" /><rect shape-rendering="crispEdges" fill="rgb(123, 172, 74)"  x="11" y="8" width="1" height="1" /><rect shape-rendering="crispEdges" fill="rgb(180, 222, 172)"  x="11" y="9" width="1" height="1" /><rect shape-rendering="crispEdges" fill="rgb(238, 255, 238)"  x="11" y="10" width="1" height="1" /><rect shape-rendering="crispEdges" fill="rgb(230, 246, 230)"  x="11" y="11" width="1" height="1" /><rect shape-rendering="crispEdges" fill="rgb(230, 246, 230)"  x="11" y="12" width="1" height="1" /><rect shape-rendering="crispEdges" fill="rgb(238, 255, 238)"  x="11" y="13" width="1" height="1" /><rect shape-rendering="crispEdges" fill="rgb(222, 222, 222)"  x="11" y="14" width="1" height="1" /><rect shape-rendering="crispEdges" fill="rgb(90, 90, 90)"  x="11" y="15" width="1" height="1" /><rect shape-rendering="crispEdges" fill="rgb(90, 90, 90)"  x="11" y="16" width="1" height="1" /><rect shape-rendering="crispEdges" fill="rgb(90, 90, 90)"  x="11" y="17" width="1" height="1" /><rect shape-rendering="crispEdges" fill="rgb(74, 74, 74)"  x="11" y="18" width="1" height="1" /><rect shape-rendering="crispEdges" fill="rgb(172, 172, 172)"  x="11" y="19" width="1" height="1" /><rect shape-rendering="crispEdges" fill="rgb(213, 238, 205)"  x="11" y="20" width="1" height="1" /><rect shape-rendering="crispEdges" fill="rgb(164, 222, 156)"  x="11" y="21" width="1" height="1" /><rect shape-rendering="crispEdges" fill="rgb(164, 222, 156)"  x="11" y="22" width="1" height="1" /><rect shape-rendering="crispEdges" fill="rgb(189, 180, 123)"  x="11" y="23" width="1" height="1" /><rect shape-rendering="crispEdges" fill="rgb(255, 238, 156)"  x="11" y="24" width="1" height="1" /><rect shape-rendering="crispEdges" fill="rgb(246, 197, 139)"  x="11" y="25" width="1" height="1" /><rect shape-rendering="crispEdges" fill="rgb(197, 98, 65)"  x="11" y="26" width="1" height="1" /><rect shape-rendering="crispEdges" fill="rgb(106, 131, 74)"  x="11" y="27" width="1" height="1" /><rect shape-rendering="crispEdges" fill="rgb(156, 222, 123)"  x="11" y="28" width="1" height="1" /><rect shape-rendering="crispEdges" fill="rgb(156, 222, 123)"  x="11" y="29" width="1" height="1" /><rect shape-rendering="crispEdges" fill="rgb(115, 148, 82)"  x="11" y="30" width="1" height="1" /><rect shape-rendering="crispEdges" fill="rgb(123, 164, 49)"  x="12" y="7" width="1" height="1" /><rect shape-rendering="crispEdges" fill="rgb(131, 197, 106)"  x="12" y="8" width="1" height="1" /><rect shape-rendering="crispEdges" fill="rgb(213, 246, 213)"  x="12" y="9" width="1" height="1" /><rect shape-rendering="crispEdges" fill="rgb(222, 246, 222)"  x="12" y="10" width="1" height="1" /><rect shape-rendering="crispEdges" fill="rgb(238, 246, 238)"  x="12" y="11" width="1" height="1" /><rect shape-rendering="crispEdges" fill="rgb(255, 255, 255)"  x="12" y="12" width="1" height="1" /><rect shape-rendering="crispEdges" fill="rgb(90, 90, 90)"  x="12" y="13" width="1" height="1" /><rect shape-rendering="crispEdges" fill="rgb(90, 90, 90)"  x="12" y="14" width="1" height="1" /><rect shape-rendering="crispEdges" fill="rgb(90, 90, 90)"  x="12" y="15" width="1" height="1" /><rect shape-rendering="crispEdges" fill="rgb(246, 246, 246)"  x="12" y="16" width="1" height="1" /><rect shape-rendering="crispEdges" fill="rgb(230, 246, 222)"  x="12" y="17" width="1" height="1" /><rect shape-rendering="crispEdges" fill="rgb(246, 246, 246)"  x="12" y="18" width="1" height="1" /><rect shape-rendering="crispEdges" fill="rgb(246, 246, 246)"  x="12" y="19" width="1" height="1" /><rect shape-rendering="crispEdges" fill="rgb(255, 255, 255)"  x="12" y="20" width="1" height="1" /><rect shape-rendering="crispEdges" fill="rgb(246, 246, 246)"  x="12" y="21" width="1" height="1" /><rect shape-rendering="crispEdges" fill="rgb(189, 230, 180)"  x="12" y="22" width="1" height="1" /><rect shape-rendering="crispEdges" fill="rgb(164, 222, 156)"  x="12" y="23" width="1" height="1" /><rect shape-rendering="crispEdges" fill="rgb(197, 180, 123)"  x="12" y="24" width="1" height="1" /><rect shape-rendering="crispEdges" fill="rgb(255, 230, 148)"  x="12" y="25" width="1" height="1" /><rect shape-rendering="crispEdges" fill="rgb(238, 197, 131)"  x="12" y="26" width="1" height="1" /><rect shape-rendering="crispEdges" fill="rgb(148, 90, 65)"  x="12" y="27" width="1" height="1" /><rect shape-rendering="crispEdges" fill="rgb(148, 90, 65)"  x="12" y="28" width="1" height="1" /><rect shape-rendering="crispEdges" fill="rgb(148, 90, 65)"  x="12" y="29" width="1" height="1" /><rect shape-rendering="crispEdges" fill="rgb(115, 148, 82)"  x="12" y="30" width="1" height="1" /><rect shape-rendering="crispEdges" fill="rgb(106, 131, 74)"  x="13" y="6" width="1" height="1" /><rect shape-rendering="crispEdges" fill="rgb(106, 139, 41)"  x="13" y="7" width="1" height="1" /><rect shape-rendering="crispEdges" fill="rgb(148, 205, 123)"  x="13" y="8" width="1" height="1" /><rect shape-rendering="crispEdges" fill="rgb(205, 246, 213)"  x="13" y="9" width="1" height="1" /><rect shape-rendering="crispEdges" fill="rgb(230, 246, 230)"  x="13" y="10" width="1" height="1" /><rect shape-rendering="crispEdges" fill="rgb(255, 255, 255)"  x="13" y="11" width="1" height="1" /><rect shape-rendering="crispEdges" fill="rgb(90, 90, 90)"  x="13" y="12" width="1" height="1" /><rect shape-rendering="crispEdges" fill="rgb(90, 90, 90)"  x="13" y="13" width="1" height="1" /><rect shape-rendering="crispEdges" fill="rgb(90, 90, 90)"  x="13" y="14" width="1" height="1" /><rect shape-rendering="crispEdges" fill="rgb(222, 222, 222)"  x="13" y="15" width="1" height="1" /><rect shape-rendering="crispEdges" fill="rgb(222, 246, 222)"  x="13" y="16" width="1" height="1" /><rect shape-rendering="crispEdges" fill="rgb(189, 238, 189)"  x="13" y="17" width="1" height="1" /><rect shape-rendering="crispEdges" fill="rgb(222, 246, 222)"  x="13" y="18" width="1" height="1" /><rect shape-rendering="crispEdges" fill="rgb(222, 246, 222)"  x="13" y="19" width="1" height="1" /><rect shape-rendering="crispEdges" fill="rgb(238, 238, 238)"  x="13" y="20" width="1" height="1" /><rect shape-rendering="crispEdges" fill="rgb(90, 90, 90)"  x="13" y="21" width="1" height="1" /><rect shape-rendering="crispEdges" fill="rgb(246, 246, 246)"  x="13" y="22" width="1" height="1" /><rect shape-rendering="crispEdges" fill="rgb(197, 238, 197)"  x="13" y="23" width="1" height="1" /><rect shape-rendering="crispEdges" fill="rgb(164, 222, 156)"  x="13" y="24" width="1" height="1" /><rect shape-rendering="crispEdges" fill="rgb(189, 180, 123)"  x="13" y="25" width="1" height="1" /><rect shape-rendering="crispEdges" fill="rgb(197, 139, 90)"  x="13" y="26" width="1" height="1" /><rect shape-rendering="crispEdges" fill="rgb(213, 164, 106)"  x="13" y="27" width="1" height="1" /><rect shape-rendering="crispEdges" fill="rgb(189, 106, 74)"  x="13" y="28" width="1" height="1" /><rect shape-rendering="crispEdges" fill="rgb(148, 90, 65)"  x="13" y="29" width="1" height="1" /><rect shape-rendering="crispEdges" fill="rgb(115, 148, 82)"  x="13" y="30" width="1" height="1" /><rect shape-rendering="crispEdges" fill="rgb(106, 156, 74)"  x="14" y="6" width="1" height="1" /><rect shape-rendering="crispEdges" fill="rgb(98, 139, 65)"  x="14" y="7" width="1" height="1" /><rect shape-rendering="crispEdges" fill="rgb(106, 148, 74)"  x="14" y="8" width="1" height="1" /><rect shape-rendering="crispEdges" fill="rgb(205, 238, 205)"  x="14" y="9" width="1" height="1" /><rect shape-rendering="crispEdges" fill="rgb(255, 255, 255)"  x="14" y="10" width="1" height="1" /><rect shape-rendering="crispEdges" fill="rgb(90, 90, 90)"  x="14" y="11" width="1" height="1" /><rect shape-rendering="crispEdges" fill="rgb(90, 90, 90)"  x="14" y="12" width="1" height="1" /><rect shape-rendering="crispEdges" fill="rgb(255, 255, 255)"  x="14" y="13" width="1" height="1" /><rect shape-rendering="crispEdges" fill="rgb(255, 255, 255)"  x="14" y="14" width="1" height="1" /><rect shape-rendering="crispEdges" fill="rgb(90, 90, 90)"  x="14" y="15" width="1" height="1" /><rect shape-rendering="crispEdges" fill="rgb(222, 222, 222)"  x="14" y="16" width="1" height="1" /><rect shape-rendering="crispEdges" fill="rgb(246, 246, 246)"  x="14" y="17" width="1" height="1" /><rect shape-rendering="crispEdges" fill="rgb(172, 172, 172)"  x="14" y="18" width="1" height="1" /><rect shape-rendering="crispEdges" fill="rgb(156, 156, 156)"  x="14" y="19" width="1" height="1" /><rect shape-rendering="crispEdges" fill="rgb(90, 90, 90)"  x="14" y="20" width="1" height="1" /><rect shape-rendering="crispEdges" fill="rgb(90, 90, 90)"  x="14" y="21" width="1" height="1" /><rect shape-rendering="crispEdges" fill="rgb(90, 90, 90)"  x="14" y="22" width="1" height="1" /><rect shape-rendering="crispEdges" fill="rgb(246, 246, 246)"  x="14" y="23" width="1" height="1" /><rect shape-rendering="crispEdges" fill="rgb(189, 238, 189)"  x="14" y="24" width="1" height="1" /><rect shape-rendering="crispEdges" fill="rgb(164, 222, 156)"  x="14" y="25" width="1" height="1" /><rect shape-rendering="crispEdges" fill="rgb(148, 90, 65)"  x="14" y="26" width="1" height="1" /><rect shape-rendering="crispEdges" fill="rgb(205, 139, 90)"  x="14" y="27" width="1" height="1" /><rect shape-rendering="crispEdges" fill="rgb(255, 189, 115)"  x="14" y="28" width="1" height="1" /><rect shape-rendering="crispEdges" fill="rgb(148, 90, 65)"  x="14" y="29" width="1" height="1" /><rect shape-rendering="crispEdges" fill="rgb(115, 148, 82)"  x="14" y="30" width="1" height="1" /><rect shape-rendering="crispEdges" fill="rgb(148, 82, 57)"  x="15" y="1" width="1" height="1" /><rect shape-rendering="crispEdges" fill="rgb(156, 82, 57)"  x="15" y="2" width="1" height="1" /><rect shape-rendering="crispEdges" fill="rgb(156, 82, 57)"  x="15" y="3" width="1" height="1" /><rect shape-rendering="crispEdges" fill="rgb(156, 82, 57)"  x="15" y="4" width="1" height="1" /><rect shape-rendering="crispEdges" fill="rgb(131, 164, 65)"  x="15" y="5" width="1" height="1" /><rect shape-rendering="crispEdges" fill="rgb(139, 205, 123)"  x="15" y="6" width="1" height="1" /><rect shape-rendering="crispEdges" fill="rgb(189, 230, 189)"  x="15" y="7" width="1" height="1" /><rect shape-rendering="crispEdges" fill="rgb(189, 230, 189)"  x="15" y="8" width="1" height="1" /><rect shape-rendering="crispEdges" fill="rgb(238, 246, 238)"  x="15" y="9" width="1" height="1" /><rect shape-rendering="crispEdges" fill="rgb(90, 90, 90)"  x="15" y="10" width="1" height="1" /><rect shape-rendering="crispEdges" fill="rgb(90, 90, 90)"  x="15" y="11" width="1" height="1" /><rect shape-rendering="crispEdges" fill="rgb(230, 230, 230)"  x="15" y="12" width="1" height="1" /><rect shape-rendering="crispEdges" fill="rgb(246, 255, 246)"  x="15" y="13" width="1" height="1" /><rect shape-rendering="crispEdges" fill="rgb(230, 230, 230)"  x="15" y="14" width="1" height="1" /><rect shape-rendering="crispEdges" fill="rgb(90, 90, 90)"  x="15" y="15" width="1" height="1" /><rect shape-rendering="crispEdges" fill="rgb(90, 90, 90)"  x="15" y="16" width="1" height="1" /><rect shape-rendering="crispEdges" fill="rgb(90, 90, 90)"  x="15" y="17" width="1" height="1" /><rect shape-rendering="crispEdges" fill="rgb(90, 90, 90)"  x="15" y="18" width="1" height="1" /><rect shape-rendering="crispEdges" fill="rgb(90, 90, 90)"  x="15" y="19" width="1" height="1" /><rect shape-rendering="crispEdges" fill="rgb(90, 90, 90)"  x="15" y="20" width="1" height="1" /><rect shape-rendering="crispEdges" fill="rgb(90, 90, 90)"  x="15" y="21" width="1" height="1" /><rect shape-rendering="crispEdges" fill="rgb(90, 90, 90)"  x="15" y="22" width="1" height="1" /><rect shape-rendering="crispEdges" fill="rgb(131, 131, 131)"  x="15" y="23" width="1" height="1" /><rect shape-rendering="crispEdges" fill="rgb(230, 246, 230)"  x="15" y="24" width="1" height="1" /><rect shape-rendering="crispEdges" fill="rgb(156, 222, 156)"  x="15" y="25" width="1" height="1" /><rect shape-rendering="crispEdges" fill="rgb(148, 90, 65)"  x="15" y="26" width="1" height="1" /><rect shape-rendering="crispEdges" fill="rgb(148, 90, 65)"  x="15" y="27" width="1" height="1" /><rect shape-rendering="crispEdges" fill="rgb(148, 90, 65)"  x="15" y="28" width="1" height="1" /><rect shape-rendering="crispEdges" fill="rgb(148, 90, 65)"  x="15" y="29" width="1" height="1" /><rect shape-rendering="crispEdges" fill="rgb(115, 148, 82)"  x="15" y="30" width="1" height="1" /><rect shape-rendering="crispEdges" fill="rgb(213, 156, 98)"  x="16" y="1" width="1" height="1" /><rect shape-rendering="crispEdges" fill="rgb(213, 156, 98)"  x="16" y="2" width="1" height="1" /><rect shape-rendering="crispEdges" fill="rgb(172, 90, 65)"  x="16" y="3" width="1" height="1" /><rect shape-rendering="crispEdges" fill="rgb(156, 82, 57)"  x="16" y="4" width="1" height="1" /><rect shape-rendering="crispEdges" fill="rgb(115, 164, 57)"  x="16" y="5" width="1" height="1" /><rect shape-rendering="crispEdges" fill="rgb(180, 222, 172)"  x="16" y="6" width="1" height="1" /><rect shape-rendering="crispEdges" fill="rgb(197, 238, 197)"  x="16" y="7" width="1" height="1" /><rect shape-rendering="crispEdges" fill="rgb(197, 238, 197)"  x="16" y="8" width="1" height="1" /><rect shape-rendering="crispEdges" fill="rgb(255, 255, 255)"  x="16" y="9" width="1" height="1" /><rect shape-rendering="crispEdges" fill="rgb(90, 90, 90)"  x="16" y="10" width="1" height="1" /><rect shape-rendering="crispEdges" fill="rgb(172, 172, 172)"  x="16" y="11" width="1" height="1" /><rect shape-rendering="crispEdges" fill="rgb(205, 205, 205)"  x="16" y="12" width="1" height="1" /><rect shape-rendering="crispEdges" fill="rgb(90, 90, 90)"  x="16" y="13" width="1" height="1" /><rect shape-rendering="crispEdges" fill="rgb(90, 90, 90)"  x="16" y="14" width="1" height="1" /><rect shape-rendering="crispEdges" fill="rgb(90, 90, 90)"  x="16" y="15" width="1" height="1" /><rect shape-rendering="crispEdges" fill="rgb(222, 222, 222)"  x="16" y="16" width="1" height="1" /><rect shape-rendering="crispEdges" fill="rgb(246, 246, 246)"  x="16" y="17" width="1" height="1" /><rect shape-rendering="crispEdges" fill="rgb(246, 246, 246)"  x="16" y="18" width="1" height="1" /><rect shape-rendering="crispEdges" fill="rgb(255, 255, 255)"  x="16" y="19" width="1" height="1" /><rect shape-rendering="crispEdges" fill="rgb(230, 246, 230)"  x="16" y="20" width="1" height="1" /><rect shape-rendering="crispEdges" fill="rgb(222, 246, 222)"  x="16" y="21" width="1" height="1" /><rect shape-rendering="crispEdges" fill="rgb(246, 246, 246)"  x="16" y="22" width="1" height="1" /><rect shape-rendering="crispEdges" fill="rgb(238, 238, 238)"  x="16" y="23" width="1" height="1" /><rect shape-rendering="crispEdges" fill="rgb(197, 238, 197)"  x="16" y="24" width="1" height="1" /><rect shape-rendering="crispEdges" fill="rgb(156, 222, 156)"  x="16" y="25" width="1" height="1" /><rect shape-rendering="crispEdges" fill="rgb(164, 222, 156)"  x="16" y="26" width="1" height="1" /><rect shape-rendering="crispEdges" fill="rgb(172, 222, 164)"  x="16" y="27" width="1" height="1" /><rect shape-rendering="crispEdges" fill="rgb(139, 197, 123)"  x="16" y="28" width="1" height="1" /><rect shape-rendering="crispEdges" fill="rgb(123, 164, 82)"  x="16" y="29" width="1" height="1" /><rect shape-rendering="crispEdges" fill="rgb(115, 148, 82)"  x="16" y="30" width="1" height="1" /><rect shape-rendering="crispEdges" fill="rgb(172, 106, 74)"  x="17" y="1" width="1" height="1" /><rect shape-rendering="crispEdges" fill="rgb(213, 156, 98)"  x="17" y="2" width="1" height="1" /><rect shape-rendering="crispEdges" fill="rgb(213, 156, 98)"  x="17" y="3" width="1" height="1" /><rect shape-rendering="crispEdges" fill="rgb(156, 82, 57)"  x="17" y="4" width="1" height="1" /><rect shape-rendering="crispEdges" fill="rgb(139, 156, 98)"  x="17" y="5" width="1" height="1" /><rect shape-rendering="crispEdges" fill="rgb(164, 213, 164)"  x="17" y="6" width="1" height="1" /><rect shape-rendering="crispEdges" fill="rgb(197, 238, 205)"  x="17" y="7" width="1" height="1" /><rect shape-rendering="crispEdges" fill="rgb(197, 238, 197)"  x="17" y="8" width="1" height="1" /><rect shape-rendering="crispEdges" fill="rgb(255, 255, 255)"  x="17" y="9" width="1" height="1" /><rect shape-rendering="crispEdges" fill="rgb(82, 82, 82)"  x="17" y="10" width="1" height="1" /><rect shape-rendering="crispEdges" fill="rgb(82, 82, 82)"  x="17" y="11" width="1" height="1" /><rect shape-rendering="crispEdges" fill="rgb(106, 106, 106)"  x="17" y="12" width="1" height="1" /><rect shape-rendering="crispEdges" fill="rgb(90, 90, 90)"  x="17" y="13" width="1" height="1" /><rect shape-rendering="crispEdges" fill="rgb(246, 246, 246)"  x="17" y="14" width="1" height="1" /><rect shape-rendering="crispEdges" fill="rgb(255, 255, 255)"  x="17" y="15" width="1" height="1" /><rect shape-rendering="crispEdges" fill="rgb(246, 255, 246)"  x="17" y="16" width="1" height="1" /><rect shape-rendering="crispEdges" fill="rgb(238, 246, 230)"  x="17" y="17" width="1" height="1" /><rect shape-rendering="crispEdges" fill="rgb(230, 246, 230)"  x="17" y="18" width="1" height="1" /><rect shape-rendering="crispEdges" fill="rgb(213, 238, 213)"  x="17" y="19" width="1" height="1" /><rect shape-rendering="crispEdges" fill="rgb(189, 238, 189)"  x="17" y="20" width="1" height="1" /><rect shape-rendering="crispEdges" fill="rgb(180, 230, 180)"  x="17" y="21" width="1" height="1" /><rect shape-rendering="crispEdges" fill="rgb(180, 230, 180)"  x="17" y="22" width="1" height="1" /><rect shape-rendering="crispEdges" fill="rgb(172, 222, 164)"  x="17" y="23" width="1" height="1" /><rect shape-rendering="crispEdges" fill="rgb(148, 205, 131)"  x="17" y="24" width="1" height="1" /><rect shape-rendering="crispEdges" fill="rgb(164, 222, 156)"  x="17" y="25" width="1" height="1" /><rect shape-rendering="crispEdges" fill="rgb(156, 222, 148)"  x="17" y="26" width="1" height="1" /><rect shape-rendering="crispEdges" fill="rgb(139, 205, 123)"  x="17" y="27" width="1" height="1" /><rect shape-rendering="crispEdges" fill="rgb(123, 172, 82)"  x="17" y="28" width="1" height="1" /><rect shape-rendering="crispEdges" fill="rgb(148, 172, 106)"  x="17" y="29" width="1" height="1" /><rect shape-rendering="crispEdges" fill="rgb(156, 90, 65)"  x="18" y="1" width="1" height="1" /><rect shape-rendering="crispEdges" fill="rgb(205, 148, 90)"  x="18" y="2" width="1" height="1" /><rect shape-rendering="crispEdges" fill="rgb(180, 148, 90)"  x="18" y="3" width="1" height="1" /><rect shape-rendering="crispEdges" fill="rgb(172, 205, 131)"  x="18" y="4" width="1" height="1" /><rect shape-rendering="crispEdges" fill="rgb(123, 197, 90)"  x="18" y="5" width="1" height="1" /><rect shape-rendering="crispEdges" fill="rgb(106, 180, 74)"  x="18" y="6" width="1" height="1" /><rect shape-rendering="crispEdges" fill="rgb(172, 222, 164)"  x="18" y="7" width="1" height="1" /><rect shape-rendering="crispEdges" fill="rgb(197, 238, 205)"  x="18" y="8" width="1" height="1" /><rect shape-rendering="crispEdges" fill="rgb(255, 255, 255)"  x="18" y="9" width="1" height="1" /><rect shape-rendering="crispEdges" fill="rgb(90, 90, 90)"  x="18" y="10" width="1" height="1" /><rect shape-rendering="crispEdges" fill="rgb(131, 131, 131)"  x="18" y="11" width="1" height="1" /><rect shape-rendering="crispEdges" fill="rgb(246, 246, 246)"  x="18" y="12" width="1" height="1" /><rect shape-rendering="crispEdges" fill="rgb(238, 246, 238)"  x="18" y="13" width="1" height="1" /><rect shape-rendering="crispEdges" fill="rgb(222, 246, 222)"  x="18" y="14" width="1" height="1" /><rect shape-rendering="crispEdges" fill="rgb(222, 246, 222)"  x="18" y="15" width="1" height="1" /><rect shape-rendering="crispEdges" fill="rgb(222, 246, 222)"  x="18" y="16" width="1" height="1" /><rect shape-rendering="crispEdges" fill="rgb(230, 246, 230)"  x="18" y="17" width="1" height="1" /><rect shape-rendering="crispEdges" fill="rgb(230, 246, 230)"  x="18" y="18" width="1" height="1" /><rect shape-rendering="crispEdges" fill="rgb(230, 246, 222)"  x="18" y="19" width="1" height="1" /><rect shape-rendering="crispEdges" fill="rgb(213, 238, 213)"  x="18" y="20" width="1" height="1" /><rect shape-rendering="crispEdges" fill="rgb(189, 230, 180)"  x="18" y="21" width="1" height="1" /><rect shape-rendering="crispEdges" fill="rgb(164, 230, 156)"  x="18" y="22" width="1" height="1" /><rect shape-rendering="crispEdges" fill="rgb(131, 197, 106)"  x="18" y="23" width="1" height="1" /><rect shape-rendering="crispEdges" fill="rgb(123, 164, 82)"  x="18" y="24" width="1" height="1" /><rect shape-rendering="crispEdges" fill="rgb(131, 180, 98)"  x="18" y="25" width="1" height="1" /><rect shape-rendering="crispEdges" fill="rgb(123, 180, 98)"  x="18" y="26" width="1" height="1" /><rect shape-rendering="crispEdges" fill="rgb(131, 164, 90)"  x="18" y="27" width="1" height="1" /><rect shape-rendering="crispEdges" fill="rgb(148, 172, 106)"  x="18" y="28" width="1" height="1" /><rect shape-rendering="crispEdges" fill="rgb(164, 90, 65)"  x="19" y="1" width="1" height="1" /><rect shape-rendering="crispEdges" fill="rgb(172, 106, 65)"  x="19" y="2" width="1" height="1" /><rect shape-rendering="crispEdges" fill="rgb(180, 205, 139)"  x="19" y="3" width="1" height="1" /><rect shape-rendering="crispEdges" fill="rgb(197, 230, 189)"  x="19" y="4" width="1" height="1" /><rect shape-rendering="crispEdges" fill="rgb(172, 222, 156)"  x="19" y="5" width="1" height="1" /><rect shape-rendering="crispEdges" fill="rgb(106, 197, 74)"  x="19" y="6" width="1" height="1" /><rect shape-rendering="crispEdges" fill="rgb(106, 180, 74)"  x="19" y="7" width="1" height="1" /><rect shape-rendering="crispEdges" fill="rgb(172, 222, 164)"  x="19" y="8" width="1" height="1" /><rect shape-rendering="crispEdges" fill="rgb(230, 246, 230)"  x="19" y="9" width="1" height="1" /><rect shape-rendering="crispEdges" fill="rgb(255, 255, 255)"  x="19" y="10" width="1" height="1" /><rect shape-rendering="crispEdges" fill="rgb(246, 255, 246)"  x="19" y="11" width="1" height="1" /><rect shape-rendering="crispEdges" fill="rgb(222, 246, 222)"  x="19" y="12" width="1" height="1" /><rect shape-rendering="crispEdges" fill="rgb(213, 238, 213)"  x="19" y="13" width="1" height="1" /><rect shape-rendering="crispEdges" fill="rgb(213, 238, 213)"  x="19" y="14" width="1" height="1" /><rect shape-rendering="crispEdges" fill="rgb(213, 246, 213)"  x="19" y="15" width="1" height="1" /><rect shape-rendering="crispEdges" fill="rgb(213, 246, 213)"  x="19" y="16" width="1" height="1" /><rect shape-rendering="crispEdges" fill="rgb(222, 246, 222)"  x="19" y="17" width="1" height="1" /><rect shape-rendering="crispEdges" fill="rgb(230, 246, 230)"  x="19" y="18" width="1" height="1" /><rect shape-rendering="crispEdges" fill="rgb(222, 246, 222)"  x="19" y="19" width="1" height="1" /><rect shape-rendering="crispEdges" fill="rgb(180, 230, 172)"  x="19" y="20" width="1" height="1" /><rect shape-rendering="crispEdges" fill="rgb(139, 197, 115)"  x="19" y="21" width="1" height="1" /><rect shape-rendering="crispEdges" fill="rgb(131, 180, 98)"  x="19" y="22" width="1" height="1" /><rect shape-rendering="crispEdges" fill="rgb(131, 172, 90)"  x="19" y="23" width="1" height="1" /><rect shape-rendering="crispEdges" fill="rgb(131, 172, 90)"  x="19" y="24" width="1" height="1" /><rect shape-rendering="crispEdges" fill="rgb(139, 164, 90)"  x="19" y="25" width="1" height="1" /><rect shape-rendering="crispEdges" fill="rgb(139, 164, 90)"  x="19" y="26" width="1" height="1" /><rect shape-rendering="crispEdges" fill="rgb(115, 180, 65)"  x="20" y="3" width="1" height="1" /><rect shape-rendering="crispEdges" fill="rgb(148, 213, 115)"  x="20" y="4" width="1" height="1" /><rect shape-rendering="crispEdges" fill="rgb(222, 238, 205)"  x="20" y="5" width="1" height="1" /><rect shape-rendering="crispEdges" fill="rgb(164, 222, 139)"  x="20" y="6" width="1" height="1" /><rect shape-rendering="crispEdges" fill="rgb(106, 197, 74)"  x="20" y="7" width="1" height="1" /><rect shape-rendering="crispEdges" fill="rgb(106, 180, 74)"  x="20" y="8" width="1" height="1" /><rect shape-rendering="crispEdges" fill="rgb(172, 222, 164)"  x="20" y="9" width="1" height="1" /><rect shape-rendering="crispEdges" fill="rgb(197, 238, 205)"  x="20" y="10" width="1" height="1" /><rect shape-rendering="crispEdges" fill="rgb(197, 238, 197)"  x="20" y="11" width="1" height="1" /><rect shape-rendering="crispEdges" fill="rgb(205, 238, 205)"  x="20" y="12" width="1" height="1" /><rect shape-rendering="crispEdges" fill="rgb(205, 238, 205)"  x="20" y="13" width="1" height="1" /><rect shape-rendering="crispEdges" fill="rgb(213, 246, 213)"  x="20" y="14" width="1" height="1" /><rect shape-rendering="crispEdges" fill="rgb(213, 246, 213)"  x="20" y="15" width="1" height="1" /><rect shape-rendering="crispEdges" fill="rgb(213, 246, 213)"  x="20" y="16" width="1" height="1" /><rect shape-rendering="crispEdges" fill="rgb(213, 246, 222)"  x="20" y="17" width="1" height="1" /><rect shape-rendering="crispEdges" fill="rgb(213, 238, 205)"  x="20" y="18" width="1" height="1" /><rect shape-rendering="crispEdges" fill="rgb(164, 213, 148)"  x="20" y="19" width="1" height="1" /><rect shape-rendering="crispEdges" fill="rgb(131, 172, 90)"  x="20" y="20" width="1" height="1" /><rect shape-rendering="crispEdges" fill="rgb(131, 164, 90)"  x="20" y="21" width="1" height="1" /><rect shape-rendering="crispEdges" fill="rgb(139, 164, 90)"  x="20" y="22" width="1" height="1" /><rect shape-rendering="crispEdges" fill="rgb(123, 180, 57)"  x="21" y="4" width="1" height="1" /><rect shape-rendering="crispEdges" fill="rgb(156, 213, 131)"  x="21" y="5" width="1" height="1" /><rect shape-rendering="crispEdges" fill="rgb(222, 238, 213)"  x="21" y="6" width="1" height="1" /><rect shape-rendering="crispEdges" fill="rgb(156, 222, 131)"  x="21" y="7" width="1" height="1" /><rect shape-rendering="crispEdges" fill="rgb(115, 197, 82)"  x="21" y="8" width="1" height="1" /><rect shape-rendering="crispEdges" fill="rgb(106, 180, 74)"  x="21" y="9" width="1" height="1" /><rect shape-rendering="crispEdges" fill="rgb(172, 222, 164)"  x="21" y="10" width="1" height="1" /><rect shape-rendering="crispEdges" fill="rgb(205, 238, 205)"  x="21" y="11" width="1" height="1" /><rect shape-rendering="crispEdges" fill="rgb(197, 238, 205)"  x="21" y="12" width="1" height="1" /><rect shape-rendering="crispEdges" fill="rgb(197, 230, 197)"  x="21" y="13" width="1" height="1" /><rect shape-rendering="crispEdges" fill="rgb(197, 230, 197)"  x="21" y="14" width="1" height="1" /><rect shape-rendering="crispEdges" fill="rgb(205, 238, 205)"  x="21" y="15" width="1" height="1" /><rect shape-rendering="crispEdges" fill="rgb(213, 246, 222)"  x="21" y="16" width="1" height="1" /><rect shape-rendering="crispEdges" fill="rgb(205, 238, 205)"  x="21" y="17" width="1" height="1" /><rect shape-rendering="crispEdges" fill="rgb(164, 222, 148)"  x="21" y="18" width="1" height="1" /><rect shape-rendering="crispEdges" fill="rgb(139, 189, 98)"  x="21" y="19" width="1" height="1" /><rect shape-rendering="crispEdges" fill="rgb(156, 180, 106)"  x="21" y="20" width="1" height="1" /><rect shape-rendering="crispEdges" fill="rgb(123, 180, 57)"  x="22" y="5" width="1" height="1" /><rect shape-rendering="crispEdges" fill="rgb(164, 222, 139)"  x="22" y="6" width="1" height="1" /><rect shape-rendering="crispEdges" fill="rgb(222, 238, 213)"  x="22" y="7" width="1" height="1" /><rect shape-rendering="crispEdges" fill="rgb(156, 222, 123)"  x="22" y="8" width="1" height="1" /><rect shape-rendering="crispEdges" fill="rgb(115, 197, 74)"  x="22" y="9" width="1" height="1" /><rect shape-rendering="crispEdges" fill="rgb(115, 180, 74)"  x="22" y="10" width="1" height="1" /><rect shape-rendering="crispEdges" fill="rgb(172, 222, 164)"  x="22" y="11" width="1" height="1" /><rect shape-rendering="crispEdges" fill="rgb(205, 246, 213)"  x="22" y="12" width="1" height="1" /><rect shape-rendering="crispEdges" fill="rgb(164, 213, 156)"  x="22" y="13" width="1" height="1" /><rect shape-rendering="crispEdges" fill="rgb(90, 139, 57)"  x="22" y="14" width="1" height="1" /><rect shape-rendering="crispEdges" fill="rgb(148, 189, 106)"  x="22" y="15" width="1" height="1" /><rect shape-rendering="crispEdges" fill="rgb(172, 222, 156)"  x="22" y="16" width="1" height="1" /><rect shape-rendering="crispEdges" fill="rgb(164, 222, 156)"  x="22" y="17" width="1" height="1" /><rect shape-rendering="crispEdges" fill="rgb(139, 189, 106)"  x="22" y="18" width="1" height="1" /><rect shape-rendering="crispEdges" fill="rgb(156, 189, 106)"  x="22" y="19" width="1" height="1" /><rect shape-rendering="crispEdges" fill="rgb(131, 180, 65)"  x="23" y="6" width="1" height="1" /><rect shape-rendering="crispEdges" fill="rgb(180, 222, 156)"  x="23" y="7" width="1" height="1" /><rect shape-rendering="crispEdges" fill="rgb(222, 238, 213)"  x="23" y="8" width="1" height="1" /><rect shape-rendering="crispEdges" fill="rgb(156, 222, 131)"  x="23" y="9" width="1" height="1" /><rect shape-rendering="crispEdges" fill="rgb(123, 197, 74)"  x="23" y="10" width="1" height="1" /><rect shape-rendering="crispEdges" fill="rgb(106, 172, 74)"  x="23" y="11" width="1" height="1" /><rect shape-rendering="crispEdges" fill="rgb(172, 222, 164)"  x="23" y="12" width="1" height="1" /><rect shape-rendering="crispEdges" fill="rgb(205, 246, 205)"  x="23" y="13" width="1" height="1" /><rect shape-rendering="crispEdges" fill="rgb(115, 164, 90)"  x="23" y="14" width="1" height="1" /><rect shape-rendering="crispEdges" fill="rgb(106, 139, 65)"  x="23" y="15" width="1" height="1" /><rect shape-rendering="crispEdges" fill="rgb(148, 180, 98)"  x="23" y="16" width="1" height="1" /><rect shape-rendering="crispEdges" fill="rgb(148, 197, 106)"  x="23" y="17" width="1" height="1" /><rect shape-rendering="crispEdges" fill="rgb(164, 189, 115)"  x="23" y="18" width="1" height="1" /><rect shape-rendering="crispEdges" fill="rgb(131, 180, 57)"  x="24" y="7" width="1" height="1" /><rect shape-rendering="crispEdges" fill="rgb(172, 222, 148)"  x="24" y="8" width="1" height="1" /><rect shape-rendering="crispEdges" fill="rgb(238, 255, 238)"  x="24" y="9" width="1" height="1" /><rect shape-rendering="crispEdges" fill="rgb(164, 222, 139)"  x="24" y="10" width="1" height="1" /><rect shape-rendering="crispEdges" fill="rgb(115, 189, 74)"  x="24" y="11" width="1" height="1" /><rect shape-rendering="crispEdges" fill="rgb(106, 172, 74)"  x="24" y="12" width="1" height="1" /><rect shape-rendering="crispEdges" fill="rgb(172, 222, 172)"  x="24" y="13" width="1" height="1" /><rect shape-rendering="crispEdges" fill="rgb(197, 246, 205)"  x="24" y="14" width="1" height="1" /><rect shape-rendering="crispEdges" fill="rgb(106, 164, 90)"  x="24" y="15" width="1" height="1" /><rect shape-rendering="crispEdges" fill="rgb(98, 123, 57)"  x="24" y="16" width="1" height="1" /><rect shape-rendering="crispEdges" fill="rgb(123, 180, 57)"  x="25" y="8" width="1" height="1" /><rect shape-rendering="crispEdges" fill="rgb(172, 222, 148)"  x="25" y="9" width="1" height="1" /><rect shape-rendering="crispEdges" fill="rgb(246, 255, 238)"  x="25" y="10" width="1" height="1" /><rect shape-rendering="crispEdges" fill="rgb(164, 222, 148)"  x="25" y="11" width="1" height="1" /><rect shape-rendering="crispEdges" fill="rgb(115, 197, 74)"  x="25" y="12" width="1" height="1" /><rect shape-rendering="crispEdges" fill="rgb(115, 180, 74)"  x="25" y="13" width="1" height="1" /><rect shape-rendering="crispEdges" fill="rgb(164, 213, 148)"  x="25" y="14" width="1" height="1" /><rect shape-rendering="crispEdges" fill="rgb(106, 164, 90)"  x="25" y="15" width="1" height="1" /><rect shape-rendering="crispEdges" fill="rgb(90, 123, 49)"  x="25" y="16" width="1" height="1" /><rect shape-rendering="crispEdges" fill="rgb(123, 180, 57)"  x="26" y="9" width="1" height="1" /><rect shape-rendering="crispEdges" fill="rgb(172, 222, 148)"  x="26" y="10" width="1" height="1" /><rect shape-rendering="crispEdges" fill="rgb(246, 255, 246)"  x="26" y="11" width="1" height="1" /><rect shape-rendering="crispEdges" fill="rgb(172, 230, 156)"  x="26" y="12" width="1" height="1" /><rect shape-rendering="crispEdges" fill="rgb(131, 197, 90)"  x="26" y="13" width="1" height="1" /><rect shape-rendering="crispEdges" fill="rgb(123, 148, 65)"  x="26" y="14" width="1" height="1" /><rect shape-rendering="crispEdges" fill="rgb(98, 115, 49)"  x="26" y="15" width="1" height="1" /><rect shape-rendering="crispEdges" fill="rgb(131, 180, 57)"  x="27" y="10" width="1" height="1" /><rect shape-rendering="crispEdges" fill="rgb(172, 222, 148)"  x="27" y="11" width="1" height="1" /><rect shape-rendering="crispEdges" fill="rgb(156, 82, 57)"  x="27" y="12" width="1" height="1" /><rect shape-rendering="crispEdges" fill="rgb(156, 82, 57)"  x="27" y="13" width="1" height="1" /><rect shape-rendering="crispEdges" fill="rgb(156, 82, 57)"  x="27" y="14" width="1" height="1" /><rect shape-rendering="crispEdges" fill="rgb(156, 82, 57)"  x="27" y="15" width="1" height="1" /><rect shape-rendering="crispEdges" fill="rgb(148, 82, 57)"  x="27" y="16" width="1" height="1" /><rect shape-rendering="crispEdges" fill="rgb(139, 180, 74)"  x="28" y="11" width="1" height="1" /><rect shape-rendering="crispEdges" fill="rgb(156, 82, 57)"  x="28" y="12" width="1" height="1" /><rect shape-rendering="crispEdges" fill="rgb(246, 189, 115)"  x="28" y="13" width="1" height="1" /><rect shape-rendering="crispEdges" fill="rgb(246, 189, 115)"  x="28" y="14" width="1" height="1" /><rect shape-rendering="crispEdges" fill="rgb(172, 90, 65)"  x="28" y="15" width="1" height="1" /><rect shape-rendering="crispEdges" fill="rgb(148, 82, 57)"  x="28" y="16" width="1" height="1" /><rect shape-rendering="crispEdges" fill="rgb(156, 82, 57)"  x="29" y="12" width="1" height="1" /><rect shape-rendering="crispEdges" fill="rgb(180, 115, 74)"  x="29" y="13" width="1" height="1" /><rect shape-rendering="crispEdges" fill="rgb(246, 189, 115)"  x="29" y="14" width="1" height="1" /><rect shape-rendering="crispEdges" fill="rgb(189, 123, 82)"  x="29" y="15" width="1" height="1" /><rect shape-rendering="crispEdges" fill="rgb(139, 74, 57)"  x="29" y="16" width="1" height="1" /><rect shape-rendering="crispEdges" fill="rgb(156, 82, 57)"  x="30" y="12" width="1" height="1" /><rect shape-rendering="crispEdges" fill="rgb(156, 90, 65)"  x="30" y="13" width="1" height="1" /><rect shape-rendering="crispEdges" fill="rgb(172, 106, 74)"  x="30" y="14" width="1" height="1" /><rect shape-rendering="crispEdges" fill="rgb(164, 106, 65)"  x="30" y="15" width="1" height="1" /><rect shape-rendering="crispEdges" fill="rgb(148, 82, 57)"  x="30" y="16" width="1" height="1" /></svg>