<svg xmlns="http://www.w3.org/2000/svg" xmlns:xlink= "http://www.w3.org/1999/xlink" width="32" height="32" viewBox ="0 0 32 32"><rect shape-rendering="crispEdges" fill="rgb(74, 65, 115)"  x="10" y="14" width="1" height="1" /><rect shape-rendering="crispEdges" fill="rgb(74, 65, 115)"  x="10" y="15" width="1" height="1" /><rect shape-rendering="crispEdges" fill="rgb(74, 65, 115)"  x="10" y="16" width="1" height="1" /><rect shape-rendering="crispEdges" fill="rgb(74, 65, 115)"  x="10" y="17" width="1" height="1" /><rect shape-rendering="crispEdges" fill="rgb(74, 65, 115)"  x="11" y="13" width="1" height="1" /><rect shape-rendering="crispEdges" fill="rgb(164, 172, 180)"  x="11" y="14" width="1" height="1" /><rect shape-rendering="crispEdges" fill="rgb(139, 148, 172)"  x="11" y="15" width="1" height="1" /><rect shape-rendering="crispEdges" fill="rgb(115, 115, 156)"  x="11" y="16" width="1" height="1" /><rect shape-rendering="crispEdges" fill="rgb(82, 82, 131)"  x="11" y="17" width="1" height="1" /><rect shape-rendering="crispEdges" fill="rgb(74, 65, 115)"  x="11" y="18" width="1" height="1" /><rect shape-rendering="crispEdges" fill="rgb(74, 65, 115)"  x="12" y="12" width="1" height="1" /><rect shape-rendering="crispEdges" fill="rgb(180, 180, 82)"  x="12" y="13" width="1" height="1" /><rect shape-rendering="crispEdges" fill="rgb(180, 180, 82)"  x="12" y="14" width="1" height="1" /><rect shape-rendering="crispEdges" fill="rgb(164, 172, 180)"  x="12" y="15" width="1" height="1" /><rect shape-rendering="crispEdges" fill="rgb(139, 148, 172)"  x="12" y="16" width="1" height="1" /><rect shape-rendering="crispEdges" fill="rgb(139, 148, 172)"  x="12" y="17" width="1" height="1" /><rect shape-rendering="crispEdges" fill="rgb(82, 82, 131)"  x="12" y="18" width="1" height="1" /><rect shape-rendering="crispEdges" fill="rgb(74, 65, 115)"  x="12" y="19" width="1" height="1" /><rect shape-rendering="crispEdges" fill="rgb(74, 65, 115)"  x="13" y="11" width="1" height="1" /><rect shape-rendering="crispEdges" fill="rgb(180, 180, 82)"  x="13" y="12" width="1" height="1" /><rect shape-rendering="crispEdges" fill="rgb(180, 180, 82)"  x="13" y="13" width="1" height="1" /><rect shape-rendering="crispEdges" fill="rgb(164, 172, 180)"  x="13" y="14" width="1" height="1" /><rect shape-rendering="crispEdges" fill="rgb(139, 148, 172)"  x="13" y="15" width="1" height="1" /><rect shape-rendering="crispEdges" fill="rgb(139, 148, 172)"  x="13" y="16" width="1" height="1" /><rect shape-rendering="crispEdges" fill="rgb(115, 115, 156)"  x="13" y="17" width="1" height="1" /><rect shape-rendering="crispEdges" fill="rgb(65, 65, 123)"  x="13" y="18" width="1" height="1" /><rect shape-rendering="crispEdges" fill="rgb(65, 65, 123)"  x="13" y="19" width="1" height="1" /><rect shape-rendering="crispEdges" fill="rgb(74, 65, 115)"  x="13" y="20" width="1" height="1" /><rect shape-rendering="crispEdges" fill="rgb(74, 65, 115)"  x="14" y="10" width="1" height="1" /><rect shape-rendering="crispEdges" fill="rgb(180, 180, 82)"  x="14" y="11" width="1" height="1" /><rect shape-rendering="crispEdges" fill="rgb(180, 180, 82)"  x="14" y="12" width="1" height="1" /><rect shape-rendering="crispEdges" fill="rgb(164, 172, 180)"  x="14" y="13" width="1" height="1" /><rect shape-rendering="crispEdges" fill="rgb(115, 115, 156)"  x="14" y="14" width="1" height="1" /><rect shape-rendering="crispEdges" fill="rgb(57, 49, 98)"  x="14" y="15" width="1" height="1" /><rect shape-rendering="crispEdges" fill="rgb(49, 41, 82)"  x="14" y="16" width="1" height="1" /><rect shape-rendering="crispEdges" fill="rgb(49, 41, 82)"  x="14" y="17" width="1" height="1" /><rect shape-rendering="crispEdges" fill="rgb(82, 82, 131)"  x="14" y="18" width="1" height="1" /><rect shape-rendering="crispEdges" fill="rgb(65, 65, 123)"  x="14" y="19" width="1" height="1" /><rect shape-rendering="crispEdges" fill="rgb(65, 65, 123)"  x="14" y="20" width="1" height="1" /><rect shape-rendering="crispEdges" fill="rgb(74, 65, 115)"  x="14" y="21" width="1" height="1" /><rect shape-rendering="crispEdges" fill="rgb(74, 65, 115)"  x="15" y="10" width="1" height="1" /><rect shape-rendering="crispEdges" fill="rgb(180, 180, 82)"  x="15" y="11" width="1" height="1" /><rect shape-rendering="crispEdges" fill="rgb(164, 172, 180)"  x="15" y="12" width="1" height="1" /><rect shape-rendering="crispEdges" fill="rgb(139, 148, 172)"  x="15" y="13" width="1" height="1" /><rect shape-rendering="crispEdges" fill="rgb(90, 98, 148)"  x="15" y="14" width="1" height="1" /><rect shape-rendering="crispEdges" fill="rgb(90, 98, 148)"  x="15" y="15" width="1" height="1" /><rect shape-rendering="crispEdges" fill="rgb(65, 65, 123)"  x="15" y="16" width="1" height="1" /><rect shape-rendering="crispEdges" fill="rgb(49, 41, 82)"  x="15" y="17" width="1" height="1" /><rect shape-rendering="crispEdges" fill="rgb(65, 65, 123)"  x="15" y="18" width="1" height="1" /><rect shape-rendering="crispEdges" fill="rgb(82, 82, 131)"  x="15" y="19" width="1" height="1" /><rect shape-rendering="crispEdges" fill="rgb(82, 82, 131)"  x="15" y="20" width="1" height="1" /><rect shape-rendering="crispEdges" fill="rgb(74, 65, 115)"  x="15" y="21" width="1" height="1" /><rect shape-rendering="crispEdges" fill="rgb(74, 65, 115)"  x="16" y="10" width="1" height="1" /><rect shape-rendering="crispEdges" fill="rgb(115, 115, 156)"  x="16" y="11" width="1" height="1" /><rect shape-rendering="crispEdges" fill="rgb(139, 148, 172)"  x="16" y="12" width="1" height="1" /><rect shape-rendering="crispEdges" fill="rgb(115, 115, 156)"  x="16" y="13" width="1" height="1" /><rect shape-rendering="crispEdges" fill="rgb(65, 65, 123)"  x="16" y="14" width="1" height="1" /><rect shape-rendering="crispEdges" fill="rgb(65, 65, 123)"  x="16" y="15" width="1" height="1" /><rect shape-rendering="crispEdges" fill="rgb(65, 65, 123)"  x="16" y="16" width="1" height="1" /><rect shape-rendering="crispEdges" fill="rgb(65, 65, 123)"  x="16" y="17" width="1" height="1" /><rect shape-rendering="crispEdges" fill="rgb(82, 82, 131)"  x="16" y="18" width="1" height="1" /><rect shape-rendering="crispEdges" fill="rgb(82, 82, 131)"  x="16" y="19" width="1" height="1" /><rect shape-rendering="crispEdges" fill="rgb(90, 98, 148)"  x="16" y="20" width="1" height="1" /><rect shape-rendering="crispEdges" fill="rgb(74, 65, 115)"  x="16" y="21" width="1" height="1" /><rect shape-rendering="crispEdges" fill="rgb(74, 65, 115)"  x="17" y="10" width="1" height="1" /><rect shape-rendering="crispEdges" fill="rgb(115, 115, 156)"  x="17" y="11" width="1" height="1" /><rect shape-rendering="crispEdges" fill="rgb(90, 98, 148)"  x="17" y="12" width="1" height="1" /><rect shape-rendering="crispEdges" fill="rgb(115, 115, 156)"  x="17" y="13" width="1" height="1" /><rect shape-rendering="crispEdges" fill="rgb(57, 49, 98)"  x="17" y="14" width="1" height="1" /><rect shape-rendering="crispEdges" fill="rgb(82, 82, 131)"  x="17" y="15" width="1" height="1" /><rect shape-rendering="crispEdges" fill="rgb(82, 82, 131)"  x="17" y="16" width="1" height="1" /><rect shape-rendering="crispEdges" fill="rgb(65, 65, 123)"  x="17" y="17" width="1" height="1" /><rect shape-rendering="crispEdges" fill="rgb(90, 98, 148)"  x="17" y="18" width="1" height="1" /><rect shape-rendering="crispEdges" fill="rgb(115, 115, 156)"  x="17" y="19" width="1" height="1" /><rect shape-rendering="crispEdges" fill="rgb(115, 115, 156)"  x="17" y="20" width="1" height="1" /><rect shape-rendering="crispEdges" fill="rgb(74, 65, 115)"  x="17" y="21" width="1" height="1" /><rect shape-rendering="crispEdges" fill="rgb(74, 65, 115)"  x="18" y="11" width="1" height="1" /><rect shape-rendering="crispEdges" fill="rgb(82, 82, 131)"  x="18" y="12" width="1" height="1" /><rect shape-rendering="crispEdges" fill="rgb(90, 98, 148)"  x="18" y="13" width="1" height="1" /><rect shape-rendering="crispEdges" fill="rgb(139, 148, 172)"  x="18" y="14" width="1" height="1" /><rect shape-rendering="crispEdges" fill="rgb(139, 148, 172)"  x="18" y="15" width="1" height="1" /><rect shape-rendering="crispEdges" fill="rgb(164, 172, 180)"  x="18" y="16" width="1" height="1" /><rect shape-rendering="crispEdges" fill="rgb(115, 115, 156)"  x="18" y="17" width="1" height="1" /><rect shape-rendering="crispEdges" fill="rgb(139, 148, 172)"  x="18" y="18" width="1" height="1" /><rect shape-rendering="crispEdges" fill="rgb(139, 148, 172)"  x="18" y="19" width="1" height="1" /><rect shape-rendering="crispEdges" fill="rgb(74, 65, 115)"  x="18" y="20" width="1" height="1" /><rect shape-rendering="crispEdges" fill="rgb(74, 65, 115)"  x="19" y="12" width="1" height="1" /><rect shape-rendering="crispEdges" fill="rgb(82, 82, 131)"  x="19" y="13" width="1" height="1" /><rect shape-rendering="crispEdges" fill="rgb(82, 82, 131)"  x="19" y="14" width="1" height="1" /><rect shape-rendering="crispEdges" fill="rgb(90, 98, 148)"  x="19" y="15" width="1" height="1" /><rect shape-rendering="crispEdges" fill="rgb(115, 115, 156)"  x="19" y="16" width="1" height="1" /><rect shape-rendering="crispEdges" fill="rgb(115, 115, 156)"  x="19" y="17" width="1" height="1" /><rect shape-rendering="crispEdges" fill="rgb(139, 148, 172)"  x="19" y="18" width="1" height="1" /><rect shape-rendering="crispEdges" fill="rgb(74, 65, 115)"  x="19" y="19" width="1" height="1" /><rect shape-rendering="crispEdges" fill="rgb(74, 65, 115)"  x="20" y="13" width="1" height="1" /><rect shape-rendering="crispEdges" fill="rgb(65, 65, 123)"  x="20" y="14" width="1" height="1" /><rect shape-rendering="crispEdges" fill="rgb(139, 148, 172)"  x="20" y="15" width="1" height="1" /><rect shape-rendering="crispEdges" fill="rgb(180, 180, 82)"  x="20" y="16" width="1" height="1" /><rect shape-rendering="crispEdges" fill="rgb(139, 148, 172)"  x="20" y="17" width="1" height="1" /><rect shape-rendering="crispEdges" fill="rgb(74, 65, 115)"  x="20" y="18" width="1" height="1" /><rect shape-rendering="crispEdges" fill="rgb(74, 65, 115)"  x="21" y="14" width="1" height="1" /><rect shape-rendering="crispEdges" fill="rgb(74, 65, 115)"  x="21" y="15" width="1" height="1" /><rect shape-rendering="crispEdges" fill="rgb(74, 65, 115)"  x="21" y="16" width="1" height="1" /><rect shape-rendering="crispEdges" fill="rgb(74, 65, 115)"  x="21" y="17" width="1" height="1" /></svg>