<svg xmlns="http://www.w3.org/2000/svg" xmlns:xlink= "http://www.w3.org/1999/xlink" width="32" height="32" viewBox ="0 0 32 32"><rect shape-rendering="crispEdges" fill="rgb(66, 24, 20)"  x="3" y="10" width="1" height="1" /><rect shape-rendering="crispEdges" fill="rgb(66, 24, 20)"  x="3" y="11" width="1" height="1" /><rect shape-rendering="crispEdges" fill="rgb(66, 24, 20)"  x="3" y="12" width="1" height="1" /><rect shape-rendering="crispEdges" fill="rgb(66, 24, 20)"  x="3" y="13" width="1" height="1" /><rect shape-rendering="crispEdges" fill="rgb(66, 24, 20)"  x="3" y="14" width="1" height="1" /><rect shape-rendering="crispEdges" fill="rgb(66, 24, 20)"  x="3" y="15" width="1" height="1" /><rect shape-rendering="crispEdges" fill="rgb(66, 24, 20)"  x="4" y="8" width="1" height="1" /><rect shape-rendering="crispEdges" fill="rgb(66, 24, 20)"  x="4" y="9" width="1" height="1" /><rect shape-rendering="crispEdges" fill="rgb(82, 36, 32)"  x="4" y="10" width="1" height="1" /><rect shape-rendering="crispEdges" fill="rgb(82, 36, 32)"  x="4" y="11" width="1" height="1" /><rect shape-rendering="crispEdges" fill="rgb(97, 44, 40)"  x="4" y="12" width="1" height="1" /><rect shape-rendering="crispEdges" fill="rgb(82, 36, 32)"  x="4" y="13" width="1" height="1" /><rect shape-rendering="crispEdges" fill="rgb(82, 36, 32)"  x="4" y="14" width="1" height="1" /><rect shape-rendering="crispEdges" fill="rgb(82, 36, 32)"  x="4" y="15" width="1" height="1" /><rect shape-rendering="crispEdges" fill="rgb(66, 24, 20)"  x="4" y="16" width="1" height="1" /><rect shape-rendering="crispEdges" fill="rgb(66, 24, 20)"  x="4" y="17" width="1" height="1" /><rect shape-rendering="crispEdges" fill="rgb(66, 24, 20)"  x="5" y="7" width="1" height="1" /><rect shape-rendering="crispEdges" fill="rgb(82, 36, 32)"  x="5" y="8" width="1" height="1" /><rect shape-rendering="crispEdges" fill="rgb(97, 44, 40)"  x="5" y="9" width="1" height="1" /><rect shape-rendering="crispEdges" fill="rgb(97, 44, 40)"  x="5" y="10" width="1" height="1" /><rect shape-rendering="crispEdges" fill="rgb(66, 24, 20)"  x="5" y="11" width="1" height="1" /><rect shape-rendering="crispEdges" fill="rgb(97, 44, 40)"  x="5" y="12" width="1" height="1" /><rect shape-rendering="crispEdges" fill="rgb(97, 44, 40)"  x="5" y="13" width="1" height="1" /><rect shape-rendering="crispEdges" fill="rgb(97, 44, 40)"  x="5" y="14" width="1" height="1" /><rect shape-rendering="crispEdges" fill="rgb(97, 44, 40)"  x="5" y="15" width="1" height="1" /><rect shape-rendering="crispEdges" fill="rgb(82, 36, 32)"  x="5" y="16" width="1" height="1" /><rect shape-rendering="crispEdges" fill="rgb(66, 24, 20)"  x="5" y="17" width="1" height="1" /><rect shape-rendering="crispEdges" fill="rgb(66, 24, 20)"  x="5" y="19" width="1" height="1" /><rect shape-rendering="crispEdges" fill="rgb(66, 24, 20)"  x="5" y="20" width="1" height="1" /><rect shape-rendering="crispEdges" fill="rgb(66, 24, 20)"  x="5" y="21" width="1" height="1" /><rect shape-rendering="crispEdges" fill="rgb(66, 24, 20)"  x="6" y="7" width="1" height="1" /><rect shape-rendering="crispEdges" fill="rgb(82, 36, 32)"  x="6" y="8" width="1" height="1" /><rect shape-rendering="crispEdges" fill="rgb(97, 44, 40)"  x="6" y="9" width="1" height="1" /><rect shape-rendering="crispEdges" fill="rgb(66, 24, 20)"  x="6" y="10" width="1" height="1" /><rect shape-rendering="crispEdges" fill="rgb(82, 36, 32)"  x="6" y="11" width="1" height="1" /><rect shape-rendering="crispEdges" fill="rgb(66, 24, 20)"  x="6" y="12" width="1" height="1" /><rect shape-rendering="crispEdges" fill="rgb(97, 44, 40)"  x="6" y="13" width="1" height="1" /><rect shape-rendering="crispEdges" fill="rgb(97, 44, 40)"  x="6" y="14" width="1" height="1" /><rect shape-rendering="crispEdges" fill="rgb(97, 44, 40)"  x="6" y="15" width="1" height="1" /><rect shape-rendering="crispEdges" fill="rgb(97, 44, 40)"  x="6" y="16" width="1" height="1" /><rect shape-rendering="crispEdges" fill="rgb(82, 36, 32)"  x="6" y="17" width="1" height="1" /><rect shape-rendering="crispEdges" fill="rgb(66, 24, 20)"  x="6" y="18" width="1" height="1" /><rect shape-rendering="crispEdges" fill="rgb(82, 36, 32)"  x="6" y="19" width="1" height="1" /><rect shape-rendering="crispEdges" fill="rgb(82, 36, 32)"  x="6" y="20" width="1" height="1" /><rect shape-rendering="crispEdges" fill="rgb(66, 24, 20)"  x="6" y="21" width="1" height="1" /><rect shape-rendering="crispEdges" fill="rgb(66, 24, 20)"  x="6" y="22" width="1" height="1" /><rect shape-rendering="crispEdges" fill="rgb(17, 124, 79)"  x="7" y="1" width="1" height="1" /><rect shape-rendering="crispEdges" fill="rgb(17, 124, 79)"  x="7" y="2" width="1" height="1" /><rect shape-rendering="crispEdges" fill="rgb(17, 124, 79)"  x="7" y="3" width="1" height="1" /><rect shape-rendering="crispEdges" fill="rgb(17, 124, 79)"  x="7" y="6" width="1" height="1" /><rect shape-rendering="crispEdges" fill="rgb(66, 24, 20)"  x="7" y="7" width="1" height="1" /><rect shape-rendering="crispEdges" fill="rgb(82, 36, 32)"  x="7" y="8" width="1" height="1" /><rect shape-rendering="crispEdges" fill="rgb(82, 36, 32)"  x="7" y="9" width="1" height="1" /><rect shape-rendering="crispEdges" fill="rgb(86, 40, 36)"  x="7" y="10" width="1" height="1" /><rect shape-rendering="crispEdges" fill="rgb(66, 24, 20)"  x="7" y="11" width="1" height="1" /><rect shape-rendering="crispEdges" fill="rgb(82, 36, 32)"  x="7" y="12" width="1" height="1" /><rect shape-rendering="crispEdges" fill="rgb(66, 24, 20)"  x="7" y="13" width="1" height="1" /><rect shape-rendering="crispEdges" fill="rgb(97, 44, 40)"  x="7" y="14" width="1" height="1" /><rect shape-rendering="crispEdges" fill="rgb(72, 24, 20)"  x="7" y="15" width="1" height="1" /><rect shape-rendering="crispEdges" fill="rgb(97, 44, 40)"  x="7" y="16" width="1" height="1" /><rect shape-rendering="crispEdges" fill="rgb(97, 44, 40)"  x="7" y="17" width="1" height="1" /><rect shape-rendering="crispEdges" fill="rgb(97, 44, 40)"  x="7" y="18" width="1" height="1" /><rect shape-rendering="crispEdges" fill="rgb(97, 44, 40)"  x="7" y="19" width="1" height="1" /><rect shape-rendering="crispEdges" fill="rgb(97, 44, 40)"  x="7" y="20" width="1" height="1" /><rect shape-rendering="crispEdges" fill="rgb(82, 36, 32)"  x="7" y="21" width="1" height="1" /><rect shape-rendering="crispEdges" fill="rgb(82, 36, 32)"  x="7" y="22" width="1" height="1" /><rect shape-rendering="crispEdges" fill="rgb(66, 24, 20)"  x="7" y="23" width="1" height="1" /><rect shape-rendering="crispEdges" fill="rgb(66, 24, 20)"  x="7" y="24" width="1" height="1" /><rect shape-rendering="crispEdges" fill="rgb(17, 124, 79)"  x="8" y="2" width="1" height="1" /><rect shape-rendering="crispEdges" fill="rgb(37, 152, 104)"  x="8" y="3" width="1" height="1" /><rect shape-rendering="crispEdges" fill="rgb(17, 124, 79)"  x="8" y="4" width="1" height="1" /><rect shape-rendering="crispEdges" fill="rgb(17, 124, 79)"  x="8" y="5" width="1" height="1" /><rect shape-rendering="crispEdges" fill="rgb(37, 152, 104)"  x="8" y="6" width="1" height="1" /><rect shape-rendering="crispEdges" fill="rgb(66, 24, 20)"  x="8" y="7" width="1" height="1" /><rect shape-rendering="crispEdges" fill="rgb(66, 24, 20)"  x="8" y="8" width="1" height="1" /><rect shape-rendering="crispEdges" fill="rgb(82, 36, 32)"  x="8" y="9" width="1" height="1" /><rect shape-rendering="crispEdges" fill="rgb(82, 36, 32)"  x="8" y="10" width="1" height="1" /><rect shape-rendering="crispEdges" fill="rgb(82, 36, 32)"  x="8" y="11" width="1" height="1" /><rect shape-rendering="crispEdges" fill="rgb(82, 36, 32)"  x="8" y="12" width="1" height="1" /><rect shape-rendering="crispEdges" fill="rgb(66, 24, 20)"  x="8" y="13" width="1" height="1" /><rect shape-rendering="crispEdges" fill="rgb(97, 44, 40)"  x="8" y="14" width="1" height="1" /><rect shape-rendering="crispEdges" fill="rgb(56, 12, 8)"  x="8" y="15" width="1" height="1" /><rect shape-rendering="crispEdges" fill="rgb(72, 24, 20)"  x="8" y="16" width="1" height="1" /><rect shape-rendering="crispEdges" fill="rgb(97, 44, 40)"  x="8" y="17" width="1" height="1" /><rect shape-rendering="crispEdges" fill="rgb(97, 44, 44)"  x="8" y="18" width="1" height="1" /><rect shape-rendering="crispEdges" fill="rgb(97, 44, 40)"  x="8" y="19" width="1" height="1" /><rect shape-rendering="crispEdges" fill="rgb(97, 44, 40)"  x="8" y="20" width="1" height="1" /><rect shape-rendering="crispEdges" fill="rgb(97, 44, 40)"  x="8" y="21" width="1" height="1" /><rect shape-rendering="crispEdges" fill="rgb(97, 44, 40)"  x="8" y="22" width="1" height="1" /><rect shape-rendering="crispEdges" fill="rgb(82, 36, 32)"  x="8" y="23" width="1" height="1" /><rect shape-rendering="crispEdges" fill="rgb(82, 36, 32)"  x="8" y="24" width="1" height="1" /><rect shape-rendering="crispEdges" fill="rgb(66, 24, 20)"  x="8" y="25" width="1" height="1" /><rect shape-rendering="crispEdges" fill="rgb(17, 124, 79)"  x="9" y="2" width="1" height="1" /><rect shape-rendering="crispEdges" fill="rgb(37, 152, 104)"  x="9" y="3" width="1" height="1" /><rect shape-rendering="crispEdges" fill="rgb(67, 182, 134)"  x="9" y="4" width="1" height="1" /><rect shape-rendering="crispEdges" fill="rgb(67, 182, 134)"  x="9" y="5" width="1" height="1" /><rect shape-rendering="crispEdges" fill="rgb(58, 165, 120)"  x="9" y="6" width="1" height="1" /><rect shape-rendering="crispEdges" fill="rgb(66, 24, 20)"  x="9" y="7" width="1" height="1" /><rect shape-rendering="crispEdges" fill="rgb(97, 44, 40)"  x="9" y="8" width="1" height="1" /><rect shape-rendering="crispEdges" fill="rgb(66, 24, 20)"  x="9" y="9" width="1" height="1" /><rect shape-rendering="crispEdges" fill="rgb(66, 24, 20)"  x="9" y="10" width="1" height="1" /><rect shape-rendering="crispEdges" fill="rgb(82, 32, 32)"  x="9" y="11" width="1" height="1" /><rect shape-rendering="crispEdges" fill="rgb(66, 24, 20)"  x="9" y="12" width="1" height="1" /><rect shape-rendering="crispEdges" fill="rgb(97, 44, 40)"  x="9" y="13" width="1" height="1" /><rect shape-rendering="crispEdges" fill="rgb(97, 44, 40)"  x="9" y="14" width="1" height="1" /><rect shape-rendering="crispEdges" fill="rgb(97, 44, 40)"  x="9" y="15" width="1" height="1" /><rect shape-rendering="crispEdges" fill="rgb(97, 44, 40)"  x="9" y="16" width="1" height="1" /><rect shape-rendering="crispEdges" fill="rgb(97, 44, 40)"  x="9" y="17" width="1" height="1" /><rect shape-rendering="crispEdges" fill="rgb(66, 24, 20)"  x="9" y="18" width="1" height="1" /><rect shape-rendering="crispEdges" fill="rgb(97, 44, 40)"  x="9" y="19" width="1" height="1" /><rect shape-rendering="crispEdges" fill="rgb(97, 44, 40)"  x="9" y="20" width="1" height="1" /><rect shape-rendering="crispEdges" fill="rgb(97, 44, 40)"  x="9" y="21" width="1" height="1" /><rect shape-rendering="crispEdges" fill="rgb(97, 44, 40)"  x="9" y="22" width="1" height="1" /><rect shape-rendering="crispEdges" fill="rgb(97, 44, 40)"  x="9" y="23" width="1" height="1" /><rect shape-rendering="crispEdges" fill="rgb(82, 36, 32)"  x="9" y="24" width="1" height="1" /><rect shape-rendering="crispEdges" fill="rgb(82, 36, 32)"  x="9" y="25" width="1" height="1" /><rect shape-rendering="crispEdges" fill="rgb(66, 24, 20)"  x="9" y="26" width="1" height="1" /><rect shape-rendering="crispEdges" fill="rgb(17, 124, 79)"  x="10" y="2" width="1" height="1" /><rect shape-rendering="crispEdges" fill="rgb(17, 124, 79)"  x="10" y="3" width="1" height="1" /><rect shape-rendering="crispEdges" fill="rgb(37, 152, 104)"  x="10" y="4" width="1" height="1" /><rect shape-rendering="crispEdges" fill="rgb(37, 152, 104)"  x="10" y="6" width="1" height="1" /><rect shape-rendering="crispEdges" fill="rgb(17, 124, 79)"  x="10" y="7" width="1" height="1" /><rect shape-rendering="crispEdges" fill="rgb(82, 32, 32)"  x="10" y="8" width="1" height="1" /><rect shape-rendering="crispEdges" fill="rgb(97, 44, 40)"  x="10" y="9" width="1" height="1" /><rect shape-rendering="crispEdges" fill="rgb(97, 44, 40)"  x="10" y="10" width="1" height="1" /><rect shape-rendering="crispEdges" fill="rgb(97, 44, 40)"  x="10" y="11" width="1" height="1" /><rect shape-rendering="crispEdges" fill="rgb(66, 24, 20)"  x="10" y="12" width="1" height="1" /><rect shape-rendering="crispEdges" fill="rgb(97, 44, 40)"  x="10" y="13" width="1" height="1" /><rect shape-rendering="crispEdges" fill="rgb(66, 24, 20)"  x="10" y="14" width="1" height="1" /><rect shape-rendering="crispEdges" fill="rgb(72, 24, 20)"  x="10" y="15" width="1" height="1" /><rect shape-rendering="crispEdges" fill="rgb(97, 44, 40)"  x="10" y="16" width="1" height="1" /><rect shape-rendering="crispEdges" fill="rgb(97, 44, 40)"  x="10" y="17" width="1" height="1" /><rect shape-rendering="crispEdges" fill="rgb(56, 12, 8)"  x="10" y="18" width="1" height="1" /><rect shape-rendering="crispEdges" fill="rgb(72, 24, 20)"  x="10" y="19" width="1" height="1" /><rect shape-rendering="crispEdges" fill="rgb(97, 44, 40)"  x="10" y="20" width="1" height="1" /><rect shape-rendering="crispEdges" fill="rgb(97, 44, 40)"  x="10" y="21" width="1" height="1" /><rect shape-rendering="crispEdges" fill="rgb(66, 24, 20)"  x="10" y="22" width="1" height="1" /><rect shape-rendering="crispEdges" fill="rgb(97, 44, 40)"  x="10" y="23" width="1" height="1" /><rect shape-rendering="crispEdges" fill="rgb(97, 44, 40)"  x="10" y="24" width="1" height="1" /><rect shape-rendering="crispEdges" fill="rgb(82, 36, 32)"  x="10" y="25" width="1" height="1" /><rect shape-rendering="crispEdges" fill="rgb(82, 36, 32)"  x="10" y="26" width="1" height="1" /><rect shape-rendering="crispEdges" fill="rgb(66, 24, 20)"  x="10" y="27" width="1" height="1" /><rect shape-rendering="crispEdges" fill="rgb(21, 127, 83)"  x="11" y="2" width="1" height="1" /><rect shape-rendering="crispEdges" fill="rgb(66, 24, 20)"  x="11" y="8" width="1" height="1" /><rect shape-rendering="crispEdges" fill="rgb(97, 44, 40)"  x="11" y="9" width="1" height="1" /><rect shape-rendering="crispEdges" fill="rgb(97, 44, 40)"  x="11" y="10" width="1" height="1" /><rect shape-rendering="crispEdges" fill="rgb(66, 24, 20)"  x="11" y="11" width="1" height="1" /><rect shape-rendering="crispEdges" fill="rgb(97, 44, 40)"  x="11" y="12" width="1" height="1" /><rect shape-rendering="crispEdges" fill="rgb(97, 44, 40)"  x="11" y="13" width="1" height="1" /><rect shape-rendering="crispEdges" fill="rgb(97, 44, 40)"  x="11" y="14" width="1" height="1" /><rect shape-rendering="crispEdges" fill="rgb(56, 12, 8)"  x="11" y="15" width="1" height="1" /><rect shape-rendering="crispEdges" fill="rgb(97, 44, 40)"  x="11" y="16" width="1" height="1" /><rect shape-rendering="crispEdges" fill="rgb(97, 44, 40)"  x="11" y="17" width="1" height="1" /><rect shape-rendering="crispEdges" fill="rgb(97, 44, 40)"  x="11" y="18" width="1" height="1" /><rect shape-rendering="crispEdges" fill="rgb(97, 44, 40)"  x="11" y="19" width="1" height="1" /><rect shape-rendering="crispEdges" fill="rgb(97, 44, 40)"  x="11" y="20" width="1" height="1" /><rect shape-rendering="crispEdges" fill="rgb(66, 24, 20)"  x="11" y="21" width="1" height="1" /><rect shape-rendering="crispEdges" fill="rgb(56, 12, 8)"  x="11" y="22" width="1" height="1" /><rect shape-rendering="crispEdges" fill="rgb(82, 36, 32)"  x="11" y="23" width="1" height="1" /><rect shape-rendering="crispEdges" fill="rgb(66, 24, 20)"  x="11" y="24" width="1" height="1" /><rect shape-rendering="crispEdges" fill="rgb(66, 24, 20)"  x="11" y="25" width="1" height="1" /><rect shape-rendering="crispEdges" fill="rgb(82, 36, 32)"  x="11" y="26" width="1" height="1" /><rect shape-rendering="crispEdges" fill="rgb(86, 40, 36)"  x="11" y="27" width="1" height="1" /><rect shape-rendering="crispEdges" fill="rgb(66, 24, 20)"  x="11" y="28" width="1" height="1" /><rect shape-rendering="crispEdges" fill="rgb(66, 24, 20)"  x="12" y="8" width="1" height="1" /><rect shape-rendering="crispEdges" fill="rgb(97, 44, 40)"  x="12" y="9" width="1" height="1" /><rect shape-rendering="crispEdges" fill="rgb(97, 44, 40)"  x="12" y="10" width="1" height="1" /><rect shape-rendering="crispEdges" fill="rgb(66, 24, 20)"  x="12" y="11" width="1" height="1" /><rect shape-rendering="crispEdges" fill="rgb(97, 44, 40)"  x="12" y="12" width="1" height="1" /><rect shape-rendering="crispEdges" fill="rgb(255, 255, 205)"  x="12" y="13" width="1" height="1" /><rect shape-rendering="crispEdges" fill="rgb(255, 255, 205)"  x="12" y="14" width="1" height="1" /><rect shape-rendering="crispEdges" fill="rgb(255, 255, 205)"  x="12" y="15" width="1" height="1" /><rect shape-rendering="crispEdges" fill="rgb(255, 255, 205)"  x="12" y="16" width="1" height="1" /><rect shape-rendering="crispEdges" fill="rgb(255, 255, 205)"  x="12" y="17" width="1" height="1" /><rect shape-rendering="crispEdges" fill="rgb(255, 255, 205)"  x="12" y="18" width="1" height="1" /><rect shape-rendering="crispEdges" fill="rgb(97, 44, 40)"  x="12" y="19" width="1" height="1" /><rect shape-rendering="crispEdges" fill="rgb(97, 44, 40)"  x="12" y="20" width="1" height="1" /><rect shape-rendering="crispEdges" fill="rgb(97, 44, 40)"  x="12" y="21" width="1" height="1" /><rect shape-rendering="crispEdges" fill="rgb(97, 44, 40)"  x="12" y="22" width="1" height="1" /><rect shape-rendering="crispEdges" fill="rgb(66, 24, 20)"  x="12" y="23" width="1" height="1" /><rect shape-rendering="crispEdges" fill="rgb(82, 36, 32)"  x="12" y="24" width="1" height="1" /><rect shape-rendering="crispEdges" fill="rgb(82, 36, 32)"  x="12" y="25" width="1" height="1" /><rect shape-rendering="crispEdges" fill="rgb(66, 24, 20)"  x="12" y="26" width="1" height="1" /><rect shape-rendering="crispEdges" fill="rgb(82, 36, 32)"  x="12" y="27" width="1" height="1" /><rect shape-rendering="crispEdges" fill="rgb(86, 40, 36)"  x="12" y="28" width="1" height="1" /><rect shape-rendering="crispEdges" fill="rgb(66, 24, 20)"  x="12" y="29" width="1" height="1" /><rect shape-rendering="crispEdges" fill="rgb(66, 24, 20)"  x="13" y="8" width="1" height="1" /><rect shape-rendering="crispEdges" fill="rgb(97, 44, 40)"  x="13" y="9" width="1" height="1" /><rect shape-rendering="crispEdges" fill="rgb(66, 24, 20)"  x="13" y="10" width="1" height="1" /><rect shape-rendering="crispEdges" fill="rgb(97, 44, 40)"  x="13" y="11" width="1" height="1" /><rect shape-rendering="crispEdges" fill="rgb(255, 255, 205)"  x="13" y="12" width="1" height="1" /><rect shape-rendering="crispEdges" fill="rgb(97, 44, 40)"  x="13" y="13" width="1" height="1" /><rect shape-rendering="crispEdges" fill="rgb(72, 24, 20)"  x="13" y="14" width="1" height="1" /><rect shape-rendering="crispEdges" fill="rgb(56, 12, 8)"  x="13" y="15" width="1" height="1" /><rect shape-rendering="crispEdges" fill="rgb(97, 44, 40)"  x="13" y="16" width="1" height="1" /><rect shape-rendering="crispEdges" fill="rgb(97, 44, 40)"  x="13" y="17" width="1" height="1" /><rect shape-rendering="crispEdges" fill="rgb(97, 44, 40)"  x="13" y="18" width="1" height="1" /><rect shape-rendering="crispEdges" fill="rgb(255, 255, 205)"  x="13" y="19" width="1" height="1" /><rect shape-rendering="crispEdges" fill="rgb(72, 24, 20)"  x="13" y="20" width="1" height="1" /><rect shape-rendering="crispEdges" fill="rgb(97, 44, 40)"  x="13" y="21" width="1" height="1" /><rect shape-rendering="crispEdges" fill="rgb(66, 24, 20)"  x="13" y="22" width="1" height="1" /><rect shape-rendering="crispEdges" fill="rgb(66, 24, 20)"  x="13" y="23" width="1" height="1" /><rect shape-rendering="crispEdges" fill="rgb(82, 36, 32)"  x="13" y="24" width="1" height="1" /><rect shape-rendering="crispEdges" fill="rgb(97, 48, 44)"  x="13" y="25" width="1" height="1" /><rect shape-rendering="crispEdges" fill="rgb(66, 24, 20)"  x="13" y="26" width="1" height="1" /><rect shape-rendering="crispEdges" fill="rgb(86, 40, 36)"  x="13" y="27" width="1" height="1" /><rect shape-rendering="crispEdges" fill="rgb(86, 40, 36)"  x="13" y="28" width="1" height="1" /><rect shape-rendering="crispEdges" fill="rgb(66, 24, 20)"  x="13" y="29" width="1" height="1" /><rect shape-rendering="crispEdges" fill="rgb(66, 24, 20)"  x="14" y="7" width="1" height="1" /><rect shape-rendering="crispEdges" fill="rgb(97, 44, 40)"  x="14" y="8" width="1" height="1" /><rect shape-rendering="crispEdges" fill="rgb(97, 44, 40)"  x="14" y="9" width="1" height="1" /><rect shape-rendering="crispEdges" fill="rgb(66, 24, 20)"  x="14" y="10" width="1" height="1" /><rect shape-rendering="crispEdges" fill="rgb(255, 255, 205)"  x="14" y="11" width="1" height="1" /><rect shape-rendering="crispEdges" fill="rgb(97, 44, 40)"  x="14" y="12" width="1" height="1" /><rect shape-rendering="crispEdges" fill="rgb(66, 24, 20)"  x="14" y="13" width="1" height="1" /><rect shape-rendering="crispEdges" fill="rgb(97, 44, 40)"  x="14" y="14" width="1" height="1" /><rect shape-rendering="crispEdges" fill="rgb(255, 255, 205)"  x="14" y="15" width="1" height="1" /><rect shape-rendering="crispEdges" fill="rgb(255, 255, 205)"  x="14" y="16" width="1" height="1" /><rect shape-rendering="crispEdges" fill="rgb(72, 24, 20)"  x="14" y="17" width="1" height="1" /><rect shape-rendering="crispEdges" fill="rgb(97, 44, 40)"  x="14" y="18" width="1" height="1" /><rect shape-rendering="crispEdges" fill="rgb(97, 44, 40)"  x="14" y="19" width="1" height="1" /><rect shape-rendering="crispEdges" fill="rgb(255, 255, 205)"  x="14" y="20" width="1" height="1" /><rect shape-rendering="crispEdges" fill="rgb(72, 24, 20)"  x="14" y="21" width="1" height="1" /><rect shape-rendering="crispEdges" fill="rgb(66, 24, 20)"  x="14" y="22" width="1" height="1" /><rect shape-rendering="crispEdges" fill="rgb(97, 44, 40)"  x="14" y="23" width="1" height="1" /><rect shape-rendering="crispEdges" fill="rgb(66, 24, 20)"  x="14" y="24" width="1" height="1" /><rect shape-rendering="crispEdges" fill="rgb(82, 36, 32)"  x="14" y="25" width="1" height="1" /><rect shape-rendering="crispEdges" fill="rgb(82, 36, 32)"  x="14" y="26" width="1" height="1" /><rect shape-rendering="crispEdges" fill="rgb(82, 36, 32)"  x="14" y="27" width="1" height="1" /><rect shape-rendering="crispEdges" fill="rgb(66, 24, 20)"  x="14" y="28" width="1" height="1" /><rect shape-rendering="crispEdges" fill="rgb(66, 24, 20)"  x="15" y="7" width="1" height="1" /><rect shape-rendering="crispEdges" fill="rgb(97, 44, 40)"  x="15" y="8" width="1" height="1" /><rect shape-rendering="crispEdges" fill="rgb(97, 44, 40)"  x="15" y="9" width="1" height="1" /><rect shape-rendering="crispEdges" fill="rgb(66, 24, 20)"  x="15" y="10" width="1" height="1" /><rect shape-rendering="crispEdges" fill="rgb(255, 255, 205)"  x="15" y="11" width="1" height="1" /><rect shape-rendering="crispEdges" fill="rgb(66, 24, 20)"  x="15" y="12" width="1" height="1" /><rect shape-rendering="crispEdges" fill="rgb(97, 44, 40)"  x="15" y="13" width="1" height="1" /><rect shape-rendering="crispEdges" fill="rgb(255, 255, 205)"  x="15" y="14" width="1" height="1" /><rect shape-rendering="crispEdges" fill="rgb(255, 255, 205)"  x="15" y="15" width="1" height="1" /><rect shape-rendering="crispEdges" fill="rgb(72, 24, 20)"  x="15" y="16" width="1" height="1" /><rect shape-rendering="crispEdges" fill="rgb(56, 12, 8)"  x="15" y="17" width="1" height="1" /><rect shape-rendering="crispEdges" fill="rgb(97, 44, 40)"  x="15" y="18" width="1" height="1" /><rect shape-rendering="crispEdges" fill="rgb(97, 44, 40)"  x="15" y="19" width="1" height="1" /><rect shape-rendering="crispEdges" fill="rgb(255, 255, 205)"  x="15" y="20" width="1" height="1" /><rect shape-rendering="crispEdges" fill="rgb(97, 44, 40)"  x="15" y="21" width="1" height="1" /><rect shape-rendering="crispEdges" fill="rgb(66, 24, 20)"  x="15" y="22" width="1" height="1" /><rect shape-rendering="crispEdges" fill="rgb(97, 44, 40)"  x="15" y="23" width="1" height="1" /><rect shape-rendering="crispEdges" fill="rgb(97, 44, 40)"  x="15" y="24" width="1" height="1" /><rect shape-rendering="crispEdges" fill="rgb(66, 24, 20)"  x="15" y="25" width="1" height="1" /><rect shape-rendering="crispEdges" fill="rgb(66, 24, 20)"  x="15" y="26" width="1" height="1" /><rect shape-rendering="crispEdges" fill="rgb(66, 24, 20)"  x="15" y="27" width="1" height="1" /><rect shape-rendering="crispEdges" fill="rgb(66, 24, 20)"  x="16" y="6" width="1" height="1" /><rect shape-rendering="crispEdges" fill="rgb(97, 44, 40)"  x="16" y="7" width="1" height="1" /><rect shape-rendering="crispEdges" fill="rgb(97, 44, 40)"  x="16" y="8" width="1" height="1" /><rect shape-rendering="crispEdges" fill="rgb(97, 44, 40)"  x="16" y="9" width="1" height="1" /><rect shape-rendering="crispEdges" fill="rgb(255, 255, 205)"  x="16" y="10" width="1" height="1" /><rect shape-rendering="crispEdges" fill="rgb(82, 36, 32)"  x="16" y="11" width="1" height="1" /><rect shape-rendering="crispEdges" fill="rgb(82, 36, 32)"  x="16" y="12" width="1" height="1" /><rect shape-rendering="crispEdges" fill="rgb(56, 12, 8)"  x="16" y="13" width="1" height="1" /><rect shape-rendering="crispEdges" fill="rgb(255, 255, 205)"  x="16" y="14" width="1" height="1" /><rect shape-rendering="crispEdges" fill="rgb(97, 44, 40)"  x="16" y="15" width="1" height="1" /><rect shape-rendering="crispEdges" fill="rgb(97, 44, 40)"  x="16" y="16" width="1" height="1" /><rect shape-rendering="crispEdges" fill="rgb(255, 255, 205)"  x="16" y="17" width="1" height="1" /><rect shape-rendering="crispEdges" fill="rgb(97, 44, 40)"  x="16" y="18" width="1" height="1" /><rect shape-rendering="crispEdges" fill="rgb(97, 44, 40)"  x="16" y="19" width="1" height="1" /><rect shape-rendering="crispEdges" fill="rgb(72, 24, 20)"  x="16" y="20" width="1" height="1" /><rect shape-rendering="crispEdges" fill="rgb(255, 255, 205)"  x="16" y="21" width="1" height="1" /><rect shape-rendering="crispEdges" fill="rgb(66, 24, 20)"  x="16" y="22" width="1" height="1" /><rect shape-rendering="crispEdges" fill="rgb(97, 44, 40)"  x="16" y="23" width="1" height="1" /><rect shape-rendering="crispEdges" fill="rgb(97, 44, 40)"  x="16" y="24" width="1" height="1" /><rect shape-rendering="crispEdges" fill="rgb(82, 36, 32)"  x="16" y="25" width="1" height="1" /><rect shape-rendering="crispEdges" fill="rgb(66, 24, 20)"  x="16" y="26" width="1" height="1" /><rect shape-rendering="crispEdges" fill="rgb(66, 24, 20)"  x="17" y="6" width="1" height="1" /><rect shape-rendering="crispEdges" fill="rgb(97, 44, 40)"  x="17" y="7" width="1" height="1" /><rect shape-rendering="crispEdges" fill="rgb(97, 44, 40)"  x="17" y="8" width="1" height="1" /><rect shape-rendering="crispEdges" fill="rgb(97, 44, 40)"  x="17" y="9" width="1" height="1" /><rect shape-rendering="crispEdges" fill="rgb(255, 255, 205)"  x="17" y="10" width="1" height="1" /><rect shape-rendering="crispEdges" fill="rgb(66, 24, 20)"  x="17" y="11" width="1" height="1" /><rect shape-rendering="crispEdges" fill="rgb(66, 24, 20)"  x="17" y="12" width="1" height="1" /><rect shape-rendering="crispEdges" fill="rgb(92, 40, 40)"  x="17" y="13" width="1" height="1" /><rect shape-rendering="crispEdges" fill="rgb(97, 44, 40)"  x="17" y="14" width="1" height="1" /><rect shape-rendering="crispEdges" fill="rgb(72, 24, 20)"  x="17" y="15" width="1" height="1" /><rect shape-rendering="crispEdges" fill="rgb(72, 24, 20)"  x="17" y="16" width="1" height="1" /><rect shape-rendering="crispEdges" fill="rgb(56, 12, 8)"  x="17" y="17" width="1" height="1" /><rect shape-rendering="crispEdges" fill="rgb(255, 255, 205)"  x="17" y="18" width="1" height="1" /><rect shape-rendering="crispEdges" fill="rgb(255, 255, 205)"  x="17" y="19" width="1" height="1" /><rect shape-rendering="crispEdges" fill="rgb(56, 12, 8)"  x="17" y="20" width="1" height="1" /><rect shape-rendering="crispEdges" fill="rgb(255, 255, 205)"  x="17" y="21" width="1" height="1" /><rect shape-rendering="crispEdges" fill="rgb(97, 44, 40)"  x="17" y="22" width="1" height="1" /><rect shape-rendering="crispEdges" fill="rgb(97, 44, 40)"  x="17" y="23" width="1" height="1" /><rect shape-rendering="crispEdges" fill="rgb(82, 36, 32)"  x="17" y="24" width="1" height="1" /><rect shape-rendering="crispEdges" fill="rgb(66, 24, 20)"  x="17" y="25" width="1" height="1" /><rect shape-rendering="crispEdges" fill="rgb(66, 24, 20)"  x="18" y="5" width="1" height="1" /><rect shape-rendering="crispEdges" fill="rgb(82, 36, 32)"  x="18" y="6" width="1" height="1" /><rect shape-rendering="crispEdges" fill="rgb(97, 44, 40)"  x="18" y="7" width="1" height="1" /><rect shape-rendering="crispEdges" fill="rgb(97, 44, 40)"  x="18" y="8" width="1" height="1" /><rect shape-rendering="crispEdges" fill="rgb(97, 44, 40)"  x="18" y="9" width="1" height="1" /><rect shape-rendering="crispEdges" fill="rgb(255, 255, 205)"  x="18" y="10" width="1" height="1" /><rect shape-rendering="crispEdges" fill="rgb(66, 24, 20)"  x="18" y="11" width="1" height="1" /><rect shape-rendering="crispEdges" fill="rgb(255, 255, 205)"  x="18" y="13" width="1" height="1" /><rect shape-rendering="crispEdges" fill="rgb(255, 255, 205)"  x="18" y="14" width="1" height="1" /><rect shape-rendering="crispEdges" fill="rgb(92, 40, 40)"  x="18" y="15" width="1" height="1" /><rect shape-rendering="crispEdges" fill="rgb(56, 12, 8)"  x="18" y="16" width="1" height="1" /><rect shape-rendering="crispEdges" fill="rgb(97, 44, 40)"  x="18" y="17" width="1" height="1" /><rect shape-rendering="crispEdges" fill="rgb(97, 44, 40)"  x="18" y="18" width="1" height="1" /><rect shape-rendering="crispEdges" fill="rgb(72, 24, 20)"  x="18" y="19" width="1" height="1" /><rect shape-rendering="crispEdges" fill="rgb(97, 44, 40)"  x="18" y="20" width="1" height="1" /><rect shape-rendering="crispEdges" fill="rgb(255, 255, 205)"  x="18" y="21" width="1" height="1" /><rect shape-rendering="crispEdges" fill="rgb(97, 44, 40)"  x="18" y="22" width="1" height="1" /><rect shape-rendering="crispEdges" fill="rgb(82, 36, 32)"  x="18" y="23" width="1" height="1" /><rect shape-rendering="crispEdges" fill="rgb(66, 24, 20)"  x="18" y="24" width="1" height="1" /><rect shape-rendering="crispEdges" fill="rgb(17, 124, 79)"  x="18" y="25" width="1" height="1" /><rect shape-rendering="crispEdges" fill="rgb(17, 124, 79)"  x="18" y="26" width="1" height="1" /><rect shape-rendering="crispEdges" fill="rgb(66, 24, 20)"  x="19" y="6" width="1" height="1" /><rect shape-rendering="crispEdges" fill="rgb(97, 44, 40)"  x="19" y="7" width="1" height="1" /><rect shape-rendering="crispEdges" fill="rgb(82, 32, 32)"  x="19" y="8" width="1" height="1" /><rect shape-rendering="crispEdges" fill="rgb(97, 44, 40)"  x="19" y="9" width="1" height="1" /><rect shape-rendering="crispEdges" fill="rgb(255, 255, 205)"  x="19" y="10" width="1" height="1" /><rect shape-rendering="crispEdges" fill="rgb(66, 24, 20)"  x="19" y="11" width="1" height="1" /><rect shape-rendering="crispEdges" fill="rgb(255, 255, 205)"  x="19" y="12" width="1" height="1" /><rect shape-rendering="crispEdges" fill="rgb(255, 255, 205)"  x="19" y="13" width="1" height="1" /><rect shape-rendering="crispEdges" fill="rgb(66, 24, 20)"  x="19" y="15" width="1" height="1" /><rect shape-rendering="crispEdges" fill="rgb(92, 40, 40)"  x="19" y="16" width="1" height="1" /><rect shape-rendering="crispEdges" fill="rgb(97, 44, 40)"  x="19" y="17" width="1" height="1" /><rect shape-rendering="crispEdges" fill="rgb(72, 24, 20)"  x="19" y="18" width="1" height="1" /><rect shape-rendering="crispEdges" fill="rgb(56, 12, 8)"  x="19" y="19" width="1" height="1" /><rect shape-rendering="crispEdges" fill="rgb(97, 44, 40)"  x="19" y="20" width="1" height="1" /><rect shape-rendering="crispEdges" fill="rgb(255, 255, 205)"  x="19" y="21" width="1" height="1" /><rect shape-rendering="crispEdges" fill="rgb(97, 44, 40)"  x="19" y="22" width="1" height="1" /><rect shape-rendering="crispEdges" fill="rgb(66, 24, 20)"  x="19" y="23" width="1" height="1" /><rect shape-rendering="crispEdges" fill="rgb(17, 124, 79)"  x="19" y="24" width="1" height="1" /><rect shape-rendering="crispEdges" fill="rgb(66, 173, 128)"  x="19" y="25" width="1" height="1" /><rect shape-rendering="crispEdges" fill="rgb(66, 173, 128)"  x="19" y="26" width="1" height="1" /><rect shape-rendering="crispEdges" fill="rgb(17, 124, 79)"  x="19" y="27" width="1" height="1" /><rect shape-rendering="crispEdges" fill="rgb(66, 24, 20)"  x="20" y="6" width="1" height="1" /><rect shape-rendering="crispEdges" fill="rgb(66, 24, 20)"  x="20" y="7" width="1" height="1" /><rect shape-rendering="crispEdges" fill="rgb(97, 44, 40)"  x="20" y="8" width="1" height="1" /><rect shape-rendering="crispEdges" fill="rgb(82, 36, 32)"  x="20" y="9" width="1" height="1" /><rect shape-rendering="crispEdges" fill="rgb(66, 24, 20)"  x="20" y="10" width="1" height="1" /><rect shape-rendering="crispEdges" fill="rgb(255, 255, 205)"  x="20" y="11" width="1" height="1" /><rect shape-rendering="crispEdges" fill="rgb(255, 255, 205)"  x="20" y="14" width="1" height="1" /><rect shape-rendering="crispEdges" fill="rgb(255, 255, 205)"  x="20" y="15" width="1" height="1" /><rect shape-rendering="crispEdges" fill="rgb(255, 255, 205)"  x="20" y="16" width="1" height="1" /><rect shape-rendering="crispEdges" fill="rgb(255, 255, 205)"  x="20" y="17" width="1" height="1" /><rect shape-rendering="crispEdges" fill="rgb(82, 36, 32)"  x="20" y="18" width="1" height="1" /><rect shape-rendering="crispEdges" fill="rgb(97, 44, 40)"  x="20" y="19" width="1" height="1" /><rect shape-rendering="crispEdges" fill="rgb(255, 255, 205)"  x="20" y="20" width="1" height="1" /><rect shape-rendering="crispEdges" fill="rgb(97, 44, 40)"  x="20" y="21" width="1" height="1" /><rect shape-rendering="crispEdges" fill="rgb(97, 44, 40)"  x="20" y="22" width="1" height="1" /><rect shape-rendering="crispEdges" fill="rgb(66, 24, 20)"  x="20" y="23" width="1" height="1" /><rect shape-rendering="crispEdges" fill="rgb(37, 152, 104)"  x="20" y="25" width="1" height="1" /><rect shape-rendering="crispEdges" fill="rgb(67, 182, 134)"  x="20" y="26" width="1" height="1" /><rect shape-rendering="crispEdges" fill="rgb(66, 173, 128)"  x="20" y="27" width="1" height="1" /><rect shape-rendering="crispEdges" fill="rgb(17, 124, 79)"  x="20" y="28" width="1" height="1" /><rect shape-rendering="crispEdges" fill="rgb(17, 124, 79)"  x="20" y="29" width="1" height="1" /><rect shape-rendering="crispEdges" fill="rgb(17, 124, 79)"  x="20" y="30" width="1" height="1" /><rect shape-rendering="crispEdges" fill="rgb(66, 24, 20)"  x="21" y="8" width="1" height="1" /><rect shape-rendering="crispEdges" fill="rgb(66, 24, 20)"  x="21" y="9" width="1" height="1" /><rect shape-rendering="crispEdges" fill="rgb(255, 255, 205)"  x="21" y="12" width="1" height="1" /><rect shape-rendering="crispEdges" fill="rgb(66, 24, 20)"  x="21" y="17" width="1" height="1" /><rect shape-rendering="crispEdges" fill="rgb(255, 255, 205)"  x="21" y="18" width="1" height="1" /><rect shape-rendering="crispEdges" fill="rgb(255, 255, 205)"  x="21" y="19" width="1" height="1" /><rect shape-rendering="crispEdges" fill="rgb(66, 24, 20)"  x="21" y="20" width="1" height="1" /><rect shape-rendering="crispEdges" fill="rgb(97, 44, 40)"  x="21" y="21" width="1" height="1" /><rect shape-rendering="crispEdges" fill="rgb(82, 36, 32)"  x="21" y="22" width="1" height="1" /><rect shape-rendering="crispEdges" fill="rgb(66, 24, 20)"  x="21" y="23" width="1" height="1" /><rect shape-rendering="crispEdges" fill="rgb(37, 152, 104)"  x="21" y="26" width="1" height="1" /><rect shape-rendering="crispEdges" fill="rgb(67, 182, 134)"  x="21" y="27" width="1" height="1" /><rect shape-rendering="crispEdges" fill="rgb(67, 182, 134)"  x="21" y="28" width="1" height="1" /><rect shape-rendering="crispEdges" fill="rgb(17, 124, 79)"  x="21" y="29" width="1" height="1" /><rect shape-rendering="crispEdges" fill="rgb(255, 255, 205)"  x="22" y="13" width="1" height="1" /><rect shape-rendering="crispEdges" fill="rgb(255, 255, 205)"  x="22" y="14" width="1" height="1" /><rect shape-rendering="crispEdges" fill="rgb(255, 255, 205)"  x="22" y="15" width="1" height="1" /><rect shape-rendering="crispEdges" fill="rgb(255, 255, 205)"  x="22" y="16" width="1" height="1" /><rect shape-rendering="crispEdges" fill="rgb(255, 255, 205)"  x="22" y="17" width="1" height="1" /><rect shape-rendering="crispEdges" fill="rgb(66, 24, 20)"  x="22" y="19" width="1" height="1" /><rect shape-rendering="crispEdges" fill="rgb(66, 24, 20)"  x="22" y="20" width="1" height="1" /><rect shape-rendering="crispEdges" fill="rgb(97, 44, 40)"  x="22" y="21" width="1" height="1" /><rect shape-rendering="crispEdges" fill="rgb(66, 24, 20)"  x="22" y="22" width="1" height="1" /><rect shape-rendering="crispEdges" fill="rgb(37, 152, 104)"  x="22" y="27" width="1" height="1" /><rect shape-rendering="crispEdges" fill="rgb(17, 124, 79)"  x="22" y="28" width="1" height="1" /><rect shape-rendering="crispEdges" fill="rgb(66, 24, 20)"  x="23" y="19" width="1" height="1" /><rect shape-rendering="crispEdges" fill="rgb(97, 44, 40)"  x="23" y="20" width="1" height="1" /><rect shape-rendering="crispEdges" fill="rgb(82, 36, 32)"  x="23" y="21" width="1" height="1" /><rect shape-rendering="crispEdges" fill="rgb(66, 24, 20)"  x="23" y="22" width="1" height="1" /><rect shape-rendering="crispEdges" fill="rgb(37, 152, 104)"  x="23" y="28" width="1" height="1" /><rect shape-rendering="crispEdges" fill="rgb(66, 24, 20)"  x="24" y="18" width="1" height="1" /><rect shape-rendering="crispEdges" fill="rgb(97, 44, 40)"  x="24" y="19" width="1" height="1" /><rect shape-rendering="crispEdges" fill="rgb(97, 44, 40)"  x="24" y="20" width="1" height="1" /><rect shape-rendering="crispEdges" fill="rgb(66, 24, 20)"  x="24" y="21" width="1" height="1" /><rect shape-rendering="crispEdges" fill="rgb(66, 24, 20)"  x="25" y="17" width="1" height="1" /><rect shape-rendering="crispEdges" fill="rgb(97, 44, 40)"  x="25" y="18" width="1" height="1" /><rect shape-rendering="crispEdges" fill="rgb(97, 44, 40)"  x="25" y="19" width="1" height="1" /><rect shape-rendering="crispEdges" fill="rgb(82, 36, 32)"  x="25" y="20" width="1" height="1" /><rect shape-rendering="crispEdges" fill="rgb(66, 24, 20)"  x="25" y="21" width="1" height="1" /><rect shape-rendering="crispEdges" fill="rgb(66, 24, 20)"  x="26" y="17" width="1" height="1" /><rect shape-rendering="crispEdges" fill="rgb(82, 36, 32)"  x="26" y="18" width="1" height="1" /><rect shape-rendering="crispEdges" fill="rgb(66, 24, 20)"  x="26" y="19" width="1" height="1" /><rect shape-rendering="crispEdges" fill="rgb(82, 36, 32)"  x="26" y="20" width="1" height="1" /><rect shape-rendering="crispEdges" fill="rgb(66, 24, 20)"  x="26" y="21" width="1" height="1" /><rect shape-rendering="crispEdges" fill="rgb(66, 24, 20)"  x="27" y="18" width="1" height="1" /><rect shape-rendering="crispEdges" fill="rgb(66, 24, 20)"  x="27" y="20" width="1" height="1" /></svg>