<svg xmlns="http://www.w3.org/2000/svg" xmlns:xlink= "http://www.w3.org/1999/xlink" width="32" height="32" viewBox ="0 0 32 32"><rect shape-rendering="crispEdges" fill="rgb(205, 164, 24)"  x="4" y="18" width="1" height="1" /><rect shape-rendering="crispEdges" fill="rgb(246, 222, 139)"  x="4" y="19" width="1" height="1" /><rect shape-rendering="crispEdges" fill="rgb(123, 57, 16)"  x="4" y="20" width="1" height="1" /><rect shape-rendering="crispEdges" fill="rgb(197, 131, 24)"  x="5" y="11" width="1" height="1" /><rect shape-rendering="crispEdges" fill="rgb(197, 131, 24)"  x="5" y="12" width="1" height="1" /><rect shape-rendering="crispEdges" fill="rgb(164, 82, 32)"  x="5" y="13" width="1" height="1" /><rect shape-rendering="crispEdges" fill="rgb(205, 164, 24)"  x="5" y="17" width="1" height="1" /><rect shape-rendering="crispEdges" fill="rgb(255, 230, 180)"  x="5" y="18" width="1" height="1" /><rect shape-rendering="crispEdges" fill="rgb(246, 222, 139)"  x="5" y="19" width="1" height="1" /><rect shape-rendering="crispEdges" fill="rgb(123, 57, 16)"  x="5" y="20" width="1" height="1" /><rect shape-rendering="crispEdges" fill="rgb(123, 57, 16)"  x="5" y="21" width="1" height="1" /><rect shape-rendering="crispEdges" fill="rgb(197, 131, 24)"  x="6" y="11" width="1" height="1" /><rect shape-rendering="crispEdges" fill="rgb(238, 197, 57)"  x="6" y="12" width="1" height="1" /><rect shape-rendering="crispEdges" fill="rgb(189, 156, 16)"  x="6" y="13" width="1" height="1" /><rect shape-rendering="crispEdges" fill="rgb(164, 82, 32)"  x="6" y="14" width="1" height="1" /><rect shape-rendering="crispEdges" fill="rgb(205, 164, 24)"  x="6" y="16" width="1" height="1" /><rect shape-rendering="crispEdges" fill="rgb(238, 197, 65)"  x="6" y="17" width="1" height="1" /><rect shape-rendering="crispEdges" fill="rgb(255, 238, 180)"  x="6" y="18" width="1" height="1" /><rect shape-rendering="crispEdges" fill="rgb(246, 222, 139)"  x="6" y="19" width="1" height="1" /><rect shape-rendering="crispEdges" fill="rgb(123, 57, 16)"  x="6" y="20" width="1" height="1" /><rect shape-rendering="crispEdges" fill="rgb(123, 57, 16)"  x="6" y="21" width="1" height="1" /><rect shape-rendering="crispEdges" fill="rgb(197, 131, 24)"  x="7" y="11" width="1" height="1" /><rect shape-rendering="crispEdges" fill="rgb(238, 197, 57)"  x="7" y="12" width="1" height="1" /><rect shape-rendering="crispEdges" fill="rgb(238, 197, 57)"  x="7" y="13" width="1" height="1" /><rect shape-rendering="crispEdges" fill="rgb(172, 139, 16)"  x="7" y="14" width="1" height="1" /><rect shape-rendering="crispEdges" fill="rgb(164, 82, 32)"  x="7" y="15" width="1" height="1" /><rect shape-rendering="crispEdges" fill="rgb(238, 197, 65)"  x="7" y="16" width="1" height="1" /><rect shape-rendering="crispEdges" fill="rgb(255, 238, 189)"  x="7" y="17" width="1" height="1" /><rect shape-rendering="crispEdges" fill="rgb(255, 238, 205)"  x="7" y="18" width="1" height="1" /><rect shape-rendering="crispEdges" fill="rgb(246, 222, 139)"  x="7" y="19" width="1" height="1" /><rect shape-rendering="crispEdges" fill="rgb(123, 57, 16)"  x="7" y="20" width="1" height="1" /><rect shape-rendering="crispEdges" fill="rgb(123, 57, 16)"  x="7" y="21" width="1" height="1" /><rect shape-rendering="crispEdges" fill="rgb(197, 131, 24)"  x="8" y="11" width="1" height="1" /><rect shape-rendering="crispEdges" fill="rgb(238, 197, 57)"  x="8" y="12" width="1" height="1" /><rect shape-rendering="crispEdges" fill="rgb(238, 197, 57)"  x="8" y="13" width="1" height="1" /><rect shape-rendering="crispEdges" fill="rgb(238, 197, 57)"  x="8" y="14" width="1" height="1" /><rect shape-rendering="crispEdges" fill="rgb(238, 197, 65)"  x="8" y="15" width="1" height="1" /><rect shape-rendering="crispEdges" fill="rgb(255, 222, 131)"  x="8" y="16" width="1" height="1" /><rect shape-rendering="crispEdges" fill="rgb(255, 238, 205)"  x="8" y="17" width="1" height="1" /><rect shape-rendering="crispEdges" fill="rgb(255, 230, 172)"  x="8" y="18" width="1" height="1" /><rect shape-rendering="crispEdges" fill="rgb(255, 230, 180)"  x="8" y="19" width="1" height="1" /><rect shape-rendering="crispEdges" fill="rgb(222, 180, 49)"  x="8" y="20" width="1" height="1" /><rect shape-rendering="crispEdges" fill="rgb(222, 180, 49)"  x="8" y="21" width="1" height="1" /><rect shape-rendering="crispEdges" fill="rgb(180, 123, 24)"  x="8" y="22" width="1" height="1" /><rect shape-rendering="crispEdges" fill="rgb(180, 123, 24)"  x="8" y="23" width="1" height="1" /><rect shape-rendering="crispEdges" fill="rgb(180, 123, 24)"  x="8" y="24" width="1" height="1" /><rect shape-rendering="crispEdges" fill="rgb(180, 98, 32)"  x="8" y="25" width="1" height="1" /><rect shape-rendering="crispEdges" fill="rgb(197, 131, 24)"  x="9" y="11" width="1" height="1" /><rect shape-rendering="crispEdges" fill="rgb(238, 197, 57)"  x="9" y="12" width="1" height="1" /><rect shape-rendering="crispEdges" fill="rgb(238, 197, 57)"  x="9" y="13" width="1" height="1" /><rect shape-rendering="crispEdges" fill="rgb(213, 164, 49)"  x="9" y="14" width="1" height="1" /><rect shape-rendering="crispEdges" fill="rgb(213, 156, 41)"  x="9" y="15" width="1" height="1" /><rect shape-rendering="crispEdges" fill="rgb(213, 156, 41)"  x="9" y="16" width="1" height="1" /><rect shape-rendering="crispEdges" fill="rgb(213, 164, 49)"  x="9" y="17" width="1" height="1" /><rect shape-rendering="crispEdges" fill="rgb(246, 205, 65)"  x="9" y="18" width="1" height="1" /><rect shape-rendering="crispEdges" fill="rgb(246, 222, 139)"  x="9" y="19" width="1" height="1" /><rect shape-rendering="crispEdges" fill="rgb(255, 230, 180)"  x="9" y="20" width="1" height="1" /><rect shape-rendering="crispEdges" fill="rgb(255, 230, 180)"  x="9" y="21" width="1" height="1" /><rect shape-rendering="crispEdges" fill="rgb(246, 222, 139)"  x="9" y="22" width="1" height="1" /><rect shape-rendering="crispEdges" fill="rgb(230, 180, 41)"  x="9" y="23" width="1" height="1" /><rect shape-rendering="crispEdges" fill="rgb(205, 148, 41)"  x="9" y="24" width="1" height="1" /><rect shape-rendering="crispEdges" fill="rgb(123, 57, 16)"  x="9" y="25" width="1" height="1" /><rect shape-rendering="crispEdges" fill="rgb(123, 57, 16)"  x="9" y="26" width="1" height="1" /><rect shape-rendering="crispEdges" fill="rgb(189, 131, 41)"  x="10" y="10" width="1" height="1" /><rect shape-rendering="crispEdges" fill="rgb(238, 197, 57)"  x="10" y="11" width="1" height="1" /><rect shape-rendering="crispEdges" fill="rgb(238, 197, 57)"  x="10" y="12" width="1" height="1" /><rect shape-rendering="crispEdges" fill="rgb(172, 115, 24)"  x="10" y="13" width="1" height="1" /><rect shape-rendering="crispEdges" fill="rgb(123, 57, 16)"  x="10" y="14" width="1" height="1" /><rect shape-rendering="crispEdges" fill="rgb(123, 57, 16)"  x="10" y="15" width="1" height="1" /><rect shape-rendering="crispEdges" fill="rgb(123, 57, 16)"  x="10" y="16" width="1" height="1" /><rect shape-rendering="crispEdges" fill="rgb(123, 57, 16)"  x="10" y="17" width="1" height="1" /><rect shape-rendering="crispEdges" fill="rgb(172, 115, 24)"  x="10" y="18" width="1" height="1" /><rect shape-rendering="crispEdges" fill="rgb(222, 180, 32)"  x="10" y="19" width="1" height="1" /><rect shape-rendering="crispEdges" fill="rgb(246, 222, 139)"  x="10" y="20" width="1" height="1" /><rect shape-rendering="crispEdges" fill="rgb(246, 222, 139)"  x="10" y="21" width="1" height="1" /><rect shape-rendering="crispEdges" fill="rgb(246, 222, 139)"  x="10" y="22" width="1" height="1" /><rect shape-rendering="crispEdges" fill="rgb(230, 189, 41)"  x="10" y="23" width="1" height="1" /><rect shape-rendering="crispEdges" fill="rgb(205, 148, 41)"  x="10" y="24" width="1" height="1" /><rect shape-rendering="crispEdges" fill="rgb(123, 57, 16)"  x="10" y="25" width="1" height="1" /><rect shape-rendering="crispEdges" fill="rgb(123, 57, 16)"  x="10" y="26" width="1" height="1" /><rect shape-rendering="crispEdges" fill="rgb(222, 164, 82)"  x="11" y="6" width="1" height="1" /><rect shape-rendering="crispEdges" fill="rgb(222, 172, 82)"  x="11" y="7" width="1" height="1" /><rect shape-rendering="crispEdges" fill="rgb(222, 172, 82)"  x="11" y="8" width="1" height="1" /><rect shape-rendering="crispEdges" fill="rgb(222, 172, 82)"  x="11" y="9" width="1" height="1" /><rect shape-rendering="crispEdges" fill="rgb(255, 213, 115)"  x="11" y="10" width="1" height="1" /><rect shape-rendering="crispEdges" fill="rgb(246, 205, 74)"  x="11" y="11" width="1" height="1" /><rect shape-rendering="crispEdges" fill="rgb(172, 115, 24)"  x="11" y="12" width="1" height="1" /><rect shape-rendering="crispEdges" fill="rgb(123, 57, 16)"  x="11" y="13" width="1" height="1" /><rect shape-rendering="crispEdges" fill="rgb(164, 82, 32)"  x="11" y="14" width="1" height="1" /><rect shape-rendering="crispEdges" fill="rgb(164, 82, 32)"  x="11" y="15" width="1" height="1" /><rect shape-rendering="crispEdges" fill="rgb(164, 82, 32)"  x="11" y="16" width="1" height="1" /><rect shape-rendering="crispEdges" fill="rgb(164, 82, 32)"  x="11" y="17" width="1" height="1" /><rect shape-rendering="crispEdges" fill="rgb(164, 82, 32)"  x="11" y="18" width="1" height="1" /><rect shape-rendering="crispEdges" fill="rgb(172, 90, 32)"  x="11" y="19" width="1" height="1" /><rect shape-rendering="crispEdges" fill="rgb(222, 180, 32)"  x="11" y="20" width="1" height="1" /><rect shape-rendering="crispEdges" fill="rgb(238, 197, 65)"  x="11" y="21" width="1" height="1" /><rect shape-rendering="crispEdges" fill="rgb(230, 189, 49)"  x="11" y="22" width="1" height="1" /><rect shape-rendering="crispEdges" fill="rgb(213, 156, 41)"  x="11" y="23" width="1" height="1" /><rect shape-rendering="crispEdges" fill="rgb(180, 98, 32)"  x="11" y="24" width="1" height="1" /><rect shape-rendering="crispEdges" fill="rgb(123, 57, 16)"  x="11" y="25" width="1" height="1" /><rect shape-rendering="crispEdges" fill="rgb(123, 57, 16)"  x="11" y="26" width="1" height="1" /><rect shape-rendering="crispEdges" fill="rgb(222, 172, 82)"  x="12" y="6" width="1" height="1" /><rect shape-rendering="crispEdges" fill="rgb(255, 230, 189)"  x="12" y="7" width="1" height="1" /><rect shape-rendering="crispEdges" fill="rgb(255, 238, 213)"  x="12" y="8" width="1" height="1" /><rect shape-rendering="crispEdges" fill="rgb(255, 238, 180)"  x="12" y="9" width="1" height="1" /><rect shape-rendering="crispEdges" fill="rgb(255, 205, 82)"  x="12" y="10" width="1" height="1" /><rect shape-rendering="crispEdges" fill="rgb(189, 131, 32)"  x="12" y="11" width="1" height="1" /><rect shape-rendering="crispEdges" fill="rgb(123, 57, 16)"  x="12" y="12" width="1" height="1" /><rect shape-rendering="crispEdges" fill="rgb(164, 82, 32)"  x="12" y="13" width="1" height="1" /><rect shape-rendering="crispEdges" fill="rgb(164, 82, 32)"  x="12" y="14" width="1" height="1" /><rect shape-rendering="crispEdges" fill="rgb(164, 82, 32)"  x="12" y="15" width="1" height="1" /><rect shape-rendering="crispEdges" fill="rgb(164, 82, 32)"  x="12" y="19" width="1" height="1" /><rect shape-rendering="crispEdges" fill="rgb(164, 98, 24)"  x="12" y="20" width="1" height="1" /><rect shape-rendering="crispEdges" fill="rgb(230, 189, 49)"  x="12" y="21" width="1" height="1" /><rect shape-rendering="crispEdges" fill="rgb(213, 156, 41)"  x="12" y="22" width="1" height="1" /><rect shape-rendering="crispEdges" fill="rgb(180, 98, 32)"  x="12" y="23" width="1" height="1" /><rect shape-rendering="crispEdges" fill="rgb(123, 57, 16)"  x="12" y="24" width="1" height="1" /><rect shape-rendering="crispEdges" fill="rgb(123, 57, 16)"  x="12" y="25" width="1" height="1" /><rect shape-rendering="crispEdges" fill="rgb(189, 123, 24)"  x="13" y="6" width="1" height="1" /><rect shape-rendering="crispEdges" fill="rgb(255, 222, 148)"  x="13" y="7" width="1" height="1" /><rect shape-rendering="crispEdges" fill="rgb(255, 246, 222)"  x="13" y="8" width="1" height="1" /><rect shape-rendering="crispEdges" fill="rgb(255, 222, 148)"  x="13" y="9" width="1" height="1" /><rect shape-rendering="crispEdges" fill="rgb(255, 205, 74)"  x="13" y="10" width="1" height="1" /><rect shape-rendering="crispEdges" fill="rgb(123, 57, 16)"  x="13" y="11" width="1" height="1" /><rect shape-rendering="crispEdges" fill="rgb(164, 82, 32)"  x="13" y="12" width="1" height="1" /><rect shape-rendering="crispEdges" fill="rgb(164, 82, 32)"  x="13" y="13" width="1" height="1" /><rect shape-rendering="crispEdges" fill="rgb(164, 82, 32)"  x="13" y="14" width="1" height="1" /><rect shape-rendering="crispEdges" fill="rgb(164, 82, 32)"  x="13" y="20" width="1" height="1" /><rect shape-rendering="crispEdges" fill="rgb(230, 189, 49)"  x="13" y="21" width="1" height="1" /><rect shape-rendering="crispEdges" fill="rgb(180, 98, 32)"  x="13" y="22" width="1" height="1" /><rect shape-rendering="crispEdges" fill="rgb(123, 57, 16)"  x="13" y="23" width="1" height="1" /><rect shape-rendering="crispEdges" fill="rgb(123, 57, 16)"  x="13" y="24" width="1" height="1" /><rect shape-rendering="crispEdges" fill="rgb(189, 123, 24)"  x="14" y="7" width="1" height="1" /><rect shape-rendering="crispEdges" fill="rgb(255, 222, 148)"  x="14" y="8" width="1" height="1" /><rect shape-rendering="crispEdges" fill="rgb(255, 205, 82)"  x="14" y="9" width="1" height="1" /><rect shape-rendering="crispEdges" fill="rgb(197, 139, 32)"  x="14" y="10" width="1" height="1" /><rect shape-rendering="crispEdges" fill="rgb(164, 82, 32)"  x="14" y="11" width="1" height="1" /><rect shape-rendering="crispEdges" fill="rgb(164, 82, 32)"  x="14" y="12" width="1" height="1" /><rect shape-rendering="crispEdges" fill="rgb(164, 82, 32)"  x="14" y="13" width="1" height="1" /><rect shape-rendering="crispEdges" fill="rgb(164, 82, 32)"  x="14" y="20" width="1" height="1" /><rect shape-rendering="crispEdges" fill="rgb(230, 189, 49)"  x="14" y="21" width="1" height="1" /><rect shape-rendering="crispEdges" fill="rgb(180, 98, 32)"  x="14" y="22" width="1" height="1" /><rect shape-rendering="crispEdges" fill="rgb(123, 57, 16)"  x="14" y="23" width="1" height="1" /><rect shape-rendering="crispEdges" fill="rgb(123, 57, 16)"  x="14" y="24" width="1" height="1" /><rect shape-rendering="crispEdges" fill="rgb(205, 139, 41)"  x="15" y="8" width="1" height="1" /><rect shape-rendering="crispEdges" fill="rgb(255, 205, 82)"  x="15" y="9" width="1" height="1" /><rect shape-rendering="crispEdges" fill="rgb(180, 123, 24)"  x="15" y="10" width="1" height="1" /><rect shape-rendering="crispEdges" fill="rgb(164, 82, 32)"  x="15" y="11" width="1" height="1" /><rect shape-rendering="crispEdges" fill="rgb(164, 82, 32)"  x="15" y="12" width="1" height="1" /><rect shape-rendering="crispEdges" fill="rgb(164, 82, 32)"  x="15" y="20" width="1" height="1" /><rect shape-rendering="crispEdges" fill="rgb(230, 189, 49)"  x="15" y="21" width="1" height="1" /><rect shape-rendering="crispEdges" fill="rgb(213, 172, 32)"  x="15" y="22" width="1" height="1" /><rect shape-rendering="crispEdges" fill="rgb(123, 57, 16)"  x="15" y="23" width="1" height="1" /><rect shape-rendering="crispEdges" fill="rgb(123, 57, 16)"  x="15" y="24" width="1" height="1" /><rect shape-rendering="crispEdges" fill="rgb(123, 57, 16)"  x="15" y="25" width="1" height="1" /><rect shape-rendering="crispEdges" fill="rgb(189, 131, 24)"  x="16" y="8" width="1" height="1" /><rect shape-rendering="crispEdges" fill="rgb(255, 205, 82)"  x="16" y="9" width="1" height="1" /><rect shape-rendering="crispEdges" fill="rgb(172, 115, 24)"  x="16" y="10" width="1" height="1" /><rect shape-rendering="crispEdges" fill="rgb(164, 82, 32)"  x="16" y="11" width="1" height="1" /><rect shape-rendering="crispEdges" fill="rgb(164, 82, 32)"  x="16" y="12" width="1" height="1" /><rect shape-rendering="crispEdges" fill="rgb(189, 115, 41)"  x="16" y="20" width="1" height="1" /><rect shape-rendering="crispEdges" fill="rgb(230, 189, 49)"  x="16" y="21" width="1" height="1" /><rect shape-rendering="crispEdges" fill="rgb(230, 189, 49)"  x="16" y="22" width="1" height="1" /><rect shape-rendering="crispEdges" fill="rgb(213, 172, 32)"  x="16" y="23" width="1" height="1" /><rect shape-rendering="crispEdges" fill="rgb(180, 98, 32)"  x="16" y="24" width="1" height="1" /><rect shape-rendering="crispEdges" fill="rgb(123, 57, 16)"  x="16" y="25" width="1" height="1" /><rect shape-rendering="crispEdges" fill="rgb(123, 57, 16)"  x="16" y="26" width="1" height="1" /><rect shape-rendering="crispEdges" fill="rgb(189, 131, 24)"  x="17" y="7" width="1" height="1" /><rect shape-rendering="crispEdges" fill="rgb(255, 230, 180)"  x="17" y="8" width="1" height="1" /><rect shape-rendering="crispEdges" fill="rgb(255, 205, 82)"  x="17" y="9" width="1" height="1" /><rect shape-rendering="crispEdges" fill="rgb(197, 139, 32)"  x="17" y="10" width="1" height="1" /><rect shape-rendering="crispEdges" fill="rgb(164, 82, 32)"  x="17" y="11" width="1" height="1" /><rect shape-rendering="crispEdges" fill="rgb(164, 82, 32)"  x="17" y="12" width="1" height="1" /><rect shape-rendering="crispEdges" fill="rgb(180, 123, 32)"  x="17" y="19" width="1" height="1" /><rect shape-rendering="crispEdges" fill="rgb(230, 189, 49)"  x="17" y="20" width="1" height="1" /><rect shape-rendering="crispEdges" fill="rgb(230, 189, 49)"  x="17" y="21" width="1" height="1" /><rect shape-rendering="crispEdges" fill="rgb(230, 189, 49)"  x="17" y="22" width="1" height="1" /><rect shape-rendering="crispEdges" fill="rgb(230, 189, 49)"  x="17" y="23" width="1" height="1" /><rect shape-rendering="crispEdges" fill="rgb(180, 98, 32)"  x="17" y="24" width="1" height="1" /><rect shape-rendering="crispEdges" fill="rgb(123, 57, 16)"  x="17" y="25" width="1" height="1" /><rect shape-rendering="crispEdges" fill="rgb(123, 57, 16)"  x="17" y="26" width="1" height="1" /><rect shape-rendering="crispEdges" fill="rgb(189, 131, 24)"  x="18" y="6" width="1" height="1" /><rect shape-rendering="crispEdges" fill="rgb(255, 238, 205)"  x="18" y="7" width="1" height="1" /><rect shape-rendering="crispEdges" fill="rgb(255, 222, 148)"  x="18" y="8" width="1" height="1" /><rect shape-rendering="crispEdges" fill="rgb(255, 205, 82)"  x="18" y="9" width="1" height="1" /><rect shape-rendering="crispEdges" fill="rgb(213, 156, 49)"  x="18" y="10" width="1" height="1" /><rect shape-rendering="crispEdges" fill="rgb(164, 82, 32)"  x="18" y="11" width="1" height="1" /><rect shape-rendering="crispEdges" fill="rgb(164, 82, 32)"  x="18" y="12" width="1" height="1" /><rect shape-rendering="crispEdges" fill="rgb(180, 123, 32)"  x="18" y="18" width="1" height="1" /><rect shape-rendering="crispEdges" fill="rgb(230, 189, 49)"  x="18" y="19" width="1" height="1" /><rect shape-rendering="crispEdges" fill="rgb(230, 189, 49)"  x="18" y="20" width="1" height="1" /><rect shape-rendering="crispEdges" fill="rgb(213, 172, 32)"  x="18" y="21" width="1" height="1" /><rect shape-rendering="crispEdges" fill="rgb(180, 98, 32)"  x="18" y="22" width="1" height="1" /><rect shape-rendering="crispEdges" fill="rgb(180, 98, 32)"  x="18" y="23" width="1" height="1" /><rect shape-rendering="crispEdges" fill="rgb(123, 57, 16)"  x="18" y="24" width="1" height="1" /><rect shape-rendering="crispEdges" fill="rgb(123, 57, 16)"  x="18" y="25" width="1" height="1" /><rect shape-rendering="crispEdges" fill="rgb(123, 57, 16)"  x="18" y="26" width="1" height="1" /><rect shape-rendering="crispEdges" fill="rgb(197, 131, 32)"  x="19" y="5" width="1" height="1" /><rect shape-rendering="crispEdges" fill="rgb(255, 238, 205)"  x="19" y="6" width="1" height="1" /><rect shape-rendering="crispEdges" fill="rgb(255, 222, 148)"  x="19" y="7" width="1" height="1" /><rect shape-rendering="crispEdges" fill="rgb(255, 205, 82)"  x="19" y="8" width="1" height="1" /><rect shape-rendering="crispEdges" fill="rgb(255, 205, 82)"  x="19" y="9" width="1" height="1" /><rect shape-rendering="crispEdges" fill="rgb(255, 205, 74)"  x="19" y="10" width="1" height="1" /><rect shape-rendering="crispEdges" fill="rgb(180, 123, 24)"  x="19" y="11" width="1" height="1" /><rect shape-rendering="crispEdges" fill="rgb(164, 82, 32)"  x="19" y="12" width="1" height="1" /><rect shape-rendering="crispEdges" fill="rgb(164, 82, 32)"  x="19" y="13" width="1" height="1" /><rect shape-rendering="crispEdges" fill="rgb(180, 123, 32)"  x="19" y="17" width="1" height="1" /><rect shape-rendering="crispEdges" fill="rgb(230, 189, 49)"  x="19" y="18" width="1" height="1" /><rect shape-rendering="crispEdges" fill="rgb(230, 189, 49)"  x="19" y="19" width="1" height="1" /><rect shape-rendering="crispEdges" fill="rgb(213, 172, 32)"  x="19" y="20" width="1" height="1" /><rect shape-rendering="crispEdges" fill="rgb(180, 98, 32)"  x="19" y="21" width="1" height="1" /><rect shape-rendering="crispEdges" fill="rgb(123, 57, 16)"  x="19" y="22" width="1" height="1" /><rect shape-rendering="crispEdges" fill="rgb(123, 57, 16)"  x="19" y="23" width="1" height="1" /><rect shape-rendering="crispEdges" fill="rgb(123, 57, 16)"  x="19" y="24" width="1" height="1" /><rect shape-rendering="crispEdges" fill="rgb(123, 57, 16)"  x="19" y="25" width="1" height="1" /><rect shape-rendering="crispEdges" fill="rgb(197, 131, 32)"  x="20" y="5" width="1" height="1" /><rect shape-rendering="crispEdges" fill="rgb(255, 222, 148)"  x="20" y="6" width="1" height="1" /><rect shape-rendering="crispEdges" fill="rgb(255, 222, 148)"  x="20" y="7" width="1" height="1" /><rect shape-rendering="crispEdges" fill="rgb(255, 205, 82)"  x="20" y="8" width="1" height="1" /><rect shape-rendering="crispEdges" fill="rgb(255, 205, 82)"  x="20" y="9" width="1" height="1" /><rect shape-rendering="crispEdges" fill="rgb(255, 205, 82)"  x="20" y="10" width="1" height="1" /><rect shape-rendering="crispEdges" fill="rgb(255, 230, 148)"  x="20" y="11" width="1" height="1" /><rect shape-rendering="crispEdges" fill="rgb(189, 139, 32)"  x="20" y="12" width="1" height="1" /><rect shape-rendering="crispEdges" fill="rgb(164, 115, 24)"  x="20" y="13" width="1" height="1" /><rect shape-rendering="crispEdges" fill="rgb(180, 115, 32)"  x="20" y="14" width="1" height="1" /><rect shape-rendering="crispEdges" fill="rgb(180, 115, 32)"  x="20" y="15" width="1" height="1" /><rect shape-rendering="crispEdges" fill="rgb(197, 131, 24)"  x="20" y="16" width="1" height="1" /><rect shape-rendering="crispEdges" fill="rgb(230, 189, 49)"  x="20" y="17" width="1" height="1" /><rect shape-rendering="crispEdges" fill="rgb(230, 189, 49)"  x="20" y="18" width="1" height="1" /><rect shape-rendering="crispEdges" fill="rgb(213, 172, 32)"  x="20" y="19" width="1" height="1" /><rect shape-rendering="crispEdges" fill="rgb(180, 98, 32)"  x="20" y="20" width="1" height="1" /><rect shape-rendering="crispEdges" fill="rgb(123, 57, 16)"  x="20" y="21" width="1" height="1" /><rect shape-rendering="crispEdges" fill="rgb(197, 131, 32)"  x="21" y="5" width="1" height="1" /><rect shape-rendering="crispEdges" fill="rgb(180, 98, 32)"  x="21" y="6" width="1" height="1" /><rect shape-rendering="crispEdges" fill="rgb(180, 98, 32)"  x="21" y="7" width="1" height="1" /><rect shape-rendering="crispEdges" fill="rgb(180, 98, 32)"  x="21" y="8" width="1" height="1" /><rect shape-rendering="crispEdges" fill="rgb(180, 98, 32)"  x="21" y="9" width="1" height="1" /><rect shape-rendering="crispEdges" fill="rgb(189, 131, 24)"  x="21" y="10" width="1" height="1" /><rect shape-rendering="crispEdges" fill="rgb(255, 230, 180)"  x="21" y="11" width="1" height="1" /><rect shape-rendering="crispEdges" fill="rgb(255, 230, 172)"  x="21" y="12" width="1" height="1" /><rect shape-rendering="crispEdges" fill="rgb(255, 205, 82)"  x="21" y="13" width="1" height="1" /><rect shape-rendering="crispEdges" fill="rgb(255, 205, 82)"  x="21" y="14" width="1" height="1" /><rect shape-rendering="crispEdges" fill="rgb(255, 205, 82)"  x="21" y="15" width="1" height="1" /><rect shape-rendering="crispEdges" fill="rgb(222, 172, 41)"  x="21" y="16" width="1" height="1" /><rect shape-rendering="crispEdges" fill="rgb(230, 189, 49)"  x="21" y="17" width="1" height="1" /><rect shape-rendering="crispEdges" fill="rgb(230, 189, 49)"  x="21" y="18" width="1" height="1" /><rect shape-rendering="crispEdges" fill="rgb(180, 98, 32)"  x="21" y="19" width="1" height="1" /><rect shape-rendering="crispEdges" fill="rgb(123, 57, 16)"  x="21" y="20" width="1" height="1" /><rect shape-rendering="crispEdges" fill="rgb(123, 57, 16)"  x="21" y="21" width="1" height="1" /><rect shape-rendering="crispEdges" fill="rgb(180, 98, 32)"  x="22" y="6" width="1" height="1" /><rect shape-rendering="crispEdges" fill="rgb(180, 98, 32)"  x="22" y="7" width="1" height="1" /><rect shape-rendering="crispEdges" fill="rgb(123, 57, 16)"  x="22" y="8" width="1" height="1" /><rect shape-rendering="crispEdges" fill="rgb(123, 57, 16)"  x="22" y="9" width="1" height="1" /><rect shape-rendering="crispEdges" fill="rgb(189, 131, 24)"  x="22" y="10" width="1" height="1" /><rect shape-rendering="crispEdges" fill="rgb(255, 238, 189)"  x="22" y="11" width="1" height="1" /><rect shape-rendering="crispEdges" fill="rgb(255, 205, 82)"  x="22" y="12" width="1" height="1" /><rect shape-rendering="crispEdges" fill="rgb(238, 197, 65)"  x="22" y="13" width="1" height="1" /><rect shape-rendering="crispEdges" fill="rgb(180, 98, 32)"  x="22" y="14" width="1" height="1" /><rect shape-rendering="crispEdges" fill="rgb(180, 98, 32)"  x="22" y="15" width="1" height="1" /><rect shape-rendering="crispEdges" fill="rgb(222, 180, 49)"  x="22" y="16" width="1" height="1" /><rect shape-rendering="crispEdges" fill="rgb(230, 189, 49)"  x="22" y="17" width="1" height="1" /><rect shape-rendering="crispEdges" fill="rgb(230, 189, 49)"  x="22" y="18" width="1" height="1" /><rect shape-rendering="crispEdges" fill="rgb(180, 98, 32)"  x="22" y="19" width="1" height="1" /><rect shape-rendering="crispEdges" fill="rgb(123, 57, 16)"  x="22" y="20" width="1" height="1" /><rect shape-rendering="crispEdges" fill="rgb(123, 57, 16)"  x="22" y="21" width="1" height="1" /><rect shape-rendering="crispEdges" fill="rgb(189, 131, 24)"  x="23" y="10" width="1" height="1" /><rect shape-rendering="crispEdges" fill="rgb(255, 230, 148)"  x="23" y="11" width="1" height="1" /><rect shape-rendering="crispEdges" fill="rgb(230, 197, 57)"  x="23" y="12" width="1" height="1" /><rect shape-rendering="crispEdges" fill="rgb(180, 98, 32)"  x="23" y="13" width="1" height="1" /><rect shape-rendering="crispEdges" fill="rgb(123, 57, 16)"  x="23" y="14" width="1" height="1" /><rect shape-rendering="crispEdges" fill="rgb(123, 57, 16)"  x="23" y="15" width="1" height="1" /><rect shape-rendering="crispEdges" fill="rgb(180, 98, 32)"  x="23" y="16" width="1" height="1" /><rect shape-rendering="crispEdges" fill="rgb(222, 180, 41)"  x="23" y="17" width="1" height="1" /><rect shape-rendering="crispEdges" fill="rgb(230, 189, 49)"  x="23" y="18" width="1" height="1" /><rect shape-rendering="crispEdges" fill="rgb(180, 98, 32)"  x="23" y="19" width="1" height="1" /><rect shape-rendering="crispEdges" fill="rgb(123, 57, 16)"  x="23" y="20" width="1" height="1" /><rect shape-rendering="crispEdges" fill="rgb(123, 57, 16)"  x="23" y="21" width="1" height="1" /><rect shape-rendering="crispEdges" fill="rgb(189, 131, 24)"  x="24" y="10" width="1" height="1" /><rect shape-rendering="crispEdges" fill="rgb(222, 180, 49)"  x="24" y="11" width="1" height="1" /><rect shape-rendering="crispEdges" fill="rgb(180, 98, 32)"  x="24" y="12" width="1" height="1" /><rect shape-rendering="crispEdges" fill="rgb(123, 57, 16)"  x="24" y="13" width="1" height="1" /><rect shape-rendering="crispEdges" fill="rgb(123, 57, 16)"  x="24" y="14" width="1" height="1" /><rect shape-rendering="crispEdges" fill="rgb(123, 57, 16)"  x="24" y="15" width="1" height="1" /><rect shape-rendering="crispEdges" fill="rgb(123, 57, 16)"  x="24" y="16" width="1" height="1" /><rect shape-rendering="crispEdges" fill="rgb(180, 98, 32)"  x="24" y="17" width="1" height="1" /><rect shape-rendering="crispEdges" fill="rgb(180, 98, 32)"  x="24" y="18" width="1" height="1" /><rect shape-rendering="crispEdges" fill="rgb(180, 98, 32)"  x="24" y="19" width="1" height="1" /><rect shape-rendering="crispEdges" fill="rgb(123, 57, 16)"  x="24" y="20" width="1" height="1" /><rect shape-rendering="crispEdges" fill="rgb(123, 57, 16)"  x="25" y="11" width="1" height="1" /><rect shape-rendering="crispEdges" fill="rgb(123, 57, 16)"  x="25" y="12" width="1" height="1" /><rect shape-rendering="crispEdges" fill="rgb(123, 57, 16)"  x="25" y="13" width="1" height="1" /><rect shape-rendering="crispEdges" fill="rgb(123, 57, 16)"  x="25" y="14" width="1" height="1" /><rect shape-rendering="crispEdges" fill="rgb(123, 57, 16)"  x="25" y="18" width="1" height="1" /><rect shape-rendering="crispEdges" fill="rgb(123, 57, 16)"  x="25" y="19" width="1" height="1" /><rect shape-rendering="crispEdges" fill="rgb(123, 57, 16)"  x="25" y="20" width="1" height="1" /><rect shape-rendering="crispEdges" fill="rgb(123, 57, 16)"  x="26" y="12" width="1" height="1" /><rect shape-rendering="crispEdges" fill="rgb(123, 57, 16)"  x="26" y="13" width="1" height="1" /></svg>