<svg xmlns="http://www.w3.org/2000/svg" xmlns:xlink= "http://www.w3.org/1999/xlink" width="32" height="32" viewBox ="0 0 32 32"><rect shape-rendering="crispEdges" fill="rgb(14, 94, 196)"  x="11" y="15" width="1" height="1" /><rect shape-rendering="crispEdges" fill="rgb(49, 66, 126)"  x="11" y="16" width="1" height="1" /><rect shape-rendering="crispEdges" fill="rgb(18, 82, 197)"  x="12" y="13" width="1" height="1" /><rect shape-rendering="crispEdges" fill="rgb(35, 107, 223)"  x="12" y="14" width="1" height="1" /><rect shape-rendering="crispEdges" fill="rgb(57, 131, 227)"  x="12" y="15" width="1" height="1" /><rect shape-rendering="crispEdges" fill="rgb(46, 121, 192)"  x="12" y="16" width="1" height="1" /><rect shape-rendering="crispEdges" fill="rgb(52, 65, 121)"  x="12" y="17" width="1" height="1" /><rect shape-rendering="crispEdges" fill="rgb(35, 79, 153)"  x="12" y="18" width="1" height="1" /><rect shape-rendering="crispEdges" fill="rgb(14, 80, 189)"  x="13" y="11" width="1" height="1" /><rect shape-rendering="crispEdges" fill="rgb(7, 86, 210)"  x="13" y="12" width="1" height="1" /><rect shape-rendering="crispEdges" fill="rgb(83, 142, 231)"  x="13" y="13" width="1" height="1" /><rect shape-rendering="crispEdges" fill="rgb(199, 211, 250)"  x="13" y="14" width="1" height="1" /><rect shape-rendering="crispEdges" fill="rgb(214, 220, 253)"  x="13" y="15" width="1" height="1" /><rect shape-rendering="crispEdges" fill="rgb(186, 209, 246)"  x="13" y="16" width="1" height="1" /><rect shape-rendering="crispEdges" fill="rgb(104, 117, 154)"  x="13" y="17" width="1" height="1" /><rect shape-rendering="crispEdges" fill="rgb(51, 68, 128)"  x="13" y="18" width="1" height="1" /><rect shape-rendering="crispEdges" fill="rgb(35, 78, 161)"  x="13" y="19" width="1" height="1" /><rect shape-rendering="crispEdges" fill="rgb(14, 88, 189)"  x="13" y="20" width="1" height="1" /><rect shape-rendering="crispEdges" fill="rgb(20, 81, 189)"  x="14" y="9" width="1" height="1" /><rect shape-rendering="crispEdges" fill="rgb(0, 81, 209)"  x="14" y="10" width="1" height="1" /><rect shape-rendering="crispEdges" fill="rgb(0, 93, 217)"  x="14" y="11" width="1" height="1" /><rect shape-rendering="crispEdges" fill="rgb(51, 127, 225)"  x="14" y="12" width="1" height="1" /><rect shape-rendering="crispEdges" fill="rgb(210, 217, 252)"  x="14" y="13" width="1" height="1" /><rect shape-rendering="crispEdges" fill="rgb(227, 226, 255)"  x="14" y="14" width="1" height="1" /><rect shape-rendering="crispEdges" fill="rgb(227, 226, 255)"  x="14" y="15" width="1" height="1" /><rect shape-rendering="crispEdges" fill="rgb(224, 225, 254)"  x="14" y="16" width="1" height="1" /><rect shape-rendering="crispEdges" fill="rgb(161, 167, 200)"  x="14" y="17" width="1" height="1" /><rect shape-rendering="crispEdges" fill="rgb(48, 51, 94)"  x="14" y="18" width="1" height="1" /><rect shape-rendering="crispEdges" fill="rgb(55, 61, 98)"  x="14" y="19" width="1" height="1" /><rect shape-rendering="crispEdges" fill="rgb(55, 69, 118)"  x="14" y="20" width="1" height="1" /><rect shape-rendering="crispEdges" fill="rgb(49, 78, 140)"  x="14" y="21" width="1" height="1" /><rect shape-rendering="crispEdges" fill="rgb(27, 79, 174)"  x="14" y="22" width="1" height="1" /><rect shape-rendering="crispEdges" fill="rgb(42, 85, 161)"  x="15" y="7" width="1" height="1" /><rect shape-rendering="crispEdges" fill="rgb(7, 73, 181)"  x="15" y="8" width="1" height="1" /><rect shape-rendering="crispEdges" fill="rgb(0, 76, 196)"  x="15" y="9" width="1" height="1" /><rect shape-rendering="crispEdges" fill="rgb(0, 89, 203)"  x="15" y="10" width="1" height="1" /><rect shape-rendering="crispEdges" fill="rgb(7, 97, 203)"  x="15" y="11" width="1" height="1" /><rect shape-rendering="crispEdges" fill="rgb(65, 131, 217)"  x="15" y="12" width="1" height="1" /><rect shape-rendering="crispEdges" fill="rgb(215, 220, 252)"  x="15" y="13" width="1" height="1" /><rect shape-rendering="crispEdges" fill="rgb(217, 222, 253)"  x="15" y="14" width="1" height="1" /><rect shape-rendering="crispEdges" fill="rgb(223, 224, 252)"  x="15" y="15" width="1" height="1" /><rect shape-rendering="crispEdges" fill="rgb(227, 226, 254)"  x="15" y="16" width="1" height="1" /><rect shape-rendering="crispEdges" fill="rgb(211, 213, 230)"  x="15" y="17" width="1" height="1" /><rect shape-rendering="crispEdges" fill="rgb(38, 42, 86)"  x="15" y="18" width="1" height="1" /><rect shape-rendering="crispEdges" fill="rgb(74, 63, 83)"  x="15" y="19" width="1" height="1" /><rect shape-rendering="crispEdges" fill="rgb(82, 77, 98)"  x="15" y="20" width="1" height="1" /><rect shape-rendering="crispEdges" fill="rgb(55, 72, 105)"  x="15" y="21" width="1" height="1" /><rect shape-rendering="crispEdges" fill="rgb(55, 78, 111)"  x="15" y="22" width="1" height="1" /><rect shape-rendering="crispEdges" fill="rgb(49, 80, 133)"  x="15" y="23" width="1" height="1" /><rect shape-rendering="crispEdges" fill="rgb(27, 72, 146)"  x="15" y="24" width="1" height="1" /><rect shape-rendering="crispEdges" fill="rgb(35, 75, 140)"  x="16" y="7" width="1" height="1" /><rect shape-rendering="crispEdges" fill="rgb(35, 74, 146)"  x="16" y="8" width="1" height="1" /><rect shape-rendering="crispEdges" fill="rgb(42, 70, 133)"  x="16" y="9" width="1" height="1" /><rect shape-rendering="crispEdges" fill="rgb(49, 73, 126)"  x="16" y="10" width="1" height="1" /><rect shape-rendering="crispEdges" fill="rgb(49, 75, 118)"  x="16" y="11" width="1" height="1" /><rect shape-rendering="crispEdges" fill="rgb(64, 79, 118)"  x="16" y="12" width="1" height="1" /><rect shape-rendering="crispEdges" fill="rgb(106, 117, 149)"  x="16" y="13" width="1" height="1" /><rect shape-rendering="crispEdges" fill="rgb(140, 145, 179)"  x="16" y="14" width="1" height="1" /><rect shape-rendering="crispEdges" fill="rgb(156, 158, 187)"  x="16" y="15" width="1" height="1" /><rect shape-rendering="crispEdges" fill="rgb(119, 123, 152)"  x="16" y="16" width="1" height="1" /><rect shape-rendering="crispEdges" fill="rgb(72, 83, 107)"  x="16" y="17" width="1" height="1" /><rect shape-rendering="crispEdges" fill="rgb(203, 206, 217)"  x="16" y="18" width="1" height="1" /><rect shape-rendering="crispEdges" fill="rgb(203, 206, 217)"  x="16" y="19" width="1" height="1" /><rect shape-rendering="crispEdges" fill="rgb(118, 177, 203)"  x="16" y="20" width="1" height="1" /><rect shape-rendering="crispEdges" fill="rgb(0, 128, 209)"  x="16" y="21" width="1" height="1" /><rect shape-rendering="crispEdges" fill="rgb(0, 117, 203)"  x="16" y="22" width="1" height="1" /><rect shape-rendering="crispEdges" fill="rgb(0, 90, 196)"  x="16" y="23" width="1" height="1" /><rect shape-rendering="crispEdges" fill="rgb(14, 82, 181)"  x="16" y="24" width="1" height="1" /><rect shape-rendering="crispEdges" fill="rgb(7, 95, 217)"  x="17" y="9" width="1" height="1" /><rect shape-rendering="crispEdges" fill="rgb(20, 88, 196)"  x="17" y="10" width="1" height="1" /><rect shape-rendering="crispEdges" fill="rgb(27, 86, 174)"  x="17" y="11" width="1" height="1" /><rect shape-rendering="crispEdges" fill="rgb(42, 81, 153)"  x="17" y="12" width="1" height="1" /><rect shape-rendering="crispEdges" fill="rgb(50, 79, 141)"  x="17" y="13" width="1" height="1" /><rect shape-rendering="crispEdges" fill="rgb(65, 84, 134)"  x="17" y="14" width="1" height="1" /><rect shape-rendering="crispEdges" fill="rgb(68, 81, 128)"  x="17" y="15" width="1" height="1" /><rect shape-rendering="crispEdges" fill="rgb(52, 54, 108)"  x="17" y="16" width="1" height="1" /><rect shape-rendering="crispEdges" fill="rgb(63, 94, 140)"  x="17" y="17" width="1" height="1" /><rect shape-rendering="crispEdges" fill="rgb(83, 188, 217)"  x="17" y="18" width="1" height="1" /><rect shape-rendering="crispEdges" fill="rgb(7, 143, 217)"  x="17" y="19" width="1" height="1" /><rect shape-rendering="crispEdges" fill="rgb(0, 120, 217)"  x="17" y="20" width="1" height="1" /><rect shape-rendering="crispEdges" fill="rgb(0, 99, 217)"  x="17" y="21" width="1" height="1" /><rect shape-rendering="crispEdges" fill="rgb(14, 87, 196)"  x="17" y="22" width="1" height="1" /><rect shape-rendering="crispEdges" fill="rgb(0, 87, 209)"  x="18" y="11" width="1" height="1" /><rect shape-rendering="crispEdges" fill="rgb(7, 85, 196)"  x="18" y="12" width="1" height="1" /><rect shape-rendering="crispEdges" fill="rgb(20, 83, 181)"  x="18" y="13" width="1" height="1" /><rect shape-rendering="crispEdges" fill="rgb(35, 84, 161)"  x="18" y="14" width="1" height="1" /><rect shape-rendering="crispEdges" fill="rgb(49, 78, 140)"  x="18" y="15" width="1" height="1" /><rect shape-rendering="crispEdges" fill="rgb(55, 76, 118)"  x="18" y="16" width="1" height="1" /><rect shape-rendering="crispEdges" fill="rgb(90, 148, 181)"  x="18" y="17" width="1" height="1" /><rect shape-rendering="crispEdges" fill="rgb(35, 142, 217)"  x="18" y="18" width="1" height="1" /><rect shape-rendering="crispEdges" fill="rgb(0, 99, 217)"  x="18" y="19" width="1" height="1" /><rect shape-rendering="crispEdges" fill="rgb(14, 87, 196)"  x="18" y="20" width="1" height="1" /><rect shape-rendering="crispEdges" fill="rgb(0, 83, 196)"  x="19" y="13" width="1" height="1" /><rect shape-rendering="crispEdges" fill="rgb(7, 87, 189)"  x="19" y="14" width="1" height="1" /><rect shape-rendering="crispEdges" fill="rgb(27, 80, 168)"  x="19" y="15" width="1" height="1" /><rect shape-rendering="crispEdges" fill="rgb(55, 76, 118)"  x="19" y="16" width="1" height="1" /><rect shape-rendering="crispEdges" fill="rgb(14, 87, 196)"  x="19" y="17" width="1" height="1" /><rect shape-rendering="crispEdges" fill="rgb(14, 87, 196)"  x="19" y="18" width="1" height="1" /><rect shape-rendering="crispEdges" fill="rgb(49, 72, 133)"  x="20" y="15" width="1" height="1" /><rect shape-rendering="crispEdges" fill="rgb(63, 119, 189)"  x="20" y="16" width="1" height="1" /></svg>