<svg xmlns="http://www.w3.org/2000/svg" xmlns:xlink= "http://www.w3.org/1999/xlink" width="32" height="32" viewBox ="0 0 32 32"><rect shape-rendering="crispEdges" fill="rgb(48, 48, 48)"  x="1" y="1" width="1" height="1" /><rect shape-rendering="crispEdges" fill="rgb(48, 48, 48)"  x="1" y="2" width="1" height="1" /><rect shape-rendering="crispEdges" fill="rgb(48, 48, 48)"  x="1" y="3" width="1" height="1" /><rect shape-rendering="crispEdges" fill="rgb(48, 48, 48)"  x="1" y="4" width="1" height="1" /><rect shape-rendering="crispEdges" fill="rgb(48, 48, 48)"  x="1" y="7" width="1" height="1" /><rect shape-rendering="crispEdges" fill="rgb(48, 48, 48)"  x="1" y="8" width="1" height="1" /><rect shape-rendering="crispEdges" fill="rgb(48, 48, 48)"  x="1" y="9" width="1" height="1" /><rect shape-rendering="crispEdges" fill="rgb(48, 48, 48)"  x="1" y="15" width="1" height="1" /><rect shape-rendering="crispEdges" fill="rgb(48, 48, 48)"  x="1" y="16" width="1" height="1" /><rect shape-rendering="crispEdges" fill="rgb(48, 48, 48)"  x="1" y="17" width="1" height="1" /><rect shape-rendering="crispEdges" fill="rgb(48, 48, 48)"  x="1" y="18" width="1" height="1" /><rect shape-rendering="crispEdges" fill="rgb(48, 48, 48)"  x="1" y="19" width="1" height="1" /><rect shape-rendering="crispEdges" fill="rgb(48, 48, 48)"  x="2" y="1" width="1" height="1" /><rect shape-rendering="crispEdges" fill="rgb(62, 32, 83)"  x="2" y="2" width="1" height="1" /><rect shape-rendering="crispEdges" fill="rgb(88, 9, 139)"  x="2" y="3" width="1" height="1" /><rect shape-rendering="crispEdges" fill="rgb(68, 33, 88)"  x="2" y="4" width="1" height="1" /><rect shape-rendering="crispEdges" fill="rgb(48, 48, 48)"  x="2" y="5" width="1" height="1" /><rect shape-rendering="crispEdges" fill="rgb(48, 48, 48)"  x="2" y="6" width="1" height="1" /><rect shape-rendering="crispEdges" fill="rgb(78, 36, 97)"  x="2" y="7" width="1" height="1" /><rect shape-rendering="crispEdges" fill="rgb(129, 20, 173)"  x="2" y="8" width="1" height="1" /><rect shape-rendering="crispEdges" fill="rgb(85, 38, 102)"  x="2" y="9" width="1" height="1" /><rect shape-rendering="crispEdges" fill="rgb(48, 48, 48)"  x="2" y="10" width="1" height="1" /><rect shape-rendering="crispEdges" fill="rgb(48, 48, 48)"  x="2" y="11" width="1" height="1" /><rect shape-rendering="crispEdges" fill="rgb(48, 48, 48)"  x="2" y="12" width="1" height="1" /><rect shape-rendering="crispEdges" fill="rgb(48, 48, 48)"  x="2" y="13" width="1" height="1" /><rect shape-rendering="crispEdges" fill="rgb(48, 48, 48)"  x="2" y="16" width="1" height="1" /><rect shape-rendering="crispEdges" fill="rgb(108, 44, 121)"  x="2" y="17" width="1" height="1" /><rect shape-rendering="crispEdges" fill="rgb(197, 39, 230)"  x="2" y="18" width="1" height="1" /><rect shape-rendering="crispEdges" fill="rgb(111, 45, 124)"  x="2" y="19" width="1" height="1" /><rect shape-rendering="crispEdges" fill="rgb(48, 48, 48)"  x="2" y="20" width="1" height="1" /><rect shape-rendering="crispEdges" fill="rgb(48, 48, 48)"  x="2" y="21" width="1" height="1" /><rect shape-rendering="crispEdges" fill="rgb(48, 48, 48)"  x="2" y="22" width="1" height="1" /><rect shape-rendering="crispEdges" fill="rgb(48, 48, 48)"  x="3" y="2" width="1" height="1" /><rect shape-rendering="crispEdges" fill="rgb(48, 48, 48)"  x="3" y="3" width="1" height="1" /><rect shape-rendering="crispEdges" fill="rgb(55, 29, 78)"  x="3" y="4" width="1" height="1" /><rect shape-rendering="crispEdges" fill="rgb(71, 5, 125)"  x="3" y="5" width="1" height="1" /><rect shape-rendering="crispEdges" fill="rgb(77, 6, 130)"  x="3" y="6" width="1" height="1" /><rect shape-rendering="crispEdges" fill="rgb(84, 8, 136)"  x="3" y="7" width="1" height="1" /><rect shape-rendering="crispEdges" fill="rgb(91, 10, 142)"  x="3" y="8" width="1" height="1" /><rect shape-rendering="crispEdges" fill="rgb(99, 12, 149)"  x="3" y="9" width="1" height="1" /><rect shape-rendering="crispEdges" fill="rgb(107, 14, 156)"  x="3" y="10" width="1" height="1" /><rect shape-rendering="crispEdges" fill="rgb(116, 16, 163)"  x="3" y="11" width="1" height="1" /><rect shape-rendering="crispEdges" fill="rgb(125, 19, 169)"  x="3" y="12" width="1" height="1" /><rect shape-rendering="crispEdges" fill="rgb(83, 37, 101)"  x="3" y="13" width="1" height="1" /><rect shape-rendering="crispEdges" fill="rgb(48, 48, 48)"  x="3" y="14" width="1" height="1" /><rect shape-rendering="crispEdges" fill="rgb(48, 48, 48)"  x="3" y="17" width="1" height="1" /><rect shape-rendering="crispEdges" fill="rgb(99, 41, 114)"  x="3" y="18" width="1" height="1" /><rect shape-rendering="crispEdges" fill="rgb(179, 34, 215)"  x="3" y="19" width="1" height="1" /><rect shape-rendering="crispEdges" fill="rgb(185, 36, 220)"  x="3" y="20" width="1" height="1" /><rect shape-rendering="crispEdges" fill="rgb(191, 37, 224)"  x="3" y="21" width="1" height="1" /><rect shape-rendering="crispEdges" fill="rgb(109, 44, 122)"  x="3" y="22" width="1" height="1" /><rect shape-rendering="crispEdges" fill="rgb(48, 48, 48)"  x="3" y="23" width="1" height="1" /><rect shape-rendering="crispEdges" fill="rgb(48, 48, 48)"  x="4" y="4" width="1" height="1" /><rect shape-rendering="crispEdges" fill="rgb(48, 48, 48)"  x="4" y="5" width="1" height="1" /><rect shape-rendering="crispEdges" fill="rgb(50, 29, 74)"  x="4" y="6" width="1" height="1" /><rect shape-rendering="crispEdges" fill="rgb(58, 1, 113)"  x="4" y="7" width="1" height="1" /><rect shape-rendering="crispEdges" fill="rgb(63, 3, 118)"  x="4" y="8" width="1" height="1" /><rect shape-rendering="crispEdges" fill="rgb(68, 4, 123)"  x="4" y="9" width="1" height="1" /><rect shape-rendering="crispEdges" fill="rgb(74, 5, 127)"  x="4" y="10" width="1" height="1" /><rect shape-rendering="crispEdges" fill="rgb(81, 7, 134)"  x="4" y="11" width="1" height="1" /><rect shape-rendering="crispEdges" fill="rgb(88, 9, 139)"  x="4" y="12" width="1" height="1" /><rect shape-rendering="crispEdges" fill="rgb(96, 11, 146)"  x="4" y="13" width="1" height="1" /><rect shape-rendering="crispEdges" fill="rgb(71, 34, 91)"  x="4" y="14" width="1" height="1" /><rect shape-rendering="crispEdges" fill="rgb(48, 48, 48)"  x="4" y="15" width="1" height="1" /><rect shape-rendering="crispEdges" fill="rgb(48, 48, 48)"  x="4" y="16" width="1" height="1" /><rect shape-rendering="crispEdges" fill="rgb(48, 48, 48)"  x="4" y="18" width="1" height="1" /><rect shape-rendering="crispEdges" fill="rgb(88, 39, 105)"  x="4" y="19" width="1" height="1" /><rect shape-rendering="crispEdges" fill="rgb(153, 27, 194)"  x="4" y="20" width="1" height="1" /><rect shape-rendering="crispEdges" fill="rgb(161, 29, 200)"  x="4" y="21" width="1" height="1" /><rect shape-rendering="crispEdges" fill="rgb(169, 31, 206)"  x="4" y="22" width="1" height="1" /><rect shape-rendering="crispEdges" fill="rgb(100, 42, 116)"  x="4" y="23" width="1" height="1" /><rect shape-rendering="crispEdges" fill="rgb(48, 48, 48)"  x="4" y="24" width="1" height="1" /><rect shape-rendering="crispEdges" fill="rgb(48, 48, 48)"  x="5" y="6" width="1" height="1" /><rect shape-rendering="crispEdges" fill="rgb(48, 48, 48)"  x="5" y="7" width="1" height="1" /><rect shape-rendering="crispEdges" fill="rgb(48, 28, 71)"  x="5" y="8" width="1" height="1" /><rect shape-rendering="crispEdges" fill="rgb(49, 0, 106)"  x="5" y="9" width="1" height="1" /><rect shape-rendering="crispEdges" fill="rgb(52, 0, 108)"  x="5" y="10" width="1" height="1" /><rect shape-rendering="crispEdges" fill="rgb(55, 1, 112)"  x="5" y="11" width="1" height="1" /><rect shape-rendering="crispEdges" fill="rgb(60, 2, 116)"  x="5" y="12" width="1" height="1" /><rect shape-rendering="crispEdges" fill="rgb(65, 3, 120)"  x="5" y="13" width="1" height="1" /><rect shape-rendering="crispEdges" fill="rgb(70, 5, 125)"  x="5" y="14" width="1" height="1" /><rect shape-rendering="crispEdges" fill="rgb(77, 6, 131)"  x="5" y="15" width="1" height="1" /><rect shape-rendering="crispEdges" fill="rgb(63, 32, 85)"  x="5" y="16" width="1" height="1" /><rect shape-rendering="crispEdges" fill="rgb(48, 48, 48)"  x="5" y="17" width="1" height="1" /><rect shape-rendering="crispEdges" fill="rgb(48, 48, 48)"  x="5" y="19" width="1" height="1" /><rect shape-rendering="crispEdges" fill="rgb(116, 17, 162)"  x="5" y="20" width="1" height="1" /><rect shape-rendering="crispEdges" fill="rgb(125, 19, 170)"  x="5" y="21" width="1" height="1" /><rect shape-rendering="crispEdges" fill="rgb(133, 21, 177)"  x="5" y="22" width="1" height="1" /><rect shape-rendering="crispEdges" fill="rgb(141, 24, 183)"  x="5" y="23" width="1" height="1" /><rect shape-rendering="crispEdges" fill="rgb(48, 48, 48)"  x="5" y="24" width="1" height="1" /><rect shape-rendering="crispEdges" fill="rgb(48, 48, 48)"  x="5" y="28" width="1" height="1" /><rect shape-rendering="crispEdges" fill="rgb(48, 48, 48)"  x="5" y="29" width="1" height="1" /><rect shape-rendering="crispEdges" fill="rgb(48, 48, 48)"  x="5" y="30" width="1" height="1" /><rect shape-rendering="crispEdges" fill="rgb(48, 48, 48)"  x="6" y="8" width="1" height="1" /><rect shape-rendering="crispEdges" fill="rgb(48, 48, 48)"  x="6" y="9" width="1" height="1" /><rect shape-rendering="crispEdges" fill="rgb(50, 29, 71)"  x="6" y="10" width="1" height="1" /><rect shape-rendering="crispEdges" fill="rgb(49, 1, 104)"  x="6" y="11" width="1" height="1" /><rect shape-rendering="crispEdges" fill="rgb(48, 1, 104)"  x="6" y="12" width="1" height="1" /><rect shape-rendering="crispEdges" fill="rgb(49, 0, 106)"  x="6" y="13" width="1" height="1" /><rect shape-rendering="crispEdges" fill="rgb(51, 0, 107)"  x="6" y="14" width="1" height="1" /><rect shape-rendering="crispEdges" fill="rgb(53, 1, 110)"  x="6" y="15" width="1" height="1" /><rect shape-rendering="crispEdges" fill="rgb(57, 2, 114)"  x="6" y="16" width="1" height="1" /><rect shape-rendering="crispEdges" fill="rgb(54, 29, 77)"  x="6" y="17" width="1" height="1" /><rect shape-rendering="crispEdges" fill="rgb(48, 48, 48)"  x="6" y="18" width="1" height="1" /><rect shape-rendering="crispEdges" fill="rgb(59, 31, 81)"  x="6" y="19" width="1" height="1" /><rect shape-rendering="crispEdges" fill="rgb(81, 7, 133)"  x="6" y="20" width="1" height="1" /><rect shape-rendering="crispEdges" fill="rgb(87, 9, 140)"  x="6" y="21" width="1" height="1" /><rect shape-rendering="crispEdges" fill="rgb(95, 11, 146)"  x="6" y="22" width="1" height="1" /><rect shape-rendering="crispEdges" fill="rgb(103, 14, 152)"  x="6" y="23" width="1" height="1" /><rect shape-rendering="crispEdges" fill="rgb(74, 34, 94)"  x="6" y="24" width="1" height="1" /><rect shape-rendering="crispEdges" fill="rgb(48, 48, 48)"  x="6" y="25" width="1" height="1" /><rect shape-rendering="crispEdges" fill="rgb(48, 48, 48)"  x="6" y="27" width="1" height="1" /><rect shape-rendering="crispEdges" fill="rgb(88, 39, 105)"  x="6" y="28" width="1" height="1" /><rect shape-rendering="crispEdges" fill="rgb(153, 27, 194)"  x="6" y="29" width="1" height="1" /><rect shape-rendering="crispEdges" fill="rgb(48, 48, 48)"  x="6" y="30" width="1" height="1" /><rect shape-rendering="crispEdges" fill="rgb(48, 48, 48)"  x="7" y="10" width="1" height="1" /><rect shape-rendering="crispEdges" fill="rgb(58, 33, 77)"  x="7" y="11" width="1" height="1" /><rect shape-rendering="crispEdges" fill="rgb(66, 8, 113)"  x="7" y="12" width="1" height="1" /><rect shape-rendering="crispEdges" fill="rgb(59, 5, 109)"  x="7" y="13" width="1" height="1" /><rect shape-rendering="crispEdges" fill="rgb(53, 3, 106)"  x="7" y="14" width="1" height="1" /><rect shape-rendering="crispEdges" fill="rgb(50, 2, 104)"  x="7" y="15" width="1" height="1" /><rect shape-rendering="crispEdges" fill="rgb(48, 0, 104)"  x="7" y="16" width="1" height="1" /><rect shape-rendering="crispEdges" fill="rgb(48, 0, 105)"  x="7" y="17" width="1" height="1" /><rect shape-rendering="crispEdges" fill="rgb(50, 0, 106)"  x="7" y="18" width="1" height="1" /><rect shape-rendering="crispEdges" fill="rgb(52, 0, 109)"  x="7" y="19" width="1" height="1" /><rect shape-rendering="crispEdges" fill="rgb(56, 2, 112)"  x="7" y="20" width="1" height="1" /><rect shape-rendering="crispEdges" fill="rgb(60, 2, 115)"  x="7" y="21" width="1" height="1" /><rect shape-rendering="crispEdges" fill="rgb(65, 3, 120)"  x="7" y="22" width="1" height="1" /><rect shape-rendering="crispEdges" fill="rgb(71, 5, 125)"  x="7" y="23" width="1" height="1" /><rect shape-rendering="crispEdges" fill="rgb(77, 6, 130)"  x="7" y="24" width="1" height="1" /><rect shape-rendering="crispEdges" fill="rgb(48, 48, 48)"  x="7" y="25" width="1" height="1" /><rect shape-rendering="crispEdges" fill="rgb(48, 48, 48)"  x="7" y="27" width="1" height="1" /><rect shape-rendering="crispEdges" fill="rgb(108, 14, 156)"  x="7" y="28" width="1" height="1" /><rect shape-rendering="crispEdges" fill="rgb(116, 17, 163)"  x="7" y="29" width="1" height="1" /><rect shape-rendering="crispEdges" fill="rgb(48, 48, 48)"  x="7" y="30" width="1" height="1" /><rect shape-rendering="crispEdges" fill="rgb(48, 48, 48)"  x="8" y="11" width="1" height="1" /><rect shape-rendering="crispEdges" fill="rgb(72, 39, 86)"  x="8" y="12" width="1" height="1" /><rect shape-rendering="crispEdges" fill="rgb(97, 21, 133)"  x="8" y="13" width="1" height="1" /><rect shape-rendering="crispEdges" fill="rgb(87, 18, 126)"  x="8" y="14" width="1" height="1" /><rect shape-rendering="crispEdges" fill="rgb(78, 14, 121)"  x="8" y="15" width="1" height="1" /><rect shape-rendering="crispEdges" fill="rgb(69, 10, 115)"  x="8" y="16" width="1" height="1" /><rect shape-rendering="crispEdges" fill="rgb(62, 8, 110)"  x="8" y="17" width="1" height="1" /><rect shape-rendering="crispEdges" fill="rgb(56, 5, 107)"  x="8" y="18" width="1" height="1" /><rect shape-rendering="crispEdges" fill="rgb(51, 3, 104)"  x="8" y="19" width="1" height="1" /><rect shape-rendering="crispEdges" fill="rgb(49, 1, 104)"  x="8" y="20" width="1" height="1" /><rect shape-rendering="crispEdges" fill="rgb(48, 0, 104)"  x="8" y="21" width="1" height="1" /><rect shape-rendering="crispEdges" fill="rgb(48, 0, 105)"  x="8" y="22" width="1" height="1" /><rect shape-rendering="crispEdges" fill="rgb(51, 0, 107)"  x="8" y="23" width="1" height="1" /><rect shape-rendering="crispEdges" fill="rgb(53, 0, 110)"  x="8" y="24" width="1" height="1" /><rect shape-rendering="crispEdges" fill="rgb(48, 48, 48)"  x="8" y="25" width="1" height="1" /><rect shape-rendering="crispEdges" fill="rgb(48, 48, 48)"  x="8" y="27" width="1" height="1" /><rect shape-rendering="crispEdges" fill="rgb(74, 6, 128)"  x="8" y="28" width="1" height="1" /><rect shape-rendering="crispEdges" fill="rgb(81, 7, 133)"  x="8" y="29" width="1" height="1" /><rect shape-rendering="crispEdges" fill="rgb(48, 48, 48)"  x="8" y="30" width="1" height="1" /><rect shape-rendering="crispEdges" fill="rgb(48, 48, 48)"  x="9" y="12" width="1" height="1" /><rect shape-rendering="crispEdges" fill="rgb(87, 44, 95)"  x="9" y="13" width="1" height="1" /><rect shape-rendering="crispEdges" fill="rgb(133, 35, 157)"  x="9" y="14" width="1" height="1" /><rect shape-rendering="crispEdges" fill="rgb(123, 32, 150)"  x="9" y="15" width="1" height="1" /><rect shape-rendering="crispEdges" fill="rgb(112, 27, 143)"  x="9" y="16" width="1" height="1" /><rect shape-rendering="crispEdges" fill="rgb(102, 23, 136)"  x="9" y="17" width="1" height="1" /><rect shape-rendering="crispEdges" fill="rgb(92, 19, 130)"  x="9" y="18" width="1" height="1" /><rect shape-rendering="crispEdges" fill="rgb(82, 15, 123)"  x="9" y="19" width="1" height="1" /><rect shape-rendering="crispEdges" fill="rgb(73, 12, 118)"  x="9" y="20" width="1" height="1" /><rect shape-rendering="crispEdges" fill="rgb(65, 9, 113)"  x="9" y="21" width="1" height="1" /><rect shape-rendering="crispEdges" fill="rgb(59, 5, 109)"  x="9" y="22" width="1" height="1" /><rect shape-rendering="crispEdges" fill="rgb(53, 3, 106)"  x="9" y="23" width="1" height="1" /><rect shape-rendering="crispEdges" fill="rgb(50, 2, 104)"  x="9" y="24" width="1" height="1" /><rect shape-rendering="crispEdges" fill="rgb(48, 28, 71)"  x="9" y="25" width="1" height="1" /><rect shape-rendering="crispEdges" fill="rgb(48, 48, 48)"  x="9" y="26" width="1" height="1" /><rect shape-rendering="crispEdges" fill="rgb(49, 28, 72)"  x="9" y="27" width="1" height="1" /><rect shape-rendering="crispEdges" fill="rgb(52, 0, 108)"  x="9" y="28" width="1" height="1" /><rect shape-rendering="crispEdges" fill="rgb(55, 1, 112)"  x="9" y="29" width="1" height="1" /><rect shape-rendering="crispEdges" fill="rgb(48, 48, 48)"  x="9" y="30" width="1" height="1" /><rect shape-rendering="crispEdges" fill="rgb(48, 48, 48)"  x="10" y="13" width="1" height="1" /><rect shape-rendering="crispEdges" fill="rgb(99, 49, 103)"  x="10" y="14" width="1" height="1" /><rect shape-rendering="crispEdges" fill="rgb(165, 47, 178)"  x="10" y="15" width="1" height="1" /><rect shape-rendering="crispEdges" fill="rgb(157, 44, 172)"  x="10" y="16" width="1" height="1" /><rect shape-rendering="crispEdges" fill="rgb(148, 41, 166)"  x="10" y="17" width="1" height="1" /><rect shape-rendering="crispEdges" fill="rgb(139, 37, 160)"  x="10" y="18" width="1" height="1" /><rect shape-rendering="crispEdges" fill="rgb(128, 33, 153)"  x="10" y="19" width="1" height="1" /><rect shape-rendering="crispEdges" fill="rgb(117, 29, 147)"  x="10" y="20" width="1" height="1" /><rect shape-rendering="crispEdges" fill="rgb(108, 25, 140)"  x="10" y="21" width="1" height="1" /><rect shape-rendering="crispEdges" fill="rgb(97, 21, 133)"  x="10" y="22" width="1" height="1" /><rect shape-rendering="crispEdges" fill="rgb(87, 17, 127)"  x="10" y="23" width="1" height="1" /><rect shape-rendering="crispEdges" fill="rgb(78, 14, 120)"  x="10" y="24" width="1" height="1" /><rect shape-rendering="crispEdges" fill="rgb(69, 10, 115)"  x="10" y="25" width="1" height="1" /><rect shape-rendering="crispEdges" fill="rgb(62, 7, 111)"  x="10" y="26" width="1" height="1" /><rect shape-rendering="crispEdges" fill="rgb(56, 5, 107)"  x="10" y="27" width="1" height="1" /><rect shape-rendering="crispEdges" fill="rgb(52, 2, 104)"  x="10" y="28" width="1" height="1" /><rect shape-rendering="crispEdges" fill="rgb(48, 29, 71)"  x="10" y="29" width="1" height="1" /><rect shape-rendering="crispEdges" fill="rgb(48, 48, 48)"  x="10" y="30" width="1" height="1" /><rect shape-rendering="crispEdges" fill="rgb(48, 48, 48)"  x="11" y="14" width="1" height="1" /><rect shape-rendering="crispEdges" fill="rgb(102, 50, 105)"  x="11" y="15" width="1" height="1" /><rect shape-rendering="crispEdges" fill="rgb(179, 53, 187)"  x="11" y="16" width="1" height="1" /><rect shape-rendering="crispEdges" fill="rgb(179, 53, 187)"  x="11" y="17" width="1" height="1" /><rect shape-rendering="crispEdges" fill="rgb(174, 52, 184)"  x="11" y="18" width="1" height="1" /><rect shape-rendering="crispEdges" fill="rgb(169, 48, 180)"  x="11" y="19" width="1" height="1" /><rect shape-rendering="crispEdges" fill="rgb(161, 46, 175)"  x="11" y="20" width="1" height="1" /><rect shape-rendering="crispEdges" fill="rgb(152, 43, 170)"  x="11" y="21" width="1" height="1" /><rect shape-rendering="crispEdges" fill="rgb(144, 39, 164)"  x="11" y="22" width="1" height="1" /><rect shape-rendering="crispEdges" fill="rgb(134, 35, 157)"  x="11" y="23" width="1" height="1" /><rect shape-rendering="crispEdges" fill="rgb(123, 31, 150)"  x="11" y="24" width="1" height="1" /><rect shape-rendering="crispEdges" fill="rgb(113, 27, 143)"  x="11" y="25" width="1" height="1" /><rect shape-rendering="crispEdges" fill="rgb(102, 23, 137)"  x="11" y="26" width="1" height="1" /><rect shape-rendering="crispEdges" fill="rgb(92, 19, 130)"  x="11" y="27" width="1" height="1" /><rect shape-rendering="crispEdges" fill="rgb(82, 15, 123)"  x="11" y="28" width="1" height="1" /><rect shape-rendering="crispEdges" fill="rgb(48, 48, 48)"  x="11" y="29" width="1" height="1" /><rect shape-rendering="crispEdges" fill="rgb(48, 48, 48)"  x="12" y="15" width="1" height="1" /><rect shape-rendering="crispEdges" fill="rgb(48, 48, 48)"  x="12" y="16" width="1" height="1" /><rect shape-rendering="crispEdges" fill="rgb(102, 50, 105)"  x="12" y="17" width="1" height="1" /><rect shape-rendering="crispEdges" fill="rgb(102, 50, 105)"  x="12" y="18" width="1" height="1" /><rect shape-rendering="crispEdges" fill="rgb(48, 48, 48)"  x="12" y="19" width="1" height="1" /><rect shape-rendering="crispEdges" fill="rgb(48, 48, 48)"  x="12" y="20" width="1" height="1" /><rect shape-rendering="crispEdges" fill="rgb(48, 48, 48)"  x="12" y="21" width="1" height="1" /><rect shape-rendering="crispEdges" fill="rgb(101, 50, 105)"  x="12" y="22" width="1" height="1" /><rect shape-rendering="crispEdges" fill="rgb(171, 50, 182)"  x="12" y="23" width="1" height="1" /><rect shape-rendering="crispEdges" fill="rgb(165, 47, 177)"  x="12" y="24" width="1" height="1" /><rect shape-rendering="crispEdges" fill="rgb(157, 44, 173)"  x="12" y="25" width="1" height="1" /><rect shape-rendering="crispEdges" fill="rgb(147, 41, 166)"  x="12" y="26" width="1" height="1" /><rect shape-rendering="crispEdges" fill="rgb(139, 37, 160)"  x="12" y="27" width="1" height="1" /><rect shape-rendering="crispEdges" fill="rgb(128, 33, 154)"  x="12" y="28" width="1" height="1" /><rect shape-rendering="crispEdges" fill="rgb(48, 48, 48)"  x="12" y="29" width="1" height="1" /><rect shape-rendering="crispEdges" fill="rgb(48, 48, 48)"  x="13" y="17" width="1" height="1" /><rect shape-rendering="crispEdges" fill="rgb(48, 48, 48)"  x="13" y="18" width="1" height="1" /><rect shape-rendering="crispEdges" fill="rgb(48, 48, 48)"  x="13" y="22" width="1" height="1" /><rect shape-rendering="crispEdges" fill="rgb(102, 50, 105)"  x="13" y="23" width="1" height="1" /><rect shape-rendering="crispEdges" fill="rgb(179, 53, 187)"  x="13" y="24" width="1" height="1" /><rect shape-rendering="crispEdges" fill="rgb(179, 53, 187)"  x="13" y="25" width="1" height="1" /><rect shape-rendering="crispEdges" fill="rgb(179, 53, 187)"  x="13" y="26" width="1" height="1" /><rect shape-rendering="crispEdges" fill="rgb(175, 51, 184)"  x="13" y="27" width="1" height="1" /><rect shape-rendering="crispEdges" fill="rgb(97, 48, 102)"  x="13" y="28" width="1" height="1" /><rect shape-rendering="crispEdges" fill="rgb(48, 48, 48)"  x="13" y="29" width="1" height="1" /><rect shape-rendering="crispEdges" fill="rgb(48, 48, 48)"  x="14" y="23" width="1" height="1" /><rect shape-rendering="crispEdges" fill="rgb(48, 48, 48)"  x="14" y="24" width="1" height="1" /><rect shape-rendering="crispEdges" fill="rgb(48, 48, 48)"  x="14" y="25" width="1" height="1" /><rect shape-rendering="crispEdges" fill="rgb(48, 48, 48)"  x="14" y="26" width="1" height="1" /><rect shape-rendering="crispEdges" fill="rgb(48, 48, 48)"  x="14" y="27" width="1" height="1" /><rect shape-rendering="crispEdges" fill="rgb(48, 48, 48)"  x="14" y="28" width="1" height="1" /><rect shape-rendering="crispEdges" fill="rgb(48, 48, 48)"  x="17" y="23" width="1" height="1" /><rect shape-rendering="crispEdges" fill="rgb(48, 48, 48)"  x="17" y="24" width="1" height="1" /><rect shape-rendering="crispEdges" fill="rgb(48, 48, 48)"  x="17" y="25" width="1" height="1" /><rect shape-rendering="crispEdges" fill="rgb(48, 48, 48)"  x="17" y="26" width="1" height="1" /><rect shape-rendering="crispEdges" fill="rgb(48, 48, 48)"  x="17" y="27" width="1" height="1" /><rect shape-rendering="crispEdges" fill="rgb(48, 48, 48)"  x="17" y="28" width="1" height="1" /><rect shape-rendering="crispEdges" fill="rgb(48, 48, 48)"  x="18" y="17" width="1" height="1" /><rect shape-rendering="crispEdges" fill="rgb(48, 48, 48)"  x="18" y="18" width="1" height="1" /><rect shape-rendering="crispEdges" fill="rgb(48, 48, 48)"  x="18" y="22" width="1" height="1" /><rect shape-rendering="crispEdges" fill="rgb(102, 50, 105)"  x="18" y="23" width="1" height="1" /><rect shape-rendering="crispEdges" fill="rgb(179, 53, 187)"  x="18" y="24" width="1" height="1" /><rect shape-rendering="crispEdges" fill="rgb(179, 53, 187)"  x="18" y="25" width="1" height="1" /><rect shape-rendering="crispEdges" fill="rgb(179, 53, 187)"  x="18" y="26" width="1" height="1" /><rect shape-rendering="crispEdges" fill="rgb(175, 51, 184)"  x="18" y="27" width="1" height="1" /><rect shape-rendering="crispEdges" fill="rgb(97, 48, 102)"  x="18" y="28" width="1" height="1" /><rect shape-rendering="crispEdges" fill="rgb(48, 48, 48)"  x="18" y="29" width="1" height="1" /><rect shape-rendering="crispEdges" fill="rgb(48, 48, 48)"  x="19" y="15" width="1" height="1" /><rect shape-rendering="crispEdges" fill="rgb(48, 48, 48)"  x="19" y="16" width="1" height="1" /><rect shape-rendering="crispEdges" fill="rgb(102, 50, 105)"  x="19" y="17" width="1" height="1" /><rect shape-rendering="crispEdges" fill="rgb(102, 50, 105)"  x="19" y="18" width="1" height="1" /><rect shape-rendering="crispEdges" fill="rgb(48, 48, 48)"  x="19" y="19" width="1" height="1" /><rect shape-rendering="crispEdges" fill="rgb(48, 48, 48)"  x="19" y="20" width="1" height="1" /><rect shape-rendering="crispEdges" fill="rgb(48, 48, 48)"  x="19" y="21" width="1" height="1" /><rect shape-rendering="crispEdges" fill="rgb(101, 50, 105)"  x="19" y="22" width="1" height="1" /><rect shape-rendering="crispEdges" fill="rgb(171, 50, 182)"  x="19" y="23" width="1" height="1" /><rect shape-rendering="crispEdges" fill="rgb(165, 47, 177)"  x="19" y="24" width="1" height="1" /><rect shape-rendering="crispEdges" fill="rgb(157, 44, 173)"  x="19" y="25" width="1" height="1" /><rect shape-rendering="crispEdges" fill="rgb(147, 41, 166)"  x="19" y="26" width="1" height="1" /><rect shape-rendering="crispEdges" fill="rgb(139, 37, 160)"  x="19" y="27" width="1" height="1" /><rect shape-rendering="crispEdges" fill="rgb(128, 33, 154)"  x="19" y="28" width="1" height="1" /><rect shape-rendering="crispEdges" fill="rgb(48, 48, 48)"  x="19" y="29" width="1" height="1" /><rect shape-rendering="crispEdges" fill="rgb(48, 48, 48)"  x="20" y="14" width="1" height="1" /><rect shape-rendering="crispEdges" fill="rgb(102, 50, 105)"  x="20" y="15" width="1" height="1" /><rect shape-rendering="crispEdges" fill="rgb(179, 53, 187)"  x="20" y="16" width="1" height="1" /><rect shape-rendering="crispEdges" fill="rgb(179, 53, 187)"  x="20" y="17" width="1" height="1" /><rect shape-rendering="crispEdges" fill="rgb(174, 52, 184)"  x="20" y="18" width="1" height="1" /><rect shape-rendering="crispEdges" fill="rgb(169, 48, 180)"  x="20" y="19" width="1" height="1" /><rect shape-rendering="crispEdges" fill="rgb(161, 46, 175)"  x="20" y="20" width="1" height="1" /><rect shape-rendering="crispEdges" fill="rgb(152, 43, 170)"  x="20" y="21" width="1" height="1" /><rect shape-rendering="crispEdges" fill="rgb(144, 39, 164)"  x="20" y="22" width="1" height="1" /><rect shape-rendering="crispEdges" fill="rgb(134, 35, 157)"  x="20" y="23" width="1" height="1" /><rect shape-rendering="crispEdges" fill="rgb(123, 31, 150)"  x="20" y="24" width="1" height="1" /><rect shape-rendering="crispEdges" fill="rgb(113, 27, 143)"  x="20" y="25" width="1" height="1" /><rect shape-rendering="crispEdges" fill="rgb(102, 23, 137)"  x="20" y="26" width="1" height="1" /><rect shape-rendering="crispEdges" fill="rgb(92, 19, 130)"  x="20" y="27" width="1" height="1" /><rect shape-rendering="crispEdges" fill="rgb(82, 15, 123)"  x="20" y="28" width="1" height="1" /><rect shape-rendering="crispEdges" fill="rgb(48, 48, 48)"  x="20" y="29" width="1" height="1" /><rect shape-rendering="crispEdges" fill="rgb(48, 48, 48)"  x="21" y="13" width="1" height="1" /><rect shape-rendering="crispEdges" fill="rgb(99, 49, 103)"  x="21" y="14" width="1" height="1" /><rect shape-rendering="crispEdges" fill="rgb(165, 47, 178)"  x="21" y="15" width="1" height="1" /><rect shape-rendering="crispEdges" fill="rgb(157, 44, 172)"  x="21" y="16" width="1" height="1" /><rect shape-rendering="crispEdges" fill="rgb(148, 41, 166)"  x="21" y="17" width="1" height="1" /><rect shape-rendering="crispEdges" fill="rgb(139, 37, 160)"  x="21" y="18" width="1" height="1" /><rect shape-rendering="crispEdges" fill="rgb(128, 33, 153)"  x="21" y="19" width="1" height="1" /><rect shape-rendering="crispEdges" fill="rgb(117, 29, 147)"  x="21" y="20" width="1" height="1" /><rect shape-rendering="crispEdges" fill="rgb(108, 25, 140)"  x="21" y="21" width="1" height="1" /><rect shape-rendering="crispEdges" fill="rgb(97, 21, 133)"  x="21" y="22" width="1" height="1" /><rect shape-rendering="crispEdges" fill="rgb(87, 17, 127)"  x="21" y="23" width="1" height="1" /><rect shape-rendering="crispEdges" fill="rgb(78, 14, 120)"  x="21" y="24" width="1" height="1" /><rect shape-rendering="crispEdges" fill="rgb(69, 10, 115)"  x="21" y="25" width="1" height="1" /><rect shape-rendering="crispEdges" fill="rgb(62, 7, 111)"  x="21" y="26" width="1" height="1" /><rect shape-rendering="crispEdges" fill="rgb(56, 5, 107)"  x="21" y="27" width="1" height="1" /><rect shape-rendering="crispEdges" fill="rgb(52, 2, 104)"  x="21" y="28" width="1" height="1" /><rect shape-rendering="crispEdges" fill="rgb(48, 29, 71)"  x="21" y="29" width="1" height="1" /><rect shape-rendering="crispEdges" fill="rgb(48, 48, 48)"  x="21" y="30" width="1" height="1" /><rect shape-rendering="crispEdges" fill="rgb(48, 48, 48)"  x="22" y="12" width="1" height="1" /><rect shape-rendering="crispEdges" fill="rgb(87, 44, 95)"  x="22" y="13" width="1" height="1" /><rect shape-rendering="crispEdges" fill="rgb(133, 35, 157)"  x="22" y="14" width="1" height="1" /><rect shape-rendering="crispEdges" fill="rgb(123, 32, 150)"  x="22" y="15" width="1" height="1" /><rect shape-rendering="crispEdges" fill="rgb(112, 27, 143)"  x="22" y="16" width="1" height="1" /><rect shape-rendering="crispEdges" fill="rgb(102, 23, 136)"  x="22" y="17" width="1" height="1" /><rect shape-rendering="crispEdges" fill="rgb(92, 19, 130)"  x="22" y="18" width="1" height="1" /><rect shape-rendering="crispEdges" fill="rgb(82, 15, 123)"  x="22" y="19" width="1" height="1" /><rect shape-rendering="crispEdges" fill="rgb(73, 12, 118)"  x="22" y="20" width="1" height="1" /><rect shape-rendering="crispEdges" fill="rgb(65, 9, 113)"  x="22" y="21" width="1" height="1" /><rect shape-rendering="crispEdges" fill="rgb(59, 5, 109)"  x="22" y="22" width="1" height="1" /><rect shape-rendering="crispEdges" fill="rgb(53, 3, 106)"  x="22" y="23" width="1" height="1" /><rect shape-rendering="crispEdges" fill="rgb(50, 2, 104)"  x="22" y="24" width="1" height="1" /><rect shape-rendering="crispEdges" fill="rgb(48, 28, 71)"  x="22" y="25" width="1" height="1" /><rect shape-rendering="crispEdges" fill="rgb(48, 48, 48)"  x="22" y="26" width="1" height="1" /><rect shape-rendering="crispEdges" fill="rgb(49, 28, 72)"  x="22" y="27" width="1" height="1" /><rect shape-rendering="crispEdges" fill="rgb(52, 0, 108)"  x="22" y="28" width="1" height="1" /><rect shape-rendering="crispEdges" fill="rgb(55, 1, 112)"  x="22" y="29" width="1" height="1" /><rect shape-rendering="crispEdges" fill="rgb(48, 48, 48)"  x="22" y="30" width="1" height="1" /><rect shape-rendering="crispEdges" fill="rgb(48, 48, 48)"  x="23" y="11" width="1" height="1" /><rect shape-rendering="crispEdges" fill="rgb(72, 39, 86)"  x="23" y="12" width="1" height="1" /><rect shape-rendering="crispEdges" fill="rgb(97, 21, 133)"  x="23" y="13" width="1" height="1" /><rect shape-rendering="crispEdges" fill="rgb(87, 18, 126)"  x="23" y="14" width="1" height="1" /><rect shape-rendering="crispEdges" fill="rgb(78, 14, 121)"  x="23" y="15" width="1" height="1" /><rect shape-rendering="crispEdges" fill="rgb(69, 10, 115)"  x="23" y="16" width="1" height="1" /><rect shape-rendering="crispEdges" fill="rgb(62, 8, 110)"  x="23" y="17" width="1" height="1" /><rect shape-rendering="crispEdges" fill="rgb(56, 5, 107)"  x="23" y="18" width="1" height="1" /><rect shape-rendering="crispEdges" fill="rgb(51, 3, 104)"  x="23" y="19" width="1" height="1" /><rect shape-rendering="crispEdges" fill="rgb(49, 1, 104)"  x="23" y="20" width="1" height="1" /><rect shape-rendering="crispEdges" fill="rgb(48, 0, 104)"  x="23" y="21" width="1" height="1" /><rect shape-rendering="crispEdges" fill="rgb(48, 0, 105)"  x="23" y="22" width="1" height="1" /><rect shape-rendering="crispEdges" fill="rgb(51, 0, 107)"  x="23" y="23" width="1" height="1" /><rect shape-rendering="crispEdges" fill="rgb(53, 0, 110)"  x="23" y="24" width="1" height="1" /><rect shape-rendering="crispEdges" fill="rgb(48, 48, 48)"  x="23" y="25" width="1" height="1" /><rect shape-rendering="crispEdges" fill="rgb(48, 48, 48)"  x="23" y="27" width="1" height="1" /><rect shape-rendering="crispEdges" fill="rgb(74, 6, 128)"  x="23" y="28" width="1" height="1" /><rect shape-rendering="crispEdges" fill="rgb(81, 7, 133)"  x="23" y="29" width="1" height="1" /><rect shape-rendering="crispEdges" fill="rgb(48, 48, 48)"  x="23" y="30" width="1" height="1" /><rect shape-rendering="crispEdges" fill="rgb(48, 48, 48)"  x="24" y="10" width="1" height="1" /><rect shape-rendering="crispEdges" fill="rgb(58, 33, 77)"  x="24" y="11" width="1" height="1" /><rect shape-rendering="crispEdges" fill="rgb(66, 8, 113)"  x="24" y="12" width="1" height="1" /><rect shape-rendering="crispEdges" fill="rgb(59, 5, 109)"  x="24" y="13" width="1" height="1" /><rect shape-rendering="crispEdges" fill="rgb(53, 3, 106)"  x="24" y="14" width="1" height="1" /><rect shape-rendering="crispEdges" fill="rgb(50, 2, 104)"  x="24" y="15" width="1" height="1" /><rect shape-rendering="crispEdges" fill="rgb(48, 0, 104)"  x="24" y="16" width="1" height="1" /><rect shape-rendering="crispEdges" fill="rgb(48, 0, 105)"  x="24" y="17" width="1" height="1" /><rect shape-rendering="crispEdges" fill="rgb(50, 0, 106)"  x="24" y="18" width="1" height="1" /><rect shape-rendering="crispEdges" fill="rgb(52, 0, 109)"  x="24" y="19" width="1" height="1" /><rect shape-rendering="crispEdges" fill="rgb(56, 2, 112)"  x="24" y="20" width="1" height="1" /><rect shape-rendering="crispEdges" fill="rgb(60, 2, 115)"  x="24" y="21" width="1" height="1" /><rect shape-rendering="crispEdges" fill="rgb(65, 3, 120)"  x="24" y="22" width="1" height="1" /><rect shape-rendering="crispEdges" fill="rgb(71, 5, 125)"  x="24" y="23" width="1" height="1" /><rect shape-rendering="crispEdges" fill="rgb(77, 6, 130)"  x="24" y="24" width="1" height="1" /><rect shape-rendering="crispEdges" fill="rgb(48, 48, 48)"  x="24" y="25" width="1" height="1" /><rect shape-rendering="crispEdges" fill="rgb(48, 48, 48)"  x="24" y="27" width="1" height="1" /><rect shape-rendering="crispEdges" fill="rgb(108, 14, 156)"  x="24" y="28" width="1" height="1" /><rect shape-rendering="crispEdges" fill="rgb(116, 17, 163)"  x="24" y="29" width="1" height="1" /><rect shape-rendering="crispEdges" fill="rgb(48, 48, 48)"  x="24" y="30" width="1" height="1" /><rect shape-rendering="crispEdges" fill="rgb(48, 48, 48)"  x="25" y="8" width="1" height="1" /><rect shape-rendering="crispEdges" fill="rgb(48, 48, 48)"  x="25" y="9" width="1" height="1" /><rect shape-rendering="crispEdges" fill="rgb(50, 29, 71)"  x="25" y="10" width="1" height="1" /><rect shape-rendering="crispEdges" fill="rgb(49, 1, 104)"  x="25" y="11" width="1" height="1" /><rect shape-rendering="crispEdges" fill="rgb(48, 1, 104)"  x="25" y="12" width="1" height="1" /><rect shape-rendering="crispEdges" fill="rgb(49, 0, 106)"  x="25" y="13" width="1" height="1" /><rect shape-rendering="crispEdges" fill="rgb(51, 0, 107)"  x="25" y="14" width="1" height="1" /><rect shape-rendering="crispEdges" fill="rgb(53, 1, 110)"  x="25" y="15" width="1" height="1" /><rect shape-rendering="crispEdges" fill="rgb(57, 2, 114)"  x="25" y="16" width="1" height="1" /><rect shape-rendering="crispEdges" fill="rgb(54, 29, 77)"  x="25" y="17" width="1" height="1" /><rect shape-rendering="crispEdges" fill="rgb(48, 48, 48)"  x="25" y="18" width="1" height="1" /><rect shape-rendering="crispEdges" fill="rgb(59, 31, 81)"  x="25" y="19" width="1" height="1" /><rect shape-rendering="crispEdges" fill="rgb(81, 7, 133)"  x="25" y="20" width="1" height="1" /><rect shape-rendering="crispEdges" fill="rgb(87, 9, 140)"  x="25" y="21" width="1" height="1" /><rect shape-rendering="crispEdges" fill="rgb(95, 11, 146)"  x="25" y="22" width="1" height="1" /><rect shape-rendering="crispEdges" fill="rgb(103, 14, 152)"  x="25" y="23" width="1" height="1" /><rect shape-rendering="crispEdges" fill="rgb(74, 34, 94)"  x="25" y="24" width="1" height="1" /><rect shape-rendering="crispEdges" fill="rgb(48, 48, 48)"  x="25" y="25" width="1" height="1" /><rect shape-rendering="crispEdges" fill="rgb(48, 48, 48)"  x="25" y="27" width="1" height="1" /><rect shape-rendering="crispEdges" fill="rgb(88, 39, 105)"  x="25" y="28" width="1" height="1" /><rect shape-rendering="crispEdges" fill="rgb(153, 27, 194)"  x="25" y="29" width="1" height="1" /><rect shape-rendering="crispEdges" fill="rgb(48, 48, 48)"  x="25" y="30" width="1" height="1" /><rect shape-rendering="crispEdges" fill="rgb(48, 48, 48)"  x="26" y="6" width="1" height="1" /><rect shape-rendering="crispEdges" fill="rgb(48, 48, 48)"  x="26" y="7" width="1" height="1" /><rect shape-rendering="crispEdges" fill="rgb(48, 28, 71)"  x="26" y="8" width="1" height="1" /><rect shape-rendering="crispEdges" fill="rgb(49, 0, 106)"  x="26" y="9" width="1" height="1" /><rect shape-rendering="crispEdges" fill="rgb(52, 0, 108)"  x="26" y="10" width="1" height="1" /><rect shape-rendering="crispEdges" fill="rgb(55, 1, 112)"  x="26" y="11" width="1" height="1" /><rect shape-rendering="crispEdges" fill="rgb(60, 2, 116)"  x="26" y="12" width="1" height="1" /><rect shape-rendering="crispEdges" fill="rgb(65, 3, 120)"  x="26" y="13" width="1" height="1" /><rect shape-rendering="crispEdges" fill="rgb(70, 5, 125)"  x="26" y="14" width="1" height="1" /><rect shape-rendering="crispEdges" fill="rgb(77, 6, 131)"  x="26" y="15" width="1" height="1" /><rect shape-rendering="crispEdges" fill="rgb(63, 32, 85)"  x="26" y="16" width="1" height="1" /><rect shape-rendering="crispEdges" fill="rgb(48, 48, 48)"  x="26" y="17" width="1" height="1" /><rect shape-rendering="crispEdges" fill="rgb(48, 48, 48)"  x="26" y="19" width="1" height="1" /><rect shape-rendering="crispEdges" fill="rgb(116, 17, 162)"  x="26" y="20" width="1" height="1" /><rect shape-rendering="crispEdges" fill="rgb(125, 19, 170)"  x="26" y="21" width="1" height="1" /><rect shape-rendering="crispEdges" fill="rgb(133, 21, 177)"  x="26" y="22" width="1" height="1" /><rect shape-rendering="crispEdges" fill="rgb(141, 24, 183)"  x="26" y="23" width="1" height="1" /><rect shape-rendering="crispEdges" fill="rgb(48, 48, 48)"  x="26" y="24" width="1" height="1" /><rect shape-rendering="crispEdges" fill="rgb(48, 48, 48)"  x="26" y="28" width="1" height="1" /><rect shape-rendering="crispEdges" fill="rgb(48, 48, 48)"  x="26" y="29" width="1" height="1" /><rect shape-rendering="crispEdges" fill="rgb(48, 48, 48)"  x="26" y="30" width="1" height="1" /><rect shape-rendering="crispEdges" fill="rgb(48, 48, 48)"  x="27" y="4" width="1" height="1" /><rect shape-rendering="crispEdges" fill="rgb(48, 48, 48)"  x="27" y="5" width="1" height="1" /><rect shape-rendering="crispEdges" fill="rgb(50, 29, 74)"  x="27" y="6" width="1" height="1" /><rect shape-rendering="crispEdges" fill="rgb(58, 1, 113)"  x="27" y="7" width="1" height="1" /><rect shape-rendering="crispEdges" fill="rgb(63, 3, 118)"  x="27" y="8" width="1" height="1" /><rect shape-rendering="crispEdges" fill="rgb(68, 4, 123)"  x="27" y="9" width="1" height="1" /><rect shape-rendering="crispEdges" fill="rgb(74, 5, 127)"  x="27" y="10" width="1" height="1" /><rect shape-rendering="crispEdges" fill="rgb(81, 7, 134)"  x="27" y="11" width="1" height="1" /><rect shape-rendering="crispEdges" fill="rgb(88, 9, 139)"  x="27" y="12" width="1" height="1" /><rect shape-rendering="crispEdges" fill="rgb(96, 11, 146)"  x="27" y="13" width="1" height="1" /><rect shape-rendering="crispEdges" fill="rgb(71, 34, 91)"  x="27" y="14" width="1" height="1" /><rect shape-rendering="crispEdges" fill="rgb(48, 48, 48)"  x="27" y="15" width="1" height="1" /><rect shape-rendering="crispEdges" fill="rgb(48, 48, 48)"  x="27" y="16" width="1" height="1" /><rect shape-rendering="crispEdges" fill="rgb(48, 48, 48)"  x="27" y="18" width="1" height="1" /><rect shape-rendering="crispEdges" fill="rgb(88, 39, 105)"  x="27" y="19" width="1" height="1" /><rect shape-rendering="crispEdges" fill="rgb(153, 27, 194)"  x="27" y="20" width="1" height="1" /><rect shape-rendering="crispEdges" fill="rgb(161, 29, 200)"  x="27" y="21" width="1" height="1" /><rect shape-rendering="crispEdges" fill="rgb(169, 31, 206)"  x="27" y="22" width="1" height="1" /><rect shape-rendering="crispEdges" fill="rgb(100, 42, 116)"  x="27" y="23" width="1" height="1" /><rect shape-rendering="crispEdges" fill="rgb(48, 48, 48)"  x="27" y="24" width="1" height="1" /><rect shape-rendering="crispEdges" fill="rgb(48, 48, 48)"  x="28" y="2" width="1" height="1" /><rect shape-rendering="crispEdges" fill="rgb(48, 48, 48)"  x="28" y="3" width="1" height="1" /><rect shape-rendering="crispEdges" fill="rgb(55, 29, 78)"  x="28" y="4" width="1" height="1" /><rect shape-rendering="crispEdges" fill="rgb(71, 5, 125)"  x="28" y="5" width="1" height="1" /><rect shape-rendering="crispEdges" fill="rgb(77, 6, 130)"  x="28" y="6" width="1" height="1" /><rect shape-rendering="crispEdges" fill="rgb(84, 8, 136)"  x="28" y="7" width="1" height="1" /><rect shape-rendering="crispEdges" fill="rgb(91, 10, 142)"  x="28" y="8" width="1" height="1" /><rect shape-rendering="crispEdges" fill="rgb(99, 12, 149)"  x="28" y="9" width="1" height="1" /><rect shape-rendering="crispEdges" fill="rgb(107, 14, 156)"  x="28" y="10" width="1" height="1" /><rect shape-rendering="crispEdges" fill="rgb(116, 16, 163)"  x="28" y="11" width="1" height="1" /><rect shape-rendering="crispEdges" fill="rgb(125, 19, 169)"  x="28" y="12" width="1" height="1" /><rect shape-rendering="crispEdges" fill="rgb(83, 37, 101)"  x="28" y="13" width="1" height="1" /><rect shape-rendering="crispEdges" fill="rgb(48, 48, 48)"  x="28" y="14" width="1" height="1" /><rect shape-rendering="crispEdges" fill="rgb(48, 48, 48)"  x="28" y="17" width="1" height="1" /><rect shape-rendering="crispEdges" fill="rgb(99, 41, 114)"  x="28" y="18" width="1" height="1" /><rect shape-rendering="crispEdges" fill="rgb(179, 34, 215)"  x="28" y="19" width="1" height="1" /><rect shape-rendering="crispEdges" fill="rgb(185, 36, 220)"  x="28" y="20" width="1" height="1" /><rect shape-rendering="crispEdges" fill="rgb(191, 37, 224)"  x="28" y="21" width="1" height="1" /><rect shape-rendering="crispEdges" fill="rgb(109, 44, 122)"  x="28" y="22" width="1" height="1" /><rect shape-rendering="crispEdges" fill="rgb(48, 48, 48)"  x="28" y="23" width="1" height="1" /><rect shape-rendering="crispEdges" fill="rgb(48, 48, 48)"  x="29" y="1" width="1" height="1" /><rect shape-rendering="crispEdges" fill="rgb(62, 32, 83)"  x="29" y="2" width="1" height="1" /><rect shape-rendering="crispEdges" fill="rgb(88, 9, 139)"  x="29" y="3" width="1" height="1" /><rect shape-rendering="crispEdges" fill="rgb(68, 33, 88)"  x="29" y="4" width="1" height="1" /><rect shape-rendering="crispEdges" fill="rgb(48, 48, 48)"  x="29" y="5" width="1" height="1" /><rect shape-rendering="crispEdges" fill="rgb(48, 48, 48)"  x="29" y="6" width="1" height="1" /><rect shape-rendering="crispEdges" fill="rgb(78, 36, 97)"  x="29" y="7" width="1" height="1" /><rect shape-rendering="crispEdges" fill="rgb(129, 20, 173)"  x="29" y="8" width="1" height="1" /><rect shape-rendering="crispEdges" fill="rgb(85, 38, 102)"  x="29" y="9" width="1" height="1" /><rect shape-rendering="crispEdges" fill="rgb(48, 48, 48)"  x="29" y="10" width="1" height="1" /><rect shape-rendering="crispEdges" fill="rgb(48, 48, 48)"  x="29" y="11" width="1" height="1" /><rect shape-rendering="crispEdges" fill="rgb(48, 48, 48)"  x="29" y="12" width="1" height="1" /><rect shape-rendering="crispEdges" fill="rgb(48, 48, 48)"  x="29" y="13" width="1" height="1" /><rect shape-rendering="crispEdges" fill="rgb(48, 48, 48)"  x="29" y="16" width="1" height="1" /><rect shape-rendering="crispEdges" fill="rgb(108, 44, 121)"  x="29" y="17" width="1" height="1" /><rect shape-rendering="crispEdges" fill="rgb(197, 39, 230)"  x="29" y="18" width="1" height="1" /><rect shape-rendering="crispEdges" fill="rgb(111, 45, 124)"  x="29" y="19" width="1" height="1" /><rect shape-rendering="crispEdges" fill="rgb(48, 48, 48)"  x="29" y="20" width="1" height="1" /><rect shape-rendering="crispEdges" fill="rgb(48, 48, 48)"  x="29" y="21" width="1" height="1" /><rect shape-rendering="crispEdges" fill="rgb(48, 48, 48)"  x="29" y="22" width="1" height="1" /><rect shape-rendering="crispEdges" fill="rgb(48, 48, 48)"  x="30" y="1" width="1" height="1" /><rect shape-rendering="crispEdges" fill="rgb(48, 48, 48)"  x="30" y="2" width="1" height="1" /><rect shape-rendering="crispEdges" fill="rgb(48, 48, 48)"  x="30" y="3" width="1" height="1" /><rect shape-rendering="crispEdges" fill="rgb(48, 48, 48)"  x="30" y="4" width="1" height="1" /><rect shape-rendering="crispEdges" fill="rgb(48, 48, 48)"  x="30" y="7" width="1" height="1" /><rect shape-rendering="crispEdges" fill="rgb(48, 48, 48)"  x="30" y="8" width="1" height="1" /><rect shape-rendering="crispEdges" fill="rgb(48, 48, 48)"  x="30" y="9" width="1" height="1" /><rect shape-rendering="crispEdges" fill="rgb(48, 48, 48)"  x="30" y="15" width="1" height="1" /><rect shape-rendering="crispEdges" fill="rgb(48, 48, 48)"  x="30" y="16" width="1" height="1" /><rect shape-rendering="crispEdges" fill="rgb(48, 48, 48)"  x="30" y="17" width="1" height="1" /><rect shape-rendering="crispEdges" fill="rgb(48, 48, 48)"  x="30" y="18" width="1" height="1" /><rect shape-rendering="crispEdges" fill="rgb(48, 48, 48)"  x="30" y="19" width="1" height="1" /></svg>