<svg xmlns="http://www.w3.org/2000/svg" xmlns:xlink= "http://www.w3.org/1999/xlink" width="32" height="32" viewBox ="0 0 32 32"><rect shape-rendering="crispEdges" fill="rgb(164, 98, 131)"  x="1" y="23" width="1" height="1" /><rect shape-rendering="crispEdges" fill="rgb(189, 115, 148)"  x="1" y="24" width="1" height="1" /><rect shape-rendering="crispEdges" fill="rgb(164, 98, 131)"  x="1" y="25" width="1" height="1" /><rect shape-rendering="crispEdges" fill="rgb(148, 172, 65)"  x="1" y="26" width="1" height="1" /><rect shape-rendering="crispEdges" fill="rgb(148, 172, 65)"  x="1" y="27" width="1" height="1" /><rect shape-rendering="crispEdges" fill="rgb(131, 82, 115)"  x="2" y="23" width="1" height="1" /><rect shape-rendering="crispEdges" fill="rgb(213, 148, 172)"  x="2" y="24" width="1" height="1" /><rect shape-rendering="crispEdges" fill="rgb(238, 172, 197)"  x="2" y="25" width="1" height="1" /><rect shape-rendering="crispEdges" fill="rgb(131, 82, 115)"  x="2" y="26" width="1" height="1" /><rect shape-rendering="crispEdges" fill="rgb(131, 139, 57)"  x="2" y="27" width="1" height="1" /><rect shape-rendering="crispEdges" fill="rgb(57, 139, 115)"  x="3" y="22" width="1" height="1" /><rect shape-rendering="crispEdges" fill="rgb(180, 213, 180)"  x="3" y="23" width="1" height="1" /><rect shape-rendering="crispEdges" fill="rgb(57, 139, 115)"  x="3" y="24" width="1" height="1" /><rect shape-rendering="crispEdges" fill="rgb(131, 82, 115)"  x="3" y="25" width="1" height="1" /><rect shape-rendering="crispEdges" fill="rgb(189, 115, 148)"  x="3" y="26" width="1" height="1" /><rect shape-rendering="crispEdges" fill="rgb(106, 57, 98)"  x="3" y="27" width="1" height="1" /><rect shape-rendering="crispEdges" fill="rgb(57, 139, 115)"  x="4" y="21" width="1" height="1" /><rect shape-rendering="crispEdges" fill="rgb(180, 213, 180)"  x="4" y="22" width="1" height="1" /><rect shape-rendering="crispEdges" fill="rgb(57, 139, 115)"  x="4" y="23" width="1" height="1" /><rect shape-rendering="crispEdges" fill="rgb(115, 180, 148)"  x="4" y="24" width="1" height="1" /><rect shape-rendering="crispEdges" fill="rgb(106, 57, 98)"  x="4" y="25" width="1" height="1" /><rect shape-rendering="crispEdges" fill="rgb(131, 82, 115)"  x="4" y="26" width="1" height="1" /><rect shape-rendering="crispEdges" fill="rgb(106, 57, 98)"  x="4" y="27" width="1" height="1" /><rect shape-rendering="crispEdges" fill="rgb(115, 180, 148)"  x="5" y="20" width="1" height="1" /><rect shape-rendering="crispEdges" fill="rgb(180, 213, 180)"  x="5" y="21" width="1" height="1" /><rect shape-rendering="crispEdges" fill="rgb(180, 213, 180)"  x="5" y="22" width="1" height="1" /><rect shape-rendering="crispEdges" fill="rgb(115, 180, 148)"  x="5" y="23" width="1" height="1" /><rect shape-rendering="crispEdges" fill="rgb(57, 139, 115)"  x="5" y="24" width="1" height="1" /><rect shape-rendering="crispEdges" fill="rgb(49, 115, 98)"  x="5" y="25" width="1" height="1" /><rect shape-rendering="crispEdges" fill="rgb(82, 41, 82)"  x="5" y="26" width="1" height="1" /><rect shape-rendering="crispEdges" fill="rgb(82, 41, 82)"  x="5" y="27" width="1" height="1" /><rect shape-rendering="crispEdges" fill="rgb(180, 139, 90)"  x="6" y="20" width="1" height="1" /><rect shape-rendering="crispEdges" fill="rgb(57, 139, 115)"  x="6" y="21" width="1" height="1" /><rect shape-rendering="crispEdges" fill="rgb(115, 180, 148)"  x="6" y="22" width="1" height="1" /><rect shape-rendering="crispEdges" fill="rgb(57, 139, 115)"  x="6" y="23" width="1" height="1" /><rect shape-rendering="crispEdges" fill="rgb(49, 115, 98)"  x="6" y="24" width="1" height="1" /><rect shape-rendering="crispEdges" fill="rgb(41, 98, 82)"  x="6" y="25" width="1" height="1" /><rect shape-rendering="crispEdges" fill="rgb(57, 139, 115)"  x="7" y="5" width="1" height="1" /><rect shape-rendering="crispEdges" fill="rgb(180, 139, 90)"  x="7" y="19" width="1" height="1" /><rect shape-rendering="crispEdges" fill="rgb(222, 189, 131)"  x="7" y="20" width="1" height="1" /><rect shape-rendering="crispEdges" fill="rgb(205, 164, 106)"  x="7" y="21" width="1" height="1" /><rect shape-rendering="crispEdges" fill="rgb(57, 139, 115)"  x="7" y="22" width="1" height="1" /><rect shape-rendering="crispEdges" fill="rgb(49, 115, 98)"  x="7" y="23" width="1" height="1" /><rect shape-rendering="crispEdges" fill="rgb(57, 139, 115)"  x="8" y="5" width="1" height="1" /><rect shape-rendering="crispEdges" fill="rgb(156, 115, 74)"  x="8" y="17" width="1" height="1" /><rect shape-rendering="crispEdges" fill="rgb(172, 82, 82)"  x="8" y="18" width="1" height="1" /><rect shape-rendering="crispEdges" fill="rgb(205, 115, 106)"  x="8" y="19" width="1" height="1" /><rect shape-rendering="crispEdges" fill="rgb(205, 164, 106)"  x="8" y="20" width="1" height="1" /><rect shape-rendering="crispEdges" fill="rgb(222, 189, 131)"  x="8" y="21" width="1" height="1" /><rect shape-rendering="crispEdges" fill="rgb(156, 115, 74)"  x="8" y="22" width="1" height="1" /><rect shape-rendering="crispEdges" fill="rgb(115, 180, 148)"  x="9" y="5" width="1" height="1" /><rect shape-rendering="crispEdges" fill="rgb(57, 139, 115)"  x="9" y="6" width="1" height="1" /><rect shape-rendering="crispEdges" fill="rgb(180, 139, 90)"  x="9" y="17" width="1" height="1" /><rect shape-rendering="crispEdges" fill="rgb(205, 164, 106)"  x="9" y="18" width="1" height="1" /><rect shape-rendering="crispEdges" fill="rgb(172, 82, 82)"  x="9" y="19" width="1" height="1" /><rect shape-rendering="crispEdges" fill="rgb(205, 115, 106)"  x="9" y="20" width="1" height="1" /><rect shape-rendering="crispEdges" fill="rgb(156, 115, 74)"  x="9" y="21" width="1" height="1" /><rect shape-rendering="crispEdges" fill="rgb(98, 57, 49)"  x="9" y="22" width="1" height="1" /><rect shape-rendering="crispEdges" fill="rgb(115, 180, 148)"  x="10" y="5" width="1" height="1" /><rect shape-rendering="crispEdges" fill="rgb(57, 139, 115)"  x="10" y="6" width="1" height="1" /><rect shape-rendering="crispEdges" fill="rgb(156, 115, 74)"  x="10" y="16" width="1" height="1" /><rect shape-rendering="crispEdges" fill="rgb(205, 164, 106)"  x="10" y="17" width="1" height="1" /><rect shape-rendering="crispEdges" fill="rgb(238, 222, 156)"  x="10" y="18" width="1" height="1" /><rect shape-rendering="crispEdges" fill="rgb(205, 164, 106)"  x="10" y="19" width="1" height="1" /><rect shape-rendering="crispEdges" fill="rgb(131, 90, 57)"  x="10" y="20" width="1" height="1" /><rect shape-rendering="crispEdges" fill="rgb(115, 180, 148)"  x="11" y="5" width="1" height="1" /><rect shape-rendering="crispEdges" fill="rgb(115, 180, 148)"  x="11" y="6" width="1" height="1" /><rect shape-rendering="crispEdges" fill="rgb(57, 139, 115)"  x="11" y="7" width="1" height="1" /><rect shape-rendering="crispEdges" fill="rgb(255, 189, 98)"  x="11" y="14" width="1" height="1" /><rect shape-rendering="crispEdges" fill="rgb(156, 115, 74)"  x="11" y="15" width="1" height="1" /><rect shape-rendering="crispEdges" fill="rgb(205, 164, 106)"  x="11" y="16" width="1" height="1" /><rect shape-rendering="crispEdges" fill="rgb(156, 115, 74)"  x="11" y="17" width="1" height="1" /><rect shape-rendering="crispEdges" fill="rgb(131, 90, 57)"  x="11" y="18" width="1" height="1" /><rect shape-rendering="crispEdges" fill="rgb(131, 90, 57)"  x="11" y="19" width="1" height="1" /><rect shape-rendering="crispEdges" fill="rgb(115, 180, 148)"  x="12" y="5" width="1" height="1" /><rect shape-rendering="crispEdges" fill="rgb(115, 180, 148)"  x="12" y="6" width="1" height="1" /><rect shape-rendering="crispEdges" fill="rgb(57, 139, 115)"  x="12" y="7" width="1" height="1" /><rect shape-rendering="crispEdges" fill="rgb(57, 139, 115)"  x="12" y="11" width="1" height="1" /><rect shape-rendering="crispEdges" fill="rgb(148, 172, 65)"  x="12" y="12" width="1" height="1" /><rect shape-rendering="crispEdges" fill="rgb(131, 139, 57)"  x="12" y="13" width="1" height="1" /><rect shape-rendering="crispEdges" fill="rgb(255, 222, 148)"  x="12" y="14" width="1" height="1" /><rect shape-rendering="crispEdges" fill="rgb(230, 164, 98)"  x="12" y="15" width="1" height="1" /><rect shape-rendering="crispEdges" fill="rgb(131, 90, 57)"  x="12" y="16" width="1" height="1" /><rect shape-rendering="crispEdges" fill="rgb(98, 57, 49)"  x="12" y="17" width="1" height="1" /><rect shape-rendering="crispEdges" fill="rgb(115, 180, 148)"  x="12" y="24" width="1" height="1" /><rect shape-rendering="crispEdges" fill="rgb(115, 180, 148)"  x="13" y="6" width="1" height="1" /><rect shape-rendering="crispEdges" fill="rgb(57, 139, 115)"  x="13" y="7" width="1" height="1" /><rect shape-rendering="crispEdges" fill="rgb(49, 115, 98)"  x="13" y="8" width="1" height="1" /><rect shape-rendering="crispEdges" fill="rgb(49, 115, 98)"  x="13" y="9" width="1" height="1" /><rect shape-rendering="crispEdges" fill="rgb(180, 213, 180)"  x="13" y="10" width="1" height="1" /><rect shape-rendering="crispEdges" fill="rgb(115, 180, 148)"  x="13" y="11" width="1" height="1" /><rect shape-rendering="crispEdges" fill="rgb(180, 189, 90)"  x="13" y="12" width="1" height="1" /><rect shape-rendering="crispEdges" fill="rgb(205, 213, 123)"  x="13" y="13" width="1" height="1" /><rect shape-rendering="crispEdges" fill="rgb(131, 139, 57)"  x="13" y="14" width="1" height="1" /><rect shape-rendering="crispEdges" fill="rgb(255, 222, 148)"  x="13" y="15" width="1" height="1" /><rect shape-rendering="crispEdges" fill="rgb(230, 164, 98)"  x="13" y="16" width="1" height="1" /><rect shape-rendering="crispEdges" fill="rgb(131, 90, 57)"  x="13" y="17" width="1" height="1" /><rect shape-rendering="crispEdges" fill="rgb(115, 180, 148)"  x="13" y="23" width="1" height="1" /><rect shape-rendering="crispEdges" fill="rgb(115, 180, 148)"  x="13" y="24" width="1" height="1" /><rect shape-rendering="crispEdges" fill="rgb(57, 139, 115)"  x="14" y="6" width="1" height="1" /><rect shape-rendering="crispEdges" fill="rgb(57, 139, 115)"  x="14" y="7" width="1" height="1" /><rect shape-rendering="crispEdges" fill="rgb(57, 139, 115)"  x="14" y="8" width="1" height="1" /><rect shape-rendering="crispEdges" fill="rgb(49, 115, 98)"  x="14" y="9" width="1" height="1" /><rect shape-rendering="crispEdges" fill="rgb(115, 180, 148)"  x="14" y="10" width="1" height="1" /><rect shape-rendering="crispEdges" fill="rgb(238, 255, 213)"  x="14" y="11" width="1" height="1" /><rect shape-rendering="crispEdges" fill="rgb(57, 139, 115)"  x="14" y="12" width="1" height="1" /><rect shape-rendering="crispEdges" fill="rgb(180, 189, 90)"  x="14" y="13" width="1" height="1" /><rect shape-rendering="crispEdges" fill="rgb(205, 213, 123)"  x="14" y="14" width="1" height="1" /><rect shape-rendering="crispEdges" fill="rgb(131, 139, 57)"  x="14" y="15" width="1" height="1" /><rect shape-rendering="crispEdges" fill="rgb(230, 164, 98)"  x="14" y="16" width="1" height="1" /><rect shape-rendering="crispEdges" fill="rgb(115, 180, 148)"  x="14" y="22" width="1" height="1" /><rect shape-rendering="crispEdges" fill="rgb(246, 255, 230)"  x="14" y="23" width="1" height="1" /><rect shape-rendering="crispEdges" fill="rgb(115, 180, 148)"  x="14" y="24" width="1" height="1" /><rect shape-rendering="crispEdges" fill="rgb(57, 139, 115)"  x="15" y="6" width="1" height="1" /><rect shape-rendering="crispEdges" fill="rgb(57, 139, 115)"  x="15" y="7" width="1" height="1" /><rect shape-rendering="crispEdges" fill="rgb(49, 115, 98)"  x="15" y="8" width="1" height="1" /><rect shape-rendering="crispEdges" fill="rgb(148, 172, 65)"  x="15" y="9" width="1" height="1" /><rect shape-rendering="crispEdges" fill="rgb(49, 115, 98)"  x="15" y="10" width="1" height="1" /><rect shape-rendering="crispEdges" fill="rgb(115, 180, 148)"  x="15" y="11" width="1" height="1" /><rect shape-rendering="crispEdges" fill="rgb(238, 255, 213)"  x="15" y="12" width="1" height="1" /><rect shape-rendering="crispEdges" fill="rgb(57, 139, 115)"  x="15" y="13" width="1" height="1" /><rect shape-rendering="crispEdges" fill="rgb(148, 172, 65)"  x="15" y="14" width="1" height="1" /><rect shape-rendering="crispEdges" fill="rgb(115, 98, 49)"  x="15" y="15" width="1" height="1" /><rect shape-rendering="crispEdges" fill="rgb(115, 180, 148)"  x="15" y="21" width="1" height="1" /><rect shape-rendering="crispEdges" fill="rgb(246, 255, 230)"  x="15" y="22" width="1" height="1" /><rect shape-rendering="crispEdges" fill="rgb(246, 255, 230)"  x="15" y="23" width="1" height="1" /><rect shape-rendering="crispEdges" fill="rgb(115, 180, 148)"  x="15" y="24" width="1" height="1" /><rect shape-rendering="crispEdges" fill="rgb(115, 180, 148)"  x="16" y="5" width="1" height="1" /><rect shape-rendering="crispEdges" fill="rgb(115, 180, 148)"  x="16" y="6" width="1" height="1" /><rect shape-rendering="crispEdges" fill="rgb(49, 115, 98)"  x="16" y="7" width="1" height="1" /><rect shape-rendering="crispEdges" fill="rgb(148, 172, 65)"  x="16" y="8" width="1" height="1" /><rect shape-rendering="crispEdges" fill="rgb(255, 238, 172)"  x="16" y="9" width="1" height="1" /><rect shape-rendering="crispEdges" fill="rgb(205, 213, 123)"  x="16" y="10" width="1" height="1" /><rect shape-rendering="crispEdges" fill="rgb(57, 139, 115)"  x="16" y="11" width="1" height="1" /><rect shape-rendering="crispEdges" fill="rgb(115, 180, 148)"  x="16" y="12" width="1" height="1" /><rect shape-rendering="crispEdges" fill="rgb(57, 139, 115)"  x="16" y="13" width="1" height="1" /><rect shape-rendering="crispEdges" fill="rgb(57, 139, 115)"  x="16" y="14" width="1" height="1" /><rect shape-rendering="crispEdges" fill="rgb(49, 115, 98)"  x="16" y="15" width="1" height="1" /><rect shape-rendering="crispEdges" fill="rgb(131, 180, 8)"  x="16" y="20" width="1" height="1" /><rect shape-rendering="crispEdges" fill="rgb(246, 255, 230)"  x="16" y="21" width="1" height="1" /><rect shape-rendering="crispEdges" fill="rgb(246, 255, 230)"  x="16" y="22" width="1" height="1" /><rect shape-rendering="crispEdges" fill="rgb(180, 213, 180)"  x="16" y="23" width="1" height="1" /><rect shape-rendering="crispEdges" fill="rgb(115, 180, 148)"  x="16" y="24" width="1" height="1" /><rect shape-rendering="crispEdges" fill="rgb(180, 213, 180)"  x="17" y="5" width="1" height="1" /><rect shape-rendering="crispEdges" fill="rgb(238, 255, 213)"  x="17" y="6" width="1" height="1" /><rect shape-rendering="crispEdges" fill="rgb(57, 139, 115)"  x="17" y="7" width="1" height="1" /><rect shape-rendering="crispEdges" fill="rgb(255, 238, 172)"  x="17" y="8" width="1" height="1" /><rect shape-rendering="crispEdges" fill="rgb(255, 222, 148)"  x="17" y="9" width="1" height="1" /><rect shape-rendering="crispEdges" fill="rgb(148, 172, 65)"  x="17" y="10" width="1" height="1" /><rect shape-rendering="crispEdges" fill="rgb(148, 172, 65)"  x="17" y="11" width="1" height="1" /><rect shape-rendering="crispEdges" fill="rgb(57, 139, 115)"  x="17" y="12" width="1" height="1" /><rect shape-rendering="crispEdges" fill="rgb(115, 180, 148)"  x="17" y="13" width="1" height="1" /><rect shape-rendering="crispEdges" fill="rgb(115, 180, 148)"  x="17" y="14" width="1" height="1" /><rect shape-rendering="crispEdges" fill="rgb(49, 115, 98)"  x="17" y="15" width="1" height="1" /><rect shape-rendering="crispEdges" fill="rgb(148, 148, 189)"  x="17" y="19" width="1" height="1" /><rect shape-rendering="crispEdges" fill="rgb(246, 255, 230)"  x="17" y="20" width="1" height="1" /><rect shape-rendering="crispEdges" fill="rgb(246, 255, 230)"  x="17" y="21" width="1" height="1" /><rect shape-rendering="crispEdges" fill="rgb(180, 213, 180)"  x="17" y="22" width="1" height="1" /><rect shape-rendering="crispEdges" fill="rgb(180, 213, 180)"  x="17" y="23" width="1" height="1" /><rect shape-rendering="crispEdges" fill="rgb(57, 139, 115)"  x="17" y="24" width="1" height="1" /><rect shape-rendering="crispEdges" fill="rgb(180, 213, 180)"  x="18" y="5" width="1" height="1" /><rect shape-rendering="crispEdges" fill="rgb(238, 255, 213)"  x="18" y="6" width="1" height="1" /><rect shape-rendering="crispEdges" fill="rgb(57, 139, 115)"  x="18" y="7" width="1" height="1" /><rect shape-rendering="crispEdges" fill="rgb(180, 189, 90)"  x="18" y="8" width="1" height="1" /><rect shape-rendering="crispEdges" fill="rgb(148, 172, 65)"  x="18" y="9" width="1" height="1" /><rect shape-rendering="crispEdges" fill="rgb(255, 238, 172)"  x="18" y="10" width="1" height="1" /><rect shape-rendering="crispEdges" fill="rgb(180, 189, 90)"  x="18" y="11" width="1" height="1" /><rect shape-rendering="crispEdges" fill="rgb(131, 139, 57)"  x="18" y="12" width="1" height="1" /><rect shape-rendering="crispEdges" fill="rgb(57, 139, 115)"  x="18" y="13" width="1" height="1" /><rect shape-rendering="crispEdges" fill="rgb(49, 115, 98)"  x="18" y="14" width="1" height="1" /><rect shape-rendering="crispEdges" fill="rgb(115, 115, 156)"  x="18" y="18" width="1" height="1" /><rect shape-rendering="crispEdges" fill="rgb(148, 148, 189)"  x="18" y="19" width="1" height="1" /><rect shape-rendering="crispEdges" fill="rgb(172, 180, 222)"  x="18" y="20" width="1" height="1" /><rect shape-rendering="crispEdges" fill="rgb(172, 180, 222)"  x="18" y="21" width="1" height="1" /><rect shape-rendering="crispEdges" fill="rgb(180, 213, 180)"  x="18" y="22" width="1" height="1" /><rect shape-rendering="crispEdges" fill="rgb(180, 213, 180)"  x="18" y="23" width="1" height="1" /><rect shape-rendering="crispEdges" fill="rgb(57, 139, 115)"  x="18" y="24" width="1" height="1" /><rect shape-rendering="crispEdges" fill="rgb(115, 180, 148)"  x="19" y="5" width="1" height="1" /><rect shape-rendering="crispEdges" fill="rgb(180, 213, 180)"  x="19" y="6" width="1" height="1" /><rect shape-rendering="crispEdges" fill="rgb(115, 180, 148)"  x="19" y="7" width="1" height="1" /><rect shape-rendering="crispEdges" fill="rgb(180, 189, 90)"  x="19" y="8" width="1" height="1" /><rect shape-rendering="crispEdges" fill="rgb(255, 238, 172)"  x="19" y="9" width="1" height="1" /><rect shape-rendering="crispEdges" fill="rgb(180, 189, 90)"  x="19" y="10" width="1" height="1" /><rect shape-rendering="crispEdges" fill="rgb(131, 139, 57)"  x="19" y="11" width="1" height="1" /><rect shape-rendering="crispEdges" fill="rgb(115, 98, 49)"  x="19" y="12" width="1" height="1" /><rect shape-rendering="crispEdges" fill="rgb(49, 115, 98)"  x="19" y="13" width="1" height="1" /><rect shape-rendering="crispEdges" fill="rgb(49, 115, 98)"  x="19" y="14" width="1" height="1" /><rect shape-rendering="crispEdges" fill="rgb(115, 115, 156)"  x="19" y="18" width="1" height="1" /><rect shape-rendering="crispEdges" fill="rgb(172, 180, 222)"  x="19" y="19" width="1" height="1" /><rect shape-rendering="crispEdges" fill="rgb(172, 180, 222)"  x="19" y="20" width="1" height="1" /><rect shape-rendering="crispEdges" fill="rgb(172, 180, 222)"  x="19" y="21" width="1" height="1" /><rect shape-rendering="crispEdges" fill="rgb(180, 213, 180)"  x="19" y="22" width="1" height="1" /><rect shape-rendering="crispEdges" fill="rgb(115, 180, 148)"  x="19" y="23" width="1" height="1" /><rect shape-rendering="crispEdges" fill="rgb(180, 139, 90)"  x="20" y="4" width="1" height="1" /><rect shape-rendering="crispEdges" fill="rgb(156, 115, 74)"  x="20" y="5" width="1" height="1" /><rect shape-rendering="crispEdges" fill="rgb(115, 180, 148)"  x="20" y="6" width="1" height="1" /><rect shape-rendering="crispEdges" fill="rgb(180, 213, 180)"  x="20" y="7" width="1" height="1" /><rect shape-rendering="crispEdges" fill="rgb(49, 115, 98)"  x="20" y="8" width="1" height="1" /><rect shape-rendering="crispEdges" fill="rgb(148, 172, 65)"  x="20" y="9" width="1" height="1" /><rect shape-rendering="crispEdges" fill="rgb(131, 139, 57)"  x="20" y="10" width="1" height="1" /><rect shape-rendering="crispEdges" fill="rgb(115, 98, 49)"  x="20" y="11" width="1" height="1" /><rect shape-rendering="crispEdges" fill="rgb(148, 148, 189)"  x="20" y="12" width="1" height="1" /><rect shape-rendering="crispEdges" fill="rgb(148, 148, 189)"  x="20" y="13" width="1" height="1" /><rect shape-rendering="crispEdges" fill="rgb(148, 148, 189)"  x="20" y="14" width="1" height="1" /><rect shape-rendering="crispEdges" fill="rgb(115, 115, 156)"  x="20" y="15" width="1" height="1" /><rect shape-rendering="crispEdges" fill="rgb(115, 115, 156)"  x="20" y="16" width="1" height="1" /><rect shape-rendering="crispEdges" fill="rgb(115, 115, 156)"  x="20" y="17" width="1" height="1" /><rect shape-rendering="crispEdges" fill="rgb(148, 148, 189)"  x="20" y="18" width="1" height="1" /><rect shape-rendering="crispEdges" fill="rgb(172, 180, 222)"  x="20" y="19" width="1" height="1" /><rect shape-rendering="crispEdges" fill="rgb(172, 180, 222)"  x="20" y="20" width="1" height="1" /><rect shape-rendering="crispEdges" fill="rgb(180, 213, 180)"  x="20" y="21" width="1" height="1" /><rect shape-rendering="crispEdges" fill="rgb(180, 213, 180)"  x="20" y="22" width="1" height="1" /><rect shape-rendering="crispEdges" fill="rgb(57, 139, 115)"  x="20" y="23" width="1" height="1" /><rect shape-rendering="crispEdges" fill="rgb(180, 139, 90)"  x="21" y="4" width="1" height="1" /><rect shape-rendering="crispEdges" fill="rgb(222, 189, 131)"  x="21" y="5" width="1" height="1" /><rect shape-rendering="crispEdges" fill="rgb(49, 115, 98)"  x="21" y="6" width="1" height="1" /><rect shape-rendering="crispEdges" fill="rgb(57, 139, 115)"  x="21" y="7" width="1" height="1" /><rect shape-rendering="crispEdges" fill="rgb(115, 180, 148)"  x="21" y="8" width="1" height="1" /><rect shape-rendering="crispEdges" fill="rgb(115, 180, 148)"  x="21" y="9" width="1" height="1" /><rect shape-rendering="crispEdges" fill="rgb(57, 139, 115)"  x="21" y="10" width="1" height="1" /><rect shape-rendering="crispEdges" fill="rgb(49, 115, 98)"  x="21" y="11" width="1" height="1" /><rect shape-rendering="crispEdges" fill="rgb(148, 148, 189)"  x="21" y="12" width="1" height="1" /><rect shape-rendering="crispEdges" fill="rgb(148, 148, 189)"  x="21" y="13" width="1" height="1" /><rect shape-rendering="crispEdges" fill="rgb(148, 148, 189)"  x="21" y="14" width="1" height="1" /><rect shape-rendering="crispEdges" fill="rgb(148, 148, 189)"  x="21" y="15" width="1" height="1" /><rect shape-rendering="crispEdges" fill="rgb(148, 148, 189)"  x="21" y="16" width="1" height="1" /><rect shape-rendering="crispEdges" fill="rgb(148, 148, 189)"  x="21" y="17" width="1" height="1" /><rect shape-rendering="crispEdges" fill="rgb(172, 180, 222)"  x="21" y="18" width="1" height="1" /><rect shape-rendering="crispEdges" fill="rgb(164, 197, 65)"  x="21" y="19" width="1" height="1" /><rect shape-rendering="crispEdges" fill="rgb(164, 197, 65)"  x="21" y="20" width="1" height="1" /><rect shape-rendering="crispEdges" fill="rgb(189, 222, 123)"  x="21" y="21" width="1" height="1" /><rect shape-rendering="crispEdges" fill="rgb(180, 213, 180)"  x="21" y="22" width="1" height="1" /><rect shape-rendering="crispEdges" fill="rgb(57, 139, 115)"  x="21" y="23" width="1" height="1" /><rect shape-rendering="crispEdges" fill="rgb(115, 180, 148)"  x="21" y="24" width="1" height="1" /><rect shape-rendering="crispEdges" fill="rgb(115, 180, 148)"  x="21" y="25" width="1" height="1" /><rect shape-rendering="crispEdges" fill="rgb(115, 180, 148)"  x="21" y="26" width="1" height="1" /><rect shape-rendering="crispEdges" fill="rgb(180, 139, 90)"  x="22" y="4" width="1" height="1" /><rect shape-rendering="crispEdges" fill="rgb(205, 164, 106)"  x="22" y="5" width="1" height="1" /><rect shape-rendering="crispEdges" fill="rgb(180, 139, 90)"  x="22" y="6" width="1" height="1" /><rect shape-rendering="crispEdges" fill="rgb(49, 115, 98)"  x="22" y="7" width="1" height="1" /><rect shape-rendering="crispEdges" fill="rgb(57, 139, 115)"  x="22" y="8" width="1" height="1" /><rect shape-rendering="crispEdges" fill="rgb(49, 115, 98)"  x="22" y="9" width="1" height="1" /><rect shape-rendering="crispEdges" fill="rgb(49, 115, 98)"  x="22" y="10" width="1" height="1" /><rect shape-rendering="crispEdges" fill="rgb(115, 115, 156)"  x="22" y="12" width="1" height="1" /><rect shape-rendering="crispEdges" fill="rgb(148, 148, 189)"  x="22" y="13" width="1" height="1" /><rect shape-rendering="crispEdges" fill="rgb(148, 148, 189)"  x="22" y="14" width="1" height="1" /><rect shape-rendering="crispEdges" fill="rgb(148, 148, 189)"  x="22" y="15" width="1" height="1" /><rect shape-rendering="crispEdges" fill="rgb(246, 255, 230)"  x="22" y="16" width="1" height="1" /><rect shape-rendering="crispEdges" fill="rgb(148, 148, 189)"  x="22" y="17" width="1" height="1" /><rect shape-rendering="crispEdges" fill="rgb(246, 255, 230)"  x="22" y="18" width="1" height="1" /><rect shape-rendering="crispEdges" fill="rgb(164, 197, 65)"  x="22" y="19" width="1" height="1" /><rect shape-rendering="crispEdges" fill="rgb(164, 197, 65)"  x="22" y="20" width="1" height="1" /><rect shape-rendering="crispEdges" fill="rgb(189, 222, 123)"  x="22" y="21" width="1" height="1" /><rect shape-rendering="crispEdges" fill="rgb(213, 238, 172)"  x="22" y="22" width="1" height="1" /><rect shape-rendering="crispEdges" fill="rgb(213, 238, 172)"  x="22" y="23" width="1" height="1" /><rect shape-rendering="crispEdges" fill="rgb(246, 255, 230)"  x="22" y="24" width="1" height="1" /><rect shape-rendering="crispEdges" fill="rgb(246, 255, 230)"  x="22" y="25" width="1" height="1" /><rect shape-rendering="crispEdges" fill="rgb(57, 139, 115)"  x="22" y="26" width="1" height="1" /><rect shape-rendering="crispEdges" fill="rgb(156, 115, 74)"  x="23" y="4" width="1" height="1" /><rect shape-rendering="crispEdges" fill="rgb(156, 115, 74)"  x="23" y="5" width="1" height="1" /><rect shape-rendering="crispEdges" fill="rgb(131, 90, 57)"  x="23" y="6" width="1" height="1" /><rect shape-rendering="crispEdges" fill="rgb(131, 90, 57)"  x="23" y="7" width="1" height="1" /><rect shape-rendering="crispEdges" fill="rgb(115, 115, 156)"  x="23" y="12" width="1" height="1" /><rect shape-rendering="crispEdges" fill="rgb(148, 148, 189)"  x="23" y="13" width="1" height="1" /><rect shape-rendering="crispEdges" fill="rgb(213, 238, 172)"  x="23" y="14" width="1" height="1" /><rect shape-rendering="crispEdges" fill="rgb(148, 148, 189)"  x="23" y="15" width="1" height="1" /><rect shape-rendering="crispEdges" fill="rgb(148, 148, 189)"  x="23" y="16" width="1" height="1" /><rect shape-rendering="crispEdges" fill="rgb(246, 255, 230)"  x="23" y="17" width="1" height="1" /><rect shape-rendering="crispEdges" fill="rgb(131, 180, 8)"  x="23" y="18" width="1" height="1" /><rect shape-rendering="crispEdges" fill="rgb(164, 197, 65)"  x="23" y="19" width="1" height="1" /><rect shape-rendering="crispEdges" fill="rgb(164, 197, 65)"  x="23" y="20" width="1" height="1" /><rect shape-rendering="crispEdges" fill="rgb(189, 222, 123)"  x="23" y="21" width="1" height="1" /><rect shape-rendering="crispEdges" fill="rgb(213, 238, 172)"  x="23" y="22" width="1" height="1" /><rect shape-rendering="crispEdges" fill="rgb(246, 255, 230)"  x="23" y="23" width="1" height="1" /><rect shape-rendering="crispEdges" fill="rgb(246, 255, 230)"  x="23" y="24" width="1" height="1" /><rect shape-rendering="crispEdges" fill="rgb(49, 115, 98)"  x="23" y="25" width="1" height="1" /><rect shape-rendering="crispEdges" fill="rgb(148, 148, 189)"  x="24" y="12" width="1" height="1" /><rect shape-rendering="crispEdges" fill="rgb(172, 180, 222)"  x="24" y="13" width="1" height="1" /><rect shape-rendering="crispEdges" fill="rgb(148, 148, 189)"  x="24" y="14" width="1" height="1" /><rect shape-rendering="crispEdges" fill="rgb(246, 255, 230)"  x="24" y="15" width="1" height="1" /><rect shape-rendering="crispEdges" fill="rgb(172, 180, 222)"  x="24" y="16" width="1" height="1" /><rect shape-rendering="crispEdges" fill="rgb(131, 180, 8)"  x="24" y="17" width="1" height="1" /><rect shape-rendering="crispEdges" fill="rgb(189, 222, 123)"  x="24" y="18" width="1" height="1" /><rect shape-rendering="crispEdges" fill="rgb(189, 222, 123)"  x="24" y="19" width="1" height="1" /><rect shape-rendering="crispEdges" fill="rgb(164, 197, 65)"  x="24" y="20" width="1" height="1" /><rect shape-rendering="crispEdges" fill="rgb(246, 255, 230)"  x="24" y="21" width="1" height="1" /><rect shape-rendering="crispEdges" fill="rgb(246, 255, 230)"  x="24" y="22" width="1" height="1" /><rect shape-rendering="crispEdges" fill="rgb(246, 255, 230)"  x="24" y="23" width="1" height="1" /><rect shape-rendering="crispEdges" fill="rgb(49, 115, 98)"  x="24" y="24" width="1" height="1" /><rect shape-rendering="crispEdges" fill="rgb(115, 180, 148)"  x="25" y="9" width="1" height="1" /><rect shape-rendering="crispEdges" fill="rgb(131, 180, 8)"  x="25" y="10" width="1" height="1" /><rect shape-rendering="crispEdges" fill="rgb(148, 148, 189)"  x="25" y="11" width="1" height="1" /><rect shape-rendering="crispEdges" fill="rgb(172, 180, 222)"  x="25" y="12" width="1" height="1" /><rect shape-rendering="crispEdges" fill="rgb(172, 180, 222)"  x="25" y="13" width="1" height="1" /><rect shape-rendering="crispEdges" fill="rgb(148, 148, 189)"  x="25" y="14" width="1" height="1" /><rect shape-rendering="crispEdges" fill="rgb(246, 255, 230)"  x="25" y="15" width="1" height="1" /><rect shape-rendering="crispEdges" fill="rgb(172, 180, 222)"  x="25" y="16" width="1" height="1" /><rect shape-rendering="crispEdges" fill="rgb(172, 180, 222)"  x="25" y="17" width="1" height="1" /><rect shape-rendering="crispEdges" fill="rgb(189, 222, 123)"  x="25" y="18" width="1" height="1" /><rect shape-rendering="crispEdges" fill="rgb(189, 222, 123)"  x="25" y="19" width="1" height="1" /><rect shape-rendering="crispEdges" fill="rgb(164, 197, 65)"  x="25" y="20" width="1" height="1" /><rect shape-rendering="crispEdges" fill="rgb(238, 255, 213)"  x="25" y="21" width="1" height="1" /><rect shape-rendering="crispEdges" fill="rgb(246, 255, 230)"  x="25" y="22" width="1" height="1" /><rect shape-rendering="crispEdges" fill="rgb(57, 139, 115)"  x="25" y="23" width="1" height="1" /><rect shape-rendering="crispEdges" fill="rgb(115, 180, 148)"  x="26" y="8" width="1" height="1" /><rect shape-rendering="crispEdges" fill="rgb(246, 255, 230)"  x="26" y="9" width="1" height="1" /><rect shape-rendering="crispEdges" fill="rgb(164, 197, 65)"  x="26" y="10" width="1" height="1" /><rect shape-rendering="crispEdges" fill="rgb(189, 222, 123)"  x="26" y="11" width="1" height="1" /><rect shape-rendering="crispEdges" fill="rgb(189, 222, 123)"  x="26" y="12" width="1" height="1" /><rect shape-rendering="crispEdges" fill="rgb(189, 222, 123)"  x="26" y="13" width="1" height="1" /><rect shape-rendering="crispEdges" fill="rgb(246, 255, 230)"  x="26" y="14" width="1" height="1" /><rect shape-rendering="crispEdges" fill="rgb(246, 255, 230)"  x="26" y="15" width="1" height="1" /><rect shape-rendering="crispEdges" fill="rgb(189, 222, 123)"  x="26" y="16" width="1" height="1" /><rect shape-rendering="crispEdges" fill="rgb(189, 222, 123)"  x="26" y="17" width="1" height="1" /><rect shape-rendering="crispEdges" fill="rgb(189, 222, 123)"  x="26" y="18" width="1" height="1" /><rect shape-rendering="crispEdges" fill="rgb(189, 222, 123)"  x="26" y="19" width="1" height="1" /><rect shape-rendering="crispEdges" fill="rgb(164, 197, 65)"  x="26" y="20" width="1" height="1" /><rect shape-rendering="crispEdges" fill="rgb(180, 213, 180)"  x="26" y="21" width="1" height="1" /><rect shape-rendering="crispEdges" fill="rgb(238, 255, 213)"  x="26" y="22" width="1" height="1" /><rect shape-rendering="crispEdges" fill="rgb(115, 180, 148)"  x="26" y="23" width="1" height="1" /><rect shape-rendering="crispEdges" fill="rgb(115, 180, 148)"  x="27" y="7" width="1" height="1" /><rect shape-rendering="crispEdges" fill="rgb(246, 255, 230)"  x="27" y="8" width="1" height="1" /><rect shape-rendering="crispEdges" fill="rgb(246, 255, 230)"  x="27" y="9" width="1" height="1" /><rect shape-rendering="crispEdges" fill="rgb(164, 197, 65)"  x="27" y="10" width="1" height="1" /><rect shape-rendering="crispEdges" fill="rgb(164, 197, 65)"  x="27" y="11" width="1" height="1" /><rect shape-rendering="crispEdges" fill="rgb(164, 197, 65)"  x="27" y="12" width="1" height="1" /><rect shape-rendering="crispEdges" fill="rgb(164, 197, 65)"  x="27" y="13" width="1" height="1" /><rect shape-rendering="crispEdges" fill="rgb(164, 197, 65)"  x="27" y="14" width="1" height="1" /><rect shape-rendering="crispEdges" fill="rgb(189, 222, 123)"  x="27" y="15" width="1" height="1" /><rect shape-rendering="crispEdges" fill="rgb(189, 222, 123)"  x="27" y="16" width="1" height="1" /><rect shape-rendering="crispEdges" fill="rgb(164, 197, 65)"  x="27" y="17" width="1" height="1" /><rect shape-rendering="crispEdges" fill="rgb(180, 213, 180)"  x="27" y="18" width="1" height="1" /><rect shape-rendering="crispEdges" fill="rgb(246, 255, 230)"  x="27" y="19" width="1" height="1" /><rect shape-rendering="crispEdges" fill="rgb(246, 255, 230)"  x="27" y="20" width="1" height="1" /><rect shape-rendering="crispEdges" fill="rgb(180, 213, 180)"  x="27" y="21" width="1" height="1" /><rect shape-rendering="crispEdges" fill="rgb(238, 255, 213)"  x="27" y="22" width="1" height="1" /><rect shape-rendering="crispEdges" fill="rgb(57, 139, 115)"  x="27" y="23" width="1" height="1" /><rect shape-rendering="crispEdges" fill="rgb(115, 180, 148)"  x="28" y="6" width="1" height="1" /><rect shape-rendering="crispEdges" fill="rgb(238, 255, 213)"  x="28" y="7" width="1" height="1" /><rect shape-rendering="crispEdges" fill="rgb(238, 255, 213)"  x="28" y="8" width="1" height="1" /><rect shape-rendering="crispEdges" fill="rgb(180, 213, 180)"  x="28" y="9" width="1" height="1" /><rect shape-rendering="crispEdges" fill="rgb(180, 213, 180)"  x="28" y="10" width="1" height="1" /><rect shape-rendering="crispEdges" fill="rgb(180, 213, 180)"  x="28" y="11" width="1" height="1" /><rect shape-rendering="crispEdges" fill="rgb(246, 255, 230)"  x="28" y="12" width="1" height="1" /><rect shape-rendering="crispEdges" fill="rgb(246, 255, 230)"  x="28" y="13" width="1" height="1" /><rect shape-rendering="crispEdges" fill="rgb(246, 255, 230)"  x="28" y="14" width="1" height="1" /><rect shape-rendering="crispEdges" fill="rgb(246, 255, 230)"  x="28" y="15" width="1" height="1" /><rect shape-rendering="crispEdges" fill="rgb(189, 222, 123)"  x="28" y="16" width="1" height="1" /><rect shape-rendering="crispEdges" fill="rgb(164, 197, 65)"  x="28" y="17" width="1" height="1" /><rect shape-rendering="crispEdges" fill="rgb(180, 213, 180)"  x="28" y="18" width="1" height="1" /><rect shape-rendering="crispEdges" fill="rgb(246, 255, 230)"  x="28" y="19" width="1" height="1" /><rect shape-rendering="crispEdges" fill="rgb(246, 255, 230)"  x="28" y="20" width="1" height="1" /><rect shape-rendering="crispEdges" fill="rgb(246, 255, 230)"  x="28" y="21" width="1" height="1" /><rect shape-rendering="crispEdges" fill="rgb(180, 213, 180)"  x="28" y="22" width="1" height="1" /><rect shape-rendering="crispEdges" fill="rgb(57, 139, 115)"  x="28" y="23" width="1" height="1" /><rect shape-rendering="crispEdges" fill="rgb(115, 180, 148)"  x="29" y="5" width="1" height="1" /><rect shape-rendering="crispEdges" fill="rgb(115, 180, 148)"  x="29" y="6" width="1" height="1" /><rect shape-rendering="crispEdges" fill="rgb(57, 139, 115)"  x="29" y="7" width="1" height="1" /><rect shape-rendering="crispEdges" fill="rgb(57, 139, 115)"  x="29" y="8" width="1" height="1" /><rect shape-rendering="crispEdges" fill="rgb(57, 139, 115)"  x="29" y="9" width="1" height="1" /><rect shape-rendering="crispEdges" fill="rgb(115, 180, 148)"  x="29" y="10" width="1" height="1" /><rect shape-rendering="crispEdges" fill="rgb(246, 255, 230)"  x="29" y="11" width="1" height="1" /><rect shape-rendering="crispEdges" fill="rgb(246, 255, 230)"  x="29" y="12" width="1" height="1" /><rect shape-rendering="crispEdges" fill="rgb(180, 213, 180)"  x="29" y="13" width="1" height="1" /><rect shape-rendering="crispEdges" fill="rgb(115, 180, 148)"  x="29" y="14" width="1" height="1" /><rect shape-rendering="crispEdges" fill="rgb(115, 180, 148)"  x="29" y="15" width="1" height="1" /><rect shape-rendering="crispEdges" fill="rgb(246, 255, 230)"  x="29" y="16" width="1" height="1" /><rect shape-rendering="crispEdges" fill="rgb(246, 255, 230)"  x="29" y="17" width="1" height="1" /><rect shape-rendering="crispEdges" fill="rgb(180, 213, 180)"  x="29" y="18" width="1" height="1" /><rect shape-rendering="crispEdges" fill="rgb(115, 180, 148)"  x="29" y="19" width="1" height="1" /><rect shape-rendering="crispEdges" fill="rgb(57, 139, 115)"  x="29" y="20" width="1" height="1" /><rect shape-rendering="crispEdges" fill="rgb(57, 139, 115)"  x="29" y="21" width="1" height="1" /><rect shape-rendering="crispEdges" fill="rgb(57, 139, 115)"  x="29" y="22" width="1" height="1" /><rect shape-rendering="crispEdges" fill="rgb(57, 139, 115)"  x="29" y="23" width="1" height="1" /><rect shape-rendering="crispEdges" fill="rgb(57, 139, 115)"  x="30" y="11" width="1" height="1" /><rect shape-rendering="crispEdges" fill="rgb(57, 139, 115)"  x="30" y="12" width="1" height="1" /><rect shape-rendering="crispEdges" fill="rgb(57, 139, 115)"  x="30" y="13" width="1" height="1" /><rect shape-rendering="crispEdges" fill="rgb(180, 213, 180)"  x="30" y="15" width="1" height="1" /><rect shape-rendering="crispEdges" fill="rgb(57, 139, 115)"  x="30" y="16" width="1" height="1" /><rect shape-rendering="crispEdges" fill="rgb(57, 139, 115)"  x="30" y="17" width="1" height="1" /><rect shape-rendering="crispEdges" fill="rgb(57, 139, 115)"  x="30" y="18" width="1" height="1" /></svg>