<svg xmlns="http://www.w3.org/2000/svg" xmlns:xlink= "http://www.w3.org/1999/xlink" width="32" height="32" viewBox ="0 0 32 32"><rect shape-rendering="crispEdges" fill="rgb(131, 123, 139)"  x="2" y="22" width="1" height="1" /><rect shape-rendering="crispEdges" fill="rgb(131, 123, 139)"  x="2" y="23" width="1" height="1" /><rect shape-rendering="crispEdges" fill="rgb(172, 82, 82)"  x="2" y="26" width="1" height="1" /><rect shape-rendering="crispEdges" fill="rgb(172, 82, 82)"  x="2" y="27" width="1" height="1" /><rect shape-rendering="crispEdges" fill="rgb(139, 57, 57)"  x="2" y="28" width="1" height="1" /><rect shape-rendering="crispEdges" fill="rgb(123, 98, 189)"  x="2" y="29" width="1" height="1" /><rect shape-rendering="crispEdges" fill="rgb(123, 98, 189)"  x="2" y="30" width="1" height="1" /><rect shape-rendering="crispEdges" fill="rgb(164, 156, 172)"  x="3" y="21" width="1" height="1" /><rect shape-rendering="crispEdges" fill="rgb(246, 238, 246)"  x="3" y="22" width="1" height="1" /><rect shape-rendering="crispEdges" fill="rgb(131, 123, 139)"  x="3" y="23" width="1" height="1" /><rect shape-rendering="crispEdges" fill="rgb(172, 82, 82)"  x="3" y="26" width="1" height="1" /><rect shape-rendering="crispEdges" fill="rgb(205, 115, 106)"  x="3" y="27" width="1" height="1" /><rect shape-rendering="crispEdges" fill="rgb(246, 238, 246)"  x="3" y="28" width="1" height="1" /><rect shape-rendering="crispEdges" fill="rgb(123, 98, 189)"  x="3" y="29" width="1" height="1" /><rect shape-rendering="crispEdges" fill="rgb(123, 98, 189)"  x="3" y="30" width="1" height="1" /><rect shape-rendering="crispEdges" fill="rgb(164, 156, 172)"  x="4" y="14" width="1" height="1" /><rect shape-rendering="crispEdges" fill="rgb(164, 156, 172)"  x="4" y="15" width="1" height="1" /><rect shape-rendering="crispEdges" fill="rgb(164, 156, 172)"  x="4" y="20" width="1" height="1" /><rect shape-rendering="crispEdges" fill="rgb(189, 180, 197)"  x="4" y="21" width="1" height="1" /><rect shape-rendering="crispEdges" fill="rgb(222, 213, 222)"  x="4" y="22" width="1" height="1" /><rect shape-rendering="crispEdges" fill="rgb(98, 98, 115)"  x="4" y="23" width="1" height="1" /><rect shape-rendering="crispEdges" fill="rgb(139, 57, 57)"  x="4" y="26" width="1" height="1" /><rect shape-rendering="crispEdges" fill="rgb(139, 57, 57)"  x="4" y="27" width="1" height="1" /><rect shape-rendering="crispEdges" fill="rgb(222, 213, 222)"  x="4" y="28" width="1" height="1" /><rect shape-rendering="crispEdges" fill="rgb(205, 115, 106)"  x="4" y="29" width="1" height="1" /><rect shape-rendering="crispEdges" fill="rgb(123, 98, 189)"  x="4" y="30" width="1" height="1" /><rect shape-rendering="crispEdges" fill="rgb(164, 156, 172)"  x="5" y="13" width="1" height="1" /><rect shape-rendering="crispEdges" fill="rgb(222, 213, 222)"  x="5" y="14" width="1" height="1" /><rect shape-rendering="crispEdges" fill="rgb(131, 123, 139)"  x="5" y="15" width="1" height="1" /><rect shape-rendering="crispEdges" fill="rgb(164, 156, 172)"  x="5" y="20" width="1" height="1" /><rect shape-rendering="crispEdges" fill="rgb(164, 156, 172)"  x="5" y="21" width="1" height="1" /><rect shape-rendering="crispEdges" fill="rgb(189, 180, 197)"  x="5" y="22" width="1" height="1" /><rect shape-rendering="crispEdges" fill="rgb(98, 98, 115)"  x="5" y="23" width="1" height="1" /><rect shape-rendering="crispEdges" fill="rgb(139, 131, 222)"  x="5" y="25" width="1" height="1" /><rect shape-rendering="crispEdges" fill="rgb(180, 197, 255)"  x="5" y="26" width="1" height="1" /><rect shape-rendering="crispEdges" fill="rgb(139, 131, 222)"  x="5" y="27" width="1" height="1" /><rect shape-rendering="crispEdges" fill="rgb(205, 115, 106)"  x="5" y="28" width="1" height="1" /><rect shape-rendering="crispEdges" fill="rgb(246, 238, 246)"  x="5" y="29" width="1" height="1" /><rect shape-rendering="crispEdges" fill="rgb(123, 98, 189)"  x="5" y="30" width="1" height="1" /><rect shape-rendering="crispEdges" fill="rgb(164, 156, 172)"  x="6" y="11" width="1" height="1" /><rect shape-rendering="crispEdges" fill="rgb(164, 156, 172)"  x="6" y="12" width="1" height="1" /><rect shape-rendering="crispEdges" fill="rgb(222, 213, 222)"  x="6" y="13" width="1" height="1" /><rect shape-rendering="crispEdges" fill="rgb(222, 213, 222)"  x="6" y="14" width="1" height="1" /><rect shape-rendering="crispEdges" fill="rgb(131, 123, 139)"  x="6" y="15" width="1" height="1" /><rect shape-rendering="crispEdges" fill="rgb(131, 123, 139)"  x="6" y="20" width="1" height="1" /><rect shape-rendering="crispEdges" fill="rgb(131, 123, 139)"  x="6" y="21" width="1" height="1" /><rect shape-rendering="crispEdges" fill="rgb(222, 213, 222)"  x="6" y="22" width="1" height="1" /><rect shape-rendering="crispEdges" fill="rgb(139, 57, 57)"  x="6" y="23" width="1" height="1" /><rect shape-rendering="crispEdges" fill="rgb(172, 82, 82)"  x="6" y="24" width="1" height="1" /><rect shape-rendering="crispEdges" fill="rgb(180, 197, 255)"  x="6" y="25" width="1" height="1" /><rect shape-rendering="crispEdges" fill="rgb(180, 197, 255)"  x="6" y="26" width="1" height="1" /><rect shape-rendering="crispEdges" fill="rgb(156, 156, 255)"  x="6" y="27" width="1" height="1" /><rect shape-rendering="crispEdges" fill="rgb(172, 82, 82)"  x="6" y="28" width="1" height="1" /><rect shape-rendering="crispEdges" fill="rgb(205, 115, 106)"  x="6" y="29" width="1" height="1" /><rect shape-rendering="crispEdges" fill="rgb(172, 82, 82)"  x="6" y="30" width="1" height="1" /><rect shape-rendering="crispEdges" fill="rgb(189, 180, 197)"  x="7" y="7" width="1" height="1" /><rect shape-rendering="crispEdges" fill="rgb(189, 180, 197)"  x="7" y="8" width="1" height="1" /><rect shape-rendering="crispEdges" fill="rgb(164, 156, 172)"  x="7" y="9" width="1" height="1" /><rect shape-rendering="crispEdges" fill="rgb(164, 156, 172)"  x="7" y="10" width="1" height="1" /><rect shape-rendering="crispEdges" fill="rgb(222, 213, 222)"  x="7" y="11" width="1" height="1" /><rect shape-rendering="crispEdges" fill="rgb(222, 213, 222)"  x="7" y="12" width="1" height="1" /><rect shape-rendering="crispEdges" fill="rgb(189, 115, 148)"  x="7" y="13" width="1" height="1" /><rect shape-rendering="crispEdges" fill="rgb(189, 180, 197)"  x="7" y="14" width="1" height="1" /><rect shape-rendering="crispEdges" fill="rgb(131, 123, 139)"  x="7" y="15" width="1" height="1" /><rect shape-rendering="crispEdges" fill="rgb(139, 57, 57)"  x="7" y="22" width="1" height="1" /><rect shape-rendering="crispEdges" fill="rgb(172, 82, 82)"  x="7" y="23" width="1" height="1" /><rect shape-rendering="crispEdges" fill="rgb(205, 115, 106)"  x="7" y="24" width="1" height="1" /><rect shape-rendering="crispEdges" fill="rgb(172, 82, 82)"  x="7" y="25" width="1" height="1" /><rect shape-rendering="crispEdges" fill="rgb(156, 156, 255)"  x="7" y="26" width="1" height="1" /><rect shape-rendering="crispEdges" fill="rgb(172, 180, 255)"  x="7" y="27" width="1" height="1" /><rect shape-rendering="crispEdges" fill="rgb(139, 57, 57)"  x="7" y="28" width="1" height="1" /><rect shape-rendering="crispEdges" fill="rgb(139, 57, 57)"  x="7" y="29" width="1" height="1" /><rect shape-rendering="crispEdges" fill="rgb(139, 57, 57)"  x="7" y="30" width="1" height="1" /><rect shape-rendering="crispEdges" fill="rgb(189, 180, 197)"  x="8" y="4" width="1" height="1" /><rect shape-rendering="crispEdges" fill="rgb(189, 180, 197)"  x="8" y="5" width="1" height="1" /><rect shape-rendering="crispEdges" fill="rgb(189, 180, 197)"  x="8" y="6" width="1" height="1" /><rect shape-rendering="crispEdges" fill="rgb(222, 213, 222)"  x="8" y="7" width="1" height="1" /><rect shape-rendering="crispEdges" fill="rgb(222, 213, 222)"  x="8" y="8" width="1" height="1" /><rect shape-rendering="crispEdges" fill="rgb(222, 213, 222)"  x="8" y="9" width="1" height="1" /><rect shape-rendering="crispEdges" fill="rgb(222, 213, 222)"  x="8" y="10" width="1" height="1" /><rect shape-rendering="crispEdges" fill="rgb(222, 213, 222)"  x="8" y="11" width="1" height="1" /><rect shape-rendering="crispEdges" fill="rgb(164, 98, 131)"  x="8" y="12" width="1" height="1" /><rect shape-rendering="crispEdges" fill="rgb(189, 115, 148)"  x="8" y="13" width="1" height="1" /><rect shape-rendering="crispEdges" fill="rgb(189, 180, 197)"  x="8" y="14" width="1" height="1" /><rect shape-rendering="crispEdges" fill="rgb(131, 123, 139)"  x="8" y="15" width="1" height="1" /><rect shape-rendering="crispEdges" fill="rgb(123, 98, 189)"  x="8" y="20" width="1" height="1" /><rect shape-rendering="crispEdges" fill="rgb(123, 98, 189)"  x="8" y="21" width="1" height="1" /><rect shape-rendering="crispEdges" fill="rgb(139, 57, 57)"  x="8" y="22" width="1" height="1" /><rect shape-rendering="crispEdges" fill="rgb(172, 82, 82)"  x="8" y="23" width="1" height="1" /><rect shape-rendering="crispEdges" fill="rgb(222, 148, 139)"  x="8" y="24" width="1" height="1" /><rect shape-rendering="crispEdges" fill="rgb(205, 115, 106)"  x="8" y="25" width="1" height="1" /><rect shape-rendering="crispEdges" fill="rgb(172, 82, 82)"  x="8" y="26" width="1" height="1" /><rect shape-rendering="crispEdges" fill="rgb(139, 131, 222)"  x="8" y="27" width="1" height="1" /><rect shape-rendering="crispEdges" fill="rgb(189, 180, 197)"  x="9" y="3" width="1" height="1" /><rect shape-rendering="crispEdges" fill="rgb(246, 238, 246)"  x="9" y="4" width="1" height="1" /><rect shape-rendering="crispEdges" fill="rgb(246, 238, 246)"  x="9" y="5" width="1" height="1" /><rect shape-rendering="crispEdges" fill="rgb(246, 238, 246)"  x="9" y="6" width="1" height="1" /><rect shape-rendering="crispEdges" fill="rgb(213, 148, 172)"  x="9" y="7" width="1" height="1" /><rect shape-rendering="crispEdges" fill="rgb(238, 172, 197)"  x="9" y="8" width="1" height="1" /><rect shape-rendering="crispEdges" fill="rgb(238, 172, 197)"  x="9" y="9" width="1" height="1" /><rect shape-rendering="crispEdges" fill="rgb(222, 213, 222)"  x="9" y="10" width="1" height="1" /><rect shape-rendering="crispEdges" fill="rgb(189, 115, 148)"  x="9" y="11" width="1" height="1" /><rect shape-rendering="crispEdges" fill="rgb(189, 115, 148)"  x="9" y="12" width="1" height="1" /><rect shape-rendering="crispEdges" fill="rgb(189, 180, 197)"  x="9" y="13" width="1" height="1" /><rect shape-rendering="crispEdges" fill="rgb(189, 180, 197)"  x="9" y="14" width="1" height="1" /><rect shape-rendering="crispEdges" fill="rgb(131, 123, 139)"  x="9" y="15" width="1" height="1" /><rect shape-rendering="crispEdges" fill="rgb(139, 131, 222)"  x="9" y="19" width="1" height="1" /><rect shape-rendering="crispEdges" fill="rgb(156, 156, 255)"  x="9" y="20" width="1" height="1" /><rect shape-rendering="crispEdges" fill="rgb(172, 180, 255)"  x="9" y="21" width="1" height="1" /><rect shape-rendering="crispEdges" fill="rgb(180, 197, 255)"  x="9" y="22" width="1" height="1" /><rect shape-rendering="crispEdges" fill="rgb(139, 57, 57)"  x="9" y="23" width="1" height="1" /><rect shape-rendering="crispEdges" fill="rgb(172, 82, 82)"  x="9" y="24" width="1" height="1" /><rect shape-rendering="crispEdges" fill="rgb(222, 148, 139)"  x="9" y="25" width="1" height="1" /><rect shape-rendering="crispEdges" fill="rgb(172, 82, 82)"  x="9" y="26" width="1" height="1" /><rect shape-rendering="crispEdges" fill="rgb(189, 180, 197)"  x="10" y="2" width="1" height="1" /><rect shape-rendering="crispEdges" fill="rgb(222, 213, 222)"  x="10" y="3" width="1" height="1" /><rect shape-rendering="crispEdges" fill="rgb(246, 238, 246)"  x="10" y="4" width="1" height="1" /><rect shape-rendering="crispEdges" fill="rgb(238, 172, 197)"  x="10" y="5" width="1" height="1" /><rect shape-rendering="crispEdges" fill="rgb(238, 172, 197)"  x="10" y="6" width="1" height="1" /><rect shape-rendering="crispEdges" fill="rgb(189, 115, 148)"  x="10" y="7" width="1" height="1" /><rect shape-rendering="crispEdges" fill="rgb(189, 115, 148)"  x="10" y="8" width="1" height="1" /><rect shape-rendering="crispEdges" fill="rgb(189, 115, 148)"  x="10" y="9" width="1" height="1" /><rect shape-rendering="crispEdges" fill="rgb(189, 115, 148)"  x="10" y="10" width="1" height="1" /><rect shape-rendering="crispEdges" fill="rgb(213, 148, 172)"  x="10" y="11" width="1" height="1" /><rect shape-rendering="crispEdges" fill="rgb(189, 115, 148)"  x="10" y="12" width="1" height="1" /><rect shape-rendering="crispEdges" fill="rgb(164, 156, 172)"  x="10" y="13" width="1" height="1" /><rect shape-rendering="crispEdges" fill="rgb(189, 180, 197)"  x="10" y="14" width="1" height="1" /><rect shape-rendering="crispEdges" fill="rgb(98, 98, 115)"  x="10" y="15" width="1" height="1" /><rect shape-rendering="crispEdges" fill="rgb(65, 65, 189)"  x="10" y="18" width="1" height="1" /><rect shape-rendering="crispEdges" fill="rgb(172, 180, 255)"  x="10" y="19" width="1" height="1" /><rect shape-rendering="crispEdges" fill="rgb(172, 180, 255)"  x="10" y="20" width="1" height="1" /><rect shape-rendering="crispEdges" fill="rgb(246, 238, 246)"  x="10" y="21" width="1" height="1" /><rect shape-rendering="crispEdges" fill="rgb(131, 123, 139)"  x="10" y="22" width="1" height="1" /><rect shape-rendering="crispEdges" fill="rgb(32, 115, 255)"  x="10" y="23" width="1" height="1" /><rect shape-rendering="crispEdges" fill="rgb(139, 57, 57)"  x="10" y="24" width="1" height="1" /><rect shape-rendering="crispEdges" fill="rgb(139, 57, 57)"  x="10" y="25" width="1" height="1" /><rect shape-rendering="crispEdges" fill="rgb(139, 57, 57)"  x="10" y="26" width="1" height="1" /><rect shape-rendering="crispEdges" fill="rgb(131, 123, 139)"  x="10" y="27" width="1" height="1" /><rect shape-rendering="crispEdges" fill="rgb(98, 98, 115)"  x="10" y="28" width="1" height="1" /><rect shape-rendering="crispEdges" fill="rgb(189, 180, 197)"  x="11" y="1" width="1" height="1" /><rect shape-rendering="crispEdges" fill="rgb(222, 213, 222)"  x="11" y="2" width="1" height="1" /><rect shape-rendering="crispEdges" fill="rgb(246, 238, 246)"  x="11" y="3" width="1" height="1" /><rect shape-rendering="crispEdges" fill="rgb(238, 172, 197)"  x="11" y="4" width="1" height="1" /><rect shape-rendering="crispEdges" fill="rgb(238, 172, 197)"  x="11" y="5" width="1" height="1" /><rect shape-rendering="crispEdges" fill="rgb(246, 238, 246)"  x="11" y="6" width="1" height="1" /><rect shape-rendering="crispEdges" fill="rgb(246, 238, 246)"  x="11" y="7" width="1" height="1" /><rect shape-rendering="crispEdges" fill="rgb(205, 115, 106)"  x="11" y="8" width="1" height="1" /><rect shape-rendering="crispEdges" fill="rgb(246, 238, 246)"  x="11" y="9" width="1" height="1" /><rect shape-rendering="crispEdges" fill="rgb(164, 98, 131)"  x="11" y="10" width="1" height="1" /><rect shape-rendering="crispEdges" fill="rgb(164, 98, 131)"  x="11" y="11" width="1" height="1" /><rect shape-rendering="crispEdges" fill="rgb(189, 180, 197)"  x="11" y="12" width="1" height="1" /><rect shape-rendering="crispEdges" fill="rgb(164, 156, 172)"  x="11" y="13" width="1" height="1" /><rect shape-rendering="crispEdges" fill="rgb(189, 180, 197)"  x="11" y="14" width="1" height="1" /><rect shape-rendering="crispEdges" fill="rgb(98, 98, 115)"  x="11" y="15" width="1" height="1" /><rect shape-rendering="crispEdges" fill="rgb(98, 98, 115)"  x="11" y="16" width="1" height="1" /><rect shape-rendering="crispEdges" fill="rgb(98, 98, 115)"  x="11" y="17" width="1" height="1" /><rect shape-rendering="crispEdges" fill="rgb(49, 90, 222)"  x="11" y="18" width="1" height="1" /><rect shape-rendering="crispEdges" fill="rgb(131, 123, 139)"  x="11" y="19" width="1" height="1" /><rect shape-rendering="crispEdges" fill="rgb(131, 123, 139)"  x="11" y="20" width="1" height="1" /><rect shape-rendering="crispEdges" fill="rgb(164, 156, 172)"  x="11" y="21" width="1" height="1" /><rect shape-rendering="crispEdges" fill="rgb(131, 123, 139)"  x="11" y="22" width="1" height="1" /><rect shape-rendering="crispEdges" fill="rgb(32, 115, 255)"  x="11" y="23" width="1" height="1" /><rect shape-rendering="crispEdges" fill="rgb(131, 123, 139)"  x="11" y="25" width="1" height="1" /><rect shape-rendering="crispEdges" fill="rgb(164, 156, 172)"  x="11" y="26" width="1" height="1" /><rect shape-rendering="crispEdges" fill="rgb(189, 180, 197)"  x="11" y="27" width="1" height="1" /><rect shape-rendering="crispEdges" fill="rgb(98, 98, 115)"  x="11" y="28" width="1" height="1" /><rect shape-rendering="crispEdges" fill="rgb(189, 180, 197)"  x="12" y="1" width="1" height="1" /><rect shape-rendering="crispEdges" fill="rgb(222, 213, 222)"  x="12" y="2" width="1" height="1" /><rect shape-rendering="crispEdges" fill="rgb(238, 172, 197)"  x="12" y="3" width="1" height="1" /><rect shape-rendering="crispEdges" fill="rgb(255, 205, 213)"  x="12" y="4" width="1" height="1" /><rect shape-rendering="crispEdges" fill="rgb(246, 238, 246)"  x="12" y="5" width="1" height="1" /><rect shape-rendering="crispEdges" fill="rgb(246, 238, 246)"  x="12" y="6" width="1" height="1" /><rect shape-rendering="crispEdges" fill="rgb(222, 148, 139)"  x="12" y="7" width="1" height="1" /><rect shape-rendering="crispEdges" fill="rgb(205, 115, 106)"  x="12" y="8" width="1" height="1" /><rect shape-rendering="crispEdges" fill="rgb(246, 238, 246)"  x="12" y="9" width="1" height="1" /><rect shape-rendering="crispEdges" fill="rgb(222, 213, 222)"  x="12" y="10" width="1" height="1" /><rect shape-rendering="crispEdges" fill="rgb(189, 180, 197)"  x="12" y="11" width="1" height="1" /><rect shape-rendering="crispEdges" fill="rgb(189, 180, 197)"  x="12" y="12" width="1" height="1" /><rect shape-rendering="crispEdges" fill="rgb(164, 156, 172)"  x="12" y="13" width="1" height="1" /><rect shape-rendering="crispEdges" fill="rgb(222, 213, 222)"  x="12" y="14" width="1" height="1" /><rect shape-rendering="crispEdges" fill="rgb(164, 156, 172)"  x="12" y="15" width="1" height="1" /><rect shape-rendering="crispEdges" fill="rgb(189, 180, 197)"  x="12" y="16" width="1" height="1" /><rect shape-rendering="crispEdges" fill="rgb(222, 213, 222)"  x="12" y="17" width="1" height="1" /><rect shape-rendering="crispEdges" fill="rgb(222, 213, 222)"  x="12" y="18" width="1" height="1" /><rect shape-rendering="crispEdges" fill="rgb(189, 180, 197)"  x="12" y="19" width="1" height="1" /><rect shape-rendering="crispEdges" fill="rgb(131, 123, 139)"  x="12" y="20" width="1" height="1" /><rect shape-rendering="crispEdges" fill="rgb(180, 197, 255)"  x="12" y="21" width="1" height="1" /><rect shape-rendering="crispEdges" fill="rgb(172, 180, 255)"  x="12" y="22" width="1" height="1" /><rect shape-rendering="crispEdges" fill="rgb(49, 90, 222)"  x="12" y="23" width="1" height="1" /><rect shape-rendering="crispEdges" fill="rgb(164, 156, 172)"  x="12" y="25" width="1" height="1" /><rect shape-rendering="crispEdges" fill="rgb(189, 180, 197)"  x="12" y="26" width="1" height="1" /><rect shape-rendering="crispEdges" fill="rgb(222, 213, 222)"  x="12" y="27" width="1" height="1" /><rect shape-rendering="crispEdges" fill="rgb(131, 123, 139)"  x="12" y="28" width="1" height="1" /><rect shape-rendering="crispEdges" fill="rgb(189, 180, 197)"  x="13" y="1" width="1" height="1" /><rect shape-rendering="crispEdges" fill="rgb(222, 213, 222)"  x="13" y="2" width="1" height="1" /><rect shape-rendering="crispEdges" fill="rgb(238, 172, 197)"  x="13" y="3" width="1" height="1" /><rect shape-rendering="crispEdges" fill="rgb(222, 213, 222)"  x="13" y="4" width="1" height="1" /><rect shape-rendering="crispEdges" fill="rgb(246, 238, 246)"  x="13" y="5" width="1" height="1" /><rect shape-rendering="crispEdges" fill="rgb(222, 148, 139)"  x="13" y="6" width="1" height="1" /><rect shape-rendering="crispEdges" fill="rgb(246, 238, 246)"  x="13" y="7" width="1" height="1" /><rect shape-rendering="crispEdges" fill="rgb(246, 238, 246)"  x="13" y="8" width="1" height="1" /><rect shape-rendering="crispEdges" fill="rgb(246, 238, 246)"  x="13" y="9" width="1" height="1" /><rect shape-rendering="crispEdges" fill="rgb(164, 98, 131)"  x="13" y="10" width="1" height="1" /><rect shape-rendering="crispEdges" fill="rgb(164, 98, 131)"  x="13" y="11" width="1" height="1" /><rect shape-rendering="crispEdges" fill="rgb(164, 98, 131)"  x="13" y="12" width="1" height="1" /><rect shape-rendering="crispEdges" fill="rgb(222, 213, 222)"  x="13" y="13" width="1" height="1" /><rect shape-rendering="crispEdges" fill="rgb(222, 213, 222)"  x="13" y="14" width="1" height="1" /><rect shape-rendering="crispEdges" fill="rgb(164, 156, 172)"  x="13" y="15" width="1" height="1" /><rect shape-rendering="crispEdges" fill="rgb(246, 238, 246)"  x="13" y="16" width="1" height="1" /><rect shape-rendering="crispEdges" fill="rgb(189, 115, 148)"  x="13" y="17" width="1" height="1" /><rect shape-rendering="crispEdges" fill="rgb(164, 98, 131)"  x="13" y="18" width="1" height="1" /><rect shape-rendering="crispEdges" fill="rgb(189, 180, 197)"  x="13" y="19" width="1" height="1" /><rect shape-rendering="crispEdges" fill="rgb(49, 90, 222)"  x="13" y="20" width="1" height="1" /><rect shape-rendering="crispEdges" fill="rgb(65, 65, 189)"  x="13" y="21" width="1" height="1" /><rect shape-rendering="crispEdges" fill="rgb(49, 90, 222)"  x="13" y="22" width="1" height="1" /><rect shape-rendering="crispEdges" fill="rgb(189, 180, 197)"  x="13" y="26" width="1" height="1" /><rect shape-rendering="crispEdges" fill="rgb(222, 213, 222)"  x="13" y="27" width="1" height="1" /><rect shape-rendering="crispEdges" fill="rgb(131, 123, 139)"  x="13" y="28" width="1" height="1" /><rect shape-rendering="crispEdges" fill="rgb(189, 180, 197)"  x="14" y="1" width="1" height="1" /><rect shape-rendering="crispEdges" fill="rgb(222, 213, 222)"  x="14" y="2" width="1" height="1" /><rect shape-rendering="crispEdges" fill="rgb(213, 148, 172)"  x="14" y="3" width="1" height="1" /><rect shape-rendering="crispEdges" fill="rgb(222, 213, 222)"  x="14" y="4" width="1" height="1" /><rect shape-rendering="crispEdges" fill="rgb(205, 115, 106)"  x="14" y="5" width="1" height="1" /><rect shape-rendering="crispEdges" fill="rgb(246, 238, 246)"  x="14" y="6" width="1" height="1" /><rect shape-rendering="crispEdges" fill="rgb(246, 238, 246)"  x="14" y="7" width="1" height="1" /><rect shape-rendering="crispEdges" fill="rgb(189, 115, 148)"  x="14" y="8" width="1" height="1" /><rect shape-rendering="crispEdges" fill="rgb(131, 82, 115)"  x="14" y="9" width="1" height="1" /><rect shape-rendering="crispEdges" fill="rgb(189, 115, 148)"  x="14" y="10" width="1" height="1" /><rect shape-rendering="crispEdges" fill="rgb(189, 115, 148)"  x="14" y="11" width="1" height="1" /><rect shape-rendering="crispEdges" fill="rgb(189, 115, 148)"  x="14" y="12" width="1" height="1" /><rect shape-rendering="crispEdges" fill="rgb(164, 98, 131)"  x="14" y="13" width="1" height="1" /><rect shape-rendering="crispEdges" fill="rgb(164, 98, 131)"  x="14" y="14" width="1" height="1" /><rect shape-rendering="crispEdges" fill="rgb(131, 123, 139)"  x="14" y="15" width="1" height="1" /><rect shape-rendering="crispEdges" fill="rgb(246, 238, 246)"  x="14" y="16" width="1" height="1" /><rect shape-rendering="crispEdges" fill="rgb(213, 148, 172)"  x="14" y="17" width="1" height="1" /><rect shape-rendering="crispEdges" fill="rgb(189, 115, 148)"  x="14" y="18" width="1" height="1" /><rect shape-rendering="crispEdges" fill="rgb(189, 180, 197)"  x="14" y="19" width="1" height="1" /><rect shape-rendering="crispEdges" fill="rgb(131, 123, 139)"  x="14" y="20" width="1" height="1" /><rect shape-rendering="crispEdges" fill="rgb(164, 156, 172)"  x="14" y="27" width="1" height="1" /><rect shape-rendering="crispEdges" fill="rgb(164, 156, 172)"  x="15" y="1" width="1" height="1" /><rect shape-rendering="crispEdges" fill="rgb(222, 213, 222)"  x="15" y="2" width="1" height="1" /><rect shape-rendering="crispEdges" fill="rgb(222, 213, 222)"  x="15" y="3" width="1" height="1" /><rect shape-rendering="crispEdges" fill="rgb(222, 213, 222)"  x="15" y="4" width="1" height="1" /><rect shape-rendering="crispEdges" fill="rgb(222, 148, 139)"  x="15" y="5" width="1" height="1" /><rect shape-rendering="crispEdges" fill="rgb(246, 238, 246)"  x="15" y="6" width="1" height="1" /><rect shape-rendering="crispEdges" fill="rgb(131, 82, 115)"  x="15" y="7" width="1" height="1" /><rect shape-rendering="crispEdges" fill="rgb(156, 156, 255)"  x="15" y="8" width="1" height="1" /><rect shape-rendering="crispEdges" fill="rgb(238, 172, 197)"  x="15" y="9" width="1" height="1" /><rect shape-rendering="crispEdges" fill="rgb(213, 148, 172)"  x="15" y="10" width="1" height="1" /><rect shape-rendering="crispEdges" fill="rgb(213, 148, 172)"  x="15" y="11" width="1" height="1" /><rect shape-rendering="crispEdges" fill="rgb(189, 115, 148)"  x="15" y="12" width="1" height="1" /><rect shape-rendering="crispEdges" fill="rgb(189, 115, 148)"  x="15" y="13" width="1" height="1" /><rect shape-rendering="crispEdges" fill="rgb(205, 115, 106)"  x="15" y="14" width="1" height="1" /><rect shape-rendering="crispEdges" fill="rgb(98, 98, 115)"  x="15" y="15" width="1" height="1" /><rect shape-rendering="crispEdges" fill="rgb(246, 238, 246)"  x="15" y="16" width="1" height="1" /><rect shape-rendering="crispEdges" fill="rgb(213, 148, 172)"  x="15" y="17" width="1" height="1" /><rect shape-rendering="crispEdges" fill="rgb(189, 115, 148)"  x="15" y="18" width="1" height="1" /><rect shape-rendering="crispEdges" fill="rgb(246, 238, 246)"  x="15" y="19" width="1" height="1" /><rect shape-rendering="crispEdges" fill="rgb(131, 123, 139)"  x="15" y="20" width="1" height="1" /><rect shape-rendering="crispEdges" fill="rgb(164, 156, 172)"  x="16" y="1" width="1" height="1" /><rect shape-rendering="crispEdges" fill="rgb(222, 213, 222)"  x="16" y="2" width="1" height="1" /><rect shape-rendering="crispEdges" fill="rgb(222, 213, 222)"  x="16" y="3" width="1" height="1" /><rect shape-rendering="crispEdges" fill="rgb(222, 148, 139)"  x="16" y="4" width="1" height="1" /><rect shape-rendering="crispEdges" fill="rgb(222, 213, 222)"  x="16" y="5" width="1" height="1" /><rect shape-rendering="crispEdges" fill="rgb(222, 213, 222)"  x="16" y="6" width="1" height="1" /><rect shape-rendering="crispEdges" fill="rgb(131, 82, 115)"  x="16" y="7" width="1" height="1" /><rect shape-rendering="crispEdges" fill="rgb(172, 180, 255)"  x="16" y="8" width="1" height="1" /><rect shape-rendering="crispEdges" fill="rgb(238, 172, 197)"  x="16" y="9" width="1" height="1" /><rect shape-rendering="crispEdges" fill="rgb(213, 148, 172)"  x="16" y="10" width="1" height="1" /><rect shape-rendering="crispEdges" fill="rgb(189, 115, 148)"  x="16" y="11" width="1" height="1" /><rect shape-rendering="crispEdges" fill="rgb(189, 115, 148)"  x="16" y="12" width="1" height="1" /><rect shape-rendering="crispEdges" fill="rgb(189, 115, 148)"  x="16" y="13" width="1" height="1" /><rect shape-rendering="crispEdges" fill="rgb(205, 115, 106)"  x="16" y="14" width="1" height="1" /><rect shape-rendering="crispEdges" fill="rgb(98, 98, 115)"  x="16" y="15" width="1" height="1" /><rect shape-rendering="crispEdges" fill="rgb(189, 180, 197)"  x="16" y="16" width="1" height="1" /><rect shape-rendering="crispEdges" fill="rgb(189, 180, 197)"  x="16" y="17" width="1" height="1" /><rect shape-rendering="crispEdges" fill="rgb(246, 238, 246)"  x="16" y="18" width="1" height="1" /><rect shape-rendering="crispEdges" fill="rgb(164, 156, 172)"  x="16" y="19" width="1" height="1" /><rect shape-rendering="crispEdges" fill="rgb(164, 156, 172)"  x="17" y="1" width="1" height="1" /><rect shape-rendering="crispEdges" fill="rgb(222, 213, 222)"  x="17" y="2" width="1" height="1" /><rect shape-rendering="crispEdges" fill="rgb(222, 213, 222)"  x="17" y="3" width="1" height="1" /><rect shape-rendering="crispEdges" fill="rgb(222, 213, 222)"  x="17" y="4" width="1" height="1" /><rect shape-rendering="crispEdges" fill="rgb(222, 213, 222)"  x="17" y="5" width="1" height="1" /><rect shape-rendering="crispEdges" fill="rgb(222, 213, 222)"  x="17" y="6" width="1" height="1" /><rect shape-rendering="crispEdges" fill="rgb(131, 82, 115)"  x="17" y="7" width="1" height="1" /><rect shape-rendering="crispEdges" fill="rgb(172, 180, 255)"  x="17" y="8" width="1" height="1" /><rect shape-rendering="crispEdges" fill="rgb(213, 148, 172)"  x="17" y="9" width="1" height="1" /><rect shape-rendering="crispEdges" fill="rgb(189, 115, 148)"  x="17" y="10" width="1" height="1" /><rect shape-rendering="crispEdges" fill="rgb(164, 98, 131)"  x="17" y="11" width="1" height="1" /><rect shape-rendering="crispEdges" fill="rgb(164, 98, 131)"  x="17" y="12" width="1" height="1" /><rect shape-rendering="crispEdges" fill="rgb(205, 115, 106)"  x="17" y="13" width="1" height="1" /><rect shape-rendering="crispEdges" fill="rgb(205, 115, 106)"  x="17" y="14" width="1" height="1" /><rect shape-rendering="crispEdges" fill="rgb(98, 98, 115)"  x="17" y="15" width="1" height="1" /><rect shape-rendering="crispEdges" fill="rgb(98, 98, 115)"  x="17" y="16" width="1" height="1" /><rect shape-rendering="crispEdges" fill="rgb(98, 98, 115)"  x="17" y="17" width="1" height="1" /><rect shape-rendering="crispEdges" fill="rgb(131, 123, 139)"  x="17" y="18" width="1" height="1" /><rect shape-rendering="crispEdges" fill="rgb(164, 156, 172)"  x="18" y="1" width="1" height="1" /><rect shape-rendering="crispEdges" fill="rgb(222, 213, 222)"  x="18" y="2" width="1" height="1" /><rect shape-rendering="crispEdges" fill="rgb(222, 213, 222)"  x="18" y="3" width="1" height="1" /><rect shape-rendering="crispEdges" fill="rgb(222, 213, 222)"  x="18" y="4" width="1" height="1" /><rect shape-rendering="crispEdges" fill="rgb(222, 213, 222)"  x="18" y="5" width="1" height="1" /><rect shape-rendering="crispEdges" fill="rgb(222, 213, 222)"  x="18" y="6" width="1" height="1" /><rect shape-rendering="crispEdges" fill="rgb(131, 82, 115)"  x="18" y="7" width="1" height="1" /><rect shape-rendering="crispEdges" fill="rgb(156, 156, 255)"  x="18" y="8" width="1" height="1" /><rect shape-rendering="crispEdges" fill="rgb(189, 115, 148)"  x="18" y="9" width="1" height="1" /><rect shape-rendering="crispEdges" fill="rgb(164, 98, 131)"  x="18" y="13" width="1" height="1" /><rect shape-rendering="crispEdges" fill="rgb(205, 115, 106)"  x="18" y="14" width="1" height="1" /><rect shape-rendering="crispEdges" fill="rgb(139, 131, 222)"  x="18" y="15" width="1" height="1" /><rect shape-rendering="crispEdges" fill="rgb(164, 98, 131)"  x="18" y="16" width="1" height="1" /><rect shape-rendering="crispEdges" fill="rgb(131, 123, 139)"  x="18" y="17" width="1" height="1" /><rect shape-rendering="crispEdges" fill="rgb(131, 123, 139)"  x="18" y="18" width="1" height="1" /><rect shape-rendering="crispEdges" fill="rgb(131, 123, 139)"  x="18" y="19" width="1" height="1" /><rect shape-rendering="crispEdges" fill="rgb(131, 123, 139)"  x="18" y="20" width="1" height="1" /><rect shape-rendering="crispEdges" fill="rgb(164, 156, 172)"  x="19" y="1" width="1" height="1" /><rect shape-rendering="crispEdges" fill="rgb(222, 213, 222)"  x="19" y="2" width="1" height="1" /><rect shape-rendering="crispEdges" fill="rgb(222, 213, 222)"  x="19" y="3" width="1" height="1" /><rect shape-rendering="crispEdges" fill="rgb(222, 213, 222)"  x="19" y="4" width="1" height="1" /><rect shape-rendering="crispEdges" fill="rgb(189, 180, 197)"  x="19" y="5" width="1" height="1" /><rect shape-rendering="crispEdges" fill="rgb(222, 213, 222)"  x="19" y="6" width="1" height="1" /><rect shape-rendering="crispEdges" fill="rgb(131, 82, 115)"  x="19" y="7" width="1" height="1" /><rect shape-rendering="crispEdges" fill="rgb(156, 156, 255)"  x="19" y="8" width="1" height="1" /><rect shape-rendering="crispEdges" fill="rgb(189, 115, 148)"  x="19" y="9" width="1" height="1" /><rect shape-rendering="crispEdges" fill="rgb(164, 98, 131)"  x="19" y="13" width="1" height="1" /><rect shape-rendering="crispEdges" fill="rgb(189, 115, 148)"  x="19" y="14" width="1" height="1" /><rect shape-rendering="crispEdges" fill="rgb(139, 131, 222)"  x="19" y="15" width="1" height="1" /><rect shape-rendering="crispEdges" fill="rgb(131, 82, 115)"  x="19" y="16" width="1" height="1" /><rect shape-rendering="crispEdges" fill="rgb(189, 180, 197)"  x="19" y="17" width="1" height="1" /><rect shape-rendering="crispEdges" fill="rgb(222, 213, 222)"  x="19" y="18" width="1" height="1" /><rect shape-rendering="crispEdges" fill="rgb(246, 238, 246)"  x="19" y="19" width="1" height="1" /><rect shape-rendering="crispEdges" fill="rgb(164, 156, 172)"  x="19" y="20" width="1" height="1" /><rect shape-rendering="crispEdges" fill="rgb(189, 180, 197)"  x="20" y="1" width="1" height="1" /><rect shape-rendering="crispEdges" fill="rgb(222, 213, 222)"  x="20" y="2" width="1" height="1" /><rect shape-rendering="crispEdges" fill="rgb(222, 213, 222)"  x="20" y="3" width="1" height="1" /><rect shape-rendering="crispEdges" fill="rgb(189, 180, 197)"  x="20" y="4" width="1" height="1" /><rect shape-rendering="crispEdges" fill="rgb(189, 180, 197)"  x="20" y="5" width="1" height="1" /><rect shape-rendering="crispEdges" fill="rgb(189, 180, 197)"  x="20" y="6" width="1" height="1" /><rect shape-rendering="crispEdges" fill="rgb(164, 98, 131)"  x="20" y="7" width="1" height="1" /><rect shape-rendering="crispEdges" fill="rgb(156, 156, 255)"  x="20" y="8" width="1" height="1" /><rect shape-rendering="crispEdges" fill="rgb(164, 98, 131)"  x="20" y="9" width="1" height="1" /><rect shape-rendering="crispEdges" fill="rgb(139, 131, 222)"  x="20" y="14" width="1" height="1" /><rect shape-rendering="crispEdges" fill="rgb(156, 156, 255)"  x="20" y="15" width="1" height="1" /><rect shape-rendering="crispEdges" fill="rgb(131, 82, 115)"  x="20" y="16" width="1" height="1" /><rect shape-rendering="crispEdges" fill="rgb(189, 180, 197)"  x="20" y="17" width="1" height="1" /><rect shape-rendering="crispEdges" fill="rgb(222, 213, 222)"  x="20" y="18" width="1" height="1" /><rect shape-rendering="crispEdges" fill="rgb(246, 238, 246)"  x="20" y="19" width="1" height="1" /><rect shape-rendering="crispEdges" fill="rgb(164, 156, 172)"  x="20" y="20" width="1" height="1" /><rect shape-rendering="crispEdges" fill="rgb(189, 180, 197)"  x="21" y="1" width="1" height="1" /><rect shape-rendering="crispEdges" fill="rgb(222, 213, 222)"  x="21" y="2" width="1" height="1" /><rect shape-rendering="crispEdges" fill="rgb(222, 213, 222)"  x="21" y="3" width="1" height="1" /><rect shape-rendering="crispEdges" fill="rgb(189, 180, 197)"  x="21" y="4" width="1" height="1" /><rect shape-rendering="crispEdges" fill="rgb(189, 180, 197)"  x="21" y="5" width="1" height="1" /><rect shape-rendering="crispEdges" fill="rgb(189, 180, 197)"  x="21" y="6" width="1" height="1" /><rect shape-rendering="crispEdges" fill="rgb(164, 98, 131)"  x="21" y="7" width="1" height="1" /><rect shape-rendering="crispEdges" fill="rgb(139, 131, 222)"  x="21" y="8" width="1" height="1" /><rect shape-rendering="crispEdges" fill="rgb(164, 98, 131)"  x="21" y="9" width="1" height="1" /><rect shape-rendering="crispEdges" fill="rgb(156, 156, 255)"  x="21" y="14" width="1" height="1" /><rect shape-rendering="crispEdges" fill="rgb(164, 98, 131)"  x="21" y="15" width="1" height="1" /><rect shape-rendering="crispEdges" fill="rgb(189, 180, 197)"  x="21" y="16" width="1" height="1" /><rect shape-rendering="crispEdges" fill="rgb(189, 180, 197)"  x="21" y="17" width="1" height="1" /><rect shape-rendering="crispEdges" fill="rgb(246, 238, 246)"  x="21" y="18" width="1" height="1" /><rect shape-rendering="crispEdges" fill="rgb(189, 180, 197)"  x="21" y="19" width="1" height="1" /><rect shape-rendering="crispEdges" fill="rgb(189, 180, 197)"  x="22" y="1" width="1" height="1" /><rect shape-rendering="crispEdges" fill="rgb(222, 213, 222)"  x="22" y="2" width="1" height="1" /><rect shape-rendering="crispEdges" fill="rgb(246, 238, 246)"  x="22" y="3" width="1" height="1" /><rect shape-rendering="crispEdges" fill="rgb(189, 180, 197)"  x="22" y="4" width="1" height="1" /><rect shape-rendering="crispEdges" fill="rgb(189, 180, 197)"  x="22" y="5" width="1" height="1" /><rect shape-rendering="crispEdges" fill="rgb(189, 180, 197)"  x="22" y="6" width="1" height="1" /><rect shape-rendering="crispEdges" fill="rgb(164, 98, 131)"  x="22" y="7" width="1" height="1" /><rect shape-rendering="crispEdges" fill="rgb(139, 131, 222)"  x="22" y="8" width="1" height="1" /><rect shape-rendering="crispEdges" fill="rgb(139, 131, 222)"  x="22" y="9" width="1" height="1" /><rect shape-rendering="crispEdges" fill="rgb(164, 98, 131)"  x="22" y="10" width="1" height="1" /><rect shape-rendering="crispEdges" fill="rgb(139, 131, 222)"  x="22" y="14" width="1" height="1" /><rect shape-rendering="crispEdges" fill="rgb(164, 98, 131)"  x="22" y="15" width="1" height="1" /><rect shape-rendering="crispEdges" fill="rgb(222, 213, 222)"  x="22" y="16" width="1" height="1" /><rect shape-rendering="crispEdges" fill="rgb(246, 238, 246)"  x="22" y="17" width="1" height="1" /><rect shape-rendering="crispEdges" fill="rgb(246, 238, 246)"  x="22" y="18" width="1" height="1" /><rect shape-rendering="crispEdges" fill="rgb(164, 156, 172)"  x="22" y="19" width="1" height="1" /><rect shape-rendering="crispEdges" fill="rgb(189, 180, 197)"  x="23" y="2" width="1" height="1" /><rect shape-rendering="crispEdges" fill="rgb(246, 238, 246)"  x="23" y="3" width="1" height="1" /><rect shape-rendering="crispEdges" fill="rgb(189, 180, 197)"  x="23" y="4" width="1" height="1" /><rect shape-rendering="crispEdges" fill="rgb(189, 180, 197)"  x="23" y="5" width="1" height="1" /><rect shape-rendering="crispEdges" fill="rgb(189, 180, 197)"  x="23" y="6" width="1" height="1" /><rect shape-rendering="crispEdges" fill="rgb(189, 180, 197)"  x="23" y="7" width="1" height="1" /><rect shape-rendering="crispEdges" fill="rgb(189, 115, 148)"  x="23" y="8" width="1" height="1" /><rect shape-rendering="crispEdges" fill="rgb(164, 98, 131)"  x="23" y="9" width="1" height="1" /><rect shape-rendering="crispEdges" fill="rgb(164, 98, 131)"  x="23" y="10" width="1" height="1" /><rect shape-rendering="crispEdges" fill="rgb(131, 123, 139)"  x="23" y="11" width="1" height="1" /><rect shape-rendering="crispEdges" fill="rgb(139, 131, 222)"  x="23" y="14" width="1" height="1" /><rect shape-rendering="crispEdges" fill="rgb(164, 98, 131)"  x="23" y="15" width="1" height="1" /><rect shape-rendering="crispEdges" fill="rgb(222, 213, 222)"  x="23" y="16" width="1" height="1" /><rect shape-rendering="crispEdges" fill="rgb(246, 238, 246)"  x="23" y="17" width="1" height="1" /><rect shape-rendering="crispEdges" fill="rgb(189, 180, 197)"  x="23" y="18" width="1" height="1" /><rect shape-rendering="crispEdges" fill="rgb(189, 180, 197)"  x="24" y="2" width="1" height="1" /><rect shape-rendering="crispEdges" fill="rgb(246, 238, 246)"  x="24" y="3" width="1" height="1" /><rect shape-rendering="crispEdges" fill="rgb(189, 180, 197)"  x="24" y="4" width="1" height="1" /><rect shape-rendering="crispEdges" fill="rgb(189, 180, 197)"  x="24" y="5" width="1" height="1" /><rect shape-rendering="crispEdges" fill="rgb(189, 180, 197)"  x="24" y="6" width="1" height="1" /><rect shape-rendering="crispEdges" fill="rgb(189, 180, 197)"  x="24" y="7" width="1" height="1" /><rect shape-rendering="crispEdges" fill="rgb(189, 180, 197)"  x="24" y="8" width="1" height="1" /><rect shape-rendering="crispEdges" fill="rgb(189, 180, 197)"  x="24" y="9" width="1" height="1" /><rect shape-rendering="crispEdges" fill="rgb(222, 213, 222)"  x="24" y="10" width="1" height="1" /><rect shape-rendering="crispEdges" fill="rgb(131, 123, 139)"  x="24" y="11" width="1" height="1" /><rect shape-rendering="crispEdges" fill="rgb(123, 98, 189)"  x="24" y="14" width="1" height="1" /><rect shape-rendering="crispEdges" fill="rgb(246, 238, 246)"  x="24" y="15" width="1" height="1" /><rect shape-rendering="crispEdges" fill="rgb(246, 238, 246)"  x="24" y="16" width="1" height="1" /><rect shape-rendering="crispEdges" fill="rgb(246, 238, 246)"  x="24" y="17" width="1" height="1" /><rect shape-rendering="crispEdges" fill="rgb(164, 156, 172)"  x="24" y="18" width="1" height="1" /><rect shape-rendering="crispEdges" fill="rgb(189, 180, 197)"  x="25" y="3" width="1" height="1" /><rect shape-rendering="crispEdges" fill="rgb(246, 238, 246)"  x="25" y="4" width="1" height="1" /><rect shape-rendering="crispEdges" fill="rgb(246, 238, 246)"  x="25" y="5" width="1" height="1" /><rect shape-rendering="crispEdges" fill="rgb(246, 238, 246)"  x="25" y="6" width="1" height="1" /><rect shape-rendering="crispEdges" fill="rgb(246, 238, 246)"  x="25" y="7" width="1" height="1" /><rect shape-rendering="crispEdges" fill="rgb(189, 180, 197)"  x="25" y="8" width="1" height="1" /><rect shape-rendering="crispEdges" fill="rgb(189, 180, 197)"  x="25" y="9" width="1" height="1" /><rect shape-rendering="crispEdges" fill="rgb(189, 180, 197)"  x="25" y="10" width="1" height="1" /><rect shape-rendering="crispEdges" fill="rgb(131, 123, 139)"  x="25" y="11" width="1" height="1" /><rect shape-rendering="crispEdges" fill="rgb(164, 98, 131)"  x="25" y="14" width="1" height="1" /><rect shape-rendering="crispEdges" fill="rgb(246, 238, 246)"  x="25" y="15" width="1" height="1" /><rect shape-rendering="crispEdges" fill="rgb(246, 238, 246)"  x="25" y="16" width="1" height="1" /><rect shape-rendering="crispEdges" fill="rgb(164, 156, 172)"  x="25" y="17" width="1" height="1" /><rect shape-rendering="crispEdges" fill="rgb(189, 180, 197)"  x="26" y="4" width="1" height="1" /><rect shape-rendering="crispEdges" fill="rgb(189, 180, 197)"  x="26" y="5" width="1" height="1" /><rect shape-rendering="crispEdges" fill="rgb(189, 180, 197)"  x="26" y="6" width="1" height="1" /><rect shape-rendering="crispEdges" fill="rgb(189, 180, 197)"  x="26" y="7" width="1" height="1" /><rect shape-rendering="crispEdges" fill="rgb(246, 238, 246)"  x="26" y="8" width="1" height="1" /><rect shape-rendering="crispEdges" fill="rgb(246, 238, 246)"  x="26" y="9" width="1" height="1" /><rect shape-rendering="crispEdges" fill="rgb(222, 213, 222)"  x="26" y="10" width="1" height="1" /><rect shape-rendering="crispEdges" fill="rgb(164, 156, 172)"  x="26" y="11" width="1" height="1" /><rect shape-rendering="crispEdges" fill="rgb(189, 180, 197)"  x="26" y="14" width="1" height="1" /><rect shape-rendering="crispEdges" fill="rgb(246, 238, 246)"  x="26" y="15" width="1" height="1" /><rect shape-rendering="crispEdges" fill="rgb(164, 156, 172)"  x="26" y="16" width="1" height="1" /><rect shape-rendering="crispEdges" fill="rgb(189, 180, 197)"  x="27" y="8" width="1" height="1" /><rect shape-rendering="crispEdges" fill="rgb(246, 238, 246)"  x="27" y="9" width="1" height="1" /><rect shape-rendering="crispEdges" fill="rgb(246, 238, 246)"  x="27" y="10" width="1" height="1" /><rect shape-rendering="crispEdges" fill="rgb(189, 180, 197)"  x="27" y="11" width="1" height="1" /><rect shape-rendering="crispEdges" fill="rgb(189, 180, 197)"  x="27" y="14" width="1" height="1" /><rect shape-rendering="crispEdges" fill="rgb(189, 180, 197)"  x="27" y="15" width="1" height="1" /><rect shape-rendering="crispEdges" fill="rgb(189, 180, 197)"  x="28" y="9" width="1" height="1" /><rect shape-rendering="crispEdges" fill="rgb(246, 238, 246)"  x="28" y="10" width="1" height="1" /><rect shape-rendering="crispEdges" fill="rgb(189, 180, 197)"  x="28" y="11" width="1" height="1" /><rect shape-rendering="crispEdges" fill="rgb(189, 180, 197)"  x="29" y="10" width="1" height="1" /><rect shape-rendering="crispEdges" fill="rgb(189, 180, 197)"  x="29" y="11" width="1" height="1" /></svg>