<svg xmlns="http://www.w3.org/2000/svg" xmlns:xlink= "http://www.w3.org/1999/xlink" width="32" height="32" viewBox ="0 0 32 32"><rect shape-rendering="crispEdges" fill="rgb(213, 255, 255)"  x="2" y="10" width="1" height="1" /><rect shape-rendering="crispEdges" fill="rgb(213, 255, 255)"  x="2" y="11" width="1" height="1" /><rect shape-rendering="crispEdges" fill="rgb(213, 255, 255)"  x="2" y="12" width="1" height="1" /><rect shape-rendering="crispEdges" fill="rgb(213, 255, 255)"  x="2" y="13" width="1" height="1" /><rect shape-rendering="crispEdges" fill="rgb(213, 255, 255)"  x="2" y="14" width="1" height="1" /><rect shape-rendering="crispEdges" fill="rgb(213, 255, 255)"  x="2" y="15" width="1" height="1" /><rect shape-rendering="crispEdges" fill="rgb(213, 255, 255)"  x="2" y="16" width="1" height="1" /><rect shape-rendering="crispEdges" fill="rgb(213, 255, 255)"  x="2" y="17" width="1" height="1" /><rect shape-rendering="crispEdges" fill="rgb(213, 255, 255)"  x="2" y="18" width="1" height="1" /><rect shape-rendering="crispEdges" fill="rgb(213, 255, 255)"  x="2" y="19" width="1" height="1" /><rect shape-rendering="crispEdges" fill="rgb(213, 255, 255)"  x="2" y="20" width="1" height="1" /><rect shape-rendering="crispEdges" fill="rgb(255, 213, 205)"  x="2" y="21" width="1" height="1" /><rect shape-rendering="crispEdges" fill="rgb(213, 255, 255)"  x="3" y="10" width="1" height="1" /><rect shape-rendering="crispEdges" fill="rgb(255, 213, 205)"  x="3" y="11" width="1" height="1" /><rect shape-rendering="crispEdges" fill="rgb(255, 213, 205)"  x="3" y="12" width="1" height="1" /><rect shape-rendering="crispEdges" fill="rgb(255, 213, 205)"  x="3" y="13" width="1" height="1" /><rect shape-rendering="crispEdges" fill="rgb(255, 213, 205)"  x="3" y="14" width="1" height="1" /><rect shape-rendering="crispEdges" fill="rgb(255, 213, 205)"  x="3" y="15" width="1" height="1" /><rect shape-rendering="crispEdges" fill="rgb(255, 213, 205)"  x="3" y="16" width="1" height="1" /><rect shape-rendering="crispEdges" fill="rgb(255, 213, 205)"  x="3" y="17" width="1" height="1" /><rect shape-rendering="crispEdges" fill="rgb(255, 213, 205)"  x="3" y="18" width="1" height="1" /><rect shape-rendering="crispEdges" fill="rgb(255, 213, 205)"  x="3" y="19" width="1" height="1" /><rect shape-rendering="crispEdges" fill="rgb(255, 213, 205)"  x="3" y="20" width="1" height="1" /><rect shape-rendering="crispEdges" fill="rgb(255, 213, 205)"  x="3" y="21" width="1" height="1" /><rect shape-rendering="crispEdges" fill="rgb(213, 255, 255)"  x="4" y="10" width="1" height="1" /><rect shape-rendering="crispEdges" fill="rgb(255, 213, 205)"  x="4" y="11" width="1" height="1" /><rect shape-rendering="crispEdges" fill="rgb(255, 213, 205)"  x="4" y="12" width="1" height="1" /><rect shape-rendering="crispEdges" fill="rgb(255, 213, 205)"  x="4" y="13" width="1" height="1" /><rect shape-rendering="crispEdges" fill="rgb(255, 213, 205)"  x="4" y="14" width="1" height="1" /><rect shape-rendering="crispEdges" fill="rgb(255, 213, 205)"  x="4" y="15" width="1" height="1" /><rect shape-rendering="crispEdges" fill="rgb(255, 213, 205)"  x="4" y="16" width="1" height="1" /><rect shape-rendering="crispEdges" fill="rgb(255, 213, 205)"  x="4" y="17" width="1" height="1" /><rect shape-rendering="crispEdges" fill="rgb(255, 213, 205)"  x="4" y="18" width="1" height="1" /><rect shape-rendering="crispEdges" fill="rgb(16, 65, 106)"  x="4" y="19" width="1" height="1" /><rect shape-rendering="crispEdges" fill="rgb(238, 180, 172)"  x="4" y="20" width="1" height="1" /><rect shape-rendering="crispEdges" fill="rgb(255, 213, 205)"  x="4" y="21" width="1" height="1" /><rect shape-rendering="crispEdges" fill="rgb(82, 156, 164)"  x="5" y="10" width="1" height="1" /><rect shape-rendering="crispEdges" fill="rgb(131, 98, 90)"  x="5" y="11" width="1" height="1" /><rect shape-rendering="crispEdges" fill="rgb(131, 98, 90)"  x="5" y="12" width="1" height="1" /><rect shape-rendering="crispEdges" fill="rgb(131, 98, 90)"  x="5" y="13" width="1" height="1" /><rect shape-rendering="crispEdges" fill="rgb(131, 98, 90)"  x="5" y="14" width="1" height="1" /><rect shape-rendering="crispEdges" fill="rgb(255, 213, 205)"  x="5" y="15" width="1" height="1" /><rect shape-rendering="crispEdges" fill="rgb(255, 213, 205)"  x="5" y="16" width="1" height="1" /><rect shape-rendering="crispEdges" fill="rgb(255, 213, 205)"  x="5" y="17" width="1" height="1" /><rect shape-rendering="crispEdges" fill="rgb(16, 65, 106)"  x="5" y="18" width="1" height="1" /><rect shape-rendering="crispEdges" fill="rgb(16, 65, 106)"  x="5" y="19" width="1" height="1" /><rect shape-rendering="crispEdges" fill="rgb(238, 180, 172)"  x="5" y="20" width="1" height="1" /><rect shape-rendering="crispEdges" fill="rgb(255, 213, 205)"  x="5" y="21" width="1" height="1" /><rect shape-rendering="crispEdges" fill="rgb(131, 123, 139)"  x="6" y="13" width="1" height="1" /><rect shape-rendering="crispEdges" fill="rgb(180, 180, 180)"  x="6" y="14" width="1" height="1" /><rect shape-rendering="crispEdges" fill="rgb(255, 213, 205)"  x="6" y="15" width="1" height="1" /><rect shape-rendering="crispEdges" fill="rgb(255, 213, 205)"  x="6" y="16" width="1" height="1" /><rect shape-rendering="crispEdges" fill="rgb(74, 115, 156)"  x="6" y="17" width="1" height="1" /><rect shape-rendering="crispEdges" fill="rgb(16, 65, 106)"  x="6" y="18" width="1" height="1" /><rect shape-rendering="crispEdges" fill="rgb(148, 148, 148)"  x="6" y="19" width="1" height="1" /><rect shape-rendering="crispEdges" fill="rgb(238, 180, 172)"  x="6" y="20" width="1" height="1" /><rect shape-rendering="crispEdges" fill="rgb(213, 255, 255)"  x="6" y="21" width="1" height="1" /><rect shape-rendering="crispEdges" fill="rgb(180, 180, 180)"  x="7" y="13" width="1" height="1" /><rect shape-rendering="crispEdges" fill="rgb(255, 213, 205)"  x="7" y="14" width="1" height="1" /><rect shape-rendering="crispEdges" fill="rgb(222, 222, 222)"  x="7" y="15" width="1" height="1" /><rect shape-rendering="crispEdges" fill="rgb(74, 115, 156)"  x="7" y="16" width="1" height="1" /><rect shape-rendering="crispEdges" fill="rgb(16, 65, 106)"  x="7" y="17" width="1" height="1" /><rect shape-rendering="crispEdges" fill="rgb(148, 148, 148)"  x="7" y="18" width="1" height="1" /><rect shape-rendering="crispEdges" fill="rgb(148, 148, 148)"  x="7" y="19" width="1" height="1" /><rect shape-rendering="crispEdges" fill="rgb(238, 180, 172)"  x="7" y="20" width="1" height="1" /><rect shape-rendering="crispEdges" fill="rgb(213, 255, 255)"  x="7" y="21" width="1" height="1" /><rect shape-rendering="crispEdges" fill="rgb(65, 131, 131)"  x="8" y="10" width="1" height="1" /><rect shape-rendering="crispEdges" fill="rgb(82, 156, 164)"  x="8" y="11" width="1" height="1" /><rect shape-rendering="crispEdges" fill="rgb(180, 180, 180)"  x="8" y="12" width="1" height="1" /><rect shape-rendering="crispEdges" fill="rgb(180, 180, 180)"  x="8" y="13" width="1" height="1" /><rect shape-rendering="crispEdges" fill="rgb(222, 222, 222)"  x="8" y="14" width="1" height="1" /><rect shape-rendering="crispEdges" fill="rgb(74, 115, 156)"  x="8" y="15" width="1" height="1" /><rect shape-rendering="crispEdges" fill="rgb(16, 65, 106)"  x="8" y="16" width="1" height="1" /><rect shape-rendering="crispEdges" fill="rgb(148, 148, 148)"  x="8" y="17" width="1" height="1" /><rect shape-rendering="crispEdges" fill="rgb(148, 148, 148)"  x="8" y="18" width="1" height="1" /><rect shape-rendering="crispEdges" fill="rgb(16, 65, 106)"  x="8" y="19" width="1" height="1" /><rect shape-rendering="crispEdges" fill="rgb(238, 180, 172)"  x="8" y="20" width="1" height="1" /><rect shape-rendering="crispEdges" fill="rgb(213, 255, 255)"  x="8" y="21" width="1" height="1" /><rect shape-rendering="crispEdges" fill="rgb(65, 131, 131)"  x="9" y="9" width="1" height="1" /><rect shape-rendering="crispEdges" fill="rgb(180, 180, 180)"  x="9" y="10" width="1" height="1" /><rect shape-rendering="crispEdges" fill="rgb(180, 180, 180)"  x="9" y="11" width="1" height="1" /><rect shape-rendering="crispEdges" fill="rgb(180, 180, 180)"  x="9" y="12" width="1" height="1" /><rect shape-rendering="crispEdges" fill="rgb(180, 180, 180)"  x="9" y="13" width="1" height="1" /><rect shape-rendering="crispEdges" fill="rgb(74, 115, 156)"  x="9" y="14" width="1" height="1" /><rect shape-rendering="crispEdges" fill="rgb(16, 65, 106)"  x="9" y="15" width="1" height="1" /><rect shape-rendering="crispEdges" fill="rgb(148, 148, 148)"  x="9" y="16" width="1" height="1" /><rect shape-rendering="crispEdges" fill="rgb(148, 148, 148)"  x="9" y="17" width="1" height="1" /><rect shape-rendering="crispEdges" fill="rgb(74, 115, 156)"  x="9" y="18" width="1" height="1" /><rect shape-rendering="crispEdges" fill="rgb(16, 65, 106)"  x="9" y="19" width="1" height="1" /><rect shape-rendering="crispEdges" fill="rgb(238, 180, 172)"  x="9" y="20" width="1" height="1" /><rect shape-rendering="crispEdges" fill="rgb(222, 213, 222)"  x="9" y="21" width="1" height="1" /><rect shape-rendering="crispEdges" fill="rgb(65, 131, 131)"  x="10" y="8" width="1" height="1" /><rect shape-rendering="crispEdges" fill="rgb(180, 180, 180)"  x="10" y="9" width="1" height="1" /><rect shape-rendering="crispEdges" fill="rgb(180, 180, 180)"  x="10" y="10" width="1" height="1" /><rect shape-rendering="crispEdges" fill="rgb(65, 131, 131)"  x="10" y="11" width="1" height="1" /><rect shape-rendering="crispEdges" fill="rgb(106, 106, 106)"  x="10" y="12" width="1" height="1" /><rect shape-rendering="crispEdges" fill="rgb(16, 65, 57)"  x="10" y="13" width="1" height="1" /><rect shape-rendering="crispEdges" fill="rgb(16, 65, 106)"  x="10" y="14" width="1" height="1" /><rect shape-rendering="crispEdges" fill="rgb(32, 65, 74)"  x="10" y="15" width="1" height="1" /><rect shape-rendering="crispEdges" fill="rgb(148, 148, 148)"  x="10" y="16" width="1" height="1" /><rect shape-rendering="crispEdges" fill="rgb(74, 115, 156)"  x="10" y="17" width="1" height="1" /><rect shape-rendering="crispEdges" fill="rgb(16, 82, 131)"  x="10" y="18" width="1" height="1" /><rect shape-rendering="crispEdges" fill="rgb(16, 65, 106)"  x="10" y="19" width="1" height="1" /><rect shape-rendering="crispEdges" fill="rgb(238, 180, 172)"  x="10" y="20" width="1" height="1" /><rect shape-rendering="crispEdges" fill="rgb(222, 213, 222)"  x="10" y="21" width="1" height="1" /><rect shape-rendering="crispEdges" fill="rgb(65, 131, 131)"  x="11" y="7" width="1" height="1" /><rect shape-rendering="crispEdges" fill="rgb(82, 156, 164)"  x="11" y="8" width="1" height="1" /><rect shape-rendering="crispEdges" fill="rgb(180, 180, 180)"  x="11" y="9" width="1" height="1" /><rect shape-rendering="crispEdges" fill="rgb(8, 90, 82)"  x="11" y="10" width="1" height="1" /><rect shape-rendering="crispEdges" fill="rgb(8, 90, 82)"  x="11" y="11" width="1" height="1" /><rect shape-rendering="crispEdges" fill="rgb(8, 90, 82)"  x="11" y="12" width="1" height="1" /><rect shape-rendering="crispEdges" fill="rgb(32, 65, 74)"  x="11" y="13" width="1" height="1" /><rect shape-rendering="crispEdges" fill="rgb(49, 98, 98)"  x="11" y="14" width="1" height="1" /><rect shape-rendering="crispEdges" fill="rgb(74, 115, 156)"  x="11" y="15" width="1" height="1" /><rect shape-rendering="crispEdges" fill="rgb(74, 115, 156)"  x="11" y="16" width="1" height="1" /><rect shape-rendering="crispEdges" fill="rgb(16, 82, 131)"  x="11" y="17" width="1" height="1" /><rect shape-rendering="crispEdges" fill="rgb(16, 65, 106)"  x="11" y="18" width="1" height="1" /><rect shape-rendering="crispEdges" fill="rgb(238, 180, 172)"  x="11" y="19" width="1" height="1" /><rect shape-rendering="crispEdges" fill="rgb(222, 213, 222)"  x="11" y="20" width="1" height="1" /><rect shape-rendering="crispEdges" fill="rgb(65, 131, 131)"  x="12" y="6" width="1" height="1" /><rect shape-rendering="crispEdges" fill="rgb(82, 156, 164)"  x="12" y="7" width="1" height="1" /><rect shape-rendering="crispEdges" fill="rgb(82, 156, 164)"  x="12" y="8" width="1" height="1" /><rect shape-rendering="crispEdges" fill="rgb(82, 156, 164)"  x="12" y="9" width="1" height="1" /><rect shape-rendering="crispEdges" fill="rgb(213, 156, 115)"  x="12" y="10" width="1" height="1" /><rect shape-rendering="crispEdges" fill="rgb(0, 49, 0)"  x="12" y="11" width="1" height="1" /><rect shape-rendering="crispEdges" fill="rgb(8, 49, 82)"  x="12" y="12" width="1" height="1" /><rect shape-rendering="crispEdges" fill="rgb(16, 65, 106)"  x="12" y="13" width="1" height="1" /><rect shape-rendering="crispEdges" fill="rgb(106, 106, 106)"  x="12" y="14" width="1" height="1" /><rect shape-rendering="crispEdges" fill="rgb(74, 115, 156)"  x="12" y="15" width="1" height="1" /><rect shape-rendering="crispEdges" fill="rgb(16, 82, 131)"  x="12" y="16" width="1" height="1" /><rect shape-rendering="crispEdges" fill="rgb(16, 65, 106)"  x="12" y="17" width="1" height="1" /><rect shape-rendering="crispEdges" fill="rgb(164, 156, 172)"  x="12" y="18" width="1" height="1" /><rect shape-rendering="crispEdges" fill="rgb(222, 213, 222)"  x="12" y="19" width="1" height="1" /><rect shape-rendering="crispEdges" fill="rgb(65, 131, 131)"  x="13" y="5" width="1" height="1" /><rect shape-rendering="crispEdges" fill="rgb(82, 156, 164)"  x="13" y="6" width="1" height="1" /><rect shape-rendering="crispEdges" fill="rgb(82, 156, 164)"  x="13" y="7" width="1" height="1" /><rect shape-rendering="crispEdges" fill="rgb(82, 156, 164)"  x="13" y="8" width="1" height="1" /><rect shape-rendering="crispEdges" fill="rgb(82, 82, 123)"  x="13" y="9" width="1" height="1" /><rect shape-rendering="crispEdges" fill="rgb(82, 82, 123)"  x="13" y="10" width="1" height="1" /><rect shape-rendering="crispEdges" fill="rgb(82, 82, 123)"  x="13" y="11" width="1" height="1" /><rect shape-rendering="crispEdges" fill="rgb(82, 82, 123)"  x="13" y="12" width="1" height="1" /><rect shape-rendering="crispEdges" fill="rgb(65, 65, 156)"  x="13" y="13" width="1" height="1" /><rect shape-rendering="crispEdges" fill="rgb(8, 90, 82)"  x="13" y="14" width="1" height="1" /><rect shape-rendering="crispEdges" fill="rgb(148, 148, 148)"  x="13" y="15" width="1" height="1" /><rect shape-rendering="crispEdges" fill="rgb(148, 148, 148)"  x="13" y="16" width="1" height="1" /><rect shape-rendering="crispEdges" fill="rgb(164, 156, 172)"  x="13" y="17" width="1" height="1" /><rect shape-rendering="crispEdges" fill="rgb(222, 213, 222)"  x="13" y="18" width="1" height="1" /><rect shape-rendering="crispEdges" fill="rgb(49, 98, 98)"  x="14" y="5" width="1" height="1" /><rect shape-rendering="crispEdges" fill="rgb(82, 156, 164)"  x="14" y="6" width="1" height="1" /><rect shape-rendering="crispEdges" fill="rgb(82, 156, 164)"  x="14" y="7" width="1" height="1" /><rect shape-rendering="crispEdges" fill="rgb(82, 82, 123)"  x="14" y="8" width="1" height="1" /><rect shape-rendering="crispEdges" fill="rgb(172, 180, 222)"  x="14" y="9" width="1" height="1" /><rect shape-rendering="crispEdges" fill="rgb(172, 180, 222)"  x="14" y="10" width="1" height="1" /><rect shape-rendering="crispEdges" fill="rgb(148, 148, 189)"  x="14" y="11" width="1" height="1" /><rect shape-rendering="crispEdges" fill="rgb(115, 115, 156)"  x="14" y="12" width="1" height="1" /><rect shape-rendering="crispEdges" fill="rgb(82, 82, 123)"  x="14" y="13" width="1" height="1" /><rect shape-rendering="crispEdges" fill="rgb(8, 32, 57)"  x="14" y="14" width="1" height="1" /><rect shape-rendering="crispEdges" fill="rgb(65, 82, 57)"  x="14" y="15" width="1" height="1" /><rect shape-rendering="crispEdges" fill="rgb(164, 156, 172)"  x="14" y="16" width="1" height="1" /><rect shape-rendering="crispEdges" fill="rgb(222, 213, 222)"  x="14" y="17" width="1" height="1" /><rect shape-rendering="crispEdges" fill="rgb(32, 65, 74)"  x="15" y="5" width="1" height="1" /><rect shape-rendering="crispEdges" fill="rgb(49, 98, 98)"  x="15" y="6" width="1" height="1" /><rect shape-rendering="crispEdges" fill="rgb(49, 98, 98)"  x="15" y="7" width="1" height="1" /><rect shape-rendering="crispEdges" fill="rgb(82, 82, 123)"  x="15" y="8" width="1" height="1" /><rect shape-rendering="crispEdges" fill="rgb(148, 148, 189)"  x="15" y="9" width="1" height="1" /><rect shape-rendering="crispEdges" fill="rgb(82, 82, 123)"  x="15" y="10" width="1" height="1" /><rect shape-rendering="crispEdges" fill="rgb(82, 82, 123)"  x="15" y="11" width="1" height="1" /><rect shape-rendering="crispEdges" fill="rgb(115, 115, 156)"  x="15" y="12" width="1" height="1" /><rect shape-rendering="crispEdges" fill="rgb(82, 82, 123)"  x="15" y="13" width="1" height="1" /><rect shape-rendering="crispEdges" fill="rgb(106, 106, 106)"  x="15" y="14" width="1" height="1" /><rect shape-rendering="crispEdges" fill="rgb(164, 156, 172)"  x="15" y="15" width="1" height="1" /><rect shape-rendering="crispEdges" fill="rgb(222, 213, 222)"  x="15" y="16" width="1" height="1" /><rect shape-rendering="crispEdges" fill="rgb(32, 65, 74)"  x="16" y="6" width="1" height="1" /><rect shape-rendering="crispEdges" fill="rgb(32, 65, 74)"  x="16" y="7" width="1" height="1" /><rect shape-rendering="crispEdges" fill="rgb(32, 65, 74)"  x="16" y="8" width="1" height="1" /><rect shape-rendering="crispEdges" fill="rgb(115, 115, 156)"  x="16" y="9" width="1" height="1" /><rect shape-rendering="crispEdges" fill="rgb(82, 82, 123)"  x="16" y="10" width="1" height="1" /><rect shape-rendering="crispEdges" fill="rgb(82, 82, 123)"  x="16" y="11" width="1" height="1" /><rect shape-rendering="crispEdges" fill="rgb(148, 148, 189)"  x="16" y="12" width="1" height="1" /><rect shape-rendering="crispEdges" fill="rgb(82, 82, 123)"  x="16" y="13" width="1" height="1" /><rect shape-rendering="crispEdges" fill="rgb(82, 82, 123)"  x="16" y="14" width="1" height="1" /><rect shape-rendering="crispEdges" fill="rgb(189, 180, 197)"  x="16" y="15" width="1" height="1" /><rect shape-rendering="crispEdges" fill="rgb(49, 98, 98)"  x="17" y="7" width="1" height="1" /><rect shape-rendering="crispEdges" fill="rgb(32, 65, 74)"  x="17" y="8" width="1" height="1" /><rect shape-rendering="crispEdges" fill="rgb(115, 115, 156)"  x="17" y="9" width="1" height="1" /><rect shape-rendering="crispEdges" fill="rgb(148, 148, 189)"  x="17" y="10" width="1" height="1" /><rect shape-rendering="crispEdges" fill="rgb(148, 148, 189)"  x="17" y="11" width="1" height="1" /><rect shape-rendering="crispEdges" fill="rgb(172, 180, 222)"  x="17" y="12" width="1" height="1" /><rect shape-rendering="crispEdges" fill="rgb(82, 82, 123)"  x="17" y="13" width="1" height="1" /><rect shape-rendering="crispEdges" fill="rgb(8, 90, 82)"  x="17" y="14" width="1" height="1" /><rect shape-rendering="crispEdges" fill="rgb(148, 148, 148)"  x="17" y="15" width="1" height="1" /><rect shape-rendering="crispEdges" fill="rgb(115, 57, 32)"  x="17" y="16" width="1" height="1" /><rect shape-rendering="crispEdges" fill="rgb(49, 98, 98)"  x="18" y="7" width="1" height="1" /><rect shape-rendering="crispEdges" fill="rgb(49, 98, 98)"  x="18" y="8" width="1" height="1" /><rect shape-rendering="crispEdges" fill="rgb(82, 82, 123)"  x="18" y="9" width="1" height="1" /><rect shape-rendering="crispEdges" fill="rgb(82, 82, 123)"  x="18" y="10" width="1" height="1" /><rect shape-rendering="crispEdges" fill="rgb(82, 82, 123)"  x="18" y="11" width="1" height="1" /><rect shape-rendering="crispEdges" fill="rgb(82, 82, 123)"  x="18" y="12" width="1" height="1" /><rect shape-rendering="crispEdges" fill="rgb(32, 65, 74)"  x="18" y="13" width="1" height="1" /><rect shape-rendering="crispEdges" fill="rgb(16, 65, 57)"  x="18" y="14" width="1" height="1" /><rect shape-rendering="crispEdges" fill="rgb(139, 82, 49)"  x="18" y="15" width="1" height="1" /><rect shape-rendering="crispEdges" fill="rgb(115, 57, 32)"  x="18" y="16" width="1" height="1" /><rect shape-rendering="crispEdges" fill="rgb(115, 57, 32)"  x="18" y="17" width="1" height="1" /><rect shape-rendering="crispEdges" fill="rgb(49, 98, 98)"  x="19" y="7" width="1" height="1" /><rect shape-rendering="crispEdges" fill="rgb(49, 98, 98)"  x="19" y="8" width="1" height="1" /><rect shape-rendering="crispEdges" fill="rgb(32, 65, 74)"  x="19" y="9" width="1" height="1" /><rect shape-rendering="crispEdges" fill="rgb(32, 65, 74)"  x="19" y="10" width="1" height="1" /><rect shape-rendering="crispEdges" fill="rgb(32, 65, 74)"  x="19" y="11" width="1" height="1" /><rect shape-rendering="crispEdges" fill="rgb(32, 65, 74)"  x="19" y="12" width="1" height="1" /><rect shape-rendering="crispEdges" fill="rgb(32, 65, 74)"  x="19" y="13" width="1" height="1" /><rect shape-rendering="crispEdges" fill="rgb(49, 98, 98)"  x="19" y="14" width="1" height="1" /><rect shape-rendering="crispEdges" fill="rgb(32, 65, 74)"  x="19" y="15" width="1" height="1" /><rect shape-rendering="crispEdges" fill="rgb(139, 82, 49)"  x="19" y="16" width="1" height="1" /><rect shape-rendering="crispEdges" fill="rgb(139, 82, 49)"  x="19" y="17" width="1" height="1" /><rect shape-rendering="crispEdges" fill="rgb(115, 57, 32)"  x="19" y="18" width="1" height="1" /><rect shape-rendering="crispEdges" fill="rgb(32, 65, 74)"  x="20" y="7" width="1" height="1" /><rect shape-rendering="crispEdges" fill="rgb(32, 65, 74)"  x="20" y="8" width="1" height="1" /><rect shape-rendering="crispEdges" fill="rgb(32, 65, 74)"  x="20" y="11" width="1" height="1" /><rect shape-rendering="crispEdges" fill="rgb(32, 65, 74)"  x="20" y="12" width="1" height="1" /><rect shape-rendering="crispEdges" fill="rgb(49, 98, 98)"  x="20" y="13" width="1" height="1" /><rect shape-rendering="crispEdges" fill="rgb(49, 98, 98)"  x="20" y="14" width="1" height="1" /><rect shape-rendering="crispEdges" fill="rgb(32, 65, 74)"  x="20" y="15" width="1" height="1" /><rect shape-rendering="crispEdges" fill="rgb(139, 82, 49)"  x="20" y="16" width="1" height="1" /><rect shape-rendering="crispEdges" fill="rgb(164, 98, 65)"  x="20" y="17" width="1" height="1" /><rect shape-rendering="crispEdges" fill="rgb(164, 98, 65)"  x="20" y="18" width="1" height="1" /><rect shape-rendering="crispEdges" fill="rgb(115, 57, 32)"  x="20" y="19" width="1" height="1" /><rect shape-rendering="crispEdges" fill="rgb(49, 98, 98)"  x="21" y="6" width="1" height="1" /><rect shape-rendering="crispEdges" fill="rgb(32, 65, 74)"  x="21" y="8" width="1" height="1" /><rect shape-rendering="crispEdges" fill="rgb(49, 98, 98)"  x="21" y="12" width="1" height="1" /><rect shape-rendering="crispEdges" fill="rgb(32, 65, 74)"  x="21" y="13" width="1" height="1" /><rect shape-rendering="crispEdges" fill="rgb(49, 98, 98)"  x="21" y="14" width="1" height="1" /><rect shape-rendering="crispEdges" fill="rgb(32, 65, 74)"  x="21" y="15" width="1" height="1" /><rect shape-rendering="crispEdges" fill="rgb(115, 57, 32)"  x="21" y="16" width="1" height="1" /><rect shape-rendering="crispEdges" fill="rgb(164, 98, 65)"  x="21" y="17" width="1" height="1" /><rect shape-rendering="crispEdges" fill="rgb(164, 98, 65)"  x="21" y="18" width="1" height="1" /><rect shape-rendering="crispEdges" fill="rgb(65, 82, 57)"  x="21" y="19" width="1" height="1" /><rect shape-rendering="crispEdges" fill="rgb(49, 98, 98)"  x="21" y="20" width="1" height="1" /><rect shape-rendering="crispEdges" fill="rgb(49, 98, 98)"  x="22" y="6" width="1" height="1" /><rect shape-rendering="crispEdges" fill="rgb(32, 65, 74)"  x="22" y="7" width="1" height="1" /><rect shape-rendering="crispEdges" fill="rgb(49, 98, 98)"  x="22" y="8" width="1" height="1" /><rect shape-rendering="crispEdges" fill="rgb(49, 98, 98)"  x="22" y="9" width="1" height="1" /><rect shape-rendering="crispEdges" fill="rgb(49, 98, 98)"  x="22" y="10" width="1" height="1" /><rect shape-rendering="crispEdges" fill="rgb(49, 98, 98)"  x="22" y="11" width="1" height="1" /><rect shape-rendering="crispEdges" fill="rgb(32, 65, 74)"  x="22" y="12" width="1" height="1" /><rect shape-rendering="crispEdges" fill="rgb(32, 65, 74)"  x="22" y="13" width="1" height="1" /><rect shape-rendering="crispEdges" fill="rgb(49, 98, 98)"  x="22" y="14" width="1" height="1" /><rect shape-rendering="crispEdges" fill="rgb(32, 65, 74)"  x="22" y="15" width="1" height="1" /><rect shape-rendering="crispEdges" fill="rgb(115, 57, 32)"  x="22" y="17" width="1" height="1" /><rect shape-rendering="crispEdges" fill="rgb(65, 82, 57)"  x="22" y="18" width="1" height="1" /><rect shape-rendering="crispEdges" fill="rgb(49, 98, 98)"  x="22" y="19" width="1" height="1" /><rect shape-rendering="crispEdges" fill="rgb(65, 131, 131)"  x="22" y="20" width="1" height="1" /><rect shape-rendering="crispEdges" fill="rgb(49, 98, 98)"  x="22" y="21" width="1" height="1" /><rect shape-rendering="crispEdges" fill="rgb(49, 98, 98)"  x="23" y="6" width="1" height="1" /><rect shape-rendering="crispEdges" fill="rgb(32, 65, 74)"  x="23" y="7" width="1" height="1" /><rect shape-rendering="crispEdges" fill="rgb(32, 65, 74)"  x="23" y="8" width="1" height="1" /><rect shape-rendering="crispEdges" fill="rgb(49, 98, 98)"  x="23" y="9" width="1" height="1" /><rect shape-rendering="crispEdges" fill="rgb(49, 98, 98)"  x="23" y="10" width="1" height="1" /><rect shape-rendering="crispEdges" fill="rgb(49, 98, 98)"  x="23" y="11" width="1" height="1" /><rect shape-rendering="crispEdges" fill="rgb(49, 98, 98)"  x="23" y="12" width="1" height="1" /><rect shape-rendering="crispEdges" fill="rgb(49, 98, 98)"  x="23" y="13" width="1" height="1" /><rect shape-rendering="crispEdges" fill="rgb(32, 65, 74)"  x="23" y="14" width="1" height="1" /><rect shape-rendering="crispEdges" fill="rgb(164, 230, 230)"  x="23" y="15" width="1" height="1" /><rect shape-rendering="crispEdges" fill="rgb(65, 82, 57)"  x="23" y="18" width="1" height="1" /><rect shape-rendering="crispEdges" fill="rgb(32, 65, 74)"  x="23" y="19" width="1" height="1" /><rect shape-rendering="crispEdges" fill="rgb(82, 156, 164)"  x="23" y="20" width="1" height="1" /><rect shape-rendering="crispEdges" fill="rgb(65, 131, 131)"  x="23" y="21" width="1" height="1" /><rect shape-rendering="crispEdges" fill="rgb(49, 98, 98)"  x="23" y="22" width="1" height="1" /><rect shape-rendering="crispEdges" fill="rgb(65, 131, 131)"  x="24" y="6" width="1" height="1" /><rect shape-rendering="crispEdges" fill="rgb(32, 65, 74)"  x="24" y="7" width="1" height="1" /><rect shape-rendering="crispEdges" fill="rgb(32, 65, 74)"  x="24" y="8" width="1" height="1" /><rect shape-rendering="crispEdges" fill="rgb(32, 65, 74)"  x="24" y="9" width="1" height="1" /><rect shape-rendering="crispEdges" fill="rgb(32, 65, 74)"  x="24" y="10" width="1" height="1" /><rect shape-rendering="crispEdges" fill="rgb(32, 65, 74)"  x="24" y="11" width="1" height="1" /><rect shape-rendering="crispEdges" fill="rgb(32, 65, 74)"  x="24" y="12" width="1" height="1" /><rect shape-rendering="crispEdges" fill="rgb(32, 65, 74)"  x="24" y="13" width="1" height="1" /><rect shape-rendering="crispEdges" fill="rgb(164, 230, 230)"  x="24" y="14" width="1" height="1" /><rect shape-rendering="crispEdges" fill="rgb(189, 255, 255)"  x="24" y="15" width="1" height="1" /><rect shape-rendering="crispEdges" fill="rgb(65, 82, 57)"  x="24" y="19" width="1" height="1" /><rect shape-rendering="crispEdges" fill="rgb(32, 65, 74)"  x="24" y="20" width="1" height="1" /><rect shape-rendering="crispEdges" fill="rgb(82, 156, 164)"  x="24" y="21" width="1" height="1" /><rect shape-rendering="crispEdges" fill="rgb(0, 82, 0)"  x="24" y="22" width="1" height="1" /><rect shape-rendering="crispEdges" fill="rgb(0, 82, 0)"  x="24" y="23" width="1" height="1" /><rect shape-rendering="crispEdges" fill="rgb(0, 49, 0)"  x="24" y="24" width="1" height="1" /><rect shape-rendering="crispEdges" fill="rgb(0, 49, 0)"  x="24" y="25" width="1" height="1" /><rect shape-rendering="crispEdges" fill="rgb(164, 230, 230)"  x="25" y="6" width="1" height="1" /><rect shape-rendering="crispEdges" fill="rgb(164, 230, 230)"  x="25" y="7" width="1" height="1" /><rect shape-rendering="crispEdges" fill="rgb(164, 230, 230)"  x="25" y="8" width="1" height="1" /><rect shape-rendering="crispEdges" fill="rgb(189, 255, 255)"  x="25" y="9" width="1" height="1" /><rect shape-rendering="crispEdges" fill="rgb(189, 255, 255)"  x="25" y="10" width="1" height="1" /><rect shape-rendering="crispEdges" fill="rgb(189, 255, 255)"  x="25" y="11" width="1" height="1" /><rect shape-rendering="crispEdges" fill="rgb(189, 255, 255)"  x="25" y="12" width="1" height="1" /><rect shape-rendering="crispEdges" fill="rgb(189, 255, 255)"  x="25" y="13" width="1" height="1" /><rect shape-rendering="crispEdges" fill="rgb(189, 255, 255)"  x="25" y="14" width="1" height="1" /><rect shape-rendering="crispEdges" fill="rgb(65, 82, 57)"  x="25" y="20" width="1" height="1" /><rect shape-rendering="crispEdges" fill="rgb(0, 82, 0)"  x="25" y="21" width="1" height="1" /><rect shape-rendering="crispEdges" fill="rgb(49, 98, 98)"  x="25" y="22" width="1" height="1" /><rect shape-rendering="crispEdges" fill="rgb(0, 49, 0)"  x="25" y="23" width="1" height="1" /><rect shape-rendering="crispEdges" fill="rgb(131, 213, 213)"  x="25" y="24" width="1" height="1" /><rect shape-rendering="crispEdges" fill="rgb(82, 156, 164)"  x="25" y="25" width="1" height="1" /><rect shape-rendering="crispEdges" fill="rgb(0, 49, 0)"  x="25" y="26" width="1" height="1" /><rect shape-rendering="crispEdges" fill="rgb(189, 255, 255)"  x="26" y="6" width="1" height="1" /><rect shape-rendering="crispEdges" fill="rgb(189, 255, 255)"  x="26" y="7" width="1" height="1" /><rect shape-rendering="crispEdges" fill="rgb(189, 255, 255)"  x="26" y="8" width="1" height="1" /><rect shape-rendering="crispEdges" fill="rgb(189, 255, 255)"  x="26" y="9" width="1" height="1" /><rect shape-rendering="crispEdges" fill="rgb(189, 255, 255)"  x="26" y="10" width="1" height="1" /><rect shape-rendering="crispEdges" fill="rgb(189, 255, 255)"  x="26" y="11" width="1" height="1" /><rect shape-rendering="crispEdges" fill="rgb(189, 255, 255)"  x="26" y="12" width="1" height="1" /><rect shape-rendering="crispEdges" fill="rgb(189, 255, 255)"  x="26" y="13" width="1" height="1" /><rect shape-rendering="crispEdges" fill="rgb(0, 82, 0)"  x="26" y="21" width="1" height="1" /><rect shape-rendering="crispEdges" fill="rgb(0, 49, 0)"  x="26" y="22" width="1" height="1" /><rect shape-rendering="crispEdges" fill="rgb(131, 213, 213)"  x="26" y="23" width="1" height="1" /><rect shape-rendering="crispEdges" fill="rgb(82, 156, 164)"  x="26" y="24" width="1" height="1" /><rect shape-rendering="crispEdges" fill="rgb(65, 131, 131)"  x="26" y="25" width="1" height="1" /><rect shape-rendering="crispEdges" fill="rgb(82, 156, 164)"  x="26" y="26" width="1" height="1" /><rect shape-rendering="crispEdges" fill="rgb(0, 49, 0)"  x="26" y="27" width="1" height="1" /><rect shape-rendering="crispEdges" fill="rgb(0, 49, 0)"  x="27" y="21" width="1" height="1" /><rect shape-rendering="crispEdges" fill="rgb(98, 189, 189)"  x="27" y="22" width="1" height="1" /><rect shape-rendering="crispEdges" fill="rgb(65, 131, 131)"  x="27" y="23" width="1" height="1" /><rect shape-rendering="crispEdges" fill="rgb(49, 98, 98)"  x="27" y="24" width="1" height="1" /><rect shape-rendering="crispEdges" fill="rgb(65, 131, 131)"  x="27" y="25" width="1" height="1" /><rect shape-rendering="crispEdges" fill="rgb(106, 106, 106)"  x="27" y="26" width="1" height="1" /><rect shape-rendering="crispEdges" fill="rgb(0, 49, 0)"  x="27" y="27" width="1" height="1" /><rect shape-rendering="crispEdges" fill="rgb(0, 49, 0)"  x="28" y="21" width="1" height="1" /><rect shape-rendering="crispEdges" fill="rgb(82, 156, 164)"  x="28" y="22" width="1" height="1" /><rect shape-rendering="crispEdges" fill="rgb(65, 131, 131)"  x="28" y="23" width="1" height="1" /><rect shape-rendering="crispEdges" fill="rgb(65, 131, 131)"  x="28" y="24" width="1" height="1" /><rect shape-rendering="crispEdges" fill="rgb(65, 131, 131)"  x="28" y="25" width="1" height="1" /><rect shape-rendering="crispEdges" fill="rgb(0, 49, 0)"  x="28" y="26" width="1" height="1" /><rect shape-rendering="crispEdges" fill="rgb(0, 49, 0)"  x="29" y="22" width="1" height="1" /><rect shape-rendering="crispEdges" fill="rgb(82, 156, 164)"  x="29" y="23" width="1" height="1" /><rect shape-rendering="crispEdges" fill="rgb(106, 106, 106)"  x="29" y="24" width="1" height="1" /><rect shape-rendering="crispEdges" fill="rgb(0, 49, 0)"  x="29" y="25" width="1" height="1" /><rect shape-rendering="crispEdges" fill="rgb(0, 49, 0)"  x="30" y="23" width="1" height="1" /><rect shape-rendering="crispEdges" fill="rgb(0, 49, 0)"  x="30" y="24" width="1" height="1" /></svg>