<svg xmlns="http://www.w3.org/2000/svg" xmlns:xlink= "http://www.w3.org/1999/xlink" width="32" height="32" viewBox ="0 0 32 32"><rect shape-rendering="crispEdges" fill="rgb(16, 82, 131)"  x="2" y="17" width="1" height="1" /><rect shape-rendering="crispEdges" fill="rgb(16, 82, 131)"  x="2" y="18" width="1" height="1" /><rect shape-rendering="crispEdges" fill="rgb(16, 82, 131)"  x="3" y="16" width="1" height="1" /><rect shape-rendering="crispEdges" fill="rgb(123, 156, 180)"  x="3" y="17" width="1" height="1" /><rect shape-rendering="crispEdges" fill="rgb(123, 156, 180)"  x="3" y="18" width="1" height="1" /><rect shape-rendering="crispEdges" fill="rgb(16, 82, 131)"  x="3" y="19" width="1" height="1" /><rect shape-rendering="crispEdges" fill="rgb(16, 82, 131)"  x="4" y="15" width="1" height="1" /><rect shape-rendering="crispEdges" fill="rgb(16, 82, 131)"  x="4" y="16" width="1" height="1" /><rect shape-rendering="crispEdges" fill="rgb(74, 115, 156)"  x="4" y="17" width="1" height="1" /><rect shape-rendering="crispEdges" fill="rgb(123, 156, 180)"  x="4" y="18" width="1" height="1" /><rect shape-rendering="crispEdges" fill="rgb(123, 156, 180)"  x="4" y="19" width="1" height="1" /><rect shape-rendering="crispEdges" fill="rgb(74, 115, 156)"  x="4" y="20" width="1" height="1" /><rect shape-rendering="crispEdges" fill="rgb(16, 82, 131)"  x="5" y="14" width="1" height="1" /><rect shape-rendering="crispEdges" fill="rgb(74, 115, 156)"  x="5" y="15" width="1" height="1" /><rect shape-rendering="crispEdges" fill="rgb(16, 82, 131)"  x="5" y="16" width="1" height="1" /><rect shape-rendering="crispEdges" fill="rgb(74, 115, 156)"  x="5" y="17" width="1" height="1" /><rect shape-rendering="crispEdges" fill="rgb(32, 32, 24)"  x="5" y="18" width="1" height="1" /><rect shape-rendering="crispEdges" fill="rgb(65, 131, 131)"  x="5" y="19" width="1" height="1" /><rect shape-rendering="crispEdges" fill="rgb(65, 131, 131)"  x="5" y="20" width="1" height="1" /><rect shape-rendering="crispEdges" fill="rgb(74, 115, 156)"  x="5" y="21" width="1" height="1" /><rect shape-rendering="crispEdges" fill="rgb(16, 82, 131)"  x="6" y="13" width="1" height="1" /><rect shape-rendering="crispEdges" fill="rgb(74, 115, 156)"  x="6" y="14" width="1" height="1" /><rect shape-rendering="crispEdges" fill="rgb(74, 115, 156)"  x="6" y="15" width="1" height="1" /><rect shape-rendering="crispEdges" fill="rgb(16, 82, 131)"  x="6" y="16" width="1" height="1" /><rect shape-rendering="crispEdges" fill="rgb(74, 115, 156)"  x="6" y="17" width="1" height="1" /><rect shape-rendering="crispEdges" fill="rgb(49, 98, 98)"  x="6" y="18" width="1" height="1" /><rect shape-rendering="crispEdges" fill="rgb(65, 131, 131)"  x="6" y="19" width="1" height="1" /><rect shape-rendering="crispEdges" fill="rgb(32, 32, 24)"  x="6" y="20" width="1" height="1" /><rect shape-rendering="crispEdges" fill="rgb(123, 156, 180)"  x="6" y="21" width="1" height="1" /><rect shape-rendering="crispEdges" fill="rgb(74, 115, 156)"  x="6" y="22" width="1" height="1" /><rect shape-rendering="crispEdges" fill="rgb(16, 82, 131)"  x="7" y="12" width="1" height="1" /><rect shape-rendering="crispEdges" fill="rgb(123, 156, 180)"  x="7" y="13" width="1" height="1" /><rect shape-rendering="crispEdges" fill="rgb(74, 115, 156)"  x="7" y="14" width="1" height="1" /><rect shape-rendering="crispEdges" fill="rgb(74, 115, 156)"  x="7" y="15" width="1" height="1" /><rect shape-rendering="crispEdges" fill="rgb(49, 98, 98)"  x="7" y="16" width="1" height="1" /><rect shape-rendering="crispEdges" fill="rgb(82, 156, 164)"  x="7" y="17" width="1" height="1" /><rect shape-rendering="crispEdges" fill="rgb(82, 156, 164)"  x="7" y="18" width="1" height="1" /><rect shape-rendering="crispEdges" fill="rgb(98, 189, 189)"  x="7" y="19" width="1" height="1" /><rect shape-rendering="crispEdges" fill="rgb(65, 131, 131)"  x="7" y="20" width="1" height="1" /><rect shape-rendering="crispEdges" fill="rgb(65, 131, 131)"  x="7" y="21" width="1" height="1" /><rect shape-rendering="crispEdges" fill="rgb(82, 156, 164)"  x="7" y="22" width="1" height="1" /><rect shape-rendering="crispEdges" fill="rgb(74, 115, 156)"  x="7" y="23" width="1" height="1" /><rect shape-rendering="crispEdges" fill="rgb(16, 65, 106)"  x="8" y="11" width="1" height="1" /><rect shape-rendering="crispEdges" fill="rgb(123, 156, 180)"  x="8" y="12" width="1" height="1" /><rect shape-rendering="crispEdges" fill="rgb(74, 115, 156)"  x="8" y="13" width="1" height="1" /><rect shape-rendering="crispEdges" fill="rgb(74, 115, 156)"  x="8" y="14" width="1" height="1" /><rect shape-rendering="crispEdges" fill="rgb(16, 65, 106)"  x="8" y="15" width="1" height="1" /><rect shape-rendering="crispEdges" fill="rgb(148, 148, 148)"  x="8" y="16" width="1" height="1" /><rect shape-rendering="crispEdges" fill="rgb(180, 180, 180)"  x="8" y="17" width="1" height="1" /><rect shape-rendering="crispEdges" fill="rgb(180, 180, 180)"  x="8" y="18" width="1" height="1" /><rect shape-rendering="crispEdges" fill="rgb(180, 180, 180)"  x="8" y="19" width="1" height="1" /><rect shape-rendering="crispEdges" fill="rgb(180, 180, 180)"  x="8" y="20" width="1" height="1" /><rect shape-rendering="crispEdges" fill="rgb(82, 156, 164)"  x="8" y="21" width="1" height="1" /><rect shape-rendering="crispEdges" fill="rgb(82, 156, 164)"  x="8" y="22" width="1" height="1" /><rect shape-rendering="crispEdges" fill="rgb(74, 115, 156)"  x="8" y="23" width="1" height="1" /><rect shape-rendering="crispEdges" fill="rgb(8, 32, 57)"  x="9" y="5" width="1" height="1" /><rect shape-rendering="crispEdges" fill="rgb(8, 32, 57)"  x="9" y="6" width="1" height="1" /><rect shape-rendering="crispEdges" fill="rgb(8, 32, 57)"  x="9" y="7" width="1" height="1" /><rect shape-rendering="crispEdges" fill="rgb(8, 32, 57)"  x="9" y="10" width="1" height="1" /><rect shape-rendering="crispEdges" fill="rgb(16, 82, 131)"  x="9" y="11" width="1" height="1" /><rect shape-rendering="crispEdges" fill="rgb(74, 115, 156)"  x="9" y="12" width="1" height="1" /><rect shape-rendering="crispEdges" fill="rgb(74, 115, 156)"  x="9" y="13" width="1" height="1" /><rect shape-rendering="crispEdges" fill="rgb(16, 65, 106)"  x="9" y="14" width="1" height="1" /><rect shape-rendering="crispEdges" fill="rgb(82, 156, 164)"  x="9" y="15" width="1" height="1" /><rect shape-rendering="crispEdges" fill="rgb(180, 180, 180)"  x="9" y="16" width="1" height="1" /><rect shape-rendering="crispEdges" fill="rgb(123, 156, 180)"  x="9" y="17" width="1" height="1" /><rect shape-rendering="crispEdges" fill="rgb(74, 115, 156)"  x="9" y="18" width="1" height="1" /><rect shape-rendering="crispEdges" fill="rgb(123, 156, 180)"  x="9" y="19" width="1" height="1" /><rect shape-rendering="crispEdges" fill="rgb(123, 156, 180)"  x="9" y="20" width="1" height="1" /><rect shape-rendering="crispEdges" fill="rgb(180, 180, 180)"  x="9" y="21" width="1" height="1" /><rect shape-rendering="crispEdges" fill="rgb(180, 180, 180)"  x="9" y="22" width="1" height="1" /><rect shape-rendering="crispEdges" fill="rgb(180, 180, 180)"  x="9" y="23" width="1" height="1" /><rect shape-rendering="crispEdges" fill="rgb(8, 32, 57)"  x="10" y="4" width="1" height="1" /><rect shape-rendering="crispEdges" fill="rgb(16, 82, 131)"  x="10" y="5" width="1" height="1" /><rect shape-rendering="crispEdges" fill="rgb(74, 115, 156)"  x="10" y="6" width="1" height="1" /><rect shape-rendering="crispEdges" fill="rgb(74, 115, 156)"  x="10" y="7" width="1" height="1" /><rect shape-rendering="crispEdges" fill="rgb(8, 32, 57)"  x="10" y="8" width="1" height="1" /><rect shape-rendering="crispEdges" fill="rgb(16, 65, 57)"  x="10" y="9" width="1" height="1" /><rect shape-rendering="crispEdges" fill="rgb(16, 82, 131)"  x="10" y="10" width="1" height="1" /><rect shape-rendering="crispEdges" fill="rgb(74, 115, 156)"  x="10" y="11" width="1" height="1" /><rect shape-rendering="crispEdges" fill="rgb(74, 115, 156)"  x="10" y="12" width="1" height="1" /><rect shape-rendering="crispEdges" fill="rgb(16, 82, 131)"  x="10" y="13" width="1" height="1" /><rect shape-rendering="crispEdges" fill="rgb(180, 180, 180)"  x="10" y="14" width="1" height="1" /><rect shape-rendering="crispEdges" fill="rgb(180, 180, 180)"  x="10" y="15" width="1" height="1" /><rect shape-rendering="crispEdges" fill="rgb(123, 156, 180)"  x="10" y="16" width="1" height="1" /><rect shape-rendering="crispEdges" fill="rgb(16, 82, 131)"  x="10" y="17" width="1" height="1" /><rect shape-rendering="crispEdges" fill="rgb(123, 156, 180)"  x="10" y="21" width="1" height="1" /><rect shape-rendering="crispEdges" fill="rgb(123, 156, 180)"  x="10" y="22" width="1" height="1" /><rect shape-rendering="crispEdges" fill="rgb(123, 156, 180)"  x="10" y="23" width="1" height="1" /><rect shape-rendering="crispEdges" fill="rgb(8, 32, 57)"  x="11" y="4" width="1" height="1" /><rect shape-rendering="crispEdges" fill="rgb(16, 82, 131)"  x="11" y="5" width="1" height="1" /><rect shape-rendering="crispEdges" fill="rgb(16, 82, 131)"  x="11" y="6" width="1" height="1" /><rect shape-rendering="crispEdges" fill="rgb(16, 65, 106)"  x="11" y="7" width="1" height="1" /><rect shape-rendering="crispEdges" fill="rgb(74, 115, 156)"  x="11" y="8" width="1" height="1" /><rect shape-rendering="crispEdges" fill="rgb(74, 115, 156)"  x="11" y="9" width="1" height="1" /><rect shape-rendering="crispEdges" fill="rgb(16, 82, 131)"  x="11" y="10" width="1" height="1" /><rect shape-rendering="crispEdges" fill="rgb(16, 82, 131)"  x="11" y="11" width="1" height="1" /><rect shape-rendering="crispEdges" fill="rgb(16, 82, 131)"  x="11" y="12" width="1" height="1" /><rect shape-rendering="crispEdges" fill="rgb(16, 82, 131)"  x="11" y="13" width="1" height="1" /><rect shape-rendering="crispEdges" fill="rgb(180, 180, 180)"  x="11" y="14" width="1" height="1" /><rect shape-rendering="crispEdges" fill="rgb(180, 180, 180)"  x="11" y="15" width="1" height="1" /><rect shape-rendering="crispEdges" fill="rgb(74, 115, 156)"  x="11" y="16" width="1" height="1" /><rect shape-rendering="crispEdges" fill="rgb(16, 82, 131)"  x="12" y="5" width="1" height="1" /><rect shape-rendering="crispEdges" fill="rgb(16, 65, 106)"  x="12" y="6" width="1" height="1" /><rect shape-rendering="crispEdges" fill="rgb(16, 82, 131)"  x="12" y="7" width="1" height="1" /><rect shape-rendering="crispEdges" fill="rgb(16, 65, 106)"  x="12" y="8" width="1" height="1" /><rect shape-rendering="crispEdges" fill="rgb(16, 82, 131)"  x="12" y="9" width="1" height="1" /><rect shape-rendering="crispEdges" fill="rgb(16, 82, 131)"  x="12" y="10" width="1" height="1" /><rect shape-rendering="crispEdges" fill="rgb(74, 115, 156)"  x="12" y="11" width="1" height="1" /><rect shape-rendering="crispEdges" fill="rgb(74, 115, 156)"  x="12" y="12" width="1" height="1" /><rect shape-rendering="crispEdges" fill="rgb(8, 90, 82)"  x="12" y="13" width="1" height="1" /><rect shape-rendering="crispEdges" fill="rgb(74, 115, 156)"  x="12" y="14" width="1" height="1" /><rect shape-rendering="crispEdges" fill="rgb(180, 180, 180)"  x="12" y="15" width="1" height="1" /><rect shape-rendering="crispEdges" fill="rgb(74, 115, 156)"  x="12" y="16" width="1" height="1" /><rect shape-rendering="crispEdges" fill="rgb(8, 32, 57)"  x="13" y="5" width="1" height="1" /><rect shape-rendering="crispEdges" fill="rgb(16, 82, 131)"  x="13" y="6" width="1" height="1" /><rect shape-rendering="crispEdges" fill="rgb(16, 82, 131)"  x="13" y="7" width="1" height="1" /><rect shape-rendering="crispEdges" fill="rgb(16, 82, 131)"  x="13" y="8" width="1" height="1" /><rect shape-rendering="crispEdges" fill="rgb(98, 189, 189)"  x="13" y="9" width="1" height="1" /><rect shape-rendering="crispEdges" fill="rgb(131, 213, 213)"  x="13" y="10" width="1" height="1" /><rect shape-rendering="crispEdges" fill="rgb(131, 213, 213)"  x="13" y="11" width="1" height="1" /><rect shape-rendering="crispEdges" fill="rgb(131, 213, 213)"  x="13" y="12" width="1" height="1" /><rect shape-rendering="crispEdges" fill="rgb(74, 115, 156)"  x="13" y="13" width="1" height="1" /><rect shape-rendering="crispEdges" fill="rgb(16, 65, 106)"  x="13" y="14" width="1" height="1" /><rect shape-rendering="crispEdges" fill="rgb(180, 180, 180)"  x="13" y="15" width="1" height="1" /><rect shape-rendering="crispEdges" fill="rgb(180, 180, 180)"  x="13" y="16" width="1" height="1" /><rect shape-rendering="crispEdges" fill="rgb(74, 115, 156)"  x="13" y="17" width="1" height="1" /><rect shape-rendering="crispEdges" fill="rgb(8, 32, 57)"  x="14" y="5" width="1" height="1" /><rect shape-rendering="crispEdges" fill="rgb(16, 82, 131)"  x="14" y="6" width="1" height="1" /><rect shape-rendering="crispEdges" fill="rgb(16, 82, 131)"  x="14" y="7" width="1" height="1" /><rect shape-rendering="crispEdges" fill="rgb(98, 189, 189)"  x="14" y="8" width="1" height="1" /><rect shape-rendering="crispEdges" fill="rgb(98, 189, 189)"  x="14" y="9" width="1" height="1" /><rect shape-rendering="crispEdges" fill="rgb(98, 189, 189)"  x="14" y="10" width="1" height="1" /><rect shape-rendering="crispEdges" fill="rgb(98, 189, 189)"  x="14" y="11" width="1" height="1" /><rect shape-rendering="crispEdges" fill="rgb(98, 189, 189)"  x="14" y="12" width="1" height="1" /><rect shape-rendering="crispEdges" fill="rgb(131, 213, 213)"  x="14" y="13" width="1" height="1" /><rect shape-rendering="crispEdges" fill="rgb(16, 65, 106)"  x="14" y="14" width="1" height="1" /><rect shape-rendering="crispEdges" fill="rgb(74, 115, 156)"  x="14" y="15" width="1" height="1" /><rect shape-rendering="crispEdges" fill="rgb(180, 180, 180)"  x="14" y="16" width="1" height="1" /><rect shape-rendering="crispEdges" fill="rgb(74, 115, 156)"  x="14" y="17" width="1" height="1" /><rect shape-rendering="crispEdges" fill="rgb(57, 32, 16)"  x="15" y="5" width="1" height="1" /><rect shape-rendering="crispEdges" fill="rgb(49, 98, 98)"  x="15" y="6" width="1" height="1" /><rect shape-rendering="crispEdges" fill="rgb(98, 189, 189)"  x="15" y="7" width="1" height="1" /><rect shape-rendering="crispEdges" fill="rgb(82, 156, 164)"  x="15" y="8" width="1" height="1" /><rect shape-rendering="crispEdges" fill="rgb(16, 82, 131)"  x="15" y="9" width="1" height="1" /><rect shape-rendering="crispEdges" fill="rgb(16, 65, 106)"  x="15" y="10" width="1" height="1" /><rect shape-rendering="crispEdges" fill="rgb(65, 131, 131)"  x="15" y="11" width="1" height="1" /><rect shape-rendering="crispEdges" fill="rgb(82, 156, 164)"  x="15" y="12" width="1" height="1" /><rect shape-rendering="crispEdges" fill="rgb(131, 213, 213)"  x="15" y="13" width="1" height="1" /><rect shape-rendering="crispEdges" fill="rgb(16, 65, 106)"  x="15" y="14" width="1" height="1" /><rect shape-rendering="crispEdges" fill="rgb(65, 82, 57)"  x="15" y="15" width="1" height="1" /><rect shape-rendering="crispEdges" fill="rgb(57, 32, 16)"  x="15" y="16" width="1" height="1" /><rect shape-rendering="crispEdges" fill="rgb(74, 115, 156)"  x="15" y="17" width="1" height="1" /><rect shape-rendering="crispEdges" fill="rgb(57, 32, 16)"  x="16" y="5" width="1" height="1" /><rect shape-rendering="crispEdges" fill="rgb(49, 98, 98)"  x="16" y="6" width="1" height="1" /><rect shape-rendering="crispEdges" fill="rgb(82, 156, 164)"  x="16" y="7" width="1" height="1" /><rect shape-rendering="crispEdges" fill="rgb(16, 82, 131)"  x="16" y="8" width="1" height="1" /><rect shape-rendering="crispEdges" fill="rgb(16, 65, 106)"  x="16" y="9" width="1" height="1" /><rect shape-rendering="crispEdges" fill="rgb(16, 65, 106)"  x="16" y="10" width="1" height="1" /><rect shape-rendering="crispEdges" fill="rgb(65, 131, 131)"  x="16" y="11" width="1" height="1" /><rect shape-rendering="crispEdges" fill="rgb(65, 131, 131)"  x="16" y="12" width="1" height="1" /><rect shape-rendering="crispEdges" fill="rgb(131, 213, 213)"  x="16" y="13" width="1" height="1" /><rect shape-rendering="crispEdges" fill="rgb(0, 49, 0)"  x="16" y="14" width="1" height="1" /><rect shape-rendering="crispEdges" fill="rgb(98, 57, 24)"  x="16" y="15" width="1" height="1" /><rect shape-rendering="crispEdges" fill="rgb(98, 74, 41)"  x="16" y="16" width="1" height="1" /><rect shape-rendering="crispEdges" fill="rgb(98, 74, 41)"  x="16" y="17" width="1" height="1" /><rect shape-rendering="crispEdges" fill="rgb(65, 82, 57)"  x="16" y="18" width="1" height="1" /><rect shape-rendering="crispEdges" fill="rgb(65, 82, 57)"  x="17" y="5" width="1" height="1" /><rect shape-rendering="crispEdges" fill="rgb(32, 32, 24)"  x="17" y="6" width="1" height="1" /><rect shape-rendering="crispEdges" fill="rgb(49, 98, 98)"  x="17" y="7" width="1" height="1" /><rect shape-rendering="crispEdges" fill="rgb(16, 65, 106)"  x="17" y="8" width="1" height="1" /><rect shape-rendering="crispEdges" fill="rgb(49, 98, 98)"  x="17" y="9" width="1" height="1" /><rect shape-rendering="crispEdges" fill="rgb(65, 131, 131)"  x="17" y="10" width="1" height="1" /><rect shape-rendering="crispEdges" fill="rgb(65, 131, 131)"  x="17" y="11" width="1" height="1" /><rect shape-rendering="crispEdges" fill="rgb(65, 131, 131)"  x="17" y="12" width="1" height="1" /><rect shape-rendering="crispEdges" fill="rgb(65, 131, 131)"  x="17" y="13" width="1" height="1" /><rect shape-rendering="crispEdges" fill="rgb(98, 74, 41)"  x="17" y="15" width="1" height="1" /><rect shape-rendering="crispEdges" fill="rgb(115, 98, 49)"  x="17" y="16" width="1" height="1" /><rect shape-rendering="crispEdges" fill="rgb(131, 139, 57)"  x="17" y="17" width="1" height="1" /><rect shape-rendering="crispEdges" fill="rgb(98, 74, 41)"  x="17" y="18" width="1" height="1" /><rect shape-rendering="crispEdges" fill="rgb(65, 82, 57)"  x="17" y="19" width="1" height="1" /><rect shape-rendering="crispEdges" fill="rgb(90, 115, 41)"  x="18" y="5" width="1" height="1" /><rect shape-rendering="crispEdges" fill="rgb(65, 82, 57)"  x="18" y="6" width="1" height="1" /><rect shape-rendering="crispEdges" fill="rgb(32, 32, 24)"  x="18" y="7" width="1" height="1" /><rect shape-rendering="crispEdges" fill="rgb(32, 32, 24)"  x="18" y="8" width="1" height="1" /><rect shape-rendering="crispEdges" fill="rgb(49, 98, 98)"  x="18" y="9" width="1" height="1" /><rect shape-rendering="crispEdges" fill="rgb(49, 98, 98)"  x="18" y="10" width="1" height="1" /><rect shape-rendering="crispEdges" fill="rgb(49, 98, 98)"  x="18" y="11" width="1" height="1" /><rect shape-rendering="crispEdges" fill="rgb(98, 74, 41)"  x="18" y="16" width="1" height="1" /><rect shape-rendering="crispEdges" fill="rgb(115, 98, 49)"  x="18" y="17" width="1" height="1" /><rect shape-rendering="crispEdges" fill="rgb(115, 98, 49)"  x="18" y="18" width="1" height="1" /><rect shape-rendering="crispEdges" fill="rgb(180, 139, 90)"  x="18" y="19" width="1" height="1" /><rect shape-rendering="crispEdges" fill="rgb(148, 148, 148)"  x="18" y="20" width="1" height="1" /><rect shape-rendering="crispEdges" fill="rgb(65, 82, 57)"  x="19" y="4" width="1" height="1" /><rect shape-rendering="crispEdges" fill="rgb(115, 148, 24)"  x="19" y="5" width="1" height="1" /><rect shape-rendering="crispEdges" fill="rgb(90, 115, 41)"  x="19" y="6" width="1" height="1" /><rect shape-rendering="crispEdges" fill="rgb(65, 82, 57)"  x="19" y="7" width="1" height="1" /><rect shape-rendering="crispEdges" fill="rgb(32, 32, 24)"  x="19" y="8" width="1" height="1" /><rect shape-rendering="crispEdges" fill="rgb(32, 32, 24)"  x="19" y="9" width="1" height="1" /><rect shape-rendering="crispEdges" fill="rgb(98, 74, 41)"  x="19" y="17" width="1" height="1" /><rect shape-rendering="crispEdges" fill="rgb(180, 139, 90)"  x="19" y="18" width="1" height="1" /><rect shape-rendering="crispEdges" fill="rgb(205, 164, 106)"  x="19" y="19" width="1" height="1" /><rect shape-rendering="crispEdges" fill="rgb(98, 74, 41)"  x="19" y="20" width="1" height="1" /><rect shape-rendering="crispEdges" fill="rgb(98, 74, 41)"  x="19" y="21" width="1" height="1" /><rect shape-rendering="crispEdges" fill="rgb(65, 82, 57)"  x="20" y="3" width="1" height="1" /><rect shape-rendering="crispEdges" fill="rgb(65, 82, 57)"  x="20" y="4" width="1" height="1" /><rect shape-rendering="crispEdges" fill="rgb(90, 115, 41)"  x="20" y="5" width="1" height="1" /><rect shape-rendering="crispEdges" fill="rgb(90, 115, 41)"  x="20" y="6" width="1" height="1" /><rect shape-rendering="crispEdges" fill="rgb(115, 148, 24)"  x="20" y="7" width="1" height="1" /><rect shape-rendering="crispEdges" fill="rgb(90, 115, 41)"  x="20" y="8" width="1" height="1" /><rect shape-rendering="crispEdges" fill="rgb(65, 82, 57)"  x="20" y="9" width="1" height="1" /><rect shape-rendering="crispEdges" fill="rgb(98, 74, 41)"  x="20" y="18" width="1" height="1" /><rect shape-rendering="crispEdges" fill="rgb(98, 74, 41)"  x="20" y="19" width="1" height="1" /><rect shape-rendering="crispEdges" fill="rgb(115, 98, 49)"  x="20" y="20" width="1" height="1" /><rect shape-rendering="crispEdges" fill="rgb(180, 139, 90)"  x="20" y="21" width="1" height="1" /><rect shape-rendering="crispEdges" fill="rgb(180, 139, 90)"  x="20" y="22" width="1" height="1" /><rect shape-rendering="crispEdges" fill="rgb(65, 82, 57)"  x="21" y="4" width="1" height="1" /><rect shape-rendering="crispEdges" fill="rgb(65, 82, 57)"  x="21" y="5" width="1" height="1" /><rect shape-rendering="crispEdges" fill="rgb(65, 82, 57)"  x="21" y="6" width="1" height="1" /><rect shape-rendering="crispEdges" fill="rgb(90, 115, 41)"  x="21" y="7" width="1" height="1" /><rect shape-rendering="crispEdges" fill="rgb(90, 115, 41)"  x="21" y="8" width="1" height="1" /><rect shape-rendering="crispEdges" fill="rgb(90, 115, 41)"  x="21" y="9" width="1" height="1" /><rect shape-rendering="crispEdges" fill="rgb(98, 74, 41)"  x="21" y="19" width="1" height="1" /><rect shape-rendering="crispEdges" fill="rgb(180, 139, 90)"  x="21" y="20" width="1" height="1" /><rect shape-rendering="crispEdges" fill="rgb(205, 164, 106)"  x="21" y="21" width="1" height="1" /><rect shape-rendering="crispEdges" fill="rgb(98, 74, 41)"  x="21" y="22" width="1" height="1" /><rect shape-rendering="crispEdges" fill="rgb(98, 74, 41)"  x="21" y="23" width="1" height="1" /><rect shape-rendering="crispEdges" fill="rgb(65, 82, 57)"  x="22" y="6" width="1" height="1" /><rect shape-rendering="crispEdges" fill="rgb(65, 82, 57)"  x="22" y="7" width="1" height="1" /><rect shape-rendering="crispEdges" fill="rgb(65, 82, 57)"  x="22" y="8" width="1" height="1" /><rect shape-rendering="crispEdges" fill="rgb(90, 115, 41)"  x="22" y="9" width="1" height="1" /><rect shape-rendering="crispEdges" fill="rgb(98, 74, 41)"  x="22" y="20" width="1" height="1" /><rect shape-rendering="crispEdges" fill="rgb(98, 74, 41)"  x="22" y="21" width="1" height="1" /><rect shape-rendering="crispEdges" fill="rgb(131, 139, 57)"  x="22" y="22" width="1" height="1" /><rect shape-rendering="crispEdges" fill="rgb(115, 98, 49)"  x="22" y="23" width="1" height="1" /><rect shape-rendering="crispEdges" fill="rgb(98, 74, 41)"  x="22" y="24" width="1" height="1" /><rect shape-rendering="crispEdges" fill="rgb(98, 74, 41)"  x="22" y="25" width="1" height="1" /><rect shape-rendering="crispEdges" fill="rgb(98, 74, 41)"  x="22" y="26" width="1" height="1" /><rect shape-rendering="crispEdges" fill="rgb(98, 74, 41)"  x="22" y="27" width="1" height="1" /><rect shape-rendering="crispEdges" fill="rgb(65, 82, 57)"  x="23" y="8" width="1" height="1" /><rect shape-rendering="crispEdges" fill="rgb(65, 82, 57)"  x="23" y="9" width="1" height="1" /><rect shape-rendering="crispEdges" fill="rgb(98, 74, 41)"  x="23" y="21" width="1" height="1" /><rect shape-rendering="crispEdges" fill="rgb(115, 98, 49)"  x="23" y="22" width="1" height="1" /><rect shape-rendering="crispEdges" fill="rgb(115, 98, 49)"  x="23" y="23" width="1" height="1" /><rect shape-rendering="crispEdges" fill="rgb(131, 139, 57)"  x="23" y="24" width="1" height="1" /><rect shape-rendering="crispEdges" fill="rgb(65, 82, 57)"  x="23" y="25" width="1" height="1" /><rect shape-rendering="crispEdges" fill="rgb(164, 156, 172)"  x="23" y="26" width="1" height="1" /><rect shape-rendering="crispEdges" fill="rgb(172, 189, 205)"  x="23" y="27" width="1" height="1" /><rect shape-rendering="crispEdges" fill="rgb(156, 115, 106)"  x="23" y="28" width="1" height="1" /><rect shape-rendering="crispEdges" fill="rgb(65, 82, 57)"  x="23" y="29" width="1" height="1" /><rect shape-rendering="crispEdges" fill="rgb(98, 74, 41)"  x="24" y="22" width="1" height="1" /><rect shape-rendering="crispEdges" fill="rgb(65, 82, 57)"  x="24" y="23" width="1" height="1" /><rect shape-rendering="crispEdges" fill="rgb(131, 139, 57)"  x="24" y="24" width="1" height="1" /><rect shape-rendering="crispEdges" fill="rgb(65, 82, 57)"  x="24" y="25" width="1" height="1" /><rect shape-rendering="crispEdges" fill="rgb(90, 115, 41)"  x="24" y="26" width="1" height="1" /><rect shape-rendering="crispEdges" fill="rgb(32, 32, 24)"  x="24" y="27" width="1" height="1" /><rect shape-rendering="crispEdges" fill="rgb(90, 115, 41)"  x="24" y="28" width="1" height="1" /><rect shape-rendering="crispEdges" fill="rgb(65, 82, 57)"  x="24" y="29" width="1" height="1" /><rect shape-rendering="crispEdges" fill="rgb(98, 74, 41)"  x="25" y="23" width="1" height="1" /><rect shape-rendering="crispEdges" fill="rgb(65, 82, 57)"  x="25" y="24" width="1" height="1" /><rect shape-rendering="crispEdges" fill="rgb(90, 115, 41)"  x="25" y="25" width="1" height="1" /><rect shape-rendering="crispEdges" fill="rgb(57, 32, 16)"  x="25" y="26" width="1" height="1" /><rect shape-rendering="crispEdges" fill="rgb(32, 32, 24)"  x="25" y="27" width="1" height="1" /><rect shape-rendering="crispEdges" fill="rgb(65, 82, 57)"  x="25" y="28" width="1" height="1" /><rect shape-rendering="crispEdges" fill="rgb(98, 74, 41)"  x="26" y="23" width="1" height="1" /><rect shape-rendering="crispEdges" fill="rgb(180, 180, 180)"  x="26" y="24" width="1" height="1" /><rect shape-rendering="crispEdges" fill="rgb(32, 32, 24)"  x="26" y="25" width="1" height="1" /><rect shape-rendering="crispEdges" fill="rgb(32, 32, 24)"  x="26" y="26" width="1" height="1" /><rect shape-rendering="crispEdges" fill="rgb(90, 115, 41)"  x="26" y="27" width="1" height="1" /><rect shape-rendering="crispEdges" fill="rgb(65, 82, 57)"  x="26" y="28" width="1" height="1" /><rect shape-rendering="crispEdges" fill="rgb(98, 74, 41)"  x="27" y="23" width="1" height="1" /><rect shape-rendering="crispEdges" fill="rgb(98, 74, 41)"  x="27" y="24" width="1" height="1" /><rect shape-rendering="crispEdges" fill="rgb(90, 115, 41)"  x="27" y="25" width="1" height="1" /><rect shape-rendering="crispEdges" fill="rgb(65, 82, 57)"  x="27" y="26" width="1" height="1" /><rect shape-rendering="crispEdges" fill="rgb(65, 82, 57)"  x="27" y="27" width="1" height="1" /><rect shape-rendering="crispEdges" fill="rgb(65, 82, 57)"  x="28" y="24" width="1" height="1" /><rect shape-rendering="crispEdges" fill="rgb(65, 82, 57)"  x="28" y="25" width="1" height="1" /></svg>