<svg xmlns="http://www.w3.org/2000/svg" xmlns:xlink= "http://www.w3.org/1999/xlink" width="32" height="32" viewBox ="0 0 32 32"><rect shape-rendering="crispEdges" fill="rgb(180, 32, 65)"  x="0" y="16" width="1" height="1" /><rect shape-rendering="crispEdges" fill="rgb(255, 49, 90)"  x="1" y="16" width="1" height="1" /><rect shape-rendering="crispEdges" fill="rgb(139, 32, 65)"  x="1" y="17" width="1" height="1" /><rect shape-rendering="crispEdges" fill="rgb(255, 49, 90)"  x="1" y="21" width="1" height="1" /><rect shape-rendering="crispEdges" fill="rgb(255, 49, 90)"  x="1" y="22" width="1" height="1" /><rect shape-rendering="crispEdges" fill="rgb(139, 32, 65)"  x="1" y="23" width="1" height="1" /><rect shape-rendering="crispEdges" fill="rgb(255, 49, 90)"  x="2" y="16" width="1" height="1" /><rect shape-rendering="crispEdges" fill="rgb(139, 32, 65)"  x="2" y="17" width="1" height="1" /><rect shape-rendering="crispEdges" fill="rgb(255, 49, 90)"  x="2" y="19" width="1" height="1" /><rect shape-rendering="crispEdges" fill="rgb(255, 49, 90)"  x="2" y="20" width="1" height="1" /><rect shape-rendering="crispEdges" fill="rgb(180, 32, 65)"  x="2" y="21" width="1" height="1" /><rect shape-rendering="crispEdges" fill="rgb(180, 32, 65)"  x="2" y="22" width="1" height="1" /><rect shape-rendering="crispEdges" fill="rgb(255, 49, 90)"  x="2" y="23" width="1" height="1" /><rect shape-rendering="crispEdges" fill="rgb(222, 41, 82)"  x="3" y="16" width="1" height="1" /><rect shape-rendering="crispEdges" fill="rgb(180, 32, 65)"  x="3" y="17" width="1" height="1" /><rect shape-rendering="crispEdges" fill="rgb(222, 41, 82)"  x="3" y="18" width="1" height="1" /><rect shape-rendering="crispEdges" fill="rgb(255, 49, 90)"  x="3" y="19" width="1" height="1" /><rect shape-rendering="crispEdges" fill="rgb(139, 32, 65)"  x="3" y="20" width="1" height="1" /><rect shape-rendering="crispEdges" fill="rgb(255, 49, 90)"  x="3" y="22" width="1" height="1" /><rect shape-rendering="crispEdges" fill="rgb(222, 41, 82)"  x="3" y="23" width="1" height="1" /><rect shape-rendering="crispEdges" fill="rgb(65, 74, 74)"  x="4" y="15" width="1" height="1" /><rect shape-rendering="crispEdges" fill="rgb(65, 74, 74)"  x="4" y="16" width="1" height="1" /><rect shape-rendering="crispEdges" fill="rgb(65, 74, 74)"  x="4" y="17" width="1" height="1" /><rect shape-rendering="crispEdges" fill="rgb(65, 74, 74)"  x="4" y="18" width="1" height="1" /><rect shape-rendering="crispEdges" fill="rgb(139, 32, 65)"  x="4" y="19" width="1" height="1" /><rect shape-rendering="crispEdges" fill="rgb(222, 41, 82)"  x="4" y="22" width="1" height="1" /><rect shape-rendering="crispEdges" fill="rgb(98, 24, 49)"  x="4" y="23" width="1" height="1" /><rect shape-rendering="crispEdges" fill="rgb(90, 106, 98)"  x="5" y="15" width="1" height="1" /><rect shape-rendering="crispEdges" fill="rgb(90, 106, 98)"  x="5" y="16" width="1" height="1" /><rect shape-rendering="crispEdges" fill="rgb(139, 156, 148)"  x="5" y="17" width="1" height="1" /><rect shape-rendering="crispEdges" fill="rgb(139, 156, 148)"  x="5" y="18" width="1" height="1" /><rect shape-rendering="crispEdges" fill="rgb(65, 74, 74)"  x="5" y="19" width="1" height="1" /><rect shape-rendering="crispEdges" fill="rgb(222, 41, 82)"  x="5" y="21" width="1" height="1" /><rect shape-rendering="crispEdges" fill="rgb(222, 41, 82)"  x="5" y="22" width="1" height="1" /><rect shape-rendering="crispEdges" fill="rgb(98, 24, 49)"  x="5" y="23" width="1" height="1" /><rect shape-rendering="crispEdges" fill="rgb(98, 24, 49)"  x="5" y="24" width="1" height="1" /><rect shape-rendering="crispEdges" fill="rgb(90, 106, 98)"  x="6" y="15" width="1" height="1" /><rect shape-rendering="crispEdges" fill="rgb(222, 222, 222)"  x="6" y="16" width="1" height="1" /><rect shape-rendering="crispEdges" fill="rgb(115, 180, 148)"  x="6" y="17" width="1" height="1" /><rect shape-rendering="crispEdges" fill="rgb(180, 213, 180)"  x="6" y="18" width="1" height="1" /><rect shape-rendering="crispEdges" fill="rgb(238, 255, 213)"  x="6" y="19" width="1" height="1" /><rect shape-rendering="crispEdges" fill="rgb(32, 74, 65)"  x="6" y="20" width="1" height="1" /><rect shape-rendering="crispEdges" fill="rgb(139, 32, 65)"  x="6" y="21" width="1" height="1" /><rect shape-rendering="crispEdges" fill="rgb(139, 32, 65)"  x="6" y="22" width="1" height="1" /><rect shape-rendering="crispEdges" fill="rgb(255, 98, 123)"  x="6" y="23" width="1" height="1" /><rect shape-rendering="crispEdges" fill="rgb(255, 98, 123)"  x="6" y="24" width="1" height="1" /><rect shape-rendering="crispEdges" fill="rgb(255, 98, 123)"  x="6" y="25" width="1" height="1" /><rect shape-rendering="crispEdges" fill="rgb(222, 41, 82)"  x="6" y="26" width="1" height="1" /><rect shape-rendering="crispEdges" fill="rgb(74, 90, 82)"  x="7" y="14" width="1" height="1" /><rect shape-rendering="crispEdges" fill="rgb(139, 156, 148)"  x="7" y="15" width="1" height="1" /><rect shape-rendering="crispEdges" fill="rgb(222, 222, 222)"  x="7" y="16" width="1" height="1" /><rect shape-rendering="crispEdges" fill="rgb(180, 213, 180)"  x="7" y="17" width="1" height="1" /><rect shape-rendering="crispEdges" fill="rgb(180, 213, 180)"  x="7" y="18" width="1" height="1" /><rect shape-rendering="crispEdges" fill="rgb(180, 213, 180)"  x="7" y="19" width="1" height="1" /><rect shape-rendering="crispEdges" fill="rgb(139, 156, 148)"  x="7" y="20" width="1" height="1" /><rect shape-rendering="crispEdges" fill="rgb(32, 74, 65)"  x="7" y="21" width="1" height="1" /><rect shape-rendering="crispEdges" fill="rgb(139, 32, 65)"  x="7" y="22" width="1" height="1" /><rect shape-rendering="crispEdges" fill="rgb(139, 32, 65)"  x="7" y="23" width="1" height="1" /><rect shape-rendering="crispEdges" fill="rgb(180, 32, 65)"  x="7" y="24" width="1" height="1" /><rect shape-rendering="crispEdges" fill="rgb(222, 41, 82)"  x="7" y="25" width="1" height="1" /><rect shape-rendering="crispEdges" fill="rgb(255, 49, 90)"  x="7" y="26" width="1" height="1" /><rect shape-rendering="crispEdges" fill="rgb(255, 49, 90)"  x="7" y="27" width="1" height="1" /><rect shape-rendering="crispEdges" fill="rgb(255, 49, 90)"  x="7" y="28" width="1" height="1" /><rect shape-rendering="crispEdges" fill="rgb(90, 106, 98)"  x="8" y="14" width="1" height="1" /><rect shape-rendering="crispEdges" fill="rgb(139, 156, 148)"  x="8" y="15" width="1" height="1" /><rect shape-rendering="crispEdges" fill="rgb(115, 180, 148)"  x="8" y="16" width="1" height="1" /><rect shape-rendering="crispEdges" fill="rgb(222, 213, 230)"  x="8" y="17" width="1" height="1" /><rect shape-rendering="crispEdges" fill="rgb(139, 139, 189)"  x="8" y="18" width="1" height="1" /><rect shape-rendering="crispEdges" fill="rgb(49, 115, 98)"  x="8" y="19" width="1" height="1" /><rect shape-rendering="crispEdges" fill="rgb(49, 115, 98)"  x="8" y="20" width="1" height="1" /><rect shape-rendering="crispEdges" fill="rgb(41, 98, 82)"  x="8" y="21" width="1" height="1" /><rect shape-rendering="crispEdges" fill="rgb(222, 41, 82)"  x="8" y="22" width="1" height="1" /><rect shape-rendering="crispEdges" fill="rgb(255, 98, 123)"  x="8" y="23" width="1" height="1" /><rect shape-rendering="crispEdges" fill="rgb(255, 98, 123)"  x="8" y="24" width="1" height="1" /><rect shape-rendering="crispEdges" fill="rgb(180, 32, 65)"  x="8" y="25" width="1" height="1" /><rect shape-rendering="crispEdges" fill="rgb(180, 32, 65)"  x="8" y="26" width="1" height="1" /><rect shape-rendering="crispEdges" fill="rgb(180, 32, 65)"  x="8" y="27" width="1" height="1" /><rect shape-rendering="crispEdges" fill="rgb(222, 41, 82)"  x="8" y="28" width="1" height="1" /><rect shape-rendering="crispEdges" fill="rgb(222, 41, 82)"  x="8" y="29" width="1" height="1" /><rect shape-rendering="crispEdges" fill="rgb(65, 74, 74)"  x="9" y="13" width="1" height="1" /><rect shape-rendering="crispEdges" fill="rgb(90, 106, 98)"  x="9" y="14" width="1" height="1" /><rect shape-rendering="crispEdges" fill="rgb(65, 74, 74)"  x="9" y="15" width="1" height="1" /><rect shape-rendering="crispEdges" fill="rgb(222, 213, 230)"  x="9" y="16" width="1" height="1" /><rect shape-rendering="crispEdges" fill="rgb(49, 115, 98)"  x="9" y="17" width="1" height="1" /><rect shape-rendering="crispEdges" fill="rgb(222, 213, 230)"  x="9" y="18" width="1" height="1" /><rect shape-rendering="crispEdges" fill="rgb(49, 115, 98)"  x="9" y="19" width="1" height="1" /><rect shape-rendering="crispEdges" fill="rgb(74, 90, 82)"  x="9" y="20" width="1" height="1" /><rect shape-rendering="crispEdges" fill="rgb(65, 74, 74)"  x="9" y="21" width="1" height="1" /><rect shape-rendering="crispEdges" fill="rgb(139, 32, 65)"  x="9" y="22" width="1" height="1" /><rect shape-rendering="crispEdges" fill="rgb(139, 32, 65)"  x="9" y="23" width="1" height="1" /><rect shape-rendering="crispEdges" fill="rgb(255, 49, 90)"  x="9" y="24" width="1" height="1" /><rect shape-rendering="crispEdges" fill="rgb(255, 98, 123)"  x="9" y="25" width="1" height="1" /><rect shape-rendering="crispEdges" fill="rgb(139, 32, 65)"  x="9" y="28" width="1" height="1" /><rect shape-rendering="crispEdges" fill="rgb(139, 32, 65)"  x="9" y="29" width="1" height="1" /><rect shape-rendering="crispEdges" fill="rgb(139, 32, 65)"  x="9" y="30" width="1" height="1" /><rect shape-rendering="crispEdges" fill="rgb(49, 57, 57)"  x="10" y="16" width="1" height="1" /><rect shape-rendering="crispEdges" fill="rgb(222, 213, 230)"  x="10" y="17" width="1" height="1" /><rect shape-rendering="crispEdges" fill="rgb(180, 172, 205)"  x="10" y="18" width="1" height="1" /><rect shape-rendering="crispEdges" fill="rgb(189, 189, 189)"  x="10" y="19" width="1" height="1" /><rect shape-rendering="crispEdges" fill="rgb(90, 106, 98)"  x="10" y="20" width="1" height="1" /><rect shape-rendering="crispEdges" fill="rgb(65, 74, 74)"  x="10" y="21" width="1" height="1" /><rect shape-rendering="crispEdges" fill="rgb(49, 57, 57)"  x="10" y="22" width="1" height="1" /><rect shape-rendering="crispEdges" fill="rgb(139, 32, 65)"  x="10" y="24" width="1" height="1" /><rect shape-rendering="crispEdges" fill="rgb(255, 49, 90)"  x="10" y="25" width="1" height="1" /><rect shape-rendering="crispEdges" fill="rgb(255, 98, 123)"  x="10" y="26" width="1" height="1" /><rect shape-rendering="crispEdges" fill="rgb(123, 106, 90)"  x="11" y="16" width="1" height="1" /><rect shape-rendering="crispEdges" fill="rgb(148, 131, 115)"  x="11" y="17" width="1" height="1" /><rect shape-rendering="crispEdges" fill="rgb(189, 180, 156)"  x="11" y="18" width="1" height="1" /><rect shape-rendering="crispEdges" fill="rgb(49, 57, 57)"  x="11" y="19" width="1" height="1" /><rect shape-rendering="crispEdges" fill="rgb(49, 57, 57)"  x="11" y="20" width="1" height="1" /><rect shape-rendering="crispEdges" fill="rgb(49, 57, 57)"  x="11" y="21" width="1" height="1" /><rect shape-rendering="crispEdges" fill="rgb(49, 57, 57)"  x="11" y="22" width="1" height="1" /><rect shape-rendering="crispEdges" fill="rgb(139, 32, 65)"  x="11" y="25" width="1" height="1" /><rect shape-rendering="crispEdges" fill="rgb(255, 49, 90)"  x="11" y="26" width="1" height="1" /><rect shape-rendering="crispEdges" fill="rgb(148, 131, 115)"  x="12" y="15" width="1" height="1" /><rect shape-rendering="crispEdges" fill="rgb(49, 57, 57)"  x="12" y="16" width="1" height="1" /><rect shape-rendering="crispEdges" fill="rgb(49, 57, 57)"  x="12" y="17" width="1" height="1" /><rect shape-rendering="crispEdges" fill="rgb(49, 57, 57)"  x="12" y="18" width="1" height="1" /><rect shape-rendering="crispEdges" fill="rgb(139, 32, 65)"  x="12" y="26" width="1" height="1" /><rect shape-rendering="crispEdges" fill="rgb(65, 74, 74)"  x="13" y="9" width="1" height="1" /><rect shape-rendering="crispEdges" fill="rgb(123, 106, 90)"  x="13" y="14" width="1" height="1" /><rect shape-rendering="crispEdges" fill="rgb(49, 57, 57)"  x="13" y="15" width="1" height="1" /><rect shape-rendering="crispEdges" fill="rgb(74, 90, 82)"  x="14" y="7" width="1" height="1" /><rect shape-rendering="crispEdges" fill="rgb(90, 106, 98)"  x="14" y="8" width="1" height="1" /><rect shape-rendering="crispEdges" fill="rgb(74, 90, 82)"  x="14" y="9" width="1" height="1" /><rect shape-rendering="crispEdges" fill="rgb(148, 131, 115)"  x="14" y="13" width="1" height="1" /><rect shape-rendering="crispEdges" fill="rgb(49, 57, 57)"  x="14" y="14" width="1" height="1" /><rect shape-rendering="crispEdges" fill="rgb(65, 74, 74)"  x="15" y="4" width="1" height="1" /><rect shape-rendering="crispEdges" fill="rgb(90, 106, 98)"  x="15" y="5" width="1" height="1" /><rect shape-rendering="crispEdges" fill="rgb(90, 106, 98)"  x="15" y="6" width="1" height="1" /><rect shape-rendering="crispEdges" fill="rgb(90, 106, 98)"  x="15" y="7" width="1" height="1" /><rect shape-rendering="crispEdges" fill="rgb(57, 139, 115)"  x="15" y="8" width="1" height="1" /><rect shape-rendering="crispEdges" fill="rgb(49, 115, 98)"  x="15" y="9" width="1" height="1" /><rect shape-rendering="crispEdges" fill="rgb(148, 131, 115)"  x="15" y="12" width="1" height="1" /><rect shape-rendering="crispEdges" fill="rgb(49, 57, 57)"  x="15" y="13" width="1" height="1" /><rect shape-rendering="crispEdges" fill="rgb(180, 32, 65)"  x="16" y="0" width="1" height="1" /><rect shape-rendering="crispEdges" fill="rgb(255, 49, 90)"  x="16" y="1" width="1" height="1" /><rect shape-rendering="crispEdges" fill="rgb(255, 49, 90)"  x="16" y="2" width="1" height="1" /><rect shape-rendering="crispEdges" fill="rgb(222, 41, 82)"  x="16" y="3" width="1" height="1" /><rect shape-rendering="crispEdges" fill="rgb(65, 74, 74)"  x="16" y="4" width="1" height="1" /><rect shape-rendering="crispEdges" fill="rgb(90, 106, 98)"  x="16" y="5" width="1" height="1" /><rect shape-rendering="crispEdges" fill="rgb(222, 222, 222)"  x="16" y="6" width="1" height="1" /><rect shape-rendering="crispEdges" fill="rgb(222, 213, 230)"  x="16" y="7" width="1" height="1" /><rect shape-rendering="crispEdges" fill="rgb(115, 180, 148)"  x="16" y="8" width="1" height="1" /><rect shape-rendering="crispEdges" fill="rgb(222, 213, 230)"  x="16" y="9" width="1" height="1" /><rect shape-rendering="crispEdges" fill="rgb(32, 74, 65)"  x="16" y="10" width="1" height="1" /><rect shape-rendering="crispEdges" fill="rgb(123, 106, 90)"  x="16" y="11" width="1" height="1" /><rect shape-rendering="crispEdges" fill="rgb(49, 57, 57)"  x="16" y="12" width="1" height="1" /><rect shape-rendering="crispEdges" fill="rgb(139, 32, 65)"  x="17" y="1" width="1" height="1" /><rect shape-rendering="crispEdges" fill="rgb(139, 32, 65)"  x="17" y="2" width="1" height="1" /><rect shape-rendering="crispEdges" fill="rgb(180, 32, 65)"  x="17" y="3" width="1" height="1" /><rect shape-rendering="crispEdges" fill="rgb(65, 74, 74)"  x="17" y="4" width="1" height="1" /><rect shape-rendering="crispEdges" fill="rgb(139, 156, 148)"  x="17" y="5" width="1" height="1" /><rect shape-rendering="crispEdges" fill="rgb(115, 180, 148)"  x="17" y="6" width="1" height="1" /><rect shape-rendering="crispEdges" fill="rgb(180, 213, 180)"  x="17" y="7" width="1" height="1" /><rect shape-rendering="crispEdges" fill="rgb(222, 213, 230)"  x="17" y="8" width="1" height="1" /><rect shape-rendering="crispEdges" fill="rgb(49, 115, 98)"  x="17" y="9" width="1" height="1" /><rect shape-rendering="crispEdges" fill="rgb(222, 213, 230)"  x="17" y="10" width="1" height="1" /><rect shape-rendering="crispEdges" fill="rgb(148, 131, 115)"  x="17" y="11" width="1" height="1" /><rect shape-rendering="crispEdges" fill="rgb(49, 57, 57)"  x="17" y="12" width="1" height="1" /><rect shape-rendering="crispEdges" fill="rgb(222, 41, 82)"  x="18" y="3" width="1" height="1" /><rect shape-rendering="crispEdges" fill="rgb(65, 74, 74)"  x="18" y="4" width="1" height="1" /><rect shape-rendering="crispEdges" fill="rgb(139, 156, 148)"  x="18" y="5" width="1" height="1" /><rect shape-rendering="crispEdges" fill="rgb(180, 213, 180)"  x="18" y="6" width="1" height="1" /><rect shape-rendering="crispEdges" fill="rgb(180, 213, 180)"  x="18" y="7" width="1" height="1" /><rect shape-rendering="crispEdges" fill="rgb(139, 139, 189)"  x="18" y="8" width="1" height="1" /><rect shape-rendering="crispEdges" fill="rgb(222, 213, 230)"  x="18" y="9" width="1" height="1" /><rect shape-rendering="crispEdges" fill="rgb(222, 213, 230)"  x="18" y="10" width="1" height="1" /><rect shape-rendering="crispEdges" fill="rgb(189, 180, 156)"  x="18" y="11" width="1" height="1" /><rect shape-rendering="crispEdges" fill="rgb(49, 57, 57)"  x="18" y="12" width="1" height="1" /><rect shape-rendering="crispEdges" fill="rgb(255, 49, 90)"  x="19" y="2" width="1" height="1" /><rect shape-rendering="crispEdges" fill="rgb(255, 49, 90)"  x="19" y="3" width="1" height="1" /><rect shape-rendering="crispEdges" fill="rgb(139, 32, 65)"  x="19" y="4" width="1" height="1" /><rect shape-rendering="crispEdges" fill="rgb(65, 74, 74)"  x="19" y="5" width="1" height="1" /><rect shape-rendering="crispEdges" fill="rgb(180, 213, 180)"  x="19" y="6" width="1" height="1" /><rect shape-rendering="crispEdges" fill="rgb(238, 255, 213)"  x="19" y="7" width="1" height="1" /><rect shape-rendering="crispEdges" fill="rgb(180, 213, 180)"  x="19" y="8" width="1" height="1" /><rect shape-rendering="crispEdges" fill="rgb(49, 115, 98)"  x="19" y="9" width="1" height="1" /><rect shape-rendering="crispEdges" fill="rgb(90, 106, 98)"  x="19" y="10" width="1" height="1" /><rect shape-rendering="crispEdges" fill="rgb(49, 57, 57)"  x="19" y="11" width="1" height="1" /><rect shape-rendering="crispEdges" fill="rgb(255, 49, 90)"  x="20" y="2" width="1" height="1" /><rect shape-rendering="crispEdges" fill="rgb(139, 32, 65)"  x="20" y="3" width="1" height="1" /><rect shape-rendering="crispEdges" fill="rgb(49, 57, 57)"  x="20" y="6" width="1" height="1" /><rect shape-rendering="crispEdges" fill="rgb(197, 197, 197)"  x="20" y="7" width="1" height="1" /><rect shape-rendering="crispEdges" fill="rgb(115, 180, 148)"  x="20" y="8" width="1" height="1" /><rect shape-rendering="crispEdges" fill="rgb(74, 90, 82)"  x="20" y="9" width="1" height="1" /><rect shape-rendering="crispEdges" fill="rgb(139, 156, 148)"  x="20" y="10" width="1" height="1" /><rect shape-rendering="crispEdges" fill="rgb(49, 57, 57)"  x="20" y="11" width="1" height="1" /><rect shape-rendering="crispEdges" fill="rgb(255, 49, 90)"  x="21" y="1" width="1" height="1" /><rect shape-rendering="crispEdges" fill="rgb(180, 32, 65)"  x="21" y="2" width="1" height="1" /><rect shape-rendering="crispEdges" fill="rgb(222, 41, 82)"  x="21" y="5" width="1" height="1" /><rect shape-rendering="crispEdges" fill="rgb(139, 32, 65)"  x="21" y="6" width="1" height="1" /><rect shape-rendering="crispEdges" fill="rgb(49, 57, 57)"  x="21" y="7" width="1" height="1" /><rect shape-rendering="crispEdges" fill="rgb(65, 74, 74)"  x="21" y="8" width="1" height="1" /><rect shape-rendering="crispEdges" fill="rgb(139, 156, 148)"  x="21" y="9" width="1" height="1" /><rect shape-rendering="crispEdges" fill="rgb(139, 156, 148)"  x="21" y="10" width="1" height="1" /><rect shape-rendering="crispEdges" fill="rgb(49, 57, 57)"  x="21" y="11" width="1" height="1" /><rect shape-rendering="crispEdges" fill="rgb(255, 49, 90)"  x="22" y="1" width="1" height="1" /><rect shape-rendering="crispEdges" fill="rgb(180, 32, 65)"  x="22" y="2" width="1" height="1" /><rect shape-rendering="crispEdges" fill="rgb(255, 49, 90)"  x="22" y="3" width="1" height="1" /><rect shape-rendering="crispEdges" fill="rgb(222, 41, 82)"  x="22" y="4" width="1" height="1" /><rect shape-rendering="crispEdges" fill="rgb(222, 41, 82)"  x="22" y="5" width="1" height="1" /><rect shape-rendering="crispEdges" fill="rgb(139, 32, 65)"  x="22" y="6" width="1" height="1" /><rect shape-rendering="crispEdges" fill="rgb(139, 32, 65)"  x="22" y="7" width="1" height="1" /><rect shape-rendering="crispEdges" fill="rgb(222, 41, 82)"  x="22" y="8" width="1" height="1" /><rect shape-rendering="crispEdges" fill="rgb(139, 32, 65)"  x="22" y="9" width="1" height="1" /><rect shape-rendering="crispEdges" fill="rgb(49, 57, 57)"  x="22" y="10" width="1" height="1" /><rect shape-rendering="crispEdges" fill="rgb(49, 57, 57)"  x="22" y="11" width="1" height="1" /><rect shape-rendering="crispEdges" fill="rgb(139, 32, 65)"  x="23" y="1" width="1" height="1" /><rect shape-rendering="crispEdges" fill="rgb(255, 49, 90)"  x="23" y="2" width="1" height="1" /><rect shape-rendering="crispEdges" fill="rgb(222, 41, 82)"  x="23" y="3" width="1" height="1" /><rect shape-rendering="crispEdges" fill="rgb(98, 24, 49)"  x="23" y="4" width="1" height="1" /><rect shape-rendering="crispEdges" fill="rgb(98, 24, 49)"  x="23" y="5" width="1" height="1" /><rect shape-rendering="crispEdges" fill="rgb(255, 98, 123)"  x="23" y="6" width="1" height="1" /><rect shape-rendering="crispEdges" fill="rgb(139, 32, 65)"  x="23" y="7" width="1" height="1" /><rect shape-rendering="crispEdges" fill="rgb(255, 98, 123)"  x="23" y="8" width="1" height="1" /><rect shape-rendering="crispEdges" fill="rgb(139, 32, 65)"  x="23" y="9" width="1" height="1" /><rect shape-rendering="crispEdges" fill="rgb(98, 24, 49)"  x="24" y="5" width="1" height="1" /><rect shape-rendering="crispEdges" fill="rgb(255, 98, 123)"  x="24" y="6" width="1" height="1" /><rect shape-rendering="crispEdges" fill="rgb(180, 32, 65)"  x="24" y="7" width="1" height="1" /><rect shape-rendering="crispEdges" fill="rgb(255, 98, 123)"  x="24" y="8" width="1" height="1" /><rect shape-rendering="crispEdges" fill="rgb(255, 49, 90)"  x="24" y="9" width="1" height="1" /><rect shape-rendering="crispEdges" fill="rgb(139, 32, 65)"  x="24" y="10" width="1" height="1" /><rect shape-rendering="crispEdges" fill="rgb(255, 98, 123)"  x="25" y="6" width="1" height="1" /><rect shape-rendering="crispEdges" fill="rgb(222, 41, 82)"  x="25" y="7" width="1" height="1" /><rect shape-rendering="crispEdges" fill="rgb(180, 32, 65)"  x="25" y="8" width="1" height="1" /><rect shape-rendering="crispEdges" fill="rgb(255, 98, 123)"  x="25" y="9" width="1" height="1" /><rect shape-rendering="crispEdges" fill="rgb(255, 49, 90)"  x="25" y="10" width="1" height="1" /><rect shape-rendering="crispEdges" fill="rgb(139, 32, 65)"  x="25" y="11" width="1" height="1" /><rect shape-rendering="crispEdges" fill="rgb(222, 41, 82)"  x="26" y="6" width="1" height="1" /><rect shape-rendering="crispEdges" fill="rgb(255, 49, 90)"  x="26" y="7" width="1" height="1" /><rect shape-rendering="crispEdges" fill="rgb(180, 32, 65)"  x="26" y="8" width="1" height="1" /><rect shape-rendering="crispEdges" fill="rgb(255, 98, 123)"  x="26" y="10" width="1" height="1" /><rect shape-rendering="crispEdges" fill="rgb(255, 49, 90)"  x="26" y="11" width="1" height="1" /><rect shape-rendering="crispEdges" fill="rgb(139, 32, 65)"  x="26" y="12" width="1" height="1" /><rect shape-rendering="crispEdges" fill="rgb(255, 49, 90)"  x="27" y="7" width="1" height="1" /><rect shape-rendering="crispEdges" fill="rgb(180, 32, 65)"  x="27" y="8" width="1" height="1" /><rect shape-rendering="crispEdges" fill="rgb(255, 49, 90)"  x="28" y="7" width="1" height="1" /><rect shape-rendering="crispEdges" fill="rgb(222, 41, 82)"  x="28" y="8" width="1" height="1" /><rect shape-rendering="crispEdges" fill="rgb(139, 32, 65)"  x="28" y="9" width="1" height="1" /><rect shape-rendering="crispEdges" fill="rgb(222, 41, 82)"  x="29" y="8" width="1" height="1" /><rect shape-rendering="crispEdges" fill="rgb(139, 32, 65)"  x="29" y="9" width="1" height="1" /><rect shape-rendering="crispEdges" fill="rgb(139, 32, 65)"  x="30" y="9" width="1" height="1" /></svg>