<svg xmlns="http://www.w3.org/2000/svg" xmlns:xlink= "http://www.w3.org/1999/xlink" width="32" height="32" viewBox ="0 0 32 32"><rect shape-rendering="crispEdges" fill="rgb(156, 115, 74)"  x="1" y="18" width="1" height="1" /><rect shape-rendering="crispEdges" fill="rgb(156, 115, 74)"  x="1" y="19" width="1" height="1" /><rect shape-rendering="crispEdges" fill="rgb(180, 139, 90)"  x="2" y="15" width="1" height="1" /><rect shape-rendering="crispEdges" fill="rgb(131, 90, 57)"  x="2" y="16" width="1" height="1" /><rect shape-rendering="crispEdges" fill="rgb(156, 115, 74)"  x="2" y="18" width="1" height="1" /><rect shape-rendering="crispEdges" fill="rgb(222, 189, 131)"  x="2" y="19" width="1" height="1" /><rect shape-rendering="crispEdges" fill="rgb(156, 115, 74)"  x="2" y="20" width="1" height="1" /><rect shape-rendering="crispEdges" fill="rgb(123, 24, 24)"  x="2" y="24" width="1" height="1" /><rect shape-rendering="crispEdges" fill="rgb(123, 24, 24)"  x="2" y="25" width="1" height="1" /><rect shape-rendering="crispEdges" fill="rgb(156, 115, 74)"  x="3" y="14" width="1" height="1" /><rect shape-rendering="crispEdges" fill="rgb(205, 164, 106)"  x="3" y="15" width="1" height="1" /><rect shape-rendering="crispEdges" fill="rgb(131, 90, 57)"  x="3" y="16" width="1" height="1" /><rect shape-rendering="crispEdges" fill="rgb(131, 90, 57)"  x="3" y="17" width="1" height="1" /><rect shape-rendering="crispEdges" fill="rgb(222, 189, 131)"  x="3" y="18" width="1" height="1" /><rect shape-rendering="crispEdges" fill="rgb(156, 115, 74)"  x="3" y="19" width="1" height="1" /><rect shape-rendering="crispEdges" fill="rgb(238, 222, 156)"  x="3" y="20" width="1" height="1" /><rect shape-rendering="crispEdges" fill="rgb(131, 90, 57)"  x="3" y="21" width="1" height="1" /><rect shape-rendering="crispEdges" fill="rgb(123, 24, 24)"  x="3" y="24" width="1" height="1" /><rect shape-rendering="crispEdges" fill="rgb(123, 24, 24)"  x="3" y="26" width="1" height="1" /><rect shape-rendering="crispEdges" fill="rgb(156, 41, 41)"  x="3" y="27" width="1" height="1" /><rect shape-rendering="crispEdges" fill="rgb(156, 115, 74)"  x="4" y="14" width="1" height="1" /><rect shape-rendering="crispEdges" fill="rgb(205, 164, 106)"  x="4" y="15" width="1" height="1" /><rect shape-rendering="crispEdges" fill="rgb(131, 90, 57)"  x="4" y="16" width="1" height="1" /><rect shape-rendering="crispEdges" fill="rgb(131, 90, 57)"  x="4" y="17" width="1" height="1" /><rect shape-rendering="crispEdges" fill="rgb(156, 41, 41)"  x="4" y="18" width="1" height="1" /><rect shape-rendering="crispEdges" fill="rgb(156, 41, 41)"  x="4" y="19" width="1" height="1" /><rect shape-rendering="crispEdges" fill="rgb(197, 57, 57)"  x="4" y="20" width="1" height="1" /><rect shape-rendering="crispEdges" fill="rgb(238, 222, 156)"  x="4" y="21" width="1" height="1" /><rect shape-rendering="crispEdges" fill="rgb(131, 90, 57)"  x="4" y="22" width="1" height="1" /><rect shape-rendering="crispEdges" fill="rgb(123, 24, 24)"  x="4" y="26" width="1" height="1" /><rect shape-rendering="crispEdges" fill="rgb(123, 24, 24)"  x="4" y="27" width="1" height="1" /><rect shape-rendering="crispEdges" fill="rgb(90, 0, 0)"  x="4" y="28" width="1" height="1" /><rect shape-rendering="crispEdges" fill="rgb(90, 0, 0)"  x="4" y="29" width="1" height="1" /><rect shape-rendering="crispEdges" fill="rgb(156, 115, 74)"  x="5" y="14" width="1" height="1" /><rect shape-rendering="crispEdges" fill="rgb(131, 90, 57)"  x="5" y="15" width="1" height="1" /><rect shape-rendering="crispEdges" fill="rgb(197, 57, 57)"  x="5" y="16" width="1" height="1" /><rect shape-rendering="crispEdges" fill="rgb(230, 74, 74)"  x="5" y="17" width="1" height="1" /><rect shape-rendering="crispEdges" fill="rgb(255, 189, 164)"  x="5" y="18" width="1" height="1" /><rect shape-rendering="crispEdges" fill="rgb(255, 189, 164)"  x="5" y="19" width="1" height="1" /><rect shape-rendering="crispEdges" fill="rgb(246, 148, 131)"  x="5" y="20" width="1" height="1" /><rect shape-rendering="crispEdges" fill="rgb(197, 57, 57)"  x="5" y="21" width="1" height="1" /><rect shape-rendering="crispEdges" fill="rgb(197, 57, 57)"  x="5" y="22" width="1" height="1" /><rect shape-rendering="crispEdges" fill="rgb(230, 74, 74)"  x="5" y="23" width="1" height="1" /><rect shape-rendering="crispEdges" fill="rgb(230, 74, 74)"  x="5" y="24" width="1" height="1" /><rect shape-rendering="crispEdges" fill="rgb(123, 24, 24)"  x="5" y="25" width="1" height="1" /><rect shape-rendering="crispEdges" fill="rgb(123, 24, 24)"  x="5" y="26" width="1" height="1" /><rect shape-rendering="crispEdges" fill="rgb(123, 24, 24)"  x="5" y="27" width="1" height="1" /><rect shape-rendering="crispEdges" fill="rgb(90, 0, 0)"  x="5" y="28" width="1" height="1" /><rect shape-rendering="crispEdges" fill="rgb(156, 115, 74)"  x="6" y="14" width="1" height="1" /><rect shape-rendering="crispEdges" fill="rgb(197, 57, 57)"  x="6" y="15" width="1" height="1" /><rect shape-rendering="crispEdges" fill="rgb(246, 148, 131)"  x="6" y="16" width="1" height="1" /><rect shape-rendering="crispEdges" fill="rgb(255, 189, 164)"  x="6" y="17" width="1" height="1" /><rect shape-rendering="crispEdges" fill="rgb(246, 148, 131)"  x="6" y="18" width="1" height="1" /><rect shape-rendering="crispEdges" fill="rgb(246, 148, 131)"  x="6" y="19" width="1" height="1" /><rect shape-rendering="crispEdges" fill="rgb(246, 148, 131)"  x="6" y="20" width="1" height="1" /><rect shape-rendering="crispEdges" fill="rgb(230, 74, 74)"  x="6" y="21" width="1" height="1" /><rect shape-rendering="crispEdges" fill="rgb(230, 74, 74)"  x="6" y="22" width="1" height="1" /><rect shape-rendering="crispEdges" fill="rgb(230, 74, 74)"  x="6" y="23" width="1" height="1" /><rect shape-rendering="crispEdges" fill="rgb(230, 74, 74)"  x="6" y="24" width="1" height="1" /><rect shape-rendering="crispEdges" fill="rgb(156, 41, 41)"  x="6" y="25" width="1" height="1" /><rect shape-rendering="crispEdges" fill="rgb(156, 41, 41)"  x="6" y="26" width="1" height="1" /><rect shape-rendering="crispEdges" fill="rgb(90, 0, 0)"  x="6" y="27" width="1" height="1" /><rect shape-rendering="crispEdges" fill="rgb(197, 57, 57)"  x="7" y="15" width="1" height="1" /><rect shape-rendering="crispEdges" fill="rgb(230, 74, 74)"  x="7" y="16" width="1" height="1" /><rect shape-rendering="crispEdges" fill="rgb(238, 115, 106)"  x="7" y="17" width="1" height="1" /><rect shape-rendering="crispEdges" fill="rgb(238, 115, 106)"  x="7" y="18" width="1" height="1" /><rect shape-rendering="crispEdges" fill="rgb(156, 41, 41)"  x="7" y="19" width="1" height="1" /><rect shape-rendering="crispEdges" fill="rgb(156, 41, 41)"  x="7" y="20" width="1" height="1" /><rect shape-rendering="crispEdges" fill="rgb(156, 41, 41)"  x="7" y="21" width="1" height="1" /><rect shape-rendering="crispEdges" fill="rgb(156, 41, 41)"  x="7" y="22" width="1" height="1" /><rect shape-rendering="crispEdges" fill="rgb(156, 41, 41)"  x="7" y="23" width="1" height="1" /><rect shape-rendering="crispEdges" fill="rgb(156, 41, 41)"  x="7" y="24" width="1" height="1" /><rect shape-rendering="crispEdges" fill="rgb(123, 24, 24)"  x="7" y="25" width="1" height="1" /><rect shape-rendering="crispEdges" fill="rgb(90, 0, 0)"  x="7" y="26" width="1" height="1" /><rect shape-rendering="crispEdges" fill="rgb(230, 74, 74)"  x="8" y="16" width="1" height="1" /><rect shape-rendering="crispEdges" fill="rgb(230, 74, 74)"  x="8" y="17" width="1" height="1" /><rect shape-rendering="crispEdges" fill="rgb(156, 41, 41)"  x="8" y="18" width="1" height="1" /><rect shape-rendering="crispEdges" fill="rgb(156, 41, 41)"  x="8" y="19" width="1" height="1" /><rect shape-rendering="crispEdges" fill="rgb(156, 41, 41)"  x="8" y="20" width="1" height="1" /><rect shape-rendering="crispEdges" fill="rgb(156, 41, 41)"  x="8" y="21" width="1" height="1" /><rect shape-rendering="crispEdges" fill="rgb(156, 41, 41)"  x="8" y="22" width="1" height="1" /><rect shape-rendering="crispEdges" fill="rgb(222, 189, 131)"  x="8" y="23" width="1" height="1" /><rect shape-rendering="crispEdges" fill="rgb(222, 189, 131)"  x="8" y="24" width="1" height="1" /><rect shape-rendering="crispEdges" fill="rgb(205, 164, 106)"  x="8" y="25" width="1" height="1" /><rect shape-rendering="crispEdges" fill="rgb(205, 164, 106)"  x="8" y="26" width="1" height="1" /><rect shape-rendering="crispEdges" fill="rgb(230, 74, 74)"  x="9" y="16" width="1" height="1" /><rect shape-rendering="crispEdges" fill="rgb(230, 74, 74)"  x="9" y="17" width="1" height="1" /><rect shape-rendering="crispEdges" fill="rgb(156, 41, 41)"  x="9" y="18" width="1" height="1" /><rect shape-rendering="crispEdges" fill="rgb(197, 57, 57)"  x="9" y="19" width="1" height="1" /><rect shape-rendering="crispEdges" fill="rgb(123, 24, 24)"  x="9" y="20" width="1" height="1" /><rect shape-rendering="crispEdges" fill="rgb(222, 189, 131)"  x="9" y="21" width="1" height="1" /><rect shape-rendering="crispEdges" fill="rgb(222, 189, 131)"  x="9" y="22" width="1" height="1" /><rect shape-rendering="crispEdges" fill="rgb(180, 139, 90)"  x="9" y="23" width="1" height="1" /><rect shape-rendering="crispEdges" fill="rgb(180, 139, 90)"  x="9" y="24" width="1" height="1" /><rect shape-rendering="crispEdges" fill="rgb(156, 115, 74)"  x="9" y="25" width="1" height="1" /><rect shape-rendering="crispEdges" fill="rgb(156, 115, 74)"  x="9" y="26" width="1" height="1" /><rect shape-rendering="crispEdges" fill="rgb(156, 115, 74)"  x="9" y="27" width="1" height="1" /><rect shape-rendering="crispEdges" fill="rgb(156, 115, 74)"  x="9" y="28" width="1" height="1" /><rect shape-rendering="crispEdges" fill="rgb(156, 115, 74)"  x="9" y="29" width="1" height="1" /><rect shape-rendering="crispEdges" fill="rgb(230, 74, 74)"  x="10" y="12" width="1" height="1" /><rect shape-rendering="crispEdges" fill="rgb(238, 115, 106)"  x="10" y="13" width="1" height="1" /><rect shape-rendering="crispEdges" fill="rgb(238, 115, 106)"  x="10" y="14" width="1" height="1" /><rect shape-rendering="crispEdges" fill="rgb(197, 57, 57)"  x="10" y="15" width="1" height="1" /><rect shape-rendering="crispEdges" fill="rgb(197, 57, 57)"  x="10" y="16" width="1" height="1" /><rect shape-rendering="crispEdges" fill="rgb(156, 41, 41)"  x="10" y="17" width="1" height="1" /><rect shape-rendering="crispEdges" fill="rgb(156, 41, 41)"  x="10" y="18" width="1" height="1" /><rect shape-rendering="crispEdges" fill="rgb(123, 24, 24)"  x="10" y="19" width="1" height="1" /><rect shape-rendering="crispEdges" fill="rgb(205, 164, 106)"  x="10" y="20" width="1" height="1" /><rect shape-rendering="crispEdges" fill="rgb(156, 115, 74)"  x="10" y="21" width="1" height="1" /><rect shape-rendering="crispEdges" fill="rgb(156, 115, 74)"  x="10" y="22" width="1" height="1" /><rect shape-rendering="crispEdges" fill="rgb(156, 115, 74)"  x="10" y="23" width="1" height="1" /><rect shape-rendering="crispEdges" fill="rgb(230, 74, 74)"  x="11" y="13" width="1" height="1" /><rect shape-rendering="crispEdges" fill="rgb(246, 148, 131)"  x="11" y="14" width="1" height="1" /><rect shape-rendering="crispEdges" fill="rgb(255, 189, 164)"  x="11" y="15" width="1" height="1" /><rect shape-rendering="crispEdges" fill="rgb(246, 148, 131)"  x="11" y="16" width="1" height="1" /><rect shape-rendering="crispEdges" fill="rgb(197, 57, 57)"  x="11" y="17" width="1" height="1" /><rect shape-rendering="crispEdges" fill="rgb(197, 57, 57)"  x="11" y="18" width="1" height="1" /><rect shape-rendering="crispEdges" fill="rgb(123, 24, 24)"  x="11" y="19" width="1" height="1" /><rect shape-rendering="crispEdges" fill="rgb(131, 90, 57)"  x="11" y="20" width="1" height="1" /><rect shape-rendering="crispEdges" fill="rgb(131, 90, 57)"  x="11" y="21" width="1" height="1" /><rect shape-rendering="crispEdges" fill="rgb(230, 74, 74)"  x="12" y="10" width="1" height="1" /><rect shape-rendering="crispEdges" fill="rgb(230, 74, 74)"  x="12" y="14" width="1" height="1" /><rect shape-rendering="crispEdges" fill="rgb(246, 148, 131)"  x="12" y="15" width="1" height="1" /><rect shape-rendering="crispEdges" fill="rgb(246, 148, 131)"  x="12" y="16" width="1" height="1" /><rect shape-rendering="crispEdges" fill="rgb(230, 74, 74)"  x="12" y="17" width="1" height="1" /><rect shape-rendering="crispEdges" fill="rgb(230, 74, 74)"  x="12" y="18" width="1" height="1" /><rect shape-rendering="crispEdges" fill="rgb(156, 41, 41)"  x="12" y="19" width="1" height="1" /><rect shape-rendering="crispEdges" fill="rgb(90, 0, 0)"  x="12" y="20" width="1" height="1" /><rect shape-rendering="crispEdges" fill="rgb(238, 115, 106)"  x="13" y="10" width="1" height="1" /><rect shape-rendering="crispEdges" fill="rgb(230, 74, 74)"  x="13" y="11" width="1" height="1" /><rect shape-rendering="crispEdges" fill="rgb(197, 57, 57)"  x="13" y="15" width="1" height="1" /><rect shape-rendering="crispEdges" fill="rgb(197, 57, 57)"  x="13" y="16" width="1" height="1" /><rect shape-rendering="crispEdges" fill="rgb(197, 57, 57)"  x="13" y="17" width="1" height="1" /><rect shape-rendering="crispEdges" fill="rgb(230, 74, 74)"  x="13" y="18" width="1" height="1" /><rect shape-rendering="crispEdges" fill="rgb(230, 74, 74)"  x="13" y="19" width="1" height="1" /><rect shape-rendering="crispEdges" fill="rgb(90, 0, 0)"  x="13" y="20" width="1" height="1" /><rect shape-rendering="crispEdges" fill="rgb(180, 139, 90)"  x="13" y="21" width="1" height="1" /><rect shape-rendering="crispEdges" fill="rgb(222, 189, 131)"  x="13" y="22" width="1" height="1" /><rect shape-rendering="crispEdges" fill="rgb(156, 115, 74)"  x="13" y="23" width="1" height="1" /><rect shape-rendering="crispEdges" fill="rgb(222, 189, 131)"  x="13" y="24" width="1" height="1" /><rect shape-rendering="crispEdges" fill="rgb(156, 115, 74)"  x="13" y="25" width="1" height="1" /><rect shape-rendering="crispEdges" fill="rgb(156, 115, 74)"  x="14" y="3" width="1" height="1" /><rect shape-rendering="crispEdges" fill="rgb(156, 115, 74)"  x="14" y="4" width="1" height="1" /><rect shape-rendering="crispEdges" fill="rgb(156, 115, 74)"  x="14" y="5" width="1" height="1" /><rect shape-rendering="crispEdges" fill="rgb(156, 115, 74)"  x="14" y="6" width="1" height="1" /><rect shape-rendering="crispEdges" fill="rgb(238, 115, 106)"  x="14" y="10" width="1" height="1" /><rect shape-rendering="crispEdges" fill="rgb(246, 148, 131)"  x="14" y="11" width="1" height="1" /><rect shape-rendering="crispEdges" fill="rgb(230, 74, 74)"  x="14" y="12" width="1" height="1" /><rect shape-rendering="crispEdges" fill="rgb(156, 41, 41)"  x="14" y="17" width="1" height="1" /><rect shape-rendering="crispEdges" fill="rgb(123, 24, 24)"  x="14" y="18" width="1" height="1" /><rect shape-rendering="crispEdges" fill="rgb(123, 24, 24)"  x="14" y="19" width="1" height="1" /><rect shape-rendering="crispEdges" fill="rgb(90, 0, 0)"  x="14" y="20" width="1" height="1" /><rect shape-rendering="crispEdges" fill="rgb(123, 24, 24)"  x="14" y="21" width="1" height="1" /><rect shape-rendering="crispEdges" fill="rgb(131, 98, 90)"  x="14" y="22" width="1" height="1" /><rect shape-rendering="crispEdges" fill="rgb(131, 98, 90)"  x="14" y="23" width="1" height="1" /><rect shape-rendering="crispEdges" fill="rgb(131, 98, 90)"  x="14" y="24" width="1" height="1" /><rect shape-rendering="crispEdges" fill="rgb(131, 98, 90)"  x="14" y="25" width="1" height="1" /><rect shape-rendering="crispEdges" fill="rgb(131, 90, 57)"  x="14" y="26" width="1" height="1" /><rect shape-rendering="crispEdges" fill="rgb(180, 139, 90)"  x="15" y="2" width="1" height="1" /><rect shape-rendering="crispEdges" fill="rgb(205, 164, 106)"  x="15" y="3" width="1" height="1" /><rect shape-rendering="crispEdges" fill="rgb(205, 164, 106)"  x="15" y="4" width="1" height="1" /><rect shape-rendering="crispEdges" fill="rgb(131, 90, 57)"  x="15" y="5" width="1" height="1" /><rect shape-rendering="crispEdges" fill="rgb(197, 57, 57)"  x="15" y="6" width="1" height="1" /><rect shape-rendering="crispEdges" fill="rgb(197, 57, 57)"  x="15" y="7" width="1" height="1" /><rect shape-rendering="crispEdges" fill="rgb(197, 57, 57)"  x="15" y="10" width="1" height="1" /><rect shape-rendering="crispEdges" fill="rgb(246, 148, 131)"  x="15" y="11" width="1" height="1" /><rect shape-rendering="crispEdges" fill="rgb(246, 148, 131)"  x="15" y="12" width="1" height="1" /><rect shape-rendering="crispEdges" fill="rgb(197, 57, 57)"  x="15" y="13" width="1" height="1" /><rect shape-rendering="crispEdges" fill="rgb(172, 139, 123)"  x="15" y="18" width="1" height="1" /><rect shape-rendering="crispEdges" fill="rgb(131, 98, 90)"  x="15" y="19" width="1" height="1" /><rect shape-rendering="crispEdges" fill="rgb(131, 98, 90)"  x="15" y="20" width="1" height="1" /><rect shape-rendering="crispEdges" fill="rgb(131, 98, 90)"  x="15" y="21" width="1" height="1" /><rect shape-rendering="crispEdges" fill="rgb(131, 98, 90)"  x="15" y="22" width="1" height="1" /><rect shape-rendering="crispEdges" fill="rgb(131, 98, 90)"  x="15" y="23" width="1" height="1" /><rect shape-rendering="crispEdges" fill="rgb(131, 90, 57)"  x="15" y="24" width="1" height="1" /><rect shape-rendering="crispEdges" fill="rgb(131, 90, 57)"  x="15" y="25" width="1" height="1" /><rect shape-rendering="crispEdges" fill="rgb(131, 90, 57)"  x="15" y="26" width="1" height="1" /><rect shape-rendering="crispEdges" fill="rgb(131, 90, 57)"  x="15" y="27" width="1" height="1" /><rect shape-rendering="crispEdges" fill="rgb(131, 90, 57)"  x="15" y="28" width="1" height="1" /><rect shape-rendering="crispEdges" fill="rgb(131, 90, 57)"  x="16" y="2" width="1" height="1" /><rect shape-rendering="crispEdges" fill="rgb(131, 90, 57)"  x="16" y="3" width="1" height="1" /><rect shape-rendering="crispEdges" fill="rgb(131, 90, 57)"  x="16" y="4" width="1" height="1" /><rect shape-rendering="crispEdges" fill="rgb(197, 57, 57)"  x="16" y="5" width="1" height="1" /><rect shape-rendering="crispEdges" fill="rgb(246, 148, 131)"  x="16" y="6" width="1" height="1" /><rect shape-rendering="crispEdges" fill="rgb(230, 74, 74)"  x="16" y="7" width="1" height="1" /><rect shape-rendering="crispEdges" fill="rgb(230, 74, 74)"  x="16" y="8" width="1" height="1" /><rect shape-rendering="crispEdges" fill="rgb(230, 74, 74)"  x="16" y="9" width="1" height="1" /><rect shape-rendering="crispEdges" fill="rgb(197, 57, 57)"  x="16" y="10" width="1" height="1" /><rect shape-rendering="crispEdges" fill="rgb(246, 148, 131)"  x="16" y="11" width="1" height="1" /><rect shape-rendering="crispEdges" fill="rgb(246, 148, 131)"  x="16" y="12" width="1" height="1" /><rect shape-rendering="crispEdges" fill="rgb(197, 57, 57)"  x="16" y="13" width="1" height="1" /><rect shape-rendering="crispEdges" fill="rgb(172, 139, 123)"  x="16" y="18" width="1" height="1" /><rect shape-rendering="crispEdges" fill="rgb(131, 98, 90)"  x="16" y="19" width="1" height="1" /><rect shape-rendering="crispEdges" fill="rgb(90, 57, 65)"  x="16" y="20" width="1" height="1" /><rect shape-rendering="crispEdges" fill="rgb(131, 90, 57)"  x="17" y="3" width="1" height="1" /><rect shape-rendering="crispEdges" fill="rgb(131, 90, 57)"  x="17" y="4" width="1" height="1" /><rect shape-rendering="crispEdges" fill="rgb(230, 74, 74)"  x="17" y="5" width="1" height="1" /><rect shape-rendering="crispEdges" fill="rgb(246, 148, 131)"  x="17" y="6" width="1" height="1" /><rect shape-rendering="crispEdges" fill="rgb(238, 115, 106)"  x="17" y="7" width="1" height="1" /><rect shape-rendering="crispEdges" fill="rgb(230, 74, 74)"  x="17" y="8" width="1" height="1" /><rect shape-rendering="crispEdges" fill="rgb(230, 74, 74)"  x="17" y="9" width="1" height="1" /><rect shape-rendering="crispEdges" fill="rgb(156, 41, 41)"  x="17" y="10" width="1" height="1" /><rect shape-rendering="crispEdges" fill="rgb(197, 57, 57)"  x="17" y="11" width="1" height="1" /><rect shape-rendering="crispEdges" fill="rgb(230, 74, 74)"  x="17" y="12" width="1" height="1" /><rect shape-rendering="crispEdges" fill="rgb(197, 57, 57)"  x="17" y="13" width="1" height="1" /><rect shape-rendering="crispEdges" fill="rgb(156, 41, 41)"  x="17" y="14" width="1" height="1" /><rect shape-rendering="crispEdges" fill="rgb(172, 139, 123)"  x="17" y="17" width="1" height="1" /><rect shape-rendering="crispEdges" fill="rgb(131, 98, 90)"  x="17" y="18" width="1" height="1" /><rect shape-rendering="crispEdges" fill="rgb(90, 57, 65)"  x="17" y="19" width="1" height="1" /><rect shape-rendering="crispEdges" fill="rgb(156, 115, 74)"  x="18" y="1" width="1" height="1" /><rect shape-rendering="crispEdges" fill="rgb(156, 115, 74)"  x="18" y="2" width="1" height="1" /><rect shape-rendering="crispEdges" fill="rgb(222, 189, 131)"  x="18" y="3" width="1" height="1" /><rect shape-rendering="crispEdges" fill="rgb(156, 41, 41)"  x="18" y="4" width="1" height="1" /><rect shape-rendering="crispEdges" fill="rgb(255, 189, 164)"  x="18" y="5" width="1" height="1" /><rect shape-rendering="crispEdges" fill="rgb(246, 148, 131)"  x="18" y="6" width="1" height="1" /><rect shape-rendering="crispEdges" fill="rgb(238, 115, 106)"  x="18" y="7" width="1" height="1" /><rect shape-rendering="crispEdges" fill="rgb(156, 41, 41)"  x="18" y="8" width="1" height="1" /><rect shape-rendering="crispEdges" fill="rgb(156, 41, 41)"  x="18" y="9" width="1" height="1" /><rect shape-rendering="crispEdges" fill="rgb(156, 41, 41)"  x="18" y="10" width="1" height="1" /><rect shape-rendering="crispEdges" fill="rgb(197, 57, 57)"  x="18" y="11" width="1" height="1" /><rect shape-rendering="crispEdges" fill="rgb(230, 74, 74)"  x="18" y="12" width="1" height="1" /><rect shape-rendering="crispEdges" fill="rgb(230, 74, 74)"  x="18" y="13" width="1" height="1" /><rect shape-rendering="crispEdges" fill="rgb(123, 24, 24)"  x="18" y="14" width="1" height="1" /><rect shape-rendering="crispEdges" fill="rgb(172, 139, 123)"  x="18" y="15" width="1" height="1" /><rect shape-rendering="crispEdges" fill="rgb(172, 139, 123)"  x="18" y="16" width="1" height="1" /><rect shape-rendering="crispEdges" fill="rgb(131, 98, 90)"  x="18" y="17" width="1" height="1" /><rect shape-rendering="crispEdges" fill="rgb(90, 57, 65)"  x="18" y="18" width="1" height="1" /><rect shape-rendering="crispEdges" fill="rgb(156, 115, 74)"  x="19" y="1" width="1" height="1" /><rect shape-rendering="crispEdges" fill="rgb(222, 189, 131)"  x="19" y="2" width="1" height="1" /><rect shape-rendering="crispEdges" fill="rgb(156, 115, 74)"  x="19" y="3" width="1" height="1" /><rect shape-rendering="crispEdges" fill="rgb(156, 41, 41)"  x="19" y="4" width="1" height="1" /><rect shape-rendering="crispEdges" fill="rgb(255, 189, 164)"  x="19" y="5" width="1" height="1" /><rect shape-rendering="crispEdges" fill="rgb(246, 148, 131)"  x="19" y="6" width="1" height="1" /><rect shape-rendering="crispEdges" fill="rgb(156, 41, 41)"  x="19" y="7" width="1" height="1" /><rect shape-rendering="crispEdges" fill="rgb(156, 41, 41)"  x="19" y="8" width="1" height="1" /><rect shape-rendering="crispEdges" fill="rgb(197, 57, 57)"  x="19" y="9" width="1" height="1" /><rect shape-rendering="crispEdges" fill="rgb(123, 24, 24)"  x="19" y="10" width="1" height="1" /><rect shape-rendering="crispEdges" fill="rgb(123, 24, 24)"  x="19" y="11" width="1" height="1" /><rect shape-rendering="crispEdges" fill="rgb(156, 41, 41)"  x="19" y="12" width="1" height="1" /><rect shape-rendering="crispEdges" fill="rgb(230, 74, 74)"  x="19" y="13" width="1" height="1" /><rect shape-rendering="crispEdges" fill="rgb(123, 24, 24)"  x="19" y="14" width="1" height="1" /><rect shape-rendering="crispEdges" fill="rgb(131, 98, 90)"  x="19" y="15" width="1" height="1" /><rect shape-rendering="crispEdges" fill="rgb(131, 98, 90)"  x="19" y="16" width="1" height="1" /><rect shape-rendering="crispEdges" fill="rgb(90, 57, 65)"  x="19" y="17" width="1" height="1" /><rect shape-rendering="crispEdges" fill="rgb(156, 115, 74)"  x="20" y="2" width="1" height="1" /><rect shape-rendering="crispEdges" fill="rgb(238, 222, 156)"  x="20" y="3" width="1" height="1" /><rect shape-rendering="crispEdges" fill="rgb(197, 57, 57)"  x="20" y="4" width="1" height="1" /><rect shape-rendering="crispEdges" fill="rgb(246, 148, 131)"  x="20" y="5" width="1" height="1" /><rect shape-rendering="crispEdges" fill="rgb(246, 148, 131)"  x="20" y="6" width="1" height="1" /><rect shape-rendering="crispEdges" fill="rgb(156, 41, 41)"  x="20" y="7" width="1" height="1" /><rect shape-rendering="crispEdges" fill="rgb(156, 41, 41)"  x="20" y="8" width="1" height="1" /><rect shape-rendering="crispEdges" fill="rgb(123, 24, 24)"  x="20" y="9" width="1" height="1" /><rect shape-rendering="crispEdges" fill="rgb(205, 164, 106)"  x="20" y="10" width="1" height="1" /><rect shape-rendering="crispEdges" fill="rgb(131, 90, 57)"  x="20" y="11" width="1" height="1" /><rect shape-rendering="crispEdges" fill="rgb(90, 0, 0)"  x="20" y="12" width="1" height="1" /><rect shape-rendering="crispEdges" fill="rgb(90, 0, 0)"  x="20" y="13" width="1" height="1" /><rect shape-rendering="crispEdges" fill="rgb(90, 0, 0)"  x="20" y="14" width="1" height="1" /><rect shape-rendering="crispEdges" fill="rgb(131, 98, 90)"  x="20" y="15" width="1" height="1" /><rect shape-rendering="crispEdges" fill="rgb(115, 74, 82)"  x="20" y="16" width="1" height="1" /><rect shape-rendering="crispEdges" fill="rgb(131, 90, 57)"  x="21" y="3" width="1" height="1" /><rect shape-rendering="crispEdges" fill="rgb(238, 222, 156)"  x="21" y="4" width="1" height="1" /><rect shape-rendering="crispEdges" fill="rgb(197, 57, 57)"  x="21" y="5" width="1" height="1" /><rect shape-rendering="crispEdges" fill="rgb(230, 74, 74)"  x="21" y="6" width="1" height="1" /><rect shape-rendering="crispEdges" fill="rgb(156, 41, 41)"  x="21" y="7" width="1" height="1" /><rect shape-rendering="crispEdges" fill="rgb(156, 41, 41)"  x="21" y="8" width="1" height="1" /><rect shape-rendering="crispEdges" fill="rgb(222, 189, 131)"  x="21" y="9" width="1" height="1" /><rect shape-rendering="crispEdges" fill="rgb(156, 115, 74)"  x="21" y="10" width="1" height="1" /><rect shape-rendering="crispEdges" fill="rgb(131, 90, 57)"  x="21" y="11" width="1" height="1" /><rect shape-rendering="crispEdges" fill="rgb(180, 139, 90)"  x="21" y="13" width="1" height="1" /><rect shape-rendering="crispEdges" fill="rgb(123, 24, 24)"  x="21" y="14" width="1" height="1" /><rect shape-rendering="crispEdges" fill="rgb(131, 98, 90)"  x="21" y="15" width="1" height="1" /><rect shape-rendering="crispEdges" fill="rgb(131, 90, 57)"  x="22" y="4" width="1" height="1" /><rect shape-rendering="crispEdges" fill="rgb(197, 57, 57)"  x="22" y="5" width="1" height="1" /><rect shape-rendering="crispEdges" fill="rgb(230, 74, 74)"  x="22" y="6" width="1" height="1" /><rect shape-rendering="crispEdges" fill="rgb(156, 41, 41)"  x="22" y="7" width="1" height="1" /><rect shape-rendering="crispEdges" fill="rgb(156, 41, 41)"  x="22" y="8" width="1" height="1" /><rect shape-rendering="crispEdges" fill="rgb(222, 189, 131)"  x="22" y="9" width="1" height="1" /><rect shape-rendering="crispEdges" fill="rgb(156, 115, 74)"  x="22" y="10" width="1" height="1" /><rect shape-rendering="crispEdges" fill="rgb(222, 189, 131)"  x="22" y="13" width="1" height="1" /><rect shape-rendering="crispEdges" fill="rgb(131, 98, 90)"  x="22" y="14" width="1" height="1" /><rect shape-rendering="crispEdges" fill="rgb(131, 98, 90)"  x="22" y="15" width="1" height="1" /><rect shape-rendering="crispEdges" fill="rgb(230, 74, 74)"  x="23" y="5" width="1" height="1" /><rect shape-rendering="crispEdges" fill="rgb(230, 74, 74)"  x="23" y="6" width="1" height="1" /><rect shape-rendering="crispEdges" fill="rgb(156, 41, 41)"  x="23" y="7" width="1" height="1" /><rect shape-rendering="crispEdges" fill="rgb(222, 189, 131)"  x="23" y="8" width="1" height="1" /><rect shape-rendering="crispEdges" fill="rgb(180, 139, 90)"  x="23" y="9" width="1" height="1" /><rect shape-rendering="crispEdges" fill="rgb(156, 115, 74)"  x="23" y="10" width="1" height="1" /><rect shape-rendering="crispEdges" fill="rgb(156, 115, 74)"  x="23" y="13" width="1" height="1" /><rect shape-rendering="crispEdges" fill="rgb(131, 98, 90)"  x="23" y="14" width="1" height="1" /><rect shape-rendering="crispEdges" fill="rgb(131, 98, 90)"  x="23" y="15" width="1" height="1" /><rect shape-rendering="crispEdges" fill="rgb(123, 24, 24)"  x="24" y="2" width="1" height="1" /><rect shape-rendering="crispEdges" fill="rgb(123, 24, 24)"  x="24" y="3" width="1" height="1" /><rect shape-rendering="crispEdges" fill="rgb(230, 74, 74)"  x="24" y="5" width="1" height="1" /><rect shape-rendering="crispEdges" fill="rgb(230, 74, 74)"  x="24" y="6" width="1" height="1" /><rect shape-rendering="crispEdges" fill="rgb(156, 41, 41)"  x="24" y="7" width="1" height="1" /><rect shape-rendering="crispEdges" fill="rgb(222, 189, 131)"  x="24" y="8" width="1" height="1" /><rect shape-rendering="crispEdges" fill="rgb(180, 139, 90)"  x="24" y="9" width="1" height="1" /><rect shape-rendering="crispEdges" fill="rgb(222, 189, 131)"  x="24" y="13" width="1" height="1" /><rect shape-rendering="crispEdges" fill="rgb(131, 98, 90)"  x="24" y="14" width="1" height="1" /><rect shape-rendering="crispEdges" fill="rgb(131, 90, 57)"  x="24" y="15" width="1" height="1" /><rect shape-rendering="crispEdges" fill="rgb(123, 24, 24)"  x="25" y="2" width="1" height="1" /><rect shape-rendering="crispEdges" fill="rgb(123, 24, 24)"  x="25" y="5" width="1" height="1" /><rect shape-rendering="crispEdges" fill="rgb(156, 41, 41)"  x="25" y="6" width="1" height="1" /><rect shape-rendering="crispEdges" fill="rgb(123, 24, 24)"  x="25" y="7" width="1" height="1" /><rect shape-rendering="crispEdges" fill="rgb(205, 164, 106)"  x="25" y="8" width="1" height="1" /><rect shape-rendering="crispEdges" fill="rgb(156, 115, 74)"  x="25" y="9" width="1" height="1" /><rect shape-rendering="crispEdges" fill="rgb(156, 115, 74)"  x="25" y="13" width="1" height="1" /><rect shape-rendering="crispEdges" fill="rgb(131, 98, 90)"  x="25" y="14" width="1" height="1" /><rect shape-rendering="crispEdges" fill="rgb(131, 90, 57)"  x="25" y="15" width="1" height="1" /><rect shape-rendering="crispEdges" fill="rgb(123, 24, 24)"  x="26" y="3" width="1" height="1" /><rect shape-rendering="crispEdges" fill="rgb(123, 24, 24)"  x="26" y="4" width="1" height="1" /><rect shape-rendering="crispEdges" fill="rgb(123, 24, 24)"  x="26" y="5" width="1" height="1" /><rect shape-rendering="crispEdges" fill="rgb(156, 41, 41)"  x="26" y="6" width="1" height="1" /><rect shape-rendering="crispEdges" fill="rgb(90, 0, 0)"  x="26" y="7" width="1" height="1" /><rect shape-rendering="crispEdges" fill="rgb(205, 164, 106)"  x="26" y="8" width="1" height="1" /><rect shape-rendering="crispEdges" fill="rgb(156, 115, 74)"  x="26" y="9" width="1" height="1" /><rect shape-rendering="crispEdges" fill="rgb(131, 90, 57)"  x="26" y="14" width="1" height="1" /><rect shape-rendering="crispEdges" fill="rgb(131, 90, 57)"  x="26" y="15" width="1" height="1" /><rect shape-rendering="crispEdges" fill="rgb(156, 41, 41)"  x="27" y="3" width="1" height="1" /><rect shape-rendering="crispEdges" fill="rgb(123, 24, 24)"  x="27" y="4" width="1" height="1" /><rect shape-rendering="crispEdges" fill="rgb(123, 24, 24)"  x="27" y="5" width="1" height="1" /><rect shape-rendering="crispEdges" fill="rgb(90, 0, 0)"  x="27" y="6" width="1" height="1" /><rect shape-rendering="crispEdges" fill="rgb(156, 115, 74)"  x="27" y="9" width="1" height="1" /><rect shape-rendering="crispEdges" fill="rgb(131, 90, 57)"  x="27" y="15" width="1" height="1" /><rect shape-rendering="crispEdges" fill="rgb(90, 0, 0)"  x="28" y="4" width="1" height="1" /><rect shape-rendering="crispEdges" fill="rgb(90, 0, 0)"  x="28" y="5" width="1" height="1" /><rect shape-rendering="crispEdges" fill="rgb(156, 115, 74)"  x="28" y="9" width="1" height="1" /><rect shape-rendering="crispEdges" fill="rgb(131, 90, 57)"  x="28" y="15" width="1" height="1" /><rect shape-rendering="crispEdges" fill="rgb(90, 0, 0)"  x="29" y="4" width="1" height="1" /><rect shape-rendering="crispEdges" fill="rgb(156, 115, 74)"  x="29" y="9" width="1" height="1" /></svg>