<svg xmlns="http://www.w3.org/2000/svg" xmlns:xlink= "http://www.w3.org/1999/xlink" width="32" height="32" viewBox ="0 0 32 32"><rect shape-rendering="crispEdges" fill="rgb(189, 205, 205)"  x="0" y="24" width="1" height="1" /><rect shape-rendering="crispEdges" fill="rgb(148, 164, 164)"  x="0" y="25" width="1" height="1" /><rect shape-rendering="crispEdges" fill="rgb(123, 139, 131)"  x="0" y="29" width="1" height="1" /><rect shape-rendering="crispEdges" fill="rgb(74, 82, 156)"  x="1" y="12" width="1" height="1" /><rect shape-rendering="crispEdges" fill="rgb(156, 148, 255)"  x="1" y="13" width="1" height="1" /><rect shape-rendering="crispEdges" fill="rgb(156, 148, 255)"  x="1" y="14" width="1" height="1" /><rect shape-rendering="crispEdges" fill="rgb(156, 148, 255)"  x="1" y="15" width="1" height="1" /><rect shape-rendering="crispEdges" fill="rgb(156, 148, 255)"  x="1" y="16" width="1" height="1" /><rect shape-rendering="crispEdges" fill="rgb(74, 82, 156)"  x="1" y="17" width="1" height="1" /><rect shape-rendering="crispEdges" fill="rgb(90, 98, 189)"  x="1" y="18" width="1" height="1" /><rect shape-rendering="crispEdges" fill="rgb(57, 74, 123)"  x="1" y="19" width="1" height="1" /><rect shape-rendering="crispEdges" fill="rgb(189, 205, 205)"  x="1" y="24" width="1" height="1" /><rect shape-rendering="crispEdges" fill="rgb(255, 255, 255)"  x="1" y="25" width="1" height="1" /><rect shape-rendering="crispEdges" fill="rgb(148, 164, 164)"  x="1" y="26" width="1" height="1" /><rect shape-rendering="crispEdges" fill="rgb(148, 164, 164)"  x="1" y="28" width="1" height="1" /><rect shape-rendering="crispEdges" fill="rgb(123, 139, 131)"  x="1" y="29" width="1" height="1" /><rect shape-rendering="crispEdges" fill="rgb(57, 74, 123)"  x="2" y="11" width="1" height="1" /><rect shape-rendering="crispEdges" fill="rgb(74, 82, 156)"  x="2" y="12" width="1" height="1" /><rect shape-rendering="crispEdges" fill="rgb(74, 82, 156)"  x="2" y="13" width="1" height="1" /><rect shape-rendering="crispEdges" fill="rgb(74, 82, 156)"  x="2" y="14" width="1" height="1" /><rect shape-rendering="crispEdges" fill="rgb(90, 98, 189)"  x="2" y="15" width="1" height="1" /><rect shape-rendering="crispEdges" fill="rgb(156, 148, 255)"  x="2" y="16" width="1" height="1" /><rect shape-rendering="crispEdges" fill="rgb(131, 123, 222)"  x="2" y="17" width="1" height="1" /><rect shape-rendering="crispEdges" fill="rgb(74, 82, 156)"  x="2" y="18" width="1" height="1" /><rect shape-rendering="crispEdges" fill="rgb(57, 74, 123)"  x="2" y="19" width="1" height="1" /><rect shape-rendering="crispEdges" fill="rgb(164, 172, 197)"  x="2" y="21" width="1" height="1" /><rect shape-rendering="crispEdges" fill="rgb(205, 205, 222)"  x="2" y="22" width="1" height="1" /><rect shape-rendering="crispEdges" fill="rgb(189, 205, 205)"  x="2" y="23" width="1" height="1" /><rect shape-rendering="crispEdges" fill="rgb(189, 205, 205)"  x="2" y="24" width="1" height="1" /><rect shape-rendering="crispEdges" fill="rgb(255, 255, 255)"  x="2" y="25" width="1" height="1" /><rect shape-rendering="crispEdges" fill="rgb(213, 230, 230)"  x="2" y="26" width="1" height="1" /><rect shape-rendering="crispEdges" fill="rgb(123, 139, 131)"  x="2" y="27" width="1" height="1" /><rect shape-rendering="crispEdges" fill="rgb(123, 139, 131)"  x="2" y="28" width="1" height="1" /><rect shape-rendering="crispEdges" fill="rgb(106, 115, 106)"  x="2" y="29" width="1" height="1" /><rect shape-rendering="crispEdges" fill="rgb(57, 74, 123)"  x="3" y="10" width="1" height="1" /><rect shape-rendering="crispEdges" fill="rgb(57, 74, 123)"  x="3" y="11" width="1" height="1" /><rect shape-rendering="crispEdges" fill="rgb(57, 74, 123)"  x="3" y="12" width="1" height="1" /><rect shape-rendering="crispEdges" fill="rgb(57, 74, 123)"  x="3" y="13" width="1" height="1" /><rect shape-rendering="crispEdges" fill="rgb(74, 82, 156)"  x="3" y="14" width="1" height="1" /><rect shape-rendering="crispEdges" fill="rgb(74, 82, 156)"  x="3" y="15" width="1" height="1" /><rect shape-rendering="crispEdges" fill="rgb(90, 98, 189)"  x="3" y="16" width="1" height="1" /><rect shape-rendering="crispEdges" fill="rgb(131, 123, 222)"  x="3" y="17" width="1" height="1" /><rect shape-rendering="crispEdges" fill="rgb(74, 82, 156)"  x="3" y="18" width="1" height="1" /><rect shape-rendering="crispEdges" fill="rgb(57, 74, 123)"  x="3" y="19" width="1" height="1" /><rect shape-rendering="crispEdges" fill="rgb(164, 172, 197)"  x="3" y="21" width="1" height="1" /><rect shape-rendering="crispEdges" fill="rgb(230, 230, 255)"  x="3" y="22" width="1" height="1" /><rect shape-rendering="crispEdges" fill="rgb(139, 148, 222)"  x="3" y="23" width="1" height="1" /><rect shape-rendering="crispEdges" fill="rgb(123, 131, 189)"  x="3" y="24" width="1" height="1" /><rect shape-rendering="crispEdges" fill="rgb(123, 139, 131)"  x="3" y="25" width="1" height="1" /><rect shape-rendering="crispEdges" fill="rgb(148, 164, 164)"  x="3" y="26" width="1" height="1" /><rect shape-rendering="crispEdges" fill="rgb(189, 205, 205)"  x="3" y="27" width="1" height="1" /><rect shape-rendering="crispEdges" fill="rgb(148, 164, 164)"  x="3" y="28" width="1" height="1" /><rect shape-rendering="crispEdges" fill="rgb(106, 115, 106)"  x="3" y="29" width="1" height="1" /><rect shape-rendering="crispEdges" fill="rgb(57, 74, 123)"  x="4" y="14" width="1" height="1" /><rect shape-rendering="crispEdges" fill="rgb(57, 74, 123)"  x="4" y="15" width="1" height="1" /><rect shape-rendering="crispEdges" fill="rgb(74, 82, 156)"  x="4" y="16" width="1" height="1" /><rect shape-rendering="crispEdges" fill="rgb(156, 148, 255)"  x="4" y="17" width="1" height="1" /><rect shape-rendering="crispEdges" fill="rgb(74, 82, 156)"  x="4" y="18" width="1" height="1" /><rect shape-rendering="crispEdges" fill="rgb(90, 98, 189)"  x="4" y="19" width="1" height="1" /><rect shape-rendering="crispEdges" fill="rgb(123, 123, 139)"  x="4" y="21" width="1" height="1" /><rect shape-rendering="crispEdges" fill="rgb(148, 148, 172)"  x="4" y="22" width="1" height="1" /><rect shape-rendering="crispEdges" fill="rgb(205, 205, 222)"  x="4" y="23" width="1" height="1" /><rect shape-rendering="crispEdges" fill="rgb(205, 205, 222)"  x="4" y="24" width="1" height="1" /><rect shape-rendering="crispEdges" fill="rgb(148, 148, 172)"  x="4" y="25" width="1" height="1" /><rect shape-rendering="crispEdges" fill="rgb(123, 139, 131)"  x="4" y="27" width="1" height="1" /><rect shape-rendering="crispEdges" fill="rgb(189, 205, 205)"  x="4" y="28" width="1" height="1" /><rect shape-rendering="crispEdges" fill="rgb(148, 164, 164)"  x="4" y="29" width="1" height="1" /><rect shape-rendering="crispEdges" fill="rgb(57, 74, 123)"  x="5" y="16" width="1" height="1" /><rect shape-rendering="crispEdges" fill="rgb(156, 148, 255)"  x="5" y="17" width="1" height="1" /><rect shape-rendering="crispEdges" fill="rgb(74, 82, 156)"  x="5" y="18" width="1" height="1" /><rect shape-rendering="crispEdges" fill="rgb(90, 98, 189)"  x="5" y="19" width="1" height="1" /><rect shape-rendering="crispEdges" fill="rgb(123, 131, 139)"  x="5" y="20" width="1" height="1" /><rect shape-rendering="crispEdges" fill="rgb(123, 123, 139)"  x="5" y="21" width="1" height="1" /><rect shape-rendering="crispEdges" fill="rgb(90, 98, 115)"  x="5" y="22" width="1" height="1" /><rect shape-rendering="crispEdges" fill="rgb(90, 98, 115)"  x="5" y="23" width="1" height="1" /><rect shape-rendering="crispEdges" fill="rgb(148, 148, 172)"  x="5" y="24" width="1" height="1" /><rect shape-rendering="crispEdges" fill="rgb(205, 205, 222)"  x="5" y="25" width="1" height="1" /><rect shape-rendering="crispEdges" fill="rgb(90, 98, 115)"  x="5" y="26" width="1" height="1" /><rect shape-rendering="crispEdges" fill="rgb(148, 164, 164)"  x="5" y="27" width="1" height="1" /><rect shape-rendering="crispEdges" fill="rgb(123, 139, 131)"  x="5" y="28" width="1" height="1" /><rect shape-rendering="crispEdges" fill="rgb(189, 205, 205)"  x="5" y="29" width="1" height="1" /><rect shape-rendering="crispEdges" fill="rgb(148, 164, 164)"  x="5" y="30" width="1" height="1" /><rect shape-rendering="crispEdges" fill="rgb(90, 98, 189)"  x="6" y="17" width="1" height="1" /><rect shape-rendering="crispEdges" fill="rgb(156, 148, 255)"  x="6" y="18" width="1" height="1" /><rect shape-rendering="crispEdges" fill="rgb(90, 98, 189)"  x="6" y="19" width="1" height="1" /><rect shape-rendering="crispEdges" fill="rgb(90, 98, 189)"  x="6" y="20" width="1" height="1" /><rect shape-rendering="crispEdges" fill="rgb(90, 98, 115)"  x="6" y="24" width="1" height="1" /><rect shape-rendering="crispEdges" fill="rgb(148, 148, 172)"  x="6" y="25" width="1" height="1" /><rect shape-rendering="crispEdges" fill="rgb(205, 205, 222)"  x="6" y="26" width="1" height="1" /><rect shape-rendering="crispEdges" fill="rgb(90, 98, 115)"  x="6" y="27" width="1" height="1" /><rect shape-rendering="crispEdges" fill="rgb(148, 164, 164)"  x="6" y="28" width="1" height="1" /><rect shape-rendering="crispEdges" fill="rgb(123, 139, 131)"  x="6" y="29" width="1" height="1" /><rect shape-rendering="crispEdges" fill="rgb(189, 205, 205)"  x="6" y="30" width="1" height="1" /><rect shape-rendering="crispEdges" fill="rgb(106, 115, 106)"  x="6" y="31" width="1" height="1" /><rect shape-rendering="crispEdges" fill="rgb(148, 139, 156)"  x="7" y="16" width="1" height="1" /><rect shape-rendering="crispEdges" fill="rgb(57, 74, 123)"  x="7" y="17" width="1" height="1" /><rect shape-rendering="crispEdges" fill="rgb(156, 148, 255)"  x="7" y="18" width="1" height="1" /><rect shape-rendering="crispEdges" fill="rgb(90, 98, 189)"  x="7" y="19" width="1" height="1" /><rect shape-rendering="crispEdges" fill="rgb(90, 98, 189)"  x="7" y="20" width="1" height="1" /><rect shape-rendering="crispEdges" fill="rgb(90, 98, 189)"  x="7" y="21" width="1" height="1" /><rect shape-rendering="crispEdges" fill="rgb(74, 90, 156)"  x="7" y="22" width="1" height="1" /><rect shape-rendering="crispEdges" fill="rgb(90, 98, 115)"  x="7" y="25" width="1" height="1" /><rect shape-rendering="crispEdges" fill="rgb(148, 148, 172)"  x="7" y="26" width="1" height="1" /><rect shape-rendering="crispEdges" fill="rgb(205, 205, 222)"  x="7" y="27" width="1" height="1" /><rect shape-rendering="crispEdges" fill="rgb(90, 98, 115)"  x="7" y="28" width="1" height="1" /><rect shape-rendering="crispEdges" fill="rgb(82, 82, 82)"  x="7" y="29" width="1" height="1" /><rect shape-rendering="crispEdges" fill="rgb(148, 164, 164)"  x="7" y="30" width="1" height="1" /><rect shape-rendering="crispEdges" fill="rgb(123, 139, 131)"  x="7" y="31" width="1" height="1" /><rect shape-rendering="crispEdges" fill="rgb(123, 123, 139)"  x="8" y="15" width="1" height="1" /><rect shape-rendering="crispEdges" fill="rgb(197, 197, 213)"  x="8" y="16" width="1" height="1" /><rect shape-rendering="crispEdges" fill="rgb(123, 131, 115)"  x="8" y="17" width="1" height="1" /><rect shape-rendering="crispEdges" fill="rgb(189, 164, 255)"  x="8" y="18" width="1" height="1" /><rect shape-rendering="crispEdges" fill="rgb(131, 123, 222)"  x="8" y="19" width="1" height="1" /><rect shape-rendering="crispEdges" fill="rgb(90, 98, 189)"  x="8" y="20" width="1" height="1" /><rect shape-rendering="crispEdges" fill="rgb(90, 98, 189)"  x="8" y="21" width="1" height="1" /><rect shape-rendering="crispEdges" fill="rgb(90, 98, 189)"  x="8" y="22" width="1" height="1" /><rect shape-rendering="crispEdges" fill="rgb(74, 82, 156)"  x="8" y="23" width="1" height="1" /><rect shape-rendering="crispEdges" fill="rgb(98, 90, 123)"  x="8" y="24" width="1" height="1" /><rect shape-rendering="crispEdges" fill="rgb(123, 139, 131)"  x="8" y="25" width="1" height="1" /><rect shape-rendering="crispEdges" fill="rgb(213, 230, 230)"  x="8" y="26" width="1" height="1" /><rect shape-rendering="crispEdges" fill="rgb(90, 98, 115)"  x="8" y="27" width="1" height="1" /><rect shape-rendering="crispEdges" fill="rgb(164, 172, 197)"  x="8" y="28" width="1" height="1" /><rect shape-rendering="crispEdges" fill="rgb(164, 164, 197)"  x="8" y="29" width="1" height="1" /><rect shape-rendering="crispEdges" fill="rgb(123, 139, 131)"  x="8" y="31" width="1" height="1" /><rect shape-rendering="crispEdges" fill="rgb(90, 98, 115)"  x="9" y="14" width="1" height="1" /><rect shape-rendering="crispEdges" fill="rgb(123, 123, 139)"  x="9" y="15" width="1" height="1" /><rect shape-rendering="crispEdges" fill="rgb(205, 205, 222)"  x="9" y="16" width="1" height="1" /><rect shape-rendering="crispEdges" fill="rgb(74, 74, 74)"  x="9" y="17" width="1" height="1" /><rect shape-rendering="crispEdges" fill="rgb(189, 164, 255)"  x="9" y="18" width="1" height="1" /><rect shape-rendering="crispEdges" fill="rgb(189, 164, 255)"  x="9" y="19" width="1" height="1" /><rect shape-rendering="crispEdges" fill="rgb(189, 164, 255)"  x="9" y="20" width="1" height="1" /><rect shape-rendering="crispEdges" fill="rgb(131, 123, 222)"  x="9" y="21" width="1" height="1" /><rect shape-rendering="crispEdges" fill="rgb(90, 98, 189)"  x="9" y="22" width="1" height="1" /><rect shape-rendering="crispEdges" fill="rgb(98, 98, 180)"  x="9" y="23" width="1" height="1" /><rect shape-rendering="crispEdges" fill="rgb(115, 123, 156)"  x="9" y="24" width="1" height="1" /><rect shape-rendering="crispEdges" fill="rgb(255, 255, 255)"  x="9" y="25" width="1" height="1" /><rect shape-rendering="crispEdges" fill="rgb(189, 205, 205)"  x="9" y="26" width="1" height="1" /><rect shape-rendering="crispEdges" fill="rgb(123, 139, 131)"  x="9" y="27" width="1" height="1" /><rect shape-rendering="crispEdges" fill="rgb(90, 98, 115)"  x="9" y="28" width="1" height="1" /><rect shape-rendering="crispEdges" fill="rgb(90, 98, 115)"  x="9" y="29" width="1" height="1" /><rect shape-rendering="crispEdges" fill="rgb(57, 74, 123)"  x="10" y="3" width="1" height="1" /><rect shape-rendering="crispEdges" fill="rgb(123, 123, 139)"  x="10" y="15" width="1" height="1" /><rect shape-rendering="crispEdges" fill="rgb(148, 148, 172)"  x="10" y="16" width="1" height="1" /><rect shape-rendering="crispEdges" fill="rgb(74, 74, 74)"  x="10" y="17" width="1" height="1" /><rect shape-rendering="crispEdges" fill="rgb(74, 74, 74)"  x="10" y="18" width="1" height="1" /><rect shape-rendering="crispEdges" fill="rgb(74, 74, 74)"  x="10" y="19" width="1" height="1" /><rect shape-rendering="crispEdges" fill="rgb(74, 74, 74)"  x="10" y="20" width="1" height="1" /><rect shape-rendering="crispEdges" fill="rgb(74, 74, 74)"  x="10" y="21" width="1" height="1" /><rect shape-rendering="crispEdges" fill="rgb(131, 123, 222)"  x="10" y="22" width="1" height="1" /><rect shape-rendering="crispEdges" fill="rgb(98, 106, 115)"  x="10" y="23" width="1" height="1" /><rect shape-rendering="crispEdges" fill="rgb(90, 90, 98)"  x="10" y="24" width="1" height="1" /><rect shape-rendering="crispEdges" fill="rgb(189, 205, 205)"  x="10" y="25" width="1" height="1" /><rect shape-rendering="crispEdges" fill="rgb(123, 139, 131)"  x="10" y="26" width="1" height="1" /><rect shape-rendering="crispEdges" fill="rgb(82, 82, 82)"  x="10" y="27" width="1" height="1" /><rect shape-rendering="crispEdges" fill="rgb(90, 98, 115)"  x="10" y="29" width="1" height="1" /><rect shape-rendering="crispEdges" fill="rgb(57, 74, 123)"  x="11" y="2" width="1" height="1" /><rect shape-rendering="crispEdges" fill="rgb(131, 123, 222)"  x="11" y="3" width="1" height="1" /><rect shape-rendering="crispEdges" fill="rgb(123, 139, 131)"  x="11" y="14" width="1" height="1" /><rect shape-rendering="crispEdges" fill="rgb(213, 230, 230)"  x="11" y="15" width="1" height="1" /><rect shape-rendering="crispEdges" fill="rgb(90, 98, 115)"  x="11" y="16" width="1" height="1" /><rect shape-rendering="crispEdges" fill="rgb(172, 172, 197)"  x="11" y="17" width="1" height="1" /><rect shape-rendering="crispEdges" fill="rgb(205, 205, 230)"  x="11" y="18" width="1" height="1" /><rect shape-rendering="crispEdges" fill="rgb(205, 205, 230)"  x="11" y="19" width="1" height="1" /><rect shape-rendering="crispEdges" fill="rgb(74, 74, 74)"  x="11" y="22" width="1" height="1" /><rect shape-rendering="crispEdges" fill="rgb(65, 65, 65)"  x="11" y="23" width="1" height="1" /><rect shape-rendering="crispEdges" fill="rgb(90, 98, 98)"  x="11" y="24" width="1" height="1" /><rect shape-rendering="crispEdges" fill="rgb(106, 115, 106)"  x="11" y="25" width="1" height="1" /><rect shape-rendering="crispEdges" fill="rgb(106, 115, 106)"  x="11" y="26" width="1" height="1" /><rect shape-rendering="crispEdges" fill="rgb(74, 82, 156)"  x="12" y="1" width="1" height="1" /><rect shape-rendering="crispEdges" fill="rgb(90, 98, 189)"  x="12" y="2" width="1" height="1" /><rect shape-rendering="crispEdges" fill="rgb(131, 123, 222)"  x="12" y="3" width="1" height="1" /><rect shape-rendering="crispEdges" fill="rgb(148, 164, 164)"  x="12" y="13" width="1" height="1" /><rect shape-rendering="crispEdges" fill="rgb(189, 205, 205)"  x="12" y="14" width="1" height="1" /><rect shape-rendering="crispEdges" fill="rgb(189, 205, 205)"  x="12" y="15" width="1" height="1" /><rect shape-rendering="crispEdges" fill="rgb(213, 230, 230)"  x="12" y="16" width="1" height="1" /><rect shape-rendering="crispEdges" fill="rgb(148, 148, 172)"  x="12" y="17" width="1" height="1" /><rect shape-rendering="crispEdges" fill="rgb(148, 148, 172)"  x="12" y="18" width="1" height="1" /><rect shape-rendering="crispEdges" fill="rgb(164, 172, 197)"  x="12" y="19" width="1" height="1" /><rect shape-rendering="crispEdges" fill="rgb(205, 205, 222)"  x="12" y="20" width="1" height="1" /><rect shape-rendering="crispEdges" fill="rgb(74, 82, 156)"  x="13" y="1" width="1" height="1" /><rect shape-rendering="crispEdges" fill="rgb(74, 82, 156)"  x="13" y="2" width="1" height="1" /><rect shape-rendering="crispEdges" fill="rgb(131, 123, 222)"  x="13" y="3" width="1" height="1" /><rect shape-rendering="crispEdges" fill="rgb(148, 164, 164)"  x="13" y="12" width="1" height="1" /><rect shape-rendering="crispEdges" fill="rgb(213, 230, 230)"  x="13" y="13" width="1" height="1" /><rect shape-rendering="crispEdges" fill="rgb(189, 205, 205)"  x="13" y="14" width="1" height="1" /><rect shape-rendering="crispEdges" fill="rgb(123, 139, 131)"  x="13" y="15" width="1" height="1" /><rect shape-rendering="crispEdges" fill="rgb(106, 115, 106)"  x="13" y="16" width="1" height="1" /><rect shape-rendering="crispEdges" fill="rgb(148, 164, 164)"  x="13" y="17" width="1" height="1" /><rect shape-rendering="crispEdges" fill="rgb(90, 98, 115)"  x="13" y="18" width="1" height="1" /><rect shape-rendering="crispEdges" fill="rgb(90, 98, 115)"  x="13" y="19" width="1" height="1" /><rect shape-rendering="crispEdges" fill="rgb(148, 148, 172)"  x="13" y="20" width="1" height="1" /><rect shape-rendering="crispEdges" fill="rgb(164, 172, 197)"  x="13" y="21" width="1" height="1" /><rect shape-rendering="crispEdges" fill="rgb(74, 82, 156)"  x="14" y="1" width="1" height="1" /><rect shape-rendering="crispEdges" fill="rgb(74, 82, 156)"  x="14" y="2" width="1" height="1" /><rect shape-rendering="crispEdges" fill="rgb(131, 123, 222)"  x="14" y="3" width="1" height="1" /><rect shape-rendering="crispEdges" fill="rgb(57, 74, 123)"  x="14" y="4" width="1" height="1" /><rect shape-rendering="crispEdges" fill="rgb(90, 98, 115)"  x="14" y="9" width="1" height="1" /><rect shape-rendering="crispEdges" fill="rgb(123, 139, 131)"  x="14" y="11" width="1" height="1" /><rect shape-rendering="crispEdges" fill="rgb(123, 139, 131)"  x="14" y="12" width="1" height="1" /><rect shape-rendering="crispEdges" fill="rgb(189, 205, 205)"  x="14" y="13" width="1" height="1" /><rect shape-rendering="crispEdges" fill="rgb(106, 115, 106)"  x="14" y="14" width="1" height="1" /><rect shape-rendering="crispEdges" fill="rgb(123, 139, 131)"  x="14" y="17" width="1" height="1" /><rect shape-rendering="crispEdges" fill="rgb(90, 98, 115)"  x="14" y="20" width="1" height="1" /><rect shape-rendering="crispEdges" fill="rgb(90, 98, 115)"  x="14" y="21" width="1" height="1" /><rect shape-rendering="crispEdges" fill="rgb(90, 98, 115)"  x="14" y="22" width="1" height="1" /><rect shape-rendering="crispEdges" fill="rgb(74, 82, 156)"  x="15" y="1" width="1" height="1" /><rect shape-rendering="crispEdges" fill="rgb(57, 74, 123)"  x="15" y="2" width="1" height="1" /><rect shape-rendering="crispEdges" fill="rgb(131, 123, 222)"  x="15" y="3" width="1" height="1" /><rect shape-rendering="crispEdges" fill="rgb(57, 74, 123)"  x="15" y="4" width="1" height="1" /><rect shape-rendering="crispEdges" fill="rgb(123, 123, 139)"  x="15" y="8" width="1" height="1" /><rect shape-rendering="crispEdges" fill="rgb(123, 123, 139)"  x="15" y="9" width="1" height="1" /><rect shape-rendering="crispEdges" fill="rgb(115, 123, 148)"  x="15" y="10" width="1" height="1" /><rect shape-rendering="crispEdges" fill="rgb(213, 230, 230)"  x="15" y="11" width="1" height="1" /><rect shape-rendering="crispEdges" fill="rgb(189, 205, 205)"  x="15" y="12" width="1" height="1" /><rect shape-rendering="crispEdges" fill="rgb(123, 139, 131)"  x="15" y="13" width="1" height="1" /><rect shape-rendering="crispEdges" fill="rgb(57, 74, 123)"  x="16" y="1" width="1" height="1" /><rect shape-rendering="crispEdges" fill="rgb(57, 74, 123)"  x="16" y="2" width="1" height="1" /><rect shape-rendering="crispEdges" fill="rgb(131, 123, 222)"  x="16" y="3" width="1" height="1" /><rect shape-rendering="crispEdges" fill="rgb(74, 82, 156)"  x="16" y="4" width="1" height="1" /><rect shape-rendering="crispEdges" fill="rgb(57, 74, 123)"  x="16" y="5" width="1" height="1" /><rect shape-rendering="crispEdges" fill="rgb(148, 148, 172)"  x="16" y="7" width="1" height="1" /><rect shape-rendering="crispEdges" fill="rgb(205, 205, 222)"  x="16" y="8" width="1" height="1" /><rect shape-rendering="crispEdges" fill="rgb(205, 205, 222)"  x="16" y="9" width="1" height="1" /><rect shape-rendering="crispEdges" fill="rgb(148, 148, 172)"  x="16" y="10" width="1" height="1" /><rect shape-rendering="crispEdges" fill="rgb(90, 98, 115)"  x="16" y="11" width="1" height="1" /><rect shape-rendering="crispEdges" fill="rgb(213, 230, 230)"  x="16" y="12" width="1" height="1" /><rect shape-rendering="crispEdges" fill="rgb(106, 115, 106)"  x="16" y="13" width="1" height="1" /><rect shape-rendering="crispEdges" fill="rgb(57, 74, 123)"  x="17" y="1" width="1" height="1" /><rect shape-rendering="crispEdges" fill="rgb(57, 74, 123)"  x="17" y="2" width="1" height="1" /><rect shape-rendering="crispEdges" fill="rgb(131, 123, 222)"  x="17" y="3" width="1" height="1" /><rect shape-rendering="crispEdges" fill="rgb(156, 148, 255)"  x="17" y="4" width="1" height="1" /><rect shape-rendering="crispEdges" fill="rgb(156, 148, 255)"  x="17" y="5" width="1" height="1" /><rect shape-rendering="crispEdges" fill="rgb(98, 98, 180)"  x="17" y="6" width="1" height="1" /><rect shape-rendering="crispEdges" fill="rgb(82, 98, 106)"  x="17" y="7" width="1" height="1" /><rect shape-rendering="crispEdges" fill="rgb(123, 131, 123)"  x="17" y="8" width="1" height="1" /><rect shape-rendering="crispEdges" fill="rgb(74, 74, 74)"  x="17" y="9" width="1" height="1" /><rect shape-rendering="crispEdges" fill="rgb(74, 74, 74)"  x="17" y="10" width="1" height="1" /><rect shape-rendering="crispEdges" fill="rgb(164, 172, 197)"  x="17" y="11" width="1" height="1" /><rect shape-rendering="crispEdges" fill="rgb(139, 148, 180)"  x="17" y="12" width="1" height="1" /><rect shape-rendering="crispEdges" fill="rgb(148, 164, 164)"  x="17" y="13" width="1" height="1" /><rect shape-rendering="crispEdges" fill="rgb(123, 139, 131)"  x="17" y="14" width="1" height="1" /><rect shape-rendering="crispEdges" fill="rgb(57, 74, 123)"  x="18" y="1" width="1" height="1" /><rect shape-rendering="crispEdges" fill="rgb(57, 74, 123)"  x="18" y="2" width="1" height="1" /><rect shape-rendering="crispEdges" fill="rgb(57, 74, 123)"  x="18" y="3" width="1" height="1" /><rect shape-rendering="crispEdges" fill="rgb(74, 82, 156)"  x="18" y="4" width="1" height="1" /><rect shape-rendering="crispEdges" fill="rgb(74, 82, 156)"  x="18" y="5" width="1" height="1" /><rect shape-rendering="crispEdges" fill="rgb(156, 148, 255)"  x="18" y="6" width="1" height="1" /><rect shape-rendering="crispEdges" fill="rgb(156, 148, 255)"  x="18" y="7" width="1" height="1" /><rect shape-rendering="crispEdges" fill="rgb(189, 164, 255)"  x="18" y="8" width="1" height="1" /><rect shape-rendering="crispEdges" fill="rgb(189, 164, 255)"  x="18" y="9" width="1" height="1" /><rect shape-rendering="crispEdges" fill="rgb(74, 74, 74)"  x="18" y="10" width="1" height="1" /><rect shape-rendering="crispEdges" fill="rgb(205, 205, 222)"  x="18" y="11" width="1" height="1" /><rect shape-rendering="crispEdges" fill="rgb(148, 148, 172)"  x="18" y="12" width="1" height="1" /><rect shape-rendering="crispEdges" fill="rgb(90, 98, 115)"  x="18" y="13" width="1" height="1" /><rect shape-rendering="crispEdges" fill="rgb(65, 106, 115)"  x="19" y="1" width="1" height="1" /><rect shape-rendering="crispEdges" fill="rgb(65, 82, 123)"  x="19" y="2" width="1" height="1" /><rect shape-rendering="crispEdges" fill="rgb(57, 74, 123)"  x="19" y="3" width="1" height="1" /><rect shape-rendering="crispEdges" fill="rgb(90, 98, 189)"  x="19" y="4" width="1" height="1" /><rect shape-rendering="crispEdges" fill="rgb(90, 98, 189)"  x="19" y="5" width="1" height="1" /><rect shape-rendering="crispEdges" fill="rgb(90, 98, 189)"  x="19" y="6" width="1" height="1" /><rect shape-rendering="crispEdges" fill="rgb(90, 98, 189)"  x="19" y="7" width="1" height="1" /><rect shape-rendering="crispEdges" fill="rgb(131, 123, 222)"  x="19" y="8" width="1" height="1" /><rect shape-rendering="crispEdges" fill="rgb(189, 164, 255)"  x="19" y="9" width="1" height="1" /><rect shape-rendering="crispEdges" fill="rgb(74, 74, 74)"  x="19" y="10" width="1" height="1" /><rect shape-rendering="crispEdges" fill="rgb(197, 197, 213)"  x="19" y="11" width="1" height="1" /><rect shape-rendering="crispEdges" fill="rgb(164, 172, 197)"  x="19" y="12" width="1" height="1" /><rect shape-rendering="crispEdges" fill="rgb(90, 98, 115)"  x="19" y="13" width="1" height="1" /><rect shape-rendering="crispEdges" fill="rgb(131, 172, 131)"  x="20" y="5" width="1" height="1" /><rect shape-rendering="crispEdges" fill="rgb(90, 98, 189)"  x="20" y="6" width="1" height="1" /><rect shape-rendering="crispEdges" fill="rgb(90, 98, 189)"  x="20" y="7" width="1" height="1" /><rect shape-rendering="crispEdges" fill="rgb(90, 98, 189)"  x="20" y="8" width="1" height="1" /><rect shape-rendering="crispEdges" fill="rgb(189, 164, 255)"  x="20" y="9" width="1" height="1" /><rect shape-rendering="crispEdges" fill="rgb(74, 74, 74)"  x="20" y="10" width="1" height="1" /><rect shape-rendering="crispEdges" fill="rgb(205, 205, 222)"  x="20" y="12" width="1" height="1" /><rect shape-rendering="crispEdges" fill="rgb(148, 148, 172)"  x="20" y="13" width="1" height="1" /><rect shape-rendering="crispEdges" fill="rgb(90, 98, 115)"  x="20" y="14" width="1" height="1" /><rect shape-rendering="crispEdges" fill="rgb(164, 172, 197)"  x="21" y="2" width="1" height="1" /><rect shape-rendering="crispEdges" fill="rgb(164, 172, 197)"  x="21" y="3" width="1" height="1" /><rect shape-rendering="crispEdges" fill="rgb(115, 123, 139)"  x="21" y="4" width="1" height="1" /><rect shape-rendering="crispEdges" fill="rgb(139, 164, 148)"  x="21" y="5" width="1" height="1" /><rect shape-rendering="crispEdges" fill="rgb(90, 98, 189)"  x="21" y="7" width="1" height="1" /><rect shape-rendering="crispEdges" fill="rgb(90, 98, 189)"  x="21" y="8" width="1" height="1" /><rect shape-rendering="crispEdges" fill="rgb(131, 123, 222)"  x="21" y="9" width="1" height="1" /><rect shape-rendering="crispEdges" fill="rgb(74, 74, 74)"  x="21" y="10" width="1" height="1" /><rect shape-rendering="crispEdges" fill="rgb(164, 172, 197)"  x="21" y="13" width="1" height="1" /><rect shape-rendering="crispEdges" fill="rgb(90, 98, 115)"  x="21" y="14" width="1" height="1" /><rect shape-rendering="crispEdges" fill="rgb(205, 205, 222)"  x="22" y="2" width="1" height="1" /><rect shape-rendering="crispEdges" fill="rgb(230, 230, 255)"  x="22" y="3" width="1" height="1" /><rect shape-rendering="crispEdges" fill="rgb(148, 148, 172)"  x="22" y="4" width="1" height="1" /><rect shape-rendering="crispEdges" fill="rgb(90, 98, 115)"  x="22" y="5" width="1" height="1" /><rect shape-rendering="crispEdges" fill="rgb(74, 82, 156)"  x="22" y="7" width="1" height="1" /><rect shape-rendering="crispEdges" fill="rgb(90, 98, 189)"  x="22" y="8" width="1" height="1" /><rect shape-rendering="crispEdges" fill="rgb(90, 98, 189)"  x="22" y="9" width="1" height="1" /><rect shape-rendering="crispEdges" fill="rgb(131, 123, 222)"  x="22" y="10" width="1" height="1" /><rect shape-rendering="crispEdges" fill="rgb(74, 74, 74)"  x="22" y="11" width="1" height="1" /><rect shape-rendering="crispEdges" fill="rgb(90, 98, 115)"  x="22" y="14" width="1" height="1" /><rect shape-rendering="crispEdges" fill="rgb(189, 205, 205)"  x="23" y="2" width="1" height="1" /><rect shape-rendering="crispEdges" fill="rgb(164, 172, 197)"  x="23" y="3" width="1" height="1" /><rect shape-rendering="crispEdges" fill="rgb(205, 205, 222)"  x="23" y="4" width="1" height="1" /><rect shape-rendering="crispEdges" fill="rgb(90, 98, 115)"  x="23" y="5" width="1" height="1" /><rect shape-rendering="crispEdges" fill="rgb(74, 82, 156)"  x="23" y="8" width="1" height="1" /><rect shape-rendering="crispEdges" fill="rgb(90, 98, 189)"  x="23" y="9" width="1" height="1" /><rect shape-rendering="crispEdges" fill="rgb(115, 123, 115)"  x="23" y="10" width="1" height="1" /><rect shape-rendering="crispEdges" fill="rgb(65, 65, 65)"  x="23" y="11" width="1" height="1" /><rect shape-rendering="crispEdges" fill="rgb(189, 205, 205)"  x="24" y="0" width="1" height="1" /><rect shape-rendering="crispEdges" fill="rgb(189, 205, 205)"  x="24" y="1" width="1" height="1" /><rect shape-rendering="crispEdges" fill="rgb(189, 205, 205)"  x="24" y="2" width="1" height="1" /><rect shape-rendering="crispEdges" fill="rgb(148, 148, 172)"  x="24" y="3" width="1" height="1" /><rect shape-rendering="crispEdges" fill="rgb(205, 205, 222)"  x="24" y="4" width="1" height="1" /><rect shape-rendering="crispEdges" fill="rgb(148, 148, 172)"  x="24" y="5" width="1" height="1" /><rect shape-rendering="crispEdges" fill="rgb(90, 98, 115)"  x="24" y="6" width="1" height="1" /><rect shape-rendering="crispEdges" fill="rgb(115, 131, 123)"  x="24" y="7" width="1" height="1" /><rect shape-rendering="crispEdges" fill="rgb(82, 82, 139)"  x="24" y="8" width="1" height="1" /><rect shape-rendering="crispEdges" fill="rgb(98, 98, 180)"  x="24" y="9" width="1" height="1" /><rect shape-rendering="crispEdges" fill="rgb(90, 90, 90)"  x="24" y="10" width="1" height="1" /><rect shape-rendering="crispEdges" fill="rgb(98, 98, 98)"  x="24" y="11" width="1" height="1" /><rect shape-rendering="crispEdges" fill="rgb(148, 164, 164)"  x="25" y="0" width="1" height="1" /><rect shape-rendering="crispEdges" fill="rgb(255, 255, 255)"  x="25" y="1" width="1" height="1" /><rect shape-rendering="crispEdges" fill="rgb(255, 255, 255)"  x="25" y="2" width="1" height="1" /><rect shape-rendering="crispEdges" fill="rgb(123, 139, 131)"  x="25" y="3" width="1" height="1" /><rect shape-rendering="crispEdges" fill="rgb(148, 148, 172)"  x="25" y="4" width="1" height="1" /><rect shape-rendering="crispEdges" fill="rgb(205, 205, 222)"  x="25" y="5" width="1" height="1" /><rect shape-rendering="crispEdges" fill="rgb(148, 148, 172)"  x="25" y="6" width="1" height="1" /><rect shape-rendering="crispEdges" fill="rgb(82, 98, 123)"  x="25" y="7" width="1" height="1" /><rect shape-rendering="crispEdges" fill="rgb(106, 115, 123)"  x="25" y="8" width="1" height="1" /><rect shape-rendering="crispEdges" fill="rgb(238, 230, 238)"  x="25" y="9" width="1" height="1" /><rect shape-rendering="crispEdges" fill="rgb(189, 205, 205)"  x="25" y="10" width="1" height="1" /><rect shape-rendering="crispEdges" fill="rgb(106, 115, 106)"  x="25" y="11" width="1" height="1" /><rect shape-rendering="crispEdges" fill="rgb(148, 164, 164)"  x="26" y="1" width="1" height="1" /><rect shape-rendering="crispEdges" fill="rgb(213, 230, 230)"  x="26" y="2" width="1" height="1" /><rect shape-rendering="crispEdges" fill="rgb(148, 164, 164)"  x="26" y="3" width="1" height="1" /><rect shape-rendering="crispEdges" fill="rgb(90, 98, 115)"  x="26" y="5" width="1" height="1" /><rect shape-rendering="crispEdges" fill="rgb(205, 205, 222)"  x="26" y="6" width="1" height="1" /><rect shape-rendering="crispEdges" fill="rgb(139, 148, 172)"  x="26" y="7" width="1" height="1" /><rect shape-rendering="crispEdges" fill="rgb(213, 230, 230)"  x="26" y="8" width="1" height="1" /><rect shape-rendering="crispEdges" fill="rgb(189, 205, 205)"  x="26" y="9" width="1" height="1" /><rect shape-rendering="crispEdges" fill="rgb(123, 139, 131)"  x="26" y="10" width="1" height="1" /><rect shape-rendering="crispEdges" fill="rgb(106, 115, 106)"  x="26" y="11" width="1" height="1" /><rect shape-rendering="crispEdges" fill="rgb(123, 139, 131)"  x="27" y="2" width="1" height="1" /><rect shape-rendering="crispEdges" fill="rgb(189, 205, 205)"  x="27" y="3" width="1" height="1" /><rect shape-rendering="crispEdges" fill="rgb(123, 139, 131)"  x="27" y="4" width="1" height="1" /><rect shape-rendering="crispEdges" fill="rgb(148, 164, 164)"  x="27" y="5" width="1" height="1" /><rect shape-rendering="crispEdges" fill="rgb(90, 98, 115)"  x="27" y="6" width="1" height="1" /><rect shape-rendering="crispEdges" fill="rgb(205, 205, 222)"  x="27" y="7" width="1" height="1" /><rect shape-rendering="crispEdges" fill="rgb(90, 98, 115)"  x="27" y="8" width="1" height="1" /><rect shape-rendering="crispEdges" fill="rgb(123, 139, 131)"  x="27" y="9" width="1" height="1" /><rect shape-rendering="crispEdges" fill="rgb(82, 82, 82)"  x="27" y="10" width="1" height="1" /><rect shape-rendering="crispEdges" fill="rgb(148, 164, 164)"  x="28" y="1" width="1" height="1" /><rect shape-rendering="crispEdges" fill="rgb(123, 139, 131)"  x="28" y="2" width="1" height="1" /><rect shape-rendering="crispEdges" fill="rgb(148, 164, 164)"  x="28" y="3" width="1" height="1" /><rect shape-rendering="crispEdges" fill="rgb(189, 205, 205)"  x="28" y="4" width="1" height="1" /><rect shape-rendering="crispEdges" fill="rgb(123, 139, 131)"  x="28" y="5" width="1" height="1" /><rect shape-rendering="crispEdges" fill="rgb(148, 164, 164)"  x="28" y="6" width="1" height="1" /><rect shape-rendering="crispEdges" fill="rgb(90, 98, 115)"  x="28" y="7" width="1" height="1" /><rect shape-rendering="crispEdges" fill="rgb(164, 172, 197)"  x="28" y="8" width="1" height="1" /><rect shape-rendering="crispEdges" fill="rgb(90, 98, 115)"  x="28" y="9" width="1" height="1" /><rect shape-rendering="crispEdges" fill="rgb(123, 139, 131)"  x="29" y="0" width="1" height="1" /><rect shape-rendering="crispEdges" fill="rgb(123, 139, 131)"  x="29" y="1" width="1" height="1" /><rect shape-rendering="crispEdges" fill="rgb(106, 115, 106)"  x="29" y="2" width="1" height="1" /><rect shape-rendering="crispEdges" fill="rgb(106, 115, 106)"  x="29" y="3" width="1" height="1" /><rect shape-rendering="crispEdges" fill="rgb(148, 164, 164)"  x="29" y="4" width="1" height="1" /><rect shape-rendering="crispEdges" fill="rgb(189, 205, 205)"  x="29" y="5" width="1" height="1" /><rect shape-rendering="crispEdges" fill="rgb(123, 139, 131)"  x="29" y="6" width="1" height="1" /><rect shape-rendering="crispEdges" fill="rgb(82, 82, 82)"  x="29" y="7" width="1" height="1" /><rect shape-rendering="crispEdges" fill="rgb(156, 156, 205)"  x="29" y="8" width="1" height="1" /><rect shape-rendering="crispEdges" fill="rgb(90, 98, 115)"  x="29" y="9" width="1" height="1" /><rect shape-rendering="crispEdges" fill="rgb(90, 98, 115)"  x="29" y="10" width="1" height="1" /><rect shape-rendering="crispEdges" fill="rgb(106, 115, 106)"  x="30" y="4" width="1" height="1" /><rect shape-rendering="crispEdges" fill="rgb(148, 164, 164)"  x="30" y="5" width="1" height="1" /><rect shape-rendering="crispEdges" fill="rgb(189, 205, 205)"  x="30" y="6" width="1" height="1" /><rect shape-rendering="crispEdges" fill="rgb(148, 164, 164)"  x="30" y="7" width="1" height="1" /><rect shape-rendering="crispEdges" fill="rgb(106, 115, 106)"  x="31" y="6" width="1" height="1" /><rect shape-rendering="crispEdges" fill="rgb(123, 139, 131)"  x="31" y="7" width="1" height="1" /><rect shape-rendering="crispEdges" fill="rgb(123, 139, 131)"  x="31" y="8" width="1" height="1" /></svg>