<svg xmlns="http://www.w3.org/2000/svg" xmlns:xlink= "http://www.w3.org/1999/xlink" width="32" height="32" viewBox ="0 0 32 32"><rect shape-rendering="crispEdges" fill="rgb(213, 222, 139)"  x="1" y="1" width="1" height="1" /><rect shape-rendering="crispEdges" fill="rgb(213, 222, 131)"  x="1" y="2" width="1" height="1" /><rect shape-rendering="crispEdges" fill="rgb(213, 222, 131)"  x="1" y="3" width="1" height="1" /><rect shape-rendering="crispEdges" fill="rgb(164, 189, 82)"  x="1" y="4" width="1" height="1" /><rect shape-rendering="crispEdges" fill="rgb(189, 205, 106)"  x="1" y="5" width="1" height="1" /><rect shape-rendering="crispEdges" fill="rgb(148, 156, 74)"  x="1" y="6" width="1" height="1" /><rect shape-rendering="crispEdges" fill="rgb(148, 156, 74)"  x="1" y="7" width="1" height="1" /><rect shape-rendering="crispEdges" fill="rgb(131, 123, 65)"  x="1" y="8" width="1" height="1" /><rect shape-rendering="crispEdges" fill="rgb(131, 123, 65)"  x="1" y="9" width="1" height="1" /><rect shape-rendering="crispEdges" fill="rgb(213, 222, 139)"  x="2" y="1" width="1" height="1" /><rect shape-rendering="crispEdges" fill="rgb(213, 222, 139)"  x="2" y="2" width="1" height="1" /><rect shape-rendering="crispEdges" fill="rgb(213, 222, 131)"  x="2" y="3" width="1" height="1" /><rect shape-rendering="crispEdges" fill="rgb(213, 222, 131)"  x="2" y="4" width="1" height="1" /><rect shape-rendering="crispEdges" fill="rgb(164, 189, 82)"  x="2" y="5" width="1" height="1" /><rect shape-rendering="crispEdges" fill="rgb(189, 205, 106)"  x="2" y="6" width="1" height="1" /><rect shape-rendering="crispEdges" fill="rgb(148, 156, 74)"  x="2" y="7" width="1" height="1" /><rect shape-rendering="crispEdges" fill="rgb(148, 156, 74)"  x="2" y="8" width="1" height="1" /><rect shape-rendering="crispEdges" fill="rgb(131, 123, 65)"  x="2" y="9" width="1" height="1" /><rect shape-rendering="crispEdges" fill="rgb(213, 222, 139)"  x="3" y="1" width="1" height="1" /><rect shape-rendering="crispEdges" fill="rgb(238, 230, 172)"  x="3" y="2" width="1" height="1" /><rect shape-rendering="crispEdges" fill="rgb(213, 222, 139)"  x="3" y="3" width="1" height="1" /><rect shape-rendering="crispEdges" fill="rgb(213, 222, 131)"  x="3" y="4" width="1" height="1" /><rect shape-rendering="crispEdges" fill="rgb(156, 98, 65)"  x="3" y="5" width="1" height="1" /><rect shape-rendering="crispEdges" fill="rgb(156, 98, 65)"  x="3" y="6" width="1" height="1" /><rect shape-rendering="crispEdges" fill="rgb(156, 98, 65)"  x="3" y="7" width="1" height="1" /><rect shape-rendering="crispEdges" fill="rgb(148, 156, 74)"  x="3" y="8" width="1" height="1" /><rect shape-rendering="crispEdges" fill="rgb(131, 123, 65)"  x="3" y="9" width="1" height="1" /><rect shape-rendering="crispEdges" fill="rgb(213, 222, 139)"  x="4" y="1" width="1" height="1" /><rect shape-rendering="crispEdges" fill="rgb(213, 222, 139)"  x="4" y="2" width="1" height="1" /><rect shape-rendering="crispEdges" fill="rgb(238, 230, 172)"  x="4" y="3" width="1" height="1" /><rect shape-rendering="crispEdges" fill="rgb(156, 98, 65)"  x="4" y="4" width="1" height="1" /><rect shape-rendering="crispEdges" fill="rgb(205, 131, 98)"  x="4" y="5" width="1" height="1" /><rect shape-rendering="crispEdges" fill="rgb(205, 131, 98)"  x="4" y="6" width="1" height="1" /><rect shape-rendering="crispEdges" fill="rgb(205, 131, 98)"  x="4" y="7" width="1" height="1" /><rect shape-rendering="crispEdges" fill="rgb(156, 98, 65)"  x="4" y="8" width="1" height="1" /><rect shape-rendering="crispEdges" fill="rgb(131, 123, 65)"  x="4" y="9" width="1" height="1" /><rect shape-rendering="crispEdges" fill="rgb(156, 98, 65)"  x="4" y="10" width="1" height="1" /><rect shape-rendering="crispEdges" fill="rgb(213, 222, 139)"  x="5" y="1" width="1" height="1" /><rect shape-rendering="crispEdges" fill="rgb(255, 255, 213)"  x="5" y="2" width="1" height="1" /><rect shape-rendering="crispEdges" fill="rgb(156, 98, 65)"  x="5" y="3" width="1" height="1" /><rect shape-rendering="crispEdges" fill="rgb(238, 197, 164)"  x="5" y="4" width="1" height="1" /><rect shape-rendering="crispEdges" fill="rgb(205, 131, 98)"  x="5" y="5" width="1" height="1" /><rect shape-rendering="crispEdges" fill="rgb(213, 222, 139)"  x="5" y="6" width="1" height="1" /><rect shape-rendering="crispEdges" fill="rgb(189, 205, 106)"  x="5" y="7" width="1" height="1" /><rect shape-rendering="crispEdges" fill="rgb(156, 98, 65)"  x="5" y="8" width="1" height="1" /><rect shape-rendering="crispEdges" fill="rgb(131, 123, 65)"  x="5" y="9" width="1" height="1" /><rect shape-rendering="crispEdges" fill="rgb(156, 90, 74)"  x="5" y="10" width="1" height="1" /><rect shape-rendering="crispEdges" fill="rgb(213, 222, 139)"  x="6" y="1" width="1" height="1" /><rect shape-rendering="crispEdges" fill="rgb(255, 255, 213)"  x="6" y="2" width="1" height="1" /><rect shape-rendering="crispEdges" fill="rgb(156, 98, 65)"  x="6" y="3" width="1" height="1" /><rect shape-rendering="crispEdges" fill="rgb(189, 148, 123)"  x="6" y="4" width="1" height="1" /><rect shape-rendering="crispEdges" fill="rgb(238, 230, 172)"  x="6" y="5" width="1" height="1" /><rect shape-rendering="crispEdges" fill="rgb(131, 123, 65)"  x="6" y="6" width="1" height="1" /><rect shape-rendering="crispEdges" fill="rgb(213, 222, 139)"  x="6" y="7" width="1" height="1" /><rect shape-rendering="crispEdges" fill="rgb(189, 205, 106)"  x="6" y="8" width="1" height="1" /><rect shape-rendering="crispEdges" fill="rgb(148, 156, 74)"  x="6" y="9" width="1" height="1" /><rect shape-rendering="crispEdges" fill="rgb(156, 98, 74)"  x="6" y="10" width="1" height="1" /><rect shape-rendering="crispEdges" fill="rgb(197, 82, 0)"  x="6" y="11" width="1" height="1" /><rect shape-rendering="crispEdges" fill="rgb(213, 222, 139)"  x="7" y="1" width="1" height="1" /><rect shape-rendering="crispEdges" fill="rgb(238, 230, 172)"  x="7" y="2" width="1" height="1" /><rect shape-rendering="crispEdges" fill="rgb(156, 98, 65)"  x="7" y="3" width="1" height="1" /><rect shape-rendering="crispEdges" fill="rgb(156, 98, 65)"  x="7" y="4" width="1" height="1" /><rect shape-rendering="crispEdges" fill="rgb(213, 222, 131)"  x="7" y="5" width="1" height="1" /><rect shape-rendering="crispEdges" fill="rgb(246, 246, 180)"  x="7" y="6" width="1" height="1" /><rect shape-rendering="crispEdges" fill="rgb(156, 98, 65)"  x="7" y="7" width="1" height="1" /><rect shape-rendering="crispEdges" fill="rgb(156, 90, 65)"  x="7" y="8" width="1" height="1" /><rect shape-rendering="crispEdges" fill="rgb(156, 98, 74)"  x="7" y="9" width="1" height="1" /><rect shape-rendering="crispEdges" fill="rgb(255, 197, 148)"  x="7" y="10" width="1" height="1" /><rect shape-rendering="crispEdges" fill="rgb(197, 82, 0)"  x="7" y="11" width="1" height="1" /><rect shape-rendering="crispEdges" fill="rgb(213, 222, 139)"  x="8" y="1" width="1" height="1" /><rect shape-rendering="crispEdges" fill="rgb(246, 246, 180)"  x="8" y="2" width="1" height="1" /><rect shape-rendering="crispEdges" fill="rgb(246, 246, 180)"  x="8" y="3" width="1" height="1" /><rect shape-rendering="crispEdges" fill="rgb(156, 98, 65)"  x="8" y="4" width="1" height="1" /><rect shape-rendering="crispEdges" fill="rgb(156, 98, 65)"  x="8" y="5" width="1" height="1" /><rect shape-rendering="crispEdges" fill="rgb(246, 246, 180)"  x="8" y="6" width="1" height="1" /><rect shape-rendering="crispEdges" fill="rgb(156, 90, 74)"  x="8" y="7" width="1" height="1" /><rect shape-rendering="crispEdges" fill="rgb(156, 98, 74)"  x="8" y="8" width="1" height="1" /><rect shape-rendering="crispEdges" fill="rgb(255, 197, 148)"  x="8" y="9" width="1" height="1" /><rect shape-rendering="crispEdges" fill="rgb(255, 131, 106)"  x="8" y="10" width="1" height="1" /><rect shape-rendering="crispEdges" fill="rgb(197, 82, 0)"  x="8" y="11" width="1" height="1" /><rect shape-rendering="crispEdges" fill="rgb(197, 82, 0)"  x="8" y="12" width="1" height="1" /><rect shape-rendering="crispEdges" fill="rgb(213, 222, 139)"  x="9" y="1" width="1" height="1" /><rect shape-rendering="crispEdges" fill="rgb(213, 222, 139)"  x="9" y="2" width="1" height="1" /><rect shape-rendering="crispEdges" fill="rgb(213, 222, 139)"  x="9" y="3" width="1" height="1" /><rect shape-rendering="crispEdges" fill="rgb(238, 230, 172)"  x="9" y="4" width="1" height="1" /><rect shape-rendering="crispEdges" fill="rgb(255, 255, 205)"  x="9" y="5" width="1" height="1" /><rect shape-rendering="crispEdges" fill="rgb(246, 246, 180)"  x="9" y="6" width="1" height="1" /><rect shape-rendering="crispEdges" fill="rgb(156, 98, 74)"  x="9" y="7" width="1" height="1" /><rect shape-rendering="crispEdges" fill="rgb(255, 197, 148)"  x="9" y="8" width="1" height="1" /><rect shape-rendering="crispEdges" fill="rgb(255, 197, 148)"  x="9" y="9" width="1" height="1" /><rect shape-rendering="crispEdges" fill="rgb(255, 131, 106)"  x="9" y="10" width="1" height="1" /><rect shape-rendering="crispEdges" fill="rgb(255, 131, 106)"  x="9" y="11" width="1" height="1" /><rect shape-rendering="crispEdges" fill="rgb(197, 82, 0)"  x="9" y="12" width="1" height="1" /><rect shape-rendering="crispEdges" fill="rgb(156, 98, 65)"  x="10" y="4" width="1" height="1" /><rect shape-rendering="crispEdges" fill="rgb(156, 90, 65)"  x="10" y="5" width="1" height="1" /><rect shape-rendering="crispEdges" fill="rgb(156, 98, 74)"  x="10" y="6" width="1" height="1" /><rect shape-rendering="crispEdges" fill="rgb(255, 205, 172)"  x="10" y="7" width="1" height="1" /><rect shape-rendering="crispEdges" fill="rgb(255, 246, 180)"  x="10" y="8" width="1" height="1" /><rect shape-rendering="crispEdges" fill="rgb(255, 197, 148)"  x="10" y="9" width="1" height="1" /><rect shape-rendering="crispEdges" fill="rgb(255, 197, 148)"  x="10" y="10" width="1" height="1" /><rect shape-rendering="crispEdges" fill="rgb(255, 131, 106)"  x="10" y="11" width="1" height="1" /><rect shape-rendering="crispEdges" fill="rgb(197, 82, 0)"  x="10" y="12" width="1" height="1" /><rect shape-rendering="crispEdges" fill="rgb(115, 74, 0)"  x="10" y="13" width="1" height="1" /><rect shape-rendering="crispEdges" fill="rgb(230, 106, 32)"  x="11" y="6" width="1" height="1" /><rect shape-rendering="crispEdges" fill="rgb(238, 123, 65)"  x="11" y="7" width="1" height="1" /><rect shape-rendering="crispEdges" fill="rgb(255, 197, 148)"  x="11" y="8" width="1" height="1" /><rect shape-rendering="crispEdges" fill="rgb(255, 246, 180)"  x="11" y="9" width="1" height="1" /><rect shape-rendering="crispEdges" fill="rgb(255, 156, 139)"  x="11" y="10" width="1" height="1" /><rect shape-rendering="crispEdges" fill="rgb(197, 82, 0)"  x="11" y="11" width="1" height="1" /><rect shape-rendering="crispEdges" fill="rgb(115, 74, 0)"  x="11" y="12" width="1" height="1" /><rect shape-rendering="crispEdges" fill="rgb(180, 90, 65)"  x="11" y="13" width="1" height="1" /><rect shape-rendering="crispEdges" fill="rgb(123, 74, 57)"  x="11" y="14" width="1" height="1" /><rect shape-rendering="crispEdges" fill="rgb(230, 106, 32)"  x="12" y="8" width="1" height="1" /><rect shape-rendering="crispEdges" fill="rgb(238, 123, 65)"  x="12" y="9" width="1" height="1" /><rect shape-rendering="crispEdges" fill="rgb(197, 82, 0)"  x="12" y="10" width="1" height="1" /><rect shape-rendering="crispEdges" fill="rgb(164, 106, 0)"  x="12" y="11" width="1" height="1" /><rect shape-rendering="crispEdges" fill="rgb(189, 115, 98)"  x="12" y="12" width="1" height="1" /><rect shape-rendering="crispEdges" fill="rgb(180, 98, 74)"  x="12" y="13" width="1" height="1" /><rect shape-rendering="crispEdges" fill="rgb(82, 32, 16)"  x="12" y="14" width="1" height="1" /><rect shape-rendering="crispEdges" fill="rgb(164, 90, 65)"  x="12" y="15" width="1" height="1" /><rect shape-rendering="crispEdges" fill="rgb(197, 131, 0)"  x="13" y="10" width="1" height="1" /><rect shape-rendering="crispEdges" fill="rgb(205, 156, 148)"  x="13" y="11" width="1" height="1" /><rect shape-rendering="crispEdges" fill="rgb(213, 115, 90)"  x="13" y="12" width="1" height="1" /><rect shape-rendering="crispEdges" fill="rgb(131, 57, 24)"  x="13" y="13" width="1" height="1" /><rect shape-rendering="crispEdges" fill="rgb(197, 139, 123)"  x="13" y="14" width="1" height="1" /><rect shape-rendering="crispEdges" fill="rgb(213, 164, 139)"  x="13" y="15" width="1" height="1" /><rect shape-rendering="crispEdges" fill="rgb(164, 90, 65)"  x="13" y="16" width="1" height="1" /><rect shape-rendering="crispEdges" fill="rgb(189, 123, 98)"  x="14" y="11" width="1" height="1" /><rect shape-rendering="crispEdges" fill="rgb(123, 74, 57)"  x="14" y="12" width="1" height="1" /><rect shape-rendering="crispEdges" fill="rgb(255, 230, 213)"  x="14" y="13" width="1" height="1" /><rect shape-rendering="crispEdges" fill="rgb(213, 148, 123)"  x="14" y="14" width="1" height="1" /><rect shape-rendering="crispEdges" fill="rgb(197, 139, 123)"  x="14" y="15" width="1" height="1" /><rect shape-rendering="crispEdges" fill="rgb(213, 164, 139)"  x="14" y="16" width="1" height="1" /><rect shape-rendering="crispEdges" fill="rgb(189, 123, 98)"  x="14" y="17" width="1" height="1" /><rect shape-rendering="crispEdges" fill="rgb(189, 123, 98)"  x="15" y="12" width="1" height="1" /><rect shape-rendering="crispEdges" fill="rgb(230, 164, 139)"  x="15" y="13" width="1" height="1" /><rect shape-rendering="crispEdges" fill="rgb(255, 230, 213)"  x="15" y="14" width="1" height="1" /><rect shape-rendering="crispEdges" fill="rgb(230, 164, 148)"  x="15" y="15" width="1" height="1" /><rect shape-rendering="crispEdges" fill="rgb(197, 139, 123)"  x="15" y="16" width="1" height="1" /><rect shape-rendering="crispEdges" fill="rgb(213, 164, 139)"  x="15" y="17" width="1" height="1" /><rect shape-rendering="crispEdges" fill="rgb(189, 123, 98)"  x="15" y="18" width="1" height="1" /><rect shape-rendering="crispEdges" fill="rgb(189, 123, 98)"  x="16" y="13" width="1" height="1" /><rect shape-rendering="crispEdges" fill="rgb(230, 164, 139)"  x="16" y="14" width="1" height="1" /><rect shape-rendering="crispEdges" fill="rgb(246, 205, 164)"  x="16" y="15" width="1" height="1" /><rect shape-rendering="crispEdges" fill="rgb(230, 164, 139)"  x="16" y="16" width="1" height="1" /><rect shape-rendering="crispEdges" fill="rgb(197, 139, 123)"  x="16" y="17" width="1" height="1" /><rect shape-rendering="crispEdges" fill="rgb(213, 164, 139)"  x="16" y="18" width="1" height="1" /><rect shape-rendering="crispEdges" fill="rgb(189, 123, 98)"  x="16" y="19" width="1" height="1" /><rect shape-rendering="crispEdges" fill="rgb(189, 123, 98)"  x="17" y="14" width="1" height="1" /><rect shape-rendering="crispEdges" fill="rgb(230, 164, 139)"  x="17" y="15" width="1" height="1" /><rect shape-rendering="crispEdges" fill="rgb(246, 205, 164)"  x="17" y="16" width="1" height="1" /><rect shape-rendering="crispEdges" fill="rgb(230, 164, 139)"  x="17" y="17" width="1" height="1" /><rect shape-rendering="crispEdges" fill="rgb(197, 139, 123)"  x="17" y="18" width="1" height="1" /><rect shape-rendering="crispEdges" fill="rgb(123, 74, 57)"  x="17" y="19" width="1" height="1" /><rect shape-rendering="crispEdges" fill="rgb(123, 74, 57)"  x="17" y="20" width="1" height="1" /><rect shape-rendering="crispEdges" fill="rgb(189, 123, 98)"  x="18" y="15" width="1" height="1" /><rect shape-rendering="crispEdges" fill="rgb(230, 164, 139)"  x="18" y="16" width="1" height="1" /><rect shape-rendering="crispEdges" fill="rgb(230, 164, 139)"  x="18" y="17" width="1" height="1" /><rect shape-rendering="crispEdges" fill="rgb(164, 90, 65)"  x="18" y="18" width="1" height="1" /><rect shape-rendering="crispEdges" fill="rgb(222, 156, 139)"  x="18" y="19" width="1" height="1" /><rect shape-rendering="crispEdges" fill="rgb(213, 115, 90)"  x="18" y="20" width="1" height="1" /><rect shape-rendering="crispEdges" fill="rgb(156, 115, 49)"  x="18" y="21" width="1" height="1" /><rect shape-rendering="crispEdges" fill="rgb(189, 123, 98)"  x="19" y="16" width="1" height="1" /><rect shape-rendering="crispEdges" fill="rgb(123, 74, 57)"  x="19" y="17" width="1" height="1" /><rect shape-rendering="crispEdges" fill="rgb(222, 156, 139)"  x="19" y="18" width="1" height="1" /><rect shape-rendering="crispEdges" fill="rgb(213, 115, 90)"  x="19" y="19" width="1" height="1" /><rect shape-rendering="crispEdges" fill="rgb(156, 115, 49)"  x="19" y="20" width="1" height="1" /><rect shape-rendering="crispEdges" fill="rgb(230, 106, 32)"  x="19" y="21" width="1" height="1" /><rect shape-rendering="crispEdges" fill="rgb(230, 106, 32)"  x="19" y="22" width="1" height="1" /><rect shape-rendering="crispEdges" fill="rgb(230, 106, 32)"  x="19" y="23" width="1" height="1" /><rect shape-rendering="crispEdges" fill="rgb(189, 123, 98)"  x="20" y="17" width="1" height="1" /><rect shape-rendering="crispEdges" fill="rgb(213, 115, 90)"  x="20" y="18" width="1" height="1" /><rect shape-rendering="crispEdges" fill="rgb(156, 115, 49)"  x="20" y="19" width="1" height="1" /><rect shape-rendering="crispEdges" fill="rgb(230, 106, 32)"  x="20" y="20" width="1" height="1" /><rect shape-rendering="crispEdges" fill="rgb(255, 156, 139)"  x="20" y="21" width="1" height="1" /><rect shape-rendering="crispEdges" fill="rgb(230, 106, 32)"  x="20" y="22" width="1" height="1" /><rect shape-rendering="crispEdges" fill="rgb(230, 106, 32)"  x="20" y="23" width="1" height="1" /><rect shape-rendering="crispEdges" fill="rgb(230, 106, 32)"  x="20" y="24" width="1" height="1" /><rect shape-rendering="crispEdges" fill="rgb(230, 106, 32)"  x="20" y="25" width="1" height="1" /><rect shape-rendering="crispEdges" fill="rgb(156, 115, 49)"  x="21" y="18" width="1" height="1" /><rect shape-rendering="crispEdges" fill="rgb(230, 106, 32)"  x="21" y="19" width="1" height="1" /><rect shape-rendering="crispEdges" fill="rgb(255, 205, 172)"  x="21" y="20" width="1" height="1" /><rect shape-rendering="crispEdges" fill="rgb(255, 156, 139)"  x="21" y="21" width="1" height="1" /><rect shape-rendering="crispEdges" fill="rgb(255, 156, 139)"  x="21" y="22" width="1" height="1" /><rect shape-rendering="crispEdges" fill="rgb(230, 106, 32)"  x="21" y="23" width="1" height="1" /><rect shape-rendering="crispEdges" fill="rgb(230, 106, 32)"  x="21" y="24" width="1" height="1" /><rect shape-rendering="crispEdges" fill="rgb(156, 106, 74)"  x="21" y="25" width="1" height="1" /><rect shape-rendering="crispEdges" fill="rgb(156, 106, 74)"  x="21" y="26" width="1" height="1" /><rect shape-rendering="crispEdges" fill="rgb(156, 106, 74)"  x="21" y="27" width="1" height="1" /><rect shape-rendering="crispEdges" fill="rgb(255, 148, 90)"  x="22" y="19" width="1" height="1" /><rect shape-rendering="crispEdges" fill="rgb(255, 205, 172)"  x="22" y="20" width="1" height="1" /><rect shape-rendering="crispEdges" fill="rgb(255, 205, 172)"  x="22" y="21" width="1" height="1" /><rect shape-rendering="crispEdges" fill="rgb(255, 156, 139)"  x="22" y="22" width="1" height="1" /><rect shape-rendering="crispEdges" fill="rgb(230, 106, 32)"  x="22" y="23" width="1" height="1" /><rect shape-rendering="crispEdges" fill="rgb(156, 106, 74)"  x="22" y="24" width="1" height="1" /><rect shape-rendering="crispEdges" fill="rgb(148, 156, 74)"  x="22" y="25" width="1" height="1" /><rect shape-rendering="crispEdges" fill="rgb(148, 156, 74)"  x="22" y="26" width="1" height="1" /><rect shape-rendering="crispEdges" fill="rgb(148, 156, 74)"  x="22" y="27" width="1" height="1" /><rect shape-rendering="crispEdges" fill="rgb(131, 123, 65)"  x="22" y="28" width="1" height="1" /><rect shape-rendering="crispEdges" fill="rgb(131, 123, 65)"  x="22" y="29" width="1" height="1" /><rect shape-rendering="crispEdges" fill="rgb(131, 123, 65)"  x="22" y="30" width="1" height="1" /><rect shape-rendering="crispEdges" fill="rgb(230, 106, 32)"  x="23" y="19" width="1" height="1" /><rect shape-rendering="crispEdges" fill="rgb(255, 205, 172)"  x="23" y="20" width="1" height="1" /><rect shape-rendering="crispEdges" fill="rgb(255, 156, 139)"  x="23" y="21" width="1" height="1" /><rect shape-rendering="crispEdges" fill="rgb(230, 106, 32)"  x="23" y="22" width="1" height="1" /><rect shape-rendering="crispEdges" fill="rgb(156, 106, 74)"  x="23" y="23" width="1" height="1" /><rect shape-rendering="crispEdges" fill="rgb(156, 106, 74)"  x="23" y="24" width="1" height="1" /><rect shape-rendering="crispEdges" fill="rgb(213, 222, 131)"  x="23" y="25" width="1" height="1" /><rect shape-rendering="crispEdges" fill="rgb(156, 98, 65)"  x="23" y="26" width="1" height="1" /><rect shape-rendering="crispEdges" fill="rgb(156, 98, 65)"  x="23" y="27" width="1" height="1" /><rect shape-rendering="crispEdges" fill="rgb(148, 156, 74)"  x="23" y="28" width="1" height="1" /><rect shape-rendering="crispEdges" fill="rgb(148, 156, 74)"  x="23" y="29" width="1" height="1" /><rect shape-rendering="crispEdges" fill="rgb(131, 123, 65)"  x="23" y="30" width="1" height="1" /><rect shape-rendering="crispEdges" fill="rgb(255, 156, 139)"  x="24" y="20" width="1" height="1" /><rect shape-rendering="crispEdges" fill="rgb(230, 106, 32)"  x="24" y="21" width="1" height="1" /><rect shape-rendering="crispEdges" fill="rgb(156, 106, 74)"  x="24" y="22" width="1" height="1" /><rect shape-rendering="crispEdges" fill="rgb(156, 106, 74)"  x="24" y="23" width="1" height="1" /><rect shape-rendering="crispEdges" fill="rgb(156, 106, 74)"  x="24" y="24" width="1" height="1" /><rect shape-rendering="crispEdges" fill="rgb(230, 238, 156)"  x="24" y="25" width="1" height="1" /><rect shape-rendering="crispEdges" fill="rgb(213, 222, 131)"  x="24" y="26" width="1" height="1" /><rect shape-rendering="crispEdges" fill="rgb(156, 98, 65)"  x="24" y="27" width="1" height="1" /><rect shape-rendering="crispEdges" fill="rgb(156, 98, 65)"  x="24" y="28" width="1" height="1" /><rect shape-rendering="crispEdges" fill="rgb(148, 156, 74)"  x="24" y="29" width="1" height="1" /><rect shape-rendering="crispEdges" fill="rgb(131, 123, 65)"  x="24" y="30" width="1" height="1" /><rect shape-rendering="crispEdges" fill="rgb(230, 106, 32)"  x="25" y="20" width="1" height="1" /><rect shape-rendering="crispEdges" fill="rgb(156, 106, 74)"  x="25" y="21" width="1" height="1" /><rect shape-rendering="crispEdges" fill="rgb(230, 238, 156)"  x="25" y="22" width="1" height="1" /><rect shape-rendering="crispEdges" fill="rgb(230, 238, 156)"  x="25" y="23" width="1" height="1" /><rect shape-rendering="crispEdges" fill="rgb(255, 255, 213)"  x="25" y="24" width="1" height="1" /><rect shape-rendering="crispEdges" fill="rgb(164, 156, 98)"  x="25" y="25" width="1" height="1" /><rect shape-rendering="crispEdges" fill="rgb(230, 238, 156)"  x="25" y="26" width="1" height="1" /><rect shape-rendering="crispEdges" fill="rgb(189, 123, 90)"  x="25" y="27" width="1" height="1" /><rect shape-rendering="crispEdges" fill="rgb(156, 98, 65)"  x="25" y="28" width="1" height="1" /><rect shape-rendering="crispEdges" fill="rgb(148, 156, 74)"  x="25" y="29" width="1" height="1" /><rect shape-rendering="crispEdges" fill="rgb(131, 123, 65)"  x="25" y="30" width="1" height="1" /><rect shape-rendering="crispEdges" fill="rgb(156, 106, 74)"  x="26" y="21" width="1" height="1" /><rect shape-rendering="crispEdges" fill="rgb(255, 255, 213)"  x="26" y="22" width="1" height="1" /><rect shape-rendering="crispEdges" fill="rgb(156, 98, 65)"  x="26" y="23" width="1" height="1" /><rect shape-rendering="crispEdges" fill="rgb(230, 238, 156)"  x="26" y="24" width="1" height="1" /><rect shape-rendering="crispEdges" fill="rgb(255, 255, 213)"  x="26" y="25" width="1" height="1" /><rect shape-rendering="crispEdges" fill="rgb(230, 156, 115)"  x="26" y="26" width="1" height="1" /><rect shape-rendering="crispEdges" fill="rgb(230, 156, 115)"  x="26" y="27" width="1" height="1" /><rect shape-rendering="crispEdges" fill="rgb(156, 98, 65)"  x="26" y="28" width="1" height="1" /><rect shape-rendering="crispEdges" fill="rgb(148, 156, 74)"  x="26" y="29" width="1" height="1" /><rect shape-rendering="crispEdges" fill="rgb(131, 123, 65)"  x="26" y="30" width="1" height="1" /><rect shape-rendering="crispEdges" fill="rgb(156, 106, 74)"  x="27" y="21" width="1" height="1" /><rect shape-rendering="crispEdges" fill="rgb(255, 255, 213)"  x="27" y="22" width="1" height="1" /><rect shape-rendering="crispEdges" fill="rgb(156, 98, 65)"  x="27" y="23" width="1" height="1" /><rect shape-rendering="crispEdges" fill="rgb(230, 156, 115)"  x="27" y="24" width="1" height="1" /><rect shape-rendering="crispEdges" fill="rgb(230, 156, 115)"  x="27" y="25" width="1" height="1" /><rect shape-rendering="crispEdges" fill="rgb(255, 205, 172)"  x="27" y="26" width="1" height="1" /><rect shape-rendering="crispEdges" fill="rgb(189, 123, 90)"  x="27" y="27" width="1" height="1" /><rect shape-rendering="crispEdges" fill="rgb(148, 156, 74)"  x="27" y="28" width="1" height="1" /><rect shape-rendering="crispEdges" fill="rgb(131, 123, 65)"  x="27" y="29" width="1" height="1" /><rect shape-rendering="crispEdges" fill="rgb(131, 123, 65)"  x="27" y="30" width="1" height="1" /><rect shape-rendering="crispEdges" fill="rgb(213, 222, 139)"  x="28" y="22" width="1" height="1" /><rect shape-rendering="crispEdges" fill="rgb(246, 246, 180)"  x="28" y="23" width="1" height="1" /><rect shape-rendering="crispEdges" fill="rgb(156, 98, 65)"  x="28" y="24" width="1" height="1" /><rect shape-rendering="crispEdges" fill="rgb(156, 98, 65)"  x="28" y="25" width="1" height="1" /><rect shape-rendering="crispEdges" fill="rgb(156, 98, 65)"  x="28" y="26" width="1" height="1" /><rect shape-rendering="crispEdges" fill="rgb(213, 222, 131)"  x="28" y="27" width="1" height="1" /><rect shape-rendering="crispEdges" fill="rgb(148, 156, 74)"  x="28" y="28" width="1" height="1" /><rect shape-rendering="crispEdges" fill="rgb(131, 123, 65)"  x="28" y="29" width="1" height="1" /><rect shape-rendering="crispEdges" fill="rgb(131, 123, 65)"  x="28" y="30" width="1" height="1" /><rect shape-rendering="crispEdges" fill="rgb(213, 222, 139)"  x="29" y="22" width="1" height="1" /><rect shape-rendering="crispEdges" fill="rgb(246, 246, 180)"  x="29" y="23" width="1" height="1" /><rect shape-rendering="crispEdges" fill="rgb(246, 246, 180)"  x="29" y="24" width="1" height="1" /><rect shape-rendering="crispEdges" fill="rgb(246, 246, 180)"  x="29" y="25" width="1" height="1" /><rect shape-rendering="crispEdges" fill="rgb(213, 222, 131)"  x="29" y="26" width="1" height="1" /><rect shape-rendering="crispEdges" fill="rgb(148, 156, 74)"  x="29" y="27" width="1" height="1" /><rect shape-rendering="crispEdges" fill="rgb(148, 156, 74)"  x="29" y="28" width="1" height="1" /><rect shape-rendering="crispEdges" fill="rgb(131, 123, 65)"  x="29" y="29" width="1" height="1" /><rect shape-rendering="crispEdges" fill="rgb(131, 123, 65)"  x="29" y="30" width="1" height="1" /><rect shape-rendering="crispEdges" fill="rgb(213, 222, 139)"  x="30" y="22" width="1" height="1" /><rect shape-rendering="crispEdges" fill="rgb(213, 222, 139)"  x="30" y="23" width="1" height="1" /><rect shape-rendering="crispEdges" fill="rgb(213, 222, 139)"  x="30" y="24" width="1" height="1" /><rect shape-rendering="crispEdges" fill="rgb(213, 222, 131)"  x="30" y="25" width="1" height="1" /><rect shape-rendering="crispEdges" fill="rgb(213, 222, 131)"  x="30" y="26" width="1" height="1" /><rect shape-rendering="crispEdges" fill="rgb(148, 156, 74)"  x="30" y="27" width="1" height="1" /><rect shape-rendering="crispEdges" fill="rgb(131, 123, 65)"  x="30" y="28" width="1" height="1" /><rect shape-rendering="crispEdges" fill="rgb(131, 123, 65)"  x="30" y="29" width="1" height="1" /><rect shape-rendering="crispEdges" fill="rgb(131, 123, 65)"  x="30" y="30" width="1" height="1" /></svg>