<svg xmlns="http://www.w3.org/2000/svg" xmlns:xlink= "http://www.w3.org/1999/xlink" width="32" height="32" viewBox ="0 0 32 32"><rect shape-rendering="crispEdges" fill="rgb(90, 148, 131)"  x="1" y="7" width="1" height="1" /><rect shape-rendering="crispEdges" fill="rgb(213, 57, 115)"  x="1" y="8" width="1" height="1" /><rect shape-rendering="crispEdges" fill="rgb(90, 148, 131)"  x="2" y="6" width="1" height="1" /><rect shape-rendering="crispEdges" fill="rgb(222, 74, 131)"  x="2" y="7" width="1" height="1" /><rect shape-rendering="crispEdges" fill="rgb(106, 74, 139)"  x="2" y="8" width="1" height="1" /><rect shape-rendering="crispEdges" fill="rgb(98, 156, 139)"  x="3" y="5" width="1" height="1" /><rect shape-rendering="crispEdges" fill="rgb(238, 98, 156)"  x="3" y="6" width="1" height="1" /><rect shape-rendering="crispEdges" fill="rgb(115, 74, 148)"  x="3" y="7" width="1" height="1" /><rect shape-rendering="crispEdges" fill="rgb(189, 156, 189)"  x="3" y="8" width="1" height="1" /><rect shape-rendering="crispEdges" fill="rgb(172, 115, 172)"  x="3" y="9" width="1" height="1" /><rect shape-rendering="crispEdges" fill="rgb(148, 98, 148)"  x="3" y="10" width="1" height="1" /><rect shape-rendering="crispEdges" fill="rgb(115, 164, 156)"  x="4" y="4" width="1" height="1" /><rect shape-rendering="crispEdges" fill="rgb(255, 131, 180)"  x="4" y="5" width="1" height="1" /><rect shape-rendering="crispEdges" fill="rgb(123, 82, 148)"  x="4" y="6" width="1" height="1" /><rect shape-rendering="crispEdges" fill="rgb(189, 156, 189)"  x="4" y="7" width="1" height="1" /><rect shape-rendering="crispEdges" fill="rgb(172, 115, 172)"  x="4" y="8" width="1" height="1" /><rect shape-rendering="crispEdges" fill="rgb(172, 115, 172)"  x="4" y="9" width="1" height="1" /><rect shape-rendering="crispEdges" fill="rgb(148, 98, 148)"  x="4" y="10" width="1" height="1" /><rect shape-rendering="crispEdges" fill="rgb(139, 172, 164)"  x="5" y="3" width="1" height="1" /><rect shape-rendering="crispEdges" fill="rgb(255, 164, 197)"  x="5" y="4" width="1" height="1" /><rect shape-rendering="crispEdges" fill="rgb(123, 90, 156)"  x="5" y="5" width="1" height="1" /><rect shape-rendering="crispEdges" fill="rgb(189, 156, 189)"  x="5" y="6" width="1" height="1" /><rect shape-rendering="crispEdges" fill="rgb(172, 115, 172)"  x="5" y="9" width="1" height="1" /><rect shape-rendering="crispEdges" fill="rgb(148, 98, 148)"  x="5" y="10" width="1" height="1" /><rect shape-rendering="crispEdges" fill="rgb(65, 164, 74)"  x="5" y="11" width="1" height="1" /><rect shape-rendering="crispEdges" fill="rgb(205, 189, 90)"  x="5" y="12" width="1" height="1" /><rect shape-rendering="crispEdges" fill="rgb(148, 180, 172)"  x="6" y="2" width="1" height="1" /><rect shape-rendering="crispEdges" fill="rgb(255, 164, 197)"  x="6" y="3" width="1" height="1" /><rect shape-rendering="crispEdges" fill="rgb(139, 106, 164)"  x="6" y="4" width="1" height="1" /><rect shape-rendering="crispEdges" fill="rgb(189, 156, 189)"  x="6" y="5" width="1" height="1" /><rect shape-rendering="crispEdges" fill="rgb(255, 106, 90)"  x="6" y="6" width="1" height="1" /><rect shape-rendering="crispEdges" fill="rgb(172, 115, 172)"  x="6" y="7" width="1" height="1" /><rect shape-rendering="crispEdges" fill="rgb(172, 115, 172)"  x="6" y="9" width="1" height="1" /><rect shape-rendering="crispEdges" fill="rgb(65, 164, 74)"  x="6" y="10" width="1" height="1" /><rect shape-rendering="crispEdges" fill="rgb(205, 189, 98)"  x="6" y="11" width="1" height="1" /><rect shape-rendering="crispEdges" fill="rgb(123, 189, 156)"  x="6" y="12" width="1" height="1" /><rect shape-rendering="crispEdges" fill="rgb(148, 180, 172)"  x="7" y="1" width="1" height="1" /><rect shape-rendering="crispEdges" fill="rgb(255, 197, 222)"  x="7" y="2" width="1" height="1" /><rect shape-rendering="crispEdges" fill="rgb(148, 131, 172)"  x="7" y="3" width="1" height="1" /><rect shape-rendering="crispEdges" fill="rgb(189, 156, 189)"  x="7" y="4" width="1" height="1" /><rect shape-rendering="crispEdges" fill="rgb(172, 115, 172)"  x="7" y="6" width="1" height="1" /><rect shape-rendering="crispEdges" fill="rgb(255, 106, 90)"  x="7" y="7" width="1" height="1" /><rect shape-rendering="crispEdges" fill="rgb(148, 98, 148)"  x="7" y="8" width="1" height="1" /><rect shape-rendering="crispEdges" fill="rgb(74, 164, 74)"  x="7" y="9" width="1" height="1" /><rect shape-rendering="crispEdges" fill="rgb(222, 205, 115)"  x="7" y="10" width="1" height="1" /><rect shape-rendering="crispEdges" fill="rgb(65, 131, 98)"  x="7" y="11" width="1" height="1" /><rect shape-rendering="crispEdges" fill="rgb(131, 205, 172)"  x="7" y="12" width="1" height="1" /><rect shape-rendering="crispEdges" fill="rgb(255, 197, 222)"  x="8" y="1" width="1" height="1" /><rect shape-rendering="crispEdges" fill="rgb(156, 139, 172)"  x="8" y="2" width="1" height="1" /><rect shape-rendering="crispEdges" fill="rgb(189, 156, 189)"  x="8" y="3" width="1" height="1" /><rect shape-rendering="crispEdges" fill="rgb(172, 115, 172)"  x="8" y="4" width="1" height="1" /><rect shape-rendering="crispEdges" fill="rgb(148, 98, 148)"  x="8" y="7" width="1" height="1" /><rect shape-rendering="crispEdges" fill="rgb(82, 172, 90)"  x="8" y="8" width="1" height="1" /><rect shape-rendering="crispEdges" fill="rgb(238, 222, 139)"  x="8" y="9" width="1" height="1" /><rect shape-rendering="crispEdges" fill="rgb(106, 180, 139)"  x="8" y="10" width="1" height="1" /><rect shape-rendering="crispEdges" fill="rgb(131, 205, 172)"  x="8" y="11" width="1" height="1" /><rect shape-rendering="crispEdges" fill="rgb(65, 131, 98)"  x="8" y="12" width="1" height="1" /><rect shape-rendering="crispEdges" fill="rgb(172, 115, 172)"  x="9" y="3" width="1" height="1" /><rect shape-rendering="crispEdges" fill="rgb(172, 115, 172)"  x="9" y="4" width="1" height="1" /><rect shape-rendering="crispEdges" fill="rgb(172, 115, 172)"  x="9" y="5" width="1" height="1" /><rect shape-rendering="crispEdges" fill="rgb(172, 115, 172)"  x="9" y="6" width="1" height="1" /><rect shape-rendering="crispEdges" fill="rgb(123, 197, 131)"  x="9" y="7" width="1" height="1" /><rect shape-rendering="crispEdges" fill="rgb(246, 230, 164)"  x="9" y="8" width="1" height="1" /><rect shape-rendering="crispEdges" fill="rgb(65, 131, 98)"  x="9" y="9" width="1" height="1" /><rect shape-rendering="crispEdges" fill="rgb(131, 205, 172)"  x="9" y="10" width="1" height="1" /><rect shape-rendering="crispEdges" fill="rgb(90, 164, 131)"  x="9" y="11" width="1" height="1" /><rect shape-rendering="crispEdges" fill="rgb(74, 148, 115)"  x="9" y="12" width="1" height="1" /><rect shape-rendering="crispEdges" fill="rgb(65, 131, 98)"  x="9" y="13" width="1" height="1" /><rect shape-rendering="crispEdges" fill="rgb(189, 139, 131)"  x="9" y="14" width="1" height="1" /><rect shape-rendering="crispEdges" fill="rgb(148, 98, 148)"  x="10" y="3" width="1" height="1" /><rect shape-rendering="crispEdges" fill="rgb(148, 98, 148)"  x="10" y="4" width="1" height="1" /><rect shape-rendering="crispEdges" fill="rgb(148, 98, 148)"  x="10" y="5" width="1" height="1" /><rect shape-rendering="crispEdges" fill="rgb(148, 213, 156)"  x="10" y="6" width="1" height="1" /><rect shape-rendering="crispEdges" fill="rgb(255, 238, 172)"  x="10" y="7" width="1" height="1" /><rect shape-rendering="crispEdges" fill="rgb(106, 180, 139)"  x="10" y="8" width="1" height="1" /><rect shape-rendering="crispEdges" fill="rgb(131, 205, 172)"  x="10" y="9" width="1" height="1" /><rect shape-rendering="crispEdges" fill="rgb(65, 131, 98)"  x="10" y="10" width="1" height="1" /><rect shape-rendering="crispEdges" fill="rgb(74, 148, 115)"  x="10" y="11" width="1" height="1" /><rect shape-rendering="crispEdges" fill="rgb(65, 131, 98)"  x="10" y="12" width="1" height="1" /><rect shape-rendering="crispEdges" fill="rgb(189, 139, 131)"  x="10" y="13" width="1" height="1" /><rect shape-rendering="crispEdges" fill="rgb(156, 197, 123)"  x="10" y="14" width="1" height="1" /><rect shape-rendering="crispEdges" fill="rgb(164, 222, 164)"  x="11" y="5" width="1" height="1" /><rect shape-rendering="crispEdges" fill="rgb(255, 246, 180)"  x="11" y="6" width="1" height="1" /><rect shape-rendering="crispEdges" fill="rgb(65, 131, 98)"  x="11" y="7" width="1" height="1" /><rect shape-rendering="crispEdges" fill="rgb(131, 205, 172)"  x="11" y="8" width="1" height="1" /><rect shape-rendering="crispEdges" fill="rgb(90, 164, 131)"  x="11" y="9" width="1" height="1" /><rect shape-rendering="crispEdges" fill="rgb(74, 148, 115)"  x="11" y="10" width="1" height="1" /><rect shape-rendering="crispEdges" fill="rgb(65, 131, 98)"  x="11" y="11" width="1" height="1" /><rect shape-rendering="crispEdges" fill="rgb(197, 156, 148)"  x="11" y="12" width="1" height="1" /><rect shape-rendering="crispEdges" fill="rgb(164, 205, 139)"  x="11" y="13" width="1" height="1" /><rect shape-rendering="crispEdges" fill="rgb(106, 148, 148)"  x="11" y="14" width="1" height="1" /><rect shape-rendering="crispEdges" fill="rgb(238, 222, 131)"  x="11" y="15" width="1" height="1" /><rect shape-rendering="crispEdges" fill="rgb(255, 246, 189)"  x="12" y="5" width="1" height="1" /><rect shape-rendering="crispEdges" fill="rgb(106, 180, 139)"  x="12" y="6" width="1" height="1" /><rect shape-rendering="crispEdges" fill="rgb(131, 205, 172)"  x="12" y="7" width="1" height="1" /><rect shape-rendering="crispEdges" fill="rgb(65, 131, 98)"  x="12" y="8" width="1" height="1" /><rect shape-rendering="crispEdges" fill="rgb(74, 148, 115)"  x="12" y="9" width="1" height="1" /><rect shape-rendering="crispEdges" fill="rgb(65, 131, 98)"  x="12" y="10" width="1" height="1" /><rect shape-rendering="crispEdges" fill="rgb(205, 180, 172)"  x="12" y="11" width="1" height="1" /><rect shape-rendering="crispEdges" fill="rgb(180, 213, 148)"  x="12" y="12" width="1" height="1" /><rect shape-rendering="crispEdges" fill="rgb(106, 148, 148)"  x="12" y="13" width="1" height="1" /><rect shape-rendering="crispEdges" fill="rgb(238, 222, 139)"  x="12" y="14" width="1" height="1" /><rect shape-rendering="crispEdges" fill="rgb(180, 197, 156)"  x="12" y="15" width="1" height="1" /><rect shape-rendering="crispEdges" fill="rgb(65, 131, 98)"  x="13" y="9" width="1" height="1" /><rect shape-rendering="crispEdges" fill="rgb(213, 189, 189)"  x="13" y="10" width="1" height="1" /><rect shape-rendering="crispEdges" fill="rgb(180, 213, 156)"  x="13" y="11" width="1" height="1" /><rect shape-rendering="crispEdges" fill="rgb(131, 156, 156)"  x="13" y="12" width="1" height="1" /><rect shape-rendering="crispEdges" fill="rgb(255, 238, 164)"  x="13" y="13" width="1" height="1" /><rect shape-rendering="crispEdges" fill="rgb(189, 197, 156)"  x="13" y="14" width="1" height="1" /><rect shape-rendering="crispEdges" fill="rgb(131, 49, 106)"  x="13" y="15" width="1" height="1" /><rect shape-rendering="crispEdges" fill="rgb(213, 197, 189)"  x="14" y="9" width="1" height="1" /><rect shape-rendering="crispEdges" fill="rgb(180, 213, 156)"  x="14" y="10" width="1" height="1" /><rect shape-rendering="crispEdges" fill="rgb(148, 164, 164)"  x="14" y="11" width="1" height="1" /><rect shape-rendering="crispEdges" fill="rgb(255, 246, 189)"  x="14" y="12" width="1" height="1" /><rect shape-rendering="crispEdges" fill="rgb(189, 205, 172)"  x="14" y="13" width="1" height="1" /><rect shape-rendering="crispEdges" fill="rgb(230, 148, 205)"  x="14" y="14" width="1" height="1" /><rect shape-rendering="crispEdges" fill="rgb(180, 82, 148)"  x="14" y="15" width="1" height="1" /><rect shape-rendering="crispEdges" fill="rgb(131, 49, 106)"  x="14" y="16" width="1" height="1" /><rect shape-rendering="crispEdges" fill="rgb(255, 246, 205)"  x="15" y="11" width="1" height="1" /><rect shape-rendering="crispEdges" fill="rgb(197, 205, 180)"  x="15" y="12" width="1" height="1" /><rect shape-rendering="crispEdges" fill="rgb(222, 131, 197)"  x="15" y="13" width="1" height="1" /><rect shape-rendering="crispEdges" fill="rgb(180, 82, 148)"  x="15" y="14" width="1" height="1" /><rect shape-rendering="crispEdges" fill="rgb(230, 148, 205)"  x="15" y="15" width="1" height="1" /><rect shape-rendering="crispEdges" fill="rgb(180, 82, 148)"  x="15" y="16" width="1" height="1" /><rect shape-rendering="crispEdges" fill="rgb(131, 49, 106)"  x="15" y="17" width="1" height="1" /><rect shape-rendering="crispEdges" fill="rgb(222, 131, 197)"  x="16" y="14" width="1" height="1" /><rect shape-rendering="crispEdges" fill="rgb(180, 82, 148)"  x="16" y="15" width="1" height="1" /><rect shape-rendering="crispEdges" fill="rgb(230, 148, 205)"  x="16" y="16" width="1" height="1" /><rect shape-rendering="crispEdges" fill="rgb(180, 82, 148)"  x="16" y="17" width="1" height="1" /><rect shape-rendering="crispEdges" fill="rgb(131, 49, 106)"  x="16" y="18" width="1" height="1" /><rect shape-rendering="crispEdges" fill="rgb(180, 197, 156)"  x="16" y="19" width="1" height="1" /><rect shape-rendering="crispEdges" fill="rgb(238, 222, 131)"  x="16" y="20" width="1" height="1" /><rect shape-rendering="crispEdges" fill="rgb(222, 131, 197)"  x="17" y="15" width="1" height="1" /><rect shape-rendering="crispEdges" fill="rgb(180, 82, 148)"  x="17" y="16" width="1" height="1" /><rect shape-rendering="crispEdges" fill="rgb(230, 148, 205)"  x="17" y="17" width="1" height="1" /><rect shape-rendering="crispEdges" fill="rgb(189, 197, 156)"  x="17" y="18" width="1" height="1" /><rect shape-rendering="crispEdges" fill="rgb(238, 222, 139)"  x="17" y="19" width="1" height="1" /><rect shape-rendering="crispEdges" fill="rgb(106, 148, 148)"  x="17" y="20" width="1" height="1" /><rect shape-rendering="crispEdges" fill="rgb(156, 197, 123)"  x="17" y="21" width="1" height="1" /><rect shape-rendering="crispEdges" fill="rgb(189, 139, 131)"  x="17" y="22" width="1" height="1" /><rect shape-rendering="crispEdges" fill="rgb(222, 131, 197)"  x="18" y="16" width="1" height="1" /><rect shape-rendering="crispEdges" fill="rgb(189, 205, 172)"  x="18" y="17" width="1" height="1" /><rect shape-rendering="crispEdges" fill="rgb(255, 238, 164)"  x="18" y="18" width="1" height="1" /><rect shape-rendering="crispEdges" fill="rgb(106, 148, 148)"  x="18" y="19" width="1" height="1" /><rect shape-rendering="crispEdges" fill="rgb(164, 205, 139)"  x="18" y="20" width="1" height="1" /><rect shape-rendering="crispEdges" fill="rgb(189, 139, 131)"  x="18" y="21" width="1" height="1" /><rect shape-rendering="crispEdges" fill="rgb(65, 131, 98)"  x="18" y="22" width="1" height="1" /><rect shape-rendering="crispEdges" fill="rgb(197, 205, 180)"  x="19" y="16" width="1" height="1" /><rect shape-rendering="crispEdges" fill="rgb(255, 246, 189)"  x="19" y="17" width="1" height="1" /><rect shape-rendering="crispEdges" fill="rgb(131, 156, 156)"  x="19" y="18" width="1" height="1" /><rect shape-rendering="crispEdges" fill="rgb(180, 213, 148)"  x="19" y="19" width="1" height="1" /><rect shape-rendering="crispEdges" fill="rgb(197, 156, 148)"  x="19" y="20" width="1" height="1" /><rect shape-rendering="crispEdges" fill="rgb(65, 131, 98)"  x="19" y="21" width="1" height="1" /><rect shape-rendering="crispEdges" fill="rgb(74, 148, 115)"  x="19" y="22" width="1" height="1" /><rect shape-rendering="crispEdges" fill="rgb(65, 131, 98)"  x="19" y="23" width="1" height="1" /><rect shape-rendering="crispEdges" fill="rgb(131, 205, 172)"  x="19" y="24" width="1" height="1" /><rect shape-rendering="crispEdges" fill="rgb(123, 189, 156)"  x="19" y="25" width="1" height="1" /><rect shape-rendering="crispEdges" fill="rgb(205, 189, 90)"  x="19" y="26" width="1" height="1" /><rect shape-rendering="crispEdges" fill="rgb(255, 246, 205)"  x="20" y="16" width="1" height="1" /><rect shape-rendering="crispEdges" fill="rgb(148, 164, 164)"  x="20" y="17" width="1" height="1" /><rect shape-rendering="crispEdges" fill="rgb(180, 213, 156)"  x="20" y="18" width="1" height="1" /><rect shape-rendering="crispEdges" fill="rgb(205, 180, 172)"  x="20" y="19" width="1" height="1" /><rect shape-rendering="crispEdges" fill="rgb(65, 131, 98)"  x="20" y="20" width="1" height="1" /><rect shape-rendering="crispEdges" fill="rgb(74, 148, 115)"  x="20" y="21" width="1" height="1" /><rect shape-rendering="crispEdges" fill="rgb(90, 164, 131)"  x="20" y="22" width="1" height="1" /><rect shape-rendering="crispEdges" fill="rgb(131, 205, 172)"  x="20" y="23" width="1" height="1" /><rect shape-rendering="crispEdges" fill="rgb(65, 131, 98)"  x="20" y="24" width="1" height="1" /><rect shape-rendering="crispEdges" fill="rgb(205, 189, 98)"  x="20" y="25" width="1" height="1" /><rect shape-rendering="crispEdges" fill="rgb(65, 164, 74)"  x="20" y="26" width="1" height="1" /><rect shape-rendering="crispEdges" fill="rgb(180, 213, 156)"  x="21" y="17" width="1" height="1" /><rect shape-rendering="crispEdges" fill="rgb(213, 189, 189)"  x="21" y="18" width="1" height="1" /><rect shape-rendering="crispEdges" fill="rgb(65, 131, 98)"  x="21" y="19" width="1" height="1" /><rect shape-rendering="crispEdges" fill="rgb(74, 148, 115)"  x="21" y="20" width="1" height="1" /><rect shape-rendering="crispEdges" fill="rgb(65, 131, 98)"  x="21" y="21" width="1" height="1" /><rect shape-rendering="crispEdges" fill="rgb(131, 205, 172)"  x="21" y="22" width="1" height="1" /><rect shape-rendering="crispEdges" fill="rgb(106, 180, 139)"  x="21" y="23" width="1" height="1" /><rect shape-rendering="crispEdges" fill="rgb(222, 205, 115)"  x="21" y="24" width="1" height="1" /><rect shape-rendering="crispEdges" fill="rgb(65, 164, 74)"  x="21" y="25" width="1" height="1" /><rect shape-rendering="crispEdges" fill="rgb(148, 98, 148)"  x="21" y="26" width="1" height="1" /><rect shape-rendering="crispEdges" fill="rgb(148, 98, 148)"  x="21" y="27" width="1" height="1" /><rect shape-rendering="crispEdges" fill="rgb(148, 98, 148)"  x="21" y="28" width="1" height="1" /><rect shape-rendering="crispEdges" fill="rgb(213, 197, 189)"  x="22" y="17" width="1" height="1" /><rect shape-rendering="crispEdges" fill="rgb(65, 131, 98)"  x="22" y="18" width="1" height="1" /><rect shape-rendering="crispEdges" fill="rgb(74, 148, 115)"  x="22" y="19" width="1" height="1" /><rect shape-rendering="crispEdges" fill="rgb(90, 164, 131)"  x="22" y="20" width="1" height="1" /><rect shape-rendering="crispEdges" fill="rgb(131, 205, 172)"  x="22" y="21" width="1" height="1" /><rect shape-rendering="crispEdges" fill="rgb(65, 131, 98)"  x="22" y="22" width="1" height="1" /><rect shape-rendering="crispEdges" fill="rgb(238, 222, 139)"  x="22" y="23" width="1" height="1" /><rect shape-rendering="crispEdges" fill="rgb(74, 164, 74)"  x="22" y="24" width="1" height="1" /><rect shape-rendering="crispEdges" fill="rgb(172, 115, 172)"  x="22" y="25" width="1" height="1" /><rect shape-rendering="crispEdges" fill="rgb(172, 115, 172)"  x="22" y="26" width="1" height="1" /><rect shape-rendering="crispEdges" fill="rgb(172, 115, 172)"  x="22" y="27" width="1" height="1" /><rect shape-rendering="crispEdges" fill="rgb(172, 115, 172)"  x="22" y="28" width="1" height="1" /><rect shape-rendering="crispEdges" fill="rgb(65, 131, 98)"  x="23" y="19" width="1" height="1" /><rect shape-rendering="crispEdges" fill="rgb(131, 205, 172)"  x="23" y="20" width="1" height="1" /><rect shape-rendering="crispEdges" fill="rgb(106, 180, 139)"  x="23" y="21" width="1" height="1" /><rect shape-rendering="crispEdges" fill="rgb(246, 230, 164)"  x="23" y="22" width="1" height="1" /><rect shape-rendering="crispEdges" fill="rgb(82, 172, 90)"  x="23" y="23" width="1" height="1" /><rect shape-rendering="crispEdges" fill="rgb(148, 98, 148)"  x="23" y="24" width="1" height="1" /><rect shape-rendering="crispEdges" fill="rgb(172, 115, 172)"  x="23" y="27" width="1" height="1" /><rect shape-rendering="crispEdges" fill="rgb(189, 156, 189)"  x="23" y="28" width="1" height="1" /><rect shape-rendering="crispEdges" fill="rgb(106, 74, 139)"  x="23" y="29" width="1" height="1" /><rect shape-rendering="crispEdges" fill="rgb(213, 57, 115)"  x="23" y="30" width="1" height="1" /><rect shape-rendering="crispEdges" fill="rgb(131, 205, 172)"  x="24" y="19" width="1" height="1" /><rect shape-rendering="crispEdges" fill="rgb(65, 131, 98)"  x="24" y="20" width="1" height="1" /><rect shape-rendering="crispEdges" fill="rgb(255, 238, 172)"  x="24" y="21" width="1" height="1" /><rect shape-rendering="crispEdges" fill="rgb(123, 197, 131)"  x="24" y="22" width="1" height="1" /><rect shape-rendering="crispEdges" fill="rgb(148, 98, 148)"  x="24" y="23" width="1" height="1" /><rect shape-rendering="crispEdges" fill="rgb(255, 106, 90)"  x="24" y="24" width="1" height="1" /><rect shape-rendering="crispEdges" fill="rgb(172, 115, 172)"  x="24" y="25" width="1" height="1" /><rect shape-rendering="crispEdges" fill="rgb(189, 156, 189)"  x="24" y="27" width="1" height="1" /><rect shape-rendering="crispEdges" fill="rgb(115, 74, 148)"  x="24" y="28" width="1" height="1" /><rect shape-rendering="crispEdges" fill="rgb(222, 74, 131)"  x="24" y="29" width="1" height="1" /><rect shape-rendering="crispEdges" fill="rgb(90, 148, 131)"  x="24" y="30" width="1" height="1" /><rect shape-rendering="crispEdges" fill="rgb(106, 180, 139)"  x="25" y="19" width="1" height="1" /><rect shape-rendering="crispEdges" fill="rgb(255, 246, 180)"  x="25" y="20" width="1" height="1" /><rect shape-rendering="crispEdges" fill="rgb(148, 213, 156)"  x="25" y="21" width="1" height="1" /><rect shape-rendering="crispEdges" fill="rgb(172, 115, 172)"  x="25" y="22" width="1" height="1" /><rect shape-rendering="crispEdges" fill="rgb(172, 115, 172)"  x="25" y="24" width="1" height="1" /><rect shape-rendering="crispEdges" fill="rgb(255, 106, 90)"  x="25" y="25" width="1" height="1" /><rect shape-rendering="crispEdges" fill="rgb(189, 156, 189)"  x="25" y="26" width="1" height="1" /><rect shape-rendering="crispEdges" fill="rgb(123, 82, 148)"  x="25" y="27" width="1" height="1" /><rect shape-rendering="crispEdges" fill="rgb(238, 98, 156)"  x="25" y="28" width="1" height="1" /><rect shape-rendering="crispEdges" fill="rgb(90, 148, 131)"  x="25" y="29" width="1" height="1" /><rect shape-rendering="crispEdges" fill="rgb(255, 246, 189)"  x="26" y="19" width="1" height="1" /><rect shape-rendering="crispEdges" fill="rgb(164, 222, 164)"  x="26" y="20" width="1" height="1" /><rect shape-rendering="crispEdges" fill="rgb(148, 98, 148)"  x="26" y="21" width="1" height="1" /><rect shape-rendering="crispEdges" fill="rgb(172, 115, 172)"  x="26" y="22" width="1" height="1" /><rect shape-rendering="crispEdges" fill="rgb(189, 156, 189)"  x="26" y="25" width="1" height="1" /><rect shape-rendering="crispEdges" fill="rgb(123, 90, 156)"  x="26" y="26" width="1" height="1" /><rect shape-rendering="crispEdges" fill="rgb(255, 131, 180)"  x="26" y="27" width="1" height="1" /><rect shape-rendering="crispEdges" fill="rgb(98, 156, 139)"  x="26" y="28" width="1" height="1" /><rect shape-rendering="crispEdges" fill="rgb(148, 98, 148)"  x="27" y="21" width="1" height="1" /><rect shape-rendering="crispEdges" fill="rgb(172, 115, 172)"  x="27" y="22" width="1" height="1" /><rect shape-rendering="crispEdges" fill="rgb(172, 115, 172)"  x="27" y="23" width="1" height="1" /><rect shape-rendering="crispEdges" fill="rgb(189, 156, 189)"  x="27" y="24" width="1" height="1" /><rect shape-rendering="crispEdges" fill="rgb(139, 106, 164)"  x="27" y="25" width="1" height="1" /><rect shape-rendering="crispEdges" fill="rgb(255, 164, 197)"  x="27" y="26" width="1" height="1" /><rect shape-rendering="crispEdges" fill="rgb(115, 164, 156)"  x="27" y="27" width="1" height="1" /><rect shape-rendering="crispEdges" fill="rgb(148, 98, 148)"  x="28" y="21" width="1" height="1" /><rect shape-rendering="crispEdges" fill="rgb(172, 115, 172)"  x="28" y="22" width="1" height="1" /><rect shape-rendering="crispEdges" fill="rgb(189, 156, 189)"  x="28" y="23" width="1" height="1" /><rect shape-rendering="crispEdges" fill="rgb(148, 131, 172)"  x="28" y="24" width="1" height="1" /><rect shape-rendering="crispEdges" fill="rgb(255, 164, 197)"  x="28" y="25" width="1" height="1" /><rect shape-rendering="crispEdges" fill="rgb(139, 172, 164)"  x="28" y="26" width="1" height="1" /><rect shape-rendering="crispEdges" fill="rgb(156, 139, 172)"  x="29" y="23" width="1" height="1" /><rect shape-rendering="crispEdges" fill="rgb(255, 197, 222)"  x="29" y="24" width="1" height="1" /><rect shape-rendering="crispEdges" fill="rgb(148, 180, 172)"  x="29" y="25" width="1" height="1" /><rect shape-rendering="crispEdges" fill="rgb(255, 197, 222)"  x="30" y="23" width="1" height="1" /><rect shape-rendering="crispEdges" fill="rgb(148, 180, 172)"  x="30" y="24" width="1" height="1" /></svg>