<svg xmlns="http://www.w3.org/2000/svg" xmlns:xlink= "http://www.w3.org/1999/xlink" width="32" height="32" viewBox ="0 0 32 32"><rect shape-rendering="crispEdges" fill="rgb(148, 32, 180)"  x="0" y="3" width="1" height="1" /><rect shape-rendering="crispEdges" fill="rgb(148, 32, 180)"  x="0" y="4" width="1" height="1" /><rect shape-rendering="crispEdges" fill="rgb(164, 32, 205)"  x="0" y="5" width="1" height="1" /><rect shape-rendering="crispEdges" fill="rgb(164, 32, 205)"  x="0" y="6" width="1" height="1" /><rect shape-rendering="crispEdges" fill="rgb(148, 32, 180)"  x="0" y="7" width="1" height="1" /><rect shape-rendering="crispEdges" fill="rgb(148, 32, 180)"  x="0" y="8" width="1" height="1" /><rect shape-rendering="crispEdges" fill="rgb(148, 32, 180)"  x="1" y="2" width="1" height="1" /><rect shape-rendering="crispEdges" fill="rgb(90, 197, 255)"  x="1" y="3" width="1" height="1" /><rect shape-rendering="crispEdges" fill="rgb(172, 41, 222)"  x="1" y="4" width="1" height="1" /><rect shape-rendering="crispEdges" fill="rgb(172, 41, 222)"  x="1" y="5" width="1" height="1" /><rect shape-rendering="crispEdges" fill="rgb(180, 49, 246)"  x="1" y="6" width="1" height="1" /><rect shape-rendering="crispEdges" fill="rgb(180, 49, 246)"  x="1" y="7" width="1" height="1" /><rect shape-rendering="crispEdges" fill="rgb(49, 139, 255)"  x="1" y="8" width="1" height="1" /><rect shape-rendering="crispEdges" fill="rgb(148, 32, 180)"  x="1" y="9" width="1" height="1" /><rect shape-rendering="crispEdges" fill="rgb(148, 32, 180)"  x="2" y="1" width="1" height="1" /><rect shape-rendering="crispEdges" fill="rgb(148, 32, 180)"  x="2" y="2" width="1" height="1" /><rect shape-rendering="crispEdges" fill="rgb(172, 41, 222)"  x="2" y="3" width="1" height="1" /><rect shape-rendering="crispEdges" fill="rgb(74, 172, 255)"  x="2" y="4" width="1" height="1" /><rect shape-rendering="crispEdges" fill="rgb(49, 139, 255)"  x="2" y="5" width="1" height="1" /><rect shape-rendering="crispEdges" fill="rgb(49, 139, 255)"  x="2" y="6" width="1" height="1" /><rect shape-rendering="crispEdges" fill="rgb(90, 197, 255)"  x="2" y="7" width="1" height="1" /><rect shape-rendering="crispEdges" fill="rgb(180, 49, 246)"  x="2" y="8" width="1" height="1" /><rect shape-rendering="crispEdges" fill="rgb(172, 41, 222)"  x="2" y="9" width="1" height="1" /><rect shape-rendering="crispEdges" fill="rgb(148, 32, 180)"  x="2" y="10" width="1" height="1" /><rect shape-rendering="crispEdges" fill="rgb(148, 32, 180)"  x="3" y="0" width="1" height="1" /><rect shape-rendering="crispEdges" fill="rgb(90, 197, 255)"  x="3" y="1" width="1" height="1" /><rect shape-rendering="crispEdges" fill="rgb(172, 41, 222)"  x="3" y="2" width="1" height="1" /><rect shape-rendering="crispEdges" fill="rgb(148, 32, 180)"  x="3" y="8" width="1" height="1" /><rect shape-rendering="crispEdges" fill="rgb(205, 74, 255)"  x="3" y="9" width="1" height="1" /><rect shape-rendering="crispEdges" fill="rgb(172, 41, 222)"  x="3" y="10" width="1" height="1" /><rect shape-rendering="crispEdges" fill="rgb(148, 32, 180)"  x="4" y="0" width="1" height="1" /><rect shape-rendering="crispEdges" fill="rgb(172, 41, 222)"  x="4" y="1" width="1" height="1" /><rect shape-rendering="crispEdges" fill="rgb(74, 172, 255)"  x="4" y="2" width="1" height="1" /><rect shape-rendering="crispEdges" fill="rgb(0, 189, 0)"  x="4" y="4" width="1" height="1" /><rect shape-rendering="crispEdges" fill="rgb(0, 189, 0)"  x="4" y="5" width="1" height="1" /><rect shape-rendering="crispEdges" fill="rgb(0, 189, 0)"  x="4" y="6" width="1" height="1" /><rect shape-rendering="crispEdges" fill="rgb(148, 32, 180)"  x="4" y="9" width="1" height="1" /><rect shape-rendering="crispEdges" fill="rgb(238, 172, 197)"  x="4" y="10" width="1" height="1" /><rect shape-rendering="crispEdges" fill="rgb(164, 32, 205)"  x="4" y="11" width="1" height="1" /><rect shape-rendering="crispEdges" fill="rgb(180, 49, 246)"  x="5" y="0" width="1" height="1" /><rect shape-rendering="crispEdges" fill="rgb(205, 74, 255)"  x="5" y="1" width="1" height="1" /><rect shape-rendering="crispEdges" fill="rgb(49, 139, 255)"  x="5" y="2" width="1" height="1" /><rect shape-rendering="crispEdges" fill="rgb(65, 222, 65)"  x="5" y="4" width="1" height="1" /><rect shape-rendering="crispEdges" fill="rgb(139, 255, 139)"  x="5" y="5" width="1" height="1" /><rect shape-rendering="crispEdges" fill="rgb(139, 255, 139)"  x="5" y="6" width="1" height="1" /><rect shape-rendering="crispEdges" fill="rgb(0, 189, 0)"  x="5" y="7" width="1" height="1" /><rect shape-rendering="crispEdges" fill="rgb(164, 98, 131)"  x="5" y="8" width="1" height="1" /><rect shape-rendering="crispEdges" fill="rgb(238, 172, 197)"  x="5" y="9" width="1" height="1" /><rect shape-rendering="crispEdges" fill="rgb(172, 41, 222)"  x="5" y="10" width="1" height="1" /><rect shape-rendering="crispEdges" fill="rgb(164, 98, 131)"  x="5" y="11" width="1" height="1" /><rect shape-rendering="crispEdges" fill="rgb(180, 49, 246)"  x="6" y="0" width="1" height="1" /><rect shape-rendering="crispEdges" fill="rgb(205, 74, 255)"  x="6" y="1" width="1" height="1" /><rect shape-rendering="crispEdges" fill="rgb(49, 139, 255)"  x="6" y="2" width="1" height="1" /><rect shape-rendering="crispEdges" fill="rgb(65, 222, 65)"  x="6" y="4" width="1" height="1" /><rect shape-rendering="crispEdges" fill="rgb(65, 222, 65)"  x="6" y="5" width="1" height="1" /><rect shape-rendering="crispEdges" fill="rgb(139, 255, 139)"  x="6" y="6" width="1" height="1" /><rect shape-rendering="crispEdges" fill="rgb(0, 189, 0)"  x="6" y="7" width="1" height="1" /><rect shape-rendering="crispEdges" fill="rgb(164, 98, 131)"  x="6" y="9" width="1" height="1" /><rect shape-rendering="crispEdges" fill="rgb(213, 148, 172)"  x="6" y="10" width="1" height="1" /><rect shape-rendering="crispEdges" fill="rgb(189, 115, 148)"  x="6" y="11" width="1" height="1" /><rect shape-rendering="crispEdges" fill="rgb(180, 49, 246)"  x="7" y="0" width="1" height="1" /><rect shape-rendering="crispEdges" fill="rgb(205, 74, 255)"  x="7" y="1" width="1" height="1" /><rect shape-rendering="crispEdges" fill="rgb(90, 197, 255)"  x="7" y="2" width="1" height="1" /><rect shape-rendering="crispEdges" fill="rgb(0, 164, 0)"  x="7" y="5" width="1" height="1" /><rect shape-rendering="crispEdges" fill="rgb(0, 189, 0)"  x="7" y="6" width="1" height="1" /><rect shape-rendering="crispEdges" fill="rgb(0, 189, 0)"  x="7" y="7" width="1" height="1" /><rect shape-rendering="crispEdges" fill="rgb(49, 139, 255)"  x="7" y="8" width="1" height="1" /><rect shape-rendering="crispEdges" fill="rgb(148, 32, 180)"  x="7" y="9" width="1" height="1" /><rect shape-rendering="crispEdges" fill="rgb(148, 32, 180)"  x="7" y="10" width="1" height="1" /><rect shape-rendering="crispEdges" fill="rgb(148, 32, 180)"  x="7" y="11" width="1" height="1" /><rect shape-rendering="crispEdges" fill="rgb(131, 24, 156)"  x="7" y="12" width="1" height="1" /><rect shape-rendering="crispEdges" fill="rgb(180, 49, 246)"  x="8" y="0" width="1" height="1" /><rect shape-rendering="crispEdges" fill="rgb(49, 139, 255)"  x="8" y="1" width="1" height="1" /><rect shape-rendering="crispEdges" fill="rgb(180, 49, 246)"  x="8" y="2" width="1" height="1" /><rect shape-rendering="crispEdges" fill="rgb(148, 32, 180)"  x="8" y="3" width="1" height="1" /><rect shape-rendering="crispEdges" fill="rgb(164, 98, 131)"  x="8" y="5" width="1" height="1" /><rect shape-rendering="crispEdges" fill="rgb(49, 139, 255)"  x="8" y="7" width="1" height="1" /><rect shape-rendering="crispEdges" fill="rgb(90, 197, 255)"  x="8" y="8" width="1" height="1" /><rect shape-rendering="crispEdges" fill="rgb(255, 131, 255)"  x="8" y="9" width="1" height="1" /><rect shape-rendering="crispEdges" fill="rgb(205, 74, 255)"  x="8" y="10" width="1" height="1" /><rect shape-rendering="crispEdges" fill="rgb(205, 74, 255)"  x="8" y="11" width="1" height="1" /><rect shape-rendering="crispEdges" fill="rgb(131, 24, 156)"  x="8" y="12" width="1" height="1" /><rect shape-rendering="crispEdges" fill="rgb(180, 49, 246)"  x="9" y="1" width="1" height="1" /><rect shape-rendering="crispEdges" fill="rgb(172, 41, 222)"  x="9" y="2" width="1" height="1" /><rect shape-rendering="crispEdges" fill="rgb(205, 74, 255)"  x="9" y="3" width="1" height="1" /><rect shape-rendering="crispEdges" fill="rgb(148, 32, 180)"  x="9" y="4" width="1" height="1" /><rect shape-rendering="crispEdges" fill="rgb(238, 172, 197)"  x="9" y="5" width="1" height="1" /><rect shape-rendering="crispEdges" fill="rgb(164, 98, 131)"  x="9" y="6" width="1" height="1" /><rect shape-rendering="crispEdges" fill="rgb(164, 32, 205)"  x="9" y="7" width="1" height="1" /><rect shape-rendering="crispEdges" fill="rgb(255, 131, 255)"  x="9" y="8" width="1" height="1" /><rect shape-rendering="crispEdges" fill="rgb(230, 106, 255)"  x="9" y="9" width="1" height="1" /><rect shape-rendering="crispEdges" fill="rgb(164, 32, 205)"  x="9" y="10" width="1" height="1" /><rect shape-rendering="crispEdges" fill="rgb(164, 32, 205)"  x="9" y="11" width="1" height="1" /><rect shape-rendering="crispEdges" fill="rgb(164, 32, 205)"  x="9" y="12" width="1" height="1" /><rect shape-rendering="crispEdges" fill="rgb(255, 131, 255)"  x="9" y="13" width="1" height="1" /><rect shape-rendering="crispEdges" fill="rgb(148, 32, 180)"  x="9" y="14" width="1" height="1" /><rect shape-rendering="crispEdges" fill="rgb(180, 49, 246)"  x="10" y="2" width="1" height="1" /><rect shape-rendering="crispEdges" fill="rgb(172, 41, 222)"  x="10" y="3" width="1" height="1" /><rect shape-rendering="crispEdges" fill="rgb(238, 172, 197)"  x="10" y="4" width="1" height="1" /><rect shape-rendering="crispEdges" fill="rgb(172, 41, 222)"  x="10" y="5" width="1" height="1" /><rect shape-rendering="crispEdges" fill="rgb(213, 148, 172)"  x="10" y="6" width="1" height="1" /><rect shape-rendering="crispEdges" fill="rgb(148, 32, 180)"  x="10" y="7" width="1" height="1" /><rect shape-rendering="crispEdges" fill="rgb(230, 106, 255)"  x="10" y="8" width="1" height="1" /><rect shape-rendering="crispEdges" fill="rgb(148, 32, 180)"  x="10" y="9" width="1" height="1" /><rect shape-rendering="crispEdges" fill="rgb(255, 164, 213)"  x="10" y="10" width="1" height="1" /><rect shape-rendering="crispEdges" fill="rgb(255, 106, 180)"  x="10" y="11" width="1" height="1" /><rect shape-rendering="crispEdges" fill="rgb(164, 32, 205)"  x="10" y="12" width="1" height="1" /><rect shape-rendering="crispEdges" fill="rgb(148, 32, 180)"  x="10" y="13" width="1" height="1" /><rect shape-rendering="crispEdges" fill="rgb(180, 49, 246)"  x="10" y="14" width="1" height="1" /><rect shape-rendering="crispEdges" fill="rgb(180, 49, 246)"  x="11" y="4" width="1" height="1" /><rect shape-rendering="crispEdges" fill="rgb(164, 98, 131)"  x="11" y="5" width="1" height="1" /><rect shape-rendering="crispEdges" fill="rgb(189, 115, 148)"  x="11" y="6" width="1" height="1" /><rect shape-rendering="crispEdges" fill="rgb(148, 32, 180)"  x="11" y="7" width="1" height="1" /><rect shape-rendering="crispEdges" fill="rgb(205, 74, 255)"  x="11" y="8" width="1" height="1" /><rect shape-rendering="crispEdges" fill="rgb(164, 32, 205)"  x="11" y="9" width="1" height="1" /><rect shape-rendering="crispEdges" fill="rgb(255, 164, 213)"  x="11" y="10" width="1" height="1" /><rect shape-rendering="crispEdges" fill="rgb(255, 106, 180)"  x="11" y="11" width="1" height="1" /><rect shape-rendering="crispEdges" fill="rgb(172, 180, 255)"  x="11" y="12" width="1" height="1" /><rect shape-rendering="crispEdges" fill="rgb(139, 131, 222)"  x="11" y="13" width="1" height="1" /><rect shape-rendering="crispEdges" fill="rgb(205, 74, 255)"  x="12" y="7" width="1" height="1" /><rect shape-rendering="crispEdges" fill="rgb(148, 32, 180)"  x="12" y="8" width="1" height="1" /><rect shape-rendering="crispEdges" fill="rgb(180, 49, 246)"  x="12" y="9" width="1" height="1" /><rect shape-rendering="crispEdges" fill="rgb(164, 32, 205)"  x="12" y="10" width="1" height="1" /><rect shape-rendering="crispEdges" fill="rgb(205, 238, 255)"  x="12" y="11" width="1" height="1" /><rect shape-rendering="crispEdges" fill="rgb(172, 180, 255)"  x="12" y="12" width="1" height="1" /><rect shape-rendering="crispEdges" fill="rgb(156, 156, 255)"  x="12" y="13" width="1" height="1" /><rect shape-rendering="crispEdges" fill="rgb(164, 98, 131)"  x="12" y="14" width="1" height="1" /><rect shape-rendering="crispEdges" fill="rgb(255, 131, 255)"  x="13" y="9" width="1" height="1" /><rect shape-rendering="crispEdges" fill="rgb(180, 49, 246)"  x="13" y="10" width="1" height="1" /><rect shape-rendering="crispEdges" fill="rgb(156, 156, 255)"  x="13" y="11" width="1" height="1" /><rect shape-rendering="crispEdges" fill="rgb(205, 238, 255)"  x="13" y="12" width="1" height="1" /><rect shape-rendering="crispEdges" fill="rgb(255, 139, 197)"  x="13" y="13" width="1" height="1" /><rect shape-rendering="crispEdges" fill="rgb(213, 65, 255)"  x="13" y="14" width="1" height="1" /><rect shape-rendering="crispEdges" fill="rgb(131, 82, 115)"  x="13" y="15" width="1" height="1" /><rect shape-rendering="crispEdges" fill="rgb(230, 106, 255)"  x="14" y="9" width="1" height="1" /><rect shape-rendering="crispEdges" fill="rgb(205, 74, 255)"  x="14" y="10" width="1" height="1" /><rect shape-rendering="crispEdges" fill="rgb(172, 41, 222)"  x="14" y="12" width="1" height="1" /><rect shape-rendering="crispEdges" fill="rgb(255, 164, 213)"  x="14" y="13" width="1" height="1" /><rect shape-rendering="crispEdges" fill="rgb(255, 106, 180)"  x="14" y="14" width="1" height="1" /><rect shape-rendering="crispEdges" fill="rgb(205, 74, 255)"  x="14" y="15" width="1" height="1" /><rect shape-rendering="crispEdges" fill="rgb(106, 57, 98)"  x="14" y="16" width="1" height="1" /><rect shape-rendering="crispEdges" fill="rgb(180, 49, 246)"  x="15" y="13" width="1" height="1" /><rect shape-rendering="crispEdges" fill="rgb(255, 164, 213)"  x="15" y="14" width="1" height="1" /><rect shape-rendering="crispEdges" fill="rgb(255, 131, 255)"  x="15" y="15" width="1" height="1" /><rect shape-rendering="crispEdges" fill="rgb(205, 74, 255)"  x="15" y="16" width="1" height="1" /><rect shape-rendering="crispEdges" fill="rgb(106, 57, 98)"  x="15" y="17" width="1" height="1" /><rect shape-rendering="crispEdges" fill="rgb(205, 74, 255)"  x="16" y="14" width="1" height="1" /><rect shape-rendering="crispEdges" fill="rgb(255, 205, 255)"  x="16" y="15" width="1" height="1" /><rect shape-rendering="crispEdges" fill="rgb(255, 131, 255)"  x="16" y="16" width="1" height="1" /><rect shape-rendering="crispEdges" fill="rgb(205, 74, 255)"  x="16" y="17" width="1" height="1" /><rect shape-rendering="crispEdges" fill="rgb(106, 57, 98)"  x="16" y="18" width="1" height="1" /><rect shape-rendering="crispEdges" fill="rgb(205, 74, 255)"  x="17" y="15" width="1" height="1" /><rect shape-rendering="crispEdges" fill="rgb(255, 164, 213)"  x="17" y="16" width="1" height="1" /><rect shape-rendering="crispEdges" fill="rgb(255, 106, 180)"  x="17" y="17" width="1" height="1" /><rect shape-rendering="crispEdges" fill="rgb(205, 74, 255)"  x="17" y="18" width="1" height="1" /><rect shape-rendering="crispEdges" fill="rgb(106, 57, 98)"  x="17" y="19" width="1" height="1" /><rect shape-rendering="crispEdges" fill="rgb(180, 49, 246)"  x="17" y="21" width="1" height="1" /><rect shape-rendering="crispEdges" fill="rgb(148, 32, 180)"  x="17" y="22" width="1" height="1" /><rect shape-rendering="crispEdges" fill="rgb(164, 32, 205)"  x="18" y="16" width="1" height="1" /><rect shape-rendering="crispEdges" fill="rgb(205, 74, 255)"  x="18" y="17" width="1" height="1" /><rect shape-rendering="crispEdges" fill="rgb(205, 74, 255)"  x="18" y="18" width="1" height="1" /><rect shape-rendering="crispEdges" fill="rgb(156, 156, 255)"  x="18" y="19" width="1" height="1" /><rect shape-rendering="crispEdges" fill="rgb(106, 57, 98)"  x="18" y="20" width="1" height="1" /><rect shape-rendering="crispEdges" fill="rgb(148, 32, 180)"  x="18" y="21" width="1" height="1" /><rect shape-rendering="crispEdges" fill="rgb(255, 131, 255)"  x="18" y="22" width="1" height="1" /><rect shape-rendering="crispEdges" fill="rgb(172, 41, 222)"  x="19" y="17" width="1" height="1" /><rect shape-rendering="crispEdges" fill="rgb(205, 238, 255)"  x="19" y="18" width="1" height="1" /><rect shape-rendering="crispEdges" fill="rgb(172, 180, 255)"  x="19" y="19" width="1" height="1" /><rect shape-rendering="crispEdges" fill="rgb(172, 180, 255)"  x="19" y="20" width="1" height="1" /><rect shape-rendering="crispEdges" fill="rgb(164, 32, 205)"  x="19" y="21" width="1" height="1" /><rect shape-rendering="crispEdges" fill="rgb(164, 32, 205)"  x="19" y="22" width="1" height="1" /><rect shape-rendering="crispEdges" fill="rgb(131, 24, 156)"  x="19" y="23" width="1" height="1" /><rect shape-rendering="crispEdges" fill="rgb(131, 24, 156)"  x="19" y="24" width="1" height="1" /><rect shape-rendering="crispEdges" fill="rgb(156, 156, 255)"  x="20" y="18" width="1" height="1" /><rect shape-rendering="crispEdges" fill="rgb(205, 238, 255)"  x="20" y="19" width="1" height="1" /><rect shape-rendering="crispEdges" fill="rgb(255, 106, 180)"  x="20" y="20" width="1" height="1" /><rect shape-rendering="crispEdges" fill="rgb(255, 106, 180)"  x="20" y="21" width="1" height="1" /><rect shape-rendering="crispEdges" fill="rgb(164, 32, 205)"  x="20" y="22" width="1" height="1" /><rect shape-rendering="crispEdges" fill="rgb(205, 74, 255)"  x="20" y="23" width="1" height="1" /><rect shape-rendering="crispEdges" fill="rgb(148, 32, 180)"  x="20" y="24" width="1" height="1" /><rect shape-rendering="crispEdges" fill="rgb(189, 115, 148)"  x="20" y="25" width="1" height="1" /><rect shape-rendering="crispEdges" fill="rgb(164, 98, 131)"  x="20" y="26" width="1" height="1" /><rect shape-rendering="crispEdges" fill="rgb(164, 32, 205)"  x="20" y="27" width="1" height="1" /><rect shape-rendering="crispEdges" fill="rgb(205, 74, 255)"  x="21" y="17" width="1" height="1" /><rect shape-rendering="crispEdges" fill="rgb(180, 49, 246)"  x="21" y="18" width="1" height="1" /><rect shape-rendering="crispEdges" fill="rgb(164, 32, 205)"  x="21" y="19" width="1" height="1" /><rect shape-rendering="crispEdges" fill="rgb(255, 164, 213)"  x="21" y="20" width="1" height="1" /><rect shape-rendering="crispEdges" fill="rgb(255, 164, 213)"  x="21" y="21" width="1" height="1" /><rect shape-rendering="crispEdges" fill="rgb(164, 32, 205)"  x="21" y="22" width="1" height="1" /><rect shape-rendering="crispEdges" fill="rgb(205, 74, 255)"  x="21" y="23" width="1" height="1" /><rect shape-rendering="crispEdges" fill="rgb(148, 32, 180)"  x="21" y="24" width="1" height="1" /><rect shape-rendering="crispEdges" fill="rgb(213, 148, 172)"  x="21" y="25" width="1" height="1" /><rect shape-rendering="crispEdges" fill="rgb(172, 41, 222)"  x="21" y="26" width="1" height="1" /><rect shape-rendering="crispEdges" fill="rgb(238, 172, 197)"  x="21" y="27" width="1" height="1" /><rect shape-rendering="crispEdges" fill="rgb(172, 41, 222)"  x="21" y="28" width="1" height="1" /><rect shape-rendering="crispEdges" fill="rgb(148, 32, 180)"  x="21" y="29" width="1" height="1" /><rect shape-rendering="crispEdges" fill="rgb(230, 106, 255)"  x="22" y="17" width="1" height="1" /><rect shape-rendering="crispEdges" fill="rgb(255, 131, 255)"  x="22" y="18" width="1" height="1" /><rect shape-rendering="crispEdges" fill="rgb(180, 49, 246)"  x="22" y="19" width="1" height="1" /><rect shape-rendering="crispEdges" fill="rgb(164, 32, 205)"  x="22" y="20" width="1" height="1" /><rect shape-rendering="crispEdges" fill="rgb(148, 32, 180)"  x="22" y="21" width="1" height="1" /><rect shape-rendering="crispEdges" fill="rgb(230, 106, 255)"  x="22" y="22" width="1" height="1" /><rect shape-rendering="crispEdges" fill="rgb(255, 131, 255)"  x="22" y="23" width="1" height="1" /><rect shape-rendering="crispEdges" fill="rgb(148, 32, 180)"  x="22" y="24" width="1" height="1" /><rect shape-rendering="crispEdges" fill="rgb(164, 98, 131)"  x="22" y="25" width="1" height="1" /><rect shape-rendering="crispEdges" fill="rgb(238, 172, 197)"  x="22" y="26" width="1" height="1" /><rect shape-rendering="crispEdges" fill="rgb(148, 32, 180)"  x="22" y="27" width="1" height="1" /><rect shape-rendering="crispEdges" fill="rgb(205, 74, 255)"  x="22" y="28" width="1" height="1" /><rect shape-rendering="crispEdges" fill="rgb(172, 41, 222)"  x="22" y="29" width="1" height="1" /><rect shape-rendering="crispEdges" fill="rgb(148, 32, 180)"  x="22" y="30" width="1" height="1" /><rect shape-rendering="crispEdges" fill="rgb(148, 32, 180)"  x="23" y="19" width="1" height="1" /><rect shape-rendering="crispEdges" fill="rgb(205, 74, 255)"  x="23" y="20" width="1" height="1" /><rect shape-rendering="crispEdges" fill="rgb(230, 106, 255)"  x="23" y="21" width="1" height="1" /><rect shape-rendering="crispEdges" fill="rgb(255, 131, 255)"  x="23" y="22" width="1" height="1" /><rect shape-rendering="crispEdges" fill="rgb(90, 197, 255)"  x="23" y="23" width="1" height="1" /><rect shape-rendering="crispEdges" fill="rgb(49, 139, 255)"  x="23" y="24" width="1" height="1" /><rect shape-rendering="crispEdges" fill="rgb(164, 98, 131)"  x="23" y="26" width="1" height="1" /><rect shape-rendering="crispEdges" fill="rgb(148, 32, 180)"  x="23" y="28" width="1" height="1" /><rect shape-rendering="crispEdges" fill="rgb(180, 49, 246)"  x="23" y="29" width="1" height="1" /><rect shape-rendering="crispEdges" fill="rgb(49, 139, 255)"  x="23" y="30" width="1" height="1" /><rect shape-rendering="crispEdges" fill="rgb(148, 32, 180)"  x="23" y="31" width="1" height="1" /><rect shape-rendering="crispEdges" fill="rgb(205, 74, 255)"  x="24" y="19" width="1" height="1" /><rect shape-rendering="crispEdges" fill="rgb(148, 32, 180)"  x="24" y="20" width="1" height="1" /><rect shape-rendering="crispEdges" fill="rgb(148, 32, 180)"  x="24" y="21" width="1" height="1" /><rect shape-rendering="crispEdges" fill="rgb(164, 32, 205)"  x="24" y="22" width="1" height="1" /><rect shape-rendering="crispEdges" fill="rgb(49, 139, 255)"  x="24" y="23" width="1" height="1" /><rect shape-rendering="crispEdges" fill="rgb(0, 189, 0)"  x="24" y="24" width="1" height="1" /><rect shape-rendering="crispEdges" fill="rgb(0, 189, 0)"  x="24" y="25" width="1" height="1" /><rect shape-rendering="crispEdges" fill="rgb(0, 189, 0)"  x="24" y="26" width="1" height="1" /><rect shape-rendering="crispEdges" fill="rgb(90, 197, 255)"  x="24" y="29" width="1" height="1" /><rect shape-rendering="crispEdges" fill="rgb(180, 49, 246)"  x="24" y="30" width="1" height="1" /><rect shape-rendering="crispEdges" fill="rgb(148, 32, 180)"  x="24" y="31" width="1" height="1" /><rect shape-rendering="crispEdges" fill="rgb(189, 115, 148)"  x="25" y="20" width="1" height="1" /><rect shape-rendering="crispEdges" fill="rgb(213, 148, 172)"  x="25" y="21" width="1" height="1" /><rect shape-rendering="crispEdges" fill="rgb(164, 98, 131)"  x="25" y="22" width="1" height="1" /><rect shape-rendering="crispEdges" fill="rgb(0, 189, 0)"  x="25" y="24" width="1" height="1" /><rect shape-rendering="crispEdges" fill="rgb(139, 255, 139)"  x="25" y="25" width="1" height="1" /><rect shape-rendering="crispEdges" fill="rgb(139, 255, 139)"  x="25" y="26" width="1" height="1" /><rect shape-rendering="crispEdges" fill="rgb(0, 189, 0)"  x="25" y="27" width="1" height="1" /><rect shape-rendering="crispEdges" fill="rgb(49, 139, 255)"  x="25" y="29" width="1" height="1" /><rect shape-rendering="crispEdges" fill="rgb(180, 49, 246)"  x="25" y="30" width="1" height="1" /><rect shape-rendering="crispEdges" fill="rgb(164, 32, 205)"  x="25" y="31" width="1" height="1" /><rect shape-rendering="crispEdges" fill="rgb(164, 98, 131)"  x="26" y="20" width="1" height="1" /><rect shape-rendering="crispEdges" fill="rgb(172, 41, 222)"  x="26" y="21" width="1" height="1" /><rect shape-rendering="crispEdges" fill="rgb(238, 172, 197)"  x="26" y="22" width="1" height="1" /><rect shape-rendering="crispEdges" fill="rgb(164, 98, 131)"  x="26" y="23" width="1" height="1" /><rect shape-rendering="crispEdges" fill="rgb(0, 164, 0)"  x="26" y="24" width="1" height="1" /><rect shape-rendering="crispEdges" fill="rgb(65, 222, 65)"  x="26" y="25" width="1" height="1" /><rect shape-rendering="crispEdges" fill="rgb(139, 255, 139)"  x="26" y="26" width="1" height="1" /><rect shape-rendering="crispEdges" fill="rgb(0, 189, 0)"  x="26" y="27" width="1" height="1" /><rect shape-rendering="crispEdges" fill="rgb(49, 139, 255)"  x="26" y="29" width="1" height="1" /><rect shape-rendering="crispEdges" fill="rgb(172, 41, 222)"  x="26" y="30" width="1" height="1" /><rect shape-rendering="crispEdges" fill="rgb(164, 32, 205)"  x="26" y="31" width="1" height="1" /><rect shape-rendering="crispEdges" fill="rgb(180, 49, 246)"  x="27" y="20" width="1" height="1" /><rect shape-rendering="crispEdges" fill="rgb(238, 172, 197)"  x="27" y="21" width="1" height="1" /><rect shape-rendering="crispEdges" fill="rgb(148, 32, 180)"  x="27" y="22" width="1" height="1" /><rect shape-rendering="crispEdges" fill="rgb(65, 222, 65)"  x="27" y="25" width="1" height="1" /><rect shape-rendering="crispEdges" fill="rgb(65, 222, 65)"  x="27" y="26" width="1" height="1" /><rect shape-rendering="crispEdges" fill="rgb(0, 189, 0)"  x="27" y="27" width="1" height="1" /><rect shape-rendering="crispEdges" fill="rgb(74, 172, 255)"  x="27" y="29" width="1" height="1" /><rect shape-rendering="crispEdges" fill="rgb(172, 41, 222)"  x="27" y="30" width="1" height="1" /><rect shape-rendering="crispEdges" fill="rgb(148, 32, 180)"  x="27" y="31" width="1" height="1" /><rect shape-rendering="crispEdges" fill="rgb(172, 41, 222)"  x="28" y="21" width="1" height="1" /><rect shape-rendering="crispEdges" fill="rgb(205, 74, 255)"  x="28" y="22" width="1" height="1" /><rect shape-rendering="crispEdges" fill="rgb(148, 32, 180)"  x="28" y="23" width="1" height="1" /><rect shape-rendering="crispEdges" fill="rgb(172, 41, 222)"  x="28" y="29" width="1" height="1" /><rect shape-rendering="crispEdges" fill="rgb(90, 197, 255)"  x="28" y="30" width="1" height="1" /><rect shape-rendering="crispEdges" fill="rgb(148, 32, 180)"  x="28" y="31" width="1" height="1" /><rect shape-rendering="crispEdges" fill="rgb(180, 49, 246)"  x="29" y="21" width="1" height="1" /><rect shape-rendering="crispEdges" fill="rgb(172, 41, 222)"  x="29" y="22" width="1" height="1" /><rect shape-rendering="crispEdges" fill="rgb(180, 49, 246)"  x="29" y="23" width="1" height="1" /><rect shape-rendering="crispEdges" fill="rgb(90, 197, 255)"  x="29" y="24" width="1" height="1" /><rect shape-rendering="crispEdges" fill="rgb(49, 139, 255)"  x="29" y="25" width="1" height="1" /><rect shape-rendering="crispEdges" fill="rgb(49, 139, 255)"  x="29" y="26" width="1" height="1" /><rect shape-rendering="crispEdges" fill="rgb(74, 172, 255)"  x="29" y="27" width="1" height="1" /><rect shape-rendering="crispEdges" fill="rgb(172, 41, 222)"  x="29" y="28" width="1" height="1" /><rect shape-rendering="crispEdges" fill="rgb(148, 32, 180)"  x="29" y="29" width="1" height="1" /><rect shape-rendering="crispEdges" fill="rgb(148, 32, 180)"  x="29" y="30" width="1" height="1" /><rect shape-rendering="crispEdges" fill="rgb(180, 49, 246)"  x="30" y="22" width="1" height="1" /><rect shape-rendering="crispEdges" fill="rgb(49, 139, 255)"  x="30" y="23" width="1" height="1" /><rect shape-rendering="crispEdges" fill="rgb(205, 74, 255)"  x="30" y="24" width="1" height="1" /><rect shape-rendering="crispEdges" fill="rgb(205, 74, 255)"  x="30" y="25" width="1" height="1" /><rect shape-rendering="crispEdges" fill="rgb(205, 74, 255)"  x="30" y="26" width="1" height="1" /><rect shape-rendering="crispEdges" fill="rgb(172, 41, 222)"  x="30" y="27" width="1" height="1" /><rect shape-rendering="crispEdges" fill="rgb(90, 197, 255)"  x="30" y="28" width="1" height="1" /><rect shape-rendering="crispEdges" fill="rgb(148, 32, 180)"  x="30" y="29" width="1" height="1" /><rect shape-rendering="crispEdges" fill="rgb(180, 49, 246)"  x="31" y="23" width="1" height="1" /><rect shape-rendering="crispEdges" fill="rgb(180, 49, 246)"  x="31" y="24" width="1" height="1" /><rect shape-rendering="crispEdges" fill="rgb(180, 49, 246)"  x="31" y="25" width="1" height="1" /><rect shape-rendering="crispEdges" fill="rgb(180, 49, 246)"  x="31" y="26" width="1" height="1" /><rect shape-rendering="crispEdges" fill="rgb(148, 32, 180)"  x="31" y="27" width="1" height="1" /><rect shape-rendering="crispEdges" fill="rgb(148, 32, 180)"  x="31" y="28" width="1" height="1" /></svg>