<svg xmlns="http://www.w3.org/2000/svg" xmlns:xlink= "http://www.w3.org/1999/xlink" width="32" height="32" viewBox ="0 0 32 32"><rect shape-rendering="crispEdges" fill="rgb(156, 189, 205)"  x="1" y="5" width="1" height="1" /><rect shape-rendering="crispEdges" fill="rgb(156, 189, 205)"  x="1" y="6" width="1" height="1" /><rect shape-rendering="crispEdges" fill="rgb(156, 189, 205)"  x="1" y="7" width="1" height="1" /><rect shape-rendering="crispEdges" fill="rgb(156, 189, 205)"  x="1" y="8" width="1" height="1" /><rect shape-rendering="crispEdges" fill="rgb(222, 139, 205)"  x="1" y="9" width="1" height="1" /><rect shape-rendering="crispEdges" fill="rgb(156, 189, 205)"  x="2" y="4" width="1" height="1" /><rect shape-rendering="crispEdges" fill="rgb(255, 255, 255)"  x="2" y="5" width="1" height="1" /><rect shape-rendering="crispEdges" fill="rgb(222, 230, 246)"  x="2" y="6" width="1" height="1" /><rect shape-rendering="crispEdges" fill="rgb(222, 230, 246)"  x="2" y="7" width="1" height="1" /><rect shape-rendering="crispEdges" fill="rgb(246, 123, 205)"  x="2" y="8" width="1" height="1" /><rect shape-rendering="crispEdges" fill="rgb(139, 123, 213)"  x="2" y="9" width="1" height="1" /><rect shape-rendering="crispEdges" fill="rgb(106, 115, 180)"  x="2" y="10" width="1" height="1" /><rect shape-rendering="crispEdges" fill="rgb(164, 205, 222)"  x="3" y="3" width="1" height="1" /><rect shape-rendering="crispEdges" fill="rgb(164, 213, 238)"  x="3" y="4" width="1" height="1" /><rect shape-rendering="crispEdges" fill="rgb(222, 230, 246)"  x="3" y="5" width="1" height="1" /><rect shape-rendering="crispEdges" fill="rgb(222, 230, 246)"  x="3" y="6" width="1" height="1" /><rect shape-rendering="crispEdges" fill="rgb(246, 123, 205)"  x="3" y="7" width="1" height="1" /><rect shape-rendering="crispEdges" fill="rgb(139, 123, 213)"  x="3" y="8" width="1" height="1" /><rect shape-rendering="crispEdges" fill="rgb(139, 123, 213)"  x="3" y="9" width="1" height="1" /><rect shape-rendering="crispEdges" fill="rgb(139, 123, 213)"  x="3" y="10" width="1" height="1" /><rect shape-rendering="crispEdges" fill="rgb(106, 115, 180)"  x="3" y="11" width="1" height="1" /><rect shape-rendering="crispEdges" fill="rgb(164, 205, 222)"  x="4" y="2" width="1" height="1" /><rect shape-rendering="crispEdges" fill="rgb(164, 213, 238)"  x="4" y="3" width="1" height="1" /><rect shape-rendering="crispEdges" fill="rgb(222, 139, 205)"  x="4" y="4" width="1" height="1" /><rect shape-rendering="crispEdges" fill="rgb(205, 131, 189)"  x="4" y="5" width="1" height="1" /><rect shape-rendering="crispEdges" fill="rgb(222, 139, 205)"  x="4" y="6" width="1" height="1" /><rect shape-rendering="crispEdges" fill="rgb(222, 139, 205)"  x="4" y="7" width="1" height="1" /><rect shape-rendering="crispEdges" fill="rgb(238, 148, 139)"  x="4" y="8" width="1" height="1" /><rect shape-rendering="crispEdges" fill="rgb(238, 148, 139)"  x="4" y="9" width="1" height="1" /><rect shape-rendering="crispEdges" fill="rgb(139, 123, 213)"  x="4" y="10" width="1" height="1" /><rect shape-rendering="crispEdges" fill="rgb(106, 115, 180)"  x="4" y="11" width="1" height="1" /><rect shape-rendering="crispEdges" fill="rgb(164, 205, 222)"  x="5" y="1" width="1" height="1" /><rect shape-rendering="crispEdges" fill="rgb(255, 255, 255)"  x="5" y="2" width="1" height="1" /><rect shape-rendering="crispEdges" fill="rgb(164, 213, 238)"  x="5" y="3" width="1" height="1" /><rect shape-rendering="crispEdges" fill="rgb(205, 131, 189)"  x="5" y="4" width="1" height="1" /><rect shape-rendering="crispEdges" fill="rgb(180, 197, 197)"  x="5" y="5" width="1" height="1" /><rect shape-rendering="crispEdges" fill="rgb(238, 148, 156)"  x="5" y="6" width="1" height="1" /><rect shape-rendering="crispEdges" fill="rgb(238, 246, 246)"  x="5" y="7" width="1" height="1" /><rect shape-rendering="crispEdges" fill="rgb(230, 238, 246)"  x="5" y="8" width="1" height="1" /><rect shape-rendering="crispEdges" fill="rgb(180, 222, 238)"  x="5" y="9" width="1" height="1" /><rect shape-rendering="crispEdges" fill="rgb(238, 148, 148)"  x="5" y="10" width="1" height="1" /><rect shape-rendering="crispEdges" fill="rgb(139, 123, 213)"  x="5" y="11" width="1" height="1" /><rect shape-rendering="crispEdges" fill="rgb(106, 115, 180)"  x="5" y="12" width="1" height="1" /><rect shape-rendering="crispEdges" fill="rgb(164, 205, 222)"  x="6" y="1" width="1" height="1" /><rect shape-rendering="crispEdges" fill="rgb(255, 255, 255)"  x="6" y="2" width="1" height="1" /><rect shape-rendering="crispEdges" fill="rgb(197, 213, 255)"  x="6" y="3" width="1" height="1" /><rect shape-rendering="crispEdges" fill="rgb(205, 131, 189)"  x="6" y="4" width="1" height="1" /><rect shape-rendering="crispEdges" fill="rgb(238, 148, 156)"  x="6" y="5" width="1" height="1" /><rect shape-rendering="crispEdges" fill="rgb(238, 148, 156)"  x="6" y="6" width="1" height="1" /><rect shape-rendering="crispEdges" fill="rgb(156, 197, 222)"  x="6" y="7" width="1" height="1" /><rect shape-rendering="crispEdges" fill="rgb(213, 156, 98)"  x="6" y="8" width="1" height="1" /><rect shape-rendering="crispEdges" fill="rgb(213, 156, 98)"  x="6" y="9" width="1" height="1" /><rect shape-rendering="crispEdges" fill="rgb(106, 115, 180)"  x="6" y="10" width="1" height="1" /><rect shape-rendering="crispEdges" fill="rgb(106, 115, 180)"  x="6" y="11" width="1" height="1" /><rect shape-rendering="crispEdges" fill="rgb(106, 115, 180)"  x="6" y="12" width="1" height="1" /><rect shape-rendering="crispEdges" fill="rgb(164, 205, 222)"  x="7" y="1" width="1" height="1" /><rect shape-rendering="crispEdges" fill="rgb(164, 213, 238)"  x="7" y="2" width="1" height="1" /><rect shape-rendering="crispEdges" fill="rgb(246, 123, 205)"  x="7" y="3" width="1" height="1" /><rect shape-rendering="crispEdges" fill="rgb(205, 131, 189)"  x="7" y="4" width="1" height="1" /><rect shape-rendering="crispEdges" fill="rgb(180, 222, 238)"  x="7" y="5" width="1" height="1" /><rect shape-rendering="crispEdges" fill="rgb(164, 213, 222)"  x="7" y="6" width="1" height="1" /><rect shape-rendering="crispEdges" fill="rgb(222, 238, 255)"  x="7" y="7" width="1" height="1" /><rect shape-rendering="crispEdges" fill="rgb(222, 238, 255)"  x="7" y="8" width="1" height="1" /><rect shape-rendering="crispEdges" fill="rgb(213, 156, 98)"  x="7" y="9" width="1" height="1" /><rect shape-rendering="crispEdges" fill="rgb(139, 156, 222)"  x="7" y="10" width="1" height="1" /><rect shape-rendering="crispEdges" fill="rgb(139, 123, 213)"  x="7" y="11" width="1" height="1" /><rect shape-rendering="crispEdges" fill="rgb(106, 115, 180)"  x="7" y="12" width="1" height="1" /><rect shape-rendering="crispEdges" fill="rgb(164, 205, 222)"  x="8" y="1" width="1" height="1" /><rect shape-rendering="crispEdges" fill="rgb(246, 123, 205)"  x="8" y="2" width="1" height="1" /><rect shape-rendering="crispEdges" fill="rgb(139, 123, 213)"  x="8" y="3" width="1" height="1" /><rect shape-rendering="crispEdges" fill="rgb(238, 148, 139)"  x="8" y="4" width="1" height="1" /><rect shape-rendering="crispEdges" fill="rgb(172, 205, 213)"  x="8" y="5" width="1" height="1" /><rect shape-rendering="crispEdges" fill="rgb(213, 156, 98)"  x="8" y="6" width="1" height="1" /><rect shape-rendering="crispEdges" fill="rgb(172, 189, 205)"  x="8" y="7" width="1" height="1" /><rect shape-rendering="crispEdges" fill="rgb(222, 238, 255)"  x="8" y="8" width="1" height="1" /><rect shape-rendering="crispEdges" fill="rgb(213, 156, 98)"  x="8" y="9" width="1" height="1" /><rect shape-rendering="crispEdges" fill="rgb(139, 156, 222)"  x="8" y="10" width="1" height="1" /><rect shape-rendering="crispEdges" fill="rgb(139, 123, 213)"  x="8" y="11" width="1" height="1" /><rect shape-rendering="crispEdges" fill="rgb(106, 115, 180)"  x="8" y="12" width="1" height="1" /><rect shape-rendering="crispEdges" fill="rgb(246, 148, 115)"  x="8" y="13" width="1" height="1" /><rect shape-rendering="crispEdges" fill="rgb(222, 139, 205)"  x="9" y="1" width="1" height="1" /><rect shape-rendering="crispEdges" fill="rgb(139, 123, 213)"  x="9" y="2" width="1" height="1" /><rect shape-rendering="crispEdges" fill="rgb(139, 123, 213)"  x="9" y="3" width="1" height="1" /><rect shape-rendering="crispEdges" fill="rgb(238, 148, 139)"  x="9" y="4" width="1" height="1" /><rect shape-rendering="crispEdges" fill="rgb(180, 222, 238)"  x="9" y="5" width="1" height="1" /><rect shape-rendering="crispEdges" fill="rgb(213, 156, 98)"  x="9" y="6" width="1" height="1" /><rect shape-rendering="crispEdges" fill="rgb(213, 156, 98)"  x="9" y="7" width="1" height="1" /><rect shape-rendering="crispEdges" fill="rgb(213, 156, 98)"  x="9" y="8" width="1" height="1" /><rect shape-rendering="crispEdges" fill="rgb(213, 156, 98)"  x="9" y="9" width="1" height="1" /><rect shape-rendering="crispEdges" fill="rgb(139, 123, 213)"  x="9" y="10" width="1" height="1" /><rect shape-rendering="crispEdges" fill="rgb(106, 115, 180)"  x="9" y="11" width="1" height="1" /><rect shape-rendering="crispEdges" fill="rgb(246, 131, 98)"  x="9" y="12" width="1" height="1" /><rect shape-rendering="crispEdges" fill="rgb(139, 131, 205)"  x="9" y="13" width="1" height="1" /><rect shape-rendering="crispEdges" fill="rgb(123, 115, 205)"  x="9" y="14" width="1" height="1" /><rect shape-rendering="crispEdges" fill="rgb(139, 156, 222)"  x="10" y="2" width="1" height="1" /><rect shape-rendering="crispEdges" fill="rgb(139, 123, 213)"  x="10" y="3" width="1" height="1" /><rect shape-rendering="crispEdges" fill="rgb(139, 123, 213)"  x="10" y="4" width="1" height="1" /><rect shape-rendering="crispEdges" fill="rgb(238, 148, 148)"  x="10" y="5" width="1" height="1" /><rect shape-rendering="crispEdges" fill="rgb(139, 156, 222)"  x="10" y="6" width="1" height="1" /><rect shape-rendering="crispEdges" fill="rgb(139, 156, 222)"  x="10" y="7" width="1" height="1" /><rect shape-rendering="crispEdges" fill="rgb(139, 156, 222)"  x="10" y="8" width="1" height="1" /><rect shape-rendering="crispEdges" fill="rgb(139, 123, 213)"  x="10" y="9" width="1" height="1" /><rect shape-rendering="crispEdges" fill="rgb(106, 115, 180)"  x="10" y="10" width="1" height="1" /><rect shape-rendering="crispEdges" fill="rgb(246, 131, 98)"  x="10" y="11" width="1" height="1" /><rect shape-rendering="crispEdges" fill="rgb(148, 139, 230)"  x="10" y="12" width="1" height="1" /><rect shape-rendering="crispEdges" fill="rgb(139, 131, 205)"  x="10" y="13" width="1" height="1" /><rect shape-rendering="crispEdges" fill="rgb(139, 131, 205)"  x="10" y="14" width="1" height="1" /><rect shape-rendering="crispEdges" fill="rgb(246, 148, 115)"  x="10" y="15" width="1" height="1" /><rect shape-rendering="crispEdges" fill="rgb(139, 156, 222)"  x="11" y="3" width="1" height="1" /><rect shape-rendering="crispEdges" fill="rgb(139, 156, 222)"  x="11" y="4" width="1" height="1" /><rect shape-rendering="crispEdges" fill="rgb(139, 123, 213)"  x="11" y="5" width="1" height="1" /><rect shape-rendering="crispEdges" fill="rgb(139, 123, 213)"  x="11" y="6" width="1" height="1" /><rect shape-rendering="crispEdges" fill="rgb(139, 123, 213)"  x="11" y="7" width="1" height="1" /><rect shape-rendering="crispEdges" fill="rgb(139, 123, 213)"  x="11" y="8" width="1" height="1" /><rect shape-rendering="crispEdges" fill="rgb(106, 115, 180)"  x="11" y="9" width="1" height="1" /><rect shape-rendering="crispEdges" fill="rgb(246, 148, 115)"  x="11" y="10" width="1" height="1" /><rect shape-rendering="crispEdges" fill="rgb(164, 164, 238)"  x="11" y="11" width="1" height="1" /><rect shape-rendering="crispEdges" fill="rgb(164, 164, 238)"  x="11" y="12" width="1" height="1" /><rect shape-rendering="crispEdges" fill="rgb(148, 139, 230)"  x="11" y="13" width="1" height="1" /><rect shape-rendering="crispEdges" fill="rgb(246, 131, 98)"  x="11" y="14" width="1" height="1" /><rect shape-rendering="crispEdges" fill="rgb(123, 115, 205)"  x="11" y="15" width="1" height="1" /><rect shape-rendering="crispEdges" fill="rgb(106, 115, 180)"  x="12" y="5" width="1" height="1" /><rect shape-rendering="crispEdges" fill="rgb(106, 115, 180)"  x="12" y="6" width="1" height="1" /><rect shape-rendering="crispEdges" fill="rgb(106, 115, 180)"  x="12" y="7" width="1" height="1" /><rect shape-rendering="crispEdges" fill="rgb(106, 115, 180)"  x="12" y="8" width="1" height="1" /><rect shape-rendering="crispEdges" fill="rgb(255, 180, 156)"  x="12" y="9" width="1" height="1" /><rect shape-rendering="crispEdges" fill="rgb(148, 139, 230)"  x="12" y="10" width="1" height="1" /><rect shape-rendering="crispEdges" fill="rgb(164, 164, 238)"  x="12" y="11" width="1" height="1" /><rect shape-rendering="crispEdges" fill="rgb(164, 164, 238)"  x="12" y="12" width="1" height="1" /><rect shape-rendering="crispEdges" fill="rgb(246, 131, 98)"  x="12" y="13" width="1" height="1" /><rect shape-rendering="crispEdges" fill="rgb(123, 115, 205)"  x="12" y="14" width="1" height="1" /><rect shape-rendering="crispEdges" fill="rgb(255, 180, 156)"  x="13" y="8" width="1" height="1" /><rect shape-rendering="crispEdges" fill="rgb(139, 131, 205)"  x="13" y="9" width="1" height="1" /><rect shape-rendering="crispEdges" fill="rgb(139, 131, 205)"  x="13" y="10" width="1" height="1" /><rect shape-rendering="crispEdges" fill="rgb(148, 139, 230)"  x="13" y="11" width="1" height="1" /><rect shape-rendering="crispEdges" fill="rgb(246, 148, 115)"  x="13" y="12" width="1" height="1" /><rect shape-rendering="crispEdges" fill="rgb(164, 164, 238)"  x="13" y="13" width="1" height="1" /><rect shape-rendering="crispEdges" fill="rgb(164, 164, 238)"  x="13" y="14" width="1" height="1" /><rect shape-rendering="crispEdges" fill="rgb(246, 131, 98)"  x="13" y="15" width="1" height="1" /><rect shape-rendering="crispEdges" fill="rgb(123, 115, 205)"  x="14" y="9" width="1" height="1" /><rect shape-rendering="crispEdges" fill="rgb(139, 131, 205)"  x="14" y="10" width="1" height="1" /><rect shape-rendering="crispEdges" fill="rgb(255, 180, 156)"  x="14" y="11" width="1" height="1" /><rect shape-rendering="crispEdges" fill="rgb(123, 115, 205)"  x="14" y="12" width="1" height="1" /><rect shape-rendering="crispEdges" fill="rgb(164, 164, 238)"  x="14" y="13" width="1" height="1" /><rect shape-rendering="crispEdges" fill="rgb(246, 131, 98)"  x="14" y="14" width="1" height="1" /><rect shape-rendering="crispEdges" fill="rgb(148, 189, 213)"  x="14" y="15" width="1" height="1" /><rect shape-rendering="crispEdges" fill="rgb(131, 164, 189)"  x="14" y="16" width="1" height="1" /><rect shape-rendering="crispEdges" fill="rgb(255, 180, 156)"  x="15" y="10" width="1" height="1" /><rect shape-rendering="crispEdges" fill="rgb(123, 115, 205)"  x="15" y="11" width="1" height="1" /><rect shape-rendering="crispEdges" fill="rgb(255, 156, 156)"  x="15" y="13" width="1" height="1" /><rect shape-rendering="crispEdges" fill="rgb(148, 189, 213)"  x="15" y="14" width="1" height="1" /><rect shape-rendering="crispEdges" fill="rgb(213, 238, 255)"  x="15" y="15" width="1" height="1" /><rect shape-rendering="crispEdges" fill="rgb(148, 189, 213)"  x="15" y="16" width="1" height="1" /><rect shape-rendering="crispEdges" fill="rgb(131, 164, 189)"  x="15" y="17" width="1" height="1" /><rect shape-rendering="crispEdges" fill="rgb(180, 222, 238)"  x="16" y="14" width="1" height="1" /><rect shape-rendering="crispEdges" fill="rgb(148, 189, 213)"  x="16" y="15" width="1" height="1" /><rect shape-rendering="crispEdges" fill="rgb(213, 238, 255)"  x="16" y="16" width="1" height="1" /><rect shape-rendering="crispEdges" fill="rgb(148, 189, 213)"  x="16" y="17" width="1" height="1" /><rect shape-rendering="crispEdges" fill="rgb(246, 131, 98)"  x="16" y="18" width="1" height="1" /><rect shape-rendering="crispEdges" fill="rgb(123, 115, 205)"  x="16" y="20" width="1" height="1" /><rect shape-rendering="crispEdges" fill="rgb(246, 148, 115)"  x="16" y="21" width="1" height="1" /><rect shape-rendering="crispEdges" fill="rgb(180, 222, 238)"  x="17" y="15" width="1" height="1" /><rect shape-rendering="crispEdges" fill="rgb(148, 189, 213)"  x="17" y="16" width="1" height="1" /><rect shape-rendering="crispEdges" fill="rgb(246, 131, 98)"  x="17" y="17" width="1" height="1" /><rect shape-rendering="crispEdges" fill="rgb(164, 164, 238)"  x="17" y="18" width="1" height="1" /><rect shape-rendering="crispEdges" fill="rgb(123, 115, 205)"  x="17" y="19" width="1" height="1" /><rect shape-rendering="crispEdges" fill="rgb(246, 131, 98)"  x="17" y="20" width="1" height="1" /><rect shape-rendering="crispEdges" fill="rgb(139, 131, 205)"  x="17" y="21" width="1" height="1" /><rect shape-rendering="crispEdges" fill="rgb(123, 115, 205)"  x="17" y="22" width="1" height="1" /><rect shape-rendering="crispEdges" fill="rgb(255, 156, 156)"  x="18" y="16" width="1" height="1" /><rect shape-rendering="crispEdges" fill="rgb(197, 189, 246)"  x="18" y="17" width="1" height="1" /><rect shape-rendering="crispEdges" fill="rgb(164, 164, 238)"  x="18" y="18" width="1" height="1" /><rect shape-rendering="crispEdges" fill="rgb(246, 131, 98)"  x="18" y="19" width="1" height="1" /><rect shape-rendering="crispEdges" fill="rgb(148, 139, 230)"  x="18" y="20" width="1" height="1" /><rect shape-rendering="crispEdges" fill="rgb(139, 131, 205)"  x="18" y="21" width="1" height="1" /><rect shape-rendering="crispEdges" fill="rgb(139, 131, 205)"  x="18" y="22" width="1" height="1" /><rect shape-rendering="crispEdges" fill="rgb(246, 148, 115)"  x="18" y="23" width="1" height="1" /><rect shape-rendering="crispEdges" fill="rgb(197, 189, 246)"  x="19" y="17" width="1" height="1" /><rect shape-rendering="crispEdges" fill="rgb(246, 148, 115)"  x="19" y="18" width="1" height="1" /><rect shape-rendering="crispEdges" fill="rgb(164, 164, 238)"  x="19" y="19" width="1" height="1" /><rect shape-rendering="crispEdges" fill="rgb(164, 164, 238)"  x="19" y="20" width="1" height="1" /><rect shape-rendering="crispEdges" fill="rgb(148, 139, 230)"  x="19" y="21" width="1" height="1" /><rect shape-rendering="crispEdges" fill="rgb(246, 131, 98)"  x="19" y="22" width="1" height="1" /><rect shape-rendering="crispEdges" fill="rgb(106, 115, 180)"  x="19" y="23" width="1" height="1" /><rect shape-rendering="crispEdges" fill="rgb(106, 115, 180)"  x="19" y="24" width="1" height="1" /><rect shape-rendering="crispEdges" fill="rgb(106, 115, 180)"  x="19" y="25" width="1" height="1" /><rect shape-rendering="crispEdges" fill="rgb(106, 115, 180)"  x="19" y="26" width="1" height="1" /><rect shape-rendering="crispEdges" fill="rgb(197, 189, 246)"  x="20" y="16" width="1" height="1" /><rect shape-rendering="crispEdges" fill="rgb(255, 180, 156)"  x="20" y="17" width="1" height="1" /><rect shape-rendering="crispEdges" fill="rgb(148, 139, 230)"  x="20" y="18" width="1" height="1" /><rect shape-rendering="crispEdges" fill="rgb(164, 164, 238)"  x="20" y="19" width="1" height="1" /><rect shape-rendering="crispEdges" fill="rgb(164, 164, 238)"  x="20" y="20" width="1" height="1" /><rect shape-rendering="crispEdges" fill="rgb(246, 131, 98)"  x="20" y="21" width="1" height="1" /><rect shape-rendering="crispEdges" fill="rgb(106, 115, 180)"  x="20" y="22" width="1" height="1" /><rect shape-rendering="crispEdges" fill="rgb(139, 123, 213)"  x="20" y="23" width="1" height="1" /><rect shape-rendering="crispEdges" fill="rgb(139, 123, 213)"  x="20" y="24" width="1" height="1" /><rect shape-rendering="crispEdges" fill="rgb(106, 115, 180)"  x="20" y="25" width="1" height="1" /><rect shape-rendering="crispEdges" fill="rgb(139, 123, 213)"  x="20" y="26" width="1" height="1" /><rect shape-rendering="crispEdges" fill="rgb(106, 115, 180)"  x="20" y="27" width="1" height="1" /><rect shape-rendering="crispEdges" fill="rgb(106, 115, 180)"  x="20" y="28" width="1" height="1" /><rect shape-rendering="crispEdges" fill="rgb(255, 180, 156)"  x="21" y="16" width="1" height="1" /><rect shape-rendering="crispEdges" fill="rgb(139, 131, 205)"  x="21" y="17" width="1" height="1" /><rect shape-rendering="crispEdges" fill="rgb(139, 131, 205)"  x="21" y="18" width="1" height="1" /><rect shape-rendering="crispEdges" fill="rgb(148, 139, 230)"  x="21" y="19" width="1" height="1" /><rect shape-rendering="crispEdges" fill="rgb(246, 148, 115)"  x="21" y="20" width="1" height="1" /><rect shape-rendering="crispEdges" fill="rgb(106, 115, 180)"  x="21" y="21" width="1" height="1" /><rect shape-rendering="crispEdges" fill="rgb(139, 123, 213)"  x="21" y="22" width="1" height="1" /><rect shape-rendering="crispEdges" fill="rgb(139, 156, 222)"  x="21" y="23" width="1" height="1" /><rect shape-rendering="crispEdges" fill="rgb(139, 156, 222)"  x="21" y="24" width="1" height="1" /><rect shape-rendering="crispEdges" fill="rgb(106, 115, 180)"  x="21" y="25" width="1" height="1" /><rect shape-rendering="crispEdges" fill="rgb(238, 148, 148)"  x="21" y="26" width="1" height="1" /><rect shape-rendering="crispEdges" fill="rgb(139, 123, 213)"  x="21" y="27" width="1" height="1" /><rect shape-rendering="crispEdges" fill="rgb(139, 123, 213)"  x="21" y="28" width="1" height="1" /><rect shape-rendering="crispEdges" fill="rgb(106, 115, 180)"  x="21" y="29" width="1" height="1" /><rect shape-rendering="crispEdges" fill="rgb(123, 115, 205)"  x="22" y="17" width="1" height="1" /><rect shape-rendering="crispEdges" fill="rgb(139, 131, 205)"  x="22" y="18" width="1" height="1" /><rect shape-rendering="crispEdges" fill="rgb(255, 180, 156)"  x="22" y="19" width="1" height="1" /><rect shape-rendering="crispEdges" fill="rgb(106, 115, 180)"  x="22" y="20" width="1" height="1" /><rect shape-rendering="crispEdges" fill="rgb(139, 123, 213)"  x="22" y="21" width="1" height="1" /><rect shape-rendering="crispEdges" fill="rgb(213, 156, 98)"  x="22" y="22" width="1" height="1" /><rect shape-rendering="crispEdges" fill="rgb(213, 156, 98)"  x="22" y="23" width="1" height="1" /><rect shape-rendering="crispEdges" fill="rgb(213, 156, 98)"  x="22" y="24" width="1" height="1" /><rect shape-rendering="crispEdges" fill="rgb(213, 156, 98)"  x="22" y="25" width="1" height="1" /><rect shape-rendering="crispEdges" fill="rgb(180, 222, 238)"  x="22" y="26" width="1" height="1" /><rect shape-rendering="crispEdges" fill="rgb(238, 148, 139)"  x="22" y="27" width="1" height="1" /><rect shape-rendering="crispEdges" fill="rgb(139, 123, 213)"  x="22" y="28" width="1" height="1" /><rect shape-rendering="crispEdges" fill="rgb(197, 189, 246)"  x="22" y="29" width="1" height="1" /><rect shape-rendering="crispEdges" fill="rgb(222, 139, 205)"  x="22" y="30" width="1" height="1" /><rect shape-rendering="crispEdges" fill="rgb(255, 180, 156)"  x="23" y="18" width="1" height="1" /><rect shape-rendering="crispEdges" fill="rgb(197, 189, 246)"  x="23" y="19" width="1" height="1" /><rect shape-rendering="crispEdges" fill="rgb(139, 123, 213)"  x="23" y="20" width="1" height="1" /><rect shape-rendering="crispEdges" fill="rgb(139, 156, 222)"  x="23" y="21" width="1" height="1" /><rect shape-rendering="crispEdges" fill="rgb(213, 156, 98)"  x="23" y="22" width="1" height="1" /><rect shape-rendering="crispEdges" fill="rgb(222, 238, 255)"  x="23" y="23" width="1" height="1" /><rect shape-rendering="crispEdges" fill="rgb(222, 238, 255)"  x="23" y="24" width="1" height="1" /><rect shape-rendering="crispEdges" fill="rgb(213, 156, 98)"  x="23" y="25" width="1" height="1" /><rect shape-rendering="crispEdges" fill="rgb(230, 238, 246)"  x="23" y="26" width="1" height="1" /><rect shape-rendering="crispEdges" fill="rgb(238, 148, 139)"  x="23" y="27" width="1" height="1" /><rect shape-rendering="crispEdges" fill="rgb(197, 189, 246)"  x="23" y="28" width="1" height="1" /><rect shape-rendering="crispEdges" fill="rgb(246, 123, 205)"  x="23" y="29" width="1" height="1" /><rect shape-rendering="crispEdges" fill="rgb(156, 189, 205)"  x="23" y="30" width="1" height="1" /><rect shape-rendering="crispEdges" fill="rgb(197, 189, 246)"  x="24" y="19" width="1" height="1" /><rect shape-rendering="crispEdges" fill="rgb(139, 123, 213)"  x="24" y="20" width="1" height="1" /><rect shape-rendering="crispEdges" fill="rgb(139, 156, 222)"  x="24" y="21" width="1" height="1" /><rect shape-rendering="crispEdges" fill="rgb(213, 156, 98)"  x="24" y="22" width="1" height="1" /><rect shape-rendering="crispEdges" fill="rgb(172, 189, 205)"  x="24" y="23" width="1" height="1" /><rect shape-rendering="crispEdges" fill="rgb(222, 238, 255)"  x="24" y="24" width="1" height="1" /><rect shape-rendering="crispEdges" fill="rgb(156, 197, 222)"  x="24" y="25" width="1" height="1" /><rect shape-rendering="crispEdges" fill="rgb(238, 246, 246)"  x="24" y="26" width="1" height="1" /><rect shape-rendering="crispEdges" fill="rgb(222, 139, 205)"  x="24" y="27" width="1" height="1" /><rect shape-rendering="crispEdges" fill="rgb(246, 123, 205)"  x="24" y="28" width="1" height="1" /><rect shape-rendering="crispEdges" fill="rgb(222, 230, 246)"  x="24" y="29" width="1" height="1" /><rect shape-rendering="crispEdges" fill="rgb(115, 156, 180)"  x="24" y="30" width="1" height="1" /><rect shape-rendering="crispEdges" fill="rgb(197, 189, 246)"  x="25" y="19" width="1" height="1" /><rect shape-rendering="crispEdges" fill="rgb(139, 123, 213)"  x="25" y="20" width="1" height="1" /><rect shape-rendering="crispEdges" fill="rgb(139, 156, 222)"  x="25" y="21" width="1" height="1" /><rect shape-rendering="crispEdges" fill="rgb(213, 156, 98)"  x="25" y="22" width="1" height="1" /><rect shape-rendering="crispEdges" fill="rgb(213, 156, 98)"  x="25" y="23" width="1" height="1" /><rect shape-rendering="crispEdges" fill="rgb(164, 213, 222)"  x="25" y="24" width="1" height="1" /><rect shape-rendering="crispEdges" fill="rgb(238, 148, 156)"  x="25" y="25" width="1" height="1" /><rect shape-rendering="crispEdges" fill="rgb(238, 148, 156)"  x="25" y="26" width="1" height="1" /><rect shape-rendering="crispEdges" fill="rgb(222, 139, 205)"  x="25" y="27" width="1" height="1" /><rect shape-rendering="crispEdges" fill="rgb(222, 230, 246)"  x="25" y="28" width="1" height="1" /><rect shape-rendering="crispEdges" fill="rgb(222, 230, 246)"  x="25" y="29" width="1" height="1" /><rect shape-rendering="crispEdges" fill="rgb(115, 156, 180)"  x="25" y="30" width="1" height="1" /><rect shape-rendering="crispEdges" fill="rgb(197, 189, 246)"  x="26" y="19" width="1" height="1" /><rect shape-rendering="crispEdges" fill="rgb(139, 123, 213)"  x="26" y="20" width="1" height="1" /><rect shape-rendering="crispEdges" fill="rgb(238, 148, 148)"  x="26" y="21" width="1" height="1" /><rect shape-rendering="crispEdges" fill="rgb(180, 222, 238)"  x="26" y="22" width="1" height="1" /><rect shape-rendering="crispEdges" fill="rgb(172, 205, 213)"  x="26" y="23" width="1" height="1" /><rect shape-rendering="crispEdges" fill="rgb(180, 222, 238)"  x="26" y="24" width="1" height="1" /><rect shape-rendering="crispEdges" fill="rgb(238, 148, 156)"  x="26" y="25" width="1" height="1" /><rect shape-rendering="crispEdges" fill="rgb(180, 197, 197)"  x="26" y="26" width="1" height="1" /><rect shape-rendering="crispEdges" fill="rgb(205, 131, 189)"  x="26" y="27" width="1" height="1" /><rect shape-rendering="crispEdges" fill="rgb(222, 230, 246)"  x="26" y="28" width="1" height="1" /><rect shape-rendering="crispEdges" fill="rgb(255, 255, 255)"  x="26" y="29" width="1" height="1" /><rect shape-rendering="crispEdges" fill="rgb(115, 156, 180)"  x="26" y="30" width="1" height="1" /><rect shape-rendering="crispEdges" fill="rgb(197, 189, 246)"  x="27" y="20" width="1" height="1" /><rect shape-rendering="crispEdges" fill="rgb(139, 123, 213)"  x="27" y="21" width="1" height="1" /><rect shape-rendering="crispEdges" fill="rgb(238, 148, 139)"  x="27" y="22" width="1" height="1" /><rect shape-rendering="crispEdges" fill="rgb(238, 148, 139)"  x="27" y="23" width="1" height="1" /><rect shape-rendering="crispEdges" fill="rgb(205, 131, 189)"  x="27" y="24" width="1" height="1" /><rect shape-rendering="crispEdges" fill="rgb(205, 131, 189)"  x="27" y="25" width="1" height="1" /><rect shape-rendering="crispEdges" fill="rgb(205, 131, 189)"  x="27" y="26" width="1" height="1" /><rect shape-rendering="crispEdges" fill="rgb(222, 139, 205)"  x="27" y="27" width="1" height="1" /><rect shape-rendering="crispEdges" fill="rgb(164, 213, 238)"  x="27" y="28" width="1" height="1" /><rect shape-rendering="crispEdges" fill="rgb(115, 156, 180)"  x="27" y="29" width="1" height="1" /><rect shape-rendering="crispEdges" fill="rgb(197, 189, 246)"  x="28" y="20" width="1" height="1" /><rect shape-rendering="crispEdges" fill="rgb(139, 123, 213)"  x="28" y="21" width="1" height="1" /><rect shape-rendering="crispEdges" fill="rgb(139, 123, 213)"  x="28" y="22" width="1" height="1" /><rect shape-rendering="crispEdges" fill="rgb(197, 189, 246)"  x="28" y="23" width="1" height="1" /><rect shape-rendering="crispEdges" fill="rgb(246, 123, 205)"  x="28" y="24" width="1" height="1" /><rect shape-rendering="crispEdges" fill="rgb(197, 213, 255)"  x="28" y="25" width="1" height="1" /><rect shape-rendering="crispEdges" fill="rgb(115, 156, 180)"  x="28" y="26" width="1" height="1" /><rect shape-rendering="crispEdges" fill="rgb(115, 156, 180)"  x="28" y="27" width="1" height="1" /><rect shape-rendering="crispEdges" fill="rgb(115, 156, 180)"  x="28" y="28" width="1" height="1" /><rect shape-rendering="crispEdges" fill="rgb(197, 189, 246)"  x="29" y="21" width="1" height="1" /><rect shape-rendering="crispEdges" fill="rgb(197, 189, 246)"  x="29" y="22" width="1" height="1" /><rect shape-rendering="crispEdges" fill="rgb(246, 123, 205)"  x="29" y="23" width="1" height="1" /><rect shape-rendering="crispEdges" fill="rgb(164, 213, 238)"  x="29" y="24" width="1" height="1" /><rect shape-rendering="crispEdges" fill="rgb(255, 255, 255)"  x="29" y="25" width="1" height="1" /><rect shape-rendering="crispEdges" fill="rgb(255, 255, 255)"  x="29" y="26" width="1" height="1" /><rect shape-rendering="crispEdges" fill="rgb(115, 156, 180)"  x="29" y="27" width="1" height="1" /><rect shape-rendering="crispEdges" fill="rgb(222, 139, 205)"  x="30" y="22" width="1" height="1" /><rect shape-rendering="crispEdges" fill="rgb(164, 205, 222)"  x="30" y="23" width="1" height="1" /><rect shape-rendering="crispEdges" fill="rgb(164, 205, 222)"  x="30" y="24" width="1" height="1" /><rect shape-rendering="crispEdges" fill="rgb(164, 205, 222)"  x="30" y="25" width="1" height="1" /><rect shape-rendering="crispEdges" fill="rgb(115, 156, 180)"  x="30" y="26" width="1" height="1" /></svg>