<svg xmlns="http://www.w3.org/2000/svg" xmlns:xlink= "http://www.w3.org/1999/xlink" width="32" height="32" viewBox ="0 0 32 32"><rect shape-rendering="crispEdges" fill="rgb(189, 90, 98)"  x="1" y="9" width="1" height="1" /><rect shape-rendering="crispEdges" fill="rgb(205, 90, 98)"  x="1" y="10" width="1" height="1" /><rect shape-rendering="crispEdges" fill="rgb(246, 197, 164)"  x="2" y="2" width="1" height="1" /><rect shape-rendering="crispEdges" fill="rgb(246, 213, 172)"  x="2" y="3" width="1" height="1" /><rect shape-rendering="crispEdges" fill="rgb(246, 205, 172)"  x="2" y="4" width="1" height="1" /><rect shape-rendering="crispEdges" fill="rgb(246, 205, 164)"  x="2" y="5" width="1" height="1" /><rect shape-rendering="crispEdges" fill="rgb(246, 197, 164)"  x="2" y="6" width="1" height="1" /><rect shape-rendering="crispEdges" fill="rgb(246, 172, 139)"  x="2" y="7" width="1" height="1" /><rect shape-rendering="crispEdges" fill="rgb(189, 90, 90)"  x="2" y="8" width="1" height="1" /><rect shape-rendering="crispEdges" fill="rgb(57, 82, 115)"  x="2" y="9" width="1" height="1" /><rect shape-rendering="crispEdges" fill="rgb(222, 106, 115)"  x="2" y="10" width="1" height="1" /><rect shape-rendering="crispEdges" fill="rgb(255, 238, 197)"  x="3" y="2" width="1" height="1" /><rect shape-rendering="crispEdges" fill="rgb(255, 246, 213)"  x="3" y="3" width="1" height="1" /><rect shape-rendering="crispEdges" fill="rgb(246, 189, 164)"  x="3" y="4" width="1" height="1" /><rect shape-rendering="crispEdges" fill="rgb(246, 189, 156)"  x="3" y="5" width="1" height="1" /><rect shape-rendering="crispEdges" fill="rgb(246, 172, 139)"  x="3" y="6" width="1" height="1" /><rect shape-rendering="crispEdges" fill="rgb(197, 90, 98)"  x="3" y="7" width="1" height="1" /><rect shape-rendering="crispEdges" fill="rgb(57, 82, 115)"  x="3" y="8" width="1" height="1" /><rect shape-rendering="crispEdges" fill="rgb(57, 82, 115)"  x="3" y="9" width="1" height="1" /><rect shape-rendering="crispEdges" fill="rgb(238, 115, 115)"  x="3" y="10" width="1" height="1" /><rect shape-rendering="crispEdges" fill="rgb(255, 238, 197)"  x="4" y="2" width="1" height="1" /><rect shape-rendering="crispEdges" fill="rgb(246, 197, 164)"  x="4" y="3" width="1" height="1" /><rect shape-rendering="crispEdges" fill="rgb(255, 246, 213)"  x="4" y="4" width="1" height="1" /><rect shape-rendering="crispEdges" fill="rgb(246, 172, 139)"  x="4" y="5" width="1" height="1" /><rect shape-rendering="crispEdges" fill="rgb(90, 115, 148)"  x="4" y="6" width="1" height="1" /><rect shape-rendering="crispEdges" fill="rgb(205, 98, 106)"  x="4" y="7" width="1" height="1" /><rect shape-rendering="crispEdges" fill="rgb(115, 139, 180)"  x="4" y="8" width="1" height="1" /><rect shape-rendering="crispEdges" fill="rgb(57, 82, 115)"  x="4" y="9" width="1" height="1" /><rect shape-rendering="crispEdges" fill="rgb(246, 123, 123)"  x="4" y="10" width="1" height="1" /><rect shape-rendering="crispEdges" fill="rgb(255, 238, 197)"  x="5" y="2" width="1" height="1" /><rect shape-rendering="crispEdges" fill="rgb(246, 189, 156)"  x="5" y="3" width="1" height="1" /><rect shape-rendering="crispEdges" fill="rgb(246, 172, 139)"  x="5" y="4" width="1" height="1" /><rect shape-rendering="crispEdges" fill="rgb(189, 90, 90)"  x="5" y="5" width="1" height="1" /><rect shape-rendering="crispEdges" fill="rgb(115, 139, 180)"  x="5" y="6" width="1" height="1" /><rect shape-rendering="crispEdges" fill="rgb(230, 106, 115)"  x="5" y="7" width="1" height="1" /><rect shape-rendering="crispEdges" fill="rgb(246, 115, 123)"  x="5" y="8" width="1" height="1" /><rect shape-rendering="crispEdges" fill="rgb(57, 82, 115)"  x="5" y="9" width="1" height="1" /><rect shape-rendering="crispEdges" fill="rgb(213, 131, 98)"  x="5" y="10" width="1" height="1" /><rect shape-rendering="crispEdges" fill="rgb(255, 238, 197)"  x="6" y="2" width="1" height="1" /><rect shape-rendering="crispEdges" fill="rgb(246, 189, 156)"  x="6" y="3" width="1" height="1" /><rect shape-rendering="crispEdges" fill="rgb(139, 164, 197)"  x="6" y="4" width="1" height="1" /><rect shape-rendering="crispEdges" fill="rgb(139, 164, 197)"  x="6" y="5" width="1" height="1" /><rect shape-rendering="crispEdges" fill="rgb(115, 139, 180)"  x="6" y="6" width="1" height="1" /><rect shape-rendering="crispEdges" fill="rgb(238, 115, 115)"  x="6" y="7" width="1" height="1" /><rect shape-rendering="crispEdges" fill="rgb(57, 82, 115)"  x="6" y="8" width="1" height="1" /><rect shape-rendering="crispEdges" fill="rgb(213, 131, 98)"  x="6" y="9" width="1" height="1" /><rect shape-rendering="crispEdges" fill="rgb(246, 205, 172)"  x="6" y="10" width="1" height="1" /><rect shape-rendering="crispEdges" fill="rgb(213, 131, 98)"  x="6" y="11" width="1" height="1" /><rect shape-rendering="crispEdges" fill="rgb(255, 238, 197)"  x="7" y="2" width="1" height="1" /><rect shape-rendering="crispEdges" fill="rgb(189, 82, 90)"  x="7" y="3" width="1" height="1" /><rect shape-rendering="crispEdges" fill="rgb(205, 90, 98)"  x="7" y="4" width="1" height="1" /><rect shape-rendering="crispEdges" fill="rgb(222, 106, 115)"  x="7" y="5" width="1" height="1" /><rect shape-rendering="crispEdges" fill="rgb(238, 115, 115)"  x="7" y="6" width="1" height="1" /><rect shape-rendering="crispEdges" fill="rgb(90, 115, 148)"  x="7" y="7" width="1" height="1" /><rect shape-rendering="crispEdges" fill="rgb(246, 172, 148)"  x="7" y="8" width="1" height="1" /><rect shape-rendering="crispEdges" fill="rgb(246, 189, 156)"  x="7" y="9" width="1" height="1" /><rect shape-rendering="crispEdges" fill="rgb(246, 205, 164)"  x="7" y="10" width="1" height="1" /><rect shape-rendering="crispEdges" fill="rgb(213, 131, 98)"  x="7" y="11" width="1" height="1" /><rect shape-rendering="crispEdges" fill="rgb(57, 82, 115)"  x="7" y="12" width="1" height="1" /><rect shape-rendering="crispEdges" fill="rgb(57, 82, 115)"  x="7" y="13" width="1" height="1" /><rect shape-rendering="crispEdges" fill="rgb(189, 82, 90)"  x="8" y="2" width="1" height="1" /><rect shape-rendering="crispEdges" fill="rgb(139, 164, 197)"  x="8" y="3" width="1" height="1" /><rect shape-rendering="crispEdges" fill="rgb(115, 139, 180)"  x="8" y="4" width="1" height="1" /><rect shape-rendering="crispEdges" fill="rgb(238, 115, 115)"  x="8" y="5" width="1" height="1" /><rect shape-rendering="crispEdges" fill="rgb(90, 115, 148)"  x="8" y="6" width="1" height="1" /><rect shape-rendering="crispEdges" fill="rgb(246, 172, 148)"  x="8" y="7" width="1" height="1" /><rect shape-rendering="crispEdges" fill="rgb(255, 246, 213)"  x="8" y="8" width="1" height="1" /><rect shape-rendering="crispEdges" fill="rgb(213, 131, 98)"  x="8" y="9" width="1" height="1" /><rect shape-rendering="crispEdges" fill="rgb(213, 131, 98)"  x="8" y="10" width="1" height="1" /><rect shape-rendering="crispEdges" fill="rgb(213, 131, 98)"  x="8" y="11" width="1" height="1" /><rect shape-rendering="crispEdges" fill="rgb(57, 82, 115)"  x="8" y="12" width="1" height="1" /><rect shape-rendering="crispEdges" fill="rgb(57, 82, 115)"  x="8" y="13" width="1" height="1" /><rect shape-rendering="crispEdges" fill="rgb(189, 82, 90)"  x="9" y="1" width="1" height="1" /><rect shape-rendering="crispEdges" fill="rgb(189, 205, 238)"  x="9" y="2" width="1" height="1" /><rect shape-rendering="crispEdges" fill="rgb(115, 139, 180)"  x="9" y="3" width="1" height="1" /><rect shape-rendering="crispEdges" fill="rgb(115, 139, 180)"  x="9" y="4" width="1" height="1" /><rect shape-rendering="crispEdges" fill="rgb(90, 115, 148)"  x="9" y="5" width="1" height="1" /><rect shape-rendering="crispEdges" fill="rgb(246, 172, 148)"  x="9" y="6" width="1" height="1" /><rect shape-rendering="crispEdges" fill="rgb(246, 189, 156)"  x="9" y="7" width="1" height="1" /><rect shape-rendering="crispEdges" fill="rgb(213, 131, 98)"  x="9" y="8" width="1" height="1" /><rect shape-rendering="crispEdges" fill="rgb(189, 205, 238)"  x="9" y="9" width="1" height="1" /><rect shape-rendering="crispEdges" fill="rgb(90, 115, 148)"  x="9" y="10" width="1" height="1" /><rect shape-rendering="crispEdges" fill="rgb(90, 115, 148)"  x="9" y="11" width="1" height="1" /><rect shape-rendering="crispEdges" fill="rgb(57, 82, 115)"  x="9" y="12" width="1" height="1" /><rect shape-rendering="crispEdges" fill="rgb(189, 90, 90)"  x="9" y="13" width="1" height="1" /><rect shape-rendering="crispEdges" fill="rgb(205, 90, 98)"  x="10" y="1" width="1" height="1" /><rect shape-rendering="crispEdges" fill="rgb(222, 106, 106)"  x="10" y="2" width="1" height="1" /><rect shape-rendering="crispEdges" fill="rgb(238, 115, 115)"  x="10" y="3" width="1" height="1" /><rect shape-rendering="crispEdges" fill="rgb(246, 123, 123)"  x="10" y="4" width="1" height="1" /><rect shape-rendering="crispEdges" fill="rgb(255, 238, 197)"  x="10" y="5" width="1" height="1" /><rect shape-rendering="crispEdges" fill="rgb(255, 246, 213)"  x="10" y="6" width="1" height="1" /><rect shape-rendering="crispEdges" fill="rgb(246, 205, 172)"  x="10" y="7" width="1" height="1" /><rect shape-rendering="crispEdges" fill="rgb(213, 131, 98)"  x="10" y="8" width="1" height="1" /><rect shape-rendering="crispEdges" fill="rgb(139, 164, 197)"  x="10" y="9" width="1" height="1" /><rect shape-rendering="crispEdges" fill="rgb(115, 139, 180)"  x="10" y="10" width="1" height="1" /><rect shape-rendering="crispEdges" fill="rgb(57, 82, 115)"  x="10" y="11" width="1" height="1" /><rect shape-rendering="crispEdges" fill="rgb(189, 90, 90)"  x="10" y="12" width="1" height="1" /><rect shape-rendering="crispEdges" fill="rgb(189, 90, 90)"  x="10" y="13" width="1" height="1" /><rect shape-rendering="crispEdges" fill="rgb(246, 172, 139)"  x="10" y="14" width="1" height="1" /><rect shape-rendering="crispEdges" fill="rgb(246, 172, 148)"  x="11" y="6" width="1" height="1" /><rect shape-rendering="crispEdges" fill="rgb(255, 238, 197)"  x="11" y="7" width="1" height="1" /><rect shape-rendering="crispEdges" fill="rgb(213, 131, 98)"  x="11" y="8" width="1" height="1" /><rect shape-rendering="crispEdges" fill="rgb(115, 139, 180)"  x="11" y="9" width="1" height="1" /><rect shape-rendering="crispEdges" fill="rgb(57, 82, 115)"  x="11" y="10" width="1" height="1" /><rect shape-rendering="crispEdges" fill="rgb(189, 90, 90)"  x="11" y="11" width="1" height="1" /><rect shape-rendering="crispEdges" fill="rgb(222, 115, 123)"  x="11" y="12" width="1" height="1" /><rect shape-rendering="crispEdges" fill="rgb(246, 172, 139)"  x="11" y="13" width="1" height="1" /><rect shape-rendering="crispEdges" fill="rgb(90, 115, 156)"  x="11" y="14" width="1" height="1" /><rect shape-rendering="crispEdges" fill="rgb(90, 115, 156)"  x="11" y="15" width="1" height="1" /><rect shape-rendering="crispEdges" fill="rgb(189, 205, 238)"  x="12" y="7" width="1" height="1" /><rect shape-rendering="crispEdges" fill="rgb(115, 139, 180)"  x="12" y="8" width="1" height="1" /><rect shape-rendering="crispEdges" fill="rgb(90, 115, 148)"  x="12" y="9" width="1" height="1" /><rect shape-rendering="crispEdges" fill="rgb(189, 90, 90)"  x="12" y="10" width="1" height="1" /><rect shape-rendering="crispEdges" fill="rgb(222, 115, 123)"  x="12" y="11" width="1" height="1" /><rect shape-rendering="crispEdges" fill="rgb(246, 172, 139)"  x="12" y="12" width="1" height="1" /><rect shape-rendering="crispEdges" fill="rgb(115, 139, 180)"  x="12" y="13" width="1" height="1" /><rect shape-rendering="crispEdges" fill="rgb(90, 115, 156)"  x="12" y="14" width="1" height="1" /><rect shape-rendering="crispEdges" fill="rgb(115, 139, 180)"  x="13" y="7" width="1" height="1" /><rect shape-rendering="crispEdges" fill="rgb(90, 115, 148)"  x="13" y="8" width="1" height="1" /><rect shape-rendering="crispEdges" fill="rgb(189, 90, 90)"  x="13" y="9" width="1" height="1" /><rect shape-rendering="crispEdges" fill="rgb(222, 115, 123)"  x="13" y="10" width="1" height="1" /><rect shape-rendering="crispEdges" fill="rgb(246, 172, 148)"  x="13" y="11" width="1" height="1" /><rect shape-rendering="crispEdges" fill="rgb(189, 205, 238)"  x="13" y="12" width="1" height="1" /><rect shape-rendering="crispEdges" fill="rgb(90, 115, 156)"  x="13" y="13" width="1" height="1" /><rect shape-rendering="crispEdges" fill="rgb(246, 213, 180)"  x="13" y="14" width="1" height="1" /><rect shape-rendering="crispEdges" fill="rgb(41, 74, 106)"  x="13" y="15" width="1" height="1" /><rect shape-rendering="crispEdges" fill="rgb(255, 213, 164)"  x="14" y="10" width="1" height="1" /><rect shape-rendering="crispEdges" fill="rgb(189, 205, 238)"  x="14" y="11" width="1" height="1" /><rect shape-rendering="crispEdges" fill="rgb(90, 115, 156)"  x="14" y="12" width="1" height="1" /><rect shape-rendering="crispEdges" fill="rgb(246, 213, 180)"  x="14" y="13" width="1" height="1" /><rect shape-rendering="crispEdges" fill="rgb(131, 164, 222)"  x="14" y="14" width="1" height="1" /><rect shape-rendering="crispEdges" fill="rgb(90, 123, 164)"  x="14" y="15" width="1" height="1" /><rect shape-rendering="crispEdges" fill="rgb(41, 74, 106)"  x="14" y="16" width="1" height="1" /><rect shape-rendering="crispEdges" fill="rgb(90, 115, 156)"  x="15" y="11" width="1" height="1" /><rect shape-rendering="crispEdges" fill="rgb(106, 139, 197)"  x="15" y="13" width="1" height="1" /><rect shape-rendering="crispEdges" fill="rgb(90, 123, 164)"  x="15" y="14" width="1" height="1" /><rect shape-rendering="crispEdges" fill="rgb(131, 164, 222)"  x="15" y="15" width="1" height="1" /><rect shape-rendering="crispEdges" fill="rgb(90, 123, 164)"  x="15" y="16" width="1" height="1" /><rect shape-rendering="crispEdges" fill="rgb(41, 74, 106)"  x="15" y="17" width="1" height="1" /><rect shape-rendering="crispEdges" fill="rgb(106, 139, 197)"  x="16" y="14" width="1" height="1" /><rect shape-rendering="crispEdges" fill="rgb(90, 123, 164)"  x="16" y="15" width="1" height="1" /><rect shape-rendering="crispEdges" fill="rgb(131, 164, 222)"  x="16" y="16" width="1" height="1" /><rect shape-rendering="crispEdges" fill="rgb(90, 123, 164)"  x="16" y="17" width="1" height="1" /><rect shape-rendering="crispEdges" fill="rgb(41, 74, 106)"  x="16" y="18" width="1" height="1" /><rect shape-rendering="crispEdges" fill="rgb(90, 115, 156)"  x="16" y="20" width="1" height="1" /><rect shape-rendering="crispEdges" fill="rgb(106, 139, 197)"  x="17" y="15" width="1" height="1" /><rect shape-rendering="crispEdges" fill="rgb(90, 123, 164)"  x="17" y="16" width="1" height="1" /><rect shape-rendering="crispEdges" fill="rgb(131, 164, 222)"  x="17" y="17" width="1" height="1" /><rect shape-rendering="crispEdges" fill="rgb(246, 213, 180)"  x="17" y="18" width="1" height="1" /><rect shape-rendering="crispEdges" fill="rgb(115, 139, 180)"  x="17" y="19" width="1" height="1" /><rect shape-rendering="crispEdges" fill="rgb(90, 115, 156)"  x="17" y="20" width="1" height="1" /><rect shape-rendering="crispEdges" fill="rgb(246, 172, 139)"  x="17" y="21" width="1" height="1" /><rect shape-rendering="crispEdges" fill="rgb(106, 139, 197)"  x="18" y="16" width="1" height="1" /><rect shape-rendering="crispEdges" fill="rgb(246, 213, 180)"  x="18" y="17" width="1" height="1" /><rect shape-rendering="crispEdges" fill="rgb(115, 139, 180)"  x="18" y="18" width="1" height="1" /><rect shape-rendering="crispEdges" fill="rgb(115, 139, 180)"  x="18" y="19" width="1" height="1" /><rect shape-rendering="crispEdges" fill="rgb(246, 172, 139)"  x="18" y="20" width="1" height="1" /><rect shape-rendering="crispEdges" fill="rgb(189, 90, 90)"  x="18" y="21" width="1" height="1" /><rect shape-rendering="crispEdges" fill="rgb(189, 90, 90)"  x="18" y="22" width="1" height="1" /><rect shape-rendering="crispEdges" fill="rgb(57, 82, 115)"  x="18" y="23" width="1" height="1" /><rect shape-rendering="crispEdges" fill="rgb(57, 82, 115)"  x="18" y="24" width="1" height="1" /><rect shape-rendering="crispEdges" fill="rgb(189, 205, 238)"  x="19" y="17" width="1" height="1" /><rect shape-rendering="crispEdges" fill="rgb(90, 115, 156)"  x="19" y="18" width="1" height="1" /><rect shape-rendering="crispEdges" fill="rgb(246, 172, 139)"  x="19" y="19" width="1" height="1" /><rect shape-rendering="crispEdges" fill="rgb(222, 115, 123)"  x="19" y="20" width="1" height="1" /><rect shape-rendering="crispEdges" fill="rgb(189, 90, 90)"  x="19" y="21" width="1" height="1" /><rect shape-rendering="crispEdges" fill="rgb(90, 115, 148)"  x="19" y="22" width="1" height="1" /><rect shape-rendering="crispEdges" fill="rgb(57, 82, 115)"  x="19" y="23" width="1" height="1" /><rect shape-rendering="crispEdges" fill="rgb(57, 82, 115)"  x="19" y="24" width="1" height="1" /><rect shape-rendering="crispEdges" fill="rgb(189, 205, 238)"  x="20" y="16" width="1" height="1" /><rect shape-rendering="crispEdges" fill="rgb(90, 115, 156)"  x="20" y="17" width="1" height="1" /><rect shape-rendering="crispEdges" fill="rgb(246, 172, 148)"  x="20" y="18" width="1" height="1" /><rect shape-rendering="crispEdges" fill="rgb(222, 115, 123)"  x="20" y="19" width="1" height="1" /><rect shape-rendering="crispEdges" fill="rgb(189, 90, 90)"  x="20" y="20" width="1" height="1" /><rect shape-rendering="crispEdges" fill="rgb(90, 115, 148)"  x="20" y="21" width="1" height="1" /><rect shape-rendering="crispEdges" fill="rgb(90, 115, 148)"  x="20" y="22" width="1" height="1" /><rect shape-rendering="crispEdges" fill="rgb(255, 238, 197)"  x="20" y="23" width="1" height="1" /><rect shape-rendering="crispEdges" fill="rgb(246, 172, 148)"  x="20" y="24" width="1" height="1" /><rect shape-rendering="crispEdges" fill="rgb(246, 172, 148)"  x="20" y="25" width="1" height="1" /><rect shape-rendering="crispEdges" fill="rgb(255, 213, 164)"  x="21" y="17" width="1" height="1" /><rect shape-rendering="crispEdges" fill="rgb(222, 115, 123)"  x="21" y="18" width="1" height="1" /><rect shape-rendering="crispEdges" fill="rgb(189, 90, 90)"  x="21" y="19" width="1" height="1" /><rect shape-rendering="crispEdges" fill="rgb(115, 139, 180)"  x="21" y="20" width="1" height="1" /><rect shape-rendering="crispEdges" fill="rgb(115, 139, 180)"  x="21" y="21" width="1" height="1" /><rect shape-rendering="crispEdges" fill="rgb(90, 115, 148)"  x="21" y="22" width="1" height="1" /><rect shape-rendering="crispEdges" fill="rgb(255, 238, 197)"  x="21" y="23" width="1" height="1" /><rect shape-rendering="crispEdges" fill="rgb(246, 172, 148)"  x="21" y="24" width="1" height="1" /><rect shape-rendering="crispEdges" fill="rgb(246, 205, 172)"  x="21" y="25" width="1" height="1" /><rect shape-rendering="crispEdges" fill="rgb(213, 131, 98)"  x="21" y="26" width="1" height="1" /><rect shape-rendering="crispEdges" fill="rgb(246, 123, 123)"  x="21" y="27" width="1" height="1" /><rect shape-rendering="crispEdges" fill="rgb(238, 115, 115)"  x="21" y="28" width="1" height="1" /><rect shape-rendering="crispEdges" fill="rgb(222, 106, 115)"  x="21" y="29" width="1" height="1" /><rect shape-rendering="crispEdges" fill="rgb(205, 90, 98)"  x="21" y="30" width="1" height="1" /><rect shape-rendering="crispEdges" fill="rgb(189, 90, 90)"  x="22" y="18" width="1" height="1" /><rect shape-rendering="crispEdges" fill="rgb(189, 205, 238)"  x="22" y="19" width="1" height="1" /><rect shape-rendering="crispEdges" fill="rgb(115, 139, 180)"  x="22" y="20" width="1" height="1" /><rect shape-rendering="crispEdges" fill="rgb(57, 82, 115)"  x="22" y="21" width="1" height="1" /><rect shape-rendering="crispEdges" fill="rgb(57, 82, 115)"  x="22" y="22" width="1" height="1" /><rect shape-rendering="crispEdges" fill="rgb(246, 189, 156)"  x="22" y="23" width="1" height="1" /><rect shape-rendering="crispEdges" fill="rgb(246, 189, 156)"  x="22" y="24" width="1" height="1" /><rect shape-rendering="crispEdges" fill="rgb(255, 238, 197)"  x="22" y="25" width="1" height="1" /><rect shape-rendering="crispEdges" fill="rgb(57, 82, 115)"  x="22" y="26" width="1" height="1" /><rect shape-rendering="crispEdges" fill="rgb(57, 82, 115)"  x="22" y="27" width="1" height="1" /><rect shape-rendering="crispEdges" fill="rgb(57, 82, 115)"  x="22" y="28" width="1" height="1" /><rect shape-rendering="crispEdges" fill="rgb(57, 82, 115)"  x="22" y="29" width="1" height="1" /><rect shape-rendering="crispEdges" fill="rgb(189, 90, 98)"  x="22" y="30" width="1" height="1" /><rect shape-rendering="crispEdges" fill="rgb(189, 205, 238)"  x="23" y="18" width="1" height="1" /><rect shape-rendering="crispEdges" fill="rgb(57, 82, 115)"  x="23" y="19" width="1" height="1" /><rect shape-rendering="crispEdges" fill="rgb(255, 238, 197)"  x="23" y="20" width="1" height="1" /><rect shape-rendering="crispEdges" fill="rgb(255, 238, 197)"  x="23" y="21" width="1" height="1" /><rect shape-rendering="crispEdges" fill="rgb(255, 238, 197)"  x="23" y="22" width="1" height="1" /><rect shape-rendering="crispEdges" fill="rgb(246, 189, 156)"  x="23" y="23" width="1" height="1" /><rect shape-rendering="crispEdges" fill="rgb(255, 238, 197)"  x="23" y="24" width="1" height="1" /><rect shape-rendering="crispEdges" fill="rgb(57, 82, 115)"  x="23" y="25" width="1" height="1" /><rect shape-rendering="crispEdges" fill="rgb(246, 115, 123)"  x="23" y="26" width="1" height="1" /><rect shape-rendering="crispEdges" fill="rgb(115, 139, 180)"  x="23" y="27" width="1" height="1" /><rect shape-rendering="crispEdges" fill="rgb(57, 82, 115)"  x="23" y="28" width="1" height="1" /><rect shape-rendering="crispEdges" fill="rgb(189, 90, 90)"  x="23" y="29" width="1" height="1" /><rect shape-rendering="crispEdges" fill="rgb(115, 139, 180)"  x="24" y="18" width="1" height="1" /><rect shape-rendering="crispEdges" fill="rgb(57, 82, 115)"  x="24" y="19" width="1" height="1" /><rect shape-rendering="crispEdges" fill="rgb(255, 238, 197)"  x="24" y="20" width="1" height="1" /><rect shape-rendering="crispEdges" fill="rgb(246, 205, 172)"  x="24" y="21" width="1" height="1" /><rect shape-rendering="crispEdges" fill="rgb(246, 189, 156)"  x="24" y="22" width="1" height="1" /><rect shape-rendering="crispEdges" fill="rgb(246, 172, 148)"  x="24" y="23" width="1" height="1" /><rect shape-rendering="crispEdges" fill="rgb(90, 115, 148)"  x="24" y="24" width="1" height="1" /><rect shape-rendering="crispEdges" fill="rgb(238, 115, 115)"  x="24" y="25" width="1" height="1" /><rect shape-rendering="crispEdges" fill="rgb(230, 106, 115)"  x="24" y="26" width="1" height="1" /><rect shape-rendering="crispEdges" fill="rgb(205, 98, 106)"  x="24" y="27" width="1" height="1" /><rect shape-rendering="crispEdges" fill="rgb(197, 90, 98)"  x="24" y="28" width="1" height="1" /><rect shape-rendering="crispEdges" fill="rgb(213, 131, 98)"  x="24" y="29" width="1" height="1" /><rect shape-rendering="crispEdges" fill="rgb(255, 238, 197)"  x="25" y="20" width="1" height="1" /><rect shape-rendering="crispEdges" fill="rgb(255, 246, 213)"  x="25" y="21" width="1" height="1" /><rect shape-rendering="crispEdges" fill="rgb(246, 172, 148)"  x="25" y="22" width="1" height="1" /><rect shape-rendering="crispEdges" fill="rgb(90, 115, 148)"  x="25" y="23" width="1" height="1" /><rect shape-rendering="crispEdges" fill="rgb(238, 115, 115)"  x="25" y="24" width="1" height="1" /><rect shape-rendering="crispEdges" fill="rgb(115, 139, 180)"  x="25" y="25" width="1" height="1" /><rect shape-rendering="crispEdges" fill="rgb(115, 139, 180)"  x="25" y="26" width="1" height="1" /><rect shape-rendering="crispEdges" fill="rgb(90, 115, 148)"  x="25" y="27" width="1" height="1" /><rect shape-rendering="crispEdges" fill="rgb(213, 131, 98)"  x="25" y="28" width="1" height="1" /><rect shape-rendering="crispEdges" fill="rgb(213, 131, 98)"  x="25" y="29" width="1" height="1" /><rect shape-rendering="crispEdges" fill="rgb(255, 238, 197)"  x="26" y="21" width="1" height="1" /><rect shape-rendering="crispEdges" fill="rgb(90, 115, 148)"  x="26" y="22" width="1" height="1" /><rect shape-rendering="crispEdges" fill="rgb(238, 115, 115)"  x="26" y="23" width="1" height="1" /><rect shape-rendering="crispEdges" fill="rgb(222, 106, 115)"  x="26" y="24" width="1" height="1" /><rect shape-rendering="crispEdges" fill="rgb(139, 164, 197)"  x="26" y="25" width="1" height="1" /><rect shape-rendering="crispEdges" fill="rgb(189, 90, 90)"  x="26" y="26" width="1" height="1" /><rect shape-rendering="crispEdges" fill="rgb(213, 131, 98)"  x="26" y="27" width="1" height="1" /><rect shape-rendering="crispEdges" fill="rgb(246, 189, 156)"  x="26" y="28" width="1" height="1" /><rect shape-rendering="crispEdges" fill="rgb(213, 131, 98)"  x="26" y="29" width="1" height="1" /><rect shape-rendering="crispEdges" fill="rgb(246, 123, 123)"  x="27" y="21" width="1" height="1" /><rect shape-rendering="crispEdges" fill="rgb(115, 139, 180)"  x="27" y="22" width="1" height="1" /><rect shape-rendering="crispEdges" fill="rgb(115, 139, 180)"  x="27" y="23" width="1" height="1" /><rect shape-rendering="crispEdges" fill="rgb(205, 90, 98)"  x="27" y="24" width="1" height="1" /><rect shape-rendering="crispEdges" fill="rgb(139, 164, 197)"  x="27" y="25" width="1" height="1" /><rect shape-rendering="crispEdges" fill="rgb(213, 131, 98)"  x="27" y="26" width="1" height="1" /><rect shape-rendering="crispEdges" fill="rgb(255, 246, 213)"  x="27" y="27" width="1" height="1" /><rect shape-rendering="crispEdges" fill="rgb(246, 189, 164)"  x="27" y="28" width="1" height="1" /><rect shape-rendering="crispEdges" fill="rgb(213, 131, 98)"  x="27" y="29" width="1" height="1" /><rect shape-rendering="crispEdges" fill="rgb(238, 115, 115)"  x="28" y="21" width="1" height="1" /><rect shape-rendering="crispEdges" fill="rgb(115, 139, 180)"  x="28" y="22" width="1" height="1" /><rect shape-rendering="crispEdges" fill="rgb(139, 164, 197)"  x="28" y="23" width="1" height="1" /><rect shape-rendering="crispEdges" fill="rgb(189, 82, 90)"  x="28" y="24" width="1" height="1" /><rect shape-rendering="crispEdges" fill="rgb(213, 131, 98)"  x="28" y="25" width="1" height="1" /><rect shape-rendering="crispEdges" fill="rgb(246, 189, 156)"  x="28" y="26" width="1" height="1" /><rect shape-rendering="crispEdges" fill="rgb(246, 197, 164)"  x="28" y="27" width="1" height="1" /><rect shape-rendering="crispEdges" fill="rgb(255, 246, 213)"  x="28" y="28" width="1" height="1" /><rect shape-rendering="crispEdges" fill="rgb(213, 131, 98)"  x="28" y="29" width="1" height="1" /><rect shape-rendering="crispEdges" fill="rgb(222, 106, 106)"  x="29" y="21" width="1" height="1" /><rect shape-rendering="crispEdges" fill="rgb(189, 205, 238)"  x="29" y="22" width="1" height="1" /><rect shape-rendering="crispEdges" fill="rgb(189, 82, 90)"  x="29" y="23" width="1" height="1" /><rect shape-rendering="crispEdges" fill="rgb(213, 131, 98)"  x="29" y="24" width="1" height="1" /><rect shape-rendering="crispEdges" fill="rgb(246, 189, 156)"  x="29" y="25" width="1" height="1" /><rect shape-rendering="crispEdges" fill="rgb(246, 172, 139)"  x="29" y="26" width="1" height="1" /><rect shape-rendering="crispEdges" fill="rgb(246, 172, 139)"  x="29" y="27" width="1" height="1" /><rect shape-rendering="crispEdges" fill="rgb(213, 131, 98)"  x="29" y="28" width="1" height="1" /><rect shape-rendering="crispEdges" fill="rgb(213, 131, 98)"  x="29" y="29" width="1" height="1" /><rect shape-rendering="crispEdges" fill="rgb(205, 90, 98)"  x="30" y="21" width="1" height="1" /><rect shape-rendering="crispEdges" fill="rgb(189, 82, 90)"  x="30" y="22" width="1" height="1" /></svg>