<svg xmlns="http://www.w3.org/2000/svg" xmlns:xlink= "http://www.w3.org/1999/xlink" width="32" height="32" viewBox ="0 0 32 32"><rect shape-rendering="crispEdges" fill="rgb(230, 65, 57)"  x="0" y="2" width="1" height="1" /><rect shape-rendering="crispEdges" fill="rgb(230, 65, 57)"  x="0" y="3" width="1" height="1" /><rect shape-rendering="crispEdges" fill="rgb(238, 98, 90)"  x="0" y="4" width="1" height="1" /><rect shape-rendering="crispEdges" fill="rgb(246, 148, 123)"  x="1" y="1" width="1" height="1" /><rect shape-rendering="crispEdges" fill="rgb(255, 255, 123)"  x="1" y="2" width="1" height="1" /><rect shape-rendering="crispEdges" fill="rgb(255, 189, 164)"  x="1" y="3" width="1" height="1" /><rect shape-rendering="crispEdges" fill="rgb(213, 32, 24)"  x="1" y="4" width="1" height="1" /><rect shape-rendering="crispEdges" fill="rgb(238, 98, 90)"  x="1" y="5" width="1" height="1" /><rect shape-rendering="crispEdges" fill="rgb(238, 98, 90)"  x="1" y="6" width="1" height="1" /><rect shape-rendering="crispEdges" fill="rgb(230, 65, 57)"  x="1" y="7" width="1" height="1" /><rect shape-rendering="crispEdges" fill="rgb(213, 32, 24)"  x="1" y="8" width="1" height="1" /><rect shape-rendering="crispEdges" fill="rgb(131, 82, 115)"  x="1" y="9" width="1" height="1" /><rect shape-rendering="crispEdges" fill="rgb(106, 57, 98)"  x="1" y="10" width="1" height="1" /><rect shape-rendering="crispEdges" fill="rgb(246, 148, 123)"  x="2" y="0" width="1" height="1" /><rect shape-rendering="crispEdges" fill="rgb(255, 255, 123)"  x="2" y="1" width="1" height="1" /><rect shape-rendering="crispEdges" fill="rgb(255, 255, 123)"  x="2" y="2" width="1" height="1" /><rect shape-rendering="crispEdges" fill="rgb(246, 148, 123)"  x="2" y="3" width="1" height="1" /><rect shape-rendering="crispEdges" fill="rgb(172, 24, 16)"  x="2" y="4" width="1" height="1" /><rect shape-rendering="crispEdges" fill="rgb(238, 172, 197)"  x="2" y="5" width="1" height="1" /><rect shape-rendering="crispEdges" fill="rgb(238, 172, 197)"  x="2" y="6" width="1" height="1" /><rect shape-rendering="crispEdges" fill="rgb(238, 172, 197)"  x="2" y="7" width="1" height="1" /><rect shape-rendering="crispEdges" fill="rgb(189, 115, 148)"  x="2" y="8" width="1" height="1" /><rect shape-rendering="crispEdges" fill="rgb(189, 115, 148)"  x="2" y="9" width="1" height="1" /><rect shape-rendering="crispEdges" fill="rgb(164, 98, 131)"  x="2" y="10" width="1" height="1" /><rect shape-rendering="crispEdges" fill="rgb(131, 82, 115)"  x="2" y="11" width="1" height="1" /><rect shape-rendering="crispEdges" fill="rgb(246, 148, 123)"  x="3" y="0" width="1" height="1" /><rect shape-rendering="crispEdges" fill="rgb(255, 255, 123)"  x="3" y="1" width="1" height="1" /><rect shape-rendering="crispEdges" fill="rgb(255, 189, 164)"  x="3" y="2" width="1" height="1" /><rect shape-rendering="crispEdges" fill="rgb(238, 98, 90)"  x="3" y="3" width="1" height="1" /><rect shape-rendering="crispEdges" fill="rgb(172, 24, 16)"  x="3" y="4" width="1" height="1" /><rect shape-rendering="crispEdges" fill="rgb(213, 32, 24)"  x="3" y="5" width="1" height="1" /><rect shape-rendering="crispEdges" fill="rgb(189, 115, 148)"  x="3" y="6" width="1" height="1" /><rect shape-rendering="crispEdges" fill="rgb(164, 98, 131)"  x="3" y="7" width="1" height="1" /><rect shape-rendering="crispEdges" fill="rgb(255, 205, 123)"  x="3" y="8" width="1" height="1" /><rect shape-rendering="crispEdges" fill="rgb(189, 115, 148)"  x="3" y="9" width="1" height="1" /><rect shape-rendering="crispEdges" fill="rgb(213, 148, 172)"  x="3" y="10" width="1" height="1" /><rect shape-rendering="crispEdges" fill="rgb(189, 115, 148)"  x="3" y="11" width="1" height="1" /><rect shape-rendering="crispEdges" fill="rgb(164, 98, 131)"  x="3" y="12" width="1" height="1" /><rect shape-rendering="crispEdges" fill="rgb(246, 148, 123)"  x="4" y="0" width="1" height="1" /><rect shape-rendering="crispEdges" fill="rgb(246, 148, 123)"  x="4" y="1" width="1" height="1" /><rect shape-rendering="crispEdges" fill="rgb(238, 98, 90)"  x="4" y="2" width="1" height="1" /><rect shape-rendering="crispEdges" fill="rgb(213, 32, 24)"  x="4" y="3" width="1" height="1" /><rect shape-rendering="crispEdges" fill="rgb(213, 32, 24)"  x="4" y="4" width="1" height="1" /><rect shape-rendering="crispEdges" fill="rgb(164, 98, 131)"  x="4" y="7" width="1" height="1" /><rect shape-rendering="crispEdges" fill="rgb(255, 205, 123)"  x="4" y="8" width="1" height="1" /><rect shape-rendering="crispEdges" fill="rgb(189, 115, 148)"  x="4" y="9" width="1" height="1" /><rect shape-rendering="crispEdges" fill="rgb(255, 189, 98)"  x="4" y="10" width="1" height="1" /><rect shape-rendering="crispEdges" fill="rgb(255, 189, 98)"  x="4" y="11" width="1" height="1" /><rect shape-rendering="crispEdges" fill="rgb(131, 82, 115)"  x="4" y="12" width="1" height="1" /><rect shape-rendering="crispEdges" fill="rgb(106, 57, 98)"  x="4" y="13" width="1" height="1" /><rect shape-rendering="crispEdges" fill="rgb(238, 98, 90)"  x="5" y="1" width="1" height="1" /><rect shape-rendering="crispEdges" fill="rgb(238, 172, 197)"  x="5" y="2" width="1" height="1" /><rect shape-rendering="crispEdges" fill="rgb(213, 32, 24)"  x="5" y="3" width="1" height="1" /><rect shape-rendering="crispEdges" fill="rgb(213, 32, 24)"  x="5" y="7" width="1" height="1" /><rect shape-rendering="crispEdges" fill="rgb(164, 98, 131)"  x="5" y="8" width="1" height="1" /><rect shape-rendering="crispEdges" fill="rgb(106, 57, 98)"  x="5" y="9" width="1" height="1" /><rect shape-rendering="crispEdges" fill="rgb(106, 57, 98)"  x="5" y="10" width="1" height="1" /><rect shape-rendering="crispEdges" fill="rgb(106, 57, 98)"  x="5" y="11" width="1" height="1" /><rect shape-rendering="crispEdges" fill="rgb(106, 57, 98)"  x="5" y="12" width="1" height="1" /><rect shape-rendering="crispEdges" fill="rgb(106, 57, 98)"  x="5" y="13" width="1" height="1" /><rect shape-rendering="crispEdges" fill="rgb(106, 57, 98)"  x="5" y="14" width="1" height="1" /><rect shape-rendering="crispEdges" fill="rgb(238, 98, 90)"  x="6" y="1" width="1" height="1" /><rect shape-rendering="crispEdges" fill="rgb(238, 172, 197)"  x="6" y="2" width="1" height="1" /><rect shape-rendering="crispEdges" fill="rgb(189, 115, 148)"  x="6" y="3" width="1" height="1" /><rect shape-rendering="crispEdges" fill="rgb(213, 32, 24)"  x="6" y="6" width="1" height="1" /><rect shape-rendering="crispEdges" fill="rgb(230, 65, 57)"  x="6" y="7" width="1" height="1" /><rect shape-rendering="crispEdges" fill="rgb(172, 24, 16)"  x="6" y="8" width="1" height="1" /><rect shape-rendering="crispEdges" fill="rgb(106, 57, 98)"  x="6" y="9" width="1" height="1" /><rect shape-rendering="crispEdges" fill="rgb(238, 98, 90)"  x="7" y="1" width="1" height="1" /><rect shape-rendering="crispEdges" fill="rgb(238, 172, 197)"  x="7" y="2" width="1" height="1" /><rect shape-rendering="crispEdges" fill="rgb(164, 98, 131)"  x="7" y="3" width="1" height="1" /><rect shape-rendering="crispEdges" fill="rgb(164, 98, 131)"  x="7" y="4" width="1" height="1" /><rect shape-rendering="crispEdges" fill="rgb(213, 32, 24)"  x="7" y="5" width="1" height="1" /><rect shape-rendering="crispEdges" fill="rgb(230, 65, 57)"  x="7" y="6" width="1" height="1" /><rect shape-rendering="crispEdges" fill="rgb(148, 32, 180)"  x="7" y="7" width="1" height="1" /><rect shape-rendering="crispEdges" fill="rgb(148, 32, 180)"  x="7" y="8" width="1" height="1" /><rect shape-rendering="crispEdges" fill="rgb(180, 49, 246)"  x="7" y="9" width="1" height="1" /><rect shape-rendering="crispEdges" fill="rgb(106, 57, 98)"  x="7" y="10" width="1" height="1" /><rect shape-rendering="crispEdges" fill="rgb(230, 65, 57)"  x="8" y="1" width="1" height="1" /><rect shape-rendering="crispEdges" fill="rgb(164, 98, 131)"  x="8" y="2" width="1" height="1" /><rect shape-rendering="crispEdges" fill="rgb(255, 205, 123)"  x="8" y="3" width="1" height="1" /><rect shape-rendering="crispEdges" fill="rgb(255, 205, 123)"  x="8" y="4" width="1" height="1" /><rect shape-rendering="crispEdges" fill="rgb(164, 98, 131)"  x="8" y="5" width="1" height="1" /><rect shape-rendering="crispEdges" fill="rgb(172, 24, 16)"  x="8" y="6" width="1" height="1" /><rect shape-rendering="crispEdges" fill="rgb(148, 32, 180)"  x="8" y="7" width="1" height="1" /><rect shape-rendering="crispEdges" fill="rgb(180, 49, 246)"  x="8" y="8" width="1" height="1" /><rect shape-rendering="crispEdges" fill="rgb(230, 106, 255)"  x="8" y="9" width="1" height="1" /><rect shape-rendering="crispEdges" fill="rgb(180, 49, 246)"  x="8" y="10" width="1" height="1" /><rect shape-rendering="crispEdges" fill="rgb(148, 32, 180)"  x="8" y="11" width="1" height="1" /><rect shape-rendering="crispEdges" fill="rgb(131, 24, 156)"  x="8" y="12" width="1" height="1" /><rect shape-rendering="crispEdges" fill="rgb(131, 24, 156)"  x="8" y="13" width="1" height="1" /><rect shape-rendering="crispEdges" fill="rgb(230, 65, 57)"  x="9" y="1" width="1" height="1" /><rect shape-rendering="crispEdges" fill="rgb(189, 115, 148)"  x="9" y="2" width="1" height="1" /><rect shape-rendering="crispEdges" fill="rgb(189, 115, 148)"  x="9" y="3" width="1" height="1" /><rect shape-rendering="crispEdges" fill="rgb(131, 82, 115)"  x="9" y="4" width="1" height="1" /><rect shape-rendering="crispEdges" fill="rgb(106, 57, 98)"  x="9" y="5" width="1" height="1" /><rect shape-rendering="crispEdges" fill="rgb(106, 57, 98)"  x="9" y="6" width="1" height="1" /><rect shape-rendering="crispEdges" fill="rgb(205, 74, 255)"  x="9" y="7" width="1" height="1" /><rect shape-rendering="crispEdges" fill="rgb(230, 106, 255)"  x="9" y="8" width="1" height="1" /><rect shape-rendering="crispEdges" fill="rgb(255, 205, 255)"  x="9" y="9" width="1" height="1" /><rect shape-rendering="crispEdges" fill="rgb(255, 131, 255)"  x="9" y="10" width="1" height="1" /><rect shape-rendering="crispEdges" fill="rgb(172, 41, 222)"  x="9" y="11" width="1" height="1" /><rect shape-rendering="crispEdges" fill="rgb(255, 131, 255)"  x="9" y="12" width="1" height="1" /><rect shape-rendering="crispEdges" fill="rgb(131, 24, 156)"  x="9" y="13" width="1" height="1" /><rect shape-rendering="crispEdges" fill="rgb(189, 115, 148)"  x="10" y="1" width="1" height="1" /><rect shape-rendering="crispEdges" fill="rgb(213, 148, 172)"  x="10" y="2" width="1" height="1" /><rect shape-rendering="crispEdges" fill="rgb(189, 115, 148)"  x="10" y="3" width="1" height="1" /><rect shape-rendering="crispEdges" fill="rgb(255, 189, 98)"  x="10" y="4" width="1" height="1" /><rect shape-rendering="crispEdges" fill="rgb(106, 57, 98)"  x="10" y="5" width="1" height="1" /><rect shape-rendering="crispEdges" fill="rgb(131, 82, 115)"  x="10" y="7" width="1" height="1" /><rect shape-rendering="crispEdges" fill="rgb(148, 32, 180)"  x="10" y="8" width="1" height="1" /><rect shape-rendering="crispEdges" fill="rgb(172, 41, 222)"  x="10" y="9" width="1" height="1" /><rect shape-rendering="crispEdges" fill="rgb(255, 205, 255)"  x="10" y="10" width="1" height="1" /><rect shape-rendering="crispEdges" fill="rgb(255, 131, 255)"  x="10" y="11" width="1" height="1" /><rect shape-rendering="crispEdges" fill="rgb(205, 74, 255)"  x="10" y="12" width="1" height="1" /><rect shape-rendering="crispEdges" fill="rgb(106, 57, 98)"  x="10" y="13" width="1" height="1" /><rect shape-rendering="crispEdges" fill="rgb(189, 115, 148)"  x="11" y="2" width="1" height="1" /><rect shape-rendering="crispEdges" fill="rgb(213, 148, 172)"  x="11" y="3" width="1" height="1" /><rect shape-rendering="crispEdges" fill="rgb(255, 189, 98)"  x="11" y="4" width="1" height="1" /><rect shape-rendering="crispEdges" fill="rgb(106, 57, 98)"  x="11" y="5" width="1" height="1" /><rect shape-rendering="crispEdges" fill="rgb(180, 49, 246)"  x="11" y="8" width="1" height="1" /><rect shape-rendering="crispEdges" fill="rgb(255, 131, 255)"  x="11" y="9" width="1" height="1" /><rect shape-rendering="crispEdges" fill="rgb(205, 74, 255)"  x="11" y="10" width="1" height="1" /><rect shape-rendering="crispEdges" fill="rgb(255, 164, 255)"  x="11" y="11" width="1" height="1" /><rect shape-rendering="crispEdges" fill="rgb(230, 106, 255)"  x="11" y="12" width="1" height="1" /><rect shape-rendering="crispEdges" fill="rgb(131, 98, 90)"  x="11" y="13" width="1" height="1" /><rect shape-rendering="crispEdges" fill="rgb(90, 57, 65)"  x="11" y="14" width="1" height="1" /><rect shape-rendering="crispEdges" fill="rgb(90, 57, 65)"  x="11" y="15" width="1" height="1" /><rect shape-rendering="crispEdges" fill="rgb(189, 115, 148)"  x="12" y="3" width="1" height="1" /><rect shape-rendering="crispEdges" fill="rgb(164, 98, 131)"  x="12" y="4" width="1" height="1" /><rect shape-rendering="crispEdges" fill="rgb(106, 57, 98)"  x="12" y="5" width="1" height="1" /><rect shape-rendering="crispEdges" fill="rgb(205, 74, 255)"  x="12" y="8" width="1" height="1" /><rect shape-rendering="crispEdges" fill="rgb(255, 131, 255)"  x="12" y="9" width="1" height="1" /><rect shape-rendering="crispEdges" fill="rgb(205, 74, 255)"  x="12" y="10" width="1" height="1" /><rect shape-rendering="crispEdges" fill="rgb(230, 106, 255)"  x="12" y="11" width="1" height="1" /><rect shape-rendering="crispEdges" fill="rgb(90, 57, 65)"  x="12" y="12" width="1" height="1" /><rect shape-rendering="crispEdges" fill="rgb(115, 74, 82)"  x="12" y="13" width="1" height="1" /><rect shape-rendering="crispEdges" fill="rgb(222, 189, 131)"  x="12" y="14" width="1" height="1" /><rect shape-rendering="crispEdges" fill="rgb(90, 57, 65)"  x="12" y="15" width="1" height="1" /><rect shape-rendering="crispEdges" fill="rgb(164, 98, 131)"  x="13" y="4" width="1" height="1" /><rect shape-rendering="crispEdges" fill="rgb(164, 98, 131)"  x="13" y="5" width="1" height="1" /><rect shape-rendering="crispEdges" fill="rgb(230, 106, 255)"  x="13" y="8" width="1" height="1" /><rect shape-rendering="crispEdges" fill="rgb(180, 49, 246)"  x="13" y="9" width="1" height="1" /><rect shape-rendering="crispEdges" fill="rgb(180, 49, 246)"  x="13" y="10" width="1" height="1" /><rect shape-rendering="crispEdges" fill="rgb(90, 57, 65)"  x="13" y="11" width="1" height="1" /><rect shape-rendering="crispEdges" fill="rgb(115, 74, 82)"  x="13" y="12" width="1" height="1" /><rect shape-rendering="crispEdges" fill="rgb(115, 74, 82)"  x="13" y="13" width="1" height="1" /><rect shape-rendering="crispEdges" fill="rgb(90, 57, 65)"  x="13" y="14" width="1" height="1" /><rect shape-rendering="crispEdges" fill="rgb(115, 74, 82)"  x="13" y="15" width="1" height="1" /><rect shape-rendering="crispEdges" fill="rgb(164, 98, 131)"  x="14" y="5" width="1" height="1" /><rect shape-rendering="crispEdges" fill="rgb(156, 115, 106)"  x="14" y="11" width="1" height="1" /><rect shape-rendering="crispEdges" fill="rgb(222, 189, 131)"  x="14" y="12" width="1" height="1" /><rect shape-rendering="crispEdges" fill="rgb(115, 74, 82)"  x="14" y="13" width="1" height="1" /><rect shape-rendering="crispEdges" fill="rgb(156, 115, 106)"  x="14" y="14" width="1" height="1" /><rect shape-rendering="crispEdges" fill="rgb(156, 115, 106)"  x="14" y="15" width="1" height="1" /><rect shape-rendering="crispEdges" fill="rgb(90, 57, 65)"  x="14" y="16" width="1" height="1" /><rect shape-rendering="crispEdges" fill="rgb(172, 24, 16)"  x="15" y="9" width="1" height="1" /><rect shape-rendering="crispEdges" fill="rgb(172, 24, 16)"  x="15" y="10" width="1" height="1" /><rect shape-rendering="crispEdges" fill="rgb(156, 115, 106)"  x="15" y="11" width="1" height="1" /><rect shape-rendering="crispEdges" fill="rgb(156, 115, 106)"  x="15" y="12" width="1" height="1" /><rect shape-rendering="crispEdges" fill="rgb(131, 98, 90)"  x="15" y="13" width="1" height="1" /><rect shape-rendering="crispEdges" fill="rgb(222, 180, 156)"  x="15" y="14" width="1" height="1" /><rect shape-rendering="crispEdges" fill="rgb(197, 156, 131)"  x="15" y="15" width="1" height="1" /><rect shape-rendering="crispEdges" fill="rgb(156, 115, 106)"  x="15" y="16" width="1" height="1" /><rect shape-rendering="crispEdges" fill="rgb(90, 57, 65)"  x="15" y="17" width="1" height="1" /><rect shape-rendering="crispEdges" fill="rgb(172, 24, 16)"  x="16" y="7" width="1" height="1" /><rect shape-rendering="crispEdges" fill="rgb(172, 24, 16)"  x="16" y="8" width="1" height="1" /><rect shape-rendering="crispEdges" fill="rgb(238, 98, 90)"  x="16" y="9" width="1" height="1" /><rect shape-rendering="crispEdges" fill="rgb(172, 24, 16)"  x="16" y="10" width="1" height="1" /><rect shape-rendering="crispEdges" fill="rgb(172, 24, 16)"  x="16" y="11" width="1" height="1" /><rect shape-rendering="crispEdges" fill="rgb(131, 98, 90)"  x="16" y="14" width="1" height="1" /><rect shape-rendering="crispEdges" fill="rgb(222, 180, 156)"  x="16" y="15" width="1" height="1" /><rect shape-rendering="crispEdges" fill="rgb(197, 156, 131)"  x="16" y="16" width="1" height="1" /><rect shape-rendering="crispEdges" fill="rgb(156, 115, 106)"  x="16" y="17" width="1" height="1" /><rect shape-rendering="crispEdges" fill="rgb(115, 74, 82)"  x="16" y="18" width="1" height="1" /><rect shape-rendering="crispEdges" fill="rgb(90, 57, 65)"  x="16" y="19" width="1" height="1" /><rect shape-rendering="crispEdges" fill="rgb(90, 57, 65)"  x="16" y="20" width="1" height="1" /><rect shape-rendering="crispEdges" fill="rgb(213, 32, 24)"  x="17" y="7" width="1" height="1" /><rect shape-rendering="crispEdges" fill="rgb(255, 189, 164)"  x="17" y="8" width="1" height="1" /><rect shape-rendering="crispEdges" fill="rgb(172, 24, 16)"  x="17" y="9" width="1" height="1" /><rect shape-rendering="crispEdges" fill="rgb(131, 98, 90)"  x="17" y="15" width="1" height="1" /><rect shape-rendering="crispEdges" fill="rgb(197, 156, 131)"  x="17" y="16" width="1" height="1" /><rect shape-rendering="crispEdges" fill="rgb(156, 115, 106)"  x="17" y="17" width="1" height="1" /><rect shape-rendering="crispEdges" fill="rgb(90, 57, 65)"  x="17" y="18" width="1" height="1" /><rect shape-rendering="crispEdges" fill="rgb(222, 189, 131)"  x="17" y="19" width="1" height="1" /><rect shape-rendering="crispEdges" fill="rgb(90, 57, 65)"  x="17" y="20" width="1" height="1" /><rect shape-rendering="crispEdges" fill="rgb(106, 57, 98)"  x="17" y="26" width="1" height="1" /><rect shape-rendering="crispEdges" fill="rgb(213, 32, 24)"  x="18" y="7" width="1" height="1" /><rect shape-rendering="crispEdges" fill="rgb(230, 65, 57)"  x="18" y="8" width="1" height="1" /><rect shape-rendering="crispEdges" fill="rgb(238, 98, 90)"  x="18" y="9" width="1" height="1" /><rect shape-rendering="crispEdges" fill="rgb(131, 98, 90)"  x="18" y="16" width="1" height="1" /><rect shape-rendering="crispEdges" fill="rgb(115, 74, 82)"  x="18" y="17" width="1" height="1" /><rect shape-rendering="crispEdges" fill="rgb(115, 74, 82)"  x="18" y="18" width="1" height="1" /><rect shape-rendering="crispEdges" fill="rgb(115, 74, 82)"  x="18" y="19" width="1" height="1" /><rect shape-rendering="crispEdges" fill="rgb(131, 98, 90)"  x="18" y="20" width="1" height="1" /><rect shape-rendering="crispEdges" fill="rgb(106, 57, 98)"  x="18" y="21" width="1" height="1" /><rect shape-rendering="crispEdges" fill="rgb(131, 24, 156)"  x="18" y="22" width="1" height="1" /><rect shape-rendering="crispEdges" fill="rgb(131, 24, 156)"  x="18" y="23" width="1" height="1" /><rect shape-rendering="crispEdges" fill="rgb(106, 57, 98)"  x="18" y="26" width="1" height="1" /><rect shape-rendering="crispEdges" fill="rgb(106, 57, 98)"  x="18" y="27" width="1" height="1" /><rect shape-rendering="crispEdges" fill="rgb(172, 24, 16)"  x="19" y="8" width="1" height="1" /><rect shape-rendering="crispEdges" fill="rgb(238, 98, 90)"  x="19" y="9" width="1" height="1" /><rect shape-rendering="crispEdges" fill="rgb(172, 24, 16)"  x="19" y="10" width="1" height="1" /><rect shape-rendering="crispEdges" fill="rgb(156, 115, 106)"  x="19" y="16" width="1" height="1" /><rect shape-rendering="crispEdges" fill="rgb(222, 189, 131)"  x="19" y="17" width="1" height="1" /><rect shape-rendering="crispEdges" fill="rgb(115, 74, 82)"  x="19" y="18" width="1" height="1" /><rect shape-rendering="crispEdges" fill="rgb(90, 57, 65)"  x="19" y="19" width="1" height="1" /><rect shape-rendering="crispEdges" fill="rgb(230, 106, 255)"  x="19" y="20" width="1" height="1" /><rect shape-rendering="crispEdges" fill="rgb(205, 74, 255)"  x="19" y="21" width="1" height="1" /><rect shape-rendering="crispEdges" fill="rgb(255, 131, 255)"  x="19" y="22" width="1" height="1" /><rect shape-rendering="crispEdges" fill="rgb(131, 24, 156)"  x="19" y="23" width="1" height="1" /><rect shape-rendering="crispEdges" fill="rgb(106, 57, 98)"  x="19" y="26" width="1" height="1" /><rect shape-rendering="crispEdges" fill="rgb(131, 82, 115)"  x="19" y="27" width="1" height="1" /><rect shape-rendering="crispEdges" fill="rgb(164, 98, 131)"  x="19" y="28" width="1" height="1" /><rect shape-rendering="crispEdges" fill="rgb(230, 65, 57)"  x="20" y="9" width="1" height="1" /><rect shape-rendering="crispEdges" fill="rgb(213, 32, 24)"  x="20" y="10" width="1" height="1" /><rect shape-rendering="crispEdges" fill="rgb(172, 24, 16)"  x="20" y="11" width="1" height="1" /><rect shape-rendering="crispEdges" fill="rgb(172, 24, 16)"  x="20" y="15" width="1" height="1" /><rect shape-rendering="crispEdges" fill="rgb(156, 115, 106)"  x="20" y="16" width="1" height="1" /><rect shape-rendering="crispEdges" fill="rgb(156, 115, 106)"  x="20" y="17" width="1" height="1" /><rect shape-rendering="crispEdges" fill="rgb(90, 57, 65)"  x="20" y="18" width="1" height="1" /><rect shape-rendering="crispEdges" fill="rgb(230, 106, 255)"  x="20" y="19" width="1" height="1" /><rect shape-rendering="crispEdges" fill="rgb(255, 164, 255)"  x="20" y="20" width="1" height="1" /><rect shape-rendering="crispEdges" fill="rgb(255, 131, 255)"  x="20" y="21" width="1" height="1" /><rect shape-rendering="crispEdges" fill="rgb(172, 41, 222)"  x="20" y="22" width="1" height="1" /><rect shape-rendering="crispEdges" fill="rgb(148, 32, 180)"  x="20" y="23" width="1" height="1" /><rect shape-rendering="crispEdges" fill="rgb(106, 57, 98)"  x="20" y="26" width="1" height="1" /><rect shape-rendering="crispEdges" fill="rgb(255, 189, 98)"  x="20" y="27" width="1" height="1" /><rect shape-rendering="crispEdges" fill="rgb(189, 115, 148)"  x="20" y="28" width="1" height="1" /><rect shape-rendering="crispEdges" fill="rgb(131, 82, 115)"  x="20" y="29" width="1" height="1" /><rect shape-rendering="crispEdges" fill="rgb(238, 98, 90)"  x="21" y="9" width="1" height="1" /><rect shape-rendering="crispEdges" fill="rgb(230, 65, 57)"  x="21" y="10" width="1" height="1" /><rect shape-rendering="crispEdges" fill="rgb(172, 24, 16)"  x="21" y="11" width="1" height="1" /><rect shape-rendering="crispEdges" fill="rgb(172, 24, 16)"  x="21" y="12" width="1" height="1" /><rect shape-rendering="crispEdges" fill="rgb(172, 24, 16)"  x="21" y="15" width="1" height="1" /><rect shape-rendering="crispEdges" fill="rgb(172, 24, 16)"  x="21" y="16" width="1" height="1" /><rect shape-rendering="crispEdges" fill="rgb(180, 49, 246)"  x="21" y="18" width="1" height="1" /><rect shape-rendering="crispEdges" fill="rgb(205, 74, 255)"  x="21" y="19" width="1" height="1" /><rect shape-rendering="crispEdges" fill="rgb(205, 74, 255)"  x="21" y="20" width="1" height="1" /><rect shape-rendering="crispEdges" fill="rgb(255, 205, 255)"  x="21" y="21" width="1" height="1" /><rect shape-rendering="crispEdges" fill="rgb(255, 131, 255)"  x="21" y="22" width="1" height="1" /><rect shape-rendering="crispEdges" fill="rgb(180, 49, 246)"  x="21" y="23" width="1" height="1" /><rect shape-rendering="crispEdges" fill="rgb(106, 57, 98)"  x="21" y="24" width="1" height="1" /><rect shape-rendering="crispEdges" fill="rgb(106, 57, 98)"  x="21" y="26" width="1" height="1" /><rect shape-rendering="crispEdges" fill="rgb(255, 189, 98)"  x="21" y="27" width="1" height="1" /><rect shape-rendering="crispEdges" fill="rgb(213, 148, 172)"  x="21" y="28" width="1" height="1" /><rect shape-rendering="crispEdges" fill="rgb(164, 98, 131)"  x="21" y="29" width="1" height="1" /><rect shape-rendering="crispEdges" fill="rgb(106, 57, 98)"  x="21" y="30" width="1" height="1" /><rect shape-rendering="crispEdges" fill="rgb(230, 65, 57)"  x="22" y="9" width="1" height="1" /><rect shape-rendering="crispEdges" fill="rgb(230, 65, 57)"  x="22" y="10" width="1" height="1" /><rect shape-rendering="crispEdges" fill="rgb(213, 32, 24)"  x="22" y="11" width="1" height="1" /><rect shape-rendering="crispEdges" fill="rgb(238, 98, 90)"  x="22" y="12" width="1" height="1" /><rect shape-rendering="crispEdges" fill="rgb(172, 24, 16)"  x="22" y="13" width="1" height="1" /><rect shape-rendering="crispEdges" fill="rgb(172, 24, 16)"  x="22" y="14" width="1" height="1" /><rect shape-rendering="crispEdges" fill="rgb(238, 98, 90)"  x="22" y="15" width="1" height="1" /><rect shape-rendering="crispEdges" fill="rgb(172, 24, 16)"  x="22" y="16" width="1" height="1" /><rect shape-rendering="crispEdges" fill="rgb(180, 49, 246)"  x="22" y="18" width="1" height="1" /><rect shape-rendering="crispEdges" fill="rgb(255, 131, 255)"  x="22" y="19" width="1" height="1" /><rect shape-rendering="crispEdges" fill="rgb(255, 131, 255)"  x="22" y="20" width="1" height="1" /><rect shape-rendering="crispEdges" fill="rgb(172, 41, 222)"  x="22" y="21" width="1" height="1" /><rect shape-rendering="crispEdges" fill="rgb(255, 205, 255)"  x="22" y="22" width="1" height="1" /><rect shape-rendering="crispEdges" fill="rgb(230, 106, 255)"  x="22" y="23" width="1" height="1" /><rect shape-rendering="crispEdges" fill="rgb(180, 49, 246)"  x="22" y="24" width="1" height="1" /><rect shape-rendering="crispEdges" fill="rgb(106, 57, 98)"  x="22" y="25" width="1" height="1" /><rect shape-rendering="crispEdges" fill="rgb(106, 57, 98)"  x="22" y="26" width="1" height="1" /><rect shape-rendering="crispEdges" fill="rgb(189, 115, 148)"  x="22" y="27" width="1" height="1" /><rect shape-rendering="crispEdges" fill="rgb(189, 115, 148)"  x="22" y="28" width="1" height="1" /><rect shape-rendering="crispEdges" fill="rgb(189, 115, 148)"  x="22" y="29" width="1" height="1" /><rect shape-rendering="crispEdges" fill="rgb(131, 82, 115)"  x="22" y="30" width="1" height="1" /><rect shape-rendering="crispEdges" fill="rgb(172, 24, 16)"  x="23" y="12" width="1" height="1" /><rect shape-rendering="crispEdges" fill="rgb(238, 98, 90)"  x="23" y="13" width="1" height="1" /><rect shape-rendering="crispEdges" fill="rgb(238, 98, 90)"  x="23" y="14" width="1" height="1" /><rect shape-rendering="crispEdges" fill="rgb(172, 24, 16)"  x="23" y="15" width="1" height="1" /><rect shape-rendering="crispEdges" fill="rgb(230, 106, 255)"  x="23" y="18" width="1" height="1" /><rect shape-rendering="crispEdges" fill="rgb(205, 74, 255)"  x="23" y="19" width="1" height="1" /><rect shape-rendering="crispEdges" fill="rgb(180, 49, 246)"  x="23" y="20" width="1" height="1" /><rect shape-rendering="crispEdges" fill="rgb(148, 32, 180)"  x="23" y="21" width="1" height="1" /><rect shape-rendering="crispEdges" fill="rgb(230, 106, 255)"  x="23" y="22" width="1" height="1" /><rect shape-rendering="crispEdges" fill="rgb(180, 49, 246)"  x="23" y="23" width="1" height="1" /><rect shape-rendering="crispEdges" fill="rgb(148, 32, 180)"  x="23" y="24" width="1" height="1" /><rect shape-rendering="crispEdges" fill="rgb(172, 24, 16)"  x="23" y="25" width="1" height="1" /><rect shape-rendering="crispEdges" fill="rgb(164, 98, 131)"  x="23" y="26" width="1" height="1" /><rect shape-rendering="crispEdges" fill="rgb(255, 205, 123)"  x="23" y="27" width="1" height="1" /><rect shape-rendering="crispEdges" fill="rgb(255, 205, 123)"  x="23" y="28" width="1" height="1" /><rect shape-rendering="crispEdges" fill="rgb(189, 115, 148)"  x="23" y="29" width="1" height="1" /><rect shape-rendering="crispEdges" fill="rgb(213, 32, 24)"  x="23" y="30" width="1" height="1" /><rect shape-rendering="crispEdges" fill="rgb(230, 65, 57)"  x="24" y="13" width="1" height="1" /><rect shape-rendering="crispEdges" fill="rgb(172, 24, 16)"  x="24" y="14" width="1" height="1" /><rect shape-rendering="crispEdges" fill="rgb(172, 24, 16)"  x="24" y="15" width="1" height="1" /><rect shape-rendering="crispEdges" fill="rgb(131, 82, 115)"  x="24" y="21" width="1" height="1" /><rect shape-rendering="crispEdges" fill="rgb(205, 74, 255)"  x="24" y="22" width="1" height="1" /><rect shape-rendering="crispEdges" fill="rgb(148, 32, 180)"  x="24" y="23" width="1" height="1" /><rect shape-rendering="crispEdges" fill="rgb(148, 32, 180)"  x="24" y="24" width="1" height="1" /><rect shape-rendering="crispEdges" fill="rgb(230, 65, 57)"  x="24" y="25" width="1" height="1" /><rect shape-rendering="crispEdges" fill="rgb(213, 32, 24)"  x="24" y="26" width="1" height="1" /><rect shape-rendering="crispEdges" fill="rgb(164, 98, 131)"  x="24" y="27" width="1" height="1" /><rect shape-rendering="crispEdges" fill="rgb(164, 98, 131)"  x="24" y="28" width="1" height="1" /><rect shape-rendering="crispEdges" fill="rgb(238, 172, 197)"  x="24" y="29" width="1" height="1" /><rect shape-rendering="crispEdges" fill="rgb(230, 65, 57)"  x="24" y="30" width="1" height="1" /><rect shape-rendering="crispEdges" fill="rgb(106, 57, 98)"  x="25" y="22" width="1" height="1" /><rect shape-rendering="crispEdges" fill="rgb(172, 24, 16)"  x="25" y="23" width="1" height="1" /><rect shape-rendering="crispEdges" fill="rgb(230, 65, 57)"  x="25" y="24" width="1" height="1" /><rect shape-rendering="crispEdges" fill="rgb(213, 32, 24)"  x="25" y="25" width="1" height="1" /><rect shape-rendering="crispEdges" fill="rgb(189, 115, 148)"  x="25" y="28" width="1" height="1" /><rect shape-rendering="crispEdges" fill="rgb(238, 172, 197)"  x="25" y="29" width="1" height="1" /><rect shape-rendering="crispEdges" fill="rgb(238, 98, 90)"  x="25" y="30" width="1" height="1" /><rect shape-rendering="crispEdges" fill="rgb(164, 98, 131)"  x="26" y="17" width="1" height="1" /><rect shape-rendering="crispEdges" fill="rgb(164, 98, 131)"  x="26" y="18" width="1" height="1" /><rect shape-rendering="crispEdges" fill="rgb(106, 57, 98)"  x="26" y="19" width="1" height="1" /><rect shape-rendering="crispEdges" fill="rgb(106, 57, 98)"  x="26" y="20" width="1" height="1" /><rect shape-rendering="crispEdges" fill="rgb(106, 57, 98)"  x="26" y="21" width="1" height="1" /><rect shape-rendering="crispEdges" fill="rgb(106, 57, 98)"  x="26" y="22" width="1" height="1" /><rect shape-rendering="crispEdges" fill="rgb(164, 98, 131)"  x="26" y="23" width="1" height="1" /><rect shape-rendering="crispEdges" fill="rgb(213, 32, 24)"  x="26" y="24" width="1" height="1" /><rect shape-rendering="crispEdges" fill="rgb(213, 32, 24)"  x="26" y="28" width="1" height="1" /><rect shape-rendering="crispEdges" fill="rgb(238, 172, 197)"  x="26" y="29" width="1" height="1" /><rect shape-rendering="crispEdges" fill="rgb(238, 98, 90)"  x="26" y="30" width="1" height="1" /><rect shape-rendering="crispEdges" fill="rgb(164, 98, 131)"  x="27" y="18" width="1" height="1" /><rect shape-rendering="crispEdges" fill="rgb(164, 98, 131)"  x="27" y="19" width="1" height="1" /><rect shape-rendering="crispEdges" fill="rgb(255, 189, 98)"  x="27" y="20" width="1" height="1" /><rect shape-rendering="crispEdges" fill="rgb(255, 189, 98)"  x="27" y="21" width="1" height="1" /><rect shape-rendering="crispEdges" fill="rgb(131, 82, 115)"  x="27" y="22" width="1" height="1" /><rect shape-rendering="crispEdges" fill="rgb(255, 205, 123)"  x="27" y="23" width="1" height="1" /><rect shape-rendering="crispEdges" fill="rgb(164, 98, 131)"  x="27" y="24" width="1" height="1" /><rect shape-rendering="crispEdges" fill="rgb(213, 32, 24)"  x="27" y="27" width="1" height="1" /><rect shape-rendering="crispEdges" fill="rgb(172, 24, 16)"  x="27" y="28" width="1" height="1" /><rect shape-rendering="crispEdges" fill="rgb(172, 24, 16)"  x="27" y="29" width="1" height="1" /><rect shape-rendering="crispEdges" fill="rgb(213, 32, 24)"  x="27" y="30" width="1" height="1" /><rect shape-rendering="crispEdges" fill="rgb(238, 98, 90)"  x="27" y="31" width="1" height="1" /><rect shape-rendering="crispEdges" fill="rgb(189, 115, 148)"  x="28" y="19" width="1" height="1" /><rect shape-rendering="crispEdges" fill="rgb(213, 148, 172)"  x="28" y="20" width="1" height="1" /><rect shape-rendering="crispEdges" fill="rgb(189, 115, 148)"  x="28" y="21" width="1" height="1" /><rect shape-rendering="crispEdges" fill="rgb(189, 115, 148)"  x="28" y="22" width="1" height="1" /><rect shape-rendering="crispEdges" fill="rgb(255, 205, 123)"  x="28" y="23" width="1" height="1" /><rect shape-rendering="crispEdges" fill="rgb(164, 98, 131)"  x="28" y="24" width="1" height="1" /><rect shape-rendering="crispEdges" fill="rgb(189, 115, 148)"  x="28" y="25" width="1" height="1" /><rect shape-rendering="crispEdges" fill="rgb(213, 32, 24)"  x="28" y="26" width="1" height="1" /><rect shape-rendering="crispEdges" fill="rgb(213, 32, 24)"  x="28" y="27" width="1" height="1" /><rect shape-rendering="crispEdges" fill="rgb(238, 98, 90)"  x="28" y="28" width="1" height="1" /><rect shape-rendering="crispEdges" fill="rgb(246, 148, 123)"  x="28" y="29" width="1" height="1" /><rect shape-rendering="crispEdges" fill="rgb(255, 189, 164)"  x="28" y="30" width="1" height="1" /><rect shape-rendering="crispEdges" fill="rgb(230, 65, 57)"  x="28" y="31" width="1" height="1" /><rect shape-rendering="crispEdges" fill="rgb(189, 115, 148)"  x="29" y="20" width="1" height="1" /><rect shape-rendering="crispEdges" fill="rgb(213, 148, 172)"  x="29" y="21" width="1" height="1" /><rect shape-rendering="crispEdges" fill="rgb(189, 115, 148)"  x="29" y="22" width="1" height="1" /><rect shape-rendering="crispEdges" fill="rgb(164, 98, 131)"  x="29" y="23" width="1" height="1" /><rect shape-rendering="crispEdges" fill="rgb(238, 172, 197)"  x="29" y="24" width="1" height="1" /><rect shape-rendering="crispEdges" fill="rgb(238, 172, 197)"  x="29" y="25" width="1" height="1" /><rect shape-rendering="crispEdges" fill="rgb(238, 172, 197)"  x="29" y="26" width="1" height="1" /><rect shape-rendering="crispEdges" fill="rgb(238, 98, 90)"  x="29" y="27" width="1" height="1" /><rect shape-rendering="crispEdges" fill="rgb(255, 189, 164)"  x="29" y="28" width="1" height="1" /><rect shape-rendering="crispEdges" fill="rgb(255, 255, 123)"  x="29" y="29" width="1" height="1" /><rect shape-rendering="crispEdges" fill="rgb(255, 255, 123)"  x="29" y="30" width="1" height="1" /><rect shape-rendering="crispEdges" fill="rgb(230, 65, 57)"  x="29" y="31" width="1" height="1" /><rect shape-rendering="crispEdges" fill="rgb(189, 115, 148)"  x="30" y="21" width="1" height="1" /><rect shape-rendering="crispEdges" fill="rgb(230, 65, 57)"  x="30" y="22" width="1" height="1" /><rect shape-rendering="crispEdges" fill="rgb(230, 65, 57)"  x="30" y="23" width="1" height="1" /><rect shape-rendering="crispEdges" fill="rgb(238, 98, 90)"  x="30" y="24" width="1" height="1" /><rect shape-rendering="crispEdges" fill="rgb(238, 98, 90)"  x="30" y="25" width="1" height="1" /><rect shape-rendering="crispEdges" fill="rgb(238, 98, 90)"  x="30" y="26" width="1" height="1" /><rect shape-rendering="crispEdges" fill="rgb(246, 148, 123)"  x="30" y="27" width="1" height="1" /><rect shape-rendering="crispEdges" fill="rgb(255, 255, 123)"  x="30" y="28" width="1" height="1" /><rect shape-rendering="crispEdges" fill="rgb(255, 255, 123)"  x="30" y="29" width="1" height="1" /><rect shape-rendering="crispEdges" fill="rgb(246, 148, 123)"  x="30" y="30" width="1" height="1" /><rect shape-rendering="crispEdges" fill="rgb(246, 148, 123)"  x="31" y="27" width="1" height="1" /><rect shape-rendering="crispEdges" fill="rgb(246, 148, 123)"  x="31" y="28" width="1" height="1" /><rect shape-rendering="crispEdges" fill="rgb(246, 148, 123)"  x="31" y="29" width="1" height="1" /></svg>