<svg xmlns="http://www.w3.org/2000/svg" xmlns:xlink= "http://www.w3.org/1999/xlink" width="32" height="32" viewBox ="0 0 32 32"><rect shape-rendering="crispEdges" fill="rgb(106, 90, 123)"  x="8" y="7" width="1" height="1" /><rect shape-rendering="crispEdges" fill="rgb(106, 90, 123)"  x="8" y="8" width="1" height="1" /><rect shape-rendering="crispEdges" fill="rgb(106, 90, 123)"  x="8" y="9" width="1" height="1" /><rect shape-rendering="crispEdges" fill="rgb(106, 90, 123)"  x="8" y="10" width="1" height="1" /><rect shape-rendering="crispEdges" fill="rgb(90, 57, 90)"  x="9" y="5" width="1" height="1" /><rect shape-rendering="crispEdges" fill="rgb(115, 90, 123)"  x="9" y="6" width="1" height="1" /><rect shape-rendering="crispEdges" fill="rgb(106, 90, 123)"  x="9" y="7" width="1" height="1" /><rect shape-rendering="crispEdges" fill="rgb(139, 115, 156)"  x="9" y="8" width="1" height="1" /><rect shape-rendering="crispEdges" fill="rgb(139, 115, 156)"  x="9" y="9" width="1" height="1" /><rect shape-rendering="crispEdges" fill="rgb(139, 115, 156)"  x="9" y="10" width="1" height="1" /><rect shape-rendering="crispEdges" fill="rgb(139, 115, 156)"  x="9" y="11" width="1" height="1" /><rect shape-rendering="crispEdges" fill="rgb(106, 90, 123)"  x="9" y="12" width="1" height="1" /><rect shape-rendering="crispEdges" fill="rgb(115, 74, 82)"  x="9" y="15" width="1" height="1" /><rect shape-rendering="crispEdges" fill="rgb(139, 115, 148)"  x="9" y="16" width="1" height="1" /><rect shape-rendering="crispEdges" fill="rgb(123, 90, 115)"  x="9" y="17" width="1" height="1" /><rect shape-rendering="crispEdges" fill="rgb(123, 98, 106)"  x="9" y="18" width="1" height="1" /><rect shape-rendering="crispEdges" fill="rgb(74, 230, 172)"  x="10" y="3" width="1" height="1" /><rect shape-rendering="crispEdges" fill="rgb(74, 230, 172)"  x="10" y="4" width="1" height="1" /><rect shape-rendering="crispEdges" fill="rgb(106, 238, 197)"  x="10" y="5" width="1" height="1" /><rect shape-rendering="crispEdges" fill="rgb(106, 238, 197)"  x="10" y="6" width="1" height="1" /><rect shape-rendering="crispEdges" fill="rgb(49, 156, 106)"  x="10" y="7" width="1" height="1" /><rect shape-rendering="crispEdges" fill="rgb(49, 131, 82)"  x="10" y="8" width="1" height="1" /><rect shape-rendering="crispEdges" fill="rgb(74, 139, 82)"  x="10" y="9" width="1" height="1" /><rect shape-rendering="crispEdges" fill="rgb(139, 115, 156)"  x="10" y="10" width="1" height="1" /><rect shape-rendering="crispEdges" fill="rgb(139, 115, 156)"  x="10" y="11" width="1" height="1" /><rect shape-rendering="crispEdges" fill="rgb(139, 115, 156)"  x="10" y="12" width="1" height="1" /><rect shape-rendering="crispEdges" fill="rgb(106, 57, 82)"  x="10" y="13" width="1" height="1" /><rect shape-rendering="crispEdges" fill="rgb(106, 65, 90)"  x="10" y="14" width="1" height="1" /><rect shape-rendering="crispEdges" fill="rgb(148, 106, 98)"  x="10" y="15" width="1" height="1" /><rect shape-rendering="crispEdges" fill="rgb(197, 180, 98)"  x="10" y="16" width="1" height="1" /><rect shape-rendering="crispEdges" fill="rgb(197, 180, 98)"  x="10" y="17" width="1" height="1" /><rect shape-rendering="crispEdges" fill="rgb(197, 180, 98)"  x="10" y="18" width="1" height="1" /><rect shape-rendering="crispEdges" fill="rgb(164, 106, 82)"  x="10" y="19" width="1" height="1" /><rect shape-rendering="crispEdges" fill="rgb(123, 74, 82)"  x="10" y="20" width="1" height="1" /><rect shape-rendering="crispEdges" fill="rgb(90, 213, 8)"  x="10" y="21" width="1" height="1" /><rect shape-rendering="crispEdges" fill="rgb(123, 115, 156)"  x="10" y="22" width="1" height="1" /><rect shape-rendering="crispEdges" fill="rgb(90, 213, 8)"  x="10" y="23" width="1" height="1" /><rect shape-rendering="crispEdges" fill="rgb(98, 90, 123)"  x="10" y="24" width="1" height="1" /><rect shape-rendering="crispEdges" fill="rgb(205, 74, 24)"  x="10" y="25" width="1" height="1" /><rect shape-rendering="crispEdges" fill="rgb(205, 74, 24)"  x="10" y="26" width="1" height="1" /><rect shape-rendering="crispEdges" fill="rgb(230, 98, 32)"  x="10" y="27" width="1" height="1" /><rect shape-rendering="crispEdges" fill="rgb(57, 197, 148)"  x="11" y="2" width="1" height="1" /><rect shape-rendering="crispEdges" fill="rgb(41, 156, 115)"  x="11" y="3" width="1" height="1" /><rect shape-rendering="crispEdges" fill="rgb(24, 123, 90)"  x="11" y="4" width="1" height="1" /><rect shape-rendering="crispEdges" fill="rgb(24, 123, 90)"  x="11" y="5" width="1" height="1" /><rect shape-rendering="crispEdges" fill="rgb(57, 197, 148)"  x="11" y="6" width="1" height="1" /><rect shape-rendering="crispEdges" fill="rgb(65, 197, 139)"  x="11" y="7" width="1" height="1" /><rect shape-rendering="crispEdges" fill="rgb(82, 197, 131)"  x="11" y="8" width="1" height="1" /><rect shape-rendering="crispEdges" fill="rgb(98, 197, 123)"  x="11" y="9" width="1" height="1" /><rect shape-rendering="crispEdges" fill="rgb(106, 172, 98)"  x="11" y="10" width="1" height="1" /><rect shape-rendering="crispEdges" fill="rgb(98, 131, 57)"  x="11" y="11" width="1" height="1" /><rect shape-rendering="crispEdges" fill="rgb(106, 57, 82)"  x="11" y="12" width="1" height="1" /><rect shape-rendering="crispEdges" fill="rgb(115, 65, 82)"  x="11" y="13" width="1" height="1" /><rect shape-rendering="crispEdges" fill="rgb(139, 82, 82)"  x="11" y="14" width="1" height="1" /><rect shape-rendering="crispEdges" fill="rgb(139, 90, 82)"  x="11" y="15" width="1" height="1" /><rect shape-rendering="crispEdges" fill="rgb(156, 106, 90)"  x="11" y="16" width="1" height="1" /><rect shape-rendering="crispEdges" fill="rgb(172, 115, 98)"  x="11" y="17" width="1" height="1" /><rect shape-rendering="crispEdges" fill="rgb(172, 115, 90)"  x="11" y="18" width="1" height="1" /><rect shape-rendering="crispEdges" fill="rgb(197, 180, 98)"  x="11" y="19" width="1" height="1" /><rect shape-rendering="crispEdges" fill="rgb(164, 106, 82)"  x="11" y="20" width="1" height="1" /><rect shape-rendering="crispEdges" fill="rgb(148, 148, 197)"  x="11" y="21" width="1" height="1" /><rect shape-rendering="crispEdges" fill="rgb(148, 148, 197)"  x="11" y="22" width="1" height="1" /><rect shape-rendering="crispEdges" fill="rgb(82, 246, 24)"  x="11" y="23" width="1" height="1" /><rect shape-rendering="crispEdges" fill="rgb(98, 90, 123)"  x="11" y="24" width="1" height="1" /><rect shape-rendering="crispEdges" fill="rgb(230, 98, 32)"  x="11" y="25" width="1" height="1" /><rect shape-rendering="crispEdges" fill="rgb(255, 131, 41)"  x="11" y="26" width="1" height="1" /><rect shape-rendering="crispEdges" fill="rgb(205, 74, 24)"  x="11" y="27" width="1" height="1" /><rect shape-rendering="crispEdges" fill="rgb(49, 172, 131)"  x="11" y="28" width="1" height="1" /><rect shape-rendering="crispEdges" fill="rgb(49, 172, 131)"  x="11" y="29" width="1" height="1" /><rect shape-rendering="crispEdges" fill="rgb(57, 197, 148)"  x="12" y="4" width="1" height="1" /><rect shape-rendering="crispEdges" fill="rgb(41, 156, 115)"  x="12" y="5" width="1" height="1" /><rect shape-rendering="crispEdges" fill="rgb(24, 123, 90)"  x="12" y="6" width="1" height="1" /><rect shape-rendering="crispEdges" fill="rgb(32, 123, 82)"  x="12" y="7" width="1" height="1" /><rect shape-rendering="crispEdges" fill="rgb(82, 197, 131)"  x="12" y="8" width="1" height="1" /><rect shape-rendering="crispEdges" fill="rgb(148, 189, 115)"  x="12" y="9" width="1" height="1" /><rect shape-rendering="crispEdges" fill="rgb(156, 189, 106)"  x="12" y="10" width="1" height="1" /><rect shape-rendering="crispEdges" fill="rgb(189, 205, 123)"  x="12" y="11" width="1" height="1" /><rect shape-rendering="crispEdges" fill="rgb(98, 131, 57)"  x="12" y="12" width="1" height="1" /><rect shape-rendering="crispEdges" fill="rgb(49, 148, 106)"  x="12" y="13" width="1" height="1" /><rect shape-rendering="crispEdges" fill="rgb(98, 172, 74)"  x="12" y="14" width="1" height="1" /><rect shape-rendering="crispEdges" fill="rgb(98, 180, 82)"  x="12" y="15" width="1" height="1" /><rect shape-rendering="crispEdges" fill="rgb(123, 213, 90)"  x="12" y="16" width="1" height="1" /><rect shape-rendering="crispEdges" fill="rgb(106, 205, 98)"  x="12" y="17" width="1" height="1" /><rect shape-rendering="crispEdges" fill="rgb(82, 180, 106)"  x="12" y="18" width="1" height="1" /><rect shape-rendering="crispEdges" fill="rgb(180, 115, 82)"  x="12" y="19" width="1" height="1" /><rect shape-rendering="crispEdges" fill="rgb(230, 205, 98)"  x="12" y="20" width="1" height="1" /><rect shape-rendering="crispEdges" fill="rgb(90, 189, 0)"  x="12" y="21" width="1" height="1" /><rect shape-rendering="crispEdges" fill="rgb(82, 246, 24)"  x="12" y="22" width="1" height="1" /><rect shape-rendering="crispEdges" fill="rgb(90, 255, 90)"  x="12" y="23" width="1" height="1" /><rect shape-rendering="crispEdges" fill="rgb(123, 115, 156)"  x="12" y="24" width="1" height="1" /><rect shape-rendering="crispEdges" fill="rgb(98, 90, 123)"  x="12" y="25" width="1" height="1" /><rect shape-rendering="crispEdges" fill="rgb(205, 74, 24)"  x="12" y="26" width="1" height="1" /><rect shape-rendering="crispEdges" fill="rgb(16, 115, 131)"  x="12" y="27" width="1" height="1" /><rect shape-rendering="crispEdges" fill="rgb(24, 205, 115)"  x="12" y="28" width="1" height="1" /><rect shape-rendering="crispEdges" fill="rgb(8, 238, 90)"  x="12" y="29" width="1" height="1" /><rect shape-rendering="crispEdges" fill="rgb(49, 172, 131)"  x="12" y="30" width="1" height="1" /><rect shape-rendering="crispEdges" fill="rgb(74, 230, 172)"  x="13" y="3" width="1" height="1" /><rect shape-rendering="crispEdges" fill="rgb(57, 197, 148)"  x="13" y="4" width="1" height="1" /><rect shape-rendering="crispEdges" fill="rgb(57, 197, 148)"  x="13" y="5" width="1" height="1" /><rect shape-rendering="crispEdges" fill="rgb(41, 156, 115)"  x="13" y="6" width="1" height="1" /><rect shape-rendering="crispEdges" fill="rgb(32, 123, 82)"  x="13" y="7" width="1" height="1" /><rect shape-rendering="crispEdges" fill="rgb(49, 131, 82)"  x="13" y="8" width="1" height="1" /><rect shape-rendering="crispEdges" fill="rgb(98, 197, 123)"  x="13" y="9" width="1" height="1" /><rect shape-rendering="crispEdges" fill="rgb(156, 189, 106)"  x="13" y="10" width="1" height="1" /><rect shape-rendering="crispEdges" fill="rgb(172, 189, 98)"  x="13" y="11" width="1" height="1" /><rect shape-rendering="crispEdges" fill="rgb(197, 205, 115)"  x="13" y="12" width="1" height="1" /><rect shape-rendering="crispEdges" fill="rgb(98, 131, 57)"  x="13" y="13" width="1" height="1" /><rect shape-rendering="crispEdges" fill="rgb(98, 172, 74)"  x="13" y="14" width="1" height="1" /><rect shape-rendering="crispEdges" fill="rgb(139, 213, 90)"  x="13" y="15" width="1" height="1" /><rect shape-rendering="crispEdges" fill="rgb(65, 205, 189)"  x="13" y="16" width="1" height="1" /><rect shape-rendering="crispEdges" fill="rgb(106, 205, 98)"  x="13" y="17" width="1" height="1" /><rect shape-rendering="crispEdges" fill="rgb(82, 180, 106)"  x="13" y="18" width="1" height="1" /><rect shape-rendering="crispEdges" fill="rgb(180, 115, 82)"  x="13" y="19" width="1" height="1" /><rect shape-rendering="crispEdges" fill="rgb(255, 238, 98)"  x="13" y="20" width="1" height="1" /><rect shape-rendering="crispEdges" fill="rgb(123, 74, 82)"  x="13" y="21" width="1" height="1" /><rect shape-rendering="crispEdges" fill="rgb(123, 106, 180)"  x="13" y="22" width="1" height="1" /><rect shape-rendering="crispEdges" fill="rgb(123, 106, 180)"  x="13" y="23" width="1" height="1" /><rect shape-rendering="crispEdges" fill="rgb(123, 106, 180)"  x="13" y="24" width="1" height="1" /><rect shape-rendering="crispEdges" fill="rgb(98, 90, 123)"  x="13" y="25" width="1" height="1" /><rect shape-rendering="crispEdges" fill="rgb(255, 131, 41)"  x="13" y="26" width="1" height="1" /><rect shape-rendering="crispEdges" fill="rgb(255, 156, 49)"  x="13" y="27" width="1" height="1" /><rect shape-rendering="crispEdges" fill="rgb(205, 74, 24)"  x="13" y="28" width="1" height="1" /><rect shape-rendering="crispEdges" fill="rgb(8, 238, 90)"  x="13" y="29" width="1" height="1" /><rect shape-rendering="crispEdges" fill="rgb(49, 172, 131)"  x="13" y="30" width="1" height="1" /><rect shape-rendering="crispEdges" fill="rgb(74, 230, 172)"  x="14" y="2" width="1" height="1" /><rect shape-rendering="crispEdges" fill="rgb(106, 238, 197)"  x="14" y="3" width="1" height="1" /><rect shape-rendering="crispEdges" fill="rgb(57, 197, 148)"  x="14" y="4" width="1" height="1" /><rect shape-rendering="crispEdges" fill="rgb(41, 156, 115)"  x="14" y="5" width="1" height="1" /><rect shape-rendering="crispEdges" fill="rgb(41, 156, 115)"  x="14" y="6" width="1" height="1" /><rect shape-rendering="crispEdges" fill="rgb(32, 123, 82)"  x="14" y="7" width="1" height="1" /><rect shape-rendering="crispEdges" fill="rgb(49, 131, 82)"  x="14" y="8" width="1" height="1" /><rect shape-rendering="crispEdges" fill="rgb(74, 139, 82)"  x="14" y="9" width="1" height="1" /><rect shape-rendering="crispEdges" fill="rgb(131, 156, 74)"  x="14" y="10" width="1" height="1" /><rect shape-rendering="crispEdges" fill="rgb(189, 205, 123)"  x="14" y="11" width="1" height="1" /><rect shape-rendering="crispEdges" fill="rgb(197, 205, 115)"  x="14" y="12" width="1" height="1" /><rect shape-rendering="crispEdges" fill="rgb(213, 180, 82)"  x="14" y="13" width="1" height="1" /><rect shape-rendering="crispEdges" fill="rgb(139, 90, 82)"  x="14" y="14" width="1" height="1" /><rect shape-rendering="crispEdges" fill="rgb(90, 172, 74)"  x="14" y="15" width="1" height="1" /><rect shape-rendering="crispEdges" fill="rgb(82, 172, 82)"  x="14" y="16" width="1" height="1" /><rect shape-rendering="crispEdges" fill="rgb(90, 180, 98)"  x="14" y="17" width="1" height="1" /><rect shape-rendering="crispEdges" fill="rgb(172, 115, 90)"  x="14" y="18" width="1" height="1" /><rect shape-rendering="crispEdges" fill="rgb(180, 123, 82)"  x="14" y="19" width="1" height="1" /><rect shape-rendering="crispEdges" fill="rgb(255, 246, 123)"  x="14" y="20" width="1" height="1" /><rect shape-rendering="crispEdges" fill="rgb(131, 98, 106)"  x="14" y="21" width="1" height="1" /><rect shape-rendering="crispEdges" fill="rgb(90, 213, 8)"  x="14" y="22" width="1" height="1" /><rect shape-rendering="crispEdges" fill="rgb(82, 246, 24)"  x="14" y="23" width="1" height="1" /><rect shape-rendering="crispEdges" fill="rgb(82, 246, 24)"  x="14" y="24" width="1" height="1" /><rect shape-rendering="crispEdges" fill="rgb(98, 90, 123)"  x="14" y="25" width="1" height="1" /><rect shape-rendering="crispEdges" fill="rgb(255, 197, 82)"  x="14" y="26" width="1" height="1" /><rect shape-rendering="crispEdges" fill="rgb(255, 197, 82)"  x="14" y="27" width="1" height="1" /><rect shape-rendering="crispEdges" fill="rgb(205, 74, 24)"  x="14" y="28" width="1" height="1" /><rect shape-rendering="crispEdges" fill="rgb(16, 115, 131)"  x="14" y="29" width="1" height="1" /><rect shape-rendering="crispEdges" fill="rgb(74, 230, 172)"  x="15" y="1" width="1" height="1" /><rect shape-rendering="crispEdges" fill="rgb(57, 197, 148)"  x="15" y="2" width="1" height="1" /><rect shape-rendering="crispEdges" fill="rgb(41, 156, 115)"  x="15" y="3" width="1" height="1" /><rect shape-rendering="crispEdges" fill="rgb(98, 65, 90)"  x="15" y="9" width="1" height="1" /><rect shape-rendering="crispEdges" fill="rgb(106, 74, 90)"  x="15" y="10" width="1" height="1" /><rect shape-rendering="crispEdges" fill="rgb(131, 106, 123)"  x="15" y="11" width="1" height="1" /><rect shape-rendering="crispEdges" fill="rgb(139, 115, 123)"  x="15" y="12" width="1" height="1" /><rect shape-rendering="crispEdges" fill="rgb(131, 98, 90)"  x="15" y="13" width="1" height="1" /><rect shape-rendering="crispEdges" fill="rgb(139, 98, 82)"  x="15" y="14" width="1" height="1" /><rect shape-rendering="crispEdges" fill="rgb(123, 82, 57)"  x="15" y="15" width="1" height="1" /><rect shape-rendering="crispEdges" fill="rgb(197, 180, 98)"  x="15" y="16" width="1" height="1" /><rect shape-rendering="crispEdges" fill="rgb(172, 115, 98)"  x="15" y="17" width="1" height="1" /><rect shape-rendering="crispEdges" fill="rgb(180, 123, 98)"  x="15" y="18" width="1" height="1" /><rect shape-rendering="crispEdges" fill="rgb(255, 238, 98)"  x="15" y="19" width="1" height="1" /><rect shape-rendering="crispEdges" fill="rgb(172, 106, 65)"  x="15" y="20" width="1" height="1" /><rect shape-rendering="crispEdges" fill="rgb(131, 98, 106)"  x="15" y="21" width="1" height="1" /><rect shape-rendering="crispEdges" fill="rgb(123, 106, 180)"  x="15" y="22" width="1" height="1" /><rect shape-rendering="crispEdges" fill="rgb(123, 106, 180)"  x="15" y="23" width="1" height="1" /><rect shape-rendering="crispEdges" fill="rgb(82, 255, 57)"  x="15" y="24" width="1" height="1" /><rect shape-rendering="crispEdges" fill="rgb(82, 57, 90)"  x="15" y="25" width="1" height="1" /><rect shape-rendering="crispEdges" fill="rgb(205, 74, 24)"  x="15" y="26" width="1" height="1" /><rect shape-rendering="crispEdges" fill="rgb(205, 74, 24)"  x="15" y="27" width="1" height="1" /><rect shape-rendering="crispEdges" fill="rgb(49, 172, 131)"  x="15" y="28" width="1" height="1" /><rect shape-rendering="crispEdges" fill="rgb(49, 172, 131)"  x="15" y="29" width="1" height="1" /><rect shape-rendering="crispEdges" fill="rgb(16, 115, 131)"  x="15" y="30" width="1" height="1" /><rect shape-rendering="crispEdges" fill="rgb(123, 106, 131)"  x="16" y="7" width="1" height="1" /><rect shape-rendering="crispEdges" fill="rgb(164, 156, 148)"  x="16" y="8" width="1" height="1" /><rect shape-rendering="crispEdges" fill="rgb(189, 180, 172)"  x="16" y="9" width="1" height="1" /><rect shape-rendering="crispEdges" fill="rgb(189, 172, 164)"  x="16" y="10" width="1" height="1" /><rect shape-rendering="crispEdges" fill="rgb(230, 255, 57)"  x="16" y="11" width="1" height="1" /><rect shape-rendering="crispEdges" fill="rgb(246, 246, 24)"  x="16" y="12" width="1" height="1" /><rect shape-rendering="crispEdges" fill="rgb(246, 246, 24)"  x="16" y="13" width="1" height="1" /><rect shape-rendering="crispEdges" fill="rgb(164, 123, 123)"  x="16" y="14" width="1" height="1" /><rect shape-rendering="crispEdges" fill="rgb(148, 106, 98)"  x="16" y="15" width="1" height="1" /><rect shape-rendering="crispEdges" fill="rgb(131, 82, 57)"  x="16" y="16" width="1" height="1" /><rect shape-rendering="crispEdges" fill="rgb(230, 205, 98)"  x="16" y="17" width="1" height="1" /><rect shape-rendering="crispEdges" fill="rgb(189, 131, 98)"  x="16" y="18" width="1" height="1" /><rect shape-rendering="crispEdges" fill="rgb(255, 246, 123)"  x="16" y="19" width="1" height="1" /><rect shape-rendering="crispEdges" fill="rgb(172, 106, 65)"  x="16" y="20" width="1" height="1" /><rect shape-rendering="crispEdges" fill="rgb(98, 90, 123)"  x="16" y="21" width="1" height="1" /><rect shape-rendering="crispEdges" fill="rgb(82, 246, 24)"  x="16" y="22" width="1" height="1" /><rect shape-rendering="crispEdges" fill="rgb(123, 106, 180)"  x="16" y="23" width="1" height="1" /><rect shape-rendering="crispEdges" fill="rgb(82, 255, 57)"  x="16" y="24" width="1" height="1" /><rect shape-rendering="crispEdges" fill="rgb(82, 57, 90)"  x="16" y="25" width="1" height="1" /><rect shape-rendering="crispEdges" fill="rgb(255, 131, 41)"  x="16" y="26" width="1" height="1" /><rect shape-rendering="crispEdges" fill="rgb(255, 197, 82)"  x="16" y="27" width="1" height="1" /><rect shape-rendering="crispEdges" fill="rgb(205, 74, 24)"  x="16" y="28" width="1" height="1" /><rect shape-rendering="crispEdges" fill="rgb(24, 205, 115)"  x="16" y="29" width="1" height="1" /><rect shape-rendering="crispEdges" fill="rgb(16, 115, 131)"  x="16" y="30" width="1" height="1" /><rect shape-rendering="crispEdges" fill="rgb(115, 98, 123)"  x="17" y="5" width="1" height="1" /><rect shape-rendering="crispEdges" fill="rgb(172, 164, 172)"  x="17" y="6" width="1" height="1" /><rect shape-rendering="crispEdges" fill="rgb(213, 205, 180)"  x="17" y="7" width="1" height="1" /><rect shape-rendering="crispEdges" fill="rgb(230, 255, 57)"  x="17" y="8" width="1" height="1" /><rect shape-rendering="crispEdges" fill="rgb(230, 255, 57)"  x="17" y="9" width="1" height="1" /><rect shape-rendering="crispEdges" fill="rgb(230, 255, 57)"  x="17" y="10" width="1" height="1" /><rect shape-rendering="crispEdges" fill="rgb(164, 148, 139)"  x="17" y="11" width="1" height="1" /><rect shape-rendering="crispEdges" fill="rgb(156, 131, 123)"  x="17" y="12" width="1" height="1" /><rect shape-rendering="crispEdges" fill="rgb(164, 131, 131)"  x="17" y="13" width="1" height="1" /><rect shape-rendering="crispEdges" fill="rgb(172, 139, 139)"  x="17" y="14" width="1" height="1" /><rect shape-rendering="crispEdges" fill="rgb(230, 255, 57)"  x="17" y="15" width="1" height="1" /><rect shape-rendering="crispEdges" fill="rgb(131, 82, 57)"  x="17" y="16" width="1" height="1" /><rect shape-rendering="crispEdges" fill="rgb(230, 205, 98)"  x="17" y="17" width="1" height="1" /><rect shape-rendering="crispEdges" fill="rgb(180, 123, 98)"  x="17" y="18" width="1" height="1" /><rect shape-rendering="crispEdges" fill="rgb(255, 238, 98)"  x="17" y="19" width="1" height="1" /><rect shape-rendering="crispEdges" fill="rgb(172, 115, 74)"  x="17" y="20" width="1" height="1" /><rect shape-rendering="crispEdges" fill="rgb(98, 172, 0)"  x="17" y="21" width="1" height="1" /><rect shape-rendering="crispEdges" fill="rgb(98, 172, 0)"  x="17" y="22" width="1" height="1" /><rect shape-rendering="crispEdges" fill="rgb(82, 246, 24)"  x="17" y="23" width="1" height="1" /><rect shape-rendering="crispEdges" fill="rgb(123, 255, 131)"  x="17" y="24" width="1" height="1" /><rect shape-rendering="crispEdges" fill="rgb(82, 57, 90)"  x="17" y="25" width="1" height="1" /><rect shape-rendering="crispEdges" fill="rgb(255, 197, 82)"  x="17" y="26" width="1" height="1" /><rect shape-rendering="crispEdges" fill="rgb(255, 197, 82)"  x="17" y="27" width="1" height="1" /><rect shape-rendering="crispEdges" fill="rgb(205, 74, 24)"  x="17" y="28" width="1" height="1" /><rect shape-rendering="crispEdges" fill="rgb(16, 115, 131)"  x="17" y="29" width="1" height="1" /><rect shape-rendering="crispEdges" fill="rgb(164, 148, 164)"  x="18" y="4" width="1" height="1" /><rect shape-rendering="crispEdges" fill="rgb(197, 189, 172)"  x="18" y="5" width="1" height="1" /><rect shape-rendering="crispEdges" fill="rgb(230, 255, 57)"  x="18" y="6" width="1" height="1" /><rect shape-rendering="crispEdges" fill="rgb(230, 255, 57)"  x="18" y="7" width="1" height="1" /><rect shape-rendering="crispEdges" fill="rgb(205, 205, 172)"  x="18" y="8" width="1" height="1" /><rect shape-rendering="crispEdges" fill="rgb(189, 180, 164)"  x="18" y="9" width="1" height="1" /><rect shape-rendering="crispEdges" fill="rgb(180, 164, 148)"  x="18" y="10" width="1" height="1" /><rect shape-rendering="crispEdges" fill="rgb(180, 156, 156)"  x="18" y="11" width="1" height="1" /><rect shape-rendering="crispEdges" fill="rgb(246, 246, 24)"  x="18" y="12" width="1" height="1" /><rect shape-rendering="crispEdges" fill="rgb(180, 148, 148)"  x="18" y="13" width="1" height="1" /><rect shape-rendering="crispEdges" fill="rgb(230, 255, 57)"  x="18" y="14" width="1" height="1" /><rect shape-rendering="crispEdges" fill="rgb(189, 148, 139)"  x="18" y="15" width="1" height="1" /><rect shape-rendering="crispEdges" fill="rgb(131, 82, 57)"  x="18" y="16" width="1" height="1" /><rect shape-rendering="crispEdges" fill="rgb(156, 98, 74)"  x="18" y="17" width="1" height="1" /><rect shape-rendering="crispEdges" fill="rgb(172, 115, 90)"  x="18" y="18" width="1" height="1" /><rect shape-rendering="crispEdges" fill="rgb(255, 238, 98)"  x="18" y="19" width="1" height="1" /><rect shape-rendering="crispEdges" fill="rgb(123, 74, 82)"  x="18" y="20" width="1" height="1" /><rect shape-rendering="crispEdges" fill="rgb(90, 238, 16)"  x="18" y="21" width="1" height="1" /><rect shape-rendering="crispEdges" fill="rgb(90, 238, 16)"  x="18" y="22" width="1" height="1" /><rect shape-rendering="crispEdges" fill="rgb(123, 255, 131)"  x="18" y="23" width="1" height="1" /><rect shape-rendering="crispEdges" fill="rgb(123, 255, 131)"  x="18" y="24" width="1" height="1" /><rect shape-rendering="crispEdges" fill="rgb(82, 57, 90)"  x="18" y="25" width="1" height="1" /><rect shape-rendering="crispEdges" fill="rgb(205, 74, 24)"  x="18" y="26" width="1" height="1" /><rect shape-rendering="crispEdges" fill="rgb(205, 74, 24)"  x="18" y="27" width="1" height="1" /><rect shape-rendering="crispEdges" fill="rgb(24, 205, 115)"  x="18" y="28" width="1" height="1" /><rect shape-rendering="crispEdges" fill="rgb(24, 205, 115)"  x="18" y="29" width="1" height="1" /><rect shape-rendering="crispEdges" fill="rgb(16, 115, 131)"  x="18" y="30" width="1" height="1" /><rect shape-rendering="crispEdges" fill="rgb(164, 156, 156)"  x="19" y="4" width="1" height="1" /><rect shape-rendering="crispEdges" fill="rgb(205, 197, 180)"  x="19" y="5" width="1" height="1" /><rect shape-rendering="crispEdges" fill="rgb(230, 255, 57)"  x="19" y="6" width="1" height="1" /><rect shape-rendering="crispEdges" fill="rgb(213, 205, 172)"  x="19" y="7" width="1" height="1" /><rect shape-rendering="crispEdges" fill="rgb(205, 197, 172)"  x="19" y="8" width="1" height="1" /><rect shape-rendering="crispEdges" fill="rgb(197, 189, 172)"  x="19" y="9" width="1" height="1" /><rect shape-rendering="crispEdges" fill="rgb(246, 246, 24)"  x="19" y="10" width="1" height="1" /><rect shape-rendering="crispEdges" fill="rgb(246, 246, 24)"  x="19" y="11" width="1" height="1" /><rect shape-rendering="crispEdges" fill="rgb(156, 131, 123)"  x="19" y="12" width="1" height="1" /><rect shape-rendering="crispEdges" fill="rgb(238, 222, 16)"  x="19" y="13" width="1" height="1" /><rect shape-rendering="crispEdges" fill="rgb(213, 180, 8)"  x="19" y="14" width="1" height="1" /><rect shape-rendering="crispEdges" fill="rgb(164, 115, 115)"  x="19" y="15" width="1" height="1" /><rect shape-rendering="crispEdges" fill="rgb(156, 106, 90)"  x="19" y="16" width="1" height="1" /><rect shape-rendering="crispEdges" fill="rgb(172, 115, 98)"  x="19" y="17" width="1" height="1" /><rect shape-rendering="crispEdges" fill="rgb(255, 238, 98)"  x="19" y="18" width="1" height="1" /><rect shape-rendering="crispEdges" fill="rgb(115, 74, 82)"  x="19" y="19" width="1" height="1" /><rect shape-rendering="crispEdges" fill="rgb(90, 57, 65)"  x="19" y="20" width="1" height="1" /><rect shape-rendering="crispEdges" fill="rgb(90, 57, 65)"  x="19" y="21" width="1" height="1" /><rect shape-rendering="crispEdges" fill="rgb(82, 57, 90)"  x="19" y="22" width="1" height="1" /><rect shape-rendering="crispEdges" fill="rgb(82, 57, 90)"  x="19" y="23" width="1" height="1" /><rect shape-rendering="crispEdges" fill="rgb(82, 57, 90)"  x="19" y="24" width="1" height="1" /><rect shape-rendering="crispEdges" fill="rgb(115, 74, 82)"  x="19" y="25" width="1" height="1" /><rect shape-rendering="crispEdges" fill="rgb(90, 57, 65)"  x="19" y="26" width="1" height="1" /><rect shape-rendering="crispEdges" fill="rgb(82, 41, 148)"  x="19" y="27" width="1" height="1" /><rect shape-rendering="crispEdges" fill="rgb(49, 172, 131)"  x="19" y="28" width="1" height="1" /><rect shape-rendering="crispEdges" fill="rgb(8, 238, 90)"  x="19" y="29" width="1" height="1" /><rect shape-rendering="crispEdges" fill="rgb(16, 115, 131)"  x="19" y="30" width="1" height="1" /><rect shape-rendering="crispEdges" fill="rgb(164, 148, 148)"  x="20" y="5" width="1" height="1" /><rect shape-rendering="crispEdges" fill="rgb(205, 197, 189)"  x="20" y="6" width="1" height="1" /><rect shape-rendering="crispEdges" fill="rgb(246, 246, 24)"  x="20" y="7" width="1" height="1" /><rect shape-rendering="crispEdges" fill="rgb(189, 180, 164)"  x="20" y="8" width="1" height="1" /><rect shape-rendering="crispEdges" fill="rgb(205, 197, 189)"  x="20" y="9" width="1" height="1" /><rect shape-rendering="crispEdges" fill="rgb(197, 180, 180)"  x="20" y="10" width="1" height="1" /><rect shape-rendering="crispEdges" fill="rgb(238, 222, 16)"  x="20" y="11" width="1" height="1" /><rect shape-rendering="crispEdges" fill="rgb(205, 180, 172)"  x="20" y="12" width="1" height="1" /><rect shape-rendering="crispEdges" fill="rgb(164, 131, 131)"  x="20" y="13" width="1" height="1" /><rect shape-rendering="crispEdges" fill="rgb(139, 98, 82)"  x="20" y="14" width="1" height="1" /><rect shape-rendering="crispEdges" fill="rgb(139, 90, 82)"  x="20" y="15" width="1" height="1" /><rect shape-rendering="crispEdges" fill="rgb(230, 205, 98)"  x="20" y="16" width="1" height="1" /><rect shape-rendering="crispEdges" fill="rgb(230, 205, 98)"  x="20" y="17" width="1" height="1" /><rect shape-rendering="crispEdges" fill="rgb(230, 205, 98)"  x="20" y="18" width="1" height="1" /><rect shape-rendering="crispEdges" fill="rgb(90, 57, 90)"  x="20" y="19" width="1" height="1" /><rect shape-rendering="crispEdges" fill="rgb(90, 57, 65)"  x="20" y="20" width="1" height="1" /><rect shape-rendering="crispEdges" fill="rgb(115, 74, 82)"  x="20" y="21" width="1" height="1" /><rect shape-rendering="crispEdges" fill="rgb(156, 115, 106)"  x="20" y="22" width="1" height="1" /><rect shape-rendering="crispEdges" fill="rgb(156, 115, 106)"  x="20" y="23" width="1" height="1" /><rect shape-rendering="crispEdges" fill="rgb(156, 115, 106)"  x="20" y="24" width="1" height="1" /><rect shape-rendering="crispEdges" fill="rgb(131, 98, 90)"  x="20" y="25" width="1" height="1" /><rect shape-rendering="crispEdges" fill="rgb(90, 57, 65)"  x="20" y="26" width="1" height="1" /><rect shape-rendering="crispEdges" fill="rgb(16, 115, 131)"  x="20" y="27" width="1" height="1" /><rect shape-rendering="crispEdges" fill="rgb(49, 172, 131)"  x="20" y="28" width="1" height="1" /><rect shape-rendering="crispEdges" fill="rgb(24, 205, 115)"  x="20" y="29" width="1" height="1" /><rect shape-rendering="crispEdges" fill="rgb(16, 115, 131)"  x="20" y="30" width="1" height="1" /><rect shape-rendering="crispEdges" fill="rgb(148, 131, 139)"  x="21" y="6" width="1" height="1" /><rect shape-rendering="crispEdges" fill="rgb(180, 164, 172)"  x="21" y="7" width="1" height="1" /><rect shape-rendering="crispEdges" fill="rgb(246, 246, 24)"  x="21" y="8" width="1" height="1" /><rect shape-rendering="crispEdges" fill="rgb(238, 222, 16)"  x="21" y="9" width="1" height="1" /><rect shape-rendering="crispEdges" fill="rgb(213, 180, 8)"  x="21" y="10" width="1" height="1" /><rect shape-rendering="crispEdges" fill="rgb(213, 180, 8)"  x="21" y="11" width="1" height="1" /><rect shape-rendering="crispEdges" fill="rgb(172, 139, 148)"  x="21" y="12" width="1" height="1" /><rect shape-rendering="crispEdges" fill="rgb(131, 98, 90)"  x="21" y="13" width="1" height="1" /><rect shape-rendering="crispEdges" fill="rgb(172, 57, 0)"  x="21" y="14" width="1" height="1" /><rect shape-rendering="crispEdges" fill="rgb(156, 115, 106)"  x="21" y="15" width="1" height="1" /><rect shape-rendering="crispEdges" fill="rgb(98, 90, 123)"  x="21" y="16" width="1" height="1" /><rect shape-rendering="crispEdges" fill="rgb(123, 74, 82)"  x="21" y="17" width="1" height="1" /><rect shape-rendering="crispEdges" fill="rgb(98, 57, 82)"  x="21" y="18" width="1" height="1" /><rect shape-rendering="crispEdges" fill="rgb(189, 82, 0)"  x="21" y="19" width="1" height="1" /><rect shape-rendering="crispEdges" fill="rgb(90, 57, 65)"  x="21" y="20" width="1" height="1" /><rect shape-rendering="crispEdges" fill="rgb(131, 98, 90)"  x="21" y="21" width="1" height="1" /><rect shape-rendering="crispEdges" fill="rgb(131, 98, 90)"  x="21" y="22" width="1" height="1" /><rect shape-rendering="crispEdges" fill="rgb(115, 74, 82)"  x="21" y="23" width="1" height="1" /><rect shape-rendering="crispEdges" fill="rgb(115, 74, 82)"  x="21" y="24" width="1" height="1" /><rect shape-rendering="crispEdges" fill="rgb(90, 57, 65)"  x="21" y="25" width="1" height="1" /><rect shape-rendering="crispEdges" fill="rgb(82, 41, 148)"  x="21" y="26" width="1" height="1" /><rect shape-rendering="crispEdges" fill="rgb(8, 238, 90)"  x="21" y="27" width="1" height="1" /><rect shape-rendering="crispEdges" fill="rgb(16, 115, 131)"  x="21" y="28" width="1" height="1" /><rect shape-rendering="crispEdges" fill="rgb(16, 115, 131)"  x="21" y="29" width="1" height="1" /><rect shape-rendering="crispEdges" fill="rgb(131, 106, 131)"  x="22" y="8" width="1" height="1" /><rect shape-rendering="crispEdges" fill="rgb(131, 106, 131)"  x="22" y="9" width="1" height="1" /><rect shape-rendering="crispEdges" fill="rgb(106, 82, 98)"  x="22" y="10" width="1" height="1" /><rect shape-rendering="crispEdges" fill="rgb(106, 74, 98)"  x="22" y="11" width="1" height="1" /><rect shape-rendering="crispEdges" fill="rgb(180, 123, 16)"  x="22" y="12" width="1" height="1" /><rect shape-rendering="crispEdges" fill="rgb(246, 172, 24)"  x="22" y="13" width="1" height="1" /><rect shape-rendering="crispEdges" fill="rgb(172, 57, 0)"  x="22" y="14" width="1" height="1" /><rect shape-rendering="crispEdges" fill="rgb(172, 139, 123)"  x="22" y="15" width="1" height="1" /><rect shape-rendering="crispEdges" fill="rgb(131, 98, 90)"  x="22" y="16" width="1" height="1" /><rect shape-rendering="crispEdges" fill="rgb(131, 98, 90)"  x="22" y="17" width="1" height="1" /><rect shape-rendering="crispEdges" fill="rgb(172, 57, 0)"  x="22" y="18" width="1" height="1" /><rect shape-rendering="crispEdges" fill="rgb(255, 213, 57)"  x="22" y="19" width="1" height="1" /><rect shape-rendering="crispEdges" fill="rgb(189, 82, 0)"  x="22" y="20" width="1" height="1" /><rect shape-rendering="crispEdges" fill="rgb(90, 57, 65)"  x="22" y="21" width="1" height="1" /><rect shape-rendering="crispEdges" fill="rgb(90, 57, 65)"  x="22" y="22" width="1" height="1" /><rect shape-rendering="crispEdges" fill="rgb(213, 115, 8)"  x="22" y="23" width="1" height="1" /><rect shape-rendering="crispEdges" fill="rgb(255, 213, 57)"  x="22" y="24" width="1" height="1" /><rect shape-rendering="crispEdges" fill="rgb(189, 82, 0)"  x="22" y="25" width="1" height="1" /><rect shape-rendering="crispEdges" fill="rgb(8, 238, 90)"  x="22" y="26" width="1" height="1" /><rect shape-rendering="crispEdges" fill="rgb(8, 238, 90)"  x="22" y="27" width="1" height="1" /><rect shape-rendering="crispEdges" fill="rgb(24, 205, 115)"  x="22" y="28" width="1" height="1" /><rect shape-rendering="crispEdges" fill="rgb(49, 172, 131)"  x="22" y="29" width="1" height="1" /><rect shape-rendering="crispEdges" fill="rgb(172, 57, 0)"  x="23" y="10" width="1" height="1" /><rect shape-rendering="crispEdges" fill="rgb(213, 115, 8)"  x="23" y="11" width="1" height="1" /><rect shape-rendering="crispEdges" fill="rgb(246, 172, 24)"  x="23" y="12" width="1" height="1" /><rect shape-rendering="crispEdges" fill="rgb(255, 213, 57)"  x="23" y="13" width="1" height="1" /><rect shape-rendering="crispEdges" fill="rgb(189, 82, 0)"  x="23" y="14" width="1" height="1" /><rect shape-rendering="crispEdges" fill="rgb(115, 74, 82)"  x="23" y="15" width="1" height="1" /><rect shape-rendering="crispEdges" fill="rgb(90, 57, 65)"  x="23" y="16" width="1" height="1" /><rect shape-rendering="crispEdges" fill="rgb(172, 57, 0)"  x="23" y="17" width="1" height="1" /><rect shape-rendering="crispEdges" fill="rgb(189, 82, 0)"  x="23" y="18" width="1" height="1" /><rect shape-rendering="crispEdges" fill="rgb(213, 115, 8)"  x="23" y="19" width="1" height="1" /><rect shape-rendering="crispEdges" fill="rgb(189, 82, 0)"  x="23" y="20" width="1" height="1" /><rect shape-rendering="crispEdges" fill="rgb(115, 74, 82)"  x="23" y="22" width="1" height="1" /><rect shape-rendering="crispEdges" fill="rgb(189, 82, 0)"  x="23" y="23" width="1" height="1" /><rect shape-rendering="crispEdges" fill="rgb(255, 213, 57)"  x="23" y="24" width="1" height="1" /><rect shape-rendering="crispEdges" fill="rgb(255, 213, 57)"  x="23" y="25" width="1" height="1" /><rect shape-rendering="crispEdges" fill="rgb(189, 82, 0)"  x="23" y="26" width="1" height="1" /><rect shape-rendering="crispEdges" fill="rgb(90, 172, 98)"  x="23" y="27" width="1" height="1" /><rect shape-rendering="crispEdges" fill="rgb(16, 115, 131)"  x="23" y="28" width="1" height="1" /><rect shape-rendering="crispEdges" fill="rgb(172, 57, 0)"  x="24" y="10" width="1" height="1" /><rect shape-rendering="crispEdges" fill="rgb(246, 172, 24)"  x="24" y="11" width="1" height="1" /><rect shape-rendering="crispEdges" fill="rgb(255, 213, 57)"  x="24" y="12" width="1" height="1" /><rect shape-rendering="crispEdges" fill="rgb(189, 82, 0)"  x="24" y="13" width="1" height="1" /><rect shape-rendering="crispEdges" fill="rgb(213, 115, 8)"  x="24" y="24" width="1" height="1" /><rect shape-rendering="crispEdges" fill="rgb(246, 172, 24)"  x="24" y="25" width="1" height="1" /><rect shape-rendering="crispEdges" fill="rgb(189, 82, 0)"  x="24" y="26" width="1" height="1" /><rect shape-rendering="crispEdges" fill="rgb(16, 115, 131)"  x="24" y="27" width="1" height="1" /><rect shape-rendering="crispEdges" fill="rgb(189, 82, 0)"  x="25" y="11" width="1" height="1" /><rect shape-rendering="crispEdges" fill="rgb(172, 57, 0)"  x="25" y="12" width="1" height="1" /></svg>