<svg xmlns="http://www.w3.org/2000/svg" xmlns:xlink= "http://www.w3.org/1999/xlink" width="32" height="32" viewBox ="0 0 32 32"><rect shape-rendering="crispEdges" fill="rgb(255, 246, 180)"  x="2" y="25" width="1" height="1" /><rect shape-rendering="crispEdges" fill="rgb(255, 246, 197)"  x="2" y="26" width="1" height="1" /><rect shape-rendering="crispEdges" fill="rgb(255, 246, 197)"  x="2" y="27" width="1" height="1" /><rect shape-rendering="crispEdges" fill="rgb(255, 230, 115)"  x="2" y="28" width="1" height="1" /><rect shape-rendering="crispEdges" fill="rgb(90, 222, 213)"  x="3" y="25" width="1" height="1" /><rect shape-rendering="crispEdges" fill="rgb(90, 222, 213)"  x="3" y="26" width="1" height="1" /><rect shape-rendering="crispEdges" fill="rgb(32, 180, 172)"  x="3" y="27" width="1" height="1" /><rect shape-rendering="crispEdges" fill="rgb(255, 230, 115)"  x="3" y="28" width="1" height="1" /><rect shape-rendering="crispEdges" fill="rgb(148, 131, 106)"  x="4" y="24" width="1" height="1" /><rect shape-rendering="crispEdges" fill="rgb(189, 180, 156)"  x="4" y="25" width="1" height="1" /><rect shape-rendering="crispEdges" fill="rgb(189, 180, 156)"  x="4" y="26" width="1" height="1" /><rect shape-rendering="crispEdges" fill="rgb(32, 180, 172)"  x="4" y="27" width="1" height="1" /><rect shape-rendering="crispEdges" fill="rgb(255, 230, 115)"  x="4" y="28" width="1" height="1" /><rect shape-rendering="crispEdges" fill="rgb(148, 131, 106)"  x="5" y="23" width="1" height="1" /><rect shape-rendering="crispEdges" fill="rgb(189, 180, 156)"  x="5" y="24" width="1" height="1" /><rect shape-rendering="crispEdges" fill="rgb(189, 180, 156)"  x="5" y="25" width="1" height="1" /><rect shape-rendering="crispEdges" fill="rgb(164, 156, 123)"  x="5" y="26" width="1" height="1" /><rect shape-rendering="crispEdges" fill="rgb(32, 180, 172)"  x="5" y="27" width="1" height="1" /><rect shape-rendering="crispEdges" fill="rgb(255, 238, 156)"  x="5" y="28" width="1" height="1" /><rect shape-rendering="crispEdges" fill="rgb(189, 32, 0)"  x="6" y="23" width="1" height="1" /><rect shape-rendering="crispEdges" fill="rgb(189, 32, 0)"  x="6" y="24" width="1" height="1" /><rect shape-rendering="crispEdges" fill="rgb(164, 156, 123)"  x="6" y="25" width="1" height="1" /><rect shape-rendering="crispEdges" fill="rgb(148, 131, 106)"  x="6" y="26" width="1" height="1" /><rect shape-rendering="crispEdges" fill="rgb(222, 189, 90)"  x="7" y="21" width="1" height="1" /><rect shape-rendering="crispEdges" fill="rgb(189, 139, 32)"  x="7" y="22" width="1" height="1" /><rect shape-rendering="crispEdges" fill="rgb(189, 32, 0)"  x="7" y="23" width="1" height="1" /><rect shape-rendering="crispEdges" fill="rgb(189, 32, 0)"  x="7" y="24" width="1" height="1" /><rect shape-rendering="crispEdges" fill="rgb(148, 131, 106)"  x="7" y="25" width="1" height="1" /><rect shape-rendering="crispEdges" fill="rgb(222, 189, 90)"  x="8" y="20" width="1" height="1" /><rect shape-rendering="crispEdges" fill="rgb(246, 222, 139)"  x="8" y="21" width="1" height="1" /><rect shape-rendering="crispEdges" fill="rgb(222, 189, 90)"  x="8" y="22" width="1" height="1" /><rect shape-rendering="crispEdges" fill="rgb(164, 131, 24)"  x="8" y="23" width="1" height="1" /><rect shape-rendering="crispEdges" fill="rgb(164, 131, 24)"  x="8" y="24" width="1" height="1" /><rect shape-rendering="crispEdges" fill="rgb(222, 189, 90)"  x="9" y="19" width="1" height="1" /><rect shape-rendering="crispEdges" fill="rgb(246, 222, 139)"  x="9" y="20" width="1" height="1" /><rect shape-rendering="crispEdges" fill="rgb(222, 189, 90)"  x="9" y="21" width="1" height="1" /><rect shape-rendering="crispEdges" fill="rgb(180, 139, 49)"  x="9" y="22" width="1" height="1" /><rect shape-rendering="crispEdges" fill="rgb(164, 131, 24)"  x="9" y="23" width="1" height="1" /><rect shape-rendering="crispEdges" fill="rgb(222, 189, 90)"  x="10" y="18" width="1" height="1" /><rect shape-rendering="crispEdges" fill="rgb(246, 222, 139)"  x="10" y="19" width="1" height="1" /><rect shape-rendering="crispEdges" fill="rgb(222, 189, 90)"  x="10" y="20" width="1" height="1" /><rect shape-rendering="crispEdges" fill="rgb(180, 139, 49)"  x="10" y="21" width="1" height="1" /><rect shape-rendering="crispEdges" fill="rgb(164, 131, 24)"  x="10" y="22" width="1" height="1" /><rect shape-rendering="crispEdges" fill="rgb(222, 189, 90)"  x="11" y="17" width="1" height="1" /><rect shape-rendering="crispEdges" fill="rgb(246, 222, 139)"  x="11" y="18" width="1" height="1" /><rect shape-rendering="crispEdges" fill="rgb(222, 189, 90)"  x="11" y="19" width="1" height="1" /><rect shape-rendering="crispEdges" fill="rgb(205, 164, 65)"  x="11" y="20" width="1" height="1" /><rect shape-rendering="crispEdges" fill="rgb(156, 123, 24)"  x="11" y="21" width="1" height="1" /><rect shape-rendering="crispEdges" fill="rgb(222, 189, 90)"  x="12" y="16" width="1" height="1" /><rect shape-rendering="crispEdges" fill="rgb(189, 139, 32)"  x="12" y="17" width="1" height="1" /><rect shape-rendering="crispEdges" fill="rgb(222, 189, 90)"  x="12" y="18" width="1" height="1" /><rect shape-rendering="crispEdges" fill="rgb(205, 164, 65)"  x="12" y="19" width="1" height="1" /><rect shape-rendering="crispEdges" fill="rgb(156, 123, 24)"  x="12" y="20" width="1" height="1" /><rect shape-rendering="crispEdges" fill="rgb(189, 180, 156)"  x="13" y="15" width="1" height="1" /><rect shape-rendering="crispEdges" fill="rgb(222, 213, 197)"  x="13" y="16" width="1" height="1" /><rect shape-rendering="crispEdges" fill="rgb(189, 180, 156)"  x="13" y="17" width="1" height="1" /><rect shape-rendering="crispEdges" fill="rgb(189, 139, 32)"  x="13" y="18" width="1" height="1" /><rect shape-rendering="crispEdges" fill="rgb(156, 123, 24)"  x="13" y="19" width="1" height="1" /><rect shape-rendering="crispEdges" fill="rgb(197, 156, 98)"  x="14" y="14" width="1" height="1" /><rect shape-rendering="crispEdges" fill="rgb(222, 213, 197)"  x="14" y="15" width="1" height="1" /><rect shape-rendering="crispEdges" fill="rgb(189, 180, 156)"  x="14" y="16" width="1" height="1" /><rect shape-rendering="crispEdges" fill="rgb(164, 156, 131)"  x="14" y="17" width="1" height="1" /><rect shape-rendering="crispEdges" fill="rgb(164, 131, 24)"  x="14" y="18" width="1" height="1" /><rect shape-rendering="crispEdges" fill="rgb(82, 172, 189)"  x="15" y="13" width="1" height="1" /><rect shape-rendering="crispEdges" fill="rgb(246, 98, 24)"  x="15" y="14" width="1" height="1" /><rect shape-rendering="crispEdges" fill="rgb(246, 98, 24)"  x="15" y="15" width="1" height="1" /><rect shape-rendering="crispEdges" fill="rgb(164, 156, 131)"  x="15" y="16" width="1" height="1" /><rect shape-rendering="crispEdges" fill="rgb(148, 131, 106)"  x="15" y="17" width="1" height="1" /><rect shape-rendering="crispEdges" fill="rgb(123, 222, 246)"  x="16" y="12" width="1" height="1" /><rect shape-rendering="crispEdges" fill="rgb(123, 222, 246)"  x="16" y="13" width="1" height="1" /><rect shape-rendering="crispEdges" fill="rgb(246, 98, 24)"  x="16" y="14" width="1" height="1" /><rect shape-rendering="crispEdges" fill="rgb(213, 74, 0)"  x="16" y="15" width="1" height="1" /><rect shape-rendering="crispEdges" fill="rgb(148, 131, 106)"  x="16" y="16" width="1" height="1" /><rect shape-rendering="crispEdges" fill="rgb(238, 156, 49)"  x="17" y="5" width="1" height="1" /><rect shape-rendering="crispEdges" fill="rgb(255, 205, 82)"  x="17" y="6" width="1" height="1" /><rect shape-rendering="crispEdges" fill="rgb(255, 205, 82)"  x="17" y="7" width="1" height="1" /><rect shape-rendering="crispEdges" fill="rgb(255, 205, 82)"  x="17" y="8" width="1" height="1" /><rect shape-rendering="crispEdges" fill="rgb(255, 205, 82)"  x="17" y="9" width="1" height="1" /><rect shape-rendering="crispEdges" fill="rgb(238, 156, 49)"  x="17" y="10" width="1" height="1" /><rect shape-rendering="crispEdges" fill="rgb(189, 148, 65)"  x="17" y="11" width="1" height="1" /><rect shape-rendering="crispEdges" fill="rgb(123, 222, 246)"  x="17" y="12" width="1" height="1" /><rect shape-rendering="crispEdges" fill="rgb(123, 222, 246)"  x="17" y="13" width="1" height="1" /><rect shape-rendering="crispEdges" fill="rgb(82, 172, 189)"  x="17" y="14" width="1" height="1" /><rect shape-rendering="crispEdges" fill="rgb(213, 74, 0)"  x="17" y="15" width="1" height="1" /><rect shape-rendering="crispEdges" fill="rgb(213, 156, 65)"  x="18" y="5" width="1" height="1" /><rect shape-rendering="crispEdges" fill="rgb(213, 139, 32)"  x="18" y="6" width="1" height="1" /><rect shape-rendering="crispEdges" fill="rgb(213, 139, 32)"  x="18" y="7" width="1" height="1" /><rect shape-rendering="crispEdges" fill="rgb(213, 139, 32)"  x="18" y="8" width="1" height="1" /><rect shape-rendering="crispEdges" fill="rgb(213, 139, 32)"  x="18" y="9" width="1" height="1" /><rect shape-rendering="crispEdges" fill="rgb(255, 205, 82)"  x="18" y="10" width="1" height="1" /><rect shape-rendering="crispEdges" fill="rgb(230, 156, 57)"  x="18" y="11" width="1" height="1" /><rect shape-rendering="crispEdges" fill="rgb(197, 139, 49)"  x="18" y="12" width="1" height="1" /><rect shape-rendering="crispEdges" fill="rgb(82, 172, 189)"  x="18" y="13" width="1" height="1" /><rect shape-rendering="crispEdges" fill="rgb(82, 172, 189)"  x="18" y="14" width="1" height="1" /><rect shape-rendering="crispEdges" fill="rgb(57, 189, 180)"  x="19" y="6" width="1" height="1" /><rect shape-rendering="crispEdges" fill="rgb(24, 148, 131)"  x="19" y="7" width="1" height="1" /><rect shape-rendering="crispEdges" fill="rgb(0, 115, 90)"  x="19" y="8" width="1" height="1" /><rect shape-rendering="crispEdges" fill="rgb(65, 189, 172)"  x="19" y="9" width="1" height="1" /><rect shape-rendering="crispEdges" fill="rgb(213, 139, 32)"  x="19" y="10" width="1" height="1" /><rect shape-rendering="crispEdges" fill="rgb(255, 205, 82)"  x="19" y="11" width="1" height="1" /><rect shape-rendering="crispEdges" fill="rgb(238, 156, 49)"  x="19" y="12" width="1" height="1" /><rect shape-rendering="crispEdges" fill="rgb(180, 139, 57)"  x="19" y="13" width="1" height="1" /><rect shape-rendering="crispEdges" fill="rgb(16, 148, 131)"  x="20" y="6" width="1" height="1" /><rect shape-rendering="crispEdges" fill="rgb(0, 115, 90)"  x="20" y="7" width="1" height="1" /><rect shape-rendering="crispEdges" fill="rgb(49, 180, 164)"  x="20" y="8" width="1" height="1" /><rect shape-rendering="crispEdges" fill="rgb(0, 115, 90)"  x="20" y="9" width="1" height="1" /><rect shape-rendering="crispEdges" fill="rgb(8, 131, 106)"  x="20" y="10" width="1" height="1" /><rect shape-rendering="crispEdges" fill="rgb(238, 156, 49)"  x="20" y="11" width="1" height="1" /><rect shape-rendering="crispEdges" fill="rgb(255, 205, 82)"  x="20" y="12" width="1" height="1" /><rect shape-rendering="crispEdges" fill="rgb(213, 131, 32)"  x="20" y="13" width="1" height="1" /><rect shape-rendering="crispEdges" fill="rgb(255, 230, 106)"  x="21" y="2" width="1" height="1" /><rect shape-rendering="crispEdges" fill="rgb(255, 238, 123)"  x="21" y="3" width="1" height="1" /><rect shape-rendering="crispEdges" fill="rgb(255, 238, 123)"  x="21" y="4" width="1" height="1" /><rect shape-rendering="crispEdges" fill="rgb(255, 238, 123)"  x="21" y="5" width="1" height="1" /><rect shape-rendering="crispEdges" fill="rgb(255, 205, 82)"  x="21" y="6" width="1" height="1" /><rect shape-rendering="crispEdges" fill="rgb(255, 213, 82)"  x="21" y="7" width="1" height="1" /><rect shape-rendering="crispEdges" fill="rgb(255, 213, 82)"  x="21" y="8" width="1" height="1" /><rect shape-rendering="crispEdges" fill="rgb(222, 148, 41)"  x="21" y="9" width="1" height="1" /><rect shape-rendering="crispEdges" fill="rgb(16, 148, 123)"  x="21" y="10" width="1" height="1" /><rect shape-rendering="crispEdges" fill="rgb(16, 131, 115)"  x="21" y="11" width="1" height="1" /><rect shape-rendering="crispEdges" fill="rgb(255, 197, 74)"  x="21" y="12" width="1" height="1" /><rect shape-rendering="crispEdges" fill="rgb(213, 131, 32)"  x="21" y="13" width="1" height="1" /><rect shape-rendering="crispEdges" fill="rgb(255, 246, 197)"  x="22" y="2" width="1" height="1" /><rect shape-rendering="crispEdges" fill="rgb(0, 156, 90)"  x="22" y="3" width="1" height="1" /><rect shape-rendering="crispEdges" fill="rgb(32, 148, 74)"  x="22" y="4" width="1" height="1" /><rect shape-rendering="crispEdges" fill="rgb(255, 222, 106)"  x="22" y="5" width="1" height="1" /><rect shape-rendering="crispEdges" fill="rgb(139, 156, 98)"  x="22" y="6" width="1" height="1" /><rect shape-rendering="crispEdges" fill="rgb(57, 156, 148)"  x="22" y="7" width="1" height="1" /><rect shape-rendering="crispEdges" fill="rgb(255, 189, 74)"  x="22" y="8" width="1" height="1" /><rect shape-rendering="crispEdges" fill="rgb(213, 139, 32)"  x="22" y="9" width="1" height="1" /><rect shape-rendering="crispEdges" fill="rgb(32, 172, 156)"  x="22" y="10" width="1" height="1" /><rect shape-rendering="crispEdges" fill="rgb(57, 189, 180)"  x="22" y="11" width="1" height="1" /><rect shape-rendering="crispEdges" fill="rgb(255, 197, 65)"  x="22" y="12" width="1" height="1" /><rect shape-rendering="crispEdges" fill="rgb(213, 131, 32)"  x="22" y="13" width="1" height="1" /><rect shape-rendering="crispEdges" fill="rgb(255, 246, 197)"  x="23" y="2" width="1" height="1" /><rect shape-rendering="crispEdges" fill="rgb(213, 230, 98)"  x="23" y="3" width="1" height="1" /><rect shape-rendering="crispEdges" fill="rgb(255, 222, 98)"  x="23" y="4" width="1" height="1" /><rect shape-rendering="crispEdges" fill="rgb(255, 238, 131)"  x="23" y="5" width="1" height="1" /><rect shape-rendering="crispEdges" fill="rgb(255, 238, 115)"  x="23" y="6" width="1" height="1" /><rect shape-rendering="crispEdges" fill="rgb(255, 222, 106)"  x="23" y="7" width="1" height="1" /><rect shape-rendering="crispEdges" fill="rgb(255, 205, 90)"  x="23" y="8" width="1" height="1" /><rect shape-rendering="crispEdges" fill="rgb(213, 131, 32)"  x="23" y="9" width="1" height="1" /><rect shape-rendering="crispEdges" fill="rgb(8, 123, 106)"  x="23" y="10" width="1" height="1" /><rect shape-rendering="crispEdges" fill="rgb(41, 148, 139)"  x="23" y="11" width="1" height="1" /><rect shape-rendering="crispEdges" fill="rgb(255, 197, 65)"  x="23" y="12" width="1" height="1" /><rect shape-rendering="crispEdges" fill="rgb(213, 131, 32)"  x="23" y="13" width="1" height="1" /><rect shape-rendering="crispEdges" fill="rgb(255, 246, 197)"  x="24" y="2" width="1" height="1" /><rect shape-rendering="crispEdges" fill="rgb(238, 164, 49)"  x="24" y="3" width="1" height="1" /><rect shape-rendering="crispEdges" fill="rgb(230, 164, 49)"  x="24" y="4" width="1" height="1" /><rect shape-rendering="crispEdges" fill="rgb(230, 164, 65)"  x="24" y="5" width="1" height="1" /><rect shape-rendering="crispEdges" fill="rgb(255, 230, 115)"  x="24" y="6" width="1" height="1" /><rect shape-rendering="crispEdges" fill="rgb(8, 164, 90)"  x="24" y="7" width="1" height="1" /><rect shape-rendering="crispEdges" fill="rgb(255, 189, 74)"  x="24" y="8" width="1" height="1" /><rect shape-rendering="crispEdges" fill="rgb(213, 131, 32)"  x="24" y="9" width="1" height="1" /><rect shape-rendering="crispEdges" fill="rgb(0, 115, 90)"  x="24" y="10" width="1" height="1" /><rect shape-rendering="crispEdges" fill="rgb(0, 115, 90)"  x="24" y="11" width="1" height="1" /><rect shape-rendering="crispEdges" fill="rgb(255, 197, 65)"  x="24" y="12" width="1" height="1" /><rect shape-rendering="crispEdges" fill="rgb(213, 131, 32)"  x="24" y="13" width="1" height="1" /><rect shape-rendering="crispEdges" fill="rgb(255, 246, 172)"  x="25" y="2" width="1" height="1" /><rect shape-rendering="crispEdges" fill="rgb(0, 123, 49)"  x="25" y="3" width="1" height="1" /><rect shape-rendering="crispEdges" fill="rgb(0, 131, 57)"  x="25" y="4" width="1" height="1" /><rect shape-rendering="crispEdges" fill="rgb(0, 106, 49)"  x="25" y="5" width="1" height="1" /><rect shape-rendering="crispEdges" fill="rgb(255, 213, 98)"  x="25" y="6" width="1" height="1" /><rect shape-rendering="crispEdges" fill="rgb(8, 164, 90)"  x="25" y="7" width="1" height="1" /><rect shape-rendering="crispEdges" fill="rgb(255, 180, 65)"  x="25" y="8" width="1" height="1" /><rect shape-rendering="crispEdges" fill="rgb(205, 131, 32)"  x="25" y="9" width="1" height="1" /><rect shape-rendering="crispEdges" fill="rgb(49, 180, 164)"  x="25" y="10" width="1" height="1" /><rect shape-rendering="crispEdges" fill="rgb(57, 189, 180)"  x="25" y="11" width="1" height="1" /><rect shape-rendering="crispEdges" fill="rgb(172, 156, 65)"  x="25" y="12" width="1" height="1" /><rect shape-rendering="crispEdges" fill="rgb(213, 139, 32)"  x="25" y="13" width="1" height="1" /><rect shape-rendering="crispEdges" fill="rgb(255, 230, 106)"  x="26" y="2" width="1" height="1" /><rect shape-rendering="crispEdges" fill="rgb(0, 164, 74)"  x="26" y="3" width="1" height="1" /><rect shape-rendering="crispEdges" fill="rgb(139, 246, 139)"  x="26" y="4" width="1" height="1" /><rect shape-rendering="crispEdges" fill="rgb(0, 115, 49)"  x="26" y="5" width="1" height="1" /><rect shape-rendering="crispEdges" fill="rgb(131, 197, 90)"  x="26" y="6" width="1" height="1" /><rect shape-rendering="crispEdges" fill="rgb(255, 205, 74)"  x="26" y="7" width="1" height="1" /><rect shape-rendering="crispEdges" fill="rgb(255, 205, 82)"  x="26" y="8" width="1" height="1" /><rect shape-rendering="crispEdges" fill="rgb(213, 131, 32)"  x="26" y="9" width="1" height="1" /><rect shape-rendering="crispEdges" fill="rgb(255, 230, 106)"  x="27" y="2" width="1" height="1" /><rect shape-rendering="crispEdges" fill="rgb(65, 148, 82)"  x="27" y="3" width="1" height="1" /><rect shape-rendering="crispEdges" fill="rgb(0, 131, 57)"  x="27" y="4" width="1" height="1" /><rect shape-rendering="crispEdges" fill="rgb(0, 123, 49)"  x="27" y="5" width="1" height="1" /><rect shape-rendering="crispEdges" fill="rgb(255, 213, 98)"  x="27" y="6" width="1" height="1" /><rect shape-rendering="crispEdges" fill="rgb(16, 156, 90)"  x="27" y="7" width="1" height="1" /><rect shape-rendering="crispEdges" fill="rgb(238, 164, 49)"  x="27" y="8" width="1" height="1" /><rect shape-rendering="crispEdges" fill="rgb(205, 131, 32)"  x="27" y="9" width="1" height="1" /><rect shape-rendering="crispEdges" fill="rgb(246, 180, 65)"  x="28" y="2" width="1" height="1" /><rect shape-rendering="crispEdges" fill="rgb(238, 156, 49)"  x="28" y="3" width="1" height="1" /><rect shape-rendering="crispEdges" fill="rgb(238, 156, 49)"  x="28" y="4" width="1" height="1" /><rect shape-rendering="crispEdges" fill="rgb(222, 148, 41)"  x="28" y="5" width="1" height="1" /><rect shape-rendering="crispEdges" fill="rgb(222, 148, 41)"  x="28" y="6" width="1" height="1" /><rect shape-rendering="crispEdges" fill="rgb(213, 139, 32)"  x="28" y="7" width="1" height="1" /><rect shape-rendering="crispEdges" fill="rgb(213, 139, 32)"  x="28" y="8" width="1" height="1" /><rect shape-rendering="crispEdges" fill="rgb(213, 139, 32)"  x="28" y="9" width="1" height="1" /></svg>