<svg xmlns="http://www.w3.org/2000/svg" xmlns:xlink= "http://www.w3.org/1999/xlink" width="32" height="32" viewBox ="0 0 32 32"><rect shape-rendering="crispEdges" fill="rgb(213, 115, 8)"  x="1" y="7" width="1" height="1" /><rect shape-rendering="crispEdges" fill="rgb(213, 115, 8)"  x="1" y="8" width="1" height="1" /><rect shape-rendering="crispEdges" fill="rgb(189, 82, 0)"  x="1" y="9" width="1" height="1" /><rect shape-rendering="crispEdges" fill="rgb(189, 82, 0)"  x="1" y="10" width="1" height="1" /><rect shape-rendering="crispEdges" fill="rgb(156, 115, 74)"  x="1" y="11" width="1" height="1" /><rect shape-rendering="crispEdges" fill="rgb(156, 115, 74)"  x="2" y="4" width="1" height="1" /><rect shape-rendering="crispEdges" fill="rgb(213, 115, 8)"  x="2" y="7" width="1" height="1" /><rect shape-rendering="crispEdges" fill="rgb(255, 213, 57)"  x="2" y="8" width="1" height="1" /><rect shape-rendering="crispEdges" fill="rgb(255, 213, 57)"  x="2" y="9" width="1" height="1" /><rect shape-rendering="crispEdges" fill="rgb(246, 172, 24)"  x="2" y="10" width="1" height="1" /><rect shape-rendering="crispEdges" fill="rgb(156, 115, 74)"  x="2" y="11" width="1" height="1" /><rect shape-rendering="crispEdges" fill="rgb(156, 115, 74)"  x="3" y="3" width="1" height="1" /><rect shape-rendering="crispEdges" fill="rgb(205, 164, 106)"  x="3" y="4" width="1" height="1" /><rect shape-rendering="crispEdges" fill="rgb(131, 90, 57)"  x="3" y="5" width="1" height="1" /><rect shape-rendering="crispEdges" fill="rgb(213, 115, 8)"  x="3" y="8" width="1" height="1" /><rect shape-rendering="crispEdges" fill="rgb(255, 213, 57)"  x="3" y="9" width="1" height="1" /><rect shape-rendering="crispEdges" fill="rgb(246, 172, 24)"  x="3" y="10" width="1" height="1" /><rect shape-rendering="crispEdges" fill="rgb(156, 115, 74)"  x="3" y="11" width="1" height="1" /><rect shape-rendering="crispEdges" fill="rgb(180, 139, 90)"  x="4" y="3" width="1" height="1" /><rect shape-rendering="crispEdges" fill="rgb(255, 213, 57)"  x="4" y="4" width="1" height="1" /><rect shape-rendering="crispEdges" fill="rgb(255, 213, 57)"  x="4" y="5" width="1" height="1" /><rect shape-rendering="crispEdges" fill="rgb(131, 90, 57)"  x="4" y="6" width="1" height="1" /><rect shape-rendering="crispEdges" fill="rgb(213, 115, 8)"  x="4" y="9" width="1" height="1" /><rect shape-rendering="crispEdges" fill="rgb(255, 213, 57)"  x="4" y="10" width="1" height="1" /><rect shape-rendering="crispEdges" fill="rgb(156, 115, 74)"  x="4" y="11" width="1" height="1" /><rect shape-rendering="crispEdges" fill="rgb(180, 139, 90)"  x="5" y="2" width="1" height="1" /><rect shape-rendering="crispEdges" fill="rgb(246, 172, 24)"  x="5" y="3" width="1" height="1" /><rect shape-rendering="crispEdges" fill="rgb(246, 172, 24)"  x="5" y="4" width="1" height="1" /><rect shape-rendering="crispEdges" fill="rgb(213, 115, 8)"  x="5" y="5" width="1" height="1" /><rect shape-rendering="crispEdges" fill="rgb(156, 115, 74)"  x="5" y="6" width="1" height="1" /><rect shape-rendering="crispEdges" fill="rgb(156, 115, 74)"  x="5" y="7" width="1" height="1" /><rect shape-rendering="crispEdges" fill="rgb(213, 115, 8)"  x="5" y="10" width="1" height="1" /><rect shape-rendering="crispEdges" fill="rgb(189, 82, 0)"  x="5" y="11" width="1" height="1" /><rect shape-rendering="crispEdges" fill="rgb(180, 139, 90)"  x="6" y="2" width="1" height="1" /><rect shape-rendering="crispEdges" fill="rgb(255, 213, 57)"  x="6" y="3" width="1" height="1" /><rect shape-rendering="crispEdges" fill="rgb(156, 98, 82)"  x="6" y="4" width="1" height="1" /><rect shape-rendering="crispEdges" fill="rgb(180, 131, 106)"  x="6" y="5" width="1" height="1" /><rect shape-rendering="crispEdges" fill="rgb(156, 115, 74)"  x="6" y="6" width="1" height="1" /><rect shape-rendering="crispEdges" fill="rgb(246, 172, 24)"  x="6" y="7" width="1" height="1" /><rect shape-rendering="crispEdges" fill="rgb(131, 90, 57)"  x="6" y="8" width="1" height="1" /><rect shape-rendering="crispEdges" fill="rgb(180, 139, 90)"  x="7" y="2" width="1" height="1" /><rect shape-rendering="crispEdges" fill="rgb(255, 213, 57)"  x="7" y="3" width="1" height="1" /><rect shape-rendering="crispEdges" fill="rgb(156, 98, 82)"  x="7" y="4" width="1" height="1" /><rect shape-rendering="crispEdges" fill="rgb(180, 131, 106)"  x="7" y="5" width="1" height="1" /><rect shape-rendering="crispEdges" fill="rgb(156, 115, 74)"  x="7" y="6" width="1" height="1" /><rect shape-rendering="crispEdges" fill="rgb(246, 172, 24)"  x="7" y="7" width="1" height="1" /><rect shape-rendering="crispEdges" fill="rgb(180, 139, 90)"  x="7" y="8" width="1" height="1" /><rect shape-rendering="crispEdges" fill="rgb(156, 115, 74)"  x="7" y="12" width="1" height="1" /><rect shape-rendering="crispEdges" fill="rgb(131, 90, 57)"  x="7" y="13" width="1" height="1" /><rect shape-rendering="crispEdges" fill="rgb(131, 90, 57)"  x="7" y="14" width="1" height="1" /><rect shape-rendering="crispEdges" fill="rgb(131, 90, 57)"  x="7" y="15" width="1" height="1" /><rect shape-rendering="crispEdges" fill="rgb(131, 90, 57)"  x="7" y="16" width="1" height="1" /><rect shape-rendering="crispEdges" fill="rgb(131, 90, 57)"  x="7" y="17" width="1" height="1" /><rect shape-rendering="crispEdges" fill="rgb(180, 139, 90)"  x="8" y="2" width="1" height="1" /><rect shape-rendering="crispEdges" fill="rgb(255, 213, 57)"  x="8" y="3" width="1" height="1" /><rect shape-rendering="crispEdges" fill="rgb(180, 131, 106)"  x="8" y="4" width="1" height="1" /><rect shape-rendering="crispEdges" fill="rgb(205, 156, 123)"  x="8" y="5" width="1" height="1" /><rect shape-rendering="crispEdges" fill="rgb(238, 148, 16)"  x="8" y="6" width="1" height="1" /><rect shape-rendering="crispEdges" fill="rgb(131, 90, 57)"  x="8" y="7" width="1" height="1" /><rect shape-rendering="crispEdges" fill="rgb(156, 115, 74)"  x="8" y="12" width="1" height="1" /><rect shape-rendering="crispEdges" fill="rgb(246, 172, 24)"  x="8" y="13" width="1" height="1" /><rect shape-rendering="crispEdges" fill="rgb(180, 139, 90)"  x="8" y="14" width="1" height="1" /><rect shape-rendering="crispEdges" fill="rgb(180, 139, 90)"  x="8" y="15" width="1" height="1" /><rect shape-rendering="crispEdges" fill="rgb(205, 164, 106)"  x="8" y="16" width="1" height="1" /><rect shape-rendering="crispEdges" fill="rgb(131, 90, 57)"  x="8" y="17" width="1" height="1" /><rect shape-rendering="crispEdges" fill="rgb(205, 164, 106)"  x="9" y="2" width="1" height="1" /><rect shape-rendering="crispEdges" fill="rgb(255, 213, 57)"  x="9" y="3" width="1" height="1" /><rect shape-rendering="crispEdges" fill="rgb(180, 131, 106)"  x="9" y="4" width="1" height="1" /><rect shape-rendering="crispEdges" fill="rgb(205, 156, 123)"  x="9" y="5" width="1" height="1" /><rect shape-rendering="crispEdges" fill="rgb(246, 172, 24)"  x="9" y="6" width="1" height="1" /><rect shape-rendering="crispEdges" fill="rgb(131, 90, 57)"  x="9" y="7" width="1" height="1" /><rect shape-rendering="crispEdges" fill="rgb(180, 139, 90)"  x="9" y="12" width="1" height="1" /><rect shape-rendering="crispEdges" fill="rgb(246, 172, 24)"  x="9" y="13" width="1" height="1" /><rect shape-rendering="crispEdges" fill="rgb(180, 139, 90)"  x="9" y="14" width="1" height="1" /><rect shape-rendering="crispEdges" fill="rgb(205, 156, 123)"  x="9" y="15" width="1" height="1" /><rect shape-rendering="crispEdges" fill="rgb(255, 213, 57)"  x="9" y="16" width="1" height="1" /><rect shape-rendering="crispEdges" fill="rgb(131, 90, 57)"  x="9" y="17" width="1" height="1" /><rect shape-rendering="crispEdges" fill="rgb(205, 164, 106)"  x="10" y="2" width="1" height="1" /><rect shape-rendering="crispEdges" fill="rgb(255, 213, 57)"  x="10" y="3" width="1" height="1" /><rect shape-rendering="crispEdges" fill="rgb(180, 131, 106)"  x="10" y="4" width="1" height="1" /><rect shape-rendering="crispEdges" fill="rgb(156, 115, 74)"  x="10" y="5" width="1" height="1" /><rect shape-rendering="crispEdges" fill="rgb(246, 172, 24)"  x="10" y="6" width="1" height="1" /><rect shape-rendering="crispEdges" fill="rgb(238, 148, 16)"  x="10" y="7" width="1" height="1" /><rect shape-rendering="crispEdges" fill="rgb(131, 90, 57)"  x="10" y="8" width="1" height="1" /><rect shape-rendering="crispEdges" fill="rgb(180, 139, 90)"  x="10" y="11" width="1" height="1" /><rect shape-rendering="crispEdges" fill="rgb(246, 172, 24)"  x="10" y="12" width="1" height="1" /><rect shape-rendering="crispEdges" fill="rgb(180, 139, 90)"  x="10" y="13" width="1" height="1" /><rect shape-rendering="crispEdges" fill="rgb(205, 156, 123)"  x="10" y="14" width="1" height="1" /><rect shape-rendering="crispEdges" fill="rgb(180, 131, 106)"  x="10" y="15" width="1" height="1" /><rect shape-rendering="crispEdges" fill="rgb(255, 213, 57)"  x="10" y="16" width="1" height="1" /><rect shape-rendering="crispEdges" fill="rgb(156, 115, 74)"  x="10" y="17" width="1" height="1" /><rect shape-rendering="crispEdges" fill="rgb(180, 139, 90)"  x="11" y="2" width="1" height="1" /><rect shape-rendering="crispEdges" fill="rgb(255, 213, 57)"  x="11" y="3" width="1" height="1" /><rect shape-rendering="crispEdges" fill="rgb(156, 115, 74)"  x="11" y="4" width="1" height="1" /><rect shape-rendering="crispEdges" fill="rgb(180, 131, 106)"  x="11" y="5" width="1" height="1" /><rect shape-rendering="crispEdges" fill="rgb(156, 115, 74)"  x="11" y="6" width="1" height="1" /><rect shape-rendering="crispEdges" fill="rgb(246, 172, 24)"  x="11" y="7" width="1" height="1" /><rect shape-rendering="crispEdges" fill="rgb(238, 148, 16)"  x="11" y="8" width="1" height="1" /><rect shape-rendering="crispEdges" fill="rgb(131, 90, 57)"  x="11" y="9" width="1" height="1" /><rect shape-rendering="crispEdges" fill="rgb(131, 90, 57)"  x="11" y="10" width="1" height="1" /><rect shape-rendering="crispEdges" fill="rgb(246, 172, 24)"  x="11" y="11" width="1" height="1" /><rect shape-rendering="crispEdges" fill="rgb(180, 139, 90)"  x="11" y="12" width="1" height="1" /><rect shape-rendering="crispEdges" fill="rgb(205, 156, 123)"  x="11" y="13" width="1" height="1" /><rect shape-rendering="crispEdges" fill="rgb(156, 115, 74)"  x="11" y="14" width="1" height="1" /><rect shape-rendering="crispEdges" fill="rgb(180, 131, 106)"  x="11" y="15" width="1" height="1" /><rect shape-rendering="crispEdges" fill="rgb(246, 172, 24)"  x="11" y="16" width="1" height="1" /><rect shape-rendering="crispEdges" fill="rgb(156, 115, 74)"  x="11" y="17" width="1" height="1" /><rect shape-rendering="crispEdges" fill="rgb(180, 139, 90)"  x="12" y="2" width="1" height="1" /><rect shape-rendering="crispEdges" fill="rgb(246, 172, 24)"  x="12" y="3" width="1" height="1" /><rect shape-rendering="crispEdges" fill="rgb(156, 115, 74)"  x="12" y="4" width="1" height="1" /><rect shape-rendering="crispEdges" fill="rgb(156, 115, 74)"  x="12" y="5" width="1" height="1" /><rect shape-rendering="crispEdges" fill="rgb(205, 156, 123)"  x="12" y="6" width="1" height="1" /><rect shape-rendering="crispEdges" fill="rgb(156, 115, 74)"  x="12" y="7" width="1" height="1" /><rect shape-rendering="crispEdges" fill="rgb(205, 156, 123)"  x="12" y="8" width="1" height="1" /><rect shape-rendering="crispEdges" fill="rgb(246, 172, 24)"  x="12" y="9" width="1" height="1" /><rect shape-rendering="crispEdges" fill="rgb(246, 172, 24)"  x="12" y="10" width="1" height="1" /><rect shape-rendering="crispEdges" fill="rgb(156, 115, 74)"  x="12" y="11" width="1" height="1" /><rect shape-rendering="crispEdges" fill="rgb(180, 131, 106)"  x="12" y="12" width="1" height="1" /><rect shape-rendering="crispEdges" fill="rgb(230, 180, 139)"  x="12" y="13" width="1" height="1" /><rect shape-rendering="crispEdges" fill="rgb(156, 115, 74)"  x="12" y="14" width="1" height="1" /><rect shape-rendering="crispEdges" fill="rgb(156, 115, 74)"  x="12" y="15" width="1" height="1" /><rect shape-rendering="crispEdges" fill="rgb(246, 172, 24)"  x="12" y="16" width="1" height="1" /><rect shape-rendering="crispEdges" fill="rgb(156, 115, 74)"  x="12" y="17" width="1" height="1" /><rect shape-rendering="crispEdges" fill="rgb(180, 139, 90)"  x="13" y="3" width="1" height="1" /><rect shape-rendering="crispEdges" fill="rgb(255, 213, 57)"  x="13" y="4" width="1" height="1" /><rect shape-rendering="crispEdges" fill="rgb(180, 131, 106)"  x="13" y="5" width="1" height="1" /><rect shape-rendering="crispEdges" fill="rgb(205, 156, 123)"  x="13" y="6" width="1" height="1" /><rect shape-rendering="crispEdges" fill="rgb(156, 115, 74)"  x="13" y="7" width="1" height="1" /><rect shape-rendering="crispEdges" fill="rgb(230, 180, 139)"  x="13" y="8" width="1" height="1" /><rect shape-rendering="crispEdges" fill="rgb(156, 115, 74)"  x="13" y="9" width="1" height="1" /><rect shape-rendering="crispEdges" fill="rgb(180, 131, 106)"  x="13" y="10" width="1" height="1" /><rect shape-rendering="crispEdges" fill="rgb(156, 115, 74)"  x="13" y="11" width="1" height="1" /><rect shape-rendering="crispEdges" fill="rgb(156, 115, 74)"  x="13" y="12" width="1" height="1" /><rect shape-rendering="crispEdges" fill="rgb(156, 98, 82)"  x="13" y="13" width="1" height="1" /><rect shape-rendering="crispEdges" fill="rgb(180, 131, 106)"  x="13" y="14" width="1" height="1" /><rect shape-rendering="crispEdges" fill="rgb(246, 172, 24)"  x="13" y="15" width="1" height="1" /><rect shape-rendering="crispEdges" fill="rgb(156, 115, 74)"  x="13" y="16" width="1" height="1" /><rect shape-rendering="crispEdges" fill="rgb(180, 139, 90)"  x="14" y="4" width="1" height="1" /><rect shape-rendering="crispEdges" fill="rgb(255, 238, 90)"  x="14" y="5" width="1" height="1" /><rect shape-rendering="crispEdges" fill="rgb(156, 115, 74)"  x="14" y="6" width="1" height="1" /><rect shape-rendering="crispEdges" fill="rgb(156, 115, 74)"  x="14" y="7" width="1" height="1" /><rect shape-rendering="crispEdges" fill="rgb(180, 131, 106)"  x="14" y="8" width="1" height="1" /><rect shape-rendering="crispEdges" fill="rgb(156, 115, 74)"  x="14" y="9" width="1" height="1" /><rect shape-rendering="crispEdges" fill="rgb(156, 115, 74)"  x="14" y="10" width="1" height="1" /><rect shape-rendering="crispEdges" fill="rgb(205, 156, 123)"  x="14" y="11" width="1" height="1" /><rect shape-rendering="crispEdges" fill="rgb(156, 115, 74)"  x="14" y="12" width="1" height="1" /><rect shape-rendering="crispEdges" fill="rgb(205, 164, 106)"  x="14" y="13" width="1" height="1" /><rect shape-rendering="crispEdges" fill="rgb(246, 172, 24)"  x="14" y="14" width="1" height="1" /><rect shape-rendering="crispEdges" fill="rgb(156, 115, 74)"  x="14" y="15" width="1" height="1" /><rect shape-rendering="crispEdges" fill="rgb(180, 139, 90)"  x="14" y="16" width="1" height="1" /><rect shape-rendering="crispEdges" fill="rgb(131, 90, 57)"  x="14" y="17" width="1" height="1" /><rect shape-rendering="crispEdges" fill="rgb(180, 139, 90)"  x="15" y="5" width="1" height="1" /><rect shape-rendering="crispEdges" fill="rgb(255, 238, 90)"  x="15" y="6" width="1" height="1" /><rect shape-rendering="crispEdges" fill="rgb(255, 238, 90)"  x="15" y="7" width="1" height="1" /><rect shape-rendering="crispEdges" fill="rgb(255, 238, 90)"  x="15" y="8" width="1" height="1" /><rect shape-rendering="crispEdges" fill="rgb(255, 213, 57)"  x="15" y="9" width="1" height="1" /><rect shape-rendering="crispEdges" fill="rgb(255, 213, 57)"  x="15" y="10" width="1" height="1" /><rect shape-rendering="crispEdges" fill="rgb(246, 172, 24)"  x="15" y="11" width="1" height="1" /><rect shape-rendering="crispEdges" fill="rgb(246, 172, 24)"  x="15" y="12" width="1" height="1" /><rect shape-rendering="crispEdges" fill="rgb(213, 115, 8)"  x="15" y="13" width="1" height="1" /><rect shape-rendering="crispEdges" fill="rgb(180, 139, 90)"  x="15" y="14" width="1" height="1" /><rect shape-rendering="crispEdges" fill="rgb(213, 115, 8)"  x="15" y="15" width="1" height="1" /><rect shape-rendering="crispEdges" fill="rgb(255, 238, 90)"  x="15" y="16" width="1" height="1" /><rect shape-rendering="crispEdges" fill="rgb(246, 172, 24)"  x="15" y="17" width="1" height="1" /><rect shape-rendering="crispEdges" fill="rgb(197, 57, 57)"  x="15" y="18" width="1" height="1" /><rect shape-rendering="crispEdges" fill="rgb(205, 164, 106)"  x="16" y="6" width="1" height="1" /><rect shape-rendering="crispEdges" fill="rgb(180, 139, 90)"  x="16" y="7" width="1" height="1" /><rect shape-rendering="crispEdges" fill="rgb(180, 139, 90)"  x="16" y="8" width="1" height="1" /><rect shape-rendering="crispEdges" fill="rgb(156, 115, 74)"  x="16" y="9" width="1" height="1" /><rect shape-rendering="crispEdges" fill="rgb(156, 115, 74)"  x="16" y="10" width="1" height="1" /><rect shape-rendering="crispEdges" fill="rgb(180, 139, 90)"  x="16" y="11" width="1" height="1" /><rect shape-rendering="crispEdges" fill="rgb(180, 139, 90)"  x="16" y="12" width="1" height="1" /><rect shape-rendering="crispEdges" fill="rgb(189, 82, 0)"  x="16" y="15" width="1" height="1" /><rect shape-rendering="crispEdges" fill="rgb(246, 172, 24)"  x="16" y="16" width="1" height="1" /><rect shape-rendering="crispEdges" fill="rgb(255, 213, 57)"  x="16" y="17" width="1" height="1" /><rect shape-rendering="crispEdges" fill="rgb(156, 41, 41)"  x="16" y="18" width="1" height="1" /><rect shape-rendering="crispEdges" fill="rgb(156, 41, 41)"  x="16" y="19" width="1" height="1" /><rect shape-rendering="crispEdges" fill="rgb(189, 82, 0)"  x="17" y="16" width="1" height="1" /><rect shape-rendering="crispEdges" fill="rgb(156, 41, 41)"  x="17" y="17" width="1" height="1" /><rect shape-rendering="crispEdges" fill="rgb(238, 115, 106)"  x="17" y="18" width="1" height="1" /><rect shape-rendering="crispEdges" fill="rgb(255, 189, 164)"  x="17" y="19" width="1" height="1" /><rect shape-rendering="crispEdges" fill="rgb(156, 41, 41)"  x="17" y="20" width="1" height="1" /><rect shape-rendering="crispEdges" fill="rgb(230, 74, 74)"  x="18" y="17" width="1" height="1" /><rect shape-rendering="crispEdges" fill="rgb(255, 189, 164)"  x="18" y="18" width="1" height="1" /><rect shape-rendering="crispEdges" fill="rgb(197, 57, 57)"  x="18" y="19" width="1" height="1" /><rect shape-rendering="crispEdges" fill="rgb(131, 90, 57)"  x="18" y="20" width="1" height="1" /><rect shape-rendering="crispEdges" fill="rgb(230, 74, 74)"  x="19" y="18" width="1" height="1" /><rect shape-rendering="crispEdges" fill="rgb(180, 139, 90)"  x="19" y="19" width="1" height="1" /><rect shape-rendering="crispEdges" fill="rgb(238, 115, 106)"  x="19" y="20" width="1" height="1" /><rect shape-rendering="crispEdges" fill="rgb(156, 115, 74)"  x="19" y="21" width="1" height="1" /><rect shape-rendering="crispEdges" fill="rgb(180, 139, 90)"  x="20" y="20" width="1" height="1" /><rect shape-rendering="crispEdges" fill="rgb(238, 115, 106)"  x="20" y="21" width="1" height="1" /><rect shape-rendering="crispEdges" fill="rgb(131, 90, 57)"  x="20" y="22" width="1" height="1" /><rect shape-rendering="crispEdges" fill="rgb(156, 115, 74)"  x="20" y="23" width="1" height="1" /><rect shape-rendering="crispEdges" fill="rgb(131, 90, 57)"  x="21" y="21" width="1" height="1" /><rect shape-rendering="crispEdges" fill="rgb(131, 90, 57)"  x="21" y="22" width="1" height="1" /><rect shape-rendering="crispEdges" fill="rgb(222, 189, 131)"  x="21" y="23" width="1" height="1" /><rect shape-rendering="crispEdges" fill="rgb(156, 115, 74)"  x="21" y="24" width="1" height="1" /><rect shape-rendering="crispEdges" fill="rgb(156, 115, 74)"  x="22" y="21" width="1" height="1" /><rect shape-rendering="crispEdges" fill="rgb(180, 139, 90)"  x="22" y="22" width="1" height="1" /><rect shape-rendering="crispEdges" fill="rgb(156, 115, 74)"  x="22" y="23" width="1" height="1" /><rect shape-rendering="crispEdges" fill="rgb(131, 90, 57)"  x="22" y="24" width="1" height="1" /><rect shape-rendering="crispEdges" fill="rgb(156, 115, 74)"  x="22" y="25" width="1" height="1" /><rect shape-rendering="crispEdges" fill="rgb(156, 115, 74)"  x="23" y="22" width="1" height="1" /><rect shape-rendering="crispEdges" fill="rgb(131, 90, 57)"  x="23" y="23" width="1" height="1" /><rect shape-rendering="crispEdges" fill="rgb(246, 172, 24)"  x="23" y="24" width="1" height="1" /><rect shape-rendering="crispEdges" fill="rgb(238, 148, 16)"  x="23" y="25" width="1" height="1" /><rect shape-rendering="crispEdges" fill="rgb(156, 115, 74)"  x="23" y="26" width="1" height="1" /><rect shape-rendering="crispEdges" fill="rgb(213, 115, 8)"  x="24" y="23" width="1" height="1" /><rect shape-rendering="crispEdges" fill="rgb(255, 238, 90)"  x="24" y="24" width="1" height="1" /><rect shape-rendering="crispEdges" fill="rgb(246, 172, 24)"  x="24" y="25" width="1" height="1" /><rect shape-rendering="crispEdges" fill="rgb(213, 115, 8)"  x="24" y="26" width="1" height="1" /><rect shape-rendering="crispEdges" fill="rgb(131, 90, 57)"  x="24" y="27" width="1" height="1" /><rect shape-rendering="crispEdges" fill="rgb(213, 115, 8)"  x="25" y="24" width="1" height="1" /><rect shape-rendering="crispEdges" fill="rgb(255, 238, 90)"  x="25" y="25" width="1" height="1" /><rect shape-rendering="crispEdges" fill="rgb(213, 115, 8)"  x="25" y="26" width="1" height="1" /><rect shape-rendering="crispEdges" fill="rgb(156, 115, 74)"  x="25" y="27" width="1" height="1" /><rect shape-rendering="crispEdges" fill="rgb(213, 115, 8)"  x="26" y="25" width="1" height="1" /><rect shape-rendering="crispEdges" fill="rgb(156, 115, 74)"  x="26" y="26" width="1" height="1" /><rect shape-rendering="crispEdges" fill="rgb(238, 148, 16)"  x="26" y="27" width="1" height="1" /><rect shape-rendering="crispEdges" fill="rgb(156, 115, 74)"  x="26" y="28" width="1" height="1" /><rect shape-rendering="crispEdges" fill="rgb(156, 115, 74)"  x="27" y="26" width="1" height="1" /><rect shape-rendering="crispEdges" fill="rgb(156, 115, 74)"  x="27" y="27" width="1" height="1" /><rect shape-rendering="crispEdges" fill="rgb(180, 139, 90)"  x="27" y="28" width="1" height="1" /><rect shape-rendering="crispEdges" fill="rgb(156, 115, 74)"  x="27" y="29" width="1" height="1" /><rect shape-rendering="crispEdges" fill="rgb(156, 115, 74)"  x="28" y="27" width="1" height="1" /><rect shape-rendering="crispEdges" fill="rgb(246, 172, 24)"  x="28" y="28" width="1" height="1" /><rect shape-rendering="crispEdges" fill="rgb(213, 115, 8)"  x="28" y="29" width="1" height="1" /><rect shape-rendering="crispEdges" fill="rgb(180, 139, 90)"  x="28" y="30" width="1" height="1" /><rect shape-rendering="crispEdges" fill="rgb(156, 115, 74)"  x="29" y="28" width="1" height="1" /><rect shape-rendering="crispEdges" fill="rgb(246, 172, 24)"  x="29" y="29" width="1" height="1" /><rect shape-rendering="crispEdges" fill="rgb(131, 90, 57)"  x="29" y="30" width="1" height="1" /><rect shape-rendering="crispEdges" fill="rgb(156, 115, 74)"  x="30" y="29" width="1" height="1" /><rect shape-rendering="crispEdges" fill="rgb(156, 115, 74)"  x="30" y="30" width="1" height="1" /></svg>