<svg xmlns="http://www.w3.org/2000/svg" xmlns:xlink= "http://www.w3.org/1999/xlink" width="32" height="32" viewBox ="0 0 32 32"><rect shape-rendering="crispEdges" fill="rgb(246, 205, 164)"  x="2" y="2" width="1" height="1" /><rect shape-rendering="crispEdges" fill="rgb(222, 164, 131)"  x="2" y="3" width="1" height="1" /><rect shape-rendering="crispEdges" fill="rgb(222, 164, 131)"  x="2" y="4" width="1" height="1" /><rect shape-rendering="crispEdges" fill="rgb(222, 164, 131)"  x="2" y="5" width="1" height="1" /><rect shape-rendering="crispEdges" fill="rgb(222, 164, 131)"  x="2" y="6" width="1" height="1" /><rect shape-rendering="crispEdges" fill="rgb(222, 164, 131)"  x="2" y="7" width="1" height="1" /><rect shape-rendering="crispEdges" fill="rgb(222, 164, 131)"  x="2" y="8" width="1" height="1" /><rect shape-rendering="crispEdges" fill="rgb(222, 164, 131)"  x="2" y="9" width="1" height="1" /><rect shape-rendering="crispEdges" fill="rgb(180, 131, 115)"  x="2" y="10" width="1" height="1" /><rect shape-rendering="crispEdges" fill="rgb(255, 222, 180)"  x="3" y="2" width="1" height="1" /><rect shape-rendering="crispEdges" fill="rgb(246, 230, 197)"  x="3" y="3" width="1" height="1" /><rect shape-rendering="crispEdges" fill="rgb(222, 205, 164)"  x="3" y="4" width="1" height="1" /><rect shape-rendering="crispEdges" fill="rgb(222, 205, 164)"  x="3" y="5" width="1" height="1" /><rect shape-rendering="crispEdges" fill="rgb(222, 205, 164)"  x="3" y="6" width="1" height="1" /><rect shape-rendering="crispEdges" fill="rgb(246, 230, 189)"  x="3" y="7" width="1" height="1" /><rect shape-rendering="crispEdges" fill="rgb(255, 255, 230)"  x="3" y="8" width="1" height="1" /><rect shape-rendering="crispEdges" fill="rgb(255, 246, 222)"  x="3" y="9" width="1" height="1" /><rect shape-rendering="crispEdges" fill="rgb(255, 238, 197)"  x="3" y="10" width="1" height="1" /><rect shape-rendering="crispEdges" fill="rgb(180, 131, 115)"  x="3" y="11" width="1" height="1" /><rect shape-rendering="crispEdges" fill="rgb(255, 222, 180)"  x="4" y="2" width="1" height="1" /><rect shape-rendering="crispEdges" fill="rgb(255, 246, 205)"  x="4" y="3" width="1" height="1" /><rect shape-rendering="crispEdges" fill="rgb(246, 230, 197)"  x="4" y="4" width="1" height="1" /><rect shape-rendering="crispEdges" fill="rgb(222, 205, 164)"  x="4" y="5" width="1" height="1" /><rect shape-rendering="crispEdges" fill="rgb(222, 205, 164)"  x="4" y="6" width="1" height="1" /><rect shape-rendering="crispEdges" fill="rgb(230, 213, 172)"  x="4" y="7" width="1" height="1" /><rect shape-rendering="crispEdges" fill="rgb(255, 238, 197)"  x="4" y="8" width="1" height="1" /><rect shape-rendering="crispEdges" fill="rgb(255, 238, 197)"  x="4" y="9" width="1" height="1" /><rect shape-rendering="crispEdges" fill="rgb(222, 205, 164)"  x="4" y="10" width="1" height="1" /><rect shape-rendering="crispEdges" fill="rgb(255, 238, 197)"  x="4" y="11" width="1" height="1" /><rect shape-rendering="crispEdges" fill="rgb(180, 131, 115)"  x="4" y="12" width="1" height="1" /><rect shape-rendering="crispEdges" fill="rgb(255, 222, 180)"  x="5" y="2" width="1" height="1" /><rect shape-rendering="crispEdges" fill="rgb(255, 246, 205)"  x="5" y="3" width="1" height="1" /><rect shape-rendering="crispEdges" fill="rgb(255, 246, 205)"  x="5" y="4" width="1" height="1" /><rect shape-rendering="crispEdges" fill="rgb(255, 246, 205)"  x="5" y="5" width="1" height="1" /><rect shape-rendering="crispEdges" fill="rgb(222, 197, 156)"  x="5" y="6" width="1" height="1" /><rect shape-rendering="crispEdges" fill="rgb(222, 197, 156)"  x="5" y="7" width="1" height="1" /><rect shape-rendering="crispEdges" fill="rgb(222, 205, 164)"  x="5" y="8" width="1" height="1" /><rect shape-rendering="crispEdges" fill="rgb(222, 205, 164)"  x="5" y="9" width="1" height="1" /><rect shape-rendering="crispEdges" fill="rgb(222, 205, 156)"  x="5" y="10" width="1" height="1" /><rect shape-rendering="crispEdges" fill="rgb(222, 205, 164)"  x="5" y="11" width="1" height="1" /><rect shape-rendering="crispEdges" fill="rgb(255, 238, 197)"  x="5" y="12" width="1" height="1" /><rect shape-rendering="crispEdges" fill="rgb(180, 131, 115)"  x="5" y="13" width="1" height="1" /><rect shape-rendering="crispEdges" fill="rgb(255, 222, 180)"  x="6" y="2" width="1" height="1" /><rect shape-rendering="crispEdges" fill="rgb(255, 246, 205)"  x="6" y="3" width="1" height="1" /><rect shape-rendering="crispEdges" fill="rgb(255, 246, 205)"  x="6" y="4" width="1" height="1" /><rect shape-rendering="crispEdges" fill="rgb(255, 246, 205)"  x="6" y="5" width="1" height="1" /><rect shape-rendering="crispEdges" fill="rgb(213, 180, 139)"  x="6" y="6" width="1" height="1" /><rect shape-rendering="crispEdges" fill="rgb(213, 180, 139)"  x="6" y="7" width="1" height="1" /><rect shape-rendering="crispEdges" fill="rgb(213, 180, 139)"  x="6" y="8" width="1" height="1" /><rect shape-rendering="crispEdges" fill="rgb(213, 180, 139)"  x="6" y="9" width="1" height="1" /><rect shape-rendering="crispEdges" fill="rgb(213, 180, 139)"  x="6" y="10" width="1" height="1" /><rect shape-rendering="crispEdges" fill="rgb(213, 197, 156)"  x="6" y="11" width="1" height="1" /><rect shape-rendering="crispEdges" fill="rgb(222, 205, 164)"  x="6" y="12" width="1" height="1" /><rect shape-rendering="crispEdges" fill="rgb(255, 238, 197)"  x="6" y="13" width="1" height="1" /><rect shape-rendering="crispEdges" fill="rgb(180, 131, 115)"  x="6" y="14" width="1" height="1" /><rect shape-rendering="crispEdges" fill="rgb(255, 222, 180)"  x="7" y="2" width="1" height="1" /><rect shape-rendering="crispEdges" fill="rgb(255, 255, 255)"  x="7" y="3" width="1" height="1" /><rect shape-rendering="crispEdges" fill="rgb(255, 255, 255)"  x="7" y="4" width="1" height="1" /><rect shape-rendering="crispEdges" fill="rgb(255, 246, 205)"  x="7" y="5" width="1" height="1" /><rect shape-rendering="crispEdges" fill="rgb(213, 180, 139)"  x="7" y="6" width="1" height="1" /><rect shape-rendering="crispEdges" fill="rgb(180, 123, 74)"  x="7" y="7" width="1" height="1" /><rect shape-rendering="crispEdges" fill="rgb(189, 148, 90)"  x="7" y="8" width="1" height="1" /><rect shape-rendering="crispEdges" fill="rgb(222, 205, 156)"  x="7" y="9" width="1" height="1" /><rect shape-rendering="crispEdges" fill="rgb(230, 213, 180)"  x="7" y="10" width="1" height="1" /><rect shape-rendering="crispEdges" fill="rgb(213, 180, 139)"  x="7" y="11" width="1" height="1" /><rect shape-rendering="crispEdges" fill="rgb(205, 189, 148)"  x="7" y="12" width="1" height="1" /><rect shape-rendering="crispEdges" fill="rgb(213, 197, 156)"  x="7" y="13" width="1" height="1" /><rect shape-rendering="crispEdges" fill="rgb(222, 164, 131)"  x="7" y="14" width="1" height="1" /><rect shape-rendering="crispEdges" fill="rgb(255, 222, 180)"  x="8" y="2" width="1" height="1" /><rect shape-rendering="crispEdges" fill="rgb(255, 255, 255)"  x="8" y="3" width="1" height="1" /><rect shape-rendering="crispEdges" fill="rgb(255, 255, 255)"  x="8" y="4" width="1" height="1" /><rect shape-rendering="crispEdges" fill="rgb(255, 255, 255)"  x="8" y="5" width="1" height="1" /><rect shape-rendering="crispEdges" fill="rgb(213, 180, 139)"  x="8" y="6" width="1" height="1" /><rect shape-rendering="crispEdges" fill="rgb(180, 123, 74)"  x="8" y="7" width="1" height="1" /><rect shape-rendering="crispEdges" fill="rgb(213, 189, 148)"  x="8" y="8" width="1" height="1" /><rect shape-rendering="crispEdges" fill="rgb(230, 213, 172)"  x="8" y="9" width="1" height="1" /><rect shape-rendering="crispEdges" fill="rgb(230, 213, 180)"  x="8" y="10" width="1" height="1" /><rect shape-rendering="crispEdges" fill="rgb(238, 222, 180)"  x="8" y="11" width="1" height="1" /><rect shape-rendering="crispEdges" fill="rgb(213, 180, 139)"  x="8" y="12" width="1" height="1" /><rect shape-rendering="crispEdges" fill="rgb(205, 189, 148)"  x="8" y="13" width="1" height="1" /><rect shape-rendering="crispEdges" fill="rgb(255, 238, 197)"  x="8" y="14" width="1" height="1" /><rect shape-rendering="crispEdges" fill="rgb(222, 164, 131)"  x="8" y="15" width="1" height="1" /><rect shape-rendering="crispEdges" fill="rgb(246, 205, 164)"  x="9" y="2" width="1" height="1" /><rect shape-rendering="crispEdges" fill="rgb(255, 255, 255)"  x="9" y="3" width="1" height="1" /><rect shape-rendering="crispEdges" fill="rgb(255, 255, 255)"  x="9" y="4" width="1" height="1" /><rect shape-rendering="crispEdges" fill="rgb(255, 255, 255)"  x="9" y="5" width="1" height="1" /><rect shape-rendering="crispEdges" fill="rgb(213, 180, 139)"  x="9" y="6" width="1" height="1" /><rect shape-rendering="crispEdges" fill="rgb(222, 205, 156)"  x="9" y="7" width="1" height="1" /><rect shape-rendering="crispEdges" fill="rgb(180, 123, 74)"  x="9" y="8" width="1" height="1" /><rect shape-rendering="crispEdges" fill="rgb(213, 180, 131)"  x="9" y="9" width="1" height="1" /><rect shape-rendering="crispEdges" fill="rgb(213, 180, 131)"  x="9" y="10" width="1" height="1" /><rect shape-rendering="crispEdges" fill="rgb(222, 197, 148)"  x="9" y="11" width="1" height="1" /><rect shape-rendering="crispEdges" fill="rgb(238, 222, 180)"  x="9" y="12" width="1" height="1" /><rect shape-rendering="crispEdges" fill="rgb(213, 180, 139)"  x="9" y="13" width="1" height="1" /><rect shape-rendering="crispEdges" fill="rgb(213, 189, 148)"  x="9" y="14" width="1" height="1" /><rect shape-rendering="crispEdges" fill="rgb(255, 238, 197)"  x="9" y="15" width="1" height="1" /><rect shape-rendering="crispEdges" fill="rgb(222, 164, 131)"  x="9" y="16" width="1" height="1" /><rect shape-rendering="crispEdges" fill="rgb(246, 205, 164)"  x="10" y="2" width="1" height="1" /><rect shape-rendering="crispEdges" fill="rgb(255, 255, 255)"  x="10" y="3" width="1" height="1" /><rect shape-rendering="crispEdges" fill="rgb(255, 255, 255)"  x="10" y="4" width="1" height="1" /><rect shape-rendering="crispEdges" fill="rgb(255, 255, 246)"  x="10" y="5" width="1" height="1" /><rect shape-rendering="crispEdges" fill="rgb(213, 180, 139)"  x="10" y="6" width="1" height="1" /><rect shape-rendering="crispEdges" fill="rgb(255, 246, 205)"  x="10" y="7" width="1" height="1" /><rect shape-rendering="crispEdges" fill="rgb(230, 205, 164)"  x="10" y="8" width="1" height="1" /><rect shape-rendering="crispEdges" fill="rgb(180, 123, 74)"  x="10" y="9" width="1" height="1" /><rect shape-rendering="crispEdges" fill="rgb(180, 123, 74)"  x="10" y="10" width="1" height="1" /><rect shape-rendering="crispEdges" fill="rgb(180, 123, 74)"  x="10" y="11" width="1" height="1" /><rect shape-rendering="crispEdges" fill="rgb(180, 123, 74)"  x="10" y="12" width="1" height="1" /><rect shape-rendering="crispEdges" fill="rgb(246, 238, 197)"  x="10" y="13" width="1" height="1" /><rect shape-rendering="crispEdges" fill="rgb(205, 172, 131)"  x="10" y="14" width="1" height="1" /><rect shape-rendering="crispEdges" fill="rgb(205, 189, 148)"  x="10" y="15" width="1" height="1" /><rect shape-rendering="crispEdges" fill="rgb(255, 238, 197)"  x="10" y="16" width="1" height="1" /><rect shape-rendering="crispEdges" fill="rgb(222, 164, 131)"  x="10" y="17" width="1" height="1" /><rect shape-rendering="crispEdges" fill="rgb(246, 205, 164)"  x="11" y="3" width="1" height="1" /><rect shape-rendering="crispEdges" fill="rgb(255, 255, 255)"  x="11" y="4" width="1" height="1" /><rect shape-rendering="crispEdges" fill="rgb(255, 246, 205)"  x="11" y="5" width="1" height="1" /><rect shape-rendering="crispEdges" fill="rgb(238, 213, 172)"  x="11" y="6" width="1" height="1" /><rect shape-rendering="crispEdges" fill="rgb(213, 180, 139)"  x="11" y="7" width="1" height="1" /><rect shape-rendering="crispEdges" fill="rgb(255, 246, 205)"  x="11" y="8" width="1" height="1" /><rect shape-rendering="crispEdges" fill="rgb(230, 213, 172)"  x="11" y="9" width="1" height="1" /><rect shape-rendering="crispEdges" fill="rgb(180, 123, 74)"  x="11" y="10" width="1" height="1" /><rect shape-rendering="crispEdges" fill="rgb(222, 197, 148)"  x="11" y="11" width="1" height="1" /><rect shape-rendering="crispEdges" fill="rgb(180, 123, 74)"  x="11" y="12" width="1" height="1" /><rect shape-rendering="crispEdges" fill="rgb(222, 197, 148)"  x="11" y="13" width="1" height="1" /><rect shape-rendering="crispEdges" fill="rgb(246, 238, 197)"  x="11" y="14" width="1" height="1" /><rect shape-rendering="crispEdges" fill="rgb(205, 172, 123)"  x="11" y="15" width="1" height="1" /><rect shape-rendering="crispEdges" fill="rgb(213, 180, 139)"  x="11" y="16" width="1" height="1" /><rect shape-rendering="crispEdges" fill="rgb(255, 238, 197)"  x="11" y="17" width="1" height="1" /><rect shape-rendering="crispEdges" fill="rgb(222, 164, 131)"  x="11" y="18" width="1" height="1" /><rect shape-rendering="crispEdges" fill="rgb(222, 164, 131)"  x="11" y="19" width="1" height="1" /><rect shape-rendering="crispEdges" fill="rgb(246, 205, 164)"  x="12" y="4" width="1" height="1" /><rect shape-rendering="crispEdges" fill="rgb(255, 246, 205)"  x="12" y="5" width="1" height="1" /><rect shape-rendering="crispEdges" fill="rgb(255, 246, 205)"  x="12" y="6" width="1" height="1" /><rect shape-rendering="crispEdges" fill="rgb(238, 213, 172)"  x="12" y="7" width="1" height="1" /><rect shape-rendering="crispEdges" fill="rgb(222, 189, 148)"  x="12" y="8" width="1" height="1" /><rect shape-rendering="crispEdges" fill="rgb(255, 246, 205)"  x="12" y="9" width="1" height="1" /><rect shape-rendering="crispEdges" fill="rgb(230, 205, 164)"  x="12" y="10" width="1" height="1" /><rect shape-rendering="crispEdges" fill="rgb(180, 123, 74)"  x="12" y="11" width="1" height="1" /><rect shape-rendering="crispEdges" fill="rgb(222, 197, 148)"  x="12" y="12" width="1" height="1" /><rect shape-rendering="crispEdges" fill="rgb(180, 123, 74)"  x="12" y="13" width="1" height="1" /><rect shape-rendering="crispEdges" fill="rgb(230, 205, 156)"  x="12" y="14" width="1" height="1" /><rect shape-rendering="crispEdges" fill="rgb(246, 238, 197)"  x="12" y="15" width="1" height="1" /><rect shape-rendering="crispEdges" fill="rgb(205, 164, 115)"  x="12" y="16" width="1" height="1" /><rect shape-rendering="crispEdges" fill="rgb(205, 172, 131)"  x="12" y="17" width="1" height="1" /><rect shape-rendering="crispEdges" fill="rgb(255, 238, 197)"  x="12" y="18" width="1" height="1" /><rect shape-rendering="crispEdges" fill="rgb(255, 238, 197)"  x="12" y="19" width="1" height="1" /><rect shape-rendering="crispEdges" fill="rgb(222, 164, 131)"  x="12" y="20" width="1" height="1" /><rect shape-rendering="crispEdges" fill="rgb(222, 164, 131)"  x="12" y="21" width="1" height="1" /><rect shape-rendering="crispEdges" fill="rgb(238, 189, 148)"  x="13" y="5" width="1" height="1" /><rect shape-rendering="crispEdges" fill="rgb(255, 246, 205)"  x="13" y="6" width="1" height="1" /><rect shape-rendering="crispEdges" fill="rgb(255, 246, 205)"  x="13" y="7" width="1" height="1" /><rect shape-rendering="crispEdges" fill="rgb(238, 213, 172)"  x="13" y="8" width="1" height="1" /><rect shape-rendering="crispEdges" fill="rgb(222, 189, 148)"  x="13" y="9" width="1" height="1" /><rect shape-rendering="crispEdges" fill="rgb(255, 246, 205)"  x="13" y="10" width="1" height="1" /><rect shape-rendering="crispEdges" fill="rgb(180, 123, 74)"  x="13" y="11" width="1" height="1" /><rect shape-rendering="crispEdges" fill="rgb(180, 123, 74)"  x="13" y="12" width="1" height="1" /><rect shape-rendering="crispEdges" fill="rgb(180, 123, 74)"  x="13" y="13" width="1" height="1" /><rect shape-rendering="crispEdges" fill="rgb(180, 123, 74)"  x="13" y="14" width="1" height="1" /><rect shape-rendering="crispEdges" fill="rgb(238, 222, 172)"  x="13" y="15" width="1" height="1" /><rect shape-rendering="crispEdges" fill="rgb(246, 238, 197)"  x="13" y="16" width="1" height="1" /><rect shape-rendering="crispEdges" fill="rgb(197, 156, 106)"  x="13" y="17" width="1" height="1" /><rect shape-rendering="crispEdges" fill="rgb(205, 172, 131)"  x="13" y="18" width="1" height="1" /><rect shape-rendering="crispEdges" fill="rgb(222, 205, 164)"  x="13" y="19" width="1" height="1" /><rect shape-rendering="crispEdges" fill="rgb(255, 238, 197)"  x="13" y="20" width="1" height="1" /><rect shape-rendering="crispEdges" fill="rgb(255, 238, 197)"  x="13" y="21" width="1" height="1" /><rect shape-rendering="crispEdges" fill="rgb(222, 164, 131)"  x="13" y="22" width="1" height="1" /><rect shape-rendering="crispEdges" fill="rgb(90, 131, 32)"  x="13" y="23" width="1" height="1" /><rect shape-rendering="crispEdges" fill="rgb(90, 131, 32)"  x="13" y="24" width="1" height="1" /><rect shape-rendering="crispEdges" fill="rgb(238, 189, 148)"  x="14" y="6" width="1" height="1" /><rect shape-rendering="crispEdges" fill="rgb(238, 189, 148)"  x="14" y="7" width="1" height="1" /><rect shape-rendering="crispEdges" fill="rgb(255, 246, 205)"  x="14" y="8" width="1" height="1" /><rect shape-rendering="crispEdges" fill="rgb(238, 213, 172)"  x="14" y="9" width="1" height="1" /><rect shape-rendering="crispEdges" fill="rgb(222, 189, 148)"  x="14" y="10" width="1" height="1" /><rect shape-rendering="crispEdges" fill="rgb(255, 246, 205)"  x="14" y="11" width="1" height="1" /><rect shape-rendering="crispEdges" fill="rgb(222, 197, 148)"  x="14" y="12" width="1" height="1" /><rect shape-rendering="crispEdges" fill="rgb(222, 197, 148)"  x="14" y="13" width="1" height="1" /><rect shape-rendering="crispEdges" fill="rgb(213, 180, 131)"  x="14" y="14" width="1" height="1" /><rect shape-rendering="crispEdges" fill="rgb(180, 123, 74)"  x="14" y="15" width="1" height="1" /><rect shape-rendering="crispEdges" fill="rgb(238, 222, 172)"  x="14" y="16" width="1" height="1" /><rect shape-rendering="crispEdges" fill="rgb(246, 238, 197)"  x="14" y="17" width="1" height="1" /><rect shape-rendering="crispEdges" fill="rgb(197, 156, 98)"  x="14" y="18" width="1" height="1" /><rect shape-rendering="crispEdges" fill="rgb(205, 172, 131)"  x="14" y="19" width="1" height="1" /><rect shape-rendering="crispEdges" fill="rgb(222, 205, 164)"  x="14" y="20" width="1" height="1" /><rect shape-rendering="crispEdges" fill="rgb(255, 238, 197)"  x="14" y="21" width="1" height="1" /><rect shape-rendering="crispEdges" fill="rgb(90, 131, 32)"  x="14" y="22" width="1" height="1" /><rect shape-rendering="crispEdges" fill="rgb(106, 148, 49)"  x="14" y="23" width="1" height="1" /><rect shape-rendering="crispEdges" fill="rgb(106, 148, 49)"  x="14" y="24" width="1" height="1" /><rect shape-rendering="crispEdges" fill="rgb(156, 148, 82)"  x="14" y="25" width="1" height="1" /><rect shape-rendering="crispEdges" fill="rgb(238, 189, 148)"  x="15" y="8" width="1" height="1" /><rect shape-rendering="crispEdges" fill="rgb(255, 246, 205)"  x="15" y="9" width="1" height="1" /><rect shape-rendering="crispEdges" fill="rgb(238, 213, 172)"  x="15" y="10" width="1" height="1" /><rect shape-rendering="crispEdges" fill="rgb(213, 180, 139)"  x="15" y="11" width="1" height="1" /><rect shape-rendering="crispEdges" fill="rgb(255, 246, 205)"  x="15" y="12" width="1" height="1" /><rect shape-rendering="crispEdges" fill="rgb(230, 205, 164)"  x="15" y="13" width="1" height="1" /><rect shape-rendering="crispEdges" fill="rgb(255, 246, 205)"  x="15" y="14" width="1" height="1" /><rect shape-rendering="crispEdges" fill="rgb(238, 213, 172)"  x="15" y="15" width="1" height="1" /><rect shape-rendering="crispEdges" fill="rgb(180, 123, 74)"  x="15" y="16" width="1" height="1" /><rect shape-rendering="crispEdges" fill="rgb(255, 246, 222)"  x="15" y="17" width="1" height="1" /><rect shape-rendering="crispEdges" fill="rgb(255, 246, 222)"  x="15" y="18" width="1" height="1" /><rect shape-rendering="crispEdges" fill="rgb(197, 156, 98)"  x="15" y="19" width="1" height="1" /><rect shape-rendering="crispEdges" fill="rgb(90, 131, 32)"  x="15" y="20" width="1" height="1" /><rect shape-rendering="crispEdges" fill="rgb(123, 164, 57)"  x="15" y="21" width="1" height="1" /><rect shape-rendering="crispEdges" fill="rgb(123, 164, 57)"  x="15" y="22" width="1" height="1" /><rect shape-rendering="crispEdges" fill="rgb(123, 164, 57)"  x="15" y="23" width="1" height="1" /><rect shape-rendering="crispEdges" fill="rgb(156, 148, 82)"  x="15" y="24" width="1" height="1" /><rect shape-rendering="crispEdges" fill="rgb(164, 98, 65)"  x="15" y="25" width="1" height="1" /><rect shape-rendering="crispEdges" fill="rgb(238, 189, 148)"  x="16" y="9" width="1" height="1" /><rect shape-rendering="crispEdges" fill="rgb(255, 246, 205)"  x="16" y="10" width="1" height="1" /><rect shape-rendering="crispEdges" fill="rgb(238, 213, 172)"  x="16" y="11" width="1" height="1" /><rect shape-rendering="crispEdges" fill="rgb(205, 164, 115)"  x="16" y="12" width="1" height="1" /><rect shape-rendering="crispEdges" fill="rgb(255, 246, 205)"  x="16" y="13" width="1" height="1" /><rect shape-rendering="crispEdges" fill="rgb(230, 205, 164)"  x="16" y="14" width="1" height="1" /><rect shape-rendering="crispEdges" fill="rgb(180, 123, 74)"  x="16" y="15" width="1" height="1" /><rect shape-rendering="crispEdges" fill="rgb(180, 123, 74)"  x="16" y="16" width="1" height="1" /><rect shape-rendering="crispEdges" fill="rgb(255, 246, 222)"  x="16" y="17" width="1" height="1" /><rect shape-rendering="crispEdges" fill="rgb(255, 246, 222)"  x="16" y="18" width="1" height="1" /><rect shape-rendering="crispEdges" fill="rgb(90, 131, 32)"  x="16" y="19" width="1" height="1" /><rect shape-rendering="crispEdges" fill="rgb(90, 131, 32)"  x="16" y="20" width="1" height="1" /><rect shape-rendering="crispEdges" fill="rgb(90, 131, 32)"  x="16" y="21" width="1" height="1" /><rect shape-rendering="crispEdges" fill="rgb(90, 131, 32)"  x="16" y="22" width="1" height="1" /><rect shape-rendering="crispEdges" fill="rgb(164, 98, 65)"  x="16" y="23" width="1" height="1" /><rect shape-rendering="crispEdges" fill="rgb(172, 49, 41)"  x="16" y="24" width="1" height="1" /><rect shape-rendering="crispEdges" fill="rgb(156, 24, 24)"  x="16" y="25" width="1" height="1" /><rect shape-rendering="crispEdges" fill="rgb(238, 189, 148)"  x="17" y="10" width="1" height="1" /><rect shape-rendering="crispEdges" fill="rgb(246, 230, 197)"  x="17" y="11" width="1" height="1" /><rect shape-rendering="crispEdges" fill="rgb(230, 197, 148)"  x="17" y="12" width="1" height="1" /><rect shape-rendering="crispEdges" fill="rgb(205, 164, 115)"  x="17" y="13" width="1" height="1" /><rect shape-rendering="crispEdges" fill="rgb(255, 246, 205)"  x="17" y="14" width="1" height="1" /><rect shape-rendering="crispEdges" fill="rgb(255, 238, 197)"  x="17" y="15" width="1" height="1" /><rect shape-rendering="crispEdges" fill="rgb(255, 246, 222)"  x="17" y="16" width="1" height="1" /><rect shape-rendering="crispEdges" fill="rgb(255, 246, 222)"  x="17" y="17" width="1" height="1" /><rect shape-rendering="crispEdges" fill="rgb(90, 131, 32)"  x="17" y="18" width="1" height="1" /><rect shape-rendering="crispEdges" fill="rgb(255, 246, 156)"  x="17" y="19" width="1" height="1" /><rect shape-rendering="crispEdges" fill="rgb(246, 246, 164)"  x="17" y="20" width="1" height="1" /><rect shape-rendering="crispEdges" fill="rgb(197, 230, 172)"  x="17" y="21" width="1" height="1" /><rect shape-rendering="crispEdges" fill="rgb(148, 230, 205)"  x="17" y="22" width="1" height="1" /><rect shape-rendering="crispEdges" fill="rgb(172, 41, 41)"  x="17" y="23" width="1" height="1" /><rect shape-rendering="crispEdges" fill="rgb(172, 49, 41)"  x="17" y="24" width="1" height="1" /><rect shape-rendering="crispEdges" fill="rgb(156, 24, 24)"  x="17" y="25" width="1" height="1" /><rect shape-rendering="crispEdges" fill="rgb(238, 189, 148)"  x="18" y="11" width="1" height="1" /><rect shape-rendering="crispEdges" fill="rgb(255, 230, 189)"  x="18" y="12" width="1" height="1" /><rect shape-rendering="crispEdges" fill="rgb(205, 164, 115)"  x="18" y="13" width="1" height="1" /><rect shape-rendering="crispEdges" fill="rgb(205, 164, 115)"  x="18" y="14" width="1" height="1" /><rect shape-rendering="crispEdges" fill="rgb(230, 205, 164)"  x="18" y="15" width="1" height="1" /><rect shape-rendering="crispEdges" fill="rgb(255, 246, 222)"  x="18" y="16" width="1" height="1" /><rect shape-rendering="crispEdges" fill="rgb(90, 131, 32)"  x="18" y="17" width="1" height="1" /><rect shape-rendering="crispEdges" fill="rgb(156, 172, 90)"  x="18" y="18" width="1" height="1" /><rect shape-rendering="crispEdges" fill="rgb(156, 172, 90)"  x="18" y="19" width="1" height="1" /><rect shape-rendering="crispEdges" fill="rgb(156, 164, 90)"  x="18" y="20" width="1" height="1" /><rect shape-rendering="crispEdges" fill="rgb(156, 148, 82)"  x="18" y="21" width="1" height="1" /><rect shape-rendering="crispEdges" fill="rgb(139, 238, 213)"  x="18" y="22" width="1" height="1" /><rect shape-rendering="crispEdges" fill="rgb(172, 41, 41)"  x="18" y="23" width="1" height="1" /><rect shape-rendering="crispEdges" fill="rgb(156, 24, 24)"  x="18" y="24" width="1" height="1" /><rect shape-rendering="crispEdges" fill="rgb(238, 189, 148)"  x="19" y="11" width="1" height="1" /><rect shape-rendering="crispEdges" fill="rgb(255, 246, 205)"  x="19" y="12" width="1" height="1" /><rect shape-rendering="crispEdges" fill="rgb(255, 230, 189)"  x="19" y="13" width="1" height="1" /><rect shape-rendering="crispEdges" fill="rgb(205, 164, 115)"  x="19" y="14" width="1" height="1" /><rect shape-rendering="crispEdges" fill="rgb(205, 164, 115)"  x="19" y="15" width="1" height="1" /><rect shape-rendering="crispEdges" fill="rgb(90, 131, 32)"  x="19" y="16" width="1" height="1" /><rect shape-rendering="crispEdges" fill="rgb(255, 246, 156)"  x="19" y="17" width="1" height="1" /><rect shape-rendering="crispEdges" fill="rgb(90, 131, 32)"  x="19" y="18" width="1" height="1" /><rect shape-rendering="crispEdges" fill="rgb(230, 246, 164)"  x="19" y="19" width="1" height="1" /><rect shape-rendering="crispEdges" fill="rgb(164, 230, 189)"  x="19" y="20" width="1" height="1" /><rect shape-rendering="crispEdges" fill="rgb(148, 238, 213)"  x="19" y="21" width="1" height="1" /><rect shape-rendering="crispEdges" fill="rgb(172, 41, 41)"  x="19" y="22" width="1" height="1" /><rect shape-rendering="crispEdges" fill="rgb(156, 24, 24)"  x="19" y="23" width="1" height="1" /><rect shape-rendering="crispEdges" fill="rgb(180, 65, 16)"  x="19" y="24" width="1" height="1" /><rect shape-rendering="crispEdges" fill="rgb(222, 164, 131)"  x="20" y="12" width="1" height="1" /><rect shape-rendering="crispEdges" fill="rgb(255, 246, 205)"  x="20" y="13" width="1" height="1" /><rect shape-rendering="crispEdges" fill="rgb(255, 230, 189)"  x="20" y="14" width="1" height="1" /><rect shape-rendering="crispEdges" fill="rgb(90, 131, 32)"  x="20" y="15" width="1" height="1" /><rect shape-rendering="crispEdges" fill="rgb(156, 172, 90)"  x="20" y="16" width="1" height="1" /><rect shape-rendering="crispEdges" fill="rgb(255, 246, 156)"  x="20" y="17" width="1" height="1" /><rect shape-rendering="crispEdges" fill="rgb(90, 131, 32)"  x="20" y="18" width="1" height="1" /><rect shape-rendering="crispEdges" fill="rgb(172, 230, 172)"  x="20" y="19" width="1" height="1" /><rect shape-rendering="crispEdges" fill="rgb(172, 41, 41)"  x="20" y="20" width="1" height="1" /><rect shape-rendering="crispEdges" fill="rgb(139, 238, 213)"  x="20" y="21" width="1" height="1" /><rect shape-rendering="crispEdges" fill="rgb(139, 238, 213)"  x="20" y="22" width="1" height="1" /><rect shape-rendering="crispEdges" fill="rgb(123, 49, 24)"  x="20" y="23" width="1" height="1" /><rect shape-rendering="crispEdges" fill="rgb(222, 164, 131)"  x="21" y="12" width="1" height="1" /><rect shape-rendering="crispEdges" fill="rgb(255, 246, 205)"  x="21" y="13" width="1" height="1" /><rect shape-rendering="crispEdges" fill="rgb(255, 246, 205)"  x="21" y="14" width="1" height="1" /><rect shape-rendering="crispEdges" fill="rgb(156, 172, 90)"  x="21" y="15" width="1" height="1" /><rect shape-rendering="crispEdges" fill="rgb(156, 172, 90)"  x="21" y="16" width="1" height="1" /><rect shape-rendering="crispEdges" fill="rgb(238, 246, 164)"  x="21" y="17" width="1" height="1" /><rect shape-rendering="crispEdges" fill="rgb(90, 131, 32)"  x="21" y="18" width="1" height="1" /><rect shape-rendering="crispEdges" fill="rgb(148, 238, 205)"  x="21" y="19" width="1" height="1" /><rect shape-rendering="crispEdges" fill="rgb(139, 238, 213)"  x="21" y="20" width="1" height="1" /><rect shape-rendering="crispEdges" fill="rgb(139, 238, 213)"  x="21" y="21" width="1" height="1" /><rect shape-rendering="crispEdges" fill="rgb(164, 65, 24)"  x="21" y="22" width="1" height="1" /><rect shape-rendering="crispEdges" fill="rgb(164, 65, 24)"  x="21" y="23" width="1" height="1" /><rect shape-rendering="crispEdges" fill="rgb(123, 49, 24)"  x="21" y="24" width="1" height="1" /><rect shape-rendering="crispEdges" fill="rgb(180, 115, 82)"  x="22" y="13" width="1" height="1" /><rect shape-rendering="crispEdges" fill="rgb(172, 197, 115)"  x="22" y="14" width="1" height="1" /><rect shape-rendering="crispEdges" fill="rgb(156, 172, 90)"  x="22" y="15" width="1" height="1" /><rect shape-rendering="crispEdges" fill="rgb(156, 172, 90)"  x="22" y="16" width="1" height="1" /><rect shape-rendering="crispEdges" fill="rgb(172, 230, 172)"  x="22" y="17" width="1" height="1" /><rect shape-rendering="crispEdges" fill="rgb(148, 238, 205)"  x="22" y="18" width="1" height="1" /><rect shape-rendering="crispEdges" fill="rgb(172, 41, 41)"  x="22" y="19" width="1" height="1" /><rect shape-rendering="crispEdges" fill="rgb(139, 238, 213)"  x="22" y="20" width="1" height="1" /><rect shape-rendering="crispEdges" fill="rgb(164, 65, 24)"  x="22" y="21" width="1" height="1" /><rect shape-rendering="crispEdges" fill="rgb(222, 115, 65)"  x="22" y="22" width="1" height="1" /><rect shape-rendering="crispEdges" fill="rgb(164, 65, 24)"  x="22" y="23" width="1" height="1" /><rect shape-rendering="crispEdges" fill="rgb(82, 115, 32)"  x="22" y="24" width="1" height="1" /><rect shape-rendering="crispEdges" fill="rgb(172, 197, 115)"  x="23" y="13" width="1" height="1" /><rect shape-rendering="crispEdges" fill="rgb(189, 213, 131)"  x="23" y="14" width="1" height="1" /><rect shape-rendering="crispEdges" fill="rgb(172, 197, 115)"  x="23" y="15" width="1" height="1" /><rect shape-rendering="crispEdges" fill="rgb(156, 148, 82)"  x="23" y="16" width="1" height="1" /><rect shape-rendering="crispEdges" fill="rgb(172, 41, 41)"  x="23" y="17" width="1" height="1" /><rect shape-rendering="crispEdges" fill="rgb(172, 41, 41)"  x="23" y="18" width="1" height="1" /><rect shape-rendering="crispEdges" fill="rgb(156, 24, 24)"  x="23" y="19" width="1" height="1" /><rect shape-rendering="crispEdges" fill="rgb(197, 90, 41)"  x="23" y="20" width="1" height="1" /><rect shape-rendering="crispEdges" fill="rgb(164, 65, 24)"  x="23" y="21" width="1" height="1" /><rect shape-rendering="crispEdges" fill="rgb(164, 65, 24)"  x="23" y="22" width="1" height="1" /><rect shape-rendering="crispEdges" fill="rgb(164, 197, 90)"  x="23" y="23" width="1" height="1" /><rect shape-rendering="crispEdges" fill="rgb(115, 148, 41)"  x="23" y="24" width="1" height="1" /><rect shape-rendering="crispEdges" fill="rgb(205, 131, 172)"  x="23" y="25" width="1" height="1" /><rect shape-rendering="crispEdges" fill="rgb(189, 213, 131)"  x="24" y="13" width="1" height="1" /><rect shape-rendering="crispEdges" fill="rgb(189, 213, 131)"  x="24" y="14" width="1" height="1" /><rect shape-rendering="crispEdges" fill="rgb(156, 148, 82)"  x="24" y="15" width="1" height="1" /><rect shape-rendering="crispEdges" fill="rgb(164, 98, 65)"  x="24" y="16" width="1" height="1" /><rect shape-rendering="crispEdges" fill="rgb(172, 49, 41)"  x="24" y="17" width="1" height="1" /><rect shape-rendering="crispEdges" fill="rgb(156, 24, 24)"  x="24" y="18" width="1" height="1" /><rect shape-rendering="crispEdges" fill="rgb(180, 65, 16)"  x="24" y="19" width="1" height="1" /><rect shape-rendering="crispEdges" fill="rgb(197, 90, 41)"  x="24" y="21" width="1" height="1" /><rect shape-rendering="crispEdges" fill="rgb(131, 172, 57)"  x="24" y="22" width="1" height="1" /><rect shape-rendering="crispEdges" fill="rgb(115, 148, 41)"  x="24" y="23" width="1" height="1" /><rect shape-rendering="crispEdges" fill="rgb(222, 197, 139)"  x="24" y="24" width="1" height="1" /><rect shape-rendering="crispEdges" fill="rgb(115, 148, 41)"  x="24" y="25" width="1" height="1" /><rect shape-rendering="crispEdges" fill="rgb(82, 115, 32)"  x="24" y="26" width="1" height="1" /><rect shape-rendering="crispEdges" fill="rgb(189, 213, 131)"  x="25" y="14" width="1" height="1" /><rect shape-rendering="crispEdges" fill="rgb(156, 148, 82)"  x="25" y="15" width="1" height="1" /><rect shape-rendering="crispEdges" fill="rgb(164, 98, 65)"  x="25" y="16" width="1" height="1" /><rect shape-rendering="crispEdges" fill="rgb(172, 49, 41)"  x="25" y="17" width="1" height="1" /><rect shape-rendering="crispEdges" fill="rgb(205, 131, 172)"  x="25" y="23" width="1" height="1" /><rect shape-rendering="crispEdges" fill="rgb(115, 148, 41)"  x="25" y="24" width="1" height="1" /><rect shape-rendering="crispEdges" fill="rgb(164, 197, 90)"  x="25" y="25" width="1" height="1" /><rect shape-rendering="crispEdges" fill="rgb(115, 148, 41)"  x="25" y="26" width="1" height="1" /><rect shape-rendering="crispEdges" fill="rgb(82, 115, 32)"  x="25" y="27" width="1" height="1" /><rect shape-rendering="crispEdges" fill="rgb(82, 115, 32)"  x="25" y="28" width="1" height="1" /><rect shape-rendering="crispEdges" fill="rgb(180, 65, 16)"  x="25" y="29" width="1" height="1" /><rect shape-rendering="crispEdges" fill="rgb(131, 172, 57)"  x="26" y="24" width="1" height="1" /><rect shape-rendering="crispEdges" fill="rgb(115, 148, 41)"  x="26" y="25" width="1" height="1" /><rect shape-rendering="crispEdges" fill="rgb(164, 197, 90)"  x="26" y="26" width="1" height="1" /><rect shape-rendering="crispEdges" fill="rgb(115, 148, 41)"  x="26" y="27" width="1" height="1" /><rect shape-rendering="crispEdges" fill="rgb(180, 65, 16)"  x="26" y="28" width="1" height="1" /><rect shape-rendering="crispEdges" fill="rgb(82, 115, 32)"  x="26" y="29" width="1" height="1" /><rect shape-rendering="crispEdges" fill="rgb(131, 172, 57)"  x="27" y="25" width="1" height="1" /><rect shape-rendering="crispEdges" fill="rgb(115, 148, 41)"  x="27" y="26" width="1" height="1" /><rect shape-rendering="crispEdges" fill="rgb(180, 65, 16)"  x="27" y="27" width="1" height="1" /><rect shape-rendering="crispEdges" fill="rgb(115, 148, 41)"  x="27" y="28" width="1" height="1" /><rect shape-rendering="crispEdges" fill="rgb(180, 65, 16)"  x="27" y="29" width="1" height="1" /><rect shape-rendering="crispEdges" fill="rgb(115, 148, 41)"  x="28" y="25" width="1" height="1" /><rect shape-rendering="crispEdges" fill="rgb(180, 65, 16)"  x="28" y="26" width="1" height="1" /><rect shape-rendering="crispEdges" fill="rgb(164, 197, 90)"  x="28" y="27" width="1" height="1" /><rect shape-rendering="crispEdges" fill="rgb(180, 65, 16)"  x="28" y="28" width="1" height="1" /><rect shape-rendering="crispEdges" fill="rgb(180, 65, 16)"  x="28" y="29" width="1" height="1" /><rect shape-rendering="crispEdges" fill="rgb(180, 65, 16)"  x="29" y="25" width="1" height="1" /><rect shape-rendering="crispEdges" fill="rgb(131, 172, 57)"  x="29" y="26" width="1" height="1" /><rect shape-rendering="crispEdges" fill="rgb(180, 65, 16)"  x="29" y="27" width="1" height="1" /><rect shape-rendering="crispEdges" fill="rgb(180, 65, 16)"  x="29" y="28" width="1" height="1" /><rect shape-rendering="crispEdges" fill="rgb(180, 65, 16)"  x="29" y="29" width="1" height="1" /></svg>