<svg xmlns="http://www.w3.org/2000/svg" xmlns:xlink= "http://www.w3.org/1999/xlink" width="32" height="32" viewBox ="0 0 32 32"><rect shape-rendering="crispEdges" fill="rgb(230, 205, 131)"  x="0" y="2" width="1" height="1" /><rect shape-rendering="crispEdges" fill="rgb(246, 230, 148)"  x="0" y="3" width="1" height="1" /><rect shape-rendering="crispEdges" fill="rgb(246, 230, 148)"  x="0" y="4" width="1" height="1" /><rect shape-rendering="crispEdges" fill="rgb(230, 205, 131)"  x="0" y="5" width="1" height="1" /><rect shape-rendering="crispEdges" fill="rgb(230, 205, 131)"  x="0" y="6" width="1" height="1" /><rect shape-rendering="crispEdges" fill="rgb(230, 205, 131)"  x="1" y="1" width="1" height="1" /><rect shape-rendering="crispEdges" fill="rgb(164, 131, 8)"  x="1" y="2" width="1" height="1" /><rect shape-rendering="crispEdges" fill="rgb(131, 106, 8)"  x="1" y="3" width="1" height="1" /><rect shape-rendering="crispEdges" fill="rgb(164, 131, 8)"  x="1" y="4" width="1" height="1" /><rect shape-rendering="crispEdges" fill="rgb(164, 131, 8)"  x="1" y="5" width="1" height="1" /><rect shape-rendering="crispEdges" fill="rgb(213, 180, 98)"  x="1" y="6" width="1" height="1" /><rect shape-rendering="crispEdges" fill="rgb(230, 205, 131)"  x="1" y="7" width="1" height="1" /><rect shape-rendering="crispEdges" fill="rgb(246, 230, 148)"  x="2" y="1" width="1" height="1" /><rect shape-rendering="crispEdges" fill="rgb(131, 106, 8)"  x="2" y="2" width="1" height="1" /><rect shape-rendering="crispEdges" fill="rgb(197, 238, 230)"  x="2" y="3" width="1" height="1" /><rect shape-rendering="crispEdges" fill="rgb(82, 205, 180)"  x="2" y="4" width="1" height="1" /><rect shape-rendering="crispEdges" fill="rgb(164, 131, 8)"  x="2" y="5" width="1" height="1" /><rect shape-rendering="crispEdges" fill="rgb(164, 131, 8)"  x="2" y="6" width="1" height="1" /><rect shape-rendering="crispEdges" fill="rgb(213, 180, 98)"  x="2" y="7" width="1" height="1" /><rect shape-rendering="crispEdges" fill="rgb(230, 205, 131)"  x="2" y="8" width="1" height="1" /><rect shape-rendering="crispEdges" fill="rgb(246, 230, 148)"  x="3" y="1" width="1" height="1" /><rect shape-rendering="crispEdges" fill="rgb(98, 74, 0)"  x="3" y="2" width="1" height="1" /><rect shape-rendering="crispEdges" fill="rgb(82, 205, 180)"  x="3" y="3" width="1" height="1" /><rect shape-rendering="crispEdges" fill="rgb(41, 123, 106)"  x="3" y="4" width="1" height="1" /><rect shape-rendering="crispEdges" fill="rgb(197, 180, 90)"  x="3" y="5" width="1" height="1" /><rect shape-rendering="crispEdges" fill="rgb(164, 131, 8)"  x="3" y="6" width="1" height="1" /><rect shape-rendering="crispEdges" fill="rgb(164, 131, 8)"  x="3" y="7" width="1" height="1" /><rect shape-rendering="crispEdges" fill="rgb(213, 180, 98)"  x="3" y="8" width="1" height="1" /><rect shape-rendering="crispEdges" fill="rgb(246, 230, 148)"  x="3" y="9" width="1" height="1" /><rect shape-rendering="crispEdges" fill="rgb(213, 180, 98)"  x="4" y="1" width="1" height="1" /><rect shape-rendering="crispEdges" fill="rgb(98, 74, 0)"  x="4" y="2" width="1" height="1" /><rect shape-rendering="crispEdges" fill="rgb(98, 74, 0)"  x="4" y="3" width="1" height="1" /><rect shape-rendering="crispEdges" fill="rgb(164, 131, 8)"  x="4" y="4" width="1" height="1" /><rect shape-rendering="crispEdges" fill="rgb(131, 106, 8)"  x="4" y="5" width="1" height="1" /><rect shape-rendering="crispEdges" fill="rgb(197, 180, 90)"  x="4" y="6" width="1" height="1" /><rect shape-rendering="crispEdges" fill="rgb(164, 131, 8)"  x="4" y="7" width="1" height="1" /><rect shape-rendering="crispEdges" fill="rgb(164, 131, 8)"  x="4" y="8" width="1" height="1" /><rect shape-rendering="crispEdges" fill="rgb(213, 180, 98)"  x="4" y="9" width="1" height="1" /><rect shape-rendering="crispEdges" fill="rgb(246, 230, 148)"  x="4" y="10" width="1" height="1" /><rect shape-rendering="crispEdges" fill="rgb(213, 180, 98)"  x="5" y="1" width="1" height="1" /><rect shape-rendering="crispEdges" fill="rgb(164, 131, 8)"  x="5" y="2" width="1" height="1" /><rect shape-rendering="crispEdges" fill="rgb(131, 106, 8)"  x="5" y="3" width="1" height="1" /><rect shape-rendering="crispEdges" fill="rgb(131, 106, 8)"  x="5" y="4" width="1" height="1" /><rect shape-rendering="crispEdges" fill="rgb(164, 131, 8)"  x="5" y="5" width="1" height="1" /><rect shape-rendering="crispEdges" fill="rgb(131, 106, 8)"  x="5" y="6" width="1" height="1" /><rect shape-rendering="crispEdges" fill="rgb(197, 180, 90)"  x="5" y="7" width="1" height="1" /><rect shape-rendering="crispEdges" fill="rgb(164, 131, 8)"  x="5" y="8" width="1" height="1" /><rect shape-rendering="crispEdges" fill="rgb(131, 106, 8)"  x="5" y="9" width="1" height="1" /><rect shape-rendering="crispEdges" fill="rgb(213, 180, 98)"  x="5" y="10" width="1" height="1" /><rect shape-rendering="crispEdges" fill="rgb(246, 230, 148)"  x="5" y="11" width="1" height="1" /><rect shape-rendering="crispEdges" fill="rgb(213, 180, 98)"  x="6" y="2" width="1" height="1" /><rect shape-rendering="crispEdges" fill="rgb(164, 131, 8)"  x="6" y="3" width="1" height="1" /><rect shape-rendering="crispEdges" fill="rgb(131, 106, 8)"  x="6" y="4" width="1" height="1" /><rect shape-rendering="crispEdges" fill="rgb(131, 106, 8)"  x="6" y="5" width="1" height="1" /><rect shape-rendering="crispEdges" fill="rgb(164, 131, 8)"  x="6" y="6" width="1" height="1" /><rect shape-rendering="crispEdges" fill="rgb(41, 123, 106)"  x="6" y="7" width="1" height="1" /><rect shape-rendering="crispEdges" fill="rgb(197, 180, 90)"  x="6" y="8" width="1" height="1" /><rect shape-rendering="crispEdges" fill="rgb(164, 131, 8)"  x="6" y="9" width="1" height="1" /><rect shape-rendering="crispEdges" fill="rgb(131, 106, 8)"  x="6" y="10" width="1" height="1" /><rect shape-rendering="crispEdges" fill="rgb(213, 180, 98)"  x="6" y="11" width="1" height="1" /><rect shape-rendering="crispEdges" fill="rgb(246, 230, 148)"  x="6" y="12" width="1" height="1" /><rect shape-rendering="crispEdges" fill="rgb(213, 180, 98)"  x="7" y="2" width="1" height="1" /><rect shape-rendering="crispEdges" fill="rgb(197, 156, 57)"  x="7" y="3" width="1" height="1" /><rect shape-rendering="crispEdges" fill="rgb(131, 106, 8)"  x="7" y="4" width="1" height="1" /><rect shape-rendering="crispEdges" fill="rgb(131, 106, 8)"  x="7" y="5" width="1" height="1" /><rect shape-rendering="crispEdges" fill="rgb(197, 180, 90)"  x="7" y="6" width="1" height="1" /><rect shape-rendering="crispEdges" fill="rgb(131, 106, 8)"  x="7" y="7" width="1" height="1" /><rect shape-rendering="crispEdges" fill="rgb(131, 106, 8)"  x="7" y="8" width="1" height="1" /><rect shape-rendering="crispEdges" fill="rgb(197, 180, 90)"  x="7" y="9" width="1" height="1" /><rect shape-rendering="crispEdges" fill="rgb(131, 106, 8)"  x="7" y="10" width="1" height="1" /><rect shape-rendering="crispEdges" fill="rgb(131, 106, 8)"  x="7" y="11" width="1" height="1" /><rect shape-rendering="crispEdges" fill="rgb(213, 180, 98)"  x="7" y="12" width="1" height="1" /><rect shape-rendering="crispEdges" fill="rgb(230, 205, 131)"  x="7" y="13" width="1" height="1" /><rect shape-rendering="crispEdges" fill="rgb(213, 180, 98)"  x="8" y="3" width="1" height="1" /><rect shape-rendering="crispEdges" fill="rgb(164, 131, 8)"  x="8" y="4" width="1" height="1" /><rect shape-rendering="crispEdges" fill="rgb(131, 106, 8)"  x="8" y="5" width="1" height="1" /><rect shape-rendering="crispEdges" fill="rgb(131, 106, 8)"  x="8" y="6" width="1" height="1" /><rect shape-rendering="crispEdges" fill="rgb(197, 180, 90)"  x="8" y="7" width="1" height="1" /><rect shape-rendering="crispEdges" fill="rgb(90, 180, 172)"  x="8" y="8" width="1" height="1" /><rect shape-rendering="crispEdges" fill="rgb(41, 123, 106)"  x="8" y="9" width="1" height="1" /><rect shape-rendering="crispEdges" fill="rgb(197, 180, 90)"  x="8" y="10" width="1" height="1" /><rect shape-rendering="crispEdges" fill="rgb(131, 106, 8)"  x="8" y="11" width="1" height="1" /><rect shape-rendering="crispEdges" fill="rgb(131, 106, 8)"  x="8" y="12" width="1" height="1" /><rect shape-rendering="crispEdges" fill="rgb(213, 180, 98)"  x="8" y="13" width="1" height="1" /><rect shape-rendering="crispEdges" fill="rgb(230, 205, 131)"  x="8" y="14" width="1" height="1" /><rect shape-rendering="crispEdges" fill="rgb(213, 180, 98)"  x="9" y="4" width="1" height="1" /><rect shape-rendering="crispEdges" fill="rgb(131, 106, 8)"  x="9" y="5" width="1" height="1" /><rect shape-rendering="crispEdges" fill="rgb(131, 106, 8)"  x="9" y="6" width="1" height="1" /><rect shape-rendering="crispEdges" fill="rgb(131, 106, 8)"  x="9" y="7" width="1" height="1" /><rect shape-rendering="crispEdges" fill="rgb(197, 180, 90)"  x="9" y="8" width="1" height="1" /><rect shape-rendering="crispEdges" fill="rgb(131, 106, 8)"  x="9" y="9" width="1" height="1" /><rect shape-rendering="crispEdges" fill="rgb(131, 106, 8)"  x="9" y="10" width="1" height="1" /><rect shape-rendering="crispEdges" fill="rgb(197, 180, 90)"  x="9" y="11" width="1" height="1" /><rect shape-rendering="crispEdges" fill="rgb(131, 106, 8)"  x="9" y="12" width="1" height="1" /><rect shape-rendering="crispEdges" fill="rgb(164, 131, 8)"  x="9" y="13" width="1" height="1" /><rect shape-rendering="crispEdges" fill="rgb(230, 205, 131)"  x="9" y="14" width="1" height="1" /><rect shape-rendering="crispEdges" fill="rgb(197, 222, 238)"  x="9" y="16" width="1" height="1" /><rect shape-rendering="crispEdges" fill="rgb(148, 148, 189)"  x="9" y="17" width="1" height="1" /><rect shape-rendering="crispEdges" fill="rgb(213, 180, 98)"  x="10" y="5" width="1" height="1" /><rect shape-rendering="crispEdges" fill="rgb(131, 106, 8)"  x="10" y="6" width="1" height="1" /><rect shape-rendering="crispEdges" fill="rgb(131, 106, 8)"  x="10" y="7" width="1" height="1" /><rect shape-rendering="crispEdges" fill="rgb(131, 106, 8)"  x="10" y="8" width="1" height="1" /><rect shape-rendering="crispEdges" fill="rgb(197, 180, 90)"  x="10" y="9" width="1" height="1" /><rect shape-rendering="crispEdges" fill="rgb(131, 106, 8)"  x="10" y="10" width="1" height="1" /><rect shape-rendering="crispEdges" fill="rgb(90, 180, 172)"  x="10" y="11" width="1" height="1" /><rect shape-rendering="crispEdges" fill="rgb(197, 180, 90)"  x="10" y="12" width="1" height="1" /><rect shape-rendering="crispEdges" fill="rgb(131, 106, 8)"  x="10" y="13" width="1" height="1" /><rect shape-rendering="crispEdges" fill="rgb(213, 180, 98)"  x="10" y="14" width="1" height="1" /><rect shape-rendering="crispEdges" fill="rgb(197, 222, 238)"  x="10" y="15" width="1" height="1" /><rect shape-rendering="crispEdges" fill="rgb(172, 180, 222)"  x="10" y="16" width="1" height="1" /><rect shape-rendering="crispEdges" fill="rgb(115, 115, 156)"  x="10" y="17" width="1" height="1" /><rect shape-rendering="crispEdges" fill="rgb(197, 156, 57)"  x="11" y="6" width="1" height="1" /><rect shape-rendering="crispEdges" fill="rgb(131, 106, 8)"  x="11" y="7" width="1" height="1" /><rect shape-rendering="crispEdges" fill="rgb(131, 106, 8)"  x="11" y="8" width="1" height="1" /><rect shape-rendering="crispEdges" fill="rgb(164, 131, 8)"  x="11" y="9" width="1" height="1" /><rect shape-rendering="crispEdges" fill="rgb(131, 106, 8)"  x="11" y="10" width="1" height="1" /><rect shape-rendering="crispEdges" fill="rgb(189, 238, 230)"  x="11" y="11" width="1" height="1" /><rect shape-rendering="crispEdges" fill="rgb(41, 123, 106)"  x="11" y="12" width="1" height="1" /><rect shape-rendering="crispEdges" fill="rgb(197, 180, 90)"  x="11" y="13" width="1" height="1" /><rect shape-rendering="crispEdges" fill="rgb(115, 115, 156)"  x="11" y="14" width="1" height="1" /><rect shape-rendering="crispEdges" fill="rgb(213, 180, 98)"  x="11" y="15" width="1" height="1" /><rect shape-rendering="crispEdges" fill="rgb(115, 115, 156)"  x="11" y="16" width="1" height="1" /><rect shape-rendering="crispEdges" fill="rgb(197, 222, 238)"  x="11" y="18" width="1" height="1" /><rect shape-rendering="crispEdges" fill="rgb(148, 148, 189)"  x="11" y="19" width="1" height="1" /><rect shape-rendering="crispEdges" fill="rgb(213, 180, 98)"  x="12" y="6" width="1" height="1" /><rect shape-rendering="crispEdges" fill="rgb(164, 131, 8)"  x="12" y="7" width="1" height="1" /><rect shape-rendering="crispEdges" fill="rgb(131, 106, 8)"  x="12" y="8" width="1" height="1" /><rect shape-rendering="crispEdges" fill="rgb(131, 106, 8)"  x="12" y="9" width="1" height="1" /><rect shape-rendering="crispEdges" fill="rgb(164, 131, 8)"  x="12" y="10" width="1" height="1" /><rect shape-rendering="crispEdges" fill="rgb(131, 106, 8)"  x="12" y="11" width="1" height="1" /><rect shape-rendering="crispEdges" fill="rgb(131, 106, 8)"  x="12" y="12" width="1" height="1" /><rect shape-rendering="crispEdges" fill="rgb(90, 106, 57)"  x="12" y="13" width="1" height="1" /><rect shape-rendering="crispEdges" fill="rgb(90, 106, 57)"  x="12" y="14" width="1" height="1" /><rect shape-rendering="crispEdges" fill="rgb(213, 180, 98)"  x="12" y="15" width="1" height="1" /><rect shape-rendering="crispEdges" fill="rgb(197, 222, 238)"  x="12" y="17" width="1" height="1" /><rect shape-rendering="crispEdges" fill="rgb(197, 222, 238)"  x="12" y="18" width="1" height="1" /><rect shape-rendering="crispEdges" fill="rgb(115, 115, 156)"  x="12" y="19" width="1" height="1" /><rect shape-rendering="crispEdges" fill="rgb(213, 180, 98)"  x="13" y="7" width="1" height="1" /><rect shape-rendering="crispEdges" fill="rgb(131, 106, 8)"  x="13" y="8" width="1" height="1" /><rect shape-rendering="crispEdges" fill="rgb(131, 106, 8)"  x="13" y="9" width="1" height="1" /><rect shape-rendering="crispEdges" fill="rgb(131, 106, 8)"  x="13" y="10" width="1" height="1" /><rect shape-rendering="crispEdges" fill="rgb(164, 131, 8)"  x="13" y="11" width="1" height="1" /><rect shape-rendering="crispEdges" fill="rgb(164, 131, 8)"  x="13" y="12" width="1" height="1" /><rect shape-rendering="crispEdges" fill="rgb(213, 180, 98)"  x="13" y="13" width="1" height="1" /><rect shape-rendering="crispEdges" fill="rgb(90, 106, 57)"  x="13" y="14" width="1" height="1" /><rect shape-rendering="crispEdges" fill="rgb(164, 131, 8)"  x="13" y="15" width="1" height="1" /><rect shape-rendering="crispEdges" fill="rgb(213, 180, 98)"  x="13" y="16" width="1" height="1" /><rect shape-rendering="crispEdges" fill="rgb(213, 180, 98)"  x="13" y="17" width="1" height="1" /><rect shape-rendering="crispEdges" fill="rgb(115, 115, 156)"  x="13" y="18" width="1" height="1" /><rect shape-rendering="crispEdges" fill="rgb(230, 205, 131)"  x="13" y="21" width="1" height="1" /><rect shape-rendering="crispEdges" fill="rgb(246, 230, 148)"  x="13" y="22" width="1" height="1" /><rect shape-rendering="crispEdges" fill="rgb(246, 230, 148)"  x="13" y="23" width="1" height="1" /><rect shape-rendering="crispEdges" fill="rgb(213, 180, 98)"  x="14" y="8" width="1" height="1" /><rect shape-rendering="crispEdges" fill="rgb(131, 106, 8)"  x="14" y="9" width="1" height="1" /><rect shape-rendering="crispEdges" fill="rgb(131, 106, 8)"  x="14" y="10" width="1" height="1" /><rect shape-rendering="crispEdges" fill="rgb(131, 106, 8)"  x="14" y="11" width="1" height="1" /><rect shape-rendering="crispEdges" fill="rgb(213, 180, 98)"  x="14" y="12" width="1" height="1" /><rect shape-rendering="crispEdges" fill="rgb(164, 131, 8)"  x="14" y="13" width="1" height="1" /><rect shape-rendering="crispEdges" fill="rgb(131, 106, 8)"  x="14" y="14" width="1" height="1" /><rect shape-rendering="crispEdges" fill="rgb(213, 180, 98)"  x="14" y="15" width="1" height="1" /><rect shape-rendering="crispEdges" fill="rgb(164, 131, 8)"  x="14" y="16" width="1" height="1" /><rect shape-rendering="crispEdges" fill="rgb(16, 106, 82)"  x="14" y="17" width="1" height="1" /><rect shape-rendering="crispEdges" fill="rgb(189, 189, 98)"  x="14" y="18" width="1" height="1" /><rect shape-rendering="crispEdges" fill="rgb(189, 189, 98)"  x="14" y="19" width="1" height="1" /><rect shape-rendering="crispEdges" fill="rgb(230, 205, 131)"  x="14" y="20" width="1" height="1" /><rect shape-rendering="crispEdges" fill="rgb(49, 156, 115)"  x="14" y="21" width="1" height="1" /><rect shape-rendering="crispEdges" fill="rgb(49, 156, 115)"  x="14" y="22" width="1" height="1" /><rect shape-rendering="crispEdges" fill="rgb(230, 205, 131)"  x="14" y="23" width="1" height="1" /><rect shape-rendering="crispEdges" fill="rgb(197, 156, 57)"  x="15" y="9" width="1" height="1" /><rect shape-rendering="crispEdges" fill="rgb(131, 106, 8)"  x="15" y="10" width="1" height="1" /><rect shape-rendering="crispEdges" fill="rgb(213, 180, 98)"  x="15" y="11" width="1" height="1" /><rect shape-rendering="crispEdges" fill="rgb(164, 131, 8)"  x="15" y="12" width="1" height="1" /><rect shape-rendering="crispEdges" fill="rgb(90, 106, 57)"  x="15" y="13" width="1" height="1" /><rect shape-rendering="crispEdges" fill="rgb(213, 180, 98)"  x="15" y="14" width="1" height="1" /><rect shape-rendering="crispEdges" fill="rgb(164, 131, 8)"  x="15" y="15" width="1" height="1" /><rect shape-rendering="crispEdges" fill="rgb(16, 106, 82)"  x="15" y="16" width="1" height="1" /><rect shape-rendering="crispEdges" fill="rgb(16, 106, 82)"  x="15" y="17" width="1" height="1" /><rect shape-rendering="crispEdges" fill="rgb(16, 106, 82)"  x="15" y="18" width="1" height="1" /><rect shape-rendering="crispEdges" fill="rgb(0, 131, 57)"  x="15" y="19" width="1" height="1" /><rect shape-rendering="crispEdges" fill="rgb(0, 131, 57)"  x="15" y="20" width="1" height="1" /><rect shape-rendering="crispEdges" fill="rgb(16, 106, 82)"  x="15" y="21" width="1" height="1" /><rect shape-rendering="crispEdges" fill="rgb(49, 156, 115)"  x="15" y="22" width="1" height="1" /><rect shape-rendering="crispEdges" fill="rgb(230, 205, 131)"  x="15" y="23" width="1" height="1" /><rect shape-rendering="crispEdges" fill="rgb(213, 180, 98)"  x="16" y="9" width="1" height="1" /><rect shape-rendering="crispEdges" fill="rgb(164, 131, 8)"  x="16" y="10" width="1" height="1" /><rect shape-rendering="crispEdges" fill="rgb(164, 131, 8)"  x="16" y="11" width="1" height="1" /><rect shape-rendering="crispEdges" fill="rgb(90, 106, 57)"  x="16" y="12" width="1" height="1" /><rect shape-rendering="crispEdges" fill="rgb(213, 180, 98)"  x="16" y="13" width="1" height="1" /><rect shape-rendering="crispEdges" fill="rgb(164, 131, 8)"  x="16" y="14" width="1" height="1" /><rect shape-rendering="crispEdges" fill="rgb(0, 131, 57)"  x="16" y="15" width="1" height="1" /><rect shape-rendering="crispEdges" fill="rgb(0, 164, 57)"  x="16" y="16" width="1" height="1" /><rect shape-rendering="crispEdges" fill="rgb(0, 164, 57)"  x="16" y="17" width="1" height="1" /><rect shape-rendering="crispEdges" fill="rgb(0, 131, 57)"  x="16" y="18" width="1" height="1" /><rect shape-rendering="crispEdges" fill="rgb(49, 156, 115)"  x="16" y="19" width="1" height="1" /><rect shape-rendering="crispEdges" fill="rgb(49, 156, 115)"  x="16" y="20" width="1" height="1" /><rect shape-rendering="crispEdges" fill="rgb(0, 131, 57)"  x="16" y="21" width="1" height="1" /><rect shape-rendering="crispEdges" fill="rgb(49, 156, 115)"  x="16" y="22" width="1" height="1" /><rect shape-rendering="crispEdges" fill="rgb(230, 205, 131)"  x="16" y="23" width="1" height="1" /><rect shape-rendering="crispEdges" fill="rgb(213, 180, 98)"  x="17" y="10" width="1" height="1" /><rect shape-rendering="crispEdges" fill="rgb(90, 106, 57)"  x="17" y="11" width="1" height="1" /><rect shape-rendering="crispEdges" fill="rgb(131, 106, 8)"  x="17" y="12" width="1" height="1" /><rect shape-rendering="crispEdges" fill="rgb(164, 131, 8)"  x="17" y="13" width="1" height="1" /><rect shape-rendering="crispEdges" fill="rgb(16, 106, 82)"  x="17" y="14" width="1" height="1" /><rect shape-rendering="crispEdges" fill="rgb(0, 131, 57)"  x="17" y="15" width="1" height="1" /><rect shape-rendering="crispEdges" fill="rgb(0, 164, 57)"  x="17" y="16" width="1" height="1" /><rect shape-rendering="crispEdges" fill="rgb(0, 131, 57)"  x="17" y="17" width="1" height="1" /><rect shape-rendering="crispEdges" fill="rgb(49, 156, 115)"  x="17" y="18" width="1" height="1" /><rect shape-rendering="crispEdges" fill="rgb(0, 131, 57)"  x="17" y="19" width="1" height="1" /><rect shape-rendering="crispEdges" fill="rgb(49, 156, 115)"  x="17" y="20" width="1" height="1" /><rect shape-rendering="crispEdges" fill="rgb(49, 156, 115)"  x="17" y="21" width="1" height="1" /><rect shape-rendering="crispEdges" fill="rgb(230, 205, 131)"  x="17" y="22" width="1" height="1" /><rect shape-rendering="crispEdges" fill="rgb(230, 205, 131)"  x="17" y="23" width="1" height="1" /><rect shape-rendering="crispEdges" fill="rgb(213, 180, 98)"  x="18" y="11" width="1" height="1" /><rect shape-rendering="crispEdges" fill="rgb(164, 131, 8)"  x="18" y="12" width="1" height="1" /><rect shape-rendering="crispEdges" fill="rgb(16, 106, 82)"  x="18" y="13" width="1" height="1" /><rect shape-rendering="crispEdges" fill="rgb(0, 131, 57)"  x="18" y="14" width="1" height="1" /><rect shape-rendering="crispEdges" fill="rgb(0, 131, 57)"  x="18" y="15" width="1" height="1" /><rect shape-rendering="crispEdges" fill="rgb(0, 131, 57)"  x="18" y="16" width="1" height="1" /><rect shape-rendering="crispEdges" fill="rgb(49, 156, 115)"  x="18" y="17" width="1" height="1" /><rect shape-rendering="crispEdges" fill="rgb(0, 131, 57)"  x="18" y="18" width="1" height="1" /><rect shape-rendering="crispEdges" fill="rgb(0, 131, 57)"  x="18" y="19" width="1" height="1" /><rect shape-rendering="crispEdges" fill="rgb(49, 156, 115)"  x="18" y="20" width="1" height="1" /><rect shape-rendering="crispEdges" fill="rgb(230, 205, 131)"  x="18" y="21" width="1" height="1" /><rect shape-rendering="crispEdges" fill="rgb(164, 131, 8)"  x="18" y="22" width="1" height="1" /><rect shape-rendering="crispEdges" fill="rgb(213, 180, 98)"  x="18" y="23" width="1" height="1" /><rect shape-rendering="crispEdges" fill="rgb(164, 131, 8)"  x="19" y="12" width="1" height="1" /><rect shape-rendering="crispEdges" fill="rgb(16, 106, 82)"  x="19" y="13" width="1" height="1" /><rect shape-rendering="crispEdges" fill="rgb(0, 131, 57)"  x="19" y="14" width="1" height="1" /><rect shape-rendering="crispEdges" fill="rgb(0, 131, 57)"  x="19" y="15" width="1" height="1" /><rect shape-rendering="crispEdges" fill="rgb(49, 156, 115)"  x="19" y="16" width="1" height="1" /><rect shape-rendering="crispEdges" fill="rgb(0, 131, 57)"  x="19" y="17" width="1" height="1" /><rect shape-rendering="crispEdges" fill="rgb(0, 131, 57)"  x="19" y="18" width="1" height="1" /><rect shape-rendering="crispEdges" fill="rgb(49, 156, 115)"  x="19" y="19" width="1" height="1" /><rect shape-rendering="crispEdges" fill="rgb(230, 205, 131)"  x="19" y="20" width="1" height="1" /><rect shape-rendering="crispEdges" fill="rgb(164, 131, 8)"  x="19" y="21" width="1" height="1" /><rect shape-rendering="crispEdges" fill="rgb(131, 106, 8)"  x="19" y="22" width="1" height="1" /><rect shape-rendering="crispEdges" fill="rgb(213, 180, 98)"  x="19" y="23" width="1" height="1" /><rect shape-rendering="crispEdges" fill="rgb(213, 180, 98)"  x="20" y="12" width="1" height="1" /><rect shape-rendering="crispEdges" fill="rgb(49, 156, 115)"  x="20" y="13" width="1" height="1" /><rect shape-rendering="crispEdges" fill="rgb(0, 131, 57)"  x="20" y="14" width="1" height="1" /><rect shape-rendering="crispEdges" fill="rgb(0, 131, 57)"  x="20" y="15" width="1" height="1" /><rect shape-rendering="crispEdges" fill="rgb(49, 156, 115)"  x="20" y="16" width="1" height="1" /><rect shape-rendering="crispEdges" fill="rgb(0, 131, 57)"  x="20" y="17" width="1" height="1" /><rect shape-rendering="crispEdges" fill="rgb(49, 156, 115)"  x="20" y="18" width="1" height="1" /><rect shape-rendering="crispEdges" fill="rgb(230, 205, 131)"  x="20" y="19" width="1" height="1" /><rect shape-rendering="crispEdges" fill="rgb(197, 156, 57)"  x="20" y="20" width="1" height="1" /><rect shape-rendering="crispEdges" fill="rgb(164, 131, 8)"  x="20" y="21" width="1" height="1" /><rect shape-rendering="crispEdges" fill="rgb(131, 106, 8)"  x="20" y="22" width="1" height="1" /><rect shape-rendering="crispEdges" fill="rgb(230, 205, 131)"  x="20" y="23" width="1" height="1" /><rect shape-rendering="crispEdges" fill="rgb(246, 230, 148)"  x="20" y="27" width="1" height="1" /><rect shape-rendering="crispEdges" fill="rgb(246, 230, 148)"  x="20" y="28" width="1" height="1" /><rect shape-rendering="crispEdges" fill="rgb(246, 230, 148)"  x="20" y="29" width="1" height="1" /><rect shape-rendering="crispEdges" fill="rgb(230, 205, 131)"  x="20" y="30" width="1" height="1" /><rect shape-rendering="crispEdges" fill="rgb(213, 180, 98)"  x="21" y="13" width="1" height="1" /><rect shape-rendering="crispEdges" fill="rgb(49, 156, 115)"  x="21" y="14" width="1" height="1" /><rect shape-rendering="crispEdges" fill="rgb(0, 131, 57)"  x="21" y="15" width="1" height="1" /><rect shape-rendering="crispEdges" fill="rgb(0, 131, 57)"  x="21" y="16" width="1" height="1" /><rect shape-rendering="crispEdges" fill="rgb(49, 156, 115)"  x="21" y="17" width="1" height="1" /><rect shape-rendering="crispEdges" fill="rgb(230, 205, 131)"  x="21" y="18" width="1" height="1" /><rect shape-rendering="crispEdges" fill="rgb(164, 131, 8)"  x="21" y="19" width="1" height="1" /><rect shape-rendering="crispEdges" fill="rgb(164, 131, 8)"  x="21" y="20" width="1" height="1" /><rect shape-rendering="crispEdges" fill="rgb(197, 156, 57)"  x="21" y="21" width="1" height="1" /><rect shape-rendering="crispEdges" fill="rgb(164, 131, 8)"  x="21" y="22" width="1" height="1" /><rect shape-rendering="crispEdges" fill="rgb(230, 205, 131)"  x="21" y="23" width="1" height="1" /><rect shape-rendering="crispEdges" fill="rgb(246, 230, 148)"  x="21" y="27" width="1" height="1" /><rect shape-rendering="crispEdges" fill="rgb(180, 164, 82)"  x="21" y="28" width="1" height="1" /><rect shape-rendering="crispEdges" fill="rgb(180, 164, 82)"  x="21" y="29" width="1" height="1" /><rect shape-rendering="crispEdges" fill="rgb(213, 180, 98)"  x="21" y="30" width="1" height="1" /><rect shape-rendering="crispEdges" fill="rgb(230, 205, 131)"  x="21" y="31" width="1" height="1" /><rect shape-rendering="crispEdges" fill="rgb(213, 180, 98)"  x="22" y="14" width="1" height="1" /><rect shape-rendering="crispEdges" fill="rgb(49, 156, 115)"  x="22" y="15" width="1" height="1" /><rect shape-rendering="crispEdges" fill="rgb(49, 156, 115)"  x="22" y="16" width="1" height="1" /><rect shape-rendering="crispEdges" fill="rgb(230, 205, 131)"  x="22" y="17" width="1" height="1" /><rect shape-rendering="crispEdges" fill="rgb(164, 131, 8)"  x="22" y="18" width="1" height="1" /><rect shape-rendering="crispEdges" fill="rgb(131, 106, 8)"  x="22" y="19" width="1" height="1" /><rect shape-rendering="crispEdges" fill="rgb(131, 106, 8)"  x="22" y="20" width="1" height="1" /><rect shape-rendering="crispEdges" fill="rgb(164, 131, 8)"  x="22" y="21" width="1" height="1" /><rect shape-rendering="crispEdges" fill="rgb(197, 156, 57)"  x="22" y="22" width="1" height="1" /><rect shape-rendering="crispEdges" fill="rgb(172, 115, 131)"  x="22" y="23" width="1" height="1" /><rect shape-rendering="crispEdges" fill="rgb(115, 74, 82)"  x="22" y="24" width="1" height="1" /><rect shape-rendering="crispEdges" fill="rgb(213, 180, 98)"  x="22" y="27" width="1" height="1" /><rect shape-rendering="crispEdges" fill="rgb(90, 106, 57)"  x="22" y="28" width="1" height="1" /><rect shape-rendering="crispEdges" fill="rgb(90, 106, 57)"  x="22" y="29" width="1" height="1" /><rect shape-rendering="crispEdges" fill="rgb(90, 106, 57)"  x="22" y="30" width="1" height="1" /><rect shape-rendering="crispEdges" fill="rgb(213, 180, 98)"  x="22" y="31" width="1" height="1" /><rect shape-rendering="crispEdges" fill="rgb(230, 205, 131)"  x="23" y="14" width="1" height="1" /><rect shape-rendering="crispEdges" fill="rgb(230, 205, 131)"  x="23" y="15" width="1" height="1" /><rect shape-rendering="crispEdges" fill="rgb(230, 205, 131)"  x="23" y="16" width="1" height="1" /><rect shape-rendering="crispEdges" fill="rgb(230, 205, 131)"  x="23" y="17" width="1" height="1" /><rect shape-rendering="crispEdges" fill="rgb(230, 205, 131)"  x="23" y="18" width="1" height="1" /><rect shape-rendering="crispEdges" fill="rgb(213, 180, 98)"  x="23" y="19" width="1" height="1" /><rect shape-rendering="crispEdges" fill="rgb(213, 180, 98)"  x="23" y="20" width="1" height="1" /><rect shape-rendering="crispEdges" fill="rgb(213, 180, 98)"  x="23" y="21" width="1" height="1" /><rect shape-rendering="crispEdges" fill="rgb(172, 115, 131)"  x="23" y="22" width="1" height="1" /><rect shape-rendering="crispEdges" fill="rgb(205, 164, 172)"  x="23" y="23" width="1" height="1" /><rect shape-rendering="crispEdges" fill="rgb(172, 115, 131)"  x="23" y="24" width="1" height="1" /><rect shape-rendering="crispEdges" fill="rgb(115, 74, 82)"  x="23" y="25" width="1" height="1" /><rect shape-rendering="crispEdges" fill="rgb(213, 180, 98)"  x="23" y="28" width="1" height="1" /><rect shape-rendering="crispEdges" fill="rgb(148, 115, 16)"  x="23" y="29" width="1" height="1" /><rect shape-rendering="crispEdges" fill="rgb(148, 115, 16)"  x="23" y="30" width="1" height="1" /><rect shape-rendering="crispEdges" fill="rgb(213, 180, 98)"  x="23" y="31" width="1" height="1" /><rect shape-rendering="crispEdges" fill="rgb(115, 74, 82)"  x="24" y="22" width="1" height="1" /><rect shape-rendering="crispEdges" fill="rgb(172, 115, 131)"  x="24" y="23" width="1" height="1" /><rect shape-rendering="crispEdges" fill="rgb(213, 197, 0)"  x="24" y="24" width="1" height="1" /><rect shape-rendering="crispEdges" fill="rgb(230, 205, 131)"  x="24" y="25" width="1" height="1" /><rect shape-rendering="crispEdges" fill="rgb(230, 205, 131)"  x="24" y="26" width="1" height="1" /><rect shape-rendering="crispEdges" fill="rgb(213, 180, 98)"  x="24" y="27" width="1" height="1" /><rect shape-rendering="crispEdges" fill="rgb(90, 106, 57)"  x="24" y="28" width="1" height="1" /><rect shape-rendering="crispEdges" fill="rgb(148, 115, 16)"  x="24" y="29" width="1" height="1" /><rect shape-rendering="crispEdges" fill="rgb(123, 98, 16)"  x="24" y="30" width="1" height="1" /><rect shape-rendering="crispEdges" fill="rgb(197, 156, 57)"  x="24" y="31" width="1" height="1" /><rect shape-rendering="crispEdges" fill="rgb(115, 74, 82)"  x="25" y="23" width="1" height="1" /><rect shape-rendering="crispEdges" fill="rgb(230, 205, 131)"  x="25" y="24" width="1" height="1" /><rect shape-rendering="crispEdges" fill="rgb(230, 230, 156)"  x="25" y="25" width="1" height="1" /><rect shape-rendering="crispEdges" fill="rgb(115, 98, 49)"  x="25" y="26" width="1" height="1" /><rect shape-rendering="crispEdges" fill="rgb(230, 205, 131)"  x="25" y="27" width="1" height="1" /><rect shape-rendering="crispEdges" fill="rgb(148, 115, 16)"  x="25" y="28" width="1" height="1" /><rect shape-rendering="crispEdges" fill="rgb(123, 98, 16)"  x="25" y="29" width="1" height="1" /><rect shape-rendering="crispEdges" fill="rgb(213, 180, 98)"  x="25" y="30" width="1" height="1" /><rect shape-rendering="crispEdges" fill="rgb(197, 156, 57)"  x="25" y="31" width="1" height="1" /><rect shape-rendering="crispEdges" fill="rgb(246, 230, 148)"  x="26" y="24" width="1" height="1" /><rect shape-rendering="crispEdges" fill="rgb(148, 172, 65)"  x="26" y="25" width="1" height="1" /><rect shape-rendering="crispEdges" fill="rgb(131, 139, 57)"  x="26" y="26" width="1" height="1" /><rect shape-rendering="crispEdges" fill="rgb(230, 205, 131)"  x="26" y="27" width="1" height="1" /><rect shape-rendering="crispEdges" fill="rgb(123, 98, 16)"  x="26" y="28" width="1" height="1" /><rect shape-rendering="crispEdges" fill="rgb(197, 156, 57)"  x="26" y="29" width="1" height="1" /><rect shape-rendering="crispEdges" fill="rgb(197, 156, 57)"  x="26" y="30" width="1" height="1" /><rect shape-rendering="crispEdges" fill="rgb(230, 205, 131)"  x="27" y="20" width="1" height="1" /><rect shape-rendering="crispEdges" fill="rgb(230, 205, 131)"  x="27" y="21" width="1" height="1" /><rect shape-rendering="crispEdges" fill="rgb(213, 180, 98)"  x="27" y="22" width="1" height="1" /><rect shape-rendering="crispEdges" fill="rgb(213, 180, 98)"  x="27" y="24" width="1" height="1" /><rect shape-rendering="crispEdges" fill="rgb(246, 230, 148)"  x="27" y="25" width="1" height="1" /><rect shape-rendering="crispEdges" fill="rgb(230, 205, 131)"  x="27" y="26" width="1" height="1" /><rect shape-rendering="crispEdges" fill="rgb(213, 180, 98)"  x="27" y="27" width="1" height="1" /><rect shape-rendering="crispEdges" fill="rgb(197, 156, 57)"  x="27" y="28" width="1" height="1" /><rect shape-rendering="crispEdges" fill="rgb(246, 230, 148)"  x="28" y="20" width="1" height="1" /><rect shape-rendering="crispEdges" fill="rgb(90, 106, 57)"  x="28" y="21" width="1" height="1" /><rect shape-rendering="crispEdges" fill="rgb(90, 106, 57)"  x="28" y="22" width="1" height="1" /><rect shape-rendering="crispEdges" fill="rgb(213, 180, 98)"  x="28" y="23" width="1" height="1" /><rect shape-rendering="crispEdges" fill="rgb(90, 106, 57)"  x="28" y="24" width="1" height="1" /><rect shape-rendering="crispEdges" fill="rgb(148, 115, 16)"  x="28" y="25" width="1" height="1" /><rect shape-rendering="crispEdges" fill="rgb(123, 98, 16)"  x="28" y="26" width="1" height="1" /><rect shape-rendering="crispEdges" fill="rgb(197, 156, 57)"  x="28" y="27" width="1" height="1" /><rect shape-rendering="crispEdges" fill="rgb(246, 230, 148)"  x="29" y="20" width="1" height="1" /><rect shape-rendering="crispEdges" fill="rgb(148, 115, 16)"  x="29" y="21" width="1" height="1" /><rect shape-rendering="crispEdges" fill="rgb(90, 106, 57)"  x="29" y="22" width="1" height="1" /><rect shape-rendering="crispEdges" fill="rgb(90, 106, 57)"  x="29" y="23" width="1" height="1" /><rect shape-rendering="crispEdges" fill="rgb(123, 98, 16)"  x="29" y="24" width="1" height="1" /><rect shape-rendering="crispEdges" fill="rgb(123, 98, 16)"  x="29" y="25" width="1" height="1" /><rect shape-rendering="crispEdges" fill="rgb(197, 156, 57)"  x="29" y="26" width="1" height="1" /><rect shape-rendering="crispEdges" fill="rgb(230, 205, 131)"  x="30" y="20" width="1" height="1" /><rect shape-rendering="crispEdges" fill="rgb(213, 180, 98)"  x="30" y="21" width="1" height="1" /><rect shape-rendering="crispEdges" fill="rgb(123, 98, 16)"  x="30" y="22" width="1" height="1" /><rect shape-rendering="crispEdges" fill="rgb(123, 98, 16)"  x="30" y="23" width="1" height="1" /><rect shape-rendering="crispEdges" fill="rgb(123, 98, 16)"  x="30" y="24" width="1" height="1" /><rect shape-rendering="crispEdges" fill="rgb(213, 180, 98)"  x="30" y="25" width="1" height="1" /><rect shape-rendering="crispEdges" fill="rgb(197, 156, 57)"  x="30" y="26" width="1" height="1" /><rect shape-rendering="crispEdges" fill="rgb(230, 205, 131)"  x="31" y="21" width="1" height="1" /><rect shape-rendering="crispEdges" fill="rgb(213, 180, 98)"  x="31" y="22" width="1" height="1" /><rect shape-rendering="crispEdges" fill="rgb(197, 156, 57)"  x="31" y="23" width="1" height="1" /><rect shape-rendering="crispEdges" fill="rgb(197, 156, 57)"  x="31" y="24" width="1" height="1" /><rect shape-rendering="crispEdges" fill="rgb(197, 156, 57)"  x="31" y="25" width="1" height="1" /></svg>