<svg xmlns="http://www.w3.org/2000/svg" xmlns:xlink= "http://www.w3.org/1999/xlink" width="32" height="32" viewBox ="0 0 32 32"><rect shape-rendering="crispEdges" fill="rgb(82, 205, 172)"  x="2" y="2" width="1" height="1" /><rect shape-rendering="crispEdges" fill="rgb(82, 205, 172)"  x="2" y="3" width="1" height="1" /><rect shape-rendering="crispEdges" fill="rgb(82, 205, 172)"  x="2" y="4" width="1" height="1" /><rect shape-rendering="crispEdges" fill="rgb(24, 164, 148)"  x="3" y="2" width="1" height="1" /><rect shape-rendering="crispEdges" fill="rgb(106, 222, 189)"  x="3" y="3" width="1" height="1" /><rect shape-rendering="crispEdges" fill="rgb(82, 205, 172)"  x="3" y="4" width="1" height="1" /><rect shape-rendering="crispEdges" fill="rgb(82, 205, 172)"  x="3" y="5" width="1" height="1" /><rect shape-rendering="crispEdges" fill="rgb(82, 205, 172)"  x="3" y="6" width="1" height="1" /><rect shape-rendering="crispEdges" fill="rgb(24, 164, 148)"  x="4" y="2" width="1" height="1" /><rect shape-rendering="crispEdges" fill="rgb(24, 164, 148)"  x="4" y="3" width="1" height="1" /><rect shape-rendering="crispEdges" fill="rgb(106, 222, 189)"  x="4" y="4" width="1" height="1" /><rect shape-rendering="crispEdges" fill="rgb(82, 205, 172)"  x="4" y="5" width="1" height="1" /><rect shape-rendering="crispEdges" fill="rgb(57, 180, 164)"  x="4" y="6" width="1" height="1" /><rect shape-rendering="crispEdges" fill="rgb(180, 180, 180)"  x="4" y="7" width="1" height="1" /><rect shape-rendering="crispEdges" fill="rgb(24, 164, 148)"  x="5" y="2" width="1" height="1" /><rect shape-rendering="crispEdges" fill="rgb(24, 164, 148)"  x="5" y="3" width="1" height="1" /><rect shape-rendering="crispEdges" fill="rgb(57, 180, 164)"  x="5" y="4" width="1" height="1" /><rect shape-rendering="crispEdges" fill="rgb(106, 222, 189)"  x="5" y="5" width="1" height="1" /><rect shape-rendering="crispEdges" fill="rgb(82, 205, 172)"  x="5" y="6" width="1" height="1" /><rect shape-rendering="crispEdges" fill="rgb(57, 180, 164)"  x="5" y="7" width="1" height="1" /><rect shape-rendering="crispEdges" fill="rgb(156, 115, 74)"  x="5" y="8" width="1" height="1" /><rect shape-rendering="crispEdges" fill="rgb(24, 164, 148)"  x="6" y="3" width="1" height="1" /><rect shape-rendering="crispEdges" fill="rgb(24, 164, 148)"  x="6" y="4" width="1" height="1" /><rect shape-rendering="crispEdges" fill="rgb(255, 222, 57)"  x="6" y="5" width="1" height="1" /><rect shape-rendering="crispEdges" fill="rgb(255, 164, 16)"  x="6" y="6" width="1" height="1" /><rect shape-rendering="crispEdges" fill="rgb(180, 189, 123)"  x="6" y="7" width="1" height="1" /><rect shape-rendering="crispEdges" fill="rgb(205, 164, 106)"  x="6" y="8" width="1" height="1" /><rect shape-rendering="crispEdges" fill="rgb(131, 90, 57)"  x="6" y="9" width="1" height="1" /><rect shape-rendering="crispEdges" fill="rgb(24, 164, 148)"  x="7" y="3" width="1" height="1" /><rect shape-rendering="crispEdges" fill="rgb(0, 148, 131)"  x="7" y="4" width="1" height="1" /><rect shape-rendering="crispEdges" fill="rgb(180, 189, 123)"  x="7" y="5" width="1" height="1" /><rect shape-rendering="crispEdges" fill="rgb(255, 164, 16)"  x="7" y="6" width="1" height="1" /><rect shape-rendering="crispEdges" fill="rgb(82, 205, 172)"  x="7" y="7" width="1" height="1" /><rect shape-rendering="crispEdges" fill="rgb(82, 205, 172)"  x="7" y="8" width="1" height="1" /><rect shape-rendering="crispEdges" fill="rgb(205, 164, 106)"  x="7" y="9" width="1" height="1" /><rect shape-rendering="crispEdges" fill="rgb(131, 90, 57)"  x="7" y="10" width="1" height="1" /><rect shape-rendering="crispEdges" fill="rgb(24, 164, 148)"  x="8" y="4" width="1" height="1" /><rect shape-rendering="crispEdges" fill="rgb(0, 148, 131)"  x="8" y="5" width="1" height="1" /><rect shape-rendering="crispEdges" fill="rgb(0, 148, 131)"  x="8" y="6" width="1" height="1" /><rect shape-rendering="crispEdges" fill="rgb(57, 180, 164)"  x="8" y="7" width="1" height="1" /><rect shape-rendering="crispEdges" fill="rgb(82, 205, 172)"  x="8" y="8" width="1" height="1" /><rect shape-rendering="crispEdges" fill="rgb(57, 180, 164)"  x="8" y="9" width="1" height="1" /><rect shape-rendering="crispEdges" fill="rgb(205, 164, 106)"  x="8" y="10" width="1" height="1" /><rect shape-rendering="crispEdges" fill="rgb(131, 90, 57)"  x="8" y="11" width="1" height="1" /><rect shape-rendering="crispEdges" fill="rgb(156, 115, 74)"  x="9" y="5" width="1" height="1" /><rect shape-rendering="crispEdges" fill="rgb(0, 148, 131)"  x="9" y="6" width="1" height="1" /><rect shape-rendering="crispEdges" fill="rgb(0, 148, 131)"  x="9" y="7" width="1" height="1" /><rect shape-rendering="crispEdges" fill="rgb(57, 180, 164)"  x="9" y="8" width="1" height="1" /><rect shape-rendering="crispEdges" fill="rgb(82, 205, 172)"  x="9" y="9" width="1" height="1" /><rect shape-rendering="crispEdges" fill="rgb(57, 180, 164)"  x="9" y="10" width="1" height="1" /><rect shape-rendering="crispEdges" fill="rgb(205, 164, 106)"  x="9" y="11" width="1" height="1" /><rect shape-rendering="crispEdges" fill="rgb(156, 115, 74)"  x="9" y="12" width="1" height="1" /><rect shape-rendering="crispEdges" fill="rgb(131, 90, 57)"  x="10" y="6" width="1" height="1" /><rect shape-rendering="crispEdges" fill="rgb(0, 148, 131)"  x="10" y="7" width="1" height="1" /><rect shape-rendering="crispEdges" fill="rgb(0, 148, 131)"  x="10" y="8" width="1" height="1" /><rect shape-rendering="crispEdges" fill="rgb(57, 180, 164)"  x="10" y="9" width="1" height="1" /><rect shape-rendering="crispEdges" fill="rgb(82, 205, 172)"  x="10" y="10" width="1" height="1" /><rect shape-rendering="crispEdges" fill="rgb(57, 180, 164)"  x="10" y="11" width="1" height="1" /><rect shape-rendering="crispEdges" fill="rgb(24, 164, 148)"  x="10" y="12" width="1" height="1" /><rect shape-rendering="crispEdges" fill="rgb(172, 189, 205)"  x="10" y="13" width="1" height="1" /><rect shape-rendering="crispEdges" fill="rgb(172, 189, 205)"  x="10" y="14" width="1" height="1" /><rect shape-rendering="crispEdges" fill="rgb(131, 90, 57)"  x="11" y="7" width="1" height="1" /><rect shape-rendering="crispEdges" fill="rgb(0, 148, 131)"  x="11" y="8" width="1" height="1" /><rect shape-rendering="crispEdges" fill="rgb(0, 148, 131)"  x="11" y="9" width="1" height="1" /><rect shape-rendering="crispEdges" fill="rgb(57, 180, 164)"  x="11" y="10" width="1" height="1" /><rect shape-rendering="crispEdges" fill="rgb(82, 205, 172)"  x="11" y="11" width="1" height="1" /><rect shape-rendering="crispEdges" fill="rgb(57, 180, 164)"  x="11" y="12" width="1" height="1" /><rect shape-rendering="crispEdges" fill="rgb(123, 156, 180)"  x="11" y="13" width="1" height="1" /><rect shape-rendering="crispEdges" fill="rgb(57, 180, 164)"  x="11" y="14" width="1" height="1" /><rect shape-rendering="crispEdges" fill="rgb(172, 189, 205)"  x="11" y="15" width="1" height="1" /><rect shape-rendering="crispEdges" fill="rgb(222, 222, 222)"  x="11" y="16" width="1" height="1" /><rect shape-rendering="crispEdges" fill="rgb(222, 222, 222)"  x="11" y="17" width="1" height="1" /><rect shape-rendering="crispEdges" fill="rgb(172, 189, 205)"  x="11" y="18" width="1" height="1" /><rect shape-rendering="crispEdges" fill="rgb(131, 90, 57)"  x="12" y="8" width="1" height="1" /><rect shape-rendering="crispEdges" fill="rgb(0, 148, 131)"  x="12" y="9" width="1" height="1" /><rect shape-rendering="crispEdges" fill="rgb(0, 148, 131)"  x="12" y="10" width="1" height="1" /><rect shape-rendering="crispEdges" fill="rgb(131, 98, 90)"  x="12" y="11" width="1" height="1" /><rect shape-rendering="crispEdges" fill="rgb(131, 98, 90)"  x="12" y="12" width="1" height="1" /><rect shape-rendering="crispEdges" fill="rgb(82, 205, 172)"  x="12" y="13" width="1" height="1" /><rect shape-rendering="crispEdges" fill="rgb(24, 164, 148)"  x="12" y="14" width="1" height="1" /><rect shape-rendering="crispEdges" fill="rgb(57, 180, 164)"  x="12" y="15" width="1" height="1" /><rect shape-rendering="crispEdges" fill="rgb(57, 180, 164)"  x="12" y="16" width="1" height="1" /><rect shape-rendering="crispEdges" fill="rgb(123, 156, 180)"  x="12" y="17" width="1" height="1" /><rect shape-rendering="crispEdges" fill="rgb(74, 115, 156)"  x="12" y="18" width="1" height="1" /><rect shape-rendering="crispEdges" fill="rgb(131, 98, 90)"  x="12" y="22" width="1" height="1" /><rect shape-rendering="crispEdges" fill="rgb(131, 98, 90)"  x="12" y="23" width="1" height="1" /><rect shape-rendering="crispEdges" fill="rgb(156, 115, 74)"  x="13" y="9" width="1" height="1" /><rect shape-rendering="crispEdges" fill="rgb(0, 148, 131)"  x="13" y="10" width="1" height="1" /><rect shape-rendering="crispEdges" fill="rgb(131, 98, 90)"  x="13" y="11" width="1" height="1" /><rect shape-rendering="crispEdges" fill="rgb(115, 98, 49)"  x="13" y="12" width="1" height="1" /><rect shape-rendering="crispEdges" fill="rgb(131, 98, 90)"  x="13" y="13" width="1" height="1" /><rect shape-rendering="crispEdges" fill="rgb(180, 148, 131)"  x="13" y="14" width="1" height="1" /><rect shape-rendering="crispEdges" fill="rgb(180, 148, 131)"  x="13" y="15" width="1" height="1" /><rect shape-rendering="crispEdges" fill="rgb(123, 156, 180)"  x="13" y="16" width="1" height="1" /><rect shape-rendering="crispEdges" fill="rgb(74, 115, 156)"  x="13" y="17" width="1" height="1" /><rect shape-rendering="crispEdges" fill="rgb(16, 82, 131)"  x="13" y="18" width="1" height="1" /><rect shape-rendering="crispEdges" fill="rgb(131, 98, 90)"  x="13" y="22" width="1" height="1" /><rect shape-rendering="crispEdges" fill="rgb(156, 123, 106)"  x="13" y="23" width="1" height="1" /><rect shape-rendering="crispEdges" fill="rgb(180, 180, 180)"  x="13" y="24" width="1" height="1" /><rect shape-rendering="crispEdges" fill="rgb(180, 180, 180)"  x="13" y="25" width="1" height="1" /><rect shape-rendering="crispEdges" fill="rgb(16, 82, 131)"  x="13" y="26" width="1" height="1" /><rect shape-rendering="crispEdges" fill="rgb(16, 82, 131)"  x="13" y="27" width="1" height="1" /><rect shape-rendering="crispEdges" fill="rgb(0, 148, 131)"  x="14" y="10" width="1" height="1" /><rect shape-rendering="crispEdges" fill="rgb(0, 148, 131)"  x="14" y="11" width="1" height="1" /><rect shape-rendering="crispEdges" fill="rgb(131, 98, 90)"  x="14" y="12" width="1" height="1" /><rect shape-rendering="crispEdges" fill="rgb(98, 74, 65)"  x="14" y="13" width="1" height="1" /><rect shape-rendering="crispEdges" fill="rgb(131, 98, 90)"  x="14" y="14" width="1" height="1" /><rect shape-rendering="crispEdges" fill="rgb(131, 98, 90)"  x="14" y="15" width="1" height="1" /><rect shape-rendering="crispEdges" fill="rgb(74, 115, 156)"  x="14" y="16" width="1" height="1" /><rect shape-rendering="crispEdges" fill="rgb(16, 82, 131)"  x="14" y="17" width="1" height="1" /><rect shape-rendering="crispEdges" fill="rgb(16, 82, 131)"  x="14" y="18" width="1" height="1" /><rect shape-rendering="crispEdges" fill="rgb(222, 222, 222)"  x="14" y="21" width="1" height="1" /><rect shape-rendering="crispEdges" fill="rgb(156, 123, 106)"  x="14" y="22" width="1" height="1" /><rect shape-rendering="crispEdges" fill="rgb(131, 98, 90)"  x="14" y="23" width="1" height="1" /><rect shape-rendering="crispEdges" fill="rgb(148, 131, 115)"  x="14" y="24" width="1" height="1" /><rect shape-rendering="crispEdges" fill="rgb(16, 82, 131)"  x="14" y="25" width="1" height="1" /><rect shape-rendering="crispEdges" fill="rgb(16, 82, 131)"  x="14" y="26" width="1" height="1" /><rect shape-rendering="crispEdges" fill="rgb(172, 189, 205)"  x="15" y="10" width="1" height="1" /><rect shape-rendering="crispEdges" fill="rgb(74, 115, 156)"  x="15" y="11" width="1" height="1" /><rect shape-rendering="crispEdges" fill="rgb(0, 148, 131)"  x="15" y="12" width="1" height="1" /><rect shape-rendering="crispEdges" fill="rgb(131, 98, 90)"  x="15" y="13" width="1" height="1" /><rect shape-rendering="crispEdges" fill="rgb(98, 74, 65)"  x="15" y="14" width="1" height="1" /><rect shape-rendering="crispEdges" fill="rgb(131, 98, 90)"  x="15" y="15" width="1" height="1" /><rect shape-rendering="crispEdges" fill="rgb(180, 148, 131)"  x="15" y="16" width="1" height="1" /><rect shape-rendering="crispEdges" fill="rgb(156, 123, 106)"  x="15" y="17" width="1" height="1" /><rect shape-rendering="crispEdges" fill="rgb(16, 82, 131)"  x="15" y="18" width="1" height="1" /><rect shape-rendering="crispEdges" fill="rgb(222, 222, 222)"  x="15" y="20" width="1" height="1" /><rect shape-rendering="crispEdges" fill="rgb(131, 98, 90)"  x="15" y="21" width="1" height="1" /><rect shape-rendering="crispEdges" fill="rgb(131, 98, 90)"  x="15" y="22" width="1" height="1" /><rect shape-rendering="crispEdges" fill="rgb(16, 82, 131)"  x="15" y="23" width="1" height="1" /><rect shape-rendering="crispEdges" fill="rgb(16, 82, 131)"  x="15" y="24" width="1" height="1" /><rect shape-rendering="crispEdges" fill="rgb(123, 156, 180)"  x="16" y="10" width="1" height="1" /><rect shape-rendering="crispEdges" fill="rgb(74, 115, 156)"  x="16" y="11" width="1" height="1" /><rect shape-rendering="crispEdges" fill="rgb(180, 148, 131)"  x="16" y="12" width="1" height="1" /><rect shape-rendering="crispEdges" fill="rgb(131, 98, 90)"  x="16" y="13" width="1" height="1" /><rect shape-rendering="crispEdges" fill="rgb(131, 98, 90)"  x="16" y="14" width="1" height="1" /><rect shape-rendering="crispEdges" fill="rgb(98, 74, 65)"  x="16" y="15" width="1" height="1" /><rect shape-rendering="crispEdges" fill="rgb(98, 74, 65)"  x="16" y="16" width="1" height="1" /><rect shape-rendering="crispEdges" fill="rgb(131, 98, 90)"  x="16" y="17" width="1" height="1" /><rect shape-rendering="crispEdges" fill="rgb(16, 82, 131)"  x="16" y="18" width="1" height="1" /><rect shape-rendering="crispEdges" fill="rgb(222, 222, 222)"  x="16" y="19" width="1" height="1" /><rect shape-rendering="crispEdges" fill="rgb(180, 180, 180)"  x="16" y="20" width="1" height="1" /><rect shape-rendering="crispEdges" fill="rgb(131, 98, 90)"  x="16" y="21" width="1" height="1" /><rect shape-rendering="crispEdges" fill="rgb(65, 82, 57)"  x="16" y="22" width="1" height="1" /><rect shape-rendering="crispEdges" fill="rgb(16, 82, 131)"  x="16" y="23" width="1" height="1" /><rect shape-rendering="crispEdges" fill="rgb(123, 156, 180)"  x="17" y="11" width="1" height="1" /><rect shape-rendering="crispEdges" fill="rgb(74, 115, 156)"  x="17" y="12" width="1" height="1" /><rect shape-rendering="crispEdges" fill="rgb(74, 115, 156)"  x="17" y="13" width="1" height="1" /><rect shape-rendering="crispEdges" fill="rgb(180, 148, 131)"  x="17" y="14" width="1" height="1" /><rect shape-rendering="crispEdges" fill="rgb(98, 74, 65)"  x="17" y="15" width="1" height="1" /><rect shape-rendering="crispEdges" fill="rgb(98, 74, 65)"  x="17" y="16" width="1" height="1" /><rect shape-rendering="crispEdges" fill="rgb(131, 98, 90)"  x="17" y="17" width="1" height="1" /><rect shape-rendering="crispEdges" fill="rgb(82, 82, 90)"  x="17" y="18" width="1" height="1" /><rect shape-rendering="crispEdges" fill="rgb(148, 131, 115)"  x="17" y="19" width="1" height="1" /><rect shape-rendering="crispEdges" fill="rgb(172, 139, 123)"  x="17" y="20" width="1" height="1" /><rect shape-rendering="crispEdges" fill="rgb(115, 98, 49)"  x="17" y="21" width="1" height="1" /><rect shape-rendering="crispEdges" fill="rgb(16, 82, 131)"  x="17" y="22" width="1" height="1" /><rect shape-rendering="crispEdges" fill="rgb(172, 189, 205)"  x="18" y="11" width="1" height="1" /><rect shape-rendering="crispEdges" fill="rgb(74, 115, 156)"  x="18" y="12" width="1" height="1" /><rect shape-rendering="crispEdges" fill="rgb(16, 82, 131)"  x="18" y="13" width="1" height="1" /><rect shape-rendering="crispEdges" fill="rgb(180, 148, 131)"  x="18" y="14" width="1" height="1" /><rect shape-rendering="crispEdges" fill="rgb(131, 98, 90)"  x="18" y="15" width="1" height="1" /><rect shape-rendering="crispEdges" fill="rgb(131, 98, 90)"  x="18" y="16" width="1" height="1" /><rect shape-rendering="crispEdges" fill="rgb(156, 115, 74)"  x="18" y="17" width="1" height="1" /><rect shape-rendering="crispEdges" fill="rgb(156, 115, 74)"  x="18" y="18" width="1" height="1" /><rect shape-rendering="crispEdges" fill="rgb(180, 180, 180)"  x="18" y="19" width="1" height="1" /><rect shape-rendering="crispEdges" fill="rgb(148, 131, 115)"  x="18" y="20" width="1" height="1" /><rect shape-rendering="crispEdges" fill="rgb(16, 82, 131)"  x="18" y="21" width="1" height="1" /><rect shape-rendering="crispEdges" fill="rgb(16, 82, 131)"  x="18" y="22" width="1" height="1" /><rect shape-rendering="crispEdges" fill="rgb(123, 156, 180)"  x="19" y="11" width="1" height="1" /><rect shape-rendering="crispEdges" fill="rgb(16, 82, 131)"  x="19" y="12" width="1" height="1" /><rect shape-rendering="crispEdges" fill="rgb(16, 82, 131)"  x="19" y="13" width="1" height="1" /><rect shape-rendering="crispEdges" fill="rgb(74, 115, 156)"  x="19" y="14" width="1" height="1" /><rect shape-rendering="crispEdges" fill="rgb(74, 115, 156)"  x="19" y="15" width="1" height="1" /><rect shape-rendering="crispEdges" fill="rgb(16, 82, 131)"  x="19" y="16" width="1" height="1" /><rect shape-rendering="crispEdges" fill="rgb(106, 98, 82)"  x="19" y="17" width="1" height="1" /><rect shape-rendering="crispEdges" fill="rgb(180, 180, 180)"  x="19" y="18" width="1" height="1" /><rect shape-rendering="crispEdges" fill="rgb(180, 180, 180)"  x="19" y="19" width="1" height="1" /><rect shape-rendering="crispEdges" fill="rgb(115, 98, 49)"  x="19" y="20" width="1" height="1" /><rect shape-rendering="crispEdges" fill="rgb(16, 82, 131)"  x="19" y="21" width="1" height="1" /><rect shape-rendering="crispEdges" fill="rgb(16, 82, 131)"  x="19" y="22" width="1" height="1" /><rect shape-rendering="crispEdges" fill="rgb(222, 222, 222)"  x="20" y="15" width="1" height="1" /><rect shape-rendering="crispEdges" fill="rgb(180, 180, 180)"  x="20" y="16" width="1" height="1" /><rect shape-rendering="crispEdges" fill="rgb(106, 98, 82)"  x="20" y="17" width="1" height="1" /><rect shape-rendering="crispEdges" fill="rgb(156, 115, 74)"  x="20" y="18" width="1" height="1" /><rect shape-rendering="crispEdges" fill="rgb(148, 131, 115)"  x="20" y="19" width="1" height="1" /><rect shape-rendering="crispEdges" fill="rgb(106, 98, 82)"  x="20" y="20" width="1" height="1" /><rect shape-rendering="crispEdges" fill="rgb(115, 74, 82)"  x="20" y="21" width="1" height="1" /><rect shape-rendering="crispEdges" fill="rgb(90, 57, 65)"  x="20" y="22" width="1" height="1" /><rect shape-rendering="crispEdges" fill="rgb(222, 222, 222)"  x="21" y="14" width="1" height="1" /><rect shape-rendering="crispEdges" fill="rgb(180, 180, 180)"  x="21" y="15" width="1" height="1" /><rect shape-rendering="crispEdges" fill="rgb(148, 131, 115)"  x="21" y="16" width="1" height="1" /><rect shape-rendering="crispEdges" fill="rgb(90, 115, 41)"  x="21" y="17" width="1" height="1" /><rect shape-rendering="crispEdges" fill="rgb(74, 65, 57)"  x="21" y="18" width="1" height="1" /><rect shape-rendering="crispEdges" fill="rgb(65, 82, 57)"  x="21" y="19" width="1" height="1" /><rect shape-rendering="crispEdges" fill="rgb(131, 98, 90)"  x="21" y="20" width="1" height="1" /><rect shape-rendering="crispEdges" fill="rgb(156, 115, 106)"  x="21" y="21" width="1" height="1" /><rect shape-rendering="crispEdges" fill="rgb(90, 57, 65)"  x="21" y="22" width="1" height="1" /><rect shape-rendering="crispEdges" fill="rgb(115, 74, 82)"  x="21" y="23" width="1" height="1" /><rect shape-rendering="crispEdges" fill="rgb(222, 222, 222)"  x="22" y="13" width="1" height="1" /><rect shape-rendering="crispEdges" fill="rgb(180, 180, 180)"  x="22" y="14" width="1" height="1" /><rect shape-rendering="crispEdges" fill="rgb(115, 98, 49)"  x="22" y="15" width="1" height="1" /><rect shape-rendering="crispEdges" fill="rgb(90, 115, 41)"  x="22" y="16" width="1" height="1" /><rect shape-rendering="crispEdges" fill="rgb(16, 82, 131)"  x="22" y="17" width="1" height="1" /><rect shape-rendering="crispEdges" fill="rgb(16, 82, 131)"  x="22" y="18" width="1" height="1" /><rect shape-rendering="crispEdges" fill="rgb(16, 82, 131)"  x="22" y="19" width="1" height="1" /><rect shape-rendering="crispEdges" fill="rgb(90, 57, 65)"  x="22" y="20" width="1" height="1" /><rect shape-rendering="crispEdges" fill="rgb(90, 57, 65)"  x="22" y="21" width="1" height="1" /><rect shape-rendering="crispEdges" fill="rgb(90, 57, 65)"  x="22" y="22" width="1" height="1" /><rect shape-rendering="crispEdges" fill="rgb(131, 98, 90)"  x="22" y="23" width="1" height="1" /><rect shape-rendering="crispEdges" fill="rgb(90, 57, 65)"  x="22" y="24" width="1" height="1" /><rect shape-rendering="crispEdges" fill="rgb(131, 98, 90)"  x="23" y="12" width="1" height="1" /><rect shape-rendering="crispEdges" fill="rgb(131, 98, 90)"  x="23" y="13" width="1" height="1" /><rect shape-rendering="crispEdges" fill="rgb(90, 115, 41)"  x="23" y="14" width="1" height="1" /><rect shape-rendering="crispEdges" fill="rgb(90, 115, 41)"  x="23" y="15" width="1" height="1" /><rect shape-rendering="crispEdges" fill="rgb(16, 82, 131)"  x="23" y="16" width="1" height="1" /><rect shape-rendering="crispEdges" fill="rgb(115, 74, 82)"  x="23" y="21" width="1" height="1" /><rect shape-rendering="crispEdges" fill="rgb(131, 98, 90)"  x="23" y="22" width="1" height="1" /><rect shape-rendering="crispEdges" fill="rgb(156, 115, 106)"  x="23" y="23" width="1" height="1" /><rect shape-rendering="crispEdges" fill="rgb(90, 57, 65)"  x="23" y="24" width="1" height="1" /><rect shape-rendering="crispEdges" fill="rgb(164, 156, 172)"  x="23" y="25" width="1" height="1" /><rect shape-rendering="crispEdges" fill="rgb(172, 189, 205)"  x="23" y="26" width="1" height="1" /><rect shape-rendering="crispEdges" fill="rgb(172, 189, 205)"  x="23" y="27" width="1" height="1" /><rect shape-rendering="crispEdges" fill="rgb(172, 189, 205)"  x="23" y="28" width="1" height="1" /><rect shape-rendering="crispEdges" fill="rgb(131, 98, 90)"  x="24" y="12" width="1" height="1" /><rect shape-rendering="crispEdges" fill="rgb(222, 222, 222)"  x="24" y="13" width="1" height="1" /><rect shape-rendering="crispEdges" fill="rgb(82, 82, 90)"  x="24" y="14" width="1" height="1" /><rect shape-rendering="crispEdges" fill="rgb(16, 82, 131)"  x="24" y="15" width="1" height="1" /><rect shape-rendering="crispEdges" fill="rgb(90, 57, 65)"  x="24" y="22" width="1" height="1" /><rect shape-rendering="crispEdges" fill="rgb(90, 57, 65)"  x="24" y="23" width="1" height="1" /><rect shape-rendering="crispEdges" fill="rgb(16, 65, 57)"  x="24" y="24" width="1" height="1" /><rect shape-rendering="crispEdges" fill="rgb(106, 98, 82)"  x="24" y="25" width="1" height="1" /><rect shape-rendering="crispEdges" fill="rgb(106, 98, 82)"  x="24" y="26" width="1" height="1" /><rect shape-rendering="crispEdges" fill="rgb(148, 131, 115)"  x="24" y="27" width="1" height="1" /><rect shape-rendering="crispEdges" fill="rgb(222, 222, 222)"  x="24" y="28" width="1" height="1" /><rect shape-rendering="crispEdges" fill="rgb(180, 180, 180)"  x="25" y="13" width="1" height="1" /><rect shape-rendering="crispEdges" fill="rgb(16, 82, 131)"  x="25" y="14" width="1" height="1" /><rect shape-rendering="crispEdges" fill="rgb(82, 82, 90)"  x="25" y="23" width="1" height="1" /><rect shape-rendering="crispEdges" fill="rgb(16, 65, 57)"  x="25" y="24" width="1" height="1" /><rect shape-rendering="crispEdges" fill="rgb(213, 238, 172)"  x="25" y="25" width="1" height="1" /><rect shape-rendering="crispEdges" fill="rgb(213, 238, 172)"  x="25" y="26" width="1" height="1" /><rect shape-rendering="crispEdges" fill="rgb(106, 98, 82)"  x="25" y="27" width="1" height="1" /><rect shape-rendering="crispEdges" fill="rgb(172, 189, 205)"  x="25" y="28" width="1" height="1" /><rect shape-rendering="crispEdges" fill="rgb(16, 82, 131)"  x="26" y="13" width="1" height="1" /><rect shape-rendering="crispEdges" fill="rgb(16, 82, 131)"  x="26" y="14" width="1" height="1" /><rect shape-rendering="crispEdges" fill="rgb(164, 156, 172)"  x="26" y="23" width="1" height="1" /><rect shape-rendering="crispEdges" fill="rgb(106, 98, 82)"  x="26" y="24" width="1" height="1" /><rect shape-rendering="crispEdges" fill="rgb(180, 164, 139)"  x="26" y="25" width="1" height="1" /><rect shape-rendering="crispEdges" fill="rgb(180, 189, 123)"  x="26" y="26" width="1" height="1" /><rect shape-rendering="crispEdges" fill="rgb(106, 98, 82)"  x="26" y="27" width="1" height="1" /><rect shape-rendering="crispEdges" fill="rgb(123, 156, 180)"  x="26" y="28" width="1" height="1" /><rect shape-rendering="crispEdges" fill="rgb(16, 82, 131)"  x="27" y="13" width="1" height="1" /><rect shape-rendering="crispEdges" fill="rgb(172, 189, 205)"  x="27" y="23" width="1" height="1" /><rect shape-rendering="crispEdges" fill="rgb(148, 131, 115)"  x="27" y="24" width="1" height="1" /><rect shape-rendering="crispEdges" fill="rgb(148, 131, 115)"  x="27" y="25" width="1" height="1" /><rect shape-rendering="crispEdges" fill="rgb(148, 131, 115)"  x="27" y="26" width="1" height="1" /><rect shape-rendering="crispEdges" fill="rgb(148, 131, 115)"  x="27" y="27" width="1" height="1" /><rect shape-rendering="crispEdges" fill="rgb(123, 156, 180)"  x="27" y="28" width="1" height="1" /><rect shape-rendering="crispEdges" fill="rgb(222, 222, 222)"  x="28" y="23" width="1" height="1" /><rect shape-rendering="crispEdges" fill="rgb(172, 189, 205)"  x="28" y="24" width="1" height="1" /><rect shape-rendering="crispEdges" fill="rgb(172, 189, 205)"  x="28" y="25" width="1" height="1" /><rect shape-rendering="crispEdges" fill="rgb(123, 156, 180)"  x="28" y="26" width="1" height="1" /><rect shape-rendering="crispEdges" fill="rgb(123, 156, 180)"  x="28" y="27" width="1" height="1" /><rect shape-rendering="crispEdges" fill="rgb(123, 156, 180)"  x="28" y="28" width="1" height="1" /></svg>