<svg xmlns="http://www.w3.org/2000/svg" xmlns:xlink= "http://www.w3.org/1999/xlink" width="32" height="32" viewBox ="0 0 32 32"><rect shape-rendering="crispEdges" fill="rgb(189, 115, 148)"  x="1" y="4" width="1" height="1" /><rect shape-rendering="crispEdges" fill="rgb(164, 98, 131)"  x="1" y="5" width="1" height="1" /><rect shape-rendering="crispEdges" fill="rgb(164, 98, 131)"  x="1" y="6" width="1" height="1" /><rect shape-rendering="crispEdges" fill="rgb(164, 98, 131)"  x="1" y="7" width="1" height="1" /><rect shape-rendering="crispEdges" fill="rgb(131, 82, 115)"  x="1" y="8" width="1" height="1" /><rect shape-rendering="crispEdges" fill="rgb(189, 115, 148)"  x="2" y="5" width="1" height="1" /><rect shape-rendering="crispEdges" fill="rgb(213, 148, 172)"  x="2" y="6" width="1" height="1" /><rect shape-rendering="crispEdges" fill="rgb(189, 115, 148)"  x="2" y="7" width="1" height="1" /><rect shape-rendering="crispEdges" fill="rgb(164, 156, 172)"  x="2" y="8" width="1" height="1" /><rect shape-rendering="crispEdges" fill="rgb(131, 82, 115)"  x="2" y="9" width="1" height="1" /><rect shape-rendering="crispEdges" fill="rgb(213, 148, 172)"  x="3" y="6" width="1" height="1" /><rect shape-rendering="crispEdges" fill="rgb(222, 213, 222)"  x="3" y="7" width="1" height="1" /><rect shape-rendering="crispEdges" fill="rgb(222, 213, 222)"  x="3" y="8" width="1" height="1" /><rect shape-rendering="crispEdges" fill="rgb(213, 148, 172)"  x="3" y="9" width="1" height="1" /><rect shape-rendering="crispEdges" fill="rgb(131, 82, 115)"  x="3" y="10" width="1" height="1" /><rect shape-rendering="crispEdges" fill="rgb(213, 148, 172)"  x="4" y="7" width="1" height="1" /><rect shape-rendering="crispEdges" fill="rgb(189, 115, 148)"  x="4" y="8" width="1" height="1" /><rect shape-rendering="crispEdges" fill="rgb(222, 213, 222)"  x="4" y="9" width="1" height="1" /><rect shape-rendering="crispEdges" fill="rgb(164, 98, 131)"  x="4" y="10" width="1" height="1" /><rect shape-rendering="crispEdges" fill="rgb(131, 82, 115)"  x="5" y="4" width="1" height="1" /><rect shape-rendering="crispEdges" fill="rgb(189, 115, 148)"  x="5" y="5" width="1" height="1" /><rect shape-rendering="crispEdges" fill="rgb(131, 123, 139)"  x="5" y="6" width="1" height="1" /><rect shape-rendering="crispEdges" fill="rgb(164, 98, 131)"  x="5" y="8" width="1" height="1" /><rect shape-rendering="crispEdges" fill="rgb(222, 213, 222)"  x="5" y="9" width="1" height="1" /><rect shape-rendering="crispEdges" fill="rgb(131, 123, 139)"  x="5" y="10" width="1" height="1" /><rect shape-rendering="crispEdges" fill="rgb(106, 57, 98)"  x="5" y="11" width="1" height="1" /><rect shape-rendering="crispEdges" fill="rgb(189, 115, 148)"  x="6" y="4" width="1" height="1" /><rect shape-rendering="crispEdges" fill="rgb(164, 156, 172)"  x="6" y="5" width="1" height="1" /><rect shape-rendering="crispEdges" fill="rgb(131, 123, 139)"  x="6" y="6" width="1" height="1" /><rect shape-rendering="crispEdges" fill="rgb(131, 82, 115)"  x="6" y="7" width="1" height="1" /><rect shape-rendering="crispEdges" fill="rgb(164, 98, 131)"  x="6" y="8" width="1" height="1" /><rect shape-rendering="crispEdges" fill="rgb(189, 180, 197)"  x="6" y="9" width="1" height="1" /><rect shape-rendering="crispEdges" fill="rgb(164, 98, 131)"  x="6" y="10" width="1" height="1" /><rect shape-rendering="crispEdges" fill="rgb(131, 82, 115)"  x="6" y="11" width="1" height="1" /><rect shape-rendering="crispEdges" fill="rgb(131, 123, 139)"  x="7" y="4" width="1" height="1" /><rect shape-rendering="crispEdges" fill="rgb(131, 123, 139)"  x="7" y="5" width="1" height="1" /><rect shape-rendering="crispEdges" fill="rgb(131, 123, 139)"  x="7" y="6" width="1" height="1" /><rect shape-rendering="crispEdges" fill="rgb(156, 156, 255)"  x="7" y="7" width="1" height="1" /><rect shape-rendering="crispEdges" fill="rgb(131, 82, 115)"  x="7" y="8" width="1" height="1" /><rect shape-rendering="crispEdges" fill="rgb(189, 180, 197)"  x="7" y="9" width="1" height="1" /><rect shape-rendering="crispEdges" fill="rgb(189, 115, 148)"  x="7" y="10" width="1" height="1" /><rect shape-rendering="crispEdges" fill="rgb(164, 98, 131)"  x="7" y="11" width="1" height="1" /><rect shape-rendering="crispEdges" fill="rgb(131, 82, 115)"  x="7" y="12" width="1" height="1" /><rect shape-rendering="crispEdges" fill="rgb(164, 98, 131)"  x="8" y="2" width="1" height="1" /><rect shape-rendering="crispEdges" fill="rgb(139, 131, 222)"  x="8" y="5" width="1" height="1" /><rect shape-rendering="crispEdges" fill="rgb(255, 255, 255)"  x="8" y="6" width="1" height="1" /><rect shape-rendering="crispEdges" fill="rgb(213, 255, 255)"  x="8" y="7" width="1" height="1" /><rect shape-rendering="crispEdges" fill="rgb(139, 131, 222)"  x="8" y="8" width="1" height="1" /><rect shape-rendering="crispEdges" fill="rgb(164, 156, 172)"  x="8" y="9" width="1" height="1" /><rect shape-rendering="crispEdges" fill="rgb(222, 213, 222)"  x="8" y="10" width="1" height="1" /><rect shape-rendering="crispEdges" fill="rgb(164, 98, 131)"  x="8" y="11" width="1" height="1" /><rect shape-rendering="crispEdges" fill="rgb(189, 180, 197)"  x="8" y="12" width="1" height="1" /><rect shape-rendering="crispEdges" fill="rgb(106, 57, 98)"  x="8" y="13" width="1" height="1" /><rect shape-rendering="crispEdges" fill="rgb(189, 115, 148)"  x="9" y="2" width="1" height="1" /><rect shape-rendering="crispEdges" fill="rgb(131, 82, 115)"  x="9" y="3" width="1" height="1" /><rect shape-rendering="crispEdges" fill="rgb(123, 98, 189)"  x="9" y="4" width="1" height="1" /><rect shape-rendering="crispEdges" fill="rgb(156, 156, 255)"  x="9" y="5" width="1" height="1" /><rect shape-rendering="crispEdges" fill="rgb(255, 255, 255)"  x="9" y="6" width="1" height="1" /><rect shape-rendering="crispEdges" fill="rgb(255, 255, 255)"  x="9" y="7" width="1" height="1" /><rect shape-rendering="crispEdges" fill="rgb(156, 156, 255)"  x="9" y="8" width="1" height="1" /><rect shape-rendering="crispEdges" fill="rgb(164, 98, 131)"  x="9" y="9" width="1" height="1" /><rect shape-rendering="crispEdges" fill="rgb(246, 238, 246)"  x="9" y="10" width="1" height="1" /><rect shape-rendering="crispEdges" fill="rgb(131, 123, 139)"  x="9" y="11" width="1" height="1" /><rect shape-rendering="crispEdges" fill="rgb(164, 98, 131)"  x="9" y="12" width="1" height="1" /><rect shape-rendering="crispEdges" fill="rgb(189, 180, 197)"  x="9" y="13" width="1" height="1" /><rect shape-rendering="crispEdges" fill="rgb(131, 82, 115)"  x="9" y="14" width="1" height="1" /><rect shape-rendering="crispEdges" fill="rgb(189, 115, 148)"  x="10" y="2" width="1" height="1" /><rect shape-rendering="crispEdges" fill="rgb(213, 148, 172)"  x="10" y="3" width="1" height="1" /><rect shape-rendering="crispEdges" fill="rgb(106, 57, 98)"  x="10" y="4" width="1" height="1" /><rect shape-rendering="crispEdges" fill="rgb(123, 98, 189)"  x="10" y="5" width="1" height="1" /><rect shape-rendering="crispEdges" fill="rgb(156, 156, 255)"  x="10" y="6" width="1" height="1" /><rect shape-rendering="crispEdges" fill="rgb(156, 156, 255)"  x="10" y="7" width="1" height="1" /><rect shape-rendering="crispEdges" fill="rgb(139, 131, 222)"  x="10" y="8" width="1" height="1" /><rect shape-rendering="crispEdges" fill="rgb(123, 98, 189)"  x="10" y="9" width="1" height="1" /><rect shape-rendering="crispEdges" fill="rgb(246, 238, 246)"  x="10" y="10" width="1" height="1" /><rect shape-rendering="crispEdges" fill="rgb(131, 123, 139)"  x="10" y="11" width="1" height="1" /><rect shape-rendering="crispEdges" fill="rgb(189, 180, 197)"  x="10" y="12" width="1" height="1" /><rect shape-rendering="crispEdges" fill="rgb(164, 98, 131)"  x="10" y="13" width="1" height="1" /><rect shape-rendering="crispEdges" fill="rgb(164, 98, 131)"  x="10" y="14" width="1" height="1" /><rect shape-rendering="crispEdges" fill="rgb(131, 82, 115)"  x="10" y="15" width="1" height="1" /><rect shape-rendering="crispEdges" fill="rgb(189, 115, 148)"  x="11" y="2" width="1" height="1" /><rect shape-rendering="crispEdges" fill="rgb(189, 115, 148)"  x="11" y="3" width="1" height="1" /><rect shape-rendering="crispEdges" fill="rgb(189, 115, 148)"  x="11" y="4" width="1" height="1" /><rect shape-rendering="crispEdges" fill="rgb(106, 57, 98)"  x="11" y="5" width="1" height="1" /><rect shape-rendering="crispEdges" fill="rgb(131, 82, 115)"  x="11" y="6" width="1" height="1" /><rect shape-rendering="crispEdges" fill="rgb(139, 131, 222)"  x="11" y="7" width="1" height="1" /><rect shape-rendering="crispEdges" fill="rgb(189, 115, 148)"  x="11" y="8" width="1" height="1" /><rect shape-rendering="crispEdges" fill="rgb(189, 115, 148)"  x="11" y="9" width="1" height="1" /><rect shape-rendering="crispEdges" fill="rgb(131, 82, 115)"  x="11" y="10" width="1" height="1" /><rect shape-rendering="crispEdges" fill="rgb(246, 238, 246)"  x="11" y="11" width="1" height="1" /><rect shape-rendering="crispEdges" fill="rgb(246, 238, 246)"  x="11" y="12" width="1" height="1" /><rect shape-rendering="crispEdges" fill="rgb(222, 213, 222)"  x="11" y="13" width="1" height="1" /><rect shape-rendering="crispEdges" fill="rgb(189, 180, 197)"  x="11" y="14" width="1" height="1" /><rect shape-rendering="crispEdges" fill="rgb(189, 180, 197)"  x="11" y="15" width="1" height="1" /><rect shape-rendering="crispEdges" fill="rgb(131, 123, 139)"  x="11" y="16" width="1" height="1" /><rect shape-rendering="crispEdges" fill="rgb(131, 82, 115)"  x="11" y="17" width="1" height="1" /><rect shape-rendering="crispEdges" fill="rgb(213, 148, 172)"  x="12" y="2" width="1" height="1" /><rect shape-rendering="crispEdges" fill="rgb(222, 213, 222)"  x="12" y="3" width="1" height="1" /><rect shape-rendering="crispEdges" fill="rgb(189, 180, 197)"  x="12" y="4" width="1" height="1" /><rect shape-rendering="crispEdges" fill="rgb(189, 180, 197)"  x="12" y="5" width="1" height="1" /><rect shape-rendering="crispEdges" fill="rgb(164, 98, 131)"  x="12" y="6" width="1" height="1" /><rect shape-rendering="crispEdges" fill="rgb(106, 57, 98)"  x="12" y="7" width="1" height="1" /><rect shape-rendering="crispEdges" fill="rgb(106, 57, 98)"  x="12" y="8" width="1" height="1" /><rect shape-rendering="crispEdges" fill="rgb(131, 82, 115)"  x="12" y="9" width="1" height="1" /><rect shape-rendering="crispEdges" fill="rgb(189, 115, 148)"  x="12" y="10" width="1" height="1" /><rect shape-rendering="crispEdges" fill="rgb(189, 115, 148)"  x="12" y="11" width="1" height="1" /><rect shape-rendering="crispEdges" fill="rgb(131, 82, 115)"  x="12" y="12" width="1" height="1" /><rect shape-rendering="crispEdges" fill="rgb(131, 82, 115)"  x="12" y="13" width="1" height="1" /><rect shape-rendering="crispEdges" fill="rgb(131, 82, 115)"  x="12" y="14" width="1" height="1" /><rect shape-rendering="crispEdges" fill="rgb(106, 57, 98)"  x="12" y="15" width="1" height="1" /><rect shape-rendering="crispEdges" fill="rgb(106, 57, 98)"  x="12" y="16" width="1" height="1" /><rect shape-rendering="crispEdges" fill="rgb(106, 57, 98)"  x="12" y="17" width="1" height="1" /><rect shape-rendering="crispEdges" fill="rgb(106, 57, 98)"  x="12" y="18" width="1" height="1" /><rect shape-rendering="crispEdges" fill="rgb(213, 148, 172)"  x="13" y="3" width="1" height="1" /><rect shape-rendering="crispEdges" fill="rgb(213, 148, 172)"  x="13" y="4" width="1" height="1" /><rect shape-rendering="crispEdges" fill="rgb(189, 115, 148)"  x="13" y="5" width="1" height="1" /><rect shape-rendering="crispEdges" fill="rgb(164, 156, 172)"  x="13" y="6" width="1" height="1" /><rect shape-rendering="crispEdges" fill="rgb(222, 213, 222)"  x="13" y="7" width="1" height="1" /><rect shape-rendering="crispEdges" fill="rgb(222, 213, 222)"  x="13" y="8" width="1" height="1" /><rect shape-rendering="crispEdges" fill="rgb(131, 123, 139)"  x="13" y="9" width="1" height="1" /><rect shape-rendering="crispEdges" fill="rgb(131, 82, 115)"  x="13" y="10" width="1" height="1" /><rect shape-rendering="crispEdges" fill="rgb(131, 82, 115)"  x="13" y="11" width="1" height="1" /><rect shape-rendering="crispEdges" fill="rgb(98, 74, 156)"  x="13" y="12" width="1" height="1" /><rect shape-rendering="crispEdges" fill="rgb(98, 74, 156)"  x="13" y="13" width="1" height="1" /><rect shape-rendering="crispEdges" fill="rgb(98, 74, 156)"  x="13" y="14" width="1" height="1" /><rect shape-rendering="crispEdges" fill="rgb(82, 41, 82)"  x="13" y="15" width="1" height="1" /><rect shape-rendering="crispEdges" fill="rgb(82, 41, 82)"  x="13" y="16" width="1" height="1" /><rect shape-rendering="crispEdges" fill="rgb(238, 172, 197)"  x="14" y="4" width="1" height="1" /><rect shape-rendering="crispEdges" fill="rgb(164, 98, 131)"  x="14" y="5" width="1" height="1" /><rect shape-rendering="crispEdges" fill="rgb(131, 123, 139)"  x="14" y="6" width="1" height="1" /><rect shape-rendering="crispEdges" fill="rgb(189, 115, 148)"  x="14" y="7" width="1" height="1" /><rect shape-rendering="crispEdges" fill="rgb(189, 115, 148)"  x="14" y="8" width="1" height="1" /><rect shape-rendering="crispEdges" fill="rgb(222, 213, 222)"  x="14" y="9" width="1" height="1" /><rect shape-rendering="crispEdges" fill="rgb(246, 238, 246)"  x="14" y="10" width="1" height="1" /><rect shape-rendering="crispEdges" fill="rgb(246, 238, 246)"  x="14" y="11" width="1" height="1" /><rect shape-rendering="crispEdges" fill="rgb(106, 57, 98)"  x="14" y="12" width="1" height="1" /><rect shape-rendering="crispEdges" fill="rgb(98, 74, 156)"  x="14" y="13" width="1" height="1" /><rect shape-rendering="crispEdges" fill="rgb(98, 74, 156)"  x="14" y="14" width="1" height="1" /><rect shape-rendering="crispEdges" fill="rgb(98, 74, 156)"  x="14" y="15" width="1" height="1" /><rect shape-rendering="crispEdges" fill="rgb(131, 82, 115)"  x="14" y="16" width="1" height="1" /><rect shape-rendering="crispEdges" fill="rgb(213, 148, 172)"  x="15" y="6" width="1" height="1" /><rect shape-rendering="crispEdges" fill="rgb(164, 98, 131)"  x="15" y="7" width="1" height="1" /><rect shape-rendering="crispEdges" fill="rgb(189, 115, 148)"  x="15" y="8" width="1" height="1" /><rect shape-rendering="crispEdges" fill="rgb(213, 148, 172)"  x="15" y="9" width="1" height="1" /><rect shape-rendering="crispEdges" fill="rgb(131, 123, 139)"  x="15" y="10" width="1" height="1" /><rect shape-rendering="crispEdges" fill="rgb(131, 123, 139)"  x="15" y="11" width="1" height="1" /><rect shape-rendering="crispEdges" fill="rgb(246, 238, 246)"  x="15" y="12" width="1" height="1" /><rect shape-rendering="crispEdges" fill="rgb(57, 41, 115)"  x="15" y="13" width="1" height="1" /><rect shape-rendering="crispEdges" fill="rgb(98, 74, 156)"  x="15" y="14" width="1" height="1" /><rect shape-rendering="crispEdges" fill="rgb(123, 106, 180)"  x="15" y="15" width="1" height="1" /><rect shape-rendering="crispEdges" fill="rgb(164, 98, 131)"  x="15" y="16" width="1" height="1" /><rect shape-rendering="crispEdges" fill="rgb(164, 98, 131)"  x="16" y="8" width="1" height="1" /><rect shape-rendering="crispEdges" fill="rgb(189, 180, 197)"  x="16" y="9" width="1" height="1" /><rect shape-rendering="crispEdges" fill="rgb(213, 148, 172)"  x="16" y="10" width="1" height="1" /><rect shape-rendering="crispEdges" fill="rgb(189, 180, 197)"  x="16" y="11" width="1" height="1" /><rect shape-rendering="crispEdges" fill="rgb(246, 238, 246)"  x="16" y="12" width="1" height="1" /><rect shape-rendering="crispEdges" fill="rgb(57, 41, 115)"  x="16" y="13" width="1" height="1" /><rect shape-rendering="crispEdges" fill="rgb(123, 106, 180)"  x="16" y="14" width="1" height="1" /><rect shape-rendering="crispEdges" fill="rgb(164, 180, 222)"  x="16" y="15" width="1" height="1" /><rect shape-rendering="crispEdges" fill="rgb(164, 180, 222)"  x="16" y="16" width="1" height="1" /><rect shape-rendering="crispEdges" fill="rgb(131, 82, 115)"  x="16" y="17" width="1" height="1" /><rect shape-rendering="crispEdges" fill="rgb(164, 98, 131)"  x="17" y="9" width="1" height="1" /><rect shape-rendering="crispEdges" fill="rgb(189, 180, 197)"  x="17" y="10" width="1" height="1" /><rect shape-rendering="crispEdges" fill="rgb(213, 148, 172)"  x="17" y="11" width="1" height="1" /><rect shape-rendering="crispEdges" fill="rgb(222, 213, 222)"  x="17" y="12" width="1" height="1" /><rect shape-rendering="crispEdges" fill="rgb(98, 74, 156)"  x="17" y="13" width="1" height="1" /><rect shape-rendering="crispEdges" fill="rgb(98, 74, 156)"  x="17" y="14" width="1" height="1" /><rect shape-rendering="crispEdges" fill="rgb(164, 180, 222)"  x="17" y="15" width="1" height="1" /><rect shape-rendering="crispEdges" fill="rgb(189, 222, 238)"  x="17" y="16" width="1" height="1" /><rect shape-rendering="crispEdges" fill="rgb(189, 222, 238)"  x="17" y="17" width="1" height="1" /><rect shape-rendering="crispEdges" fill="rgb(164, 98, 131)"  x="17" y="18" width="1" height="1" /><rect shape-rendering="crispEdges" fill="rgb(189, 115, 148)"  x="18" y="10" width="1" height="1" /><rect shape-rendering="crispEdges" fill="rgb(213, 148, 172)"  x="18" y="11" width="1" height="1" /><rect shape-rendering="crispEdges" fill="rgb(189, 180, 197)"  x="18" y="12" width="1" height="1" /><rect shape-rendering="crispEdges" fill="rgb(164, 98, 131)"  x="18" y="13" width="1" height="1" /><rect shape-rendering="crispEdges" fill="rgb(123, 106, 180)"  x="18" y="15" width="1" height="1" /><rect shape-rendering="crispEdges" fill="rgb(189, 222, 238)"  x="18" y="16" width="1" height="1" /><rect shape-rendering="crispEdges" fill="rgb(189, 222, 238)"  x="18" y="17" width="1" height="1" /><rect shape-rendering="crispEdges" fill="rgb(189, 115, 148)"  x="18" y="18" width="1" height="1" /><rect shape-rendering="crispEdges" fill="rgb(131, 82, 115)"  x="18" y="19" width="1" height="1" /><rect shape-rendering="crispEdges" fill="rgb(189, 115, 148)"  x="19" y="11" width="1" height="1" /><rect shape-rendering="crispEdges" fill="rgb(189, 180, 197)"  x="19" y="12" width="1" height="1" /><rect shape-rendering="crispEdges" fill="rgb(164, 98, 131)"  x="19" y="13" width="1" height="1" /><rect shape-rendering="crispEdges" fill="rgb(180, 139, 90)"  x="19" y="16" width="1" height="1" /><rect shape-rendering="crispEdges" fill="rgb(255, 246, 180)"  x="19" y="17" width="1" height="1" /><rect shape-rendering="crispEdges" fill="rgb(222, 189, 131)"  x="19" y="18" width="1" height="1" /><rect shape-rendering="crispEdges" fill="rgb(189, 115, 148)"  x="19" y="19" width="1" height="1" /><rect shape-rendering="crispEdges" fill="rgb(131, 82, 115)"  x="19" y="20" width="1" height="1" /><rect shape-rendering="crispEdges" fill="rgb(131, 123, 139)"  x="20" y="12" width="1" height="1" /><rect shape-rendering="crispEdges" fill="rgb(189, 115, 148)"  x="20" y="13" width="1" height="1" /><rect shape-rendering="crispEdges" fill="rgb(180, 139, 90)"  x="20" y="17" width="1" height="1" /><rect shape-rendering="crispEdges" fill="rgb(255, 246, 180)"  x="20" y="18" width="1" height="1" /><rect shape-rendering="crispEdges" fill="rgb(255, 246, 180)"  x="20" y="19" width="1" height="1" /><rect shape-rendering="crispEdges" fill="rgb(222, 189, 131)"  x="20" y="20" width="1" height="1" /><rect shape-rendering="crispEdges" fill="rgb(164, 98, 131)"  x="20" y="21" width="1" height="1" /><rect shape-rendering="crispEdges" fill="rgb(164, 98, 131)"  x="21" y="12" width="1" height="1" /><rect shape-rendering="crispEdges" fill="rgb(189, 115, 148)"  x="21" y="13" width="1" height="1" /><rect shape-rendering="crispEdges" fill="rgb(180, 139, 90)"  x="21" y="18" width="1" height="1" /><rect shape-rendering="crispEdges" fill="rgb(213, 148, 172)"  x="21" y="19" width="1" height="1" /><rect shape-rendering="crispEdges" fill="rgb(255, 246, 180)"  x="21" y="20" width="1" height="1" /><rect shape-rendering="crispEdges" fill="rgb(213, 148, 172)"  x="21" y="21" width="1" height="1" /><rect shape-rendering="crispEdges" fill="rgb(131, 82, 115)"  x="21" y="22" width="1" height="1" /><rect shape-rendering="crispEdges" fill="rgb(189, 115, 148)"  x="22" y="13" width="1" height="1" /><rect shape-rendering="crispEdges" fill="rgb(180, 139, 90)"  x="22" y="19" width="1" height="1" /><rect shape-rendering="crispEdges" fill="rgb(255, 246, 180)"  x="22" y="20" width="1" height="1" /><rect shape-rendering="crispEdges" fill="rgb(222, 189, 131)"  x="22" y="21" width="1" height="1" /><rect shape-rendering="crispEdges" fill="rgb(213, 148, 172)"  x="22" y="22" width="1" height="1" /><rect shape-rendering="crispEdges" fill="rgb(131, 82, 115)"  x="22" y="23" width="1" height="1" /><rect shape-rendering="crispEdges" fill="rgb(180, 139, 90)"  x="23" y="20" width="1" height="1" /><rect shape-rendering="crispEdges" fill="rgb(255, 246, 180)"  x="23" y="21" width="1" height="1" /><rect shape-rendering="crispEdges" fill="rgb(255, 246, 180)"  x="23" y="22" width="1" height="1" /><rect shape-rendering="crispEdges" fill="rgb(222, 189, 131)"  x="23" y="23" width="1" height="1" /><rect shape-rendering="crispEdges" fill="rgb(131, 82, 115)"  x="23" y="24" width="1" height="1" /><rect shape-rendering="crispEdges" fill="rgb(131, 82, 115)"  x="23" y="25" width="1" height="1" /><rect shape-rendering="crispEdges" fill="rgb(180, 139, 90)"  x="24" y="21" width="1" height="1" /><rect shape-rendering="crispEdges" fill="rgb(213, 148, 172)"  x="24" y="22" width="1" height="1" /><rect shape-rendering="crispEdges" fill="rgb(205, 164, 106)"  x="24" y="23" width="1" height="1" /><rect shape-rendering="crispEdges" fill="rgb(222, 189, 131)"  x="24" y="24" width="1" height="1" /><rect shape-rendering="crispEdges" fill="rgb(222, 189, 131)"  x="24" y="25" width="1" height="1" /><rect shape-rendering="crispEdges" fill="rgb(131, 82, 115)"  x="24" y="26" width="1" height="1" /><rect shape-rendering="crispEdges" fill="rgb(164, 156, 172)"  x="24" y="27" width="1" height="1" /><rect shape-rendering="crispEdges" fill="rgb(131, 123, 139)"  x="24" y="28" width="1" height="1" /><rect shape-rendering="crispEdges" fill="rgb(180, 139, 90)"  x="25" y="22" width="1" height="1" /><rect shape-rendering="crispEdges" fill="rgb(222, 189, 131)"  x="25" y="23" width="1" height="1" /><rect shape-rendering="crispEdges" fill="rgb(123, 106, 180)"  x="25" y="24" width="1" height="1" /><rect shape-rendering="crispEdges" fill="rgb(98, 74, 156)"  x="25" y="25" width="1" height="1" /><rect shape-rendering="crispEdges" fill="rgb(189, 115, 148)"  x="25" y="26" width="1" height="1" /><rect shape-rendering="crispEdges" fill="rgb(106, 57, 98)"  x="25" y="27" width="1" height="1" /><rect shape-rendering="crispEdges" fill="rgb(131, 123, 139)"  x="25" y="28" width="1" height="1" /><rect shape-rendering="crispEdges" fill="rgb(164, 98, 131)"  x="26" y="22" width="1" height="1" /><rect shape-rendering="crispEdges" fill="rgb(222, 189, 131)"  x="26" y="23" width="1" height="1" /><rect shape-rendering="crispEdges" fill="rgb(123, 106, 180)"  x="26" y="24" width="1" height="1" /><rect shape-rendering="crispEdges" fill="rgb(98, 74, 156)"  x="26" y="25" width="1" height="1" /><rect shape-rendering="crispEdges" fill="rgb(189, 115, 148)"  x="26" y="26" width="1" height="1" /><rect shape-rendering="crispEdges" fill="rgb(106, 57, 98)"  x="26" y="27" width="1" height="1" /><rect shape-rendering="crispEdges" fill="rgb(164, 156, 172)"  x="26" y="28" width="1" height="1" /><rect shape-rendering="crispEdges" fill="rgb(98, 98, 115)"  x="26" y="29" width="1" height="1" /><rect shape-rendering="crispEdges" fill="rgb(164, 98, 131)"  x="27" y="23" width="1" height="1" /><rect shape-rendering="crispEdges" fill="rgb(213, 148, 172)"  x="27" y="24" width="1" height="1" /><rect shape-rendering="crispEdges" fill="rgb(238, 172, 197)"  x="27" y="25" width="1" height="1" /><rect shape-rendering="crispEdges" fill="rgb(238, 172, 197)"  x="27" y="26" width="1" height="1" /><rect shape-rendering="crispEdges" fill="rgb(106, 57, 98)"  x="27" y="27" width="1" height="1" /><rect shape-rendering="crispEdges" fill="rgb(222, 213, 222)"  x="27" y="28" width="1" height="1" /><rect shape-rendering="crispEdges" fill="rgb(164, 156, 172)"  x="28" y="23" width="1" height="1" /><rect shape-rendering="crispEdges" fill="rgb(106, 57, 98)"  x="28" y="24" width="1" height="1" /><rect shape-rendering="crispEdges" fill="rgb(106, 57, 98)"  x="28" y="25" width="1" height="1" /><rect shape-rendering="crispEdges" fill="rgb(106, 57, 98)"  x="28" y="26" width="1" height="1" /><rect shape-rendering="crispEdges" fill="rgb(98, 98, 115)"  x="28" y="27" width="1" height="1" /><rect shape-rendering="crispEdges" fill="rgb(222, 213, 222)"  x="28" y="28" width="1" height="1" /><rect shape-rendering="crispEdges" fill="rgb(164, 98, 131)"  x="28" y="29" width="1" height="1" /><rect shape-rendering="crispEdges" fill="rgb(164, 156, 172)"  x="29" y="23" width="1" height="1" /><rect shape-rendering="crispEdges" fill="rgb(164, 156, 172)"  x="29" y="24" width="1" height="1" /><rect shape-rendering="crispEdges" fill="rgb(164, 156, 172)"  x="29" y="25" width="1" height="1" /><rect shape-rendering="crispEdges" fill="rgb(189, 180, 197)"  x="29" y="26" width="1" height="1" /><rect shape-rendering="crispEdges" fill="rgb(222, 213, 222)"  x="29" y="27" width="1" height="1" /><rect shape-rendering="crispEdges" fill="rgb(189, 115, 148)"  x="29" y="28" width="1" height="1" /><rect shape-rendering="crispEdges" fill="rgb(106, 57, 98)"  x="29" y="29" width="1" height="1" /><rect shape-rendering="crispEdges" fill="rgb(98, 98, 115)"  x="30" y="25" width="1" height="1" /><rect shape-rendering="crispEdges" fill="rgb(164, 98, 131)"  x="30" y="27" width="1" height="1" /><rect shape-rendering="crispEdges" fill="rgb(164, 98, 131)"  x="30" y="28" width="1" height="1" /><rect shape-rendering="crispEdges" fill="rgb(106, 57, 98)"  x="30" y="29" width="1" height="1" /></svg>