<svg xmlns="http://www.w3.org/2000/svg" xmlns:xlink= "http://www.w3.org/1999/xlink" width="32" height="32" viewBox ="0 0 32 32"><rect shape-rendering="crispEdges" fill="rgb(255, 255, 115)"  x="3" y="25" width="1" height="1" /><rect shape-rendering="crispEdges" fill="rgb(255, 255, 115)"  x="3" y="26" width="1" height="1" /><rect shape-rendering="crispEdges" fill="rgb(255, 238, 98)"  x="3" y="27" width="1" height="1" /><rect shape-rendering="crispEdges" fill="rgb(255, 189, 49)"  x="3" y="28" width="1" height="1" /><rect shape-rendering="crispEdges" fill="rgb(255, 255, 115)"  x="4" y="25" width="1" height="1" /><rect shape-rendering="crispEdges" fill="rgb(255, 246, 106)"  x="4" y="26" width="1" height="1" /><rect shape-rendering="crispEdges" fill="rgb(255, 180, 49)"  x="4" y="27" width="1" height="1" /><rect shape-rendering="crispEdges" fill="rgb(222, 148, 24)"  x="4" y="28" width="1" height="1" /><rect shape-rendering="crispEdges" fill="rgb(156, 197, 164)"  x="5" y="24" width="1" height="1" /><rect shape-rendering="crispEdges" fill="rgb(222, 156, 24)"  x="5" y="25" width="1" height="1" /><rect shape-rendering="crispEdges" fill="rgb(255, 197, 65)"  x="5" y="26" width="1" height="1" /><rect shape-rendering="crispEdges" fill="rgb(255, 197, 57)"  x="5" y="27" width="1" height="1" /><rect shape-rendering="crispEdges" fill="rgb(213, 139, 16)"  x="5" y="28" width="1" height="1" /><rect shape-rendering="crispEdges" fill="rgb(156, 197, 164)"  x="6" y="23" width="1" height="1" /><rect shape-rendering="crispEdges" fill="rgb(255, 255, 255)"  x="6" y="24" width="1" height="1" /><rect shape-rendering="crispEdges" fill="rgb(255, 205, 65)"  x="6" y="25" width="1" height="1" /><rect shape-rendering="crispEdges" fill="rgb(213, 139, 16)"  x="6" y="26" width="1" height="1" /><rect shape-rendering="crispEdges" fill="rgb(213, 139, 16)"  x="6" y="27" width="1" height="1" /><rect shape-rendering="crispEdges" fill="rgb(213, 139, 16)"  x="6" y="28" width="1" height="1" /><rect shape-rendering="crispEdges" fill="rgb(156, 197, 164)"  x="7" y="22" width="1" height="1" /><rect shape-rendering="crispEdges" fill="rgb(255, 255, 255)"  x="7" y="23" width="1" height="1" /><rect shape-rendering="crispEdges" fill="rgb(205, 255, 213)"  x="7" y="24" width="1" height="1" /><rect shape-rendering="crispEdges" fill="rgb(164, 197, 164)"  x="7" y="25" width="1" height="1" /><rect shape-rendering="crispEdges" fill="rgb(106, 131, 106)"  x="7" y="26" width="1" height="1" /><rect shape-rendering="crispEdges" fill="rgb(90, 106, 82)"  x="7" y="27" width="1" height="1" /><rect shape-rendering="crispEdges" fill="rgb(49, 123, 164)"  x="8" y="21" width="1" height="1" /><rect shape-rendering="crispEdges" fill="rgb(24, 90, 131)"  x="8" y="22" width="1" height="1" /><rect shape-rendering="crispEdges" fill="rgb(156, 197, 164)"  x="8" y="23" width="1" height="1" /><rect shape-rendering="crispEdges" fill="rgb(180, 230, 189)"  x="8" y="24" width="1" height="1" /><rect shape-rendering="crispEdges" fill="rgb(106, 131, 106)"  x="8" y="25" width="1" height="1" /><rect shape-rendering="crispEdges" fill="rgb(90, 106, 82)"  x="8" y="26" width="1" height="1" /><rect shape-rendering="crispEdges" fill="rgb(49, 123, 164)"  x="9" y="20" width="1" height="1" /><rect shape-rendering="crispEdges" fill="rgb(82, 148, 197)"  x="9" y="21" width="1" height="1" /><rect shape-rendering="crispEdges" fill="rgb(82, 148, 197)"  x="9" y="22" width="1" height="1" /><rect shape-rendering="crispEdges" fill="rgb(24, 90, 131)"  x="9" y="23" width="1" height="1" /><rect shape-rendering="crispEdges" fill="rgb(106, 131, 106)"  x="9" y="24" width="1" height="1" /><rect shape-rendering="crispEdges" fill="rgb(90, 106, 82)"  x="9" y="25" width="1" height="1" /><rect shape-rendering="crispEdges" fill="rgb(24, 90, 131)"  x="10" y="19" width="1" height="1" /><rect shape-rendering="crispEdges" fill="rgb(82, 148, 197)"  x="10" y="20" width="1" height="1" /><rect shape-rendering="crispEdges" fill="rgb(82, 148, 197)"  x="10" y="21" width="1" height="1" /><rect shape-rendering="crispEdges" fill="rgb(49, 123, 164)"  x="10" y="22" width="1" height="1" /><rect shape-rendering="crispEdges" fill="rgb(32, 98, 139)"  x="10" y="23" width="1" height="1" /><rect shape-rendering="crispEdges" fill="rgb(24, 90, 131)"  x="10" y="24" width="1" height="1" /><rect shape-rendering="crispEdges" fill="rgb(156, 197, 164)"  x="11" y="18" width="1" height="1" /><rect shape-rendering="crispEdges" fill="rgb(156, 197, 164)"  x="11" y="19" width="1" height="1" /><rect shape-rendering="crispEdges" fill="rgb(24, 90, 131)"  x="11" y="20" width="1" height="1" /><rect shape-rendering="crispEdges" fill="rgb(41, 106, 148)"  x="11" y="21" width="1" height="1" /><rect shape-rendering="crispEdges" fill="rgb(32, 98, 139)"  x="11" y="22" width="1" height="1" /><rect shape-rendering="crispEdges" fill="rgb(24, 90, 131)"  x="11" y="23" width="1" height="1" /><rect shape-rendering="crispEdges" fill="rgb(156, 197, 164)"  x="12" y="17" width="1" height="1" /><rect shape-rendering="crispEdges" fill="rgb(255, 255, 255)"  x="12" y="18" width="1" height="1" /><rect shape-rendering="crispEdges" fill="rgb(172, 213, 180)"  x="12" y="19" width="1" height="1" /><rect shape-rendering="crispEdges" fill="rgb(106, 131, 106)"  x="12" y="20" width="1" height="1" /><rect shape-rendering="crispEdges" fill="rgb(24, 90, 131)"  x="12" y="21" width="1" height="1" /><rect shape-rendering="crispEdges" fill="rgb(24, 90, 131)"  x="12" y="22" width="1" height="1" /><rect shape-rendering="crispEdges" fill="rgb(156, 197, 164)"  x="13" y="16" width="1" height="1" /><rect shape-rendering="crispEdges" fill="rgb(255, 255, 255)"  x="13" y="17" width="1" height="1" /><rect shape-rendering="crispEdges" fill="rgb(172, 213, 180)"  x="13" y="18" width="1" height="1" /><rect shape-rendering="crispEdges" fill="rgb(106, 131, 106)"  x="13" y="19" width="1" height="1" /><rect shape-rendering="crispEdges" fill="rgb(106, 131, 106)"  x="13" y="20" width="1" height="1" /><rect shape-rendering="crispEdges" fill="rgb(82, 106, 82)"  x="13" y="21" width="1" height="1" /><rect shape-rendering="crispEdges" fill="rgb(156, 197, 164)"  x="14" y="15" width="1" height="1" /><rect shape-rendering="crispEdges" fill="rgb(197, 246, 205)"  x="14" y="16" width="1" height="1" /><rect shape-rendering="crispEdges" fill="rgb(172, 222, 180)"  x="14" y="17" width="1" height="1" /><rect shape-rendering="crispEdges" fill="rgb(106, 131, 106)"  x="14" y="18" width="1" height="1" /><rect shape-rendering="crispEdges" fill="rgb(106, 131, 106)"  x="14" y="19" width="1" height="1" /><rect shape-rendering="crispEdges" fill="rgb(82, 106, 82)"  x="14" y="20" width="1" height="1" /><rect shape-rendering="crispEdges" fill="rgb(74, 139, 197)"  x="15" y="14" width="1" height="1" /><rect shape-rendering="crispEdges" fill="rgb(74, 139, 197)"  x="15" y="15" width="1" height="1" /><rect shape-rendering="crispEdges" fill="rgb(32, 106, 164)"  x="15" y="16" width="1" height="1" /><rect shape-rendering="crispEdges" fill="rgb(106, 131, 106)"  x="15" y="17" width="1" height="1" /><rect shape-rendering="crispEdges" fill="rgb(106, 131, 106)"  x="15" y="18" width="1" height="1" /><rect shape-rendering="crispEdges" fill="rgb(82, 106, 82)"  x="15" y="19" width="1" height="1" /><rect shape-rendering="crispEdges" fill="rgb(255, 255, 197)"  x="16" y="8" width="1" height="1" /><rect shape-rendering="crispEdges" fill="rgb(255, 255, 197)"  x="16" y="9" width="1" height="1" /><rect shape-rendering="crispEdges" fill="rgb(255, 255, 197)"  x="16" y="10" width="1" height="1" /><rect shape-rendering="crispEdges" fill="rgb(205, 131, 16)"  x="16" y="11" width="1" height="1" /><rect shape-rendering="crispEdges" fill="rgb(32, 106, 164)"  x="16" y="13" width="1" height="1" /><rect shape-rendering="crispEdges" fill="rgb(57, 131, 189)"  x="16" y="14" width="1" height="1" /><rect shape-rendering="crispEdges" fill="rgb(49, 123, 172)"  x="16" y="15" width="1" height="1" /><rect shape-rendering="crispEdges" fill="rgb(32, 106, 164)"  x="16" y="16" width="1" height="1" /><rect shape-rendering="crispEdges" fill="rgb(106, 131, 106)"  x="16" y="17" width="1" height="1" /><rect shape-rendering="crispEdges" fill="rgb(82, 106, 82)"  x="16" y="18" width="1" height="1" /><rect shape-rendering="crispEdges" fill="rgb(255, 222, 90)"  x="17" y="6" width="1" height="1" /><rect shape-rendering="crispEdges" fill="rgb(255, 255, 197)"  x="17" y="7" width="1" height="1" /><rect shape-rendering="crispEdges" fill="rgb(255, 255, 197)"  x="17" y="8" width="1" height="1" /><rect shape-rendering="crispEdges" fill="rgb(255, 238, 139)"  x="17" y="9" width="1" height="1" /><rect shape-rendering="crispEdges" fill="rgb(255, 230, 106)"  x="17" y="10" width="1" height="1" /><rect shape-rendering="crispEdges" fill="rgb(255, 213, 74)"  x="17" y="11" width="1" height="1" /><rect shape-rendering="crispEdges" fill="rgb(98, 131, 98)"  x="17" y="12" width="1" height="1" /><rect shape-rendering="crispEdges" fill="rgb(189, 222, 197)"  x="17" y="13" width="1" height="1" /><rect shape-rendering="crispEdges" fill="rgb(131, 164, 139)"  x="17" y="14" width="1" height="1" /><rect shape-rendering="crispEdges" fill="rgb(32, 115, 164)"  x="17" y="15" width="1" height="1" /><rect shape-rendering="crispEdges" fill="rgb(41, 115, 164)"  x="17" y="16" width="1" height="1" /><rect shape-rendering="crispEdges" fill="rgb(82, 106, 82)"  x="17" y="17" width="1" height="1" /><rect shape-rendering="crispEdges" fill="rgb(106, 123, 90)"  x="18" y="6" width="1" height="1" /><rect shape-rendering="crispEdges" fill="rgb(82, 98, 82)"  x="18" y="7" width="1" height="1" /><rect shape-rendering="crispEdges" fill="rgb(148, 197, 164)"  x="18" y="8" width="1" height="1" /><rect shape-rendering="crispEdges" fill="rgb(82, 98, 82)"  x="18" y="9" width="1" height="1" /><rect shape-rendering="crispEdges" fill="rgb(90, 115, 90)"  x="18" y="10" width="1" height="1" /><rect shape-rendering="crispEdges" fill="rgb(255, 222, 90)"  x="18" y="11" width="1" height="1" /><rect shape-rendering="crispEdges" fill="rgb(98, 123, 90)"  x="18" y="12" width="1" height="1" /><rect shape-rendering="crispEdges" fill="rgb(98, 123, 98)"  x="18" y="13" width="1" height="1" /><rect shape-rendering="crispEdges" fill="rgb(189, 222, 197)"  x="18" y="14" width="1" height="1" /><rect shape-rendering="crispEdges" fill="rgb(32, 106, 164)"  x="18" y="15" width="1" height="1" /><rect shape-rendering="crispEdges" fill="rgb(32, 106, 164)"  x="18" y="16" width="1" height="1" /><rect shape-rendering="crispEdges" fill="rgb(255, 189, 49)"  x="19" y="3" width="1" height="1" /><rect shape-rendering="crispEdges" fill="rgb(255, 222, 98)"  x="19" y="4" width="1" height="1" /><rect shape-rendering="crispEdges" fill="rgb(255, 238, 115)"  x="19" y="5" width="1" height="1" /><rect shape-rendering="crispEdges" fill="rgb(255, 238, 115)"  x="19" y="6" width="1" height="1" /><rect shape-rendering="crispEdges" fill="rgb(230, 164, 41)"  x="19" y="7" width="1" height="1" /><rect shape-rendering="crispEdges" fill="rgb(230, 156, 24)"  x="19" y="8" width="1" height="1" /><rect shape-rendering="crispEdges" fill="rgb(90, 115, 90)"  x="19" y="9" width="1" height="1" /><rect shape-rendering="crispEdges" fill="rgb(139, 180, 156)"  x="19" y="10" width="1" height="1" /><rect shape-rendering="crispEdges" fill="rgb(255, 222, 90)"  x="19" y="11" width="1" height="1" /><rect shape-rendering="crispEdges" fill="rgb(255, 222, 90)"  x="19" y="12" width="1" height="1" /><rect shape-rendering="crispEdges" fill="rgb(98, 123, 90)"  x="19" y="13" width="1" height="1" /><rect shape-rendering="crispEdges" fill="rgb(98, 123, 98)"  x="19" y="14" width="1" height="1" /><rect shape-rendering="crispEdges" fill="rgb(90, 131, 106)"  x="19" y="15" width="1" height="1" /><rect shape-rendering="crispEdges" fill="rgb(255, 189, 49)"  x="20" y="3" width="1" height="1" /><rect shape-rendering="crispEdges" fill="rgb(255, 255, 172)"  x="20" y="4" width="1" height="1" /><rect shape-rendering="crispEdges" fill="rgb(255, 255, 172)"  x="20" y="5" width="1" height="1" /><rect shape-rendering="crispEdges" fill="rgb(255, 255, 172)"  x="20" y="6" width="1" height="1" /><rect shape-rendering="crispEdges" fill="rgb(255, 238, 123)"  x="20" y="7" width="1" height="1" /><rect shape-rendering="crispEdges" fill="rgb(255, 238, 123)"  x="20" y="8" width="1" height="1" /><rect shape-rendering="crispEdges" fill="rgb(255, 222, 98)"  x="20" y="9" width="1" height="1" /><rect shape-rendering="crispEdges" fill="rgb(90, 115, 90)"  x="20" y="10" width="1" height="1" /><rect shape-rendering="crispEdges" fill="rgb(205, 131, 16)"  x="20" y="11" width="1" height="1" /><rect shape-rendering="crispEdges" fill="rgb(255, 222, 90)"  x="20" y="12" width="1" height="1" /><rect shape-rendering="crispEdges" fill="rgb(255, 222, 90)"  x="20" y="13" width="1" height="1" /><rect shape-rendering="crispEdges" fill="rgb(213, 172, 82)"  x="20" y="14" width="1" height="1" /><rect shape-rendering="crispEdges" fill="rgb(205, 131, 16)"  x="20" y="15" width="1" height="1" /><rect shape-rendering="crispEdges" fill="rgb(49, 172, 180)"  x="21" y="4" width="1" height="1" /><rect shape-rendering="crispEdges" fill="rgb(90, 213, 222)"  x="21" y="5" width="1" height="1" /><rect shape-rendering="crispEdges" fill="rgb(90, 213, 222)"  x="21" y="6" width="1" height="1" /><rect shape-rendering="crispEdges" fill="rgb(65, 197, 205)"  x="21" y="7" width="1" height="1" /><rect shape-rendering="crispEdges" fill="rgb(0, 106, 115)"  x="21" y="8" width="1" height="1" /><rect shape-rendering="crispEdges" fill="rgb(255, 255, 139)"  x="21" y="9" width="1" height="1" /><rect shape-rendering="crispEdges" fill="rgb(255, 238, 123)"  x="21" y="10" width="1" height="1" /><rect shape-rendering="crispEdges" fill="rgb(82, 98, 82)"  x="21" y="11" width="1" height="1" /><rect shape-rendering="crispEdges" fill="rgb(82, 98, 82)"  x="21" y="12" width="1" height="1" /><rect shape-rendering="crispEdges" fill="rgb(148, 189, 164)"  x="21" y="13" width="1" height="1" /><rect shape-rendering="crispEdges" fill="rgb(255, 197, 65)"  x="21" y="14" width="1" height="1" /><rect shape-rendering="crispEdges" fill="rgb(205, 131, 16)"  x="21" y="15" width="1" height="1" /><rect shape-rendering="crispEdges" fill="rgb(57, 172, 180)"  x="22" y="4" width="1" height="1" /><rect shape-rendering="crispEdges" fill="rgb(65, 180, 189)"  x="22" y="5" width="1" height="1" /><rect shape-rendering="crispEdges" fill="rgb(74, 189, 197)"  x="22" y="6" width="1" height="1" /><rect shape-rendering="crispEdges" fill="rgb(16, 139, 148)"  x="22" y="7" width="1" height="1" /><rect shape-rendering="crispEdges" fill="rgb(41, 172, 180)"  x="22" y="8" width="1" height="1" /><rect shape-rendering="crispEdges" fill="rgb(0, 106, 106)"  x="22" y="9" width="1" height="1" /><rect shape-rendering="crispEdges" fill="rgb(255, 255, 156)"  x="22" y="10" width="1" height="1" /><rect shape-rendering="crispEdges" fill="rgb(255, 222, 98)"  x="22" y="11" width="1" height="1" /><rect shape-rendering="crispEdges" fill="rgb(205, 131, 16)"  x="22" y="12" width="1" height="1" /><rect shape-rendering="crispEdges" fill="rgb(82, 98, 82)"  x="22" y="13" width="1" height="1" /><rect shape-rendering="crispEdges" fill="rgb(255, 197, 65)"  x="22" y="14" width="1" height="1" /><rect shape-rendering="crispEdges" fill="rgb(205, 131, 16)"  x="22" y="15" width="1" height="1" /><rect shape-rendering="crispEdges" fill="rgb(82, 197, 205)"  x="23" y="4" width="1" height="1" /><rect shape-rendering="crispEdges" fill="rgb(172, 255, 255)"  x="23" y="5" width="1" height="1" /><rect shape-rendering="crispEdges" fill="rgb(180, 255, 255)"  x="23" y="6" width="1" height="1" /><rect shape-rendering="crispEdges" fill="rgb(131, 238, 246)"  x="23" y="7" width="1" height="1" /><rect shape-rendering="crispEdges" fill="rgb(8, 115, 123)"  x="23" y="8" width="1" height="1" /><rect shape-rendering="crispEdges" fill="rgb(16, 148, 156)"  x="23" y="9" width="1" height="1" /><rect shape-rendering="crispEdges" fill="rgb(0, 90, 98)"  x="23" y="10" width="1" height="1" /><rect shape-rendering="crispEdges" fill="rgb(255, 189, 49)"  x="23" y="11" width="1" height="1" /><rect shape-rendering="crispEdges" fill="rgb(205, 131, 16)"  x="23" y="12" width="1" height="1" /><rect shape-rendering="crispEdges" fill="rgb(139, 180, 156)"  x="23" y="13" width="1" height="1" /><rect shape-rendering="crispEdges" fill="rgb(255, 197, 65)"  x="23" y="14" width="1" height="1" /><rect shape-rendering="crispEdges" fill="rgb(205, 131, 16)"  x="23" y="15" width="1" height="1" /><rect shape-rendering="crispEdges" fill="rgb(32, 172, 180)"  x="24" y="4" width="1" height="1" /><rect shape-rendering="crispEdges" fill="rgb(180, 255, 255)"  x="24" y="5" width="1" height="1" /><rect shape-rendering="crispEdges" fill="rgb(189, 255, 255)"  x="24" y="6" width="1" height="1" /><rect shape-rendering="crispEdges" fill="rgb(123, 238, 246)"  x="24" y="7" width="1" height="1" /><rect shape-rendering="crispEdges" fill="rgb(57, 189, 197)"  x="24" y="8" width="1" height="1" /><rect shape-rendering="crispEdges" fill="rgb(0, 106, 106)"  x="24" y="9" width="1" height="1" /><rect shape-rendering="crispEdges" fill="rgb(0, 90, 98)"  x="24" y="10" width="1" height="1" /><rect shape-rendering="crispEdges" fill="rgb(255, 189, 49)"  x="24" y="11" width="1" height="1" /><rect shape-rendering="crispEdges" fill="rgb(205, 131, 16)"  x="24" y="12" width="1" height="1" /><rect shape-rendering="crispEdges" fill="rgb(82, 98, 82)"  x="24" y="13" width="1" height="1" /><rect shape-rendering="crispEdges" fill="rgb(255, 197, 65)"  x="24" y="14" width="1" height="1" /><rect shape-rendering="crispEdges" fill="rgb(205, 131, 16)"  x="24" y="15" width="1" height="1" /><rect shape-rendering="crispEdges" fill="rgb(24, 164, 164)"  x="25" y="3" width="1" height="1" /><rect shape-rendering="crispEdges" fill="rgb(139, 230, 246)"  x="25" y="4" width="1" height="1" /><rect shape-rendering="crispEdges" fill="rgb(16, 164, 172)"  x="25" y="5" width="1" height="1" /><rect shape-rendering="crispEdges" fill="rgb(148, 255, 255)"  x="25" y="6" width="1" height="1" /><rect shape-rendering="crispEdges" fill="rgb(90, 205, 213)"  x="25" y="7" width="1" height="1" /><rect shape-rendering="crispEdges" fill="rgb(41, 172, 180)"  x="25" y="8" width="1" height="1" /><rect shape-rendering="crispEdges" fill="rgb(0, 98, 106)"  x="25" y="9" width="1" height="1" /><rect shape-rendering="crispEdges" fill="rgb(0, 90, 98)"  x="25" y="10" width="1" height="1" /><rect shape-rendering="crispEdges" fill="rgb(255, 197, 65)"  x="25" y="11" width="1" height="1" /><rect shape-rendering="crispEdges" fill="rgb(205, 131, 16)"  x="25" y="12" width="1" height="1" /><rect shape-rendering="crispEdges" fill="rgb(139, 180, 156)"  x="25" y="13" width="1" height="1" /><rect shape-rendering="crispEdges" fill="rgb(222, 148, 16)"  x="25" y="14" width="1" height="1" /><rect shape-rendering="crispEdges" fill="rgb(24, 172, 180)"  x="26" y="3" width="1" height="1" /><rect shape-rendering="crispEdges" fill="rgb(189, 255, 255)"  x="26" y="4" width="1" height="1" /><rect shape-rendering="crispEdges" fill="rgb(139, 230, 246)"  x="26" y="5" width="1" height="1" /><rect shape-rendering="crispEdges" fill="rgb(0, 123, 123)"  x="26" y="6" width="1" height="1" /><rect shape-rendering="crispEdges" fill="rgb(8, 115, 123)"  x="26" y="7" width="1" height="1" /><rect shape-rendering="crispEdges" fill="rgb(0, 106, 106)"  x="26" y="8" width="1" height="1" /><rect shape-rendering="crispEdges" fill="rgb(0, 98, 106)"  x="26" y="9" width="1" height="1" /><rect shape-rendering="crispEdges" fill="rgb(0, 106, 106)"  x="26" y="10" width="1" height="1" /><rect shape-rendering="crispEdges" fill="rgb(255, 197, 65)"  x="26" y="11" width="1" height="1" /><rect shape-rendering="crispEdges" fill="rgb(205, 131, 16)"  x="26" y="12" width="1" height="1" /><rect shape-rendering="crispEdges" fill="rgb(82, 106, 82)"  x="26" y="13" width="1" height="1" /><rect shape-rendering="crispEdges" fill="rgb(213, 139, 16)"  x="26" y="14" width="1" height="1" /><rect shape-rendering="crispEdges" fill="rgb(24, 172, 180)"  x="27" y="3" width="1" height="1" /><rect shape-rendering="crispEdges" fill="rgb(106, 213, 222)"  x="27" y="4" width="1" height="1" /><rect shape-rendering="crispEdges" fill="rgb(65, 172, 180)"  x="27" y="5" width="1" height="1" /><rect shape-rendering="crispEdges" fill="rgb(0, 98, 106)"  x="27" y="6" width="1" height="1" /><rect shape-rendering="crispEdges" fill="rgb(0, 90, 98)"  x="27" y="7" width="1" height="1" /><rect shape-rendering="crispEdges" fill="rgb(0, 90, 98)"  x="27" y="8" width="1" height="1" /><rect shape-rendering="crispEdges" fill="rgb(0, 98, 106)"  x="27" y="9" width="1" height="1" /><rect shape-rendering="crispEdges" fill="rgb(255, 189, 49)"  x="27" y="10" width="1" height="1" /><rect shape-rendering="crispEdges" fill="rgb(255, 197, 65)"  x="27" y="11" width="1" height="1" /><rect shape-rendering="crispEdges" fill="rgb(205, 131, 16)"  x="27" y="12" width="1" height="1" /><rect shape-rendering="crispEdges" fill="rgb(24, 164, 164)"  x="28" y="3" width="1" height="1" /><rect shape-rendering="crispEdges" fill="rgb(8, 131, 139)"  x="28" y="4" width="1" height="1" /><rect shape-rendering="crispEdges" fill="rgb(0, 98, 98)"  x="28" y="5" width="1" height="1" /><rect shape-rendering="crispEdges" fill="rgb(0, 98, 98)"  x="28" y="6" width="1" height="1" /><rect shape-rendering="crispEdges" fill="rgb(230, 156, 24)"  x="28" y="10" width="1" height="1" /><rect shape-rendering="crispEdges" fill="rgb(230, 156, 24)"  x="28" y="11" width="1" height="1" /><rect shape-rendering="crispEdges" fill="rgb(205, 131, 16)"  x="28" y="12" width="1" height="1" /></svg>