<svg xmlns="http://www.w3.org/2000/svg" xmlns:xlink= "http://www.w3.org/1999/xlink" width="32" height="32" viewBox ="0 0 32 32"><rect shape-rendering="crispEdges" fill="rgb(131, 213, 213)"  x="1" y="7" width="1" height="1" /><rect shape-rendering="crispEdges" fill="rgb(82, 156, 164)"  x="1" y="8" width="1" height="1" /><rect shape-rendering="crispEdges" fill="rgb(82, 156, 164)"  x="1" y="9" width="1" height="1" /><rect shape-rendering="crispEdges" fill="rgb(98, 189, 189)"  x="1" y="10" width="1" height="1" /><rect shape-rendering="crispEdges" fill="rgb(131, 213, 213)"  x="2" y="8" width="1" height="1" /><rect shape-rendering="crispEdges" fill="rgb(82, 156, 164)"  x="2" y="9" width="1" height="1" /><rect shape-rendering="crispEdges" fill="rgb(164, 230, 230)"  x="2" y="10" width="1" height="1" /><rect shape-rendering="crispEdges" fill="rgb(98, 189, 189)"  x="2" y="11" width="1" height="1" /><rect shape-rendering="crispEdges" fill="rgb(131, 213, 213)"  x="2" y="12" width="1" height="1" /><rect shape-rendering="crispEdges" fill="rgb(131, 213, 213)"  x="3" y="9" width="1" height="1" /><rect shape-rendering="crispEdges" fill="rgb(131, 213, 213)"  x="3" y="10" width="1" height="1" /><rect shape-rendering="crispEdges" fill="rgb(164, 230, 230)"  x="3" y="11" width="1" height="1" /><rect shape-rendering="crispEdges" fill="rgb(98, 189, 189)"  x="3" y="12" width="1" height="1" /><rect shape-rendering="crispEdges" fill="rgb(65, 131, 131)"  x="4" y="10" width="1" height="1" /><rect shape-rendering="crispEdges" fill="rgb(164, 230, 230)"  x="4" y="11" width="1" height="1" /><rect shape-rendering="crispEdges" fill="rgb(131, 213, 213)"  x="4" y="12" width="1" height="1" /><rect shape-rendering="crispEdges" fill="rgb(82, 156, 164)"  x="4" y="13" width="1" height="1" /><rect shape-rendering="crispEdges" fill="rgb(172, 180, 255)"  x="5" y="4" width="1" height="1" /><rect shape-rendering="crispEdges" fill="rgb(172, 180, 255)"  x="5" y="5" width="1" height="1" /><rect shape-rendering="crispEdges" fill="rgb(156, 156, 255)"  x="5" y="6" width="1" height="1" /><rect shape-rendering="crispEdges" fill="rgb(139, 131, 222)"  x="5" y="7" width="1" height="1" /><rect shape-rendering="crispEdges" fill="rgb(139, 131, 222)"  x="5" y="8" width="1" height="1" /><rect shape-rendering="crispEdges" fill="rgb(49, 98, 98)"  x="5" y="10" width="1" height="1" /><rect shape-rendering="crispEdges" fill="rgb(82, 156, 164)"  x="5" y="11" width="1" height="1" /><rect shape-rendering="crispEdges" fill="rgb(131, 213, 213)"  x="5" y="12" width="1" height="1" /><rect shape-rendering="crispEdges" fill="rgb(65, 131, 131)"  x="5" y="13" width="1" height="1" /><rect shape-rendering="crispEdges" fill="rgb(180, 197, 255)"  x="6" y="4" width="1" height="1" /><rect shape-rendering="crispEdges" fill="rgb(197, 222, 255)"  x="6" y="5" width="1" height="1" /><rect shape-rendering="crispEdges" fill="rgb(197, 222, 255)"  x="6" y="6" width="1" height="1" /><rect shape-rendering="crispEdges" fill="rgb(197, 222, 255)"  x="6" y="7" width="1" height="1" /><rect shape-rendering="crispEdges" fill="rgb(197, 222, 255)"  x="6" y="8" width="1" height="1" /><rect shape-rendering="crispEdges" fill="rgb(172, 180, 255)"  x="6" y="9" width="1" height="1" /><rect shape-rendering="crispEdges" fill="rgb(49, 98, 98)"  x="6" y="10" width="1" height="1" /><rect shape-rendering="crispEdges" fill="rgb(82, 156, 164)"  x="6" y="11" width="1" height="1" /><rect shape-rendering="crispEdges" fill="rgb(131, 213, 213)"  x="6" y="12" width="1" height="1" /><rect shape-rendering="crispEdges" fill="rgb(49, 98, 98)"  x="6" y="13" width="1" height="1" /><rect shape-rendering="crispEdges" fill="rgb(180, 197, 255)"  x="7" y="4" width="1" height="1" /><rect shape-rendering="crispEdges" fill="rgb(197, 222, 255)"  x="7" y="5" width="1" height="1" /><rect shape-rendering="crispEdges" fill="rgb(213, 255, 255)"  x="7" y="6" width="1" height="1" /><rect shape-rendering="crispEdges" fill="rgb(180, 197, 255)"  x="7" y="7" width="1" height="1" /><rect shape-rendering="crispEdges" fill="rgb(197, 222, 255)"  x="7" y="8" width="1" height="1" /><rect shape-rendering="crispEdges" fill="rgb(172, 180, 255)"  x="7" y="9" width="1" height="1" /><rect shape-rendering="crispEdges" fill="rgb(32, 65, 74)"  x="7" y="10" width="1" height="1" /><rect shape-rendering="crispEdges" fill="rgb(82, 156, 164)"  x="7" y="11" width="1" height="1" /><rect shape-rendering="crispEdges" fill="rgb(131, 213, 213)"  x="7" y="12" width="1" height="1" /><rect shape-rendering="crispEdges" fill="rgb(49, 98, 98)"  x="7" y="13" width="1" height="1" /><rect shape-rendering="crispEdges" fill="rgb(131, 213, 213)"  x="8" y="1" width="1" height="1" /><rect shape-rendering="crispEdges" fill="rgb(180, 197, 255)"  x="8" y="4" width="1" height="1" /><rect shape-rendering="crispEdges" fill="rgb(213, 255, 255)"  x="8" y="5" width="1" height="1" /><rect shape-rendering="crispEdges" fill="rgb(213, 255, 255)"  x="8" y="6" width="1" height="1" /><rect shape-rendering="crispEdges" fill="rgb(172, 180, 255)"  x="8" y="7" width="1" height="1" /><rect shape-rendering="crispEdges" fill="rgb(180, 197, 255)"  x="8" y="8" width="1" height="1" /><rect shape-rendering="crispEdges" fill="rgb(172, 180, 255)"  x="8" y="9" width="1" height="1" /><rect shape-rendering="crispEdges" fill="rgb(32, 65, 74)"  x="8" y="10" width="1" height="1" /><rect shape-rendering="crispEdges" fill="rgb(98, 189, 189)"  x="8" y="11" width="1" height="1" /><rect shape-rendering="crispEdges" fill="rgb(189, 255, 255)"  x="8" y="12" width="1" height="1" /><rect shape-rendering="crispEdges" fill="rgb(49, 98, 98)"  x="8" y="13" width="1" height="1" /><rect shape-rendering="crispEdges" fill="rgb(98, 189, 189)"  x="9" y="1" width="1" height="1" /><rect shape-rendering="crispEdges" fill="rgb(164, 230, 230)"  x="9" y="2" width="1" height="1" /><rect shape-rendering="crispEdges" fill="rgb(156, 156, 255)"  x="9" y="4" width="1" height="1" /><rect shape-rendering="crispEdges" fill="rgb(197, 222, 255)"  x="9" y="5" width="1" height="1" /><rect shape-rendering="crispEdges" fill="rgb(197, 222, 255)"  x="9" y="6" width="1" height="1" /><rect shape-rendering="crispEdges" fill="rgb(197, 222, 255)"  x="9" y="7" width="1" height="1" /><rect shape-rendering="crispEdges" fill="rgb(197, 222, 255)"  x="9" y="8" width="1" height="1" /><rect shape-rendering="crispEdges" fill="rgb(172, 180, 255)"  x="9" y="9" width="1" height="1" /><rect shape-rendering="crispEdges" fill="rgb(32, 65, 74)"  x="9" y="10" width="1" height="1" /><rect shape-rendering="crispEdges" fill="rgb(49, 98, 98)"  x="9" y="11" width="1" height="1" /><rect shape-rendering="crispEdges" fill="rgb(32, 65, 74)"  x="9" y="12" width="1" height="1" /><rect shape-rendering="crispEdges" fill="rgb(98, 189, 189)"  x="10" y="1" width="1" height="1" /><rect shape-rendering="crispEdges" fill="rgb(98, 189, 189)"  x="10" y="2" width="1" height="1" /><rect shape-rendering="crispEdges" fill="rgb(164, 230, 230)"  x="10" y="3" width="1" height="1" /><rect shape-rendering="crispEdges" fill="rgb(156, 156, 255)"  x="10" y="5" width="1" height="1" /><rect shape-rendering="crispEdges" fill="rgb(172, 180, 255)"  x="10" y="6" width="1" height="1" /><rect shape-rendering="crispEdges" fill="rgb(172, 180, 255)"  x="10" y="7" width="1" height="1" /><rect shape-rendering="crispEdges" fill="rgb(156, 156, 255)"  x="10" y="8" width="1" height="1" /><rect shape-rendering="crispEdges" fill="rgb(49, 98, 98)"  x="10" y="9" width="1" height="1" /><rect shape-rendering="crispEdges" fill="rgb(32, 65, 74)"  x="10" y="10" width="1" height="1" /><rect shape-rendering="crispEdges" fill="rgb(65, 131, 131)"  x="10" y="11" width="1" height="1" /><rect shape-rendering="crispEdges" fill="rgb(65, 131, 131)"  x="10" y="12" width="1" height="1" /><rect shape-rendering="crispEdges" fill="rgb(65, 131, 131)"  x="10" y="13" width="1" height="1" /><rect shape-rendering="crispEdges" fill="rgb(98, 189, 189)"  x="11" y="1" width="1" height="1" /><rect shape-rendering="crispEdges" fill="rgb(189, 255, 255)"  x="11" y="2" width="1" height="1" /><rect shape-rendering="crispEdges" fill="rgb(131, 213, 213)"  x="11" y="3" width="1" height="1" /><rect shape-rendering="crispEdges" fill="rgb(98, 189, 189)"  x="11" y="4" width="1" height="1" /><rect shape-rendering="crispEdges" fill="rgb(65, 131, 131)"  x="11" y="5" width="1" height="1" /><rect shape-rendering="crispEdges" fill="rgb(49, 98, 98)"  x="11" y="6" width="1" height="1" /><rect shape-rendering="crispEdges" fill="rgb(49, 98, 98)"  x="11" y="7" width="1" height="1" /><rect shape-rendering="crispEdges" fill="rgb(49, 98, 98)"  x="11" y="8" width="1" height="1" /><rect shape-rendering="crispEdges" fill="rgb(49, 98, 98)"  x="11" y="9" width="1" height="1" /><rect shape-rendering="crispEdges" fill="rgb(65, 131, 131)"  x="11" y="10" width="1" height="1" /><rect shape-rendering="crispEdges" fill="rgb(65, 131, 131)"  x="11" y="11" width="1" height="1" /><rect shape-rendering="crispEdges" fill="rgb(115, 222, 255)"  x="11" y="12" width="1" height="1" /><rect shape-rendering="crispEdges" fill="rgb(98, 189, 189)"  x="11" y="13" width="1" height="1" /><rect shape-rendering="crispEdges" fill="rgb(131, 213, 213)"  x="12" y="1" width="1" height="1" /><rect shape-rendering="crispEdges" fill="rgb(189, 255, 255)"  x="12" y="2" width="1" height="1" /><rect shape-rendering="crispEdges" fill="rgb(189, 255, 255)"  x="12" y="3" width="1" height="1" /><rect shape-rendering="crispEdges" fill="rgb(164, 230, 230)"  x="12" y="4" width="1" height="1" /><rect shape-rendering="crispEdges" fill="rgb(164, 230, 230)"  x="12" y="5" width="1" height="1" /><rect shape-rendering="crispEdges" fill="rgb(131, 213, 213)"  x="12" y="6" width="1" height="1" /><rect shape-rendering="crispEdges" fill="rgb(131, 213, 213)"  x="12" y="7" width="1" height="1" /><rect shape-rendering="crispEdges" fill="rgb(65, 131, 131)"  x="12" y="8" width="1" height="1" /><rect shape-rendering="crispEdges" fill="rgb(49, 98, 98)"  x="12" y="9" width="1" height="1" /><rect shape-rendering="crispEdges" fill="rgb(82, 156, 164)"  x="12" y="10" width="1" height="1" /><rect shape-rendering="crispEdges" fill="rgb(213, 255, 255)"  x="12" y="11" width="1" height="1" /><rect shape-rendering="crispEdges" fill="rgb(205, 238, 255)"  x="12" y="12" width="1" height="1" /><rect shape-rendering="crispEdges" fill="rgb(115, 222, 255)"  x="12" y="13" width="1" height="1" /><rect shape-rendering="crispEdges" fill="rgb(65, 131, 131)"  x="12" y="14" width="1" height="1" /><rect shape-rendering="crispEdges" fill="rgb(82, 156, 164)"  x="12" y="15" width="1" height="1" /><rect shape-rendering="crispEdges" fill="rgb(82, 156, 164)"  x="12" y="16" width="1" height="1" /><rect shape-rendering="crispEdges" fill="rgb(82, 156, 164)"  x="12" y="17" width="1" height="1" /><rect shape-rendering="crispEdges" fill="rgb(131, 213, 213)"  x="13" y="2" width="1" height="1" /><rect shape-rendering="crispEdges" fill="rgb(189, 255, 255)"  x="13" y="3" width="1" height="1" /><rect shape-rendering="crispEdges" fill="rgb(189, 255, 255)"  x="13" y="4" width="1" height="1" /><rect shape-rendering="crispEdges" fill="rgb(189, 255, 255)"  x="13" y="5" width="1" height="1" /><rect shape-rendering="crispEdges" fill="rgb(98, 189, 189)"  x="13" y="6" width="1" height="1" /><rect shape-rendering="crispEdges" fill="rgb(164, 230, 230)"  x="13" y="7" width="1" height="1" /><rect shape-rendering="crispEdges" fill="rgb(65, 131, 131)"  x="13" y="8" width="1" height="1" /><rect shape-rendering="crispEdges" fill="rgb(98, 189, 189)"  x="13" y="10" width="1" height="1" /><rect shape-rendering="crispEdges" fill="rgb(164, 230, 230)"  x="13" y="11" width="1" height="1" /><rect shape-rendering="crispEdges" fill="rgb(213, 255, 255)"  x="13" y="12" width="1" height="1" /><rect shape-rendering="crispEdges" fill="rgb(205, 238, 255)"  x="13" y="13" width="1" height="1" /><rect shape-rendering="crispEdges" fill="rgb(65, 131, 131)"  x="13" y="14" width="1" height="1" /><rect shape-rendering="crispEdges" fill="rgb(98, 189, 189)"  x="13" y="15" width="1" height="1" /><rect shape-rendering="crispEdges" fill="rgb(98, 189, 189)"  x="13" y="16" width="1" height="1" /><rect shape-rendering="crispEdges" fill="rgb(98, 189, 189)"  x="13" y="17" width="1" height="1" /><rect shape-rendering="crispEdges" fill="rgb(82, 156, 164)"  x="13" y="18" width="1" height="1" /><rect shape-rendering="crispEdges" fill="rgb(131, 213, 213)"  x="14" y="3" width="1" height="1" /><rect shape-rendering="crispEdges" fill="rgb(98, 189, 189)"  x="14" y="4" width="1" height="1" /><rect shape-rendering="crispEdges" fill="rgb(98, 189, 189)"  x="14" y="5" width="1" height="1" /><rect shape-rendering="crispEdges" fill="rgb(82, 156, 164)"  x="14" y="6" width="1" height="1" /><rect shape-rendering="crispEdges" fill="rgb(82, 156, 164)"  x="14" y="7" width="1" height="1" /><rect shape-rendering="crispEdges" fill="rgb(65, 131, 131)"  x="14" y="8" width="1" height="1" /><rect shape-rendering="crispEdges" fill="rgb(131, 213, 213)"  x="14" y="12" width="1" height="1" /><rect shape-rendering="crispEdges" fill="rgb(65, 131, 131)"  x="14" y="13" width="1" height="1" /><rect shape-rendering="crispEdges" fill="rgb(189, 255, 255)"  x="14" y="14" width="1" height="1" /><rect shape-rendering="crispEdges" fill="rgb(98, 189, 189)"  x="14" y="15" width="1" height="1" /><rect shape-rendering="crispEdges" fill="rgb(98, 189, 189)"  x="14" y="16" width="1" height="1" /><rect shape-rendering="crispEdges" fill="rgb(164, 230, 230)"  x="14" y="17" width="1" height="1" /><rect shape-rendering="crispEdges" fill="rgb(65, 131, 131)"  x="14" y="18" width="1" height="1" /><rect shape-rendering="crispEdges" fill="rgb(98, 189, 189)"  x="14" y="19" width="1" height="1" /><rect shape-rendering="crispEdges" fill="rgb(131, 213, 213)"  x="15" y="12" width="1" height="1" /><rect shape-rendering="crispEdges" fill="rgb(164, 230, 230)"  x="15" y="13" width="1" height="1" /><rect shape-rendering="crispEdges" fill="rgb(189, 255, 255)"  x="15" y="14" width="1" height="1" /><rect shape-rendering="crispEdges" fill="rgb(189, 255, 255)"  x="15" y="15" width="1" height="1" /><rect shape-rendering="crispEdges" fill="rgb(131, 213, 213)"  x="15" y="16" width="1" height="1" /><rect shape-rendering="crispEdges" fill="rgb(164, 230, 230)"  x="15" y="17" width="1" height="1" /><rect shape-rendering="crispEdges" fill="rgb(65, 131, 131)"  x="15" y="18" width="1" height="1" /><rect shape-rendering="crispEdges" fill="rgb(82, 156, 164)"  x="15" y="19" width="1" height="1" /><rect shape-rendering="crispEdges" fill="rgb(131, 213, 213)"  x="16" y="12" width="1" height="1" /><rect shape-rendering="crispEdges" fill="rgb(164, 230, 230)"  x="16" y="13" width="1" height="1" /><rect shape-rendering="crispEdges" fill="rgb(189, 255, 255)"  x="16" y="14" width="1" height="1" /><rect shape-rendering="crispEdges" fill="rgb(189, 255, 255)"  x="16" y="15" width="1" height="1" /><rect shape-rendering="crispEdges" fill="rgb(164, 230, 230)"  x="16" y="16" width="1" height="1" /><rect shape-rendering="crispEdges" fill="rgb(82, 156, 164)"  x="16" y="17" width="1" height="1" /><rect shape-rendering="crispEdges" fill="rgb(65, 131, 131)"  x="16" y="18" width="1" height="1" /><rect shape-rendering="crispEdges" fill="rgb(65, 131, 131)"  x="16" y="19" width="1" height="1" /><rect shape-rendering="crispEdges" fill="rgb(82, 156, 164)"  x="16" y="20" width="1" height="1" /><rect shape-rendering="crispEdges" fill="rgb(131, 213, 213)"  x="17" y="13" width="1" height="1" /><rect shape-rendering="crispEdges" fill="rgb(131, 213, 213)"  x="17" y="14" width="1" height="1" /><rect shape-rendering="crispEdges" fill="rgb(98, 189, 189)"  x="17" y="15" width="1" height="1" /><rect shape-rendering="crispEdges" fill="rgb(82, 156, 164)"  x="17" y="16" width="1" height="1" /><rect shape-rendering="crispEdges" fill="rgb(131, 213, 213)"  x="17" y="17" width="1" height="1" /><rect shape-rendering="crispEdges" fill="rgb(82, 156, 164)"  x="17" y="18" width="1" height="1" /><rect shape-rendering="crispEdges" fill="rgb(65, 131, 131)"  x="17" y="19" width="1" height="1" /><rect shape-rendering="crispEdges" fill="rgb(65, 131, 131)"  x="17" y="20" width="1" height="1" /><rect shape-rendering="crispEdges" fill="rgb(82, 156, 164)"  x="17" y="21" width="1" height="1" /><rect shape-rendering="crispEdges" fill="rgb(98, 189, 189)"  x="18" y="15" width="1" height="1" /><rect shape-rendering="crispEdges" fill="rgb(82, 156, 164)"  x="18" y="16" width="1" height="1" /><rect shape-rendering="crispEdges" fill="rgb(164, 230, 230)"  x="18" y="17" width="1" height="1" /><rect shape-rendering="crispEdges" fill="rgb(98, 189, 189)"  x="18" y="18" width="1" height="1" /><rect shape-rendering="crispEdges" fill="rgb(65, 131, 131)"  x="18" y="19" width="1" height="1" /><rect shape-rendering="crispEdges" fill="rgb(65, 131, 131)"  x="18" y="20" width="1" height="1" /><rect shape-rendering="crispEdges" fill="rgb(65, 131, 131)"  x="18" y="21" width="1" height="1" /><rect shape-rendering="crispEdges" fill="rgb(82, 156, 164)"  x="18" y="22" width="1" height="1" /><rect shape-rendering="crispEdges" fill="rgb(98, 189, 189)"  x="19" y="16" width="1" height="1" /><rect shape-rendering="crispEdges" fill="rgb(82, 156, 164)"  x="19" y="17" width="1" height="1" /><rect shape-rendering="crispEdges" fill="rgb(164, 230, 230)"  x="19" y="18" width="1" height="1" /><rect shape-rendering="crispEdges" fill="rgb(131, 213, 213)"  x="19" y="19" width="1" height="1" /><rect shape-rendering="crispEdges" fill="rgb(65, 131, 131)"  x="19" y="20" width="1" height="1" /><rect shape-rendering="crispEdges" fill="rgb(65, 131, 131)"  x="19" y="21" width="1" height="1" /><rect shape-rendering="crispEdges" fill="rgb(65, 131, 131)"  x="19" y="22" width="1" height="1" /><rect shape-rendering="crispEdges" fill="rgb(82, 156, 164)"  x="19" y="23" width="1" height="1" /><rect shape-rendering="crispEdges" fill="rgb(82, 156, 164)"  x="20" y="18" width="1" height="1" /><rect shape-rendering="crispEdges" fill="rgb(164, 230, 230)"  x="20" y="19" width="1" height="1" /><rect shape-rendering="crispEdges" fill="rgb(131, 213, 213)"  x="20" y="20" width="1" height="1" /><rect shape-rendering="crispEdges" fill="rgb(65, 131, 131)"  x="20" y="21" width="1" height="1" /><rect shape-rendering="crispEdges" fill="rgb(65, 131, 131)"  x="20" y="22" width="1" height="1" /><rect shape-rendering="crispEdges" fill="rgb(65, 131, 131)"  x="20" y="23" width="1" height="1" /><rect shape-rendering="crispEdges" fill="rgb(98, 189, 189)"  x="20" y="24" width="1" height="1" /><rect shape-rendering="crispEdges" fill="rgb(98, 189, 189)"  x="21" y="19" width="1" height="1" /><rect shape-rendering="crispEdges" fill="rgb(131, 213, 213)"  x="21" y="20" width="1" height="1" /><rect shape-rendering="crispEdges" fill="rgb(164, 230, 230)"  x="21" y="21" width="1" height="1" /><rect shape-rendering="crispEdges" fill="rgb(82, 156, 164)"  x="21" y="22" width="1" height="1" /><rect shape-rendering="crispEdges" fill="rgb(0, 82, 0)"  x="21" y="23" width="1" height="1" /><rect shape-rendering="crispEdges" fill="rgb(0, 106, 0)"  x="21" y="24" width="1" height="1" /><rect shape-rendering="crispEdges" fill="rgb(98, 189, 189)"  x="22" y="20" width="1" height="1" /><rect shape-rendering="crispEdges" fill="rgb(82, 156, 164)"  x="22" y="21" width="1" height="1" /><rect shape-rendering="crispEdges" fill="rgb(0, 106, 0)"  x="22" y="22" width="1" height="1" /><rect shape-rendering="crispEdges" fill="rgb(0, 131, 0)"  x="22" y="23" width="1" height="1" /><rect shape-rendering="crispEdges" fill="rgb(0, 106, 0)"  x="22" y="24" width="1" height="1" /><rect shape-rendering="crispEdges" fill="rgb(0, 106, 0)"  x="22" y="25" width="1" height="1" /><rect shape-rendering="crispEdges" fill="rgb(0, 131, 0)"  x="23" y="22" width="1" height="1" /><rect shape-rendering="crispEdges" fill="rgb(0, 164, 0)"  x="23" y="23" width="1" height="1" /><rect shape-rendering="crispEdges" fill="rgb(0, 131, 0)"  x="23" y="24" width="1" height="1" /><rect shape-rendering="crispEdges" fill="rgb(0, 106, 0)"  x="23" y="25" width="1" height="1" /><rect shape-rendering="crispEdges" fill="rgb(0, 82, 0)"  x="23" y="26" width="1" height="1" /><rect shape-rendering="crispEdges" fill="rgb(0, 131, 0)"  x="24" y="23" width="1" height="1" /><rect shape-rendering="crispEdges" fill="rgb(0, 164, 0)"  x="24" y="24" width="1" height="1" /><rect shape-rendering="crispEdges" fill="rgb(0, 131, 0)"  x="24" y="25" width="1" height="1" /><rect shape-rendering="crispEdges" fill="rgb(0, 106, 0)"  x="24" y="26" width="1" height="1" /><rect shape-rendering="crispEdges" fill="rgb(0, 131, 0)"  x="24" y="27" width="1" height="1" /><rect shape-rendering="crispEdges" fill="rgb(0, 189, 0)"  x="25" y="24" width="1" height="1" /><rect shape-rendering="crispEdges" fill="rgb(0, 106, 0)"  x="25" y="25" width="1" height="1" /><rect shape-rendering="crispEdges" fill="rgb(98, 189, 189)"  x="25" y="26" width="1" height="1" /><rect shape-rendering="crispEdges" fill="rgb(65, 131, 131)"  x="25" y="27" width="1" height="1" /><rect shape-rendering="crispEdges" fill="rgb(49, 98, 98)"  x="25" y="28" width="1" height="1" /><rect shape-rendering="crispEdges" fill="rgb(65, 131, 131)"  x="26" y="26" width="1" height="1" /><rect shape-rendering="crispEdges" fill="rgb(98, 189, 189)"  x="26" y="27" width="1" height="1" /><rect shape-rendering="crispEdges" fill="rgb(65, 131, 131)"  x="26" y="28" width="1" height="1" /><rect shape-rendering="crispEdges" fill="rgb(49, 98, 98)"  x="26" y="29" width="1" height="1" /><rect shape-rendering="crispEdges" fill="rgb(82, 156, 164)"  x="27" y="27" width="1" height="1" /><rect shape-rendering="crispEdges" fill="rgb(65, 131, 131)"  x="27" y="28" width="1" height="1" /><rect shape-rendering="crispEdges" fill="rgb(65, 131, 131)"  x="27" y="29" width="1" height="1" /><rect shape-rendering="crispEdges" fill="rgb(49, 98, 98)"  x="27" y="30" width="1" height="1" /><rect shape-rendering="crispEdges" fill="rgb(82, 156, 164)"  x="28" y="28" width="1" height="1" /><rect shape-rendering="crispEdges" fill="rgb(65, 131, 131)"  x="28" y="29" width="1" height="1" /><rect shape-rendering="crispEdges" fill="rgb(65, 131, 131)"  x="28" y="30" width="1" height="1" /><rect shape-rendering="crispEdges" fill="rgb(131, 213, 213)"  x="29" y="29" width="1" height="1" /><rect shape-rendering="crispEdges" fill="rgb(131, 213, 213)"  x="29" y="30" width="1" height="1" /></svg>