<svg xmlns="http://www.w3.org/2000/svg" xmlns:xlink= "http://www.w3.org/1999/xlink" width="32" height="32" viewBox ="0 0 32 32"><rect shape-rendering="crispEdges" fill="rgb(49, 57, 66)"  x="3" y="28" width="1" height="1" /><rect shape-rendering="crispEdges" fill="rgb(49, 57, 66)"  x="3" y="29" width="1" height="1" /><rect shape-rendering="crispEdges" fill="rgb(49, 57, 66)"  x="3" y="30" width="1" height="1" /><rect shape-rendering="crispEdges" fill="rgb(49, 57, 66)"  x="4" y="27" width="1" height="1" /><rect shape-rendering="crispEdges" fill="rgb(189, 198, 206)"  x="4" y="28" width="1" height="1" /><rect shape-rendering="crispEdges" fill="rgb(222, 222, 222)"  x="4" y="29" width="1" height="1" /><rect shape-rendering="crispEdges" fill="rgb(82, 90, 107)"  x="4" y="30" width="1" height="1" /><rect shape-rendering="crispEdges" fill="rgb(49, 57, 66)"  x="4" y="31" width="1" height="1" /><rect shape-rendering="crispEdges" fill="rgb(107, 115, 132)"  x="5" y="25" width="1" height="1" /><rect shape-rendering="crispEdges" fill="rgb(66, 74, 82)"  x="5" y="26" width="1" height="1" /><rect shape-rendering="crispEdges" fill="rgb(41, 49, 57)"  x="5" y="27" width="1" height="1" /><rect shape-rendering="crispEdges" fill="rgb(82, 90, 107)"  x="5" y="28" width="1" height="1" /><rect shape-rendering="crispEdges" fill="rgb(140, 148, 165)"  x="5" y="29" width="1" height="1" /><rect shape-rendering="crispEdges" fill="rgb(82, 90, 107)"  x="5" y="30" width="1" height="1" /><rect shape-rendering="crispEdges" fill="rgb(49, 57, 66)"  x="5" y="31" width="1" height="1" /><rect shape-rendering="crispEdges" fill="rgb(107, 115, 132)"  x="6" y="23" width="1" height="1" /><rect shape-rendering="crispEdges" fill="rgb(66, 74, 82)"  x="6" y="24" width="1" height="1" /><rect shape-rendering="crispEdges" fill="rgb(214, 214, 214)"  x="6" y="25" width="1" height="1" /><rect shape-rendering="crispEdges" fill="rgb(231, 231, 239)"  x="6" y="26" width="1" height="1" /><rect shape-rendering="crispEdges" fill="rgb(66, 74, 82)"  x="6" y="27" width="1" height="1" /><rect shape-rendering="crispEdges" fill="rgb(132, 140, 148)"  x="6" y="28" width="1" height="1" /><rect shape-rendering="crispEdges" fill="rgb(49, 57, 74)"  x="6" y="29" width="1" height="1" /><rect shape-rendering="crispEdges" fill="rgb(82, 90, 107)"  x="6" y="30" width="1" height="1" /><rect shape-rendering="crispEdges" fill="rgb(41, 49, 57)"  x="6" y="31" width="1" height="1" /><rect shape-rendering="crispEdges" fill="rgb(107, 115, 132)"  x="7" y="21" width="1" height="1" /><rect shape-rendering="crispEdges" fill="rgb(66, 74, 82)"  x="7" y="22" width="1" height="1" /><rect shape-rendering="crispEdges" fill="rgb(247, 255, 255)"  x="7" y="23" width="1" height="1" /><rect shape-rendering="crispEdges" fill="rgb(247, 247, 247)"  x="7" y="24" width="1" height="1" /><rect shape-rendering="crispEdges" fill="rgb(189, 198, 214)"  x="7" y="25" width="1" height="1" /><rect shape-rendering="crispEdges" fill="rgb(107, 115, 132)"  x="7" y="26" width="1" height="1" /><rect shape-rendering="crispEdges" fill="rgb(24, 33, 33)"  x="7" y="27" width="1" height="1" /><rect shape-rendering="crispEdges" fill="rgb(8, 16, 16)"  x="7" y="28" width="1" height="1" /><rect shape-rendering="crispEdges" fill="rgb(8, 16, 16)"  x="7" y="29" width="1" height="1" /><rect shape-rendering="crispEdges" fill="rgb(41, 49, 57)"  x="7" y="30" width="1" height="1" /><rect shape-rendering="crispEdges" fill="rgb(49, 57, 66)"  x="8" y="18" width="1" height="1" /><rect shape-rendering="crispEdges" fill="rgb(41, 49, 57)"  x="8" y="19" width="1" height="1" /><rect shape-rendering="crispEdges" fill="rgb(66, 74, 82)"  x="8" y="20" width="1" height="1" /><rect shape-rendering="crispEdges" fill="rgb(247, 247, 247)"  x="8" y="21" width="1" height="1" /><rect shape-rendering="crispEdges" fill="rgb(239, 239, 247)"  x="8" y="22" width="1" height="1" /><rect shape-rendering="crispEdges" fill="rgb(189, 198, 206)"  x="8" y="23" width="1" height="1" /><rect shape-rendering="crispEdges" fill="rgb(148, 156, 173)"  x="8" y="24" width="1" height="1" /><rect shape-rendering="crispEdges" fill="rgb(66, 66, 74)"  x="8" y="25" width="1" height="1" /><rect shape-rendering="crispEdges" fill="rgb(33, 41, 41)"  x="8" y="26" width="1" height="1" /><rect shape-rendering="crispEdges" fill="rgb(8, 16, 16)"  x="8" y="27" width="1" height="1" /><rect shape-rendering="crispEdges" fill="rgb(49, 57, 66)"  x="9" y="10" width="1" height="1" /><rect shape-rendering="crispEdges" fill="rgb(49, 57, 66)"  x="9" y="11" width="1" height="1" /><rect shape-rendering="crispEdges" fill="rgb(8, 16, 16)"  x="9" y="12" width="1" height="1" /><rect shape-rendering="crispEdges" fill="rgb(49, 57, 66)"  x="9" y="17" width="1" height="1" /><rect shape-rendering="crispEdges" fill="rgb(156, 165, 165)"  x="9" y="18" width="1" height="1" /><rect shape-rendering="crispEdges" fill="rgb(82, 90, 99)"  x="9" y="19" width="1" height="1" /><rect shape-rendering="crispEdges" fill="rgb(255, 255, 255)"  x="9" y="20" width="1" height="1" /><rect shape-rendering="crispEdges" fill="rgb(231, 239, 239)"  x="9" y="21" width="1" height="1" /><rect shape-rendering="crispEdges" fill="rgb(148, 156, 173)"  x="9" y="22" width="1" height="1" /><rect shape-rendering="crispEdges" fill="rgb(57, 66, 74)"  x="9" y="23" width="1" height="1" /><rect shape-rendering="crispEdges" fill="rgb(41, 49, 57)"  x="9" y="24" width="1" height="1" /><rect shape-rendering="crispEdges" fill="rgb(49, 57, 66)"  x="9" y="25" width="1" height="1" /><rect shape-rendering="crispEdges" fill="rgb(8, 16, 16)"  x="9" y="26" width="1" height="1" /><rect shape-rendering="crispEdges" fill="rgb(239, 115, 8)"  x="10" y="6" width="1" height="1" /><rect shape-rendering="crispEdges" fill="rgb(247, 90, 16)"  x="10" y="7" width="1" height="1" /><rect shape-rendering="crispEdges" fill="rgb(66, 74, 82)"  x="10" y="10" width="1" height="1" /><rect shape-rendering="crispEdges" fill="rgb(140, 148, 165)"  x="10" y="11" width="1" height="1" /><rect shape-rendering="crispEdges" fill="rgb(41, 49, 57)"  x="10" y="12" width="1" height="1" /><rect shape-rendering="crispEdges" fill="rgb(49, 57, 66)"  x="10" y="13" width="1" height="1" /><rect shape-rendering="crispEdges" fill="rgb(66, 74, 82)"  x="10" y="14" width="1" height="1" /><rect shape-rendering="crispEdges" fill="rgb(66, 74, 82)"  x="10" y="15" width="1" height="1" /><rect shape-rendering="crispEdges" fill="rgb(49, 57, 66)"  x="10" y="16" width="1" height="1" /><rect shape-rendering="crispEdges" fill="rgb(49, 57, 66)"  x="10" y="17" width="1" height="1" /><rect shape-rendering="crispEdges" fill="rgb(156, 165, 165)"  x="10" y="18" width="1" height="1" /><rect shape-rendering="crispEdges" fill="rgb(82, 90, 99)"  x="10" y="19" width="1" height="1" /><rect shape-rendering="crispEdges" fill="rgb(206, 214, 222)"  x="10" y="20" width="1" height="1" /><rect shape-rendering="crispEdges" fill="rgb(123, 132, 148)"  x="10" y="21" width="1" height="1" /><rect shape-rendering="crispEdges" fill="rgb(8, 8, 8)"  x="10" y="22" width="1" height="1" /><rect shape-rendering="crispEdges" fill="rgb(41, 49, 57)"  x="10" y="23" width="1" height="1" /><rect shape-rendering="crispEdges" fill="rgb(8, 16, 16)"  x="10" y="24" width="1" height="1" /><rect shape-rendering="crispEdges" fill="rgb(8, 16, 16)"  x="10" y="25" width="1" height="1" /><rect shape-rendering="crispEdges" fill="rgb(140, 33, 0)"  x="11" y="5" width="1" height="1" /><rect shape-rendering="crispEdges" fill="rgb(140, 33, 0)"  x="11" y="6" width="1" height="1" /><rect shape-rendering="crispEdges" fill="rgb(247, 66, 24)"  x="11" y="7" width="1" height="1" /><rect shape-rendering="crispEdges" fill="rgb(231, 24, 24)"  x="11" y="8" width="1" height="1" /><rect shape-rendering="crispEdges" fill="rgb(247, 66, 24)"  x="11" y="9" width="1" height="1" /><rect shape-rendering="crispEdges" fill="rgb(66, 74, 82)"  x="11" y="10" width="1" height="1" /><rect shape-rendering="crispEdges" fill="rgb(140, 148, 165)"  x="11" y="11" width="1" height="1" /><rect shape-rendering="crispEdges" fill="rgb(74, 74, 82)"  x="11" y="12" width="1" height="1" /><rect shape-rendering="crispEdges" fill="rgb(132, 140, 140)"  x="11" y="13" width="1" height="1" /><rect shape-rendering="crispEdges" fill="rgb(247, 247, 247)"  x="11" y="14" width="1" height="1" /><rect shape-rendering="crispEdges" fill="rgb(239, 239, 247)"  x="11" y="15" width="1" height="1" /><rect shape-rendering="crispEdges" fill="rgb(222, 222, 231)"  x="11" y="16" width="1" height="1" /><rect shape-rendering="crispEdges" fill="rgb(66, 74, 82)"  x="11" y="17" width="1" height="1" /><rect shape-rendering="crispEdges" fill="rgb(156, 165, 165)"  x="11" y="18" width="1" height="1" /><rect shape-rendering="crispEdges" fill="rgb(8, 16, 16)"  x="11" y="19" width="1" height="1" /><rect shape-rendering="crispEdges" fill="rgb(82, 90, 99)"  x="11" y="20" width="1" height="1" /><rect shape-rendering="crispEdges" fill="rgb(8, 8, 8)"  x="11" y="21" width="1" height="1" /><rect shape-rendering="crispEdges" fill="rgb(49, 57, 66)"  x="11" y="22" width="1" height="1" /><rect shape-rendering="crispEdges" fill="rgb(8, 16, 16)"  x="11" y="23" width="1" height="1" /><rect shape-rendering="crispEdges" fill="rgb(247, 66, 24)"  x="12" y="7" width="1" height="1" /><rect shape-rendering="crispEdges" fill="rgb(255, 181, 24)"  x="12" y="8" width="1" height="1" /><rect shape-rendering="crispEdges" fill="rgb(231, 24, 24)"  x="12" y="9" width="1" height="1" /><rect shape-rendering="crispEdges" fill="rgb(66, 74, 82)"  x="12" y="10" width="1" height="1" /><rect shape-rendering="crispEdges" fill="rgb(156, 165, 165)"  x="12" y="11" width="1" height="1" /><rect shape-rendering="crispEdges" fill="rgb(74, 74, 82)"  x="12" y="12" width="1" height="1" /><rect shape-rendering="crispEdges" fill="rgb(148, 156, 156)"  x="12" y="13" width="1" height="1" /><rect shape-rendering="crispEdges" fill="rgb(222, 231, 239)"  x="12" y="14" width="1" height="1" /><rect shape-rendering="crispEdges" fill="rgb(173, 181, 198)"  x="12" y="15" width="1" height="1" /><rect shape-rendering="crispEdges" fill="rgb(123, 140, 156)"  x="12" y="16" width="1" height="1" /><rect shape-rendering="crispEdges" fill="rgb(49, 57, 66)"  x="12" y="17" width="1" height="1" /><rect shape-rendering="crispEdges" fill="rgb(189, 198, 214)"  x="12" y="18" width="1" height="1" /><rect shape-rendering="crispEdges" fill="rgb(82, 90, 99)"  x="12" y="19" width="1" height="1" /><rect shape-rendering="crispEdges" fill="rgb(24, 33, 33)"  x="12" y="20" width="1" height="1" /><rect shape-rendering="crispEdges" fill="rgb(33, 41, 49)"  x="12" y="21" width="1" height="1" /><rect shape-rendering="crispEdges" fill="rgb(8, 16, 16)"  x="12" y="22" width="1" height="1" /><rect shape-rendering="crispEdges" fill="rgb(140, 33, 0)"  x="13" y="6" width="1" height="1" /><rect shape-rendering="crispEdges" fill="rgb(239, 115, 8)"  x="13" y="7" width="1" height="1" /><rect shape-rendering="crispEdges" fill="rgb(255, 214, 8)"  x="13" y="8" width="1" height="1" /><rect shape-rendering="crispEdges" fill="rgb(255, 173, 49)"  x="13" y="9" width="1" height="1" /><rect shape-rendering="crispEdges" fill="rgb(107, 115, 132)"  x="13" y="10" width="1" height="1" /><rect shape-rendering="crispEdges" fill="rgb(189, 189, 189)"  x="13" y="11" width="1" height="1" /><rect shape-rendering="crispEdges" fill="rgb(66, 66, 74)"  x="13" y="12" width="1" height="1" /><rect shape-rendering="crispEdges" fill="rgb(99, 107, 132)"  x="13" y="13" width="1" height="1" /><rect shape-rendering="crispEdges" fill="rgb(156, 165, 181)"  x="13" y="14" width="1" height="1" /><rect shape-rendering="crispEdges" fill="rgb(99, 115, 140)"  x="13" y="15" width="1" height="1" /><rect shape-rendering="crispEdges" fill="rgb(74, 82, 99)"  x="13" y="16" width="1" height="1" /><rect shape-rendering="crispEdges" fill="rgb(49, 57, 74)"  x="13" y="17" width="1" height="1" /><rect shape-rendering="crispEdges" fill="rgb(8, 16, 16)"  x="13" y="18" width="1" height="1" /><rect shape-rendering="crispEdges" fill="rgb(156, 165, 165)"  x="13" y="19" width="1" height="1" /><rect shape-rendering="crispEdges" fill="rgb(82, 90, 99)"  x="13" y="20" width="1" height="1" /><rect shape-rendering="crispEdges" fill="rgb(8, 16, 16)"  x="13" y="21" width="1" height="1" /><rect shape-rendering="crispEdges" fill="rgb(140, 33, 0)"  x="14" y="5" width="1" height="1" /><rect shape-rendering="crispEdges" fill="rgb(239, 115, 8)"  x="14" y="6" width="1" height="1" /><rect shape-rendering="crispEdges" fill="rgb(255, 181, 24)"  x="14" y="7" width="1" height="1" /><rect shape-rendering="crispEdges" fill="rgb(255, 214, 57)"  x="14" y="8" width="1" height="1" /><rect shape-rendering="crispEdges" fill="rgb(255, 181, 24)"  x="14" y="9" width="1" height="1" /><rect shape-rendering="crispEdges" fill="rgb(107, 115, 132)"  x="14" y="10" width="1" height="1" /><rect shape-rendering="crispEdges" fill="rgb(239, 239, 247)"  x="14" y="11" width="1" height="1" /><rect shape-rendering="crispEdges" fill="rgb(41, 41, 49)"  x="14" y="12" width="1" height="1" /><rect shape-rendering="crispEdges" fill="rgb(66, 66, 74)"  x="14" y="13" width="1" height="1" /><rect shape-rendering="crispEdges" fill="rgb(99, 107, 132)"  x="14" y="14" width="1" height="1" /><rect shape-rendering="crispEdges" fill="rgb(74, 82, 99)"  x="14" y="15" width="1" height="1" /><rect shape-rendering="crispEdges" fill="rgb(49, 57, 66)"  x="14" y="16" width="1" height="1" /><rect shape-rendering="crispEdges" fill="rgb(33, 33, 41)"  x="14" y="17" width="1" height="1" /><rect shape-rendering="crispEdges" fill="rgb(66, 74, 82)"  x="14" y="18" width="1" height="1" /><rect shape-rendering="crispEdges" fill="rgb(8, 16, 16)"  x="14" y="19" width="1" height="1" /><rect shape-rendering="crispEdges" fill="rgb(8, 16, 16)"  x="14" y="20" width="1" height="1" /><rect shape-rendering="crispEdges" fill="rgb(8, 16, 16)"  x="14" y="21" width="1" height="1" /><rect shape-rendering="crispEdges" fill="rgb(140, 33, 0)"  x="15" y="2" width="1" height="1" /><rect shape-rendering="crispEdges" fill="rgb(140, 33, 0)"  x="15" y="3" width="1" height="1" /><rect shape-rendering="crispEdges" fill="rgb(140, 33, 0)"  x="15" y="5" width="1" height="1" /><rect shape-rendering="crispEdges" fill="rgb(239, 115, 8)"  x="15" y="6" width="1" height="1" /><rect shape-rendering="crispEdges" fill="rgb(255, 181, 24)"  x="15" y="7" width="1" height="1" /><rect shape-rendering="crispEdges" fill="rgb(255, 214, 8)"  x="15" y="8" width="1" height="1" /><rect shape-rendering="crispEdges" fill="rgb(255, 181, 24)"  x="15" y="9" width="1" height="1" /><rect shape-rendering="crispEdges" fill="rgb(231, 107, 24)"  x="15" y="10" width="1" height="1" /><rect shape-rendering="crispEdges" fill="rgb(107, 115, 132)"  x="15" y="11" width="1" height="1" /><rect shape-rendering="crispEdges" fill="rgb(189, 189, 189)"  x="15" y="12" width="1" height="1" /><rect shape-rendering="crispEdges" fill="rgb(33, 33, 41)"  x="15" y="13" width="1" height="1" /><rect shape-rendering="crispEdges" fill="rgb(49, 57, 66)"  x="15" y="14" width="1" height="1" /><rect shape-rendering="crispEdges" fill="rgb(49, 57, 66)"  x="15" y="15" width="1" height="1" /><rect shape-rendering="crispEdges" fill="rgb(33, 33, 41)"  x="15" y="16" width="1" height="1" /><rect shape-rendering="crispEdges" fill="rgb(16, 16, 16)"  x="15" y="17" width="1" height="1" /><rect shape-rendering="crispEdges" fill="rgb(66, 74, 82)"  x="15" y="18" width="1" height="1" /><rect shape-rendering="crispEdges" fill="rgb(8, 16, 16)"  x="15" y="19" width="1" height="1" /><rect shape-rendering="crispEdges" fill="rgb(181, 41, 0)"  x="16" y="1" width="1" height="1" /><rect shape-rendering="crispEdges" fill="rgb(181, 41, 0)"  x="16" y="3" width="1" height="1" /><rect shape-rendering="crispEdges" fill="rgb(140, 33, 0)"  x="16" y="4" width="1" height="1" /><rect shape-rendering="crispEdges" fill="rgb(140, 33, 0)"  x="16" y="5" width="1" height="1" /><rect shape-rendering="crispEdges" fill="rgb(239, 115, 8)"  x="16" y="6" width="1" height="1" /><rect shape-rendering="crispEdges" fill="rgb(247, 156, 49)"  x="16" y="7" width="1" height="1" /><rect shape-rendering="crispEdges" fill="rgb(255, 255, 156)"  x="16" y="8" width="1" height="1" /><rect shape-rendering="crispEdges" fill="rgb(255, 222, 33)"  x="16" y="9" width="1" height="1" /><rect shape-rendering="crispEdges" fill="rgb(231, 66, 24)"  x="16" y="10" width="1" height="1" /><rect shape-rendering="crispEdges" fill="rgb(107, 115, 132)"  x="16" y="11" width="1" height="1" /><rect shape-rendering="crispEdges" fill="rgb(239, 239, 247)"  x="16" y="12" width="1" height="1" /><rect shape-rendering="crispEdges" fill="rgb(24, 33, 33)"  x="16" y="13" width="1" height="1" /><rect shape-rendering="crispEdges" fill="rgb(16, 16, 16)"  x="16" y="14" width="1" height="1" /><rect shape-rendering="crispEdges" fill="rgb(8, 8, 8)"  x="16" y="15" width="1" height="1" /><rect shape-rendering="crispEdges" fill="rgb(24, 24, 33)"  x="16" y="16" width="1" height="1" /><rect shape-rendering="crispEdges" fill="rgb(66, 74, 82)"  x="16" y="17" width="1" height="1" /><rect shape-rendering="crispEdges" fill="rgb(107, 123, 140)"  x="16" y="18" width="1" height="1" /><rect shape-rendering="crispEdges" fill="rgb(8, 16, 16)"  x="16" y="19" width="1" height="1" /><rect shape-rendering="crispEdges" fill="rgb(181, 41, 0)"  x="17" y="4" width="1" height="1" /><rect shape-rendering="crispEdges" fill="rgb(247, 90, 16)"  x="17" y="5" width="1" height="1" /><rect shape-rendering="crispEdges" fill="rgb(247, 66, 24)"  x="17" y="6" width="1" height="1" /><rect shape-rendering="crispEdges" fill="rgb(247, 90, 49)"  x="17" y="7" width="1" height="1" /><rect shape-rendering="crispEdges" fill="rgb(255, 214, 33)"  x="17" y="8" width="1" height="1" /><rect shape-rendering="crispEdges" fill="rgb(255, 247, 57)"  x="17" y="9" width="1" height="1" /><rect shape-rendering="crispEdges" fill="rgb(231, 99, 33)"  x="17" y="10" width="1" height="1" /><rect shape-rendering="crispEdges" fill="rgb(255, 255, 115)"  x="17" y="11" width="1" height="1" /><rect shape-rendering="crispEdges" fill="rgb(107, 115, 132)"  x="17" y="12" width="1" height="1" /><rect shape-rendering="crispEdges" fill="rgb(189, 189, 189)"  x="17" y="13" width="1" height="1" /><rect shape-rendering="crispEdges" fill="rgb(24, 24, 24)"  x="17" y="14" width="1" height="1" /><rect shape-rendering="crispEdges" fill="rgb(24, 33, 33)"  x="17" y="15" width="1" height="1" /><rect shape-rendering="crispEdges" fill="rgb(57, 66, 74)"  x="17" y="16" width="1" height="1" /><rect shape-rendering="crispEdges" fill="rgb(90, 107, 123)"  x="17" y="17" width="1" height="1" /><rect shape-rendering="crispEdges" fill="rgb(8, 16, 16)"  x="17" y="18" width="1" height="1" /><rect shape-rendering="crispEdges" fill="rgb(140, 33, 0)"  x="18" y="2" width="1" height="1" /><rect shape-rendering="crispEdges" fill="rgb(140, 33, 0)"  x="18" y="5" width="1" height="1" /><rect shape-rendering="crispEdges" fill="rgb(214, 16, 24)"  x="18" y="6" width="1" height="1" /><rect shape-rendering="crispEdges" fill="rgb(255, 132, 49)"  x="18" y="7" width="1" height="1" /><rect shape-rendering="crispEdges" fill="rgb(255, 198, 33)"  x="18" y="8" width="1" height="1" /><rect shape-rendering="crispEdges" fill="rgb(255, 198, 33)"  x="18" y="9" width="1" height="1" /><rect shape-rendering="crispEdges" fill="rgb(247, 165, 16)"  x="18" y="10" width="1" height="1" /><rect shape-rendering="crispEdges" fill="rgb(247, 165, 16)"  x="18" y="11" width="1" height="1" /><rect shape-rendering="crispEdges" fill="rgb(214, 16, 24)"  x="18" y="12" width="1" height="1" /><rect shape-rendering="crispEdges" fill="rgb(107, 115, 132)"  x="18" y="13" width="1" height="1" /><rect shape-rendering="crispEdges" fill="rgb(189, 189, 189)"  x="18" y="14" width="1" height="1" /><rect shape-rendering="crispEdges" fill="rgb(33, 33, 33)"  x="18" y="15" width="1" height="1" /><rect shape-rendering="crispEdges" fill="rgb(41, 41, 49)"  x="18" y="16" width="1" height="1" /><rect shape-rendering="crispEdges" fill="rgb(8, 16, 16)"  x="18" y="17" width="1" height="1" /><rect shape-rendering="crispEdges" fill="rgb(8, 16, 16)"  x="18" y="18" width="1" height="1" /><rect shape-rendering="crispEdges" fill="rgb(140, 33, 0)"  x="19" y="3" width="1" height="1" /><rect shape-rendering="crispEdges" fill="rgb(140, 33, 0)"  x="19" y="4" width="1" height="1" /><rect shape-rendering="crispEdges" fill="rgb(255, 132, 49)"  x="19" y="6" width="1" height="1" /><rect shape-rendering="crispEdges" fill="rgb(255, 181, 24)"  x="19" y="7" width="1" height="1" /><rect shape-rendering="crispEdges" fill="rgb(255, 231, 57)"  x="19" y="8" width="1" height="1" /><rect shape-rendering="crispEdges" fill="rgb(247, 165, 16)"  x="19" y="9" width="1" height="1" /><rect shape-rendering="crispEdges" fill="rgb(255, 181, 24)"  x="19" y="10" width="1" height="1" /><rect shape-rendering="crispEdges" fill="rgb(255, 181, 24)"  x="19" y="11" width="1" height="1" /><rect shape-rendering="crispEdges" fill="rgb(239, 57, 33)"  x="19" y="12" width="1" height="1" /><rect shape-rendering="crispEdges" fill="rgb(239, 57, 33)"  x="19" y="13" width="1" height="1" /><rect shape-rendering="crispEdges" fill="rgb(66, 74, 82)"  x="19" y="14" width="1" height="1" /><rect shape-rendering="crispEdges" fill="rgb(156, 165, 165)"  x="19" y="15" width="1" height="1" /><rect shape-rendering="crispEdges" fill="rgb(49, 57, 66)"  x="19" y="16" width="1" height="1" /><rect shape-rendering="crispEdges" fill="rgb(41, 41, 49)"  x="19" y="17" width="1" height="1" /><rect shape-rendering="crispEdges" fill="rgb(8, 16, 16)"  x="19" y="18" width="1" height="1" /><rect shape-rendering="crispEdges" fill="rgb(140, 33, 0)"  x="20" y="3" width="1" height="1" /><rect shape-rendering="crispEdges" fill="rgb(140, 33, 0)"  x="20" y="4" width="1" height="1" /><rect shape-rendering="crispEdges" fill="rgb(214, 16, 24)"  x="20" y="5" width="1" height="1" /><rect shape-rendering="crispEdges" fill="rgb(255, 132, 49)"  x="20" y="6" width="1" height="1" /><rect shape-rendering="crispEdges" fill="rgb(255, 255, 148)"  x="20" y="7" width="1" height="1" /><rect shape-rendering="crispEdges" fill="rgb(255, 247, 115)"  x="20" y="8" width="1" height="1" /><rect shape-rendering="crispEdges" fill="rgb(247, 181, 16)"  x="20" y="9" width="1" height="1" /><rect shape-rendering="crispEdges" fill="rgb(255, 181, 24)"  x="20" y="10" width="1" height="1" /><rect shape-rendering="crispEdges" fill="rgb(239, 57, 33)"  x="20" y="11" width="1" height="1" /><rect shape-rendering="crispEdges" fill="rgb(255, 189, 33)"  x="20" y="12" width="1" height="1" /><rect shape-rendering="crispEdges" fill="rgb(255, 123, 49)"  x="20" y="13" width="1" height="1" /><rect shape-rendering="crispEdges" fill="rgb(231, 49, 24)"  x="20" y="14" width="1" height="1" /><rect shape-rendering="crispEdges" fill="rgb(49, 57, 66)"  x="20" y="15" width="1" height="1" /><rect shape-rendering="crispEdges" fill="rgb(140, 148, 165)"  x="20" y="16" width="1" height="1" /><rect shape-rendering="crispEdges" fill="rgb(8, 16, 16)"  x="20" y="17" width="1" height="1" /><rect shape-rendering="crispEdges" fill="rgb(8, 16, 16)"  x="20" y="18" width="1" height="1" /><rect shape-rendering="crispEdges" fill="rgb(140, 33, 0)"  x="21" y="3" width="1" height="1" /><rect shape-rendering="crispEdges" fill="rgb(214, 16, 24)"  x="21" y="4" width="1" height="1" /><rect shape-rendering="crispEdges" fill="rgb(255, 132, 49)"  x="21" y="5" width="1" height="1" /><rect shape-rendering="crispEdges" fill="rgb(255, 181, 24)"  x="21" y="6" width="1" height="1" /><rect shape-rendering="crispEdges" fill="rgb(255, 255, 156)"  x="21" y="7" width="1" height="1" /><rect shape-rendering="crispEdges" fill="rgb(255, 247, 132)"  x="21" y="8" width="1" height="1" /><rect shape-rendering="crispEdges" fill="rgb(247, 173, 16)"  x="21" y="9" width="1" height="1" /><rect shape-rendering="crispEdges" fill="rgb(239, 57, 33)"  x="21" y="10" width="1" height="1" /><rect shape-rendering="crispEdges" fill="rgb(239, 132, 24)"  x="21" y="11" width="1" height="1" /><rect shape-rendering="crispEdges" fill="rgb(255, 214, 8)"  x="21" y="12" width="1" height="1" /><rect shape-rendering="crispEdges" fill="rgb(247, 82, 49)"  x="21" y="13" width="1" height="1" /><rect shape-rendering="crispEdges" fill="rgb(222, 41, 24)"  x="21" y="14" width="1" height="1" /><rect shape-rendering="crispEdges" fill="rgb(107, 24, 0)"  x="21" y="15" width="1" height="1" /><rect shape-rendering="crispEdges" fill="rgb(49, 57, 66)"  x="21" y="16" width="1" height="1" /><rect shape-rendering="crispEdges" fill="rgb(8, 16, 16)"  x="21" y="17" width="1" height="1" /><rect shape-rendering="crispEdges" fill="rgb(140, 33, 0)"  x="22" y="2" width="1" height="1" /><rect shape-rendering="crispEdges" fill="rgb(247, 66, 24)"  x="22" y="3" width="1" height="1" /><rect shape-rendering="crispEdges" fill="rgb(255, 99, 33)"  x="22" y="4" width="1" height="1" /><rect shape-rendering="crispEdges" fill="rgb(247, 107, 33)"  x="22" y="5" width="1" height="1" /><rect shape-rendering="crispEdges" fill="rgb(255, 181, 24)"  x="22" y="6" width="1" height="1" /><rect shape-rendering="crispEdges" fill="rgb(255, 214, 8)"  x="22" y="7" width="1" height="1" /><rect shape-rendering="crispEdges" fill="rgb(255, 247, 115)"  x="22" y="8" width="1" height="1" /><rect shape-rendering="crispEdges" fill="rgb(247, 148, 24)"  x="22" y="9" width="1" height="1" /><rect shape-rendering="crispEdges" fill="rgb(255, 82, 33)"  x="22" y="10" width="1" height="1" /><rect shape-rendering="crispEdges" fill="rgb(239, 132, 24)"  x="22" y="11" width="1" height="1" /><rect shape-rendering="crispEdges" fill="rgb(255, 231, 57)"  x="22" y="12" width="1" height="1" /><rect shape-rendering="crispEdges" fill="rgb(255, 181, 24)"  x="22" y="13" width="1" height="1" /><rect shape-rendering="crispEdges" fill="rgb(247, 33, 41)"  x="22" y="14" width="1" height="1" /><rect shape-rendering="crispEdges" fill="rgb(107, 24, 0)"  x="22" y="15" width="1" height="1" /><rect shape-rendering="crispEdges" fill="rgb(181, 41, 0)"  x="23" y="1" width="1" height="1" /><rect shape-rendering="crispEdges" fill="rgb(255, 90, 49)"  x="23" y="2" width="1" height="1" /><rect shape-rendering="crispEdges" fill="rgb(255, 181, 24)"  x="23" y="3" width="1" height="1" /><rect shape-rendering="crispEdges" fill="rgb(255, 181, 24)"  x="23" y="4" width="1" height="1" /><rect shape-rendering="crispEdges" fill="rgb(255, 132, 49)"  x="23" y="5" width="1" height="1" /><rect shape-rendering="crispEdges" fill="rgb(255, 181, 24)"  x="23" y="6" width="1" height="1" /><rect shape-rendering="crispEdges" fill="rgb(255, 247, 140)"  x="23" y="7" width="1" height="1" /><rect shape-rendering="crispEdges" fill="rgb(247, 231, 66)"  x="23" y="8" width="1" height="1" /><rect shape-rendering="crispEdges" fill="rgb(239, 74, 24)"  x="23" y="9" width="1" height="1" /><rect shape-rendering="crispEdges" fill="rgb(255, 214, 8)"  x="23" y="10" width="1" height="1" /><rect shape-rendering="crispEdges" fill="rgb(255, 189, 33)"  x="23" y="11" width="1" height="1" /><rect shape-rendering="crispEdges" fill="rgb(255, 214, 8)"  x="23" y="12" width="1" height="1" /><rect shape-rendering="crispEdges" fill="rgb(255, 123, 49)"  x="23" y="13" width="1" height="1" /><rect shape-rendering="crispEdges" fill="rgb(222, 33, 24)"  x="23" y="14" width="1" height="1" /><rect shape-rendering="crispEdges" fill="rgb(107, 24, 0)"  x="23" y="15" width="1" height="1" /><rect shape-rendering="crispEdges" fill="rgb(181, 41, 0)"  x="24" y="2" width="1" height="1" /><rect shape-rendering="crispEdges" fill="rgb(255, 74, 33)"  x="24" y="3" width="1" height="1" /><rect shape-rendering="crispEdges" fill="rgb(255, 132, 49)"  x="24" y="4" width="1" height="1" /><rect shape-rendering="crispEdges" fill="rgb(255, 132, 49)"  x="24" y="5" width="1" height="1" /><rect shape-rendering="crispEdges" fill="rgb(255, 214, 8)"  x="24" y="6" width="1" height="1" /><rect shape-rendering="crispEdges" fill="rgb(255, 255, 140)"  x="24" y="7" width="1" height="1" /><rect shape-rendering="crispEdges" fill="rgb(247, 148, 33)"  x="24" y="8" width="1" height="1" /><rect shape-rendering="crispEdges" fill="rgb(255, 132, 49)"  x="24" y="9" width="1" height="1" /><rect shape-rendering="crispEdges" fill="rgb(247, 222, 33)"  x="24" y="10" width="1" height="1" /><rect shape-rendering="crispEdges" fill="rgb(247, 231, 49)"  x="24" y="11" width="1" height="1" /><rect shape-rendering="crispEdges" fill="rgb(255, 214, 8)"  x="24" y="12" width="1" height="1" /><rect shape-rendering="crispEdges" fill="rgb(255, 181, 24)"  x="24" y="13" width="1" height="1" /><rect shape-rendering="crispEdges" fill="rgb(222, 41, 24)"  x="24" y="14" width="1" height="1" /><rect shape-rendering="crispEdges" fill="rgb(107, 24, 0)"  x="24" y="15" width="1" height="1" /><rect shape-rendering="crispEdges" fill="rgb(181, 41, 0)"  x="25" y="2" width="1" height="1" /><rect shape-rendering="crispEdges" fill="rgb(140, 33, 0)"  x="25" y="3" width="1" height="1" /><rect shape-rendering="crispEdges" fill="rgb(140, 33, 0)"  x="25" y="4" width="1" height="1" /><rect shape-rendering="crispEdges" fill="rgb(255, 132, 49)"  x="25" y="5" width="1" height="1" /><rect shape-rendering="crispEdges" fill="rgb(255, 239, 99)"  x="25" y="6" width="1" height="1" /><rect shape-rendering="crispEdges" fill="rgb(247, 222, 49)"  x="25" y="7" width="1" height="1" /><rect shape-rendering="crispEdges" fill="rgb(247, 214, 16)"  x="25" y="8" width="1" height="1" /><rect shape-rendering="crispEdges" fill="rgb(247, 231, 57)"  x="25" y="9" width="1" height="1" /><rect shape-rendering="crispEdges" fill="rgb(255, 255, 148)"  x="25" y="10" width="1" height="1" /><rect shape-rendering="crispEdges" fill="rgb(255, 239, 99)"  x="25" y="11" width="1" height="1" /><rect shape-rendering="crispEdges" fill="rgb(255, 255, 148)"  x="25" y="12" width="1" height="1" /><rect shape-rendering="crispEdges" fill="rgb(255, 181, 24)"  x="25" y="13" width="1" height="1" /><rect shape-rendering="crispEdges" fill="rgb(222, 33, 24)"  x="25" y="14" width="1" height="1" /><rect shape-rendering="crispEdges" fill="rgb(107, 24, 0)"  x="25" y="15" width="1" height="1" /><rect shape-rendering="crispEdges" fill="rgb(181, 41, 0)"  x="26" y="0" width="1" height="1" /><rect shape-rendering="crispEdges" fill="rgb(181, 41, 0)"  x="26" y="1" width="1" height="1" /><rect shape-rendering="crispEdges" fill="rgb(140, 33, 0)"  x="26" y="2" width="1" height="1" /><rect shape-rendering="crispEdges" fill="rgb(255, 82, 33)"  x="26" y="3" width="1" height="1" /><rect shape-rendering="crispEdges" fill="rgb(255, 123, 49)"  x="26" y="4" width="1" height="1" /><rect shape-rendering="crispEdges" fill="rgb(255, 181, 24)"  x="26" y="5" width="1" height="1" /><rect shape-rendering="crispEdges" fill="rgb(247, 222, 16)"  x="26" y="6" width="1" height="1" /><rect shape-rendering="crispEdges" fill="rgb(247, 222, 16)"  x="26" y="7" width="1" height="1" /><rect shape-rendering="crispEdges" fill="rgb(247, 231, 49)"  x="26" y="8" width="1" height="1" /><rect shape-rendering="crispEdges" fill="rgb(255, 214, 8)"  x="26" y="9" width="1" height="1" /><rect shape-rendering="crispEdges" fill="rgb(255, 214, 8)"  x="26" y="10" width="1" height="1" /><rect shape-rendering="crispEdges" fill="rgb(247, 231, 49)"  x="26" y="11" width="1" height="1" /><rect shape-rendering="crispEdges" fill="rgb(255, 255, 148)"  x="26" y="12" width="1" height="1" /><rect shape-rendering="crispEdges" fill="rgb(239, 57, 33)"  x="26" y="13" width="1" height="1" /><rect shape-rendering="crispEdges" fill="rgb(214, 16, 24)"  x="26" y="14" width="1" height="1" /><rect shape-rendering="crispEdges" fill="rgb(107, 24, 0)"  x="26" y="15" width="1" height="1" /><rect shape-rendering="crispEdges" fill="rgb(140, 33, 0)"  x="27" y="1" width="1" height="1" /><rect shape-rendering="crispEdges" fill="rgb(255, 132, 49)"  x="27" y="3" width="1" height="1" /><rect shape-rendering="crispEdges" fill="rgb(255, 123, 49)"  x="27" y="4" width="1" height="1" /><rect shape-rendering="crispEdges" fill="rgb(255, 132, 49)"  x="27" y="5" width="1" height="1" /><rect shape-rendering="crispEdges" fill="rgb(247, 222, 16)"  x="27" y="6" width="1" height="1" /><rect shape-rendering="crispEdges" fill="rgb(255, 132, 49)"  x="27" y="7" width="1" height="1" /><rect shape-rendering="crispEdges" fill="rgb(255, 214, 8)"  x="27" y="8" width="1" height="1" /><rect shape-rendering="crispEdges" fill="rgb(255, 82, 33)"  x="27" y="9" width="1" height="1" /><rect shape-rendering="crispEdges" fill="rgb(255, 214, 8)"  x="27" y="10" width="1" height="1" /><rect shape-rendering="crispEdges" fill="rgb(255, 165, 49)"  x="27" y="11" width="1" height="1" /><rect shape-rendering="crispEdges" fill="rgb(255, 181, 24)"  x="27" y="12" width="1" height="1" /><rect shape-rendering="crispEdges" fill="rgb(231, 41, 24)"  x="27" y="13" width="1" height="1" /><rect shape-rendering="crispEdges" fill="rgb(107, 24, 0)"  x="27" y="14" width="1" height="1" /><rect shape-rendering="crispEdges" fill="rgb(107, 24, 0)"  x="27" y="15" width="1" height="1" /><rect shape-rendering="crispEdges" fill="rgb(140, 33, 0)"  x="28" y="2" width="1" height="1" /><rect shape-rendering="crispEdges" fill="rgb(247, 66, 49)"  x="28" y="3" width="1" height="1" /><rect shape-rendering="crispEdges" fill="rgb(140, 33, 0)"  x="28" y="4" width="1" height="1" /><rect shape-rendering="crispEdges" fill="rgb(140, 33, 0)"  x="28" y="5" width="1" height="1" /><rect shape-rendering="crispEdges" fill="rgb(255, 132, 49)"  x="28" y="7" width="1" height="1" /><rect shape-rendering="crispEdges" fill="rgb(255, 181, 24)"  x="28" y="8" width="1" height="1" /><rect shape-rendering="crispEdges" fill="rgb(255, 123, 49)"  x="28" y="10" width="1" height="1" /><rect shape-rendering="crispEdges" fill="rgb(255, 132, 49)"  x="28" y="11" width="1" height="1" /><rect shape-rendering="crispEdges" fill="rgb(140, 33, 0)"  x="28" y="12" width="1" height="1" /><rect shape-rendering="crispEdges" fill="rgb(231, 41, 24)"  x="28" y="13" width="1" height="1" /><rect shape-rendering="crispEdges" fill="rgb(140, 33, 0)"  x="28" y="15" width="1" height="1" /><rect shape-rendering="crispEdges" fill="rgb(140, 33, 0)"  x="28" y="16" width="1" height="1" /><rect shape-rendering="crispEdges" fill="rgb(140, 33, 0)"  x="29" y="1" width="1" height="1" /><rect shape-rendering="crispEdges" fill="rgb(140, 33, 0)"  x="29" y="2" width="1" height="1" /><rect shape-rendering="crispEdges" fill="rgb(140, 33, 0)"  x="29" y="6" width="1" height="1" /><rect shape-rendering="crispEdges" fill="rgb(239, 115, 8)"  x="29" y="7" width="1" height="1" /><rect shape-rendering="crispEdges" fill="rgb(140, 33, 0)"  x="29" y="10" width="1" height="1" /><rect shape-rendering="crispEdges" fill="rgb(255, 82, 33)"  x="29" y="11" width="1" height="1" /><rect shape-rendering="crispEdges" fill="rgb(107, 24, 0)"  x="29" y="12" width="1" height="1" /><rect shape-rendering="crispEdges" fill="rgb(140, 33, 0)"  x="29" y="14" width="1" height="1" /><rect shape-rendering="crispEdges" fill="rgb(140, 33, 0)"  x="29" y="15" width="1" height="1" /><rect shape-rendering="crispEdges" fill="rgb(140, 33, 0)"  x="30" y="5" width="1" height="1" /><rect shape-rendering="crispEdges" fill="rgb(140, 33, 0)"  x="30" y="6" width="1" height="1" /><rect shape-rendering="crispEdges" fill="rgb(140, 33, 0)"  x="30" y="7" width="1" height="1" /><rect shape-rendering="crispEdges" fill="rgb(140, 33, 0)"  x="30" y="9" width="1" height="1" /><rect shape-rendering="crispEdges" fill="rgb(181, 41, 0)"  x="30" y="10" width="1" height="1" /><rect shape-rendering="crispEdges" fill="rgb(107, 24, 0)"  x="30" y="11" width="1" height="1" /></svg>