<svg xmlns="http://www.w3.org/2000/svg" xmlns:xlink= "http://www.w3.org/1999/xlink" width="16" height="16" viewBox ="0 0 16 16"><rect shape-rendering="crispEdges" fill="rgb(106, 74, 82)"  x="0" y="0" width="1" height="1" /><rect shape-rendering="crispEdges" fill="rgb(106, 74, 82)"  x="0" y="1" width="1" height="1" /><rect shape-rendering="crispEdges" fill="rgb(106, 74, 74)"  x="0" y="2" width="1" height="1" /><rect shape-rendering="crispEdges" fill="rgb(106, 74, 74)"  x="0" y="3" width="1" height="1" /><rect shape-rendering="crispEdges" fill="rgb(106, 74, 74)"  x="0" y="4" width="1" height="1" /><rect shape-rendering="crispEdges" fill="rgb(98, 74, 74)"  x="0" y="5" width="1" height="1" /><rect shape-rendering="crispEdges" fill="rgb(98, 74, 74)"  x="0" y="6" width="1" height="1" /><rect shape-rendering="crispEdges" fill="rgb(98, 65, 74)"  x="0" y="7" width="1" height="1" /><rect shape-rendering="crispEdges" fill="rgb(90, 65, 65)"  x="0" y="8" width="1" height="1" /><rect shape-rendering="crispEdges" fill="rgb(90, 65, 65)"  x="0" y="9" width="1" height="1" /><rect shape-rendering="crispEdges" fill="rgb(90, 65, 65)"  x="0" y="10" width="1" height="1" /><rect shape-rendering="crispEdges" fill="rgb(82, 65, 65)"  x="0" y="11" width="1" height="1" /><rect shape-rendering="crispEdges" fill="rgb(82, 57, 65)"  x="0" y="12" width="1" height="1" /><rect shape-rendering="crispEdges" fill="rgb(82, 57, 57)"  x="0" y="13" width="1" height="1" /><rect shape-rendering="crispEdges" fill="rgb(82, 57, 57)"  x="0" y="14" width="1" height="1" /><rect shape-rendering="crispEdges" fill="rgb(82, 57, 57)"  x="0" y="15" width="1" height="1" /><rect shape-rendering="crispEdges" fill="rgb(106, 74, 82)"  x="1" y="0" width="1" height="1" /><rect shape-rendering="crispEdges" fill="rgb(255, 255, 255)"  x="1" y="1" width="1" height="1" /><rect shape-rendering="crispEdges" fill="rgb(164, 131, 131)"  x="1" y="2" width="1" height="1" /><rect shape-rendering="crispEdges" fill="rgb(213, 180, 180)"  x="1" y="3" width="1" height="1" /><rect shape-rendering="crispEdges" fill="rgb(213, 180, 180)"  x="1" y="4" width="1" height="1" /><rect shape-rendering="crispEdges" fill="rgb(98, 74, 74)"  x="1" y="5" width="1" height="1" /><rect shape-rendering="crispEdges" fill="rgb(98, 65, 74)"  x="1" y="6" width="1" height="1" /><rect shape-rendering="crispEdges" fill="rgb(98, 65, 74)"  x="1" y="7" width="1" height="1" /><rect shape-rendering="crispEdges" fill="rgb(90, 65, 65)"  x="1" y="8" width="1" height="1" /><rect shape-rendering="crispEdges" fill="rgb(90, 65, 65)"  x="1" y="9" width="1" height="1" /><rect shape-rendering="crispEdges" fill="rgb(90, 65, 65)"  x="1" y="10" width="1" height="1" /><rect shape-rendering="crispEdges" fill="rgb(82, 65, 65)"  x="1" y="11" width="1" height="1" /><rect shape-rendering="crispEdges" fill="rgb(82, 57, 57)"  x="1" y="12" width="1" height="1" /><rect shape-rendering="crispEdges" fill="rgb(82, 57, 57)"  x="1" y="13" width="1" height="1" /><rect shape-rendering="crispEdges" fill="rgb(82, 57, 57)"  x="1" y="14" width="1" height="1" /><rect shape-rendering="crispEdges" fill="rgb(82, 57, 57)"  x="1" y="15" width="1" height="1" /><rect shape-rendering="crispEdges" fill="rgb(106, 74, 82)"  x="2" y="0" width="1" height="1" /><rect shape-rendering="crispEdges" fill="rgb(255, 238, 238)"  x="2" y="1" width="1" height="1" /><rect shape-rendering="crispEdges" fill="rgb(255, 255, 255)"  x="2" y="2" width="1" height="1" /><rect shape-rendering="crispEdges" fill="rgb(164, 131, 131)"  x="2" y="3" width="1" height="1" /><rect shape-rendering="crispEdges" fill="rgb(213, 180, 180)"  x="2" y="4" width="1" height="1" /><rect shape-rendering="crispEdges" fill="rgb(213, 180, 180)"  x="2" y="5" width="1" height="1" /><rect shape-rendering="crispEdges" fill="rgb(98, 65, 74)"  x="2" y="6" width="1" height="1" /><rect shape-rendering="crispEdges" fill="rgb(98, 65, 74)"  x="2" y="7" width="1" height="1" /><rect shape-rendering="crispEdges" fill="rgb(90, 65, 65)"  x="2" y="8" width="1" height="1" /><rect shape-rendering="crispEdges" fill="rgb(90, 65, 65)"  x="2" y="9" width="1" height="1" /><rect shape-rendering="crispEdges" fill="rgb(90, 65, 65)"  x="2" y="10" width="1" height="1" /><rect shape-rendering="crispEdges" fill="rgb(82, 65, 65)"  x="2" y="11" width="1" height="1" /><rect shape-rendering="crispEdges" fill="rgb(82, 57, 65)"  x="2" y="12" width="1" height="1" /><rect shape-rendering="crispEdges" fill="rgb(82, 57, 57)"  x="2" y="13" width="1" height="1" /><rect shape-rendering="crispEdges" fill="rgb(82, 57, 57)"  x="2" y="14" width="1" height="1" /><rect shape-rendering="crispEdges" fill="rgb(82, 57, 57)"  x="2" y="15" width="1" height="1" /><rect shape-rendering="crispEdges" fill="rgb(106, 74, 82)"  x="3" y="0" width="1" height="1" /><rect shape-rendering="crispEdges" fill="rgb(255, 230, 238)"  x="3" y="1" width="1" height="1" /><rect shape-rendering="crispEdges" fill="rgb(255, 238, 238)"  x="3" y="2" width="1" height="1" /><rect shape-rendering="crispEdges" fill="rgb(255, 255, 255)"  x="3" y="3" width="1" height="1" /><rect shape-rendering="crispEdges" fill="rgb(164, 131, 131)"  x="3" y="4" width="1" height="1" /><rect shape-rendering="crispEdges" fill="rgb(213, 180, 180)"  x="3" y="5" width="1" height="1" /><rect shape-rendering="crispEdges" fill="rgb(213, 180, 180)"  x="3" y="6" width="1" height="1" /><rect shape-rendering="crispEdges" fill="rgb(98, 65, 74)"  x="3" y="7" width="1" height="1" /><rect shape-rendering="crispEdges" fill="rgb(90, 65, 65)"  x="3" y="8" width="1" height="1" /><rect shape-rendering="crispEdges" fill="rgb(90, 65, 65)"  x="3" y="9" width="1" height="1" /><rect shape-rendering="crispEdges" fill="rgb(90, 65, 65)"  x="3" y="10" width="1" height="1" /><rect shape-rendering="crispEdges" fill="rgb(82, 65, 65)"  x="3" y="11" width="1" height="1" /><rect shape-rendering="crispEdges" fill="rgb(82, 57, 57)"  x="3" y="12" width="1" height="1" /><rect shape-rendering="crispEdges" fill="rgb(82, 57, 57)"  x="3" y="13" width="1" height="1" /><rect shape-rendering="crispEdges" fill="rgb(82, 57, 57)"  x="3" y="14" width="1" height="1" /><rect shape-rendering="crispEdges" fill="rgb(82, 57, 57)"  x="3" y="15" width="1" height="1" /><rect shape-rendering="crispEdges" fill="rgb(106, 74, 82)"  x="4" y="0" width="1" height="1" /><rect shape-rendering="crispEdges" fill="rgb(255, 230, 230)"  x="4" y="1" width="1" height="1" /><rect shape-rendering="crispEdges" fill="rgb(255, 230, 238)"  x="4" y="2" width="1" height="1" /><rect shape-rendering="crispEdges" fill="rgb(255, 238, 238)"  x="4" y="3" width="1" height="1" /><rect shape-rendering="crispEdges" fill="rgb(255, 255, 255)"  x="4" y="4" width="1" height="1" /><rect shape-rendering="crispEdges" fill="rgb(164, 131, 139)"  x="4" y="5" width="1" height="1" /><rect shape-rendering="crispEdges" fill="rgb(213, 180, 180)"  x="4" y="6" width="1" height="1" /><rect shape-rendering="crispEdges" fill="rgb(213, 180, 180)"  x="4" y="7" width="1" height="1" /><rect shape-rendering="crispEdges" fill="rgb(90, 65, 65)"  x="4" y="8" width="1" height="1" /><rect shape-rendering="crispEdges" fill="rgb(90, 65, 65)"  x="4" y="9" width="1" height="1" /><rect shape-rendering="crispEdges" fill="rgb(90, 65, 65)"  x="4" y="10" width="1" height="1" /><rect shape-rendering="crispEdges" fill="rgb(82, 65, 65)"  x="4" y="11" width="1" height="1" /><rect shape-rendering="crispEdges" fill="rgb(82, 57, 57)"  x="4" y="12" width="1" height="1" /><rect shape-rendering="crispEdges" fill="rgb(82, 57, 57)"  x="4" y="13" width="1" height="1" /><rect shape-rendering="crispEdges" fill="rgb(82, 57, 57)"  x="4" y="14" width="1" height="1" /><rect shape-rendering="crispEdges" fill="rgb(82, 57, 57)"  x="4" y="15" width="1" height="1" /><rect shape-rendering="crispEdges" fill="rgb(106, 74, 82)"  x="5" y="0" width="1" height="1" /><rect shape-rendering="crispEdges" fill="rgb(106, 74, 74)"  x="5" y="1" width="1" height="1" /><rect shape-rendering="crispEdges" fill="rgb(255, 230, 238)"  x="5" y="2" width="1" height="1" /><rect shape-rendering="crispEdges" fill="rgb(255, 230, 238)"  x="5" y="3" width="1" height="1" /><rect shape-rendering="crispEdges" fill="rgb(255, 238, 238)"  x="5" y="4" width="1" height="1" /><rect shape-rendering="crispEdges" fill="rgb(255, 255, 255)"  x="5" y="5" width="1" height="1" /><rect shape-rendering="crispEdges" fill="rgb(164, 131, 139)"  x="5" y="6" width="1" height="1" /><rect shape-rendering="crispEdges" fill="rgb(213, 180, 180)"  x="5" y="7" width="1" height="1" /><rect shape-rendering="crispEdges" fill="rgb(213, 180, 180)"  x="5" y="8" width="1" height="1" /><rect shape-rendering="crispEdges" fill="rgb(90, 65, 65)"  x="5" y="9" width="1" height="1" /><rect shape-rendering="crispEdges" fill="rgb(90, 65, 65)"  x="5" y="10" width="1" height="1" /><rect shape-rendering="crispEdges" fill="rgb(82, 65, 65)"  x="5" y="11" width="1" height="1" /><rect shape-rendering="crispEdges" fill="rgb(82, 57, 57)"  x="5" y="12" width="1" height="1" /><rect shape-rendering="crispEdges" fill="rgb(82, 57, 57)"  x="5" y="13" width="1" height="1" /><rect shape-rendering="crispEdges" fill="rgb(82, 57, 57)"  x="5" y="14" width="1" height="1" /><rect shape-rendering="crispEdges" fill="rgb(82, 57, 57)"  x="5" y="15" width="1" height="1" /><rect shape-rendering="crispEdges" fill="rgb(106, 74, 82)"  x="6" y="0" width="1" height="1" /><rect shape-rendering="crispEdges" fill="rgb(106, 74, 82)"  x="6" y="1" width="1" height="1" /><rect shape-rendering="crispEdges" fill="rgb(106, 74, 74)"  x="6" y="2" width="1" height="1" /><rect shape-rendering="crispEdges" fill="rgb(255, 230, 238)"  x="6" y="3" width="1" height="1" /><rect shape-rendering="crispEdges" fill="rgb(255, 230, 238)"  x="6" y="4" width="1" height="1" /><rect shape-rendering="crispEdges" fill="rgb(255, 238, 238)"  x="6" y="5" width="1" height="1" /><rect shape-rendering="crispEdges" fill="rgb(255, 255, 255)"  x="6" y="6" width="1" height="1" /><rect shape-rendering="crispEdges" fill="rgb(164, 131, 131)"  x="6" y="7" width="1" height="1" /><rect shape-rendering="crispEdges" fill="rgb(213, 180, 180)"  x="6" y="8" width="1" height="1" /><rect shape-rendering="crispEdges" fill="rgb(205, 180, 180)"  x="6" y="9" width="1" height="1" /><rect shape-rendering="crispEdges" fill="rgb(90, 65, 65)"  x="6" y="10" width="1" height="1" /><rect shape-rendering="crispEdges" fill="rgb(82, 65, 65)"  x="6" y="11" width="1" height="1" /><rect shape-rendering="crispEdges" fill="rgb(246, 222, 222)"  x="6" y="12" width="1" height="1" /><rect shape-rendering="crispEdges" fill="rgb(238, 213, 213)"  x="6" y="13" width="1" height="1" /><rect shape-rendering="crispEdges" fill="rgb(82, 57, 57)"  x="6" y="14" width="1" height="1" /><rect shape-rendering="crispEdges" fill="rgb(82, 57, 57)"  x="6" y="15" width="1" height="1" /><rect shape-rendering="crispEdges" fill="rgb(106, 74, 82)"  x="7" y="0" width="1" height="1" /><rect shape-rendering="crispEdges" fill="rgb(106, 74, 74)"  x="7" y="1" width="1" height="1" /><rect shape-rendering="crispEdges" fill="rgb(106, 74, 74)"  x="7" y="2" width="1" height="1" /><rect shape-rendering="crispEdges" fill="rgb(106, 74, 74)"  x="7" y="3" width="1" height="1" /><rect shape-rendering="crispEdges" fill="rgb(255, 230, 238)"  x="7" y="4" width="1" height="1" /><rect shape-rendering="crispEdges" fill="rgb(255, 230, 238)"  x="7" y="5" width="1" height="1" /><rect shape-rendering="crispEdges" fill="rgb(255, 230, 238)"  x="7" y="6" width="1" height="1" /><rect shape-rendering="crispEdges" fill="rgb(255, 255, 255)"  x="7" y="7" width="1" height="1" /><rect shape-rendering="crispEdges" fill="rgb(164, 131, 139)"  x="7" y="8" width="1" height="1" /><rect shape-rendering="crispEdges" fill="rgb(205, 180, 180)"  x="7" y="9" width="1" height="1" /><rect shape-rendering="crispEdges" fill="rgb(230, 205, 205)"  x="7" y="10" width="1" height="1" /><rect shape-rendering="crispEdges" fill="rgb(255, 238, 238)"  x="7" y="11" width="1" height="1" /><rect shape-rendering="crispEdges" fill="rgb(230, 205, 205)"  x="7" y="12" width="1" height="1" /><rect shape-rendering="crispEdges" fill="rgb(197, 172, 172)"  x="7" y="13" width="1" height="1" /><rect shape-rendering="crispEdges" fill="rgb(82, 57, 57)"  x="7" y="14" width="1" height="1" /><rect shape-rendering="crispEdges" fill="rgb(74, 57, 57)"  x="7" y="15" width="1" height="1" /><rect shape-rendering="crispEdges" fill="rgb(106, 74, 82)"  x="8" y="0" width="1" height="1" /><rect shape-rendering="crispEdges" fill="rgb(106, 74, 74)"  x="8" y="1" width="1" height="1" /><rect shape-rendering="crispEdges" fill="rgb(106, 74, 74)"  x="8" y="2" width="1" height="1" /><rect shape-rendering="crispEdges" fill="rgb(106, 74, 74)"  x="8" y="3" width="1" height="1" /><rect shape-rendering="crispEdges" fill="rgb(106, 74, 74)"  x="8" y="4" width="1" height="1" /><rect shape-rendering="crispEdges" fill="rgb(255, 238, 238)"  x="8" y="5" width="1" height="1" /><rect shape-rendering="crispEdges" fill="rgb(255, 230, 238)"  x="8" y="6" width="1" height="1" /><rect shape-rendering="crispEdges" fill="rgb(255, 230, 230)"  x="8" y="7" width="1" height="1" /><rect shape-rendering="crispEdges" fill="rgb(255, 255, 255)"  x="8" y="8" width="1" height="1" /><rect shape-rendering="crispEdges" fill="rgb(156, 131, 131)"  x="8" y="9" width="1" height="1" /><rect shape-rendering="crispEdges" fill="rgb(205, 180, 180)"  x="8" y="10" width="1" height="1" /><rect shape-rendering="crispEdges" fill="rgb(205, 180, 180)"  x="8" y="11" width="1" height="1" /><rect shape-rendering="crispEdges" fill="rgb(205, 180, 180)"  x="8" y="12" width="1" height="1" /><rect shape-rendering="crispEdges" fill="rgb(82, 57, 57)"  x="8" y="13" width="1" height="1" /><rect shape-rendering="crispEdges" fill="rgb(82, 57, 57)"  x="8" y="14" width="1" height="1" /><rect shape-rendering="crispEdges" fill="rgb(82, 57, 57)"  x="8" y="15" width="1" height="1" /><rect shape-rendering="crispEdges" fill="rgb(106, 74, 74)"  x="9" y="0" width="1" height="1" /><rect shape-rendering="crispEdges" fill="rgb(106, 74, 74)"  x="9" y="1" width="1" height="1" /><rect shape-rendering="crispEdges" fill="rgb(106, 74, 74)"  x="9" y="2" width="1" height="1" /><rect shape-rendering="crispEdges" fill="rgb(106, 74, 74)"  x="9" y="3" width="1" height="1" /><rect shape-rendering="crispEdges" fill="rgb(106, 74, 74)"  x="9" y="4" width="1" height="1" /><rect shape-rendering="crispEdges" fill="rgb(98, 74, 74)"  x="9" y="5" width="1" height="1" /><rect shape-rendering="crispEdges" fill="rgb(255, 230, 238)"  x="9" y="6" width="1" height="1" /><rect shape-rendering="crispEdges" fill="rgb(255, 230, 238)"  x="9" y="7" width="1" height="1" /><rect shape-rendering="crispEdges" fill="rgb(255, 230, 230)"  x="9" y="8" width="1" height="1" /><rect shape-rendering="crispEdges" fill="rgb(255, 255, 255)"  x="9" y="9" width="1" height="1" /><rect shape-rendering="crispEdges" fill="rgb(205, 180, 180)"  x="9" y="10" width="1" height="1" /><rect shape-rendering="crispEdges" fill="rgb(197, 180, 180)"  x="9" y="11" width="1" height="1" /><rect shape-rendering="crispEdges" fill="rgb(82, 57, 57)"  x="9" y="12" width="1" height="1" /><rect shape-rendering="crispEdges" fill="rgb(82, 57, 57)"  x="9" y="13" width="1" height="1" /><rect shape-rendering="crispEdges" fill="rgb(82, 57, 57)"  x="9" y="14" width="1" height="1" /><rect shape-rendering="crispEdges" fill="rgb(82, 57, 57)"  x="9" y="15" width="1" height="1" /><rect shape-rendering="crispEdges" fill="rgb(106, 74, 74)"  x="10" y="0" width="1" height="1" /><rect shape-rendering="crispEdges" fill="rgb(106, 74, 74)"  x="10" y="1" width="1" height="1" /><rect shape-rendering="crispEdges" fill="rgb(106, 74, 74)"  x="10" y="2" width="1" height="1" /><rect shape-rendering="crispEdges" fill="rgb(106, 74, 74)"  x="10" y="3" width="1" height="1" /><rect shape-rendering="crispEdges" fill="rgb(106, 74, 74)"  x="10" y="4" width="1" height="1" /><rect shape-rendering="crispEdges" fill="rgb(98, 74, 74)"  x="10" y="5" width="1" height="1" /><rect shape-rendering="crispEdges" fill="rgb(98, 74, 74)"  x="10" y="6" width="1" height="1" /><rect shape-rendering="crispEdges" fill="rgb(230, 197, 205)"  x="10" y="7" width="1" height="1" /><rect shape-rendering="crispEdges" fill="rgb(255, 238, 238)"  x="10" y="8" width="1" height="1" /><rect shape-rendering="crispEdges" fill="rgb(230, 205, 205)"  x="10" y="9" width="1" height="1" /><rect shape-rendering="crispEdges" fill="rgb(205, 180, 180)"  x="10" y="10" width="1" height="1" /><rect shape-rendering="crispEdges" fill="rgb(205, 180, 180)"  x="10" y="11" width="1" height="1" /><rect shape-rendering="crispEdges" fill="rgb(205, 180, 180)"  x="10" y="12" width="1" height="1" /><rect shape-rendering="crispEdges" fill="rgb(82, 57, 57)"  x="10" y="13" width="1" height="1" /><rect shape-rendering="crispEdges" fill="rgb(82, 57, 57)"  x="10" y="14" width="1" height="1" /><rect shape-rendering="crispEdges" fill="rgb(82, 57, 57)"  x="10" y="15" width="1" height="1" /><rect shape-rendering="crispEdges" fill="rgb(106, 74, 74)"  x="11" y="0" width="1" height="1" /><rect shape-rendering="crispEdges" fill="rgb(106, 74, 74)"  x="11" y="1" width="1" height="1" /><rect shape-rendering="crispEdges" fill="rgb(106, 74, 74)"  x="11" y="2" width="1" height="1" /><rect shape-rendering="crispEdges" fill="rgb(106, 74, 74)"  x="11" y="3" width="1" height="1" /><rect shape-rendering="crispEdges" fill="rgb(106, 74, 74)"  x="11" y="4" width="1" height="1" /><rect shape-rendering="crispEdges" fill="rgb(98, 74, 74)"  x="11" y="5" width="1" height="1" /><rect shape-rendering="crispEdges" fill="rgb(98, 74, 74)"  x="11" y="6" width="1" height="1" /><rect shape-rendering="crispEdges" fill="rgb(255, 230, 230)"  x="11" y="7" width="1" height="1" /><rect shape-rendering="crispEdges" fill="rgb(230, 205, 205)"  x="11" y="8" width="1" height="1" /><rect shape-rendering="crispEdges" fill="rgb(197, 172, 172)"  x="11" y="9" width="1" height="1" /><rect shape-rendering="crispEdges" fill="rgb(205, 180, 180)"  x="11" y="10" width="1" height="1" /><rect shape-rendering="crispEdges" fill="rgb(205, 180, 180)"  x="11" y="11" width="1" height="1" /><rect shape-rendering="crispEdges" fill="rgb(197, 180, 180)"  x="11" y="12" width="1" height="1" /><rect shape-rendering="crispEdges" fill="rgb(82, 57, 57)"  x="11" y="13" width="1" height="1" /><rect shape-rendering="crispEdges" fill="rgb(82, 57, 57)"  x="11" y="14" width="1" height="1" /><rect shape-rendering="crispEdges" fill="rgb(82, 57, 57)"  x="11" y="15" width="1" height="1" /><rect shape-rendering="crispEdges" fill="rgb(106, 74, 74)"  x="12" y="0" width="1" height="1" /><rect shape-rendering="crispEdges" fill="rgb(106, 74, 74)"  x="12" y="1" width="1" height="1" /><rect shape-rendering="crispEdges" fill="rgb(106, 74, 74)"  x="12" y="2" width="1" height="1" /><rect shape-rendering="crispEdges" fill="rgb(106, 74, 74)"  x="12" y="3" width="1" height="1" /><rect shape-rendering="crispEdges" fill="rgb(106, 74, 74)"  x="12" y="4" width="1" height="1" /><rect shape-rendering="crispEdges" fill="rgb(98, 74, 74)"  x="12" y="5" width="1" height="1" /><rect shape-rendering="crispEdges" fill="rgb(255, 222, 230)"  x="12" y="6" width="1" height="1" /><rect shape-rendering="crispEdges" fill="rgb(230, 205, 205)"  x="12" y="7" width="1" height="1" /><rect shape-rendering="crispEdges" fill="rgb(205, 172, 180)"  x="12" y="8" width="1" height="1" /><rect shape-rendering="crispEdges" fill="rgb(90, 65, 65)"  x="12" y="9" width="1" height="1" /><rect shape-rendering="crispEdges" fill="rgb(205, 180, 180)"  x="12" y="10" width="1" height="1" /><rect shape-rendering="crispEdges" fill="rgb(246, 222, 222)"  x="12" y="11" width="1" height="1" /><rect shape-rendering="crispEdges" fill="rgb(205, 180, 180)"  x="12" y="12" width="1" height="1" /><rect shape-rendering="crispEdges" fill="rgb(205, 180, 180)"  x="12" y="13" width="1" height="1" /><rect shape-rendering="crispEdges" fill="rgb(82, 57, 57)"  x="12" y="14" width="1" height="1" /><rect shape-rendering="crispEdges" fill="rgb(82, 57, 57)"  x="12" y="15" width="1" height="1" /><rect shape-rendering="crispEdges" fill="rgb(106, 74, 74)"  x="13" y="0" width="1" height="1" /><rect shape-rendering="crispEdges" fill="rgb(106, 74, 74)"  x="13" y="1" width="1" height="1" /><rect shape-rendering="crispEdges" fill="rgb(106, 74, 74)"  x="13" y="2" width="1" height="1" /><rect shape-rendering="crispEdges" fill="rgb(106, 74, 74)"  x="13" y="3" width="1" height="1" /><rect shape-rendering="crispEdges" fill="rgb(106, 74, 74)"  x="13" y="4" width="1" height="1" /><rect shape-rendering="crispEdges" fill="rgb(98, 74, 74)"  x="13" y="5" width="1" height="1" /><rect shape-rendering="crispEdges" fill="rgb(255, 222, 222)"  x="13" y="6" width="1" height="1" /><rect shape-rendering="crispEdges" fill="rgb(197, 172, 172)"  x="13" y="7" width="1" height="1" /><rect shape-rendering="crispEdges" fill="rgb(90, 65, 65)"  x="13" y="8" width="1" height="1" /><rect shape-rendering="crispEdges" fill="rgb(90, 65, 65)"  x="13" y="9" width="1" height="1" /><rect shape-rendering="crispEdges" fill="rgb(90, 65, 65)"  x="13" y="10" width="1" height="1" /><rect shape-rendering="crispEdges" fill="rgb(82, 65, 65)"  x="13" y="11" width="1" height="1" /><rect shape-rendering="crispEdges" fill="rgb(246, 222, 222)"  x="13" y="12" width="1" height="1" /><rect shape-rendering="crispEdges" fill="rgb(205, 180, 180)"  x="13" y="13" width="1" height="1" /><rect shape-rendering="crispEdges" fill="rgb(205, 180, 180)"  x="13" y="14" width="1" height="1" /><rect shape-rendering="crispEdges" fill="rgb(82, 57, 57)"  x="13" y="15" width="1" height="1" /><rect shape-rendering="crispEdges" fill="rgb(106, 74, 82)"  x="14" y="0" width="1" height="1" /><rect shape-rendering="crispEdges" fill="rgb(106, 74, 74)"  x="14" y="1" width="1" height="1" /><rect shape-rendering="crispEdges" fill="rgb(106, 74, 74)"  x="14" y="2" width="1" height="1" /><rect shape-rendering="crispEdges" fill="rgb(106, 74, 74)"  x="14" y="3" width="1" height="1" /><rect shape-rendering="crispEdges" fill="rgb(106, 74, 74)"  x="14" y="4" width="1" height="1" /><rect shape-rendering="crispEdges" fill="rgb(98, 74, 74)"  x="14" y="5" width="1" height="1" /><rect shape-rendering="crispEdges" fill="rgb(98, 65, 74)"  x="14" y="6" width="1" height="1" /><rect shape-rendering="crispEdges" fill="rgb(98, 65, 74)"  x="14" y="7" width="1" height="1" /><rect shape-rendering="crispEdges" fill="rgb(90, 65, 65)"  x="14" y="8" width="1" height="1" /><rect shape-rendering="crispEdges" fill="rgb(90, 65, 65)"  x="14" y="9" width="1" height="1" /><rect shape-rendering="crispEdges" fill="rgb(90, 65, 65)"  x="14" y="10" width="1" height="1" /><rect shape-rendering="crispEdges" fill="rgb(82, 65, 65)"  x="14" y="11" width="1" height="1" /><rect shape-rendering="crispEdges" fill="rgb(82, 57, 57)"  x="14" y="12" width="1" height="1" /><rect shape-rendering="crispEdges" fill="rgb(238, 222, 222)"  x="14" y="13" width="1" height="1" /><rect shape-rendering="crispEdges" fill="rgb(205, 180, 180)"  x="14" y="14" width="1" height="1" /><rect shape-rendering="crispEdges" fill="rgb(82, 57, 57)"  x="14" y="15" width="1" height="1" /><rect shape-rendering="crispEdges" fill="rgb(106, 74, 82)"  x="15" y="0" width="1" height="1" /><rect shape-rendering="crispEdges" fill="rgb(106, 74, 74)"  x="15" y="1" width="1" height="1" /><rect shape-rendering="crispEdges" fill="rgb(106, 74, 74)"  x="15" y="2" width="1" height="1" /><rect shape-rendering="crispEdges" fill="rgb(106, 74, 74)"  x="15" y="3" width="1" height="1" /><rect shape-rendering="crispEdges" fill="rgb(106, 74, 74)"  x="15" y="4" width="1" height="1" /><rect shape-rendering="crispEdges" fill="rgb(98, 74, 74)"  x="15" y="5" width="1" height="1" /><rect shape-rendering="crispEdges" fill="rgb(98, 65, 74)"  x="15" y="6" width="1" height="1" /><rect shape-rendering="crispEdges" fill="rgb(98, 65, 74)"  x="15" y="7" width="1" height="1" /><rect shape-rendering="crispEdges" fill="rgb(90, 65, 65)"  x="15" y="8" width="1" height="1" /><rect shape-rendering="crispEdges" fill="rgb(90, 65, 65)"  x="15" y="9" width="1" height="1" /><rect shape-rendering="crispEdges" fill="rgb(90, 65, 65)"  x="15" y="10" width="1" height="1" /><rect shape-rendering="crispEdges" fill="rgb(82, 65, 65)"  x="15" y="11" width="1" height="1" /><rect shape-rendering="crispEdges" fill="rgb(82, 57, 57)"  x="15" y="12" width="1" height="1" /><rect shape-rendering="crispEdges" fill="rgb(82, 57, 57)"  x="15" y="13" width="1" height="1" /><rect shape-rendering="crispEdges" fill="rgb(82, 57, 57)"  x="15" y="14" width="1" height="1" /><rect shape-rendering="crispEdges" fill="rgb(74, 57, 57)"  x="15" y="15" width="1" height="1" /></svg>